0, 0, Header, 1, 7, 480
1, 0, Start_track
1, 0, Title_t, "Seq-1"
1, 0, SMPTE_offset, 96, 0, 0, 0, 0
1, 0, Time_signature, 4, 2, 24, 8
1, 0, Tempo, 571428
1, 960, Tempo, 554569
1, 980, Tempo, 545454
1, 1680, Tempo, 571427
1, 2480, Tempo, 545454
1, 4080, Tempo, 624360
1, 4100, Tempo, 666666
1, 6120, Tempo, 500000
1, 15840, Tempo, 545457
1, 16320, Tempo, 571429
1, 16560, Tempo, 600000
1, 17040, Tempo, 666666
1, 17280, Tempo, 545455
1, 17660, Tempo, 544269
1, 17680, Tempo, 521739
1, 18020, Tempo, 500000
1, 28800, Tempo, 502275
1, 28820, Tempo, 545454
1, 29540, Tempo, 559759
1, 29560, Tempo, 571428
1, 30020, Tempo, 587154
1, 30040, Tempo, 600000
1, 31340, Tempo, 550000
1, 31360, Tempo, 500000
1, 39600, Tempo, 502273
1, 39620, Tempo, 545454
1, 39860, Tempo, 521739
1, 40640, Tempo, 543095
1, 40660, Tempo, 545454
1, 40900, Tempo, 544275
1, 40920, Tempo, 521739
1, 41420, Tempo, 524115
1, 41440, Tempo, 545454
1, 41720, Tempo, 521739
1, 41960, Tempo, 500000
1, 42200, Tempo, 525009
1, 42220, Tempo, 545454
1, 42500, Tempo, 543189
1, 42520, Tempo, 500000
1, 71360, Tempo, 521739
1, 72100, Tempo, 534788
1, 72120, Tempo, 545454
1, 72780, Tempo, 666667
1, 73040, Tempo, 600000
1, 74240, Tempo, 595012
1, 74260, Tempo, 500000
1, 91260, Tempo, 527273
1, 91280, Tempo, 545454
1, 91540, Tempo, 600000
1, 92080, Tempo, 500000
1, 94540, Tempo, 560007
1, 94560, Tempo, 600000
1, 94800, Tempo, 633333
1, 94820, Tempo, 666666
1, 95420, Tempo, 660020
1, 95440, Tempo, 600000
1, 95580, Tempo, 567273
1, 95600, Tempo, 545454
1, 97140, Tempo, 518220
1, 97160, Tempo, 542727
1, 97460, Tempo, 561042
1, 97480, Tempo, 571428
1, 97920, Tempo, 528583
1, 97940, Tempo, 499999
1, 161580, Tempo, 545533
1, 162380, Tempo, 522769
1, 162400, Tempo, 500000
1, 164820, Tempo, 535714
1, 164840, Tempo, 571428
1, 165560, Tempo, 564304
1, 165580, Tempo, 500000
1, 167720, Tempo, 545454
1, 167880, Tempo, 531229
1, 167900, Tempo, 521739
1, 168000, Tempo, 516305
1, 168020, Tempo, 500000
1, 199640, Tempo, 522728
1, 199660, Tempo, 545454
1, 199880, Tempo, 600000
1, 200320, Tempo, 521739
1, 201880, Tempo, 600000
1, 202320, Tempo, 578590
1, 202340, Tempo, 571428
1, 202540, Tempo, 545454
1, 202760, Tempo, 521740
1, 202960, Tempo, 571428
1, 203200, Tempo, 545455
1, 203520, Tempo, 521739
1, 203520, End_track
2, 0, Start_track
2, 0, Title_t, "Liszt Paganini Etude"
2, 5, Control_c, 0, 7, 127
2, 100, Control_c, 0, 67, 127
2, 229, Note_on_c, 0, 75, 53
2, 236, Note_on_c, 0, 63, 41
2, 338, Control_c, 0, 64, 127
2, 367, Note_off_c, 0, 63, 64
2, 387, Note_off_c, 0, 75, 64
2, 486, Note_on_c, 0, 75, 50
2, 493, Note_on_c, 0, 63, 39
2, 623, Note_off_c, 0, 63, 64
2, 644, Note_off_c, 0, 75, 64
2, 726, Note_on_c, 0, 75, 47
2, 733, Note_on_c, 0, 63, 43
2, 871, Note_off_c, 0, 63, 64
2, 877, Note_off_c, 0, 75, 64
2, 990, Note_on_c, 0, 99, 56
2, 996, Note_on_c, 0, 87, 50
2, 1110, Note_off_c, 0, 99, 64
2, 1116, Note_off_c, 0, 87, 64
2, 1247, Note_on_c, 0, 99, 50
2, 1254, Note_on_c, 0, 87, 40
2, 1367, Note_off_c, 0, 99, 64
2, 1374, Note_off_c, 0, 87, 64
2, 1487, Note_on_c, 0, 99, 55
2, 1493, Note_on_c, 0, 87, 51
2, 1607, Note_off_c, 0, 99, 64
2, 1613, Note_off_c, 0, 87, 64
2, 1737, Note_on_c, 0, 75, 49
2, 1744, Note_on_c, 0, 63, 45
2, 1768, Control_c, 0, 64, 0
2, 1852, Note_off_c, 0, 75, 64
2, 1862, Note_off_c, 0, 63, 64
2, 1902, Control_c, 0, 64, 127
2, 1994, Note_on_c, 0, 75, 48
2, 2001, Note_on_c, 0, 63, 41
2, 2097, Note_off_c, 0, 63, 64
2, 2112, Note_off_c, 0, 75, 64
2, 2251, Note_on_c, 0, 75, 45
2, 2258, Note_on_c, 0, 63, 40
2, 2381, Note_off_c, 0, 63, 64
2, 2383, Note_off_c, 0, 75, 64
2, 2508, Note_on_c, 0, 99, 47
2, 2515, Note_on_c, 0, 87, 46
2, 2631, Note_off_c, 0, 87, 64
2, 2645, Note_off_c, 0, 99, 64
2, 2766, Note_on_c, 0, 99, 45
2, 2772, Note_on_c, 0, 87, 42
2, 2903, Note_off_c, 0, 99, 64
2, 2904, Note_off_c, 0, 87, 64
2, 3040, Note_on_c, 0, 99, 44
2, 3047, Note_on_c, 0, 87, 43
2, 3173, Note_off_c, 0, 87, 64
2, 3177, Note_off_c, 0, 99, 64
2, 3314, Note_on_c, 0, 75, 49
2, 3321, Note_on_c, 0, 63, 43
2, 3330, Control_c, 0, 64, 0
2, 3496, Control_c, 0, 64, 127
2, 3516, Note_off_c, 0, 63, 64
2, 3520, Note_off_c, 0, 75, 64
2, 3605, Note_on_c, 0, 99, 46
2, 3612, Note_on_c, 0, 87, 48
2, 3733, Note_off_c, 0, 87, 64
2, 3742, Note_off_c, 0, 99, 64
2, 3880, Note_on_c, 0, 99, 44
2, 3886, Note_on_c, 0, 87, 40
2, 4017, Note_off_c, 0, 87, 64
2, 4034, Note_off_c, 0, 99, 64
2, 4171, Note_on_c, 0, 75, 41
2, 4178, Note_on_c, 0, 63, 35
2, 4190, Control_c, 0, 64, 0
2, 4377, Note_off_c, 0, 63, 64
2, 4382, Control_c, 0, 64, 127
2, 4394, Note_off_c, 0, 75, 64
2, 4462, Note_on_c, 0, 99, 40
2, 4469, Note_on_c, 0, 87, 35
2, 4612, Note_off_c, 0, 87, 64
2, 4616, Note_off_c, 0, 99, 64
2, 4771, Note_on_c, 0, 99, 38
2, 4778, Note_on_c, 0, 87, 34
2, 4925, Note_off_c, 0, 99, 64
2, 4929, Note_off_c, 0, 87, 64
2, 5378, Control_c, 0, 64, 0
2, 5847, Control_c, 0, 67, 0
2, 6285, Note_on_c, 0, 75, 35
2, 6405, Note_on_c, 0, 87, 41
2, 6474, Note_off_c, 0, 87, 64
2, 6525, Note_off_c, 0, 75, 64
2, 6526, Note_on_c, 0, 87, 47
2, 6645, Note_off_c, 0, 87, 64
2, 6646, Note_on_c, 0, 99, 53
2, 6714, Note_off_c, 0, 99, 64
2, 6765, Note_on_c, 0, 87, 59
2, 6885, Note_off_c, 0, 87, 64
2, 6886, Note_on_c, 0, 99, 59
2, 6953, Note_off_c, 0, 99, 64
2, 7005, Note_on_c, 0, 85, 56
2, 7125, Note_off_c, 0, 85, 64
2, 7126, Note_on_c, 0, 99, 53
2, 7160, Control_c, 0, 64, 127
2, 7193, Note_off_c, 0, 99, 64
2, 7245, Note_on_c, 0, 56, 43
2, 7245, Note_on_c, 0, 83, 49
2, 7313, Note_on_c, 0, 63, 46
2, 7360, Note_off_c, 0, 56, 64
2, 7365, Note_off_c, 0, 83, 64
2, 7367, Note_on_c, 0, 71, 49
2, 7367, Note_on_c, 0, 99, 47
2, 7400, Note_off_c, 0, 63, 64
2, 7412, Note_off_c, 0, 71, 64
2, 7434, Note_off_c, 0, 99, 64
2, 7485, Note_on_c, 0, 83, 59
2, 7600, Control_c, 0, 64, 0
2, 7605, Note_off_c, 0, 83, 64
2, 7606, Note_on_c, 0, 99, 59
2, 7673, Note_off_c, 0, 99, 64
2, 7725, Note_on_c, 0, 82, 57
2, 7845, Note_off_c, 0, 82, 64
2, 7846, Note_on_c, 0, 99, 55
2, 7913, Note_off_c, 0, 99, 64
2, 7965, Note_on_c, 0, 59, 43
2, 7965, Note_on_c, 0, 80, 52
2, 7980, Control_c, 0, 64, 127
2, 8033, Note_on_c, 0, 68, 46
2, 8078, Note_off_c, 0, 59, 64
2, 8085, Note_off_c, 0, 80, 64
2, 8086, Note_on_c, 0, 75, 48
2, 8086, Note_on_c, 0, 99, 50
2, 8116, Note_off_c, 0, 68, 64
2, 8130, Note_off_c, 0, 75, 64
2, 8154, Note_off_c, 0, 99, 64
2, 8205, Note_on_c, 0, 79, 47
2, 8300, Control_c, 0, 64, 0
2, 8325, Note_off_c, 0, 79, 64
2, 8326, Note_on_c, 0, 99, 47
2, 8393, Note_off_c, 0, 99, 64
2, 8445, Note_on_c, 0, 80, 53
2, 8565, Note_off_c, 0, 80, 64
2, 8566, Note_on_c, 0, 99, 59
2, 8633, Note_off_c, 0, 99, 64
2, 8685, Note_on_c, 0, 63, 43
2, 8685, Note_on_c, 0, 82, 53
2, 8700, Control_c, 0, 64, 127
2, 8753, Note_on_c, 0, 70, 46
2, 8805, Note_off_c, 0, 82, 64
2, 8806, Note_on_c, 0, 79, 48
2, 8806, Note_on_c, 0, 99, 53
2, 8807, Note_off_c, 0, 63, 64
2, 8826, Note_off_c, 0, 70, 64
2, 8873, Note_off_c, 0, 99, 64
2, 8874, Note_off_c, 0, 79, 64
2, 8924, Note_on_c, 0, 75, 47
2, 9044, Note_off_c, 0, 75, 64
2, 9046, Note_on_c, 0, 99, 47
2, 9060, Control_c, 0, 64, 0
2, 9113, Note_off_c, 0, 99, 64
2, 9164, Note_on_c, 0, 75, 47
2, 9284, Note_off_c, 0, 75, 64
2, 9286, Note_on_c, 0, 87, 53
2, 9353, Note_off_c, 0, 87, 64
2, 9405, Note_on_c, 0, 76, 59
2, 9405, Note_on_c, 0, 67, 47
2, 9430, Control_c, 0, 64, 127
2, 9473, Note_on_c, 0, 70, 47
2, 9519, Note_off_c, 0, 67, 64
2, 9525, Note_off_c, 0, 76, 64
2, 9526, Note_on_c, 0, 87, 59
2, 9542, Note_off_c, 0, 70, 64
2, 9593, Note_off_c, 0, 87, 64
2, 9644, Note_on_c, 0, 75, 56
2, 9720, Control_c, 0, 64, 0
2, 9764, Note_off_c, 0, 75, 64
2, 9766, Note_on_c, 0, 87, 53
2, 9833, Note_off_c, 0, 87, 64
2, 9884, Note_on_c, 0, 73, 50
2, 10004, Note_off_c, 0, 73, 64
2, 10005, Note_on_c, 0, 87, 50
2, 10072, Note_off_c, 0, 87, 64
2, 10086, Control_c, 0, 64, 127
2, 10125, Note_on_c, 0, 71, 49
2, 10125, Note_on_c, 0, 68, 47
2, 10245, Note_off_c, 0, 71, 64
2, 10245, Note_off_c, 0, 68, 64
2, 10246, Note_on_c, 0, 87, 49
2, 10313, Note_off_c, 0, 87, 64
2, 10364, Note_on_c, 0, 71, 49
2, 10376, Control_c, 0, 64, 0
2, 10484, Note_off_c, 0, 71, 64
2, 10485, Note_on_c, 0, 87, 49
2, 10552, Note_off_c, 0, 87, 64
2, 10604, Note_on_c, 0, 70, 49
2, 10724, Note_off_c, 0, 70, 64
2, 10725, Note_on_c, 0, 87, 49
2, 10792, Note_off_c, 0, 87, 64
2, 10845, Note_on_c, 0, 68, 49
2, 10850, Control_c, 0, 64, 127
2, 10887, Note_on_c, 0, 59, 47
2, 10924, Note_on_c, 0, 62, 50
2, 10965, Note_off_c, 0, 68, 64
2, 10965, Note_on_c, 0, 65, 52
2, 10965, Note_on_c, 0, 87, 49
2, 11032, Note_off_c, 0, 87, 64
2, 11035, Note_off_c, 0, 65, 64
2, 11046, Note_off_c, 0, 62, 64
2, 11076, Note_off_c, 0, 59, 64
2, 11084, Note_on_c, 0, 67, 47
2, 11204, Note_off_c, 0, 67, 64
2, 11205, Note_on_c, 0, 87, 47
2, 11238, Control_c, 0, 64, 0
2, 11272, Note_off_c, 0, 87, 64
2, 11324, Note_on_c, 0, 68, 48
2, 11444, Note_off_c, 0, 68, 64
2, 11445, Note_on_c, 0, 87, 49
2, 11512, Note_off_c, 0, 87, 64
2, 11565, Note_on_c, 0, 67, 47
2, 11565, Note_on_c, 0, 63, 41
2, 11565, Note_on_c, 0, 70, 54
2, 11684, Note_off_c, 0, 67, 64
2, 11685, Note_off_c, 0, 63, 64
2, 11685, Note_on_c, 0, 87, 52
2, 11805, Note_off_c, 0, 70, 64
2, 11805, Note_off_c, 0, 87, 64
2, 11805, Note_on_c, 0, 63, 53
2, 11924, Note_on_c, 0, 75, 52
2, 11990, Note_off_c, 0, 75, 64
2, 12026, Note_off_c, 0, 63, 64
2, 12044, Note_on_c, 0, 75, 53
2, 12164, Note_off_c, 0, 75, 64
2, 12165, Note_on_c, 0, 87, 54
2, 12240, Note_off_c, 0, 87, 64
2, 12284, Note_on_c, 0, 87, 56
2, 12404, Note_off_c, 0, 87, 64
2, 12405, Note_on_c, 0, 99, 56
2, 12472, Note_off_c, 0, 99, 64
2, 12524, Note_on_c, 0, 87, 53
2, 12644, Note_off_c, 0, 87, 64
2, 12645, Note_on_c, 0, 99, 50
2, 12712, Note_off_c, 0, 99, 64
2, 12764, Note_on_c, 0, 85, 47
2, 12884, Note_off_c, 0, 85, 64
2, 12885, Note_on_c, 0, 99, 44
2, 12952, Note_off_c, 0, 99, 64
2, 12974, Control_c, 0, 64, 95
2, 13004, Note_on_c, 0, 56, 44
2, 13004, Note_on_c, 0, 83, 44
2, 13072, Note_on_c, 0, 63, 47
2, 13115, Note_off_c, 0, 56, 64
2, 13124, Note_off_c, 0, 83, 64
2, 13125, Note_on_c, 0, 71, 50
2, 13125, Note_on_c, 0, 99, 50
2, 13155, Note_off_c, 0, 63, 64
2, 13178, Note_off_c, 0, 71, 64
2, 13192, Note_off_c, 0, 99, 64
2, 13243, Note_on_c, 0, 83, 56
2, 13352, Control_c, 0, 64, 0
2, 13363, Note_off_c, 0, 83, 64
2, 13365, Note_on_c, 0, 99, 56
2, 13432, Note_off_c, 0, 99, 64
2, 13483, Note_on_c, 0, 82, 54
2, 13603, Note_off_c, 0, 82, 64
2, 13605, Note_on_c, 0, 99, 52
2, 13672, Note_off_c, 0, 99, 64
2, 13700, Control_c, 0, 64, 100
2, 13724, Note_on_c, 0, 59, 42
2, 13724, Note_on_c, 0, 80, 49
2, 13792, Note_on_c, 0, 68, 47
2, 13835, Note_off_c, 0, 59, 64
2, 13844, Note_off_c, 0, 80, 64
2, 13845, Note_on_c, 0, 75, 52
2, 13845, Note_on_c, 0, 99, 47
2, 13874, Note_off_c, 0, 68, 64
2, 13890, Note_off_c, 0, 75, 64
2, 13912, Note_off_c, 0, 99, 64
2, 13954, Control_c, 0, 64, 0
2, 13963, Note_on_c, 0, 79, 44
2, 14083, Note_off_c, 0, 79, 64
2, 14084, Note_on_c, 0, 99, 44
2, 14151, Note_off_c, 0, 99, 64
2, 14203, Note_on_c, 0, 80, 50
2, 14323, Note_off_c, 0, 80, 64
2, 14324, Note_on_c, 0, 99, 56
2, 14430, Control_c, 0, 64, 127
2, 14443, Note_off_c, 0, 99, 64
2, 14445, Note_on_c, 0, 63, 42
2, 14445, Note_on_c, 0, 82, 56
2, 14512, Note_off_c, 0, 82, 64
2, 14513, Note_on_c, 0, 70, 52
2, 14564, Note_on_c, 0, 99, 50
2, 14564, Note_on_c, 0, 79, 44
2, 14578, Note_off_c, 0, 63, 64
2, 14589, Note_off_c, 0, 70, 64
2, 14633, Note_off_c, 0, 99, 64
2, 14634, Note_off_c, 0, 79, 64
2, 14683, Note_on_c, 0, 75, 44
2, 14688, Control_c, 0, 64, 0
2, 14752, Note_off_c, 0, 75, 64
2, 14803, Note_on_c, 0, 99, 44
2, 14871, Note_off_c, 0, 99, 64
2, 14923, Note_on_c, 0, 75, 48
2, 14991, Note_off_c, 0, 75, 64
2, 15043, Note_on_c, 0, 87, 52
2, 15112, Note_off_c, 0, 87, 64
2, 15130, Control_c, 0, 64, 96
2, 15164, Note_on_c, 0, 76, 56
2, 15164, Note_on_c, 0, 67, 42
2, 15233, Note_off_c, 0, 76, 64
2, 15233, Note_on_c, 0, 70, 52
2, 15283, Note_on_c, 0, 87, 56
2, 15317, Note_off_c, 0, 67, 64
2, 15319, Note_off_c, 0, 70, 64
2, 15352, Note_off_c, 0, 87, 64
2, 15398, Control_c, 0, 64, 0
2, 15403, Note_on_c, 0, 75, 52
2, 15472, Note_off_c, 0, 75, 64
2, 15523, Note_on_c, 0, 87, 48
2, 15592, Note_off_c, 0, 87, 64
2, 15644, Note_on_c, 0, 75, 46
2, 15644, Note_on_c, 0, 73, 46
2, 15711, Note_off_c, 0, 73, 64
2, 15764, Note_off_c, 0, 75, 64
2, 15764, Note_on_c, 0, 87, 46
2, 15831, Note_off_c, 0, 87, 64
2, 15868, Control_c, 0, 64, 127
2, 15884, Note_on_c, 0, 75, 44
2, 15884, Note_on_c, 0, 71, 32
2, 15884, Note_on_c, 0, 68, 28
2, 15953, Note_off_c, 0, 75, 64
2, 16003, Note_on_c, 0, 87, 44
2, 16072, Note_off_c, 0, 87, 64
2, 16122, Note_off_c, 0, 71, 64
2, 16123, Note_off_c, 0, 68, 64
2, 16125, Note_on_c, 0, 80, 50
2, 16191, Note_off_c, 0, 80, 64
2, 16200, Control_c, 0, 64, 0
2, 16243, Note_on_c, 0, 83, 56
2, 16312, Note_off_c, 0, 83, 64
2, 16363, Note_on_c, 0, 87, 86
2, 16432, Note_off_c, 0, 87, 64
2, 16483, Note_on_c, 0, 99, 68
2, 16552, Note_off_c, 0, 99, 64
2, 16578, Control_c, 0, 64, 127
2, 16601, Note_on_c, 0, 67, 44
2, 16603, Note_on_c, 0, 73, 50
2, 16603, Note_on_c, 0, 63, 38
2, 16604, Note_on_c, 0, 75, 44
2, 16673, Note_off_c, 0, 75, 64
2, 16723, Note_on_c, 0, 87, 44
2, 16789, Note_off_c, 0, 63, 64
2, 16791, Note_off_c, 0, 87, 64
2, 16801, Note_off_c, 0, 67, 64
2, 16811, Note_off_c, 0, 73, 64
2, 16845, Note_on_c, 0, 79, 50
2, 16904, Control_c, 0, 64, 0
2, 16911, Note_off_c, 0, 79, 64
2, 16963, Note_on_c, 0, 82, 56
2, 17032, Note_off_c, 0, 82, 64
2, 17082, Note_on_c, 0, 87, 86
2, 17151, Note_off_c, 0, 87, 64
2, 17202, Note_on_c, 0, 99, 68
2, 17271, Note_off_c, 0, 99, 64
2, 17322, Note_on_c, 0, 56, 56
2, 17390, Note_off_c, 0, 56, 64
2, 17442, Note_on_c, 0, 63, 56
2, 17511, Note_off_c, 0, 63, 64
2, 17562, Note_on_c, 0, 71, 62
2, 17631, Note_off_c, 0, 71, 64
2, 17682, Note_on_c, 0, 80, 68
2, 17751, Note_off_c, 0, 80, 64
2, 17802, Note_on_c, 0, 75, 44
2, 17871, Note_off_c, 0, 75, 64
2, 17922, Note_on_c, 0, 87, 47
2, 17991, Note_off_c, 0, 87, 64
2, 18042, Note_on_c, 0, 99, 53
2, 18111, Note_off_c, 0, 99, 64
2, 18162, Note_on_c, 0, 87, 53
2, 18231, Note_off_c, 0, 87, 64
2, 18282, Note_on_c, 0, 99, 60
2, 18351, Note_off_c, 0, 99, 64
2, 18402, Note_on_c, 0, 87, 60
2, 18471, Note_off_c, 0, 87, 64
2, 18522, Note_on_c, 0, 99, 67
2, 18591, Note_off_c, 0, 99, 64
2, 18642, Note_on_c, 0, 85, 67
2, 18711, Note_off_c, 0, 85, 64
2, 18762, Control_c, 0, 64, 127
2, 18775, Note_on_c, 0, 85, 71
2, 18820, Note_on_c, 0, 44, 56
2, 18844, Note_on_c, 0, 83, 71
2, 18892, Note_off_c, 0, 85, 64
2, 18938, Note_off_c, 0, 44, 64
2, 18952, Note_off_c, 0, 83, 64
2, 18952, Note_on_c, 0, 99, 74
2, 19002, Note_off_c, 0, 99, 64
2, 19072, Note_on_c, 0, 83, 68
2, 19072, Note_on_c, 0, 59, 56
2, 19078, Note_on_c, 0, 51, 48
2, 19124, Note_off_c, 0, 83, 64
2, 19174, Note_off_c, 0, 51, 64
2, 19191, Note_off_c, 0, 59, 64
2, 19192, Note_on_c, 0, 99, 68
2, 19242, Note_off_c, 0, 99, 64
2, 19311, Note_on_c, 0, 82, 61
2, 19362, Note_off_c, 0, 82, 64
2, 19430, Note_on_c, 0, 99, 61
2, 19481, Note_off_c, 0, 99, 64
2, 19550, Control_c, 0, 64, 0
2, 19564, Note_on_c, 0, 82, 54
2, 19592, Note_on_c, 0, 47, 56
2, 19616, Note_on_c, 0, 80, 54
2, 19652, Note_off_c, 0, 82, 64
2, 19683, Note_off_c, 0, 80, 64
2, 19696, Control_c, 0, 64, 127
2, 19710, Note_off_c, 0, 47, 64
2, 19723, Note_on_c, 0, 99, 54
2, 19790, Note_off_c, 0, 99, 64
2, 19843, Note_on_c, 0, 79, 47
2, 19843, Note_on_c, 0, 63, 56
2, 19849, Note_on_c, 0, 56, 48
2, 19911, Note_off_c, 0, 79, 64
2, 19938, Note_off_c, 0, 56, 64
2, 19962, Note_off_c, 0, 63, 64
2, 19964, Note_on_c, 0, 99, 50
2, 20030, Note_off_c, 0, 99, 64
2, 20082, Note_on_c, 0, 80, 51
2, 20151, Note_off_c, 0, 80, 64
2, 20202, Note_on_c, 0, 99, 58
2, 20270, Note_off_c, 0, 99, 64
2, 20322, Control_c, 0, 64, 0
2, 20395, Note_on_c, 0, 79, 60
2, 20401, Note_on_c, 0, 99, 62
2, 20413, Note_on_c, 0, 51, 56
2, 20451, Note_on_c, 0, 80, 65
2, 20461, Control_c, 0, 64, 127
2, 20490, Note_off_c, 0, 79, 64
2, 20491, Note_on_c, 0, 82, 70
2, 20520, Note_off_c, 0, 99, 64
2, 20530, Note_off_c, 0, 80, 64
2, 20531, Note_off_c, 0, 51, 64
2, 20558, Note_off_c, 0, 82, 64
2, 20684, Note_on_c, 0, 75, 52
2, 20684, Note_on_c, 0, 67, 56
2, 20696, Note_on_c, 0, 58, 48
2, 20751, Note_off_c, 0, 75, 64
2, 20802, Note_on_c, 0, 99, 51
2, 20903, Note_off_c, 0, 58, 64
2, 20939, Note_off_c, 0, 99, 64
2, 20940, Note_off_c, 0, 67, 64
2, 20941, Note_on_c, 0, 75, 44
2, 20990, Note_off_c, 0, 75, 64
2, 21059, Note_on_c, 0, 87, 50
2, 21110, Note_off_c, 0, 87, 64
2, 21197, Note_on_c, 0, 78, 56
2, 21221, Note_on_c, 0, 70, 56
2, 21229, Note_on_c, 0, 67, 48
2, 21232, Note_on_c, 0, 76, 56
2, 21232, Control_c, 0, 64, 0
2, 21282, Note_off_c, 0, 78, 64
2, 21299, Note_off_c, 0, 76, 64
2, 21316, Note_off_c, 0, 67, 64
2, 21338, Note_off_c, 0, 70, 64
2, 21352, Note_on_c, 0, 87, 62
2, 21419, Note_off_c, 0, 87, 64
2, 21471, Note_on_c, 0, 75, 56
2, 21471, Note_on_c, 0, 70, 56
2, 21477, Note_on_c, 0, 67, 48
2, 21540, Note_off_c, 0, 75, 64
2, 21573, Note_off_c, 0, 67, 64
2, 21589, Note_off_c, 0, 70, 64
2, 21592, Note_on_c, 0, 87, 61
2, 21659, Note_off_c, 0, 87, 64
2, 21710, Note_on_c, 0, 73, 54
2, 21779, Note_off_c, 0, 73, 64
2, 21830, Note_on_c, 0, 87, 59
2, 21899, Note_off_c, 0, 87, 64
2, 21962, Note_on_c, 0, 73, 52
2, 22008, Note_on_c, 0, 71, 52
2, 22008, Note_on_c, 0, 68, 56
2, 22031, Note_off_c, 0, 73, 64
2, 22058, Note_off_c, 0, 71, 64
2, 22126, Note_off_c, 0, 68, 64
2, 22140, Note_on_c, 0, 87, 57
2, 22190, Note_off_c, 0, 87, 64
2, 22259, Note_on_c, 0, 71, 50
2, 22259, Note_on_c, 0, 68, 56
2, 22310, Note_off_c, 0, 71, 64
2, 22378, Note_off_c, 0, 68, 64
2, 22380, Note_on_c, 0, 87, 55
2, 22430, Note_off_c, 0, 87, 64
2, 22498, Note_on_c, 0, 70, 48
2, 22549, Note_off_c, 0, 70, 64
2, 22618, Note_on_c, 0, 87, 53
2, 22669, Note_off_c, 0, 87, 64
2, 22750, Note_on_c, 0, 70, 46
2, 22779, Note_on_c, 0, 68, 46
2, 22780, Note_on_c, 0, 65, 48
2, 22780, Note_on_c, 0, 62, 40
2, 22781, Note_on_c, 0, 59, 35
2, 22801, Note_off_c, 0, 70, 64
2, 22846, Note_off_c, 0, 68, 64
2, 22870, Note_off_c, 0, 65, 64
2, 22875, Note_off_c, 0, 62, 64
2, 22876, Note_off_c, 0, 59, 64
2, 22912, Note_on_c, 0, 87, 51
2, 22978, Note_off_c, 0, 87, 64
2, 23031, Note_on_c, 0, 59, 38
2, 23031, Note_on_c, 0, 62, 41
2, 23031, Note_on_c, 0, 67, 50
2, 23033, Note_on_c, 0, 65, 48
2, 23100, Note_off_c, 0, 67, 64
2, 23119, Note_off_c, 0, 62, 64
2, 23127, Note_off_c, 0, 59, 64
2, 23129, Note_off_c, 0, 65, 64
2, 23152, Note_on_c, 0, 87, 50
2, 23218, Note_off_c, 0, 87, 64
2, 23270, Note_on_c, 0, 68, 45
2, 23339, Note_off_c, 0, 68, 64
2, 23390, Note_on_c, 0, 87, 53
2, 23459, Note_off_c, 0, 87, 64
2, 23507, Note_on_c, 0, 67, 38
2, 23510, Note_on_c, 0, 51, 56
2, 23511, Note_on_c, 0, 70, 49
2, 23579, Note_off_c, 0, 70, 64
2, 23630, Note_on_c, 0, 87, 56
2, 23698, Note_off_c, 0, 87, 64
2, 23746, Note_off_c, 0, 67, 64
2, 23748, Note_off_c, 0, 51, 64
2, 23752, Note_on_c, 0, 63, 52
2, 23818, Note_off_c, 0, 63, 64
2, 23869, Note_on_c, 0, 75, 54
2, 23938, Note_off_c, 0, 75, 64
2, 23989, Note_on_c, 0, 75, 57
2, 24058, Note_off_c, 0, 75, 64
2, 24109, Note_on_c, 0, 87, 56
2, 24178, Note_off_c, 0, 87, 64
2, 24229, Note_on_c, 0, 87, 54
2, 24298, Note_off_c, 0, 87, 64
2, 24349, Note_on_c, 0, 99, 55
2, 24418, Note_off_c, 0, 99, 64
2, 24469, Note_on_c, 0, 87, 49
2, 24538, Note_off_c, 0, 87, 64
2, 24589, Note_on_c, 0, 99, 50
2, 24658, Note_off_c, 0, 99, 64
2, 24709, Note_on_c, 0, 85, 44
2, 24777, Note_off_c, 0, 85, 64
2, 24829, Note_on_c, 0, 99, 44
2, 24897, Note_off_c, 0, 99, 64
2, 24949, Control_c, 0, 64, 127
2, 24956, Note_on_c, 0, 85, 56
2, 25007, Note_on_c, 0, 44, 56
2, 25025, Note_on_c, 0, 83, 56
2, 25056, Note_off_c, 0, 85, 64
2, 25075, Note_off_c, 0, 83, 64
2, 25125, Note_off_c, 0, 44, 64
2, 25139, Note_on_c, 0, 99, 59
2, 25189, Note_off_c, 0, 99, 64
2, 25259, Note_on_c, 0, 83, 55
2, 25260, Note_on_c, 0, 59, 53
2, 25261, Note_on_c, 0, 51, 44
2, 25310, Note_off_c, 0, 83, 64
2, 25353, Note_off_c, 0, 51, 64
2, 25379, Note_off_c, 0, 59, 64
2, 25379, Note_on_c, 0, 99, 56
2, 25429, Note_off_c, 0, 99, 64
2, 25498, Note_on_c, 0, 82, 51
2, 25549, Note_off_c, 0, 82, 64
2, 25618, Note_on_c, 0, 99, 53
2, 25670, Note_off_c, 0, 99, 64
2, 25738, Control_c, 0, 64, 0
2, 25752, Note_on_c, 0, 82, 48
2, 25797, Note_on_c, 0, 47, 56
2, 25803, Note_on_c, 0, 80, 48
2, 25852, Note_off_c, 0, 82, 64
2, 25870, Note_off_c, 0, 80, 64
2, 25883, Control_c, 0, 64, 127
2, 25910, Note_on_c, 0, 99, 49
2, 25915, Note_off_c, 0, 47, 64
2, 25977, Note_off_c, 0, 99, 64
2, 26030, Note_on_c, 0, 79, 44
2, 26034, Note_on_c, 0, 56, 48
2, 26035, Note_on_c, 0, 63, 56
2, 26099, Note_off_c, 0, 79, 64
2, 26123, Note_off_c, 0, 56, 64
2, 26151, Note_on_c, 0, 99, 47
2, 26154, Note_off_c, 0, 63, 64
2, 26218, Note_off_c, 0, 99, 64
2, 26269, Note_on_c, 0, 80, 48
2, 26338, Note_off_c, 0, 80, 64
2, 26389, Note_on_c, 0, 99, 55
2, 26458, Note_off_c, 0, 99, 64
2, 26509, Control_c, 0, 64, 0
2, 26546, Note_on_c, 0, 79, 56
2, 26603, Note_on_c, 0, 80, 62
2, 26619, Note_on_c, 0, 99, 59
2, 26642, Note_on_c, 0, 51, 56
2, 26642, Note_on_c, 0, 82, 67
2, 26654, Control_c, 0, 64, 127
2, 26674, Note_off_c, 0, 79, 64
2, 26714, Note_off_c, 0, 80, 64
2, 26737, Note_off_c, 0, 99, 64
2, 26761, Note_off_c, 0, 82, 64
2, 26762, Note_off_c, 0, 51, 64
2, 26874, Note_on_c, 0, 58, 43
2, 26877, Note_on_c, 0, 75, 52
2, 26877, Note_on_c, 0, 67, 48
2, 26977, Note_off_c, 0, 75, 64
2, 26990, Note_on_c, 0, 99, 51
2, 27071, Note_off_c, 0, 58, 64
2, 27073, Note_off_c, 0, 67, 64
2, 27109, Note_off_c, 0, 99, 64
2, 27112, Note_on_c, 0, 75, 44
2, 27229, Note_off_c, 0, 75, 64
2, 27230, Note_on_c, 0, 87, 44
2, 27297, Note_off_c, 0, 87, 64
2, 27349, Note_on_c, 0, 78, 56
2, 27418, Note_off_c, 0, 78, 64
2, 27424, Note_on_c, 0, 76, 63
2, 27427, Note_on_c, 0, 68, 42
2, 27427, Note_on_c, 0, 70, 51
2, 27429, Note_on_c, 0, 61, 38
2, 27431, Control_c, 0, 64, 0
2, 27519, Note_off_c, 0, 76, 64
2, 27519, Note_off_c, 0, 61, 64
2, 27519, Note_off_c, 0, 68, 64
2, 27527, Note_off_c, 0, 70, 64
2, 27542, Note_on_c, 0, 92, 56
2, 27589, Note_off_c, 0, 92, 64
2, 27664, Note_on_c, 0, 68, 38
2, 27664, Note_on_c, 0, 75, 58
2, 27665, Note_on_c, 0, 63, 32
2, 27666, Note_on_c, 0, 70, 46
2, 27752, Note_off_c, 0, 75, 64
2, 27759, Note_off_c, 0, 70, 64
2, 27767, Note_off_c, 0, 68, 64
2, 27769, Note_off_c, 0, 63, 64
2, 27781, Note_on_c, 0, 92, 48
2, 27828, Note_off_c, 0, 92, 64
2, 27905, Note_on_c, 0, 64, 37
2, 27905, Note_on_c, 0, 70, 46
2, 27905, Note_on_c, 0, 73, 53
2, 27907, Note_on_c, 0, 68, 42
2, 28001, Note_off_c, 0, 64, 64
2, 28001, Note_off_c, 0, 73, 64
2, 28003, Note_off_c, 0, 70, 64
2, 28006, Note_off_c, 0, 68, 64
2, 28021, Note_on_c, 0, 92, 44
2, 28068, Note_off_c, 0, 92, 64
2, 28143, Note_on_c, 0, 75, 48
2, 28144, Note_on_c, 0, 68, 32
2, 28145, Note_on_c, 0, 63, 28
2, 28146, Note_on_c, 0, 71, 38
2, 28239, Note_off_c, 0, 75, 64
2, 28241, Note_off_c, 0, 68, 64
2, 28243, Note_off_c, 0, 71, 64
2, 28249, Note_off_c, 0, 63, 64
2, 28262, Note_on_c, 0, 87, 56
2, 28309, Note_off_c, 0, 87, 64
2, 28377, Note_on_c, 0, 80, 59
2, 28428, Note_off_c, 0, 80, 64
2, 28497, Note_on_c, 0, 83, 62
2, 28549, Note_off_c, 0, 83, 64
2, 28617, Note_on_c, 0, 87, 83
2, 28737, Note_off_c, 0, 87, 64
2, 28738, Note_on_c, 0, 99, 68
2, 28788, Note_off_c, 0, 99, 64
2, 28858, Note_on_c, 0, 75, 44
2, 28862, Note_on_c, 0, 51, 42
2, 28864, Note_on_c, 0, 61, 48
2, 28865, Note_on_c, 0, 67, 56
2, 28965, Note_off_c, 0, 51, 64
2, 28965, Note_off_c, 0, 67, 64
2, 28965, Note_off_c, 0, 61, 64
2, 28978, Note_off_c, 0, 75, 64
2, 28980, Note_on_c, 0, 87, 44
2, 29028, Note_off_c, 0, 87, 64
2, 29097, Note_on_c, 0, 79, 50
2, 29148, Note_off_c, 0, 79, 64
2, 29217, Note_on_c, 0, 82, 56
2, 29268, Note_off_c, 0, 82, 64
2, 29337, Note_on_c, 0, 87, 86
2, 29457, Note_off_c, 0, 87, 64
2, 29458, Note_on_c, 0, 99, 68
2, 29560, Note_off_c, 0, 99, 64
2, 29574, Control_c, 0, 64, 98
2, 29577, Note_on_c, 0, 44, 52
2, 29637, Note_off_c, 0, 44, 64
2, 29697, Note_on_c, 0, 59, 53
2, 29755, Note_off_c, 0, 59, 64
2, 29817, Note_on_c, 0, 63, 55
2, 29876, Note_off_c, 0, 63, 64
2, 29937, Note_on_c, 0, 68, 57
2, 29992, Note_off_c, 0, 68, 64
2, 30057, Note_on_c, 0, 75, 59
2, 30115, Note_off_c, 0, 75, 64
2, 30177, Note_on_c, 0, 80, 61
2, 30241, Note_off_c, 0, 80, 64
2, 30297, Note_on_c, 0, 83, 63
2, 30359, Note_off_c, 0, 83, 64
2, 30441, Note_on_c, 0, 87, 57
2, 30497, Note_off_c, 0, 87, 64
2, 30600, Control_c, 0, 64, 0
2, 30603, Note_on_c, 0, 92, 44
2, 30730, Note_off_c, 0, 92, 64
2, 31496, Note_on_c, 0, 71, 65
2, 31549, Note_off_c, 0, 71, 64
2, 31617, Note_on_c, 0, 70, 67
2, 31617, Note_on_c, 0, 67, 59
2, 31671, Note_off_c, 0, 70, 64
2, 31681, Note_off_c, 0, 67, 64
2, 31736, Note_on_c, 0, 71, 62
2, 31794, Note_off_c, 0, 71, 64
2, 31857, Note_on_c, 0, 69, 63
2, 31857, Note_on_c, 0, 66, 55
2, 31915, Note_off_c, 0, 66, 64
2, 31917, Note_off_c, 0, 69, 64
2, 31976, Note_on_c, 0, 71, 58
2, 32032, Note_off_c, 0, 71, 64
2, 32097, Note_on_c, 0, 68, 60
2, 32097, Note_on_c, 0, 65, 52
2, 32149, Note_off_c, 0, 68, 64
2, 32156, Note_off_c, 0, 65, 64
2, 32216, Note_on_c, 0, 71, 56
2, 32272, Note_off_c, 0, 71, 64
2, 32337, Note_on_c, 0, 67, 55
2, 32337, Note_on_c, 0, 64, 47
2, 32388, Note_off_c, 0, 67, 64
2, 32400, Note_off_c, 0, 64, 64
2, 32456, Note_on_c, 0, 73, 56
2, 32507, Note_off_c, 0, 73, 64
2, 32508, Note_on_c, 0, 71, 59
2, 32576, Note_off_c, 0, 71, 64
2, 32577, Note_on_c, 0, 70, 62
2, 32627, Note_off_c, 0, 70, 64
2, 32628, Note_on_c, 0, 71, 65
2, 32696, Note_off_c, 0, 71, 64
2, 32697, Note_on_c, 0, 59, 45
2, 32697, Control_c, 0, 64, 127
2, 32699, Note_on_c, 0, 66, 68
2, 32701, Note_on_c, 0, 63, 56
2, 32749, Note_off_c, 0, 66, 64
2, 32815, Note_off_c, 0, 59, 64
2, 32818, Note_off_c, 0, 63, 64
2, 32818, Note_on_c, 0, 90, 68
2, 32868, Note_off_c, 0, 90, 64
2, 32936, Note_on_c, 0, 75, 68
2, 32937, Note_on_c, 0, 66, 56
2, 32938, Note_on_c, 0, 63, 48
2, 32939, Note_on_c, 0, 54, 40
2, 32987, Note_off_c, 0, 75, 64
2, 33056, Note_off_c, 0, 66, 64
2, 33058, Note_off_c, 0, 63, 64
2, 33058, Note_off_c, 0, 54, 64
2, 33059, Note_on_c, 0, 90, 62
2, 33107, Note_off_c, 0, 90, 64
2, 33176, Note_on_c, 0, 75, 56
2, 33177, Control_c, 0, 64, 0
2, 33227, Note_off_c, 0, 75, 64
2, 33228, Note_on_c, 0, 73, 56
2, 33295, Note_off_c, 0, 73, 64
2, 33297, Note_on_c, 0, 72, 57
2, 33347, Note_off_c, 0, 72, 64
2, 33348, Note_on_c, 0, 73, 59
2, 33415, Note_off_c, 0, 73, 64
2, 33417, Control_c, 0, 64, 127
2, 33419, Note_on_c, 0, 64, 56
2, 33419, Note_on_c, 0, 66, 61
2, 33419, Note_on_c, 0, 58, 48
2, 33469, Note_off_c, 0, 66, 64
2, 33536, Note_off_c, 0, 64, 64
2, 33537, Note_off_c, 0, 58, 64
2, 33537, Note_on_c, 0, 90, 64
2, 33587, Note_off_c, 0, 90, 64
2, 33656, Note_on_c, 0, 73, 68
2, 33657, Note_on_c, 0, 66, 56
2, 33657, Note_on_c, 0, 64, 44
2, 33659, Note_on_c, 0, 54, 38
2, 33707, Note_off_c, 0, 73, 64
2, 33776, Note_off_c, 0, 66, 64
2, 33777, Note_off_c, 0, 64, 64
2, 33777, Note_off_c, 0, 54, 64
2, 33779, Note_on_c, 0, 90, 68
2, 33779, Control_c, 0, 64, 0
2, 33827, Note_off_c, 0, 90, 64
2, 33896, Note_on_c, 0, 76, 57
2, 33947, Note_off_c, 0, 76, 64
2, 33948, Note_on_c, 0, 75, 56
2, 34015, Note_off_c, 0, 75, 64
2, 34017, Note_on_c, 0, 74, 58
2, 34067, Note_off_c, 0, 74, 64
2, 34068, Note_on_c, 0, 75, 60
2, 34135, Note_off_c, 0, 75, 64
2, 34137, Control_c, 0, 64, 127
2, 34139, Note_on_c, 0, 63, 56
2, 34139, Note_on_c, 0, 71, 63
2, 34139, Note_on_c, 0, 59, 46
2, 34189, Note_off_c, 0, 71, 64
2, 34256, Note_off_c, 0, 63, 64
2, 34257, Note_off_c, 0, 59, 64
2, 34257, Note_on_c, 0, 90, 68
2, 34307, Note_off_c, 0, 90, 64
2, 34376, Control_c, 0, 64, 0
2, 34377, Note_on_c, 0, 75, 68
2, 34427, Note_off_c, 0, 75, 64
2, 34496, Note_on_c, 0, 74, 68
2, 34496, Note_on_c, 0, 71, 58
2, 34547, Note_off_c, 0, 71, 64
2, 34548, Note_off_c, 0, 74, 64
2, 34615, Note_on_c, 0, 75, 65
2, 34667, Note_off_c, 0, 75, 64
2, 34736, Note_on_c, 0, 73, 64
2, 34736, Note_on_c, 0, 70, 55
2, 34787, Note_off_c, 0, 73, 64
2, 34787, Note_off_c, 0, 70, 64
2, 34855, Note_on_c, 0, 75, 59
2, 34907, Note_off_c, 0, 75, 64
2, 34976, Note_on_c, 0, 72, 59
2, 34976, Note_on_c, 0, 69, 48
2, 35027, Note_off_c, 0, 69, 64
2, 35028, Note_off_c, 0, 72, 64
2, 35095, Note_on_c, 0, 75, 56
2, 35146, Note_off_c, 0, 75, 64
2, 35216, Note_on_c, 0, 71, 56
2, 35216, Note_on_c, 0, 68, 44
2, 35267, Note_off_c, 0, 68, 64
2, 35268, Note_off_c, 0, 71, 64
2, 35335, Note_on_c, 0, 77, 56
2, 35386, Note_off_c, 0, 77, 64
2, 35388, Note_on_c, 0, 75, 57
2, 35455, Note_off_c, 0, 75, 64
2, 35457, Note_on_c, 0, 74, 59
2, 35507, Note_off_c, 0, 74, 64
2, 35508, Note_on_c, 0, 75, 60
2, 35509, Control_c, 0, 64, 127
2, 35575, Note_off_c, 0, 75, 64
2, 35577, Note_on_c, 0, 70, 62
2, 35577, Note_on_c, 0, 66, 56
2, 35577, Note_on_c, 0, 63, 48
2, 35627, Note_off_c, 0, 70, 64
2, 35695, Note_off_c, 0, 66, 64
2, 35696, Note_off_c, 0, 63, 64
2, 35697, Note_on_c, 0, 94, 65
2, 35747, Note_off_c, 0, 94, 64
2, 35817, Note_on_c, 0, 75, 68
2, 35817, Note_on_c, 0, 70, 56
2, 35817, Note_on_c, 0, 66, 48
2, 35817, Note_on_c, 0, 58, 40
2, 35868, Note_off_c, 0, 75, 64
2, 35936, Note_off_c, 0, 58, 64
2, 35936, Note_off_c, 0, 70, 64
2, 35937, Note_off_c, 0, 66, 64
2, 35938, Note_on_c, 0, 94, 68
2, 35987, Note_off_c, 0, 94, 64
2, 36055, Note_on_c, 0, 78, 56
2, 36057, Control_c, 0, 64, 0
2, 36106, Note_off_c, 0, 78, 64
2, 36108, Note_on_c, 0, 77, 56
2, 36175, Note_off_c, 0, 77, 64
2, 36176, Note_on_c, 0, 76, 57
2, 36226, Note_off_c, 0, 76, 64
2, 36228, Note_on_c, 0, 77, 59
2, 36229, Control_c, 0, 64, 127
2, 36295, Note_off_c, 0, 77, 64
2, 36297, Note_on_c, 0, 70, 61
2, 36297, Note_on_c, 0, 68, 54
2, 36297, Note_on_c, 0, 62, 42
2, 36347, Note_off_c, 0, 70, 64
2, 36415, Note_off_c, 0, 62, 64
2, 36415, Note_off_c, 0, 68, 64
2, 36417, Note_on_c, 0, 94, 64
2, 36467, Note_off_c, 0, 94, 64
2, 36537, Note_on_c, 0, 77, 68
2, 36537, Note_on_c, 0, 70, 48
2, 36537, Note_on_c, 0, 68, 40
2, 36537, Note_on_c, 0, 58, 44
2, 36588, Note_off_c, 0, 77, 64
2, 36655, Note_off_c, 0, 70, 64
2, 36656, Note_off_c, 0, 58, 64
2, 36657, Note_off_c, 0, 68, 64
2, 36658, Note_on_c, 0, 94, 68
2, 36707, Note_off_c, 0, 94, 64
2, 36775, Note_on_c, 0, 80, 56
2, 36776, Control_c, 0, 64, 0
2, 36826, Note_off_c, 0, 80, 64
2, 36827, Note_on_c, 0, 78, 56
2, 36895, Note_off_c, 0, 78, 64
2, 36897, Note_on_c, 0, 77, 60
2, 36947, Note_off_c, 0, 77, 64
2, 36948, Note_on_c, 0, 78, 64
2, 37015, Note_off_c, 0, 78, 64
2, 37016, Control_c, 0, 64, 127
2, 37018, Note_on_c, 0, 75, 68
2, 37018, Note_on_c, 0, 66, 56
2, 37018, Note_on_c, 0, 63, 40
2, 37068, Note_off_c, 0, 75, 64
2, 37135, Note_off_c, 0, 63, 64
2, 37135, Note_off_c, 0, 66, 64
2, 37137, Note_on_c, 0, 94, 68
2, 37187, Note_off_c, 0, 94, 64
2, 37255, Note_on_c, 0, 78, 66
2, 37306, Note_off_c, 0, 78, 64
2, 37375, Control_c, 0, 64, 0
2, 37376, Note_on_c, 0, 77, 66
2, 37376, Note_on_c, 0, 74, 58
2, 37426, Note_off_c, 0, 77, 64
2, 37427, Note_off_c, 0, 74, 64
2, 37495, Note_on_c, 0, 78, 62
2, 37546, Note_off_c, 0, 78, 64
2, 37616, Note_on_c, 0, 76, 62
2, 37616, Note_on_c, 0, 73, 51
2, 37667, Note_off_c, 0, 76, 64
2, 37667, Note_off_c, 0, 73, 64
2, 37735, Note_on_c, 0, 78, 58
2, 37786, Note_off_c, 0, 78, 64
2, 37855, Note_on_c, 0, 75, 58
2, 37855, Note_on_c, 0, 72, 48
2, 37906, Note_off_c, 0, 75, 64
2, 37907, Note_off_c, 0, 72, 64
2, 37975, Note_on_c, 0, 78, 56
2, 38026, Note_off_c, 0, 78, 64
2, 38095, Note_on_c, 0, 74, 56
2, 38095, Note_on_c, 0, 71, 44
2, 38146, Note_off_c, 0, 74, 64
2, 38147, Note_off_c, 0, 71, 64
2, 38215, Note_on_c, 0, 80, 56
2, 38266, Note_off_c, 0, 80, 64
2, 38268, Note_on_c, 0, 78, 57
2, 38335, Note_off_c, 0, 78, 64
2, 38336, Note_on_c, 0, 77, 58
2, 38387, Note_off_c, 0, 77, 64
2, 38387, Note_on_c, 0, 78, 59
2, 38388, Control_c, 0, 64, 127
2, 38454, Note_off_c, 0, 78, 64
2, 38457, Note_on_c, 0, 73, 60
2, 38457, Note_on_c, 0, 70, 48
2, 38457, Note_on_c, 0, 66, 40
2, 38507, Note_off_c, 0, 73, 64
2, 38574, Note_off_c, 0, 70, 64
2, 38575, Note_off_c, 0, 66, 64
2, 38577, Note_on_c, 0, 97, 63
2, 38626, Note_off_c, 0, 97, 64
2, 38696, Note_on_c, 0, 78, 65
2, 38696, Note_on_c, 0, 61, 56
2, 38696, Note_on_c, 0, 73, 48
2, 38696, Note_on_c, 0, 70, 44
2, 38747, Note_off_c, 0, 78, 64
2, 38814, Note_off_c, 0, 70, 64
2, 38815, Note_off_c, 0, 73, 64
2, 38816, Note_off_c, 0, 61, 64
2, 38817, Control_c, 0, 64, 0
2, 38819, Note_on_c, 0, 97, 68
2, 38866, Note_off_c, 0, 97, 64
2, 38935, Note_on_c, 0, 82, 56
2, 38986, Note_off_c, 0, 82, 64
2, 38987, Note_on_c, 0, 80, 56
2, 39054, Note_off_c, 0, 80, 64
2, 39055, Note_on_c, 0, 79, 57
2, 39105, Note_off_c, 0, 79, 64
2, 39107, Control_c, 0, 64, 127
2, 39108, Note_on_c, 0, 80, 58
2, 39175, Note_off_c, 0, 80, 64
2, 39177, Note_on_c, 0, 73, 60
2, 39177, Note_on_c, 0, 71, 56
2, 39177, Note_on_c, 0, 65, 44
2, 39227, Note_off_c, 0, 73, 64
2, 39294, Note_off_c, 0, 71, 64
2, 39295, Note_off_c, 0, 65, 64
2, 39297, Note_on_c, 0, 97, 62
2, 39346, Note_off_c, 0, 97, 64
2, 39416, Note_on_c, 0, 79, 65
2, 39416, Note_on_c, 0, 73, 60
2, 39416, Note_on_c, 0, 71, 54
2, 39416, Note_on_c, 0, 61, 49
2, 39467, Note_off_c, 0, 79, 64
2, 39534, Note_off_c, 0, 71, 64
2, 39535, Note_off_c, 0, 73, 64
2, 39536, Note_off_c, 0, 61, 64
2, 39537, Note_on_c, 0, 97, 68
2, 39586, Note_off_c, 0, 97, 64
2, 39654, Control_c, 0, 64, 0
2, 39656, Note_on_c, 0, 78, 66
2, 39656, Note_on_c, 0, 82, 56
2, 39706, Note_off_c, 0, 78, 64
2, 39706, Note_off_c, 0, 82, 64
2, 39775, Control_c, 0, 64, 127
2, 39776, Note_on_c, 0, 80, 66
2, 39776, Note_on_c, 0, 83, 56
2, 39826, Note_off_c, 0, 80, 64
2, 39827, Note_off_c, 0, 83, 64
2, 39894, Note_on_c, 0, 66, 68
2, 39946, Note_on_c, 0, 85, 62
2, 39946, Note_on_c, 0, 82, 68
2, 40066, Note_off_c, 0, 85, 64
2, 40067, Note_on_c, 0, 97, 68
2, 40067, Note_on_c, 0, 94, 51
2, 40134, Note_off_c, 0, 97, 64
2, 40135, Note_off_c, 0, 94, 64
2, 40185, Note_off_c, 0, 66, 64
2, 40186, Note_off_c, 0, 82, 64
2, 40187, Control_c, 0, 64, 0
2, 40189, Note_on_c, 0, 80, 64
2, 40189, Note_on_c, 0, 83, 68
2, 40254, Note_off_c, 0, 80, 64
2, 40255, Note_off_c, 0, 83, 64
2, 40306, Note_on_c, 0, 82, 62
2, 40306, Note_on_c, 0, 78, 48
2, 40374, Note_off_c, 0, 78, 64
2, 40375, Note_off_c, 0, 82, 64
2, 40426, Note_on_c, 0, 80, 56
2, 40426, Note_on_c, 0, 71, 43
2, 40495, Note_off_c, 0, 80, 64
2, 40495, Note_off_c, 0, 71, 64
2, 40546, Note_on_c, 0, 82, 55
2, 40546, Note_on_c, 0, 73, 42
2, 40547, Control_c, 0, 64, 127
2, 40614, Note_off_c, 0, 73, 64
2, 40615, Note_off_c, 0, 82, 64
2, 40666, Note_on_c, 0, 59, 68
2, 40735, Note_on_c, 0, 83, 62
2, 40735, Note_on_c, 0, 75, 68
2, 40821, Note_off_c, 0, 83, 64
2, 40855, Note_on_c, 0, 95, 68
2, 40855, Note_on_c, 0, 83, 53
2, 40906, Note_off_c, 0, 95, 64
2, 40907, Note_off_c, 0, 83, 64
2, 40974, Note_off_c, 0, 59, 64
2, 40975, Note_off_c, 0, 75, 64
2, 40977, Note_on_c, 0, 82, 68
2, 40977, Note_on_c, 0, 73, 59
2, 40977, Control_c, 0, 64, 0
2, 41026, Note_off_c, 0, 82, 64
2, 41026, Note_off_c, 0, 73, 64
2, 41095, Note_on_c, 0, 80, 62
2, 41095, Note_on_c, 0, 71, 53
2, 41146, Note_off_c, 0, 80, 64
2, 41147, Note_off_c, 0, 71, 64
2, 41215, Note_on_c, 0, 78, 56
2, 41215, Note_on_c, 0, 70, 48
2, 41266, Note_off_c, 0, 78, 64
2, 41267, Note_off_c, 0, 70, 64
2, 41335, Note_on_c, 0, 80, 53
2, 41335, Note_on_c, 0, 71, 42
2, 41335, Control_c, 0, 64, 127
2, 41385, Note_off_c, 0, 71, 64
2, 41386, Note_off_c, 0, 80, 64
2, 41454, Note_on_c, 0, 61, 68
2, 41506, Note_on_c, 0, 82, 62
2, 41506, Note_on_c, 0, 73, 68
2, 41626, Note_off_c, 0, 82, 64
2, 41627, Note_on_c, 0, 94, 68
2, 41627, Note_on_c, 0, 85, 68
2, 41694, Note_off_c, 0, 94, 64
2, 41695, Note_off_c, 0, 85, 64
2, 41745, Note_off_c, 0, 61, 64
2, 41746, Note_off_c, 0, 73, 64
2, 41748, Note_on_c, 0, 80, 68
2, 41748, Control_c, 0, 64, 0
2, 41755, Note_on_c, 0, 71, 60
2, 41815, Note_off_c, 0, 80, 64
2, 41820, Note_off_c, 0, 71, 64
2, 41866, Note_on_c, 0, 78, 62
2, 41873, Note_on_c, 0, 70, 54
2, 41935, Note_off_c, 0, 78, 64
2, 41941, Note_off_c, 0, 70, 64
2, 41986, Note_on_c, 0, 77, 56
2, 41993, Note_on_c, 0, 68, 48
2, 42054, Note_off_c, 0, 77, 64
2, 42061, Note_off_c, 0, 68, 64
2, 42105, Note_on_c, 0, 78, 56
2, 42110, Note_on_c, 0, 70, 48
2, 42174, Note_off_c, 0, 78, 64
2, 42179, Note_off_c, 0, 70, 64
2, 42225, Control_c, 0, 64, 127
2, 42226, Note_on_c, 0, 61, 68
2, 42294, Note_on_c, 0, 80, 62
2, 42294, Note_on_c, 0, 71, 68
2, 42414, Note_off_c, 0, 80, 64
2, 42415, Note_on_c, 0, 92, 68
2, 42415, Note_on_c, 0, 83, 54
2, 42465, Note_off_c, 0, 92, 64
2, 42466, Note_off_c, 0, 83, 64
2, 42534, Note_off_c, 0, 71, 64
2, 42534, Note_off_c, 0, 61, 64
2, 42536, Note_on_c, 0, 66, 48
2, 42536, Note_on_c, 0, 75, 65
2, 42537, Control_c, 0, 64, 0
2, 42585, Note_off_c, 0, 66, 64
2, 42586, Note_off_c, 0, 75, 64
2, 42654, Note_on_c, 0, 77, 62
2, 42654, Note_on_c, 0, 68, 53
2, 42705, Note_off_c, 0, 77, 64
2, 42705, Note_off_c, 0, 68, 64
2, 42775, Note_on_c, 0, 78, 56
2, 42775, Note_on_c, 0, 70, 44
2, 42775, Note_on_c, 0, 54, 58
2, 42826, Note_off_c, 0, 78, 64
2, 42894, Note_off_c, 0, 54, 64
2, 42894, Note_off_c, 0, 70, 64
2, 42896, Note_on_c, 0, 90, 58
2, 42896, Note_on_c, 0, 82, 48
2, 43014, Note_off_c, 0, 90, 64
2, 43014, Note_off_c, 0, 82, 64
2, 43015, Note_on_c, 0, 66, 59
2, 43064, Note_off_c, 0, 66, 64
2, 43134, Note_on_c, 0, 78, 62
2, 43185, Note_off_c, 0, 78, 64
2, 43253, Note_on_c, 0, 67, 65
2, 43304, Note_off_c, 0, 67, 64
2, 43373, Note_on_c, 0, 79, 68
2, 43424, Note_off_c, 0, 79, 64
2, 43487, Note_on_c, 0, 68, 80
2, 43607, Note_off_c, 0, 68, 64
2, 43615, Note_on_c, 0, 80, 68
2, 43730, Note_on_c, 0, 68, 53
2, 43734, Note_off_c, 0, 80, 64
2, 43736, Note_on_c, 0, 92, 66
2, 43736, Note_on_c, 0, 64, 68
2, 43786, Note_off_c, 0, 92, 64
2, 43848, Note_off_c, 0, 68, 64
2, 43854, Note_off_c, 0, 64, 64
2, 43855, Note_on_c, 0, 80, 64
2, 43969, Note_on_c, 0, 68, 56
2, 43973, Note_off_c, 0, 80, 64
2, 43975, Note_on_c, 0, 92, 61
2, 43975, Note_on_c, 0, 63, 62
2, 44089, Note_off_c, 0, 68, 64
2, 44093, Note_off_c, 0, 63, 64
2, 44094, Note_off_c, 0, 92, 64
2, 44097, Note_on_c, 0, 78, 59
2, 44209, Note_on_c, 0, 68, 44
2, 44214, Note_off_c, 0, 78, 64
2, 44215, Note_on_c, 0, 92, 56
2, 44215, Note_on_c, 0, 61, 56
2, 44328, Note_off_c, 0, 68, 64
2, 44333, Note_off_c, 0, 61, 64
2, 44333, Note_off_c, 0, 92, 64
2, 44336, Note_on_c, 0, 76, 68
2, 44453, Note_off_c, 0, 76, 64
2, 44455, Note_on_c, 0, 102, 68
2, 44455, Note_on_c, 0, 75, 68
2, 44505, Note_off_c, 0, 102, 64
2, 44573, Note_off_c, 0, 75, 64
2, 44574, Note_on_c, 0, 80, 68
2, 44693, Note_off_c, 0, 80, 64
2, 44695, Note_on_c, 0, 100, 66
2, 44695, Note_on_c, 0, 73, 66
2, 44745, Note_off_c, 0, 100, 64
2, 44813, Note_off_c, 0, 73, 64
2, 44814, Note_on_c, 0, 80, 64
2, 44933, Note_off_c, 0, 80, 64
2, 44935, Note_on_c, 0, 56, 69
2, 44935, Note_on_c, 0, 99, 61
2, 44935, Note_on_c, 0, 72, 61
2, 44985, Note_off_c, 0, 99, 64
2, 45053, Note_off_c, 0, 72, 64
2, 45053, Note_off_c, 0, 56, 64
2, 45055, Note_on_c, 0, 80, 59
2, 45173, Note_off_c, 0, 80, 64
2, 45175, Note_on_c, 0, 97, 56
2, 45175, Note_on_c, 0, 70, 56
2, 45225, Note_off_c, 0, 97, 64
2, 45293, Note_off_c, 0, 70, 64
2, 45294, Note_on_c, 0, 80, 56
2, 45413, Note_off_c, 0, 80, 64
2, 45414, Note_on_c, 0, 99, 60
2, 45414, Note_on_c, 0, 72, 60
2, 45464, Note_off_c, 0, 99, 64
2, 45532, Note_off_c, 0, 72, 64
2, 45534, Note_on_c, 0, 80, 64
2, 45653, Note_off_c, 0, 80, 64
2, 45655, Note_on_c, 0, 61, 76
2, 45655, Note_on_c, 0, 100, 68
2, 45655, Note_on_c, 0, 73, 68
2, 45705, Note_off_c, 0, 100, 64
2, 45773, Note_off_c, 0, 73, 64
2, 45773, Note_off_c, 0, 61, 64
2, 45775, Note_on_c, 0, 80, 68
2, 45893, Note_off_c, 0, 80, 64
2, 45894, Note_on_c, 0, 97, 62
2, 45894, Note_on_c, 0, 76, 68
2, 45944, Note_off_c, 0, 97, 64
2, 46012, Note_off_c, 0, 76, 64
2, 46014, Note_on_c, 0, 80, 56
2, 46133, Note_off_c, 0, 80, 64
2, 46134, Note_on_c, 0, 67, 88
2, 46184, Note_off_c, 0, 67, 64
2, 46253, Note_on_c, 0, 79, 62
2, 46304, Note_off_c, 0, 79, 64
2, 46373, Note_on_c, 0, 66, 80
2, 46493, Note_off_c, 0, 66, 64
2, 46494, Note_on_c, 0, 78, 68
2, 46613, Note_off_c, 0, 78, 64
2, 46615, Note_on_c, 0, 90, 66
2, 46615, Note_on_c, 0, 66, 56
2, 46621, Note_on_c, 0, 63, 64
2, 46665, Note_off_c, 0, 90, 64
2, 46733, Note_off_c, 0, 66, 64
2, 46734, Note_on_c, 0, 78, 64
2, 46740, Note_off_c, 0, 63, 64
2, 46852, Note_off_c, 0, 78, 64
2, 46855, Note_on_c, 0, 90, 61
2, 46855, Note_on_c, 0, 66, 56
2, 46861, Note_on_c, 0, 61, 64
2, 46905, Note_off_c, 0, 90, 64
2, 46973, Note_off_c, 0, 66, 64
2, 46974, Note_on_c, 0, 76, 59
2, 46980, Note_off_c, 0, 61, 64
2, 47092, Note_off_c, 0, 76, 64
2, 47095, Note_on_c, 0, 90, 56
2, 47095, Note_on_c, 0, 66, 56
2, 47101, Note_on_c, 0, 59, 64
2, 47145, Note_off_c, 0, 90, 64
2, 47213, Note_on_c, 0, 75, 68
2, 47333, Note_off_c, 0, 75, 64
2, 47335, Note_off_c, 0, 66, 64
2, 47336, Note_on_c, 0, 100, 68
2, 47336, Note_on_c, 0, 73, 56
2, 47340, Note_off_c, 0, 59, 64
2, 47385, Note_off_c, 0, 100, 64
2, 47451, Note_off_c, 0, 73, 64
2, 47454, Note_on_c, 0, 78, 68
2, 47573, Note_off_c, 0, 78, 64
2, 47574, Note_on_c, 0, 99, 66
2, 47574, Note_on_c, 0, 71, 56
2, 47624, Note_off_c, 0, 99, 64
2, 47692, Note_off_c, 0, 71, 64
2, 47694, Note_on_c, 0, 78, 64
2, 47812, Note_off_c, 0, 78, 64
2, 47815, Note_on_c, 0, 97, 61
2, 47815, Note_on_c, 0, 70, 56
2, 47821, Note_on_c, 0, 54, 52
2, 47865, Note_off_c, 0, 97, 64
2, 47933, Note_off_c, 0, 70, 64
2, 47934, Note_on_c, 0, 78, 59
2, 47940, Note_off_c, 0, 54, 64
2, 48052, Note_off_c, 0, 78, 64
2, 48054, Note_on_c, 0, 95, 56
2, 48054, Note_on_c, 0, 68, 56
2, 48104, Note_off_c, 0, 95, 64
2, 48172, Note_off_c, 0, 68, 64
2, 48173, Note_on_c, 0, 78, 56
2, 48292, Note_off_c, 0, 78, 64
2, 48294, Note_on_c, 0, 97, 60
2, 48294, Note_on_c, 0, 70, 56
2, 48344, Note_off_c, 0, 97, 64
2, 48412, Note_off_c, 0, 70, 64
2, 48413, Note_on_c, 0, 78, 64
2, 48532, Note_off_c, 0, 78, 64
2, 48534, Note_on_c, 0, 99, 68
2, 48534, Note_on_c, 0, 71, 56
2, 48540, Note_on_c, 0, 59, 61
2, 48653, Note_off_c, 0, 99, 64
2, 48653, Note_off_c, 0, 71, 64
2, 48655, Note_on_c, 0, 78, 68
2, 48660, Note_off_c, 0, 59, 64
2, 48772, Note_off_c, 0, 78, 64
2, 48774, Note_on_c, 0, 95, 62
2, 48774, Note_on_c, 0, 75, 56
2, 48892, Note_off_c, 0, 75, 64
2, 48893, Note_off_c, 0, 95, 64
2, 48895, Note_on_c, 0, 78, 56
2, 49012, Note_off_c, 0, 78, 64
2, 49013, Note_on_c, 0, 62, 67
2, 49132, Note_off_c, 0, 62, 64
2, 49133, Note_on_c, 0, 74, 56
2, 49252, Note_off_c, 0, 74, 64
2, 49253, Note_on_c, 0, 63, 68
2, 49294, Note_off_c, 0, 63, 64
2, 49372, Note_on_c, 0, 75, 58
2, 49417, Note_off_c, 0, 75, 64
2, 49490, Note_on_c, 0, 63, 62
2, 49493, Note_on_c, 0, 55, 52
2, 49493, Note_on_c, 0, 87, 60
2, 49538, Note_off_c, 0, 87, 64
2, 49594, Note_off_c, 0, 63, 64
2, 49613, Note_off_c, 0, 55, 64
2, 49615, Note_on_c, 0, 75, 62
2, 49657, Note_off_c, 0, 75, 64
2, 49726, Note_on_c, 0, 65, 65
2, 49734, Note_on_c, 0, 56, 54
2, 49734, Note_on_c, 0, 87, 64
2, 49778, Note_off_c, 0, 87, 64
2, 49836, Note_off_c, 0, 65, 64
2, 49838, Note_off_c, 0, 56, 64
2, 49855, Note_on_c, 0, 74, 66
2, 49896, Note_off_c, 0, 74, 64
2, 49967, Note_on_c, 0, 67, 68
2, 49972, Note_on_c, 0, 58, 57
2, 49973, Note_on_c, 0, 87, 69
2, 50018, Note_off_c, 0, 87, 64
2, 50066, Note_off_c, 0, 67, 64
2, 50080, Note_off_c, 0, 58, 64
2, 50094, Note_on_c, 0, 73, 71
2, 50136, Note_off_c, 0, 73, 64
2, 50205, Note_on_c, 0, 67, 72
2, 50213, Note_on_c, 0, 87, 73
2, 50215, Note_on_c, 0, 58, 61
2, 50257, Note_off_c, 0, 87, 64
2, 50310, Note_off_c, 0, 58, 64
2, 50317, Note_off_c, 0, 67, 64
2, 50335, Note_on_c, 0, 73, 75
2, 50374, Note_off_c, 0, 73, 64
2, 50449, Note_on_c, 0, 68, 75
2, 50453, Note_on_c, 0, 87, 77
2, 50453, Note_on_c, 0, 59, 64
2, 50496, Note_off_c, 0, 87, 64
2, 50558, Note_off_c, 0, 59, 64
2, 50564, Note_off_c, 0, 68, 64
2, 50574, Note_on_c, 0, 71, 80
2, 50617, Note_off_c, 0, 71, 64
2, 50684, Note_on_c, 0, 70, 79
2, 50693, Note_on_c, 0, 76, 80
2, 50693, Note_on_c, 0, 88, 80
2, 50695, Note_on_c, 0, 61, 67
2, 50736, Note_off_c, 0, 76, 64
2, 50736, Note_off_c, 0, 88, 64
2, 50785, Note_off_c, 0, 70, 64
2, 50808, Note_off_c, 0, 61, 64
2, 50814, Note_on_c, 0, 82, 68
2, 50814, Note_on_c, 0, 87, 80
2, 50853, Note_off_c, 0, 87, 64
2, 50856, Note_off_c, 0, 82, 64
2, 50932, Note_on_c, 0, 73, 65
2, 50932, Note_on_c, 0, 85, 76
2, 50973, Note_off_c, 0, 73, 64
2, 50974, Note_off_c, 0, 85, 64
2, 51052, Note_on_c, 0, 83, 71
2, 51052, Note_on_c, 0, 76, 63
2, 51098, Note_off_c, 0, 83, 64
2, 51099, Note_off_c, 0, 76, 64
2, 51172, Note_on_c, 0, 62, 42
2, 51172, Note_on_c, 0, 65, 56
2, 51173, Note_on_c, 0, 71, 54
2, 51173, Note_on_c, 0, 82, 66
2, 51214, Note_off_c, 0, 71, 64
2, 51220, Note_off_c, 0, 82, 64
2, 51269, Note_off_c, 0, 62, 64
2, 51281, Note_off_c, 0, 65, 64
2, 51294, Note_on_c, 0, 77, 54
2, 51294, Note_on_c, 0, 80, 61
2, 51331, Note_off_c, 0, 80, 64
2, 51339, Note_off_c, 0, 77, 64
2, 51412, Note_on_c, 0, 63, 38
2, 51412, Note_on_c, 0, 67, 43
2, 51414, Note_on_c, 0, 70, 48
2, 51414, Note_on_c, 0, 79, 63
2, 51511, Note_off_c, 0, 70, 64
2, 51512, Note_off_c, 0, 67, 64
2, 51513, Note_off_c, 0, 79, 64
2, 51515, Note_off_c, 0, 63, 64
2, 51536, Note_on_c, 0, 75, 50
2, 51536, Note_on_c, 0, 82, 61
2, 51625, Note_off_c, 0, 75, 64
2, 51629, Note_off_c, 0, 82, 64
2, 51653, Note_on_c, 0, 83, 62
2, 51655, Note_on_c, 0, 79, 51
2, 51754, Note_off_c, 0, 79, 64
2, 51758, Note_off_c, 0, 83, 64
2, 51772, Note_on_c, 0, 75, 56
2, 51775, Note_on_c, 0, 82, 68
2, 51873, Note_off_c, 0, 82, 64
2, 51879, Note_off_c, 0, 75, 64
2, 51894, Note_on_c, 0, 74, 80
2, 51936, Note_off_c, 0, 74, 64
2, 52011, Note_on_c, 0, 86, 56
2, 52054, Note_off_c, 0, 86, 64
2, 52131, Note_on_c, 0, 75, 81
2, 52175, Note_off_c, 0, 75, 64
2, 52251, Note_on_c, 0, 87, 70
2, 52295, Note_off_c, 0, 87, 64
2, 52371, Note_on_c, 0, 75, 56
2, 52373, Note_on_c, 0, 99, 71
2, 52378, Note_on_c, 0, 67, 44
2, 52417, Note_off_c, 0, 99, 64
2, 52463, Note_off_c, 0, 75, 64
2, 52475, Note_off_c, 0, 67, 64
2, 52493, Note_on_c, 0, 87, 72
2, 52535, Note_off_c, 0, 87, 64
2, 52612, Note_on_c, 0, 99, 73
2, 52615, Note_on_c, 0, 77, 56
2, 52616, Note_on_c, 0, 68, 46
2, 52653, Note_off_c, 0, 99, 64
2, 52700, Note_off_c, 0, 68, 64
2, 52713, Note_off_c, 0, 77, 64
2, 52733, Note_on_c, 0, 86, 74
2, 52772, Note_off_c, 0, 86, 64
2, 52851, Note_on_c, 0, 79, 56
2, 52852, Note_on_c, 0, 99, 75
2, 52857, Note_on_c, 0, 70, 49
2, 52893, Note_off_c, 0, 99, 64
2, 52957, Note_off_c, 0, 79, 64
2, 52958, Note_off_c, 0, 70, 64
2, 52973, Note_on_c, 0, 85, 76
2, 53014, Note_off_c, 0, 85, 64
2, 53092, Note_on_c, 0, 99, 77
2, 53093, Note_on_c, 0, 79, 56
2, 53096, Note_on_c, 0, 70, 51
2, 53134, Note_off_c, 0, 99, 64
2, 53188, Note_off_c, 0, 70, 64
2, 53199, Note_off_c, 0, 79, 64
2, 53213, Note_on_c, 0, 85, 78
2, 53253, Note_off_c, 0, 85, 64
2, 53331, Note_on_c, 0, 80, 56
2, 53332, Note_on_c, 0, 99, 79
2, 53338, Note_on_c, 0, 71, 54
2, 53373, Note_off_c, 0, 99, 64
2, 53422, Note_off_c, 0, 71, 64
2, 53437, Note_off_c, 0, 80, 64
2, 53453, Note_on_c, 0, 83, 80
2, 53492, Note_off_c, 0, 83, 64
2, 53571, Note_on_c, 0, 100, 80
2, 53572, Note_on_c, 0, 88, 80
2, 53574, Note_on_c, 0, 81, 56
2, 53578, Note_on_c, 0, 73, 57
2, 53615, Note_off_c, 0, 88, 64
2, 53618, Note_off_c, 0, 100, 64
2, 53671, Note_off_c, 0, 73, 64
2, 53675, Note_off_c, 0, 81, 64
2, 53693, Note_on_c, 0, 94, 80
2, 53693, Note_on_c, 0, 99, 80
2, 53735, Note_off_c, 0, 94, 64
2, 53736, Note_off_c, 0, 99, 64
2, 53812, Note_on_c, 0, 97, 76
2, 53812, Note_on_c, 0, 85, 76
2, 53852, Note_off_c, 0, 97, 64
2, 53858, Note_off_c, 0, 85, 64
2, 53932, Note_on_c, 0, 95, 71
2, 53932, Note_on_c, 0, 88, 71
2, 53976, Note_off_c, 0, 95, 64
2, 53976, Note_off_c, 0, 88, 64
2, 54051, Note_on_c, 0, 94, 66
2, 54052, Note_on_c, 0, 83, 66
2, 54053, Note_on_c, 0, 77, 56
2, 54056, Note_on_c, 0, 74, 48
2, 54093, Note_off_c, 0, 94, 64
2, 54094, Note_off_c, 0, 83, 64
2, 54152, Note_off_c, 0, 74, 64
2, 54153, Note_off_c, 0, 77, 64
2, 54173, Note_on_c, 0, 92, 61
2, 54173, Note_on_c, 0, 89, 51
2, 54215, Note_off_c, 0, 92, 64
2, 54218, Note_off_c, 0, 89, 64
2, 54292, Note_on_c, 0, 82, 48
2, 54293, Note_on_c, 0, 91, 56
2, 54294, Note_on_c, 0, 79, 44
2, 54294, Note_on_c, 0, 75, 38
2, 54390, Note_off_c, 0, 79, 64
2, 54391, Note_off_c, 0, 82, 64
2, 54395, Note_off_c, 0, 75, 64
2, 54400, Note_off_c, 0, 91, 64
2, 54415, Note_on_c, 0, 87, 42
2, 54416, Note_on_c, 0, 94, 56
2, 54512, Note_off_c, 0, 87, 64
2, 54513, Note_off_c, 0, 94, 64
2, 54532, Note_on_c, 0, 74, 80
2, 54582, Note_off_c, 0, 74, 64
2, 54651, Note_on_c, 0, 86, 56
2, 54702, Note_off_c, 0, 86, 64
2, 54771, Note_on_c, 0, 75, 68
2, 54822, Note_off_c, 0, 75, 64
2, 54891, Note_on_c, 0, 87, 80
2, 54943, Note_off_c, 0, 87, 64
2, 55011, Note_on_c, 0, 99, 92
2, 55062, Note_off_c, 0, 99, 64
2, 55131, Note_on_c, 0, 87, 68
2, 55182, Note_off_c, 0, 87, 64
2, 55251, Note_on_c, 0, 75, 80
2, 55302, Note_off_c, 0, 75, 64
2, 55371, Note_on_c, 0, 87, 56
2, 55422, Note_off_c, 0, 87, 64
2, 55491, Note_on_c, 0, 76, 68
2, 55543, Note_off_c, 0, 76, 64
2, 55611, Note_on_c, 0, 88, 80
2, 55663, Note_off_c, 0, 88, 64
2, 55731, Note_on_c, 0, 99, 80
2, 55782, Note_off_c, 0, 99, 64
2, 55850, Note_on_c, 0, 87, 56
2, 55902, Note_off_c, 0, 87, 64
2, 55970, Note_on_c, 0, 76, 80
2, 56021, Note_off_c, 0, 76, 64
2, 56090, Note_on_c, 0, 88, 56
2, 56210, Note_off_c, 0, 88, 64
2, 56212, Note_on_c, 0, 77, 68
2, 56262, Note_off_c, 0, 77, 64
2, 56330, Note_on_c, 0, 89, 80
2, 56450, Note_off_c, 0, 89, 64
2, 56452, Note_on_c, 0, 99, 87
2, 56502, Note_off_c, 0, 99, 64
2, 56570, Note_on_c, 0, 87, 64
2, 56622, Note_off_c, 0, 87, 64
2, 56690, Note_on_c, 0, 78, 92
2, 56741, Note_off_c, 0, 78, 64
2, 56810, Note_on_c, 0, 90, 68
2, 56861, Note_off_c, 0, 90, 64
2, 56930, Note_on_c, 0, 99, 93
2, 56982, Note_off_c, 0, 99, 64
2, 57050, Note_on_c, 0, 87, 70
2, 57102, Note_off_c, 0, 87, 64
2, 57170, Note_on_c, 0, 79, 92
2, 57221, Note_off_c, 0, 79, 64
2, 57290, Note_on_c, 0, 91, 67
2, 57341, Note_off_c, 0, 91, 64
2, 57410, Note_on_c, 0, 99, 98
2, 57462, Note_off_c, 0, 99, 64
2, 57530, Note_on_c, 0, 87, 76
2, 57581, Note_off_c, 0, 87, 64
2, 57650, Note_on_c, 0, 80, 90
2, 57770, Note_off_c, 0, 80, 64
2, 57771, Note_on_c, 0, 92, 66
2, 57890, Note_off_c, 0, 92, 64
2, 57892, Note_on_c, 0, 99, 80
2, 57942, Note_off_c, 0, 99, 64
2, 58010, Note_on_c, 0, 81, 82
2, 58061, Note_off_c, 0, 81, 64
2, 58130, Note_on_c, 0, 99, 83
2, 58181, Note_off_c, 0, 99, 64
2, 58250, Note_on_c, 0, 82, 85
2, 58301, Note_off_c, 0, 82, 64
2, 58370, Note_on_c, 0, 99, 86
2, 58421, Note_off_c, 0, 99, 64
2, 58490, Note_on_c, 0, 83, 88
2, 58541, Note_off_c, 0, 83, 64
2, 58610, Note_on_c, 0, 99, 89
2, 58661, Note_off_c, 0, 99, 64
2, 58730, Note_on_c, 0, 84, 90
2, 58781, Note_off_c, 0, 84, 64
2, 58850, Note_on_c, 0, 99, 92
2, 58901, Note_off_c, 0, 99, 64
2, 58970, Note_on_c, 0, 85, 93
2, 59021, Note_off_c, 0, 85, 64
2, 59073, Note_on_c, 0, 99, 95
2, 59141, Note_off_c, 0, 99, 64
2, 59193, Note_on_c, 0, 86, 96
2, 59244, Note_off_c, 0, 86, 64
2, 59312, Note_on_c, 0, 99, 98
2, 59363, Note_off_c, 0, 99, 64
2, 59415, Note_on_c, 0, 87, 99
2, 59466, Note_off_c, 0, 87, 64
2, 59535, Note_on_c, 0, 99, 101
2, 59586, Note_off_c, 0, 99, 64
2, 59638, Note_on_c, 0, 87, 102
2, 59689, Note_off_c, 0, 87, 64
2, 59741, Note_on_c, 0, 99, 104
2, 59792, Note_off_c, 0, 99, 64
2, 59861, Note_on_c, 0, 87, 104
2, 59913, Note_off_c, 0, 87, 64
2, 59964, Note_on_c, 0, 99, 104
2, 60015, Note_off_c, 0, 99, 64
2, 60067, Note_on_c, 0, 87, 100
2, 60119, Note_off_c, 0, 87, 64
2, 60169, Note_on_c, 0, 99, 96
2, 60220, Note_off_c, 0, 99, 64
2, 60289, Note_on_c, 0, 87, 92
2, 60340, Note_off_c, 0, 87, 64
2, 60392, Note_on_c, 0, 99, 88
2, 60443, Note_off_c, 0, 99, 64
2, 60495, Note_on_c, 0, 87, 84
2, 60546, Note_off_c, 0, 87, 64
2, 60598, Note_on_c, 0, 99, 80
2, 60649, Note_off_c, 0, 99, 64
2, 60701, Note_on_c, 0, 87, 76
2, 60769, Note_off_c, 0, 87, 64
2, 60821, Note_on_c, 0, 75, 72
2, 60872, Note_off_c, 0, 75, 64
2, 60924, Note_on_c, 0, 87, 68
2, 60975, Note_off_c, 0, 87, 64
2, 61026, Note_on_c, 0, 99, 64
2, 61077, Note_off_c, 0, 99, 64
2, 61146, Note_on_c, 0, 87, 60
2, 61197, Note_off_c, 0, 87, 64
2, 61249, Note_on_c, 0, 75, 56
2, 61300, Note_off_c, 0, 75, 64
2, 61352, Note_on_c, 0, 87, 56
2, 61420, Note_off_c, 0, 87, 64
2, 61472, Note_on_c, 0, 99, 56
2, 61523, Note_off_c, 0, 99, 64
2, 61575, Note_on_c, 0, 87, 56
2, 61644, Note_off_c, 0, 87, 64
2, 61695, Note_on_c, 0, 75, 56
2, 61701, Note_on_c, 0, 63, 64
2, 61746, Note_off_c, 0, 75, 64
2, 61811, Note_off_c, 0, 63, 64
2, 61816, Note_on_c, 0, 87, 56
2, 61866, Note_off_c, 0, 87, 64
2, 61918, Note_on_c, 0, 99, 56
2, 61918, Note_on_c, 0, 75, 56
2, 61986, Note_off_c, 0, 99, 64
2, 62037, Note_off_c, 0, 75, 64
2, 62039, Note_on_c, 0, 87, 56
2, 62089, Note_off_c, 0, 87, 64
2, 62158, Note_on_c, 0, 75, 44
2, 62209, Note_off_c, 0, 75, 64
2, 62278, Note_on_c, 0, 87, 56
2, 62329, Note_off_c, 0, 87, 64
2, 62381, Note_on_c, 0, 99, 56
2, 62381, Note_on_c, 0, 73, 62
2, 62449, Note_off_c, 0, 99, 64
2, 62499, Note_off_c, 0, 73, 64
2, 62501, Note_on_c, 0, 87, 56
2, 62569, Note_off_c, 0, 87, 64
2, 62620, Control_c, 0, 64, 127
2, 62622, Note_on_c, 0, 71, 68
2, 62622, Note_on_c, 0, 75, 56
2, 62628, Note_on_c, 0, 56, 76
2, 62690, Note_off_c, 0, 75, 64
2, 62740, Note_off_c, 0, 71, 64
2, 62743, Note_on_c, 0, 87, 56
2, 62746, Note_off_c, 0, 56, 64
2, 62809, Note_off_c, 0, 87, 64
2, 62861, Note_on_c, 0, 99, 56
2, 62861, Note_on_c, 0, 71, 68
2, 62930, Note_off_c, 0, 99, 64
2, 62980, Note_off_c, 0, 71, 64
2, 62981, Note_on_c, 0, 87, 56
2, 63049, Note_off_c, 0, 87, 64
2, 63101, Note_on_c, 0, 75, 56
2, 63101, Note_on_c, 0, 70, 64
2, 63170, Note_off_c, 0, 75, 64
2, 63220, Note_off_c, 0, 70, 64
2, 63221, Note_on_c, 0, 87, 56
2, 63223, Control_c, 0, 64, 0
2, 63289, Note_off_c, 0, 87, 64
2, 63341, Note_on_c, 0, 99, 56
2, 63341, Note_on_c, 0, 68, 60
2, 63347, Note_on_c, 0, 59, 68
2, 63373, Control_c, 0, 64, 127
2, 63409, Note_off_c, 0, 99, 64
2, 63449, Note_off_c, 0, 59, 64
2, 63460, Note_off_c, 0, 68, 64
2, 63463, Note_on_c, 0, 87, 56
2, 63529, Note_off_c, 0, 87, 64
2, 63580, Note_on_c, 0, 75, 56
2, 63580, Note_on_c, 0, 67, 56
2, 63649, Note_off_c, 0, 75, 64
2, 63699, Note_off_c, 0, 67, 64
2, 63701, Note_on_c, 0, 87, 56
2, 63768, Note_off_c, 0, 87, 64
2, 63820, Note_on_c, 0, 99, 56
2, 63820, Note_on_c, 0, 68, 60
2, 63889, Note_off_c, 0, 99, 64
2, 63939, Note_off_c, 0, 68, 64
2, 63941, Note_on_c, 0, 87, 56
2, 64008, Note_off_c, 0, 87, 64
2, 64060, Control_c, 0, 64, 0
2, 64063, Note_on_c, 0, 75, 56
2, 64063, Note_on_c, 0, 67, 68
2, 64129, Note_off_c, 0, 75, 64
2, 64130, Note_on_c, 0, 70, 68
2, 64180, Note_on_c, 0, 87, 56
2, 64205, Control_c, 0, 64, 127
2, 64214, Note_off_c, 0, 67, 64
2, 64216, Note_off_c, 0, 70, 64
2, 64249, Note_off_c, 0, 87, 64
2, 64300, Note_on_c, 0, 99, 56
2, 64300, Note_on_c, 0, 63, 68
2, 64369, Note_off_c, 0, 99, 64
2, 64419, Note_off_c, 0, 63, 64
2, 64421, Note_on_c, 0, 87, 56
2, 64489, Note_off_c, 0, 87, 64
2, 64540, Note_on_c, 0, 75, 56
2, 64540, Note_on_c, 0, 63, 67
2, 64608, Note_off_c, 0, 75, 64
2, 64659, Note_off_c, 0, 63, 64
2, 64661, Control_c, 0, 64, 0
2, 64663, Note_on_c, 0, 87, 56
2, 64729, Note_off_c, 0, 87, 64
2, 64781, Note_on_c, 0, 99, 56
2, 64781, Note_on_c, 0, 64, 65
2, 64787, Note_on_c, 0, 55, 73
2, 64800, Control_c, 0, 64, 127
2, 64850, Note_off_c, 0, 99, 64
2, 64898, Note_off_c, 0, 55, 64
2, 64900, Note_off_c, 0, 64, 64
2, 64902, Note_on_c, 0, 87, 56
2, 64968, Note_off_c, 0, 87, 64
2, 65020, Note_on_c, 0, 75, 56
2, 65020, Note_on_c, 0, 63, 64
2, 65089, Note_off_c, 0, 75, 64
2, 65139, Note_off_c, 0, 63, 64
2, 65141, Note_on_c, 0, 87, 56
2, 65208, Note_off_c, 0, 87, 64
2, 65260, Note_on_c, 0, 99, 56
2, 65260, Note_on_c, 0, 61, 62
2, 65328, Note_off_c, 0, 99, 64
2, 65379, Note_off_c, 0, 61, 64
2, 65381, Note_on_c, 0, 87, 56
2, 65448, Note_off_c, 0, 87, 64
2, 65500, Control_c, 0, 64, 0
2, 65503, Note_on_c, 0, 59, 61
2, 65503, Note_on_c, 0, 75, 56
2, 65509, Note_on_c, 0, 56, 69
2, 65569, Note_off_c, 0, 75, 64
2, 65604, Note_off_c, 0, 56, 64
2, 65620, Note_off_c, 0, 59, 64
2, 65622, Note_on_c, 0, 87, 56
2, 65651, Control_c, 0, 64, 127
2, 65688, Note_off_c, 0, 87, 64
2, 65740, Note_on_c, 0, 99, 56
2, 65740, Note_on_c, 0, 59, 59
2, 65809, Note_off_c, 0, 99, 64
2, 65859, Note_off_c, 0, 59, 64
2, 65861, Note_on_c, 0, 87, 56
2, 65928, Note_off_c, 0, 87, 64
2, 65980, Note_on_c, 0, 75, 56
2, 65980, Note_on_c, 0, 58, 58
2, 66049, Note_off_c, 0, 75, 64
2, 66099, Note_off_c, 0, 58, 64
2, 66101, Note_on_c, 0, 87, 56
2, 66168, Note_off_c, 0, 87, 64
2, 66220, Note_on_c, 0, 99, 56
2, 66226, Note_on_c, 0, 52, 64
2, 66289, Note_off_c, 0, 99, 64
2, 66289, Note_on_c, 0, 56, 56
2, 66340, Note_on_c, 0, 87, 56
2, 66349, Note_off_c, 0, 52, 64
2, 66374, Note_off_c, 0, 56, 64
2, 66408, Note_off_c, 0, 87, 64
2, 66460, Note_on_c, 0, 75, 56
2, 66460, Note_on_c, 0, 55, 56
2, 66529, Note_off_c, 0, 75, 64
2, 66579, Note_off_c, 0, 55, 64
2, 66581, Note_on_c, 0, 87, 56
2, 66648, Note_off_c, 0, 87, 64
2, 66700, Note_on_c, 0, 99, 56
2, 66700, Note_on_c, 0, 56, 58
2, 66769, Note_off_c, 0, 99, 64
2, 66819, Note_off_c, 0, 56, 64
2, 66821, Note_on_c, 0, 87, 56
2, 66888, Note_off_c, 0, 87, 64
2, 66939, Control_c, 0, 64, 0
2, 66942, Note_on_c, 0, 75, 56
2, 66942, Note_on_c, 0, 58, 61
2, 66942, Note_on_c, 0, 55, 48
2, 67009, Note_off_c, 0, 75, 64
2, 67059, Note_on_c, 0, 87, 56
2, 67085, Control_c, 0, 64, 127
2, 67128, Note_off_c, 0, 87, 64
2, 67179, Note_off_c, 0, 58, 64
2, 67180, Note_off_c, 0, 55, 64
2, 67182, Note_on_c, 0, 99, 56
2, 67182, Note_on_c, 0, 51, 64
2, 67248, Note_off_c, 0, 99, 64
2, 67299, Note_off_c, 0, 51, 64
2, 67300, Note_on_c, 0, 87, 53
2, 67367, Note_off_c, 0, 87, 64
2, 67419, Note_on_c, 0, 75, 44
2, 67487, Note_off_c, 0, 75, 64
2, 67539, Note_on_c, 0, 87, 56
2, 67540, Control_c, 0, 64, 0
2, 67607, Note_off_c, 0, 87, 64
2, 67609, Note_on_c, 0, 63, 68
2, 67659, Note_off_c, 0, 63, 64
2, 67661, Note_on_c, 0, 99, 56
2, 67661, Note_on_c, 0, 75, 68
2, 67685, Control_c, 0, 64, 127
2, 67729, Note_off_c, 0, 99, 64
2, 67779, Note_off_c, 0, 75, 64
2, 67780, Note_on_c, 0, 87, 51
2, 67847, Note_off_c, 0, 87, 64
2, 67899, Note_on_c, 0, 75, 50
2, 67967, Note_off_c, 0, 75, 64
2, 68019, Note_on_c, 0, 87, 56
2, 68088, Note_off_c, 0, 87, 64
2, 68140, Note_on_c, 0, 99, 56
2, 68140, Note_on_c, 0, 73, 67
2, 68209, Note_off_c, 0, 99, 64
2, 68259, Note_off_c, 0, 73, 64
2, 68260, Note_on_c, 0, 87, 56
2, 68327, Note_off_c, 0, 87, 64
2, 68379, Control_c, 0, 64, 0
2, 68382, Note_on_c, 0, 75, 56
2, 68382, Note_on_c, 0, 56, 68
2, 68382, Note_on_c, 0, 71, 60
2, 68448, Note_off_c, 0, 75, 64
2, 68498, Note_off_c, 0, 71, 64
2, 68500, Note_off_c, 0, 56, 64
2, 68501, Note_on_c, 0, 87, 56
2, 68524, Control_c, 0, 64, 127
2, 68568, Note_off_c, 0, 87, 64
2, 68620, Note_on_c, 0, 71, 63
2, 68620, Note_on_c, 0, 99, 68
2, 68689, Note_off_c, 0, 99, 64
2, 68739, Note_off_c, 0, 71, 64
2, 68740, Note_on_c, 0, 87, 56
2, 68807, Note_off_c, 0, 87, 64
2, 68860, Note_on_c, 0, 70, 61
2, 68860, Note_on_c, 0, 75, 47
2, 68929, Note_off_c, 0, 75, 64
2, 68979, Note_off_c, 0, 70, 64
2, 68980, Note_on_c, 0, 87, 56
2, 69047, Note_off_c, 0, 87, 64
2, 69100, Note_on_c, 0, 99, 56
2, 69100, Note_on_c, 0, 68, 59
2, 69100, Note_on_c, 0, 59, 68
2, 69169, Note_off_c, 0, 99, 64
2, 69219, Note_off_c, 0, 59, 64
2, 69219, Note_off_c, 0, 68, 64
2, 69220, Note_on_c, 0, 87, 56
2, 69287, Note_off_c, 0, 87, 64
2, 69340, Note_on_c, 0, 67, 56
2, 69340, Note_on_c, 0, 75, 48
2, 69408, Note_off_c, 0, 75, 64
2, 69459, Note_off_c, 0, 67, 64
2, 69460, Note_on_c, 0, 87, 57
2, 69527, Note_off_c, 0, 87, 64
2, 69579, Note_on_c, 0, 99, 56
2, 69579, Note_on_c, 0, 68, 60
2, 69648, Note_off_c, 0, 99, 64
2, 69698, Note_off_c, 0, 68, 64
2, 69700, Note_on_c, 0, 87, 56
2, 69768, Note_off_c, 0, 87, 64
2, 69819, Control_c, 0, 64, 0
2, 69821, Note_on_c, 0, 75, 56
2, 69821, Note_on_c, 0, 70, 60
2, 69821, Note_on_c, 0, 67, 48
2, 69888, Note_off_c, 0, 75, 64
2, 69938, Note_off_c, 0, 67, 64
2, 69938, Note_off_c, 0, 70, 64
2, 69941, Note_on_c, 0, 87, 56
2, 69964, Control_c, 0, 64, 127
2, 70007, Note_off_c, 0, 87, 64
2, 70059, Note_on_c, 0, 63, 65
2, 70059, Note_on_c, 0, 99, 60
2, 70127, Note_off_c, 0, 99, 64
2, 70178, Note_off_c, 0, 63, 64
2, 70180, Note_on_c, 0, 87, 56
2, 70247, Note_off_c, 0, 87, 64
2, 70298, Note_on_c, 0, 75, 52
2, 70367, Note_off_c, 0, 75, 64
2, 70418, Note_on_c, 0, 87, 57
2, 70487, Note_off_c, 0, 87, 64
2, 70528, Control_c, 0, 64, 0
2, 70540, Note_on_c, 0, 70, 38
2, 70540, Note_on_c, 0, 61, 42
2, 70540, Note_on_c, 0, 76, 56
2, 70542, Note_on_c, 0, 68, 48
2, 70608, Note_off_c, 0, 76, 64
2, 70640, Note_off_c, 0, 70, 64
2, 70643, Note_off_c, 0, 68, 64
2, 70653, Note_off_c, 0, 61, 64
2, 70661, Note_on_c, 0, 87, 56
2, 70680, Control_c, 0, 64, 127
2, 70778, Note_off_c, 0, 87, 64
2, 70780, Note_on_c, 0, 68, 48
2, 70780, Note_on_c, 0, 63, 42
2, 70781, Note_on_c, 0, 70, 58
2, 70781, Note_on_c, 0, 75, 56
2, 70848, Note_off_c, 0, 75, 64
2, 70879, Note_off_c, 0, 68, 64
2, 70885, Note_off_c, 0, 63, 64
2, 70888, Note_off_c, 0, 70, 64
2, 70901, Note_on_c, 0, 87, 52
2, 71017, Note_on_c, 0, 70, 63
2, 71018, Note_off_c, 0, 87, 64
2, 71018, Note_on_c, 0, 68, 53
2, 71018, Control_c, 0, 64, 0
2, 71020, Note_on_c, 0, 75, 56
2, 71021, Note_on_c, 0, 64, 48
2, 71087, Note_off_c, 0, 75, 64
2, 71119, Note_off_c, 0, 64, 64
2, 71120, Note_off_c, 0, 70, 64
2, 71132, Note_off_c, 0, 68, 64
2, 71141, Note_on_c, 0, 87, 58
2, 71170, Control_c, 0, 64, 127
2, 71258, Note_off_c, 0, 87, 64
2, 71260, Note_on_c, 0, 75, 56
2, 71261, Note_on_c, 0, 71, 68
2, 71262, Note_on_c, 0, 63, 52
2, 71262, Note_on_c, 0, 68, 48
2, 71327, Note_off_c, 0, 75, 64
2, 71375, Note_off_c, 0, 71, 64
2, 71378, Note_off_c, 0, 63, 64
2, 71379, Note_off_c, 0, 68, 64
2, 71381, Note_on_c, 0, 87, 54
2, 71510, Control_c, 0, 64, 0
2, 71515, Note_off_c, 0, 87, 64
2, 71517, Note_on_c, 0, 80, 56
2, 71567, Note_off_c, 0, 80, 64
2, 71635, Note_on_c, 0, 83, 59
2, 71687, Note_off_c, 0, 83, 64
2, 71755, Note_on_c, 0, 87, 80
2, 71875, Note_off_c, 0, 87, 64
2, 71877, Note_on_c, 0, 99, 56
2, 72013, Note_off_c, 0, 99, 64
2, 72015, Note_on_c, 0, 75, 56
2, 72015, Note_on_c, 0, 73, 63
2, 72015, Note_on_c, 0, 67, 58
2, 72015, Note_on_c, 0, 63, 48
2, 72065, Note_off_c, 0, 75, 64
2, 72133, Note_off_c, 0, 63, 64
2, 72133, Note_off_c, 0, 67, 64
2, 72133, Note_off_c, 0, 73, 64
2, 72136, Note_on_c, 0, 87, 56
2, 72270, Note_off_c, 0, 87, 64
2, 72271, Note_on_c, 0, 79, 56
2, 72338, Note_off_c, 0, 79, 64
2, 72389, Note_on_c, 0, 82, 56
2, 72458, Note_off_c, 0, 82, 64
2, 72527, Note_on_c, 0, 87, 80
2, 72664, Note_off_c, 0, 87, 64
2, 72665, Note_on_c, 0, 99, 56
2, 72801, Note_off_c, 0, 99, 64
2, 72802, Note_on_c, 0, 56, 65
2, 72869, Note_off_c, 0, 56, 64
2, 72921, Note_on_c, 0, 63, 65
2, 72990, Note_off_c, 0, 63, 64
2, 73058, Note_on_c, 0, 71, 61
2, 73127, Note_off_c, 0, 71, 64
2, 73195, Note_on_c, 0, 80, 56
2, 73198, Control_c, 0, 64, 127
2, 73264, Note_off_c, 0, 80, 64
2, 73332, Note_on_c, 0, 75, 56
2, 73407, Note_on_c, 0, 87, 59
2, 73418, Note_off_c, 0, 75, 64
2, 73467, Note_off_c, 0, 87, 64
2, 73503, Note_on_c, 0, 87, 61
2, 73554, Note_off_c, 0, 87, 64
2, 73584, Note_on_c, 0, 87, 62
2, 73635, Note_off_c, 0, 87, 64
2, 73658, Note_on_c, 0, 87, 61
2, 73737, Note_off_c, 0, 87, 64
2, 73745, Note_on_c, 0, 99, 62
2, 73812, Note_off_c, 0, 99, 64
2, 73813, Note_on_c, 0, 87, 62
2, 73880, Note_off_c, 0, 87, 64
2, 73898, Note_on_c, 0, 87, 64
2, 73984, Note_off_c, 0, 87, 64
2, 73984, Note_on_c, 0, 99, 65
2, 74051, Note_off_c, 0, 99, 64
2, 74053, Note_on_c, 0, 85, 66
2, 74120, Note_off_c, 0, 85, 64
2, 74137, Note_on_c, 0, 85, 68
2, 74223, Note_off_c, 0, 85, 64
2, 74225, Note_on_c, 0, 97, 68
2, 74292, Note_off_c, 0, 97, 64
2, 74294, Note_on_c, 0, 83, 68
2, 74294, Note_on_c, 0, 44, 68
2, 74361, Note_off_c, 0, 83, 64
2, 74384, Note_on_c, 0, 83, 67
2, 74412, Note_off_c, 0, 44, 64
2, 74436, Note_off_c, 0, 83, 64
2, 74457, Note_on_c, 0, 83, 66
2, 74508, Note_off_c, 0, 83, 64
2, 74533, Note_on_c, 0, 59, 67
2, 74533, Note_on_c, 0, 83, 65
2, 74539, Note_on_c, 0, 51, 57
2, 74590, Note_off_c, 0, 83, 64
2, 74611, Note_on_c, 0, 83, 64
2, 74641, Note_off_c, 0, 51, 64
2, 74652, Note_off_c, 0, 59, 64
2, 74670, Note_off_c, 0, 83, 64
2, 74703, Note_on_c, 0, 83, 63
2, 74772, Note_off_c, 0, 83, 64
2, 74774, Note_on_c, 0, 82, 62
2, 74774, Note_on_c, 0, 59, 64
2, 74780, Note_on_c, 0, 51, 54
2, 74841, Note_off_c, 0, 82, 64
2, 74857, Note_on_c, 0, 82, 61
2, 74876, Note_off_c, 0, 51, 64
2, 74892, Note_off_c, 0, 59, 64
2, 74926, Note_off_c, 0, 82, 64
2, 74943, Note_on_c, 0, 82, 60
2, 75011, Note_off_c, 0, 82, 64
2, 75013, Note_on_c, 0, 80, 59
2, 75013, Note_on_c, 0, 47, 60
2, 75080, Note_off_c, 0, 80, 64
2, 75097, Note_on_c, 0, 80, 58
2, 75131, Note_off_c, 0, 47, 64
2, 75166, Note_off_c, 0, 80, 64
2, 75183, Note_on_c, 0, 80, 57
2, 75252, Note_off_c, 0, 80, 64
2, 75254, Note_on_c, 0, 79, 56
2, 75254, Note_on_c, 0, 63, 56
2, 75260, Note_on_c, 0, 56, 46
2, 75321, Note_off_c, 0, 79, 64
2, 75337, Note_on_c, 0, 79, 56
2, 75367, Note_off_c, 0, 56, 64
2, 75372, Note_off_c, 0, 63, 64
2, 75423, Note_off_c, 0, 79, 64
2, 75424, Note_on_c, 0, 91, 59
2, 75491, Note_off_c, 0, 91, 64
2, 75493, Note_on_c, 0, 80, 63
2, 75493, Note_on_c, 0, 63, 58
2, 75499, Note_on_c, 0, 56, 48
2, 75561, Note_off_c, 0, 80, 64
2, 75577, Note_on_c, 0, 80, 67
2, 75604, Note_off_c, 0, 56, 64
2, 75611, Note_off_c, 0, 63, 64
2, 75663, Note_off_c, 0, 80, 64
2, 75664, Note_on_c, 0, 92, 67
2, 75731, Note_off_c, 0, 92, 64
2, 75733, Control_c, 0, 64, 127
2, 75734, Note_on_c, 0, 51, 64
2, 75734, Note_on_c, 0, 82, 67
2, 75801, Note_off_c, 0, 82, 64
2, 75817, Note_on_c, 0, 82, 67
2, 75903, Note_off_c, 0, 82, 64
2, 75904, Note_on_c, 0, 94, 68
2, 75971, Note_off_c, 0, 94, 64
2, 75972, Note_off_c, 0, 51, 64
2, 75975, Note_on_c, 0, 75, 68
2, 75975, Note_on_c, 0, 67, 68
2, 75981, Note_on_c, 0, 58, 58
2, 76041, Note_off_c, 0, 75, 64
2, 76057, Note_on_c, 0, 75, 68
2, 76079, Note_off_c, 0, 58, 64
2, 76092, Note_off_c, 0, 67, 64
2, 76143, Note_off_c, 0, 75, 64
2, 76144, Note_on_c, 0, 87, 68
2, 76211, Note_off_c, 0, 87, 64
2, 76213, Note_on_c, 0, 75, 67
2, 76213, Note_on_c, 0, 67, 68
2, 76219, Note_on_c, 0, 58, 58
2, 76281, Note_off_c, 0, 75, 64
2, 76297, Note_on_c, 0, 75, 67
2, 76317, Note_off_c, 0, 58, 64
2, 76331, Note_off_c, 0, 67, 64
2, 76383, Note_off_c, 0, 75, 64
2, 76384, Note_on_c, 0, 87, 66
2, 76451, Note_off_c, 0, 87, 64
2, 76452, Control_c, 0, 64, 0
2, 76455, Note_on_c, 0, 76, 66
2, 76455, Note_on_c, 0, 55, 67
2, 76521, Note_off_c, 0, 76, 64
2, 76537, Note_on_c, 0, 76, 65
2, 76570, Note_off_c, 0, 55, 64
2, 76586, Control_c, 0, 64, 127
2, 76623, Note_off_c, 0, 76, 64
2, 76624, Note_on_c, 0, 88, 65
2, 76691, Note_off_c, 0, 88, 64
2, 76693, Note_on_c, 0, 75, 64
2, 76693, Note_on_c, 0, 70, 65
2, 76699, Note_on_c, 0, 63, 55
2, 76761, Note_off_c, 0, 75, 64
2, 76777, Note_on_c, 0, 75, 64
2, 76795, Note_off_c, 0, 63, 64
2, 76810, Note_off_c, 0, 70, 64
2, 76863, Note_off_c, 0, 75, 64
2, 76864, Note_on_c, 0, 87, 64
2, 76931, Note_off_c, 0, 87, 64
2, 76933, Note_on_c, 0, 73, 63
2, 76933, Note_on_c, 0, 70, 64
2, 76939, Note_on_c, 0, 63, 54
2, 77000, Note_off_c, 0, 73, 64
2, 77017, Note_on_c, 0, 73, 63
2, 77045, Note_off_c, 0, 63, 64
2, 77050, Note_off_c, 0, 70, 64
2, 77103, Note_off_c, 0, 73, 64
2, 77104, Note_on_c, 0, 85, 62
2, 77171, Note_off_c, 0, 85, 64
2, 77172, Control_c, 0, 64, 0
2, 77175, Note_on_c, 0, 71, 62
2, 77175, Note_on_c, 0, 56, 62
2, 77241, Note_off_c, 0, 71, 64
2, 77257, Note_on_c, 0, 71, 61
2, 77290, Note_off_c, 0, 56, 64
2, 77312, Control_c, 0, 64, 127
2, 77343, Note_off_c, 0, 71, 64
2, 77344, Note_on_c, 0, 83, 61
2, 77411, Note_off_c, 0, 83, 64
2, 77413, Note_on_c, 0, 71, 60
2, 77413, Note_on_c, 0, 68, 61
2, 77419, Note_on_c, 0, 63, 51
2, 77481, Note_off_c, 0, 71, 64
2, 77497, Note_on_c, 0, 71, 60
2, 77517, Note_off_c, 0, 63, 64
2, 77531, Note_off_c, 0, 68, 64
2, 77583, Note_off_c, 0, 71, 64
2, 77584, Note_on_c, 0, 83, 60
2, 77652, Note_off_c, 0, 83, 64
2, 77653, Note_on_c, 0, 70, 59
2, 77653, Note_on_c, 0, 68, 59
2, 77659, Note_on_c, 0, 63, 49
2, 77720, Note_off_c, 0, 70, 64
2, 77737, Note_on_c, 0, 70, 59
2, 77753, Note_off_c, 0, 63, 64
2, 77770, Note_off_c, 0, 68, 64
2, 77823, Note_off_c, 0, 70, 64
2, 77824, Note_on_c, 0, 82, 58
2, 77891, Note_off_c, 0, 82, 64
2, 77892, Control_c, 0, 64, 0
2, 77894, Note_on_c, 0, 68, 58
2, 77894, Note_on_c, 0, 59, 58
2, 77960, Note_off_c, 0, 68, 64
2, 77977, Note_on_c, 0, 68, 57
2, 78010, Note_off_c, 0, 59, 64
2, 78038, Control_c, 0, 64, 127
2, 78063, Note_off_c, 0, 68, 64
2, 78064, Note_on_c, 0, 80, 57
2, 78131, Note_off_c, 0, 80, 64
2, 78133, Note_on_c, 0, 67, 56
2, 78133, Note_on_c, 0, 65, 56
2, 78139, Note_on_c, 0, 62, 46
2, 78200, Note_off_c, 0, 67, 64
2, 78217, Note_on_c, 0, 67, 56
2, 78244, Note_off_c, 0, 62, 64
2, 78250, Note_off_c, 0, 65, 64
2, 78303, Note_off_c, 0, 67, 64
2, 78304, Note_on_c, 0, 79, 59
2, 78371, Note_off_c, 0, 79, 64
2, 78373, Note_on_c, 0, 68, 62
2, 78373, Note_on_c, 0, 65, 58
2, 78379, Note_on_c, 0, 62, 48
2, 78440, Note_off_c, 0, 68, 64
2, 78457, Note_on_c, 0, 68, 65
2, 78494, Note_off_c, 0, 62, 64
2, 78508, Note_off_c, 0, 65, 64
2, 78543, Note_off_c, 0, 68, 64
2, 78543, Note_on_c, 0, 80, 66
2, 78627, Note_off_c, 0, 80, 64
2, 78629, Control_c, 0, 64, 0
2, 78631, Note_on_c, 0, 70, 66
2, 78631, Note_on_c, 0, 51, 64
2, 78649, Control_c, 0, 64, 127
2, 78680, Note_off_c, 0, 70, 64
2, 78697, Note_on_c, 0, 70, 66
2, 78747, Note_off_c, 0, 51, 64
2, 78783, Note_off_c, 0, 70, 64
2, 78784, Note_on_c, 0, 82, 66
2, 78868, Note_off_c, 0, 82, 64
2, 78870, Note_on_c, 0, 63, 66
2, 78870, Note_on_c, 0, 67, 68
2, 78876, Note_on_c, 0, 58, 58
2, 78920, Note_off_c, 0, 63, 64
2, 78936, Note_on_c, 0, 63, 66
2, 78979, Note_off_c, 0, 58, 64
2, 78987, Note_off_c, 0, 67, 64
2, 79022, Note_off_c, 0, 63, 64
2, 79024, Note_on_c, 0, 75, 66
2, 79074, Note_off_c, 0, 75, 64
2, 79108, Note_on_c, 0, 75, 66
2, 79109, Control_c, 0, 64, 0
2, 79159, Note_off_c, 0, 75, 64
2, 79176, Note_on_c, 0, 75, 66
2, 79245, Note_off_c, 0, 75, 64
2, 79262, Note_on_c, 0, 75, 66
2, 79348, Note_off_c, 0, 75, 64
2, 79349, Note_on_c, 0, 87, 66
2, 79399, Note_off_c, 0, 87, 64
2, 79416, Note_on_c, 0, 87, 66
2, 79502, Note_off_c, 0, 87, 64
2, 79504, Note_on_c, 0, 99, 66
2, 79588, Note_off_c, 0, 99, 64
2, 79589, Note_on_c, 0, 87, 68
2, 79639, Note_off_c, 0, 87, 64
2, 79656, Note_on_c, 0, 87, 68
2, 79742, Note_off_c, 0, 87, 64
2, 79744, Note_on_c, 0, 99, 68
2, 79828, Note_off_c, 0, 99, 64
2, 79829, Note_on_c, 0, 85, 67
2, 79879, Note_off_c, 0, 85, 64
2, 79896, Note_on_c, 0, 85, 66
2, 79982, Note_off_c, 0, 85, 64
2, 79984, Note_on_c, 0, 97, 66
2, 80068, Note_off_c, 0, 97, 64
2, 80069, Control_c, 0, 64, 127
2, 80070, Note_on_c, 0, 44, 68
2, 80070, Note_on_c, 0, 83, 65
2, 80119, Note_off_c, 0, 83, 64
2, 80136, Note_on_c, 0, 83, 64
2, 80187, Note_off_c, 0, 44, 64
2, 80205, Note_off_c, 0, 83, 64
2, 80222, Note_on_c, 0, 83, 64
2, 80273, Note_off_c, 0, 83, 64
2, 80309, Note_on_c, 0, 83, 63
2, 80309, Note_on_c, 0, 59, 65
2, 80315, Note_on_c, 0, 51, 55
2, 80360, Note_off_c, 0, 83, 64
2, 80376, Note_on_c, 0, 83, 62
2, 80418, Note_off_c, 0, 51, 64
2, 80428, Note_off_c, 0, 59, 64
2, 80444, Note_off_c, 0, 83, 64
2, 80462, Note_on_c, 0, 83, 61
2, 80548, Note_off_c, 0, 83, 64
2, 80550, Note_on_c, 0, 82, 61
2, 80550, Note_on_c, 0, 59, 62
2, 80557, Note_on_c, 0, 51, 52
2, 80600, Note_off_c, 0, 82, 64
2, 80616, Note_on_c, 0, 82, 60
2, 80658, Note_off_c, 0, 51, 64
2, 80667, Note_off_c, 0, 59, 64
2, 80685, Note_off_c, 0, 82, 64
2, 80702, Note_on_c, 0, 82, 59
2, 80788, Note_off_c, 0, 82, 64
2, 80789, Control_c, 0, 64, 0
2, 80791, Note_on_c, 0, 80, 59
2, 80791, Note_on_c, 0, 47, 59
2, 80840, Note_off_c, 0, 80, 64
2, 80856, Note_on_c, 0, 80, 58
2, 80907, Note_off_c, 0, 47, 64
2, 80916, Control_c, 0, 64, 127
2, 80925, Note_off_c, 0, 80, 64
2, 80942, Note_on_c, 0, 80, 57
2, 81028, Note_off_c, 0, 80, 64
2, 81030, Note_on_c, 0, 79, 56
2, 81030, Note_on_c, 0, 63, 56
2, 81037, Note_on_c, 0, 56, 46
2, 81080, Note_off_c, 0, 79, 64
2, 81096, Note_on_c, 0, 79, 56
2, 81134, Note_off_c, 0, 56, 64
2, 81147, Note_off_c, 0, 63, 64
2, 81182, Note_off_c, 0, 79, 64
2, 81183, Note_on_c, 0, 91, 62
2, 81267, Note_off_c, 0, 91, 64
2, 81269, Note_on_c, 0, 80, 68
2, 81269, Note_on_c, 0, 63, 64
2, 81275, Note_on_c, 0, 56, 54
2, 81319, Note_off_c, 0, 80, 64
2, 81336, Note_on_c, 0, 80, 68
2, 81369, Note_off_c, 0, 56, 64
2, 81386, Note_off_c, 0, 63, 64
2, 81422, Note_off_c, 0, 80, 64
2, 81423, Note_on_c, 0, 92, 68
2, 81508, Note_off_c, 0, 92, 64
2, 81509, Control_c, 0, 64, 0
2, 81511, Note_on_c, 0, 82, 64
2, 81511, Note_on_c, 0, 51, 56
2, 81559, Note_off_c, 0, 82, 64
2, 81575, Control_c, 0, 64, 127
2, 81576, Note_on_c, 0, 82, 60
2, 81627, Note_off_c, 0, 51, 64
2, 81662, Note_off_c, 0, 82, 64
2, 81663, Note_on_c, 0, 94, 56
2, 81747, Note_off_c, 0, 94, 64
2, 81750, Note_on_c, 0, 67, 56
2, 81750, Note_on_c, 0, 75, 56
2, 81750, Note_on_c, 0, 58, 46
2, 81800, Note_off_c, 0, 75, 64
2, 81816, Note_on_c, 0, 75, 60
2, 81843, Note_off_c, 0, 58, 64
2, 81857, Control_c, 0, 64, 0
2, 81867, Note_off_c, 0, 67, 64
2, 81902, Note_off_c, 0, 75, 64
2, 81903, Note_on_c, 0, 87, 64
2, 81987, Note_off_c, 0, 87, 64
2, 81989, Note_on_c, 0, 70, 68
2, 81989, Note_on_c, 0, 75, 68
2, 81990, Note_on_c, 0, 67, 58
2, 82001, Control_c, 0, 64, 127
2, 82039, Note_off_c, 0, 75, 64
2, 82056, Note_on_c, 0, 75, 72
2, 82084, Note_off_c, 0, 67, 64
2, 82092, Note_off_c, 0, 70, 64
2, 82142, Note_off_c, 0, 75, 64
2, 82142, Note_on_c, 0, 87, 76
2, 82227, Note_off_c, 0, 87, 64
2, 82229, Note_on_c, 0, 76, 80
2, 82231, Note_on_c, 0, 68, 70
2, 82231, Note_on_c, 0, 71, 80
2, 82279, Note_off_c, 0, 76, 64
2, 82296, Note_on_c, 0, 76, 80
2, 82328, Note_off_c, 0, 68, 64
2, 82332, Note_off_c, 0, 71, 64
2, 82382, Note_off_c, 0, 76, 64
2, 82382, Note_on_c, 0, 88, 72
2, 82387, Control_c, 0, 64, 0
2, 82467, Note_off_c, 0, 88, 64
2, 82468, Note_on_c, 0, 70, 80
2, 82468, Note_on_c, 0, 66, 70
2, 82469, Note_on_c, 0, 75, 63
2, 82519, Note_off_c, 0, 75, 64
2, 82531, Control_c, 0, 64, 127
2, 82535, Note_on_c, 0, 75, 63
2, 82562, Note_off_c, 0, 70, 64
2, 82571, Note_off_c, 0, 66, 64
2, 82621, Note_off_c, 0, 75, 64
2, 82623, Note_on_c, 0, 87, 59
2, 82707, Note_off_c, 0, 87, 64
2, 82709, Note_on_c, 0, 64, 46
2, 82709, Note_on_c, 0, 73, 56
2, 82710, Note_on_c, 0, 68, 56
2, 82759, Note_off_c, 0, 73, 64
2, 82775, Note_on_c, 0, 73, 56
2, 82813, Note_off_c, 0, 68, 64
2, 82818, Note_off_c, 0, 64, 64
2, 82861, Note_off_c, 0, 73, 64
2, 82862, Note_on_c, 0, 85, 56
2, 82946, Note_off_c, 0, 85, 64
2, 82949, Note_on_c, 0, 71, 68
2, 82950, Note_on_c, 0, 63, 50
2, 82950, Note_on_c, 0, 75, 56
2, 82951, Note_on_c, 0, 68, 58
2, 83000, Note_off_c, 0, 75, 64
2, 83015, Note_on_c, 0, 75, 56
2, 83027, Control_c, 0, 64, 0
2, 83045, Note_off_c, 0, 68, 64
2, 83047, Note_off_c, 0, 63, 64
2, 83049, Note_off_c, 0, 71, 64
2, 83101, Note_off_c, 0, 75, 64
2, 83102, Note_on_c, 0, 87, 56
2, 83171, Control_c, 0, 64, 127
2, 83187, Note_off_c, 0, 87, 64
2, 83188, Note_on_c, 0, 76, 56
2, 83238, Note_off_c, 0, 76, 64
2, 83255, Note_on_c, 0, 76, 56
2, 83341, Note_off_c, 0, 76, 64
2, 83342, Note_on_c, 0, 87, 56
2, 83426, Note_off_c, 0, 87, 64
2, 83428, Note_on_c, 0, 77, 56
2, 83478, Note_off_c, 0, 77, 64
2, 83495, Note_on_c, 0, 77, 59
2, 83581, Note_off_c, 0, 77, 64
2, 83583, Note_on_c, 0, 87, 62
2, 83667, Note_off_c, 0, 87, 64
2, 83668, Note_on_c, 0, 78, 65
2, 83718, Note_off_c, 0, 78, 64
2, 83735, Note_on_c, 0, 78, 69
2, 83821, Note_off_c, 0, 78, 64
2, 83822, Note_on_c, 0, 87, 72
2, 83906, Note_off_c, 0, 87, 64
2, 83908, Note_on_c, 0, 79, 75
2, 83958, Note_off_c, 0, 79, 64
2, 83975, Note_on_c, 0, 79, 78
2, 84061, Note_off_c, 0, 79, 64
2, 84062, Note_on_c, 0, 87, 82
2, 84146, Note_off_c, 0, 87, 64
2, 84148, Note_on_c, 0, 80, 85
2, 84198, Note_off_c, 0, 80, 64
2, 84215, Note_on_c, 0, 80, 88
2, 84301, Note_off_c, 0, 80, 64
2, 84302, Note_on_c, 0, 87, 92
2, 84386, Note_off_c, 0, 87, 64
2, 84389, Note_on_c, 0, 81, 92
2, 84394, Note_on_c, 0, 67, 68
2, 84394, Control_c, 0, 64, 127
2, 84395, Note_on_c, 0, 61, 58
2, 84395, Note_on_c, 0, 51, 50
2, 84439, Note_off_c, 0, 81, 64
2, 84455, Note_on_c, 0, 81, 92
2, 84486, Note_off_c, 0, 51, 64
2, 84495, Note_off_c, 0, 67, 64
2, 84498, Note_off_c, 0, 61, 64
2, 84541, Note_off_c, 0, 81, 64
2, 84542, Note_on_c, 0, 87, 91
2, 84627, Note_off_c, 0, 87, 64
2, 84628, Note_on_c, 0, 82, 91
2, 84678, Note_off_c, 0, 82, 64
2, 84701, Note_on_c, 0, 82, 90
2, 84782, Note_on_c, 0, 87, 90
2, 84787, Note_off_c, 0, 82, 64
2, 84866, Note_off_c, 0, 87, 64
2, 84868, Note_on_c, 0, 83, 89
2, 84918, Note_off_c, 0, 83, 64
2, 84925, Control_c, 0, 64, 0
2, 84941, Note_on_c, 0, 83, 89
2, 85022, Note_on_c, 0, 87, 88
2, 85027, Note_off_c, 0, 83, 64
2, 85107, Note_off_c, 0, 87, 64
2, 85108, Note_on_c, 0, 84, 88
2, 85158, Note_off_c, 0, 84, 64
2, 85181, Note_on_c, 0, 84, 87
2, 85262, Note_on_c, 0, 87, 87
2, 85267, Note_off_c, 0, 84, 64
2, 85347, Note_off_c, 0, 87, 64
2, 85348, Note_on_c, 0, 85, 86
2, 85398, Note_off_c, 0, 85, 64
2, 85421, Note_on_c, 0, 85, 86
2, 85502, Note_on_c, 0, 87, 85
2, 85507, Note_off_c, 0, 85, 64
2, 85587, Note_off_c, 0, 87, 64
2, 85588, Note_on_c, 0, 86, 85
2, 85638, Note_off_c, 0, 86, 64
2, 85661, Note_on_c, 0, 86, 84
2, 85742, Note_on_c, 0, 87, 84
2, 85747, Note_off_c, 0, 86, 64
2, 85794, Control_c, 0, 64, 127
2, 85812, Note_off_c, 0, 87, 64
2, 85828, Note_on_c, 0, 87, 83
2, 85828, Note_on_c, 0, 68, 56
2, 85829, Note_on_c, 0, 51, 38
2, 85829, Note_on_c, 0, 59, 44
2, 85831, Note_on_c, 0, 44, 48
2, 85868, Note_off_c, 0, 87, 64
2, 85895, Note_on_c, 0, 87, 83
2, 85925, Note_off_c, 0, 44, 64
2, 85926, Note_off_c, 0, 51, 64
2, 85931, Note_off_c, 0, 68, 64
2, 85933, Note_off_c, 0, 59, 64
2, 85981, Note_off_c, 0, 87, 64
2, 85982, Note_on_c, 0, 99, 82
2, 86067, Note_off_c, 0, 99, 64
2, 86068, Note_on_c, 0, 88, 82
2, 86128, Note_off_c, 0, 88, 64
2, 86152, Note_on_c, 0, 88, 81
2, 86238, Note_off_c, 0, 88, 64
2, 86239, Note_on_c, 0, 99, 80
2, 86325, Control_c, 0, 64, 0
2, 86341, Note_off_c, 0, 99, 64
2, 86342, Note_on_c, 0, 89, 80
2, 86399, Note_off_c, 0, 89, 64
2, 86426, Note_on_c, 0, 89, 78
2, 86512, Note_off_c, 0, 89, 64
2, 86513, Note_on_c, 0, 99, 76
2, 86614, Note_off_c, 0, 99, 64
2, 86616, Note_on_c, 0, 90, 74
2, 86694, Note_off_c, 0, 90, 64
2, 86718, Note_on_c, 0, 90, 72
2, 86821, Note_off_c, 0, 90, 64
2, 86822, Note_on_c, 0, 99, 70
2, 86924, Note_off_c, 0, 99, 64
2, 86925, Note_on_c, 0, 91, 67
2, 86997, Note_off_c, 0, 91, 64
2, 87026, Note_on_c, 0, 91, 65
2, 87129, Note_off_c, 0, 91, 64
2, 87130, Note_on_c, 0, 99, 63
2, 87249, Note_off_c, 0, 99, 64
2, 87250, Note_on_c, 0, 92, 61
2, 87319, Note_off_c, 0, 92, 64
2, 87352, Note_on_c, 0, 92, 59
2, 87472, Note_off_c, 0, 92, 64
2, 87473, Note_on_c, 0, 99, 56
2, 87575, Note_off_c, 0, 99, 64
2, 88859, Note_on_c, 0, 68, 64
2, 88863, Note_on_c, 0, 71, 80
2, 88978, Note_off_c, 0, 71, 64
2, 88982, Note_off_c, 0, 68, 64
2, 88998, Note_on_c, 0, 67, 63
2, 89000, Note_on_c, 0, 70, 79
2, 89066, Note_off_c, 0, 70, 64
2, 89075, Note_off_c, 0, 67, 64
2, 89118, Note_on_c, 0, 71, 77
2, 89118, Note_on_c, 0, 69, 67
2, 89118, Note_on_c, 0, 66, 61
2, 89173, Note_off_c, 0, 71, 64
2, 89173, Note_off_c, 0, 69, 64
2, 89174, Note_off_c, 0, 66, 64
2, 89255, Note_on_c, 0, 68, 65
2, 89255, Note_on_c, 0, 71, 75
2, 89256, Note_on_c, 0, 65, 59
2, 89311, Note_off_c, 0, 71, 64
2, 89313, Note_off_c, 0, 65, 64
2, 89313, Note_off_c, 0, 68, 64
2, 89374, Note_on_c, 0, 64, 58
2, 89374, Note_on_c, 0, 67, 64
2, 89376, Note_on_c, 0, 71, 74
2, 89432, Note_off_c, 0, 67, 64
2, 89436, Note_off_c, 0, 64, 64
2, 89437, Note_off_c, 0, 71, 64
2, 89511, Note_on_c, 0, 63, 56
2, 89512, Note_on_c, 0, 71, 72
2, 89514, Note_on_c, 0, 66, 62
2, 89569, Note_off_c, 0, 63, 64
2, 89572, Note_off_c, 0, 71, 64
2, 89576, Note_off_c, 0, 66, 64
2, 89649, Note_on_c, 0, 71, 70
2, 89649, Note_on_c, 0, 62, 54
2, 89649, Note_on_c, 0, 65, 60
2, 89702, Note_off_c, 0, 62, 64
2, 89707, Note_off_c, 0, 71, 64
2, 89710, Note_off_c, 0, 65, 64
2, 89767, Note_on_c, 0, 71, 68
2, 89768, Note_on_c, 0, 61, 52
2, 89769, Note_on_c, 0, 64, 58
2, 89822, Note_off_c, 0, 61, 64
2, 89824, Note_off_c, 0, 64, 64
2, 89824, Note_off_c, 0, 71, 64
2, 89905, Note_on_c, 0, 73, 56
2, 89974, Note_off_c, 0, 73, 64
2, 89975, Note_on_c, 0, 71, 56
2, 90042, Note_off_c, 0, 71, 64
2, 90043, Note_on_c, 0, 70, 56
2, 90094, Note_off_c, 0, 70, 64
2, 90095, Note_on_c, 0, 71, 57
2, 90134, Control_c, 0, 64, 127
2, 90162, Note_off_c, 0, 71, 64
2, 90166, Note_on_c, 0, 63, 62
2, 90166, Note_on_c, 0, 66, 63
2, 90166, Note_on_c, 0, 59, 56
2, 90180, Note_off_c, 0, 66, 64
2, 90231, Note_on_c, 0, 78, 64
2, 90270, Note_off_c, 0, 78, 64
2, 90284, Note_off_c, 0, 59, 64
2, 90284, Note_off_c, 0, 63, 64
2, 90299, Note_on_c, 0, 78, 65
2, 90333, Note_off_c, 0, 78, 64
2, 90368, Note_on_c, 0, 78, 65
2, 90436, Note_off_c, 0, 78, 64
2, 90438, Note_on_c, 0, 71, 66
2, 90439, Note_on_c, 0, 54, 51
2, 90440, Note_on_c, 0, 66, 63
2, 90441, Note_on_c, 0, 63, 57
2, 90454, Note_off_c, 0, 71, 64
2, 90488, Note_on_c, 0, 83, 67
2, 90508, Note_off_c, 0, 63, 64
2, 90523, Note_off_c, 0, 54, 64
2, 90526, Note_off_c, 0, 66, 64
2, 90531, Note_off_c, 0, 83, 64
2, 90557, Note_on_c, 0, 83, 67
2, 90598, Note_off_c, 0, 83, 64
2, 90625, Note_on_c, 0, 83, 68
2, 90694, Note_off_c, 0, 83, 64
2, 90695, Note_on_c, 0, 73, 68
2, 90695, Control_c, 0, 64, 0
2, 90711, Note_off_c, 0, 73, 64
2, 90750, Note_on_c, 0, 85, 69
2, 90758, Note_off_c, 0, 85, 64
2, 90814, Note_on_c, 0, 85, 70
2, 90840, Note_off_c, 0, 85, 64
2, 90882, Note_on_c, 0, 85, 70
2, 90951, Note_off_c, 0, 85, 64
2, 90952, Control_c, 0, 64, 127
2, 90954, Note_on_c, 0, 64, 71
2, 90954, Note_on_c, 0, 78, 71
2, 90956, Note_on_c, 0, 58, 65
2, 90969, Note_off_c, 0, 78, 64
2, 91019, Note_on_c, 0, 90, 72
2, 91034, Note_off_c, 0, 64, 64
2, 91037, Note_off_c, 0, 58, 64
2, 91053, Note_off_c, 0, 90, 64
2, 91088, Note_on_c, 0, 90, 72
2, 91122, Note_off_c, 0, 90, 64
2, 91156, Note_on_c, 0, 90, 73
2, 91207, Note_off_c, 0, 90, 64
2, 91210, Note_on_c, 0, 73, 74
2, 91212, Note_on_c, 0, 54, 62
2, 91213, Note_on_c, 0, 58, 68
2, 91214, Note_on_c, 0, 66, 74
2, 91243, Note_off_c, 0, 73, 64
2, 91288, Note_on_c, 0, 85, 74
2, 91298, Note_off_c, 0, 54, 64
2, 91300, Note_on_c, 0, 78, 62
2, 91305, Note_off_c, 0, 58, 64
2, 91339, Note_off_c, 0, 66, 64
2, 91369, Note_off_c, 0, 78, 64
2, 91370, Note_off_c, 0, 85, 64
2, 91398, Control_c, 0, 64, 0
2, 91406, Note_on_c, 0, 85, 70
2, 91412, Note_on_c, 0, 78, 58
2, 91483, Note_on_c, 0, 47, 74
2, 91484, Note_off_c, 0, 78, 64
2, 91485, Note_on_c, 0, 87, 66
2, 91489, Note_off_c, 0, 85, 64
2, 91545, Control_c, 0, 64, 127
2, 91568, Note_off_c, 0, 87, 64
2, 91569, Note_on_c, 0, 99, 66
2, 91575, Note_on_c, 0, 90, 60
2, 91579, Note_off_c, 0, 47, 64
2, 91620, Note_off_c, 0, 90, 64
2, 91623, Note_off_c, 0, 99, 64
2, 91660, Note_on_c, 0, 99, 64
2, 91666, Note_on_c, 0, 90, 58
2, 91739, Note_off_c, 0, 90, 64
2, 91743, Note_on_c, 0, 63, 56
2, 91743, Note_on_c, 0, 83, 62
2, 91746, Note_off_c, 0, 99, 64
2, 91746, Note_on_c, 0, 54, 50
2, 91809, Note_off_c, 0, 83, 64
2, 91862, Control_c, 0, 64, 0
2, 91863, Note_off_c, 0, 54, 64
2, 91865, Note_off_c, 0, 63, 64
2, 92117, Note_on_c, 0, 75, 68
2, 92123, Note_on_c, 0, 71, 56
2, 92255, Note_on_c, 0, 74, 68
2, 92277, Note_off_c, 0, 75, 64
2, 92330, Note_off_c, 0, 71, 64
2, 92356, Note_off_c, 0, 74, 64
2, 92375, Note_on_c, 0, 70, 73
2, 92375, Note_on_c, 0, 73, 74
2, 92375, Note_on_c, 0, 75, 66
2, 92430, Note_off_c, 0, 70, 64
2, 92430, Note_off_c, 0, 73, 64
2, 92442, Note_off_c, 0, 75, 64
2, 92511, Note_on_c, 0, 69, 74
2, 92511, Note_on_c, 0, 72, 72
2, 92511, Note_on_c, 0, 75, 64
2, 92572, Note_off_c, 0, 69, 64
2, 92572, Note_off_c, 0, 72, 64
2, 92580, Note_off_c, 0, 75, 64
2, 92649, Note_on_c, 0, 68, 70
2, 92649, Note_on_c, 0, 71, 68
2, 92649, Note_on_c, 0, 75, 62
2, 92709, Note_off_c, 0, 68, 64
2, 92710, Note_off_c, 0, 71, 64
2, 92717, Note_off_c, 0, 75, 64
2, 92769, Note_on_c, 0, 67, 66
2, 92769, Note_on_c, 0, 70, 65
2, 92769, Note_on_c, 0, 75, 60
2, 92826, Note_off_c, 0, 67, 64
2, 92830, Note_off_c, 0, 70, 64
2, 92838, Note_off_c, 0, 75, 64
2, 92906, Note_on_c, 0, 66, 65
2, 92906, Note_on_c, 0, 69, 64
2, 92906, Note_on_c, 0, 75, 58
2, 92961, Note_off_c, 0, 69, 64
2, 92968, Note_off_c, 0, 66, 64
2, 92975, Note_off_c, 0, 75, 64
2, 93043, Note_on_c, 0, 65, 62
2, 93043, Note_on_c, 0, 68, 60
2, 93043, Note_on_c, 0, 75, 56
2, 93082, Note_off_c, 0, 68, 64
2, 93089, Note_off_c, 0, 65, 64
2, 93094, Note_off_c, 0, 75, 64
2, 93162, Note_on_c, 0, 77, 56
2, 93231, Note_off_c, 0, 77, 64
2, 93232, Note_on_c, 0, 75, 56
2, 93299, Note_off_c, 0, 75, 64
2, 93300, Note_on_c, 0, 74, 57
2, 93368, Note_off_c, 0, 74, 64
2, 93369, Note_on_c, 0, 75, 57
2, 93436, Note_off_c, 0, 75, 64
2, 93437, Control_c, 0, 64, 127
2, 93439, Note_on_c, 0, 66, 56
2, 93439, Note_on_c, 0, 70, 58
2, 93445, Note_on_c, 0, 63, 47
2, 93453, Note_off_c, 0, 70, 64
2, 93505, Note_on_c, 0, 82, 59
2, 93547, Note_off_c, 0, 82, 64
2, 93549, Note_off_c, 0, 63, 64
2, 93557, Note_off_c, 0, 66, 64
2, 93573, Note_on_c, 0, 82, 59
2, 93617, Note_off_c, 0, 82, 64
2, 93642, Note_on_c, 0, 82, 60
2, 93710, Note_on_c, 0, 70, 59
2, 93711, Note_off_c, 0, 82, 64
2, 93712, Note_on_c, 0, 75, 60
2, 93721, Note_on_c, 0, 58, 54
2, 93721, Note_on_c, 0, 66, 65
2, 93728, Note_off_c, 0, 75, 64
2, 93779, Note_on_c, 0, 87, 61
2, 93780, Control_c, 0, 64, 0
2, 93801, Note_off_c, 0, 58, 64
2, 93802, Note_off_c, 0, 66, 64
2, 93805, Note_off_c, 0, 70, 64
2, 93813, Note_off_c, 0, 87, 64
2, 93830, Note_on_c, 0, 87, 62
2, 93874, Note_off_c, 0, 87, 64
2, 93899, Note_on_c, 0, 87, 62
2, 93967, Note_off_c, 0, 87, 64
2, 93968, Note_on_c, 0, 77, 63
2, 93984, Note_off_c, 0, 77, 64
2, 94036, Note_on_c, 0, 89, 63
2, 94070, Note_off_c, 0, 89, 64
2, 94104, Note_on_c, 0, 89, 64
2, 94138, Note_off_c, 0, 89, 64
2, 94156, Note_on_c, 0, 89, 65
2, 94225, Note_off_c, 0, 89, 64
2, 94226, Control_c, 0, 64, 127
2, 94227, Note_on_c, 0, 82, 65
2, 94230, Note_on_c, 0, 68, 65
2, 94231, Note_on_c, 0, 62, 71
2, 94242, Note_off_c, 0, 82, 64
2, 94293, Note_on_c, 0, 94, 66
2, 94330, Note_off_c, 0, 68, 64
2, 94334, Note_off_c, 0, 62, 64
2, 94339, Note_off_c, 0, 94, 64
2, 94361, Note_on_c, 0, 94, 66
2, 94401, Note_off_c, 0, 94, 64
2, 94430, Note_on_c, 0, 94, 67
2, 94499, Note_off_c, 0, 94, 64
2, 94501, Note_on_c, 0, 89, 68
2, 94503, Note_on_c, 0, 70, 68
2, 94504, Note_on_c, 0, 58, 67
2, 94507, Note_on_c, 0, 62, 73
2, 94517, Note_off_c, 0, 89, 64
2, 94584, Control_c, 0, 64, 0
2, 94586, Note_on_c, 0, 101, 68
2, 94592, Note_on_c, 0, 94, 56
2, 94600, Note_off_c, 0, 62, 64
2, 94601, Note_off_c, 0, 70, 64
2, 94607, Note_off_c, 0, 58, 64
2, 94636, Note_off_c, 0, 101, 64
2, 94636, Note_off_c, 0, 94, 64
2, 94670, Note_on_c, 0, 101, 64
2, 94676, Note_on_c, 0, 94, 54
2, 94744, Note_off_c, 0, 94, 64
2, 94756, Note_off_c, 0, 101, 64
2, 94758, Control_c, 0, 64, 127
2, 94759, Note_on_c, 0, 90, 60
2, 94760, Note_on_c, 0, 51, 56
2, 94842, Note_off_c, 0, 90, 64
2, 94843, Note_on_c, 0, 102, 60
2, 94849, Note_on_c, 0, 94, 49
2, 94868, Note_off_c, 0, 51, 64
2, 94908, Note_off_c, 0, 94, 64
2, 94910, Note_off_c, 0, 102, 64
2, 94928, Note_on_c, 0, 102, 58
2, 94934, Note_on_c, 0, 94, 49
2, 95012, Note_off_c, 0, 94, 64
2, 95014, Note_off_c, 0, 102, 64
2, 95016, Control_c, 0, 64, 0
2, 95017, Note_on_c, 0, 87, 56
2, 95018, Note_on_c, 0, 66, 59
2, 95022, Note_on_c, 0, 58, 66
2, 95073, Note_off_c, 0, 58, 64
2, 95074, Note_off_c, 0, 66, 64
2, 95117, Note_off_c, 0, 87, 64
2, 95330, Note_on_c, 0, 78, 68
2, 95335, Note_on_c, 0, 75, 58
2, 95446, Note_off_c, 0, 75, 64
2, 95450, Note_off_c, 0, 78, 64
2, 95467, Note_on_c, 0, 74, 59
2, 95468, Note_on_c, 0, 77, 68
2, 95555, Note_off_c, 0, 74, 64
2, 95559, Note_off_c, 0, 77, 64
2, 95605, Note_on_c, 0, 76, 66
2, 95605, Note_on_c, 0, 73, 56
2, 95605, Note_on_c, 0, 78, 60
2, 95645, Note_off_c, 0, 73, 64
2, 95651, Note_off_c, 0, 78, 64
2, 95651, Note_off_c, 0, 76, 64
2, 95723, Note_on_c, 0, 72, 54
2, 95724, Note_on_c, 0, 78, 62
2, 95725, Note_on_c, 0, 75, 64
2, 95781, Note_off_c, 0, 72, 64
2, 95782, Note_off_c, 0, 78, 64
2, 95787, Note_off_c, 0, 75, 64
2, 95861, Note_on_c, 0, 78, 58
2, 95862, Note_on_c, 0, 74, 62
2, 95864, Note_on_c, 0, 71, 52
2, 95918, Note_off_c, 0, 74, 64
2, 95920, Note_off_c, 0, 71, 64
2, 95924, Note_off_c, 0, 78, 64
2, 95998, Note_on_c, 0, 78, 56
2, 95998, Note_on_c, 0, 73, 60
2, 96000, Note_on_c, 0, 70, 49
2, 96042, Note_off_c, 0, 73, 64
2, 96043, Note_off_c, 0, 70, 64
2, 96045, Note_off_c, 0, 78, 64
2, 96119, Note_on_c, 0, 72, 58
2, 96119, Note_on_c, 0, 78, 51
2, 96120, Note_on_c, 0, 69, 48
2, 96175, Note_off_c, 0, 69, 64
2, 96176, Note_off_c, 0, 72, 64
2, 96177, Note_off_c, 0, 78, 64
2, 96255, Note_on_c, 0, 78, 50
2, 96255, Note_on_c, 0, 71, 56
2, 96258, Note_on_c, 0, 68, 47
2, 96308, Note_off_c, 0, 78, 64
2, 96315, Note_off_c, 0, 68, 64
2, 96318, Note_off_c, 0, 71, 64
2, 96375, Note_on_c, 0, 80, 56
2, 96444, Note_off_c, 0, 80, 64
2, 96445, Note_on_c, 0, 78, 56
2, 96512, Note_off_c, 0, 78, 64
2, 96514, Note_on_c, 0, 77, 56
2, 96581, Note_off_c, 0, 77, 64
2, 96582, Note_on_c, 0, 78, 56
2, 96610, Control_c, 0, 64, 127
2, 96649, Note_off_c, 0, 78, 64
2, 96652, Note_on_c, 0, 73, 56
2, 96658, Note_on_c, 0, 66, 47
2, 96659, Note_on_c, 0, 70, 54
2, 96668, Note_off_c, 0, 73, 64
2, 96718, Note_on_c, 0, 85, 56
2, 96740, Note_off_c, 0, 66, 64
2, 96752, Note_off_c, 0, 85, 64
2, 96752, Note_off_c, 0, 70, 64
2, 96781, Note_on_c, 0, 85, 56
2, 96825, Note_off_c, 0, 85, 64
2, 96838, Note_on_c, 0, 85, 56
2, 96907, Note_off_c, 0, 85, 64
2, 96908, Note_on_c, 0, 78, 56
2, 96909, Note_on_c, 0, 73, 59
2, 96914, Note_on_c, 0, 70, 49
2, 96917, Note_on_c, 0, 61, 43
2, 96924, Note_off_c, 0, 78, 64
2, 96975, Note_on_c, 0, 90, 56
2, 96984, Note_off_c, 0, 61, 64
2, 96986, Note_off_c, 0, 70, 64
2, 97000, Note_off_c, 0, 73, 64
2, 97009, Note_off_c, 0, 90, 64
2, 97044, Note_on_c, 0, 90, 56
2, 97078, Note_off_c, 0, 90, 64
2, 97095, Note_on_c, 0, 90, 56
2, 97164, Note_off_c, 0, 90, 64
2, 97165, Note_on_c, 0, 80, 56
2, 97181, Note_off_c, 0, 80, 64
2, 97232, Note_on_c, 0, 92, 56
2, 97283, Note_off_c, 0, 92, 64
2, 97301, Note_on_c, 0, 92, 56
2, 97349, Note_off_c, 0, 92, 64
2, 97369, Note_on_c, 0, 92, 56
2, 97438, Note_off_c, 0, 92, 64
2, 97440, Note_on_c, 0, 71, 65
2, 97440, Note_on_c, 0, 85, 56
2, 97446, Note_on_c, 0, 65, 56
2, 97456, Note_off_c, 0, 85, 64
2, 97521, Note_off_c, 0, 65, 64
2, 97524, Note_on_c, 0, 92, 56
2, 97524, Note_on_c, 0, 97, 60
2, 97544, Note_off_c, 0, 71, 64
2, 97568, Note_off_c, 0, 92, 64
2, 97575, Note_off_c, 0, 97, 64
2, 97610, Note_on_c, 0, 92, 60
2, 97610, Note_on_c, 0, 97, 65
2, 97667, Note_off_c, 0, 97, 64
2, 97669, Note_off_c, 0, 92, 64
2, 97695, Note_on_c, 0, 97, 70
2, 97696, Note_on_c, 0, 92, 66
2, 97697, Note_on_c, 0, 73, 68
2, 97704, Note_on_c, 0, 61, 54
2, 97705, Note_on_c, 0, 65, 57
2, 97748, Note_off_c, 0, 97, 64
2, 97753, Note_off_c, 0, 92, 64
2, 97781, Note_on_c, 0, 92, 73
2, 97781, Note_on_c, 0, 97, 75
2, 97788, Note_off_c, 0, 65, 64
2, 97793, Note_off_c, 0, 61, 64
2, 97795, Note_off_c, 0, 73, 64
2, 97836, Note_off_c, 0, 97, 64
2, 97840, Note_off_c, 0, 92, 64
2, 97867, Note_on_c, 0, 92, 74
2, 97867, Note_on_c, 0, 97, 80
2, 97930, Control_c, 0, 64, 0
2, 97934, Note_off_c, 0, 97, 64
2, 97944, Note_off_c, 0, 92, 64
2, 97955, Note_on_c, 0, 66, 56
2, 97955, Note_on_c, 0, 97, 44
2, 97955, Note_on_c, 0, 94, 44
2, 98021, Note_off_c, 0, 97, 64
2, 98022, Note_on_c, 0, 99, 44
2, 98068, Control_c, 0, 64, 127
2, 98089, Note_off_c, 0, 99, 64
2, 98092, Note_on_c, 0, 97, 45
2, 98092, Note_on_c, 0, 93, 45
2, 98117, Note_off_c, 0, 94, 64
2, 98140, Note_off_c, 0, 97, 64
2, 98158, Note_on_c, 0, 99, 46
2, 98192, Note_off_c, 0, 93, 64
2, 98201, Note_off_c, 0, 66, 64
2, 98227, Note_off_c, 0, 99, 64
2, 98230, Note_on_c, 0, 92, 47
2, 98230, Note_on_c, 0, 97, 47
2, 98236, Note_on_c, 0, 82, 54
2, 98236, Note_on_c, 0, 78, 53
2, 98291, Note_off_c, 0, 82, 64
2, 98294, Note_off_c, 0, 78, 64
2, 98295, Note_off_c, 0, 92, 64
2, 98298, Note_on_c, 0, 99, 48
2, 98299, Note_off_c, 0, 97, 64
2, 98363, Note_off_c, 0, 99, 64
2, 98364, Note_on_c, 0, 97, 49
2, 98366, Note_on_c, 0, 91, 49
2, 98372, Note_on_c, 0, 83, 59
2, 98374, Note_on_c, 0, 80, 57
2, 98426, Note_off_c, 0, 83, 64
2, 98431, Note_off_c, 0, 80, 64
2, 98432, Note_off_c, 0, 91, 64
2, 98435, Note_off_c, 0, 97, 64
2, 98435, Note_on_c, 0, 99, 50
2, 98501, Note_off_c, 0, 99, 64
2, 98503, Note_on_c, 0, 90, 51
2, 98503, Note_on_c, 0, 97, 51
2, 98509, Note_on_c, 0, 82, 62
2, 98509, Note_on_c, 0, 85, 65
2, 98552, Note_on_c, 0, 99, 52
2, 98556, Note_off_c, 0, 97, 64
2, 98610, Note_off_c, 0, 85, 64
2, 98616, Note_off_c, 0, 82, 64
2, 98621, Note_off_c, 0, 99, 64
2, 98623, Note_off_c, 0, 90, 64
2, 98625, Note_on_c, 0, 97, 53
2, 98689, Note_off_c, 0, 97, 64
2, 98690, Note_on_c, 0, 99, 54
2, 98753, Note_on_c, 0, 92, 56
2, 98757, Note_off_c, 0, 99, 64
2, 98759, Note_on_c, 0, 95, 56
2, 98759, Note_on_c, 0, 59, 56
2, 98760, Control_c, 0, 64, 0
2, 98826, Note_off_c, 0, 95, 64
2, 98827, Note_on_c, 0, 97, 56
2, 98877, Note_off_c, 0, 97, 64
2, 98880, Note_on_c, 0, 95, 55
2, 98880, Note_on_c, 0, 91, 55
2, 98897, Note_off_c, 0, 92, 64
2, 98898, Control_c, 0, 64, 127
2, 98930, Note_off_c, 0, 95, 64
2, 98946, Note_on_c, 0, 97, 54
2, 98980, Note_off_c, 0, 91, 64
2, 99012, Note_on_c, 0, 95, 53
2, 99014, Note_off_c, 0, 97, 64
2, 99014, Note_off_c, 0, 59, 64
2, 99018, Note_on_c, 0, 80, 60
2, 99018, Note_on_c, 0, 90, 53
2, 99024, Note_on_c, 0, 71, 50
2, 99083, Note_off_c, 0, 90, 64
2, 99084, Note_off_c, 0, 71, 64
2, 99084, Note_off_c, 0, 80, 64
2, 99086, Note_on_c, 0, 97, 52
2, 99090, Note_off_c, 0, 95, 64
2, 99152, Note_off_c, 0, 97, 64
2, 99154, Note_on_c, 0, 82, 65
2, 99154, Note_on_c, 0, 89, 50
2, 99154, Note_on_c, 0, 95, 50
2, 99160, Note_on_c, 0, 73, 55
2, 99217, Note_off_c, 0, 73, 64
2, 99220, Note_off_c, 0, 82, 64
2, 99221, Note_off_c, 0, 89, 64
2, 99223, Note_off_c, 0, 95, 64
2, 99223, Note_on_c, 0, 97, 49
2, 99272, Note_off_c, 0, 97, 64
2, 99274, Note_on_c, 0, 83, 68
2, 99274, Note_on_c, 0, 87, 48
2, 99274, Note_on_c, 0, 95, 48
2, 99280, Note_on_c, 0, 75, 57
2, 99340, Note_on_c, 0, 97, 47
2, 99363, Note_off_c, 0, 95, 64
2, 99385, Note_off_c, 0, 75, 64
2, 99409, Note_off_c, 0, 97, 64
2, 99409, Note_off_c, 0, 83, 64
2, 99410, Note_off_c, 0, 87, 64
2, 99412, Note_on_c, 0, 95, 46
2, 99477, Note_off_c, 0, 95, 64
2, 99479, Note_on_c, 0, 97, 44
2, 99540, Control_c, 0, 64, 0
2, 99542, Note_on_c, 0, 90, 44
2, 99546, Note_off_c, 0, 97, 64
2, 99548, Note_on_c, 0, 94, 44
2, 99548, Note_on_c, 0, 61, 56
2, 99598, Note_off_c, 0, 94, 64
2, 99599, Note_on_c, 0, 95, 45
2, 99666, Note_off_c, 0, 95, 64
2, 99668, Note_on_c, 0, 94, 46
2, 99668, Note_on_c, 0, 89, 46
2, 99678, Control_c, 0, 64, 127
2, 99697, Note_off_c, 0, 90, 64
2, 99734, Note_off_c, 0, 94, 64
2, 99736, Note_on_c, 0, 95, 47
2, 99803, Note_off_c, 0, 95, 64
2, 99804, Note_off_c, 0, 89, 64
2, 99805, Note_off_c, 0, 61, 64
2, 99807, Note_on_c, 0, 78, 60
2, 99807, Note_on_c, 0, 87, 48
2, 99807, Note_on_c, 0, 94, 48
2, 99813, Note_on_c, 0, 70, 49
2, 99868, Note_off_c, 0, 70, 64
2, 99870, Note_off_c, 0, 94, 64
2, 99872, Note_off_c, 0, 78, 64
2, 99872, Note_off_c, 0, 87, 64
2, 99875, Note_on_c, 0, 95, 49
2, 99940, Note_off_c, 0, 95, 64
2, 99941, Note_on_c, 0, 94, 50
2, 99943, Note_on_c, 0, 86, 50
2, 99943, Note_on_c, 0, 80, 65
2, 99951, Note_on_c, 0, 71, 56
2, 99992, Note_off_c, 0, 86, 64
2, 99992, Note_off_c, 0, 71, 64
2, 99993, Note_off_c, 0, 80, 64
2, 99995, Note_on_c, 0, 95, 51
2, 100010, Note_off_c, 0, 94, 64
2, 100060, Note_off_c, 0, 95, 64
2, 100061, Note_on_c, 0, 94, 52
2, 100063, Note_on_c, 0, 85, 52
2, 100063, Note_on_c, 0, 82, 68
2, 100071, Note_on_c, 0, 73, 59
2, 100129, Note_on_c, 0, 95, 53
2, 100130, Note_off_c, 0, 94, 64
2, 100185, Note_off_c, 0, 73, 64
2, 100198, Note_off_c, 0, 95, 64
2, 100199, Note_off_c, 0, 82, 64
2, 100199, Note_off_c, 0, 85, 64
2, 100202, Note_on_c, 0, 94, 54
2, 100266, Note_off_c, 0, 94, 64
2, 100267, Note_on_c, 0, 95, 56
2, 100274, Control_c, 0, 64, 0
2, 100313, Note_on_c, 0, 89, 56
2, 100317, Note_off_c, 0, 95, 64
2, 100319, Note_on_c, 0, 92, 56
2, 100319, Note_on_c, 0, 61, 56
2, 100386, Note_off_c, 0, 92, 64
2, 100387, Note_on_c, 0, 94, 55
2, 100412, Control_c, 0, 64, 127
2, 100454, Note_off_c, 0, 94, 64
2, 100457, Note_on_c, 0, 92, 54
2, 100457, Note_on_c, 0, 87, 54
2, 100470, Note_off_c, 0, 89, 64
2, 100524, Note_off_c, 0, 92, 64
2, 100524, Note_on_c, 0, 94, 53
2, 100591, Note_off_c, 0, 94, 64
2, 100592, Note_off_c, 0, 61, 64
2, 100593, Note_off_c, 0, 87, 64
2, 100594, Note_on_c, 0, 92, 52
2, 100596, Note_on_c, 0, 86, 52
2, 100596, Note_on_c, 0, 77, 60
2, 100603, Note_on_c, 0, 68, 50
2, 100626, Note_off_c, 0, 92, 64
2, 100658, Note_off_c, 0, 68, 64
2, 100660, Note_off_c, 0, 86, 64
2, 100661, Note_off_c, 0, 77, 64
2, 100663, Note_on_c, 0, 94, 51
2, 100712, Note_off_c, 0, 94, 64
2, 100714, Note_on_c, 0, 92, 50
2, 100714, Note_on_c, 0, 78, 65
2, 100714, Note_on_c, 0, 85, 50
2, 100720, Note_on_c, 0, 70, 54
2, 100747, Note_off_c, 0, 92, 64
2, 100773, Note_off_c, 0, 70, 64
2, 100781, Note_off_c, 0, 85, 64
2, 100781, Note_off_c, 0, 78, 64
2, 100783, Note_on_c, 0, 94, 49
2, 100849, Note_off_c, 0, 94, 64
2, 100851, Note_on_c, 0, 92, 48
2, 100851, Note_on_c, 0, 80, 68
2, 100851, Note_on_c, 0, 83, 48
2, 100852, Control_c, 0, 64, 0
2, 100857, Note_on_c, 0, 71, 59
2, 100889, Note_off_c, 0, 92, 64
2, 100917, Note_on_c, 0, 87, 47
2, 100968, Note_off_c, 0, 71, 64
2, 100986, Note_off_c, 0, 80, 64
2, 100988, Note_off_c, 0, 83, 64
2, 100989, Note_on_c, 0, 88, 46
2, 100993, Note_off_c, 0, 87, 64
2, 101038, Note_on_c, 0, 89, 44
2, 101047, Note_off_c, 0, 88, 64
2, 101108, Note_on_c, 0, 90, 44
2, 101108, Note_on_c, 0, 73, 56
2, 101108, Note_on_c, 0, 82, 56
2, 101114, Note_on_c, 0, 66, 46
2, 101117, Note_off_c, 0, 89, 64
2, 101158, Note_off_c, 0, 90, 64
2, 101170, Note_off_c, 0, 66, 64
2, 101174, Note_off_c, 0, 82, 64
2, 101175, Note_off_c, 0, 73, 64
2, 101177, Note_on_c, 0, 92, 44
2, 101243, Note_off_c, 0, 92, 64
2, 101244, Note_on_c, 0, 90, 45
2, 101311, Note_off_c, 0, 90, 64
2, 101313, Note_on_c, 0, 92, 47
2, 101380, Note_off_c, 0, 92, 64
2, 101381, Note_on_c, 0, 90, 48
2, 101431, Note_off_c, 0, 90, 64
2, 101433, Note_on_c, 0, 78, 50
2, 101483, Note_off_c, 0, 78, 64
2, 101500, Note_on_c, 0, 90, 51
2, 101569, Note_off_c, 0, 90, 64
2, 101570, Note_on_c, 0, 92, 53
2, 101637, Note_off_c, 0, 92, 64
2, 101638, Note_on_c, 0, 90, 54
2, 101706, Note_off_c, 0, 90, 64
2, 101707, Note_on_c, 0, 79, 56
2, 101740, Note_off_c, 0, 79, 64
2, 101757, Note_on_c, 0, 91, 57
2, 101826, Note_off_c, 0, 91, 64
2, 101827, Note_on_c, 0, 92, 59
2, 101894, Note_off_c, 0, 92, 64
2, 101895, Note_on_c, 0, 91, 60
2, 101963, Note_off_c, 0, 91, 64
2, 101964, Note_on_c, 0, 80, 62
2, 102014, Note_off_c, 0, 80, 64
2, 102031, Note_on_c, 0, 92, 63
2, 102100, Note_off_c, 0, 92, 64
2, 102101, Note_on_c, 0, 93, 65
2, 102151, Note_off_c, 0, 93, 64
2, 102152, Note_on_c, 0, 92, 66
2, 102219, Note_off_c, 0, 92, 64
2, 102222, Note_on_c, 0, 93, 68
2, 102222, Note_on_c, 0, 64, 44
2, 102289, Note_off_c, 0, 93, 64
2, 102290, Note_on_c, 0, 92, 68
2, 102290, Note_on_c, 0, 80, 44
2, 102339, Note_off_c, 0, 64, 64
2, 102341, Note_off_c, 0, 80, 64
2, 102357, Note_off_c, 0, 92, 64
2, 102358, Note_on_c, 0, 93, 68
2, 102425, Note_off_c, 0, 93, 64
2, 102427, Note_on_c, 0, 92, 68
2, 102477, Note_off_c, 0, 92, 64
2, 102478, Note_on_c, 0, 93, 68
2, 102478, Note_on_c, 0, 63, 52
2, 102546, Note_off_c, 0, 93, 64
2, 102547, Note_on_c, 0, 92, 68
2, 102547, Note_on_c, 0, 78, 56
2, 102595, Note_off_c, 0, 63, 64
2, 102598, Note_off_c, 0, 78, 64
2, 102614, Note_off_c, 0, 92, 64
2, 102615, Note_on_c, 0, 93, 68
2, 102683, Note_off_c, 0, 93, 64
2, 102683, Note_on_c, 0, 92, 68
2, 102730, Note_off_c, 0, 92, 64
2, 102753, Note_on_c, 0, 92, 44
2, 102753, Note_on_c, 0, 61, 44
2, 102753, Note_on_c, 0, 76, 44
2, 102803, Note_off_c, 0, 92, 64
2, 102803, Note_off_c, 0, 61, 64
2, 102804, Note_off_c, 0, 76, 64
2, 102805, Note_on_c, 0, 93, 44
2, 102871, Note_off_c, 0, 93, 64
2, 102872, Note_on_c, 0, 92, 48
2, 102939, Note_off_c, 0, 92, 64
2, 102941, Note_on_c, 0, 93, 52
2, 103004, Note_on_c, 0, 102, 66
2, 103008, Note_off_c, 0, 93, 64
2, 103010, Note_on_c, 0, 87, 44
2, 103010, Note_on_c, 0, 92, 56
2, 103077, Note_off_c, 0, 92, 64
2, 103078, Note_on_c, 0, 93, 56
2, 103084, Note_off_c, 0, 102, 64
2, 103146, Note_off_c, 0, 93, 64
2, 103146, Note_off_c, 0, 87, 64
2, 103147, Note_on_c, 0, 92, 55
2, 103196, Note_off_c, 0, 92, 64
2, 103197, Note_on_c, 0, 93, 54
2, 103261, Note_on_c, 0, 100, 70
2, 103264, Note_off_c, 0, 93, 64
2, 103267, Note_on_c, 0, 85, 42
2, 103267, Note_on_c, 0, 92, 53
2, 103323, Note_off_c, 0, 92, 64
2, 103335, Note_on_c, 0, 93, 52
2, 103343, Note_off_c, 0, 100, 64
2, 103402, Note_off_c, 0, 85, 64
2, 103403, Note_off_c, 0, 93, 64
2, 103404, Note_on_c, 0, 92, 50
2, 103471, Note_off_c, 0, 92, 64
2, 103471, Note_on_c, 0, 93, 49
2, 103519, Note_on_c, 0, 99, 64
2, 103522, Note_off_c, 0, 93, 64
2, 103525, Note_on_c, 0, 84, 36
2, 103525, Note_on_c, 0, 68, 48
2, 103525, Note_on_c, 0, 92, 48
2, 103577, Note_off_c, 0, 92, 64
2, 103592, Note_on_c, 0, 93, 47
2, 103602, Note_off_c, 0, 99, 64
2, 103660, Note_off_c, 0, 93, 64
2, 103660, Note_off_c, 0, 68, 64
2, 103660, Note_off_c, 0, 84, 64
2, 103662, Note_on_c, 0, 92, 45
2, 103728, Note_off_c, 0, 92, 64
2, 103729, Note_on_c, 0, 93, 44
2, 103793, Note_on_c, 0, 97, 60
2, 103796, Note_off_c, 0, 93, 64
2, 103799, Note_on_c, 0, 82, 31
2, 103799, Note_on_c, 0, 92, 44
2, 103864, Note_off_c, 0, 92, 64
2, 103866, Note_on_c, 0, 93, 44
2, 103871, Note_off_c, 0, 97, 64
2, 103916, Note_off_c, 0, 93, 64
2, 103917, Note_off_c, 0, 82, 64
2, 103919, Note_on_c, 0, 92, 45
2, 103985, Note_off_c, 0, 92, 64
2, 103986, Note_on_c, 0, 93, 47
2, 104050, Note_on_c, 0, 99, 64
2, 104053, Note_off_c, 0, 93, 64
2, 104056, Note_on_c, 0, 84, 34
2, 104056, Note_on_c, 0, 92, 49
2, 104110, Note_off_c, 0, 92, 64
2, 104123, Note_on_c, 0, 93, 50
2, 104135, Note_off_c, 0, 99, 64
2, 104191, Note_off_c, 0, 93, 64
2, 104191, Note_off_c, 0, 84, 64
2, 104193, Note_on_c, 0, 92, 52
2, 104242, Note_off_c, 0, 92, 64
2, 104243, Note_on_c, 0, 93, 54
2, 104306, Note_on_c, 0, 100, 74
2, 104310, Note_off_c, 0, 93, 64
2, 104313, Note_on_c, 0, 92, 56
2, 104313, Note_on_c, 0, 85, 44
2, 104315, Note_on_c, 0, 73, 56
2, 104370, Note_off_c, 0, 92, 64
2, 104380, Note_on_c, 0, 93, 56
2, 104384, Note_off_c, 0, 100, 64
2, 104447, Note_off_c, 0, 93, 64
2, 104449, Note_off_c, 0, 85, 64
2, 104449, Note_off_c, 0, 73, 64
2, 104451, Note_on_c, 0, 92, 55
2, 104517, Note_off_c, 0, 92, 64
2, 104518, Note_on_c, 0, 93, 54
2, 104581, Note_on_c, 0, 97, 58
2, 104585, Note_off_c, 0, 93, 64
2, 104587, Note_on_c, 0, 88, 44
2, 104587, Note_on_c, 0, 92, 52
2, 104635, Note_off_c, 0, 88, 64
2, 104637, Note_off_c, 0, 92, 64
2, 104734, Note_off_c, 0, 97, 64
2, 104842, Note_on_c, 0, 79, 71
2, 104911, Note_off_c, 0, 79, 64
2, 104911, Note_on_c, 0, 91, 46
2, 104961, Note_off_c, 0, 91, 64
2, 104963, Note_on_c, 0, 93, 46
2, 105030, Note_off_c, 0, 93, 64
2, 105032, Note_on_c, 0, 91, 46
2, 105099, Note_off_c, 0, 91, 64
2, 105100, Note_on_c, 0, 78, 68
2, 105167, Note_off_c, 0, 78, 64
2, 105168, Note_on_c, 0, 90, 44
2, 105236, Note_off_c, 0, 90, 64
2, 105237, Note_on_c, 0, 92, 45
2, 105304, Note_off_c, 0, 92, 64
2, 105306, Note_on_c, 0, 90, 46
2, 105356, Note_off_c, 0, 90, 64
2, 105358, Note_on_c, 0, 92, 47
2, 105358, Note_on_c, 0, 78, 46
2, 105364, Note_on_c, 0, 63, 51
2, 105418, Note_off_c, 0, 63, 64
2, 105425, Note_off_c, 0, 92, 64
2, 105426, Note_off_c, 0, 78, 64
2, 105428, Note_on_c, 0, 90, 48
2, 105494, Note_off_c, 0, 90, 64
2, 105494, Note_on_c, 0, 92, 50
2, 105561, Note_off_c, 0, 92, 64
2, 105563, Note_on_c, 0, 90, 51
2, 105630, Note_off_c, 0, 90, 64
2, 105632, Note_on_c, 0, 92, 52
2, 105632, Note_on_c, 0, 76, 56
2, 105638, Note_on_c, 0, 61, 64
2, 105678, Note_off_c, 0, 61, 64
2, 105682, Note_off_c, 0, 92, 64
2, 105682, Note_off_c, 0, 76, 64
2, 105684, Note_on_c, 0, 90, 53
2, 105750, Note_off_c, 0, 90, 64
2, 105751, Note_on_c, 0, 92, 54
2, 105819, Note_off_c, 0, 92, 64
2, 105820, Note_on_c, 0, 90, 56
2, 105867, Note_off_c, 0, 90, 64
2, 105889, Note_on_c, 0, 90, 56
2, 105889, Note_on_c, 0, 75, 44
2, 105895, Note_on_c, 0, 59, 51
2, 105957, Note_off_c, 0, 90, 64
2, 105957, Note_on_c, 0, 92, 56
2, 106024, Note_off_c, 0, 92, 64
2, 106025, Note_on_c, 0, 90, 56
2, 106076, Note_off_c, 0, 90, 64
2, 106077, Note_on_c, 0, 92, 56
2, 106092, Note_off_c, 0, 59, 64
2, 106143, Note_on_c, 0, 85, 56
2, 106145, Note_off_c, 0, 92, 64
2, 106145, Note_off_c, 0, 75, 64
2, 106149, Note_on_c, 0, 100, 73
2, 106149, Note_on_c, 0, 90, 56
2, 106214, Note_off_c, 0, 90, 64
2, 106214, Note_on_c, 0, 92, 56
2, 106228, Note_off_c, 0, 100, 64
2, 106281, Note_off_c, 0, 92, 64
2, 106283, Note_on_c, 0, 90, 55
2, 106350, Note_off_c, 0, 90, 64
2, 106351, Note_on_c, 0, 92, 54
2, 106399, Note_on_c, 0, 83, 55
2, 106401, Note_off_c, 0, 92, 64
2, 106405, Note_on_c, 0, 99, 69
2, 106405, Note_on_c, 0, 90, 53
2, 106439, Note_off_c, 0, 85, 64
2, 106471, Note_on_c, 0, 92, 52
2, 106480, Note_off_c, 0, 90, 64
2, 106487, Note_off_c, 0, 99, 64
2, 106539, Note_off_c, 0, 92, 64
2, 106540, Note_on_c, 0, 90, 51
2, 106607, Note_off_c, 0, 90, 64
2, 106608, Note_on_c, 0, 92, 50
2, 106673, Note_on_c, 0, 90, 49
2, 106673, Note_on_c, 0, 82, 49
2, 106674, Note_off_c, 0, 83, 64
2, 106676, Note_off_c, 0, 92, 64
2, 106677, Note_on_c, 0, 97, 63
2, 106686, Note_on_c, 0, 66, 55
2, 106728, Note_on_c, 0, 92, 48
2, 106733, Note_off_c, 0, 97, 64
2, 106741, Note_off_c, 0, 90, 64
2, 106795, Note_off_c, 0, 92, 64
2, 106797, Note_on_c, 0, 90, 47
2, 106864, Note_off_c, 0, 90, 64
2, 106865, Note_on_c, 0, 92, 46
2, 106899, Note_off_c, 0, 66, 64
2, 106931, Note_on_c, 0, 80, 44
2, 106933, Note_off_c, 0, 92, 64
2, 106937, Note_on_c, 0, 95, 60
2, 106937, Note_on_c, 0, 90, 44
2, 106972, Note_off_c, 0, 82, 64
2, 107000, Note_off_c, 0, 90, 64
2, 107003, Note_on_c, 0, 92, 44
2, 107011, Note_off_c, 0, 95, 64
2, 107070, Note_off_c, 0, 92, 64
2, 107071, Note_on_c, 0, 90, 45
2, 107121, Note_off_c, 0, 90, 64
2, 107123, Note_on_c, 0, 92, 47
2, 107187, Note_on_c, 0, 82, 48
2, 107190, Note_off_c, 0, 92, 64
2, 107193, Note_on_c, 0, 97, 65
2, 107193, Note_on_c, 0, 90, 49
2, 107198, Note_off_c, 0, 80, 64
2, 107254, Note_off_c, 0, 90, 64
2, 107260, Note_on_c, 0, 92, 50
2, 107267, Note_off_c, 0, 97, 64
2, 107327, Note_off_c, 0, 92, 64
2, 107328, Note_on_c, 0, 90, 52
2, 107395, Note_off_c, 0, 90, 64
2, 107397, Note_on_c, 0, 92, 54
2, 107445, Note_on_c, 0, 83, 56
2, 107447, Note_off_c, 0, 92, 64
2, 107451, Note_on_c, 0, 99, 70
2, 107451, Note_on_c, 0, 90, 56
2, 107457, Note_on_c, 0, 71, 63
2, 107458, Note_off_c, 0, 82, 64
2, 107507, Note_off_c, 0, 90, 64
2, 107517, Note_on_c, 0, 92, 56
2, 107537, Note_off_c, 0, 99, 64
2, 107585, Note_off_c, 0, 92, 64
2, 107585, Note_on_c, 0, 90, 52
2, 107652, Note_off_c, 0, 90, 64
2, 107654, Note_on_c, 0, 92, 48
2, 107660, Note_off_c, 0, 71, 64
2, 107719, Note_on_c, 0, 95, 50
2, 107721, Note_off_c, 0, 92, 64
2, 107725, Note_on_c, 0, 87, 44
2, 107725, Note_on_c, 0, 90, 44
2, 107737, Note_off_c, 0, 83, 64
2, 107756, Note_off_c, 0, 90, 64
2, 107840, Note_off_c, 0, 87, 64
2, 107944, Note_off_c, 0, 95, 64
2, 107978, Note_on_c, 0, 74, 68
2, 108047, Note_off_c, 0, 74, 64
2, 108048, Note_on_c, 0, 86, 56
2, 108116, Note_off_c, 0, 86, 64
2, 108117, Note_on_c, 0, 87, 62
2, 108167, Note_off_c, 0, 87, 64
2, 108168, Note_on_c, 0, 86, 68
2, 108235, Note_off_c, 0, 86, 64
2, 108236, Note_on_c, 0, 75, 92
2, 108303, Note_off_c, 0, 75, 64
2, 108305, Note_on_c, 0, 87, 68
2, 108372, Note_off_c, 0, 87, 64
2, 108374, Note_on_c, 0, 88, 66
2, 108441, Note_off_c, 0, 88, 64
2, 108442, Note_on_c, 0, 87, 64
2, 108510, Note_off_c, 0, 87, 64
2, 108512, Note_on_c, 0, 88, 61
2, 108512, Note_on_c, 0, 75, 56
2, 108518, Note_on_c, 0, 63, 43
2, 108519, Note_on_c, 0, 67, 48
2, 108562, Note_off_c, 0, 88, 64
2, 108562, Note_on_c, 0, 87, 59
2, 108612, Note_off_c, 0, 67, 64
2, 108612, Note_off_c, 0, 63, 64
2, 108630, Note_off_c, 0, 87, 64
2, 108631, Note_off_c, 0, 75, 64
2, 108633, Note_on_c, 0, 88, 56
2, 108698, Note_off_c, 0, 88, 64
2, 108700, Note_on_c, 0, 87, 54
2, 108767, Note_off_c, 0, 87, 64
2, 108769, Note_on_c, 0, 88, 52
2, 108769, Note_on_c, 0, 74, 44
2, 108775, Note_on_c, 0, 68, 37
2, 108776, Note_on_c, 0, 65, 31
2, 108836, Note_off_c, 0, 88, 64
2, 108837, Note_on_c, 0, 87, 49
2, 108865, Note_off_c, 0, 68, 64
2, 108871, Note_off_c, 0, 65, 64
2, 108887, Note_off_c, 0, 87, 64
2, 108888, Note_off_c, 0, 74, 64
2, 108890, Note_on_c, 0, 88, 47
2, 108955, Note_off_c, 0, 88, 64
2, 108956, Note_on_c, 0, 87, 44
2, 109023, Note_off_c, 0, 87, 64
2, 109026, Note_on_c, 0, 88, 44
2, 109026, Note_on_c, 0, 73, 44
2, 109032, Note_on_c, 0, 70, 36
2, 109033, Note_on_c, 0, 67, 29
2, 109093, Note_off_c, 0, 88, 64
2, 109093, Note_on_c, 0, 87, 47
2, 109143, Note_off_c, 0, 67, 64
2, 109147, Note_off_c, 0, 70, 64
2, 109160, Note_off_c, 0, 87, 64
2, 109161, Note_off_c, 0, 73, 64
2, 109164, Note_on_c, 0, 86, 50
2, 109231, Note_on_c, 0, 87, 53
2, 109246, Note_off_c, 0, 86, 64
2, 109282, Note_on_c, 0, 88, 56
2, 109293, Note_off_c, 0, 87, 64
2, 109351, Note_on_c, 0, 89, 60
2, 109369, Note_off_c, 0, 88, 64
2, 109419, Note_on_c, 0, 90, 63
2, 109442, Note_off_c, 0, 89, 64
2, 109488, Note_on_c, 0, 91, 66
2, 109508, Note_off_c, 0, 90, 64
2, 109556, Note_on_c, 0, 92, 69
2, 109570, Note_off_c, 0, 91, 64
2, 109608, Note_on_c, 0, 93, 72
2, 109626, Note_off_c, 0, 92, 64
2, 109677, Note_on_c, 0, 94, 76
2, 109697, Note_off_c, 0, 93, 64
2, 109745, Note_on_c, 0, 95, 79
2, 109767, Note_off_c, 0, 94, 64
2, 109813, Note_on_c, 0, 96, 82
2, 109825, Note_off_c, 0, 95, 64
2, 109882, Note_on_c, 0, 97, 85
2, 109909, Note_off_c, 0, 96, 64
2, 109951, Note_on_c, 0, 98, 88
2, 109960, Note_off_c, 0, 97, 64
2, 110002, Note_on_c, 0, 99, 92
2, 110014, Note_off_c, 0, 98, 64
2, 110041, Control_c, 0, 64, 127
2, 110072, Note_on_c, 0, 76, 68
2, 110072, Note_on_c, 0, 100, 92
2, 110078, Note_on_c, 0, 68, 53
2, 110078, Note_on_c, 0, 71, 59
2, 110092, Note_off_c, 0, 99, 64
2, 110139, Note_on_c, 0, 102, 90
2, 110140, Note_off_c, 0, 100, 64
2, 110208, Note_on_c, 0, 100, 87
2, 110218, Note_off_c, 0, 102, 64
2, 110276, Note_on_c, 0, 99, 85
2, 110283, Note_off_c, 0, 71, 64
2, 110284, Note_off_c, 0, 100, 64
2, 110301, Note_off_c, 0, 68, 64
2, 110329, Note_off_c, 0, 76, 64
2, 110330, Note_on_c, 0, 98, 82
2, 110342, Note_off_c, 0, 99, 64
2, 110396, Note_on_c, 0, 97, 80
2, 110426, Note_off_c, 0, 98, 64
2, 110465, Note_on_c, 0, 96, 77
2, 110489, Note_off_c, 0, 97, 64
2, 110491, Control_c, 0, 64, 0
2, 110533, Note_on_c, 0, 95, 74
2, 110552, Note_off_c, 0, 96, 64
2, 110602, Note_on_c, 0, 94, 72
2, 110614, Note_off_c, 0, 95, 64
2, 110670, Note_on_c, 0, 93, 69
2, 110692, Note_off_c, 0, 94, 64
2, 110721, Note_on_c, 0, 92, 67
2, 110732, Note_off_c, 0, 93, 64
2, 110790, Note_on_c, 0, 91, 64
2, 110806, Note_off_c, 0, 92, 64
2, 110859, Note_on_c, 0, 90, 62
2, 110878, Note_off_c, 0, 91, 64
2, 110927, Note_on_c, 0, 89, 59
2, 110952, Note_off_c, 0, 90, 64
2, 110995, Note_on_c, 0, 88, 56
2, 111001, Control_c, 0, 64, 127
2, 111013, Note_off_c, 0, 89, 64
2, 111048, Note_on_c, 0, 87, 56
2, 111048, Note_on_c, 0, 63, 53
2, 111065, Note_off_c, 0, 88, 64
2, 111115, Note_on_c, 0, 70, 60
2, 111183, Note_on_c, 0, 79, 67
2, 111287, Note_off_c, 0, 63, 64
2, 111287, Note_off_c, 0, 87, 64
2, 111288, Note_off_c, 0, 70, 64
2, 111289, Note_off_c, 0, 79, 64
2, 111320, Note_on_c, 0, 70, 44
2, 111371, Note_off_c, 0, 70, 64
2, 111373, Note_on_c, 0, 82, 44
2, 111441, Note_on_c, 0, 83, 48
2, 111451, Control_c, 0, 64, 0
2, 111457, Note_off_c, 0, 82, 64
2, 111510, Note_on_c, 0, 82, 52
2, 111521, Note_off_c, 0, 83, 64
2, 111577, Note_off_c, 0, 82, 64
2, 111579, Note_on_c, 0, 74, 56
2, 111646, Note_off_c, 0, 74, 64
2, 111647, Note_on_c, 0, 86, 56
2, 111716, Note_on_c, 0, 87, 60
2, 111731, Note_off_c, 0, 86, 64
2, 111767, Note_on_c, 0, 86, 64
2, 111773, Note_off_c, 0, 87, 64
2, 111834, Note_off_c, 0, 86, 64
2, 111836, Note_on_c, 0, 75, 68
2, 111904, Note_off_c, 0, 75, 64
2, 111904, Note_on_c, 0, 87, 68
2, 111971, Note_off_c, 0, 87, 64
2, 111973, Note_on_c, 0, 88, 67
2, 112040, Note_off_c, 0, 88, 64
2, 112041, Note_on_c, 0, 87, 66
2, 112061, Control_c, 0, 64, 127
2, 112091, Note_off_c, 0, 87, 64
2, 112092, Note_on_c, 0, 88, 65
2, 112094, Note_on_c, 0, 75, 56
2, 112101, Note_on_c, 0, 63, 44
2, 112101, Note_on_c, 0, 67, 50
2, 112160, Note_off_c, 0, 88, 64
2, 112161, Note_on_c, 0, 87, 64
2, 112184, Note_off_c, 0, 67, 64
2, 112187, Note_off_c, 0, 63, 64
2, 112198, Note_off_c, 0, 75, 64
2, 112228, Note_off_c, 0, 87, 64
2, 112233, Note_on_c, 0, 88, 62
2, 112297, Note_off_c, 0, 88, 64
2, 112298, Note_on_c, 0, 87, 61
2, 112365, Note_off_c, 0, 87, 64
2, 112367, Note_on_c, 0, 74, 57
2, 112368, Note_on_c, 0, 88, 60
2, 112373, Note_on_c, 0, 65, 45
2, 112375, Note_on_c, 0, 68, 51
2, 112435, Note_off_c, 0, 88, 64
2, 112435, Note_on_c, 0, 87, 59
2, 112441, Note_off_c, 0, 65, 64
2, 112449, Note_off_c, 0, 68, 64
2, 112457, Note_off_c, 0, 74, 64
2, 112485, Note_off_c, 0, 87, 64
2, 112490, Note_on_c, 0, 88, 58
2, 112511, Control_c, 0, 64, 0
2, 112554, Note_off_c, 0, 88, 64
2, 112556, Note_on_c, 0, 87, 56
2, 112623, Note_off_c, 0, 87, 64
2, 112625, Note_on_c, 0, 73, 62
2, 112625, Note_on_c, 0, 88, 56
2, 112630, Note_on_c, 0, 67, 50
2, 112631, Note_on_c, 0, 70, 56
2, 112692, Note_off_c, 0, 88, 64
2, 112692, Note_on_c, 0, 87, 58
2, 112709, Note_off_c, 0, 70, 64
2, 112727, Note_off_c, 0, 67, 64
2, 112743, Note_off_c, 0, 73, 64
2, 112760, Note_off_c, 0, 87, 64
2, 112764, Note_on_c, 0, 86, 60
2, 112811, Note_off_c, 0, 86, 64
2, 112812, Note_on_c, 0, 87, 63
2, 112881, Note_on_c, 0, 88, 65
2, 112888, Note_off_c, 0, 87, 64
2, 112950, Note_on_c, 0, 89, 68
2, 112953, Note_off_c, 0, 88, 64
2, 113018, Note_on_c, 0, 90, 70
2, 113030, Note_off_c, 0, 89, 64
2, 113087, Note_on_c, 0, 91, 72
2, 113093, Note_off_c, 0, 90, 64
2, 113155, Note_on_c, 0, 92, 75
2, 113162, Note_off_c, 0, 91, 64
2, 113207, Note_on_c, 0, 93, 77
2, 113218, Note_off_c, 0, 92, 64
2, 113275, Note_on_c, 0, 94, 80
2, 113284, Note_off_c, 0, 93, 64
2, 113344, Note_on_c, 0, 95, 82
2, 113352, Note_off_c, 0, 94, 64
2, 113412, Note_on_c, 0, 96, 84
2, 113423, Note_off_c, 0, 95, 64
2, 113481, Note_on_c, 0, 97, 87
2, 113494, Note_off_c, 0, 96, 64
2, 113532, Note_on_c, 0, 98, 89
2, 113541, Control_c, 0, 64, 127
2, 113542, Note_off_c, 0, 97, 64
2, 113601, Note_on_c, 0, 99, 92
2, 113616, Note_off_c, 0, 98, 64
2, 113669, Note_on_c, 0, 76, 80
2, 113670, Note_on_c, 0, 100, 92
2, 113676, Note_on_c, 0, 71, 74
2, 113678, Note_on_c, 0, 68, 68
2, 113680, Note_off_c, 0, 99, 64
2, 113738, Note_on_c, 0, 102, 90
2, 113744, Note_off_c, 0, 100, 64
2, 113755, Note_off_c, 0, 68, 64
2, 113757, Note_off_c, 0, 71, 64
2, 113784, Note_off_c, 0, 76, 64
2, 113810, Note_on_c, 0, 100, 87
2, 113816, Note_off_c, 0, 102, 64
2, 113875, Note_on_c, 0, 99, 85
2, 113889, Note_off_c, 0, 100, 64
2, 113927, Note_on_c, 0, 98, 82
2, 113936, Note_off_c, 0, 99, 64
2, 113991, Control_c, 0, 64, 0
2, 113995, Note_on_c, 0, 97, 80
2, 114003, Note_off_c, 0, 98, 64
2, 114064, Note_on_c, 0, 96, 77
2, 114071, Note_off_c, 0, 97, 64
2, 114132, Note_on_c, 0, 95, 74
2, 114144, Note_off_c, 0, 96, 64
2, 114201, Note_on_c, 0, 94, 72
2, 114211, Note_off_c, 0, 95, 64
2, 114252, Note_on_c, 0, 93, 69
2, 114261, Note_off_c, 0, 94, 64
2, 114321, Note_on_c, 0, 92, 67
2, 114337, Note_off_c, 0, 93, 64
2, 114389, Note_on_c, 0, 91, 64
2, 114402, Note_off_c, 0, 92, 64
2, 114458, Note_on_c, 0, 90, 62
2, 114473, Note_off_c, 0, 91, 64
2, 114527, Note_on_c, 0, 89, 59
2, 114531, Note_off_c, 0, 90, 64
2, 114581, Control_c, 0, 64, 127
2, 114595, Note_on_c, 0, 88, 56
2, 114604, Note_off_c, 0, 89, 64
2, 114646, Note_on_c, 0, 87, 56
2, 114647, Note_on_c, 0, 79, 80
2, 114653, Note_off_c, 0, 88, 64
2, 114657, Note_on_c, 0, 70, 74
2, 114657, Note_on_c, 0, 63, 68
2, 114715, Note_on_c, 0, 88, 58
2, 114723, Note_off_c, 0, 87, 64
2, 114784, Note_on_c, 0, 87, 60
2, 114789, Note_off_c, 0, 88, 64
2, 114799, Note_off_c, 0, 63, 64
2, 114834, Note_off_c, 0, 70, 64
2, 114852, Note_on_c, 0, 86, 62
2, 114856, Note_off_c, 0, 79, 64
2, 114860, Note_off_c, 0, 87, 64
2, 114923, Note_on_c, 0, 87, 65
2, 114932, Note_off_c, 0, 86, 64
2, 114972, Note_on_c, 0, 88, 67
2, 114977, Note_off_c, 0, 87, 64
2, 115031, Control_c, 0, 64, 0
2, 115041, Note_on_c, 0, 89, 69
2, 115046, Note_off_c, 0, 88, 64
2, 115109, Note_on_c, 0, 90, 71
2, 115116, Note_off_c, 0, 89, 64
2, 115178, Note_on_c, 0, 91, 74
2, 115189, Note_off_c, 0, 90, 64
2, 115246, Note_on_c, 0, 92, 76
2, 115248, Note_off_c, 0, 91, 64
2, 115298, Note_on_c, 0, 93, 78
2, 115301, Note_off_c, 0, 92, 64
2, 115366, Note_on_c, 0, 94, 80
2, 115373, Note_off_c, 0, 93, 64
2, 115435, Note_on_c, 0, 95, 83
2, 115444, Note_off_c, 0, 94, 64
2, 115504, Note_on_c, 0, 96, 85
2, 115506, Note_off_c, 0, 95, 64
2, 115572, Note_on_c, 0, 97, 87
2, 115580, Note_off_c, 0, 96, 64
2, 115641, Note_on_c, 0, 98, 89
2, 115650, Note_off_c, 0, 97, 64
2, 115681, Control_c, 0, 64, 127
2, 115692, Note_on_c, 0, 99, 92
2, 115703, Note_off_c, 0, 98, 64
2, 115761, Note_on_c, 0, 100, 92
2, 115764, Note_on_c, 0, 71, 80
2, 115766, Note_on_c, 0, 56, 74
2, 115774, Note_off_c, 0, 99, 64
2, 115829, Note_on_c, 0, 102, 90
2, 115840, Note_off_c, 0, 100, 64
2, 115898, Note_on_c, 0, 100, 87
2, 115914, Note_off_c, 0, 102, 64
2, 115950, Note_off_c, 0, 56, 64
2, 115966, Note_on_c, 0, 99, 85
2, 115975, Note_off_c, 0, 71, 64
2, 115978, Note_off_c, 0, 100, 64
2, 116020, Note_on_c, 0, 98, 82
2, 116023, Note_off_c, 0, 99, 64
2, 116086, Note_on_c, 0, 97, 80
2, 116095, Note_off_c, 0, 98, 64
2, 116131, Control_c, 0, 64, 0
2, 116155, Note_on_c, 0, 96, 77
2, 116171, Note_off_c, 0, 97, 64
2, 116224, Note_on_c, 0, 95, 74
2, 116227, Note_off_c, 0, 96, 64
2, 116292, Note_on_c, 0, 94, 72
2, 116304, Note_off_c, 0, 95, 64
2, 116360, Note_on_c, 0, 93, 69
2, 116366, Note_off_c, 0, 94, 64
2, 116412, Note_on_c, 0, 92, 67
2, 116423, Note_off_c, 0, 93, 64
2, 116480, Note_on_c, 0, 91, 64
2, 116489, Note_off_c, 0, 92, 64
2, 116549, Note_on_c, 0, 90, 62
2, 116564, Note_off_c, 0, 91, 64
2, 116618, Note_on_c, 0, 89, 59
2, 116628, Note_off_c, 0, 90, 64
2, 116686, Note_on_c, 0, 88, 56
2, 116692, Note_off_c, 0, 89, 64
2, 116711, Control_c, 0, 64, 127
2, 116738, Note_on_c, 0, 87, 56
2, 116738, Note_on_c, 0, 67, 80
2, 116743, Note_off_c, 0, 88, 64
2, 116744, Note_on_c, 0, 51, 68
2, 116806, Note_on_c, 0, 88, 58
2, 116811, Note_off_c, 0, 87, 64
2, 116875, Note_on_c, 0, 87, 60
2, 116891, Note_off_c, 0, 88, 64
2, 116944, Note_on_c, 0, 86, 62
2, 116952, Note_off_c, 0, 87, 64
2, 116968, Note_off_c, 0, 51, 64
2, 117011, Note_off_c, 0, 67, 64
2, 117014, Note_on_c, 0, 87, 65
2, 117018, Note_off_c, 0, 86, 64
2, 117080, Note_on_c, 0, 88, 67
2, 117090, Note_off_c, 0, 87, 64
2, 117132, Note_on_c, 0, 89, 69
2, 117138, Note_off_c, 0, 88, 64
2, 117161, Control_c, 0, 64, 0
2, 117200, Note_on_c, 0, 90, 71
2, 117213, Note_off_c, 0, 89, 64
2, 117269, Note_on_c, 0, 91, 74
2, 117273, Note_off_c, 0, 90, 64
2, 117337, Note_on_c, 0, 92, 76
2, 117347, Note_off_c, 0, 91, 64
2, 117406, Note_on_c, 0, 93, 78
2, 117410, Note_off_c, 0, 92, 64
2, 117457, Note_on_c, 0, 94, 80
2, 117468, Note_off_c, 0, 93, 64
2, 117526, Note_on_c, 0, 95, 83
2, 117527, Note_off_c, 0, 94, 64
2, 117594, Note_on_c, 0, 96, 85
2, 117604, Note_off_c, 0, 95, 64
2, 117663, Note_on_c, 0, 97, 87
2, 117670, Note_off_c, 0, 96, 64
2, 117731, Note_on_c, 0, 98, 89
2, 117743, Note_off_c, 0, 97, 64
2, 117800, Note_on_c, 0, 99, 92
2, 117806, Note_off_c, 0, 98, 64
2, 117811, Control_c, 0, 64, 127
2, 117836, Note_off_c, 0, 99, 64
2, 117850, Note_on_c, 0, 99, 92
2, 117921, Note_on_c, 0, 100, 92
2, 117921, Note_on_c, 0, 59, 80
2, 117927, Note_on_c, 0, 44, 68
2, 117931, Note_off_c, 0, 99, 64
2, 117989, Note_on_c, 0, 101, 92
2, 117995, Note_off_c, 0, 100, 64
2, 118057, Note_on_c, 0, 100, 92
2, 118065, Note_off_c, 0, 101, 64
2, 118125, Note_on_c, 0, 99, 91
2, 118129, Note_off_c, 0, 44, 64
2, 118135, Note_off_c, 0, 100, 64
2, 118177, Note_off_c, 0, 59, 64
2, 118179, Note_on_c, 0, 98, 90
2, 118180, Note_off_c, 0, 99, 64
2, 118246, Note_on_c, 0, 99, 89
2, 118257, Note_off_c, 0, 98, 64
2, 118261, Control_c, 0, 64, 0
2, 118314, Note_on_c, 0, 98, 88
2, 118317, Note_off_c, 0, 99, 64
2, 118382, Note_on_c, 0, 97, 87
2, 118391, Note_off_c, 0, 98, 64
2, 118451, Note_on_c, 0, 96, 86
2, 118460, Note_off_c, 0, 97, 64
2, 118520, Note_on_c, 0, 97, 85
2, 118529, Note_off_c, 0, 96, 64
2, 118571, Note_on_c, 0, 96, 85
2, 118575, Note_off_c, 0, 97, 64
2, 118639, Note_on_c, 0, 95, 84
2, 118645, Note_off_c, 0, 96, 64
2, 118708, Note_on_c, 0, 94, 83
2, 118715, Note_off_c, 0, 95, 64
2, 118777, Note_on_c, 0, 95, 82
2, 118781, Note_off_c, 0, 94, 64
2, 118846, Note_on_c, 0, 94, 81
2, 118857, Note_off_c, 0, 95, 64
2, 118897, Note_on_c, 0, 93, 80
2, 118900, Note_off_c, 0, 94, 64
2, 118965, Note_on_c, 0, 92, 79
2, 118973, Note_off_c, 0, 93, 64
2, 119034, Note_on_c, 0, 93, 78
2, 119042, Note_off_c, 0, 92, 64
2, 119102, Note_on_c, 0, 92, 77
2, 119113, Note_off_c, 0, 93, 64
2, 119171, Note_on_c, 0, 91, 76
2, 119184, Note_off_c, 0, 92, 64
2, 119239, Note_on_c, 0, 90, 75
2, 119242, Note_off_c, 0, 91, 64
2, 119291, Note_on_c, 0, 91, 74
2, 119299, Note_off_c, 0, 90, 64
2, 119360, Note_on_c, 0, 90, 73
2, 119367, Note_off_c, 0, 91, 64
2, 119428, Note_on_c, 0, 89, 72
2, 119437, Note_off_c, 0, 90, 64
2, 119497, Note_on_c, 0, 88, 71
2, 119508, Note_off_c, 0, 89, 64
2, 119565, Note_on_c, 0, 90, 70
2, 119579, Note_off_c, 0, 88, 64
2, 119616, Note_on_c, 0, 88, 84
2, 119624, Note_off_c, 0, 90, 64
2, 119686, Note_on_c, 0, 87, 83
2, 119700, Note_off_c, 0, 88, 64
2, 119754, Note_on_c, 0, 86, 82
2, 119757, Note_off_c, 0, 87, 64
2, 119822, Note_on_c, 0, 87, 81
2, 119837, Note_off_c, 0, 86, 64
2, 119891, Note_on_c, 0, 86, 80
2, 119893, Note_off_c, 0, 87, 64
2, 119942, Note_on_c, 0, 85, 80
2, 119950, Note_off_c, 0, 86, 64
2, 120011, Note_on_c, 0, 84, 79
2, 120023, Note_off_c, 0, 85, 64
2, 120079, Note_on_c, 0, 85, 78
2, 120087, Note_off_c, 0, 84, 64
2, 120148, Note_on_c, 0, 84, 77
2, 120152, Note_off_c, 0, 85, 64
2, 120216, Note_on_c, 0, 83, 76
2, 120221, Note_off_c, 0, 84, 64
2, 120285, Note_on_c, 0, 82, 75
2, 120294, Note_off_c, 0, 83, 64
2, 120336, Note_on_c, 0, 83, 74
2, 120345, Note_off_c, 0, 82, 64
2, 120405, Note_on_c, 0, 82, 74
2, 120413, Note_off_c, 0, 83, 64
2, 120474, Note_on_c, 0, 81, 73
2, 120480, Note_off_c, 0, 82, 64
2, 120541, Note_off_c, 0, 81, 64
2, 120542, Note_on_c, 0, 80, 72
2, 120611, Note_on_c, 0, 82, 71
2, 120617, Note_off_c, 0, 80, 64
2, 120662, Note_on_c, 0, 80, 70
2, 120677, Note_off_c, 0, 82, 64
2, 120731, Note_on_c, 0, 79, 69
2, 120745, Note_off_c, 0, 80, 64
2, 120799, Note_on_c, 0, 78, 68
2, 120802, Note_off_c, 0, 79, 64
2, 120868, Note_on_c, 0, 79, 68
2, 120874, Note_off_c, 0, 78, 64
2, 120936, Note_on_c, 0, 78, 67
2, 120945, Note_off_c, 0, 79, 64
2, 121005, Note_on_c, 0, 77, 66
2, 121007, Note_off_c, 0, 78, 64
2, 121056, Note_on_c, 0, 76, 65
2, 121061, Note_off_c, 0, 77, 64
2, 121125, Note_on_c, 0, 78, 64
2, 121127, Note_off_c, 0, 76, 64
2, 121193, Note_on_c, 0, 76, 63
2, 121206, Note_off_c, 0, 78, 64
2, 121262, Note_on_c, 0, 75, 62
2, 121278, Note_off_c, 0, 76, 64
2, 121331, Note_on_c, 0, 74, 62
2, 121335, Note_off_c, 0, 75, 64
2, 121382, Note_on_c, 0, 75, 61
2, 121391, Note_off_c, 0, 74, 64
2, 121451, Note_on_c, 0, 74, 60
2, 121462, Note_off_c, 0, 75, 64
2, 121519, Note_on_c, 0, 73, 59
2, 121522, Note_off_c, 0, 74, 64
2, 121588, Note_on_c, 0, 72, 58
2, 121601, Note_off_c, 0, 73, 64
2, 121656, Note_on_c, 0, 73, 57
2, 121672, Note_off_c, 0, 72, 64
2, 121725, Note_on_c, 0, 72, 56
2, 121733, Note_off_c, 0, 73, 64
2, 121776, Note_on_c, 0, 71, 56
2, 121782, Note_off_c, 0, 72, 64
2, 121845, Note_on_c, 0, 70, 55
2, 121853, Note_off_c, 0, 71, 64
2, 121913, Note_on_c, 0, 71, 54
2, 121918, Note_off_c, 0, 70, 64
2, 121982, Note_on_c, 0, 70, 53
2, 121988, Note_off_c, 0, 71, 64
2, 122051, Note_on_c, 0, 69, 52
2, 122063, Note_off_c, 0, 70, 64
2, 122102, Note_on_c, 0, 68, 51
2, 122106, Note_off_c, 0, 69, 64
2, 122170, Note_on_c, 0, 69, 50
2, 122182, Note_off_c, 0, 68, 64
2, 122239, Note_on_c, 0, 68, 50
2, 122248, Note_off_c, 0, 69, 64
2, 122308, Note_on_c, 0, 67, 49
2, 122315, Note_off_c, 0, 68, 64
2, 122376, Note_on_c, 0, 66, 48
2, 122380, Note_off_c, 0, 67, 64
2, 122445, Note_on_c, 0, 67, 47
2, 122460, Note_off_c, 0, 66, 64
2, 122496, Note_on_c, 0, 66, 46
2, 122499, Note_off_c, 0, 67, 64
2, 122565, Note_on_c, 0, 65, 45
2, 122573, Note_off_c, 0, 66, 64
2, 122630, Control_c, 0, 64, 127
2, 122634, Note_on_c, 0, 64, 44
2, 122634, Note_on_c, 0, 43, 48
2, 122636, Note_off_c, 0, 65, 64
2, 122702, Note_on_c, 0, 62, 44
2, 122702, Note_on_c, 0, 58, 56
2, 122714, Note_off_c, 0, 64, 64
2, 122771, Note_on_c, 0, 64, 44
2, 122771, Note_on_c, 0, 61, 68
2, 122776, Note_off_c, 0, 62, 64
2, 122822, Note_on_c, 0, 63, 45
2, 122829, Note_off_c, 0, 64, 64
2, 122890, Note_on_c, 0, 65, 45
2, 122899, Note_off_c, 0, 63, 64
2, 122959, Note_on_c, 0, 64, 46
2, 122964, Note_off_c, 0, 65, 64
2, 123027, Note_off_c, 0, 43, 64
2, 123028, Note_on_c, 0, 66, 46
2, 123032, Note_off_c, 0, 64, 64
2, 123096, Note_on_c, 0, 65, 47
2, 123102, Note_off_c, 0, 66, 64
2, 123165, Note_on_c, 0, 67, 47
2, 123171, Note_off_c, 0, 65, 64
2, 123216, Note_on_c, 0, 66, 48
2, 123227, Note_off_c, 0, 67, 64
2, 123284, Note_off_c, 0, 58, 64
2, 123285, Note_off_c, 0, 61, 64
2, 123287, Note_on_c, 0, 68, 48
2, 123298, Note_off_c, 0, 66, 64
2, 123344, Control_c, 0, 64, 0
2, 123353, Note_on_c, 0, 67, 49
2, 123368, Note_off_c, 0, 68, 64
2, 123422, Note_on_c, 0, 69, 50
2, 123429, Note_off_c, 0, 67, 64
2, 123490, Note_on_c, 0, 68, 50
2, 123503, Note_off_c, 0, 69, 64
2, 123541, Note_on_c, 0, 70, 51
2, 123552, Note_off_c, 0, 68, 64
2, 123610, Note_on_c, 0, 69, 51
2, 123619, Note_off_c, 0, 70, 64
2, 123679, Note_on_c, 0, 71, 52
2, 123684, Note_off_c, 0, 69, 64
2, 123748, Note_on_c, 0, 70, 52
2, 123759, Note_off_c, 0, 71, 64
2, 123816, Note_on_c, 0, 72, 53
2, 123822, Note_off_c, 0, 70, 64
2, 123867, Note_on_c, 0, 71, 53
2, 123869, Note_off_c, 0, 72, 64
2, 123936, Note_on_c, 0, 73, 54
2, 123950, Note_off_c, 0, 71, 64
2, 124004, Note_on_c, 0, 72, 54
2, 124006, Note_off_c, 0, 73, 64
2, 124073, Note_on_c, 0, 74, 55
2, 124077, Note_off_c, 0, 72, 64
2, 124141, Note_on_c, 0, 73, 56
2, 124147, Note_off_c, 0, 74, 64
2, 124210, Note_on_c, 0, 75, 56
2, 124218, Note_off_c, 0, 73, 64
2, 124262, Note_on_c, 0, 74, 56
2, 124264, Note_off_c, 0, 75, 64
2, 124330, Note_on_c, 0, 76, 57
2, 124338, Note_off_c, 0, 74, 64
2, 124399, Note_on_c, 0, 75, 57
2, 124403, Note_off_c, 0, 76, 64
2, 124467, Note_on_c, 0, 77, 58
2, 124478, Note_off_c, 0, 75, 64
2, 124536, Note_on_c, 0, 76, 58
2, 124546, Note_off_c, 0, 77, 64
2, 124587, Note_on_c, 0, 78, 59
2, 124591, Note_off_c, 0, 76, 64
2, 124656, Note_on_c, 0, 77, 59
2, 124664, Note_off_c, 0, 78, 64
2, 124725, Note_on_c, 0, 79, 60
2, 124737, Note_off_c, 0, 77, 64
2, 124793, Note_on_c, 0, 78, 60
2, 124807, Note_off_c, 0, 79, 64
2, 124861, Note_on_c, 0, 80, 61
2, 124868, Note_off_c, 0, 78, 64
2, 124930, Note_on_c, 0, 79, 61
2, 124935, Note_off_c, 0, 80, 64
2, 124981, Note_on_c, 0, 81, 62
2, 124985, Note_off_c, 0, 79, 64
2, 125049, Note_on_c, 0, 80, 62
2, 125054, Note_off_c, 0, 81, 64
2, 125118, Note_on_c, 0, 82, 63
2, 125127, Note_off_c, 0, 80, 64
2, 125187, Note_on_c, 0, 81, 63
2, 125190, Note_off_c, 0, 82, 64
2, 125255, Note_on_c, 0, 83, 64
2, 125265, Note_off_c, 0, 81, 64
2, 125307, Note_on_c, 0, 82, 64
2, 125310, Note_off_c, 0, 83, 64
2, 125375, Note_on_c, 0, 84, 65
2, 125388, Note_off_c, 0, 82, 64
2, 125444, Note_on_c, 0, 83, 65
2, 125451, Note_off_c, 0, 84, 64
2, 125512, Note_on_c, 0, 85, 66
2, 125523, Note_off_c, 0, 83, 64
2, 125581, Note_on_c, 0, 84, 66
2, 125589, Note_off_c, 0, 85, 64
2, 125649, Note_on_c, 0, 86, 67
2, 125653, Note_off_c, 0, 84, 64
2, 125701, Note_on_c, 0, 85, 67
2, 125706, Note_off_c, 0, 86, 64
2, 125770, Note_on_c, 0, 87, 68
2, 125782, Note_off_c, 0, 85, 64
2, 125837, Note_off_c, 0, 87, 64
2, 125838, Note_on_c, 0, 86, 68
2, 125905, Note_off_c, 0, 86, 64
2, 125906, Note_on_c, 0, 88, 69
2, 125974, Note_off_c, 0, 88, 64
2, 125975, Note_on_c, 0, 87, 69
2, 126025, Note_off_c, 0, 87, 64
2, 126026, Note_on_c, 0, 89, 70
2, 126093, Note_off_c, 0, 89, 64
2, 126095, Note_on_c, 0, 88, 70
2, 126162, Note_off_c, 0, 88, 64
2, 126164, Note_on_c, 0, 90, 71
2, 126232, Note_on_c, 0, 89, 71
2, 126264, Note_off_c, 0, 90, 64
2, 126299, Note_off_c, 0, 89, 64
2, 126301, Note_on_c, 0, 91, 72
2, 126369, Note_on_c, 0, 90, 72
2, 126390, Note_off_c, 0, 91, 64
2, 126420, Note_on_c, 0, 92, 73
2, 126431, Note_off_c, 0, 90, 64
2, 126490, Note_on_c, 0, 91, 73
2, 126514, Note_off_c, 0, 92, 64
2, 126558, Note_on_c, 0, 93, 74
2, 126575, Note_off_c, 0, 91, 64
2, 126626, Note_on_c, 0, 92, 74
2, 126638, Note_off_c, 0, 93, 64
2, 126695, Note_on_c, 0, 94, 75
2, 126726, Note_off_c, 0, 92, 64
2, 126747, Note_on_c, 0, 93, 75
2, 126759, Note_off_c, 0, 94, 64
2, 126815, Note_on_c, 0, 95, 76
2, 126824, Note_off_c, 0, 93, 64
2, 126884, Note_on_c, 0, 94, 76
2, 126912, Note_off_c, 0, 95, 64
2, 126953, Note_on_c, 0, 96, 77
2, 126970, Note_off_c, 0, 94, 64
2, 127020, Note_on_c, 0, 95, 77
2, 127049, Note_off_c, 0, 96, 64
2, 127089, Note_on_c, 0, 97, 78
2, 127104, Note_off_c, 0, 95, 64
2, 127140, Note_on_c, 0, 96, 78
2, 127158, Note_off_c, 0, 97, 64
2, 127209, Note_on_c, 0, 98, 79
2, 127246, Note_off_c, 0, 96, 64
2, 127278, Note_on_c, 0, 97, 79
2, 127299, Note_off_c, 0, 98, 64
2, 127346, Note_on_c, 0, 99, 80
2, 127360, Note_off_c, 0, 97, 64
2, 127415, Note_on_c, 0, 98, 80
2, 127427, Note_off_c, 0, 99, 64
2, 127461, Control_c, 0, 64, 127
2, 127466, Note_on_c, 0, 100, 81
2, 127471, Note_off_c, 0, 98, 64
2, 127535, Note_on_c, 0, 98, 81
2, 127550, Note_off_c, 0, 100, 64
2, 127603, Note_on_c, 0, 99, 82
2, 127625, Note_off_c, 0, 98, 64
2, 127672, Note_on_c, 0, 98, 82
2, 127695, Note_off_c, 0, 99, 64
2, 127740, Note_on_c, 0, 100, 83
2, 127768, Note_off_c, 0, 98, 64
2, 127809, Note_on_c, 0, 98, 83
2, 127818, Note_off_c, 0, 100, 64
2, 127860, Note_on_c, 0, 99, 84
2, 127875, Note_off_c, 0, 98, 64
2, 127911, Control_c, 0, 64, 0
2, 127929, Note_on_c, 0, 98, 84
2, 127956, Note_off_c, 0, 99, 64
2, 127997, Note_on_c, 0, 100, 85
2, 128015, Note_off_c, 0, 98, 64
2, 128066, Note_on_c, 0, 98, 85
2, 128083, Note_off_c, 0, 100, 64
2, 128135, Note_on_c, 0, 99, 86
2, 128161, Note_off_c, 0, 98, 64
2, 128186, Note_on_c, 0, 98, 86
2, 128199, Note_off_c, 0, 99, 64
2, 128255, Note_on_c, 0, 100, 87
2, 128266, Note_off_c, 0, 98, 64
2, 128323, Note_on_c, 0, 98, 87
2, 128345, Note_off_c, 0, 100, 64
2, 128392, Note_on_c, 0, 99, 88
2, 128407, Note_off_c, 0, 98, 64
2, 128460, Note_on_c, 0, 98, 88
2, 128487, Note_off_c, 0, 99, 64
2, 128512, Note_on_c, 0, 100, 89
2, 128522, Note_off_c, 0, 98, 64
2, 128580, Note_on_c, 0, 98, 89
2, 128613, Note_off_c, 0, 100, 64
2, 128649, Note_on_c, 0, 99, 90
2, 128677, Note_off_c, 0, 98, 64
2, 128718, Note_on_c, 0, 98, 90
2, 128743, Note_off_c, 0, 99, 64
2, 128786, Note_on_c, 0, 100, 91
2, 128809, Note_off_c, 0, 98, 64
2, 128855, Note_on_c, 0, 98, 91
2, 128880, Note_off_c, 0, 100, 64
2, 128906, Note_on_c, 0, 99, 98
2, 128909, Control_c, 0, 64, 127
2, 128921, Note_off_c, 0, 98, 64
2, 128975, Note_on_c, 0, 100, 92
2, 129000, Note_off_c, 0, 99, 64
2, 129043, Note_on_c, 0, 99, 92
2, 129067, Note_off_c, 0, 100, 64
2, 129112, Note_on_c, 0, 100, 91
2, 129132, Note_off_c, 0, 99, 64
2, 129180, Note_on_c, 0, 99, 91
2, 129205, Note_off_c, 0, 100, 64
2, 129231, Note_on_c, 0, 100, 90
2, 129237, Note_off_c, 0, 99, 64
2, 129300, Note_on_c, 0, 99, 90
2, 129316, Note_off_c, 0, 100, 64
2, 129359, Control_c, 0, 64, 0
2, 129369, Note_on_c, 0, 100, 89
2, 129389, Note_off_c, 0, 99, 64
2, 129437, Note_on_c, 0, 99, 88
2, 129461, Note_off_c, 0, 100, 64
2, 129506, Note_on_c, 0, 100, 88
2, 129521, Note_off_c, 0, 99, 64
2, 129574, Note_on_c, 0, 99, 87
2, 129592, Note_off_c, 0, 100, 64
2, 129626, Note_on_c, 0, 100, 87
2, 129638, Note_off_c, 0, 99, 64
2, 129695, Note_on_c, 0, 99, 98
2, 129712, Note_off_c, 0, 100, 64
2, 129763, Note_on_c, 0, 100, 86
2, 129790, Note_off_c, 0, 99, 64
2, 129832, Note_on_c, 0, 99, 85
2, 129867, Note_off_c, 0, 100, 64
2, 129900, Note_on_c, 0, 100, 84
2, 129920, Note_off_c, 0, 99, 64
2, 129952, Note_on_c, 0, 99, 84
2, 129967, Note_off_c, 0, 100, 64
2, 130020, Note_on_c, 0, 100, 83
2, 130041, Note_off_c, 0, 99, 64
2, 130088, Note_on_c, 0, 99, 83
2, 130111, Note_off_c, 0, 100, 64
2, 130157, Note_on_c, 0, 100, 82
2, 130172, Note_off_c, 0, 99, 64
2, 130226, Note_on_c, 0, 99, 82
2, 130254, Note_off_c, 0, 100, 64
2, 130294, Note_on_c, 0, 100, 81
2, 130312, Note_off_c, 0, 99, 64
2, 130346, Note_on_c, 0, 99, 80
2, 130361, Note_off_c, 0, 100, 64
2, 130414, Note_on_c, 0, 100, 80
2, 130421, Note_off_c, 0, 99, 64
2, 130483, Note_on_c, 0, 99, 92
2, 130490, Note_off_c, 0, 100, 64
2, 130552, Note_on_c, 0, 100, 77
2, 130575, Note_off_c, 0, 99, 64
2, 130620, Note_on_c, 0, 99, 74
2, 130630, Note_off_c, 0, 100, 64
2, 130672, Note_on_c, 0, 100, 71
2, 130689, Note_off_c, 0, 99, 64
2, 130740, Note_on_c, 0, 99, 68
2, 130762, Note_off_c, 0, 100, 64
2, 130808, Note_on_c, 0, 100, 65
2, 130836, Note_off_c, 0, 99, 64
2, 130877, Note_on_c, 0, 99, 62
2, 130897, Note_off_c, 0, 100, 64
2, 130945, Note_on_c, 0, 100, 59
2, 130967, Note_off_c, 0, 99, 64
2, 131015, Note_on_c, 0, 99, 56
2, 131015, Note_on_c, 0, 75, 56
2, 131044, Note_off_c, 0, 100, 64
2, 131065, Note_on_c, 0, 100, 53
2, 131079, Note_off_c, 0, 99, 64
2, 131133, Note_off_c, 0, 75, 64
2, 131135, Note_on_c, 0, 99, 50
2, 131165, Note_off_c, 0, 100, 64
2, 131202, Note_on_c, 0, 100, 47
2, 131222, Note_off_c, 0, 99, 64
2, 131271, Note_on_c, 0, 99, 44
2, 131271, Note_on_c, 0, 87, 68
2, 131299, Note_off_c, 0, 100, 64
2, 131340, Note_on_c, 0, 100, 44
2, 131349, Note_off_c, 0, 99, 64
2, 131391, Note_on_c, 0, 99, 44
2, 131421, Note_off_c, 0, 100, 64
2, 131460, Note_on_c, 0, 100, 44
2, 131484, Note_off_c, 0, 99, 64
2, 131509, Note_off_c, 0, 87, 64
2, 131528, Note_on_c, 0, 87, 56
2, 131528, Note_on_c, 0, 99, 68
2, 131565, Note_off_c, 0, 100, 64
2, 131596, Note_on_c, 0, 100, 44
2, 131631, Note_off_c, 0, 99, 64
2, 131665, Note_off_c, 0, 87, 64
2, 131666, Note_on_c, 0, 99, 44
2, 131694, Note_off_c, 0, 100, 64
2, 131734, Note_on_c, 0, 100, 44
2, 131744, Note_off_c, 0, 99, 64
2, 131786, Note_on_c, 0, 85, 56
2, 131786, Note_on_c, 0, 87, 44
2, 131786, Note_on_c, 0, 99, 44
2, 131802, Note_off_c, 0, 100, 64
2, 131852, Note_off_c, 0, 87, 64
2, 131854, Note_on_c, 0, 100, 44
2, 131900, Note_off_c, 0, 99, 64
2, 131922, Note_on_c, 0, 99, 44
2, 131934, Note_off_c, 0, 100, 64
2, 131991, Note_on_c, 0, 100, 44
2, 132003, Note_off_c, 0, 99, 64
2, 132058, Note_off_c, 0, 85, 64
2, 132060, Control_c, 0, 64, 127
2, 132063, Note_on_c, 0, 87, 44
2, 132063, Note_on_c, 0, 83, 56
2, 132063, Note_on_c, 0, 68, 60
2, 132063, Note_on_c, 0, 99, 44
2, 132074, Note_off_c, 0, 100, 64
2, 132110, Note_off_c, 0, 87, 64
2, 132111, Note_on_c, 0, 100, 44
2, 132150, Note_off_c, 0, 99, 64
2, 132179, Note_off_c, 0, 68, 64
2, 132179, Note_off_c, 0, 83, 64
2, 132182, Note_on_c, 0, 99, 44
2, 132195, Note_off_c, 0, 100, 64
2, 132248, Note_on_c, 0, 100, 44
2, 132272, Note_off_c, 0, 99, 64
2, 132317, Note_on_c, 0, 83, 52
2, 132317, Note_on_c, 0, 87, 44
2, 132317, Note_on_c, 0, 99, 44
2, 132337, Note_off_c, 0, 100, 64
2, 132383, Note_off_c, 0, 87, 64
2, 132385, Note_on_c, 0, 100, 44
2, 132400, Note_off_c, 0, 99, 64
2, 132436, Note_off_c, 0, 83, 64
2, 132437, Note_on_c, 0, 99, 44
2, 132451, Note_off_c, 0, 100, 64
2, 132505, Note_on_c, 0, 100, 44
2, 132520, Note_off_c, 0, 99, 64
2, 132575, Note_on_c, 0, 82, 49
2, 132575, Note_on_c, 0, 87, 44
2, 132575, Note_on_c, 0, 99, 44
2, 132591, Note_off_c, 0, 100, 64
2, 132641, Note_off_c, 0, 87, 64
2, 132642, Note_on_c, 0, 100, 44
2, 132650, Note_off_c, 0, 99, 64
2, 132711, Note_off_c, 0, 82, 64
2, 132712, Note_on_c, 0, 99, 44
2, 132726, Note_off_c, 0, 100, 64
2, 132779, Note_on_c, 0, 100, 44
2, 132801, Note_off_c, 0, 99, 64
2, 132831, Control_c, 0, 64, 0
2, 132834, Note_on_c, 0, 87, 44
2, 132834, Note_on_c, 0, 80, 48
2, 132834, Note_on_c, 0, 71, 51
2, 132834, Note_on_c, 0, 99, 44
2, 132848, Note_off_c, 0, 100, 64
2, 132899, Note_off_c, 0, 87, 64
2, 132899, Note_on_c, 0, 100, 44
2, 132920, Note_off_c, 0, 99, 64
2, 132922, Control_c, 0, 64, 127
2, 132967, Note_off_c, 0, 80, 64
2, 132968, Note_off_c, 0, 71, 64
2, 132969, Note_on_c, 0, 99, 44
2, 132977, Note_off_c, 0, 100, 64
2, 133030, Note_on_c, 0, 100, 44
2, 133071, Note_off_c, 0, 99, 64
2, 133106, Note_on_c, 0, 79, 44
2, 133106, Note_on_c, 0, 87, 44
2, 133106, Note_on_c, 0, 99, 44
2, 133130, Note_off_c, 0, 100, 64
2, 133155, Note_off_c, 0, 87, 64
2, 133162, Note_on_c, 0, 100, 44
2, 133180, Note_off_c, 0, 99, 64
2, 133224, Note_off_c, 0, 79, 64
2, 133226, Note_on_c, 0, 99, 44
2, 133246, Note_off_c, 0, 100, 64
2, 133293, Note_on_c, 0, 100, 44
2, 133303, Note_off_c, 0, 99, 64
2, 133363, Note_on_c, 0, 80, 48
2, 133363, Note_on_c, 0, 87, 44
2, 133363, Note_on_c, 0, 99, 44
2, 133378, Note_off_c, 0, 100, 64
2, 133429, Note_off_c, 0, 87, 64
2, 133430, Note_on_c, 0, 100, 44
2, 133440, Note_off_c, 0, 99, 64
2, 133498, Note_off_c, 0, 80, 64
2, 133500, Note_on_c, 0, 99, 44
2, 133526, Note_off_c, 0, 100, 64
2, 133550, Note_on_c, 0, 100, 44
2, 133572, Note_off_c, 0, 99, 64
2, 133616, Note_on_c, 0, 79, 56
2, 133619, Control_c, 0, 64, 0
2, 133620, Note_on_c, 0, 82, 80
2, 133622, Note_on_c, 0, 99, 44
2, 133622, Note_on_c, 0, 87, 44
2, 133643, Note_off_c, 0, 100, 64
2, 133687, Note_on_c, 0, 100, 44
2, 133705, Note_off_c, 0, 99, 64
2, 133716, Control_c, 0, 64, 127
2, 133757, Note_off_c, 0, 87, 64
2, 133757, Note_on_c, 0, 99, 44
2, 133776, Note_off_c, 0, 100, 64
2, 133825, Note_on_c, 0, 100, 44
2, 133854, Note_off_c, 0, 99, 64
2, 133857, Note_off_c, 0, 79, 64
2, 133879, Note_on_c, 0, 99, 44
2, 133879, Note_on_c, 0, 75, 52
2, 133879, Note_on_c, 0, 87, 44
2, 133886, Note_off_c, 0, 82, 64
2, 133890, Note_off_c, 0, 100, 64
2, 133945, Note_on_c, 0, 100, 44
2, 133961, Note_off_c, 0, 99, 64
2, 134013, Note_off_c, 0, 87, 64
2, 134014, Note_on_c, 0, 99, 44
2, 134041, Note_off_c, 0, 100, 64
2, 134080, Note_off_c, 0, 75, 64
2, 134082, Note_on_c, 0, 100, 44
2, 134102, Note_off_c, 0, 99, 64
2, 134152, Note_on_c, 0, 99, 44
2, 134152, Note_on_c, 0, 75, 44
2, 134152, Note_on_c, 0, 87, 44
2, 134178, Note_off_c, 0, 100, 64
2, 134219, Note_on_c, 0, 100, 44
2, 134235, Note_off_c, 0, 99, 64
2, 134270, Note_off_c, 0, 87, 64
2, 134272, Note_off_c, 0, 75, 64
2, 134272, Note_on_c, 0, 99, 44
2, 134293, Note_off_c, 0, 100, 64
2, 134339, Note_on_c, 0, 100, 44
2, 134360, Note_off_c, 0, 99, 64
2, 134401, Control_c, 0, 64, 0
2, 134409, Note_on_c, 0, 99, 44
2, 134411, Note_on_c, 0, 87, 44
2, 134418, Note_on_c, 0, 76, 56
2, 134418, Note_on_c, 0, 70, 48
2, 134420, Note_on_c, 0, 67, 45
2, 134423, Note_off_c, 0, 100, 64
2, 134476, Note_on_c, 0, 100, 44
2, 134493, Control_c, 0, 64, 127
2, 134502, Note_off_c, 0, 99, 64
2, 134535, Note_off_c, 0, 70, 64
2, 134536, Note_off_c, 0, 67, 64
2, 134538, Note_off_c, 0, 76, 64
2, 134544, Note_off_c, 0, 87, 64
2, 134548, Note_on_c, 0, 99, 44
2, 134562, Note_off_c, 0, 100, 64
2, 134596, Note_on_c, 0, 100, 44
2, 134607, Note_off_c, 0, 99, 64
2, 134665, Note_on_c, 0, 99, 44
2, 134665, Note_on_c, 0, 75, 53
2, 134665, Note_on_c, 0, 87, 44
2, 134689, Note_off_c, 0, 100, 64
2, 134733, Note_on_c, 0, 100, 44
2, 134748, Note_off_c, 0, 99, 64
2, 134801, Note_off_c, 0, 87, 64
2, 134801, Note_off_c, 0, 75, 64
2, 134803, Note_on_c, 0, 99, 44
2, 134811, Note_off_c, 0, 100, 64
2, 134870, Note_on_c, 0, 100, 44
2, 134890, Note_off_c, 0, 99, 64
2, 134940, Note_on_c, 0, 73, 44
2, 134940, Note_on_c, 0, 87, 44
2, 134940, Note_on_c, 0, 99, 44
2, 134967, Note_off_c, 0, 100, 64
2, 134990, Note_on_c, 0, 100, 44
2, 135030, Note_off_c, 0, 99, 64
2, 135059, Note_off_c, 0, 87, 64
2, 135060, Note_off_c, 0, 73, 64
2, 135060, Note_on_c, 0, 99, 44
2, 135092, Note_off_c, 0, 100, 64
2, 135127, Note_on_c, 0, 100, 44
2, 135157, Note_off_c, 0, 99, 64
2, 135178, Control_c, 0, 64, 0
2, 135198, Note_on_c, 0, 99, 44
2, 135199, Note_on_c, 0, 87, 44
2, 135201, Note_on_c, 0, 71, 63
2, 135201, Note_on_c, 0, 68, 56
2, 135219, Note_off_c, 0, 100, 64
2, 135264, Note_on_c, 0, 100, 44
2, 135281, Control_c, 0, 64, 127
2, 135283, Note_off_c, 0, 99, 64
2, 135297, Note_off_c, 0, 68, 64
2, 135297, Note_off_c, 0, 71, 64
2, 135316, Note_off_c, 0, 87, 64
2, 135318, Note_on_c, 0, 99, 44
2, 135336, Note_off_c, 0, 100, 64
2, 135384, Note_on_c, 0, 100, 44
2, 135408, Note_off_c, 0, 99, 64
2, 135452, Note_on_c, 0, 71, 58
2, 135452, Note_on_c, 0, 68, 50
2, 135454, Note_on_c, 0, 99, 44
2, 135454, Note_on_c, 0, 87, 44
2, 135478, Note_off_c, 0, 100, 64
2, 135521, Note_on_c, 0, 100, 44
2, 135546, Note_off_c, 0, 99, 64
2, 135571, Note_off_c, 0, 71, 64
2, 135575, Note_off_c, 0, 68, 64
2, 135591, Note_off_c, 0, 87, 64
2, 135592, Note_on_c, 0, 99, 44
2, 135611, Note_off_c, 0, 100, 64
2, 135659, Note_on_c, 0, 100, 44
2, 135674, Note_off_c, 0, 99, 64
2, 135711, Note_on_c, 0, 70, 49
2, 135711, Note_on_c, 0, 99, 44
2, 135711, Note_on_c, 0, 87, 44
2, 135717, Note_on_c, 0, 66, 43
2, 135720, Note_off_c, 0, 100, 64
2, 135779, Note_on_c, 0, 100, 44
2, 135809, Note_off_c, 0, 99, 64
2, 135810, Note_off_c, 0, 66, 64
2, 135822, Note_off_c, 0, 70, 64
2, 135847, Note_off_c, 0, 87, 64
2, 135850, Note_on_c, 0, 99, 44
2, 135875, Note_off_c, 0, 100, 64
2, 135916, Note_on_c, 0, 100, 44
2, 135934, Note_off_c, 0, 99, 64
2, 135986, Note_on_c, 0, 87, 44
2, 135986, Note_on_c, 0, 68, 56
2, 135986, Note_on_c, 0, 99, 44
2, 135992, Note_on_c, 0, 64, 46
2, 136002, Note_off_c, 0, 100, 64
2, 136006, Control_c, 0, 64, 0
2, 136036, Note_on_c, 0, 100, 44
2, 136090, Note_off_c, 0, 99, 64
2, 136092, Note_off_c, 0, 64, 64
2, 136098, Control_c, 0, 64, 127
2, 136105, Note_off_c, 0, 87, 64
2, 136106, Note_off_c, 0, 68, 64
2, 136107, Note_on_c, 0, 99, 44
2, 136115, Note_off_c, 0, 100, 64
2, 136173, Note_on_c, 0, 100, 44
2, 136204, Note_off_c, 0, 99, 64
2, 136242, Note_on_c, 0, 67, 53
2, 136242, Note_on_c, 0, 99, 44
2, 136242, Note_on_c, 0, 87, 44
2, 136252, Note_off_c, 0, 100, 64
2, 136310, Note_on_c, 0, 100, 44
2, 136321, Note_off_c, 0, 99, 64
2, 136378, Note_off_c, 0, 67, 64
2, 136378, Note_off_c, 0, 87, 64
2, 136380, Note_on_c, 0, 99, 44
2, 136393, Note_off_c, 0, 100, 64
2, 136430, Note_on_c, 0, 100, 44
2, 136454, Note_off_c, 0, 99, 64
2, 136499, Note_on_c, 0, 68, 58
2, 136499, Note_on_c, 0, 99, 44
2, 136499, Note_on_c, 0, 87, 44
2, 136520, Note_off_c, 0, 100, 64
2, 136567, Note_on_c, 0, 100, 44
2, 136591, Note_off_c, 0, 99, 64
2, 136635, Note_off_c, 0, 68, 64
2, 136636, Note_off_c, 0, 87, 64
2, 136637, Note_on_c, 0, 99, 44
2, 136657, Note_off_c, 0, 100, 64
2, 136704, Note_on_c, 0, 100, 44
2, 136723, Note_off_c, 0, 99, 64
2, 136750, Control_c, 0, 64, 0
2, 136757, Note_on_c, 0, 99, 44
2, 136758, Note_on_c, 0, 67, 60
2, 136759, Note_on_c, 0, 87, 44
2, 136762, Note_on_c, 0, 70, 84
2, 136772, Note_off_c, 0, 100, 64
2, 136824, Note_on_c, 0, 100, 44
2, 136840, Control_c, 0, 64, 127
2, 136841, Note_off_c, 0, 99, 64
2, 136893, Note_off_c, 0, 87, 64
2, 136893, Note_on_c, 0, 99, 44
2, 136911, Note_off_c, 0, 100, 64
2, 136961, Note_on_c, 0, 100, 44
2, 136987, Note_off_c, 0, 99, 64
2, 136990, Note_off_c, 0, 67, 64
2, 137000, Note_off_c, 0, 70, 64
2, 137033, Note_on_c, 0, 99, 44
2, 137033, Note_on_c, 0, 63, 44
2, 137033, Note_on_c, 0, 87, 44
2, 137044, Note_off_c, 0, 100, 64
2, 137081, Note_on_c, 0, 100, 44
2, 137097, Note_off_c, 0, 99, 64
2, 137150, Note_on_c, 0, 99, 44
2, 137151, Note_off_c, 0, 87, 64
2, 137170, Note_off_c, 0, 100, 64
2, 137218, Note_on_c, 0, 100, 44
2, 137242, Note_off_c, 0, 99, 64
2, 137287, Note_off_c, 0, 63, 64
2, 137288, Note_on_c, 0, 99, 44
2, 137288, Note_on_c, 0, 87, 44
2, 137289, Control_c, 0, 64, 0
2, 137304, Note_off_c, 0, 100, 64
2, 137356, Note_on_c, 0, 100, 44
2, 137380, Note_off_c, 0, 99, 64
2, 137423, Note_off_c, 0, 87, 64
2, 137425, Note_on_c, 0, 99, 44
2, 137425, Note_on_c, 0, 63, 48
2, 137449, Note_off_c, 0, 100, 64
2, 137476, Note_on_c, 0, 100, 44
2, 137493, Note_off_c, 0, 99, 64
2, 137543, Note_off_c, 0, 63, 64
2, 137546, Note_on_c, 0, 99, 44
2, 137546, Note_on_c, 0, 75, 56
2, 137546, Note_on_c, 0, 87, 44
2, 137568, Note_off_c, 0, 100, 64
2, 137612, Note_on_c, 0, 100, 45
2, 137635, Note_off_c, 0, 99, 64
2, 137681, Note_off_c, 0, 87, 64
2, 137682, Note_off_c, 0, 75, 64
2, 137683, Note_on_c, 0, 99, 46
2, 137700, Note_off_c, 0, 100, 64
2, 137750, Note_on_c, 0, 100, 47
2, 137764, Note_off_c, 0, 99, 64
2, 137802, Note_on_c, 0, 99, 48
2, 137802, Note_on_c, 0, 75, 53
2, 137802, Note_on_c, 0, 87, 48
2, 137813, Note_off_c, 0, 100, 64
2, 137870, Note_on_c, 0, 100, 49
2, 137881, Note_off_c, 0, 99, 64
2, 137938, Note_off_c, 0, 87, 64
2, 137939, Note_off_c, 0, 75, 64
2, 137940, Note_on_c, 0, 99, 50
2, 137953, Note_off_c, 0, 100, 64
2, 138007, Note_on_c, 0, 100, 51
2, 138032, Note_off_c, 0, 99, 64
2, 138076, Note_on_c, 0, 99, 52
2, 138076, Note_on_c, 0, 73, 58
2, 138076, Note_on_c, 0, 87, 48
2, 138092, Note_off_c, 0, 100, 64
2, 138144, Note_on_c, 0, 100, 53
2, 138162, Note_off_c, 0, 99, 64
2, 138195, Note_off_c, 0, 87, 64
2, 138196, Note_off_c, 0, 73, 64
2, 138197, Note_on_c, 0, 99, 54
2, 138213, Note_off_c, 0, 100, 64
2, 138264, Note_on_c, 0, 100, 56
2, 138286, Note_off_c, 0, 99, 64
2, 138333, Note_on_c, 0, 99, 68
2, 138333, Note_on_c, 0, 71, 68
2, 138345, Note_on_c, 0, 56, 76
2, 138351, Note_off_c, 0, 100, 64
2, 138401, Note_on_c, 0, 100, 68
2, 138417, Note_off_c, 0, 99, 64
2, 138467, Note_off_c, 0, 56, 64
2, 138470, Note_off_c, 0, 71, 64
2, 138472, Note_on_c, 0, 99, 65
2, 138487, Note_off_c, 0, 100, 64
2, 138521, Note_on_c, 0, 87, 61
2, 138535, Note_off_c, 0, 99, 64
2, 138571, Note_off_c, 0, 87, 64
2, 138589, Note_on_c, 0, 87, 57
2, 138589, Note_on_c, 0, 71, 65
2, 138658, Note_on_c, 0, 88, 57
2, 138663, Note_off_c, 0, 87, 64
2, 138726, Note_off_c, 0, 71, 64
2, 138727, Note_on_c, 0, 87, 57
2, 138732, Note_off_c, 0, 88, 64
2, 138793, Note_off_c, 0, 87, 64
2, 138795, Note_on_c, 0, 75, 57
2, 138863, Note_off_c, 0, 75, 64
2, 138864, Note_on_c, 0, 87, 56
2, 138864, Note_on_c, 0, 70, 56
2, 138949, Note_on_c, 0, 88, 56
2, 138954, Note_off_c, 0, 87, 64
2, 138982, Note_off_c, 0, 70, 64
2, 139035, Note_on_c, 0, 87, 62
2, 139050, Note_off_c, 0, 88, 64
2, 139120, Note_off_c, 0, 87, 64
2, 139122, Note_on_c, 0, 99, 68
2, 139122, Note_on_c, 0, 68, 68
2, 139134, Note_on_c, 0, 59, 76
2, 139189, Note_on_c, 0, 100, 68
2, 139225, Note_off_c, 0, 99, 64
2, 139235, Note_off_c, 0, 59, 64
2, 139241, Note_off_c, 0, 68, 64
2, 139242, Note_on_c, 0, 99, 65
2, 139251, Note_off_c, 0, 100, 64
2, 139309, Note_on_c, 0, 87, 61
2, 139340, Note_off_c, 0, 99, 64
2, 139359, Note_off_c, 0, 87, 64
2, 139377, Note_on_c, 0, 87, 57
2, 139377, Note_on_c, 0, 67, 65
2, 139447, Note_on_c, 0, 88, 57
2, 139451, Note_off_c, 0, 87, 64
2, 139514, Note_off_c, 0, 67, 64
2, 139516, Note_on_c, 0, 87, 57
2, 139519, Note_off_c, 0, 88, 64
2, 139582, Note_off_c, 0, 87, 64
2, 139583, Note_on_c, 0, 75, 57
2, 139633, Note_off_c, 0, 75, 64
2, 139636, Note_on_c, 0, 87, 56
2, 139636, Note_on_c, 0, 68, 56
2, 139721, Note_on_c, 0, 88, 56
2, 139727, Note_off_c, 0, 87, 64
2, 139770, Note_off_c, 0, 68, 64
2, 139823, Note_on_c, 0, 87, 62
2, 139837, Note_off_c, 0, 88, 64
2, 139907, Note_off_c, 0, 87, 64
2, 139909, Control_c, 0, 64, 127
2, 139911, Note_on_c, 0, 99, 68
2, 139911, Note_on_c, 0, 70, 68
2, 139917, Note_on_c, 0, 67, 62
2, 139961, Note_on_c, 0, 100, 68
2, 139976, Note_off_c, 0, 99, 64
2, 140029, Note_on_c, 0, 99, 67
2, 140050, Note_off_c, 0, 100, 64
2, 140098, Note_on_c, 0, 87, 66
2, 140117, Note_off_c, 0, 99, 64
2, 140122, Note_off_c, 0, 67, 64
2, 140148, Note_off_c, 0, 87, 64
2, 140149, Note_off_c, 0, 70, 64
2, 140165, Note_on_c, 0, 87, 65
2, 140171, Note_on_c, 0, 63, 66
2, 140234, Note_on_c, 0, 88, 64
2, 140240, Note_off_c, 0, 87, 64
2, 140303, Note_off_c, 0, 88, 64
2, 140303, Note_on_c, 0, 87, 62
2, 140353, Note_off_c, 0, 87, 64
2, 140355, Note_on_c, 0, 75, 61
2, 140362, Note_off_c, 0, 63, 64
2, 140405, Note_off_c, 0, 75, 64
2, 140423, Note_on_c, 0, 87, 60
2, 140423, Note_on_c, 0, 63, 56
2, 140509, Note_on_c, 0, 88, 58
2, 140510, Note_off_c, 0, 87, 64
2, 140559, Note_off_c, 0, 63, 64
2, 140594, Note_on_c, 0, 87, 56
2, 140609, Note_off_c, 0, 88, 64
2, 140674, Control_c, 0, 64, 0
2, 140679, Note_off_c, 0, 87, 64
2, 140683, Note_on_c, 0, 99, 56
2, 140683, Note_on_c, 0, 68, 56
2, 140689, Note_on_c, 0, 59, 64
2, 140749, Note_on_c, 0, 100, 56
2, 140756, Note_off_c, 0, 99, 64
2, 140765, Control_c, 0, 64, 127
2, 140805, Note_off_c, 0, 59, 64
2, 140818, Note_off_c, 0, 68, 64
2, 140819, Note_on_c, 0, 99, 56
2, 140836, Note_off_c, 0, 100, 64
2, 140886, Note_on_c, 0, 87, 55
2, 140908, Note_off_c, 0, 99, 64
2, 140936, Note_off_c, 0, 87, 64
2, 140955, Note_on_c, 0, 87, 55
2, 140955, Note_on_c, 0, 66, 55
2, 140961, Note_on_c, 0, 60, 63
2, 141023, Note_on_c, 0, 88, 54
2, 141030, Note_off_c, 0, 87, 64
2, 141092, Note_off_c, 0, 66, 64
2, 141093, Note_on_c, 0, 87, 54
2, 141094, Note_off_c, 0, 60, 64
2, 141102, Note_off_c, 0, 88, 64
2, 141142, Note_off_c, 0, 87, 64
2, 141143, Note_on_c, 0, 75, 54
2, 141210, Note_off_c, 0, 75, 64
2, 141213, Note_on_c, 0, 87, 53
2, 141213, Note_on_c, 0, 64, 54
2, 141219, Note_on_c, 0, 61, 62
2, 141315, Note_on_c, 0, 88, 53
2, 141322, Note_off_c, 0, 87, 64
2, 141337, Note_off_c, 0, 61, 64
2, 141347, Note_off_c, 0, 64, 64
2, 141400, Note_on_c, 0, 87, 52
2, 141414, Note_off_c, 0, 88, 64
2, 141484, Note_off_c, 0, 87, 64
2, 141486, Control_c, 0, 64, 0
2, 141488, Note_on_c, 0, 63, 53
2, 141488, Note_on_c, 0, 99, 52
2, 141553, Note_off_c, 0, 63, 64
2, 141556, Note_on_c, 0, 100, 51
2, 141562, Note_off_c, 0, 99, 64
2, 141588, Control_c, 0, 64, 127
2, 141623, Note_on_c, 0, 99, 51
2, 141638, Note_off_c, 0, 100, 64
2, 141691, Note_off_c, 0, 99, 64
2, 141692, Note_on_c, 0, 87, 50
2, 141754, Note_on_c, 0, 71, 60
2, 141759, Note_off_c, 0, 87, 64
2, 141761, Note_on_c, 0, 80, 52
2, 141864, Note_off_c, 0, 71, 64
2, 141869, Note_off_c, 0, 80, 64
2, 141893, Note_on_c, 0, 75, 59
2, 141896, Note_on_c, 0, 83, 51
2, 142003, Note_off_c, 0, 75, 64
2, 142005, Note_off_c, 0, 83, 64
2, 142052, Note_on_c, 0, 87, 48
2, 142054, Note_on_c, 0, 80, 56
2, 142066, Control_c, 0, 64, 0
2, 142096, Note_off_c, 0, 87, 64
2, 142102, Note_off_c, 0, 80, 64
2, 142324, Control_c, 0, 64, 127
2, 142326, Note_on_c, 0, 63, 49
2, 142326, Note_on_c, 0, 99, 47
2, 142394, Note_off_c, 0, 63, 64
2, 142396, Note_on_c, 0, 100, 46
2, 142404, Note_off_c, 0, 99, 64
2, 142480, Note_on_c, 0, 99, 46
2, 142488, Note_off_c, 0, 100, 64
2, 142547, Note_off_c, 0, 99, 64
2, 142548, Note_on_c, 0, 87, 46
2, 142611, Note_on_c, 0, 70, 56
2, 142615, Note_off_c, 0, 87, 64
2, 142619, Note_on_c, 0, 79, 48
2, 142694, Note_off_c, 0, 70, 64
2, 142738, Note_off_c, 0, 79, 64
2, 142751, Note_on_c, 0, 73, 55
2, 142756, Note_on_c, 0, 82, 47
2, 142866, Note_off_c, 0, 73, 64
2, 142883, Note_off_c, 0, 82, 64
2, 142904, Note_on_c, 0, 78, 52
2, 142910, Note_on_c, 0, 87, 44
2, 142911, Control_c, 0, 64, 0
2, 142952, Note_off_c, 0, 78, 64
2, 142967, Note_off_c, 0, 87, 64
2, 143199, Control_c, 0, 64, 127
2, 143200, Note_on_c, 0, 56, 46
2, 143439, Note_off_c, 0, 56, 64
2, 143440, Note_on_c, 0, 63, 44
2, 143507, Note_off_c, 0, 63, 64
2, 143508, Note_on_c, 0, 71, 44
2, 143576, Note_off_c, 0, 71, 64
2, 143577, Note_on_c, 0, 80, 44
2, 143730, Note_off_c, 0, 80, 64
2, 143884, Note_on_c, 0, 75, 56
2, 143901, Note_off_c, 0, 75, 64
2, 143953, Note_on_c, 0, 87, 56
2, 144022, Note_off_c, 0, 87, 64
2, 144023, Note_on_c, 0, 88, 57
2, 144090, Note_off_c, 0, 88, 64
2, 144091, Note_on_c, 0, 87, 59
2, 144124, Note_off_c, 0, 87, 64
2, 144141, Note_on_c, 0, 87, 61
2, 144158, Note_off_c, 0, 87, 64
2, 144210, Note_on_c, 0, 99, 62
2, 144279, Note_off_c, 0, 99, 64
2, 144280, Note_on_c, 0, 100, 64
2, 144347, Note_off_c, 0, 100, 64
2, 144348, Note_on_c, 0, 99, 66
2, 144415, Note_off_c, 0, 99, 64
2, 144417, Note_on_c, 0, 87, 68
2, 144433, Note_off_c, 0, 87, 64
2, 144467, Note_on_c, 0, 99, 68
2, 144536, Note_off_c, 0, 99, 64
2, 144536, Note_on_c, 0, 100, 66
2, 144603, Note_off_c, 0, 100, 64
2, 144605, Note_on_c, 0, 99, 64
2, 144672, Note_off_c, 0, 99, 64
2, 144674, Note_on_c, 0, 85, 62
2, 144690, Note_off_c, 0, 85, 64
2, 144741, Note_on_c, 0, 97, 60
2, 144810, Note_off_c, 0, 97, 64
2, 144811, Note_on_c, 0, 99, 58
2, 144861, Note_off_c, 0, 99, 64
2, 144862, Note_on_c, 0, 97, 56
2, 144930, Note_off_c, 0, 97, 64
2, 144931, Control_c, 0, 64, 0
2, 144933, Note_on_c, 0, 83, 56
2, 144933, Note_on_c, 0, 44, 80
2, 144939, Note_on_c, 0, 32, 70
2, 144947, Note_off_c, 0, 83, 64
2, 144995, Note_off_c, 0, 32, 64
2, 144998, Note_off_c, 0, 44, 64
2, 145000, Note_on_c, 0, 95, 59
2, 145027, Control_c, 0, 64, 127
2, 145067, Note_off_c, 0, 95, 64
2, 145068, Note_on_c, 0, 97, 62
2, 145135, Note_off_c, 0, 97, 64
2, 145137, Note_on_c, 0, 95, 65
2, 145187, Note_off_c, 0, 95, 64
2, 145188, Note_on_c, 0, 63, 56
2, 145189, Note_on_c, 0, 83, 68
2, 145194, Note_on_c, 0, 59, 50
2, 145196, Note_on_c, 0, 51, 44
2, 145205, Note_off_c, 0, 83, 64
2, 145240, Note_off_c, 0, 63, 64
2, 145253, Note_off_c, 0, 59, 64
2, 145254, Note_off_c, 0, 51, 64
2, 145258, Note_on_c, 0, 95, 68
2, 145324, Note_off_c, 0, 95, 64
2, 145325, Note_on_c, 0, 97, 67
2, 145392, Note_off_c, 0, 97, 64
2, 145393, Note_on_c, 0, 95, 66
2, 145460, Note_off_c, 0, 95, 64
2, 145462, Note_on_c, 0, 82, 65
2, 145464, Note_on_c, 0, 63, 68
2, 145469, Note_on_c, 0, 56, 56
2, 145470, Note_on_c, 0, 59, 62
2, 145478, Note_off_c, 0, 82, 64
2, 145521, Note_off_c, 0, 56, 64
2, 145522, Note_off_c, 0, 63, 64
2, 145526, Note_off_c, 0, 59, 64
2, 145533, Note_on_c, 0, 94, 64
2, 145581, Note_off_c, 0, 94, 64
2, 145582, Note_on_c, 0, 95, 63
2, 145649, Note_off_c, 0, 95, 64
2, 145651, Note_on_c, 0, 94, 62
2, 145651, Control_c, 0, 64, 0
2, 145718, Note_off_c, 0, 94, 64
2, 145720, Note_on_c, 0, 80, 61
2, 145720, Note_on_c, 0, 47, 80
2, 145726, Note_on_c, 0, 35, 70
2, 145736, Note_off_c, 0, 80, 64
2, 145755, Control_c, 0, 64, 127
2, 145784, Note_off_c, 0, 35, 64
2, 145786, Note_off_c, 0, 47, 64
2, 145788, Note_on_c, 0, 92, 60
2, 145855, Note_off_c, 0, 92, 64
2, 145856, Note_on_c, 0, 94, 59
2, 145906, Note_off_c, 0, 94, 64
2, 145907, Note_on_c, 0, 92, 58
2, 145974, Note_off_c, 0, 92, 64
2, 145976, Note_on_c, 0, 63, 56
2, 145976, Note_on_c, 0, 79, 56
2, 145982, Note_on_c, 0, 59, 50
2, 145988, Note_on_c, 0, 51, 44
2, 146032, Note_off_c, 0, 63, 64
2, 146040, Note_off_c, 0, 59, 64
2, 146043, Note_off_c, 0, 51, 64
2, 146043, Note_off_c, 0, 79, 64
2, 146047, Note_on_c, 0, 91, 56
2, 146112, Note_off_c, 0, 91, 64
2, 146113, Note_on_c, 0, 92, 57
2, 146180, Note_off_c, 0, 92, 64
2, 146182, Note_on_c, 0, 91, 59
2, 146249, Note_off_c, 0, 91, 64
2, 146251, Note_on_c, 0, 63, 68
2, 146252, Note_on_c, 0, 80, 61
2, 146258, Note_on_c, 0, 56, 56
2, 146260, Note_on_c, 0, 59, 62
2, 146268, Note_off_c, 0, 80, 64
2, 146304, Note_off_c, 0, 63, 64
2, 146314, Note_off_c, 0, 59, 64
2, 146316, Note_off_c, 0, 56, 64
2, 146321, Note_on_c, 0, 92, 62
2, 146387, Note_off_c, 0, 92, 64
2, 146388, Note_on_c, 0, 94, 64
2, 146455, Note_off_c, 0, 94, 64
2, 146456, Note_on_c, 0, 92, 66
2, 146523, Note_off_c, 0, 92, 64
2, 146525, Control_c, 0, 64, 0
2, 146528, Note_on_c, 0, 82, 92
2, 146528, Note_on_c, 0, 51, 80
2, 146534, Note_on_c, 0, 39, 70
2, 146584, Note_off_c, 0, 39, 64
2, 146594, Note_off_c, 0, 82, 64
2, 146594, Note_off_c, 0, 51, 64
2, 146595, Note_on_c, 0, 94, 68
2, 146616, Control_c, 0, 64, 127
2, 146644, Note_off_c, 0, 94, 64
2, 146645, Note_on_c, 0, 95, 68
2, 146712, Note_off_c, 0, 95, 64
2, 146713, Note_on_c, 0, 94, 67
2, 146780, Note_off_c, 0, 94, 64
2, 146783, Note_on_c, 0, 75, 67
2, 146785, Note_on_c, 0, 67, 56
2, 146788, Note_on_c, 0, 55, 44
2, 146790, Note_on_c, 0, 63, 50
2, 146799, Note_off_c, 0, 75, 64
2, 146836, Note_off_c, 0, 55, 64
2, 146842, Note_off_c, 0, 63, 64
2, 146843, Note_off_c, 0, 67, 64
2, 146853, Note_on_c, 0, 87, 66
2, 146918, Note_off_c, 0, 87, 64
2, 146919, Note_on_c, 0, 88, 66
2, 146986, Note_off_c, 0, 88, 64
2, 146988, Note_on_c, 0, 87, 65
2, 147038, Note_off_c, 0, 87, 64
2, 147039, Note_on_c, 0, 75, 65
2, 147041, Note_on_c, 0, 67, 68
2, 147045, Note_on_c, 0, 63, 62
2, 147047, Note_on_c, 0, 58, 56
2, 147055, Note_off_c, 0, 75, 64
2, 147093, Note_off_c, 0, 63, 64
2, 147095, Note_off_c, 0, 58, 64
2, 147103, Note_off_c, 0, 67, 64
2, 147110, Note_on_c, 0, 87, 64
2, 147175, Note_off_c, 0, 87, 64
2, 147176, Note_on_c, 0, 88, 64
2, 147244, Note_off_c, 0, 88, 64
2, 147245, Note_on_c, 0, 87, 63
2, 147246, Control_c, 0, 64, 0
2, 147312, Note_off_c, 0, 87, 64
2, 147313, Note_on_c, 0, 76, 62
2, 147313, Note_on_c, 0, 43, 80
2, 147329, Note_off_c, 0, 76, 64
2, 147348, Control_c, 0, 64, 127
2, 147363, Note_off_c, 0, 43, 64
2, 147364, Note_on_c, 0, 88, 62
2, 147431, Note_off_c, 0, 88, 64
2, 147433, Note_on_c, 0, 90, 61
2, 147500, Note_off_c, 0, 90, 64
2, 147502, Note_on_c, 0, 88, 61
2, 147569, Note_off_c, 0, 88, 64
2, 147570, Note_on_c, 0, 75, 60
2, 147572, Note_on_c, 0, 70, 56
2, 147577, Note_on_c, 0, 63, 50
2, 147578, Note_on_c, 0, 61, 44
2, 147586, Note_off_c, 0, 75, 64
2, 147627, Note_off_c, 0, 70, 64
2, 147629, Note_off_c, 0, 61, 64
2, 147631, Note_off_c, 0, 63, 64
2, 147640, Note_on_c, 0, 87, 60
2, 147706, Note_off_c, 0, 87, 64
2, 147707, Note_on_c, 0, 88, 59
2, 147757, Note_off_c, 0, 88, 64
2, 147758, Note_on_c, 0, 87, 59
2, 147826, Note_off_c, 0, 87, 64
2, 147829, Note_on_c, 0, 73, 58
2, 147830, Note_on_c, 0, 70, 68
2, 147834, Note_on_c, 0, 58, 56
2, 147835, Note_on_c, 0, 63, 62
2, 147845, Note_off_c, 0, 73, 64
2, 147884, Note_off_c, 0, 63, 64
2, 147885, Note_off_c, 0, 70, 64
2, 147889, Note_off_c, 0, 58, 64
2, 147897, Note_on_c, 0, 85, 58
2, 147964, Note_on_c, 0, 87, 57
2, 147976, Note_off_c, 0, 85, 64
2, 148033, Note_on_c, 0, 85, 56
2, 148039, Note_off_c, 0, 87, 64
2, 148084, Note_off_c, 0, 85, 64
2, 148085, Note_on_c, 0, 71, 56
2, 148085, Note_on_c, 0, 44, 80
2, 148101, Note_off_c, 0, 71, 64
2, 148152, Note_off_c, 0, 44, 64
2, 148153, Note_on_c, 0, 83, 59
2, 148221, Note_on_c, 0, 85, 62
2, 148223, Note_off_c, 0, 83, 64
2, 148290, Note_on_c, 0, 83, 65
2, 148293, Note_off_c, 0, 85, 64
2, 148359, Note_on_c, 0, 71, 68
2, 148359, Note_on_c, 0, 68, 58
2, 148359, Note_on_c, 0, 63, 51
2, 148370, Note_off_c, 0, 83, 64
2, 148375, Note_off_c, 0, 71, 64
2, 148408, Note_off_c, 0, 68, 64
2, 148409, Note_off_c, 0, 63, 64
2, 148410, Note_on_c, 0, 83, 68
2, 148478, Note_on_c, 0, 85, 67
2, 148490, Note_off_c, 0, 83, 64
2, 148547, Note_on_c, 0, 83, 66
2, 148558, Note_off_c, 0, 85, 64
2, 148616, Note_on_c, 0, 70, 65
2, 148616, Note_on_c, 0, 63, 56
2, 148616, Note_on_c, 0, 59, 44
2, 148624, Note_off_c, 0, 83, 64
2, 148632, Note_off_c, 0, 70, 64
2, 148682, Note_off_c, 0, 63, 64
2, 148683, Note_off_c, 0, 59, 64
2, 148685, Note_on_c, 0, 82, 64
2, 148752, Note_on_c, 0, 83, 63
2, 148765, Note_off_c, 0, 82, 64
2, 148804, Note_on_c, 0, 82, 62
2, 148812, Note_off_c, 0, 83, 64
2, 148873, Note_off_c, 0, 82, 64
2, 148873, Note_on_c, 0, 68, 61
2, 148873, Note_on_c, 0, 40, 80
2, 148889, Note_off_c, 0, 68, 64
2, 148939, Note_off_c, 0, 40, 64
2, 148941, Note_on_c, 0, 80, 60
2, 149010, Note_off_c, 0, 80, 64
2, 149010, Note_on_c, 0, 82, 59
2, 149078, Note_on_c, 0, 80, 58
2, 149082, Note_off_c, 0, 82, 64
2, 149128, Note_off_c, 0, 80, 64
2, 149131, Note_on_c, 0, 67, 56
2, 149131, Note_on_c, 0, 62, 48
2, 149131, Note_on_c, 0, 59, 44
2, 149198, Note_off_c, 0, 67, 64
2, 149199, Note_off_c, 0, 59, 64
2, 149199, Note_off_c, 0, 62, 64
2, 149200, Note_on_c, 0, 79, 56
2, 149267, Note_on_c, 0, 80, 57
2, 149272, Note_off_c, 0, 79, 64
2, 149335, Note_on_c, 0, 79, 59
2, 149341, Note_off_c, 0, 80, 64
2, 149405, Note_on_c, 0, 68, 61
2, 149405, Note_on_c, 0, 62, 68
2, 149405, Note_on_c, 0, 58, 56
2, 149407, Note_off_c, 0, 79, 64
2, 149421, Note_off_c, 0, 68, 64
2, 149471, Note_off_c, 0, 58, 64
2, 149472, Note_off_c, 0, 62, 64
2, 149474, Note_on_c, 0, 80, 62
2, 149524, Note_on_c, 0, 82, 64
2, 149527, Note_off_c, 0, 80, 64
2, 149592, Note_on_c, 0, 80, 66
2, 149598, Note_off_c, 0, 82, 64
2, 149661, Control_c, 0, 64, 0
2, 149663, Note_on_c, 0, 70, 92
2, 149663, Note_on_c, 0, 39, 80
2, 149666, Note_off_c, 0, 80, 64
2, 149728, Note_off_c, 0, 70, 64
2, 149729, Note_off_c, 0, 39, 64
2, 149730, Note_on_c, 0, 82, 68
2, 149763, Control_c, 0, 64, 127
2, 149798, Note_off_c, 0, 82, 64
2, 149798, Note_on_c, 0, 83, 64
2, 149849, Note_on_c, 0, 82, 60
2, 149854, Note_off_c, 0, 83, 64
2, 149919, Note_on_c, 0, 58, 56
2, 149919, Note_on_c, 0, 63, 58
2, 149919, Note_on_c, 0, 55, 48
2, 149923, Note_off_c, 0, 82, 64
2, 149935, Note_off_c, 0, 63, 64
2, 149986, Note_off_c, 0, 55, 64
2, 149986, Note_off_c, 0, 58, 64
2, 149987, Note_on_c, 0, 75, 56
2, 150055, Note_on_c, 0, 76, 57
2, 150060, Note_off_c, 0, 75, 64
2, 150123, Note_off_c, 0, 76, 64
2, 150124, Note_on_c, 0, 75, 59
2, 150157, Note_off_c, 0, 75, 64
2, 150192, Note_on_c, 0, 75, 61
2, 150192, Note_on_c, 0, 67, 56
2, 150192, Note_on_c, 0, 70, 56
2, 150209, Note_off_c, 0, 75, 64
2, 150259, Note_off_c, 0, 70, 64
2, 150259, Note_off_c, 0, 67, 64
2, 150261, Note_on_c, 0, 87, 62
2, 150328, Note_off_c, 0, 87, 64
2, 150329, Note_on_c, 0, 88, 64
2, 150397, Note_off_c, 0, 88, 64
2, 150398, Note_on_c, 0, 87, 66
2, 150465, Note_off_c, 0, 87, 64
2, 150467, Control_c, 0, 64, 0
2, 150468, Note_on_c, 0, 82, 80
2, 150468, Note_on_c, 0, 87, 68
2, 150468, Note_on_c, 0, 79, 80
2, 150483, Note_off_c, 0, 87, 64
2, 150533, Note_off_c, 0, 79, 64
2, 150534, Note_off_c, 0, 82, 64
2, 150537, Note_on_c, 0, 99, 68
2, 150586, Note_off_c, 0, 99, 64
2, 150587, Note_on_c, 0, 100, 67
2, 150654, Note_off_c, 0, 100, 64
2, 150655, Note_on_c, 0, 99, 66
2, 150722, Note_off_c, 0, 99, 64
2, 150724, Note_on_c, 0, 87, 65
2, 150740, Note_off_c, 0, 87, 64
2, 150791, Note_on_c, 0, 99, 64
2, 150860, Note_off_c, 0, 99, 64
2, 150861, Note_on_c, 0, 100, 63
2, 150928, Note_off_c, 0, 100, 64
2, 150929, Note_on_c, 0, 99, 62
2, 150979, Note_off_c, 0, 99, 64
2, 150981, Note_on_c, 0, 85, 61
2, 150997, Note_off_c, 0, 85, 64
2, 151048, Note_on_c, 0, 97, 60
2, 151117, Note_off_c, 0, 97, 64
2, 151118, Note_on_c, 0, 99, 59
2, 151185, Note_off_c, 0, 99, 64
2, 151187, Note_on_c, 0, 97, 58
2, 151254, Note_off_c, 0, 97, 64
2, 151255, Control_c, 0, 64, 127
2, 151256, Note_on_c, 0, 44, 80
2, 151256, Note_on_c, 0, 84, 56
2, 151271, Note_off_c, 0, 84, 64
2, 151304, Note_off_c, 0, 44, 64
2, 151306, Note_on_c, 0, 96, 56
2, 151374, Note_off_c, 0, 96, 64
2, 151375, Note_on_c, 0, 97, 60
2, 151442, Note_off_c, 0, 97, 64
2, 151444, Note_on_c, 0, 96, 64
2, 151511, Note_off_c, 0, 96, 64
2, 151511, Note_on_c, 0, 66, 68
2, 151513, Note_on_c, 0, 57, 56
2, 151513, Note_on_c, 0, 63, 62
2, 151513, Note_on_c, 0, 84, 68
2, 151529, Note_off_c, 0, 84, 64
2, 151578, Note_off_c, 0, 66, 64
2, 151583, Note_on_c, 0, 96, 68
2, 151584, Note_off_c, 0, 63, 64
2, 151593, Note_off_c, 0, 57, 64
2, 151648, Note_off_c, 0, 96, 64
2, 151649, Note_on_c, 0, 97, 68
2, 151699, Note_off_c, 0, 97, 64
2, 151700, Note_on_c, 0, 96, 67
2, 151767, Note_off_c, 0, 96, 64
2, 151769, Note_on_c, 0, 66, 56
2, 151770, Note_on_c, 0, 63, 50
2, 151770, Note_on_c, 0, 81, 67
2, 151771, Note_on_c, 0, 60, 44
2, 151786, Note_off_c, 0, 81, 64
2, 151836, Note_off_c, 0, 66, 64
2, 151840, Note_on_c, 0, 93, 66
2, 151843, Note_off_c, 0, 63, 64
2, 151847, Note_off_c, 0, 60, 64
2, 151905, Note_off_c, 0, 93, 64
2, 151906, Note_on_c, 0, 95, 66
2, 151974, Note_off_c, 0, 95, 64
2, 151975, Note_on_c, 0, 93, 65
2, 152025, Note_off_c, 0, 93, 64
2, 152026, Control_c, 0, 64, 0
2, 152027, Control_c, 0, 64, 127
2, 152029, Note_on_c, 0, 80, 65
2, 152029, Note_on_c, 0, 48, 80
2, 152043, Note_off_c, 0, 80, 64
2, 152093, Note_off_c, 0, 48, 64
2, 152095, Note_on_c, 0, 92, 64
2, 152162, Note_off_c, 0, 92, 64
2, 152164, Note_on_c, 0, 93, 64
2, 152231, Note_off_c, 0, 93, 64
2, 152232, Note_on_c, 0, 92, 63
2, 152299, Note_off_c, 0, 92, 64
2, 152301, Note_on_c, 0, 63, 62
2, 152301, Note_on_c, 0, 66, 68
2, 152301, Note_on_c, 0, 57, 56
2, 152302, Note_on_c, 0, 80, 62
2, 152318, Note_off_c, 0, 80, 64
2, 152353, Note_off_c, 0, 66, 64
2, 152353, Note_off_c, 0, 63, 64
2, 152353, Note_on_c, 0, 92, 62
2, 152357, Note_off_c, 0, 57, 64
2, 152419, Note_off_c, 0, 92, 64
2, 152421, Note_on_c, 0, 93, 61
2, 152488, Note_off_c, 0, 93, 64
2, 152489, Note_on_c, 0, 92, 61
2, 152556, Note_off_c, 0, 92, 64
2, 152557, Note_on_c, 0, 66, 56
2, 152558, Note_on_c, 0, 63, 50
2, 152559, Note_on_c, 0, 60, 44
2, 152559, Note_on_c, 0, 78, 60
2, 152575, Note_off_c, 0, 78, 64
2, 152625, Note_off_c, 0, 63, 64
2, 152627, Note_off_c, 0, 60, 64
2, 152627, Note_off_c, 0, 66, 64
2, 152628, Note_on_c, 0, 90, 60
2, 152694, Note_off_c, 0, 90, 64
2, 152695, Note_on_c, 0, 92, 59
2, 152745, Note_off_c, 0, 92, 64
2, 152746, Note_on_c, 0, 90, 59
2, 152813, Note_off_c, 0, 90, 64
2, 152815, Control_c, 0, 64, 0
2, 152816, Note_on_c, 0, 49, 56
2, 152816, Note_on_c, 0, 76, 58
2, 152832, Note_off_c, 0, 76, 64
2, 152881, Note_off_c, 0, 49, 64
2, 152883, Note_on_c, 0, 88, 58
2, 152951, Note_off_c, 0, 88, 64
2, 152952, Note_on_c, 0, 90, 57
2, 153019, Note_off_c, 0, 90, 64
2, 153021, Note_on_c, 0, 88, 56
2, 153071, Note_off_c, 0, 88, 64
2, 153073, Note_on_c, 0, 73, 56
2, 153073, Note_on_c, 0, 64, 56
2, 153079, Note_on_c, 0, 69, 46
2, 153089, Note_off_c, 0, 73, 64
2, 153139, Note_on_c, 0, 85, 58
2, 153208, Note_off_c, 0, 85, 64
2, 153209, Note_on_c, 0, 87, 60
2, 153238, Note_off_c, 0, 69, 64
2, 153276, Note_off_c, 0, 87, 64
2, 153277, Note_off_c, 0, 64, 64
2, 153279, Note_on_c, 0, 85, 62
2, 153345, Note_off_c, 0, 85, 64
2, 153347, Note_on_c, 0, 75, 64
2, 153347, Note_on_c, 0, 60, 64
2, 153353, Note_on_c, 0, 69, 54
2, 153363, Note_off_c, 0, 75, 64
2, 153413, Note_on_c, 0, 87, 66
2, 153465, Note_off_c, 0, 87, 64
2, 153466, Note_on_c, 0, 88, 68
2, 153520, Note_off_c, 0, 69, 64
2, 153533, Note_off_c, 0, 88, 64
2, 153534, Note_off_c, 0, 60, 64
2, 153536, Note_on_c, 0, 87, 70
2, 153601, Note_off_c, 0, 87, 64
2, 153604, Note_on_c, 0, 76, 72
2, 153604, Note_on_c, 0, 61, 72
2, 153610, Note_on_c, 0, 69, 62
2, 153620, Note_off_c, 0, 76, 64
2, 153670, Note_on_c, 0, 88, 74
2, 153739, Note_off_c, 0, 88, 64
2, 153740, Note_on_c, 0, 90, 76
2, 153779, Note_off_c, 0, 69, 64
2, 153790, Note_off_c, 0, 90, 64
2, 153792, Note_off_c, 0, 61, 64
2, 153793, Note_on_c, 0, 88, 78
2, 153858, Note_off_c, 0, 88, 64
2, 153861, Note_on_c, 0, 75, 80
2, 153861, Note_on_c, 0, 66, 80
2, 153867, Note_on_c, 0, 69, 70
2, 153877, Note_off_c, 0, 75, 64
2, 153927, Note_on_c, 0, 87, 80
2, 153996, Note_off_c, 0, 87, 64
2, 153997, Note_on_c, 0, 88, 77
2, 154038, Note_off_c, 0, 69, 64
2, 154064, Note_off_c, 0, 88, 64
2, 154066, Note_off_c, 0, 66, 64
2, 154067, Note_on_c, 0, 87, 74
2, 154133, Note_off_c, 0, 87, 64
2, 154135, Note_on_c, 0, 73, 70
2, 154135, Note_on_c, 0, 64, 68
2, 154141, Note_on_c, 0, 69, 58
2, 154151, Note_off_c, 0, 73, 64
2, 154184, Note_on_c, 0, 85, 67
2, 154252, Note_off_c, 0, 85, 64
2, 154254, Note_on_c, 0, 87, 63
2, 154293, Note_off_c, 0, 69, 64
2, 154321, Note_off_c, 0, 87, 64
2, 154322, Note_off_c, 0, 64, 64
2, 154324, Note_on_c, 0, 85, 60
2, 154390, Note_off_c, 0, 85, 64
2, 154390, Note_on_c, 0, 63, 38
2, 154391, Control_c, 0, 64, 127
2, 154393, Note_on_c, 0, 75, 56
2, 154394, Note_on_c, 0, 68, 46
2, 154395, Note_on_c, 0, 71, 58
2, 154460, Note_off_c, 0, 75, 64
2, 154460, Note_on_c, 0, 87, 56
2, 154491, Note_off_c, 0, 68, 64
2, 154494, Note_off_c, 0, 63, 64
2, 154504, Note_off_c, 0, 71, 64
2, 154510, Note_off_c, 0, 87, 64
2, 154514, Note_on_c, 0, 76, 58
2, 154580, Note_on_c, 0, 77, 58
2, 154589, Note_off_c, 0, 76, 64
2, 154648, Note_on_c, 0, 78, 58
2, 154662, Note_off_c, 0, 77, 64
2, 154717, Note_on_c, 0, 79, 59
2, 154726, Note_off_c, 0, 78, 64
2, 154786, Note_on_c, 0, 80, 59
2, 154795, Note_off_c, 0, 79, 64
2, 154854, Note_on_c, 0, 81, 60
2, 154864, Note_off_c, 0, 80, 64
2, 154905, Note_on_c, 0, 82, 60
2, 154910, Note_off_c, 0, 81, 64
2, 154974, Note_on_c, 0, 83, 60
2, 154976, Note_off_c, 0, 82, 64
2, 155042, Note_on_c, 0, 84, 61
2, 155051, Note_off_c, 0, 83, 64
2, 155111, Note_on_c, 0, 85, 61
2, 155116, Note_off_c, 0, 84, 64
2, 155179, Note_on_c, 0, 86, 62
2, 155194, Note_off_c, 0, 85, 64
2, 155231, Note_on_c, 0, 87, 62
2, 155235, Note_off_c, 0, 86, 64
2, 155300, Note_on_c, 0, 88, 63
2, 155305, Note_off_c, 0, 87, 64
2, 155368, Note_on_c, 0, 89, 63
2, 155381, Note_off_c, 0, 88, 64
2, 155436, Note_on_c, 0, 90, 64
2, 155452, Note_off_c, 0, 89, 64
2, 155506, Note_on_c, 0, 91, 64
2, 155509, Note_off_c, 0, 90, 64
2, 155574, Note_on_c, 0, 92, 65
2, 155583, Note_off_c, 0, 91, 64
2, 155626, Note_on_c, 0, 93, 65
2, 155631, Note_off_c, 0, 92, 64
2, 155694, Note_on_c, 0, 94, 65
2, 155703, Note_off_c, 0, 93, 64
2, 155762, Note_on_c, 0, 95, 66
2, 155778, Note_off_c, 0, 94, 64
2, 155831, Note_on_c, 0, 96, 66
2, 155835, Note_off_c, 0, 95, 64
2, 155900, Note_on_c, 0, 97, 67
2, 155904, Note_off_c, 0, 96, 64
2, 155951, Control_c, 0, 64, 0
2, 155953, Note_on_c, 0, 98, 67
2, 155953, Note_on_c, 0, 51, 62
2, 155957, Note_off_c, 0, 97, 64
2, 156020, Note_on_c, 0, 99, 68
2, 156020, Note_on_c, 0, 61, 68
2, 156023, Note_off_c, 0, 98, 64
2, 156088, Control_c, 0, 64, 127
2, 156089, Note_on_c, 0, 102, 68
2, 156089, Note_on_c, 0, 67, 78
2, 156095, Note_off_c, 0, 99, 64
2, 156156, Note_on_c, 0, 100, 65
2, 156166, Note_off_c, 0, 102, 64
2, 156225, Note_off_c, 0, 51, 64
2, 156225, Note_off_c, 0, 61, 64
2, 156226, Note_off_c, 0, 67, 64
2, 156228, Note_on_c, 0, 97, 64
2, 156238, Note_off_c, 0, 100, 64
2, 156294, Note_on_c, 0, 94, 63
2, 156301, Note_off_c, 0, 97, 64
2, 156345, Note_on_c, 0, 91, 62
2, 156352, Note_off_c, 0, 94, 64
2, 156414, Note_on_c, 0, 86, 61
2, 156421, Note_off_c, 0, 91, 64
2, 156482, Note_on_c, 0, 87, 60
2, 156494, Note_off_c, 0, 86, 64
2, 156549, Note_off_c, 0, 87, 64
2, 156551, Note_on_c, 0, 90, 59
2, 156619, Note_on_c, 0, 88, 58
2, 156623, Note_off_c, 0, 90, 64
2, 156671, Note_on_c, 0, 85, 57
2, 156673, Note_off_c, 0, 88, 64
2, 156739, Note_on_c, 0, 82, 56
2, 156748, Note_off_c, 0, 85, 64
2, 156808, Note_on_c, 0, 79, 55
2, 156820, Note_off_c, 0, 82, 64
2, 156876, Note_on_c, 0, 76, 54
2, 156882, Note_off_c, 0, 79, 64
2, 156945, Note_on_c, 0, 73, 53
2, 156950, Note_off_c, 0, 76, 64
2, 156996, Note_on_c, 0, 70, 52
2, 156997, Note_off_c, 0, 73, 64
2, 157065, Note_on_c, 0, 67, 51
2, 157077, Note_off_c, 0, 70, 64
2, 157134, Note_on_c, 0, 64, 50
2, 157137, Note_off_c, 0, 67, 64
2, 157202, Note_on_c, 0, 61, 49
2, 157206, Note_off_c, 0, 64, 64
2, 157271, Note_on_c, 0, 58, 48
2, 157278, Note_off_c, 0, 61, 64
2, 157339, Control_c, 0, 64, 0
2, 157341, Note_on_c, 0, 55, 47
2, 157348, Note_off_c, 0, 58, 64
2, 157391, Note_on_c, 0, 44, 44
2, 157399, Note_off_c, 0, 55, 64
2, 157442, Note_on_c, 0, 51, 44
2, 157445, Control_c, 0, 64, 127
2, 157450, Note_off_c, 0, 44, 64
2, 157476, Note_on_c, 0, 56, 44
2, 157482, Note_off_c, 0, 51, 64
2, 157528, Note_on_c, 0, 59, 44
2, 157533, Note_off_c, 0, 56, 64
2, 157579, Note_on_c, 0, 63, 44
2, 157583, Note_off_c, 0, 59, 64
2, 157613, Note_on_c, 0, 68, 45
2, 157616, Note_off_c, 0, 63, 64
2, 157665, Note_on_c, 0, 71, 44
2, 157669, Note_off_c, 0, 68, 64
2, 157699, Note_on_c, 0, 75, 44
2, 157703, Note_off_c, 0, 71, 64
2, 157751, Note_on_c, 0, 80, 44
2, 157757, Note_off_c, 0, 75, 64
2, 157785, Note_on_c, 0, 83, 51
2, 157788, Note_off_c, 0, 80, 64
2, 157836, Note_on_c, 0, 87, 53
2, 157842, Note_off_c, 0, 83, 64
2, 157871, Note_on_c, 0, 95, 54
2, 157873, Note_off_c, 0, 87, 64
2, 157922, Note_on_c, 0, 92, 56
2, 157922, Control_c, 0, 64, 0
2, 157932, Note_off_c, 0, 95, 64
2, 158000, Note_off_c, 0, 92, 64
2, 159356, Note_on_c, 0, 83, 68
2, 159362, Note_on_c, 0, 71, 58
2, 159362, Note_on_c, 0, 68, 53
2, 159407, Note_off_c, 0, 83, 64
2, 159413, Note_off_c, 0, 71, 64
2, 159414, Note_off_c, 0, 68, 64
2, 159475, Note_on_c, 0, 83, 68
2, 159482, Note_on_c, 0, 71, 59
2, 159482, Note_on_c, 0, 70, 64
2, 159484, Note_on_c, 0, 67, 61
2, 159543, Note_off_c, 0, 83, 64
2, 159550, Note_off_c, 0, 71, 64
2, 159551, Note_off_c, 0, 70, 64
2, 159552, Note_off_c, 0, 67, 64
2, 159594, Note_on_c, 0, 83, 74
2, 159602, Note_on_c, 0, 71, 65
2, 159602, Note_on_c, 0, 69, 70
2, 159604, Note_on_c, 0, 66, 67
2, 159663, Note_off_c, 0, 83, 64
2, 159670, Note_off_c, 0, 71, 64
2, 159671, Note_off_c, 0, 69, 64
2, 159672, Note_off_c, 0, 66, 64
2, 159714, Note_on_c, 0, 83, 80
2, 159722, Note_on_c, 0, 71, 71
2, 159723, Note_on_c, 0, 68, 76
2, 159724, Note_on_c, 0, 65, 73
2, 159783, Note_off_c, 0, 83, 64
2, 159790, Note_off_c, 0, 71, 64
2, 159792, Note_off_c, 0, 68, 64
2, 159792, Note_off_c, 0, 65, 64
2, 159851, Note_on_c, 0, 83, 86
2, 159859, Note_on_c, 0, 71, 77
2, 159859, Note_on_c, 0, 67, 82
2, 159860, Note_on_c, 0, 64, 79
2, 159903, Note_off_c, 0, 83, 64
2, 159910, Note_off_c, 0, 71, 64
2, 159911, Note_off_c, 0, 64, 64
2, 159912, Note_off_c, 0, 67, 64
2, 159973, Note_on_c, 0, 83, 92
2, 159977, Control_c, 0, 64, 127
2, 159979, Note_on_c, 0, 47, 92
2, 160040, Note_off_c, 0, 83, 64
2, 160047, Note_off_c, 0, 47, 64
2, 160098, Note_on_c, 0, 66, 74
2, 160099, Note_on_c, 0, 63, 63
2, 160207, Note_off_c, 0, 66, 64
2, 160225, Note_off_c, 0, 63, 64
2, 160236, Note_on_c, 0, 78, 89
2, 160238, Note_on_c, 0, 71, 78
2, 160239, Note_on_c, 0, 59, 89
2, 160240, Note_on_c, 0, 54, 84
2, 160280, Note_off_c, 0, 71, 64
2, 160281, Note_off_c, 0, 59, 64
2, 160286, Note_off_c, 0, 78, 64
2, 160288, Note_off_c, 0, 54, 64
2, 160354, Note_on_c, 0, 63, 57
2, 160355, Note_on_c, 0, 66, 68
2, 160451, Note_off_c, 0, 66, 64
2, 160459, Note_off_c, 0, 63, 64
2, 160477, Note_on_c, 0, 83, 89
2, 160477, Note_on_c, 0, 47, 77
2, 160544, Note_off_c, 0, 83, 64
2, 160544, Note_off_c, 0, 47, 64
2, 160612, Note_on_c, 0, 63, 51
2, 160612, Note_on_c, 0, 66, 62
2, 160724, Note_off_c, 0, 66, 64
2, 160725, Note_off_c, 0, 63, 64
2, 160734, Control_c, 0, 64, 0
2, 160736, Note_on_c, 0, 42, 80
2, 160736, Note_on_c, 0, 85, 98
2, 160800, Note_off_c, 0, 42, 64
2, 160800, Note_off_c, 0, 85, 64
2, 160851, Note_on_c, 0, 66, 74
2, 160852, Note_on_c, 0, 64, 63
2, 160884, Control_c, 0, 64, 127
2, 160961, Note_off_c, 0, 66, 64
2, 160974, Note_off_c, 0, 64, 64
2, 160992, Note_on_c, 0, 58, 89
2, 160992, Note_on_c, 0, 73, 78
2, 160992, Note_on_c, 0, 54, 84
2, 160992, Note_on_c, 0, 78, 89
2, 161036, Note_off_c, 0, 58, 64
2, 161038, Note_off_c, 0, 73, 64
2, 161041, Note_off_c, 0, 78, 64
2, 161043, Note_off_c, 0, 54, 64
2, 161107, Note_on_c, 0, 66, 68
2, 161109, Note_on_c, 0, 64, 57
2, 161205, Note_off_c, 0, 66, 64
2, 161215, Note_off_c, 0, 64, 64
2, 161231, Note_on_c, 0, 42, 77
2, 161231, Note_on_c, 0, 85, 89
2, 161297, Note_off_c, 0, 85, 64
2, 161298, Note_off_c, 0, 42, 64
2, 161350, Note_on_c, 0, 66, 62
2, 161351, Note_on_c, 0, 64, 51
2, 161469, Note_off_c, 0, 66, 64
2, 161474, Note_off_c, 0, 64, 64
2, 161478, Note_on_c, 0, 87, 74
2, 161488, Control_c, 0, 64, 0
2, 161490, Note_on_c, 0, 47, 62
2, 161526, Note_off_c, 0, 87, 64
2, 161605, Note_off_c, 0, 47, 64
2, 161607, Note_on_c, 0, 63, 57
2, 161607, Note_on_c, 0, 66, 68
2, 161626, Control_c, 0, 64, 127
2, 161674, Note_off_c, 0, 63, 64
2, 161675, Note_off_c, 0, 66, 64
2, 161725, Note_on_c, 0, 54, 68
2, 161727, Note_on_c, 0, 75, 74
2, 161794, Note_off_c, 0, 54, 64
2, 161795, Note_off_c, 0, 75, 64
2, 161863, Note_on_c, 0, 83, 80
2, 161863, Note_on_c, 0, 47, 74
2, 161915, Note_off_c, 0, 83, 64
2, 161915, Note_off_c, 0, 47, 64
2, 161983, Note_on_c, 0, 42, 80
2, 161983, Note_on_c, 0, 87, 86
2, 162052, Note_off_c, 0, 42, 64
2, 162052, Note_off_c, 0, 87, 64
2, 162102, Note_on_c, 0, 35, 86
2, 162104, Note_on_c, 0, 95, 92
2, 162171, Note_off_c, 0, 35, 64
2, 162173, Note_off_c, 0, 95, 64
2, 162240, Control_c, 0, 64, 0
2, 162479, Note_on_c, 0, 87, 68
2, 162481, Note_on_c, 0, 71, 62
2, 162483, Note_on_c, 0, 75, 56
2, 162545, Note_off_c, 0, 71, 64
2, 162549, Note_off_c, 0, 75, 64
2, 162553, Note_off_c, 0, 87, 64
2, 162600, Note_on_c, 0, 71, 62
2, 162600, Note_on_c, 0, 75, 56
2, 162601, Note_on_c, 0, 74, 68
2, 162601, Note_on_c, 0, 87, 68
2, 162664, Note_off_c, 0, 87, 64
2, 162673, Note_off_c, 0, 75, 64
2, 162735, Note_off_c, 0, 74, 64
2, 162740, Note_on_c, 0, 70, 78
2, 162740, Note_on_c, 0, 87, 74
2, 162740, Note_on_c, 0, 75, 62
2, 162741, Note_on_c, 0, 73, 74
2, 162742, Note_off_c, 0, 71, 64
2, 162790, Note_off_c, 0, 70, 64
2, 162793, Note_off_c, 0, 75, 64
2, 162793, Note_off_c, 0, 73, 64
2, 162794, Note_off_c, 0, 87, 64
2, 162858, Note_on_c, 0, 69, 86
2, 162858, Note_on_c, 0, 72, 80
2, 162858, Note_on_c, 0, 87, 80
2, 162859, Note_on_c, 0, 75, 68
2, 162923, Note_off_c, 0, 69, 64
2, 162925, Note_off_c, 0, 75, 64
2, 162927, Note_off_c, 0, 72, 64
2, 162932, Note_off_c, 0, 87, 64
2, 162976, Note_on_c, 0, 71, 86
2, 162977, Note_on_c, 0, 75, 74
2, 162978, Note_on_c, 0, 68, 88
2, 162978, Note_on_c, 0, 87, 86
2, 163042, Note_off_c, 0, 71, 64
2, 163042, Note_off_c, 0, 68, 64
2, 163045, Note_off_c, 0, 75, 64
2, 163052, Note_off_c, 0, 87, 64
2, 163114, Note_on_c, 0, 87, 92
2, 163114, Note_on_c, 0, 51, 92
2, 163114, Control_c, 0, 64, 127
2, 163163, Note_off_c, 0, 87, 64
2, 163165, Note_off_c, 0, 51, 64
2, 163230, Note_on_c, 0, 66, 80
2, 163234, Note_on_c, 0, 70, 86
2, 163335, Note_off_c, 0, 70, 64
2, 163349, Note_off_c, 0, 66, 64
2, 163357, Note_on_c, 0, 63, 83
2, 163357, Note_on_c, 0, 58, 77
2, 163357, Note_on_c, 0, 75, 77
2, 163359, Note_on_c, 0, 82, 89
2, 163420, Note_off_c, 0, 63, 64
2, 163420, Note_off_c, 0, 58, 64
2, 163427, Note_off_c, 0, 75, 64
2, 163431, Note_off_c, 0, 82, 64
2, 163470, Note_on_c, 0, 66, 74
2, 163477, Note_on_c, 0, 70, 80
2, 163594, Note_off_c, 0, 66, 64
2, 163608, Note_on_c, 0, 87, 89
2, 163611, Note_off_c, 0, 70, 64
2, 163615, Note_on_c, 0, 51, 83
2, 163659, Note_off_c, 0, 87, 64
2, 163664, Note_off_c, 0, 51, 64
2, 163732, Note_on_c, 0, 70, 74
2, 163735, Note_on_c, 0, 66, 68
2, 163828, Note_off_c, 0, 70, 64
2, 163841, Note_off_c, 0, 66, 64
2, 163851, Note_on_c, 0, 89, 98
2, 163853, Control_c, 0, 64, 0
2, 163854, Note_on_c, 0, 46, 92
2, 163918, Note_off_c, 0, 46, 64
2, 163920, Note_off_c, 0, 89, 64
2, 163990, Note_on_c, 0, 70, 86
2, 163994, Note_on_c, 0, 68, 80
2, 163998, Control_c, 0, 64, 127
2, 164099, Note_off_c, 0, 68, 64
2, 164106, Note_off_c, 0, 70, 64
2, 164109, Note_on_c, 0, 62, 78
2, 164111, Note_on_c, 0, 77, 77
2, 164111, Note_on_c, 0, 58, 83
2, 164111, Note_on_c, 0, 82, 89
2, 164177, Note_off_c, 0, 77, 64
2, 164178, Note_off_c, 0, 82, 64
2, 164179, Note_off_c, 0, 62, 64
2, 164181, Note_off_c, 0, 58, 64
2, 164220, Note_on_c, 0, 68, 74
2, 164224, Note_on_c, 0, 70, 80
2, 164336, Note_off_c, 0, 70, 64
2, 164338, Note_off_c, 0, 68, 64
2, 164361, Note_on_c, 0, 89, 89
2, 164367, Note_on_c, 0, 46, 83
2, 164409, Note_off_c, 0, 89, 64
2, 164420, Note_off_c, 0, 46, 64
2, 164486, Note_on_c, 0, 70, 74
2, 164489, Note_on_c, 0, 68, 68
2, 164587, Note_off_c, 0, 68, 64
2, 164597, Note_off_c, 0, 70, 64
2, 164603, Note_on_c, 0, 90, 74
2, 164604, Note_on_c, 0, 51, 68
2, 164607, Control_c, 0, 64, 0
2, 164664, Note_off_c, 0, 90, 64
2, 164739, Note_off_c, 0, 51, 64
2, 164745, Note_on_c, 0, 70, 74
2, 164745, Note_on_c, 0, 66, 62
2, 164758, Control_c, 0, 64, 127
2, 164793, Note_off_c, 0, 70, 64
2, 164795, Note_off_c, 0, 66, 64
2, 164862, Note_on_c, 0, 78, 80
2, 164863, Note_on_c, 0, 58, 68
2, 164910, Note_off_c, 0, 58, 64
2, 164913, Note_off_c, 0, 78, 64
2, 164980, Note_on_c, 0, 87, 86
2, 164983, Note_on_c, 0, 51, 74
2, 165047, Note_off_c, 0, 51, 64
2, 165049, Note_off_c, 0, 87, 64
2, 165102, Note_on_c, 0, 46, 80
2, 165103, Note_on_c, 0, 90, 92
2, 165171, Note_off_c, 0, 46, 64
2, 165173, Note_off_c, 0, 90, 64
2, 165240, Note_on_c, 0, 39, 86
2, 165241, Note_on_c, 0, 99, 98
2, 165291, Note_off_c, 0, 39, 64
2, 165293, Note_off_c, 0, 99, 64
2, 165359, Control_c, 0, 64, 0
2, 165600, Note_on_c, 0, 78, 68
2, 165600, Note_on_c, 0, 90, 62
2, 165600, Note_on_c, 0, 75, 76
2, 165668, Note_off_c, 0, 78, 64
2, 165668, Note_off_c, 0, 75, 64
2, 165668, Note_off_c, 0, 90, 64
2, 165738, Note_on_c, 0, 90, 68
2, 165738, Note_on_c, 0, 78, 80
2, 165738, Note_on_c, 0, 77, 84
2, 165738, Note_on_c, 0, 74, 88
2, 165789, Note_off_c, 0, 77, 64
2, 165790, Note_off_c, 0, 74, 64
2, 165790, Note_off_c, 0, 90, 64
2, 165790, Note_off_c, 0, 78, 64
2, 165858, Note_on_c, 0, 90, 74
2, 165858, Note_on_c, 0, 78, 80
2, 165858, Note_on_c, 0, 76, 68
2, 165858, Note_on_c, 0, 73, 86
2, 165926, Note_off_c, 0, 76, 64
2, 165927, Note_off_c, 0, 73, 64
2, 165927, Note_off_c, 0, 90, 64
2, 165927, Note_off_c, 0, 78, 64
2, 165978, Note_on_c, 0, 90, 80
2, 165978, Note_on_c, 0, 78, 88
2, 165978, Note_on_c, 0, 75, 83
2, 165978, Note_on_c, 0, 72, 93
2, 166046, Note_off_c, 0, 75, 64
2, 166047, Note_off_c, 0, 72, 64
2, 166047, Note_off_c, 0, 90, 64
2, 166047, Note_off_c, 0, 78, 64
2, 166113, Note_on_c, 0, 90, 86
2, 166115, Note_on_c, 0, 78, 68
2, 166115, Note_on_c, 0, 74, 56
2, 166116, Note_on_c, 0, 71, 44
2, 166164, Note_off_c, 0, 90, 64
2, 166166, Note_off_c, 0, 78, 64
2, 166166, Note_off_c, 0, 74, 64
2, 166168, Note_off_c, 0, 71, 64
2, 166233, Control_c, 0, 64, 127
2, 166237, Note_on_c, 0, 90, 92
2, 166237, Note_on_c, 0, 54, 82
2, 166292, Note_off_c, 0, 90, 64
2, 166293, Note_off_c, 0, 54, 64
2, 166352, Note_on_c, 0, 73, 78
2, 166356, Note_on_c, 0, 70, 80
2, 166480, Note_off_c, 0, 73, 64
2, 166481, Note_off_c, 0, 70, 64
2, 166493, Note_on_c, 0, 61, 77
2, 166494, Note_on_c, 0, 78, 83
2, 166494, Note_on_c, 0, 66, 79
2, 166494, Note_on_c, 0, 85, 89
2, 166532, Note_off_c, 0, 61, 64
2, 166534, Note_off_c, 0, 66, 64
2, 166535, Note_off_c, 0, 85, 64
2, 166539, Note_off_c, 0, 78, 64
2, 166608, Note_on_c, 0, 70, 74
2, 166611, Note_on_c, 0, 73, 86
2, 166709, Note_off_c, 0, 70, 64
2, 166710, Note_off_c, 0, 73, 64
2, 166732, Note_on_c, 0, 90, 83
2, 166734, Note_on_c, 0, 54, 83
2, 166785, Note_off_c, 0, 90, 64
2, 166792, Note_off_c, 0, 54, 64
2, 166851, Note_on_c, 0, 70, 68
2, 166852, Control_c, 0, 64, 0
2, 166853, Note_on_c, 0, 73, 80
2, 166957, Note_off_c, 0, 70, 64
2, 166972, Note_off_c, 0, 73, 64
2, 166988, Note_on_c, 0, 92, 92
2, 166989, Note_on_c, 0, 49, 92
2, 166996, Control_c, 0, 64, 127
2, 167032, Note_off_c, 0, 49, 64
2, 167033, Note_off_c, 0, 92, 64
2, 167104, Note_on_c, 0, 73, 92
2, 167110, Note_on_c, 0, 71, 80
2, 167198, Note_off_c, 0, 73, 64
2, 167208, Note_off_c, 0, 71, 64
2, 167229, Note_on_c, 0, 85, 86
2, 167231, Note_on_c, 0, 80, 80
2, 167231, Note_on_c, 0, 61, 74
2, 167231, Note_on_c, 0, 65, 76
2, 167288, Note_off_c, 0, 65, 64
2, 167289, Note_off_c, 0, 85, 64
2, 167290, Note_off_c, 0, 80, 64
2, 167292, Note_off_c, 0, 61, 64
2, 167364, Note_on_c, 0, 73, 80
2, 167364, Note_on_c, 0, 71, 68
2, 167462, Note_off_c, 0, 71, 64
2, 167470, Note_off_c, 0, 73, 64
2, 167486, Note_on_c, 0, 92, 74
2, 167488, Note_on_c, 0, 49, 74
2, 167540, Note_off_c, 0, 92, 64
2, 167540, Note_off_c, 0, 49, 64
2, 167608, Note_on_c, 0, 71, 56
2, 167609, Note_on_c, 0, 73, 68
2, 167649, Control_c, 0, 64, 0
2, 167729, Note_off_c, 0, 73, 64
2, 167730, Note_off_c, 0, 71, 64
2, 167808, Note_on_c, 0, 94, 44
2, 167809, Note_on_c, 0, 54, 44
2, 167809, Note_on_c, 0, 85, 36
2, 167816, Note_on_c, 0, 90, 38
2, 167850, Note_off_c, 0, 94, 64
2, 167852, Note_off_c, 0, 54, 64
2, 167857, Note_off_c, 0, 85, 64
2, 167859, Note_off_c, 0, 90, 64
2, 167890, Control_c, 0, 64, 127
2, 167921, Note_on_c, 0, 95, 44
2, 167922, Note_on_c, 0, 85, 36
2, 167928, Note_on_c, 0, 92, 38
2, 167992, Note_off_c, 0, 95, 64
2, 167992, Note_off_c, 0, 85, 64
2, 167993, Note_off_c, 0, 92, 64
2, 168040, Note_on_c, 0, 97, 50
2, 168043, Note_on_c, 0, 85, 42
2, 168045, Note_on_c, 0, 61, 47
2, 168049, Note_on_c, 0, 94, 44
2, 168103, Note_off_c, 0, 97, 64
2, 168107, Note_off_c, 0, 61, 64
2, 168108, Note_off_c, 0, 94, 64
2, 168113, Note_off_c, 0, 85, 64
2, 168163, Note_on_c, 0, 97, 56
2, 168163, Note_on_c, 0, 85, 48
2, 168165, Note_on_c, 0, 70, 50
2, 168165, Control_c, 0, 64, 0
2, 168168, Note_on_c, 0, 94, 50
2, 168224, Note_off_c, 0, 97, 64
2, 168224, Note_off_c, 0, 70, 64
2, 168230, Note_off_c, 0, 85, 64
2, 168235, Note_off_c, 0, 94, 64
2, 168300, Note_on_c, 0, 78, 53
2, 168300, Note_on_c, 0, 95, 56
2, 168301, Note_on_c, 0, 85, 48
2, 168306, Note_on_c, 0, 92, 50
2, 168348, Note_off_c, 0, 78, 64
2, 168348, Note_off_c, 0, 85, 64
2, 168349, Note_off_c, 0, 95, 64
2, 168351, Note_off_c, 0, 92, 64
2, 168418, Note_on_c, 0, 94, 50
2, 168422, Note_on_c, 0, 85, 42
2, 168423, Note_on_c, 0, 82, 44
2, 168426, Note_on_c, 0, 90, 44
2, 168479, Note_off_c, 0, 94, 64
2, 168485, Note_off_c, 0, 85, 64
2, 168486, Note_off_c, 0, 82, 64
2, 168493, Note_off_c, 0, 90, 64
2, 168538, Control_c, 0, 64, 127
2, 168541, Note_on_c, 0, 47, 44
2, 168541, Note_on_c, 0, 87, 36
2, 168541, Note_on_c, 0, 83, 32
2, 168542, Note_on_c, 0, 92, 50
2, 168604, Note_off_c, 0, 47, 64
2, 168605, Note_off_c, 0, 92, 64
2, 168606, Note_off_c, 0, 87, 64
2, 168607, Note_off_c, 0, 83, 64
2, 168676, Note_on_c, 0, 94, 50
2, 168676, Note_on_c, 0, 85, 32
2, 168678, Note_on_c, 0, 87, 36
2, 168724, Note_off_c, 0, 85, 64
2, 168726, Note_off_c, 0, 87, 64
2, 168728, Note_off_c, 0, 94, 64
2, 168797, Note_on_c, 0, 87, 42
2, 168798, Note_on_c, 0, 59, 44
2, 168799, Note_on_c, 0, 95, 56
2, 168862, Note_off_c, 0, 87, 64
2, 168863, Note_off_c, 0, 59, 64
2, 168867, Note_off_c, 0, 95, 64
2, 168915, Note_on_c, 0, 95, 62
2, 168917, Note_on_c, 0, 87, 48
2, 168917, Control_c, 0, 64, 0
2, 168918, Note_on_c, 0, 68, 48
2, 168982, Note_off_c, 0, 95, 64
2, 168982, Note_off_c, 0, 68, 64
2, 168984, Note_off_c, 0, 87, 64
2, 169053, Note_on_c, 0, 87, 48
2, 169054, Note_on_c, 0, 94, 62
2, 169054, Note_on_c, 0, 75, 52
2, 169054, Note_on_c, 0, 85, 44
2, 169098, Note_off_c, 0, 87, 64
2, 169101, Note_off_c, 0, 85, 64
2, 169102, Note_off_c, 0, 94, 64
2, 169104, Note_off_c, 0, 75, 64
2, 169170, Note_on_c, 0, 92, 56
2, 169175, Note_on_c, 0, 87, 42
2, 169177, Note_on_c, 0, 83, 42
2, 169177, Note_on_c, 0, 80, 44
2, 169237, Note_off_c, 0, 83, 64
2, 169240, Note_off_c, 0, 87, 64
2, 169240, Note_off_c, 0, 92, 64
2, 169243, Note_off_c, 0, 80, 64
2, 169293, Control_c, 0, 64, 127
2, 169294, Note_on_c, 0, 85, 36
2, 169294, Note_on_c, 0, 82, 32
2, 169295, Note_on_c, 0, 90, 50
2, 169296, Note_on_c, 0, 49, 44
2, 169354, Note_off_c, 0, 85, 64
2, 169359, Note_off_c, 0, 90, 64
2, 169362, Note_off_c, 0, 49, 64
2, 169363, Note_off_c, 0, 82, 64
2, 169431, Note_on_c, 0, 85, 36
2, 169431, Note_on_c, 0, 83, 32
2, 169432, Note_on_c, 0, 92, 50
2, 169476, Note_off_c, 0, 85, 64
2, 169481, Note_off_c, 0, 92, 64
2, 169482, Note_off_c, 0, 83, 64
2, 169550, Note_on_c, 0, 94, 56
2, 169551, Note_on_c, 0, 85, 42
2, 169553, Note_on_c, 0, 58, 44
2, 169612, Note_off_c, 0, 94, 64
2, 169616, Note_off_c, 0, 58, 64
2, 169619, Note_off_c, 0, 85, 64
2, 169669, Note_on_c, 0, 94, 62
2, 169670, Note_on_c, 0, 66, 48
2, 169670, Note_on_c, 0, 85, 48
2, 169672, Control_c, 0, 64, 0
2, 169730, Note_off_c, 0, 94, 64
2, 169738, Note_off_c, 0, 85, 64
2, 169739, Note_off_c, 0, 66, 64
2, 169791, Note_on_c, 0, 92, 62
2, 169791, Note_on_c, 0, 73, 52
2, 169791, Note_on_c, 0, 83, 44
2, 169793, Note_on_c, 0, 85, 48
2, 169856, Note_off_c, 0, 83, 64
2, 169857, Note_off_c, 0, 92, 64
2, 169862, Note_off_c, 0, 85, 64
2, 169863, Note_off_c, 0, 73, 64
2, 169927, Note_on_c, 0, 90, 56
2, 169927, Note_on_c, 0, 82, 38
2, 169929, Note_on_c, 0, 78, 44
2, 169929, Note_on_c, 0, 85, 42
2, 169974, Note_off_c, 0, 78, 64
2, 169974, Note_off_c, 0, 85, 64
2, 169975, Note_off_c, 0, 90, 64
2, 169977, Note_off_c, 0, 82, 64
2, 170047, Note_on_c, 0, 80, 32
2, 170047, Control_c, 0, 64, 127
2, 170048, Note_on_c, 0, 89, 50
2, 170049, Note_on_c, 0, 85, 36
2, 170053, Note_on_c, 0, 61, 44
2, 170109, Note_off_c, 0, 85, 64
2, 170113, Note_off_c, 0, 80, 64
2, 170114, Note_off_c, 0, 89, 64
2, 170116, Note_off_c, 0, 61, 64
2, 170166, Note_on_c, 0, 82, 32
2, 170167, Note_on_c, 0, 85, 36
2, 170170, Note_on_c, 0, 90, 50
2, 170228, Note_off_c, 0, 85, 64
2, 170235, Note_off_c, 0, 82, 64
2, 170236, Note_off_c, 0, 90, 64
2, 170304, Note_on_c, 0, 92, 56
2, 170305, Note_on_c, 0, 77, 35
2, 170305, Note_on_c, 0, 85, 42
2, 170307, Note_on_c, 0, 83, 38
2, 170351, Note_off_c, 0, 85, 64
2, 170355, Note_off_c, 0, 77, 64
2, 170356, Note_off_c, 0, 92, 64
2, 170360, Note_off_c, 0, 83, 64
2, 170424, Control_c, 0, 64, 0
2, 170426, Note_on_c, 0, 92, 62
2, 170426, Note_on_c, 0, 68, 50
2, 170426, Note_on_c, 0, 85, 48
2, 170427, Note_on_c, 0, 83, 44
2, 170489, Note_off_c, 0, 83, 64
2, 170491, Note_off_c, 0, 85, 64
2, 170492, Note_off_c, 0, 92, 64
2, 170493, Note_off_c, 0, 68, 64
2, 170542, Note_on_c, 0, 87, 62
2, 170545, Note_on_c, 0, 85, 48
2, 170546, Note_on_c, 0, 78, 44
2, 170546, Note_on_c, 0, 61, 53
2, 170607, Note_off_c, 0, 61, 64
2, 170610, Note_off_c, 0, 87, 64
2, 170612, Note_off_c, 0, 78, 64
2, 170615, Note_off_c, 0, 85, 64
2, 170682, Note_on_c, 0, 89, 68
2, 170683, Note_on_c, 0, 80, 50
2, 170683, Note_on_c, 0, 85, 54
2, 170683, Note_on_c, 0, 71, 56
2, 170730, Note_off_c, 0, 89, 64
2, 170730, Note_off_c, 0, 80, 64
2, 170732, Note_off_c, 0, 85, 64
2, 170735, Note_off_c, 0, 71, 64
2, 170801, Note_on_c, 0, 90, 74
2, 170803, Note_on_c, 0, 78, 56
2, 170804, Note_on_c, 0, 70, 56
2, 170804, Note_on_c, 0, 85, 60
2, 170805, Note_on_c, 0, 66, 56
2, 170868, Note_off_c, 0, 90, 64
2, 170869, Note_off_c, 0, 78, 64
2, 170869, Note_off_c, 0, 85, 64
2, 170870, Note_off_c, 0, 70, 64
2, 170875, Note_off_c, 0, 66, 64
2, 171059, Note_on_c, 0, 54, 56
2, 171059, Note_on_c, 0, 42, 47
2, 171105, Note_off_c, 0, 42, 64
2, 171106, Note_off_c, 0, 54, 64
2, 171176, Note_on_c, 0, 42, 49
2, 171180, Note_on_c, 0, 54, 58
2, 171233, Note_off_c, 0, 42, 64
2, 171250, Note_off_c, 0, 54, 64
2, 171298, Note_on_c, 0, 43, 52
2, 171298, Note_on_c, 0, 55, 61
2, 171363, Note_off_c, 0, 43, 64
2, 171373, Note_off_c, 0, 55, 64
2, 171417, Note_on_c, 0, 43, 55
2, 171420, Note_on_c, 0, 55, 64
2, 171477, Note_off_c, 0, 43, 64
2, 171487, Note_off_c, 0, 55, 64
2, 171555, Note_on_c, 0, 56, 66
2, 171555, Control_c, 0, 64, 127
2, 171556, Note_on_c, 0, 44, 57
2, 171605, Note_off_c, 0, 56, 64
2, 171605, Note_off_c, 0, 44, 64
2, 171675, Note_on_c, 0, 56, 69
2, 171676, Note_on_c, 0, 44, 60
2, 171739, Note_off_c, 0, 56, 64
2, 171739, Note_off_c, 0, 44, 64
2, 171795, Note_on_c, 0, 68, 61
2, 171795, Note_on_c, 0, 80, 70
2, 171861, Note_off_c, 0, 68, 64
2, 171868, Note_off_c, 0, 80, 64
2, 171933, Note_on_c, 0, 68, 63
2, 171933, Note_on_c, 0, 80, 72
2, 171982, Note_off_c, 0, 68, 64
2, 171988, Note_off_c, 0, 80, 64
2, 172053, Note_on_c, 0, 68, 68
2, 172053, Note_on_c, 0, 80, 77
2, 172115, Note_off_c, 0, 80, 64
2, 172125, Note_off_c, 0, 68, 64
2, 172172, Note_on_c, 0, 68, 71
2, 172172, Note_on_c, 0, 80, 80
2, 172235, Note_off_c, 0, 80, 64
2, 172236, Note_off_c, 0, 68, 64
2, 172309, Note_on_c, 0, 80, 71
2, 172309, Note_on_c, 0, 92, 92
2, 172426, Note_off_c, 0, 80, 64
2, 172429, Note_off_c, 0, 92, 64
2, 172543, Note_on_c, 0, 102, 68
2, 172550, Note_on_c, 0, 90, 60
2, 172550, Note_on_c, 0, 75, 68
2, 172551, Note_on_c, 0, 80, 56
2, 172551, Control_c, 0, 64, 0
2, 172577, Note_off_c, 0, 80, 64
2, 172596, Note_off_c, 0, 102, 64
2, 172607, Note_off_c, 0, 75, 64
2, 172612, Note_off_c, 0, 90, 64
2, 172682, Note_on_c, 0, 102, 68
2, 172686, Note_on_c, 0, 90, 60
2, 172686, Note_on_c, 0, 80, 56
2, 172723, Note_off_c, 0, 102, 64
2, 172726, Note_off_c, 0, 80, 64
2, 172726, Note_off_c, 0, 90, 64
2, 172801, Note_on_c, 0, 100, 66
2, 172807, Note_on_c, 0, 73, 66
2, 172807, Note_on_c, 0, 88, 58
2, 172809, Note_on_c, 0, 80, 54
2, 172835, Note_off_c, 0, 80, 64
2, 172856, Note_off_c, 0, 100, 64
2, 172864, Note_off_c, 0, 73, 64
2, 172865, Note_off_c, 0, 88, 64
2, 172921, Note_on_c, 0, 100, 64
2, 172925, Note_on_c, 0, 80, 52
2, 172927, Note_on_c, 0, 88, 56
2, 172979, Note_off_c, 0, 100, 64
2, 172980, Note_off_c, 0, 88, 64
2, 172982, Note_off_c, 0, 80, 64
2, 173058, Note_on_c, 0, 99, 62
2, 173064, Note_on_c, 0, 87, 54
2, 173065, Note_on_c, 0, 72, 62
2, 173065, Note_on_c, 0, 80, 50
2, 173077, Note_off_c, 0, 80, 64
2, 173099, Note_off_c, 0, 99, 64
2, 173104, Note_off_c, 0, 87, 64
2, 173106, Note_off_c, 0, 72, 64
2, 173176, Note_on_c, 0, 99, 60
2, 173183, Note_on_c, 0, 87, 52
2, 173185, Note_on_c, 0, 80, 48
2, 173219, Note_off_c, 0, 99, 64
2, 173225, Note_off_c, 0, 80, 64
2, 173227, Note_off_c, 0, 87, 64
2, 173299, Note_on_c, 0, 97, 58
2, 173302, Note_on_c, 0, 85, 50
2, 173303, Note_on_c, 0, 70, 58
2, 173304, Note_on_c, 0, 80, 46
2, 173331, Note_off_c, 0, 80, 64
2, 173356, Note_off_c, 0, 97, 64
2, 173359, Note_off_c, 0, 85, 64
2, 173362, Note_off_c, 0, 70, 64
2, 173416, Note_on_c, 0, 97, 56
2, 173423, Note_on_c, 0, 80, 44
2, 173425, Note_on_c, 0, 85, 48
2, 173472, Note_off_c, 0, 97, 64
2, 173486, Note_off_c, 0, 80, 64
2, 173487, Note_off_c, 0, 85, 64
2, 173555, Note_on_c, 0, 99, 56
2, 173562, Note_on_c, 0, 80, 44
2, 173563, Note_on_c, 0, 87, 48
2, 173563, Note_on_c, 0, 72, 56
2, 173588, Note_off_c, 0, 80, 64
2, 173599, Note_off_c, 0, 99, 64
2, 173608, Note_off_c, 0, 87, 64
2, 173609, Note_off_c, 0, 72, 64
2, 173675, Note_on_c, 0, 99, 62
2, 173681, Note_on_c, 0, 80, 50
2, 173683, Note_on_c, 0, 87, 54
2, 173728, Note_off_c, 0, 99, 64
2, 173740, Note_off_c, 0, 80, 64
2, 173746, Note_off_c, 0, 87, 64
2, 173796, Note_on_c, 0, 100, 68
2, 173802, Note_on_c, 0, 88, 60
2, 173802, Note_on_c, 0, 80, 56
2, 173802, Note_on_c, 0, 73, 68
2, 173854, Note_off_c, 0, 100, 64
2, 173856, Note_off_c, 0, 73, 64
2, 173856, Note_off_c, 0, 88, 64
2, 173860, Note_off_c, 0, 80, 64
2, 174056, Note_on_c, 0, 44, 62
2, 174057, Note_on_c, 0, 56, 68
2, 174110, Note_off_c, 0, 44, 64
2, 174117, Note_off_c, 0, 56, 64
2, 174177, Note_on_c, 0, 56, 70
2, 174178, Note_on_c, 0, 44, 64
2, 174230, Note_off_c, 0, 56, 64
2, 174236, Note_off_c, 0, 44, 64
2, 174314, Note_on_c, 0, 55, 73
2, 174316, Note_on_c, 0, 43, 67
2, 174360, Note_off_c, 0, 55, 64
2, 174360, Note_off_c, 0, 43, 64
2, 174435, Note_on_c, 0, 43, 70
2, 174436, Note_on_c, 0, 55, 76
2, 174489, Note_off_c, 0, 55, 64
2, 174495, Note_off_c, 0, 43, 64
2, 174554, Control_c, 0, 64, 127
2, 174555, Note_on_c, 0, 54, 78
2, 174556, Note_on_c, 0, 42, 72
2, 174612, Note_off_c, 0, 54, 64
2, 174616, Note_off_c, 0, 42, 64
2, 174691, Note_on_c, 0, 54, 81
2, 174692, Note_on_c, 0, 42, 75
2, 174732, Note_off_c, 0, 42, 64
2, 174733, Note_off_c, 0, 54, 64
2, 174812, Note_on_c, 0, 66, 70
2, 174812, Note_on_c, 0, 54, 64
2, 174863, Note_off_c, 0, 66, 64
2, 174863, Note_off_c, 0, 54, 64
2, 174932, Note_on_c, 0, 54, 66
2, 174932, Note_on_c, 0, 66, 72
2, 175000, Note_off_c, 0, 54, 64
2, 175001, Note_off_c, 0, 66, 64
2, 175052, Note_on_c, 0, 78, 89
2, 175052, Note_on_c, 0, 66, 83
2, 175120, Note_off_c, 0, 66, 64
2, 175121, Note_off_c, 0, 78, 64
2, 175189, Note_on_c, 0, 66, 86
2, 175189, Note_on_c, 0, 78, 92
2, 175240, Note_off_c, 0, 66, 64
2, 175241, Note_off_c, 0, 78, 64
2, 175303, Note_on_c, 0, 102, 92
2, 175309, Note_on_c, 0, 90, 74
2, 175423, Note_off_c, 0, 102, 64
2, 175429, Note_off_c, 0, 90, 64
2, 175559, Note_on_c, 0, 100, 80
2, 175566, Note_on_c, 0, 88, 74
2, 175567, Control_c, 0, 64, 0
2, 175569, Note_on_c, 0, 78, 56
2, 175569, Note_on_c, 0, 73, 68
2, 175583, Note_off_c, 0, 78, 64
2, 175610, Note_off_c, 0, 100, 64
2, 175617, Note_off_c, 0, 88, 64
2, 175619, Note_off_c, 0, 73, 64
2, 175680, Note_on_c, 0, 100, 78
2, 175686, Note_on_c, 0, 78, 56
2, 175686, Note_on_c, 0, 88, 72
2, 175749, Note_off_c, 0, 100, 64
2, 175754, Note_off_c, 0, 88, 64
2, 175755, Note_off_c, 0, 78, 64
2, 175799, Note_on_c, 0, 99, 76
2, 175806, Note_on_c, 0, 87, 70
2, 175807, Note_on_c, 0, 78, 56
2, 175808, Note_on_c, 0, 71, 68
2, 175839, Note_off_c, 0, 78, 64
2, 175868, Note_off_c, 0, 99, 64
2, 175874, Note_off_c, 0, 87, 64
2, 175876, Note_off_c, 0, 71, 64
2, 175937, Note_on_c, 0, 99, 74
2, 175943, Note_on_c, 0, 78, 56
2, 175943, Note_on_c, 0, 87, 68
2, 175989, Note_off_c, 0, 99, 64
2, 175994, Note_off_c, 0, 87, 64
2, 175995, Note_off_c, 0, 78, 64
2, 176056, Note_on_c, 0, 97, 72
2, 176064, Note_on_c, 0, 85, 66
2, 176064, Note_on_c, 0, 78, 56
2, 176065, Note_on_c, 0, 70, 68
2, 176096, Note_off_c, 0, 78, 64
2, 176124, Note_off_c, 0, 97, 64
2, 176132, Note_off_c, 0, 70, 64
2, 176133, Note_off_c, 0, 85, 64
2, 176177, Note_on_c, 0, 97, 70
2, 176183, Note_on_c, 0, 78, 56
2, 176183, Note_on_c, 0, 85, 64
2, 176245, Note_off_c, 0, 97, 64
2, 176251, Note_off_c, 0, 85, 64
2, 176252, Note_off_c, 0, 78, 64
2, 176315, Note_on_c, 0, 95, 68
2, 176321, Note_on_c, 0, 78, 56
2, 176321, Note_on_c, 0, 83, 62
2, 176321, Note_on_c, 0, 68, 68
2, 176335, Note_off_c, 0, 78, 64
2, 176366, Note_off_c, 0, 95, 64
2, 176372, Note_off_c, 0, 83, 64
2, 176372, Note_off_c, 0, 68, 64
2, 176435, Note_on_c, 0, 95, 68
2, 176441, Note_on_c, 0, 78, 44
2, 176441, Note_on_c, 0, 83, 62
2, 176486, Note_off_c, 0, 95, 64
2, 176492, Note_off_c, 0, 83, 64
2, 176492, Note_off_c, 0, 78, 64
2, 176555, Note_on_c, 0, 97, 68
2, 176561, Note_on_c, 0, 78, 44
2, 176561, Note_on_c, 0, 85, 62
2, 176561, Note_on_c, 0, 70, 56
2, 176593, Note_off_c, 0, 78, 64
2, 176624, Note_off_c, 0, 97, 64
2, 176628, Note_off_c, 0, 70, 64
2, 176630, Note_off_c, 0, 85, 64
2, 176674, Note_on_c, 0, 97, 74
2, 176680, Note_on_c, 0, 78, 56
2, 176680, Note_on_c, 0, 85, 68
2, 176743, Note_off_c, 0, 97, 64
2, 176748, Note_off_c, 0, 78, 64
2, 176749, Note_off_c, 0, 85, 64
2, 176812, Note_on_c, 0, 99, 80
2, 176818, Note_on_c, 0, 78, 68
2, 176818, Note_on_c, 0, 87, 74
2, 176818, Note_on_c, 0, 71, 80
2, 177052, Note_off_c, 0, 99, 64
2, 177058, Note_off_c, 0, 71, 64
2, 177058, Note_off_c, 0, 87, 64
2, 177058, Note_off_c, 0, 78, 64
2, 177061, Note_on_c, 0, 53, 68
2, 177067, Note_on_c, 0, 41, 58
2, 177125, Note_off_c, 0, 53, 64
2, 177131, Note_off_c, 0, 41, 64
2, 177194, Note_on_c, 0, 53, 68
2, 177200, Note_on_c, 0, 41, 58
2, 177245, Note_off_c, 0, 53, 64
2, 177251, Note_off_c, 0, 41, 64
2, 177314, Note_on_c, 0, 52, 71
2, 177320, Note_on_c, 0, 40, 61
2, 177383, Note_off_c, 0, 52, 64
2, 177389, Note_off_c, 0, 40, 64
2, 177434, Note_on_c, 0, 52, 74
2, 177440, Note_on_c, 0, 40, 64
2, 177503, Note_off_c, 0, 52, 64
2, 177509, Note_off_c, 0, 40, 64
2, 177570, Control_c, 0, 64, 127
2, 177573, Note_on_c, 0, 51, 77
2, 177578, Note_on_c, 0, 39, 67
2, 177623, Note_off_c, 0, 51, 64
2, 177628, Note_off_c, 0, 39, 64
2, 177691, Note_on_c, 0, 51, 80
2, 177699, Note_on_c, 0, 39, 70
2, 177759, Note_off_c, 0, 51, 64
2, 177768, Note_off_c, 0, 39, 64
2, 177812, Note_on_c, 0, 63, 84
2, 177812, Note_on_c, 0, 51, 74
2, 177880, Note_off_c, 0, 63, 64
2, 177880, Note_off_c, 0, 51, 64
2, 177948, Note_on_c, 0, 51, 76
2, 177948, Note_on_c, 0, 63, 86
2, 177999, Note_off_c, 0, 51, 64
2, 177999, Note_off_c, 0, 63, 64
2, 178068, Note_on_c, 0, 63, 79
2, 178069, Note_on_c, 0, 75, 89
2, 178119, Note_off_c, 0, 63, 64
2, 178120, Note_off_c, 0, 75, 64
2, 178187, Note_on_c, 0, 75, 92
2, 178187, Note_on_c, 0, 63, 82
2, 178256, Note_off_c, 0, 75, 64
2, 178256, Note_off_c, 0, 63, 64
2, 178302, Note_on_c, 0, 87, 104
2, 178309, Note_on_c, 0, 75, 82
2, 178439, Note_off_c, 0, 87, 64
2, 178447, Note_off_c, 0, 75, 64
2, 178559, Note_on_c, 0, 87, 68
2, 178565, Note_on_c, 0, 75, 58
2, 178566, Note_on_c, 0, 67, 68
2, 178566, Control_c, 0, 64, 0
2, 178569, Note_on_c, 0, 63, 58
2, 178628, Note_off_c, 0, 87, 64
2, 178633, Note_off_c, 0, 75, 64
2, 178634, Note_off_c, 0, 67, 64
2, 178636, Note_off_c, 0, 63, 64
2, 178679, Note_on_c, 0, 87, 68
2, 178684, Note_on_c, 0, 75, 58
2, 178687, Note_on_c, 0, 67, 68
2, 178689, Note_on_c, 0, 63, 58
2, 178748, Note_off_c, 0, 87, 64
2, 178752, Note_off_c, 0, 75, 64
2, 178756, Note_off_c, 0, 67, 64
2, 178757, Note_off_c, 0, 63, 64
2, 178816, Note_on_c, 0, 87, 76
2, 178824, Note_on_c, 0, 75, 66
2, 178824, Note_on_c, 0, 68, 76
2, 178825, Note_on_c, 0, 65, 66
2, 178868, Note_off_c, 0, 87, 64
2, 178875, Note_off_c, 0, 65, 64
2, 178876, Note_off_c, 0, 68, 64
2, 178876, Note_off_c, 0, 75, 64
2, 178937, Note_on_c, 0, 87, 84
2, 178941, Note_on_c, 0, 65, 74
2, 178943, Note_on_c, 0, 68, 84
2, 178944, Note_on_c, 0, 75, 74
2, 179005, Note_off_c, 0, 87, 64
2, 179010, Note_off_c, 0, 65, 64
2, 179012, Note_off_c, 0, 68, 64
2, 179012, Note_off_c, 0, 75, 64
2, 179057, Note_on_c, 0, 88, 98
2, 179061, Note_on_c, 0, 69, 98
2, 179063, Note_on_c, 0, 76, 82
2, 179064, Note_on_c, 0, 66, 82
2, 179128, Note_off_c, 0, 69, 64
2, 179131, Note_off_c, 0, 66, 64
2, 179194, Note_off_c, 0, 88, 64
2, 179196, Note_on_c, 0, 87, 80
2, 179200, Note_off_c, 0, 76, 64
2, 179201, Note_on_c, 0, 69, 80
2, 179202, Note_on_c, 0, 75, 70
2, 179202, Note_on_c, 0, 66, 70
2, 179245, Note_off_c, 0, 87, 64
2, 179251, Note_off_c, 0, 75, 64
2, 179252, Note_off_c, 0, 66, 64
2, 179252, Note_off_c, 0, 69, 64
2, 179313, Note_on_c, 0, 85, 80
2, 179318, Note_on_c, 0, 73, 70
2, 179322, Note_on_c, 0, 64, 70
2, 179323, Note_on_c, 0, 67, 80
2, 179382, Note_off_c, 0, 85, 64
2, 179387, Note_off_c, 0, 73, 64
2, 179390, Note_off_c, 0, 64, 64
2, 179392, Note_off_c, 0, 67, 64
2, 179432, Note_on_c, 0, 83, 76
2, 179440, Note_on_c, 0, 67, 76
2, 179442, Note_on_c, 0, 71, 66
2, 179444, Note_on_c, 0, 64, 66
2, 179501, Note_off_c, 0, 83, 64
2, 179509, Note_off_c, 0, 67, 64
2, 179510, Note_off_c, 0, 71, 64
2, 179512, Note_off_c, 0, 64, 64
2, 179570, Note_on_c, 0, 82, 72
2, 179576, Note_on_c, 0, 65, 72
2, 179577, Note_on_c, 0, 70, 62
2, 179580, Note_on_c, 0, 62, 64
2, 179621, Note_off_c, 0, 82, 64
2, 179628, Note_off_c, 0, 70, 64
2, 179629, Note_off_c, 0, 65, 64
2, 179631, Note_off_c, 0, 62, 64
2, 179690, Note_on_c, 0, 80, 68
2, 179697, Note_on_c, 0, 68, 58
2, 179698, Note_on_c, 0, 65, 68
2, 179700, Note_on_c, 0, 62, 60
2, 179741, Note_off_c, 0, 80, 64
2, 179748, Note_off_c, 0, 68, 64
2, 179750, Note_off_c, 0, 65, 64
2, 179751, Note_off_c, 0, 62, 64
2, 179811, Note_on_c, 0, 79, 80
2, 179815, Note_on_c, 0, 63, 72
2, 179816, Note_on_c, 0, 67, 70
2, 179879, Note_off_c, 0, 79, 64
2, 179884, Note_off_c, 0, 67, 64
2, 179884, Note_off_c, 0, 63, 64
2, 180072, Note_on_c, 0, 46, 68
2, 180079, Note_on_c, 0, 34, 58
2, 180123, Note_off_c, 0, 46, 64
2, 180130, Note_off_c, 0, 34, 64
2, 180191, Note_on_c, 0, 46, 68
2, 180199, Note_on_c, 0, 34, 58
2, 180260, Note_off_c, 0, 46, 64
2, 180268, Note_off_c, 0, 34, 64
2, 180313, Note_on_c, 0, 50, 71
2, 180319, Note_on_c, 0, 38, 61
2, 180382, Note_off_c, 0, 50, 64
2, 180388, Note_off_c, 0, 38, 64
2, 180451, Note_on_c, 0, 50, 74
2, 180457, Note_on_c, 0, 38, 64
2, 180502, Note_off_c, 0, 50, 64
2, 180508, Note_off_c, 0, 38, 64
2, 180570, Control_c, 0, 64, 127
2, 180572, Note_on_c, 0, 51, 77
2, 180578, Note_on_c, 0, 39, 67
2, 180639, Note_off_c, 0, 51, 64
2, 180645, Note_off_c, 0, 39, 64
2, 180690, Note_on_c, 0, 51, 80
2, 180696, Note_on_c, 0, 39, 70
2, 180758, Note_off_c, 0, 51, 64
2, 180765, Note_off_c, 0, 39, 64
2, 180827, Note_on_c, 0, 63, 84
2, 180833, Note_on_c, 0, 51, 74
2, 180878, Note_off_c, 0, 63, 64
2, 180885, Note_off_c, 0, 51, 64
2, 180947, Note_on_c, 0, 63, 86
2, 180953, Note_on_c, 0, 51, 76
2, 181016, Note_off_c, 0, 63, 64
2, 181022, Note_off_c, 0, 51, 64
2, 181067, Note_on_c, 0, 75, 89
2, 181073, Note_on_c, 0, 63, 79
2, 181136, Note_off_c, 0, 75, 64
2, 181142, Note_off_c, 0, 63, 64
2, 181204, Note_on_c, 0, 75, 92
2, 181210, Note_on_c, 0, 63, 82
2, 181255, Note_off_c, 0, 75, 64
2, 181262, Note_off_c, 0, 63, 64
2, 181324, Note_on_c, 0, 87, 104
2, 181330, Note_on_c, 0, 75, 82
2, 181444, Note_off_c, 0, 87, 64
2, 181450, Note_off_c, 0, 75, 64
2, 181564, Note_on_c, 0, 99, 68
2, 181566, Note_on_c, 0, 75, 64
2, 181566, Control_c, 0, 64, 0
2, 181567, Note_on_c, 0, 67, 62
2, 181571, Note_on_c, 0, 87, 56
2, 181633, Note_off_c, 0, 99, 64
2, 181634, Note_off_c, 0, 75, 64
2, 181635, Note_off_c, 0, 67, 64
2, 181640, Note_off_c, 0, 87, 64
2, 181703, Note_on_c, 0, 75, 64
2, 181703, Note_on_c, 0, 67, 62
2, 181703, Note_on_c, 0, 99, 68
2, 181709, Note_on_c, 0, 87, 56
2, 181754, Note_off_c, 0, 75, 64
2, 181754, Note_off_c, 0, 99, 64
2, 181755, Note_off_c, 0, 67, 64
2, 181760, Note_off_c, 0, 87, 64
2, 181822, Note_on_c, 0, 77, 72
2, 181822, Note_on_c, 0, 68, 70
2, 181822, Note_on_c, 0, 99, 76
2, 181828, Note_on_c, 0, 87, 64
2, 181890, Note_off_c, 0, 77, 64
2, 181891, Note_off_c, 0, 68, 64
2, 181891, Note_off_c, 0, 99, 64
2, 181897, Note_off_c, 0, 87, 64
2, 181942, Note_on_c, 0, 77, 80
2, 181942, Note_on_c, 0, 68, 78
2, 181942, Note_on_c, 0, 99, 84
2, 181948, Note_on_c, 0, 87, 72
2, 182010, Note_off_c, 0, 77, 64
2, 182011, Note_off_c, 0, 68, 64
2, 182011, Note_off_c, 0, 99, 64
2, 182017, Note_off_c, 0, 87, 64
2, 182080, Note_on_c, 0, 78, 88
2, 182080, Note_on_c, 0, 69, 86
2, 182080, Note_on_c, 0, 100, 99
2, 182086, Note_on_c, 0, 88, 80
2, 182129, Note_off_c, 0, 78, 64
2, 182130, Note_off_c, 0, 69, 64
2, 182200, Note_off_c, 0, 100, 64
2, 182200, Note_on_c, 0, 99, 80
2, 182203, Note_on_c, 0, 78, 76
2, 182203, Note_on_c, 0, 69, 74
2, 182206, Note_off_c, 0, 88, 64
2, 182207, Note_on_c, 0, 87, 68
2, 182267, Note_off_c, 0, 99, 64
2, 182269, Note_off_c, 0, 78, 64
2, 182270, Note_off_c, 0, 69, 64
2, 182274, Note_off_c, 0, 87, 64
2, 182318, Note_on_c, 0, 97, 80
2, 182320, Note_on_c, 0, 79, 76
2, 182321, Note_on_c, 0, 70, 74
2, 182326, Note_on_c, 0, 85, 68
2, 182386, Note_off_c, 0, 97, 64
2, 182388, Note_off_c, 0, 79, 64
2, 182389, Note_off_c, 0, 70, 64
2, 182394, Note_off_c, 0, 85, 64
2, 182457, Note_on_c, 0, 79, 70
2, 182457, Note_on_c, 0, 70, 68
2, 182457, Note_on_c, 0, 95, 74
2, 182463, Note_on_c, 0, 83, 62
2, 182508, Note_off_c, 0, 70, 64
2, 182508, Note_off_c, 0, 95, 64
2, 182509, Note_off_c, 0, 79, 64
2, 182514, Note_off_c, 0, 83, 64
2, 182576, Note_on_c, 0, 94, 68
2, 182576, Note_on_c, 0, 82, 48
2, 182576, Note_on_c, 0, 77, 42
2, 182576, Note_on_c, 0, 74, 37
2, 182644, Note_off_c, 0, 82, 64
2, 182645, Note_off_c, 0, 74, 64
2, 182645, Note_off_c, 0, 94, 64
2, 182646, Note_off_c, 0, 77, 64
2, 182695, Note_on_c, 0, 92, 68
2, 182696, Note_on_c, 0, 80, 49
2, 182697, Note_on_c, 0, 77, 43
2, 182698, Note_on_c, 0, 74, 38
2, 182764, Note_off_c, 0, 92, 64
2, 182764, Note_off_c, 0, 80, 64
2, 182766, Note_off_c, 0, 77, 64
2, 182766, Note_off_c, 0, 74, 64
2, 182832, Control_c, 0, 64, 127
2, 182833, Note_on_c, 0, 91, 68
2, 182834, Note_on_c, 0, 79, 53
2, 182835, Note_on_c, 0, 75, 48
2, 182836, Note_on_c, 0, 70, 40
2, 182883, Note_off_c, 0, 91, 64
2, 182885, Note_off_c, 0, 79, 64
2, 182886, Note_off_c, 0, 70, 64
2, 182887, Note_off_c, 0, 75, 64
2, 182954, Note_on_c, 0, 90, 70
2, 182954, Note_on_c, 0, 78, 58
2, 182954, Note_on_c, 0, 75, 52
2, 182954, Note_on_c, 0, 70, 40
2, 183022, Note_off_c, 0, 90, 64
2, 183022, Note_off_c, 0, 78, 64
2, 183023, Note_off_c, 0, 75, 64
2, 183023, Note_off_c, 0, 70, 64
2, 183073, Note_on_c, 0, 89, 72
2, 183073, Note_on_c, 0, 77, 62
2, 183073, Note_on_c, 0, 71, 56
2, 183073, Note_on_c, 0, 68, 44
2, 183141, Note_off_c, 0, 77, 64
2, 183142, Note_off_c, 0, 68, 64
2, 183142, Note_off_c, 0, 71, 64
2, 183142, Note_off_c, 0, 89, 64
2, 183193, Note_on_c, 0, 88, 75
2, 183193, Note_on_c, 0, 76, 64
2, 183193, Note_on_c, 0, 71, 58
2, 183193, Note_on_c, 0, 68, 50
2, 183261, Note_off_c, 0, 88, 64
2, 183261, Note_off_c, 0, 76, 64
2, 183262, Note_off_c, 0, 71, 64
2, 183262, Note_off_c, 0, 68, 64
2, 183329, Note_on_c, 0, 86, 77
2, 183330, Note_on_c, 0, 74, 68
2, 183331, Note_on_c, 0, 69, 58
2, 183333, Note_on_c, 0, 66, 53
2, 183381, Note_off_c, 0, 86, 64
2, 183382, Note_off_c, 0, 74, 64
2, 183384, Note_off_c, 0, 69, 64
2, 183384, Note_off_c, 0, 66, 64
2, 183449, Note_on_c, 0, 87, 80
2, 183450, Note_on_c, 0, 75, 68
2, 183451, Note_on_c, 0, 69, 58
2, 183453, Note_on_c, 0, 66, 51
2, 183518, Note_off_c, 0, 87, 64
2, 183519, Note_off_c, 0, 75, 64
2, 183520, Note_off_c, 0, 69, 64
2, 183521, Note_off_c, 0, 66, 64
2, 183569, Control_c, 0, 64, 0
2, 183571, Note_on_c, 0, 88, 104
2, 183573, Note_on_c, 0, 76, 80
2, 183573, Note_on_c, 0, 70, 73
2, 183574, Note_on_c, 0, 67, 68
2, 183638, Note_off_c, 0, 88, 64
2, 183639, Note_off_c, 0, 76, 64
2, 183640, Note_off_c, 0, 70, 64
2, 183640, Note_off_c, 0, 67, 64
2, 183706, Note_on_c, 0, 87, 80
2, 183707, Note_on_c, 0, 75, 68
2, 183708, Note_on_c, 0, 70, 56
2, 183710, Note_on_c, 0, 67, 63
2, 183714, Control_c, 0, 64, 127
2, 183758, Note_off_c, 0, 87, 64
2, 183759, Note_off_c, 0, 75, 64
2, 183760, Note_off_c, 0, 70, 64
2, 183761, Note_off_c, 0, 67, 64
2, 183826, Note_on_c, 0, 85, 81
2, 183827, Note_on_c, 0, 73, 68
2, 183828, Note_on_c, 0, 67, 58
2, 183830, Note_on_c, 0, 64, 51
2, 183895, Note_off_c, 0, 85, 64
2, 183895, Note_off_c, 0, 73, 64
2, 183897, Note_off_c, 0, 67, 64
2, 183898, Note_off_c, 0, 64, 64
2, 183946, Note_on_c, 0, 83, 82
2, 183947, Note_on_c, 0, 71, 70
2, 183948, Note_on_c, 0, 67, 66
2, 183949, Note_on_c, 0, 64, 58
2, 184014, Note_off_c, 0, 83, 64
2, 184015, Note_off_c, 0, 71, 64
2, 184017, Note_off_c, 0, 67, 64
2, 184017, Note_off_c, 0, 64, 64
2, 184085, Note_on_c, 0, 82, 83
2, 184085, Note_on_c, 0, 70, 71
2, 184085, Note_on_c, 0, 65, 62
2, 184085, Note_on_c, 0, 62, 53
2, 184136, Note_off_c, 0, 82, 64
2, 184136, Note_off_c, 0, 62, 64
2, 184136, Note_off_c, 0, 70, 64
2, 184137, Note_off_c, 0, 65, 64
2, 184205, Note_on_c, 0, 80, 84
2, 184205, Note_on_c, 0, 68, 68
2, 184205, Note_on_c, 0, 65, 60
2, 184205, Note_on_c, 0, 62, 51
2, 184273, Note_off_c, 0, 80, 64
2, 184273, Note_off_c, 0, 68, 64
2, 184273, Note_off_c, 0, 65, 64
2, 184274, Note_off_c, 0, 62, 64
2, 184323, Control_c, 0, 64, 0
2, 184325, Note_on_c, 0, 79, 84
2, 184326, Note_on_c, 0, 67, 78
2, 184327, Note_on_c, 0, 63, 68
2, 184329, Note_on_c, 0, 58, 56
2, 184392, Note_off_c, 0, 79, 64
2, 184393, Note_off_c, 0, 67, 64
2, 184393, Note_off_c, 0, 63, 64
2, 184395, Note_off_c, 0, 58, 64
2, 184445, Note_on_c, 0, 78, 85
2, 184445, Note_on_c, 0, 66, 73
2, 184445, Note_on_c, 0, 63, 68
2, 184445, Note_on_c, 0, 58, 60
2, 184474, Control_c, 0, 64, 127
2, 184513, Note_off_c, 0, 58, 64
2, 184514, Note_off_c, 0, 66, 64
2, 184514, Note_off_c, 0, 63, 64
2, 184514, Note_off_c, 0, 78, 64
2, 184582, Note_on_c, 0, 77, 86
2, 184582, Note_on_c, 0, 65, 76
2, 184582, Note_on_c, 0, 59, 62
2, 184582, Note_on_c, 0, 56, 53
2, 184633, Note_off_c, 0, 59, 64
2, 184634, Note_off_c, 0, 56, 64
2, 184634, Note_off_c, 0, 77, 64
2, 184634, Note_off_c, 0, 65, 64
2, 184702, Note_on_c, 0, 76, 87
2, 184702, Note_on_c, 0, 64, 73
2, 184702, Note_on_c, 0, 59, 67
2, 184702, Note_on_c, 0, 56, 61
2, 184770, Note_off_c, 0, 76, 64
2, 184770, Note_off_c, 0, 56, 64
2, 184770, Note_off_c, 0, 64, 64
2, 184771, Note_off_c, 0, 59, 64
2, 184822, Note_on_c, 0, 74, 88
2, 184822, Note_on_c, 0, 62, 73
2, 184822, Note_on_c, 0, 57, 68
2, 184822, Note_on_c, 0, 54, 61
2, 184890, Note_off_c, 0, 57, 64
2, 184891, Note_off_c, 0, 54, 64
2, 184891, Note_off_c, 0, 74, 64
2, 184891, Note_off_c, 0, 62, 64
2, 184942, Note_on_c, 0, 75, 88
2, 184942, Note_on_c, 0, 63, 73
2, 184942, Note_on_c, 0, 57, 68
2, 184942, Note_on_c, 0, 54, 62
2, 185010, Note_off_c, 0, 57, 64
2, 185011, Note_off_c, 0, 54, 64
2, 185011, Note_off_c, 0, 75, 64
2, 185011, Note_off_c, 0, 63, 64
2, 185060, Control_c, 0, 64, 0
2, 185064, Note_on_c, 0, 64, 89
2, 185064, Note_on_c, 0, 58, 82
2, 185064, Note_on_c, 0, 55, 73
2, 185064, Note_on_c, 0, 76, 100
2, 185130, Note_off_c, 0, 55, 64
2, 185130, Note_off_c, 0, 76, 64
2, 185131, Note_off_c, 0, 64, 64
2, 185131, Note_off_c, 0, 58, 64
2, 185199, Note_on_c, 0, 75, 90
2, 185199, Note_on_c, 0, 63, 78
2, 185199, Note_on_c, 0, 58, 68
2, 185199, Note_on_c, 0, 55, 74
2, 185211, Control_c, 0, 64, 127
2, 185249, Note_off_c, 0, 58, 64
2, 185250, Note_off_c, 0, 55, 64
2, 185251, Note_off_c, 0, 75, 64
2, 185251, Note_off_c, 0, 63, 64
2, 185319, Note_on_c, 0, 73, 91
2, 185319, Note_on_c, 0, 61, 78
2, 185319, Note_on_c, 0, 55, 68
2, 185319, Note_on_c, 0, 52, 75
2, 185369, Note_off_c, 0, 55, 64
2, 185371, Note_off_c, 0, 52, 64
2, 185371, Note_off_c, 0, 73, 64
2, 185371, Note_off_c, 0, 61, 64
2, 185439, Note_on_c, 0, 71, 92
2, 185439, Note_on_c, 0, 59, 72
2, 185439, Note_on_c, 0, 55, 80
2, 185439, Note_on_c, 0, 52, 68
2, 185490, Note_off_c, 0, 55, 64
2, 185491, Note_off_c, 0, 52, 64
2, 185491, Note_off_c, 0, 71, 64
2, 185491, Note_off_c, 0, 59, 64
2, 185559, Note_on_c, 0, 70, 92
2, 185559, Note_on_c, 0, 58, 80
2, 185559, Note_on_c, 0, 53, 68
2, 185559, Note_on_c, 0, 50, 74
2, 185609, Note_off_c, 0, 53, 64
2, 185610, Note_off_c, 0, 50, 64
2, 185610, Note_off_c, 0, 70, 64
2, 185610, Note_off_c, 0, 58, 64
2, 185679, Note_on_c, 0, 68, 93
2, 185679, Note_on_c, 0, 56, 81
2, 185679, Note_on_c, 0, 53, 68
2, 185679, Note_on_c, 0, 50, 74
2, 185729, Note_off_c, 0, 53, 64
2, 185730, Note_off_c, 0, 50, 64
2, 185730, Note_off_c, 0, 68, 64
2, 185731, Note_off_c, 0, 56, 64
2, 185797, Control_c, 0, 64, 0
2, 185801, Note_on_c, 0, 67, 94
2, 185801, Note_on_c, 0, 55, 82
2, 185801, Note_on_c, 0, 51, 74
2, 185801, Note_on_c, 0, 46, 68
2, 185850, Note_off_c, 0, 67, 64
2, 185850, Note_off_c, 0, 46, 64
2, 185850, Note_off_c, 0, 51, 64
2, 185851, Note_off_c, 0, 55, 64
2, 185919, Note_on_c, 0, 66, 95
2, 185919, Note_on_c, 0, 54, 84
2, 185919, Note_on_c, 0, 51, 68
2, 185919, Note_on_c, 0, 46, 56
2, 185936, Control_c, 0, 64, 127
2, 185970, Note_off_c, 0, 51, 64
2, 185971, Note_off_c, 0, 46, 64
2, 185971, Note_off_c, 0, 66, 64
2, 185971, Note_off_c, 0, 54, 64
2, 186039, Note_on_c, 0, 65, 96
2, 186039, Note_on_c, 0, 53, 84
2, 186039, Note_on_c, 0, 47, 78
2, 186039, Note_on_c, 0, 44, 68
2, 186090, Note_off_c, 0, 47, 64
2, 186091, Note_off_c, 0, 44, 64
2, 186091, Note_off_c, 0, 65, 64
2, 186091, Note_off_c, 0, 53, 64
2, 186159, Note_on_c, 0, 64, 96
2, 186159, Note_on_c, 0, 52, 84
2, 186159, Note_on_c, 0, 47, 78
2, 186159, Note_on_c, 0, 44, 72
2, 186210, Note_off_c, 0, 64, 64
2, 186210, Note_off_c, 0, 44, 64
2, 186210, Note_off_c, 0, 47, 64
2, 186211, Note_off_c, 0, 52, 64
2, 186260, Note_on_c, 0, 62, 97
2, 186261, Note_on_c, 0, 50, 88
2, 186262, Note_on_c, 0, 45, 74
2, 186263, Note_on_c, 0, 42, 78
2, 186329, Note_off_c, 0, 62, 64
2, 186330, Note_off_c, 0, 50, 64
2, 186330, Note_off_c, 0, 45, 64
2, 186331, Note_off_c, 0, 42, 64
2, 186380, Note_on_c, 0, 63, 98
2, 186381, Note_on_c, 0, 51, 83
2, 186381, Control_c, 0, 64, 0
2, 186383, Note_on_c, 0, 45, 68
2, 186384, Note_on_c, 0, 42, 78
2, 186449, Note_off_c, 0, 63, 64
2, 186450, Note_off_c, 0, 51, 64
2, 186450, Note_off_c, 0, 45, 64
2, 186451, Note_off_c, 0, 42, 64
2, 186500, Note_on_c, 0, 64, 99
2, 186501, Note_on_c, 0, 52, 83
2, 186502, Note_on_c, 0, 46, 78
2, 186503, Note_on_c, 0, 43, 88
2, 186527, Control_c, 0, 64, 127
2, 186569, Note_off_c, 0, 64, 64
2, 186569, Note_off_c, 0, 52, 64
2, 186571, Note_off_c, 0, 46, 64
2, 186571, Note_off_c, 0, 43, 64
2, 186620, Note_on_c, 0, 63, 90
2, 186621, Note_on_c, 0, 52, 88
2, 186622, Note_on_c, 0, 46, 84
2, 186623, Note_on_c, 0, 43, 78
2, 186671, Note_off_c, 0, 63, 64
2, 186672, Note_off_c, 0, 52, 64
2, 186674, Note_off_c, 0, 46, 64
2, 186674, Note_off_c, 0, 43, 64
2, 186740, Note_on_c, 0, 61, 89
2, 186741, Note_on_c, 0, 52, 88
2, 186742, Note_on_c, 0, 46, 82
2, 186743, Note_on_c, 0, 43, 78
2, 186791, Note_off_c, 0, 61, 64
2, 186792, Note_off_c, 0, 52, 64
2, 186794, Note_off_c, 0, 46, 64
2, 186794, Note_off_c, 0, 43, 64
2, 186843, Note_on_c, 0, 59, 101
2, 186844, Note_on_c, 0, 52, 88
2, 186844, Note_on_c, 0, 46, 78
2, 186846, Note_on_c, 0, 43, 84
2, 186911, Note_off_c, 0, 59, 64
2, 186912, Note_off_c, 0, 52, 64
2, 186913, Note_off_c, 0, 46, 64
2, 186914, Note_off_c, 0, 43, 64
2, 186964, Note_on_c, 0, 53, 84
2, 186964, Note_on_c, 0, 47, 88
2, 186964, Note_on_c, 0, 38, 73
2, 186964, Note_on_c, 0, 58, 92
2, 187032, Note_off_c, 0, 53, 64
2, 187032, Note_off_c, 0, 58, 64
2, 187033, Note_off_c, 0, 38, 64
2, 187033, Note_off_c, 0, 47, 64
2, 187084, Note_on_c, 0, 53, 88
2, 187084, Note_on_c, 0, 47, 82
2, 187084, Note_on_c, 0, 38, 92
2, 187084, Note_on_c, 0, 56, 96
2, 187135, Note_off_c, 0, 53, 64
2, 187135, Note_off_c, 0, 56, 64
2, 187136, Note_off_c, 0, 38, 64
2, 187136, Note_off_c, 0, 47, 64
2, 187203, Control_c, 0, 64, 0
2, 187205, Note_on_c, 0, 46, 88
2, 187205, Note_on_c, 0, 39, 84
2, 187205, Note_on_c, 0, 55, 94
2, 187426, Note_off_c, 0, 39, 64
2, 187426, Note_off_c, 0, 55, 64
2, 187428, Note_off_c, 0, 46, 64
2, 187429, Note_on_c, 0, 62, 94
2, 187429, Note_on_c, 0, 50, 84
2, 187528, Note_off_c, 0, 50, 64
2, 187529, Note_off_c, 0, 62, 64
2, 187531, Note_on_c, 0, 49, 94
2, 187531, Note_on_c, 0, 37, 82
2, 187614, Note_off_c, 0, 49, 64
2, 187615, Note_off_c, 0, 37, 64
2, 187616, Note_on_c, 0, 63, 94
2, 187616, Note_on_c, 0, 51, 82
2, 187699, Note_off_c, 0, 63, 64
2, 187700, Note_off_c, 0, 51, 64
2, 187717, Note_on_c, 0, 51, 94
2, 187717, Note_on_c, 0, 39, 82
2, 187820, Note_off_c, 0, 51, 64
2, 187820, Note_off_c, 0, 39, 64
2, 187822, Note_on_c, 0, 69, 94
2, 187822, Note_on_c, 0, 57, 81
2, 187905, Note_off_c, 0, 69, 64
2, 187905, Note_off_c, 0, 57, 64
2, 187908, Note_on_c, 0, 56, 94
2, 187908, Note_on_c, 0, 44, 84
2, 188009, Note_off_c, 0, 56, 64
2, 188009, Note_off_c, 0, 44, 64
2, 188011, Note_on_c, 0, 70, 95
2, 188011, Note_on_c, 0, 58, 85
2, 188077, Note_off_c, 0, 70, 64
2, 188078, Note_off_c, 0, 58, 64
2, 188094, Note_on_c, 0, 58, 95
2, 188094, Note_on_c, 0, 46, 85
2, 188197, Note_off_c, 0, 58, 64
2, 188197, Note_off_c, 0, 46, 64
2, 188199, Note_on_c, 0, 74, 95
2, 188199, Note_on_c, 0, 62, 84
2, 188265, Note_off_c, 0, 62, 64
2, 188266, Note_off_c, 0, 74, 64
2, 188300, Note_on_c, 0, 62, 95
2, 188300, Note_on_c, 0, 49, 84
2, 188385, Note_off_c, 0, 49, 64
2, 188386, Note_off_c, 0, 62, 64
2, 188388, Note_on_c, 0, 75, 96
2, 188388, Note_on_c, 0, 63, 89
2, 188454, Note_off_c, 0, 75, 64
2, 188455, Note_off_c, 0, 63, 64
2, 188488, Note_on_c, 0, 63, 96
2, 188488, Note_on_c, 0, 51, 86
2, 188574, Note_off_c, 0, 63, 64
2, 188574, Note_off_c, 0, 51, 64
2, 188576, Note_on_c, 0, 81, 96
2, 188576, Note_on_c, 0, 69, 84
2, 188660, Note_off_c, 0, 81, 64
2, 188660, Note_off_c, 0, 69, 64
2, 188677, Note_on_c, 0, 69, 96
2, 188677, Note_on_c, 0, 57, 83
2, 188780, Note_off_c, 0, 69, 64
2, 188780, Note_off_c, 0, 57, 64
2, 188782, Note_on_c, 0, 82, 96
2, 188782, Note_on_c, 0, 70, 82
2, 188848, Note_off_c, 0, 82, 64
2, 188848, Note_off_c, 0, 70, 64
2, 188865, Note_on_c, 0, 70, 97
2, 188865, Note_on_c, 0, 58, 88
2, 188968, Note_off_c, 0, 70, 64
2, 188968, Note_off_c, 0, 58, 64
2, 188971, Note_on_c, 0, 86, 97
2, 188971, Note_on_c, 0, 74, 87
2, 189037, Note_off_c, 0, 86, 64
2, 189038, Note_off_c, 0, 74, 64
2, 189054, Note_on_c, 0, 74, 97
2, 189054, Note_on_c, 0, 62, 85
2, 189157, Note_off_c, 0, 74, 64
2, 189157, Note_off_c, 0, 62, 64
2, 189159, Note_on_c, 0, 87, 97
2, 189159, Note_on_c, 0, 75, 78
2, 189225, Note_off_c, 0, 75, 64
2, 189226, Note_off_c, 0, 87, 64
2, 189260, Note_on_c, 0, 75, 97
2, 189260, Note_on_c, 0, 63, 80
2, 189346, Note_off_c, 0, 75, 64
2, 189346, Note_off_c, 0, 63, 64
2, 189348, Note_on_c, 0, 93, 98
2, 189348, Note_on_c, 0, 81, 88
2, 189414, Note_off_c, 0, 93, 64
2, 189415, Note_off_c, 0, 81, 64
2, 189448, Note_on_c, 0, 69, 84
2, 189448, Note_on_c, 0, 81, 96
2, 189534, Note_off_c, 0, 69, 64
2, 189534, Note_off_c, 0, 81, 64
2, 189536, Note_on_c, 0, 94, 98
2, 189536, Note_on_c, 0, 82, 84
2, 189603, Note_off_c, 0, 94, 64
2, 189603, Note_off_c, 0, 82, 64
2, 189637, Note_on_c, 0, 82, 98
2, 189637, Note_on_c, 0, 70, 78
2, 189722, Note_off_c, 0, 70, 64
2, 189723, Note_off_c, 0, 82, 64
2, 189724, Note_on_c, 0, 98, 99
2, 189724, Note_on_c, 0, 86, 90
2, 189807, Note_off_c, 0, 98, 64
2, 189808, Note_off_c, 0, 86, 64
2, 189825, Note_on_c, 0, 86, 99
2, 189825, Note_on_c, 0, 74, 88
2, 189911, Note_off_c, 0, 86, 64
2, 189911, Note_off_c, 0, 74, 64
2, 189913, Note_on_c, 0, 99, 99
2, 189913, Note_on_c, 0, 87, 86
2, 189996, Note_off_c, 0, 99, 64
2, 189997, Note_off_c, 0, 87, 64
2, 190014, Note_on_c, 0, 87, 99
2, 190014, Note_on_c, 0, 75, 97
2, 190100, Note_off_c, 0, 87, 64
2, 190100, Note_off_c, 0, 75, 64
2, 190101, Note_on_c, 0, 98, 100
2, 190101, Note_on_c, 0, 86, 94
2, 190185, Note_off_c, 0, 98, 64
2, 190185, Note_off_c, 0, 86, 64
2, 190202, Note_on_c, 0, 86, 100
2, 190202, Note_on_c, 0, 74, 88
2, 190288, Note_off_c, 0, 86, 64
2, 190288, Note_off_c, 0, 74, 64
2, 190290, Note_on_c, 0, 99, 100
2, 190290, Note_on_c, 0, 87, 87
2, 190356, Note_off_c, 0, 99, 64
2, 190357, Note_off_c, 0, 87, 64
2, 190391, Note_on_c, 0, 87, 100
2, 190391, Note_on_c, 0, 75, 82
2, 190477, Note_off_c, 0, 87, 64
2, 190477, Note_off_c, 0, 75, 64
2, 190479, Note_on_c, 0, 98, 100
2, 190479, Note_on_c, 0, 86, 85
2, 190545, Note_off_c, 0, 98, 64
2, 190545, Note_off_c, 0, 86, 64
2, 190580, Note_on_c, 0, 86, 100
2, 190580, Note_on_c, 0, 74, 88
2, 190665, Note_off_c, 0, 74, 64
2, 190666, Note_off_c, 0, 86, 64
2, 190667, Control_c, 0, 64, 127
2, 190668, Note_on_c, 0, 99, 81
2, 190674, Note_on_c, 0, 87, 69
2, 190751, Note_off_c, 0, 99, 64
2, 190753, Note_on_c, 0, 85, 81
2, 190757, Note_off_c, 0, 87, 64
2, 190759, Note_on_c, 0, 73, 69
2, 190854, Note_off_c, 0, 85, 64
2, 190856, Note_on_c, 0, 99, 81
2, 190860, Note_off_c, 0, 73, 64
2, 190862, Note_on_c, 0, 87, 69
2, 190939, Note_off_c, 0, 99, 64
2, 190941, Note_on_c, 0, 82, 81
2, 190945, Note_off_c, 0, 87, 64
2, 190947, Note_on_c, 0, 70, 69
2, 191042, Note_off_c, 0, 82, 64
2, 191044, Note_on_c, 0, 99, 82
2, 191048, Note_off_c, 0, 70, 64
2, 191050, Note_on_c, 0, 87, 70
2, 191127, Note_off_c, 0, 99, 64
2, 191130, Note_on_c, 0, 79, 82
2, 191134, Note_off_c, 0, 87, 64
2, 191136, Note_on_c, 0, 67, 70
2, 191214, Note_off_c, 0, 79, 64
2, 191215, Note_on_c, 0, 99, 82
2, 191220, Note_off_c, 0, 67, 64
2, 191221, Note_on_c, 0, 87, 70
2, 191316, Note_off_c, 0, 99, 64
2, 191318, Note_on_c, 0, 75, 82
2, 191323, Note_off_c, 0, 87, 64
2, 191324, Note_on_c, 0, 63, 70
2, 191402, Note_off_c, 0, 75, 64
2, 191404, Note_on_c, 0, 99, 83
2, 191408, Note_off_c, 0, 63, 64
2, 191410, Note_on_c, 0, 87, 71
2, 191504, Note_off_c, 0, 99, 64
2, 191507, Note_on_c, 0, 73, 83
2, 191511, Note_off_c, 0, 87, 64
2, 191513, Note_on_c, 0, 61, 71
2, 191590, Note_off_c, 0, 73, 64
2, 191593, Note_on_c, 0, 99, 83
2, 191597, Note_off_c, 0, 61, 64
2, 191599, Note_on_c, 0, 87, 71
2, 191677, Note_off_c, 0, 99, 64
2, 191678, Note_on_c, 0, 70, 83
2, 191683, Note_off_c, 0, 87, 64
2, 191684, Note_on_c, 0, 58, 71
2, 191779, Note_off_c, 0, 70, 64
2, 191781, Note_on_c, 0, 99, 84
2, 191785, Note_off_c, 0, 58, 64
2, 191787, Note_on_c, 0, 87, 72
2, 191864, Note_off_c, 0, 99, 64
2, 191867, Note_on_c, 0, 67, 84
2, 191871, Note_off_c, 0, 87, 64
2, 191873, Note_on_c, 0, 55, 72
2, 191950, Note_off_c, 0, 67, 64
2, 191952, Note_on_c, 0, 99, 84
2, 191957, Note_off_c, 0, 55, 64
2, 191958, Note_on_c, 0, 87, 72
2, 192053, Note_off_c, 0, 99, 64
2, 192055, Note_on_c, 0, 63, 84
2, 192059, Note_off_c, 0, 87, 64
2, 192061, Note_on_c, 0, 51, 72
2, 192139, Note_off_c, 0, 63, 64
2, 192141, Note_on_c, 0, 99, 84
2, 192145, Note_off_c, 0, 51, 64
2, 192147, Note_on_c, 0, 87, 72
2, 192224, Note_off_c, 0, 99, 64
2, 192227, Note_on_c, 0, 61, 84
2, 192231, Note_off_c, 0, 87, 64
2, 192233, Note_on_c, 0, 49, 72
2, 192310, Note_off_c, 0, 61, 64
2, 192313, Note_on_c, 0, 99, 85
2, 192317, Note_off_c, 0, 49, 64
2, 192319, Note_on_c, 0, 87, 73
2, 192414, Note_off_c, 0, 99, 64
2, 192415, Note_on_c, 0, 58, 85
2, 192420, Note_off_c, 0, 87, 64
2, 192421, Note_on_c, 0, 46, 73
2, 192498, Note_off_c, 0, 58, 64
2, 192501, Note_on_c, 0, 99, 85
2, 192505, Note_off_c, 0, 46, 64
2, 192507, Note_on_c, 0, 87, 73
2, 192584, Note_off_c, 0, 99, 64
2, 192587, Note_on_c, 0, 55, 85
2, 192591, Note_off_c, 0, 87, 64
2, 192593, Note_on_c, 0, 43, 73
2, 192687, Note_off_c, 0, 55, 64
2, 192690, Note_on_c, 0, 99, 86
2, 192694, Note_off_c, 0, 43, 64
2, 192696, Note_on_c, 0, 87, 74
2, 192774, Note_off_c, 0, 99, 64
2, 192775, Note_on_c, 0, 51, 86
2, 192780, Note_off_c, 0, 87, 64
2, 192781, Note_on_c, 0, 39, 74
2, 192859, Note_off_c, 0, 51, 64
2, 192861, Note_on_c, 0, 99, 86
2, 192865, Note_off_c, 0, 39, 64
2, 192867, Note_on_c, 0, 87, 74
2, 192927, Note_off_c, 0, 99, 64
2, 192934, Note_off_c, 0, 87, 64
2, 192944, Note_on_c, 0, 99, 84
2, 192950, Note_on_c, 0, 87, 72
2, 193013, Note_off_c, 0, 99, 64
2, 193019, Note_off_c, 0, 87, 64
2, 193048, Note_on_c, 0, 99, 81
2, 193054, Note_on_c, 0, 87, 69
2, 193116, Note_off_c, 0, 99, 64
2, 193122, Note_off_c, 0, 87, 64
2, 193133, Note_on_c, 0, 99, 78
2, 193139, Note_on_c, 0, 87, 66
2, 193202, Note_off_c, 0, 99, 64
2, 193207, Note_off_c, 0, 87, 64
2, 193219, Note_on_c, 0, 99, 76
2, 193225, Note_on_c, 0, 87, 64
2, 193305, Note_off_c, 0, 99, 64
2, 193311, Note_off_c, 0, 87, 64
2, 193321, Note_on_c, 0, 99, 73
2, 193327, Note_on_c, 0, 87, 61
2, 193390, Note_off_c, 0, 99, 64
2, 193396, Note_off_c, 0, 87, 64
2, 193407, Note_on_c, 0, 99, 70
2, 193413, Note_on_c, 0, 87, 58
2, 193493, Note_off_c, 0, 99, 64
2, 193499, Note_off_c, 0, 87, 64
2, 193510, Note_on_c, 0, 99, 68
2, 193516, Note_on_c, 0, 87, 56
2, 193578, Note_off_c, 0, 99, 64
2, 193584, Note_off_c, 0, 87, 64
2, 193613, Note_on_c, 0, 99, 65
2, 193619, Note_on_c, 0, 87, 53
2, 193682, Note_off_c, 0, 99, 64
2, 193687, Note_off_c, 0, 87, 64
2, 193698, Note_on_c, 0, 99, 62
2, 193704, Note_on_c, 0, 87, 50
2, 193784, Note_off_c, 0, 99, 64
2, 193790, Note_off_c, 0, 87, 64
2, 193801, Note_on_c, 0, 99, 60
2, 193807, Note_on_c, 0, 87, 48
2, 193870, Note_off_c, 0, 99, 64
2, 193876, Note_off_c, 0, 87, 64
2, 193904, Note_on_c, 0, 99, 57
2, 193910, Note_on_c, 0, 87, 45
2, 193973, Note_off_c, 0, 99, 64
2, 193979, Note_off_c, 0, 87, 64
2, 193990, Note_on_c, 0, 99, 54
2, 193996, Note_on_c, 0, 87, 42
2, 194076, Note_off_c, 0, 99, 64
2, 194082, Note_off_c, 0, 87, 64
2, 194093, Note_on_c, 0, 99, 52
2, 194099, Note_on_c, 0, 87, 40
2, 194179, Note_off_c, 0, 99, 64
2, 194185, Note_off_c, 0, 87, 64
2, 194196, Note_on_c, 0, 99, 49
2, 194202, Note_on_c, 0, 87, 37
2, 194282, Note_off_c, 0, 99, 64
2, 194288, Note_off_c, 0, 87, 64
2, 194298, Note_on_c, 0, 99, 46
2, 194304, Note_on_c, 0, 87, 34
2, 194384, Note_off_c, 0, 99, 64
2, 194390, Note_off_c, 0, 87, 64
2, 194402, Note_on_c, 0, 99, 44
2, 194402, Note_on_c, 0, 63, 38
2, 194408, Note_on_c, 0, 87, 32
2, 194452, Note_off_c, 0, 63, 64
2, 194488, Note_off_c, 0, 99, 64
2, 194494, Note_off_c, 0, 87, 64
2, 194504, Note_on_c, 0, 99, 41
2, 194510, Note_on_c, 0, 87, 29
2, 194590, Note_off_c, 0, 99, 64
2, 194596, Note_off_c, 0, 87, 64
2, 194608, Note_on_c, 0, 99, 38
2, 194608, Note_on_c, 0, 75, 50
2, 194614, Note_on_c, 0, 87, 26
2, 194658, Note_off_c, 0, 75, 64
2, 194693, Note_off_c, 0, 99, 64
2, 194699, Note_off_c, 0, 87, 64
2, 194710, Note_on_c, 0, 99, 38
2, 194716, Note_on_c, 0, 87, 26
2, 194795, Note_off_c, 0, 99, 64
2, 194801, Note_off_c, 0, 87, 64
2, 194830, Note_on_c, 0, 99, 38
2, 194836, Note_on_c, 0, 87, 26
2, 194916, Note_off_c, 0, 99, 64
2, 194921, Note_off_c, 0, 87, 64
2, 194933, Note_on_c, 0, 99, 39
2, 194939, Note_on_c, 0, 87, 27
2, 195036, Note_off_c, 0, 99, 64
2, 195038, Note_on_c, 0, 97, 40
2, 195042, Note_off_c, 0, 87, 64
2, 195044, Note_on_c, 0, 85, 28
2, 195121, Note_off_c, 0, 97, 64
2, 195128, Note_off_c, 0, 85, 64
2, 195155, Note_on_c, 0, 97, 41
2, 195161, Note_on_c, 0, 85, 29
2, 195258, Note_off_c, 0, 97, 64
2, 195260, Control_c, 0, 64, 0
2, 195263, Note_on_c, 0, 32, 76
2, 195263, Note_on_c, 0, 44, 82
2, 195263, Note_on_c, 0, 95, 42
2, 195264, Note_off_c, 0, 85, 64
2, 195269, Note_on_c, 0, 83, 30
2, 195306, Note_off_c, 0, 44, 64
2, 195311, Note_off_c, 0, 32, 64
2, 195345, Note_off_c, 0, 95, 64
2, 195351, Note_off_c, 0, 83, 64
2, 195361, Note_on_c, 0, 95, 43
2, 195367, Note_on_c, 0, 83, 31
2, 195417, Control_c, 0, 64, 127
2, 195464, Note_off_c, 0, 95, 64
2, 195470, Note_off_c, 0, 83, 64
2, 195481, Note_on_c, 0, 95, 44
2, 195482, Note_on_c, 0, 63, 58
2, 195484, Note_on_c, 0, 59, 52
2, 195484, Note_on_c, 0, 51, 46
2, 195488, Note_on_c, 0, 83, 32
2, 195530, Note_off_c, 0, 59, 64
2, 195531, Note_off_c, 0, 51, 64
2, 195536, Note_off_c, 0, 63, 64
2, 195567, Note_off_c, 0, 95, 64
2, 195574, Note_off_c, 0, 83, 64
2, 195583, Note_on_c, 0, 95, 45
2, 195587, Note_on_c, 0, 63, 58
2, 195588, Note_on_c, 0, 51, 46
2, 195588, Note_on_c, 0, 59, 52
2, 195591, Note_on_c, 0, 83, 33
2, 195649, Note_off_c, 0, 63, 64
2, 195654, Note_off_c, 0, 59, 64
2, 195655, Note_off_c, 0, 51, 64
2, 195703, Note_off_c, 0, 95, 64
2, 195705, Note_on_c, 0, 94, 46
2, 195706, Note_on_c, 0, 63, 70
2, 195708, Note_on_c, 0, 59, 64
2, 195711, Note_off_c, 0, 83, 64
2, 195711, Note_on_c, 0, 56, 58
2, 195712, Note_on_c, 0, 82, 34
2, 195789, Note_off_c, 0, 94, 64
2, 195789, Note_off_c, 0, 63, 64
2, 195794, Note_off_c, 0, 56, 64
2, 195797, Note_off_c, 0, 82, 64
2, 195800, Note_off_c, 0, 59, 64
2, 195807, Note_on_c, 0, 94, 47
2, 195808, Control_c, 0, 64, 0
2, 195813, Note_on_c, 0, 82, 35
2, 195927, Note_off_c, 0, 94, 64
2, 195930, Note_on_c, 0, 92, 48
2, 195931, Note_on_c, 0, 47, 82
2, 195931, Note_on_c, 0, 35, 76
2, 195933, Note_off_c, 0, 82, 64
2, 195936, Note_on_c, 0, 80, 36
2, 195959, Control_c, 0, 64, 127
2, 195976, Note_off_c, 0, 35, 64
2, 195978, Note_off_c, 0, 47, 64
2, 196014, Note_off_c, 0, 92, 64
2, 196020, Note_off_c, 0, 80, 64
2, 196029, Note_on_c, 0, 92, 49
2, 196035, Note_on_c, 0, 80, 37
2, 196149, Note_off_c, 0, 92, 64
2, 196151, Note_on_c, 0, 91, 50
2, 196154, Note_on_c, 0, 63, 58
2, 196154, Note_on_c, 0, 59, 52
2, 196154, Note_on_c, 0, 51, 46
2, 196155, Note_off_c, 0, 80, 64
2, 196158, Note_on_c, 0, 79, 38
2, 196200, Note_off_c, 0, 51, 64
2, 196201, Note_off_c, 0, 63, 64
2, 196203, Note_off_c, 0, 59, 64
2, 196234, Note_off_c, 0, 91, 64
2, 196242, Note_off_c, 0, 79, 64
2, 196252, Note_on_c, 0, 91, 50
2, 196253, Note_on_c, 0, 63, 58
2, 196255, Note_on_c, 0, 59, 52
2, 196256, Note_on_c, 0, 51, 46
2, 196259, Note_on_c, 0, 79, 38
2, 196304, Note_off_c, 0, 51, 64
2, 196306, Note_off_c, 0, 63, 64
2, 196306, Note_off_c, 0, 59, 64
2, 196372, Note_off_c, 0, 91, 64
2, 196374, Note_on_c, 0, 63, 70
2, 196374, Note_on_c, 0, 59, 64
2, 196374, Note_on_c, 0, 56, 58
2, 196376, Note_on_c, 0, 92, 54
2, 196379, Note_off_c, 0, 79, 64
2, 196382, Note_on_c, 0, 80, 42
2, 196457, Note_off_c, 0, 56, 64
2, 196459, Note_off_c, 0, 92, 64
2, 196459, Note_off_c, 0, 59, 64
2, 196461, Note_off_c, 0, 63, 64
2, 196466, Note_off_c, 0, 80, 64
2, 196475, Note_on_c, 0, 92, 58
2, 196481, Note_on_c, 0, 80, 46
2, 196595, Note_off_c, 0, 92, 64
2, 196597, Control_c, 0, 64, 0
2, 196600, Note_on_c, 0, 51, 82
2, 196600, Note_on_c, 0, 39, 76
2, 196600, Note_on_c, 0, 94, 62
2, 196601, Note_off_c, 0, 80, 64
2, 196606, Note_on_c, 0, 82, 50
2, 196644, Note_off_c, 0, 51, 64
2, 196649, Note_off_c, 0, 39, 64
2, 196682, Note_off_c, 0, 94, 64
2, 196687, Note_off_c, 0, 82, 64
2, 196698, Note_on_c, 0, 94, 62
2, 196704, Note_on_c, 0, 82, 50
2, 196753, Control_c, 0, 64, 127
2, 196801, Note_off_c, 0, 94, 64
2, 196802, Note_on_c, 0, 87, 70
2, 196804, Note_on_c, 0, 67, 58
2, 196807, Note_off_c, 0, 82, 64
2, 196807, Note_on_c, 0, 55, 46
2, 196807, Note_on_c, 0, 63, 52
2, 196810, Note_on_c, 0, 75, 58
2, 196863, Note_off_c, 0, 67, 64
2, 196872, Note_off_c, 0, 63, 64
2, 196873, Note_off_c, 0, 55, 64
2, 196903, Note_off_c, 0, 87, 64
2, 196910, Note_off_c, 0, 75, 64
2, 196920, Note_on_c, 0, 87, 67
2, 196922, Note_on_c, 0, 67, 58
2, 196924, Note_on_c, 0, 63, 52
2, 196924, Note_on_c, 0, 55, 46
2, 196928, Note_on_c, 0, 75, 55
2, 196975, Note_off_c, 0, 55, 64
2, 196976, Note_off_c, 0, 67, 64
2, 196977, Note_off_c, 0, 63, 64
2, 197006, Note_off_c, 0, 87, 64
2, 197013, Note_off_c, 0, 75, 64
2, 197022, Note_on_c, 0, 63, 64
2, 197023, Note_on_c, 0, 87, 64
2, 197025, Note_on_c, 0, 67, 70
2, 197029, Note_on_c, 0, 58, 58
2, 197030, Note_on_c, 0, 75, 52
2, 197126, Note_off_c, 0, 87, 64
2, 197126, Note_off_c, 0, 67, 64
2, 197131, Note_off_c, 0, 63, 64
2, 197132, Note_off_c, 0, 75, 64
2, 197141, Note_off_c, 0, 58, 64
2, 197144, Note_on_c, 0, 87, 62
2, 197150, Note_on_c, 0, 75, 50
2, 197247, Note_off_c, 0, 87, 64
2, 197248, Control_c, 0, 64, 0
2, 197250, Note_on_c, 0, 88, 59
2, 197252, Note_off_c, 0, 75, 64
2, 197252, Note_on_c, 0, 43, 76
2, 197253, Note_on_c, 0, 55, 82
2, 197257, Note_on_c, 0, 76, 47
2, 197310, Note_off_c, 0, 55, 64
2, 197312, Note_off_c, 0, 43, 64
2, 197331, Note_off_c, 0, 88, 64
2, 197339, Note_off_c, 0, 76, 64
2, 197366, Note_on_c, 0, 88, 56
2, 197372, Note_on_c, 0, 76, 44
2, 197393, Control_c, 0, 64, 127
2, 197469, Note_off_c, 0, 88, 64
2, 197472, Note_on_c, 0, 63, 52
2, 197473, Note_on_c, 0, 87, 54
2, 197474, Note_on_c, 0, 61, 46
2, 197474, Note_on_c, 0, 70, 58
2, 197475, Note_off_c, 0, 76, 64
2, 197479, Note_on_c, 0, 75, 42
2, 197520, Note_off_c, 0, 63, 64
2, 197521, Note_off_c, 0, 70, 64
2, 197522, Note_off_c, 0, 61, 64
2, 197556, Note_off_c, 0, 87, 64
2, 197563, Note_off_c, 0, 75, 64
2, 197589, Note_on_c, 0, 87, 51
2, 197591, Note_on_c, 0, 70, 58
2, 197592, Note_on_c, 0, 61, 46
2, 197592, Note_on_c, 0, 63, 52
2, 197596, Note_on_c, 0, 75, 39
2, 197639, Note_off_c, 0, 63, 64
2, 197641, Note_off_c, 0, 61, 64
2, 197644, Note_off_c, 0, 70, 64
2, 197692, Note_off_c, 0, 87, 64
2, 197694, Note_on_c, 0, 85, 48
2, 197695, Note_on_c, 0, 63, 64
2, 197696, Note_on_c, 0, 70, 70
2, 197698, Note_on_c, 0, 61, 58
2, 197699, Note_off_c, 0, 75, 64
2, 197700, Note_on_c, 0, 73, 36
2, 197777, Note_off_c, 0, 85, 64
2, 197784, Note_off_c, 0, 73, 64
2, 197784, Note_off_c, 0, 63, 64
2, 197786, Note_off_c, 0, 70, 64
2, 197787, Note_off_c, 0, 61, 64
2, 197812, Note_on_c, 0, 85, 48
2, 197818, Note_on_c, 0, 73, 36
2, 197915, Note_off_c, 0, 85, 64
2, 197916, Note_on_c, 0, 83, 48
2, 197918, Control_c, 0, 64, 0
2, 197919, Note_on_c, 0, 56, 85
2, 197920, Note_on_c, 0, 44, 79
2, 197921, Note_off_c, 0, 73, 64
2, 197924, Note_on_c, 0, 71, 36
2, 197968, Note_off_c, 0, 56, 64
2, 197969, Note_off_c, 0, 44, 64
2, 198000, Note_off_c, 0, 83, 64
2, 198008, Note_off_c, 0, 71, 64
2, 198018, Note_on_c, 0, 83, 54
2, 198024, Note_on_c, 0, 71, 42
2, 198068, Control_c, 0, 64, 127
2, 198121, Note_off_c, 0, 83, 64
2, 198127, Note_off_c, 0, 71, 64
2, 198137, Note_on_c, 0, 83, 60
2, 198139, Note_on_c, 0, 68, 51
2, 198141, Note_on_c, 0, 63, 45
2, 198141, Note_on_c, 0, 59, 39
2, 198144, Note_on_c, 0, 71, 48
2, 198189, Note_off_c, 0, 68, 64
2, 198190, Note_off_c, 0, 63, 64
2, 198192, Note_off_c, 0, 59, 64
2, 198223, Note_off_c, 0, 83, 64
2, 198229, Note_off_c, 0, 71, 64
2, 198240, Note_on_c, 0, 83, 60
2, 198242, Note_on_c, 0, 68, 51
2, 198243, Note_on_c, 0, 63, 45
2, 198244, Note_on_c, 0, 59, 39
2, 198247, Note_on_c, 0, 71, 48
2, 198309, Note_off_c, 0, 68, 64
2, 198310, Note_off_c, 0, 63, 64
2, 198311, Note_off_c, 0, 59, 64
2, 198360, Note_off_c, 0, 83, 64
2, 198363, Note_on_c, 0, 82, 60
2, 198363, Note_on_c, 0, 59, 51
2, 198363, Note_on_c, 0, 63, 57
2, 198367, Note_off_c, 0, 71, 64
2, 198369, Note_on_c, 0, 70, 48
2, 198447, Note_off_c, 0, 63, 64
2, 198447, Note_off_c, 0, 82, 64
2, 198447, Note_off_c, 0, 59, 64
2, 198453, Note_off_c, 0, 70, 64
2, 198463, Note_on_c, 0, 82, 56
2, 198469, Note_on_c, 0, 70, 44
2, 198578, Control_c, 0, 64, 0
2, 198583, Note_off_c, 0, 82, 64
2, 198586, Note_on_c, 0, 80, 52
2, 198586, Note_on_c, 0, 40, 81
2, 198589, Note_off_c, 0, 70, 64
2, 198592, Note_on_c, 0, 68, 40
2, 198633, Note_off_c, 0, 40, 64
2, 198670, Note_off_c, 0, 80, 64
2, 198676, Note_off_c, 0, 68, 64
2, 198686, Note_on_c, 0, 80, 48
2, 198692, Note_on_c, 0, 68, 36
2, 198728, Control_c, 0, 64, 127
2, 198806, Note_off_c, 0, 80, 64
2, 198809, Note_on_c, 0, 79, 48
2, 198809, Note_on_c, 0, 58, 51
2, 198809, Note_on_c, 0, 62, 57
2, 198812, Note_off_c, 0, 68, 64
2, 198815, Note_on_c, 0, 67, 36
2, 198856, Note_off_c, 0, 58, 64
2, 198857, Note_off_c, 0, 62, 64
2, 198892, Note_off_c, 0, 79, 64
2, 198899, Note_off_c, 0, 67, 64
2, 198910, Note_on_c, 0, 79, 48
2, 198910, Note_on_c, 0, 58, 51
2, 198910, Note_on_c, 0, 62, 57
2, 198916, Note_on_c, 0, 67, 36
2, 198959, Note_off_c, 0, 62, 64
2, 198960, Note_off_c, 0, 58, 64
2, 199030, Note_off_c, 0, 79, 64
2, 199032, Note_on_c, 0, 80, 50
2, 199032, Note_on_c, 0, 58, 63
2, 199032, Note_on_c, 0, 62, 69
2, 199036, Note_off_c, 0, 67, 64
2, 199038, Note_on_c, 0, 68, 38
2, 199115, Note_off_c, 0, 62, 64
2, 199115, Note_off_c, 0, 80, 64
2, 199115, Note_off_c, 0, 58, 64
2, 199122, Note_off_c, 0, 68, 64
2, 199132, Note_on_c, 0, 80, 53
2, 199138, Note_on_c, 0, 68, 41
2, 199252, Note_off_c, 0, 80, 64
2, 199254, Note_on_c, 0, 82, 56
2, 199254, Note_on_c, 0, 39, 81
2, 199258, Note_off_c, 0, 68, 64
2, 199260, Note_on_c, 0, 70, 44
2, 199260, Control_c, 0, 64, 0
2, 199302, Note_off_c, 0, 39, 64
2, 199338, Note_off_c, 0, 82, 64
2, 199344, Note_off_c, 0, 70, 64
2, 199355, Note_on_c, 0, 82, 58
2, 199361, Note_on_c, 0, 70, 46
2, 199410, Control_c, 0, 64, 127
2, 199458, Note_off_c, 0, 82, 64
2, 199460, Note_on_c, 0, 75, 61
2, 199460, Note_on_c, 0, 63, 66
2, 199460, Note_on_c, 0, 54, 47
2, 199460, Note_on_c, 0, 58, 51
2, 199464, Note_off_c, 0, 70, 64
2, 199524, Note_off_c, 0, 58, 64
2, 199525, Note_off_c, 0, 54, 64
2, 199561, Note_off_c, 0, 63, 64
2, 199561, Note_off_c, 0, 75, 64
2, 199578, Note_on_c, 0, 75, 64
2, 199578, Note_on_c, 0, 63, 69
2, 199578, Note_on_c, 0, 54, 47
2, 199578, Note_on_c, 0, 58, 51
2, 199628, Note_off_c, 0, 54, 64
2, 199628, Note_off_c, 0, 58, 64
2, 199663, Note_off_c, 0, 75, 64
2, 199663, Note_off_c, 0, 63, 64
2, 199679, Note_on_c, 0, 87, 66
2, 199680, Note_on_c, 0, 75, 58
2, 199682, Note_on_c, 0, 63, 65
2, 199682, Note_on_c, 0, 58, 63
2, 199684, Note_on_c, 0, 54, 59
2, 199782, Note_off_c, 0, 87, 64
2, 199783, Note_off_c, 0, 75, 64
2, 199785, Note_off_c, 0, 58, 64
2, 199785, Note_off_c, 0, 63, 64
2, 199786, Note_off_c, 0, 54, 64
2, 199800, Note_on_c, 0, 75, 61
2, 199800, Note_on_c, 0, 87, 69
2, 199886, Note_off_c, 0, 75, 64
2, 199886, Note_off_c, 0, 87, 64
2, 199902, Note_on_c, 0, 99, 78
2, 199903, Note_on_c, 0, 87, 70
2, 199905, Note_on_c, 0, 75, 48
2, 199905, Note_on_c, 0, 70, 54
2, 199907, Note_on_c, 0, 67, 46
2, 199934, Control_c, 0, 64, 0
2, 199988, Note_off_c, 0, 99, 64
2, 199989, Note_off_c, 0, 87, 64
2, 200023, Note_on_c, 0, 87, 70
2, 200023, Note_on_c, 0, 99, 78
2, 200084, Control_c, 0, 64, 127
2, 200109, Note_off_c, 0, 87, 64
2, 200109, Note_off_c, 0, 99, 64
2, 200110, Note_off_c, 0, 75, 64
2, 200111, Note_off_c, 0, 70, 64
2, 200112, Note_off_c, 0, 67, 64
2, 200126, Note_on_c, 0, 87, 64
2, 200126, Note_on_c, 0, 99, 72
2, 200212, Note_off_c, 0, 87, 64
2, 200212, Note_off_c, 0, 99, 64
2, 200246, Note_on_c, 0, 87, 58
2, 200246, Note_on_c, 0, 99, 66
2, 200349, Note_off_c, 0, 87, 64
2, 200349, Note_off_c, 0, 99, 64
2, 200351, Note_on_c, 0, 85, 52
2, 200351, Note_on_c, 0, 97, 60
2, 200435, Note_off_c, 0, 85, 64
2, 200435, Note_off_c, 0, 97, 64
2, 200468, Note_on_c, 0, 85, 46
2, 200468, Note_on_c, 0, 97, 54
2, 200571, Note_off_c, 0, 85, 64
2, 200571, Note_off_c, 0, 97, 64
2, 200573, Control_c, 0, 64, 0
2, 200576, Note_on_c, 0, 84, 70
2, 200576, Note_on_c, 0, 96, 78
2, 200576, Note_on_c, 0, 44, 82
2, 200576, Note_on_c, 0, 32, 78
2, 200621, Note_off_c, 0, 44, 64
2, 200622, Note_off_c, 0, 32, 64
2, 200658, Note_off_c, 0, 96, 64
2, 200659, Note_off_c, 0, 84, 64
2, 200674, Note_on_c, 0, 84, 70
2, 200674, Note_on_c, 0, 96, 78
2, 200718, Control_c, 0, 64, 127
2, 200777, Note_off_c, 0, 84, 64
2, 200777, Note_off_c, 0, 96, 64
2, 200794, Note_on_c, 0, 96, 70
2, 200795, Note_on_c, 0, 84, 62
2, 200795, Note_on_c, 0, 63, 44
2, 200796, Note_on_c, 0, 58, 50
2, 200798, Note_on_c, 0, 54, 44
2, 200845, Note_off_c, 0, 63, 64
2, 200846, Note_off_c, 0, 58, 64
2, 200847, Note_off_c, 0, 54, 64
2, 200880, Note_off_c, 0, 96, 64
2, 200880, Note_off_c, 0, 84, 64
2, 200896, Note_on_c, 0, 96, 62
2, 200897, Note_on_c, 0, 84, 54
2, 200898, Note_on_c, 0, 63, 44
2, 200900, Note_on_c, 0, 58, 50
2, 200901, Note_on_c, 0, 54, 44
2, 200964, Note_off_c, 0, 63, 64
2, 200967, Note_off_c, 0, 58, 64
2, 200968, Note_off_c, 0, 54, 64
2, 201016, Note_off_c, 0, 96, 64
2, 201017, Note_off_c, 0, 84, 64
2, 201018, Note_on_c, 0, 93, 54
2, 201020, Note_on_c, 0, 81, 46
2, 201021, Note_on_c, 0, 63, 56
2, 201021, Note_on_c, 0, 58, 62
2, 201022, Note_on_c, 0, 54, 56
2, 201102, Note_off_c, 0, 93, 64
2, 201104, Note_off_c, 0, 81, 64
2, 201105, Note_off_c, 0, 58, 64
2, 201105, Note_off_c, 0, 63, 64
2, 201106, Note_off_c, 0, 54, 64
2, 201120, Note_on_c, 0, 81, 46
2, 201120, Note_on_c, 0, 93, 54
2, 201230, Control_c, 0, 64, 0
2, 201240, Note_off_c, 0, 81, 64
2, 201240, Note_off_c, 0, 93, 64
2, 201243, Note_on_c, 0, 80, 72
2, 201243, Note_on_c, 0, 92, 78
2, 201243, Note_on_c, 0, 48, 82
2, 201243, Note_on_c, 0, 36, 82
2, 201290, Note_off_c, 0, 48, 64
2, 201291, Note_off_c, 0, 36, 64
2, 201326, Note_off_c, 0, 92, 64
2, 201327, Note_off_c, 0, 80, 64
2, 201343, Note_on_c, 0, 80, 72
2, 201343, Note_on_c, 0, 92, 78
2, 201380, Control_c, 0, 64, 127
2, 201429, Note_off_c, 0, 80, 64
2, 201429, Note_off_c, 0, 92, 64
2, 201462, Note_on_c, 0, 92, 70
2, 201463, Note_on_c, 0, 80, 64
2, 201465, Note_on_c, 0, 70, 58
2, 201465, Note_on_c, 0, 63, 52
2, 201466, Note_on_c, 0, 58, 48
2, 201513, Note_off_c, 0, 70, 64
2, 201515, Note_off_c, 0, 58, 64
2, 201515, Note_off_c, 0, 63, 64
2, 201547, Note_off_c, 0, 92, 64
2, 201548, Note_off_c, 0, 80, 64
2, 201565, Note_on_c, 0, 92, 62
2, 201566, Note_on_c, 0, 80, 56
2, 201567, Note_on_c, 0, 70, 58
2, 201568, Note_on_c, 0, 63, 52
2, 201569, Note_on_c, 0, 58, 48
2, 201616, Note_off_c, 0, 70, 64
2, 201617, Note_off_c, 0, 63, 64
2, 201619, Note_off_c, 0, 58, 64
2, 201685, Note_off_c, 0, 92, 64
2, 201686, Note_off_c, 0, 80, 64
2, 201686, Note_on_c, 0, 90, 54
2, 201688, Note_on_c, 0, 78, 48
2, 201689, Note_on_c, 0, 70, 62
2, 201690, Note_on_c, 0, 63, 56
2, 201690, Note_on_c, 0, 58, 52
2, 201770, Note_off_c, 0, 90, 64
2, 201772, Note_off_c, 0, 78, 64
2, 201773, Note_off_c, 0, 70, 64
2, 201774, Note_off_c, 0, 63, 64
2, 201774, Note_off_c, 0, 58, 64
2, 201788, Note_on_c, 0, 78, 48
2, 201788, Note_on_c, 0, 90, 54
2, 201890, Control_c, 0, 64, 0
2, 201908, Note_off_c, 0, 78, 64
2, 201908, Note_off_c, 0, 90, 64
2, 201911, Note_on_c, 0, 76, 60
2, 201911, Note_on_c, 0, 88, 66
2, 201911, Note_on_c, 0, 49, 50
2, 201911, Note_on_c, 0, 37, 46
2, 202040, Control_c, 0, 64, 127
2, 202114, Note_off_c, 0, 76, 64
2, 202114, Note_off_c, 0, 88, 64
2, 202115, Note_off_c, 0, 49, 64
2, 202115, Note_off_c, 0, 37, 64
2, 202116, Note_on_c, 0, 69, 46
2, 202117, Note_on_c, 0, 73, 80
2, 202117, Note_on_c, 0, 64, 38
2, 202118, Note_on_c, 0, 57, 46
2, 202119, Note_on_c, 0, 61, 58
2, 202121, Note_on_c, 0, 52, 50
2, 202176, Note_off_c, 0, 61, 64
2, 202178, Note_off_c, 0, 69, 64
2, 202179, Note_off_c, 0, 64, 64
2, 202185, Note_off_c, 0, 57, 64
2, 202197, Note_off_c, 0, 52, 64
2, 202203, Note_off_c, 0, 73, 64
2, 202231, Note_on_c, 0, 69, 48
2, 202231, Note_on_c, 0, 64, 40
2, 202233, Note_on_c, 0, 61, 36
2, 202235, Note_on_c, 0, 73, 58
2, 202239, Note_on_c, 0, 57, 48
2, 202239, Note_on_c, 0, 52, 52
2, 202287, Note_off_c, 0, 69, 64
2, 202287, Note_off_c, 0, 64, 64
2, 202295, Note_off_c, 0, 61, 64
2, 202296, Note_off_c, 0, 57, 64
2, 202310, Note_off_c, 0, 52, 64
2, 202310, Note_off_c, 0, 73, 64
2, 202336, Note_on_c, 0, 75, 86
2, 202338, Note_on_c, 0, 64, 43
2, 202341, Note_on_c, 0, 69, 51
2, 202342, Note_on_c, 0, 61, 64
2, 202342, Note_on_c, 0, 51, 55
2, 202343, Note_on_c, 0, 57, 51
2, 202394, Note_off_c, 0, 64, 64
2, 202397, Note_off_c, 0, 69, 64
2, 202400, Note_off_c, 0, 61, 64
2, 202404, Note_off_c, 0, 57, 64
2, 202409, Note_off_c, 0, 75, 64
2, 202414, Note_off_c, 0, 51, 64
2, 202454, Note_on_c, 0, 64, 45
2, 202457, Note_on_c, 0, 69, 53
2, 202457, Note_on_c, 0, 51, 58
2, 202458, Note_on_c, 0, 61, 40
2, 202459, Note_on_c, 0, 75, 64
2, 202460, Note_on_c, 0, 57, 53
2, 202512, Note_off_c, 0, 61, 64
2, 202513, Note_off_c, 0, 64, 64
2, 202514, Note_off_c, 0, 57, 64
2, 202516, Note_off_c, 0, 69, 64
2, 202523, Note_off_c, 0, 51, 64
2, 202529, Note_off_c, 0, 75, 64
2, 202554, Note_on_c, 0, 69, 56
2, 202557, Note_on_c, 0, 64, 46
2, 202559, Note_on_c, 0, 57, 56
2, 202560, Note_on_c, 0, 76, 94
2, 202563, Note_on_c, 0, 61, 70
2, 202564, Note_on_c, 0, 49, 61
2, 202588, Control_c, 0, 64, 0
2, 202613, Note_off_c, 0, 69, 64
2, 202616, Note_off_c, 0, 57, 64
2, 202617, Note_off_c, 0, 64, 64
2, 202624, Note_off_c, 0, 76, 64
2, 202626, Note_off_c, 0, 61, 64
2, 202630, Note_off_c, 0, 49, 64
2, 202662, Note_on_c, 0, 49, 64
2, 202662, Note_on_c, 0, 61, 45
2, 202665, Note_on_c, 0, 69, 59
2, 202666, Note_on_c, 0, 57, 59
2, 202669, Note_on_c, 0, 76, 70
2, 202669, Note_on_c, 0, 64, 50
2, 202728, Note_off_c, 0, 69, 64
2, 202728, Note_off_c, 0, 57, 64
2, 202732, Note_off_c, 0, 61, 64
2, 202738, Control_c, 0, 64, 127
2, 202741, Note_off_c, 0, 49, 64
2, 202743, Note_off_c, 0, 64, 64
2, 202744, Note_off_c, 0, 76, 64
2, 202783, Note_on_c, 0, 69, 62
2, 202784, Note_on_c, 0, 64, 53
2, 202784, Note_on_c, 0, 57, 62
2, 202786, Note_on_c, 0, 75, 103
2, 202788, Note_on_c, 0, 61, 78
2, 202791, Note_on_c, 0, 51, 67
2, 202837, Note_off_c, 0, 69, 64
2, 202839, Note_off_c, 0, 57, 64
2, 202840, Note_off_c, 0, 64, 64
2, 202853, Note_off_c, 0, 61, 64
2, 202854, Note_off_c, 0, 75, 64
2, 202862, Note_off_c, 0, 51, 64
2, 202884, Note_on_c, 0, 69, 66
2, 202888, Note_on_c, 0, 57, 66
2, 202888, Note_on_c, 0, 51, 70
2, 202889, Note_on_c, 0, 64, 55
2, 202890, Note_on_c, 0, 75, 77
2, 202891, Note_on_c, 0, 61, 51
2, 202945, Note_off_c, 0, 69, 64
2, 202948, Note_off_c, 0, 64, 64
2, 202949, Note_off_c, 0, 57, 64
2, 202953, Note_off_c, 0, 51, 64
2, 202954, Note_off_c, 0, 75, 64
2, 202956, Note_off_c, 0, 61, 64
2, 202982, Note_on_c, 0, 73, 107
2, 202986, Note_on_c, 0, 57, 62
2, 202986, Note_on_c, 0, 69, 64
2, 202988, Note_on_c, 0, 64, 54
2, 202990, Note_on_c, 0, 61, 79
2, 202993, Note_on_c, 0, 52, 69
2, 203056, Note_off_c, 0, 69, 64
2, 203056, Note_off_c, 0, 64, 64
2, 203057, Note_off_c, 0, 61, 64
2, 203059, Note_off_c, 0, 57, 64
2, 203061, Note_off_c, 0, 73, 64
2, 203069, Note_off_c, 0, 52, 64
2, 203107, Note_on_c, 0, 61, 56
2, 203110, Note_on_c, 0, 73, 87
2, 203111, Note_on_c, 0, 52, 78
2, 203111, Note_on_c, 0, 64, 63
2, 203113, Note_on_c, 0, 57, 73
2, 203113, Note_on_c, 0, 69, 74
2, 203162, Note_off_c, 0, 64, 64
2, 203168, Note_off_c, 0, 61, 64
2, 203173, Note_off_c, 0, 69, 64
2, 203176, Note_off_c, 0, 57, 64
2, 203177, Note_off_c, 0, 73, 64
2, 203178, Control_c, 0, 64, 0
2, 203183, Note_off_c, 0, 52, 64
2, 203216, Note_on_c, 0, 75, 78
2, 203217, Note_on_c, 0, 71, 63
2, 203218, Note_on_c, 0, 59, 72
2, 203218, Note_on_c, 0, 56, 56
2, 203219, Note_on_c, 0, 68, 56
2, 203219, Note_on_c, 0, 63, 73
2, 203223, Note_on_c, 0, 51, 50
2, 203301, Note_off_c, 0, 71, 64
2, 203304, Note_off_c, 0, 75, 64
2, 203304, Note_off_c, 0, 63, 64
2, 203304, Note_off_c, 0, 56, 64
2, 203304, Note_off_c, 0, 59, 64
2, 203308, Note_off_c, 0, 68, 64
2, 203310, Note_off_c, 0, 51, 64
2, 203321, Note_on_c, 0, 76, 58
2, 203322, Note_on_c, 0, 62, 54
2, 203327, Note_on_c, 0, 64, 47
2, 203328, Control_c, 0, 64, 127
2, 203334, Note_on_c, 0, 50, 58
2, 203417, Note_off_c, 0, 62, 64
2, 203423, Note_off_c, 0, 76, 64
2, 203429, Note_off_c, 0, 64, 64
2, 203432, Note_off_c, 0, 50, 64
2, 203436, Note_on_c, 0, 61, 60
2, 203437, Note_on_c, 0, 77, 60
2, 203444, Note_on_c, 0, 65, 49
2, 203451, Note_on_c, 0, 49, 60
2, 203520, Note_off_c, 0, 77, 64
2, 203526, Note_off_c, 0, 61, 64
2, 203537, Note_off_c, 0, 65, 64
2, 203540, Note_on_c, 0, 78, 62
2, 203541, Note_on_c, 0, 60, 62
2, 203545, Note_off_c, 0, 49, 64
2, 203547, Note_on_c, 0, 66, 50
2, 203555, Note_on_c, 0, 48, 62
2, 203626, Note_off_c, 0, 66, 64
2, 203633, Note_off_c, 0, 78, 64
2, 203639, Note_off_c, 0, 60, 64
2, 203641, Note_off_c, 0, 48, 64
2, 203642, Note_on_c, 0, 59, 64
2, 203643, Note_on_c, 0, 79, 64
2, 203649, Note_on_c, 0, 67, 52
2, 203656, Note_on_c, 0, 47, 64
2, 203740, Note_off_c, 0, 67, 64
2, 203747, Note_off_c, 0, 79, 64
2, 203753, Note_off_c, 0, 59, 64
2, 203764, Note_on_c, 0, 58, 66
2, 203765, Note_on_c, 0, 80, 66
2, 203769, Note_off_c, 0, 47, 64
2, 203771, Note_on_c, 0, 68, 54
2, 203775, Note_on_c, 0, 46, 66
2, 203848, Note_off_c, 0, 80, 64
2, 203850, Note_off_c, 0, 58, 64
2, 203862, Note_off_c, 0, 68, 64
2, 203867, Note_off_c, 0, 46, 64
2, 203868, Note_on_c, 0, 57, 68
2, 203869, Note_on_c, 0, 81, 69
2, 203873, Note_on_c, 0, 69, 57
2, 203881, Note_on_c, 0, 45, 68
2, 203942, Note_off_c, 0, 69, 64
2, 203959, Note_off_c, 0, 57, 64
2, 203962, Note_off_c, 0, 81, 64
2, 203971, Note_off_c, 0, 45, 64
2, 203971, Note_on_c, 0, 56, 69
2, 203971, Note_on_c, 0, 82, 71
2, 203977, Note_on_c, 0, 70, 59
2, 203982, Note_on_c, 0, 44, 69
2, 204056, Note_off_c, 0, 82, 64
2, 204057, Note_off_c, 0, 70, 64
2, 204066, Note_off_c, 0, 56, 64
2, 204071, Note_on_c, 0, 83, 72
2, 204073, Note_on_c, 0, 55, 71
2, 204078, Note_off_c, 0, 44, 64
2, 204079, Note_on_c, 0, 71, 60
2, 204086, Note_on_c, 0, 43, 71
2, 204157, Note_off_c, 0, 71, 64
2, 204165, Note_off_c, 0, 83, 64
2, 204169, Note_off_c, 0, 43, 64
2, 204169, Note_off_c, 0, 55, 64
2, 204171, Note_on_c, 0, 84, 74
2, 204176, Note_on_c, 0, 54, 73
2, 204179, Note_on_c, 0, 72, 62
2, 204187, Note_on_c, 0, 42, 73
2, 204265, Note_off_c, 0, 72, 64
2, 204281, Note_off_c, 0, 84, 64
2, 204282, Note_off_c, 0, 54, 64
2, 204286, Note_off_c, 0, 42, 64
2, 204295, Note_on_c, 0, 53, 75
2, 204295, Note_on_c, 0, 85, 77
2, 204301, Note_on_c, 0, 73, 64
2, 204306, Note_on_c, 0, 41, 75
2, 204377, Note_off_c, 0, 73, 64
2, 204385, Note_off_c, 0, 85, 64
2, 204389, Note_off_c, 0, 41, 64
2, 204392, Note_off_c, 0, 53, 64
2, 204396, Note_on_c, 0, 86, 79
2, 204399, Note_on_c, 0, 52, 77
2, 204405, Note_on_c, 0, 74, 66
2, 204410, Note_on_c, 0, 40, 77
2, 204484, Note_off_c, 0, 52, 64
2, 204485, Note_off_c, 0, 74, 64
2, 204488, Note_off_c, 0, 86, 64
2, 204494, Note_off_c, 0, 40, 64
2, 204499, Note_on_c, 0, 87, 96
2, 204505, Note_on_c, 0, 51, 96
2, 204507, Note_on_c, 0, 82, 76
2, 204509, Note_on_c, 0, 79, 68
2, 204510, Note_on_c, 0, 75, 68
2, 204516, Note_on_c, 0, 43, 81
2, 204516, Note_on_c, 0, 46, 88
2, 204517, Note_on_c, 0, 39, 81
2, 204520, Control_c, 0, 64, 0
2, 204586, Note_off_c, 0, 87, 64
2, 204587, Note_off_c, 0, 82, 64
2, 204590, Note_off_c, 0, 75, 64
2, 204592, Note_off_c, 0, 79, 64
2, 204602, Note_off_c, 0, 51, 64
2, 204604, Note_off_c, 0, 43, 64
2, 204606, Note_off_c, 0, 39, 64
2, 204606, Note_off_c, 0, 46, 64
2, 204607, Note_on_c, 0, 50, 82
2, 204609, Note_on_c, 0, 88, 82
2, 204614, Note_on_c, 0, 76, 70
2, 204620, Note_on_c, 0, 38, 82
2, 204677, Control_c, 0, 64, 127
2, 204685, Note_off_c, 0, 50, 64
2, 204694, Note_off_c, 0, 76, 64
2, 204695, Note_off_c, 0, 88, 64
2, 204707, Note_on_c, 0, 49, 85
2, 204708, Note_on_c, 0, 89, 86
2, 204710, Note_off_c, 0, 38, 64
2, 204713, Note_on_c, 0, 77, 74
2, 204720, Note_on_c, 0, 37, 85
2, 204790, Note_off_c, 0, 49, 64
2, 204794, Note_off_c, 0, 77, 64
2, 204799, Note_off_c, 0, 89, 64
2, 204808, Note_on_c, 0, 90, 88
2, 204809, Note_off_c, 0, 37, 64
2, 204809, Note_on_c, 0, 48, 87
2, 204817, Note_on_c, 0, 78, 75
2, 204821, Note_on_c, 0, 36, 87
2, 204879, Note_off_c, 0, 90, 64
2, 204883, Note_off_c, 0, 48, 64
2, 204888, Note_off_c, 0, 78, 64
2, 204895, Note_off_c, 0, 36, 64
2, 204925, Note_on_c, 0, 91, 90
2, 204926, Note_on_c, 0, 47, 89
2, 204930, Note_on_c, 0, 79, 77
2, 204937, Note_on_c, 0, 35, 89
2, 205002, Note_off_c, 0, 79, 64
2, 205013, Note_off_c, 0, 47, 64
2, 205024, Note_off_c, 0, 91, 64
2, 205030, Note_off_c, 0, 35, 64
2, 205033, Note_on_c, 0, 46, 91
2, 205034, Note_on_c, 0, 92, 93
2, 205038, Note_on_c, 0, 80, 80
2, 205043, Note_on_c, 0, 34, 92
2, 205121, Note_off_c, 0, 46, 64
2, 205123, Note_off_c, 0, 80, 64
2, 205130, Note_off_c, 0, 92, 64
2, 205133, Note_on_c, 0, 93, 95
2, 205135, Note_on_c, 0, 45, 94
2, 205136, Note_off_c, 0, 34, 64
2, 205139, Note_on_c, 0, 81, 82
2, 205149, Note_on_c, 0, 33, 94
2, 205225, Note_off_c, 0, 45, 64
2, 205225, Note_off_c, 0, 93, 64
2, 205229, Note_off_c, 0, 81, 64
2, 205236, Note_on_c, 0, 94, 97
2, 205239, Note_on_c, 0, 44, 96
2, 205240, Note_off_c, 0, 33, 64
2, 205244, Note_on_c, 0, 82, 84
2, 205254, Note_on_c, 0, 32, 96
2, 205319, Note_off_c, 0, 94, 64
2, 205328, Note_off_c, 0, 44, 64
2, 205328, Note_off_c, 0, 82, 64
2, 205338, Note_on_c, 0, 95, 99
2, 205341, Note_on_c, 0, 43, 98
2, 205346, Note_on_c, 0, 83, 86
2, 205350, Note_off_c, 0, 32, 64
2, 205354, Note_on_c, 0, 31, 99
2, 205422, Note_off_c, 0, 95, 64
2, 205423, Note_off_c, 0, 83, 64
2, 205423, Note_off_c, 0, 43, 64
2, 205443, Note_off_c, 0, 31, 64
2, 205443, Note_on_c, 0, 97, 102
2, 205445, Note_on_c, 0, 42, 101
2, 205450, Note_on_c, 0, 85, 88
2, 205453, Note_on_c, 0, 30, 101
2, 205531, Note_off_c, 0, 97, 64
2, 205533, Note_off_c, 0, 85, 64
2, 205536, Note_off_c, 0, 30, 64
2, 205536, Note_off_c, 0, 42, 64
2, 205545, Note_on_c, 0, 98, 106
2, 205545, Note_on_c, 0, 40, 103
2, 205550, Note_on_c, 0, 86, 92
2, 205558, Note_on_c, 0, 28, 103
2, 205626, Note_off_c, 0, 98, 64
2, 205632, Note_off_c, 0, 86, 64
2, 205636, Note_off_c, 0, 40, 64
2, 205645, Note_off_c, 0, 28, 64
2, 205648, Note_on_c, 0, 39, 106
2, 205650, Note_on_c, 0, 99, 106
2, 205655, Note_on_c, 0, 87, 93
2, 205661, Note_on_c, 0, 27, 106
2, 205734, Note_off_c, 0, 87, 64
2, 205741, Note_off_c, 0, 99, 64
2, 205745, Note_off_c, 0, 39, 64
2, 205758, Note_off_c, 0, 27, 64
2, 205826, Control_c, 0, 64, 0
2, 205957, Note_on_c, 0, 68, 74
2, 205957, Note_on_c, 0, 59, 74
2, 205957, Note_on_c, 0, 63, 74
2, 205957, Note_on_c, 0, 44, 86
2, 205957, Note_on_c, 0, 32, 86
2, 206003, Note_off_c, 0, 44, 64
2, 206004, Note_off_c, 0, 32, 64
2, 206121, Control_c, 0, 64, 127
2, 206160, Note_off_c, 0, 59, 64
2, 206160, Note_off_c, 0, 68, 64
2, 206161, Note_off_c, 0, 63, 64
2, 206162, Note_on_c, 0, 51, 86
2, 206162, Note_on_c, 0, 39, 86
2, 206210, Note_off_c, 0, 51, 64
2, 206211, Note_off_c, 0, 39, 64
2, 206261, Note_on_c, 0, 56, 85
2, 206261, Note_on_c, 0, 44, 85
2, 206313, Note_off_c, 0, 56, 64
2, 206313, Note_off_c, 0, 44, 64
2, 206364, Note_on_c, 0, 83, 89
2, 206366, Note_on_c, 0, 63, 83
2, 206368, Note_on_c, 0, 51, 83
2, 206370, Note_on_c, 0, 75, 77
2, 206371, Note_on_c, 0, 71, 73
2, 206466, Note_off_c, 0, 63, 64
2, 206467, Note_off_c, 0, 51, 64
2, 206520, Note_off_c, 0, 71, 64
2, 206521, Note_off_c, 0, 75, 64
2, 206537, Note_off_c, 0, 83, 64
2, 206569, Note_on_c, 0, 82, 95
2, 206572, Note_on_c, 0, 44, 80
2, 206573, Note_on_c, 0, 32, 80
2, 206576, Note_on_c, 0, 70, 79
2, 206576, Note_on_c, 0, 75, 83
2, 206620, Note_off_c, 0, 44, 64
2, 206622, Note_off_c, 0, 32, 64
2, 206652, Note_off_c, 0, 75, 64
2, 206664, Note_off_c, 0, 82, 64
2, 206665, Note_off_c, 0, 70, 64
2, 206676, Note_on_c, 0, 83, 98
2, 206682, Note_on_c, 0, 71, 82
2, 206757, Note_off_c, 0, 71, 64
2, 206758, Note_off_c, 0, 83, 64
2, 206777, Note_on_c, 0, 85, 98
2, 206779, Note_on_c, 0, 51, 77
2, 206780, Note_on_c, 0, 39, 77
2, 206787, Note_on_c, 0, 73, 86
2, 206790, Control_c, 0, 64, 0
2, 206827, Note_off_c, 0, 51, 64
2, 206827, Note_off_c, 0, 39, 64
2, 206878, Note_on_c, 0, 56, 76
2, 206878, Note_on_c, 0, 44, 76
2, 206923, Control_c, 0, 64, 127
2, 206929, Note_off_c, 0, 56, 64
2, 206929, Note_off_c, 0, 44, 64
2, 206941, Note_off_c, 0, 73, 64
2, 206945, Note_off_c, 0, 85, 64
2, 206983, Note_on_c, 0, 83, 94
2, 206985, Note_on_c, 0, 63, 74
2, 206987, Note_on_c, 0, 51, 74
2, 206989, Note_on_c, 0, 75, 82
2, 206991, Note_on_c, 0, 71, 78
2, 207073, Note_off_c, 0, 83, 64
2, 207077, Note_off_c, 0, 75, 64
2, 207087, Note_off_c, 0, 63, 64
2, 207089, Note_off_c, 0, 51, 64
2, 207089, Note_on_c, 0, 82, 90
2, 207090, Note_off_c, 0, 71, 64
2, 207094, Note_on_c, 0, 70, 74
2, 207184, Note_off_c, 0, 82, 64
2, 207189, Note_off_c, 0, 70, 64
2, 207190, Note_on_c, 0, 83, 86
2, 207190, Note_on_c, 0, 44, 86
2, 207190, Note_on_c, 0, 32, 86
2, 207195, Note_on_c, 0, 75, 74
2, 207196, Note_on_c, 0, 71, 70
2, 207236, Note_off_c, 0, 44, 64
2, 207237, Note_off_c, 0, 32, 64
2, 207272, Note_off_c, 0, 75, 64
2, 207286, Note_off_c, 0, 83, 64
2, 207293, Note_on_c, 0, 85, 86
2, 207295, Note_off_c, 0, 71, 64
2, 207298, Note_on_c, 0, 73, 74
2, 207376, Note_off_c, 0, 73, 64
2, 207384, Control_c, 0, 64, 0
2, 207387, Note_off_c, 0, 85, 64
2, 207394, Note_on_c, 0, 87, 98
2, 207396, Note_on_c, 0, 51, 86
2, 207398, Note_on_c, 0, 39, 86
2, 207400, Note_on_c, 0, 75, 86
2, 207444, Note_off_c, 0, 51, 64
2, 207445, Note_off_c, 0, 39, 64
2, 207496, Note_on_c, 0, 56, 85
2, 207496, Note_on_c, 0, 44, 85
2, 207547, Note_off_c, 0, 56, 64
2, 207547, Note_off_c, 0, 44, 64
2, 207553, Control_c, 0, 64, 127
2, 207577, Note_off_c, 0, 75, 64
2, 207581, Note_off_c, 0, 87, 64
2, 207601, Note_on_c, 0, 85, 98
2, 207601, Note_on_c, 0, 63, 83
2, 207601, Note_on_c, 0, 51, 83
2, 207607, Note_on_c, 0, 73, 86
2, 207690, Note_off_c, 0, 85, 64
2, 207692, Note_off_c, 0, 73, 64
2, 207702, Note_off_c, 0, 51, 64
2, 207702, Note_off_c, 0, 63, 64
2, 207705, Note_on_c, 0, 83, 92
2, 207710, Note_on_c, 0, 71, 76
2, 207793, Note_off_c, 0, 83, 64
2, 207806, Note_on_c, 0, 82, 86
2, 207808, Note_on_c, 0, 44, 80
2, 207809, Note_on_c, 0, 32, 80
2, 207813, Note_on_c, 0, 75, 74
2, 207815, Note_on_c, 0, 70, 70
2, 207824, Note_off_c, 0, 71, 64
2, 207855, Note_off_c, 0, 44, 64
2, 207856, Note_off_c, 0, 32, 64
2, 207887, Note_off_c, 0, 75, 64
2, 207896, Note_off_c, 0, 82, 64
2, 207910, Note_on_c, 0, 83, 92
2, 207916, Note_on_c, 0, 71, 76
2, 207930, Note_off_c, 0, 70, 64
2, 207999, Note_off_c, 0, 83, 64
2, 208011, Note_on_c, 0, 85, 98
2, 208013, Note_on_c, 0, 51, 77
2, 208014, Note_on_c, 0, 39, 77
2, 208020, Note_on_c, 0, 73, 86
2, 208021, Note_off_c, 0, 71, 64
2, 208061, Note_off_c, 0, 51, 64
2, 208062, Note_off_c, 0, 39, 64
2, 208076, Control_c, 0, 64, 0
2, 208112, Note_on_c, 0, 56, 76
2, 208112, Note_on_c, 0, 44, 76
2, 208163, Note_off_c, 0, 44, 64
2, 208164, Note_off_c, 0, 56, 64
2, 208187, Note_off_c, 0, 73, 64
2, 208196, Note_off_c, 0, 85, 64
2, 208209, Control_c, 0, 64, 127
2, 208217, Note_on_c, 0, 83, 98
2, 208219, Note_on_c, 0, 63, 74
2, 208221, Note_on_c, 0, 51, 74
2, 208224, Note_on_c, 0, 75, 86
2, 208225, Note_on_c, 0, 71, 82
2, 208303, Note_off_c, 0, 75, 64
2, 208310, Note_off_c, 0, 83, 64
2, 208320, Note_off_c, 0, 63, 64
2, 208322, Note_off_c, 0, 51, 64
2, 208323, Note_on_c, 0, 82, 95
2, 208328, Note_on_c, 0, 70, 79
2, 208333, Note_off_c, 0, 71, 64
2, 208418, Note_off_c, 0, 82, 64
2, 208426, Note_on_c, 0, 83, 92
2, 208426, Note_on_c, 0, 32, 74
2, 208426, Note_on_c, 0, 44, 74
2, 208432, Note_on_c, 0, 71, 76
2, 208433, Note_on_c, 0, 75, 80
2, 208442, Note_off_c, 0, 70, 64
2, 208470, Note_off_c, 0, 44, 64
2, 208471, Note_off_c, 0, 32, 64
2, 208508, Note_off_c, 0, 75, 64
2, 208514, Note_off_c, 0, 83, 64
2, 208526, Note_on_c, 0, 82, 89
2, 208533, Note_on_c, 0, 70, 73
2, 208534, Note_off_c, 0, 71, 64
2, 208613, Note_off_c, 0, 82, 64
2, 208617, Note_off_c, 0, 70, 64
2, 208630, Note_on_c, 0, 80, 86
2, 208630, Note_on_c, 0, 51, 76
2, 208630, Note_on_c, 0, 39, 76
2, 208639, Note_on_c, 0, 68, 70
2, 208677, Note_off_c, 0, 51, 64
2, 208677, Note_off_c, 0, 39, 64
2, 208730, Note_on_c, 0, 56, 77
2, 208730, Note_on_c, 0, 44, 77
2, 208781, Note_off_c, 0, 56, 64
2, 208781, Note_off_c, 0, 44, 64
2, 208792, Note_off_c, 0, 68, 64
2, 208825, Note_off_c, 0, 80, 64
2, 208833, Note_on_c, 0, 95, 86
2, 208836, Note_on_c, 0, 63, 78
2, 208838, Note_on_c, 0, 51, 78
2, 208847, Note_on_c, 0, 87, 70
2, 208847, Note_on_c, 0, 83, 60
2, 208854, Control_c, 0, 64, 0
2, 208934, Note_off_c, 0, 63, 64
2, 208936, Note_off_c, 0, 51, 64
2, 208999, Control_c, 0, 64, 127
2, 209007, Note_off_c, 0, 83, 64
2, 209012, Note_off_c, 0, 87, 64
2, 209020, Note_off_c, 0, 95, 64
2, 209037, Note_on_c, 0, 94, 92
2, 209040, Note_on_c, 0, 44, 81
2, 209042, Note_on_c, 0, 32, 81
2, 209051, Note_on_c, 0, 87, 76
2, 209051, Note_on_c, 0, 82, 66
2, 209088, Note_off_c, 0, 44, 64
2, 209090, Note_off_c, 0, 32, 64
2, 209140, Note_off_c, 0, 94, 64
2, 209144, Note_on_c, 0, 95, 95
2, 209145, Note_off_c, 0, 82, 64
2, 209145, Note_off_c, 0, 87, 64
2, 209156, Note_on_c, 0, 83, 69
2, 209244, Note_off_c, 0, 95, 64
2, 209246, Note_off_c, 0, 83, 64
2, 209247, Note_on_c, 0, 97, 95
2, 209247, Note_on_c, 0, 51, 83
2, 209247, Note_on_c, 0, 39, 83
2, 209259, Note_on_c, 0, 85, 79
2, 209294, Note_off_c, 0, 39, 64
2, 209295, Note_off_c, 0, 51, 64
2, 209326, Control_c, 0, 64, 0
2, 209346, Note_on_c, 0, 56, 84
2, 209346, Note_on_c, 0, 44, 84
2, 209397, Note_off_c, 0, 56, 64
2, 209398, Note_off_c, 0, 44, 64
2, 209442, Note_off_c, 0, 85, 64
2, 209450, Note_off_c, 0, 97, 64
2, 209450, Note_on_c, 0, 95, 91
2, 209454, Note_on_c, 0, 63, 86
2, 209454, Note_on_c, 0, 51, 86
2, 209459, Control_c, 0, 64, 127
2, 209464, Note_on_c, 0, 87, 75
2, 209465, Note_on_c, 0, 83, 65
2, 209551, Note_off_c, 0, 95, 64
2, 209555, Note_off_c, 0, 63, 64
2, 209555, Note_off_c, 0, 51, 64
2, 209557, Note_on_c, 0, 94, 87
2, 209563, Note_off_c, 0, 87, 64
2, 209563, Note_off_c, 0, 83, 64
2, 209569, Note_on_c, 0, 82, 61
2, 209653, Note_off_c, 0, 82, 64
2, 209655, Note_off_c, 0, 94, 64
2, 209656, Note_on_c, 0, 95, 83
2, 209659, Note_on_c, 0, 44, 74
2, 209661, Note_on_c, 0, 32, 74
2, 209669, Note_on_c, 0, 87, 67
2, 209671, Note_on_c, 0, 83, 57
2, 209706, Note_off_c, 0, 44, 64
2, 209707, Note_off_c, 0, 32, 64
2, 209754, Note_off_c, 0, 83, 64
2, 209757, Note_off_c, 0, 95, 64
2, 209761, Note_off_c, 0, 87, 64
2, 209761, Note_on_c, 0, 97, 89
2, 209773, Note_on_c, 0, 85, 73
2, 209858, Note_off_c, 0, 85, 64
2, 209861, Note_off_c, 0, 97, 64
2, 209863, Note_on_c, 0, 99, 95
2, 209863, Note_on_c, 0, 51, 75
2, 209863, Note_on_c, 0, 39, 75
2, 209875, Note_on_c, 0, 87, 79
2, 209910, Note_off_c, 0, 39, 64
2, 209911, Note_off_c, 0, 51, 64
2, 209956, Control_c, 0, 64, 0
2, 209964, Note_on_c, 0, 56, 77
2, 209964, Note_on_c, 0, 44, 77
2, 210015, Note_off_c, 0, 56, 64
2, 210015, Note_off_c, 0, 44, 64
2, 210052, Note_off_c, 0, 87, 64
2, 210066, Note_off_c, 0, 99, 64
2, 210068, Note_on_c, 0, 97, 91
2, 210069, Note_on_c, 0, 63, 78
2, 210071, Note_on_c, 0, 51, 78
2, 210081, Note_on_c, 0, 85, 75
2, 210125, Control_c, 0, 64, 127
2, 210164, Note_off_c, 0, 85, 64
2, 210169, Note_off_c, 0, 97, 64
2, 210170, Note_off_c, 0, 63, 64
2, 210172, Note_off_c, 0, 51, 64
2, 210173, Note_on_c, 0, 95, 87
2, 210185, Note_on_c, 0, 83, 61
2, 210272, Note_off_c, 0, 95, 64
2, 210273, Note_on_c, 0, 94, 83
2, 210275, Note_off_c, 0, 83, 64
2, 210276, Note_on_c, 0, 44, 81
2, 210277, Note_on_c, 0, 32, 81
2, 210286, Note_on_c, 0, 87, 67
2, 210288, Note_on_c, 0, 82, 57
2, 210323, Note_off_c, 0, 44, 64
2, 210324, Note_off_c, 0, 32, 64
2, 210374, Note_off_c, 0, 94, 64
2, 210377, Note_off_c, 0, 87, 64
2, 210378, Note_on_c, 0, 95, 83
2, 210384, Note_off_c, 0, 82, 64
2, 210390, Note_on_c, 0, 83, 57
2, 210478, Note_off_c, 0, 95, 64
2, 210479, Note_off_c, 0, 83, 64
2, 210481, Note_on_c, 0, 97, 97
2, 210481, Note_on_c, 0, 51, 84
2, 210481, Note_on_c, 0, 39, 80
2, 210493, Note_on_c, 0, 85, 79
2, 210528, Note_off_c, 0, 51, 64
2, 210529, Note_off_c, 0, 39, 64
2, 210536, Control_c, 0, 64, 0
2, 210580, Note_on_c, 0, 56, 86
2, 210580, Note_on_c, 0, 44, 86
2, 210631, Note_off_c, 0, 56, 64
2, 210631, Note_off_c, 0, 44, 64
2, 210681, Note_off_c, 0, 85, 64
2, 210682, Control_c, 0, 64, 127
2, 210684, Note_off_c, 0, 97, 64
2, 210685, Note_on_c, 0, 95, 93
2, 210688, Note_on_c, 0, 63, 86
2, 210688, Note_on_c, 0, 51, 86
2, 210698, Note_on_c, 0, 87, 77
2, 210699, Note_on_c, 0, 83, 67
2, 210785, Note_off_c, 0, 95, 64
2, 210785, Note_off_c, 0, 83, 64
2, 210788, Note_off_c, 0, 63, 64
2, 210789, Note_off_c, 0, 51, 64
2, 210789, Note_off_c, 0, 87, 64
2, 210791, Note_on_c, 0, 94, 91
2, 210803, Note_on_c, 0, 82, 65
2, 210889, Note_off_c, 0, 94, 64
2, 210890, Control_c, 0, 64, 0
2, 210891, Note_off_c, 0, 82, 64
2, 210892, Note_on_c, 0, 95, 88
2, 210895, Note_on_c, 0, 44, 74
2, 210897, Note_on_c, 0, 32, 74
2, 210905, Note_on_c, 0, 87, 72
2, 210907, Note_on_c, 0, 83, 62
2, 210940, Note_off_c, 0, 44, 64
2, 210941, Note_off_c, 0, 32, 64
2, 210991, Note_off_c, 0, 95, 64
2, 210995, Note_on_c, 0, 94, 86
2, 210996, Note_off_c, 0, 87, 64
2, 211003, Note_off_c, 0, 83, 64
2, 211007, Note_on_c, 0, 82, 60
2, 211036, Control_c, 0, 64, 127
2, 211095, Note_off_c, 0, 94, 64
2, 211098, Note_on_c, 0, 92, 83
2, 211098, Note_on_c, 0, 51, 76
2, 211098, Note_on_c, 0, 39, 76
2, 211100, Note_off_c, 0, 82, 64
2, 211110, Note_on_c, 0, 80, 57
2, 211145, Note_off_c, 0, 51, 64
2, 211146, Note_off_c, 0, 39, 64
2, 211197, Note_on_c, 0, 56, 78
2, 211197, Note_on_c, 0, 44, 78
2, 211249, Note_off_c, 0, 56, 64
2, 211249, Note_off_c, 0, 44, 64
2, 211296, Note_on_c, 0, 75, 81
2, 211301, Note_off_c, 0, 92, 64
2, 211304, Note_on_c, 0, 51, 79
2, 211306, Note_off_c, 0, 80, 64
2, 211306, Note_on_c, 0, 59, 81
2, 211308, Note_on_c, 0, 63, 67
2, 211308, Note_on_c, 0, 47, 75
2, 211309, Note_on_c, 0, 71, 70
2, 211388, Note_off_c, 0, 59, 64
2, 211394, Note_off_c, 0, 47, 64
2, 211399, Note_off_c, 0, 51, 64
2, 211431, Note_off_c, 0, 71, 64
2, 211431, Note_off_c, 0, 63, 64
2, 211448, Note_off_c, 0, 75, 64
2, 211498, Note_on_c, 0, 75, 89
2, 211509, Note_on_c, 0, 58, 86
2, 211509, Note_on_c, 0, 51, 84
2, 211510, Note_on_c, 0, 46, 80
2, 211513, Note_on_c, 0, 70, 78
2, 211513, Note_on_c, 0, 63, 75
2, 211567, Note_off_c, 0, 63, 64
2, 211572, Note_off_c, 0, 75, 64
2, 211582, Note_off_c, 0, 46, 64
2, 211585, Note_off_c, 0, 58, 64
2, 211590, Note_off_c, 0, 70, 64
2, 211592, Note_off_c, 0, 51, 64
2, 211603, Note_on_c, 0, 75, 89
2, 211610, Note_on_c, 0, 59, 86
2, 211611, Note_on_c, 0, 51, 84
2, 211614, Note_on_c, 0, 47, 80
2, 211616, Note_on_c, 0, 70, 78
2, 211616, Note_on_c, 0, 63, 75
2, 211668, Note_off_c, 0, 75, 64
2, 211672, Note_off_c, 0, 70, 64
2, 211673, Note_off_c, 0, 63, 64
2, 211689, Note_off_c, 0, 51, 64
2, 211694, Note_off_c, 0, 59, 64
2, 211695, Note_off_c, 0, 47, 64
2, 211705, Note_on_c, 0, 75, 86
2, 211713, Note_on_c, 0, 61, 83
2, 211716, Note_on_c, 0, 51, 81
2, 211718, Note_on_c, 0, 49, 77
2, 211719, Note_on_c, 0, 63, 72
2, 211720, Note_on_c, 0, 73, 75
2, 211834, Note_off_c, 0, 63, 64
2, 211842, Note_off_c, 0, 73, 64
2, 211844, Note_off_c, 0, 61, 64
2, 211847, Note_off_c, 0, 75, 64
2, 211850, Note_off_c, 0, 51, 64
2, 211866, Note_off_c, 0, 49, 64
2, 211911, Note_on_c, 0, 75, 80
2, 211921, Note_on_c, 0, 59, 77
2, 211921, Note_on_c, 0, 51, 75
2, 211921, Note_on_c, 0, 47, 71
2, 211923, Note_on_c, 0, 71, 69
2, 211925, Note_on_c, 0, 63, 66
2, 211981, Note_off_c, 0, 75, 64
2, 211981, Note_off_c, 0, 63, 64
2, 211982, Note_off_c, 0, 71, 64
2, 211999, Note_off_c, 0, 51, 64
2, 212001, Note_off_c, 0, 59, 64
2, 212005, Note_off_c, 0, 47, 64
2, 212013, Note_on_c, 0, 75, 77
2, 212021, Note_on_c, 0, 58, 74
2, 212024, Note_on_c, 0, 51, 72
2, 212025, Note_on_c, 0, 46, 68
2, 212026, Note_on_c, 0, 70, 66
2, 212028, Note_on_c, 0, 63, 63
2, 212085, Note_off_c, 0, 75, 64
2, 212085, Note_off_c, 0, 63, 64
2, 212091, Note_off_c, 0, 70, 64
2, 212097, Note_off_c, 0, 51, 64
2, 212098, Note_off_c, 0, 58, 64
2, 212101, Note_off_c, 0, 46, 64
2, 212116, Note_on_c, 0, 75, 77
2, 212126, Note_on_c, 0, 59, 74
2, 212126, Note_on_c, 0, 51, 72
2, 212129, Note_on_c, 0, 47, 68
2, 212130, Note_on_c, 0, 71, 66
2, 212131, Note_on_c, 0, 63, 63
2, 212188, Note_off_c, 0, 63, 64
2, 212192, Note_off_c, 0, 75, 64
2, 212198, Note_off_c, 0, 71, 64
2, 212199, Note_off_c, 0, 47, 64
2, 212201, Note_off_c, 0, 59, 64
2, 212209, Note_off_c, 0, 51, 64
2, 212219, Note_on_c, 0, 75, 80
2, 212228, Note_on_c, 0, 58, 77
2, 212229, Note_on_c, 0, 51, 75
2, 212229, Note_on_c, 0, 46, 71
2, 212232, Note_on_c, 0, 70, 69
2, 212233, Note_on_c, 0, 63, 66
2, 212289, Note_off_c, 0, 75, 64
2, 212290, Note_off_c, 0, 63, 64
2, 212299, Note_off_c, 0, 70, 64
2, 212300, Note_off_c, 0, 51, 64
2, 212306, Note_off_c, 0, 58, 64
2, 212311, Note_off_c, 0, 46, 64
2, 212322, Note_on_c, 0, 75, 83
2, 212324, Control_c, 0, 64, 0
2, 212330, Note_on_c, 0, 44, 74
2, 212333, Note_on_c, 0, 51, 78
2, 212334, Note_on_c, 0, 56, 80
2, 212335, Note_on_c, 0, 68, 72
2, 212336, Note_on_c, 0, 63, 69
2, 212477, Note_off_c, 0, 63, 64
2, 212480, Note_off_c, 0, 68, 64
2, 212484, Note_off_c, 0, 44, 64
2, 212485, Note_off_c, 0, 75, 64
2, 212504, Note_off_c, 0, 56, 64
2, 212517, Note_off_c, 0, 51, 64
2, 212522, Note_on_c, 0, 87, 94
2, 212530, Control_c, 0, 64, 127
2, 212535, Note_on_c, 0, 80, 73
2, 212536, Note_on_c, 0, 75, 68
2, 212536, Note_on_c, 0, 44, 86
2, 212537, Note_on_c, 0, 39, 68
2, 212539, Note_on_c, 0, 32, 62
2, 212587, Note_off_c, 0, 80, 64
2, 212587, Note_off_c, 0, 75, 64
2, 212588, Note_off_c, 0, 44, 64
2, 212589, Note_off_c, 0, 39, 64
2, 212590, Note_off_c, 0, 32, 64
2, 212620, Note_off_c, 0, 87, 64
2, 212739, Note_on_c, 0, 75, 86
2, 212740, Note_on_c, 0, 70, 74
2, 212741, Note_on_c, 0, 63, 68
2, 212741, Note_on_c, 0, 58, 86
2, 212743, Note_on_c, 0, 51, 80
2, 212745, Note_on_c, 0, 46, 74
2, 212806, Note_off_c, 0, 70, 64
2, 212810, Note_off_c, 0, 75, 64
2, 212811, Note_off_c, 0, 46, 64
2, 212811, Note_off_c, 0, 63, 64
2, 212812, Note_off_c, 0, 58, 64
2, 212813, Note_off_c, 0, 51, 64
2, 212842, Note_on_c, 0, 75, 84
2, 212842, Note_on_c, 0, 70, 72
2, 212845, Note_on_c, 0, 59, 84
2, 212845, Note_on_c, 0, 63, 66
2, 212847, Note_on_c, 0, 47, 72
2, 212847, Note_on_c, 0, 51, 78
2, 212912, Note_off_c, 0, 51, 64
2, 212913, Note_off_c, 0, 75, 64
2, 212916, Note_off_c, 0, 63, 64
2, 212916, Note_off_c, 0, 59, 64
2, 212917, Note_off_c, 0, 47, 64
2, 212919, Note_off_c, 0, 70, 64
2, 212946, Note_on_c, 0, 73, 70
2, 212947, Note_on_c, 0, 61, 82
2, 212947, Note_on_c, 0, 63, 64
2, 212947, Note_on_c, 0, 75, 82
2, 212949, Note_on_c, 0, 51, 76
2, 212950, Note_on_c, 0, 49, 70
2, 213071, Note_off_c, 0, 49, 64
2, 213073, Note_off_c, 0, 51, 64
2, 213074, Note_off_c, 0, 61, 64
2, 213078, Note_off_c, 0, 63, 64
2, 213079, Note_off_c, 0, 73, 64
2, 213085, Note_off_c, 0, 75, 64
2, 213151, Note_on_c, 0, 71, 65
2, 213152, Note_on_c, 0, 75, 77
2, 213152, Note_on_c, 0, 63, 59
2, 213153, Note_on_c, 0, 59, 77
2, 213155, Note_on_c, 0, 51, 71
2, 213156, Note_on_c, 0, 47, 65
2, 213221, Note_off_c, 0, 71, 64
2, 213221, Note_off_c, 0, 59, 64
2, 213223, Note_off_c, 0, 47, 64
2, 213225, Note_off_c, 0, 75, 64
2, 213229, Note_off_c, 0, 63, 64
2, 213231, Note_off_c, 0, 51, 64
2, 213254, Note_on_c, 0, 75, 74
2, 213255, Note_on_c, 0, 58, 74
2, 213256, Note_on_c, 0, 70, 62
2, 213256, Note_on_c, 0, 63, 56
2, 213258, Note_on_c, 0, 46, 62
2, 213259, Note_on_c, 0, 51, 68
2, 213336, Note_off_c, 0, 70, 64
2, 213337, Note_off_c, 0, 75, 64
2, 213339, Note_off_c, 0, 51, 64
2, 213341, Note_off_c, 0, 58, 64
2, 213347, Note_off_c, 0, 63, 64
2, 213349, Note_off_c, 0, 46, 64
2, 213364, Note_on_c, 0, 75, 74
2, 213364, Note_on_c, 0, 71, 62
2, 213367, Note_on_c, 0, 63, 56
2, 213367, Note_on_c, 0, 59, 74
2, 213367, Note_on_c, 0, 51, 68
2, 213368, Note_on_c, 0, 47, 62
2, 213426, Note_off_c, 0, 71, 64
2, 213429, Note_off_c, 0, 75, 64
2, 213430, Note_off_c, 0, 51, 64
2, 213434, Note_off_c, 0, 47, 64
2, 213435, Note_off_c, 0, 63, 64
2, 213436, Note_off_c, 0, 59, 64
2, 213459, Note_on_c, 0, 75, 77
2, 213461, Note_on_c, 0, 58, 77
2, 213462, Note_on_c, 0, 70, 65
2, 213462, Note_on_c, 0, 63, 59
2, 213463, Note_on_c, 0, 51, 71
2, 213465, Note_on_c, 0, 46, 65
2, 213528, Note_off_c, 0, 51, 64
2, 213531, Note_off_c, 0, 63, 64
2, 213531, Note_off_c, 0, 46, 64
2, 213532, Note_off_c, 0, 58, 64
2, 213533, Note_off_c, 0, 75, 64
2, 213534, Note_off_c, 0, 70, 64
2, 213542, Control_c, 0, 64, 0
2, 213559, Note_on_c, 0, 75, 80
2, 213562, Note_on_c, 0, 56, 80
2, 213562, Note_on_c, 0, 68, 68
2, 213564, Note_on_c, 0, 51, 74
2, 213565, Note_on_c, 0, 63, 62
2, 213568, Note_on_c, 0, 44, 68
2, 213707, Note_off_c, 0, 56, 64
2, 213711, Note_off_c, 0, 75, 64
2, 213714, Note_off_c, 0, 51, 64
2, 213718, Note_off_c, 0, 63, 64
2, 213724, Control_c, 0, 64, 127
2, 213725, Note_off_c, 0, 68, 64
2, 213729, Note_off_c, 0, 44, 64
2, 213756, Note_on_c, 0, 87, 94
2, 213769, Note_on_c, 0, 80, 68
2, 213770, Note_on_c, 0, 75, 62
2, 213771, Note_on_c, 0, 44, 86
2, 213772, Note_on_c, 0, 39, 66
2, 213772, Note_on_c, 0, 32, 70
2, 213820, Note_off_c, 0, 80, 64
2, 213821, Note_off_c, 0, 75, 64
2, 213823, Note_off_c, 0, 39, 64
2, 213823, Note_off_c, 0, 44, 64
2, 213824, Note_off_c, 0, 32, 64
2, 213855, Note_off_c, 0, 87, 64
2, 213973, Note_on_c, 0, 75, 74
2, 213973, Note_on_c, 0, 71, 64
2, 213976, Note_on_c, 0, 59, 74
2, 213977, Note_on_c, 0, 63, 60
2, 213977, Note_on_c, 0, 51, 70
2, 213979, Note_on_c, 0, 47, 66
2, 214040, Note_off_c, 0, 59, 64
2, 214047, Note_off_c, 0, 51, 64
2, 214048, Note_off_c, 0, 71, 64
2, 214049, Note_off_c, 0, 47, 64
2, 214052, Note_off_c, 0, 63, 64
2, 214059, Note_off_c, 0, 75, 64
2, 214076, Note_on_c, 0, 75, 74
2, 214076, Note_on_c, 0, 70, 64
2, 214079, Note_on_c, 0, 58, 74
2, 214080, Note_on_c, 0, 63, 60
2, 214080, Note_on_c, 0, 51, 70
2, 214082, Note_on_c, 0, 46, 66
2, 214144, Note_off_c, 0, 51, 64
2, 214148, Note_off_c, 0, 58, 64
2, 214149, Note_off_c, 0, 70, 64
2, 214153, Note_off_c, 0, 63, 64
2, 214155, Note_off_c, 0, 46, 64
2, 214162, Note_off_c, 0, 75, 64
2, 214179, Note_on_c, 0, 75, 78
2, 214180, Note_on_c, 0, 63, 64
2, 214181, Note_on_c, 0, 68, 68
2, 214183, Note_on_c, 0, 56, 78
2, 214185, Note_on_c, 0, 51, 74
2, 214186, Note_on_c, 0, 44, 70
2, 214294, Control_c, 0, 64, 0
2, 214332, Note_off_c, 0, 63, 64
2, 214335, Note_off_c, 0, 68, 64
2, 214342, Note_off_c, 0, 56, 64
2, 214351, Note_off_c, 0, 51, 64
2, 214356, Note_off_c, 0, 44, 64
2, 214368, Note_off_c, 0, 75, 64
2, 214373, Note_on_c, 0, 92, 92
2, 214386, Note_on_c, 0, 87, 78
2, 214386, Note_on_c, 0, 80, 74
2, 214387, Note_on_c, 0, 44, 86
2, 214389, Note_on_c, 0, 39, 86
2, 214389, Note_on_c, 0, 32, 86
2, 214437, Note_off_c, 0, 87, 64
2, 214438, Note_off_c, 0, 80, 64
2, 214439, Note_off_c, 0, 39, 64
2, 214439, Note_off_c, 0, 44, 64
2, 214441, Note_off_c, 0, 32, 64
2, 214471, Note_off_c, 0, 92, 64
2, 214482, Control_c, 0, 64, 127
2, 214590, Note_on_c, 0, 75, 74
2, 214591, Note_on_c, 0, 71, 64
2, 214593, Note_on_c, 0, 59, 74
2, 214594, Note_on_c, 0, 63, 60
2, 214595, Note_on_c, 0, 47, 66
2, 214595, Note_on_c, 0, 51, 70
2, 214661, Note_off_c, 0, 71, 64
2, 214661, Note_off_c, 0, 63, 64
2, 214663, Note_off_c, 0, 51, 64
2, 214663, Note_off_c, 0, 59, 64
2, 214665, Note_off_c, 0, 47, 64
2, 214676, Note_off_c, 0, 75, 64
2, 214693, Note_on_c, 0, 75, 74
2, 214695, Note_on_c, 0, 70, 64
2, 214696, Note_on_c, 0, 63, 60
2, 214696, Note_on_c, 0, 58, 74
2, 214697, Note_on_c, 0, 51, 70
2, 214699, Note_on_c, 0, 46, 66
2, 214761, Note_off_c, 0, 58, 64
2, 214762, Note_off_c, 0, 51, 64
2, 214768, Note_off_c, 0, 63, 64
2, 214770, Note_off_c, 0, 70, 64
2, 214775, Note_off_c, 0, 46, 64
2, 214779, Note_off_c, 0, 75, 64
2, 214795, Note_on_c, 0, 63, 64
2, 214796, Note_on_c, 0, 75, 78
2, 214796, Note_on_c, 0, 68, 68
2, 214800, Note_on_c, 0, 56, 78
2, 214800, Note_on_c, 0, 44, 70
2, 214802, Note_on_c, 0, 51, 74
2, 214949, Note_off_c, 0, 68, 64
2, 214952, Note_off_c, 0, 56, 64
2, 214959, Note_off_c, 0, 51, 64
2, 214961, Note_off_c, 0, 63, 64
2, 214968, Note_off_c, 0, 44, 64
2, 214974, Control_c, 0, 64, 0
2, 214984, Note_off_c, 0, 75, 64
2, 214989, Note_on_c, 0, 95, 92
2, 215003, Note_on_c, 0, 87, 78
2, 215004, Note_on_c, 0, 83, 74
2, 215005, Note_on_c, 0, 44, 86
2, 215005, Note_on_c, 0, 39, 86
2, 215006, Note_on_c, 0, 32, 86
2, 215055, Note_off_c, 0, 87, 64
2, 215056, Note_off_c, 0, 83, 64
2, 215088, Note_off_c, 0, 95, 64
2, 215144, Control_c, 0, 64, 127
2, 215207, Note_off_c, 0, 44, 64
2, 215208, Note_off_c, 0, 39, 64
2, 215209, Note_off_c, 0, 32, 64
2, 215210, Note_on_c, 0, 75, 74
2, 215212, Note_on_c, 0, 71, 64
2, 215212, Note_on_c, 0, 63, 60
2, 215213, Note_on_c, 0, 59, 74
2, 215215, Note_on_c, 0, 51, 70
2, 215215, Note_on_c, 0, 47, 66
2, 215276, Note_off_c, 0, 71, 64
2, 215279, Note_off_c, 0, 59, 64
2, 215279, Note_off_c, 0, 63, 64
2, 215283, Note_off_c, 0, 51, 64
2, 215290, Note_off_c, 0, 47, 64
2, 215293, Note_off_c, 0, 75, 64
2, 215310, Note_on_c, 0, 75, 74
2, 215311, Note_on_c, 0, 70, 64
2, 215313, Note_on_c, 0, 63, 60
2, 215313, Note_on_c, 0, 58, 74
2, 215314, Note_on_c, 0, 51, 70
2, 215315, Note_on_c, 0, 46, 66
2, 215378, Note_off_c, 0, 58, 64
2, 215379, Note_off_c, 0, 63, 64
2, 215382, Note_off_c, 0, 46, 64
2, 215383, Note_off_c, 0, 51, 64
2, 215386, Note_off_c, 0, 70, 64
2, 215396, Note_off_c, 0, 75, 64
2, 215413, Note_on_c, 0, 75, 82
2, 215414, Note_on_c, 0, 51, 78
2, 215415, Note_on_c, 0, 68, 72
2, 215415, Note_on_c, 0, 63, 68
2, 215418, Note_on_c, 0, 56, 82
2, 215425, Note_on_c, 0, 44, 74
2, 215545, Note_off_c, 0, 56, 64
2, 215547, Note_off_c, 0, 68, 64
2, 215551, Note_off_c, 0, 51, 64
2, 215553, Note_off_c, 0, 44, 64
2, 215560, Note_off_c, 0, 63, 64
2, 215589, Note_off_c, 0, 75, 64
2, 215620, Note_on_c, 0, 99, 98
2, 215625, Control_c, 0, 64, 0
2, 215634, Note_on_c, 0, 44, 98
2, 215641, Note_on_c, 0, 92, 86
2, 215642, Note_on_c, 0, 39, 88
2, 215643, Note_on_c, 0, 32, 79
2, 215645, Note_on_c, 0, 87, 81
2, 215763, Control_c, 0, 64, 127
2, 215852, Note_off_c, 0, 39, 64
2, 215867, Note_off_c, 0, 32, 64
2, 215901, Note_off_c, 0, 44, 64
2, 215960, Note_off_c, 0, 87, 64
2, 215967, Note_off_c, 0, 92, 64
2, 215988, Note_off_c, 0, 99, 64
2, 216030, Note_on_c, 0, 99, 74
2, 216033, Note_on_c, 0, 56, 74
2, 216034, Note_on_c, 0, 51, 68
2, 216036, Note_on_c, 0, 44, 60
2, 216043, Note_on_c, 0, 92, 62
2, 216046, Note_on_c, 0, 87, 57
2, 216141, Note_off_c, 0, 44, 64
2, 216143, Note_off_c, 0, 56, 64
2, 216144, Note_off_c, 0, 51, 64
2, 216164, Note_off_c, 0, 92, 64
2, 216171, Note_off_c, 0, 87, 64
2, 216184, Note_off_c, 0, 99, 64
2, 216236, Note_on_c, 0, 99, 74
2, 216239, Note_on_c, 0, 68, 74
2, 216240, Note_on_c, 0, 56, 58
2, 216240, Note_on_c, 0, 63, 68
2, 216248, Note_on_c, 0, 87, 57
2, 216250, Note_on_c, 0, 92, 62
2, 216338, Note_off_c, 0, 56, 64
2, 216339, Note_off_c, 0, 68, 64
2, 216358, Note_off_c, 0, 63, 64
2, 216367, Note_off_c, 0, 87, 64
2, 216380, Note_off_c, 0, 92, 64
2, 216390, Note_off_c, 0, 99, 64
2, 216441, Note_on_c, 0, 99, 76
2, 216444, Note_on_c, 0, 68, 54
2, 216445, Note_on_c, 0, 80, 76
2, 216446, Note_on_c, 0, 75, 68
2, 216455, Note_on_c, 0, 92, 64
2, 216455, Note_on_c, 0, 87, 59
2, 216549, Note_off_c, 0, 68, 64
2, 216565, Note_off_c, 0, 80, 64
2, 216568, Note_off_c, 0, 75, 64
2, 216580, Note_off_c, 0, 92, 64
2, 216585, Note_off_c, 0, 87, 64
2, 216595, Note_off_c, 0, 99, 64
2, 216647, Note_on_c, 0, 99, 78
2, 216649, Note_on_c, 0, 68, 78
2, 216650, Note_on_c, 0, 63, 68
2, 216653, Note_on_c, 0, 56, 50
2, 216660, Note_on_c, 0, 87, 61
2, 216660, Note_on_c, 0, 92, 66
2, 216752, Note_off_c, 0, 56, 64
2, 216756, Note_off_c, 0, 63, 64
2, 216757, Note_off_c, 0, 68, 64
2, 216793, Note_off_c, 0, 87, 64
2, 216796, Note_off_c, 0, 92, 64
2, 216801, Note_off_c, 0, 99, 64
2, 216853, Note_on_c, 0, 99, 81
2, 216855, Note_on_c, 0, 51, 71
2, 216857, Note_on_c, 0, 56, 81
2, 216857, Note_on_c, 0, 44, 67
2, 216866, Note_on_c, 0, 92, 69
2, 216866, Note_on_c, 0, 87, 64
2, 216952, Note_off_c, 0, 44, 64
2, 216956, Note_off_c, 0, 51, 64
2, 216968, Note_off_c, 0, 56, 64
2, 216986, Note_off_c, 0, 87, 64
2, 217000, Note_off_c, 0, 92, 64
2, 217007, Note_off_c, 0, 99, 64
2, 217058, Note_on_c, 0, 99, 83
2, 217061, Note_on_c, 0, 44, 83
2, 217063, Note_on_c, 0, 39, 70
2, 217063, Note_on_c, 0, 32, 63
2, 217071, Note_on_c, 0, 87, 66
2, 217072, Note_on_c, 0, 92, 71
2, 217109, Note_off_c, 0, 99, 64
2, 217111, Note_off_c, 0, 92, 64
2, 217112, Note_off_c, 0, 44, 64
2, 217113, Note_off_c, 0, 87, 64
2, 217114, Note_off_c, 0, 39, 64
2, 217115, Note_off_c, 0, 32, 64
2, 217813, Note_on_c, 0, 68, 90
2, 217827, Note_on_c, 0, 63, 73
2, 217827, Note_on_c, 0, 59, 65
2, 217829, Note_on_c, 0, 56, 58
2, 217829, Note_on_c, 0, 51, 68
2, 217830, Note_on_c, 0, 44, 83
2, 217869, Note_off_c, 0, 63, 64
2, 217870, Note_off_c, 0, 51, 64
2, 217871, Note_off_c, 0, 59, 64
2, 217872, Note_off_c, 0, 44, 64
2, 217872, Note_off_c, 0, 56, 64
2, 217921, Note_off_c, 0, 68, 64
2, 218676, Note_on_c, 0, 92, 96
2, 218690, Note_on_c, 0, 87, 79
2, 218690, Note_on_c, 0, 83, 74
2, 218692, Note_on_c, 0, 80, 69
2, 218692, Note_on_c, 0, 71, 96
2, 218693, Note_on_c, 0, 68, 89
2, 218695, Note_on_c, 0, 63, 87
2, 218695, Note_on_c, 0, 59, 79
2, 218696, Control_c, 0, 64, 0
2, 218844, Control_c, 0, 64, 127
2, 219626, Note_off_c, 0, 87, 64
2, 219634, Note_off_c, 0, 63, 64
2, 219652, Note_off_c, 0, 71, 64
2, 219653, Note_off_c, 0, 80, 64
2, 219678, Note_off_c, 0, 83, 64
2, 219705, Note_off_c, 0, 68, 64
2, 219720, Note_off_c, 0, 59, 64
2, 219910, Note_off_c, 0, 92, 64
2, 220512, Control_c, 0, 64, 0
2, 220512, End_track
3, 0, Start_track
3, 0, Title_t, """La Campanella"""
3, 0, Channel_prefix, 1
3, 0, End_track
4, 0, Start_track
4, 0, Title_t, "Sequence by Richard Carlson"
4, 0, Channel_prefix, 2
4, 0, End_track
5, 0, Start_track
5, 0, Title_t, "lionheart2251@yahoo.com"
5, 0, Channel_prefix, 3
5, 0, End_track
6, 0, Start_track
6, 0, Title_t, "http://geocities.com/lionheart2251"
6, 0, Channel_prefix, 4
6, 0, End_track
7, 0, Start_track
7, 0, Title_t, "Copyright  1999"
7, 0, Channel_prefix, 5
7, 0, End_track
0, 0, End_of_file
