0, 0, Header, 1, 4, 384
1, 0, Start_track
1, 0, Title_t, "untitled"
1, 0, Sequencer_specific, 3, 0, 0, 65
1, 0, Time_signature, 4, 2, 24, 8
1, 0, Key_signature, 0, "major"
1, 0, Tempo, 480000
1, 90092, Tempo, 400000
1, 94080, Tempo, 480000
1, 105352, Tempo, 413793
1, 109092, Tempo, 500000
1, 113980, Tempo, 428571
1, 114788, Tempo, 500000
1, 117964, Tempo, 428571
1, 123648, Tempo, 461538
1, 125076, Tempo, 545455
1, 131140, Tempo, 545455
1, 137548, Tempo, 571429
1, 138240, Tempo, 500000
1, 138472, Tempo, 504202
1, 138704, Tempo, 508475
1, 138936, Tempo, 512821
1, 139168, Tempo, 517241
1, 139400, Tempo, 521739
1, 139632, Tempo, 526316
1, 139864, Tempo, 530973
1, 140096, Tempo, 535714
1, 140328, Tempo, 540541
1, 140560, Tempo, 545455
1, 140792, Tempo, 550459
1, 141024, Tempo, 555556
1, 141256, Tempo, 560748
1, 141488, Tempo, 566038
1, 141720, Tempo, 571429
1, 145920, Tempo, 545455
1, 195532, Tempo, 521739
1, 210588, Tempo, 571429
1, 210588, End_track
2, 0, Start_track
2, 0, Title_t, "Petrarch Sonnet #104"
2, 0, Program_c, 0, 0
2, 0, Control_c, 0, 7, 105
2, 0, Control_c, 0, 91, 127
2, 0, Control_c, 0, 93, 0
2, 1544, Note_on_c, 0, 36, 42
2, 1572, Control_c, 0, 64, 40
2, 1584, Note_on_c, 0, 36, 0
2, 1588, Control_c, 0, 64, 88
2, 1604, Control_c, 0, 64, 127
2, 1628, Note_on_c, 0, 66, 80
2, 1648, Note_on_c, 0, 57, 54
2, 1648, Note_on_c, 0, 54, 46
2, 1664, Note_on_c, 0, 51, 49
2, 1692, Note_on_c, 0, 57, 0
2, 1716, Note_on_c, 0, 51, 0
2, 1768, Note_on_c, 0, 37, 55
2, 1776, Note_on_c, 0, 54, 0
2, 1788, Control_c, 0, 64, 72
2, 1804, Control_c, 0, 64, 40
2, 1820, Control_c, 0, 64, 24
2, 1828, Note_on_c, 0, 37, 0
2, 1836, Control_c, 0, 64, 72
2, 1840, Note_on_c, 0, 58, 70
2, 1848, Control_c, 0, 64, 127
2, 1860, Note_on_c, 0, 52, 72
2, 1864, Note_on_c, 0, 66, 0
2, 1888, Note_on_c, 0, 52, 0
2, 1968, Note_on_c, 0, 58, 0
2, 1976, Control_c, 0, 64, 56
2, 1992, Control_c, 0, 64, 0
2, 2040, Note_on_c, 0, 67, 94
2, 2052, Note_on_c, 0, 55, 67
2, 2100, Control_c, 0, 64, 40
2, 2112, Control_c, 0, 64, 104
2, 2128, Control_c, 0, 64, 127
2, 2228, Note_on_c, 0, 55, 0
2, 2232, Note_on_c, 0, 67, 0
2, 2452, Note_on_c, 0, 66, 89
2, 2460, Note_on_c, 0, 54, 67
2, 2468, Control_c, 0, 64, 24
2, 2484, Control_c, 0, 64, 0
2, 2540, Note_on_c, 0, 54, 0
2, 2576, Control_c, 0, 64, 56
2, 2588, Note_on_c, 0, 66, 0
2, 2592, Control_c, 0, 64, 127
2, 2828, Control_c, 0, 64, 104
2, 2844, Note_on_c, 0, 70, 90
2, 2844, Control_c, 0, 64, 0
2, 2856, Note_on_c, 0, 58, 64
2, 2936, Control_c, 0, 64, 56
2, 2948, Control_c, 0, 64, 127
2, 2988, Note_on_c, 0, 70, 0
2, 3024, Note_on_c, 0, 58, 0
2, 3136, Control_c, 0, 64, 104
2, 3152, Control_c, 0, 64, 0
2, 3164, Note_on_c, 0, 39, 65
2, 3216, Note_on_c, 0, 69, 101
2, 3228, Note_on_c, 0, 57, 75
2, 3228, Control_c, 0, 64, 56
2, 3232, Note_on_c, 0, 39, 0
2, 3244, Control_c, 0, 64, 127
2, 3248, Note_on_c, 0, 54, 78
2, 3308, Note_on_c, 0, 57, 0
2, 3312, Note_on_c, 0, 54, 0
2, 3320, Control_c, 0, 64, 72
2, 3336, Control_c, 0, 64, 0
2, 3368, Control_c, 0, 64, 24
2, 3372, Note_on_c, 0, 40, 71
2, 3384, Control_c, 0, 64, 56
2, 3396, Note_on_c, 0, 40, 0
2, 3396, Note_on_c, 0, 61, 82
2, 3400, Note_on_c, 0, 69, 0
2, 3400, Control_c, 0, 64, 104
2, 3416, Control_c, 0, 64, 127
2, 3440, Note_on_c, 0, 55, 77
2, 3468, Note_on_c, 0, 55, 0
2, 3492, Note_on_c, 0, 61, 0
2, 3556, Control_c, 0, 64, 88
2, 3572, Control_c, 0, 64, 0
2, 3588, Note_on_c, 0, 70, 103
2, 3596, Note_on_c, 0, 58, 71
2, 3680, Control_c, 0, 64, 104
2, 3692, Control_c, 0, 64, 127
2, 3788, Note_on_c, 0, 58, 0
2, 3824, Note_on_c, 0, 70, 0
2, 3956, Control_c, 0, 64, 72
2, 3960, Note_on_c, 0, 69, 102
2, 3968, Note_on_c, 0, 57, 83
2, 3972, Control_c, 0, 64, 0
2, 4024, Note_on_c, 0, 57, 0
2, 4036, Control_c, 0, 64, 24
2, 4048, Note_on_c, 0, 69, 0
2, 4048, Control_c, 0, 64, 88
2, 4064, Control_c, 0, 64, 127
2, 4328, Control_c, 0, 64, 88
2, 4340, Note_on_c, 0, 73, 104
2, 4344, Control_c, 0, 64, 0
2, 4348, Note_on_c, 0, 61, 78
2, 4420, Note_on_c, 0, 61, 0
2, 4420, Control_c, 0, 64, 56
2, 4436, Control_c, 0, 64, 127
2, 4504, Note_on_c, 0, 73, 0
2, 4580, Control_c, 0, 64, 104
2, 4592, Control_c, 0, 64, 0
2, 4604, Note_on_c, 0, 42, 58
2, 4672, Note_on_c, 0, 42, 0
2, 4672, Control_c, 0, 64, 72
2, 4684, Note_on_c, 0, 72, 110
2, 4684, Control_c, 0, 64, 104
2, 4692, Note_on_c, 0, 60, 83
2, 4704, Note_on_c, 0, 57, 67
2, 4712, Note_on_c, 0, 63, 36
2, 4716, Control_c, 0, 64, 72
2, 4732, Control_c, 0, 64, 24
2, 4740, Note_on_c, 0, 63, 0
2, 4748, Control_c, 0, 64, 0
2, 4756, Note_on_c, 0, 57, 0
2, 4756, Note_on_c, 0, 60, 0
2, 4792, Control_c, 0, 64, 40
2, 4808, Control_c, 0, 64, 72
2, 4824, Note_on_c, 0, 43, 75
2, 4828, Control_c, 0, 64, 127
2, 4852, Note_on_c, 0, 43, 0
2, 4860, Note_on_c, 0, 64, 96
2, 4888, Note_on_c, 0, 58, 82
2, 4912, Note_on_c, 0, 64, 0
2, 4924, Note_on_c, 0, 58, 0
2, 4924, Note_on_c, 0, 72, 0
2, 5044, Note_on_c, 0, 76, 103
2, 5056, Note_on_c, 0, 64, 85
2, 5176, Note_on_c, 0, 76, 0
2, 5188, Note_on_c, 0, 64, 0
2, 5320, Control_c, 0, 64, 88
2, 5336, Control_c, 0, 64, 0
2, 5356, Note_on_c, 0, 45, 89
2, 5380, Control_c, 0, 64, 24
2, 5388, Note_on_c, 0, 75, 103
2, 5396, Note_on_c, 0, 63, 87
2, 5400, Note_on_c, 0, 45, 0
2, 5400, Control_c, 0, 64, 88
2, 5416, Control_c, 0, 64, 127
2, 5424, Note_on_c, 0, 66, 46
2, 5440, Note_on_c, 0, 60, 75
2, 5444, Control_c, 0, 64, 72
2, 5448, Note_on_c, 0, 66, 0
2, 5460, Control_c, 0, 64, 24
2, 5472, Note_on_c, 0, 60, 0
2, 5476, Control_c, 0, 64, 0
2, 5484, Note_on_c, 0, 63, 0
2, 5520, Control_c, 0, 64, 40
2, 5536, Control_c, 0, 64, 88
2, 5552, Note_on_c, 0, 75, 0
2, 5552, Note_on_c, 0, 46, 72
2, 5556, Control_c, 0, 64, 127
2, 5564, Note_on_c, 0, 67, 98
2, 5588, Note_on_c, 0, 46, 0
2, 5588, Note_on_c, 0, 61, 92
2, 5616, Note_on_c, 0, 67, 0
2, 5632, Note_on_c, 0, 61, 0
2, 5736, Control_c, 0, 64, 40
2, 5744, Note_on_c, 0, 79, 106
2, 5752, Note_on_c, 0, 67, 94
2, 5756, Control_c, 0, 64, 0
2, 5800, Control_c, 0, 64, 72
2, 5816, Control_c, 0, 64, 127
2, 5880, Note_on_c, 0, 79, 0
2, 5920, Note_on_c, 0, 67, 0
2, 6020, Control_c, 0, 64, 104
2, 6036, Control_c, 0, 64, 0
2, 6052, Note_on_c, 0, 48, 94
2, 6080, Note_on_c, 0, 48, 0
2, 6080, Control_c, 0, 64, 40
2, 6092, Note_on_c, 0, 78, 104
2, 6096, Control_c, 0, 64, 104
2, 6104, Note_on_c, 0, 66, 79
2, 6108, Control_c, 0, 64, 127
2, 6120, Note_on_c, 0, 69, 54
2, 6140, Control_c, 0, 64, 56
2, 6152, Note_on_c, 0, 69, 0
2, 6152, Note_on_c, 0, 63, 69
2, 6156, Control_c, 0, 64, 0
2, 6184, Note_on_c, 0, 66, 0
2, 6196, Note_on_c, 0, 63, 0
2, 6204, Control_c, 0, 64, 24
2, 6220, Control_c, 0, 64, 88
2, 6236, Note_on_c, 0, 49, 82
2, 6236, Control_c, 0, 64, 127
2, 6272, Note_on_c, 0, 70, 97
2, 6276, Note_on_c, 0, 78, 0
2, 6280, Note_on_c, 0, 49, 0
2, 6296, Note_on_c, 0, 64, 87
2, 6328, Note_on_c, 0, 64, 0
2, 6368, Note_on_c, 0, 70, 0
2, 6420, Control_c, 0, 64, 72
2, 6436, Note_on_c, 0, 79, 106
2, 6436, Control_c, 0, 64, 0
2, 6448, Note_on_c, 0, 67, 93
2, 6468, Control_c, 0, 64, 24
2, 6484, Control_c, 0, 64, 72
2, 6500, Control_c, 0, 64, 127
2, 6552, Note_on_c, 0, 67, 0
2, 6580, Note_on_c, 0, 79, 0
2, 6748, Control_c, 0, 64, 72
2, 6764, Control_c, 0, 64, 0
2, 6780, Note_on_c, 0, 78, 104
2, 6792, Note_on_c, 0, 63, 70
2, 6792, Note_on_c, 0, 66, 83
2, 6792, Note_on_c, 0, 57, 74
2, 6808, Note_on_c, 0, 72, 72
2, 6824, Control_c, 0, 64, 72
2, 6836, Note_on_c, 0, 72, 0
2, 6840, Control_c, 0, 64, 127
2, 6876, Note_on_c, 0, 57, 0
2, 6884, Control_c, 0, 64, 104
2, 6892, Note_on_c, 0, 63, 0
2, 6900, Note_on_c, 0, 66, 0
2, 6900, Control_c, 0, 64, 24
2, 6916, Control_c, 0, 64, 0
2, 6948, Note_on_c, 0, 73, 100
2, 6952, Note_on_c, 0, 64, 81
2, 6952, Note_on_c, 0, 58, 66
2, 6964, Control_c, 0, 64, 72
2, 6980, Note_on_c, 0, 78, 0
2, 6980, Control_c, 0, 64, 127
2, 6992, Note_on_c, 0, 64, 0
2, 7004, Note_on_c, 0, 58, 0
2, 7064, Note_on_c, 0, 73, 0
2, 7136, Note_on_c, 0, 79, 108
2, 7136, Control_c, 0, 64, 24
2, 7152, Note_on_c, 0, 67, 82
2, 7152, Control_c, 0, 64, 0
2, 7176, Control_c, 0, 64, 56
2, 7192, Control_c, 0, 64, 127
2, 7232, Note_on_c, 0, 67, 0
2, 7264, Note_on_c, 0, 79, 0
2, 7504, Control_c, 0, 64, 104
2, 7512, Note_on_c, 0, 78, 106
2, 7524, Note_on_c, 0, 66, 80
2, 7524, Control_c, 0, 64, 24
2, 7532, Note_on_c, 0, 60, 72
2, 7532, Note_on_c, 0, 69, 75
2, 7532, Note_on_c, 0, 63, 63
2, 7536, Control_c, 0, 64, 0
2, 7568, Control_c, 0, 64, 40
2, 7584, Control_c, 0, 64, 104
2, 7588, Note_on_c, 0, 63, 0
2, 7592, Note_on_c, 0, 66, 0
2, 7596, Note_on_c, 0, 60, 0
2, 7600, Control_c, 0, 64, 127
2, 7616, Note_on_c, 0, 69, 0
2, 7660, Control_c, 0, 64, 72
2, 7676, Control_c, 0, 64, 0
2, 7712, Note_on_c, 0, 61, 73
2, 7752, Control_c, 0, 64, 88
2, 7768, Control_c, 0, 64, 127
2, 7828, Note_on_c, 0, 64, 75
2, 7848, Control_c, 0, 64, 88
2, 7864, Control_c, 0, 64, 0
2, 7936, Note_on_c, 0, 70, 83
2, 7940, Control_c, 0, 64, 104
2, 7952, Control_c, 0, 64, 127
2, 7996, Note_on_c, 0, 61, 0
2, 8040, Note_on_c, 0, 64, 0
2, 8120, Note_on_c, 0, 78, 0
2, 8160, Note_on_c, 0, 70, 0
2, 8444, Note_on_c, 0, 80, 108
2, 8460, Note_on_c, 0, 68, 66
2, 9180, Note_on_c, 0, 68, 0
2, 9400, Note_on_c, 0, 80, 0
2, 9444, Note_on_c, 0, 78, 92
2, 9448, Note_on_c, 0, 66, 48
2, 9488, Control_c, 0, 64, 56
2, 9504, Note_on_c, 0, 66, 0
2, 9504, Control_c, 0, 64, 0
2, 9596, Control_c, 0, 64, 104
2, 9612, Control_c, 0, 64, 127
2, 9616, Note_on_c, 0, 59, 48
2, 9620, Note_on_c, 0, 78, 0
2, 9688, Note_on_c, 0, 66, 54
2, 9764, Note_on_c, 0, 69, 64
2, 9776, Note_on_c, 0, 66, 0
2, 9776, Note_on_c, 0, 59, 0
2, 9804, Note_on_c, 0, 69, 0
2, 9852, Note_on_c, 0, 75, 62
2, 10040, Note_on_c, 0, 85, 97
2, 10068, Note_on_c, 0, 75, 0
2, 10160, Note_on_c, 0, 85, 0
2, 10636, Note_on_c, 0, 75, 77
2, 10796, Note_on_c, 0, 75, 0
2, 11732, Control_c, 0, 64, 40
2, 11752, Control_c, 0, 64, 0
2, 11832, Note_on_c, 0, 75, 88
2, 11888, Control_c, 0, 64, 88
2, 11904, Control_c, 0, 64, 127
2, 11956, Note_on_c, 0, 75, 0
2, 12080, Note_on_c, 0, 57, 56
2, 12080, Note_on_c, 0, 61, 52
2, 12116, Note_on_c, 0, 75, 88
2, 12128, Note_on_c, 0, 66, 60
2, 12240, Note_on_c, 0, 75, 0
2, 12280, Note_on_c, 0, 76, 89
2, 12388, Note_on_c, 0, 76, 0
2, 12388, Note_on_c, 0, 75, 96
2, 12468, Note_on_c, 0, 75, 0
2, 12492, Note_on_c, 0, 73, 85
2, 12580, Note_on_c, 0, 73, 0
2, 12604, Note_on_c, 0, 75, 93
2, 12704, Note_on_c, 0, 75, 0
2, 12728, Note_on_c, 0, 76, 96
2, 12772, Control_c, 0, 64, 104
2, 12788, Control_c, 0, 64, 0
2, 12912, Control_c, 0, 64, 104
2, 12928, Control_c, 0, 64, 127
2, 12976, Note_on_c, 0, 76, 0
2, 13004, Note_on_c, 0, 57, 0
2, 13020, Note_on_c, 0, 66, 0
2, 13020, Note_on_c, 0, 78, 98
2, 13040, Note_on_c, 0, 61, 0
2, 13080, Control_c, 0, 64, 40
2, 13100, Control_c, 0, 64, 0
2, 13192, Control_c, 0, 64, 104
2, 13200, Note_on_c, 0, 56, 59
2, 13204, Control_c, 0, 64, 127
2, 13264, Note_on_c, 0, 78, 0
2, 13296, Note_on_c, 0, 66, 65
2, 13316, Note_on_c, 0, 63, 46
2, 13356, Note_on_c, 0, 66, 0
2, 13368, Note_on_c, 0, 72, 80
2, 13584, Note_on_c, 0, 81, 103
2, 13644, Note_on_c, 0, 72, 0
2, 13700, Control_c, 0, 64, 104
2, 13716, Control_c, 0, 64, 127
2, 13836, Note_on_c, 0, 81, 0
2, 14084, Note_on_c, 0, 56, 0
2, 14108, Note_on_c, 0, 63, 0
2, 14468, Note_on_c, 0, 78, 85
2, 14596, Note_on_c, 0, 78, 0
2, 14760, Note_on_c, 0, 75, 85
2, 14880, Note_on_c, 0, 75, 0
2, 14984, Note_on_c, 0, 72, 87
2, 15164, Note_on_c, 0, 72, 0
2, 15184, Note_on_c, 0, 69, 92
2, 15264, Note_on_c, 0, 69, 0
2, 15388, Note_on_c, 0, 66, 93
2, 15528, Note_on_c, 0, 66, 0
2, 15636, Note_on_c, 0, 63, 89
2, 15724, Note_on_c, 0, 63, 0
2, 15964, Note_on_c, 0, 60, 93
2, 16048, Note_on_c, 0, 60, 0
2, 16456, Note_on_c, 0, 57, 94
2, 17240, Note_on_c, 0, 57, 0
2, 17808, Note_on_c, 0, 56, 73
2, 17868, Control_c, 0, 64, 88
2, 17884, Control_c, 0, 64, 0
2, 18008, Control_c, 0, 64, 56
2, 18020, Control_c, 0, 64, 127
2, 18116, Control_c, 0, 64, 88
2, 18132, Control_c, 0, 64, 0
2, 18144, Note_on_c, 0, 56, 0
2, 18148, Note_on_c, 0, 57, 87
2, 18240, Control_c, 0, 64, 40
2, 18256, Control_c, 0, 64, 104
2, 18272, Control_c, 0, 64, 127
2, 18348, Control_c, 0, 64, 104
2, 18364, Control_c, 0, 64, 24
2, 18380, Control_c, 0, 64, 0
2, 18416, Note_on_c, 0, 61, 90
2, 18420, Note_on_c, 0, 57, 0
2, 18504, Control_c, 0, 64, 88
2, 18520, Control_c, 0, 64, 127
2, 18580, Control_c, 0, 64, 72
2, 18592, Control_c, 0, 64, 0
2, 18660, Note_on_c, 0, 61, 0
2, 18660, Note_on_c, 0, 60, 89
2, 18736, Control_c, 0, 64, 40
2, 18748, Control_c, 0, 64, 72
2, 18812, Control_c, 0, 64, 24
2, 18828, Control_c, 0, 64, 0
2, 18892, Note_on_c, 0, 60, 0
2, 18904, Note_on_c, 0, 61, 90
2, 18952, Control_c, 0, 64, 24
2, 18968, Control_c, 0, 64, 40
2, 18984, Control_c, 0, 64, 24
2, 19000, Control_c, 0, 64, 0
2, 19108, Control_c, 0, 64, 24
2, 19120, Control_c, 0, 64, 40
2, 19156, Note_on_c, 0, 61, 0
2, 19168, Note_on_c, 0, 64, 90
2, 19172, Control_c, 0, 64, 0
2, 19308, Control_c, 0, 64, 24
2, 19320, Control_c, 0, 64, 40
2, 19372, Control_c, 0, 64, 56
2, 19388, Control_c, 0, 64, 40
2, 19400, Control_c, 0, 64, 0
2, 19444, Note_on_c, 0, 64, 0
2, 19452, Note_on_c, 0, 63, 88
2, 19524, Control_c, 0, 64, 40
2, 19540, Control_c, 0, 64, 56
2, 19556, Control_c, 0, 64, 72
2, 19572, Control_c, 0, 64, 88
2, 19600, Control_c, 0, 64, 104
2, 19696, Control_c, 0, 64, 127
2, 19740, Note_on_c, 0, 63, 0
2, 19764, Note_on_c, 0, 64, 95
2, 19772, Control_c, 0, 64, 56
2, 19788, Control_c, 0, 64, 0
2, 19928, Control_c, 0, 64, 88
2, 19944, Control_c, 0, 64, 127
2, 20020, Note_on_c, 0, 64, 0
2, 20276, Note_on_c, 0, 68, 96
2, 20440, Control_c, 0, 64, 88
2, 20456, Control_c, 0, 64, 24
2, 20472, Control_c, 0, 64, 0
2, 20608, Control_c, 0, 64, 72
2, 20624, Control_c, 0, 64, 127
2, 21104, Control_c, 0, 64, 72
2, 21120, Control_c, 0, 64, 0
2, 21152, Note_on_c, 0, 40, 56
2, 21200, Control_c, 0, 64, 104
2, 21216, Control_c, 0, 64, 127
2, 21224, Note_on_c, 0, 47, 62
2, 21256, Note_on_c, 0, 40, 0
2, 21280, Note_on_c, 0, 68, 0
2, 21288, Note_on_c, 0, 52, 40
2, 21296, Note_on_c, 0, 47, 0
2, 21320, Note_on_c, 0, 56, 69
2, 21324, Note_on_c, 0, 52, 0
2, 21376, Note_on_c, 0, 56, 0
2, 21380, Note_on_c, 0, 59, 71
2, 21440, Note_on_c, 0, 64, 86
2, 21452, Note_on_c, 0, 59, 0
2, 21524, Note_on_c, 0, 68, 103
2, 21544, Note_on_c, 0, 64, 0
2, 21852, Note_on_c, 0, 68, 0
2, 22128, Note_on_c, 0, 68, 100
2, 22264, Control_c, 0, 64, 24
2, 22284, Control_c, 0, 64, 0
2, 22356, Control_c, 0, 64, 104
2, 22376, Control_c, 0, 64, 127
2, 22380, Note_on_c, 0, 36, 75
2, 22444, Note_on_c, 0, 36, 0
2, 22472, Note_on_c, 0, 68, 0
2, 22472, Note_on_c, 0, 44, 74
2, 22528, Note_on_c, 0, 48, 72
2, 22568, Note_on_c, 0, 44, 0
2, 22580, Note_on_c, 0, 52, 78
2, 22588, Note_on_c, 0, 48, 0
2, 22608, Note_on_c, 0, 52, 0
2, 22612, Note_on_c, 0, 56, 74
2, 22660, Note_on_c, 0, 60, 78
2, 22688, Note_on_c, 0, 56, 0
2, 22696, Note_on_c, 0, 64, 85
2, 22744, Note_on_c, 0, 60, 0
2, 22772, Note_on_c, 0, 68, 102
2, 22796, Note_on_c, 0, 64, 0
2, 23676, Note_on_c, 0, 66, 88
2, 23732, Note_on_c, 0, 68, 0
2, 23972, Note_on_c, 0, 66, 0
2, 24116, Note_on_c, 0, 64, 94
2, 24172, Note_on_c, 0, 64, 0
2, 24224, Note_on_c, 0, 64, 89
2, 24556, Note_on_c, 0, 64, 0
2, 25240, Note_on_c, 0, 64, 94
2, 25256, Control_c, 0, 64, 72
2, 25272, Control_c, 0, 64, 0
2, 25344, Note_on_c, 0, 37, 52
2, 25392, Note_on_c, 0, 37, 0
2, 25396, Control_c, 0, 64, 88
2, 25404, Note_on_c, 0, 44, 62
2, 25412, Control_c, 0, 64, 127
2, 25472, Note_on_c, 0, 49, 56
2, 25484, Note_on_c, 0, 44, 0
2, 25520, Note_on_c, 0, 56, 52
2, 25528, Note_on_c, 0, 52, 58
2, 25544, Note_on_c, 0, 49, 0
2, 25564, Note_on_c, 0, 52, 0
2, 25596, Note_on_c, 0, 61, 74
2, 25608, Note_on_c, 0, 56, 0
2, 25616, Note_on_c, 0, 64, 0
2, 25656, Note_on_c, 0, 61, 0
2, 25932, Note_on_c, 0, 76, 110
2, 26428, Note_on_c, 0, 76, 0
2, 26492, Note_on_c, 0, 75, 109
2, 26528, Control_c, 0, 64, 72
2, 26544, Control_c, 0, 64, 0
2, 26584, Note_on_c, 0, 40, 69
2, 26620, Note_on_c, 0, 40, 0
2, 26636, Control_c, 0, 64, 127
2, 26644, Note_on_c, 0, 49, 78
2, 26700, Note_on_c, 0, 49, 0
2, 26744, Note_on_c, 0, 56, 70
2, 26828, Note_on_c, 0, 56, 0
2, 26860, Note_on_c, 0, 61, 81
2, 26888, Note_on_c, 0, 61, 0
2, 27128, Note_on_c, 0, 67, 92
2, 27132, Note_on_c, 0, 75, 0
2, 27448, Note_on_c, 0, 68, 96
2, 27456, Note_on_c, 0, 67, 0
2, 27792, Note_on_c, 0, 73, 93
2, 27820, Note_on_c, 0, 68, 0
2, 27844, Control_c, 0, 64, 56
2, 27856, Control_c, 0, 64, 0
2, 27904, Control_c, 0, 64, 72
2, 27920, Control_c, 0, 64, 127
2, 28056, Note_on_c, 0, 73, 0
2, 28112, Note_on_c, 0, 71, 90
2, 28152, Control_c, 0, 64, 104
2, 28168, Control_c, 0, 64, 0
2, 28308, Control_c, 0, 64, 104
2, 28320, Control_c, 0, 64, 127
2, 28568, Note_on_c, 0, 42, 57
2, 28572, Control_c, 0, 64, 88
2, 28584, Control_c, 0, 64, 0
2, 28632, Control_c, 0, 64, 56
2, 28640, Note_on_c, 0, 42, 0
2, 28648, Note_on_c, 0, 49, 69
2, 28648, Control_c, 0, 64, 127
2, 28720, Note_on_c, 0, 54, 58
2, 28732, Note_on_c, 0, 49, 0
2, 28736, Note_on_c, 0, 61, 51
2, 28764, Note_on_c, 0, 57, 55
2, 28784, Note_on_c, 0, 54, 0
2, 28824, Note_on_c, 0, 66, 65
2, 28840, Note_on_c, 0, 61, 0
2, 28856, Note_on_c, 0, 57, 0
2, 29104, Note_on_c, 0, 61, 1
2, 29300, Note_on_c, 0, 71, 0
2, 29372, Note_on_c, 0, 70, 81
2, 29416, Note_on_c, 0, 66, 0
2, 29492, Note_on_c, 0, 70, 0
2, 29576, Note_on_c, 0, 69, 77
2, 29764, Control_c, 0, 64, 56
2, 29780, Control_c, 0, 64, 0
2, 29920, Control_c, 0, 64, 88
2, 29932, Control_c, 0, 64, 127
2, 30028, Note_on_c, 0, 69, 0
2, 30048, Note_on_c, 0, 61, 0
2, 30600, Note_on_c, 0, 68, 83
2, 30644, Control_c, 0, 64, 56
2, 30664, Control_c, 0, 64, 0
2, 30740, Control_c, 0, 64, 40
2, 30752, Control_c, 0, 64, 104
2, 30772, Control_c, 0, 64, 127
2, 30876, Note_on_c, 0, 68, 0
2, 31000, Note_on_c, 0, 66, 90
2, 31128, Control_c, 0, 64, 40
2, 31144, Control_c, 0, 64, 0
2, 31264, Control_c, 0, 64, 72
2, 31280, Control_c, 0, 64, 127
2, 31780, Note_on_c, 0, 38, 52
2, 31804, Note_on_c, 0, 66, 0
2, 31828, Note_on_c, 0, 38, 0
2, 31832, Note_on_c, 0, 45, 74
2, 31876, Note_on_c, 0, 45, 0
2, 31888, Note_on_c, 0, 50, 73
2, 31916, Note_on_c, 0, 50, 0
2, 31924, Note_on_c, 0, 54, 58
2, 31960, Note_on_c, 0, 57, 72
2, 31988, Note_on_c, 0, 54, 0
2, 32004, Note_on_c, 0, 62, 80
2, 32064, Note_on_c, 0, 57, 0
2, 32092, Note_on_c, 0, 66, 105
2, 32100, Note_on_c, 0, 62, 0
2, 32564, Note_on_c, 0, 66, 0
2, 32716, Note_on_c, 0, 66, 98
2, 32908, Control_c, 0, 64, 40
2, 32924, Control_c, 0, 64, 0
2, 32940, Note_on_c, 0, 34, 85
2, 33000, Control_c, 0, 64, 104
2, 33016, Control_c, 0, 64, 127
2, 33028, Note_on_c, 0, 34, 0
2, 33044, Note_on_c, 0, 42, 73
2, 33108, Note_on_c, 0, 66, 0
2, 33128, Note_on_c, 0, 46, 82
2, 33136, Note_on_c, 0, 42, 0
2, 33184, Note_on_c, 0, 46, 0
2, 33184, Note_on_c, 0, 50, 66
2, 33216, Note_on_c, 0, 50, 0
2, 33252, Note_on_c, 0, 54, 77
2, 33292, Note_on_c, 0, 58, 50
2, 33332, Note_on_c, 0, 54, 0
2, 33356, Note_on_c, 0, 62, 86
2, 33376, Note_on_c, 0, 58, 0
2, 33436, Note_on_c, 0, 66, 106
2, 33448, Note_on_c, 0, 62, 0
2, 34284, Note_on_c, 0, 66, 0
2, 34324, Note_on_c, 0, 64, 98
2, 34432, Note_on_c, 0, 64, 0
2, 34796, Note_on_c, 0, 62, 88
2, 34856, Note_on_c, 0, 62, 0
2, 34920, Note_on_c, 0, 62, 90
2, 35120, Control_c, 0, 64, 104
2, 35136, Control_c, 0, 64, 0
2, 35280, Control_c, 0, 64, 88
2, 35292, Control_c, 0, 64, 127
2, 35544, Note_on_c, 0, 62, 0
2, 35864, Note_on_c, 0, 62, 81
2, 35928, Control_c, 0, 64, 72
2, 35944, Control_c, 0, 64, 0
2, 35992, Note_on_c, 0, 43, 50
2, 36020, Note_on_c, 0, 43, 0
2, 36036, Control_c, 0, 64, 88
2, 36052, Control_c, 0, 64, 127
2, 36080, Note_on_c, 0, 50, 60
2, 36116, Note_on_c, 0, 50, 0
2, 36164, Note_on_c, 0, 55, 52
2, 36256, Note_on_c, 0, 62, 0
2, 36268, Note_on_c, 0, 55, 0
2, 36284, Note_on_c, 0, 59, 66
2, 36332, Note_on_c, 0, 59, 0
2, 36564, Note_on_c, 0, 74, 94
2, 36584, Note_on_c, 0, 71, 75
2, 36660, Note_on_c, 0, 71, 0
2, 36752, Note_on_c, 0, 74, 0
2, 36872, Note_on_c, 0, 72, 90
2, 36892, Note_on_c, 0, 69, 66
2, 36944, Note_on_c, 0, 69, 0
2, 37068, Note_on_c, 0, 72, 0
2, 37132, Note_on_c, 0, 71, 90
2, 37168, Note_on_c, 0, 67, 42
2, 37184, Control_c, 0, 64, 24
2, 37200, Control_c, 0, 64, 0
2, 37240, Note_on_c, 0, 47, 71
2, 37276, Control_c, 0, 64, 40
2, 37292, Control_c, 0, 64, 127
2, 37296, Note_on_c, 0, 54, 69
2, 37308, Note_on_c, 0, 47, 0
2, 37360, Note_on_c, 0, 54, 0
2, 37388, Note_on_c, 0, 57, 54
2, 37468, Note_on_c, 0, 57, 0
2, 37488, Note_on_c, 0, 63, 83
2, 37544, Note_on_c, 0, 63, 0
2, 37712, Note_on_c, 0, 71, 0
2, 37752, Note_on_c, 0, 67, 0
2, 37756, Note_on_c, 0, 72, 95
2, 37764, Note_on_c, 0, 68, 66
2, 37808, Note_on_c, 0, 68, 0
2, 37940, Note_on_c, 0, 72, 0
2, 37956, Note_on_c, 0, 69, 85
2, 38052, Note_on_c, 0, 75, 81
2, 38128, Note_on_c, 0, 73, 86
2, 38148, Note_on_c, 0, 75, 0
2, 38316, Control_c, 0, 64, 104
2, 38328, Control_c, 0, 64, 0
2, 38388, Control_c, 0, 64, 72
2, 38408, Control_c, 0, 64, 127
2, 38492, Note_on_c, 0, 73, 0
2, 38608, Note_on_c, 0, 69, 0
2, 38724, Note_on_c, 0, 71, 80
2, 38728, Note_on_c, 0, 68, 51
2, 38772, Note_on_c, 0, 68, 0
2, 38844, Note_on_c, 0, 71, 0
2, 38956, Note_on_c, 0, 68, 64
2, 39160, Note_on_c, 0, 71, 85
2, 39288, Control_c, 0, 64, 72
2, 39308, Control_c, 0, 64, 0
2, 39444, Control_c, 0, 64, 88
2, 39460, Control_c, 0, 64, 127
2, 39684, Note_on_c, 0, 40, 56
2, 39720, Note_on_c, 0, 68, 0
2, 39812, Note_on_c, 0, 40, 0
2, 39840, Note_on_c, 0, 47, 56
2, 39904, Note_on_c, 0, 47, 0
2, 39964, Note_on_c, 0, 52, 56
2, 40052, Note_on_c, 0, 52, 0
2, 40104, Note_on_c, 0, 56, 54
2, 40128, Note_on_c, 0, 71, 0
2, 40200, Note_on_c, 0, 56, 0
2, 40248, Note_on_c, 0, 59, 55
2, 40344, Note_on_c, 0, 59, 0
2, 40384, Note_on_c, 0, 64, 64
2, 40516, Note_on_c, 0, 64, 0
2, 40560, Note_on_c, 0, 68, 72
2, 40732, Note_on_c, 0, 68, 0
2, 41800, Control_c, 0, 64, 40
2, 41816, Control_c, 0, 64, 0
2, 41940, Note_on_c, 0, 56, 80
2, 41968, Control_c, 0, 64, 72
2, 41984, Control_c, 0, 64, 127
2, 42308, Note_on_c, 0, 56, 0
2, 42412, Note_on_c, 0, 44, 42
2, 42440, Note_on_c, 0, 60, 39
2, 42504, Note_on_c, 0, 63, 55
2, 42516, Note_on_c, 0, 51, 54
2, 42524, Note_on_c, 0, 60, 0
2, 42540, Note_on_c, 0, 44, 0
2, 42572, Note_on_c, 0, 51, 0
2, 42572, Note_on_c, 0, 68, 66
2, 42584, Note_on_c, 0, 63, 0
2, 42636, Note_on_c, 0, 68, 0
2, 43128, Note_on_c, 0, 56, 88
2, 43248, Note_on_c, 0, 56, 0
2, 43692, Note_on_c, 0, 56, 87
2, 44168, Note_on_c, 0, 56, 0
2, 44224, Note_on_c, 0, 59, 89
2, 44260, Control_c, 0, 64, 56
2, 44276, Control_c, 0, 64, 0
2, 44388, Control_c, 0, 64, 104
2, 44400, Control_c, 0, 64, 127
2, 44508, Control_c, 0, 64, 0
2, 44544, Note_on_c, 0, 59, 0
2, 44544, Note_on_c, 0, 57, 90
2, 44600, Control_c, 0, 64, 72
2, 44616, Control_c, 0, 64, 127
2, 44632, Note_on_c, 0, 57, 0
2, 44812, Note_on_c, 0, 61, 50
2, 44876, Note_on_c, 0, 42, 57
2, 44892, Note_on_c, 0, 64, 62
2, 44900, Note_on_c, 0, 61, 0
2, 44944, Note_on_c, 0, 64, 0
2, 44952, Note_on_c, 0, 69, 75
2, 44992, Note_on_c, 0, 69, 0
2, 45056, Note_on_c, 0, 42, 0
2, 45196, Note_on_c, 0, 49, 81
2, 45332, Note_on_c, 0, 49, 0
2, 45512, Note_on_c, 0, 52, 78
2, 45700, Control_c, 0, 64, 40
2, 45716, Control_c, 0, 64, 0
2, 45812, Control_c, 0, 64, 40
2, 45828, Control_c, 0, 64, 127
2, 45884, Note_on_c, 0, 52, 0
2, 46684, Note_on_c, 0, 56, 88
2, 46756, Control_c, 0, 64, 40
2, 46772, Control_c, 0, 64, 0
2, 46892, Control_c, 0, 64, 127
2, 47088, Note_on_c, 0, 56, 0
2, 47156, Note_on_c, 0, 44, 46
2, 47168, Note_on_c, 0, 60, 47
2, 47188, Note_on_c, 0, 51, 47
2, 47240, Note_on_c, 0, 63, 50
2, 47272, Note_on_c, 0, 60, 0
2, 47280, Note_on_c, 0, 44, 0
2, 47288, Note_on_c, 0, 51, 0
2, 47316, Note_on_c, 0, 68, 73
2, 47328, Note_on_c, 0, 63, 0
2, 47384, Note_on_c, 0, 68, 0
2, 47832, Note_on_c, 0, 56, 88
2, 48056, Note_on_c, 0, 56, 0
2, 48324, Note_on_c, 0, 56, 82
2, 48456, Note_on_c, 0, 56, 0
2, 48468, Note_on_c, 0, 57, 80
2, 48584, Note_on_c, 0, 56, 83
2, 48600, Note_on_c, 0, 57, 0
2, 48668, Note_on_c, 0, 56, 0
2, 48696, Note_on_c, 0, 55, 86
2, 48796, Note_on_c, 0, 56, 85
2, 48808, Note_on_c, 0, 55, 0
2, 48900, Note_on_c, 0, 56, 0
2, 48912, Note_on_c, 0, 59, 90
2, 48984, Control_c, 0, 64, 40
2, 49000, Control_c, 0, 64, 0
2, 49124, Control_c, 0, 64, 88
2, 49140, Control_c, 0, 64, 127
2, 49184, Note_on_c, 0, 59, 0
2, 49184, Control_c, 0, 64, 88
2, 49200, Note_on_c, 0, 57, 80
2, 49200, Control_c, 0, 64, 0
2, 49296, Control_c, 0, 64, 127
2, 49332, Note_on_c, 0, 57, 0
2, 49464, Note_on_c, 0, 61, 47
2, 49516, Note_on_c, 0, 42, 56
2, 49540, Note_on_c, 0, 61, 0
2, 49556, Note_on_c, 0, 64, 56
2, 49600, Note_on_c, 0, 64, 0
2, 49600, Note_on_c, 0, 69, 63
2, 49656, Note_on_c, 0, 69, 0
2, 49668, Note_on_c, 0, 42, 0
2, 49820, Note_on_c, 0, 49, 79
2, 49956, Note_on_c, 0, 49, 0
2, 50140, Note_on_c, 0, 52, 75
2, 50300, Control_c, 0, 64, 88
2, 50316, Control_c, 0, 64, 24
2, 50332, Control_c, 0, 64, 0
2, 50412, Control_c, 0, 64, 104
2, 50428, Control_c, 0, 64, 127
2, 50496, Note_on_c, 0, 52, 0
2, 50940, Note_on_c, 0, 57, 82
2, 50968, Control_c, 0, 64, 72
2, 50984, Control_c, 0, 64, 0
2, 51076, Control_c, 0, 64, 56
2, 51092, Control_c, 0, 64, 127
2, 51216, Note_on_c, 0, 57, 0
2, 51240, Note_on_c, 0, 61, 87
2, 51280, Control_c, 0, 64, 24
2, 51292, Control_c, 0, 64, 0
2, 51372, Control_c, 0, 64, 88
2, 51384, Control_c, 0, 64, 127
2, 51512, Note_on_c, 0, 61, 0
2, 51512, Control_c, 0, 64, 0
2, 51524, Note_on_c, 0, 59, 86
2, 51588, Control_c, 0, 64, 88
2, 51604, Control_c, 0, 64, 127
2, 51804, Control_c, 0, 64, 24
2, 51812, Note_on_c, 0, 47, 67
2, 51820, Note_on_c, 0, 63, 49
2, 51824, Control_c, 0, 64, 0
2, 51828, Note_on_c, 0, 69, 62
2, 51832, Note_on_c, 0, 66, 43
2, 51880, Control_c, 0, 64, 56
2, 51900, Control_c, 0, 64, 127
2, 51968, Note_on_c, 0, 66, 0
2, 51968, Note_on_c, 0, 63, 0
2, 51984, Note_on_c, 0, 69, 0
2, 52044, Note_on_c, 0, 59, 0
2, 52088, Note_on_c, 0, 47, 0
2, 52088, Note_on_c, 0, 51, 82
2, 52348, Note_on_c, 0, 54, 87
2, 52356, Note_on_c, 0, 51, 0
2, 52584, Note_on_c, 0, 54, 0
2, 52600, Note_on_c, 0, 57, 90
2, 52816, Note_on_c, 0, 57, 0
2, 52856, Note_on_c, 0, 59, 94
2, 52872, Control_c, 0, 64, 104
2, 52888, Control_c, 0, 64, 40
2, 52904, Control_c, 0, 64, 0
2, 52948, Control_c, 0, 64, 40
2, 52964, Control_c, 0, 64, 104
2, 52980, Control_c, 0, 64, 127
2, 53124, Note_on_c, 0, 59, 0
2, 53136, Note_on_c, 0, 60, 95
2, 53136, Control_c, 0, 64, 56
2, 53152, Control_c, 0, 64, 0
2, 53244, Control_c, 0, 64, 40
2, 53260, Control_c, 0, 64, 127
2, 53440, Note_on_c, 0, 60, 0
2, 53448, Note_on_c, 0, 63, 97
2, 53448, Control_c, 0, 64, 88
2, 53464, Control_c, 0, 64, 0
2, 53584, Control_c, 0, 64, 72
2, 53600, Control_c, 0, 64, 127
2, 53804, Note_on_c, 0, 61, 93
2, 53804, Control_c, 0, 64, 72
2, 53820, Control_c, 0, 64, 0
2, 53828, Note_on_c, 0, 63, 0
2, 53940, Control_c, 0, 64, 56
2, 53956, Control_c, 0, 64, 127
2, 54128, Control_c, 0, 64, 56
2, 54144, Control_c, 0, 64, 0
2, 54176, Control_c, 0, 64, 56
2, 54192, Control_c, 0, 64, 104
2, 54208, Control_c, 0, 64, 127
2, 54280, Note_on_c, 0, 61, 0
2, 54396, Note_on_c, 0, 56, 74
2, 54436, Control_c, 0, 64, 72
2, 54452, Control_c, 0, 64, 0
2, 54512, Control_c, 0, 64, 24
2, 54528, Control_c, 0, 64, 88
2, 54548, Control_c, 0, 64, 127
2, 54740, Note_on_c, 0, 56, 0
2, 54748, Note_on_c, 0, 59, 75
2, 54764, Control_c, 0, 64, 40
2, 54780, Control_c, 0, 64, 0
2, 54872, Control_c, 0, 64, 40
2, 54884, Control_c, 0, 64, 104
2, 54900, Control_c, 0, 64, 127
2, 55088, Control_c, 0, 64, 88
2, 55092, Note_on_c, 0, 59, 0
2, 55096, Note_on_c, 0, 58, 71
2, 55104, Control_c, 0, 64, 0
2, 55212, Control_c, 0, 64, 56
2, 55228, Control_c, 0, 64, 127
2, 55472, Note_on_c, 0, 58, 0
2, 55492, Note_on_c, 0, 57, 69
2, 55508, Control_c, 0, 64, 88
2, 55520, Control_c, 0, 64, 40
2, 55536, Control_c, 0, 64, 0
2, 55676, Control_c, 0, 64, 24
2, 55692, Control_c, 0, 64, 72
2, 55708, Control_c, 0, 64, 104
2, 55724, Control_c, 0, 64, 127
2, 56220, Control_c, 0, 64, 56
2, 56232, Note_on_c, 0, 57, 0
2, 56232, Control_c, 0, 64, 0
2, 56260, Note_on_c, 0, 54, 50
2, 56328, Control_c, 0, 64, 56
2, 56344, Control_c, 0, 64, 127
2, 56444, Note_on_c, 0, 54, 0
2, 56680, Note_on_c, 0, 80, 96
2, 56808, Control_c, 0, 64, 56
2, 56820, Control_c, 0, 64, 0
2, 56868, Note_on_c, 0, 40, 63
2, 56932, Control_c, 0, 64, 127
2, 57056, Note_on_c, 0, 47, 57
2, 57060, Note_on_c, 0, 40, 0
2, 57168, Note_on_c, 0, 47, 0
2, 57252, Note_on_c, 0, 52, 60
2, 57376, Note_on_c, 0, 52, 0
2, 57440, Note_on_c, 0, 56, 57
2, 57596, Note_on_c, 0, 80, 0
2, 57620, Note_on_c, 0, 56, 0
2, 57632, Note_on_c, 0, 59, 60
2, 57728, Note_on_c, 0, 59, 0
2, 57812, Note_on_c, 0, 68, 60
2, 57812, Note_on_c, 0, 80, 101
2, 57952, Note_on_c, 0, 68, 0
2, 58004, Note_on_c, 0, 64, 58
2, 58104, Note_on_c, 0, 80, 0
2, 58160, Note_on_c, 0, 64, 0
2, 58176, Note_on_c, 0, 59, 65
2, 58232, Note_on_c, 0, 59, 0
2, 58360, Note_on_c, 0, 80, 104
2, 58372, Note_on_c, 0, 56, 52
2, 58520, Note_on_c, 0, 56, 0
2, 58560, Note_on_c, 0, 52, 63
2, 58708, Note_on_c, 0, 80, 0
2, 58716, Note_on_c, 0, 52, 0
2, 58732, Note_on_c, 0, 47, 74
2, 58792, Note_on_c, 0, 47, 0
2, 58952, Note_on_c, 0, 80, 109
2, 59148, Control_c, 0, 64, 40
2, 59164, Control_c, 0, 64, 0
2, 59168, Note_on_c, 0, 36, 78
2, 59240, Control_c, 0, 64, 104
2, 59252, Control_c, 0, 64, 127
2, 59368, Note_on_c, 0, 36, 0
2, 59404, Note_on_c, 0, 52, 59
2, 59508, Note_on_c, 0, 52, 0
2, 59560, Note_on_c, 0, 56, 57
2, 59708, Note_on_c, 0, 56, 0
2, 59712, Note_on_c, 0, 80, 0
2, 59724, Note_on_c, 0, 78, 90
2, 59776, Note_on_c, 0, 60, 46
2, 59900, Note_on_c, 0, 60, 0
2, 59948, Note_on_c, 0, 64, 59
2, 59996, Note_on_c, 0, 78, 0
2, 60064, Note_on_c, 0, 76, 86
2, 60108, Note_on_c, 0, 76, 0
2, 60108, Note_on_c, 0, 64, 0
2, 60168, Note_on_c, 0, 76, 85
2, 60172, Note_on_c, 0, 68, 63
2, 60304, Note_on_c, 0, 68, 0
2, 60352, Note_on_c, 0, 64, 58
2, 60480, Note_on_c, 0, 64, 0
2, 60528, Note_on_c, 0, 60, 56
2, 60636, Note_on_c, 0, 60, 0
2, 60692, Note_on_c, 0, 56, 56
2, 60776, Note_on_c, 0, 56, 0
2, 60896, Note_on_c, 0, 52, 58
2, 60936, Note_on_c, 0, 64, 80
2, 60948, Note_on_c, 0, 76, 0
2, 60952, Note_on_c, 0, 52, 0
2, 61024, Note_on_c, 0, 48, 55
2, 61080, Note_on_c, 0, 48, 0
2, 61200, Note_on_c, 0, 64, 74
2, 61220, Note_on_c, 0, 68, 74
2, 61264, Note_on_c, 0, 64, 0
2, 61284, Control_c, 0, 64, 56
2, 61288, Note_on_c, 0, 73, 87
2, 61300, Control_c, 0, 64, 0
2, 61312, Note_on_c, 0, 68, 0
2, 61344, Note_on_c, 0, 76, 102
2, 61372, Note_on_c, 0, 73, 0
2, 61408, Note_on_c, 0, 76, 0
2, 61408, Control_c, 0, 64, 127
2, 61416, Note_on_c, 0, 64, 0
2, 61492, Note_on_c, 0, 37, 66
2, 61560, Note_on_c, 0, 37, 0
2, 61672, Note_on_c, 0, 88, 111
2, 61716, Note_on_c, 0, 52, 71
2, 61804, Note_on_c, 0, 52, 0
2, 61904, Note_on_c, 0, 56, 42
2, 62060, Note_on_c, 0, 61, 46
2, 62184, Note_on_c, 0, 88, 0
2, 62216, Note_on_c, 0, 87, 103
2, 62340, Note_on_c, 0, 64, 54
2, 62376, Note_on_c, 0, 64, 0
2, 62384, Note_on_c, 0, 61, 0
2, 62388, Note_on_c, 0, 56, 0
2, 62624, Note_on_c, 0, 40, 72
2, 62628, Control_c, 0, 64, 56
2, 62644, Control_c, 0, 64, 0
2, 62708, Control_c, 0, 64, 127
2, 62720, Note_on_c, 0, 40, 0
2, 62764, Note_on_c, 0, 79, 100
2, 62772, Note_on_c, 0, 87, 0
2, 62860, Note_on_c, 0, 56, 41
2, 62960, Note_on_c, 0, 56, 0
2, 63004, Note_on_c, 0, 79, 0
2, 63016, Note_on_c, 0, 80, 103
2, 63036, Note_on_c, 0, 61, 56
2, 63168, Note_on_c, 0, 61, 0
2, 63228, Note_on_c, 0, 64, 52
2, 63268, Note_on_c, 0, 61, 28
2, 63340, Note_on_c, 0, 64, 0
2, 63368, Note_on_c, 0, 68, 39
2, 63380, Note_on_c, 0, 80, 0
2, 63412, Note_on_c, 0, 68, 0
2, 63420, Note_on_c, 0, 85, 104
2, 63448, Note_on_c, 0, 61, 0
2, 63496, Note_on_c, 0, 85, 0
2, 63568, Note_on_c, 0, 69, 63
2, 63640, Note_on_c, 0, 73, 58
2, 63664, Note_on_c, 0, 78, 81
2, 63748, Note_on_c, 0, 83, 96
2, 63764, Control_c, 0, 64, 24
2, 63776, Note_on_c, 0, 73, 0
2, 63780, Control_c, 0, 64, 0
2, 63912, Note_on_c, 0, 42, 66
2, 63916, Control_c, 0, 64, 127
2, 64004, Note_on_c, 0, 42, 0
2, 64072, Note_on_c, 0, 49, 48
2, 64100, Note_on_c, 0, 69, 0
2, 64116, Note_on_c, 0, 78, 0
2, 64152, Note_on_c, 0, 49, 0
2, 64228, Note_on_c, 0, 54, 52
2, 64360, Note_on_c, 0, 54, 0
2, 64388, Note_on_c, 0, 57, 54
2, 64472, Note_on_c, 0, 57, 0
2, 64496, Note_on_c, 0, 83, 0
2, 64496, Note_on_c, 0, 82, 92
2, 64576, Note_on_c, 0, 61, 42
2, 64728, Note_on_c, 0, 82, 0
2, 64740, Note_on_c, 0, 61, 0
2, 64760, Note_on_c, 0, 81, 87
2, 64784, Note_on_c, 0, 69, 62
2, 64944, Note_on_c, 0, 69, 0
2, 64964, Note_on_c, 0, 66, 48
2, 65144, Note_on_c, 0, 66, 0
2, 65144, Note_on_c, 0, 61, 52
2, 65228, Note_on_c, 0, 61, 0
2, 65332, Note_on_c, 0, 57, 52
2, 65476, Note_on_c, 0, 57, 0
2, 65508, Note_on_c, 0, 54, 52
2, 65708, Note_on_c, 0, 49, 52
2, 65716, Note_on_c, 0, 54, 0
2, 65780, Note_on_c, 0, 49, 0
2, 65808, Note_on_c, 0, 81, 0
2, 65968, Note_on_c, 0, 78, 97
2, 66116, Control_c, 0, 64, 88
2, 66132, Control_c, 0, 64, 0
2, 66152, Note_on_c, 0, 38, 71
2, 66244, Control_c, 0, 64, 104
2, 66260, Control_c, 0, 64, 127
2, 66328, Note_on_c, 0, 38, 0
2, 66344, Note_on_c, 0, 45, 66
2, 66440, Note_on_c, 0, 45, 0
2, 66520, Note_on_c, 0, 50, 65
2, 66624, Note_on_c, 0, 50, 0
2, 66676, Note_on_c, 0, 54, 62
2, 66832, Note_on_c, 0, 54, 0
2, 66852, Note_on_c, 0, 78, 0
2, 66856, Note_on_c, 0, 57, 60
2, 66948, Note_on_c, 0, 57, 0
2, 67020, Note_on_c, 0, 78, 101
2, 67040, Note_on_c, 0, 66, 67
2, 67168, Note_on_c, 0, 66, 0
2, 67216, Note_on_c, 0, 62, 69
2, 67384, Note_on_c, 0, 62, 0
2, 67388, Note_on_c, 0, 57, 66
2, 67424, Note_on_c, 0, 57, 0
2, 67432, Note_on_c, 0, 78, 0
2, 67556, Note_on_c, 0, 54, 58
2, 67556, Note_on_c, 0, 78, 103
2, 67688, Note_on_c, 0, 54, 0
2, 67724, Note_on_c, 0, 50, 65
2, 67900, Note_on_c, 0, 45, 78
2, 67916, Note_on_c, 0, 50, 0
2, 67968, Note_on_c, 0, 45, 0
2, 67980, Note_on_c, 0, 78, 0
2, 68128, Note_on_c, 0, 78, 109
2, 68272, Control_c, 0, 64, 88
2, 68288, Control_c, 0, 64, 0
2, 68292, Note_on_c, 0, 34, 82
2, 68380, Control_c, 0, 64, 127
2, 68392, Note_on_c, 0, 34, 0
2, 68532, Note_on_c, 0, 50, 63
2, 68644, Note_on_c, 0, 50, 0
2, 68700, Note_on_c, 0, 54, 64
2, 68848, Note_on_c, 0, 54, 0
2, 68848, Note_on_c, 0, 78, 0
2, 68876, Note_on_c, 0, 76, 93
2, 68892, Note_on_c, 0, 58, 48
2, 69052, Note_on_c, 0, 58, 0
2, 69084, Note_on_c, 0, 62, 54
2, 69124, Note_on_c, 0, 76, 0
2, 69200, Note_on_c, 0, 74, 86
2, 69248, Note_on_c, 0, 74, 0
2, 69252, Note_on_c, 0, 62, 0
2, 69304, Note_on_c, 0, 74, 86
2, 69320, Note_on_c, 0, 66, 51
2, 69440, Note_on_c, 0, 66, 0
2, 69492, Note_on_c, 0, 62, 64
2, 69540, Note_on_c, 0, 74, 0
2, 69628, Note_on_c, 0, 62, 0
2, 69680, Note_on_c, 0, 58, 42
2, 69836, Note_on_c, 0, 58, 0
2, 69852, Note_on_c, 0, 54, 54
2, 69916, Note_on_c, 0, 54, 0
2, 70028, Note_on_c, 0, 50, 60
2, 70116, Note_on_c, 0, 50, 0
2, 70132, Note_on_c, 0, 62, 80
2, 70168, Note_on_c, 0, 62, 0
2, 70252, Note_on_c, 0, 62, 75
2, 70328, Note_on_c, 0, 62, 0
2, 70332, Note_on_c, 0, 67, 71
2, 70340, Note_on_c, 0, 71, 85
2, 70348, Control_c, 0, 64, 24
2, 70364, Control_c, 0, 64, 0
2, 70372, Note_on_c, 0, 67, 0
2, 70396, Note_on_c, 0, 74, 101
2, 70408, Note_on_c, 0, 71, 0
2, 70440, Control_c, 0, 64, 127
2, 70448, Note_on_c, 0, 74, 0
2, 70540, Note_on_c, 0, 31, 63
2, 70592, Note_on_c, 0, 31, 0
2, 70664, Note_on_c, 0, 86, 102
2, 70684, Note_on_c, 0, 83, 78
2, 70740, Note_on_c, 0, 47, 55
2, 70816, Note_on_c, 0, 47, 0
2, 70832, Note_on_c, 0, 83, 0
2, 70856, Note_on_c, 0, 86, 0
2, 70892, Note_on_c, 0, 84, 105
2, 70900, Note_on_c, 0, 81, 94
2, 71048, Note_on_c, 0, 55, 69
2, 71076, Note_on_c, 0, 81, 0
2, 71116, Note_on_c, 0, 50, 12
2, 71168, Note_on_c, 0, 62, 57
2, 71176, Note_on_c, 0, 50, 0
2, 71200, Note_on_c, 0, 84, 0
2, 71228, Note_on_c, 0, 62, 0
2, 71228, Note_on_c, 0, 79, 92
2, 71232, Note_on_c, 0, 83, 95
2, 71236, Note_on_c, 0, 55, 0
2, 71268, Note_on_c, 0, 79, 0
2, 71288, Note_on_c, 0, 83, 0
2, 71380, Note_on_c, 0, 71, 69
2, 71392, Note_on_c, 0, 69, 82
2, 71396, Note_on_c, 0, 75, 62
2, 71428, Control_c, 0, 64, 56
2, 71440, Note_on_c, 0, 79, 81
2, 71448, Note_on_c, 0, 69, 0
2, 71448, Control_c, 0, 64, 0
2, 71488, Note_on_c, 0, 71, 0
2, 71496, Note_on_c, 0, 83, 102
2, 71504, Note_on_c, 0, 79, 0
2, 71508, Note_on_c, 0, 75, 0
2, 71508, Control_c, 0, 64, 127
2, 71540, Note_on_c, 0, 83, 0
2, 71624, Note_on_c, 0, 35, 71
2, 71644, Note_on_c, 0, 82, 44
2, 71700, Note_on_c, 0, 82, 0
2, 71744, Note_on_c, 0, 84, 101
2, 71748, Note_on_c, 0, 35, 0
2, 71752, Note_on_c, 0, 80, 79
2, 71784, Note_on_c, 0, 80, 0
2, 71828, Note_on_c, 0, 84, 0
2, 71876, Note_on_c, 0, 51, 43
2, 71904, Note_on_c, 0, 51, 0
2, 71948, Note_on_c, 0, 87, 97
2, 72016, Note_on_c, 0, 87, 0
2, 72036, Note_on_c, 0, 85, 97
2, 72044, Note_on_c, 0, 81, 86
2, 72080, Note_on_c, 0, 54, 50
2, 72168, Note_on_c, 0, 81, 0
2, 72176, Note_on_c, 0, 85, 0
2, 72268, Note_on_c, 0, 59, 60
2, 72416, Note_on_c, 0, 63, 54
2, 72452, Note_on_c, 0, 54, 0
2, 72460, Note_on_c, 0, 59, 0
2, 72484, Note_on_c, 0, 63, 0
2, 72528, Note_on_c, 0, 83, 94
2, 72544, Note_on_c, 0, 80, 58
2, 72612, Note_on_c, 0, 83, 0
2, 72620, Note_on_c, 0, 80, 0
2, 72672, Note_on_c, 0, 68, 55
2, 72756, Note_on_c, 0, 76, 60
2, 72788, Note_on_c, 0, 80, 66
2, 72824, Note_on_c, 0, 83, 89
2, 72840, Control_c, 0, 64, 104
2, 72856, Control_c, 0, 64, 0
2, 73004, Note_on_c, 0, 40, 73
2, 73012, Control_c, 0, 64, 127
2, 73152, Note_on_c, 0, 40, 0
2, 73176, Note_on_c, 0, 68, 0
2, 73184, Note_on_c, 0, 47, 58
2, 73292, Note_on_c, 0, 47, 0
2, 73336, Note_on_c, 0, 80, 0
2, 73352, Note_on_c, 0, 52, 63
2, 73416, Note_on_c, 0, 76, 0
2, 73464, Note_on_c, 0, 52, 0
2, 73508, Note_on_c, 0, 56, 58
2, 73684, Note_on_c, 0, 56, 0
2, 73684, Note_on_c, 0, 59, 58
2, 73732, Note_on_c, 0, 59, 0
2, 73736, Note_on_c, 0, 83, 0
2, 73860, Note_on_c, 0, 80, 81
2, 73872, Note_on_c, 0, 71, 55
2, 73872, Note_on_c, 0, 76, 51
2, 73872, Note_on_c, 0, 68, 65
2, 74020, Note_on_c, 0, 68, 0
2, 74024, Note_on_c, 0, 64, 51
2, 74184, Note_on_c, 0, 64, 0
2, 74220, Note_on_c, 0, 59, 58
2, 74276, Note_on_c, 0, 59, 0
2, 74400, Note_on_c, 0, 56, 56
2, 74432, Note_on_c, 0, 76, 0
2, 74472, Note_on_c, 0, 71, 0
2, 74516, Note_on_c, 0, 56, 0
2, 74544, Note_on_c, 0, 80, 0
2, 74572, Note_on_c, 0, 52, 55
2, 74764, Note_on_c, 0, 52, 0
2, 74780, Note_on_c, 0, 47, 50
2, 74868, Note_on_c, 0, 47, 0
2, 75164, Note_on_c, 0, 68, 86
2, 75248, Control_c, 0, 64, 104
2, 75260, Control_c, 0, 64, 0
2, 75348, Note_on_c, 0, 44, 57
2, 75400, Control_c, 0, 64, 127
2, 75460, Note_on_c, 0, 44, 0
2, 75536, Note_on_c, 0, 51, 49
2, 75548, Note_on_c, 0, 68, 0
2, 75660, Note_on_c, 0, 51, 0
2, 75716, Note_on_c, 0, 60, 51
2, 75748, Note_on_c, 0, 60, 0
2, 75880, Note_on_c, 0, 63, 63
2, 75936, Note_on_c, 0, 63, 0
2, 76064, Note_on_c, 0, 72, 72
2, 76184, Note_on_c, 0, 72, 0
2, 76236, Note_on_c, 0, 68, 90
2, 76236, Note_on_c, 0, 80, 77
2, 76320, Note_on_c, 0, 80, 0
2, 76392, Note_on_c, 0, 68, 0
2, 76436, Note_on_c, 0, 72, 67
2, 76556, Note_on_c, 0, 72, 0
2, 76580, Note_on_c, 0, 63, 62
2, 76628, Note_on_c, 0, 63, 0
2, 76780, Note_on_c, 0, 68, 97
2, 76780, Note_on_c, 0, 60, 57
2, 76864, Note_on_c, 0, 60, 0
2, 76948, Note_on_c, 0, 51, 55
2, 77112, Note_on_c, 0, 51, 0
2, 77124, Note_on_c, 0, 44, 51
2, 77212, Note_on_c, 0, 44, 0
2, 77352, Note_on_c, 0, 71, 101
2, 77364, Note_on_c, 0, 68, 0
2, 77432, Control_c, 0, 64, 72
2, 77448, Control_c, 0, 64, 0
2, 77544, Note_on_c, 0, 42, 62
2, 77556, Control_c, 0, 64, 127
2, 77620, Note_on_c, 0, 42, 0
2, 77644, Note_on_c, 0, 71, 0
2, 77656, Note_on_c, 0, 69, 100
2, 77732, Note_on_c, 0, 52, 54
2, 77736, Note_on_c, 0, 69, 0
2, 77868, Note_on_c, 0, 52, 0
2, 77896, Note_on_c, 0, 57, 55
2, 77952, Note_on_c, 0, 57, 0
2, 78048, Note_on_c, 0, 64, 57
2, 78132, Note_on_c, 0, 64, 0
2, 78168, Note_on_c, 0, 61, 86
2, 78244, Note_on_c, 0, 61, 0
2, 78248, Note_on_c, 0, 73, 44
2, 78380, Note_on_c, 0, 73, 0
2, 78452, Note_on_c, 0, 64, 85
2, 78452, Note_on_c, 0, 81, 46
2, 78496, Note_on_c, 0, 81, 0
2, 78512, Note_on_c, 0, 64, 0
2, 78620, Note_on_c, 0, 69, 57
2, 78704, Note_on_c, 0, 69, 0
2, 78788, Note_on_c, 0, 64, 71
2, 78852, Note_on_c, 0, 64, 0
2, 78968, Note_on_c, 0, 61, 69
2, 79040, Note_on_c, 0, 61, 0
2, 79144, Note_on_c, 0, 52, 56
2, 79260, Note_on_c, 0, 52, 0
2, 79320, Note_on_c, 0, 42, 55
2, 79404, Note_on_c, 0, 42, 0
2, 79548, Note_on_c, 0, 68, 85
2, 79644, Control_c, 0, 64, 56
2, 79664, Control_c, 0, 64, 0
2, 79724, Note_on_c, 0, 44, 66
2, 79788, Control_c, 0, 64, 104
2, 79804, Control_c, 0, 64, 127
2, 79820, Note_on_c, 0, 44, 0
2, 79880, Note_on_c, 0, 51, 56
2, 79984, Note_on_c, 0, 68, 0
2, 80028, Note_on_c, 0, 51, 0
2, 80064, Note_on_c, 0, 60, 69
2, 80096, Note_on_c, 0, 60, 0
2, 80224, Note_on_c, 0, 63, 71
2, 80320, Note_on_c, 0, 63, 0
2, 80396, Note_on_c, 0, 72, 78
2, 80520, Note_on_c, 0, 72, 0
2, 80568, Note_on_c, 0, 68, 89
2, 80572, Note_on_c, 0, 80, 74
2, 80660, Note_on_c, 0, 80, 0
2, 80748, Note_on_c, 0, 72, 67
2, 80820, Note_on_c, 0, 68, 0
2, 80884, Note_on_c, 0, 72, 0
2, 80904, Note_on_c, 0, 63, 63
2, 80968, Note_on_c, 0, 63, 0
2, 81088, Note_on_c, 0, 68, 87
2, 81112, Note_on_c, 0, 60, 56
2, 81176, Note_on_c, 0, 60, 0
2, 81228, Note_on_c, 0, 68, 0
2, 81236, Note_on_c, 0, 69, 86
2, 81260, Note_on_c, 0, 51, 57
2, 81352, Note_on_c, 0, 68, 82
2, 81356, Note_on_c, 0, 69, 0
2, 81396, Note_on_c, 0, 51, 0
2, 81432, Note_on_c, 0, 68, 0
2, 81432, Note_on_c, 0, 44, 65
2, 81444, Note_on_c, 0, 67, 90
2, 81488, Note_on_c, 0, 44, 0
2, 81524, Note_on_c, 0, 68, 96
2, 81532, Note_on_c, 0, 67, 0
2, 81620, Note_on_c, 0, 68, 0
2, 81624, Note_on_c, 0, 71, 93
2, 81692, Control_c, 0, 64, 88
2, 81708, Control_c, 0, 64, 0
2, 81804, Note_on_c, 0, 42, 62
2, 81832, Control_c, 0, 64, 127
2, 81876, Note_on_c, 0, 71, 0
2, 81884, Note_on_c, 0, 42, 0
2, 81912, Note_on_c, 0, 69, 96
2, 81984, Note_on_c, 0, 52, 67
2, 82084, Note_on_c, 0, 52, 0
2, 82100, Note_on_c, 0, 69, 0
2, 82120, Note_on_c, 0, 57, 44
2, 82136, Note_on_c, 0, 61, 96
2, 82176, Note_on_c, 0, 57, 0
2, 82232, Note_on_c, 0, 52, 62
2, 82324, Note_on_c, 0, 61, 0
2, 82336, Note_on_c, 0, 52, 0
2, 82348, Note_on_c, 0, 64, 101
2, 82388, Note_on_c, 0, 42, 62
2, 82400, Note_on_c, 0, 64, 0
2, 82588, Note_on_c, 0, 42, 0
2, 82588, Note_on_c, 0, 70, 96
2, 82620, Note_on_c, 0, 49, 58
2, 82652, Control_c, 0, 64, 56
2, 82668, Control_c, 0, 64, 0
2, 82732, Control_c, 0, 64, 104
2, 82744, Control_c, 0, 64, 127
2, 82768, Note_on_c, 0, 49, 0
2, 82776, Note_on_c, 0, 52, 67
2, 82856, Note_on_c, 0, 80, 103
2, 82872, Note_on_c, 0, 76, 81
2, 82916, Note_on_c, 0, 52, 0
2, 82940, Note_on_c, 0, 58, 43
2, 83020, Note_on_c, 0, 58, 0
2, 83040, Note_on_c, 0, 70, 0
2, 83052, Note_on_c, 0, 80, 0
2, 83076, Note_on_c, 0, 76, 0
2, 83144, Note_on_c, 0, 78, 94
2, 83152, Note_on_c, 0, 75, 85
2, 83164, Note_on_c, 0, 61, 26
2, 83284, Note_on_c, 0, 75, 0
2, 83296, Note_on_c, 0, 64, 73
2, 83368, Note_on_c, 0, 78, 0
2, 83384, Note_on_c, 0, 76, 106
2, 83400, Note_on_c, 0, 73, 74
2, 83536, Note_on_c, 0, 76, 0
2, 83540, Note_on_c, 0, 70, 54
2, 83596, Note_on_c, 0, 64, 0
2, 83600, Note_on_c, 0, 70, 0
2, 83632, Note_on_c, 0, 61, 0
2, 83808, Note_on_c, 0, 75, 88
2, 83888, Control_c, 0, 64, 72
2, 83908, Control_c, 0, 64, 0
2, 84004, Note_on_c, 0, 43, 80
2, 84044, Control_c, 0, 64, 104
2, 84060, Control_c, 0, 64, 127
2, 84116, Note_on_c, 0, 43, 0
2, 84136, Note_on_c, 0, 73, 0
2, 84164, Note_on_c, 0, 75, 0
2, 84176, Note_on_c, 0, 51, 50
2, 84340, Note_on_c, 0, 51, 0
2, 84360, Note_on_c, 0, 58, 57
2, 84404, Note_on_c, 0, 58, 0
2, 84548, Note_on_c, 0, 63, 70
2, 84556, Note_on_c, 0, 87, 103
2, 84568, Note_on_c, 0, 82, 73
2, 84568, Note_on_c, 0, 85, 74
2, 84600, Note_on_c, 0, 85, 0
2, 84620, Note_on_c, 0, 63, 0
2, 84708, Note_on_c, 0, 70, 74
2, 84840, Note_on_c, 0, 70, 0
2, 84856, Note_on_c, 0, 75, 95
2, 84972, Note_on_c, 0, 75, 0
2, 84972, Note_on_c, 0, 87, 0
2, 85004, Note_on_c, 0, 82, 0
2, 85012, Note_on_c, 0, 70, 63
2, 85092, Note_on_c, 0, 87, 111
2, 85104, Note_on_c, 0, 82, 80
2, 85116, Note_on_c, 0, 85, 50
2, 85144, Note_on_c, 0, 85, 0
2, 85208, Note_on_c, 0, 63, 58
2, 85212, Note_on_c, 0, 70, 0
2, 85248, Note_on_c, 0, 63, 0
2, 85252, Note_on_c, 0, 82, 0
2, 85276, Note_on_c, 0, 87, 0
2, 85352, Note_on_c, 0, 87, 103
2, 85364, Note_on_c, 0, 85, 83
2, 85364, Note_on_c, 0, 82, 77
2, 85368, Note_on_c, 0, 58, 69
2, 85464, Note_on_c, 0, 58, 0
2, 85512, Note_on_c, 0, 51, 71
2, 85528, Note_on_c, 0, 82, 0
2, 85596, Note_on_c, 0, 87, 0
2, 85620, Note_on_c, 0, 85, 0
2, 85648, Note_on_c, 0, 51, 0
2, 85660, Note_on_c, 0, 43, 80
2, 85704, Note_on_c, 0, 43, 0
2, 85740, Note_on_c, 0, 87, 100
2, 85740, Note_on_c, 0, 85, 86
2, 85744, Note_on_c, 0, 82, 77
2, 85796, Note_on_c, 0, 82, 0
2, 85816, Note_on_c, 0, 85, 0
2, 85844, Note_on_c, 0, 87, 0
2, 85888, Control_c, 0, 64, 104
2, 85892, Note_on_c, 0, 87, 103
2, 85892, Note_on_c, 0, 83, 86
2, 85904, Control_c, 0, 64, 0
2, 85928, Note_on_c, 0, 44, 83
2, 85960, Note_on_c, 0, 83, 0
2, 85968, Note_on_c, 0, 87, 0
2, 85984, Control_c, 0, 64, 127
2, 86016, Note_on_c, 0, 88, 105
2, 86016, Note_on_c, 0, 85, 65
2, 86068, Note_on_c, 0, 44, 0
2, 86084, Note_on_c, 0, 51, 62
2, 86104, Note_on_c, 0, 88, 0
2, 86112, Note_on_c, 0, 87, 103
2, 86112, Note_on_c, 0, 83, 88
2, 86124, Note_on_c, 0, 85, 0
2, 86168, Note_on_c, 0, 83, 0
2, 86188, Note_on_c, 0, 87, 0
2, 86220, Note_on_c, 0, 82, 70
2, 86220, Note_on_c, 0, 86, 100
2, 86244, Note_on_c, 0, 51, 0
2, 86252, Note_on_c, 0, 59, 51
2, 86288, Note_on_c, 0, 86, 0
2, 86300, Note_on_c, 0, 87, 103
2, 86300, Note_on_c, 0, 83, 63
2, 86304, Note_on_c, 0, 82, 0
2, 86312, Note_on_c, 0, 59, 0
2, 86352, Note_on_c, 0, 87, 0
2, 86352, Note_on_c, 0, 83, 0
2, 86404, Note_on_c, 0, 90, 110
2, 86404, Note_on_c, 0, 87, 79
2, 86428, Note_on_c, 0, 63, 65
2, 86536, Note_on_c, 0, 90, 0
2, 86564, Note_on_c, 0, 87, 0
2, 86604, Note_on_c, 0, 88, 103
2, 86604, Note_on_c, 0, 71, 55
2, 86608, Note_on_c, 0, 85, 97
2, 86744, Note_on_c, 0, 71, 0
2, 86768, Note_on_c, 0, 85, 0
2, 86772, Note_on_c, 0, 68, 59
2, 86776, Note_on_c, 0, 88, 0
2, 86796, Note_on_c, 0, 68, 0
2, 86804, Note_on_c, 0, 63, 0
2, 86856, Note_on_c, 0, 87, 96
2, 86860, Note_on_c, 0, 83, 78
2, 86884, Note_on_c, 0, 83, 0
2, 86908, Note_on_c, 0, 87, 0
2, 86960, Note_on_c, 0, 87, 95
2, 86960, Note_on_c, 0, 83, 98
2, 87004, Note_on_c, 0, 40, 79
2, 87004, Control_c, 0, 64, 104
2, 87020, Control_c, 0, 64, 0
2, 87072, Note_on_c, 0, 83, 0
2, 87116, Control_c, 0, 64, 127
2, 87128, Note_on_c, 0, 87, 0
2, 87172, Note_on_c, 0, 49, 59
2, 87172, Note_on_c, 0, 85, 101
2, 87184, Note_on_c, 0, 82, 77
2, 87304, Note_on_c, 0, 82, 0
2, 87312, Note_on_c, 0, 40, 0
2, 87344, Note_on_c, 0, 85, 0
2, 87348, Note_on_c, 0, 52, 78
2, 87360, Note_on_c, 0, 49, 0
2, 87360, Note_on_c, 0, 83, 106
2, 87360, Note_on_c, 0, 80, 90
2, 87376, Note_on_c, 0, 52, 0
2, 87424, Note_on_c, 0, 80, 0
2, 87432, Note_on_c, 0, 83, 0
2, 87568, Note_on_c, 0, 83, 96
2, 87568, Note_on_c, 0, 56, 58
2, 87572, Note_on_c, 0, 75, 75
2, 87740, Note_on_c, 0, 83, 0
2, 87768, Note_on_c, 0, 75, 0
2, 87772, Note_on_c, 0, 68, 59
2, 87800, Note_on_c, 0, 82, 95
2, 87808, Note_on_c, 0, 73, 74
2, 87828, Note_on_c, 0, 75, 37
2, 87856, Note_on_c, 0, 75, 0
2, 87888, Note_on_c, 0, 73, 0
2, 87932, Note_on_c, 0, 68, 0
2, 87948, Note_on_c, 0, 82, 0
2, 87996, Note_on_c, 0, 61, 69
2, 88008, Note_on_c, 0, 56, 0
2, 88060, Note_on_c, 0, 61, 0
2, 88112, Note_on_c, 0, 80, 90
2, 88116, Note_on_c, 0, 71, 71
2, 88176, Note_on_c, 0, 71, 0
2, 88264, Note_on_c, 0, 80, 0
2, 88276, Note_on_c, 0, 68, 85
2, 88340, Control_c, 0, 64, 72
2, 88348, Note_on_c, 0, 75, 70
2, 88352, Control_c, 0, 64, 0
2, 88460, Note_on_c, 0, 83, 103
2, 88460, Note_on_c, 0, 39, 69
2, 88464, Control_c, 0, 64, 104
2, 88468, Note_on_c, 0, 68, 0
2, 88480, Control_c, 0, 64, 127
2, 88504, Note_on_c, 0, 75, 0
2, 88540, Note_on_c, 0, 83, 0
2, 88636, Note_on_c, 0, 39, 0
2, 88688, Note_on_c, 0, 47, 77
2, 88788, Note_on_c, 0, 47, 0
2, 88844, Note_on_c, 0, 51, 78
2, 88976, Note_on_c, 0, 51, 0
2, 89016, Note_on_c, 0, 55, 78
2, 89100, Note_on_c, 0, 55, 0
2, 89176, Note_on_c, 0, 56, 64
2, 89272, Note_on_c, 0, 68, 92
2, 89292, Note_on_c, 0, 59, 69
2, 89356, Note_on_c, 0, 59, 0
2, 89388, Note_on_c, 0, 56, 0
2, 89420, Note_on_c, 0, 63, 81
2, 89504, Note_on_c, 0, 63, 0
2, 89624, Note_on_c, 0, 51, 64
2, 89740, Note_on_c, 0, 61, 69
2, 89876, Note_on_c, 0, 64, 85
2, 89968, Control_c, 0, 64, 56
2, 89984, Control_c, 0, 64, 0
2, 90112, Control_c, 0, 64, 127
2, 90132, Note_on_c, 0, 67, 67
2, 90132, Note_on_c, 0, 58, 51
2, 90200, Note_on_c, 0, 67, 0
2, 90236, Note_on_c, 0, 68, 0
2, 90256, Note_on_c, 0, 58, 0
2, 90280, Note_on_c, 0, 64, 73
2, 90280, Note_on_c, 0, 55, 56
2, 90328, Note_on_c, 0, 55, 0
2, 90340, Note_on_c, 0, 64, 0
2, 90360, Note_on_c, 0, 61, 0
2, 90368, Note_on_c, 0, 51, 0
2, 90384, Note_on_c, 0, 64, 0
2, 90412, Note_on_c, 0, 71, 73
2, 90412, Note_on_c, 0, 63, 58
2, 90484, Note_on_c, 0, 71, 0
2, 90500, Note_on_c, 0, 63, 0
2, 90532, Note_on_c, 0, 70, 77
2, 90532, Note_on_c, 0, 61, 56
2, 90604, Note_on_c, 0, 70, 0
2, 90636, Note_on_c, 0, 61, 0
2, 90652, Note_on_c, 0, 67, 78
2, 90652, Note_on_c, 0, 58, 55
2, 90680, Note_on_c, 0, 58, 0
2, 90708, Note_on_c, 0, 67, 0
2, 90752, Note_on_c, 0, 75, 88
2, 90752, Note_on_c, 0, 66, 57
2, 90820, Note_on_c, 0, 66, 0
2, 90844, Note_on_c, 0, 75, 0
2, 90868, Note_on_c, 0, 73, 89
2, 90868, Note_on_c, 0, 64, 62
2, 90948, Note_on_c, 0, 73, 0
2, 90952, Note_on_c, 0, 64, 0
2, 90976, Note_on_c, 0, 61, 56
2, 90976, Note_on_c, 0, 70, 87
2, 91040, Note_on_c, 0, 70, 0
2, 91040, Note_on_c, 0, 61, 0
2, 91068, Note_on_c, 0, 78, 87
2, 91068, Note_on_c, 0, 70, 71
2, 91168, Note_on_c, 0, 70, 0
2, 91172, Note_on_c, 0, 78, 0
2, 91172, Note_on_c, 0, 76, 100
2, 91172, Note_on_c, 0, 68, 63
2, 91196, Note_on_c, 0, 68, 0
2, 91252, Note_on_c, 0, 76, 0
2, 91268, Note_on_c, 0, 73, 100
2, 91268, Note_on_c, 0, 64, 78
2, 91332, Note_on_c, 0, 73, 0
2, 91356, Note_on_c, 0, 64, 0
2, 91372, Note_on_c, 0, 80, 97
2, 91372, Note_on_c, 0, 71, 62
2, 91456, Note_on_c, 0, 80, 0
2, 91464, Note_on_c, 0, 71, 0
2, 91476, Note_on_c, 0, 79, 102
2, 91476, Note_on_c, 0, 70, 62
2, 91556, Note_on_c, 0, 79, 0
2, 91580, Note_on_c, 0, 76, 96
2, 91580, Note_on_c, 0, 67, 57
2, 91596, Note_on_c, 0, 70, 0
2, 91656, Note_on_c, 0, 67, 0
2, 91664, Note_on_c, 0, 76, 0
2, 91684, Note_on_c, 0, 83, 98
2, 91684, Note_on_c, 0, 75, 82
2, 91764, Note_on_c, 0, 75, 0
2, 91768, Note_on_c, 0, 83, 0
2, 91796, Note_on_c, 0, 82, 92
2, 91796, Note_on_c, 0, 73, 62
2, 91868, Note_on_c, 0, 82, 0
2, 91876, Note_on_c, 0, 73, 0
2, 91888, Note_on_c, 0, 79, 102
2, 91888, Note_on_c, 0, 70, 58
2, 91956, Note_on_c, 0, 70, 0
2, 91972, Note_on_c, 0, 79, 0
2, 91984, Note_on_c, 0, 87, 100
2, 91984, Note_on_c, 0, 78, 77
2, 92056, Note_on_c, 0, 78, 0
2, 92096, Note_on_c, 0, 85, 102
2, 92096, Note_on_c, 0, 76, 70
2, 92100, Note_on_c, 0, 87, 0
2, 92188, Note_on_c, 0, 85, 0
2, 92196, Note_on_c, 0, 82, 97
2, 92196, Note_on_c, 0, 73, 60
2, 92216, Note_on_c, 0, 76, 0
2, 92228, Note_on_c, 0, 73, 0
2, 92260, Note_on_c, 0, 82, 0
2, 92284, Note_on_c, 0, 90, 100
2, 92284, Note_on_c, 0, 82, 87
2, 92380, Note_on_c, 0, 88, 100
2, 92380, Note_on_c, 0, 79, 63
2, 92388, Note_on_c, 0, 82, 0
2, 92388, Note_on_c, 0, 90, 0
2, 92460, Note_on_c, 0, 79, 0
2, 92472, Note_on_c, 0, 76, 79
2, 92472, Note_on_c, 0, 85, 96
2, 92480, Note_on_c, 0, 88, 0
2, 92548, Note_on_c, 0, 85, 0
2, 92552, Note_on_c, 0, 76, 0
2, 92576, Note_on_c, 0, 83, 87
2, 92576, Note_on_c, 0, 92, 109
2, 92660, Note_on_c, 0, 92, 0
2, 92668, Note_on_c, 0, 83, 0
2, 92680, Note_on_c, 0, 91, 113
2, 92680, Note_on_c, 0, 82, 75
2, 92756, Note_on_c, 0, 91, 0
2, 92788, Note_on_c, 0, 88, 100
2, 92788, Note_on_c, 0, 79, 63
2, 92828, Note_on_c, 0, 82, 0
2, 92860, Note_on_c, 0, 79, 0
2, 92860, Note_on_c, 0, 88, 0
2, 92896, Note_on_c, 0, 95, 106
2, 92896, Note_on_c, 0, 87, 77
2, 92980, Note_on_c, 0, 95, 0
2, 92996, Note_on_c, 0, 87, 0
2, 92996, Note_on_c, 0, 94, 102
2, 92996, Note_on_c, 0, 85, 77
2, 93084, Note_on_c, 0, 85, 0
2, 93084, Note_on_c, 0, 94, 0
2, 93108, Note_on_c, 0, 91, 106
2, 93108, Note_on_c, 0, 82, 72
2, 93176, Note_on_c, 0, 82, 0
2, 93200, Note_on_c, 0, 91, 0
2, 93316, Note_on_c, 0, 100, 118
2, 93316, Note_on_c, 0, 91, 101
2, 93352, Note_on_c, 0, 91, 0
2, 93384, Note_on_c, 0, 100, 0
2, 94504, Note_on_c, 0, 79, 90
2, 94504, Note_on_c, 0, 70, 57
2, 94588, Note_on_c, 0, 70, 0
2, 94656, Note_on_c, 0, 79, 0
2, 94872, Note_on_c, 0, 83, 94
2, 94884, Note_on_c, 0, 75, 72
2, 94928, Note_on_c, 0, 75, 0
2, 94952, Note_on_c, 0, 83, 0
2, 95340, Note_on_c, 0, 83, 86
2, 95340, Note_on_c, 0, 75, 64
2, 95508, Control_c, 0, 64, 88
2, 95520, Control_c, 0, 64, 0
2, 95664, Control_c, 0, 64, 72
2, 95680, Control_c, 0, 64, 127
2, 95712, Note_on_c, 0, 83, 0
2, 95728, Note_on_c, 0, 75, 0
2, 96128, Note_on_c, 0, 82, 66
2, 96128, Note_on_c, 0, 73, 57
2, 96184, Note_on_c, 0, 73, 0
2, 96272, Note_on_c, 0, 82, 0
2, 96328, Note_on_c, 0, 80, 74
2, 96328, Note_on_c, 0, 71, 56
2, 96420, Control_c, 0, 64, 104
2, 96436, Control_c, 0, 64, 0
2, 96496, Note_on_c, 0, 44, 58
2, 96560, Control_c, 0, 64, 104
2, 96576, Control_c, 0, 64, 127
2, 96616, Note_on_c, 0, 44, 0
2, 96660, Note_on_c, 0, 51, 62
2, 96768, Note_on_c, 0, 51, 0
2, 96816, Note_on_c, 0, 56, 63
2, 96964, Note_on_c, 0, 56, 0
2, 96984, Note_on_c, 0, 59, 63
2, 97108, Note_on_c, 0, 59, 0
2, 97148, Note_on_c, 0, 61, 66
2, 97280, Note_on_c, 0, 61, 0
2, 97312, Note_on_c, 0, 64, 70
2, 97376, Note_on_c, 0, 71, 0
2, 97392, Note_on_c, 0, 80, 0
2, 97432, Note_on_c, 0, 64, 0
2, 97476, Note_on_c, 0, 63, 71
2, 97624, Note_on_c, 0, 63, 0
2, 97636, Note_on_c, 0, 64, 77
2, 97684, Note_on_c, 0, 64, 0
2, 97800, Note_on_c, 0, 68, 78
2, 97900, Note_on_c, 0, 68, 0
2, 97956, Note_on_c, 0, 67, 75
2, 98052, Note_on_c, 0, 67, 0
2, 98120, Note_on_c, 0, 68, 79
2, 98196, Note_on_c, 0, 68, 0
2, 98200, Note_on_c, 0, 59, 63
2, 98264, Note_on_c, 0, 63, 57
2, 98288, Note_on_c, 0, 59, 0
2, 98308, Note_on_c, 0, 69, 75
2, 98308, Control_c, 0, 64, 56
2, 98328, Control_c, 0, 64, 0
2, 98340, Note_on_c, 0, 63, 0
2, 98384, Note_on_c, 0, 73, 94
2, 98400, Note_on_c, 0, 69, 0
2, 98464, Control_c, 0, 64, 127
2, 98540, Note_on_c, 0, 42, 67
2, 98580, Note_on_c, 0, 73, 0
2, 98648, Note_on_c, 0, 42, 0
2, 98696, Note_on_c, 0, 51, 71
2, 98840, Note_on_c, 0, 51, 0
2, 98876, Note_on_c, 0, 57, 72
2, 98940, Note_on_c, 0, 57, 0
2, 99028, Note_on_c, 0, 80, 100
2, 99028, Note_on_c, 0, 68, 67
2, 99028, Note_on_c, 0, 59, 73
2, 99028, Note_on_c, 0, 77, 75
2, 99096, Note_on_c, 0, 59, 0
2, 99112, Note_on_c, 0, 68, 0
2, 99116, Note_on_c, 0, 77, 0
2, 99148, Note_on_c, 0, 80, 0
2, 99204, Note_on_c, 0, 81, 103
2, 99208, Note_on_c, 0, 69, 98
2, 99212, Note_on_c, 0, 78, 83
2, 99232, Note_on_c, 0, 63, 67
2, 99252, Note_on_c, 0, 69, 0
2, 99268, Note_on_c, 0, 81, 0
2, 99272, Note_on_c, 0, 78, 0
2, 99292, Note_on_c, 0, 63, 0
2, 99388, Note_on_c, 0, 85, 100
2, 99392, Note_on_c, 0, 81, 85
2, 99408, Note_on_c, 0, 73, 80
2, 99476, Note_on_c, 0, 81, 0
2, 99500, Note_on_c, 0, 85, 0
2, 99504, Note_on_c, 0, 73, 0
2, 99564, Control_c, 0, 64, 104
2, 99572, Note_on_c, 0, 80, 89
2, 99572, Note_on_c, 0, 83, 105
2, 99576, Note_on_c, 0, 71, 95
2, 99584, Control_c, 0, 64, 0
2, 99596, Note_on_c, 0, 35, 75
2, 99632, Note_on_c, 0, 71, 0
2, 99644, Control_c, 0, 64, 104
2, 99652, Note_on_c, 0, 83, 0
2, 99660, Control_c, 0, 64, 127
2, 99668, Note_on_c, 0, 35, 0
2, 99684, Note_on_c, 0, 80, 0
2, 99748, Note_on_c, 0, 51, 81
2, 99748, Note_on_c, 0, 81, 89
2, 99748, Note_on_c, 0, 73, 97
2, 99748, Note_on_c, 0, 85, 111
2, 99776, Note_on_c, 0, 51, 0
2, 99792, Note_on_c, 0, 73, 0
2, 99804, Note_on_c, 0, 81, 0
2, 99824, Note_on_c, 0, 85, 0
2, 99944, Note_on_c, 0, 88, 115
2, 99948, Note_on_c, 0, 76, 102
2, 99956, Note_on_c, 0, 85, 86
2, 99980, Note_on_c, 0, 54, 44
2, 100004, Note_on_c, 0, 76, 0
2, 100016, Note_on_c, 0, 54, 0
2, 100068, Note_on_c, 0, 88, 0
2, 100092, Note_on_c, 0, 85, 0
2, 100164, Note_on_c, 0, 87, 106
2, 100168, Note_on_c, 0, 59, 64
2, 100172, Note_on_c, 0, 57, 43
2, 100172, Note_on_c, 0, 75, 103
2, 100176, Note_on_c, 0, 63, 73
2, 100184, Note_on_c, 0, 83, 80
2, 100212, Note_on_c, 0, 83, 0
2, 100300, Note_on_c, 0, 75, 0
2, 100304, Note_on_c, 0, 57, 0
2, 100348, Note_on_c, 0, 87, 0
2, 100404, Note_on_c, 0, 88, 120
2, 100408, Note_on_c, 0, 76, 105
2, 100408, Note_on_c, 0, 85, 71
2, 100412, Note_on_c, 0, 69, 77
2, 100464, Note_on_c, 0, 69, 0
2, 100468, Note_on_c, 0, 76, 0
2, 100484, Note_on_c, 0, 63, 0
2, 100492, Note_on_c, 0, 85, 0
2, 100500, Note_on_c, 0, 59, 0
2, 100508, Note_on_c, 0, 88, 0
2, 100760, Control_c, 0, 64, 72
2, 100776, Control_c, 0, 64, 0
2, 100784, Note_on_c, 0, 92, 124
2, 100796, Note_on_c, 0, 80, 110
2, 100808, Note_on_c, 0, 83, 93
2, 100812, Note_on_c, 0, 40, 83
2, 100812, Note_on_c, 0, 28, 92
2, 100812, Note_on_c, 0, 88, 62
2, 100868, Control_c, 0, 64, 127
2, 100876, Note_on_c, 0, 88, 0
2, 100876, Note_on_c, 0, 28, 0
2, 100880, Note_on_c, 0, 40, 0
2, 101072, Note_on_c, 0, 56, 66
2, 101072, Note_on_c, 0, 47, 59
2, 101148, Note_on_c, 0, 47, 0
2, 101196, Note_on_c, 0, 56, 0
2, 101252, Note_on_c, 0, 52, 56
2, 101252, Note_on_c, 0, 59, 73
2, 101296, Note_on_c, 0, 59, 0
2, 101328, Note_on_c, 0, 52, 0
2, 101412, Note_on_c, 0, 59, 77
2, 101412, Note_on_c, 0, 52, 71
2, 101484, Note_on_c, 0, 52, 0
2, 101516, Note_on_c, 0, 59, 0
2, 101592, Note_on_c, 0, 64, 83
2, 101592, Note_on_c, 0, 56, 60
2, 101644, Note_on_c, 0, 56, 0
2, 101652, Note_on_c, 0, 64, 0
2, 101684, Note_on_c, 0, 92, 0
2, 101696, Note_on_c, 0, 80, 0
2, 101764, Note_on_c, 0, 64, 88
2, 101764, Note_on_c, 0, 56, 59
2, 101832, Note_on_c, 0, 83, 0
2, 101836, Note_on_c, 0, 56, 0
2, 101888, Note_on_c, 0, 64, 0
2, 101928, Note_on_c, 0, 92, 117
2, 101936, Note_on_c, 0, 80, 110
2, 101940, Note_on_c, 0, 68, 77
2, 101940, Note_on_c, 0, 59, 72
2, 102056, Note_on_c, 0, 68, 0
2, 102060, Note_on_c, 0, 59, 0
2, 102108, Note_on_c, 0, 64, 82
2, 102108, Note_on_c, 0, 56, 71
2, 102148, Note_on_c, 0, 64, 0
2, 102168, Note_on_c, 0, 56, 0
2, 102288, Note_on_c, 0, 56, 79
2, 102288, Note_on_c, 0, 64, 67
2, 102336, Note_on_c, 0, 92, 0
2, 102368, Note_on_c, 0, 80, 0
2, 102368, Note_on_c, 0, 64, 0
2, 102388, Note_on_c, 0, 56, 0
2, 102456, Note_on_c, 0, 59, 77
2, 102460, Note_on_c, 0, 92, 120
2, 102460, Note_on_c, 0, 80, 111
2, 102460, Note_on_c, 0, 52, 73
2, 102496, Note_on_c, 0, 59, 0
2, 102524, Note_on_c, 0, 52, 0
2, 102648, Note_on_c, 0, 59, 73
2, 102652, Note_on_c, 0, 52, 65
2, 102736, Note_on_c, 0, 59, 0
2, 102796, Note_on_c, 0, 52, 0
2, 102796, Note_on_c, 0, 92, 0
2, 102812, Note_on_c, 0, 56, 78
2, 102812, Note_on_c, 0, 47, 70
2, 102824, Note_on_c, 0, 80, 0
2, 102872, Note_on_c, 0, 56, 0
2, 102880, Note_on_c, 0, 47, 0
2, 103084, Control_c, 0, 64, 104
2, 103100, Note_on_c, 0, 92, 127
2, 103100, Control_c, 0, 64, 0
2, 103108, Note_on_c, 0, 80, 104
2, 103116, Note_on_c, 0, 88, 96
2, 103120, Note_on_c, 0, 84, 86
2, 103148, Note_on_c, 0, 36, 82
2, 103148, Note_on_c, 0, 24, 80
2, 103192, Control_c, 0, 64, 127
2, 103276, Note_on_c, 0, 24, 0
2, 103276, Note_on_c, 0, 36, 0
2, 103380, Note_on_c, 0, 56, 88
2, 103384, Note_on_c, 0, 48, 94
2, 103456, Note_on_c, 0, 48, 0
2, 103496, Note_on_c, 0, 56, 0
2, 103548, Note_on_c, 0, 52, 71
2, 103556, Note_on_c, 0, 60, 75
2, 103568, Note_on_c, 0, 52, 0
2, 103616, Note_on_c, 0, 60, 0
2, 103668, Note_on_c, 0, 92, 0
2, 103696, Note_on_c, 0, 80, 0
2, 103712, Note_on_c, 0, 88, 0
2, 103716, Note_on_c, 0, 52, 65
2, 103724, Note_on_c, 0, 60, 74
2, 103756, Note_on_c, 0, 52, 0
2, 103792, Note_on_c, 0, 60, 0
2, 103836, Note_on_c, 0, 84, 0
2, 103868, Note_on_c, 0, 90, 103
2, 103876, Note_on_c, 0, 78, 96
2, 103880, Note_on_c, 0, 56, 69
2, 103896, Note_on_c, 0, 64, 75
2, 103936, Note_on_c, 0, 56, 0
2, 103948, Note_on_c, 0, 64, 0
2, 104000, Note_on_c, 0, 78, 0
2, 104020, Note_on_c, 0, 90, 0
2, 104060, Note_on_c, 0, 56, 70
2, 104068, Note_on_c, 0, 64, 80
2, 104168, Note_on_c, 0, 56, 0
2, 104176, Note_on_c, 0, 88, 101
2, 104184, Note_on_c, 0, 76, 88
2, 104200, Note_on_c, 0, 64, 0
2, 104224, Note_on_c, 0, 88, 0
2, 104232, Note_on_c, 0, 76, 0
2, 104284, Note_on_c, 0, 68, 79
2, 104288, Note_on_c, 0, 88, 100
2, 104292, Note_on_c, 0, 76, 97
2, 104296, Note_on_c, 0, 60, 75
2, 104380, Note_on_c, 0, 68, 0
2, 104392, Note_on_c, 0, 60, 0
2, 104484, Note_on_c, 0, 64, 80
2, 104484, Note_on_c, 0, 56, 60
2, 104528, Note_on_c, 0, 64, 0
2, 104540, Note_on_c, 0, 56, 0
2, 104672, Note_on_c, 0, 64, 74
2, 104672, Note_on_c, 0, 56, 72
2, 104696, Note_on_c, 0, 88, 0
2, 104720, Note_on_c, 0, 76, 0
2, 104728, Note_on_c, 0, 64, 0
2, 104752, Note_on_c, 0, 56, 0
2, 104864, Note_on_c, 0, 52, 51
2, 104864, Note_on_c, 0, 60, 77
2, 104904, Note_on_c, 0, 52, 0
2, 104920, Note_on_c, 0, 60, 0
2, 105056, Note_on_c, 0, 60, 71
2, 105056, Note_on_c, 0, 52, 71
2, 105124, Note_on_c, 0, 60, 0
2, 105152, Note_on_c, 0, 52, 0
2, 105256, Note_on_c, 0, 48, 62
2, 105268, Note_on_c, 0, 56, 60
2, 105284, Note_on_c, 0, 48, 0
2, 105332, Note_on_c, 0, 56, 0
2, 105372, Note_on_c, 0, 64, 80
2, 105440, Note_on_c, 0, 64, 0
2, 105452, Note_on_c, 0, 56, 67
2, 105524, Note_on_c, 0, 61, 60
2, 105540, Note_on_c, 0, 56, 0
2, 105560, Note_on_c, 0, 25, 65
2, 105564, Note_on_c, 0, 37, 54
2, 105576, Note_on_c, 0, 64, 96
2, 105584, Note_on_c, 0, 61, 0
2, 105620, Control_c, 0, 64, 56
2, 105628, Control_c, 0, 64, 127
2, 105664, Note_on_c, 0, 25, 0
2, 105664, Note_on_c, 0, 37, 0
2, 105668, Note_on_c, 0, 64, 0
2, 105680, Note_on_c, 0, 66, 71
2, 105760, Note_on_c, 0, 64, 80
2, 105768, Note_on_c, 0, 66, 0
2, 105856, Note_on_c, 0, 64, 0
2, 105860, Note_on_c, 0, 63, 83
2, 105880, Note_on_c, 0, 56, 64
2, 105892, Note_on_c, 0, 49, 63
2, 105916, Note_on_c, 0, 63, 0
2, 105948, Note_on_c, 0, 64, 82
2, 106012, Note_on_c, 0, 49, 0
2, 106024, Note_on_c, 0, 64, 0
2, 106044, Note_on_c, 0, 56, 0
2, 106048, Note_on_c, 0, 68, 90
2, 106116, Note_on_c, 0, 52, 62
2, 106124, Note_on_c, 0, 61, 64
2, 106128, Note_on_c, 0, 68, 0
2, 106140, Note_on_c, 0, 73, 90
2, 106164, Note_on_c, 0, 52, 0
2, 106192, Note_on_c, 0, 61, 0
2, 106216, Note_on_c, 0, 75, 88
2, 106248, Note_on_c, 0, 73, 0
2, 106260, Note_on_c, 0, 75, 0
2, 106296, Note_on_c, 0, 76, 100
2, 106364, Note_on_c, 0, 76, 0
2, 106388, Note_on_c, 0, 80, 97
2, 106412, Note_on_c, 0, 64, 80
2, 106424, Note_on_c, 0, 56, 57
2, 106480, Note_on_c, 0, 85, 90
2, 106500, Note_on_c, 0, 80, 0
2, 106556, Note_on_c, 0, 87, 89
2, 106584, Note_on_c, 0, 64, 0
2, 106588, Note_on_c, 0, 85, 0
2, 106600, Note_on_c, 0, 87, 0
2, 106628, Note_on_c, 0, 56, 0
2, 106640, Note_on_c, 0, 88, 102
2, 106696, Note_on_c, 0, 88, 0
2, 106736, Note_on_c, 0, 92, 109
2, 106792, Note_on_c, 0, 92, 0
2, 106820, Note_on_c, 0, 97, 96
2, 106884, Note_on_c, 0, 97, 0
2, 106912, Note_on_c, 0, 99, 103
2, 106984, Note_on_c, 0, 99, 0
2, 106996, Note_on_c, 0, 100, 110
2, 107076, Note_on_c, 0, 96, 110
2, 107100, Note_on_c, 0, 100, 0
2, 107160, Control_c, 0, 64, 72
2, 107172, Note_on_c, 0, 97, 101
2, 107172, Control_c, 0, 64, 40
2, 107176, Note_on_c, 0, 40, 89
2, 107196, Note_on_c, 0, 96, 0
2, 107204, Control_c, 0, 64, 127
2, 107216, Note_on_c, 0, 40, 0
2, 107252, Note_on_c, 0, 97, 0
2, 107264, Note_on_c, 0, 91, 81
2, 107304, Note_on_c, 0, 91, 0
2, 107344, Note_on_c, 0, 92, 101
2, 107404, Note_on_c, 0, 92, 0
2, 107444, Note_on_c, 0, 87, 92
2, 107448, Note_on_c, 0, 61, 75
2, 107452, Note_on_c, 0, 52, 79
2, 107492, Note_on_c, 0, 87, 0
2, 107528, Note_on_c, 0, 88, 102
2, 107600, Note_on_c, 0, 88, 0
2, 107616, Note_on_c, 0, 84, 101
2, 107628, Note_on_c, 0, 52, 0
2, 107700, Note_on_c, 0, 85, 97
2, 107700, Note_on_c, 0, 56, 65
2, 107716, Note_on_c, 0, 84, 0
2, 107720, Note_on_c, 0, 64, 75
2, 107748, Note_on_c, 0, 61, 0
2, 107748, Note_on_c, 0, 56, 0
2, 107776, Note_on_c, 0, 85, 0
2, 107788, Note_on_c, 0, 79, 79
2, 107820, Note_on_c, 0, 79, 0
2, 107860, Note_on_c, 0, 64, 0
2, 107868, Note_on_c, 0, 80, 97
2, 107928, Note_on_c, 0, 80, 0
2, 107952, Note_on_c, 0, 68, 79
2, 107956, Note_on_c, 0, 61, 66
2, 107960, Note_on_c, 0, 75, 93
2, 108000, Note_on_c, 0, 68, 0
2, 108008, Note_on_c, 0, 61, 0
2, 108020, Note_on_c, 0, 75, 0
2, 108052, Note_on_c, 0, 76, 96
2, 108124, Note_on_c, 0, 76, 0
2, 108140, Note_on_c, 0, 72, 94
2, 108208, Note_on_c, 0, 72, 0
2, 108220, Note_on_c, 0, 73, 86
2, 108284, Note_on_c, 0, 73, 0
2, 108308, Note_on_c, 0, 67, 87
2, 108388, Note_on_c, 0, 68, 95
2, 108400, Note_on_c, 0, 67, 0
2, 108472, Note_on_c, 0, 73, 85
2, 108484, Note_on_c, 0, 68, 0
2, 108516, Note_on_c, 0, 73, 0
2, 108556, Note_on_c, 0, 76, 93
2, 108616, Note_on_c, 0, 76, 0
2, 108644, Note_on_c, 0, 80, 98
2, 108724, Note_on_c, 0, 80, 0
2, 108740, Note_on_c, 0, 88, 100
2, 108828, Note_on_c, 0, 88, 0
2, 108832, Note_on_c, 0, 79, 98
2, 108904, Note_on_c, 0, 79, 0
2, 108932, Note_on_c, 0, 80, 103
2, 108988, Note_on_c, 0, 80, 0
2, 109020, Note_on_c, 0, 80, 105
2, 109080, Note_on_c, 0, 80, 0
2, 109164, Note_on_c, 0, 87, 113
2, 109388, Note_on_c, 0, 85, 100
2, 109412, Note_on_c, 0, 87, 0
2, 109472, Note_on_c, 0, 85, 0
2, 109784, Note_on_c, 0, 83, 98
2, 109920, Control_c, 0, 64, 56
2, 109932, Control_c, 0, 64, 0
2, 109948, Note_on_c, 0, 83, 0
2, 109960, Note_on_c, 0, 69, 75
2, 109988, Control_c, 0, 64, 72
2, 110000, Control_c, 0, 64, 127
2, 110004, Note_on_c, 0, 73, 57
2, 110004, Note_on_c, 0, 42, 66
2, 110032, Note_on_c, 0, 78, 85
2, 110040, Note_on_c, 0, 69, 0
2, 110060, Note_on_c, 0, 73, 0
2, 110092, Note_on_c, 0, 78, 0
2, 110092, Note_on_c, 0, 83, 106
2, 110264, Note_on_c, 0, 42, 0
2, 110264, Note_on_c, 0, 49, 71
2, 110384, Note_on_c, 0, 83, 0
2, 110400, Note_on_c, 0, 49, 0
2, 110412, Note_on_c, 0, 82, 92
2, 110432, Note_on_c, 0, 54, 58
2, 110560, Note_on_c, 0, 54, 0
2, 110568, Note_on_c, 0, 82, 0
2, 110572, Note_on_c, 0, 81, 100
2, 110592, Note_on_c, 0, 57, 69
2, 110696, Note_on_c, 0, 57, 0
2, 110724, Note_on_c, 0, 61, 70
2, 110844, Note_on_c, 0, 61, 0
2, 110864, Note_on_c, 0, 66, 75
2, 111004, Note_on_c, 0, 66, 0
2, 111016, Note_on_c, 0, 69, 81
2, 111164, Note_on_c, 0, 66, 73
2, 111192, Note_on_c, 0, 69, 0
2, 111312, Note_on_c, 0, 61, 66
2, 111340, Note_on_c, 0, 66, 0
2, 111388, Note_on_c, 0, 61, 0
2, 111480, Note_on_c, 0, 57, 75
2, 111628, Note_on_c, 0, 57, 0
2, 111628, Note_on_c, 0, 54, 71
2, 111688, Note_on_c, 0, 81, 0
2, 111792, Note_on_c, 0, 49, 69
2, 111820, Note_on_c, 0, 54, 0
2, 111856, Note_on_c, 0, 80, 117
2, 111860, Note_on_c, 0, 68, 94
2, 111864, Note_on_c, 0, 49, 0
2, 111940, Note_on_c, 0, 80, 0
2, 111956, Note_on_c, 0, 68, 0
2, 112076, Control_c, 0, 64, 24
2, 112088, Control_c, 0, 64, 0
2, 112096, Note_on_c, 0, 78, 124
2, 112096, Note_on_c, 0, 66, 104
2, 112112, Note_on_c, 0, 38, 87
2, 112116, Note_on_c, 0, 26, 82
2, 112144, Control_c, 0, 64, 104
2, 112156, Control_c, 0, 64, 127
2, 112180, Note_on_c, 0, 38, 0
2, 112188, Note_on_c, 0, 26, 0
2, 112308, Note_on_c, 0, 54, 66
2, 112340, Note_on_c, 0, 45, 70
2, 112344, Note_on_c, 0, 66, 0
2, 112404, Note_on_c, 0, 45, 0
2, 112428, Note_on_c, 0, 78, 0
2, 112440, Note_on_c, 0, 54, 0
2, 112496, Note_on_c, 0, 57, 80
2, 112496, Note_on_c, 0, 50, 67
2, 112532, Note_on_c, 0, 50, 0
2, 112540, Note_on_c, 0, 57, 0
2, 112660, Note_on_c, 0, 90, 115
2, 112664, Note_on_c, 0, 78, 103
2, 112676, Note_on_c, 0, 57, 78
2, 112676, Note_on_c, 0, 50, 70
2, 112772, Note_on_c, 0, 50, 0
2, 112796, Note_on_c, 0, 57, 0
2, 112812, Note_on_c, 0, 54, 51
2, 112828, Note_on_c, 0, 62, 75
2, 112848, Note_on_c, 0, 54, 0
2, 112884, Note_on_c, 0, 62, 0
2, 112996, Note_on_c, 0, 62, 72
2, 113108, Note_on_c, 0, 62, 0
2, 113156, Note_on_c, 0, 66, 71
2, 113164, Note_on_c, 0, 57, 65
2, 113244, Note_on_c, 0, 78, 0
2, 113260, Note_on_c, 0, 90, 0
2, 113284, Note_on_c, 0, 57, 0
2, 113288, Note_on_c, 0, 66, 0
2, 113304, Note_on_c, 0, 62, 62
2, 113316, Note_on_c, 0, 90, 118
2, 113316, Note_on_c, 0, 54, 62
2, 113320, Note_on_c, 0, 78, 102
2, 113328, Note_on_c, 0, 62, 0
2, 113368, Note_on_c, 0, 54, 0
2, 113388, Note_on_c, 0, 78, 0
2, 113408, Note_on_c, 0, 90, 0
2, 113464, Note_on_c, 0, 54, 73
2, 113464, Note_on_c, 0, 62, 72
2, 113484, Note_on_c, 0, 90, 106
2, 113488, Note_on_c, 0, 78, 105
2, 113536, Note_on_c, 0, 78, 0
2, 113556, Note_on_c, 0, 90, 0
2, 113612, Note_on_c, 0, 54, 0
2, 113620, Note_on_c, 0, 57, 63
2, 113628, Note_on_c, 0, 62, 0
2, 113628, Note_on_c, 0, 50, 71
2, 113636, Note_on_c, 0, 90, 106
2, 113640, Note_on_c, 0, 78, 106
2, 113660, Note_on_c, 0, 57, 0
2, 113684, Note_on_c, 0, 78, 0
2, 113688, Note_on_c, 0, 50, 0
2, 113700, Note_on_c, 0, 90, 0
2, 113760, Note_on_c, 0, 90, 115
2, 113764, Note_on_c, 0, 78, 104
2, 113812, Note_on_c, 0, 78, 0
2, 113832, Note_on_c, 0, 90, 0
2, 113844, Note_on_c, 0, 50, 78
2, 113852, Note_on_c, 0, 57, 80
2, 113896, Note_on_c, 0, 90, 113
2, 113896, Note_on_c, 0, 78, 109
2, 113948, Note_on_c, 0, 78, 0
2, 113956, Note_on_c, 0, 90, 0
2, 114020, Note_on_c, 0, 90, 118
2, 114020, Note_on_c, 0, 78, 115
2, 114064, Note_on_c, 0, 78, 0
2, 114088, Note_on_c, 0, 90, 0
2, 114088, Note_on_c, 0, 57, 0
2, 114108, Note_on_c, 0, 54, 74
2, 114116, Note_on_c, 0, 45, 77
2, 114128, Note_on_c, 0, 50, 0
2, 114144, Note_on_c, 0, 90, 118
2, 114144, Note_on_c, 0, 78, 111
2, 114188, Note_on_c, 0, 78, 0
2, 114188, Note_on_c, 0, 54, 0
2, 114208, Note_on_c, 0, 90, 0
2, 114212, Note_on_c, 0, 45, 0
2, 114264, Note_on_c, 0, 90, 124
2, 114264, Note_on_c, 0, 78, 113
2, 114352, Note_on_c, 0, 78, 0
2, 114368, Note_on_c, 0, 90, 0
2, 114448, Control_c, 0, 64, 0
2, 114452, Note_on_c, 0, 90, 126
2, 114456, Note_on_c, 0, 78, 101
2, 114456, Note_on_c, 0, 86, 102
2, 114460, Note_on_c, 0, 82, 90
2, 114460, Note_on_c, 0, 22, 94
2, 114464, Note_on_c, 0, 34, 97
2, 114500, Note_on_c, 0, 34, 0
2, 114504, Note_on_c, 0, 22, 0
2, 114504, Control_c, 0, 64, 88
2, 114516, Control_c, 0, 64, 127
2, 114644, Note_on_c, 0, 54, 49
2, 114656, Note_on_c, 0, 46, 35
2, 114732, Note_on_c, 0, 46, 0
2, 114776, Note_on_c, 0, 54, 0
2, 114796, Note_on_c, 0, 58, 60
2, 114804, Note_on_c, 0, 50, 62
2, 114824, Note_on_c, 0, 50, 0
2, 114864, Note_on_c, 0, 58, 0
2, 114912, Note_on_c, 0, 86, 0
2, 114940, Note_on_c, 0, 58, 55
2, 114964, Note_on_c, 0, 50, 59
2, 114980, Note_on_c, 0, 90, 0
2, 114984, Note_on_c, 0, 78, 0
2, 115044, Note_on_c, 0, 50, 0
2, 115096, Note_on_c, 0, 82, 0
2, 115108, Note_on_c, 0, 54, 57
2, 115116, Note_on_c, 0, 58, 0
2, 115124, Note_on_c, 0, 76, 89
2, 115124, Note_on_c, 0, 62, 58
2, 115124, Note_on_c, 0, 88, 110
2, 115152, Note_on_c, 0, 54, 0
2, 115212, Note_on_c, 0, 62, 0
2, 115260, Note_on_c, 0, 88, 0
2, 115276, Note_on_c, 0, 76, 0
2, 115300, Note_on_c, 0, 62, 83
2, 115308, Note_on_c, 0, 54, 59
2, 115388, Note_on_c, 0, 86, 104
2, 115392, Note_on_c, 0, 74, 78
2, 115412, Note_on_c, 0, 54, 0
2, 115436, Note_on_c, 0, 74, 0
2, 115444, Note_on_c, 0, 86, 0
2, 115460, Note_on_c, 0, 62, 0
2, 115496, Note_on_c, 0, 86, 109
2, 115500, Note_on_c, 0, 74, 83
2, 115508, Note_on_c, 0, 58, 55
2, 115508, Note_on_c, 0, 66, 57
2, 115644, Note_on_c, 0, 66, 0
2, 115672, Note_on_c, 0, 62, 64
2, 115684, Note_on_c, 0, 58, 0
2, 115688, Note_on_c, 0, 54, 48
2, 115744, Note_on_c, 0, 62, 0
2, 115752, Note_on_c, 0, 54, 0
2, 115848, Note_on_c, 0, 62, 70
2, 115852, Note_on_c, 0, 54, 71
2, 115940, Note_on_c, 0, 62, 0
2, 115972, Note_on_c, 0, 54, 0
2, 116012, Note_on_c, 0, 58, 67
2, 116024, Note_on_c, 0, 50, 71
2, 116064, Note_on_c, 0, 50, 0
2, 116072, Note_on_c, 0, 58, 0
2, 116116, Note_on_c, 0, 86, 0
2, 116152, Note_on_c, 0, 74, 0
2, 116208, Note_on_c, 0, 58, 65
2, 116212, Note_on_c, 0, 50, 67
2, 116300, Note_on_c, 0, 58, 0
2, 116304, Note_on_c, 0, 50, 0
2, 116404, Note_on_c, 0, 54, 65
2, 116404, Note_on_c, 0, 46, 48
2, 116444, Note_on_c, 0, 54, 0
2, 116464, Note_on_c, 0, 46, 0
2, 116584, Note_on_c, 0, 62, 93
2, 116676, Note_on_c, 0, 62, 0
2, 116724, Control_c, 0, 64, 104
2, 116736, Control_c, 0, 64, 0
2, 116744, Note_on_c, 0, 62, 94
2, 116752, Note_on_c, 0, 59, 64
2, 116756, Note_on_c, 0, 31, 72
2, 116808, Note_on_c, 0, 31, 0
2, 116808, Control_c, 0, 64, 127
2, 116828, Note_on_c, 0, 59, 0
2, 116912, Note_on_c, 0, 62, 0
2, 116956, Note_on_c, 0, 71, 97
2, 116956, Note_on_c, 0, 67, 66
2, 116956, Note_on_c, 0, 47, 58
2, 116956, Note_on_c, 0, 55, 55
2, 116980, Note_on_c, 0, 67, 0
2, 117032, Note_on_c, 0, 71, 0
2, 117044, Note_on_c, 0, 55, 0
2, 117124, Note_on_c, 0, 74, 75
2, 117124, Note_on_c, 0, 71, 92
2, 117124, Note_on_c, 0, 59, 62
2, 117124, Note_on_c, 0, 50, 59
2, 117160, Note_on_c, 0, 47, 0
2, 117184, Note_on_c, 0, 71, 0
2, 117208, Note_on_c, 0, 59, 0
2, 117224, Note_on_c, 0, 74, 0
2, 117252, Note_on_c, 0, 50, 0
2, 117288, Note_on_c, 0, 83, 101
2, 117296, Note_on_c, 0, 79, 85
2, 117308, Note_on_c, 0, 55, 56
2, 117312, Note_on_c, 0, 62, 60
2, 117332, Note_on_c, 0, 79, 0
2, 117348, Note_on_c, 0, 83, 0
2, 117460, Note_on_c, 0, 86, 92
2, 117460, Note_on_c, 0, 83, 94
2, 117520, Note_on_c, 0, 55, 0
2, 117536, Note_on_c, 0, 83, 0
2, 117560, Note_on_c, 0, 86, 0
2, 117560, Note_on_c, 0, 62, 0
2, 117620, Note_on_c, 0, 95, 95
2, 117620, Note_on_c, 0, 91, 85
2, 117680, Note_on_c, 0, 95, 0
2, 117684, Note_on_c, 0, 91, 0
2, 117852, Note_on_c, 0, 96, 98
2, 117852, Note_on_c, 0, 92, 80
2, 117856, Note_on_c, 0, 35, 72
2, 117900, Control_c, 0, 64, 56
2, 117912, Control_c, 0, 64, 72
2, 117920, Control_c, 0, 64, 104
2, 117932, Control_c, 0, 64, 127
2, 117940, Note_on_c, 0, 96, 0
2, 117944, Note_on_c, 0, 92, 0
2, 117956, Note_on_c, 0, 97, 79
2, 117956, Note_on_c, 0, 93, 71
2, 118024, Note_on_c, 0, 93, 0
2, 118048, Note_on_c, 0, 97, 0
2, 118056, Note_on_c, 0, 35, 0
2, 118072, Note_on_c, 0, 98, 93
2, 118072, Note_on_c, 0, 94, 72
2, 118132, Note_on_c, 0, 94, 0
2, 118136, Note_on_c, 0, 98, 0
2, 118176, Note_on_c, 0, 99, 98
2, 118176, Note_on_c, 0, 95, 82
2, 118240, Note_on_c, 0, 95, 0
2, 118240, Note_on_c, 0, 99, 0
2, 118276, Note_on_c, 0, 98, 96
2, 118276, Note_on_c, 0, 94, 77
2, 118320, Note_on_c, 0, 94, 0
2, 118336, Note_on_c, 0, 98, 0
2, 118372, Note_on_c, 0, 97, 94
2, 118372, Note_on_c, 0, 93, 81
2, 118384, Note_on_c, 0, 47, 70
2, 118428, Note_on_c, 0, 54, 67
2, 118432, Note_on_c, 0, 47, 0
2, 118436, Note_on_c, 0, 93, 0
2, 118452, Note_on_c, 0, 97, 0
2, 118460, Note_on_c, 0, 57, 69
2, 118496, Note_on_c, 0, 96, 100
2, 118496, Note_on_c, 0, 92, 83
2, 118500, Note_on_c, 0, 63, 83
2, 118520, Note_on_c, 0, 54, 0
2, 118548, Note_on_c, 0, 57, 0
2, 118560, Note_on_c, 0, 63, 0
2, 118564, Note_on_c, 0, 92, 0
2, 118572, Note_on_c, 0, 96, 0
2, 118596, Note_on_c, 0, 95, 94
2, 118596, Note_on_c, 0, 92, 81
2, 118644, Note_on_c, 0, 92, 0
2, 118664, Note_on_c, 0, 95, 0
2, 118696, Note_on_c, 0, 94, 103
2, 118696, Note_on_c, 0, 91, 65
2, 118736, Note_on_c, 0, 91, 0
2, 118764, Note_on_c, 0, 94, 0
2, 118800, Note_on_c, 0, 93, 110
2, 118800, Note_on_c, 0, 89, 69
2, 118860, Note_on_c, 0, 93, 0
2, 118880, Note_on_c, 0, 89, 0
2, 118896, Note_on_c, 0, 92, 92
2, 118896, Note_on_c, 0, 88, 77
2, 118948, Note_on_c, 0, 88, 0
2, 118964, Note_on_c, 0, 92, 0
2, 119000, Note_on_c, 0, 91, 94
2, 119000, Note_on_c, 0, 87, 88
2, 119056, Note_on_c, 0, 91, 0
2, 119064, Note_on_c, 0, 87, 0
2, 119096, Note_on_c, 0, 90, 92
2, 119096, Note_on_c, 0, 86, 80
2, 119148, Note_on_c, 0, 86, 0
2, 119164, Note_on_c, 0, 90, 0
2, 119200, Note_on_c, 0, 89, 97
2, 119200, Note_on_c, 0, 85, 81
2, 119256, Note_on_c, 0, 89, 0
2, 119260, Note_on_c, 0, 85, 0
2, 119292, Note_on_c, 0, 88, 92
2, 119292, Note_on_c, 0, 84, 79
2, 119336, Note_on_c, 0, 84, 0
2, 119364, Note_on_c, 0, 88, 0
2, 119392, Note_on_c, 0, 87, 90
2, 119392, Note_on_c, 0, 83, 80
2, 119448, Note_on_c, 0, 83, 0
2, 119452, Note_on_c, 0, 87, 0
2, 119496, Note_on_c, 0, 86, 96
2, 119500, Note_on_c, 0, 82, 81
2, 119536, Note_on_c, 0, 86, 0
2, 119544, Note_on_c, 0, 82, 0
2, 119592, Note_on_c, 0, 85, 95
2, 119592, Note_on_c, 0, 81, 72
2, 119616, Note_on_c, 0, 81, 0
2, 119652, Note_on_c, 0, 85, 0
2, 119704, Note_on_c, 0, 84, 89
2, 119704, Note_on_c, 0, 80, 88
2, 119772, Note_on_c, 0, 80, 0
2, 119776, Note_on_c, 0, 84, 0
2, 119804, Note_on_c, 0, 85, 81
2, 119816, Note_on_c, 0, 81, 58
2, 119852, Note_on_c, 0, 81, 0
2, 119868, Note_on_c, 0, 85, 0
2, 119876, Note_on_c, 0, 79, 77
2, 119876, Note_on_c, 0, 84, 78
2, 119924, Note_on_c, 0, 79, 0
2, 119932, Note_on_c, 0, 84, 0
2, 119948, Note_on_c, 0, 85, 81
2, 119960, Note_on_c, 0, 81, 58
2, 119996, Note_on_c, 0, 81, 0
2, 120016, Note_on_c, 0, 85, 0
2, 120024, Note_on_c, 0, 78, 78
2, 120028, Note_on_c, 0, 84, 80
2, 120088, Note_on_c, 0, 84, 0
2, 120096, Note_on_c, 0, 78, 0
2, 120100, Note_on_c, 0, 85, 86
2, 120104, Note_on_c, 0, 81, 66
2, 120164, Note_on_c, 0, 81, 0
2, 120168, Note_on_c, 0, 85, 0
2, 120172, Note_on_c, 0, 84, 77
2, 120176, Note_on_c, 0, 77, 86
2, 120252, Note_on_c, 0, 85, 87
2, 120260, Note_on_c, 0, 81, 62
2, 120268, Note_on_c, 0, 77, 0
2, 120268, Note_on_c, 0, 84, 0
2, 120312, Note_on_c, 0, 81, 0
2, 120324, Note_on_c, 0, 85, 0
2, 120332, Note_on_c, 0, 76, 93
2, 120336, Note_on_c, 0, 84, 81
2, 120360, Control_c, 0, 64, 88
2, 120372, Control_c, 0, 64, 72
2, 120396, Control_c, 0, 64, 127
2, 120412, Note_on_c, 0, 76, 0
2, 120416, Note_on_c, 0, 85, 82
2, 120420, Note_on_c, 0, 81, 63
2, 120424, Note_on_c, 0, 84, 0
2, 120480, Note_on_c, 0, 81, 0
2, 120484, Note_on_c, 0, 85, 0
2, 120484, Note_on_c, 0, 77, 82
2, 120488, Note_on_c, 0, 84, 73
2, 120560, Note_on_c, 0, 84, 0
2, 120564, Note_on_c, 0, 85, 88
2, 120568, Note_on_c, 0, 77, 0
2, 120568, Note_on_c, 0, 81, 71
2, 120624, Note_on_c, 0, 81, 0
2, 120636, Note_on_c, 0, 85, 0
2, 120644, Note_on_c, 0, 84, 80
2, 120648, Note_on_c, 0, 78, 73
2, 120712, Note_on_c, 0, 85, 89
2, 120716, Note_on_c, 0, 84, 0
2, 120720, Note_on_c, 0, 81, 71
2, 120724, Note_on_c, 0, 78, 0
2, 120776, Note_on_c, 0, 81, 0
2, 120784, Note_on_c, 0, 85, 0
2, 120796, Note_on_c, 0, 79, 88
2, 120796, Note_on_c, 0, 84, 85
2, 120864, Note_on_c, 0, 85, 96
2, 120868, Note_on_c, 0, 81, 78
2, 120876, Note_on_c, 0, 84, 0
2, 120880, Note_on_c, 0, 79, 0
2, 120932, Note_on_c, 0, 81, 0
2, 120948, Note_on_c, 0, 85, 0
2, 120952, Note_on_c, 0, 84, 96
2, 120952, Note_on_c, 0, 80, 95
2, 120968, Control_c, 0, 64, 104
2, 120980, Control_c, 0, 64, 56
2, 120992, Control_c, 0, 64, 24
2, 121000, Control_c, 0, 64, 40
2, 121012, Control_c, 0, 64, 72
2, 121024, Note_on_c, 0, 85, 89
2, 121024, Control_c, 0, 64, 127
2, 121028, Note_on_c, 0, 81, 77
2, 121040, Note_on_c, 0, 80, 0
2, 121048, Note_on_c, 0, 84, 0
2, 121080, Note_on_c, 0, 81, 0
2, 121096, Note_on_c, 0, 85, 0
2, 121112, Note_on_c, 0, 84, 74
2, 121112, Note_on_c, 0, 79, 79
2, 121172, Note_on_c, 0, 79, 0
2, 121172, Note_on_c, 0, 84, 0
2, 121176, Note_on_c, 0, 85, 92
2, 121184, Note_on_c, 0, 81, 73
2, 121240, Note_on_c, 0, 81, 0
2, 121248, Note_on_c, 0, 85, 0
2, 121260, Note_on_c, 0, 84, 80
2, 121264, Note_on_c, 0, 78, 77
2, 121328, Note_on_c, 0, 84, 0
2, 121328, Note_on_c, 0, 85, 89
2, 121332, Note_on_c, 0, 78, 0
2, 121336, Note_on_c, 0, 81, 72
2, 121392, Note_on_c, 0, 81, 0
2, 121400, Note_on_c, 0, 85, 0
2, 121404, Note_on_c, 0, 84, 80
2, 121408, Note_on_c, 0, 77, 85
2, 121472, Note_on_c, 0, 85, 90
2, 121476, Note_on_c, 0, 81, 72
2, 121480, Note_on_c, 0, 84, 0
2, 121488, Note_on_c, 0, 77, 0
2, 121536, Note_on_c, 0, 81, 0
2, 121548, Note_on_c, 0, 85, 0
2, 121560, Note_on_c, 0, 76, 86
2, 121560, Note_on_c, 0, 84, 74
2, 121628, Note_on_c, 0, 76, 0
2, 121632, Note_on_c, 0, 85, 92
2, 121636, Note_on_c, 0, 84, 0
2, 121636, Note_on_c, 0, 81, 74
2, 121692, Note_on_c, 0, 81, 0
2, 121700, Note_on_c, 0, 85, 0
2, 121712, Note_on_c, 0, 77, 88
2, 121712, Note_on_c, 0, 84, 85
2, 121780, Note_on_c, 0, 84, 0
2, 121784, Note_on_c, 0, 77, 0
2, 121788, Note_on_c, 0, 85, 92
2, 121796, Note_on_c, 0, 81, 73
2, 121852, Note_on_c, 0, 81, 0
2, 121864, Note_on_c, 0, 85, 0
2, 121868, Note_on_c, 0, 78, 73
2, 121868, Note_on_c, 0, 84, 87
2, 121928, Note_on_c, 0, 84, 0
2, 121944, Note_on_c, 0, 78, 0
2, 121952, Note_on_c, 0, 85, 87
2, 121960, Note_on_c, 0, 81, 72
2, 122004, Note_on_c, 0, 81, 0
2, 122016, Note_on_c, 0, 85, 0
2, 122020, Note_on_c, 0, 79, 80
2, 122020, Note_on_c, 0, 84, 81
2, 122076, Note_on_c, 0, 84, 0
2, 122092, Note_on_c, 0, 79, 0
2, 122104, Note_on_c, 0, 85, 88
2, 122112, Note_on_c, 0, 81, 71
2, 122152, Control_c, 0, 64, 56
2, 122164, Control_c, 0, 64, 24
2, 122168, Note_on_c, 0, 81, 0
2, 122176, Note_on_c, 0, 85, 0
2, 122176, Control_c, 0, 64, 0
2, 122180, Note_on_c, 0, 84, 81
2, 122180, Note_on_c, 0, 80, 74
2, 122196, Control_c, 0, 64, 40
2, 122208, Control_c, 0, 64, 88
2, 122216, Control_c, 0, 64, 127
2, 122240, Note_on_c, 0, 80, 0
2, 122244, Note_on_c, 0, 84, 0
2, 122260, Note_on_c, 0, 85, 89
2, 122268, Note_on_c, 0, 81, 66
2, 122316, Note_on_c, 0, 81, 0
2, 122324, Note_on_c, 0, 85, 0
2, 122336, Note_on_c, 0, 80, 65
2, 122340, Note_on_c, 0, 84, 69
2, 122388, Note_on_c, 0, 84, 0
2, 122392, Note_on_c, 0, 80, 0
2, 122412, Note_on_c, 0, 85, 87
2, 122416, Note_on_c, 0, 81, 71
2, 122476, Note_on_c, 0, 81, 0
2, 122480, Note_on_c, 0, 85, 0
2, 122492, Note_on_c, 0, 84, 75
2, 122496, Note_on_c, 0, 80, 69
2, 122548, Note_on_c, 0, 80, 0
2, 122548, Note_on_c, 0, 84, 0
2, 122568, Note_on_c, 0, 85, 95
2, 122572, Note_on_c, 0, 81, 77
2, 122628, Note_on_c, 0, 81, 0
2, 122640, Note_on_c, 0, 85, 0
2, 122648, Note_on_c, 0, 84, 80
2, 122648, Note_on_c, 0, 80, 77
2, 122692, Note_on_c, 0, 84, 0
2, 122696, Note_on_c, 0, 80, 0
2, 122716, Note_on_c, 0, 85, 93
2, 122720, Note_on_c, 0, 81, 78
2, 122784, Note_on_c, 0, 81, 0
2, 122788, Note_on_c, 0, 85, 0
2, 122792, Note_on_c, 0, 84, 95
2, 122792, Note_on_c, 0, 80, 83
2, 122844, Note_on_c, 0, 84, 0
2, 122848, Note_on_c, 0, 80, 0
2, 122872, Note_on_c, 0, 85, 100
2, 122872, Note_on_c, 0, 81, 87
2, 122932, Note_on_c, 0, 81, 0
2, 122936, Note_on_c, 0, 84, 98
2, 122940, Note_on_c, 0, 80, 85
2, 122944, Note_on_c, 0, 85, 0
2, 122992, Note_on_c, 0, 84, 0
2, 123000, Note_on_c, 0, 80, 0
2, 123016, Note_on_c, 0, 85, 104
2, 123020, Note_on_c, 0, 81, 94
2, 123084, Note_on_c, 0, 81, 0
2, 123092, Note_on_c, 0, 80, 88
2, 123092, Note_on_c, 0, 84, 102
2, 123096, Note_on_c, 0, 85, 0
2, 123124, Note_on_c, 0, 80, 0
2, 123160, Note_on_c, 0, 84, 0
2, 123168, Note_on_c, 0, 85, 106
2, 123176, Note_on_c, 0, 81, 85
2, 123236, Note_on_c, 0, 81, 0
2, 123240, Note_on_c, 0, 84, 100
2, 123244, Note_on_c, 0, 80, 87
2, 123248, Note_on_c, 0, 85, 0
2, 123308, Note_on_c, 0, 84, 0
2, 123312, Note_on_c, 0, 80, 0
2, 123324, Note_on_c, 0, 85, 102
2, 123328, Note_on_c, 0, 81, 94
2, 123400, Note_on_c, 0, 81, 0
2, 123400, Note_on_c, 0, 84, 96
2, 123404, Note_on_c, 0, 85, 0
2, 123404, Note_on_c, 0, 80, 86
2, 123468, Note_on_c, 0, 80, 0
2, 123468, Note_on_c, 0, 84, 0
2, 123488, Note_on_c, 0, 85, 102
2, 123488, Note_on_c, 0, 81, 93
2, 123560, Note_on_c, 0, 81, 0
2, 123568, Note_on_c, 0, 85, 0
2, 123572, Note_on_c, 0, 84, 97
2, 123572, Note_on_c, 0, 80, 85
2, 123632, Note_on_c, 0, 84, 0
2, 123636, Note_on_c, 0, 80, 0
2, 123652, Note_on_c, 0, 85, 98
2, 123652, Note_on_c, 0, 81, 88
2, 123724, Note_on_c, 0, 81, 0
2, 123732, Note_on_c, 0, 85, 0
2, 123736, Note_on_c, 0, 84, 94
2, 123736, Note_on_c, 0, 80, 81
2, 123796, Note_on_c, 0, 84, 0
2, 123804, Note_on_c, 0, 80, 0
2, 123824, Note_on_c, 0, 85, 96
2, 123824, Note_on_c, 0, 81, 85
2, 123892, Note_on_c, 0, 81, 0
2, 123900, Note_on_c, 0, 84, 89
2, 123904, Note_on_c, 0, 85, 0
2, 123908, Note_on_c, 0, 80, 79
2, 123968, Note_on_c, 0, 84, 0
2, 123972, Note_on_c, 0, 80, 0
2, 123996, Note_on_c, 0, 85, 97
2, 123996, Note_on_c, 0, 81, 86
2, 124080, Note_on_c, 0, 81, 0
2, 124084, Note_on_c, 0, 85, 0
2, 124088, Note_on_c, 0, 84, 100
2, 124088, Note_on_c, 0, 80, 88
2, 124140, Note_on_c, 0, 84, 0
2, 124144, Note_on_c, 0, 80, 0
2, 124268, Note_on_c, 0, 85, 92
2, 124284, Note_on_c, 0, 81, 78
2, 124468, Note_on_c, 0, 85, 0
2, 124476, Note_on_c, 0, 81, 0
2, 124496, Note_on_c, 0, 87, 98
2, 124512, Note_on_c, 0, 83, 77
2, 124516, Note_on_c, 0, 85, 31
2, 124532, Note_on_c, 0, 85, 0
2, 124556, Note_on_c, 0, 83, 0
2, 124732, Note_on_c, 0, 87, 0
2, 124744, Note_on_c, 0, 85, 90
2, 124760, Note_on_c, 0, 81, 69
2, 124892, Note_on_c, 0, 81, 0
2, 124912, Note_on_c, 0, 85, 0
2, 125312, Note_on_c, 0, 83, 86
2, 125312, Note_on_c, 0, 80, 71
2, 125352, Note_on_c, 0, 80, 0
2, 125368, Note_on_c, 0, 83, 0
2, 125444, Note_on_c, 0, 83, 87
2, 125448, Note_on_c, 0, 80, 66
2, 125476, Note_on_c, 0, 40, 51
2, 125480, Control_c, 0, 64, 40
2, 125492, Control_c, 0, 64, 0
2, 125576, Control_c, 0, 64, 104
2, 125592, Control_c, 0, 64, 127
2, 125636, Note_on_c, 0, 47, 50
2, 125652, Note_on_c, 0, 40, 0
2, 125740, Note_on_c, 0, 47, 0
2, 125784, Note_on_c, 0, 52, 47
2, 125884, Note_on_c, 0, 52, 0
2, 125904, Note_on_c, 0, 56, 63
2, 126004, Note_on_c, 0, 56, 0
2, 126036, Note_on_c, 0, 59, 65
2, 126040, Note_on_c, 0, 80, 0
2, 126140, Note_on_c, 0, 59, 0
2, 126164, Note_on_c, 0, 64, 78
2, 126308, Note_on_c, 0, 80, 94
2, 126324, Note_on_c, 0, 68, 73
2, 126328, Note_on_c, 0, 76, 66
2, 126332, Note_on_c, 0, 83, 0
2, 126360, Note_on_c, 0, 64, 0
2, 126440, Note_on_c, 0, 68, 0
2, 126476, Note_on_c, 0, 64, 63
2, 126596, Note_on_c, 0, 64, 0
2, 126612, Note_on_c, 0, 59, 71
2, 126756, Note_on_c, 0, 56, 60
2, 126772, Note_on_c, 0, 59, 0
2, 126824, Note_on_c, 0, 56, 0
2, 126908, Note_on_c, 0, 52, 65
2, 127044, Note_on_c, 0, 52, 0
2, 127088, Note_on_c, 0, 47, 59
2, 127104, Note_on_c, 0, 76, 0
2, 127132, Note_on_c, 0, 47, 0
2, 127168, Note_on_c, 0, 80, 0
2, 127348, Control_c, 0, 64, 104
2, 127360, Note_on_c, 0, 80, 111
2, 127360, Control_c, 0, 64, 24
2, 127364, Note_on_c, 0, 68, 88
2, 127368, Note_on_c, 0, 77, 97
2, 127368, Control_c, 0, 64, 0
2, 127372, Note_on_c, 0, 73, 83
2, 127380, Note_on_c, 0, 49, 81
2, 127384, Note_on_c, 0, 37, 74
2, 127436, Note_on_c, 0, 37, 0
2, 127436, Control_c, 0, 64, 88
2, 127444, Note_on_c, 0, 49, 0
2, 127444, Control_c, 0, 64, 127
2, 127564, Note_on_c, 0, 49, 64
2, 127568, Note_on_c, 0, 56, 70
2, 127628, Note_on_c, 0, 49, 0
2, 127672, Note_on_c, 0, 56, 0
2, 127684, Note_on_c, 0, 68, 0
2, 127712, Note_on_c, 0, 61, 60
2, 127724, Note_on_c, 0, 53, 58
2, 127744, Note_on_c, 0, 53, 0
2, 127780, Note_on_c, 0, 61, 0
2, 127848, Note_on_c, 0, 61, 72
2, 127848, Note_on_c, 0, 53, 62
2, 127920, Note_on_c, 0, 53, 0
2, 127924, Note_on_c, 0, 61, 0
2, 127996, Note_on_c, 0, 56, 80
2, 127996, Note_on_c, 0, 65, 82
2, 128020, Note_on_c, 0, 73, 0
2, 128048, Note_on_c, 0, 56, 0
2, 128052, Note_on_c, 0, 65, 0
2, 128076, Note_on_c, 0, 77, 0
2, 128108, Note_on_c, 0, 80, 0
2, 128144, Note_on_c, 0, 65, 85
2, 128148, Note_on_c, 0, 56, 70
2, 128208, Note_on_c, 0, 56, 0
2, 128232, Note_on_c, 0, 65, 0
2, 128296, Note_on_c, 0, 80, 109
2, 128300, Note_on_c, 0, 68, 70
2, 128300, Note_on_c, 0, 61, 69
2, 128308, Note_on_c, 0, 77, 92
2, 128312, Note_on_c, 0, 73, 77
2, 128404, Note_on_c, 0, 68, 0
2, 128416, Note_on_c, 0, 61, 0
2, 128448, Note_on_c, 0, 65, 64
2, 128452, Note_on_c, 0, 56, 63
2, 128468, Note_on_c, 0, 65, 0
2, 128496, Note_on_c, 0, 56, 0
2, 128576, Note_on_c, 0, 65, 80
2, 128580, Note_on_c, 0, 56, 80
2, 128588, Note_on_c, 0, 80, 0
2, 128604, Note_on_c, 0, 73, 0
2, 128608, Note_on_c, 0, 77, 0
2, 128644, Note_on_c, 0, 65, 0
2, 128652, Note_on_c, 0, 56, 0
2, 128716, Note_on_c, 0, 61, 64
2, 128724, Note_on_c, 0, 80, 112
2, 128724, Note_on_c, 0, 53, 55
2, 128728, Note_on_c, 0, 68, 79
2, 128736, Note_on_c, 0, 77, 86
2, 128736, Note_on_c, 0, 73, 71
2, 128776, Note_on_c, 0, 53, 0
2, 128776, Note_on_c, 0, 61, 0
2, 128840, Note_on_c, 0, 68, 0
2, 128876, Note_on_c, 0, 61, 59
2, 128880, Note_on_c, 0, 53, 75
2, 128884, Note_on_c, 0, 73, 0
2, 128916, Note_on_c, 0, 77, 0
2, 128960, Note_on_c, 0, 61, 0
2, 128976, Note_on_c, 0, 53, 0
2, 128984, Note_on_c, 0, 80, 0
2, 129012, Note_on_c, 0, 56, 73
2, 129024, Note_on_c, 0, 49, 81
2, 129036, Note_on_c, 0, 56, 0
2, 129056, Note_on_c, 0, 49, 0
2, 129224, Control_c, 0, 64, 24
2, 129232, Note_on_c, 0, 84, 115
2, 129236, Note_on_c, 0, 78, 86
2, 129236, Note_on_c, 0, 75, 89
2, 129236, Note_on_c, 0, 72, 96
2, 129236, Control_c, 0, 64, 0
2, 129248, Note_on_c, 0, 32, 74
2, 129252, Note_on_c, 0, 44, 78
2, 129292, Note_on_c, 0, 32, 0
2, 129296, Note_on_c, 0, 44, 0
2, 129300, Control_c, 0, 64, 127
2, 129408, Note_on_c, 0, 56, 70
2, 129408, Note_on_c, 0, 48, 79
2, 129464, Note_on_c, 0, 48, 0
2, 129492, Note_on_c, 0, 56, 0
2, 129544, Note_on_c, 0, 51, 77
2, 129544, Note_on_c, 0, 60, 71
2, 129588, Note_on_c, 0, 60, 0
2, 129596, Note_on_c, 0, 51, 0
2, 129676, Note_on_c, 0, 84, 0
2, 129684, Note_on_c, 0, 60, 60
2, 129696, Note_on_c, 0, 51, 52
2, 129700, Note_on_c, 0, 72, 0
2, 129760, Note_on_c, 0, 51, 0
2, 129776, Note_on_c, 0, 60, 0
2, 129804, Note_on_c, 0, 75, 0
2, 129804, Note_on_c, 0, 78, 0
2, 129824, Note_on_c, 0, 82, 94
2, 129832, Note_on_c, 0, 70, 78
2, 129832, Note_on_c, 0, 63, 57
2, 129836, Note_on_c, 0, 78, 50
2, 129840, Note_on_c, 0, 75, 65
2, 129840, Note_on_c, 0, 54, 51
2, 129904, Note_on_c, 0, 54, 0
2, 129912, Note_on_c, 0, 63, 0
2, 129956, Note_on_c, 0, 82, 0
2, 129956, Note_on_c, 0, 70, 0
2, 129976, Note_on_c, 0, 63, 73
2, 129980, Note_on_c, 0, 54, 73
2, 129984, Note_on_c, 0, 78, 0
2, 129996, Note_on_c, 0, 60, 58
2, 130000, Note_on_c, 0, 75, 0
2, 130016, Note_on_c, 0, 60, 0
2, 130036, Note_on_c, 0, 63, 0
2, 130060, Note_on_c, 0, 80, 102
2, 130064, Note_on_c, 0, 68, 83
2, 130076, Note_on_c, 0, 54, 0
2, 130100, Note_on_c, 0, 68, 0
2, 130112, Note_on_c, 0, 80, 0
2, 130144, Note_on_c, 0, 80, 95
2, 130148, Note_on_c, 0, 68, 81
2, 130152, Note_on_c, 0, 66, 72
2, 130152, Note_on_c, 0, 60, 69
2, 130160, Note_on_c, 0, 78, 59
2, 130176, Note_on_c, 0, 60, 0
2, 130180, Note_on_c, 0, 78, 0
2, 130184, Note_on_c, 0, 68, 0
2, 130212, Note_on_c, 0, 66, 0
2, 130320, Note_on_c, 0, 72, 86
2, 130324, Note_on_c, 0, 63, 52
2, 130324, Note_on_c, 0, 66, 66
2, 130376, Note_on_c, 0, 63, 0
2, 130376, Note_on_c, 0, 72, 0
2, 130396, Note_on_c, 0, 66, 0
2, 130464, Note_on_c, 0, 56, 59
2, 130524, Note_on_c, 0, 56, 0
2, 130600, Note_on_c, 0, 70, 85
2, 130604, Note_on_c, 0, 66, 69
2, 130604, Note_on_c, 0, 61, 69
2, 130684, Note_on_c, 0, 66, 0
2, 130688, Note_on_c, 0, 70, 0
2, 130696, Note_on_c, 0, 61, 0
2, 130760, Note_on_c, 0, 56, 52
2, 130892, Note_on_c, 0, 68, 81
2, 130892, Note_on_c, 0, 60, 72
2, 130892, Note_on_c, 0, 63, 64
2, 130908, Control_c, 0, 64, 88
2, 130912, Note_on_c, 0, 56, 0
2, 130916, Control_c, 0, 64, 0
2, 130980, Control_c, 0, 64, 56
2, 130992, Control_c, 0, 64, 127
2, 130996, Note_on_c, 0, 80, 0
2, 131004, Note_on_c, 0, 63, 0
2, 131008, Note_on_c, 0, 68, 0
2, 131020, Note_on_c, 0, 60, 0
2, 131040, Note_on_c, 0, 80, 100
2, 131048, Note_on_c, 0, 68, 81
2, 131096, Note_on_c, 0, 68, 0
2, 131112, Note_on_c, 0, 80, 0
2, 131168, Note_on_c, 0, 80, 101
2, 131172, Note_on_c, 0, 68, 86
2, 131180, Note_on_c, 0, 77, 85
2, 131180, Note_on_c, 0, 73, 74
2, 131184, Control_c, 0, 64, 40
2, 131192, Note_on_c, 0, 37, 65
2, 131192, Note_on_c, 0, 49, 66
2, 131196, Control_c, 0, 64, 0
2, 131248, Note_on_c, 0, 37, 0
2, 131248, Control_c, 0, 64, 72
2, 131252, Note_on_c, 0, 49, 0
2, 131260, Control_c, 0, 64, 127
2, 131324, Note_on_c, 0, 68, 0
2, 131336, Note_on_c, 0, 77, 0
2, 131348, Note_on_c, 0, 53, 52
2, 131352, Note_on_c, 0, 73, 0
2, 131364, Note_on_c, 0, 53, 0
2, 131376, Note_on_c, 0, 80, 0
2, 131376, Note_on_c, 0, 53, 64
2, 131464, Note_on_c, 0, 82, 98
2, 131468, Note_on_c, 0, 53, 0
2, 131468, Note_on_c, 0, 70, 80
2, 131532, Note_on_c, 0, 56, 54
2, 131556, Note_on_c, 0, 70, 0
2, 131580, Note_on_c, 0, 56, 0
2, 131652, Note_on_c, 0, 82, 0
2, 131676, Note_on_c, 0, 84, 105
2, 131680, Note_on_c, 0, 53, 55
2, 131680, Note_on_c, 0, 61, 52
2, 131688, Note_on_c, 0, 72, 93
2, 131760, Note_on_c, 0, 72, 0
2, 131776, Note_on_c, 0, 53, 0
2, 131780, Note_on_c, 0, 61, 0
2, 131804, Note_on_c, 0, 84, 0
2, 131816, Note_on_c, 0, 56, 62
2, 131824, Note_on_c, 0, 65, 56
2, 131848, Note_on_c, 0, 65, 0
2, 131876, Note_on_c, 0, 56, 0
2, 131904, Note_on_c, 0, 85, 103
2, 131908, Note_on_c, 0, 73, 97
2, 131992, Note_on_c, 0, 73, 0
2, 132092, Note_on_c, 0, 85, 0
2, 132136, Note_on_c, 0, 87, 105
2, 132136, Note_on_c, 0, 75, 94
2, 132148, Note_on_c, 0, 80, 79
2, 132152, Control_c, 0, 64, 104
2, 132160, Control_c, 0, 64, 24
2, 132168, Note_on_c, 0, 53, 75
2, 132172, Note_on_c, 0, 41, 78
2, 132172, Control_c, 0, 64, 0
2, 132216, Control_c, 0, 64, 40
2, 132220, Note_on_c, 0, 53, 0
2, 132228, Control_c, 0, 64, 127
2, 132232, Note_on_c, 0, 41, 0
2, 132268, Note_on_c, 0, 75, 0
2, 132280, Note_on_c, 0, 80, 0
2, 132304, Note_on_c, 0, 56, 65
2, 132308, Note_on_c, 0, 49, 56
2, 132328, Note_on_c, 0, 87, 0
2, 132352, Note_on_c, 0, 56, 0
2, 132380, Note_on_c, 0, 89, 98
2, 132384, Note_on_c, 0, 77, 95
2, 132408, Note_on_c, 0, 49, 0
2, 132448, Note_on_c, 0, 77, 0
2, 132452, Note_on_c, 0, 89, 0
2, 132464, Note_on_c, 0, 61, 67
2, 132480, Note_on_c, 0, 53, 34
2, 132500, Note_on_c, 0, 53, 0
2, 132520, Note_on_c, 0, 61, 0
2, 132612, Note_on_c, 0, 61, 36
2, 132612, Note_on_c, 0, 80, 100
2, 132616, Note_on_c, 0, 68, 86
2, 132632, Note_on_c, 0, 53, 58
2, 132664, Note_on_c, 0, 68, 0
2, 132696, Note_on_c, 0, 80, 0
2, 132712, Note_on_c, 0, 53, 0
2, 132716, Note_on_c, 0, 61, 0
2, 132768, Note_on_c, 0, 56, 73
2, 132772, Note_on_c, 0, 65, 75
2, 132804, Note_on_c, 0, 65, 0
2, 132820, Note_on_c, 0, 56, 0
2, 133032, Note_on_c, 0, 85, 95
2, 133032, Note_on_c, 0, 73, 92
2, 133080, Note_on_c, 0, 73, 0
2, 133140, Note_on_c, 0, 85, 0
2, 133180, Note_on_c, 0, 73, 72
2, 133228, Note_on_c, 0, 75, 74
2, 133256, Note_on_c, 0, 78, 81
2, 133264, Note_on_c, 0, 44, 59
2, 133268, Control_c, 0, 64, 56
2, 133280, Control_c, 0, 64, 0
2, 133304, Note_on_c, 0, 85, 98
2, 133416, Control_c, 0, 64, 127
2, 133452, Note_on_c, 0, 51, 64
2, 133468, Note_on_c, 0, 44, 0
2, 133580, Note_on_c, 0, 51, 0
2, 133580, Note_on_c, 0, 54, 66
2, 133712, Note_on_c, 0, 54, 0
2, 133736, Note_on_c, 0, 57, 69
2, 133868, Note_on_c, 0, 63, 71
2, 133888, Note_on_c, 0, 57, 0
2, 133912, Note_on_c, 0, 73, 0
2, 133992, Note_on_c, 0, 85, 0
2, 134004, Note_on_c, 0, 66, 73
2, 134040, Note_on_c, 0, 63, 0
2, 134156, Note_on_c, 0, 84, 75
2, 134168, Note_on_c, 0, 72, 64
2, 134172, Note_on_c, 0, 66, 0
2, 134180, Note_on_c, 0, 69, 89
2, 134332, Note_on_c, 0, 66, 57
2, 134368, Note_on_c, 0, 69, 0
2, 134452, Note_on_c, 0, 66, 0
2, 134464, Note_on_c, 0, 63, 55
2, 134652, Note_on_c, 0, 68, 71
2, 134656, Note_on_c, 0, 56, 57
2, 134716, Note_on_c, 0, 63, 0
2, 134752, Control_c, 0, 64, 56
2, 134764, Control_c, 0, 64, 0
2, 134836, Note_on_c, 0, 66, 43
2, 134852, Control_c, 0, 64, 72
2, 134860, Control_c, 0, 64, 127
2, 134936, Note_on_c, 0, 68, 0
2, 134964, Note_on_c, 0, 84, 0
2, 134972, Note_on_c, 0, 72, 0
2, 134980, Note_on_c, 0, 66, 0
2, 135000, Note_on_c, 0, 63, 43
2, 135020, Note_on_c, 0, 75, 0
2, 135024, Note_on_c, 0, 56, 0
2, 135040, Note_on_c, 0, 78, 0
2, 135064, Note_on_c, 0, 63, 0
2, 135236, Note_on_c, 0, 71, 55
2, 135316, Note_on_c, 0, 76, 65
2, 135328, Control_c, 0, 64, 40
2, 135340, Control_c, 0, 64, 0
2, 135356, Note_on_c, 0, 40, 63
2, 135396, Note_on_c, 0, 79, 63
2, 135404, Control_c, 0, 64, 88
2, 135416, Control_c, 0, 64, 127
2, 135432, Note_on_c, 0, 40, 0
2, 135496, Note_on_c, 0, 83, 94
2, 135528, Note_on_c, 0, 76, 0
2, 135656, Note_on_c, 0, 59, 66
2, 135676, Note_on_c, 0, 52, 40
2, 135716, Note_on_c, 0, 52, 0
2, 135736, Note_on_c, 0, 59, 0
2, 135768, Note_on_c, 0, 71, 0
2, 135812, Note_on_c, 0, 55, 59
2, 135812, Note_on_c, 0, 64, 63
2, 135856, Note_on_c, 0, 55, 0
2, 135860, Note_on_c, 0, 64, 0
2, 135972, Note_on_c, 0, 64, 35
2, 135972, Note_on_c, 0, 55, 62
2, 136008, Note_on_c, 0, 64, 0
2, 136044, Note_on_c, 0, 55, 0
2, 136104, Note_on_c, 0, 59, 60
2, 136108, Note_on_c, 0, 67, 59
2, 136148, Note_on_c, 0, 59, 0
2, 136160, Note_on_c, 0, 67, 0
2, 136168, Note_on_c, 0, 79, 0
2, 136240, Note_on_c, 0, 83, 0
2, 136252, Note_on_c, 0, 67, 67
2, 136256, Note_on_c, 0, 59, 60
2, 136300, Note_on_c, 0, 59, 0
2, 136308, Note_on_c, 0, 76, 72
2, 136336, Note_on_c, 0, 67, 0
2, 136352, Note_on_c, 0, 79, 88
2, 136384, Note_on_c, 0, 76, 0
2, 136412, Note_on_c, 0, 83, 96
2, 136420, Note_on_c, 0, 64, 64
2, 136420, Note_on_c, 0, 71, 50
2, 136432, Note_on_c, 0, 79, 0
2, 136512, Note_on_c, 0, 71, 0
2, 136528, Note_on_c, 0, 64, 0
2, 136568, Note_on_c, 0, 67, 62
2, 136592, Note_on_c, 0, 67, 0
2, 136596, Note_on_c, 0, 59, 40
2, 136604, Note_on_c, 0, 83, 0
2, 136624, Note_on_c, 0, 59, 0
2, 136704, Note_on_c, 0, 67, 56
2, 136716, Note_on_c, 0, 59, 46
2, 136760, Note_on_c, 0, 71, 55
2, 136764, Note_on_c, 0, 67, 0
2, 136788, Note_on_c, 0, 59, 0
2, 136812, Note_on_c, 0, 76, 66
2, 136828, Note_on_c, 0, 79, 78
2, 136840, Note_on_c, 0, 71, 0
2, 136868, Note_on_c, 0, 64, 48
2, 136880, Note_on_c, 0, 76, 0
2, 136884, Note_on_c, 0, 83, 94
2, 136896, Note_on_c, 0, 64, 0
2, 136900, Note_on_c, 0, 79, 0
2, 136936, Note_on_c, 0, 83, 0
2, 137024, Note_on_c, 0, 64, 63
2, 137036, Note_on_c, 0, 55, 62
2, 137076, Note_on_c, 0, 64, 0
2, 137108, Note_on_c, 0, 55, 0
2, 137180, Note_on_c, 0, 59, 60
2, 137200, Note_on_c, 0, 59, 0
2, 137200, Note_on_c, 0, 52, 50
2, 137228, Note_on_c, 0, 52, 0
2, 137320, Note_on_c, 0, 74, 60
2, 137392, Note_on_c, 0, 78, 79
2, 137432, Control_c, 0, 64, 72
2, 137444, Control_c, 0, 64, 0
2, 137464, Note_on_c, 0, 47, 47
2, 137472, Note_on_c, 0, 35, 46
2, 137520, Control_c, 0, 64, 104
2, 137532, Note_on_c, 0, 35, 0
2, 137532, Control_c, 0, 64, 127
2, 137564, Note_on_c, 0, 47, 0
2, 137564, Note_on_c, 0, 86, 105
2, 137720, Note_on_c, 0, 51, 54
2, 137720, Note_on_c, 0, 59, 73
2, 137772, Note_on_c, 0, 51, 0
2, 137792, Note_on_c, 0, 59, 0
2, 137868, Note_on_c, 0, 63, 73
2, 137868, Note_on_c, 0, 54, 57
2, 137924, Note_on_c, 0, 54, 0
2, 137932, Note_on_c, 0, 63, 0
2, 137944, Note_on_c, 0, 86, 0
2, 138012, Note_on_c, 0, 74, 0
2, 138028, Note_on_c, 0, 63, 67
2, 138032, Note_on_c, 0, 54, 46
2, 138048, Note_on_c, 0, 54, 0
2, 138100, Note_on_c, 0, 63, 0
2, 138148, Note_on_c, 0, 78, 0
2, 138160, Note_on_c, 0, 84, 86
2, 138168, Note_on_c, 0, 66, 60
2, 138168, Note_on_c, 0, 57, 50
2, 138168, Note_on_c, 0, 72, 63
2, 138220, Note_on_c, 0, 66, 0
2, 138228, Note_on_c, 0, 57, 0
2, 138284, Note_on_c, 0, 72, 0
2, 138292, Note_on_c, 0, 84, 0
2, 138316, Note_on_c, 0, 66, 46
2, 138320, Note_on_c, 0, 57, 52
2, 138364, Note_on_c, 0, 66, 0
2, 138384, Note_on_c, 0, 57, 0
2, 138412, Note_on_c, 0, 71, 73
2, 138412, Note_on_c, 0, 83, 86
2, 138452, Note_on_c, 0, 71, 0
2, 138460, Note_on_c, 0, 83, 0
2, 138524, Note_on_c, 0, 83, 87
2, 138524, Note_on_c, 0, 71, 66
2, 138536, Note_on_c, 0, 66, 62
2, 138540, Note_on_c, 0, 69, 73
2, 138564, Note_on_c, 0, 66, 0
2, 138572, Note_on_c, 0, 69, 0
2, 138572, Note_on_c, 0, 71, 0
2, 138640, Note_on_c, 0, 83, 0
2, 138712, Note_on_c, 0, 74, 85
2, 138712, Note_on_c, 0, 66, 63
2, 138720, Note_on_c, 0, 69, 63
2, 138764, Note_on_c, 0, 74, 0
2, 138768, Note_on_c, 0, 69, 0
2, 138784, Note_on_c, 0, 66, 0
2, 138880, Note_on_c, 0, 59, 56
2, 138928, Note_on_c, 0, 59, 0
2, 139004, Note_on_c, 0, 72, 75
2, 139008, Note_on_c, 0, 69, 66
2, 139020, Note_on_c, 0, 64, 63
2, 139060, Note_on_c, 0, 69, 0
2, 139068, Note_on_c, 0, 72, 0
2, 139084, Note_on_c, 0, 64, 0
2, 139148, Note_on_c, 0, 59, 55
2, 139332, Note_on_c, 0, 71, 65
2, 139340, Note_on_c, 0, 66, 48
2, 139344, Note_on_c, 0, 63, 40
2, 139384, Control_c, 0, 64, 72
2, 139392, Control_c, 0, 64, 0
2, 139524, Note_on_c, 0, 95, 72
2, 139572, Note_on_c, 0, 59, 0
2, 139576, Note_on_c, 0, 71, 0
2, 139588, Note_on_c, 0, 63, 0
2, 139588, Note_on_c, 0, 66, 0
2, 139604, Note_on_c, 0, 95, 0
2, 139640, Control_c, 0, 64, 24
2, 139700, Control_c, 0, 64, 127
2, 139704, Note_on_c, 0, 95, 80
2, 139716, Note_on_c, 0, 40, 57
2, 139756, Control_c, 0, 64, 56
2, 139764, Control_c, 0, 64, 127
2, 139844, Note_on_c, 0, 95, 0
2, 139852, Note_on_c, 0, 99, 74
2, 139856, Note_on_c, 0, 102, 70
2, 139928, Note_on_c, 0, 99, 0
2, 139932, Note_on_c, 0, 102, 0
2, 139932, Note_on_c, 0, 40, 0
2, 139968, Note_on_c, 0, 103, 82
2, 139968, Note_on_c, 0, 100, 75
2, 140064, Note_on_c, 0, 100, 0
2, 140064, Note_on_c, 0, 103, 0
2, 140072, Note_on_c, 0, 95, 78
2, 140128, Note_on_c, 0, 95, 0
2, 140164, Note_on_c, 0, 99, 81
2, 140168, Note_on_c, 0, 94, 63
2, 140196, Note_on_c, 0, 94, 0
2, 140224, Note_on_c, 0, 99, 0
2, 140264, Note_on_c, 0, 100, 78
2, 140268, Note_on_c, 0, 95, 71
2, 140328, Note_on_c, 0, 100, 0
2, 140336, Note_on_c, 0, 95, 0
2, 140360, Note_on_c, 0, 91, 72
2, 140408, Note_on_c, 0, 91, 0
2, 140452, Note_on_c, 0, 94, 66
2, 140452, Note_on_c, 0, 90, 55
2, 140496, Note_on_c, 0, 90, 0
2, 140500, Note_on_c, 0, 94, 0
2, 140548, Note_on_c, 0, 91, 73
2, 140548, Note_on_c, 0, 95, 77
2, 140588, Note_on_c, 0, 52, 44
2, 140612, Note_on_c, 0, 59, 47
2, 140648, Note_on_c, 0, 91, 0
2, 140656, Note_on_c, 0, 95, 0
2, 140664, Note_on_c, 0, 88, 74
2, 140664, Note_on_c, 0, 67, 51
2, 140712, Note_on_c, 0, 88, 0
2, 140760, Note_on_c, 0, 87, 65
2, 140764, Note_on_c, 0, 90, 60
2, 140820, Note_on_c, 0, 90, 0
2, 140820, Note_on_c, 0, 87, 0
2, 140864, Note_on_c, 0, 91, 83
2, 140868, Note_on_c, 0, 67, 0
2, 140872, Note_on_c, 0, 88, 67
2, 140916, Note_on_c, 0, 52, 0
2, 140936, Note_on_c, 0, 59, 0
2, 140940, Note_on_c, 0, 88, 0
2, 140952, Note_on_c, 0, 91, 0
2, 140964, Note_on_c, 0, 83, 73
2, 141028, Note_on_c, 0, 83, 0
2, 141064, Note_on_c, 0, 87, 77
2, 141064, Note_on_c, 0, 82, 65
2, 141108, Note_on_c, 0, 82, 0
2, 141128, Note_on_c, 0, 87, 0
2, 141164, Note_on_c, 0, 88, 78
2, 141172, Note_on_c, 0, 83, 64
2, 141224, Note_on_c, 0, 83, 0
2, 141264, Note_on_c, 0, 88, 0
2, 141272, Note_on_c, 0, 79, 80
2, 141272, Control_c, 0, 64, 88
2, 141280, Control_c, 0, 64, 24
2, 141292, Control_c, 0, 64, 0
2, 141296, Note_on_c, 0, 36, 52
2, 141340, Control_c, 0, 64, 72
2, 141348, Control_c, 0, 64, 127
2, 141364, Note_on_c, 0, 79, 0
2, 141380, Note_on_c, 0, 86, 80
2, 141380, Note_on_c, 0, 83, 67
2, 141440, Note_on_c, 0, 83, 0
2, 141448, Note_on_c, 0, 86, 0
2, 141472, Note_on_c, 0, 87, 75
2, 141472, Note_on_c, 0, 84, 69
2, 141548, Note_on_c, 0, 87, 0
2, 141556, Note_on_c, 0, 84, 0
2, 141576, Note_on_c, 0, 79, 80
2, 141624, Note_on_c, 0, 79, 0
2, 141680, Note_on_c, 0, 83, 78
2, 141680, Note_on_c, 0, 78, 73
2, 141724, Note_on_c, 0, 78, 0
2, 141732, Note_on_c, 0, 83, 0
2, 141776, Note_on_c, 0, 84, 83
2, 141776, Note_on_c, 0, 79, 77
2, 141780, Note_on_c, 0, 36, 0
2, 141820, Note_on_c, 0, 84, 0
2, 141824, Note_on_c, 0, 79, 0
2, 141880, Note_on_c, 0, 75, 72
2, 141932, Note_on_c, 0, 75, 0
2, 141964, Note_on_c, 0, 78, 74
2, 141964, Note_on_c, 0, 74, 54
2, 142016, Note_on_c, 0, 74, 0
2, 142016, Note_on_c, 0, 78, 0
2, 142060, Note_on_c, 0, 79, 82
2, 142064, Note_on_c, 0, 75, 58
2, 142132, Note_on_c, 0, 75, 0
2, 142132, Note_on_c, 0, 79, 0
2, 142144, Note_on_c, 0, 51, 52
2, 142160, Note_on_c, 0, 60, 69
2, 142160, Note_on_c, 0, 72, 72
2, 142172, Note_on_c, 0, 51, 0
2, 142200, Note_on_c, 0, 60, 0
2, 142204, Note_on_c, 0, 72, 0
2, 142224, Note_on_c, 0, 67, 88
2, 142248, Note_on_c, 0, 71, 70
2, 142264, Note_on_c, 0, 74, 51
2, 142296, Note_on_c, 0, 67, 0
2, 142300, Note_on_c, 0, 71, 0
2, 142316, Note_on_c, 0, 74, 0
2, 142344, Note_on_c, 0, 75, 70
2, 142352, Note_on_c, 0, 72, 58
2, 142416, Note_on_c, 0, 75, 0
2, 142420, Note_on_c, 0, 72, 0
2, 142444, Note_on_c, 0, 67, 66
2, 142548, Note_on_c, 0, 71, 56
2, 142560, Note_on_c, 0, 66, 28
2, 142584, Note_on_c, 0, 66, 0
2, 142596, Note_on_c, 0, 71, 0
2, 142628, Note_on_c, 0, 67, 0
2, 142648, Note_on_c, 0, 72, 71
2, 142652, Note_on_c, 0, 67, 66
2, 142696, Note_on_c, 0, 72, 0
2, 142708, Note_on_c, 0, 67, 0
2, 142768, Note_on_c, 0, 63, 82
2, 142816, Note_on_c, 0, 63, 0
2, 142880, Note_on_c, 0, 66, 64
2, 142880, Note_on_c, 0, 62, 51
2, 142952, Note_on_c, 0, 62, 0
2, 142952, Note_on_c, 0, 66, 0
2, 143000, Note_on_c, 0, 67, 67
2, 143000, Note_on_c, 0, 63, 64
2, 143052, Note_on_c, 0, 63, 0
2, 143068, Note_on_c, 0, 67, 0
2, 143192, Note_on_c, 0, 62, 75
2, 143192, Note_on_c, 0, 59, 51
2, 143280, Control_c, 0, 64, 104
2, 143288, Control_c, 0, 64, 40
2, 143300, Control_c, 0, 64, 0
2, 143364, Note_on_c, 0, 31, 46
2, 143376, Control_c, 0, 64, 72
2, 143384, Control_c, 0, 64, 127
2, 143532, Note_on_c, 0, 31, 0
2, 143536, Note_on_c, 0, 43, 55
2, 143608, Note_on_c, 0, 43, 0
2, 143668, Note_on_c, 0, 50, 59
2, 143764, Note_on_c, 0, 50, 0
2, 143788, Note_on_c, 0, 55, 54
2, 143900, Note_on_c, 0, 59, 0
2, 143900, Note_on_c, 0, 62, 0
2, 143904, Note_on_c, 0, 59, 51
2, 143940, Note_on_c, 0, 55, 0
2, 143960, Note_on_c, 0, 59, 0
2, 144024, Note_on_c, 0, 62, 55
2, 144104, Note_on_c, 0, 62, 0
2, 144144, Note_on_c, 0, 67, 56
2, 144264, Note_on_c, 0, 67, 0
2, 144272, Note_on_c, 0, 71, 56
2, 144352, Note_on_c, 0, 71, 0
2, 144408, Note_on_c, 0, 74, 58
2, 144492, Note_on_c, 0, 74, 0
2, 144568, Note_on_c, 0, 79, 55
2, 144768, Note_on_c, 0, 79, 0
2, 144796, Note_on_c, 0, 83, 51
2, 145036, Note_on_c, 0, 83, 0
2, 146012, Control_c, 0, 64, 24
2, 146024, Control_c, 0, 64, 40
2, 146036, Control_c, 0, 64, 56
2, 146068, Control_c, 0, 64, 72
2, 146076, Note_on_c, 0, 71, 71
2, 146076, Control_c, 0, 64, 88
2, 146092, Control_c, 0, 64, 104
2, 146108, Control_c, 0, 64, 127
2, 146204, Note_on_c, 0, 71, 0
2, 146512, Note_on_c, 0, 43, 56
2, 146512, Control_c, 0, 64, 88
2, 146528, Control_c, 0, 64, 0
2, 146552, Note_on_c, 0, 71, 78
2, 146592, Control_c, 0, 64, 56
2, 146608, Control_c, 0, 64, 127
2, 146664, Note_on_c, 0, 71, 0
2, 146672, Note_on_c, 0, 43, 0
2, 146684, Note_on_c, 0, 51, 52
2, 146788, Note_on_c, 0, 51, 0
2, 146800, Note_on_c, 0, 54, 56
2, 146892, Note_on_c, 0, 54, 0
2, 146948, Note_on_c, 0, 60, 59
2, 147044, Note_on_c, 0, 60, 0
2, 147068, Note_on_c, 0, 63, 59
2, 147144, Note_on_c, 0, 63, 0
2, 147188, Note_on_c, 0, 66, 56
2, 147272, Note_on_c, 0, 66, 0
2, 147320, Note_on_c, 0, 63, 74
2, 147368, Note_on_c, 0, 72, 60
2, 147404, Note_on_c, 0, 63, 0
2, 147444, Note_on_c, 0, 72, 0
2, 147472, Note_on_c, 0, 75, 64
2, 147576, Note_on_c, 0, 75, 0
2, 147596, Note_on_c, 0, 63, 77
2, 147600, Note_on_c, 0, 78, 60
2, 147708, Note_on_c, 0, 78, 0
2, 147716, Note_on_c, 0, 63, 0
2, 147748, Note_on_c, 0, 83, 57
2, 147836, Note_on_c, 0, 83, 0
2, 147892, Note_on_c, 0, 66, 80
2, 147988, Note_on_c, 0, 66, 0
2, 148244, Note_on_c, 0, 71, 86
2, 148448, Note_on_c, 0, 71, 0
2, 148744, Note_on_c, 0, 69, 80
2, 148856, Note_on_c, 0, 69, 0
2, 148892, Note_on_c, 0, 59, 57
2, 148940, Control_c, 0, 64, 104
2, 148956, Control_c, 0, 64, 24
2, 148968, Control_c, 0, 64, 0
2, 148980, Note_on_c, 0, 31, 55
2, 148988, Note_on_c, 0, 69, 81
2, 149048, Control_c, 0, 64, 72
2, 149064, Control_c, 0, 64, 127
2, 149112, Note_on_c, 0, 59, 0
2, 149136, Note_on_c, 0, 43, 51
2, 149152, Note_on_c, 0, 31, 0
2, 149204, Note_on_c, 0, 43, 0
2, 149212, Note_on_c, 0, 69, 0
2, 149280, Note_on_c, 0, 50, 55
2, 149364, Note_on_c, 0, 50, 0
2, 149416, Note_on_c, 0, 55, 55
2, 149512, Note_on_c, 0, 55, 0
2, 149528, Note_on_c, 0, 59, 62
2, 149628, Note_on_c, 0, 59, 0
2, 149680, Note_on_c, 0, 62, 56
2, 149736, Note_on_c, 0, 62, 0
2, 149788, Note_on_c, 0, 67, 60
2, 149892, Note_on_c, 0, 67, 0
2, 149920, Note_on_c, 0, 71, 62
2, 150004, Note_on_c, 0, 71, 0
2, 150040, Note_on_c, 0, 62, 69
2, 150068, Note_on_c, 0, 74, 55
2, 150136, Note_on_c, 0, 62, 0
2, 150144, Note_on_c, 0, 74, 0
2, 150180, Note_on_c, 0, 79, 64
2, 150312, Note_on_c, 0, 79, 0
2, 150336, Note_on_c, 0, 67, 79
2, 150352, Note_on_c, 0, 83, 48
2, 150404, Note_on_c, 0, 83, 0
2, 150568, Note_on_c, 0, 67, 0
2, 150648, Note_on_c, 0, 69, 85
2, 150916, Note_on_c, 0, 69, 0
2, 150928, Note_on_c, 0, 70, 93
2, 151084, Note_on_c, 0, 70, 0
2, 151288, Note_on_c, 0, 43, 55
2, 151300, Note_on_c, 0, 71, 89
2, 151300, Control_c, 0, 64, 72
2, 151312, Control_c, 0, 64, 0
2, 151420, Control_c, 0, 64, 72
2, 151436, Control_c, 0, 64, 127
2, 151452, Note_on_c, 0, 43, 0
2, 151468, Note_on_c, 0, 51, 64
2, 151500, Note_on_c, 0, 71, 0
2, 151568, Note_on_c, 0, 51, 0
2, 151592, Note_on_c, 0, 54, 48
2, 151688, Note_on_c, 0, 54, 0
2, 151728, Note_on_c, 0, 60, 47
2, 151820, Note_on_c, 0, 60, 0
2, 151844, Note_on_c, 0, 63, 59
2, 151940, Note_on_c, 0, 63, 0
2, 151964, Note_on_c, 0, 66, 60
2, 152052, Note_on_c, 0, 66, 0
2, 152104, Note_on_c, 0, 63, 74
2, 152128, Note_on_c, 0, 72, 48
2, 152180, Note_on_c, 0, 63, 0
2, 152204, Note_on_c, 0, 72, 0
2, 152236, Note_on_c, 0, 75, 62
2, 152360, Note_on_c, 0, 75, 0
2, 152372, Note_on_c, 0, 78, 52
2, 152388, Note_on_c, 0, 63, 80
2, 152504, Note_on_c, 0, 63, 0
2, 152520, Note_on_c, 0, 78, 0
2, 152548, Note_on_c, 0, 83, 54
2, 152620, Note_on_c, 0, 83, 0
2, 152704, Note_on_c, 0, 66, 83
2, 152788, Note_on_c, 0, 66, 0
2, 153088, Note_on_c, 0, 71, 87
2, 153280, Note_on_c, 0, 71, 0
2, 153660, Note_on_c, 0, 69, 77
2, 153760, Note_on_c, 0, 69, 0
2, 153812, Note_on_c, 0, 59, 56
2, 153864, Control_c, 0, 64, 104
2, 153876, Control_c, 0, 64, 24
2, 153880, Note_on_c, 0, 31, 51
2, 153888, Control_c, 0, 64, 0
2, 153896, Note_on_c, 0, 69, 77
2, 153956, Control_c, 0, 64, 72
2, 153972, Control_c, 0, 64, 127
2, 154016, Note_on_c, 0, 59, 0
2, 154020, Note_on_c, 0, 31, 0
2, 154032, Note_on_c, 0, 43, 57
2, 154096, Note_on_c, 0, 43, 0
2, 154144, Note_on_c, 0, 69, 0
2, 154176, Note_on_c, 0, 50, 57
2, 154280, Note_on_c, 0, 50, 0
2, 154300, Note_on_c, 0, 55, 56
2, 154392, Note_on_c, 0, 55, 0
2, 154440, Note_on_c, 0, 59, 55
2, 154528, Note_on_c, 0, 59, 0
2, 154580, Note_on_c, 0, 62, 58
2, 154660, Note_on_c, 0, 62, 0
2, 154712, Note_on_c, 0, 67, 52
2, 154800, Note_on_c, 0, 67, 0
2, 154832, Note_on_c, 0, 71, 48
2, 154912, Note_on_c, 0, 71, 0
2, 154972, Note_on_c, 0, 62, 71
2, 154972, Note_on_c, 0, 74, 46
2, 155048, Note_on_c, 0, 62, 0
2, 155072, Note_on_c, 0, 74, 0
2, 155104, Note_on_c, 0, 79, 70
2, 155220, Note_on_c, 0, 79, 0
2, 155236, Note_on_c, 0, 67, 75
2, 155248, Note_on_c, 0, 83, 62
2, 155292, Note_on_c, 0, 83, 0
2, 155424, Note_on_c, 0, 67, 0
2, 155516, Note_on_c, 0, 69, 81
2, 155656, Note_on_c, 0, 69, 0
2, 155788, Note_on_c, 0, 70, 83
2, 155916, Note_on_c, 0, 70, 0
2, 156080, Note_on_c, 0, 71, 87
2, 156140, Control_c, 0, 64, 104
2, 156152, Control_c, 0, 64, 24
2, 156168, Control_c, 0, 64, 0
2, 156220, Note_on_c, 0, 59, 58
2, 156260, Control_c, 0, 64, 88
2, 156272, Control_c, 0, 64, 127
2, 156344, Note_on_c, 0, 63, 63
2, 156352, Note_on_c, 0, 59, 0
2, 156364, Note_on_c, 0, 43, 77
2, 156448, Note_on_c, 0, 63, 0
2, 156488, Note_on_c, 0, 69, 63
2, 156564, Note_on_c, 0, 69, 0
2, 156592, Note_on_c, 0, 42, 73
2, 156604, Note_on_c, 0, 43, 0
2, 156664, Note_on_c, 0, 71, 0
2, 156712, Note_on_c, 0, 69, 67
2, 156824, Note_on_c, 0, 42, 0
2, 156836, Note_on_c, 0, 41, 69
2, 156844, Note_on_c, 0, 63, 59
2, 156900, Note_on_c, 0, 41, 0
2, 156928, Note_on_c, 0, 69, 0
2, 156936, Note_on_c, 0, 63, 0
2, 156956, Note_on_c, 0, 59, 80
2, 157048, Note_on_c, 0, 59, 0
2, 157100, Note_on_c, 0, 71, 90
2, 157156, Control_c, 0, 64, 72
2, 157172, Control_c, 0, 64, 0
2, 157204, Note_on_c, 0, 60, 73
2, 157252, Control_c, 0, 64, 56
2, 157264, Control_c, 0, 64, 127
2, 157328, Note_on_c, 0, 41, 78
2, 157336, Note_on_c, 0, 64, 58
2, 157420, Note_on_c, 0, 71, 0
2, 157432, Note_on_c, 0, 64, 0
2, 157444, Note_on_c, 0, 69, 88
2, 157564, Note_on_c, 0, 69, 0
2, 157576, Note_on_c, 0, 71, 96
2, 157576, Note_on_c, 0, 40, 75
2, 157580, Note_on_c, 0, 41, 0
2, 157616, Control_c, 0, 64, 56
2, 157632, Control_c, 0, 64, 0
2, 157672, Control_c, 0, 64, 40
2, 157684, Control_c, 0, 64, 127
2, 157712, Note_on_c, 0, 69, 85
2, 157716, Note_on_c, 0, 60, 0
2, 157836, Note_on_c, 0, 40, 0
2, 157836, Note_on_c, 0, 39, 70
2, 157840, Note_on_c, 0, 64, 78
2, 157868, Note_on_c, 0, 69, 0
2, 157904, Note_on_c, 0, 71, 0
2, 157936, Note_on_c, 0, 64, 0
2, 157960, Note_on_c, 0, 60, 85
2, 158036, Note_on_c, 0, 60, 0
2, 158108, Control_c, 0, 64, 72
2, 158120, Control_c, 0, 64, 0
2, 158148, Note_on_c, 0, 74, 96
2, 158200, Control_c, 0, 64, 88
2, 158208, Note_on_c, 0, 39, 0
2, 158212, Control_c, 0, 64, 127
2, 158324, Note_on_c, 0, 54, 71
2, 158476, Note_on_c, 0, 54, 0
2, 158476, Note_on_c, 0, 74, 0
2, 158492, Note_on_c, 0, 72, 94
2, 158496, Note_on_c, 0, 57, 51
2, 158588, Note_on_c, 0, 57, 0
2, 158632, Note_on_c, 0, 59, 58
2, 158760, Note_on_c, 0, 59, 0
2, 158784, Note_on_c, 0, 66, 83
2, 158896, Note_on_c, 0, 59, 69
2, 158904, Note_on_c, 0, 66, 0
2, 158988, Note_on_c, 0, 72, 0
2, 158996, Note_on_c, 0, 71, 90
2, 159000, Note_on_c, 0, 59, 0
2, 159008, Note_on_c, 0, 57, 57
2, 159104, Note_on_c, 0, 71, 0
2, 159120, Note_on_c, 0, 57, 0
2, 159128, Note_on_c, 0, 54, 63
2, 159288, Note_on_c, 0, 65, 80
2, 159292, Note_on_c, 0, 71, 71
2, 159324, Control_c, 0, 64, 56
2, 159340, Control_c, 0, 64, 0
2, 159396, Control_c, 0, 64, 40
2, 159408, Control_c, 0, 64, 127
2, 159412, Note_on_c, 0, 59, 63
2, 159432, Note_on_c, 0, 65, 0
2, 159460, Note_on_c, 0, 54, 0
2, 159536, Note_on_c, 0, 59, 0
2, 159552, Note_on_c, 0, 57, 48
2, 159692, Note_on_c, 0, 57, 0
2, 159692, Note_on_c, 0, 54, 51
2, 159832, Note_on_c, 0, 64, 71
2, 159924, Control_c, 0, 64, 104
2, 159936, Control_c, 0, 64, 24
2, 159948, Control_c, 0, 64, 0
2, 159996, Note_on_c, 0, 59, 49
2, 160016, Note_on_c, 0, 64, 0
2, 160016, Control_c, 0, 64, 56
2, 160028, Control_c, 0, 64, 127
2, 160080, Note_on_c, 0, 54, 0
2, 160100, Note_on_c, 0, 59, 0
2, 160104, Note_on_c, 0, 71, 0
2, 160128, Note_on_c, 0, 57, 40
2, 160288, Note_on_c, 0, 54, 43
2, 160292, Note_on_c, 0, 57, 0
2, 160364, Note_on_c, 0, 54, 0
2, 160504, Note_on_c, 0, 71, 72
2, 160572, Control_c, 0, 64, 72
2, 160588, Control_c, 0, 64, 0
2, 160636, Note_on_c, 0, 59, 51
2, 160668, Control_c, 0, 64, 104
2, 160680, Control_c, 0, 64, 127
2, 160736, Note_on_c, 0, 59, 0
2, 160744, Note_on_c, 0, 63, 44
2, 160764, Note_on_c, 0, 43, 78
2, 160824, Note_on_c, 0, 63, 0
2, 160876, Note_on_c, 0, 69, 65
2, 160948, Note_on_c, 0, 69, 0
2, 160992, Note_on_c, 0, 42, 75
2, 161016, Note_on_c, 0, 43, 0
2, 161088, Note_on_c, 0, 69, 67
2, 161192, Note_on_c, 0, 42, 0
2, 161204, Note_on_c, 0, 69, 0
2, 161212, Note_on_c, 0, 63, 52
2, 161212, Note_on_c, 0, 41, 73
2, 161252, Note_on_c, 0, 71, 0
2, 161300, Note_on_c, 0, 41, 0
2, 161312, Note_on_c, 0, 63, 0
2, 161332, Note_on_c, 0, 59, 72
2, 161428, Note_on_c, 0, 59, 0
2, 161464, Note_on_c, 0, 71, 92
2, 161536, Control_c, 0, 64, 40
2, 161548, Control_c, 0, 64, 0
2, 161572, Note_on_c, 0, 60, 78
2, 161616, Control_c, 0, 64, 56
2, 161628, Control_c, 0, 64, 127
2, 161696, Note_on_c, 0, 41, 86
2, 161700, Note_on_c, 0, 64, 65
2, 161800, Note_on_c, 0, 64, 0
2, 161804, Note_on_c, 0, 71, 0
2, 161812, Note_on_c, 0, 69, 81
2, 161924, Note_on_c, 0, 69, 0
2, 161932, Note_on_c, 0, 71, 94
2, 161932, Note_on_c, 0, 40, 83
2, 161940, Note_on_c, 0, 41, 0
2, 162060, Note_on_c, 0, 60, 0
2, 162060, Note_on_c, 0, 69, 77
2, 162152, Note_on_c, 0, 40, 0
2, 162168, Note_on_c, 0, 39, 80
2, 162180, Note_on_c, 0, 69, 0
2, 162184, Note_on_c, 0, 64, 71
2, 162252, Note_on_c, 0, 71, 0
2, 162284, Note_on_c, 0, 64, 0
2, 162304, Note_on_c, 0, 60, 85
2, 162376, Note_on_c, 0, 60, 0
2, 162428, Control_c, 0, 64, 24
2, 162444, Control_c, 0, 64, 0
2, 162464, Note_on_c, 0, 74, 100
2, 162496, Note_on_c, 0, 39, 0
2, 162512, Control_c, 0, 64, 104
2, 162524, Control_c, 0, 64, 127
2, 162616, Note_on_c, 0, 54, 81
2, 162736, Note_on_c, 0, 54, 0
2, 162768, Note_on_c, 0, 72, 100
2, 162772, Note_on_c, 0, 74, 0
2, 162772, Note_on_c, 0, 57, 67
2, 162852, Note_on_c, 0, 57, 0
2, 162892, Note_on_c, 0, 59, 72
2, 162932, Note_on_c, 0, 72, 0
2, 163008, Note_on_c, 0, 59, 0
2, 163024, Note_on_c, 0, 66, 83
2, 163112, Note_on_c, 0, 66, 0
2, 163144, Note_on_c, 0, 59, 79
2, 163276, Note_on_c, 0, 57, 73
2, 163296, Note_on_c, 0, 59, 0
2, 163296, Note_on_c, 0, 83, 110
2, 163296, Note_on_c, 0, 71, 98
2, 163392, Note_on_c, 0, 71, 0
2, 163420, Note_on_c, 0, 54, 74
2, 163436, Note_on_c, 0, 57, 0
2, 163452, Note_on_c, 0, 83, 0
2, 163460, Note_on_c, 0, 54, 0
2, 163664, Control_c, 0, 64, 104
2, 163680, Control_c, 0, 64, 0
2, 163696, Note_on_c, 0, 86, 118
2, 163704, Note_on_c, 0, 77, 94
2, 163704, Note_on_c, 0, 81, 93
2, 163708, Note_on_c, 0, 74, 92
2, 163716, Note_on_c, 0, 33, 80
2, 163716, Note_on_c, 0, 45, 83
2, 163760, Control_c, 0, 64, 127
2, 163764, Note_on_c, 0, 45, 0
2, 163776, Note_on_c, 0, 33, 0
2, 163896, Note_on_c, 0, 53, 77
2, 163968, Note_on_c, 0, 86, 0
2, 163984, Note_on_c, 0, 74, 0
2, 164044, Note_on_c, 0, 57, 80
2, 164048, Note_on_c, 0, 77, 0
2, 164068, Note_on_c, 0, 81, 0
2, 164088, Note_on_c, 0, 84, 110
2, 164096, Note_on_c, 0, 72, 94
2, 164216, Note_on_c, 0, 60, 75
2, 164304, Note_on_c, 0, 84, 0
2, 164332, Note_on_c, 0, 72, 0
2, 164380, Note_on_c, 0, 65, 90
2, 164388, Note_on_c, 0, 53, 0
2, 164404, Note_on_c, 0, 57, 0
2, 164416, Note_on_c, 0, 60, 0
2, 164424, Note_on_c, 0, 65, 0
2, 164560, Note_on_c, 0, 83, 110
2, 164568, Note_on_c, 0, 71, 95
2, 164636, Note_on_c, 0, 71, 0
2, 164644, Note_on_c, 0, 83, 0
2, 164792, Note_on_c, 0, 69, 94
2, 164796, Note_on_c, 0, 81, 108
2, 164840, Note_on_c, 0, 69, 0
2, 164864, Note_on_c, 0, 81, 0
2, 165060, Note_on_c, 0, 91, 123
2, 165060, Note_on_c, 0, 79, 102
2, 165168, Note_on_c, 0, 91, 0
2, 165176, Note_on_c, 0, 79, 0
2, 165316, Note_on_c, 0, 89, 113
2, 165316, Note_on_c, 0, 77, 105
2, 165396, Note_on_c, 0, 77, 0
2, 165408, Note_on_c, 0, 89, 0
2, 165488, Note_on_c, 0, 88, 110
2, 165492, Note_on_c, 0, 76, 100
2, 165544, Note_on_c, 0, 76, 0
2, 165552, Note_on_c, 0, 88, 0
2, 165628, Note_on_c, 0, 86, 105
2, 165628, Note_on_c, 0, 74, 97
2, 165676, Note_on_c, 0, 74, 0
2, 165676, Note_on_c, 0, 86, 0
2, 165748, Note_on_c, 0, 84, 105
2, 165748, Note_on_c, 0, 72, 102
2, 165784, Note_on_c, 0, 84, 0
2, 165792, Note_on_c, 0, 72, 0
2, 165852, Note_on_c, 0, 83, 111
2, 165856, Note_on_c, 0, 71, 98
2, 165892, Note_on_c, 0, 71, 0
2, 165896, Note_on_c, 0, 83, 0
2, 165952, Note_on_c, 0, 81, 110
2, 165956, Note_on_c, 0, 69, 98
2, 165988, Note_on_c, 0, 69, 0
2, 165992, Note_on_c, 0, 81, 0
2, 166048, Note_on_c, 0, 68, 86
2, 166052, Note_on_c, 0, 80, 98
2, 166108, Note_on_c, 0, 68, 0
2, 166128, Note_on_c, 0, 80, 0
2, 166152, Control_c, 0, 64, 104
2, 166164, Control_c, 0, 64, 24
2, 166168, Note_on_c, 0, 81, 111
2, 166172, Note_on_c, 0, 69, 102
2, 166180, Control_c, 0, 64, 0
2, 166196, Control_c, 0, 64, 40
2, 166208, Control_c, 0, 64, 104
2, 166220, Note_on_c, 0, 69, 0
2, 166220, Control_c, 0, 64, 127
2, 166224, Note_on_c, 0, 81, 0
2, 166356, Note_on_c, 0, 60, 90
2, 166360, Note_on_c, 0, 72, 101
2, 166416, Note_on_c, 0, 72, 0
2, 166416, Note_on_c, 0, 60, 0
2, 166596, Note_on_c, 0, 79, 110
2, 166604, Note_on_c, 0, 67, 86
2, 166652, Control_c, 0, 64, 104
2, 166680, Control_c, 0, 64, 127
2, 166700, Note_on_c, 0, 79, 0
2, 166704, Note_on_c, 0, 67, 0
2, 166868, Note_on_c, 0, 77, 108
2, 166872, Note_on_c, 0, 65, 85
2, 166952, Control_c, 0, 64, 40
2, 166964, Control_c, 0, 64, 0
2, 167020, Control_c, 0, 64, 56
2, 167032, Control_c, 0, 64, 127
2, 167060, Note_on_c, 0, 65, 0
2, 167060, Note_on_c, 0, 77, 0
2, 167324, Note_on_c, 0, 76, 94
2, 167328, Note_on_c, 0, 64, 90
2, 167384, Note_on_c, 0, 64, 0
2, 167436, Note_on_c, 0, 76, 0
2, 167448, Note_on_c, 0, 64, 88
2, 167608, Note_on_c, 0, 76, 108
2, 167696, Control_c, 0, 64, 72
2, 167712, Control_c, 0, 64, 0
2, 167764, Note_on_c, 0, 35, 77
2, 167808, Control_c, 0, 64, 127
2, 167876, Note_on_c, 0, 42, 67
2, 167964, Note_on_c, 0, 64, 0
2, 168008, Note_on_c, 0, 35, 0
2, 168024, Note_on_c, 0, 42, 0
2, 168024, Note_on_c, 0, 45, 74
2, 168048, Note_on_c, 0, 45, 0
2, 168100, Note_on_c, 0, 76, 0
2, 168140, Note_on_c, 0, 75, 95
2, 168148, Note_on_c, 0, 63, 69
2, 168160, Note_on_c, 0, 48, 71
2, 168260, Note_on_c, 0, 48, 0
2, 168264, Note_on_c, 0, 51, 73
2, 168296, Note_on_c, 0, 63, 0
2, 168368, Note_on_c, 0, 54, 71
2, 168376, Note_on_c, 0, 51, 0
2, 168468, Note_on_c, 0, 54, 0
2, 168476, Note_on_c, 0, 57, 71
2, 168500, Note_on_c, 0, 57, 0
2, 168580, Note_on_c, 0, 60, 89
2, 168668, Note_on_c, 0, 60, 0
2, 168680, Note_on_c, 0, 63, 77
2, 168796, Note_on_c, 0, 66, 85
2, 168804, Note_on_c, 0, 63, 0
2, 168852, Note_on_c, 0, 66, 0
2, 168876, Note_on_c, 0, 75, 0
2, 168908, Note_on_c, 0, 69, 98
2, 169012, Note_on_c, 0, 69, 0
2, 169020, Note_on_c, 0, 72, 101
2, 169108, Note_on_c, 0, 72, 0
2, 169124, Note_on_c, 0, 75, 93
2, 169228, Note_on_c, 0, 78, 86
2, 169264, Note_on_c, 0, 75, 0
2, 169280, Note_on_c, 0, 78, 0
2, 169332, Note_on_c, 0, 81, 100
2, 169412, Note_on_c, 0, 81, 0
2, 169452, Note_on_c, 0, 84, 103
2, 169520, Note_on_c, 0, 84, 0
2, 169560, Note_on_c, 0, 87, 98
2, 169656, Note_on_c, 0, 87, 0
2, 169692, Note_on_c, 0, 90, 95
2, 169812, Note_on_c, 0, 93, 110
2, 169832, Note_on_c, 0, 90, 0
2, 169872, Note_on_c, 0, 93, 0
2, 170008, Note_on_c, 0, 98, 120
2, 170180, Note_on_c, 0, 98, 0
2, 170232, Note_on_c, 0, 96, 105
2, 170232, Note_on_c, 0, 91, 86
2, 170256, Note_on_c, 0, 88, 73
2, 170276, Note_on_c, 0, 91, 0
2, 170324, Note_on_c, 0, 88, 0
2, 170324, Note_on_c, 0, 96, 0
2, 170372, Note_on_c, 0, 88, 86
2, 170372, Note_on_c, 0, 93, 115
2, 170388, Note_on_c, 0, 84, 75
2, 170428, Note_on_c, 0, 88, 0
2, 170448, Note_on_c, 0, 93, 0
2, 170452, Note_on_c, 0, 84, 0
2, 170508, Note_on_c, 0, 95, 106
2, 170516, Note_on_c, 0, 86, 70
2, 170520, Note_on_c, 0, 90, 79
2, 170568, Note_on_c, 0, 90, 0
2, 170580, Note_on_c, 0, 86, 0
2, 170584, Note_on_c, 0, 95, 0
2, 170632, Note_on_c, 0, 93, 102
2, 170636, Note_on_c, 0, 84, 72
2, 170640, Note_on_c, 0, 88, 64
2, 170668, Note_on_c, 0, 88, 0
2, 170700, Note_on_c, 0, 93, 0
2, 170704, Note_on_c, 0, 84, 0
2, 170756, Note_on_c, 0, 90, 97
2, 170764, Note_on_c, 0, 84, 67
2, 170768, Note_on_c, 0, 81, 64
2, 170808, Note_on_c, 0, 84, 0
2, 170824, Note_on_c, 0, 81, 0
2, 170832, Note_on_c, 0, 90, 0
2, 170876, Note_on_c, 0, 91, 102
2, 170880, Note_on_c, 0, 83, 64
2, 170892, Note_on_c, 0, 86, 81
2, 170916, Note_on_c, 0, 86, 0
2, 170948, Note_on_c, 0, 83, 0
2, 170948, Note_on_c, 0, 91, 0
2, 170996, Note_on_c, 0, 90, 97
2, 170996, Note_on_c, 0, 81, 77
2, 171012, Note_on_c, 0, 84, 73
2, 171032, Note_on_c, 0, 84, 0
2, 171060, Note_on_c, 0, 81, 0
2, 171060, Note_on_c, 0, 90, 0
2, 171112, Note_on_c, 0, 87, 97
2, 171112, Note_on_c, 0, 78, 73
2, 171120, Note_on_c, 0, 81, 63
2, 171172, Note_on_c, 0, 81, 0
2, 171184, Note_on_c, 0, 78, 0
2, 171184, Note_on_c, 0, 87, 0
2, 171224, Note_on_c, 0, 88, 105
2, 171224, Note_on_c, 0, 79, 69
2, 171224, Control_c, 0, 64, 88
2, 171232, Note_on_c, 0, 83, 92
2, 171236, Control_c, 0, 64, 72
2, 171252, Control_c, 0, 64, 104
2, 171264, Control_c, 0, 64, 127
2, 171284, Note_on_c, 0, 83, 0
2, 171296, Note_on_c, 0, 79, 0
2, 171296, Note_on_c, 0, 88, 0
2, 171332, Note_on_c, 0, 78, 70
2, 171336, Note_on_c, 0, 87, 95
2, 171340, Note_on_c, 0, 81, 75
2, 171368, Note_on_c, 0, 81, 0
2, 171408, Note_on_c, 0, 78, 0
2, 171416, Note_on_c, 0, 87, 0
2, 171452, Note_on_c, 0, 78, 83
2, 171460, Note_on_c, 0, 83, 101
2, 171464, Note_on_c, 0, 75, 69
2, 171496, Note_on_c, 0, 78, 0
2, 171524, Note_on_c, 0, 83, 0
2, 171528, Note_on_c, 0, 75, 0
2, 171568, Note_on_c, 0, 78, 56
2, 171572, Note_on_c, 0, 86, 95
2, 171576, Note_on_c, 0, 81, 89
2, 171636, Note_on_c, 0, 81, 0
2, 171636, Note_on_c, 0, 78, 0
2, 171640, Note_on_c, 0, 86, 0
2, 171680, Note_on_c, 0, 84, 96
2, 171680, Note_on_c, 0, 79, 78
2, 171692, Note_on_c, 0, 76, 63
2, 171728, Note_on_c, 0, 79, 0
2, 171736, Note_on_c, 0, 76, 0
2, 171736, Note_on_c, 0, 84, 0
2, 171800, Note_on_c, 0, 81, 97
2, 171808, Note_on_c, 0, 76, 69
2, 171816, Note_on_c, 0, 72, 64
2, 171840, Note_on_c, 0, 76, 0
2, 171848, Note_on_c, 0, 81, 0
2, 171860, Note_on_c, 0, 72, 0
2, 171916, Note_on_c, 0, 74, 73
2, 171916, Note_on_c, 0, 83, 94
2, 171920, Note_on_c, 0, 78, 71
2, 171972, Note_on_c, 0, 78, 0
2, 171972, Note_on_c, 0, 83, 0
2, 171980, Note_on_c, 0, 74, 0
2, 172024, Note_on_c, 0, 81, 95
2, 172028, Note_on_c, 0, 76, 74
2, 172032, Note_on_c, 0, 72, 77
2, 172056, Note_on_c, 0, 76, 0
2, 172088, Note_on_c, 0, 81, 0
2, 172092, Note_on_c, 0, 72, 0
2, 172140, Note_on_c, 0, 78, 95
2, 172144, Note_on_c, 0, 72, 78
2, 172160, Note_on_c, 0, 69, 47
2, 172196, Note_on_c, 0, 72, 0
2, 172212, Note_on_c, 0, 69, 0
2, 172216, Note_on_c, 0, 78, 0
2, 172252, Note_on_c, 0, 71, 70
2, 172260, Note_on_c, 0, 79, 102
2, 172272, Note_on_c, 0, 74, 86
2, 172296, Note_on_c, 0, 74, 0
2, 172324, Note_on_c, 0, 79, 0
2, 172324, Note_on_c, 0, 71, 0
2, 172368, Note_on_c, 0, 69, 69
2, 172372, Note_on_c, 0, 78, 87
2, 172384, Note_on_c, 0, 72, 72
2, 172416, Note_on_c, 0, 72, 0
2, 172444, Note_on_c, 0, 78, 0
2, 172444, Note_on_c, 0, 69, 0
2, 172484, Note_on_c, 0, 66, 54
2, 172492, Note_on_c, 0, 75, 89
2, 172500, Note_on_c, 0, 69, 78
2, 172556, Note_on_c, 0, 69, 0
2, 172568, Note_on_c, 0, 75, 0
2, 172572, Note_on_c, 0, 66, 0
2, 172612, Note_on_c, 0, 76, 97
2, 172612, Note_on_c, 0, 67, 62
2, 172620, Control_c, 0, 64, 72
2, 172628, Note_on_c, 0, 71, 75
2, 172636, Control_c, 0, 64, 40
2, 172652, Note_on_c, 0, 71, 0
2, 172660, Control_c, 0, 64, 72
2, 172676, Control_c, 0, 64, 127
2, 172680, Note_on_c, 0, 76, 0
2, 172692, Note_on_c, 0, 67, 0
2, 172724, Note_on_c, 0, 66, 59
2, 172732, Note_on_c, 0, 75, 86
2, 172736, Note_on_c, 0, 69, 74
2, 172772, Note_on_c, 0, 69, 0
2, 172804, Note_on_c, 0, 75, 0
2, 172812, Note_on_c, 0, 66, 0
2, 172848, Note_on_c, 0, 66, 73
2, 172852, Note_on_c, 0, 71, 90
2, 172852, Control_c, 0, 64, 104
2, 172860, Note_on_c, 0, 63, 52
2, 172868, Control_c, 0, 64, 88
2, 172880, Control_c, 0, 64, 104
2, 172892, Control_c, 0, 64, 127
2, 172900, Note_on_c, 0, 66, 0
2, 172948, Note_on_c, 0, 63, 0
2, 172948, Note_on_c, 0, 71, 0
2, 172992, Note_on_c, 0, 66, 55
2, 173000, Note_on_c, 0, 74, 94
2, 173016, Note_on_c, 0, 69, 66
2, 173016, Control_c, 0, 64, 72
2, 173028, Control_c, 0, 64, 88
2, 173040, Control_c, 0, 64, 127
2, 173048, Note_on_c, 0, 69, 0
2, 173088, Note_on_c, 0, 74, 0
2, 173104, Note_on_c, 0, 66, 0
2, 173120, Control_c, 0, 64, 104
2, 173136, Note_on_c, 0, 72, 90
2, 173140, Note_on_c, 0, 64, 54
2, 173140, Note_on_c, 0, 67, 66
2, 173140, Control_c, 0, 64, 72
2, 173152, Control_c, 0, 64, 88
2, 173164, Control_c, 0, 64, 127
2, 173180, Note_on_c, 0, 67, 0
2, 173204, Note_on_c, 0, 72, 0
2, 173220, Note_on_c, 0, 64, 0
2, 173268, Note_on_c, 0, 69, 94
2, 173268, Note_on_c, 0, 64, 72
2, 173268, Control_c, 0, 64, 88
2, 173280, Note_on_c, 0, 60, 55
2, 173288, Control_c, 0, 64, 40
2, 173296, Control_c, 0, 64, 56
2, 173312, Control_c, 0, 64, 104
2, 173320, Note_on_c, 0, 64, 0
2, 173328, Control_c, 0, 64, 127
2, 173352, Note_on_c, 0, 69, 0
2, 173368, Note_on_c, 0, 60, 0
2, 173412, Note_on_c, 0, 62, 62
2, 173420, Control_c, 0, 64, 104
2, 173424, Note_on_c, 0, 71, 82
2, 173424, Note_on_c, 0, 66, 57
2, 173432, Control_c, 0, 64, 72
2, 173448, Control_c, 0, 64, 88
2, 173464, Control_c, 0, 64, 127
2, 173496, Note_on_c, 0, 66, 0
2, 173504, Note_on_c, 0, 71, 0
2, 173504, Note_on_c, 0, 62, 0
2, 173544, Control_c, 0, 64, 88
2, 173556, Note_on_c, 0, 60, 78
2, 173556, Note_on_c, 0, 69, 85
2, 173556, Control_c, 0, 64, 56
2, 173564, Note_on_c, 0, 64, 65
2, 173572, Control_c, 0, 64, 72
2, 173580, Control_c, 0, 64, 127
2, 173608, Note_on_c, 0, 64, 0
2, 173636, Note_on_c, 0, 69, 0
2, 173640, Note_on_c, 0, 60, 0
2, 173692, Control_c, 0, 64, 24
2, 173696, Note_on_c, 0, 66, 83
2, 173704, Control_c, 0, 64, 0
2, 173712, Note_on_c, 0, 60, 55
2, 173720, Note_on_c, 0, 57, 41
2, 173720, Control_c, 0, 64, 24
2, 173732, Control_c, 0, 64, 72
2, 173744, Control_c, 0, 64, 127
2, 173764, Note_on_c, 0, 60, 0
2, 173792, Note_on_c, 0, 66, 0
2, 173796, Note_on_c, 0, 57, 0
2, 173844, Note_on_c, 0, 67, 81
2, 173844, Note_on_c, 0, 59, 55
2, 173844, Control_c, 0, 64, 72
2, 173856, Control_c, 0, 64, 0
2, 173860, Note_on_c, 0, 62, 70
2, 173868, Control_c, 0, 64, 24
2, 173880, Control_c, 0, 64, 56
2, 173892, Control_c, 0, 64, 104
2, 173900, Note_on_c, 0, 62, 0
2, 173908, Control_c, 0, 64, 127
2, 173924, Note_on_c, 0, 67, 0
2, 173952, Note_on_c, 0, 59, 0
2, 173992, Note_on_c, 0, 66, 78
2, 173992, Control_c, 0, 64, 104
2, 174004, Note_on_c, 0, 57, 63
2, 174012, Note_on_c, 0, 60, 55
2, 174016, Control_c, 0, 64, 127
2, 174040, Note_on_c, 0, 60, 0
2, 174084, Note_on_c, 0, 57, 0
2, 174084, Note_on_c, 0, 66, 0
2, 174140, Control_c, 0, 64, 88
2, 174148, Note_on_c, 0, 63, 77
2, 174152, Note_on_c, 0, 54, 56
2, 174156, Control_c, 0, 64, 0
2, 174196, Control_c, 0, 64, 56
2, 174208, Control_c, 0, 64, 127
2, 174236, Note_on_c, 0, 63, 0
2, 174288, Note_on_c, 0, 54, 0
2, 174316, Control_c, 0, 64, 72
2, 174320, Note_on_c, 0, 64, 80
2, 174324, Note_on_c, 0, 55, 52
2, 174328, Control_c, 0, 64, 0
2, 174332, Note_on_c, 0, 59, 60
2, 174368, Control_c, 0, 64, 72
2, 174376, Note_on_c, 0, 59, 0
2, 174384, Control_c, 0, 64, 127
2, 174404, Note_on_c, 0, 64, 0
2, 174460, Note_on_c, 0, 55, 0
2, 174468, Control_c, 0, 64, 104
2, 174480, Control_c, 0, 64, 24
2, 174484, Note_on_c, 0, 54, 65
2, 174484, Note_on_c, 0, 63, 73
2, 174492, Note_on_c, 0, 57, 59
2, 174492, Control_c, 0, 64, 0
2, 174508, Control_c, 0, 64, 24
2, 174520, Control_c, 0, 64, 72
2, 174524, Note_on_c, 0, 57, 0
2, 174532, Control_c, 0, 64, 127
2, 174568, Note_on_c, 0, 63, 0
2, 174628, Note_on_c, 0, 54, 0
2, 174704, Note_on_c, 0, 59, 74
2, 174716, Note_on_c, 0, 51, 66
2, 174740, Control_c, 0, 64, 56
2, 174752, Control_c, 0, 64, 0
2, 174820, Control_c, 0, 64, 56
2, 174832, Control_c, 0, 64, 127
2, 174852, Note_on_c, 0, 51, 0
2, 174880, Note_on_c, 0, 59, 0
2, 175036, Note_on_c, 0, 62, 85
2, 175052, Note_on_c, 0, 54, 63
2, 175064, Note_on_c, 0, 57, 47
2, 175156, Control_c, 0, 64, 24
2, 175172, Control_c, 0, 64, 0
2, 175264, Control_c, 0, 64, 104
2, 175280, Control_c, 0, 64, 127
2, 175360, Note_on_c, 0, 62, 0
2, 175376, Note_on_c, 0, 57, 0
2, 175444, Note_on_c, 0, 54, 0
2, 175528, Note_on_c, 0, 61, 73
2, 175548, Note_on_c, 0, 56, 46
2, 175552, Note_on_c, 0, 53, 56
2, 175632, Control_c, 0, 64, 56
2, 175644, Control_c, 0, 64, 0
2, 175740, Control_c, 0, 64, 72
2, 175756, Control_c, 0, 64, 127
2, 175816, Note_on_c, 0, 61, 0
2, 175848, Note_on_c, 0, 56, 0
2, 175908, Note_on_c, 0, 53, 0
2, 176076, Note_on_c, 0, 60, 64
2, 176100, Note_on_c, 0, 52, 47
2, 176100, Note_on_c, 0, 55, 37
2, 176176, Control_c, 0, 64, 104
2, 176184, Control_c, 0, 64, 40
2, 176200, Control_c, 0, 64, 0
2, 176336, Control_c, 0, 64, 56
2, 176348, Control_c, 0, 64, 104
2, 176364, Control_c, 0, 64, 127
2, 176536, Note_on_c, 0, 52, 0
2, 176536, Note_on_c, 0, 60, 0
2, 176560, Note_on_c, 0, 55, 0
2, 176864, Note_on_c, 0, 59, 55
2, 176864, Note_on_c, 0, 51, 46
2, 176864, Note_on_c, 0, 54, 46
2, 176972, Control_c, 0, 64, 104
2, 176988, Control_c, 0, 64, 40
2, 177000, Control_c, 0, 64, 0
2, 177084, Control_c, 0, 64, 56
2, 177096, Control_c, 0, 64, 127
2, 177280, Note_on_c, 0, 54, 0
2, 177280, Note_on_c, 0, 51, 0
2, 177316, Note_on_c, 0, 59, 0
2, 177908, Control_c, 0, 64, 104
2, 177964, Control_c, 0, 64, 72
2, 178016, Control_c, 0, 64, 56
2, 178112, Control_c, 0, 64, 40
2, 178152, Control_c, 0, 64, 24
2, 178168, Control_c, 0, 64, 0
2, 179084, Note_on_c, 0, 71, 96
2, 179088, Control_c, 0, 64, 40
2, 179092, Note_on_c, 0, 59, 67
2, 179104, Control_c, 0, 64, 72
2, 179116, Control_c, 0, 64, 104
2, 179156, Control_c, 0, 64, 24
2, 179172, Control_c, 0, 64, 0
2, 179224, Control_c, 0, 64, 40
2, 179236, Control_c, 0, 64, 88
2, 179240, Note_on_c, 0, 40, 51
2, 179252, Control_c, 0, 64, 127
2, 179312, Note_on_c, 0, 40, 0
2, 179332, Note_on_c, 0, 47, 60
2, 179396, Note_on_c, 0, 50, 65
2, 179408, Note_on_c, 0, 47, 0
2, 179456, Note_on_c, 0, 62, 44
2, 179492, Note_on_c, 0, 56, 73
2, 179496, Note_on_c, 0, 50, 0
2, 179500, Note_on_c, 0, 68, 71
2, 179508, Note_on_c, 0, 71, 0
2, 179528, Note_on_c, 0, 59, 0
2, 179532, Note_on_c, 0, 56, 0
2, 179552, Note_on_c, 0, 62, 0
2, 179588, Note_on_c, 0, 68, 0
2, 179932, Note_on_c, 0, 73, 101
2, 179944, Note_on_c, 0, 61, 73
2, 180036, Control_c, 0, 64, 56
2, 180052, Control_c, 0, 64, 0
2, 180160, Control_c, 0, 64, 104
2, 180172, Control_c, 0, 64, 127
2, 180256, Note_on_c, 0, 61, 0
2, 180256, Note_on_c, 0, 73, 0
2, 180540, Note_on_c, 0, 71, 100
2, 180540, Note_on_c, 0, 59, 83
2, 180584, Note_on_c, 0, 59, 0
2, 180616, Note_on_c, 0, 71, 0
2, 180728, Note_on_c, 0, 76, 102
2, 180732, Note_on_c, 0, 64, 86
2, 180772, Control_c, 0, 64, 72
2, 180784, Control_c, 0, 64, 0
2, 180860, Note_on_c, 0, 40, 56
2, 180880, Control_c, 0, 64, 88
2, 180892, Control_c, 0, 64, 127
2, 180900, Note_on_c, 0, 40, 0
2, 180916, Note_on_c, 0, 46, 63
2, 180940, Note_on_c, 0, 49, 63
2, 180992, Note_on_c, 0, 46, 0
2, 181032, Note_on_c, 0, 49, 0
2, 181036, Note_on_c, 0, 55, 60
2, 181044, Note_on_c, 0, 76, 0
2, 181060, Note_on_c, 0, 67, 57
2, 181068, Note_on_c, 0, 55, 0
2, 181108, Note_on_c, 0, 73, 65
2, 181128, Note_on_c, 0, 67, 0
2, 181140, Note_on_c, 0, 76, 21
2, 181180, Note_on_c, 0, 73, 0
2, 181420, Control_c, 0, 64, 88
2, 181436, Control_c, 0, 64, 24
2, 181448, Control_c, 0, 64, 0
2, 181556, Control_c, 0, 64, 56
2, 181568, Control_c, 0, 64, 127
2, 181584, Note_on_c, 0, 76, 0
2, 181608, Note_on_c, 0, 64, 0
2, 181912, Note_on_c, 0, 64, 92
2, 181920, Note_on_c, 0, 52, 66
2, 181980, Note_on_c, 0, 52, 0
2, 182052, Note_on_c, 0, 64, 0
2, 182176, Note_on_c, 0, 52, 75
2, 182292, Note_on_c, 0, 64, 86
2, 182316, Control_c, 0, 64, 88
2, 182328, Control_c, 0, 64, 0
2, 182440, Note_on_c, 0, 40, 54
2, 182452, Note_on_c, 0, 52, 0
2, 182452, Control_c, 0, 64, 127
2, 182484, Note_on_c, 0, 40, 0
2, 182528, Note_on_c, 0, 45, 50
2, 182576, Note_on_c, 0, 45, 0
2, 182576, Note_on_c, 0, 48, 54
2, 182620, Note_on_c, 0, 48, 0
2, 182628, Note_on_c, 0, 57, 47
2, 182660, Note_on_c, 0, 54, 47
2, 182696, Note_on_c, 0, 54, 0
2, 182716, Note_on_c, 0, 60, 63
2, 182728, Note_on_c, 0, 57, 0
2, 182756, Note_on_c, 0, 64, 0
2, 182776, Note_on_c, 0, 60, 0
2, 183048, Note_on_c, 0, 72, 95
2, 183056, Note_on_c, 0, 60, 72
2, 183108, Note_on_c, 0, 60, 0
2, 183112, Note_on_c, 0, 72, 0
2, 183356, Note_on_c, 0, 64, 93
2, 183368, Note_on_c, 0, 52, 71
2, 183424, Note_on_c, 0, 52, 0
2, 183488, Note_on_c, 0, 64, 0
2, 183948, Note_on_c, 0, 54, 67
2, 183952, Note_on_c, 0, 66, 86
2, 184016, Note_on_c, 0, 54, 0
2, 184048, Note_on_c, 0, 66, 0
2, 184164, Note_on_c, 0, 68, 81
2, 184164, Note_on_c, 0, 56, 58
2, 184228, Control_c, 0, 64, 72
2, 184240, Control_c, 0, 64, 0
2, 184332, Note_on_c, 0, 40, 59
2, 184336, Control_c, 0, 64, 72
2, 184352, Control_c, 0, 64, 127
2, 184356, Note_on_c, 0, 56, 0
2, 184400, Note_on_c, 0, 40, 0
2, 184420, Note_on_c, 0, 47, 54
2, 184508, Note_on_c, 0, 47, 0
2, 184580, Note_on_c, 0, 56, 48
2, 184592, Note_on_c, 0, 64, 47
2, 184596, Note_on_c, 0, 59, 46
2, 184644, Note_on_c, 0, 56, 0
2, 184932, Control_c, 0, 64, 88
2, 184944, Control_c, 0, 64, 56
2, 184960, Control_c, 0, 64, 0
2, 185032, Note_on_c, 0, 64, 0
2, 185136, Control_c, 0, 64, 40
2, 185148, Control_c, 0, 64, 104
2, 185164, Control_c, 0, 64, 127
2, 185180, Note_on_c, 0, 59, 0
2, 185272, Control_c, 0, 64, 40
2, 185284, Control_c, 0, 64, 0
2, 185352, Control_c, 0, 64, 72
2, 185368, Control_c, 0, 64, 127
2, 185444, Note_on_c, 0, 68, 0
2, 185524, Note_on_c, 0, 67, 94
2, 185536, Note_on_c, 0, 55, 67
2, 185584, Control_c, 0, 64, 72
2, 185596, Control_c, 0, 64, 0
2, 185632, Note_on_c, 0, 55, 0
2, 185652, Control_c, 0, 64, 56
2, 185664, Note_on_c, 0, 67, 0
2, 185664, Control_c, 0, 64, 104
2, 185680, Control_c, 0, 64, 127
2, 185860, Note_on_c, 0, 68, 97
2, 185872, Note_on_c, 0, 56, 80
2, 185908, Control_c, 0, 64, 56
2, 185920, Control_c, 0, 64, 0
2, 186004, Control_c, 0, 64, 88
2, 186008, Note_on_c, 0, 36, 63
2, 186016, Control_c, 0, 64, 127
2, 186072, Note_on_c, 0, 36, 0
2, 186076, Note_on_c, 0, 44, 63
2, 186148, Note_on_c, 0, 44, 0
2, 186176, Note_on_c, 0, 60, 59
2, 186180, Note_on_c, 0, 51, 31
2, 186208, Note_on_c, 0, 51, 0
2, 186240, Note_on_c, 0, 56, 0
2, 186240, Note_on_c, 0, 63, 77
2, 186260, Note_on_c, 0, 60, 0
2, 186260, Note_on_c, 0, 68, 0
2, 186304, Note_on_c, 0, 63, 0
2, 186536, Note_on_c, 0, 71, 97
2, 186544, Note_on_c, 0, 59, 79
2, 186572, Note_on_c, 0, 59, 0
2, 186592, Note_on_c, 0, 71, 0
2, 186636, Note_on_c, 0, 69, 108
2, 186648, Note_on_c, 0, 57, 78
2, 186720, Control_c, 0, 64, 88
2, 186736, Control_c, 0, 64, 0
2, 186856, Control_c, 0, 64, 88
2, 186872, Control_c, 0, 64, 127
2, 186924, Note_on_c, 0, 69, 0
2, 186936, Note_on_c, 0, 57, 0
2, 187264, Note_on_c, 0, 68, 96
2, 187272, Note_on_c, 0, 56, 80
2, 187316, Note_on_c, 0, 56, 0
2, 187340, Note_on_c, 0, 68, 0
2, 187536, Note_on_c, 0, 74, 101
2, 187544, Note_on_c, 0, 62, 78
2, 187576, Control_c, 0, 64, 72
2, 187592, Control_c, 0, 64, 0
2, 187660, Note_on_c, 0, 35, 54
2, 187672, Control_c, 0, 64, 127
2, 187708, Note_on_c, 0, 41, 54
2, 187716, Note_on_c, 0, 35, 0
2, 187732, Note_on_c, 0, 44, 55
2, 187788, Note_on_c, 0, 41, 0
2, 187800, Note_on_c, 0, 50, 59
2, 187808, Note_on_c, 0, 44, 0
2, 187840, Note_on_c, 0, 50, 0
2, 187864, Note_on_c, 0, 74, 0
2, 187872, Note_on_c, 0, 65, 59
2, 187960, Note_on_c, 0, 65, 0
2, 187964, Note_on_c, 0, 68, 57
2, 188032, Note_on_c, 0, 68, 0
2, 188200, Control_c, 0, 64, 104
2, 188216, Control_c, 0, 64, 72
2, 188228, Control_c, 0, 64, 40
2, 188240, Control_c, 0, 64, 0
2, 188484, Control_c, 0, 64, 127
2, 188532, Note_on_c, 0, 62, 0
2, 188984, Note_on_c, 0, 65, 78
2, 189004, Note_on_c, 0, 53, 60
2, 189056, Control_c, 0, 64, 24
2, 189068, Control_c, 0, 64, 0
2, 189136, Control_c, 0, 64, 72
2, 189148, Control_c, 0, 64, 127
2, 189156, Note_on_c, 0, 53, 0
2, 189188, Note_on_c, 0, 34, 49
2, 189196, Note_on_c, 0, 65, 0
2, 189324, Note_on_c, 0, 42, 46
2, 189388, Note_on_c, 0, 49, 49
2, 189416, Note_on_c, 0, 54, 51
2, 189496, Note_on_c, 0, 61, 50
2, 189504, Note_on_c, 0, 34, 0
2, 189580, Note_on_c, 0, 66, 81
2, 189604, Note_on_c, 0, 61, 0
2, 189624, Control_c, 0, 64, 88
2, 189636, Control_c, 0, 64, 40
2, 189652, Control_c, 0, 64, 0
2, 189732, Control_c, 0, 64, 40
2, 189744, Control_c, 0, 64, 104
2, 189756, Note_on_c, 0, 54, 0
2, 189760, Control_c, 0, 64, 127
2, 189820, Note_on_c, 0, 66, 0
2, 189836, Note_on_c, 0, 68, 83
2, 189956, Note_on_c, 0, 68, 0
2, 190016, Note_on_c, 0, 66, 81
2, 190104, Note_on_c, 0, 66, 0
2, 190136, Note_on_c, 0, 65, 80
2, 190188, Note_on_c, 0, 49, 0
2, 190188, Note_on_c, 0, 42, 0
2, 190196, Note_on_c, 0, 65, 0
2, 190268, Note_on_c, 0, 66, 81
2, 190332, Note_on_c, 0, 66, 0
2, 190392, Note_on_c, 0, 66, 78
2, 190460, Note_on_c, 0, 66, 0
2, 190588, Note_on_c, 0, 73, 85
2, 190680, Control_c, 0, 64, 104
2, 190696, Control_c, 0, 64, 24
2, 190708, Control_c, 0, 64, 0
2, 190776, Control_c, 0, 64, 56
2, 190788, Control_c, 0, 64, 127
2, 190924, Note_on_c, 0, 73, 0
2, 191116, Note_on_c, 0, 73, 88
2, 191132, Note_on_c, 0, 61, 56
2, 191136, Note_on_c, 0, 66, 60
2, 191156, Note_on_c, 0, 54, 48
2, 191156, Note_on_c, 0, 45, 54
2, 191156, Note_on_c, 0, 57, 51
2, 191224, Control_c, 0, 64, 56
2, 191236, Control_c, 0, 64, 0
2, 191304, Control_c, 0, 64, 104
2, 191320, Control_c, 0, 64, 127
2, 191348, Note_on_c, 0, 45, 0
2, 191376, Note_on_c, 0, 54, 0
2, 191392, Note_on_c, 0, 57, 0
2, 191428, Note_on_c, 0, 66, 0
2, 191436, Note_on_c, 0, 73, 0
2, 191444, Note_on_c, 0, 61, 0
2, 191548, Note_on_c, 0, 44, 55
2, 191620, Note_on_c, 0, 53, 50
2, 191636, Note_on_c, 0, 44, 0
2, 191652, Note_on_c, 0, 73, 90
2, 191656, Control_c, 0, 64, 40
2, 191668, Note_on_c, 0, 61, 51
2, 191672, Note_on_c, 0, 65, 69
2, 191672, Control_c, 0, 64, 0
2, 191680, Note_on_c, 0, 59, 48
2, 191712, Control_c, 0, 64, 40
2, 191724, Control_c, 0, 64, 104
2, 191740, Control_c, 0, 64, 127
2, 191788, Note_on_c, 0, 59, 0
2, 191824, Note_on_c, 0, 53, 0
2, 191916, Note_on_c, 0, 65, 0
2, 191972, Note_on_c, 0, 61, 0
2, 191976, Note_on_c, 0, 73, 0
2, 192012, Note_on_c, 0, 43, 57
2, 192120, Note_on_c, 0, 52, 59
2, 192248, Note_on_c, 0, 73, 94
2, 192264, Note_on_c, 0, 61, 50
2, 192280, Note_on_c, 0, 64, 58
2, 192292, Note_on_c, 0, 58, 49
2, 192348, Control_c, 0, 64, 104
2, 192364, Control_c, 0, 64, 0
2, 192444, Note_on_c, 0, 58, 0
2, 192460, Control_c, 0, 64, 127
2, 192480, Note_on_c, 0, 52, 0
2, 192520, Note_on_c, 0, 43, 0
2, 192572, Note_on_c, 0, 64, 0
2, 192584, Note_on_c, 0, 73, 0
2, 192612, Note_on_c, 0, 61, 0
2, 192836, Note_on_c, 0, 35, 57
2, 192844, Control_c, 0, 64, 104
2, 192848, Note_on_c, 0, 57, 52
2, 192864, Control_c, 0, 64, 0
2, 192920, Control_c, 0, 64, 56
2, 192928, Note_on_c, 0, 42, 51
2, 192932, Control_c, 0, 64, 127
2, 192940, Note_on_c, 0, 57, 0
2, 192980, Note_on_c, 0, 42, 0
2, 193004, Note_on_c, 0, 47, 52
2, 193008, Note_on_c, 0, 63, 66
2, 193012, Note_on_c, 0, 35, 0
2, 193096, Note_on_c, 0, 54, 50
2, 193192, Note_on_c, 0, 57, 57
2, 193324, Note_on_c, 0, 73, 92
2, 193412, Note_on_c, 0, 47, 0
2, 193436, Control_c, 0, 64, 88
2, 193444, Control_c, 0, 64, 0
2, 193488, Note_on_c, 0, 63, 0
2, 193504, Control_c, 0, 64, 40
2, 193516, Control_c, 0, 64, 104
2, 193528, Control_c, 0, 64, 127
2, 193664, Note_on_c, 0, 73, 0
2, 193672, Note_on_c, 0, 57, 0
2, 193888, Note_on_c, 0, 72, 86
2, 194028, Control_c, 0, 64, 72
2, 194044, Control_c, 0, 64, 0
2, 194140, Control_c, 0, 64, 40
2, 194152, Control_c, 0, 64, 127
2, 194584, Note_on_c, 0, 72, 0
2, 194868, Note_on_c, 0, 71, 73
2, 194900, Control_c, 0, 64, 56
2, 194912, Control_c, 0, 64, 0
2, 195012, Note_on_c, 0, 54, 0
2, 195060, Control_c, 0, 64, 88
2, 195072, Control_c, 0, 64, 127
2, 195176, Note_on_c, 0, 71, 0
2, 195560, Note_on_c, 0, 64, 65
2, 195560, Note_on_c, 0, 56, 39
2, 195560, Note_on_c, 0, 40, 47
2, 195632, Control_c, 0, 64, 56
2, 195648, Control_c, 0, 64, 0
2, 195740, Control_c, 0, 64, 88
2, 195752, Control_c, 0, 64, 127
2, 195780, Note_on_c, 0, 56, 0
2, 195828, Note_on_c, 0, 47, 50
2, 195868, Note_on_c, 0, 40, 0
2, 195900, Note_on_c, 0, 64, 0
2, 195952, Note_on_c, 0, 47, 0
2, 196008, Note_on_c, 0, 52, 54
2, 196140, Note_on_c, 0, 52, 0
2, 196168, Note_on_c, 0, 56, 55
2, 196292, Note_on_c, 0, 56, 0
2, 196340, Note_on_c, 0, 59, 54
2, 196444, Note_on_c, 0, 59, 0
2, 196504, Note_on_c, 0, 64, 55
2, 196636, Note_on_c, 0, 64, 0
2, 196668, Note_on_c, 0, 68, 57
2, 196780, Note_on_c, 0, 68, 0
2, 196828, Note_on_c, 0, 64, 55
2, 196916, Note_on_c, 0, 76, 82
2, 196992, Note_on_c, 0, 64, 0
2, 197028, Note_on_c, 0, 59, 54
2, 197200, Note_on_c, 0, 80, 81
2, 197204, Note_on_c, 0, 56, 51
2, 197208, Note_on_c, 0, 59, 0
2, 197284, Note_on_c, 0, 56, 0
2, 197380, Note_on_c, 0, 52, 50
2, 197488, Note_on_c, 0, 83, 94
2, 197520, Note_on_c, 0, 80, 0
2, 197536, Note_on_c, 0, 52, 0
2, 197572, Note_on_c, 0, 76, 0
2, 197592, Note_on_c, 0, 47, 48
2, 197620, Note_on_c, 0, 47, 0
2, 197656, Note_on_c, 0, 83, 0
2, 197904, Note_on_c, 0, 88, 90
2, 197916, Note_on_c, 0, 76, 63
2, 197916, Note_on_c, 0, 80, 59
2, 197928, Note_on_c, 0, 36, 60
2, 197940, Control_c, 0, 64, 104
2, 197952, Control_c, 0, 64, 24
2, 197964, Control_c, 0, 64, 0
2, 198072, Control_c, 0, 64, 127
2, 198148, Note_on_c, 0, 36, 0
2, 198164, Note_on_c, 0, 48, 51
2, 198208, Note_on_c, 0, 48, 0
2, 198344, Note_on_c, 0, 52, 52
2, 198480, Note_on_c, 0, 56, 54
2, 198484, Note_on_c, 0, 52, 0
2, 198488, Note_on_c, 0, 80, 0
2, 198612, Note_on_c, 0, 56, 0
2, 198664, Note_on_c, 0, 60, 55
2, 198680, Note_on_c, 0, 88, 0
2, 198692, Note_on_c, 0, 86, 81
2, 198816, Note_on_c, 0, 60, 0
2, 198872, Note_on_c, 0, 64, 56
2, 198932, Note_on_c, 0, 86, 0
2, 198980, Note_on_c, 0, 84, 79
2, 199040, Note_on_c, 0, 84, 0
2, 199088, Note_on_c, 0, 64, 0
2, 199092, Note_on_c, 0, 68, 57
2, 199096, Note_on_c, 0, 84, 75
2, 199228, Note_on_c, 0, 68, 0
2, 199276, Note_on_c, 0, 64, 55
2, 199384, Note_on_c, 0, 64, 0
2, 199436, Note_on_c, 0, 60, 54
2, 199544, Note_on_c, 0, 60, 0
2, 199612, Note_on_c, 0, 56, 52
2, 199696, Note_on_c, 0, 56, 0
2, 199788, Note_on_c, 0, 52, 50
2, 199912, Note_on_c, 0, 52, 0
2, 199940, Note_on_c, 0, 76, 0
2, 199964, Note_on_c, 0, 84, 0
2, 199964, Note_on_c, 0, 48, 46
2, 200028, Note_on_c, 0, 48, 0
2, 200248, Note_on_c, 0, 40, 62
2, 200324, Control_c, 0, 64, 72
2, 200336, Control_c, 0, 64, 0
2, 200444, Control_c, 0, 64, 72
2, 200456, Note_on_c, 0, 47, 51
2, 200460, Control_c, 0, 64, 127
2, 200500, Note_on_c, 0, 40, 0
2, 200584, Note_on_c, 0, 47, 0
2, 200632, Note_on_c, 0, 52, 52
2, 200800, Note_on_c, 0, 52, 0
2, 200816, Note_on_c, 0, 56, 52
2, 200968, Note_on_c, 0, 56, 0
2, 201000, Note_on_c, 0, 59, 54
2, 201100, Note_on_c, 0, 59, 0
2, 201184, Note_on_c, 0, 64, 56
2, 201312, Note_on_c, 0, 64, 0
2, 201352, Note_on_c, 0, 68, 57
2, 201444, Note_on_c, 0, 68, 0
2, 201500, Note_on_c, 0, 64, 56
2, 201592, Note_on_c, 0, 80, 88
2, 201596, Note_on_c, 0, 71, 70
2, 201600, Note_on_c, 0, 76, 75
2, 201624, Note_on_c, 0, 76, 0
2, 201628, Note_on_c, 0, 71, 0
2, 201644, Note_on_c, 0, 64, 0
2, 201672, Note_on_c, 0, 80, 0
2, 201692, Note_on_c, 0, 59, 54
2, 201832, Note_on_c, 0, 59, 0
2, 201840, Note_on_c, 0, 56, 52
2, 201848, Note_on_c, 0, 83, 87
2, 201852, Note_on_c, 0, 76, 71
2, 201856, Note_on_c, 0, 80, 59
2, 201884, Note_on_c, 0, 80, 0
2, 201888, Note_on_c, 0, 76, 0
2, 201916, Note_on_c, 0, 56, 0
2, 201928, Note_on_c, 0, 83, 0
2, 202028, Note_on_c, 0, 52, 52
2, 202104, Note_on_c, 0, 88, 98
2, 202108, Note_on_c, 0, 83, 83
2, 202108, Note_on_c, 0, 80, 73
2, 202164, Note_on_c, 0, 80, 0
2, 202176, Note_on_c, 0, 83, 0
2, 202208, Note_on_c, 0, 52, 0
2, 202216, Note_on_c, 0, 88, 0
2, 202224, Note_on_c, 0, 47, 56
2, 202284, Note_on_c, 0, 47, 0
2, 202508, Note_on_c, 0, 92, 102
2, 202516, Note_on_c, 0, 80, 71
2, 202516, Note_on_c, 0, 88, 83
2, 202548, Note_on_c, 0, 36, 63
2, 202576, Control_c, 0, 64, 104
2, 202588, Control_c, 0, 64, 24
2, 202604, Control_c, 0, 64, 0
2, 202696, Control_c, 0, 64, 104
2, 202708, Control_c, 0, 64, 127
2, 202748, Note_on_c, 0, 36, 0
2, 202756, Note_on_c, 0, 48, 59
2, 202788, Note_on_c, 0, 48, 0
2, 202972, Note_on_c, 0, 52, 49
2, 203068, Note_on_c, 0, 88, 0
2, 203096, Note_on_c, 0, 56, 48
2, 203116, Note_on_c, 0, 92, 0
2, 203148, Note_on_c, 0, 52, 0
2, 203152, Note_on_c, 0, 80, 0
2, 203248, Note_on_c, 0, 56, 0
2, 203276, Note_on_c, 0, 90, 85
2, 203296, Note_on_c, 0, 78, 56
2, 203300, Note_on_c, 0, 60, 62
2, 203304, Note_on_c, 0, 86, 66
2, 203400, Note_on_c, 0, 86, 0
2, 203424, Note_on_c, 0, 60, 0
2, 203444, Note_on_c, 0, 90, 0
2, 203460, Note_on_c, 0, 78, 0
2, 203496, Note_on_c, 0, 64, 50
2, 203596, Note_on_c, 0, 88, 85
2, 203612, Note_on_c, 0, 76, 49
2, 203628, Note_on_c, 0, 84, 55
2, 203644, Note_on_c, 0, 76, 0
2, 203648, Note_on_c, 0, 88, 0
2, 203680, Note_on_c, 0, 64, 0
2, 203692, Note_on_c, 0, 84, 0
2, 203700, Note_on_c, 0, 88, 78
2, 203700, Note_on_c, 0, 68, 52
2, 203708, Note_on_c, 0, 84, 60
2, 203712, Note_on_c, 0, 76, 63
2, 203808, Note_on_c, 0, 68, 0
2, 203876, Note_on_c, 0, 64, 58
2, 204004, Note_on_c, 0, 64, 0
2, 204052, Note_on_c, 0, 60, 55
2, 204164, Note_on_c, 0, 60, 0
2, 204224, Note_on_c, 0, 56, 52
2, 204344, Note_on_c, 0, 56, 0
2, 204396, Note_on_c, 0, 52, 49
2, 204532, Note_on_c, 0, 52, 0
2, 204552, Note_on_c, 0, 76, 0
2, 204560, Note_on_c, 0, 88, 0
2, 204572, Note_on_c, 0, 48, 47
2, 204592, Note_on_c, 0, 84, 0
2, 204604, Note_on_c, 0, 48, 0
2, 204852, Note_on_c, 0, 40, 49
2, 204892, Control_c, 0, 64, 72
2, 204908, Control_c, 0, 64, 0
2, 205028, Control_c, 0, 64, 104
2, 205040, Control_c, 0, 64, 127
2, 205056, Note_on_c, 0, 47, 51
2, 205088, Note_on_c, 0, 40, 0
2, 205188, Note_on_c, 0, 47, 0
2, 205236, Note_on_c, 0, 52, 57
2, 205368, Note_on_c, 0, 52, 0
2, 205392, Note_on_c, 0, 56, 52
2, 205524, Note_on_c, 0, 56, 0
2, 205564, Note_on_c, 0, 59, 59
2, 205680, Note_on_c, 0, 59, 0
2, 205756, Note_on_c, 0, 64, 56
2, 205884, Note_on_c, 0, 64, 0
2, 205920, Note_on_c, 0, 68, 58
2, 206040, Note_on_c, 0, 68, 0
2, 206108, Note_on_c, 0, 64, 54
2, 206244, Note_on_c, 0, 64, 0
2, 206252, Note_on_c, 0, 80, 86
2, 206264, Note_on_c, 0, 71, 48
2, 206280, Note_on_c, 0, 76, 46
2, 206288, Note_on_c, 0, 59, 50
2, 206296, Note_on_c, 0, 71, 0
2, 206308, Note_on_c, 0, 76, 0
2, 206328, Note_on_c, 0, 80, 0
2, 206456, Note_on_c, 0, 56, 52
2, 206460, Note_on_c, 0, 59, 0
2, 206472, Note_on_c, 0, 83, 95
2, 206476, Note_on_c, 0, 76, 71
2, 206480, Note_on_c, 0, 80, 67
2, 206504, Note_on_c, 0, 76, 0
2, 206508, Note_on_c, 0, 80, 0
2, 206528, Note_on_c, 0, 56, 0
2, 206560, Note_on_c, 0, 83, 0
2, 206656, Note_on_c, 0, 52, 60
2, 206660, Note_on_c, 0, 88, 102
2, 206664, Note_on_c, 0, 83, 93
2, 206664, Note_on_c, 0, 80, 70
2, 206688, Note_on_c, 0, 80, 0
2, 206708, Note_on_c, 0, 83, 0
2, 206728, Note_on_c, 0, 88, 0
2, 206876, Note_on_c, 0, 92, 111
2, 206876, Note_on_c, 0, 47, 69
2, 206888, Note_on_c, 0, 52, 0
2, 206888, Note_on_c, 0, 88, 80
2, 206888, Note_on_c, 0, 83, 71
2, 206912, Note_on_c, 0, 88, 0
2, 206916, Note_on_c, 0, 83, 0
2, 206920, Note_on_c, 0, 47, 0
2, 207000, Note_on_c, 0, 92, 0
2, 207156, Note_on_c, 0, 95, 105
2, 207160, Note_on_c, 0, 92, 79
2, 207164, Note_on_c, 0, 83, 75
2, 207208, Note_on_c, 0, 37, 66
2, 207224, Control_c, 0, 64, 88
2, 207240, Control_c, 0, 64, 0
2, 207348, Control_c, 0, 64, 88
2, 207364, Control_c, 0, 64, 127
2, 207368, Note_on_c, 0, 49, 69
2, 207416, Note_on_c, 0, 49, 0
2, 207436, Note_on_c, 0, 37, 0
2, 207540, Note_on_c, 0, 52, 44
2, 207680, Note_on_c, 0, 92, 0
2, 207696, Note_on_c, 0, 52, 0
2, 207700, Note_on_c, 0, 95, 0
2, 207700, Note_on_c, 0, 56, 56
2, 207724, Note_on_c, 0, 83, 0
2, 207864, Note_on_c, 0, 56, 0
2, 207872, Note_on_c, 0, 93, 103
2, 207884, Note_on_c, 0, 81, 72
2, 207884, Note_on_c, 0, 90, 73
2, 207888, Note_on_c, 0, 61, 62
2, 208024, Note_on_c, 0, 81, 0
2, 208044, Note_on_c, 0, 61, 0
2, 208052, Note_on_c, 0, 90, 0
2, 208080, Note_on_c, 0, 64, 58
2, 208100, Note_on_c, 0, 93, 0
2, 208184, Note_on_c, 0, 92, 109
2, 208192, Note_on_c, 0, 80, 83
2, 208196, Note_on_c, 0, 88, 78
2, 208216, Note_on_c, 0, 88, 0
2, 208232, Note_on_c, 0, 80, 0
2, 208236, Note_on_c, 0, 92, 0
2, 208268, Note_on_c, 0, 64, 0
2, 208288, Note_on_c, 0, 92, 97
2, 208288, Note_on_c, 0, 68, 56
2, 208292, Note_on_c, 0, 80, 69
2, 208300, Note_on_c, 0, 88, 87
2, 208324, Note_on_c, 0, 88, 0
2, 208352, Note_on_c, 0, 88, 51
2, 208412, Note_on_c, 0, 68, 0
2, 208464, Note_on_c, 0, 64, 70
2, 208596, Note_on_c, 0, 64, 0
2, 208632, Note_on_c, 0, 61, 71
2, 208808, Note_on_c, 0, 80, 0
2, 208824, Note_on_c, 0, 56, 70
2, 208836, Note_on_c, 0, 61, 0
2, 208852, Note_on_c, 0, 88, 0
2, 208888, Note_on_c, 0, 56, 0
2, 208980, Note_on_c, 0, 92, 0
2, 209012, Note_on_c, 0, 52, 69
2, 209232, Note_on_c, 0, 49, 67
2, 209260, Note_on_c, 0, 52, 0
2, 209292, Note_on_c, 0, 49, 0
2, 209592, Note_on_c, 0, 99, 111
2, 209604, Note_on_c, 0, 95, 100
2, 209628, Note_on_c, 0, 30, 72
2, 209668, Control_c, 0, 64, 88
2, 209680, Control_c, 0, 64, 0
2, 209800, Control_c, 0, 64, 127
2, 209916, Note_on_c, 0, 30, 0
2, 209916, Note_on_c, 0, 42, 64
2, 209944, Note_on_c, 0, 42, 0
2, 210120, Note_on_c, 0, 49, 70
2, 210284, Note_on_c, 0, 49, 0
2, 210340, Note_on_c, 0, 52, 72
2, 210468, Note_on_c, 0, 95, 0
2, 210540, Note_on_c, 0, 99, 0
2, 210588, Note_on_c, 0, 97, 95
2, 210600, Note_on_c, 0, 52, 0
2, 210604, Note_on_c, 0, 93, 80
2, 210620, Note_on_c, 0, 57, 67
2, 210656, Note_on_c, 0, 97, 0
2, 210672, Note_on_c, 0, 93, 0
2, 210700, Note_on_c, 0, 57, 0
2, 210880, Note_on_c, 0, 95, 100
2, 210884, Note_on_c, 0, 61, 58
2, 210892, Note_on_c, 0, 92, 83
2, 210988, Note_on_c, 0, 61, 0
2, 211000, Note_on_c, 0, 95, 0
2, 211032, Note_on_c, 0, 92, 0
2, 211100, Note_on_c, 0, 93, 100
2, 211100, Note_on_c, 0, 90, 82
2, 211100, Note_on_c, 0, 64, 67
2, 211204, Note_on_c, 0, 90, 0
2, 211216, Note_on_c, 0, 93, 0
2, 211252, Note_on_c, 0, 64, 0
2, 211280, Note_on_c, 0, 92, 89
2, 211284, Note_on_c, 0, 88, 78
2, 211304, Note_on_c, 0, 69, 59
2, 211344, Note_on_c, 0, 92, 0
2, 211352, Note_on_c, 0, 88, 0
2, 211420, Note_on_c, 0, 69, 0
2, 211460, Note_on_c, 0, 88, 89
2, 211472, Note_on_c, 0, 85, 56
2, 211476, Note_on_c, 0, 73, 56
2, 211556, Note_on_c, 0, 88, 0
2, 211568, Note_on_c, 0, 85, 0
2, 211628, Note_on_c, 0, 73, 0
2, 211656, Note_on_c, 0, 87, 83
2, 211656, Note_on_c, 0, 76, 64
2, 211664, Note_on_c, 0, 83, 79
2, 211692, Note_on_c, 0, 76, 0
2, 211724, Note_on_c, 0, 83, 0
2, 211776, Note_on_c, 0, 87, 0
2, 211820, Note_on_c, 0, 85, 81
2, 211828, Note_on_c, 0, 81, 69
2, 211880, Note_on_c, 0, 81, 0
2, 211880, Note_on_c, 0, 85, 0
2, 211988, Note_on_c, 0, 83, 81
2, 211992, Note_on_c, 0, 80, 58
2, 212060, Note_on_c, 0, 80, 0
2, 212060, Note_on_c, 0, 83, 0
2, 212164, Note_on_c, 0, 78, 69
2, 212164, Note_on_c, 0, 81, 79
2, 212228, Note_on_c, 0, 78, 0
2, 212240, Note_on_c, 0, 81, 0
2, 212324, Note_on_c, 0, 80, 79
2, 212336, Note_on_c, 0, 76, 66
2, 212388, Note_on_c, 0, 76, 0
2, 212392, Note_on_c, 0, 80, 0
2, 212504, Note_on_c, 0, 76, 85
2, 212520, Note_on_c, 0, 73, 43
2, 212560, Note_on_c, 0, 73, 0
2, 212568, Note_on_c, 0, 76, 0
2, 212692, Note_on_c, 0, 75, 79
2, 212712, Note_on_c, 0, 71, 66
2, 212740, Note_on_c, 0, 71, 0
2, 212792, Note_on_c, 0, 75, 0
2, 212900, Note_on_c, 0, 73, 77
2, 212924, Note_on_c, 0, 69, 55
2, 212960, Note_on_c, 0, 69, 0
2, 212968, Note_on_c, 0, 73, 0
2, 213120, Note_on_c, 0, 71, 66
2, 213120, Note_on_c, 0, 68, 49
2, 213208, Note_on_c, 0, 68, 0
2, 213208, Note_on_c, 0, 71, 0
2, 213428, Note_on_c, 0, 69, 69
2, 213444, Note_on_c, 0, 66, 41
2, 213536, Note_on_c, 0, 66, 0
2, 213544, Note_on_c, 0, 69, 0
2, 213928, Note_on_c, 0, 68, 69
2, 213952, Note_on_c, 0, 64, 43
2, 214080, Note_on_c, 0, 64, 0
2, 214080, Note_on_c, 0, 68, 0
2, 214600, Note_on_c, 0, 64, 63
2, 214616, Note_on_c, 0, 61, 48
2, 215032, Note_on_c, 0, 61, 0
2, 215032, Note_on_c, 0, 64, 0
2, 215872, Note_on_c, 0, 42, 52
2, 215904, Control_c, 0, 64, 40
2, 215916, Control_c, 0, 64, 88
2, 215932, Control_c, 0, 64, 127
2, 215988, Note_on_c, 0, 42, 0
2, 215988, Note_on_c, 0, 52, 49
2, 216096, Note_on_c, 0, 57, 51
2, 216132, Note_on_c, 0, 52, 0
2, 216180, Note_on_c, 0, 57, 0
2, 216188, Note_on_c, 0, 61, 56
2, 216296, Note_on_c, 0, 64, 65
2, 216300, Note_on_c, 0, 61, 0
2, 216436, Note_on_c, 0, 73, 83
2, 216460, Note_on_c, 0, 64, 0
2, 216744, Note_on_c, 0, 73, 0
2, 217328, Note_on_c, 0, 64, 72
2, 217328, Note_on_c, 0, 42, 36
2, 217336, Note_on_c, 0, 61, 42
2, 217344, Note_on_c, 0, 57, 42
2, 217344, Note_on_c, 0, 52, 40
2, 217504, Control_c, 0, 64, 56
2, 217516, Control_c, 0, 64, 0
2, 217584, Control_c, 0, 64, 40
2, 217600, Control_c, 0, 64, 127
2, 217716, Note_on_c, 0, 61, 0
2, 217720, Note_on_c, 0, 57, 0
2, 217748, Note_on_c, 0, 64, 0
2, 217764, Note_on_c, 0, 52, 0
2, 217780, Note_on_c, 0, 42, 0
2, 218196, Note_on_c, 0, 66, 67
2, 218204, Note_on_c, 0, 61, 57
2, 218216, Note_on_c, 0, 54, 36
2, 218220, Note_on_c, 0, 45, 51
2, 218224, Note_on_c, 0, 52, 39
2, 218344, Control_c, 0, 64, 72
2, 218356, Control_c, 0, 64, 0
2, 218476, Control_c, 0, 64, 88
2, 218492, Control_c, 0, 64, 127
2, 218616, Note_on_c, 0, 52, 0
2, 218628, Note_on_c, 0, 61, 0
2, 218632, Note_on_c, 0, 54, 0
2, 218640, Note_on_c, 0, 45, 0
2, 218676, Note_on_c, 0, 66, 0
2, 219188, Note_on_c, 0, 68, 66
2, 219192, Note_on_c, 0, 40, 48
2, 219192, Note_on_c, 0, 59, 54
2, 219192, Note_on_c, 0, 52, 43
2, 219192, Note_on_c, 0, 56, 48
2, 219192, Note_on_c, 0, 64, 49
2, 219192, Note_on_c, 0, 47, 41
2, 219320, Control_c, 0, 64, 88
2, 219332, Control_c, 0, 64, 40
2, 219348, Control_c, 0, 64, 0
2, 219484, Control_c, 0, 64, 72
2, 219496, Control_c, 0, 64, 127
2, 220108, Note_on_c, 0, 52, 0
2, 220108, Note_on_c, 0, 40, 0
2, 220140, Note_on_c, 0, 47, 0
2, 220356, Note_on_c, 0, 59, 0
2, 220404, Note_on_c, 0, 64, 0
2, 220420, Note_on_c, 0, 56, 0
2, 220488, Note_on_c, 0, 68, 0
2, 220660, Note_on_c, 0, 36, 59
2, 220660, Control_c, 0, 64, 88
2, 220676, Control_c, 0, 64, 0
2, 220736, Note_on_c, 0, 36, 0
2, 220744, Control_c, 0, 64, 24
2, 220756, Control_c, 0, 64, 88
2, 220768, Note_on_c, 0, 44, 50
2, 220768, Control_c, 0, 64, 127
2, 220848, Note_on_c, 0, 48, 66
2, 220860, Note_on_c, 0, 44, 0
2, 220916, Note_on_c, 0, 52, 73
2, 220924, Note_on_c, 0, 48, 0
2, 220948, Note_on_c, 0, 52, 0
2, 220956, Note_on_c, 0, 56, 62
2, 221020, Note_on_c, 0, 56, 0
2, 221028, Note_on_c, 0, 60, 56
2, 221088, Note_on_c, 0, 60, 0
2, 221096, Note_on_c, 0, 64, 79
2, 221180, Note_on_c, 0, 68, 83
2, 221196, Note_on_c, 0, 64, 0
2, 222344, Note_on_c, 0, 68, 0
2, 222652, Note_on_c, 0, 68, 64
2, 223244, Note_on_c, 0, 40, 48
2, 223320, Control_c, 0, 64, 72
2, 223332, Control_c, 0, 64, 0
2, 223456, Control_c, 0, 64, 88
2, 223468, Note_on_c, 0, 47, 41
2, 223468, Control_c, 0, 64, 127
2, 223608, Note_on_c, 0, 52, 41
2, 223748, Note_on_c, 0, 56, 44
2, 223868, Note_on_c, 0, 56, 0
2, 223904, Note_on_c, 0, 59, 44
2, 223936, Note_on_c, 0, 68, 0
2, 224052, Note_on_c, 0, 59, 0
2, 224076, Note_on_c, 0, 64, 47
2, 224304, Note_on_c, 0, 64, 0
2, 224348, Note_on_c, 0, 68, 55
2, 224608, Note_on_c, 0, 40, 0
2, 224672, Note_on_c, 0, 52, 0
2, 224684, Note_on_c, 0, 47, 0
2, 224904, Note_on_c, 0, 68, 0
2, 225896, Control_c, 0, 64, 104
2, 225908, Control_c, 0, 64, 88
2, 225924, Control_c, 0, 64, 72
2, 225948, Control_c, 0, 64, 56
2, 225964, Control_c, 0, 64, 40
2, 225976, Control_c, 0, 64, 24
2, 225988, Control_c, 0, 64, 0
2, 225988, End_track
3, 0, Start_track
3, 0, Title_t, "Franz Liszt"
3, 0, End_track
4, 0, Start_track
4, 0, Title_t, "C 1996 Robert Finley"
4, 0, End_track
0, 0, End_of_file
