0, 0, Header, 1, 5, 120
1, 0, Start_track
1, 0, Time_signature, 4, 2, 24, 8
1, 0, Key_signature, 0, "major"
1, 0, Tempo, 566038
1, 41408, Tempo, 526316
1, 41668, Tempo, 566038
1, 41668, End_track
2, 0, Start_track
2, 0, MIDI_port, 0
2, 0, Title_t, "Sonetto 123 del Petrarca"
2, 0, Program_c, 0, 0
2, 0, Control_c, 0, 7, 127
2, 0, Control_c, 0, 10, 64
2, 398, Control_c, 0, 91, 110
2, 402, Control_c, 0, 64, 56
2, 406, Control_c, 0, 64, 72
2, 410, Control_c, 0, 64, 104
2, 414, Control_c, 0, 64, 127
2, 467, Note_on_c, 0, 38, 33
2, 502, Note_on_c, 0, 38, 0
2, 534, Note_on_c, 0, 56, 39
2, 540, Note_on_c, 0, 65, 40
2, 563, Note_on_c, 0, 56, 0
2, 584, Note_on_c, 0, 65, 0
2, 594, Note_on_c, 0, 68, 52
2, 604, Note_on_c, 0, 59, 26
2, 619, Note_on_c, 0, 59, 0
2, 638, Note_on_c, 0, 68, 0
2, 656, Note_on_c, 0, 56, 25
2, 658, Note_on_c, 0, 65, 44
2, 660, Note_on_c, 0, 77, 69
2, 687, Note_on_c, 0, 56, 0
2, 700, Note_on_c, 0, 65, 0
2, 710, Note_on_c, 0, 68, 39
2, 726, Note_on_c, 0, 59, 22
2, 740, Note_on_c, 0, 59, 0
2, 747, Note_on_c, 0, 68, 0
2, 766, Note_on_c, 0, 56, 28
2, 770, Note_on_c, 0, 65, 38
2, 800, Note_on_c, 0, 56, 0
2, 813, Note_on_c, 0, 65, 0
2, 821, Note_on_c, 0, 68, 43
2, 855, Note_on_c, 0, 68, 0
2, 879, Note_on_c, 0, 56, 32
2, 883, Note_on_c, 0, 65, 43
2, 913, Note_on_c, 0, 56, 0
2, 919, Note_on_c, 0, 65, 0
2, 934, Note_on_c, 0, 68, 45
2, 939, Note_on_c, 0, 77, 0
2, 942, Note_on_c, 0, 59, 28
2, 957, Note_on_c, 0, 59, 0
2, 971, Note_on_c, 0, 68, 0
2, 996, Note_on_c, 0, 77, 59
2, 998, Note_on_c, 0, 56, 27
2, 1002, Note_on_c, 0, 65, 37
2, 1020, Note_on_c, 0, 77, 0
2, 1023, Note_on_c, 0, 56, 0
2, 1033, Note_on_c, 0, 65, 0
2, 1054, Note_on_c, 0, 68, 38
2, 1083, Note_on_c, 0, 68, 0
2, 1116, Note_on_c, 0, 56, 26
2, 1124, Note_on_c, 0, 65, 25
2, 1138, Note_on_c, 0, 65, 0
2, 1141, Note_on_c, 0, 56, 0
2, 1185, Note_on_c, 0, 39, 53
2, 1201, Control_c, 0, 64, 88
2, 1205, Control_c, 0, 64, 0
2, 1234, Control_c, 0, 64, 56
2, 1238, Control_c, 0, 64, 127
2, 1251, Note_on_c, 0, 39, 0
2, 1254, Note_on_c, 0, 61, 37
2, 1255, Note_on_c, 0, 56, 25
2, 1286, Note_on_c, 0, 61, 0
2, 1298, Note_on_c, 0, 56, 0
2, 1310, Note_on_c, 0, 65, 44
2, 1315, Note_on_c, 0, 58, 19
2, 1360, Note_on_c, 0, 58, 0
2, 1382, Note_on_c, 0, 65, 0
2, 1390, Note_on_c, 0, 77, 76
2, 1393, Note_on_c, 0, 61, 38
2, 1394, Note_on_c, 0, 56, 30
2, 1433, Note_on_c, 0, 56, 0
2, 1439, Note_on_c, 0, 61, 0
2, 1453, Note_on_c, 0, 65, 34
2, 1454, Note_on_c, 0, 58, 22
2, 1486, Note_on_c, 0, 58, 0
2, 1495, Note_on_c, 0, 65, 0
2, 1499, Note_on_c, 0, 56, 29
2, 1505, Note_on_c, 0, 61, 32
2, 1540, Note_on_c, 0, 56, 0
2, 1542, Note_on_c, 0, 61, 0
2, 1556, Note_on_c, 0, 65, 36
2, 1592, Note_on_c, 0, 65, 0
2, 1606, Note_on_c, 0, 56, 25
2, 1610, Note_on_c, 0, 61, 27
2, 1640, Note_on_c, 0, 61, 0
2, 1652, Note_on_c, 0, 56, 0
2, 1660, Note_on_c, 0, 65, 38
2, 1661, Note_on_c, 0, 58, 19
2, 1697, Note_on_c, 0, 58, 0
2, 1706, Note_on_c, 0, 65, 0
2, 1712, Note_on_c, 0, 77, 0
2, 1718, Note_on_c, 0, 56, 25
2, 1725, Note_on_c, 0, 61, 35
2, 1730, Note_on_c, 0, 70, 42
2, 1760, Note_on_c, 0, 70, 0
2, 1768, Note_on_c, 0, 61, 0
2, 1768, Note_on_c, 0, 56, 0
2, 1783, Note_on_c, 0, 65, 36
2, 1819, Note_on_c, 0, 65, 0
2, 1846, Note_on_c, 0, 61, 32
2, 1846, Note_on_c, 0, 56, 20
2, 1862, Note_on_c, 0, 56, 0
2, 1869, Note_on_c, 0, 61, 0
2, 1923, Control_c, 0, 64, 104
2, 1927, Control_c, 0, 64, 24
2, 1931, Control_c, 0, 64, 0
2, 1934, Note_on_c, 0, 38, 48
2, 1960, Control_c, 0, 64, 40
2, 1964, Control_c, 0, 64, 127
2, 1978, Note_on_c, 0, 38, 0
2, 1992, Note_on_c, 0, 56, 46
2, 1996, Note_on_c, 0, 65, 42
2, 2022, Note_on_c, 0, 56, 0
2, 2032, Note_on_c, 0, 65, 0
2, 2047, Note_on_c, 0, 68, 43
2, 2055, Note_on_c, 0, 59, 40
2, 2082, Note_on_c, 0, 59, 0
2, 2094, Note_on_c, 0, 68, 0
2, 2107, Note_on_c, 0, 77, 79
2, 2111, Note_on_c, 0, 65, 50
2, 2112, Note_on_c, 0, 56, 26
2, 2146, Note_on_c, 0, 56, 0
2, 2155, Note_on_c, 0, 65, 0
2, 2169, Note_on_c, 0, 68, 40
2, 2178, Note_on_c, 0, 59, 34
2, 2192, Note_on_c, 0, 59, 0
2, 2201, Note_on_c, 0, 68, 0
2, 2221, Note_on_c, 0, 56, 36
2, 2225, Note_on_c, 0, 65, 45
2, 2252, Note_on_c, 0, 56, 0
2, 2267, Note_on_c, 0, 65, 0
2, 2275, Note_on_c, 0, 68, 45
2, 2289, Note_on_c, 0, 59, 19
2, 2300, Note_on_c, 0, 59, 0
2, 2315, Note_on_c, 0, 68, 0
2, 2331, Note_on_c, 0, 56, 34
2, 2336, Note_on_c, 0, 65, 37
2, 2356, Note_on_c, 0, 77, 0
2, 2362, Note_on_c, 0, 56, 0
2, 2366, Note_on_c, 0, 65, 0
2, 2383, Note_on_c, 0, 68, 42
2, 2420, Note_on_c, 0, 68, 0
2, 2446, Note_on_c, 0, 77, 63
2, 2448, Note_on_c, 0, 56, 30
2, 2451, Note_on_c, 0, 65, 39
2, 2470, Note_on_c, 0, 77, 0
2, 2480, Note_on_c, 0, 56, 0
2, 2482, Note_on_c, 0, 65, 0
2, 2502, Note_on_c, 0, 68, 46
2, 2536, Note_on_c, 0, 68, 0
2, 2564, Note_on_c, 0, 56, 32
2, 2567, Note_on_c, 0, 65, 36
2, 2579, Note_on_c, 0, 65, 0
2, 2586, Note_on_c, 0, 56, 0
2, 2648, Note_on_c, 0, 39, 49
2, 2654, Control_c, 0, 64, 104
2, 2658, Control_c, 0, 64, 40
2, 2662, Control_c, 0, 64, 0
2, 2689, Control_c, 0, 64, 40
2, 2694, Control_c, 0, 64, 127
2, 2705, Note_on_c, 0, 61, 39
2, 2705, Note_on_c, 0, 56, 29
2, 2712, Note_on_c, 0, 39, 0
2, 2733, Note_on_c, 0, 61, 0
2, 2748, Note_on_c, 0, 56, 0
2, 2758, Note_on_c, 0, 65, 52
2, 2761, Note_on_c, 0, 58, 26
2, 2811, Note_on_c, 0, 58, 0
2, 2830, Note_on_c, 0, 65, 0
2, 2834, Note_on_c, 0, 77, 69
2, 2846, Note_on_c, 0, 56, 36
2, 2848, Note_on_c, 0, 61, 37
2, 2883, Note_on_c, 0, 56, 0
2, 2888, Note_on_c, 0, 61, 0
2, 2898, Note_on_c, 0, 65, 45
2, 2902, Note_on_c, 0, 58, 23
2, 2939, Note_on_c, 0, 58, 0
2, 2940, Note_on_c, 0, 65, 0
2, 2948, Note_on_c, 0, 56, 25
2, 2952, Note_on_c, 0, 61, 31
2, 2978, Note_on_c, 0, 61, 0
2, 2997, Note_on_c, 0, 56, 0
2, 3004, Note_on_c, 0, 58, 27
2, 3004, Note_on_c, 0, 65, 36
2, 3017, Note_on_c, 0, 65, 0
2, 3038, Note_on_c, 0, 58, 0
2, 3053, Note_on_c, 0, 56, 25
2, 3056, Note_on_c, 0, 61, 27
2, 3092, Note_on_c, 0, 61, 0
2, 3096, Note_on_c, 0, 56, 0
2, 3107, Note_on_c, 0, 58, 22
2, 3111, Note_on_c, 0, 65, 24
2, 3147, Note_on_c, 0, 65, 0
2, 3151, Note_on_c, 0, 58, 0
2, 3167, Note_on_c, 0, 56, 20
2, 3168, Note_on_c, 0, 70, 49
2, 3170, Note_on_c, 0, 77, 0
2, 3171, Note_on_c, 0, 61, 27
2, 3198, Note_on_c, 0, 70, 0
2, 3203, Note_on_c, 0, 61, 0
2, 3211, Note_on_c, 0, 56, 0
2, 3230, Note_on_c, 0, 65, 26
2, 3232, Note_on_c, 0, 58, 15
2, 3246, Note_on_c, 0, 65, 0
2, 3275, Note_on_c, 0, 58, 0
2, 3289, Note_on_c, 0, 56, 27
2, 3298, Note_on_c, 0, 61, 22
2, 3307, Note_on_c, 0, 56, 0
2, 3311, Note_on_c, 0, 61, 0
2, 3380, Control_c, 0, 64, 104
2, 3384, Control_c, 0, 64, 40
2, 3388, Note_on_c, 0, 50, 43
2, 3388, Control_c, 0, 64, 0
2, 3390, Note_on_c, 0, 38, 42
2, 3402, Note_on_c, 0, 38, 0
2, 3408, Control_c, 0, 64, 88
2, 3412, Control_c, 0, 64, 127
2, 3416, Note_on_c, 0, 50, 0
2, 3470, Note_on_c, 0, 56, 40
2, 3472, Note_on_c, 0, 65, 44
2, 3494, Note_on_c, 0, 56, 0
2, 3517, Note_on_c, 0, 68, 48
2, 3525, Note_on_c, 0, 65, 0
2, 3526, Note_on_c, 0, 59, 46
2, 3546, Note_on_c, 0, 68, 0
2, 3550, Note_on_c, 0, 59, 0
2, 3575, Note_on_c, 0, 89, 82
2, 3579, Note_on_c, 0, 77, 66
2, 3580, Note_on_c, 0, 65, 51
2, 3582, Note_on_c, 0, 56, 34
2, 3611, Note_on_c, 0, 56, 0
2, 3633, Note_on_c, 0, 65, 0
2, 3633, Note_on_c, 0, 59, 41
2, 3634, Note_on_c, 0, 68, 32
2, 3656, Note_on_c, 0, 68, 0
2, 3668, Note_on_c, 0, 59, 0
2, 3690, Note_on_c, 0, 56, 32
2, 3708, Note_on_c, 0, 56, 0
2, 3749, Note_on_c, 0, 37, 48
2, 3751, Control_c, 0, 64, 72
2, 3754, Note_on_c, 0, 49, 45
2, 3755, Control_c, 0, 64, 24
2, 3759, Control_c, 0, 64, 0
2, 3763, Control_c, 0, 64, 40
2, 3766, Note_on_c, 0, 37, 0
2, 3767, Control_c, 0, 64, 104
2, 3769, Note_on_c, 0, 49, 0
2, 3771, Control_c, 0, 64, 127
2, 3811, Note_on_c, 0, 56, 36
2, 3812, Note_on_c, 0, 65, 52
2, 3813, Note_on_c, 0, 77, 0
2, 3821, Note_on_c, 0, 89, 0
2, 3834, Note_on_c, 0, 56, 0
2, 3844, Note_on_c, 0, 65, 0
2, 3858, Note_on_c, 0, 68, 53
2, 3864, Note_on_c, 0, 59, 53
2, 3888, Note_on_c, 0, 59, 0
2, 3891, Note_on_c, 0, 68, 0
2, 3907, Note_on_c, 0, 89, 90
2, 3910, Note_on_c, 0, 77, 72
2, 3911, Note_on_c, 0, 65, 58
2, 3916, Note_on_c, 0, 56, 42
2, 3946, Note_on_c, 0, 56, 0
2, 3960, Note_on_c, 0, 68, 44
2, 3964, Note_on_c, 0, 65, 0
2, 3964, Note_on_c, 0, 59, 44
2, 3990, Note_on_c, 0, 68, 0
2, 4004, Note_on_c, 0, 77, 0
2, 4007, Note_on_c, 0, 56, 57
2, 4008, Note_on_c, 0, 65, 57
2, 4012, Note_on_c, 0, 59, 0
2, 4018, Note_on_c, 0, 89, 0
2, 4018, Note_on_c, 0, 56, 0
2, 4020, Note_on_c, 0, 65, 0
2, 4065, Note_on_c, 0, 89, 88
2, 4068, Note_on_c, 0, 77, 75
2, 4121, Note_on_c, 0, 66, 51
2, 4122, Control_c, 0, 64, 72
2, 4123, Note_on_c, 0, 57, 53
2, 4126, Control_c, 0, 64, 0
2, 4152, Note_on_c, 0, 57, 0
2, 4153, Control_c, 0, 64, 127
2, 4157, Note_on_c, 0, 66, 0
2, 4166, Note_on_c, 0, 77, 0
2, 4170, Note_on_c, 0, 69, 67
2, 4170, Note_on_c, 0, 61, 47
2, 4188, Note_on_c, 0, 69, 0
2, 4202, Note_on_c, 0, 61, 0
2, 4204, Note_on_c, 0, 89, 0
2, 4222, Note_on_c, 0, 66, 46
2, 4223, Note_on_c, 0, 90, 87
2, 4227, Note_on_c, 0, 78, 79
2, 4260, Note_on_c, 0, 66, 0
2, 4272, Note_on_c, 0, 61, 49
2, 4275, Note_on_c, 0, 69, 53
2, 4302, Note_on_c, 0, 69, 0
2, 4328, Note_on_c, 0, 66, 61
2, 4332, Note_on_c, 0, 57, 63
2, 4335, Note_on_c, 0, 66, 0
2, 4337, Note_on_c, 0, 61, 0
2, 4340, Note_on_c, 0, 57, 0
2, 4396, Control_c, 0, 64, 56
2, 4400, Note_on_c, 0, 36, 64
2, 4400, Control_c, 0, 64, 0
2, 4403, Note_on_c, 0, 48, 68
2, 4410, Note_on_c, 0, 36, 0
2, 4416, Control_c, 0, 64, 127
2, 4420, Note_on_c, 0, 48, 0
2, 4423, Note_on_c, 0, 78, 0
2, 4471, Note_on_c, 0, 67, 56
2, 4473, Note_on_c, 0, 58, 48
2, 4483, Note_on_c, 0, 90, 0
2, 4492, Note_on_c, 0, 91, 90
2, 4496, Note_on_c, 0, 79, 70
2, 4500, Note_on_c, 0, 58, 0
2, 4510, Note_on_c, 0, 67, 0
2, 4525, Note_on_c, 0, 70, 55
2, 4531, Note_on_c, 0, 64, 62
2, 4534, Note_on_c, 0, 79, 0
2, 4550, Note_on_c, 0, 91, 0
2, 4551, Note_on_c, 0, 70, 0
2, 4555, Note_on_c, 0, 64, 0
2, 4572, Note_on_c, 0, 90, 87
2, 4575, Note_on_c, 0, 78, 74
2, 4583, Note_on_c, 0, 67, 59
2, 4587, Note_on_c, 0, 58, 37
2, 4608, Note_on_c, 0, 58, 0
2, 4623, Note_on_c, 0, 67, 0
2, 4626, Note_on_c, 0, 78, 0
2, 4630, Note_on_c, 0, 70, 59
2, 4630, Note_on_c, 0, 64, 58
2, 4653, Note_on_c, 0, 70, 0
2, 4658, Note_on_c, 0, 90, 0
2, 4666, Note_on_c, 0, 64, 0
2, 4670, Note_on_c, 0, 67, 64
2, 4678, Note_on_c, 0, 67, 0
2, 4682, Note_on_c, 0, 58, 44
2, 4690, Note_on_c, 0, 58, 0
2, 4720, Note_on_c, 0, 91, 92
2, 4721, Note_on_c, 0, 79, 77
2, 4736, Note_on_c, 0, 79, 0
2, 4736, Note_on_c, 0, 91, 0
2, 4751, Note_on_c, 0, 91, 90
2, 4751, Note_on_c, 0, 79, 83
2, 4752, Control_c, 0, 64, 88
2, 4755, Control_c, 0, 64, 0
2, 4761, Note_on_c, 0, 35, 55
2, 4763, Note_on_c, 0, 47, 56
2, 4768, Note_on_c, 0, 35, 0
2, 4776, Note_on_c, 0, 47, 0
2, 4776, Control_c, 0, 64, 88
2, 4780, Control_c, 0, 64, 127
2, 4829, Note_on_c, 0, 59, 55
2, 4834, Note_on_c, 0, 68, 52
2, 4840, Note_on_c, 0, 59, 0
2, 4855, Note_on_c, 0, 79, 0
2, 4870, Note_on_c, 0, 68, 0
2, 4884, Note_on_c, 0, 71, 43
2, 4888, Note_on_c, 0, 64, 53
2, 4905, Note_on_c, 0, 64, 0
2, 4906, Note_on_c, 0, 71, 0
2, 4930, Note_on_c, 0, 91, 0
2, 4937, Note_on_c, 0, 92, 78
2, 4939, Note_on_c, 0, 68, 38
2, 4940, Note_on_c, 0, 80, 62
2, 4947, Note_on_c, 0, 59, 46
2, 4966, Note_on_c, 0, 59, 0
2, 4986, Note_on_c, 0, 68, 0
2, 4998, Note_on_c, 0, 71, 53
2, 5002, Note_on_c, 0, 64, 47
2, 5023, Note_on_c, 0, 71, 0
2, 5034, Note_on_c, 0, 64, 0
2, 5047, Note_on_c, 0, 68, 50
2, 5061, Note_on_c, 0, 59, 24
2, 5086, Note_on_c, 0, 59, 0
2, 5091, Note_on_c, 0, 68, 0
2, 5107, Note_on_c, 0, 64, 39
2, 5108, Note_on_c, 0, 71, 30
2, 5132, Note_on_c, 0, 71, 0
2, 5143, Note_on_c, 0, 80, 0
2, 5144, Note_on_c, 0, 64, 0
2, 5147, Note_on_c, 0, 92, 0
2, 5159, Note_on_c, 0, 68, 34
2, 5169, Note_on_c, 0, 59, 28
2, 5192, Note_on_c, 0, 59, 0
2, 5209, Note_on_c, 0, 68, 0
2, 5219, Note_on_c, 0, 71, 28
2, 5221, Note_on_c, 0, 64, 38
2, 5239, Note_on_c, 0, 71, 0
2, 5254, Note_on_c, 0, 64, 0
2, 5281, Note_on_c, 0, 68, 28
2, 5287, Note_on_c, 0, 59, 31
2, 5322, Note_on_c, 0, 59, 0
2, 5336, Note_on_c, 0, 68, 0
2, 5356, Note_on_c, 0, 71, 33
2, 5356, Note_on_c, 0, 64, 36
2, 5405, Note_on_c, 0, 64, 0
2, 5405, Note_on_c, 0, 71, 0
2, 5440, Note_on_c, 0, 68, 20
2, 5449, Note_on_c, 0, 59, 17
2, 5471, Note_on_c, 0, 59, 0
2, 5478, Note_on_c, 0, 68, 0
2, 5823, Note_on_c, 0, 68, 58
2, 5828, Note_on_c, 0, 64, 39
2, 5831, Control_c, 0, 64, 88
2, 5836, Control_c, 0, 64, 40
2, 5840, Control_c, 0, 64, 0
2, 5872, Control_c, 0, 64, 88
2, 5876, Control_c, 0, 64, 127
2, 5878, Note_on_c, 0, 68, 0
2, 5879, Note_on_c, 0, 64, 0
2, 5921, Note_on_c, 0, 69, 69
2, 5923, Note_on_c, 0, 66, 38
2, 5958, Note_on_c, 0, 66, 0
2, 5966, Note_on_c, 0, 69, 0
2, 6001, Note_on_c, 0, 70, 73
2, 6006, Note_on_c, 0, 67, 49
2, 6017, Note_on_c, 0, 67, 0
2, 6025, Note_on_c, 0, 70, 0
2, 6102, Note_on_c, 0, 40, 39
2, 6114, Control_c, 0, 64, 88
2, 6118, Control_c, 0, 64, 0
2, 6119, Note_on_c, 0, 70, 71
2, 6122, Note_on_c, 0, 67, 50
2, 6135, Note_on_c, 0, 67, 0
2, 6139, Control_c, 0, 64, 88
2, 6143, Note_on_c, 0, 40, 0
2, 6143, Control_c, 0, 64, 127
2, 6199, Note_on_c, 0, 59, 35
2, 6199, Note_on_c, 0, 50, 42
2, 6224, Note_on_c, 0, 59, 0
2, 6234, Note_on_c, 0, 50, 0
2, 6253, Note_on_c, 0, 56, 30
2, 6254, Note_on_c, 0, 62, 35
2, 6267, Note_on_c, 0, 62, 0
2, 6278, Note_on_c, 0, 70, 0
2, 6292, Note_on_c, 0, 56, 0
2, 6310, Note_on_c, 0, 71, 62
2, 6310, Note_on_c, 0, 59, 51
2, 6310, Note_on_c, 0, 68, 35
2, 6317, Note_on_c, 0, 50, 40
2, 6320, Control_c, 0, 64, 88
2, 6324, Control_c, 0, 64, 24
2, 6328, Control_c, 0, 64, 0
2, 6344, Control_c, 0, 64, 72
2, 6346, Note_on_c, 0, 59, 0
2, 6348, Control_c, 0, 64, 127
2, 6362, Note_on_c, 0, 50, 0
2, 6367, Note_on_c, 0, 56, 32
2, 6375, Note_on_c, 0, 62, 25
2, 6406, Note_on_c, 0, 62, 0
2, 6420, Note_on_c, 0, 56, 0
2, 6420, Note_on_c, 0, 59, 41
2, 6428, Note_on_c, 0, 50, 36
2, 6448, Note_on_c, 0, 59, 0
2, 6470, Note_on_c, 0, 50, 0
2, 6478, Note_on_c, 0, 56, 30
2, 6480, Note_on_c, 0, 62, 19
2, 6513, Note_on_c, 0, 62, 0
2, 6527, Note_on_c, 0, 59, 33
2, 6528, Note_on_c, 0, 56, 0
2, 6536, Note_on_c, 0, 50, 32
2, 6561, Note_on_c, 0, 59, 0
2, 6579, Note_on_c, 0, 50, 0
2, 6582, Note_on_c, 0, 62, 32
2, 6588, Note_on_c, 0, 56, 25
2, 6639, Note_on_c, 0, 62, 0
2, 6640, Note_on_c, 0, 56, 0
2, 6644, Note_on_c, 0, 59, 27
2, 6646, Note_on_c, 0, 50, 36
2, 6693, Note_on_c, 0, 50, 0
2, 6696, Note_on_c, 0, 59, 0
2, 6710, Note_on_c, 0, 56, 25
2, 6712, Note_on_c, 0, 62, 27
2, 6766, Note_on_c, 0, 56, 0
2, 6790, Note_on_c, 0, 59, 22
2, 6793, Note_on_c, 0, 50, 21
2, 6808, Note_on_c, 0, 50, 0
2, 6819, Note_on_c, 0, 62, 0
2, 6824, Note_on_c, 0, 59, 0
2, 6840, Note_on_c, 0, 71, 0
2, 6844, Note_on_c, 0, 68, 0
2, 7054, Control_c, 0, 64, 104
2, 7058, Control_c, 0, 64, 40
2, 7062, Control_c, 0, 64, 0
2, 7098, Control_c, 0, 64, 24
2, 7103, Control_c, 0, 64, 72
2, 7107, Control_c, 0, 64, 104
2, 7111, Control_c, 0, 64, 127
2, 7138, Note_on_c, 0, 71, 60
2, 7142, Control_c, 0, 64, 72
2, 7146, Control_c, 0, 64, 24
2, 7150, Control_c, 0, 64, 0
2, 7159, Control_c, 0, 64, 40
2, 7163, Control_c, 0, 64, 88
2, 7167, Control_c, 0, 64, 127
2, 7182, Note_on_c, 0, 71, 0
2, 7240, Note_on_c, 0, 72, 79
2, 7244, Control_c, 0, 64, 72
2, 7248, Control_c, 0, 64, 40
2, 7260, Control_c, 0, 64, 104
2, 7264, Control_c, 0, 64, 127
2, 7273, Note_on_c, 0, 72, 0
2, 7312, Note_on_c, 0, 73, 70
2, 7316, Control_c, 0, 64, 88
2, 7320, Control_c, 0, 64, 40
2, 7324, Control_c, 0, 64, 0
2, 7336, Control_c, 0, 64, 56
2, 7340, Control_c, 0, 64, 104
2, 7344, Control_c, 0, 64, 127
2, 7346, Note_on_c, 0, 73, 0
2, 7379, Note_on_c, 0, 74, 80
2, 7385, Control_c, 0, 64, 56
2, 7389, Control_c, 0, 64, 0
2, 7409, Control_c, 0, 64, 24
2, 7413, Control_c, 0, 64, 72
2, 7417, Control_c, 0, 64, 127
2, 7419, Note_on_c, 0, 74, 0
2, 7472, Note_on_c, 0, 75, 74
2, 7497, Control_c, 0, 64, 88
2, 7502, Control_c, 0, 64, 24
2, 7506, Control_c, 0, 64, 0
2, 7534, Control_c, 0, 64, 72
2, 7538, Control_c, 0, 64, 127
2, 7566, Control_c, 0, 64, 88
2, 7570, Control_c, 0, 64, 40
2, 7574, Control_c, 0, 64, 24
2, 7578, Control_c, 0, 64, 56
2, 7582, Control_c, 0, 64, 88
2, 7586, Note_on_c, 0, 63, 33
2, 7586, Control_c, 0, 64, 127
2, 7589, Note_on_c, 0, 68, 27
2, 7590, Note_on_c, 0, 56, 23
2, 7592, Note_on_c, 0, 51, 32
2, 7594, Note_on_c, 0, 60, 33
2, 7614, Note_on_c, 0, 60, 0
2, 7614, Note_on_c, 0, 75, 0
2, 7615, Note_on_c, 0, 56, 0
2, 7617, Note_on_c, 0, 51, 0
2, 7619, Note_on_c, 0, 63, 0
2, 7646, Note_on_c, 0, 68, 0
2, 7652, Note_on_c, 0, 76, 82
2, 7667, Control_c, 0, 64, 72
2, 7671, Control_c, 0, 64, 0
2, 7695, Control_c, 0, 64, 72
2, 7699, Control_c, 0, 64, 127
2, 7756, Control_c, 0, 64, 56
2, 7760, Control_c, 0, 64, 0
2, 7766, Note_on_c, 0, 64, 51
2, 7767, Note_on_c, 0, 39, 38
2, 7768, Note_on_c, 0, 68, 34
2, 7768, Control_c, 0, 64, 24
2, 7772, Control_c, 0, 64, 56
2, 7776, Control_c, 0, 64, 104
2, 7780, Control_c, 0, 64, 127
2, 7783, Note_on_c, 0, 64, 0
2, 7788, Note_on_c, 0, 39, 0
2, 7789, Note_on_c, 0, 76, 0
2, 7809, Note_on_c, 0, 68, 0
2, 7843, Note_on_c, 0, 77, 82
2, 7861, Control_c, 0, 64, 56
2, 7865, Control_c, 0, 64, 0
2, 7888, Control_c, 0, 64, 88
2, 7892, Control_c, 0, 64, 127
2, 7954, Note_on_c, 0, 51, 35
2, 7954, Note_on_c, 0, 68, 38
2, 7955, Note_on_c, 0, 77, 0
2, 7955, Note_on_c, 0, 65, 31
2, 7958, Note_on_c, 0, 61, 27
2, 7958, Note_on_c, 0, 56, 23
2, 7976, Note_on_c, 0, 51, 0
2, 7978, Note_on_c, 0, 61, 0
2, 7978, Note_on_c, 0, 68, 0
2, 7980, Note_on_c, 0, 56, 0
2, 7992, Note_on_c, 0, 65, 0
2, 8035, Note_on_c, 0, 70, 62
2, 8046, Control_c, 0, 64, 104
2, 8050, Control_c, 0, 64, 40
2, 8054, Control_c, 0, 64, 0
2, 8062, Control_c, 0, 64, 56
2, 8066, Control_c, 0, 64, 104
2, 8070, Control_c, 0, 64, 127
2, 8085, Note_on_c, 0, 70, 0
2, 8143, Control_c, 0, 64, 88
2, 8147, Control_c, 0, 64, 24
2, 8148, Note_on_c, 0, 55, 40
2, 8148, Note_on_c, 0, 63, 38
2, 8151, Note_on_c, 0, 39, 32
2, 8151, Control_c, 0, 64, 0
2, 8153, Note_on_c, 0, 61, 33
2, 8159, Control_c, 0, 64, 40
2, 8163, Control_c, 0, 64, 88
2, 8167, Control_c, 0, 64, 127
2, 8171, Note_on_c, 0, 55, 0
2, 8177, Note_on_c, 0, 39, 0
2, 8183, Note_on_c, 0, 61, 0
2, 8186, Note_on_c, 0, 63, 0
2, 8237, Note_on_c, 0, 75, 71
2, 8268, Control_c, 0, 64, 72
2, 8271, Control_c, 0, 64, 0
2, 8300, Control_c, 0, 64, 72
2, 8304, Control_c, 0, 64, 127
2, 8346, Note_on_c, 0, 63, 28
2, 8349, Note_on_c, 0, 51, 35
2, 8350, Note_on_c, 0, 56, 27
2, 8350, Note_on_c, 0, 60, 36
2, 8351, Note_on_c, 0, 68, 36
2, 8362, Note_on_c, 0, 75, 0
2, 8364, Note_on_c, 0, 60, 0
2, 8364, Note_on_c, 0, 51, 0
2, 8367, Note_on_c, 0, 56, 0
2, 8369, Note_on_c, 0, 63, 0
2, 8380, Note_on_c, 0, 68, 0
2, 8407, Note_on_c, 0, 76, 79
2, 8425, Control_c, 0, 64, 72
2, 8430, Control_c, 0, 64, 0
2, 8454, Control_c, 0, 64, 40
2, 8458, Control_c, 0, 64, 104
2, 8462, Control_c, 0, 64, 127
2, 8514, Note_on_c, 0, 64, 46
2, 8516, Note_on_c, 0, 68, 37
2, 8516, Note_on_c, 0, 39, 35
2, 8527, Note_on_c, 0, 64, 0
2, 8533, Note_on_c, 0, 76, 0
2, 8533, Note_on_c, 0, 39, 0
2, 8541, Note_on_c, 0, 68, 0
2, 8588, Note_on_c, 0, 77, 80
2, 8618, Control_c, 0, 64, 40
2, 8622, Control_c, 0, 64, 0
2, 8647, Control_c, 0, 64, 127
2, 8699, Note_on_c, 0, 77, 0
2, 8701, Note_on_c, 0, 65, 40
2, 8703, Note_on_c, 0, 56, 25
2, 8704, Note_on_c, 0, 68, 35
2, 8705, Note_on_c, 0, 61, 22
2, 8705, Note_on_c, 0, 51, 25
2, 8724, Note_on_c, 0, 68, 0
2, 8727, Note_on_c, 0, 56, 0
2, 8729, Note_on_c, 0, 51, 0
2, 8730, Note_on_c, 0, 61, 0
2, 8734, Note_on_c, 0, 65, 0
2, 8784, Note_on_c, 0, 70, 60
2, 8800, Control_c, 0, 64, 104
2, 8804, Control_c, 0, 64, 88
2, 8808, Control_c, 0, 64, 104
2, 8812, Control_c, 0, 64, 127
2, 8839, Note_on_c, 0, 70, 0
2, 8905, Control_c, 0, 64, 88
2, 8907, Note_on_c, 0, 55, 35
2, 8907, Note_on_c, 0, 63, 37
2, 8908, Note_on_c, 0, 39, 31
2, 8910, Control_c, 0, 64, 24
2, 8910, Note_on_c, 0, 61, 30
2, 8913, Control_c, 0, 64, 0
2, 8930, Note_on_c, 0, 55, 0
2, 8930, Control_c, 0, 64, 72
2, 8934, Control_c, 0, 64, 127
2, 8938, Note_on_c, 0, 39, 0
2, 8939, Note_on_c, 0, 61, 0
2, 8946, Note_on_c, 0, 63, 0
2, 8998, Note_on_c, 0, 75, 67
2, 9022, Control_c, 0, 64, 40
2, 9026, Control_c, 0, 64, 0
2, 9050, Control_c, 0, 64, 127
2, 9106, Note_on_c, 0, 63, 34
2, 9108, Note_on_c, 0, 68, 43
2, 9108, Note_on_c, 0, 56, 30
2, 9112, Note_on_c, 0, 51, 35
2, 9118, Note_on_c, 0, 75, 0
2, 9118, Note_on_c, 0, 60, 31
2, 9121, Note_on_c, 0, 51, 0
2, 9127, Note_on_c, 0, 56, 0
2, 9128, Note_on_c, 0, 63, 0
2, 9128, Note_on_c, 0, 60, 0
2, 9140, Note_on_c, 0, 68, 0
2, 9172, Note_on_c, 0, 76, 77
2, 9184, Control_c, 0, 64, 104
2, 9188, Control_c, 0, 64, 0
2, 9216, Control_c, 0, 64, 104
2, 9220, Control_c, 0, 64, 127
2, 9264, Control_c, 0, 64, 72
2, 9268, Control_c, 0, 64, 0
2, 9272, Note_on_c, 0, 64, 59
2, 9272, Note_on_c, 0, 39, 45
2, 9274, Note_on_c, 0, 68, 48
2, 9280, Control_c, 0, 64, 40
2, 9284, Control_c, 0, 64, 88
2, 9287, Note_on_c, 0, 64, 0
2, 9288, Control_c, 0, 64, 127
2, 9290, Note_on_c, 0, 39, 0
2, 9296, Note_on_c, 0, 76, 0
2, 9296, Note_on_c, 0, 68, 0
2, 9333, Note_on_c, 0, 77, 86
2, 9341, Control_c, 0, 64, 88
2, 9344, Control_c, 0, 64, 0
2, 9369, Control_c, 0, 64, 56
2, 9373, Control_c, 0, 64, 127
2, 9410, Control_c, 0, 64, 88
2, 9414, Control_c, 0, 64, 0
2, 9426, Note_on_c, 0, 65, 49
2, 9428, Note_on_c, 0, 51, 46
2, 9428, Note_on_c, 0, 69, 51
2, 9429, Note_on_c, 0, 60, 56
2, 9430, Control_c, 0, 64, 40
2, 9430, Note_on_c, 0, 57, 38
2, 9434, Control_c, 0, 64, 88
2, 9437, Note_on_c, 0, 77, 0
2, 9438, Control_c, 0, 64, 127
2, 9439, Note_on_c, 0, 57, 0
2, 9441, Note_on_c, 0, 65, 0
2, 9441, Note_on_c, 0, 60, 0
2, 9443, Note_on_c, 0, 51, 0
2, 9455, Note_on_c, 0, 69, 0
2, 9482, Note_on_c, 0, 78, 87
2, 9490, Control_c, 0, 64, 56
2, 9493, Control_c, 0, 64, 0
2, 9514, Control_c, 0, 64, 56
2, 9518, Control_c, 0, 64, 127
2, 9559, Control_c, 0, 64, 24
2, 9563, Control_c, 0, 64, 0
2, 9570, Note_on_c, 0, 39, 53
2, 9573, Note_on_c, 0, 69, 64
2, 9573, Note_on_c, 0, 66, 52
2, 9579, Control_c, 0, 64, 72
2, 9583, Control_c, 0, 64, 127
2, 9588, Note_on_c, 0, 39, 0
2, 9592, Note_on_c, 0, 78, 0
2, 9592, Note_on_c, 0, 69, 0
2, 9594, Note_on_c, 0, 66, 0
2, 9627, Note_on_c, 0, 78, 90
2, 9652, Control_c, 0, 64, 0
2, 9676, Control_c, 0, 64, 72
2, 9680, Control_c, 0, 64, 127
2, 9716, Note_on_c, 0, 70, 67
2, 9716, Note_on_c, 0, 66, 55
2, 9716, Control_c, 0, 64, 40
2, 9720, Control_c, 0, 64, 0
2, 9722, Note_on_c, 0, 51, 55
2, 9722, Note_on_c, 0, 64, 52
2, 9725, Note_on_c, 0, 61, 44
2, 9725, Note_on_c, 0, 58, 37
2, 9735, Note_on_c, 0, 58, 0
2, 9735, Note_on_c, 0, 51, 0
2, 9736, Note_on_c, 0, 66, 0
2, 9736, Control_c, 0, 64, 40
2, 9737, Note_on_c, 0, 64, 0
2, 9739, Note_on_c, 0, 61, 0
2, 9740, Control_c, 0, 64, 104
2, 9744, Control_c, 0, 64, 127
2, 9745, Note_on_c, 0, 78, 0
2, 9780, Note_on_c, 0, 70, 0
2, 9782, Note_on_c, 0, 79, 92
2, 9801, Control_c, 0, 64, 40
2, 9805, Control_c, 0, 64, 0
2, 9824, Control_c, 0, 64, 104
2, 9828, Control_c, 0, 64, 127
2, 9861, Control_c, 0, 64, 88
2, 9865, Control_c, 0, 64, 0
2, 9869, Note_on_c, 0, 67, 56
2, 9871, Note_on_c, 0, 70, 59
2, 9873, Note_on_c, 0, 39, 46
2, 9881, Control_c, 0, 64, 40
2, 9882, Note_on_c, 0, 67, 0
2, 9886, Note_on_c, 0, 70, 0
2, 9886, Control_c, 0, 64, 127
2, 9892, Note_on_c, 0, 39, 0
2, 9898, Note_on_c, 0, 79, 0
2, 9936, Note_on_c, 0, 79, 86
2, 9950, Note_on_c, 0, 79, 0
2, 9965, Note_on_c, 0, 79, 77
2, 9996, Note_on_c, 0, 79, 0
2, 10027, Note_on_c, 0, 84, 92
2, 10035, Control_c, 0, 64, 104
2, 10039, Control_c, 0, 64, 0
2, 10067, Control_c, 0, 64, 127
2, 10078, Note_on_c, 0, 84, 0
2, 10103, Note_on_c, 0, 51, 34
2, 10112, Note_on_c, 0, 51, 0
2, 10119, Note_on_c, 0, 58, 34
2, 10134, Note_on_c, 0, 67, 45
2, 10138, Note_on_c, 0, 61, 32
2, 10151, Note_on_c, 0, 63, 42
2, 10152, Note_on_c, 0, 58, 0
2, 10163, Note_on_c, 0, 67, 0
2, 10164, Note_on_c, 0, 73, 60
2, 10165, Note_on_c, 0, 61, 0
2, 10167, Note_on_c, 0, 63, 0
2, 10178, Note_on_c, 0, 73, 0
2, 10246, Note_on_c, 0, 84, 81
2, 10270, Note_on_c, 0, 84, 0
2, 10352, Note_on_c, 0, 84, 82
2, 10623, Note_on_c, 0, 84, 0
2, 10628, Note_on_c, 0, 82, 50
2, 10700, Note_on_c, 0, 82, 0
2, 11026, Control_c, 0, 64, 88
2, 11031, Control_c, 0, 64, 24
2, 11035, Control_c, 0, 64, 0
2, 11048, Note_on_c, 0, 63, 54
2, 11074, Control_c, 0, 64, 72
2, 11079, Control_c, 0, 64, 127
2, 11097, Note_on_c, 0, 63, 0
2, 11137, Note_on_c, 0, 68, 62
2, 11160, Control_c, 0, 64, 56
2, 11164, Control_c, 0, 64, 0
2, 11180, Control_c, 0, 64, 40
2, 11184, Control_c, 0, 64, 88
2, 11188, Control_c, 0, 64, 127
2, 11202, Note_on_c, 0, 68, 0
2, 11210, Note_on_c, 0, 70, 68
2, 11219, Control_c, 0, 64, 72
2, 11224, Control_c, 0, 64, 0
2, 11248, Control_c, 0, 64, 40
2, 11252, Control_c, 0, 64, 127
2, 11289, Note_on_c, 0, 70, 0
2, 11295, Note_on_c, 0, 72, 73
2, 11309, Control_c, 0, 64, 104
2, 11313, Control_c, 0, 64, 56
2, 11317, Control_c, 0, 64, 0
2, 11361, Control_c, 0, 64, 56
2, 11365, Control_c, 0, 64, 127
2, 11399, Note_on_c, 0, 44, 31
2, 11434, Note_on_c, 0, 51, 31
2, 11437, Note_on_c, 0, 44, 0
2, 11446, Note_on_c, 0, 51, 0
2, 11446, Note_on_c, 0, 56, 34
2, 11450, Note_on_c, 0, 60, 42
2, 11458, Note_on_c, 0, 56, 0
2, 11469, Note_on_c, 0, 60, 0
2, 11471, Note_on_c, 0, 63, 45
2, 11483, Note_on_c, 0, 72, 0
2, 11492, Note_on_c, 0, 63, 0
2, 11495, Note_on_c, 0, 68, 44
2, 11514, Note_on_c, 0, 68, 0
2, 11607, Note_on_c, 0, 72, 71
2, 11634, Note_on_c, 0, 72, 0
2, 11704, Note_on_c, 0, 72, 82
2, 11715, Control_c, 0, 64, 56
2, 11720, Control_c, 0, 64, 0
2, 11744, Control_c, 0, 64, 56
2, 11748, Control_c, 0, 64, 127
2, 11774, Note_on_c, 0, 75, 81
2, 11779, Note_on_c, 0, 72, 0
2, 11816, Note_on_c, 0, 75, 0
2, 11825, Note_on_c, 0, 73, 79
2, 11839, Note_on_c, 0, 44, 43
2, 11847, Note_on_c, 0, 73, 0
2, 11870, Note_on_c, 0, 53, 40
2, 11876, Note_on_c, 0, 61, 22
2, 11888, Note_on_c, 0, 56, 32
2, 11889, Control_c, 0, 64, 56
2, 11890, Note_on_c, 0, 65, 70
2, 11894, Control_c, 0, 64, 0
2, 11918, Control_c, 0, 64, 72
2, 11922, Control_c, 0, 64, 127
2, 11930, Note_on_c, 0, 44, 0
2, 11937, Note_on_c, 0, 53, 0
2, 11942, Note_on_c, 0, 56, 0
2, 11948, Note_on_c, 0, 65, 0
2, 11951, Note_on_c, 0, 68, 69
2, 11955, Note_on_c, 0, 61, 0
2, 11999, Note_on_c, 0, 68, 0
2, 12009, Note_on_c, 0, 70, 71
2, 12064, Note_on_c, 0, 70, 0
2, 12069, Note_on_c, 0, 72, 75
2, 12079, Control_c, 0, 64, 88
2, 12083, Control_c, 0, 64, 0
2, 12108, Control_c, 0, 64, 40
2, 12112, Control_c, 0, 64, 104
2, 12116, Control_c, 0, 64, 127
2, 12125, Note_on_c, 0, 72, 0
2, 12132, Note_on_c, 0, 67, 68
2, 12132, Control_c, 0, 64, 72
2, 12136, Control_c, 0, 64, 0
2, 12156, Control_c, 0, 64, 40
2, 12160, Control_c, 0, 64, 104
2, 12164, Control_c, 0, 64, 127
2, 12183, Control_c, 0, 64, 24
2, 12186, Note_on_c, 0, 67, 0
2, 12187, Control_c, 0, 64, 0
2, 12189, Note_on_c, 0, 68, 65
2, 12208, Control_c, 0, 64, 72
2, 12212, Control_c, 0, 64, 127
2, 12221, Note_on_c, 0, 44, 34
2, 12224, Control_c, 0, 64, 24
2, 12228, Control_c, 0, 64, 0
2, 12242, Note_on_c, 0, 44, 0
2, 12245, Control_c, 0, 64, 40
2, 12249, Control_c, 0, 64, 88
2, 12253, Control_c, 0, 64, 127
2, 12260, Note_on_c, 0, 51, 35
2, 12267, Note_on_c, 0, 68, 0
2, 12273, Note_on_c, 0, 63, 62
2, 12284, Note_on_c, 0, 60, 38
2, 12288, Note_on_c, 0, 51, 0
2, 12294, Note_on_c, 0, 60, 0
2, 12296, Note_on_c, 0, 63, 0
2, 12346, Note_on_c, 0, 63, 36
2, 12352, Note_on_c, 0, 56, 33
2, 12371, Note_on_c, 0, 63, 0
2, 12380, Note_on_c, 0, 56, 0
2, 12414, Note_on_c, 0, 51, 39
2, 12416, Note_on_c, 0, 60, 45
2, 12433, Note_on_c, 0, 51, 0
2, 12449, Note_on_c, 0, 60, 0
2, 12487, Note_on_c, 0, 63, 31
2, 12488, Note_on_c, 0, 56, 32
2, 12495, Control_c, 0, 64, 72
2, 12507, Control_c, 0, 64, 104
2, 12509, Note_on_c, 0, 56, 0
2, 12510, Note_on_c, 0, 63, 0
2, 12511, Control_c, 0, 64, 127
2, 12564, Note_on_c, 0, 62, 54
2, 12579, Control_c, 0, 64, 72
2, 12584, Control_c, 0, 64, 0
2, 12608, Control_c, 0, 64, 24
2, 12612, Control_c, 0, 64, 72
2, 12616, Control_c, 0, 64, 127
2, 12626, Note_on_c, 0, 62, 0
2, 12639, Note_on_c, 0, 63, 61
2, 12640, Control_c, 0, 64, 56
2, 12644, Control_c, 0, 64, 0
2, 12668, Control_c, 0, 64, 24
2, 12672, Control_c, 0, 64, 72
2, 12675, Control_c, 0, 64, 88
2, 12679, Control_c, 0, 64, 127
2, 12697, Note_on_c, 0, 63, 0
2, 12704, Note_on_c, 0, 68, 65
2, 12771, Note_on_c, 0, 72, 76
2, 12774, Note_on_c, 0, 68, 0
2, 12821, Note_on_c, 0, 72, 0
2, 12831, Note_on_c, 0, 73, 71
2, 12838, Control_c, 0, 64, 56
2, 12842, Control_c, 0, 64, 0
2, 12869, Control_c, 0, 64, 40
2, 12873, Control_c, 0, 64, 104
2, 12877, Control_c, 0, 64, 127
2, 12894, Control_c, 0, 64, 104
2, 12898, Control_c, 0, 64, 40
2, 12902, Control_c, 0, 64, 0
2, 12906, Note_on_c, 0, 69, 72
2, 12918, Note_on_c, 0, 73, 0
2, 12938, Control_c, 0, 64, 24
2, 12942, Control_c, 0, 64, 56
2, 12946, Control_c, 0, 64, 88
2, 12950, Control_c, 0, 64, 127
2, 13011, Control_c, 0, 64, 56
2, 13015, Control_c, 0, 64, 0
2, 13036, Note_on_c, 0, 44, 35
2, 13039, Control_c, 0, 64, 72
2, 13043, Control_c, 0, 64, 127
2, 13050, Note_on_c, 0, 44, 0
2, 13073, Note_on_c, 0, 51, 28
2, 13088, Control_c, 0, 64, 88
2, 13092, Control_c, 0, 64, 24
2, 13096, Control_c, 0, 64, 0
2, 13098, Note_on_c, 0, 69, 0
2, 13102, Note_on_c, 0, 70, 62
2, 13112, Control_c, 0, 64, 40
2, 13113, Note_on_c, 0, 61, 34
2, 13116, Control_c, 0, 64, 104
2, 13119, Control_c, 0, 64, 127
2, 13121, Note_on_c, 0, 51, 0
2, 13136, Note_on_c, 0, 61, 0
2, 13171, Note_on_c, 0, 63, 43
2, 13176, Note_on_c, 0, 55, 39
2, 13191, Note_on_c, 0, 63, 0
2, 13193, Note_on_c, 0, 55, 0
2, 13230, Note_on_c, 0, 61, 34
2, 13235, Note_on_c, 0, 51, 31
2, 13256, Note_on_c, 0, 61, 0
2, 13302, Note_on_c, 0, 63, 30
2, 13305, Control_c, 0, 64, 104
2, 13309, Note_on_c, 0, 55, 37
2, 13310, Control_c, 0, 64, 56
2, 13313, Control_c, 0, 64, 24
2, 13318, Control_c, 0, 64, 40
2, 13322, Note_on_c, 0, 55, 0
2, 13322, Control_c, 0, 64, 72
2, 13326, Control_c, 0, 64, 127
2, 13328, Note_on_c, 0, 51, 0
2, 13330, Note_on_c, 0, 63, 0
2, 13342, Note_on_c, 0, 70, 0
2, 13379, Note_on_c, 0, 62, 60
2, 13445, Note_on_c, 0, 62, 0
2, 13448, Note_on_c, 0, 63, 70
2, 13458, Control_c, 0, 64, 40
2, 13462, Control_c, 0, 64, 0
2, 13483, Control_c, 0, 64, 56
2, 13487, Control_c, 0, 64, 88
2, 13491, Control_c, 0, 64, 127
2, 13502, Note_on_c, 0, 63, 0
2, 13510, Note_on_c, 0, 67, 63
2, 13515, Control_c, 0, 64, 88
2, 13519, Control_c, 0, 64, 0
2, 13539, Control_c, 0, 64, 24
2, 13543, Control_c, 0, 64, 72
2, 13547, Control_c, 0, 64, 127
2, 13572, Control_c, 0, 64, 88
2, 13572, Note_on_c, 0, 70, 75
2, 13576, Note_on_c, 0, 67, 0
2, 13576, Control_c, 0, 64, 0
2, 13603, Control_c, 0, 64, 40
2, 13607, Control_c, 0, 64, 104
2, 13611, Control_c, 0, 64, 127
2, 13640, Note_on_c, 0, 70, 0
2, 13640, Control_c, 0, 64, 72
2, 13640, Note_on_c, 0, 73, 82
2, 13644, Control_c, 0, 64, 0
2, 13668, Control_c, 0, 64, 72
2, 13672, Control_c, 0, 64, 127
2, 13733, Note_on_c, 0, 77, 83
2, 13737, Note_on_c, 0, 73, 0
2, 13765, Control_c, 0, 64, 56
2, 13769, Control_c, 0, 64, 0
2, 13793, Control_c, 0, 64, 56
2, 13797, Control_c, 0, 64, 127
2, 13801, Note_on_c, 0, 44, 40
2, 13839, Note_on_c, 0, 44, 0
2, 13861, Note_on_c, 0, 53, 45
2, 13909, Note_on_c, 0, 53, 0
2, 13921, Note_on_c, 0, 59, 45
2, 13948, Note_on_c, 0, 59, 0
2, 13987, Note_on_c, 0, 62, 42
2, 14029, Note_on_c, 0, 62, 0
2, 14057, Note_on_c, 0, 68, 23
2, 14089, Note_on_c, 0, 68, 0
2, 14097, Note_on_c, 0, 60, 30
2, 14106, Note_on_c, 0, 77, 0
2, 14128, Note_on_c, 0, 68, 32
2, 14151, Note_on_c, 0, 75, 55
2, 14152, Control_c, 0, 64, 56
2, 14156, Control_c, 0, 64, 0
2, 14180, Control_c, 0, 64, 56
2, 14184, Control_c, 0, 64, 127
2, 14192, Note_on_c, 0, 75, 0
2, 14194, Note_on_c, 0, 68, 0
2, 14194, Note_on_c, 0, 60, 0
2, 14284, Note_on_c, 0, 63, 59
2, 14293, Control_c, 0, 64, 40
2, 14297, Control_c, 0, 64, 0
2, 14330, Control_c, 0, 64, 88
2, 14334, Control_c, 0, 64, 127
2, 14358, Note_on_c, 0, 63, 0
2, 14361, Note_on_c, 0, 68, 65
2, 14366, Control_c, 0, 64, 104
2, 14370, Control_c, 0, 64, 24
2, 14374, Control_c, 0, 64, 0
2, 14389, Control_c, 0, 64, 24
2, 14393, Control_c, 0, 64, 72
2, 14398, Control_c, 0, 64, 127
2, 14438, Note_on_c, 0, 68, 0
2, 14438, Control_c, 0, 64, 104
2, 14442, Note_on_c, 0, 70, 69
2, 14442, Control_c, 0, 64, 56
2, 14447, Control_c, 0, 64, 0
2, 14467, Control_c, 0, 64, 24
2, 14471, Control_c, 0, 64, 88
2, 14475, Control_c, 0, 64, 127
2, 14525, Note_on_c, 0, 70, 0
2, 14529, Note_on_c, 0, 72, 74
2, 14568, Control_c, 0, 64, 72
2, 14572, Control_c, 0, 64, 0
2, 14600, Control_c, 0, 64, 40
2, 14604, Control_c, 0, 64, 127
2, 14610, Note_on_c, 0, 44, 34
2, 14645, Note_on_c, 0, 44, 0
2, 14647, Note_on_c, 0, 72, 0
2, 14647, Note_on_c, 0, 60, 37
2, 14652, Note_on_c, 0, 56, 20
2, 14664, Note_on_c, 0, 56, 0
2, 14672, Note_on_c, 0, 63, 35
2, 14682, Note_on_c, 0, 60, 0
2, 14692, Note_on_c, 0, 68, 48
2, 14693, Note_on_c, 0, 63, 0
2, 14712, Note_on_c, 0, 68, 0
2, 14806, Note_on_c, 0, 72, 79
2, 14829, Note_on_c, 0, 72, 0
2, 14897, Note_on_c, 0, 72, 82
2, 14906, Control_c, 0, 64, 56
2, 14910, Control_c, 0, 64, 0
2, 14926, Control_c, 0, 64, 40
2, 14930, Control_c, 0, 64, 104
2, 14934, Control_c, 0, 64, 127
2, 14967, Note_on_c, 0, 75, 84
2, 14973, Note_on_c, 0, 72, 0
2, 15009, Note_on_c, 0, 75, 0
2, 15021, Note_on_c, 0, 73, 83
2, 15042, Note_on_c, 0, 41, 40
2, 15046, Note_on_c, 0, 73, 0
2, 15071, Note_on_c, 0, 61, 44
2, 15091, Note_on_c, 0, 65, 72
2, 15094, Note_on_c, 0, 56, 33
2, 15100, Control_c, 0, 64, 56
2, 15104, Control_c, 0, 64, 0
2, 15132, Control_c, 0, 64, 88
2, 15136, Control_c, 0, 64, 127
2, 15148, Note_on_c, 0, 65, 0
2, 15152, Note_on_c, 0, 68, 73
2, 15152, Control_c, 0, 64, 56
2, 15156, Control_c, 0, 64, 24
2, 15168, Note_on_c, 0, 61, 0
2, 15169, Control_c, 0, 64, 72
2, 15172, Control_c, 0, 64, 127
2, 15198, Note_on_c, 0, 68, 0
2, 15208, Note_on_c, 0, 70, 74
2, 15213, Control_c, 0, 64, 104
2, 15216, Control_c, 0, 64, 56
2, 15220, Control_c, 0, 64, 40
2, 15225, Control_c, 0, 64, 56
2, 15229, Control_c, 0, 64, 72
2, 15233, Control_c, 0, 64, 104
2, 15237, Control_c, 0, 64, 127
2, 15247, Note_on_c, 0, 41, 0
2, 15247, Note_on_c, 0, 56, 0
2, 15265, Note_on_c, 0, 70, 0
2, 15274, Note_on_c, 0, 72, 74
2, 15298, Control_c, 0, 64, 72
2, 15302, Control_c, 0, 64, 0
2, 15326, Control_c, 0, 64, 56
2, 15330, Control_c, 0, 64, 127
2, 15369, Control_c, 0, 64, 56
2, 15373, Control_c, 0, 64, 0
2, 15398, Note_on_c, 0, 40, 44
2, 15398, Control_c, 0, 64, 88
2, 15402, Control_c, 0, 64, 127
2, 15416, Note_on_c, 0, 40, 0
2, 15442, Note_on_c, 0, 60, 56
2, 15446, Note_on_c, 0, 55, 45
2, 15462, Note_on_c, 0, 55, 0
2, 15466, Note_on_c, 0, 60, 0
2, 15504, Note_on_c, 0, 60, 34
2, 15507, Note_on_c, 0, 67, 38
2, 15509, Note_on_c, 0, 64, 38
2, 15530, Note_on_c, 0, 60, 0
2, 15532, Note_on_c, 0, 64, 0
2, 15536, Note_on_c, 0, 67, 0
2, 15565, Note_on_c, 0, 55, 40
2, 15566, Note_on_c, 0, 60, 54
2, 15586, Note_on_c, 0, 60, 0
2, 15590, Note_on_c, 0, 55, 0
2, 15634, Note_on_c, 0, 64, 46
2, 15636, Note_on_c, 0, 67, 42
2, 15644, Note_on_c, 0, 60, 39
2, 15654, Note_on_c, 0, 60, 0
2, 15656, Note_on_c, 0, 64, 0
2, 15662, Note_on_c, 0, 67, 0
2, 15670, Note_on_c, 0, 72, 0
2, 15752, Note_on_c, 0, 76, 73
2, 15753, Note_on_c, 0, 64, 53
2, 15758, Control_c, 0, 64, 56
2, 15762, Control_c, 0, 64, 0
2, 15770, Note_on_c, 0, 64, 0
2, 15778, Note_on_c, 0, 76, 0
2, 15778, Control_c, 0, 64, 88
2, 15782, Control_c, 0, 64, 127
2, 15830, Note_on_c, 0, 79, 84
2, 15830, Note_on_c, 0, 67, 72
2, 15840, Note_on_c, 0, 67, 0
2, 15849, Note_on_c, 0, 79, 0
2, 15888, Note_on_c, 0, 82, 86
2, 15888, Note_on_c, 0, 70, 80
2, 15902, Note_on_c, 0, 70, 0
2, 15907, Note_on_c, 0, 82, 0
2, 15946, Note_on_c, 0, 85, 89
2, 15948, Note_on_c, 0, 73, 74
2, 15973, Note_on_c, 0, 85, 0
2, 15978, Note_on_c, 0, 73, 0
2, 16006, Note_on_c, 0, 83, 90
2, 16009, Note_on_c, 0, 71, 74
2, 16020, Control_c, 0, 64, 104
2, 16024, Control_c, 0, 64, 0
2, 16064, Control_c, 0, 64, 127
2, 16080, Note_on_c, 0, 71, 0
2, 16080, Note_on_c, 0, 44, 39
2, 16090, Note_on_c, 0, 53, 56
2, 16100, Note_on_c, 0, 44, 0
2, 16119, Note_on_c, 0, 53, 0
2, 16124, Note_on_c, 0, 60, 44
2, 16133, Note_on_c, 0, 60, 0
2, 16153, Note_on_c, 0, 83, 0
2, 16162, Note_on_c, 0, 84, 90
2, 16165, Note_on_c, 0, 72, 72
2, 16173, Note_on_c, 0, 65, 55
2, 16173, Note_on_c, 0, 56, 48
2, 16197, Note_on_c, 0, 65, 0
2, 16207, Note_on_c, 0, 56, 0
2, 16224, Note_on_c, 0, 60, 56
2, 16229, Note_on_c, 0, 53, 51
2, 16234, Note_on_c, 0, 72, 0
2, 16238, Note_on_c, 0, 84, 0
2, 16258, Note_on_c, 0, 53, 0
2, 16263, Note_on_c, 0, 65, 64
2, 16265, Note_on_c, 0, 56, 49
2, 16270, Note_on_c, 0, 60, 0
2, 16272, Note_on_c, 0, 65, 0
2, 16289, Note_on_c, 0, 72, 93
2, 16290, Note_on_c, 0, 56, 0
2, 16290, Note_on_c, 0, 84, 97
2, 16302, Note_on_c, 0, 72, 0
2, 16310, Note_on_c, 0, 84, 0
2, 16363, Note_on_c, 0, 91, 100
2, 16365, Note_on_c, 0, 79, 78
2, 16391, Control_c, 0, 64, 88
2, 16395, Control_c, 0, 64, 0
2, 16424, Note_on_c, 0, 44, 49
2, 16427, Control_c, 0, 64, 127
2, 16443, Note_on_c, 0, 44, 0
2, 16457, Note_on_c, 0, 59, 58
2, 16472, Note_on_c, 0, 91, 0
2, 16474, Note_on_c, 0, 59, 0
2, 16483, Note_on_c, 0, 79, 0
2, 16523, Note_on_c, 0, 89, 77
2, 16524, Note_on_c, 0, 77, 65
2, 16525, Note_on_c, 0, 63, 48
2, 16530, Note_on_c, 0, 56, 31
2, 16547, Note_on_c, 0, 63, 0
2, 16562, Note_on_c, 0, 56, 0
2, 16586, Note_on_c, 0, 65, 39
2, 16588, Note_on_c, 0, 59, 44
2, 16604, Note_on_c, 0, 65, 0
2, 16620, Note_on_c, 0, 59, 0
2, 16654, Note_on_c, 0, 63, 39
2, 16656, Note_on_c, 0, 56, 30
2, 16660, Note_on_c, 0, 77, 0
2, 16664, Note_on_c, 0, 89, 0
2, 16674, Note_on_c, 0, 63, 0
2, 16674, Note_on_c, 0, 56, 0
2, 16745, Control_c, 0, 64, 104
2, 16749, Control_c, 0, 64, 24
2, 16751, Note_on_c, 0, 46, 55
2, 16754, Control_c, 0, 64, 0
2, 16765, Note_on_c, 0, 46, 0
2, 16766, Note_on_c, 0, 53, 56
2, 16770, Control_c, 0, 64, 72
2, 16774, Control_c, 0, 64, 127
2, 16788, Note_on_c, 0, 53, 0
2, 16795, Note_on_c, 0, 62, 55
2, 16825, Note_on_c, 0, 62, 0
2, 16831, Note_on_c, 0, 83, 84
2, 16834, Note_on_c, 0, 71, 59
2, 16840, Note_on_c, 0, 56, 42
2, 16842, Note_on_c, 0, 65, 49
2, 16861, Note_on_c, 0, 65, 0
2, 16873, Note_on_c, 0, 71, 0
2, 16877, Note_on_c, 0, 56, 0
2, 16880, Note_on_c, 0, 83, 0
2, 16894, Note_on_c, 0, 62, 47
2, 16897, Note_on_c, 0, 53, 60
2, 16919, Note_on_c, 0, 53, 0
2, 16937, Note_on_c, 0, 56, 38
2, 16938, Note_on_c, 0, 65, 48
2, 16946, Note_on_c, 0, 62, 0
2, 16950, Note_on_c, 0, 65, 0
2, 16952, Note_on_c, 0, 56, 0
2, 16970, Note_on_c, 0, 82, 81
2, 16970, Note_on_c, 0, 70, 60
2, 16982, Note_on_c, 0, 70, 0
2, 16996, Note_on_c, 0, 82, 0
2, 17006, Note_on_c, 0, 70, 73
2, 17045, Note_on_c, 0, 82, 77
2, 17060, Control_c, 0, 64, 56
2, 17064, Control_c, 0, 64, 0
2, 17105, Control_c, 0, 64, 88
2, 17107, Note_on_c, 0, 63, 31
2, 17109, Control_c, 0, 64, 127
2, 17111, Note_on_c, 0, 55, 38
2, 17138, Note_on_c, 0, 55, 0
2, 17146, Note_on_c, 0, 63, 0
2, 17164, Note_on_c, 0, 67, 39
2, 17165, Note_on_c, 0, 58, 35
2, 17184, Note_on_c, 0, 67, 0
2, 17189, Note_on_c, 0, 70, 0
2, 17194, Note_on_c, 0, 58, 0
2, 17220, Note_on_c, 0, 75, 65
2, 17225, Note_on_c, 0, 55, 44
2, 17227, Note_on_c, 0, 63, 25
2, 17229, Note_on_c, 0, 82, 0
2, 17250, Note_on_c, 0, 55, 0
2, 17271, Note_on_c, 0, 63, 0
2, 17279, Note_on_c, 0, 67, 31
2, 17279, Note_on_c, 0, 58, 28
2, 17302, Note_on_c, 0, 67, 0
2, 17310, Note_on_c, 0, 58, 0
2, 17333, Note_on_c, 0, 63, 36
2, 17337, Note_on_c, 0, 55, 42
2, 17352, Note_on_c, 0, 75, 0
2, 17362, Note_on_c, 0, 55, 0
2, 17374, Note_on_c, 0, 63, 0
2, 17387, Note_on_c, 0, 58, 34
2, 17387, Note_on_c, 0, 67, 36
2, 17411, Note_on_c, 0, 67, 0
2, 17420, Note_on_c, 0, 58, 0
2, 17440, Note_on_c, 0, 63, 40
2, 17448, Note_on_c, 0, 55, 29
2, 17474, Note_on_c, 0, 55, 0
2, 17499, Note_on_c, 0, 58, 35
2, 17503, Note_on_c, 0, 63, 0
2, 17503, Note_on_c, 0, 67, 30
2, 17513, Note_on_c, 0, 58, 0
2, 17517, Note_on_c, 0, 67, 0
2, 17565, Note_on_c, 0, 59, 64
2, 17593, Control_c, 0, 64, 104
2, 17596, Control_c, 0, 64, 24
2, 17600, Control_c, 0, 64, 0
2, 17620, Note_on_c, 0, 56, 39
2, 17629, Control_c, 0, 64, 104
2, 17633, Note_on_c, 0, 65, 26
2, 17633, Control_c, 0, 64, 127
2, 17645, Note_on_c, 0, 56, 0
2, 17664, Note_on_c, 0, 59, 0
2, 17672, Note_on_c, 0, 65, 0
2, 17683, Note_on_c, 0, 68, 35
2, 17686, Note_on_c, 0, 62, 36
2, 17697, Note_on_c, 0, 62, 0
2, 17701, Note_on_c, 0, 68, 0
2, 17716, Note_on_c, 0, 58, 64
2, 17734, Note_on_c, 0, 58, 0
2, 17782, Note_on_c, 0, 58, 55
2, 17790, Control_c, 0, 64, 88
2, 17794, Control_c, 0, 64, 0
2, 17823, Control_c, 0, 64, 40
2, 17827, Control_c, 0, 64, 127
2, 17840, Note_on_c, 0, 55, 40
2, 17840, Note_on_c, 0, 63, 30
2, 17852, Note_on_c, 0, 55, 0
2, 17872, Note_on_c, 0, 63, 0
2, 17896, Note_on_c, 0, 67, 41
2, 17910, Note_on_c, 0, 67, 0
2, 17920, Note_on_c, 0, 58, 0
2, 17951, Note_on_c, 0, 51, 61
2, 17960, Note_on_c, 0, 63, 27
2, 17964, Note_on_c, 0, 55, 28
2, 17972, Control_c, 0, 64, 72
2, 17976, Control_c, 0, 64, 24
2, 17979, Control_c, 0, 64, 0
2, 17982, Note_on_c, 0, 55, 0
2, 17988, Control_c, 0, 64, 56
2, 17992, Control_c, 0, 64, 104
2, 17996, Control_c, 0, 64, 127
2, 18008, Note_on_c, 0, 63, 0
2, 18008, Note_on_c, 0, 67, 41
2, 18013, Note_on_c, 0, 58, 28
2, 18022, Note_on_c, 0, 51, 0
2, 18033, Note_on_c, 0, 67, 0
2, 18043, Note_on_c, 0, 58, 0
2, 18057, Note_on_c, 0, 63, 44
2, 18071, Note_on_c, 0, 55, 25
2, 18082, Note_on_c, 0, 55, 0
2, 18094, Note_on_c, 0, 63, 0
2, 18109, Note_on_c, 0, 67, 41
2, 18112, Note_on_c, 0, 58, 39
2, 18134, Note_on_c, 0, 67, 0
2, 18147, Note_on_c, 0, 58, 0
2, 18159, Note_on_c, 0, 63, 37
2, 18167, Note_on_c, 0, 55, 40
2, 18180, Note_on_c, 0, 55, 0
2, 18192, Note_on_c, 0, 63, 0
2, 18210, Note_on_c, 0, 67, 38
2, 18212, Note_on_c, 0, 58, 32
2, 18233, Note_on_c, 0, 67, 0
2, 18243, Note_on_c, 0, 58, 0
2, 18260, Note_on_c, 0, 63, 23
2, 18264, Note_on_c, 0, 55, 32
2, 18277, Note_on_c, 0, 55, 0
2, 18295, Note_on_c, 0, 63, 0
2, 18301, Note_on_c, 0, 58, 29
2, 18301, Note_on_c, 0, 67, 30
2, 18324, Note_on_c, 0, 67, 0
2, 18333, Note_on_c, 0, 58, 0
2, 18337, Note_on_c, 0, 70, 67
2, 18356, Note_on_c, 0, 55, 39
2, 18360, Note_on_c, 0, 63, 31
2, 18375, Note_on_c, 0, 55, 0
2, 18383, Note_on_c, 0, 70, 0
2, 18407, Note_on_c, 0, 63, 0
2, 18411, Note_on_c, 0, 70, 82
2, 18457, Note_on_c, 0, 58, 45
2, 18459, Note_on_c, 0, 67, 42
2, 18478, Note_on_c, 0, 67, 0
2, 18490, Note_on_c, 0, 58, 0
2, 18509, Note_on_c, 0, 63, 43
2, 18512, Note_on_c, 0, 55, 54
2, 18520, Note_on_c, 0, 55, 0
2, 18527, Note_on_c, 0, 63, 0
2, 18546, Note_on_c, 0, 70, 0
2, 18560, Note_on_c, 0, 72, 84
2, 18593, Control_c, 0, 64, 56
2, 18598, Control_c, 0, 64, 0
2, 18615, Note_on_c, 0, 66, 39
2, 18617, Note_on_c, 0, 58, 32
2, 18626, Control_c, 0, 64, 88
2, 18630, Control_c, 0, 64, 127
2, 18645, Note_on_c, 0, 66, 0
2, 18663, Note_on_c, 0, 63, 35
2, 18664, Note_on_c, 0, 54, 45
2, 18666, Note_on_c, 0, 58, 0
2, 18672, Note_on_c, 0, 54, 0
2, 18673, Note_on_c, 0, 72, 0
2, 18678, Note_on_c, 0, 63, 0
2, 18698, Note_on_c, 0, 65, 45
2, 18722, Note_on_c, 0, 70, 50
2, 18749, Note_on_c, 0, 73, 73
2, 18759, Control_c, 0, 64, 88
2, 18763, Control_c, 0, 64, 0
2, 18792, Note_on_c, 0, 65, 0
2, 18799, Control_c, 0, 64, 72
2, 18803, Control_c, 0, 64, 127
2, 18815, Note_on_c, 0, 70, 0
2, 18815, Note_on_c, 0, 61, 45
2, 18819, Note_on_c, 0, 53, 48
2, 18843, Note_on_c, 0, 53, 0
2, 18850, Note_on_c, 0, 61, 0
2, 18875, Note_on_c, 0, 65, 42
2, 18876, Note_on_c, 0, 58, 33
2, 18900, Note_on_c, 0, 65, 0
2, 18902, Note_on_c, 0, 58, 0
2, 18932, Note_on_c, 0, 61, 30
2, 18937, Note_on_c, 0, 53, 35
2, 18959, Note_on_c, 0, 61, 0
2, 18968, Note_on_c, 0, 73, 0
2, 18983, Note_on_c, 0, 53, 0
2, 18988, Note_on_c, 0, 65, 42
2, 18989, Note_on_c, 0, 58, 25
2, 19007, Note_on_c, 0, 65, 0
2, 19010, Note_on_c, 0, 58, 0
2, 19055, Note_on_c, 0, 73, 74
2, 19070, Control_c, 0, 64, 56
2, 19074, Control_c, 0, 64, 0
2, 19094, Control_c, 0, 64, 24
2, 19098, Control_c, 0, 64, 72
2, 19101, Note_on_c, 0, 73, 0
2, 19102, Control_c, 0, 64, 127
2, 19131, Note_on_c, 0, 73, 85
2, 19186, Control_c, 0, 64, 104
2, 19190, Control_c, 0, 64, 24
2, 19191, Note_on_c, 0, 77, 87
2, 19194, Control_c, 0, 64, 0
2, 19198, Note_on_c, 0, 73, 0
2, 19198, Control_c, 0, 64, 24
2, 19202, Control_c, 0, 64, 56
2, 19206, Control_c, 0, 64, 104
2, 19210, Control_c, 0, 64, 127
2, 19239, Note_on_c, 0, 77, 0
2, 19251, Note_on_c, 0, 75, 87
2, 19270, Note_on_c, 0, 41, 43
2, 19273, Note_on_c, 0, 75, 0
2, 19328, Note_on_c, 0, 57, 30
2, 19334, Note_on_c, 0, 72, 79
2, 19342, Note_on_c, 0, 63, 42
2, 19355, Control_c, 0, 64, 56
2, 19360, Control_c, 0, 64, 0
2, 19392, Control_c, 0, 64, 56
2, 19396, Control_c, 0, 64, 104
2, 19400, Control_c, 0, 64, 127
2, 19417, Note_on_c, 0, 66, 76
2, 19421, Note_on_c, 0, 63, 0
2, 19428, Control_c, 0, 64, 72
2, 19432, Control_c, 0, 64, 0
2, 19461, Control_c, 0, 64, 40
2, 19465, Control_c, 0, 64, 104
2, 19469, Control_c, 0, 64, 127
2, 19471, Note_on_c, 0, 57, 0
2, 19474, Note_on_c, 0, 41, 0
2, 19492, Note_on_c, 0, 66, 0
2, 19501, Note_on_c, 0, 72, 0
2, 19526, Note_on_c, 0, 65, 63
2, 19540, Note_on_c, 0, 65, 0
2, 19555, Note_on_c, 0, 65, 66
2, 19582, Control_c, 0, 64, 40
2, 19586, Control_c, 0, 64, 0
2, 19614, Control_c, 0, 64, 40
2, 19618, Control_c, 0, 64, 127
2, 19646, Note_on_c, 0, 46, 36
2, 19668, Note_on_c, 0, 53, 26
2, 19673, Note_on_c, 0, 46, 0
2, 19676, Note_on_c, 0, 65, 0
2, 19695, Note_on_c, 0, 53, 0
2, 19696, Note_on_c, 0, 61, 44
2, 19710, Note_on_c, 0, 70, 60
2, 19712, Note_on_c, 0, 61, 0
2, 19757, Note_on_c, 0, 65, 50
2, 19759, Note_on_c, 0, 58, 38
2, 19777, Note_on_c, 0, 65, 0
2, 19781, Note_on_c, 0, 58, 0
2, 19824, Note_on_c, 0, 53, 35
2, 19825, Note_on_c, 0, 61, 20
2, 19850, Note_on_c, 0, 61, 0
2, 19899, Note_on_c, 0, 58, 31
2, 19900, Control_c, 0, 64, 72
2, 19901, Note_on_c, 0, 65, 32
2, 19904, Control_c, 0, 64, 0
2, 19916, Control_c, 0, 64, 40
2, 19920, Control_c, 0, 64, 72
2, 19921, Note_on_c, 0, 65, 0
2, 19923, Note_on_c, 0, 58, 0
2, 19923, Note_on_c, 0, 53, 0
2, 19924, Control_c, 0, 64, 127
2, 19973, Note_on_c, 0, 70, 0
2, 19973, Note_on_c, 0, 64, 62
2, 19985, Control_c, 0, 64, 88
2, 19988, Control_c, 0, 64, 0
2, 20013, Control_c, 0, 64, 56
2, 20017, Control_c, 0, 64, 127
2, 20039, Note_on_c, 0, 65, 84
2, 20040, Note_on_c, 0, 64, 0
2, 20046, Control_c, 0, 64, 56
2, 20050, Control_c, 0, 64, 0
2, 20070, Control_c, 0, 64, 56
2, 20074, Control_c, 0, 64, 104
2, 20078, Control_c, 0, 64, 127
2, 20089, Note_on_c, 0, 65, 0
2, 20100, Note_on_c, 0, 69, 83
2, 20106, Control_c, 0, 64, 40
2, 20110, Control_c, 0, 64, 0
2, 20129, Control_c, 0, 64, 88
2, 20133, Control_c, 0, 64, 127
2, 20147, Note_on_c, 0, 69, 0
2, 20155, Note_on_c, 0, 70, 82
2, 20158, Control_c, 0, 64, 0
2, 20178, Control_c, 0, 64, 56
2, 20182, Control_c, 0, 64, 127
2, 20205, Note_on_c, 0, 70, 0
2, 20213, Note_on_c, 0, 72, 96
2, 20243, Note_on_c, 0, 72, 0
2, 20259, Note_on_c, 0, 58, 71
2, 20263, Control_c, 0, 64, 104
2, 20267, Control_c, 0, 64, 0
2, 20275, Note_on_c, 0, 37, 42
2, 20282, Note_on_c, 0, 66, 68
2, 20292, Note_on_c, 0, 58, 0
2, 20292, Control_c, 0, 64, 104
2, 20294, Note_on_c, 0, 49, 39
2, 20296, Control_c, 0, 64, 127
2, 20307, Note_on_c, 0, 37, 0
2, 20308, Note_on_c, 0, 73, 92
2, 20311, Note_on_c, 0, 49, 0
2, 20312, Note_on_c, 0, 66, 0
2, 20326, Note_on_c, 0, 73, 0
2, 20358, Note_on_c, 0, 54, 58
2, 20360, Note_on_c, 0, 61, 60
2, 20373, Note_on_c, 0, 54, 0
2, 20386, Note_on_c, 0, 61, 0
2, 20393, Note_on_c, 0, 78, 91
2, 20433, Note_on_c, 0, 66, 46
2, 20433, Note_on_c, 0, 58, 51
2, 20459, Note_on_c, 0, 58, 0
2, 20460, Note_on_c, 0, 66, 0
2, 20468, Note_on_c, 0, 78, 0
2, 20478, Note_on_c, 0, 70, 83
2, 20497, Note_on_c, 0, 61, 44
2, 20500, Note_on_c, 0, 54, 37
2, 20535, Note_on_c, 0, 58, 40
2, 20537, Note_on_c, 0, 66, 47
2, 20540, Note_on_c, 0, 54, 0
2, 20546, Note_on_c, 0, 61, 0
2, 20550, Note_on_c, 0, 58, 0
2, 20552, Note_on_c, 0, 66, 0
2, 20579, Note_on_c, 0, 70, 0
2, 20596, Note_on_c, 0, 75, 85
2, 20614, Note_on_c, 0, 75, 0
2, 20626, Control_c, 0, 64, 88
2, 20630, Note_on_c, 0, 59, 72
2, 20630, Control_c, 0, 64, 0
2, 20642, Note_on_c, 0, 37, 54
2, 20642, Control_c, 0, 64, 40
2, 20645, Note_on_c, 0, 49, 50
2, 20646, Note_on_c, 0, 65, 71
2, 20647, Note_on_c, 0, 59, 0
2, 20647, Control_c, 0, 64, 127
2, 20658, Note_on_c, 0, 37, 0
2, 20660, Note_on_c, 0, 49, 0
2, 20662, Note_on_c, 0, 65, 0
2, 20678, Note_on_c, 0, 75, 92
2, 20697, Note_on_c, 0, 75, 0
2, 20728, Note_on_c, 0, 61, 54
2, 20741, Note_on_c, 0, 53, 46
2, 20751, Note_on_c, 0, 53, 0
2, 20754, Note_on_c, 0, 61, 0
2, 20762, Note_on_c, 0, 73, 83
2, 20795, Note_on_c, 0, 59, 56
2, 20797, Note_on_c, 0, 65, 55
2, 20817, Note_on_c, 0, 59, 0
2, 20819, Note_on_c, 0, 65, 0
2, 20851, Note_on_c, 0, 73, 0
2, 20853, Note_on_c, 0, 68, 69
2, 20859, Note_on_c, 0, 61, 47
2, 20864, Note_on_c, 0, 53, 50
2, 20890, Note_on_c, 0, 53, 0
2, 20900, Note_on_c, 0, 61, 0
2, 20927, Note_on_c, 0, 65, 49
2, 20928, Note_on_c, 0, 59, 47
2, 20942, Note_on_c, 0, 68, 0
2, 20944, Note_on_c, 0, 65, 0
2, 20948, Note_on_c, 0, 59, 0
2, 21034, Note_on_c, 0, 70, 69
2, 21063, Note_on_c, 0, 70, 0
2, 21086, Note_on_c, 0, 42, 38
2, 21087, Note_on_c, 0, 66, 64
2, 21093, Control_c, 0, 64, 24
2, 21098, Control_c, 0, 64, 0
2, 21117, Note_on_c, 0, 42, 0
2, 21122, Control_c, 0, 64, 72
2, 21126, Control_c, 0, 64, 127
2, 21156, Note_on_c, 0, 58, 47
2, 21161, Note_on_c, 0, 49, 32
2, 21179, Note_on_c, 0, 49, 0
2, 21188, Note_on_c, 0, 58, 0
2, 21215, Note_on_c, 0, 61, 33
2, 21219, Note_on_c, 0, 54, 39
2, 21238, Note_on_c, 0, 61, 0
2, 21241, Note_on_c, 0, 54, 0
2, 21274, Note_on_c, 0, 58, 35
2, 21277, Note_on_c, 0, 49, 34
2, 21299, Note_on_c, 0, 49, 0
2, 21303, Note_on_c, 0, 58, 0
2, 21330, Note_on_c, 0, 61, 39
2, 21334, Note_on_c, 0, 54, 32
2, 21354, Note_on_c, 0, 61, 0
2, 21358, Note_on_c, 0, 54, 0
2, 21372, Note_on_c, 0, 66, 0
2, 21379, Note_on_c, 0, 58, 29
2, 21386, Note_on_c, 0, 49, 30
2, 21389, Note_on_c, 0, 70, 57
2, 21415, Note_on_c, 0, 49, 0
2, 21417, Note_on_c, 0, 68, 55
2, 21418, Note_on_c, 0, 70, 0
2, 21418, Note_on_c, 0, 58, 0
2, 21444, Note_on_c, 0, 68, 0
2, 21446, Note_on_c, 0, 66, 53
2, 21456, Note_on_c, 0, 61, 29
2, 21457, Control_c, 0, 64, 72
2, 21458, Note_on_c, 0, 54, 29
2, 21461, Control_c, 0, 64, 0
2, 21486, Note_on_c, 0, 61, 0
2, 21486, Control_c, 0, 64, 56
2, 21487, Note_on_c, 0, 54, 0
2, 21490, Control_c, 0, 64, 127
2, 21510, Note_on_c, 0, 58, 33
2, 21517, Note_on_c, 0, 49, 27
2, 21542, Note_on_c, 0, 58, 0
2, 21544, Note_on_c, 0, 49, 0
2, 21565, Note_on_c, 0, 66, 0
2, 21565, Note_on_c, 0, 54, 31
2, 21567, Note_on_c, 0, 61, 26
2, 21595, Note_on_c, 0, 54, 0
2, 21596, Note_on_c, 0, 61, 0
2, 21627, Note_on_c, 0, 58, 25
2, 21630, Note_on_c, 0, 49, 32
2, 21655, Note_on_c, 0, 58, 0
2, 21656, Note_on_c, 0, 49, 0
2, 21684, Note_on_c, 0, 61, 25
2, 21694, Note_on_c, 0, 54, 27
2, 21701, Note_on_c, 0, 61, 0
2, 21733, Note_on_c, 0, 54, 0
2, 21766, Note_on_c, 0, 66, 25
2, 21773, Note_on_c, 0, 58, 25
2, 21788, Note_on_c, 0, 66, 0
2, 21792, Note_on_c, 0, 58, 0
2, 21873, Note_on_c, 0, 70, 67
2, 21877, Control_c, 0, 64, 104
2, 21881, Control_c, 0, 64, 24
2, 21885, Control_c, 0, 64, 0
2, 21909, Control_c, 0, 64, 88
2, 21913, Control_c, 0, 64, 127
2, 21933, Note_on_c, 0, 70, 0
2, 21961, Note_on_c, 0, 57, 45
2, 21961, Note_on_c, 0, 41, 40
2, 21972, Note_on_c, 0, 41, 0
2, 22001, Note_on_c, 0, 57, 0
2, 22020, Note_on_c, 0, 58, 43
2, 22022, Note_on_c, 0, 56, 46
2, 22052, Note_on_c, 0, 56, 0
2, 22064, Note_on_c, 0, 58, 0
2, 22076, Note_on_c, 0, 61, 52
2, 22084, Note_on_c, 0, 53, 39
2, 22099, Note_on_c, 0, 61, 0
2, 22114, Note_on_c, 0, 53, 0
2, 22130, Note_on_c, 0, 62, 53
2, 22131, Note_on_c, 0, 56, 38
2, 22156, Note_on_c, 0, 62, 0
2, 22189, Note_on_c, 0, 65, 70
2, 22190, Note_on_c, 0, 56, 0
2, 22200, Note_on_c, 0, 50, 22
2, 22208, Note_on_c, 0, 50, 0
2, 22212, Note_on_c, 0, 65, 0
2, 22250, Note_on_c, 0, 70, 75
2, 22272, Control_c, 0, 64, 56
2, 22276, Control_c, 0, 64, 0
2, 22300, Control_c, 0, 64, 40
2, 22304, Control_c, 0, 64, 127
2, 22306, Note_on_c, 0, 58, 51
2, 22309, Note_on_c, 0, 39, 40
2, 22330, Note_on_c, 0, 39, 0
2, 22342, Note_on_c, 0, 58, 0
2, 22349, Note_on_c, 0, 70, 0
2, 22359, Note_on_c, 0, 59, 53
2, 22367, Note_on_c, 0, 56, 45
2, 22378, Note_on_c, 0, 59, 0
2, 22392, Note_on_c, 0, 56, 0
2, 22421, Note_on_c, 0, 71, 79
2, 22426, Note_on_c, 0, 54, 40
2, 22428, Note_on_c, 0, 62, 46
2, 22469, Note_on_c, 0, 54, 0
2, 22473, Note_on_c, 0, 62, 0
2, 22480, Note_on_c, 0, 56, 50
2, 22481, Note_on_c, 0, 63, 61
2, 22513, Note_on_c, 0, 63, 0
2, 22518, Note_on_c, 0, 56, 0
2, 22532, Note_on_c, 0, 51, 28
2, 22535, Note_on_c, 0, 66, 45
2, 22542, Note_on_c, 0, 71, 0
2, 22544, Note_on_c, 0, 51, 0
2, 22564, Note_on_c, 0, 66, 0
2, 22568, Note_on_c, 0, 70, 81
2, 22587, Note_on_c, 0, 70, 0
2, 22641, Note_on_c, 0, 78, 84
2, 22672, Control_c, 0, 64, 56
2, 22676, Control_c, 0, 64, 0
2, 22715, Control_c, 0, 64, 72
2, 22719, Control_c, 0, 64, 127
2, 22721, Note_on_c, 0, 65, 41
2, 22726, Note_on_c, 0, 68, 40
2, 22733, Note_on_c, 0, 38, 35
2, 22742, Note_on_c, 0, 38, 0
2, 22765, Note_on_c, 0, 65, 0
2, 22768, Note_on_c, 0, 68, 0
2, 22793, Note_on_c, 0, 54, 34
2, 22794, Note_on_c, 0, 71, 49
2, 22825, Note_on_c, 0, 71, 0
2, 22834, Note_on_c, 0, 54, 0
2, 22845, Note_on_c, 0, 65, 41
2, 22847, Note_on_c, 0, 55, 51
2, 22850, Note_on_c, 0, 68, 32
2, 22885, Note_on_c, 0, 55, 0
2, 22887, Note_on_c, 0, 68, 0
2, 22889, Note_on_c, 0, 65, 0
2, 22896, Note_on_c, 0, 56, 46
2, 22903, Note_on_c, 0, 71, 49
2, 22931, Note_on_c, 0, 71, 0
2, 22957, Note_on_c, 0, 56, 0
2, 22963, Note_on_c, 0, 68, 37
2, 22964, Note_on_c, 0, 58, 50
2, 22967, Note_on_c, 0, 65, 31
2, 23011, Note_on_c, 0, 68, 0
2, 23013, Note_on_c, 0, 65, 0
2, 23020, Note_on_c, 0, 58, 0
2, 23049, Note_on_c, 0, 59, 45
2, 23057, Note_on_c, 0, 71, 33
2, 23069, Note_on_c, 0, 65, 5
2, 23071, Control_c, 0, 64, 88
2, 23075, Control_c, 0, 64, 24
2, 23079, Control_c, 0, 64, 0
2, 23099, Control_c, 0, 64, 88
2, 23103, Control_c, 0, 64, 127
2, 23108, Note_on_c, 0, 59, 0
2, 23109, Note_on_c, 0, 78, 0
2, 23109, Note_on_c, 0, 71, 0
2, 23109, Note_on_c, 0, 65, 0
2, 23146, Note_on_c, 0, 77, 59
2, 23178, Note_on_c, 0, 77, 0
2, 23202, Note_on_c, 0, 76, 69
2, 23227, Note_on_c, 0, 76, 0
2, 23235, Note_on_c, 0, 75, 68
2, 23256, Note_on_c, 0, 75, 0
2, 23262, Note_on_c, 0, 74, 56
2, 23282, Note_on_c, 0, 74, 0
2, 23284, Note_on_c, 0, 73, 57
2, 23309, Note_on_c, 0, 73, 0
2, 23311, Note_on_c, 0, 72, 66
2, 23328, Note_on_c, 0, 72, 0
2, 23336, Note_on_c, 0, 71, 64
2, 23348, Note_on_c, 0, 71, 0
2, 23389, Note_on_c, 0, 70, 60
2, 23406, Control_c, 0, 64, 56
2, 23410, Control_c, 0, 64, 0
2, 23430, Control_c, 0, 64, 24
2, 23434, Control_c, 0, 64, 104
2, 23438, Control_c, 0, 64, 127
2, 23444, Note_on_c, 0, 70, 0
2, 23458, Note_on_c, 0, 41, 40
2, 23462, Note_on_c, 0, 57, 21
2, 23474, Note_on_c, 0, 41, 0
2, 23498, Note_on_c, 0, 57, 0
2, 23514, Note_on_c, 0, 58, 45
2, 23518, Note_on_c, 0, 56, 44
2, 23545, Note_on_c, 0, 58, 0
2, 23551, Note_on_c, 0, 56, 0
2, 23566, Note_on_c, 0, 61, 58
2, 23574, Note_on_c, 0, 53, 38
2, 23584, Note_on_c, 0, 61, 0
2, 23611, Note_on_c, 0, 53, 0
2, 23619, Note_on_c, 0, 62, 46
2, 23622, Note_on_c, 0, 56, 42
2, 23643, Note_on_c, 0, 62, 0
2, 23673, Note_on_c, 0, 65, 66
2, 23676, Note_on_c, 0, 56, 0
2, 23681, Note_on_c, 0, 50, 40
2, 23691, Note_on_c, 0, 50, 0
2, 23696, Note_on_c, 0, 65, 0
2, 23728, Note_on_c, 0, 70, 77
2, 23752, Control_c, 0, 64, 104
2, 23756, Control_c, 0, 64, 40
2, 23760, Control_c, 0, 64, 0
2, 23783, Note_on_c, 0, 58, 46
2, 23785, Control_c, 0, 64, 88
2, 23789, Control_c, 0, 64, 127
2, 23789, Note_on_c, 0, 39, 40
2, 23809, Note_on_c, 0, 39, 0
2, 23816, Note_on_c, 0, 58, 0
2, 23820, Note_on_c, 0, 70, 0
2, 23835, Note_on_c, 0, 59, 62
2, 23843, Note_on_c, 0, 56, 55
2, 23855, Note_on_c, 0, 59, 0
2, 23861, Note_on_c, 0, 56, 0
2, 23895, Note_on_c, 0, 54, 43
2, 23895, Note_on_c, 0, 71, 82
2, 23904, Note_on_c, 0, 62, 43
2, 23943, Note_on_c, 0, 54, 0
2, 23946, Note_on_c, 0, 62, 0
2, 23953, Note_on_c, 0, 56, 36
2, 23966, Note_on_c, 0, 63, 60
2, 24002, Note_on_c, 0, 63, 0
2, 24004, Note_on_c, 0, 56, 0
2, 24004, Note_on_c, 0, 51, 45
2, 24012, Note_on_c, 0, 71, 0
2, 24017, Note_on_c, 0, 51, 0
2, 24025, Note_on_c, 0, 66, 60
2, 24064, Note_on_c, 0, 66, 0
2, 24067, Note_on_c, 0, 70, 82
2, 24087, Note_on_c, 0, 70, 0
2, 24149, Note_on_c, 0, 78, 84
2, 24176, Control_c, 0, 64, 104
2, 24180, Control_c, 0, 64, 24
2, 24184, Control_c, 0, 64, 0
2, 24215, Note_on_c, 0, 65, 41
2, 24216, Control_c, 0, 64, 88
2, 24220, Note_on_c, 0, 68, 39
2, 24220, Control_c, 0, 64, 127
2, 24232, Note_on_c, 0, 38, 44
2, 24242, Note_on_c, 0, 38, 0
2, 24251, Note_on_c, 0, 68, 0
2, 24254, Note_on_c, 0, 65, 0
2, 24280, Note_on_c, 0, 71, 54
2, 24286, Note_on_c, 0, 54, 44
2, 24311, Note_on_c, 0, 71, 0
2, 24329, Note_on_c, 0, 54, 0
2, 24339, Note_on_c, 0, 55, 62
2, 24340, Note_on_c, 0, 65, 38
2, 24341, Note_on_c, 0, 68, 37
2, 24370, Note_on_c, 0, 68, 0
2, 24372, Note_on_c, 0, 65, 0
2, 24392, Note_on_c, 0, 55, 0
2, 24393, Note_on_c, 0, 56, 47
2, 24401, Note_on_c, 0, 71, 52
2, 24423, Note_on_c, 0, 71, 0
2, 24453, Note_on_c, 0, 56, 0
2, 24459, Note_on_c, 0, 58, 43
2, 24464, Note_on_c, 0, 68, 35
2, 24466, Note_on_c, 0, 65, 35
2, 24497, Note_on_c, 0, 68, 0
2, 24499, Note_on_c, 0, 65, 0
2, 24528, Note_on_c, 0, 58, 0
2, 24549, Note_on_c, 0, 59, 44
2, 24551, Note_on_c, 0, 71, 33
2, 24571, Control_c, 0, 64, 88
2, 24576, Control_c, 0, 64, 0
2, 24600, Control_c, 0, 64, 104
2, 24604, Control_c, 0, 64, 127
2, 24607, Note_on_c, 0, 71, 0
2, 24615, Note_on_c, 0, 78, 0
2, 24619, Note_on_c, 0, 59, 0
2, 24644, Note_on_c, 0, 77, 66
2, 24677, Note_on_c, 0, 77, 0
2, 24702, Note_on_c, 0, 76, 64
2, 24729, Note_on_c, 0, 76, 0
2, 24732, Note_on_c, 0, 75, 57
2, 24752, Note_on_c, 0, 75, 0
2, 24756, Note_on_c, 0, 74, 62
2, 24781, Note_on_c, 0, 73, 58
2, 24782, Note_on_c, 0, 74, 0
2, 24807, Note_on_c, 0, 73, 0
2, 24808, Note_on_c, 0, 72, 66
2, 24826, Note_on_c, 0, 72, 0
2, 24832, Note_on_c, 0, 71, 63
2, 24847, Note_on_c, 0, 71, 0
2, 24884, Note_on_c, 0, 70, 70
2, 24894, Control_c, 0, 64, 88
2, 24898, Control_c, 0, 64, 24
2, 24902, Control_c, 0, 64, 0
2, 24922, Control_c, 0, 64, 72
2, 24926, Control_c, 0, 64, 127
2, 24934, Note_on_c, 0, 70, 0
2, 24946, Note_on_c, 0, 41, 45
2, 24950, Note_on_c, 0, 57, 45
2, 24956, Note_on_c, 0, 41, 0
2, 24981, Note_on_c, 0, 57, 0
2, 25002, Note_on_c, 0, 58, 47
2, 25003, Note_on_c, 0, 56, 47
2, 25032, Note_on_c, 0, 58, 0
2, 25038, Note_on_c, 0, 56, 0
2, 25057, Note_on_c, 0, 61, 50
2, 25062, Note_on_c, 0, 53, 44
2, 25080, Note_on_c, 0, 61, 0
2, 25093, Note_on_c, 0, 53, 0
2, 25106, Note_on_c, 0, 62, 60
2, 25108, Note_on_c, 0, 56, 46
2, 25135, Note_on_c, 0, 62, 0
2, 25163, Note_on_c, 0, 65, 63
2, 25166, Note_on_c, 0, 56, 0
2, 25173, Note_on_c, 0, 50, 26
2, 25180, Note_on_c, 0, 50, 0
2, 25186, Note_on_c, 0, 65, 0
2, 25219, Note_on_c, 0, 70, 72
2, 25236, Control_c, 0, 64, 88
2, 25240, Control_c, 0, 64, 24
2, 25245, Control_c, 0, 64, 0
2, 25265, Control_c, 0, 64, 40
2, 25269, Control_c, 0, 64, 127
2, 25271, Note_on_c, 0, 56, 49
2, 25277, Note_on_c, 0, 40, 49
2, 25286, Note_on_c, 0, 40, 0
2, 25289, Note_on_c, 0, 56, 0
2, 25306, Note_on_c, 0, 70, 0
2, 25325, Note_on_c, 0, 58, 62
2, 25333, Note_on_c, 0, 56, 56
2, 25349, Note_on_c, 0, 58, 0
2, 25358, Note_on_c, 0, 56, 0
2, 25383, Note_on_c, 0, 71, 77
2, 25389, Note_on_c, 0, 61, 43
2, 25394, Note_on_c, 0, 52, 45
2, 25404, Note_on_c, 0, 52, 0
2, 25426, Note_on_c, 0, 61, 0
2, 25438, Note_on_c, 0, 71, 0
2, 25440, Note_on_c, 0, 56, 37
2, 25446, Note_on_c, 0, 64, 54
2, 25472, Note_on_c, 0, 64, 0
2, 25497, Note_on_c, 0, 68, 57
2, 25499, Note_on_c, 0, 56, 0
2, 25500, Note_on_c, 0, 49, 37
2, 25508, Note_on_c, 0, 49, 0
2, 25526, Note_on_c, 0, 68, 0
2, 25536, Note_on_c, 0, 70, 67
2, 25579, Note_on_c, 0, 70, 0
2, 25584, Control_c, 0, 64, 40
2, 25588, Control_c, 0, 64, 0
2, 25591, Note_on_c, 0, 73, 73
2, 25594, Note_on_c, 0, 61, 59
2, 25608, Control_c, 0, 64, 104
2, 25611, Control_c, 0, 64, 127
2, 25614, Note_on_c, 0, 61, 0
2, 25616, Note_on_c, 0, 73, 0
2, 25647, Note_on_c, 0, 66, 69
2, 25652, Note_on_c, 0, 57, 44
2, 25660, Note_on_c, 0, 57, 0
2, 25676, Note_on_c, 0, 66, 0
2, 25700, Note_on_c, 0, 39, 48
2, 25702, Note_on_c, 0, 67, 67
2, 25704, Note_on_c, 0, 58, 34
2, 25722, Note_on_c, 0, 58, 0
2, 25724, Note_on_c, 0, 39, 0
2, 25729, Control_c, 0, 64, 72
2, 25731, Note_on_c, 0, 49, 44
2, 25733, Control_c, 0, 64, 24
2, 25738, Note_on_c, 0, 67, 0
2, 25741, Control_c, 0, 64, 40
2, 25745, Control_c, 0, 64, 72
2, 25749, Control_c, 0, 64, 127
2, 25755, Note_on_c, 0, 61, 51
2, 25756, Note_on_c, 0, 69, 71
2, 25762, Note_on_c, 0, 55, 56
2, 25774, Note_on_c, 0, 69, 0
2, 25774, Note_on_c, 0, 61, 0
2, 25788, Note_on_c, 0, 55, 0
2, 25796, Note_on_c, 0, 49, 0
2, 25805, Note_on_c, 0, 66, 50
2, 25807, Note_on_c, 0, 70, 69
2, 25820, Note_on_c, 0, 66, 0
2, 25826, Note_on_c, 0, 70, 0
2, 25855, Note_on_c, 0, 73, 85
2, 25855, Note_on_c, 0, 67, 52
2, 25884, Note_on_c, 0, 67, 0
2, 25884, Note_on_c, 0, 73, 0
2, 25907, Control_c, 0, 64, 88
2, 25911, Control_c, 0, 64, 0
2, 25912, Note_on_c, 0, 74, 82
2, 25915, Note_on_c, 0, 62, 64
2, 25927, Control_c, 0, 64, 24
2, 25931, Note_on_c, 0, 62, 0
2, 25931, Control_c, 0, 64, 88
2, 25934, Control_c, 0, 64, 127
2, 25942, Note_on_c, 0, 74, 0
2, 25971, Note_on_c, 0, 78, 78
2, 25973, Note_on_c, 0, 69, 52
2, 25981, Note_on_c, 0, 69, 0
2, 25992, Note_on_c, 0, 78, 0
2, 26003, Note_on_c, 0, 38, 48
2, 26018, Note_on_c, 0, 79, 87
2, 26019, Note_on_c, 0, 70, 63
2, 26021, Note_on_c, 0, 38, 0
2, 26021, Note_on_c, 0, 50, 61
2, 26029, Note_on_c, 0, 50, 0
2, 26041, Note_on_c, 0, 70, 0
2, 26058, Note_on_c, 0, 79, 0
2, 26070, Note_on_c, 0, 55, 59
2, 26071, Note_on_c, 0, 81, 79
2, 26071, Note_on_c, 0, 74, 70
2, 26077, Note_on_c, 0, 58, 36
2, 26078, Note_on_c, 0, 74, 0
2, 26086, Note_on_c, 0, 62, 60
2, 26090, Note_on_c, 0, 81, 0
2, 26104, Note_on_c, 0, 55, 0
2, 26114, Note_on_c, 0, 62, 0
2, 26116, Note_on_c, 0, 58, 0
2, 26120, Note_on_c, 0, 82, 79
2, 26120, Note_on_c, 0, 78, 57
2, 26151, Note_on_c, 0, 78, 0
2, 26151, Note_on_c, 0, 82, 0
2, 26170, Note_on_c, 0, 86, 84
2, 26174, Note_on_c, 0, 79, 71
2, 26182, Note_on_c, 0, 79, 0
2, 26185, Note_on_c, 0, 86, 0
2, 26228, Note_on_c, 0, 74, 88
2, 26230, Note_on_c, 0, 62, 68
2, 26238, Note_on_c, 0, 62, 0
2, 26244, Note_on_c, 0, 74, 0
2, 26264, Note_on_c, 0, 75, 88
2, 26266, Control_c, 0, 64, 40
2, 26267, Note_on_c, 0, 63, 77
2, 26270, Control_c, 0, 64, 0
2, 26274, Note_on_c, 0, 76, 30
2, 26280, Note_on_c, 0, 76, 0
2, 26280, Note_on_c, 0, 63, 0
2, 26282, Note_on_c, 0, 75, 0
2, 26282, Control_c, 0, 64, 72
2, 26286, Control_c, 0, 64, 127
2, 26315, Note_on_c, 0, 57, 58
2, 26317, Note_on_c, 0, 66, 71
2, 26331, Note_on_c, 0, 57, 0
2, 26335, Note_on_c, 0, 39, 48
2, 26342, Note_on_c, 0, 66, 0
2, 26357, Note_on_c, 0, 39, 0
2, 26359, Note_on_c, 0, 46, 55
2, 26363, Note_on_c, 0, 67, 80
2, 26365, Note_on_c, 0, 49, 58
2, 26365, Note_on_c, 0, 57, 60
2, 26382, Note_on_c, 0, 57, 0
2, 26389, Note_on_c, 0, 55, 59
2, 26390, Note_on_c, 0, 46, 0
2, 26404, Note_on_c, 0, 67, 0
2, 26404, Note_on_c, 0, 49, 0
2, 26406, Note_on_c, 0, 55, 0
2, 26416, Note_on_c, 0, 69, 92
2, 26416, Note_on_c, 0, 63, 58
2, 26433, Note_on_c, 0, 63, 0
2, 26433, Note_on_c, 0, 69, 0
2, 26464, Note_on_c, 0, 66, 75
2, 26464, Note_on_c, 0, 70, 65
2, 26472, Note_on_c, 0, 70, 0
2, 26477, Note_on_c, 0, 66, 0
2, 26514, Note_on_c, 0, 75, 89
2, 26516, Note_on_c, 0, 63, 80
2, 26536, Note_on_c, 0, 63, 0
2, 26558, Note_on_c, 0, 75, 0
2, 26560, Control_c, 0, 64, 72
2, 26564, Control_c, 0, 64, 0
2, 26570, Note_on_c, 0, 64, 82
2, 26571, Note_on_c, 0, 76, 93
2, 26583, Note_on_c, 0, 64, 0
2, 26585, Control_c, 0, 64, 56
2, 26589, Control_c, 0, 64, 127
2, 26594, Note_on_c, 0, 76, 0
2, 26621, Note_on_c, 0, 69, 59
2, 26624, Note_on_c, 0, 78, 75
2, 26636, Note_on_c, 0, 69, 0
2, 26638, Note_on_c, 0, 36, 60
2, 26644, Note_on_c, 0, 78, 0
2, 26656, Note_on_c, 0, 36, 0
2, 26656, Note_on_c, 0, 48, 74
2, 26663, Note_on_c, 0, 48, 0
2, 26671, Note_on_c, 0, 79, 96
2, 26671, Note_on_c, 0, 70, 72
2, 26709, Note_on_c, 0, 55, 59
2, 26713, Note_on_c, 0, 58, 31
2, 26715, Note_on_c, 0, 70, 0
2, 26715, Note_on_c, 0, 79, 0
2, 26722, Note_on_c, 0, 81, 87
2, 26722, Note_on_c, 0, 76, 75
2, 26727, Note_on_c, 0, 64, 66
2, 26737, Note_on_c, 0, 55, 0
2, 26740, Note_on_c, 0, 76, 0
2, 26740, Note_on_c, 0, 81, 0
2, 26744, Note_on_c, 0, 58, 0
2, 26744, Note_on_c, 0, 64, 0
2, 26767, Note_on_c, 0, 82, 86
2, 26769, Note_on_c, 0, 78, 80
2, 26783, Note_on_c, 0, 78, 0
2, 26789, Note_on_c, 0, 82, 0
2, 26831, Note_on_c, 0, 88, 94
2, 26833, Note_on_c, 0, 76, 82
2, 26846, Note_on_c, 0, 76, 0
2, 26846, Note_on_c, 0, 88, 0
2, 26913, Note_on_c, 0, 76, 97
2, 26915, Note_on_c, 0, 64, 76
2, 26922, Note_on_c, 0, 64, 0
2, 26930, Note_on_c, 0, 76, 0
2, 26959, Note_on_c, 0, 80, 97
2, 26960, Control_c, 0, 64, 104
2, 26961, Note_on_c, 0, 68, 91
2, 26964, Control_c, 0, 64, 0
2, 26970, Note_on_c, 0, 35, 66
2, 26972, Note_on_c, 0, 47, 71
2, 26988, Control_c, 0, 64, 127
2, 26991, Note_on_c, 0, 35, 0
2, 26999, Note_on_c, 0, 47, 0
2, 27005, Note_on_c, 0, 80, 0
2, 27010, Note_on_c, 0, 68, 0
2, 27075, Note_on_c, 0, 58, 44
2, 27075, Note_on_c, 0, 67, 74
2, 27077, Note_on_c, 0, 52, 58
2, 27077, Note_on_c, 0, 61, 49
2, 27087, Note_on_c, 0, 61, 0
2, 27103, Note_on_c, 0, 67, 0
2, 27107, Note_on_c, 0, 52, 0
2, 27118, Note_on_c, 0, 58, 0
2, 27132, Note_on_c, 0, 68, 81
2, 27132, Note_on_c, 0, 56, 56
2, 27137, Note_on_c, 0, 64, 60
2, 27137, Note_on_c, 0, 59, 55
2, 27146, Note_on_c, 0, 64, 0
2, 27150, Note_on_c, 0, 59, 0
2, 27152, Note_on_c, 0, 56, 0
2, 27154, Note_on_c, 0, 68, 0
2, 27182, Note_on_c, 0, 70, 81
2, 27183, Note_on_c, 0, 64, 71
2, 27187, Note_on_c, 0, 55, 52
2, 27187, Note_on_c, 0, 61, 50
2, 27197, Note_on_c, 0, 64, 0
2, 27199, Note_on_c, 0, 55, 0
2, 27212, Note_on_c, 0, 70, 0
2, 27214, Note_on_c, 0, 61, 0
2, 27226, Note_on_c, 0, 71, 80
2, 27226, Note_on_c, 0, 68, 68
2, 27226, Note_on_c, 0, 59, 53
2, 27229, Note_on_c, 0, 64, 65
2, 27238, Note_on_c, 0, 59, 0
2, 27239, Note_on_c, 0, 68, 0
2, 27241, Note_on_c, 0, 71, 0
2, 27246, Note_on_c, 0, 64, 0
2, 27266, Note_on_c, 0, 73, 87
2, 27266, Note_on_c, 0, 67, 73
2, 27267, Note_on_c, 0, 58, 54
2, 27278, Note_on_c, 0, 65, 30
2, 27279, Note_on_c, 0, 67, 0
2, 27280, Note_on_c, 0, 64, 24
2, 27290, Note_on_c, 0, 58, 0
2, 27291, Note_on_c, 0, 65, 0
2, 27291, Note_on_c, 0, 73, 0
2, 27293, Note_on_c, 0, 64, 0
2, 27308, Note_on_c, 0, 76, 86
2, 27309, Note_on_c, 0, 59, 61
2, 27311, Note_on_c, 0, 71, 64
2, 27313, Note_on_c, 0, 68, 60
2, 27318, Note_on_c, 0, 71, 0
2, 27318, Note_on_c, 0, 59, 0
2, 27325, Note_on_c, 0, 76, 0
2, 27328, Note_on_c, 0, 68, 0
2, 27348, Note_on_c, 0, 73, 78
2, 27351, Note_on_c, 0, 79, 76
2, 27354, Note_on_c, 0, 70, 67
2, 27355, Note_on_c, 0, 64, 66
2, 27363, Note_on_c, 0, 73, 0
2, 27370, Note_on_c, 0, 64, 0
2, 27374, Note_on_c, 0, 70, 0
2, 27376, Note_on_c, 0, 79, 0
2, 27393, Note_on_c, 0, 80, 91
2, 27396, Note_on_c, 0, 68, 62
2, 27398, Note_on_c, 0, 71, 70
2, 27399, Note_on_c, 0, 76, 68
2, 27405, Note_on_c, 0, 76, 0
2, 27407, Note_on_c, 0, 71, 0
2, 27409, Note_on_c, 0, 68, 0
2, 27414, Note_on_c, 0, 80, 0
2, 27436, Note_on_c, 0, 82, 89
2, 27437, Note_on_c, 0, 76, 80
2, 27441, Note_on_c, 0, 67, 66
2, 27441, Note_on_c, 0, 73, 64
2, 27454, Note_on_c, 0, 76, 0
2, 27457, Note_on_c, 0, 67, 0
2, 27466, Note_on_c, 0, 73, 0
2, 27468, Note_on_c, 0, 82, 0
2, 27486, Note_on_c, 0, 83, 92
2, 27488, Note_on_c, 0, 80, 82
2, 27490, Note_on_c, 0, 76, 65
2, 27490, Note_on_c, 0, 71, 55
2, 27498, Note_on_c, 0, 71, 0
2, 27502, Note_on_c, 0, 80, 0
2, 27505, Note_on_c, 0, 83, 0
2, 27507, Note_on_c, 0, 76, 0
2, 27535, Note_on_c, 0, 85, 93
2, 27536, Note_on_c, 0, 79, 74
2, 27538, Note_on_c, 0, 70, 67
2, 27540, Note_on_c, 0, 76, 68
2, 27544, Note_on_c, 0, 79, 0
2, 27557, Note_on_c, 0, 85, 0
2, 27563, Note_on_c, 0, 70, 0
2, 27575, Note_on_c, 0, 76, 0
2, 27596, Note_on_c, 0, 88, 89
2, 27599, Note_on_c, 0, 80, 73
2, 27599, Note_on_c, 0, 76, 53
2, 27601, Note_on_c, 0, 71, 60
2, 27603, Note_on_c, 0, 83, 60
2, 27608, Note_on_c, 0, 71, 0
2, 27608, Note_on_c, 0, 76, 0
2, 27610, Note_on_c, 0, 83, 0
2, 27612, Note_on_c, 0, 80, 0
2, 27622, Note_on_c, 0, 88, 0
2, 27685, Note_on_c, 0, 92, 102
2, 27687, Note_on_c, 0, 80, 82
2, 27722, Note_on_c, 0, 80, 0
2, 27730, Note_on_c, 0, 92, 0
2, 27887, Note_on_c, 0, 80, 95
2, 27896, Control_c, 0, 64, 24
2, 27900, Control_c, 0, 64, 0
2, 27915, Note_on_c, 0, 47, 70
2, 27920, Note_on_c, 0, 80, 0
2, 27920, Control_c, 0, 64, 72
2, 27922, Note_on_c, 0, 47, 0
2, 27923, Control_c, 0, 64, 127
2, 27932, Note_on_c, 0, 57, 66
2, 27949, Note_on_c, 0, 57, 0
2, 27960, Note_on_c, 0, 68, 64
2, 27961, Note_on_c, 0, 63, 55
2, 27966, Note_on_c, 0, 63, 0
2, 27983, Note_on_c, 0, 71, 73
2, 28011, Note_on_c, 0, 80, 89
2, 28057, Note_on_c, 0, 80, 0
2, 28058, Note_on_c, 0, 68, 0
2, 28096, Note_on_c, 0, 71, 0
2, 28109, Note_on_c, 0, 78, 82
2, 28116, Note_on_c, 0, 66, 47
2, 28174, Note_on_c, 0, 66, 0
2, 28184, Note_on_c, 0, 78, 0
2, 28297, Note_on_c, 0, 71, 77
2, 28300, Note_on_c, 0, 59, 58
2, 28311, Control_c, 0, 64, 56
2, 28316, Control_c, 0, 64, 0
2, 28320, Note_on_c, 0, 59, 0
2, 28340, Control_c, 0, 64, 104
2, 28341, Note_on_c, 0, 71, 0
2, 28341, Note_on_c, 0, 59, 39
2, 28344, Control_c, 0, 64, 127
2, 28358, Note_on_c, 0, 59, 0
2, 28359, Note_on_c, 0, 64, 51
2, 28376, Note_on_c, 0, 68, 54
2, 28378, Note_on_c, 0, 64, 0
2, 28394, Note_on_c, 0, 71, 65
2, 28398, Note_on_c, 0, 68, 0
2, 28407, Note_on_c, 0, 71, 0
2, 28429, Note_on_c, 0, 76, 77
2, 28490, Note_on_c, 0, 40, 49
2, 28543, Note_on_c, 0, 47, 53
2, 28546, Note_on_c, 0, 40, 0
2, 28589, Note_on_c, 0, 47, 0
2, 28595, Note_on_c, 0, 52, 65
2, 28632, Note_on_c, 0, 52, 0
2, 28644, Note_on_c, 0, 56, 47
2, 28690, Note_on_c, 0, 56, 0
2, 28698, Note_on_c, 0, 59, 48
2, 28750, Note_on_c, 0, 64, 55
2, 28764, Note_on_c, 0, 59, 0
2, 28771, Note_on_c, 0, 76, 0
2, 28775, Note_on_c, 0, 64, 0
2, 28798, Note_on_c, 0, 68, 49
2, 28830, Note_on_c, 0, 68, 0
2, 28847, Note_on_c, 0, 71, 55
2, 28901, Note_on_c, 0, 71, 0
2, 28905, Note_on_c, 0, 76, 59
2, 28914, Note_on_c, 0, 76, 0
2, 28954, Note_on_c, 0, 80, 53
2, 28990, Note_on_c, 0, 80, 0
2, 29008, Note_on_c, 0, 83, 59
2, 29039, Note_on_c, 0, 83, 0
2, 29079, Note_on_c, 0, 88, 66
2, 29101, Note_on_c, 0, 88, 0
2, 29153, Note_on_c, 0, 88, 59
2, 29173, Note_on_c, 0, 88, 0
2, 29222, Note_on_c, 0, 88, 67
2, 29244, Note_on_c, 0, 88, 0
2, 29298, Note_on_c, 0, 88, 57
2, 29320, Note_on_c, 0, 88, 0
2, 29379, Note_on_c, 0, 88, 52
2, 29402, Note_on_c, 0, 88, 0
2, 29460, Note_on_c, 0, 88, 44
2, 29483, Note_on_c, 0, 88, 0
2, 29545, Note_on_c, 0, 88, 45
2, 29568, Note_on_c, 0, 88, 0
2, 29641, Note_on_c, 0, 88, 48
2, 29663, Note_on_c, 0, 88, 0
2, 29773, Note_on_c, 0, 88, 52
2, 29800, Control_c, 0, 64, 40
2, 29804, Control_c, 0, 64, 0
2, 29835, Control_c, 0, 64, 104
2, 29840, Control_c, 0, 64, 127
2, 29880, Note_on_c, 0, 60, 39
2, 29890, Note_on_c, 0, 60, 0
2, 29895, Note_on_c, 0, 67, 39
2, 29906, Note_on_c, 0, 67, 0
2, 29920, Note_on_c, 0, 72, 53
2, 29933, Note_on_c, 0, 72, 0
2, 29937, Note_on_c, 0, 79, 35
2, 29947, Note_on_c, 0, 76, 50
2, 29955, Note_on_c, 0, 79, 0
2, 29957, Note_on_c, 0, 76, 0
2, 29960, Note_on_c, 0, 88, 0
2, 29961, Note_on_c, 0, 84, 56
2, 29975, Note_on_c, 0, 84, 0
2, 30075, Note_on_c, 0, 88, 76
2, 30097, Note_on_c, 0, 88, 0
2, 30140, Note_on_c, 0, 88, 81
2, 30166, Control_c, 0, 64, 88
2, 30170, Control_c, 0, 64, 0
2, 30199, Control_c, 0, 64, 72
2, 30203, Control_c, 0, 64, 127
2, 30205, Note_on_c, 0, 91, 82
2, 30215, Note_on_c, 0, 88, 0
2, 30248, Note_on_c, 0, 91, 0
2, 30259, Note_on_c, 0, 89, 83
2, 30269, Note_on_c, 0, 60, 44
2, 30279, Note_on_c, 0, 89, 0
2, 30284, Note_on_c, 0, 60, 0
2, 30287, Note_on_c, 0, 69, 45
2, 30310, Note_on_c, 0, 69, 0
2, 30312, Note_on_c, 0, 81, 64
2, 30313, Note_on_c, 0, 77, 41
2, 30362, Note_on_c, 0, 81, 0
2, 30371, Note_on_c, 0, 84, 74
2, 30384, Note_on_c, 0, 77, 0
2, 30410, Note_on_c, 0, 84, 0
2, 30425, Note_on_c, 0, 86, 72
2, 30457, Note_on_c, 0, 86, 0
2, 30480, Note_on_c, 0, 88, 77
2, 30515, Note_on_c, 0, 88, 0
2, 30534, Note_on_c, 0, 83, 73
2, 30558, Note_on_c, 0, 83, 0
2, 30596, Note_on_c, 0, 84, 74
2, 30630, Control_c, 0, 64, 88
2, 30634, Control_c, 0, 64, 0
2, 30641, Note_on_c, 0, 60, 40
2, 30654, Note_on_c, 0, 60, 0
2, 30658, Note_on_c, 0, 67, 33
2, 30662, Control_c, 0, 64, 104
2, 30667, Control_c, 0, 64, 127
2, 30671, Note_on_c, 0, 67, 0
2, 30671, Note_on_c, 0, 84, 0
2, 30681, Note_on_c, 0, 79, 67
2, 30689, Note_on_c, 0, 76, 50
2, 30700, Note_on_c, 0, 79, 0
2, 30703, Note_on_c, 0, 76, 0
2, 30746, Note_on_c, 0, 79, 37
2, 30752, Note_on_c, 0, 72, 37
2, 30764, Note_on_c, 0, 72, 0
2, 30768, Note_on_c, 0, 79, 0
2, 30805, Note_on_c, 0, 76, 39
2, 30809, Note_on_c, 0, 67, 32
2, 30820, Note_on_c, 0, 67, 0
2, 30832, Note_on_c, 0, 76, 0
2, 30877, Note_on_c, 0, 79, 45
2, 30879, Note_on_c, 0, 72, 47
2, 30890, Note_on_c, 0, 72, 0
2, 30892, Note_on_c, 0, 79, 0
2, 30944, Note_on_c, 0, 78, 63
2, 30984, Note_on_c, 0, 78, 0
2, 31014, Note_on_c, 0, 79, 65
2, 31034, Control_c, 0, 64, 104
2, 31038, Control_c, 0, 64, 40
2, 31042, Control_c, 0, 64, 0
2, 31054, Control_c, 0, 64, 56
2, 31058, Control_c, 0, 64, 104
2, 31062, Control_c, 0, 64, 127
2, 31072, Note_on_c, 0, 84, 73
2, 31074, Note_on_c, 0, 79, 0
2, 31078, Control_c, 0, 64, 88
2, 31082, Control_c, 0, 64, 40
2, 31086, Control_c, 0, 64, 0
2, 31097, Control_c, 0, 64, 72
2, 31102, Control_c, 0, 64, 104
2, 31106, Control_c, 0, 64, 127
2, 31122, Control_c, 0, 64, 104
2, 31126, Control_c, 0, 64, 56
2, 31130, Note_on_c, 0, 84, 0
2, 31130, Control_c, 0, 64, 0
2, 31131, Note_on_c, 0, 88, 82
2, 31146, Control_c, 0, 64, 56
2, 31151, Control_c, 0, 64, 88
2, 31155, Control_c, 0, 64, 127
2, 31190, Note_on_c, 0, 88, 0
2, 31190, Note_on_c, 0, 89, 87
2, 31198, Control_c, 0, 64, 56
2, 31203, Control_c, 0, 64, 0
2, 31223, Control_c, 0, 64, 72
2, 31227, Control_c, 0, 64, 127
2, 31266, Note_on_c, 0, 89, 0
2, 31266, Note_on_c, 0, 85, 75
2, 31284, Control_c, 0, 64, 88
2, 31288, Control_c, 0, 64, 24
2, 31291, Control_c, 0, 64, 0
2, 31316, Control_c, 0, 64, 104
2, 31320, Control_c, 0, 64, 127
2, 31415, Note_on_c, 0, 85, 0
2, 31421, Note_on_c, 0, 86, 65
2, 31422, Note_on_c, 0, 68, 36
2, 31432, Note_on_c, 0, 77, 33
2, 31458, Note_on_c, 0, 77, 0
2, 31458, Note_on_c, 0, 68, 0
2, 31483, Note_on_c, 0, 80, 40
2, 31492, Note_on_c, 0, 71, 38
2, 31508, Note_on_c, 0, 71, 0
2, 31515, Note_on_c, 0, 80, 0
2, 31543, Note_on_c, 0, 68, 47
2, 31549, Note_on_c, 0, 77, 36
2, 31576, Note_on_c, 0, 68, 0
2, 31592, Note_on_c, 0, 77, 0
2, 31609, Note_on_c, 0, 80, 37
2, 31621, Note_on_c, 0, 71, 19
2, 31623, Note_on_c, 0, 86, 0
2, 31630, Note_on_c, 0, 71, 0
2, 31630, Note_on_c, 0, 80, 0
2, 31669, Note_on_c, 0, 78, 68
2, 31705, Note_on_c, 0, 78, 0
2, 31730, Note_on_c, 0, 79, 69
2, 31748, Control_c, 0, 64, 56
2, 31752, Control_c, 0, 64, 0
2, 31752, Note_on_c, 0, 67, 42
2, 31772, Note_on_c, 0, 74, 42
2, 31775, Control_c, 0, 64, 127
2, 31786, Note_on_c, 0, 79, 0
2, 31787, Note_on_c, 0, 67, 0
2, 31790, Note_on_c, 0, 77, 44
2, 31800, Note_on_c, 0, 74, 0
2, 31802, Note_on_c, 0, 83, 68
2, 31811, Note_on_c, 0, 77, 0
2, 31841, Note_on_c, 0, 83, 0
2, 31862, Note_on_c, 0, 86, 78
2, 31920, Note_on_c, 0, 86, 0
2, 31926, Note_on_c, 0, 89, 78
2, 32013, Note_on_c, 0, 89, 0
2, 32015, Note_on_c, 0, 93, 85
2, 32058, Control_c, 0, 64, 72
2, 32062, Control_c, 0, 64, 0
2, 32086, Control_c, 0, 64, 72
2, 32088, Note_on_c, 0, 60, 42
2, 32090, Control_c, 0, 64, 127
2, 32116, Note_on_c, 0, 60, 0
2, 32144, Note_on_c, 0, 66, 39
2, 32184, Note_on_c, 0, 66, 0
2, 32203, Note_on_c, 0, 75, 45
2, 32224, Note_on_c, 0, 75, 0
2, 32275, Note_on_c, 0, 78, 40
2, 32321, Note_on_c, 0, 78, 0
2, 32342, Note_on_c, 0, 84, 53
2, 32366, Note_on_c, 0, 84, 0
2, 32408, Note_on_c, 0, 93, 0
2, 32430, Note_on_c, 0, 91, 55
2, 32434, Note_on_c, 0, 84, 32
2, 32441, Note_on_c, 0, 76, 33
2, 32441, Note_on_c, 0, 79, 32
2, 32466, Control_c, 0, 64, 72
2, 32470, Control_c, 0, 64, 0
2, 32505, Control_c, 0, 64, 56
2, 32509, Control_c, 0, 64, 127
2, 32530, Note_on_c, 0, 79, 0
2, 32534, Note_on_c, 0, 76, 0
2, 32540, Note_on_c, 0, 84, 0
2, 32547, Note_on_c, 0, 91, 0
2, 32668, Note_on_c, 0, 55, 44
2, 32752, Note_on_c, 0, 55, 0
2, 32843, Note_on_c, 0, 64, 54
2, 32861, Note_on_c, 0, 64, 0
2, 32889, Control_c, 0, 64, 88
2, 32892, Note_on_c, 0, 48, 59
2, 32893, Control_c, 0, 64, 0
2, 32902, Note_on_c, 0, 48, 0
2, 32904, Note_on_c, 0, 55, 22
2, 32913, Control_c, 0, 64, 88
2, 32917, Control_c, 0, 64, 127
2, 32928, Note_on_c, 0, 55, 0
2, 32935, Note_on_c, 0, 64, 65
2, 32953, Note_on_c, 0, 64, 0
2, 32995, Note_on_c, 0, 67, 53
2, 33018, Note_on_c, 0, 67, 0
2, 33051, Note_on_c, 0, 76, 59
2, 33069, Note_on_c, 0, 76, 0
2, 33108, Note_on_c, 0, 79, 55
2, 33138, Note_on_c, 0, 79, 0
2, 33173, Note_on_c, 0, 88, 59
2, 33179, Note_on_c, 0, 84, 27
2, 33190, Note_on_c, 0, 84, 0
2, 33194, Note_on_c, 0, 88, 0
2, 33252, Control_c, 0, 64, 72
2, 33256, Control_c, 0, 64, 0
2, 33257, Note_on_c, 0, 48, 49
2, 33269, Note_on_c, 0, 48, 0
2, 33273, Note_on_c, 0, 56, 45
2, 33276, Control_c, 0, 64, 88
2, 33280, Control_c, 0, 64, 127
2, 33292, Note_on_c, 0, 56, 0
2, 33308, Note_on_c, 0, 65, 69
2, 33364, Note_on_c, 0, 68, 45
2, 33394, Note_on_c, 0, 68, 0
2, 33406, Note_on_c, 0, 65, 0
2, 33406, Note_on_c, 0, 60, 74
2, 33428, Note_on_c, 0, 77, 38
2, 33439, Note_on_c, 0, 77, 0
2, 33475, Note_on_c, 0, 80, 53
2, 33502, Note_on_c, 0, 80, 0
2, 33526, Note_on_c, 0, 89, 49
2, 33528, Note_on_c, 0, 84, 24
2, 33539, Note_on_c, 0, 84, 0
2, 33546, Note_on_c, 0, 89, 0
2, 33582, Note_on_c, 0, 60, 0
2, 33586, Note_on_c, 0, 62, 66
2, 33599, Note_on_c, 0, 62, 0
2, 33672, Note_on_c, 0, 48, 41
2, 33708, Note_on_c, 0, 55, 24
2, 33731, Note_on_c, 0, 63, 57
2, 33735, Control_c, 0, 64, 88
2, 33740, Control_c, 0, 64, 40
2, 33744, Control_c, 0, 64, 0
2, 33796, Control_c, 0, 64, 72
2, 33797, Note_on_c, 0, 67, 46
2, 33800, Control_c, 0, 64, 127
2, 33812, Note_on_c, 0, 67, 0
2, 33847, Note_on_c, 0, 75, 48
2, 33851, Note_on_c, 0, 72, 36
2, 33861, Note_on_c, 0, 72, 0
2, 33872, Note_on_c, 0, 75, 0
2, 33902, Note_on_c, 0, 79, 41
2, 33916, Note_on_c, 0, 79, 0
2, 33953, Note_on_c, 0, 87, 50
2, 33956, Note_on_c, 0, 84, 32
2, 33968, Note_on_c, 0, 84, 0
2, 33977, Note_on_c, 0, 87, 0
2, 34052, Note_on_c, 0, 48, 0
2, 34103, Note_on_c, 0, 55, 0
2, 34114, Note_on_c, 0, 63, 0
2, 34166, Note_on_c, 0, 63, 71
2, 34199, Note_on_c, 0, 63, 0
2, 34264, Note_on_c, 0, 47, 50
2, 34278, Note_on_c, 0, 47, 0
2, 34326, Note_on_c, 0, 63, 76
2, 34361, Control_c, 0, 64, 40
2, 34365, Control_c, 0, 64, 0
2, 34385, Control_c, 0, 64, 72
2, 34389, Control_c, 0, 64, 127
2, 34394, Note_on_c, 0, 68, 47
2, 34424, Note_on_c, 0, 68, 0
2, 34446, Note_on_c, 0, 75, 48
2, 34446, Note_on_c, 0, 71, 22
2, 34452, Note_on_c, 0, 71, 0
2, 34463, Note_on_c, 0, 75, 0
2, 34494, Note_on_c, 0, 80, 58
2, 34522, Note_on_c, 0, 80, 0
2, 34540, Note_on_c, 0, 87, 54
2, 34546, Note_on_c, 0, 83, 30
2, 34554, Note_on_c, 0, 83, 0
2, 34560, Note_on_c, 0, 87, 0
2, 34589, Note_on_c, 0, 63, 0
2, 34589, Note_on_c, 0, 64, 70
2, 34626, Note_on_c, 0, 63, 70
2, 34630, Note_on_c, 0, 64, 0
2, 34632, Note_on_c, 0, 63, 0
2, 34680, Note_on_c, 0, 61, 72
2, 34680, Control_c, 0, 64, 104
2, 34684, Control_c, 0, 64, 24
2, 34688, Control_c, 0, 64, 0
2, 34700, Note_on_c, 0, 44, 35
2, 34708, Control_c, 0, 64, 104
2, 34711, Control_c, 0, 64, 127
2, 34719, Note_on_c, 0, 61, 0
2, 34730, Note_on_c, 0, 44, 0
2, 34746, Note_on_c, 0, 63, 51
2, 34772, Note_on_c, 0, 63, 0
2, 34793, Note_on_c, 0, 68, 43
2, 34796, Note_on_c, 0, 71, 48
2, 34806, Note_on_c, 0, 68, 0
2, 34810, Note_on_c, 0, 71, 0
2, 34849, Note_on_c, 0, 75, 54
2, 34871, Note_on_c, 0, 75, 0
2, 34891, Note_on_c, 0, 83, 63
2, 34897, Note_on_c, 0, 80, 55
2, 34907, Note_on_c, 0, 80, 0
2, 34913, Note_on_c, 0, 83, 0
2, 34947, Note_on_c, 0, 59, 62
2, 34963, Note_on_c, 0, 59, 0
2, 34996, Note_on_c, 0, 39, 37
2, 35018, Note_on_c, 0, 39, 0
2, 35046, Note_on_c, 0, 59, 65
2, 35063, Control_c, 0, 64, 88
2, 35067, Control_c, 0, 64, 0
2, 35083, Control_c, 0, 64, 72
2, 35087, Control_c, 0, 64, 127
2, 35104, Note_on_c, 0, 63, 53
2, 35129, Note_on_c, 0, 63, 0
2, 35158, Note_on_c, 0, 71, 52
2, 35158, Note_on_c, 0, 67, 44
2, 35168, Note_on_c, 0, 67, 0
2, 35178, Note_on_c, 0, 71, 0
2, 35213, Note_on_c, 0, 58, 56
2, 35214, Note_on_c, 0, 59, 0
2, 35247, Control_c, 0, 64, 104
2, 35251, Control_c, 0, 64, 0
2, 35277, Note_on_c, 0, 70, 46
2, 35284, Control_c, 0, 64, 88
2, 35288, Control_c, 0, 64, 127
2, 35307, Note_on_c, 0, 70, 0
2, 35331, Note_on_c, 0, 79, 55
2, 35331, Note_on_c, 0, 75, 37
2, 35340, Note_on_c, 0, 75, 0
2, 35343, Note_on_c, 0, 79, 0
2, 35391, Note_on_c, 0, 82, 46
2, 35414, Note_on_c, 0, 82, 0
2, 35457, Note_on_c, 0, 58, 0
2, 35460, Note_on_c, 0, 57, 54
2, 35461, Note_on_c, 0, 87, 40
2, 35462, Note_on_c, 0, 91, 44
2, 35532, Note_on_c, 0, 57, 0
2, 35537, Note_on_c, 0, 87, 0
2, 35538, Note_on_c, 0, 91, 0
2, 35538, Note_on_c, 0, 58, 55
2, 35551, Control_c, 0, 64, 104
2, 35555, Control_c, 0, 64, 0
2, 35579, Control_c, 0, 64, 24
2, 35583, Control_c, 0, 64, 88
2, 35587, Control_c, 0, 64, 127
2, 35611, Control_c, 0, 64, 56
2, 35611, Note_on_c, 0, 63, 60
2, 35614, Note_on_c, 0, 58, 0
2, 35615, Control_c, 0, 64, 0
2, 35627, Control_c, 0, 64, 24
2, 35631, Control_c, 0, 64, 88
2, 35635, Control_c, 0, 64, 127
2, 35653, Note_on_c, 0, 63, 0
2, 35685, Note_on_c, 0, 67, 58
2, 35747, Note_on_c, 0, 67, 0
2, 35761, Note_on_c, 0, 68, 61
2, 35778, Note_on_c, 0, 68, 0
2, 35850, Note_on_c, 0, 64, 60
2, 35865, Control_c, 0, 64, 56
2, 35869, Control_c, 0, 64, 0
2, 35902, Control_c, 0, 64, 127
2, 35923, Note_on_c, 0, 56, 43
2, 35929, Note_on_c, 0, 47, 33
2, 35957, Note_on_c, 0, 56, 0
2, 35968, Note_on_c, 0, 47, 0
2, 35968, Note_on_c, 0, 64, 0
2, 35981, Note_on_c, 0, 50, 48
2, 35984, Note_on_c, 0, 59, 42
2, 35995, Note_on_c, 0, 50, 0
2, 36006, Note_on_c, 0, 59, 0
2, 36039, Note_on_c, 0, 65, 67
2, 36043, Note_on_c, 0, 39, 38
2, 36044, Note_on_c, 0, 56, 25
2, 36082, Note_on_c, 0, 56, 0
2, 36099, Note_on_c, 0, 50, 35
2, 36105, Note_on_c, 0, 65, 0
2, 36110, Note_on_c, 0, 59, 35
2, 36138, Note_on_c, 0, 59, 0
2, 36148, Note_on_c, 0, 50, 0
2, 36148, Note_on_c, 0, 56, 46
2, 36150, Note_on_c, 0, 47, 41
2, 36151, Note_on_c, 0, 39, 0
2, 36161, Note_on_c, 0, 47, 0
2, 36161, Note_on_c, 0, 56, 0
2, 36189, Note_on_c, 0, 65, 74
2, 36219, Note_on_c, 0, 65, 0
2, 36252, Note_on_c, 0, 71, 66
2, 36273, Control_c, 0, 64, 72
2, 36277, Control_c, 0, 64, 0
2, 36305, Control_c, 0, 64, 88
2, 36309, Control_c, 0, 64, 127
2, 36313, Note_on_c, 0, 59, 49
2, 36318, Note_on_c, 0, 50, 41
2, 36350, Note_on_c, 0, 59, 0
2, 36352, Note_on_c, 0, 50, 0
2, 36367, Note_on_c, 0, 62, 52
2, 36368, Note_on_c, 0, 53, 43
2, 36378, Note_on_c, 0, 53, 0
2, 36387, Note_on_c, 0, 71, 0
2, 36413, Note_on_c, 0, 62, 0
2, 36424, Note_on_c, 0, 59, 51
2, 36425, Note_on_c, 0, 65, 60
2, 36426, Note_on_c, 0, 39, 54
2, 36436, Note_on_c, 0, 39, 0
2, 36450, Note_on_c, 0, 59, 0
2, 36473, Note_on_c, 0, 65, 0
2, 36492, Note_on_c, 0, 70, 69
2, 36496, Note_on_c, 0, 53, 41
2, 36496, Note_on_c, 0, 62, 52
2, 36530, Note_on_c, 0, 62, 0
2, 36533, Note_on_c, 0, 70, 0
2, 36548, Note_on_c, 0, 53, 0
2, 36548, Note_on_c, 0, 68, 71
2, 36552, Note_on_c, 0, 59, 59
2, 36556, Note_on_c, 0, 50, 42
2, 36565, Note_on_c, 0, 50, 0
2, 36565, Note_on_c, 0, 59, 0
2, 36587, Note_on_c, 0, 68, 0
2, 36606, Note_on_c, 0, 66, 72
2, 36635, Control_c, 0, 64, 72
2, 36639, Control_c, 0, 64, 0
2, 36660, Note_on_c, 0, 58, 67
2, 36668, Note_on_c, 0, 49, 44
2, 36672, Control_c, 0, 64, 88
2, 36676, Control_c, 0, 64, 127
2, 36706, Note_on_c, 0, 49, 0
2, 36709, Note_on_c, 0, 58, 0
2, 36714, Note_on_c, 0, 61, 53
2, 36717, Note_on_c, 0, 52, 49
2, 36728, Note_on_c, 0, 52, 0
2, 36738, Note_on_c, 0, 61, 0
2, 36746, Note_on_c, 0, 66, 0
2, 36765, Note_on_c, 0, 67, 77
2, 36767, Note_on_c, 0, 58, 38
2, 36775, Note_on_c, 0, 39, 40
2, 36791, Note_on_c, 0, 58, 0
2, 36804, Note_on_c, 0, 39, 0
2, 36819, Note_on_c, 0, 61, 47
2, 36822, Note_on_c, 0, 52, 43
2, 36844, Note_on_c, 0, 61, 0
2, 36844, Note_on_c, 0, 67, 0
2, 36856, Note_on_c, 0, 58, 37
2, 36860, Note_on_c, 0, 52, 0
2, 36861, Note_on_c, 0, 49, 48
2, 36863, Note_on_c, 0, 58, 0
2, 36869, Note_on_c, 0, 49, 0
2, 36894, Note_on_c, 0, 67, 81
2, 36915, Note_on_c, 0, 67, 0
2, 36943, Note_on_c, 0, 73, 83
2, 36979, Control_c, 0, 64, 88
2, 36983, Control_c, 0, 64, 0
2, 36993, Note_on_c, 0, 61, 55
2, 37006, Note_on_c, 0, 52, 42
2, 37011, Control_c, 0, 64, 72
2, 37014, Control_c, 0, 64, 127
2, 37028, Note_on_c, 0, 61, 0
2, 37041, Note_on_c, 0, 52, 0
2, 37045, Note_on_c, 0, 64, 64
2, 37051, Note_on_c, 0, 55, 55
2, 37057, Note_on_c, 0, 73, 0
2, 37059, Note_on_c, 0, 55, 0
2, 37080, Note_on_c, 0, 64, 0
2, 37099, Note_on_c, 0, 39, 35
2, 37101, Note_on_c, 0, 67, 63
2, 37103, Note_on_c, 0, 61, 36
2, 37107, Note_on_c, 0, 39, 0
2, 37116, Note_on_c, 0, 61, 0
2, 37138, Note_on_c, 0, 67, 0
2, 37152, Note_on_c, 0, 55, 41
2, 37153, Note_on_c, 0, 72, 76
2, 37159, Note_on_c, 0, 64, 49
2, 37168, Note_on_c, 0, 64, 0
2, 37179, Note_on_c, 0, 72, 0
2, 37186, Note_on_c, 0, 55, 0
2, 37204, Note_on_c, 0, 70, 72
2, 37207, Note_on_c, 0, 61, 45
2, 37208, Note_on_c, 0, 52, 51
2, 37216, Note_on_c, 0, 52, 0
2, 37229, Note_on_c, 0, 61, 0
2, 37241, Note_on_c, 0, 70, 0
2, 37266, Note_on_c, 0, 67, 81
2, 37302, Control_c, 0, 64, 56
2, 37306, Control_c, 0, 64, 0
2, 37318, Note_on_c, 0, 60, 53
2, 37329, Note_on_c, 0, 51, 37
2, 37334, Control_c, 0, 64, 127
2, 37352, Note_on_c, 0, 60, 0
2, 37359, Note_on_c, 0, 51, 0
2, 37362, Note_on_c, 0, 67, 0
2, 37366, Note_on_c, 0, 63, 62
2, 37367, Note_on_c, 0, 56, 48
2, 37385, Note_on_c, 0, 56, 0
2, 37412, Note_on_c, 0, 63, 0
2, 37420, Note_on_c, 0, 68, 75
2, 37426, Note_on_c, 0, 60, 62
2, 37426, Note_on_c, 0, 39, 31
2, 37445, Note_on_c, 0, 39, 0
2, 37449, Note_on_c, 0, 60, 0
2, 37475, Note_on_c, 0, 63, 56
2, 37478, Note_on_c, 0, 56, 53
2, 37517, Note_on_c, 0, 63, 0
2, 37519, Note_on_c, 0, 68, 0
2, 37522, Note_on_c, 0, 60, 69
2, 37530, Note_on_c, 0, 51, 39
2, 37532, Note_on_c, 0, 56, 0
2, 37534, Note_on_c, 0, 60, 0
2, 37537, Note_on_c, 0, 51, 0
2, 37587, Note_on_c, 0, 75, 90
2, 37623, Control_c, 0, 64, 72
2, 37628, Control_c, 0, 64, 0
2, 37641, Note_on_c, 0, 63, 57
2, 37648, Note_on_c, 0, 54, 40
2, 37656, Control_c, 0, 64, 88
2, 37660, Control_c, 0, 64, 127
2, 37684, Note_on_c, 0, 54, 0
2, 37685, Note_on_c, 0, 63, 0
2, 37691, Note_on_c, 0, 66, 51
2, 37694, Note_on_c, 0, 57, 45
2, 37701, Note_on_c, 0, 57, 0
2, 37707, Note_on_c, 0, 75, 0
2, 37734, Note_on_c, 0, 66, 0
2, 37747, Note_on_c, 0, 60, 59
2, 37749, Note_on_c, 0, 69, 71
2, 37761, Note_on_c, 0, 60, 0
2, 37765, Note_on_c, 0, 39, 40
2, 37778, Note_on_c, 0, 39, 0
2, 37791, Note_on_c, 0, 69, 0
2, 37808, Note_on_c, 0, 57, 56
2, 37809, Note_on_c, 0, 73, 83
2, 37813, Note_on_c, 0, 66, 44
2, 37840, Note_on_c, 0, 57, 0
2, 37844, Note_on_c, 0, 73, 0
2, 37851, Note_on_c, 0, 66, 0
2, 37866, Note_on_c, 0, 72, 78
2, 37870, Note_on_c, 0, 54, 43
2, 37870, Note_on_c, 0, 63, 46
2, 37878, Note_on_c, 0, 54, 0
2, 37879, Note_on_c, 0, 63, 0
2, 37892, Note_on_c, 0, 72, 0
2, 37934, Note_on_c, 0, 55, 41
2, 37936, Note_on_c, 0, 58, 51
2, 37952, Note_on_c, 0, 63, 65
2, 37963, Control_c, 0, 64, 56
2, 37967, Control_c, 0, 64, 0
2, 38004, Note_on_c, 0, 75, 58
2, 38004, Control_c, 0, 64, 127
2, 38018, Note_on_c, 0, 63, 0
2, 38024, Note_on_c, 0, 75, 0
2, 38053, Note_on_c, 0, 63, 39
2, 38053, Note_on_c, 0, 73, 55
2, 38061, Note_on_c, 0, 63, 0
2, 38072, Note_on_c, 0, 73, 0
2, 38102, Note_on_c, 0, 61, 62
2, 38116, Note_on_c, 0, 61, 0
2, 38116, Note_on_c, 0, 58, 0
2, 38117, Note_on_c, 0, 55, 0
2, 38148, Note_on_c, 0, 87, 67
2, 38156, Note_on_c, 0, 79, 46
2, 38166, Note_on_c, 0, 79, 0
2, 38172, Note_on_c, 0, 87, 0
2, 38192, Note_on_c, 0, 39, 56
2, 38196, Note_on_c, 0, 85, 63
2, 38201, Note_on_c, 0, 75, 50
2, 38206, Note_on_c, 0, 39, 0
2, 38211, Note_on_c, 0, 75, 0
2, 38212, Note_on_c, 0, 85, 0
2, 38258, Note_on_c, 0, 59, 68
2, 38260, Note_on_c, 0, 57, 48
2, 38262, Note_on_c, 0, 54, 46
2, 38282, Control_c, 0, 64, 104
2, 38286, Control_c, 0, 64, 40
2, 38290, Control_c, 0, 64, 0
2, 38308, Note_on_c, 0, 71, 52
2, 38308, Note_on_c, 0, 63, 30
2, 38314, Control_c, 0, 64, 72
2, 38318, Note_on_c, 0, 63, 0
2, 38318, Control_c, 0, 64, 127
2, 38328, Note_on_c, 0, 71, 0
2, 38350, Note_on_c, 0, 66, 47
2, 38356, Note_on_c, 0, 72, 64
2, 38362, Note_on_c, 0, 66, 0
2, 38368, Note_on_c, 0, 72, 0
2, 38399, Note_on_c, 0, 59, 0
2, 38407, Note_on_c, 0, 60, 77
2, 38413, Note_on_c, 0, 54, 0
2, 38420, Note_on_c, 0, 57, 0
2, 38428, Note_on_c, 0, 60, 0
2, 38452, Note_on_c, 0, 83, 69
2, 38454, Note_on_c, 0, 75, 40
2, 38467, Note_on_c, 0, 75, 0
2, 38474, Note_on_c, 0, 83, 0
2, 38500, Note_on_c, 0, 84, 74
2, 38505, Note_on_c, 0, 79, 57
2, 38513, Note_on_c, 0, 79, 0
2, 38521, Note_on_c, 0, 84, 0
2, 38521, Note_on_c, 0, 55, 42
2, 38525, Note_on_c, 0, 58, 49
2, 38555, Note_on_c, 0, 63, 84
2, 38564, Control_c, 0, 64, 56
2, 38568, Control_c, 0, 64, 0
2, 38596, Control_c, 0, 64, 127
2, 38602, Note_on_c, 0, 87, 80
2, 38607, Note_on_c, 0, 79, 71
2, 38630, Note_on_c, 0, 79, 0
2, 38633, Note_on_c, 0, 87, 0
2, 38641, Note_on_c, 0, 61, 4
2, 38644, Note_on_c, 0, 63, 0
2, 38650, Note_on_c, 0, 85, 75
2, 38650, Note_on_c, 0, 75, 64
2, 38661, Note_on_c, 0, 75, 0
2, 38670, Note_on_c, 0, 85, 0
2, 38695, Note_on_c, 0, 61, 0
2, 38699, Note_on_c, 0, 64, 82
2, 38714, Note_on_c, 0, 55, 0
2, 38716, Note_on_c, 0, 64, 0
2, 38716, Note_on_c, 0, 58, 0
2, 38745, Note_on_c, 0, 100, 89
2, 38749, Note_on_c, 0, 91, 66
2, 38768, Note_on_c, 0, 100, 0
2, 38779, Note_on_c, 0, 91, 0
2, 38784, Note_on_c, 0, 39, 65
2, 38789, Note_on_c, 0, 97, 76
2, 38792, Note_on_c, 0, 88, 63
2, 38799, Note_on_c, 0, 39, 0
2, 38804, Note_on_c, 0, 97, 0
2, 38807, Note_on_c, 0, 88, 0
2, 38853, Note_on_c, 0, 65, 82
2, 38855, Note_on_c, 0, 61, 60
2, 38856, Note_on_c, 0, 56, 48
2, 38874, Control_c, 0, 64, 104
2, 38878, Control_c, 0, 64, 40
2, 38883, Control_c, 0, 64, 0
2, 38907, Note_on_c, 0, 89, 72
2, 38908, Note_on_c, 0, 80, 64
2, 38911, Control_c, 0, 64, 127
2, 38935, Note_on_c, 0, 89, 0
2, 38942, Note_on_c, 0, 80, 0
2, 38953, Note_on_c, 0, 85, 64
2, 38956, Note_on_c, 0, 77, 55
2, 38971, Note_on_c, 0, 85, 0
2, 38975, Note_on_c, 0, 77, 0
2, 39002, Note_on_c, 0, 58, 65
2, 39006, Note_on_c, 0, 65, 0
2, 39018, Note_on_c, 0, 61, 0
2, 39027, Note_on_c, 0, 56, 0
2, 39053, Note_on_c, 0, 69, 74
2, 39053, Note_on_c, 0, 61, 50
2, 39063, Note_on_c, 0, 61, 0
2, 39079, Note_on_c, 0, 69, 0
2, 39097, Note_on_c, 0, 70, 68
2, 39097, Note_on_c, 0, 65, 50
2, 39100, Note_on_c, 0, 58, 0
2, 39115, Note_on_c, 0, 65, 0
2, 39115, Note_on_c, 0, 70, 0
2, 39132, Note_on_c, 0, 55, 52
2, 39134, Note_on_c, 0, 58, 44
2, 39153, Note_on_c, 0, 63, 77
2, 39159, Control_c, 0, 64, 72
2, 39163, Control_c, 0, 64, 0
2, 39194, Control_c, 0, 64, 127
2, 39203, Note_on_c, 0, 75, 67
2, 39210, Note_on_c, 0, 67, 45
2, 39218, Note_on_c, 0, 63, 0
2, 39221, Note_on_c, 0, 67, 0
2, 39225, Note_on_c, 0, 75, 0
2, 39250, Note_on_c, 0, 73, 61
2, 39251, Note_on_c, 0, 63, 44
2, 39258, Note_on_c, 0, 63, 0
2, 39266, Note_on_c, 0, 73, 0
2, 39295, Note_on_c, 0, 61, 71
2, 39305, Note_on_c, 0, 55, 0
2, 39306, Note_on_c, 0, 58, 0
2, 39310, Note_on_c, 0, 61, 0
2, 39337, Note_on_c, 0, 87, 74
2, 39345, Note_on_c, 0, 79, 60
2, 39354, Note_on_c, 0, 79, 0
2, 39365, Note_on_c, 0, 87, 0
2, 39379, Note_on_c, 0, 39, 52
2, 39382, Note_on_c, 0, 85, 68
2, 39386, Note_on_c, 0, 75, 68
2, 39395, Note_on_c, 0, 39, 0
2, 39399, Note_on_c, 0, 85, 0
2, 39402, Note_on_c, 0, 75, 0
2, 39437, Note_on_c, 0, 59, 66
2, 39439, Note_on_c, 0, 57, 55
2, 39441, Note_on_c, 0, 54, 63
2, 39465, Control_c, 0, 64, 72
2, 39469, Control_c, 0, 64, 0
2, 39486, Note_on_c, 0, 63, 51
2, 39487, Note_on_c, 0, 71, 69
2, 39498, Note_on_c, 0, 63, 0
2, 39501, Control_c, 0, 64, 127
2, 39509, Note_on_c, 0, 71, 0
2, 39525, Note_on_c, 0, 66, 58
2, 39531, Note_on_c, 0, 72, 72
2, 39540, Note_on_c, 0, 66, 0
2, 39545, Note_on_c, 0, 72, 0
2, 39566, Note_on_c, 0, 59, 0
2, 39575, Note_on_c, 0, 60, 80
2, 39586, Note_on_c, 0, 54, 0
2, 39589, Note_on_c, 0, 57, 0
2, 39596, Note_on_c, 0, 60, 0
2, 39614, Note_on_c, 0, 75, 55
2, 39614, Note_on_c, 0, 83, 75
2, 39631, Note_on_c, 0, 75, 0
2, 39639, Note_on_c, 0, 83, 0
2, 39659, Note_on_c, 0, 78, 67
2, 39660, Note_on_c, 0, 84, 72
2, 39674, Note_on_c, 0, 78, 0
2, 39678, Note_on_c, 0, 84, 0
2, 39689, Note_on_c, 0, 55, 49
2, 39689, Note_on_c, 0, 58, 53
2, 39703, Note_on_c, 0, 61, 37
2, 39703, Control_c, 0, 64, 56
2, 39707, Control_c, 0, 64, 0
2, 39713, Note_on_c, 0, 63, 81
2, 39728, Note_on_c, 0, 55, 0
2, 39731, Control_c, 0, 64, 72
2, 39735, Control_c, 0, 64, 127
2, 39757, Note_on_c, 0, 87, 75
2, 39762, Note_on_c, 0, 79, 69
2, 39771, Note_on_c, 0, 79, 0
2, 39778, Note_on_c, 0, 63, 0
2, 39785, Note_on_c, 0, 87, 0
2, 39797, Note_on_c, 0, 85, 72
2, 39798, Note_on_c, 0, 75, 58
2, 39805, Note_on_c, 0, 75, 0
2, 39815, Note_on_c, 0, 85, 0
2, 39847, Note_on_c, 0, 64, 81
2, 39858, Note_on_c, 0, 61, 0
2, 39861, Note_on_c, 0, 64, 0
2, 39864, Note_on_c, 0, 58, 0
2, 39885, Note_on_c, 0, 100, 85
2, 39887, Note_on_c, 0, 91, 63
2, 39895, Note_on_c, 0, 51, 40
2, 39904, Note_on_c, 0, 51, 0
2, 39909, Note_on_c, 0, 91, 0
2, 39909, Note_on_c, 0, 100, 0
2, 39925, Note_on_c, 0, 97, 69
2, 39927, Note_on_c, 0, 39, 68
2, 39927, Note_on_c, 0, 88, 66
2, 39939, Note_on_c, 0, 39, 0
2, 39940, Note_on_c, 0, 97, 0
2, 39943, Note_on_c, 0, 88, 0
2, 39979, Note_on_c, 0, 65, 80
2, 39980, Note_on_c, 0, 61, 65
2, 39980, Note_on_c, 0, 56, 60
2, 40002, Control_c, 0, 64, 72
2, 40006, Control_c, 0, 64, 0
2, 40024, Note_on_c, 0, 80, 71
2, 40025, Note_on_c, 0, 89, 76
2, 40030, Control_c, 0, 64, 88
2, 40034, Control_c, 0, 64, 127
2, 40053, Note_on_c, 0, 89, 0
2, 40058, Note_on_c, 0, 80, 0
2, 40068, Note_on_c, 0, 85, 61
2, 40071, Note_on_c, 0, 77, 59
2, 40082, Note_on_c, 0, 77, 0
2, 40082, Note_on_c, 0, 85, 0
2, 40107, Note_on_c, 0, 65, 0
2, 40108, Note_on_c, 0, 58, 69
2, 40114, Note_on_c, 0, 56, 0
2, 40122, Note_on_c, 0, 61, 0
2, 40128, Note_on_c, 0, 58, 0
2, 40148, Note_on_c, 0, 61, 62
2, 40149, Note_on_c, 0, 69, 72
2, 40166, Note_on_c, 0, 61, 0
2, 40175, Note_on_c, 0, 69, 0
2, 40184, Note_on_c, 0, 65, 54
2, 40184, Note_on_c, 0, 70, 70
2, 40192, Note_on_c, 0, 65, 0
2, 40202, Note_on_c, 0, 70, 0
2, 40211, Note_on_c, 0, 58, 53
2, 40211, Note_on_c, 0, 55, 55
2, 40219, Note_on_c, 0, 61, 43
2, 40227, Control_c, 0, 64, 88
2, 40232, Control_c, 0, 64, 0
2, 40233, Note_on_c, 0, 63, 84
2, 40260, Control_c, 0, 64, 127
2, 40271, Note_on_c, 0, 87, 75
2, 40277, Note_on_c, 0, 79, 70
2, 40292, Note_on_c, 0, 63, 0
2, 40296, Note_on_c, 0, 87, 0
2, 40298, Note_on_c, 0, 79, 0
2, 40310, Note_on_c, 0, 85, 69
2, 40312, Note_on_c, 0, 75, 60
2, 40318, Note_on_c, 0, 75, 0
2, 40326, Note_on_c, 0, 85, 0
2, 40356, Note_on_c, 0, 64, 85
2, 40367, Note_on_c, 0, 61, 0
2, 40370, Note_on_c, 0, 55, 0
2, 40372, Note_on_c, 0, 64, 0
2, 40373, Note_on_c, 0, 58, 0
2, 40393, Note_on_c, 0, 100, 84
2, 40393, Note_on_c, 0, 91, 74
2, 40410, Note_on_c, 0, 51, 20
2, 40419, Note_on_c, 0, 51, 0
2, 40420, Note_on_c, 0, 100, 0
2, 40422, Note_on_c, 0, 91, 0
2, 40426, Note_on_c, 0, 97, 64
2, 40434, Note_on_c, 0, 88, 74
2, 40439, Note_on_c, 0, 39, 78
2, 40447, Note_on_c, 0, 97, 0
2, 40449, Note_on_c, 0, 88, 0
2, 40451, Note_on_c, 0, 39, 0
2, 40482, Note_on_c, 0, 61, 77
2, 40483, Note_on_c, 0, 65, 82
2, 40485, Note_on_c, 0, 56, 55
2, 40490, Control_c, 0, 64, 72
2, 40494, Control_c, 0, 64, 0
2, 40514, Control_c, 0, 64, 56
2, 40518, Control_c, 0, 64, 127
2, 40524, Note_on_c, 0, 89, 81
2, 40525, Note_on_c, 0, 80, 64
2, 40561, Note_on_c, 0, 89, 0
2, 40565, Note_on_c, 0, 85, 71
2, 40567, Note_on_c, 0, 80, 0
2, 40567, Note_on_c, 0, 77, 70
2, 40583, Note_on_c, 0, 85, 0
2, 40584, Note_on_c, 0, 77, 0
2, 40586, Note_on_c, 0, 65, 0
2, 40587, Note_on_c, 0, 61, 0
2, 40600, Note_on_c, 0, 58, 77
2, 40606, Note_on_c, 0, 56, 0
2, 40621, Note_on_c, 0, 58, 0
2, 40644, Note_on_c, 0, 69, 80
2, 40646, Note_on_c, 0, 61, 67
2, 40668, Note_on_c, 0, 61, 0
2, 40670, Note_on_c, 0, 69, 0
2, 40677, Note_on_c, 0, 70, 76
2, 40677, Note_on_c, 0, 65, 62
2, 40685, Note_on_c, 0, 65, 0
2, 40694, Note_on_c, 0, 70, 0
2, 40716, Note_on_c, 0, 61, 71
2, 40717, Note_on_c, 0, 56, 63
2, 40717, Note_on_c, 0, 65, 79
2, 40724, Control_c, 0, 64, 56
2, 40728, Control_c, 0, 64, 0
2, 40751, Note_on_c, 0, 89, 84
2, 40752, Note_on_c, 0, 82, 73
2, 40752, Control_c, 0, 64, 104
2, 40756, Control_c, 0, 64, 127
2, 40778, Note_on_c, 0, 82, 0
2, 40781, Note_on_c, 0, 89, 0
2, 40787, Note_on_c, 0, 77, 87
2, 40789, Note_on_c, 0, 65, 0
2, 40805, Note_on_c, 0, 77, 0
2, 40828, Note_on_c, 0, 66, 88
2, 40865, Note_on_c, 0, 90, 85
2, 40867, Note_on_c, 0, 82, 78
2, 40884, Note_on_c, 0, 82, 0
2, 40890, Note_on_c, 0, 61, 0
2, 40890, Note_on_c, 0, 90, 0
2, 40900, Note_on_c, 0, 56, 0
2, 40901, Note_on_c, 0, 78, 81
2, 40903, Note_on_c, 0, 85, 71
2, 40913, Note_on_c, 0, 66, 0
2, 40920, Note_on_c, 0, 78, 0
2, 40930, Note_on_c, 0, 85, 0
2, 40934, Control_c, 0, 64, 88
2, 40936, Note_on_c, 0, 64, 81
2, 40938, Note_on_c, 0, 67, 82
2, 40938, Control_c, 0, 64, 0
2, 40944, Note_on_c, 0, 56, 57
2, 40957, Control_c, 0, 64, 104
2, 40961, Control_c, 0, 64, 127
2, 40975, Note_on_c, 0, 91, 90
2, 40975, Note_on_c, 0, 82, 80
2, 40976, Note_on_c, 0, 64, 0
2, 40992, Note_on_c, 0, 67, 0
2, 40996, Note_on_c, 0, 82, 0
2, 40996, Note_on_c, 0, 56, 0
2, 40999, Note_on_c, 0, 91, 0
2, 41010, Note_on_c, 0, 85, 81
2, 41011, Note_on_c, 0, 79, 81
2, 41021, Note_on_c, 0, 79, 0
2, 41030, Note_on_c, 0, 85, 0
2, 41051, Note_on_c, 0, 65, 82
2, 41051, Note_on_c, 0, 68, 91
2, 41054, Note_on_c, 0, 56, 61
2, 41067, Note_on_c, 0, 68, 0
2, 41067, Note_on_c, 0, 65, 0
2, 41077, Note_on_c, 0, 56, 0
2, 41089, Note_on_c, 0, 92, 89
2, 41091, Note_on_c, 0, 85, 76
2, 41109, Note_on_c, 0, 85, 0
2, 41119, Note_on_c, 0, 92, 0
2, 41122, Note_on_c, 0, 89, 83
2, 41122, Note_on_c, 0, 80, 77
2, 41139, Note_on_c, 0, 80, 0
2, 41139, Note_on_c, 0, 89, 0
2, 41139, Control_c, 0, 64, 40
2, 41143, Control_c, 0, 64, 0
2, 41145, Note_on_c, 0, 51, 86
2, 41148, Note_on_c, 0, 39, 73
2, 41155, Note_on_c, 0, 39, 0
2, 41156, Control_c, 0, 64, 88
2, 41157, Note_on_c, 0, 51, 0
2, 41160, Control_c, 0, 64, 127
2, 41213, Note_on_c, 0, 96, 103
2, 41216, Note_on_c, 0, 84, 86
2, 41218, Note_on_c, 0, 67, 67
2, 41219, Note_on_c, 0, 63, 60
2, 41219, Note_on_c, 0, 72, 81
2, 41220, Note_on_c, 0, 61, 55
2, 41265, Control_c, 0, 64, 40
2, 41269, Control_c, 0, 64, 0
2, 41293, Control_c, 0, 64, 88
2, 41297, Control_c, 0, 64, 127
2, 41331, Note_on_c, 0, 96, 0
2, 41335, Note_on_c, 0, 84, 0
2, 41342, Note_on_c, 0, 72, 0
2, 41408, Note_on_c, 0, 94, 93
2, 41410, Note_on_c, 0, 82, 87
2, 41412, Note_on_c, 0, 70, 67
2, 41425, Note_on_c, 0, 82, 0
2, 41426, Note_on_c, 0, 94, 0
2, 41431, Note_on_c, 0, 67, 0
2, 41433, Note_on_c, 0, 61, 0
2, 41433, Note_on_c, 0, 63, 0
2, 41435, Note_on_c, 0, 70, 0
2, 41484, Note_on_c, 0, 91, 96
2, 41484, Note_on_c, 0, 79, 74
2, 41497, Note_on_c, 0, 79, 0
2, 41505, Note_on_c, 0, 91, 0
2, 41548, Note_on_c, 0, 89, 97
2, 41549, Note_on_c, 0, 79, 73
2, 41551, Note_on_c, 0, 82, 77
2, 41553, Note_on_c, 0, 73, 56
2, 41567, Note_on_c, 0, 79, 0
2, 41571, Note_on_c, 0, 73, 0
2, 41578, Note_on_c, 0, 89, 0
2, 41585, Note_on_c, 0, 82, 0
2, 41608, Note_on_c, 0, 79, 77
2, 41608, Note_on_c, 0, 85, 95
2, 41611, Note_on_c, 0, 77, 74
2, 41615, Note_on_c, 0, 70, 60
2, 41619, Note_on_c, 0, 77, 0
2, 41621, Note_on_c, 0, 79, 0
2, 41625, Note_on_c, 0, 85, 0
2, 41629, Note_on_c, 0, 70, 0
2, 41668, Note_on_c, 0, 82, 92
2, 41671, Note_on_c, 0, 73, 62
2, 41673, Note_on_c, 0, 77, 70
2, 41675, Note_on_c, 0, 67, 59
2, 41680, Note_on_c, 0, 77, 0
2, 41685, Note_on_c, 0, 67, 0
2, 41686, Note_on_c, 0, 73, 0
2, 41689, Note_on_c, 0, 82, 0
2, 41719, Note_on_c, 0, 70, 60
2, 41724, Note_on_c, 0, 81, 85
2, 41725, Note_on_c, 0, 73, 69
2, 41725, Note_on_c, 0, 65, 53
2, 41739, Note_on_c, 0, 65, 0
2, 41739, Note_on_c, 0, 70, 0
2, 41740, Note_on_c, 0, 73, 0
2, 41745, Note_on_c, 0, 81, 0
2, 41771, Note_on_c, 0, 80, 91
2, 41771, Note_on_c, 0, 70, 54
2, 41772, Note_on_c, 0, 64, 60
2, 41773, Note_on_c, 0, 73, 73
2, 41789, Note_on_c, 0, 70, 0
2, 41792, Note_on_c, 0, 73, 0
2, 41795, Note_on_c, 0, 64, 0
2, 41796, Note_on_c, 0, 80, 0
2, 41813, Control_c, 0, 64, 104
2, 41817, Control_c, 0, 64, 24
2, 41821, Control_c, 0, 64, 0
2, 41825, Note_on_c, 0, 70, 64
2, 41827, Note_on_c, 0, 63, 56
2, 41827, Note_on_c, 0, 79, 74
2, 41828, Note_on_c, 0, 73, 73
2, 41829, Control_c, 0, 64, 40
2, 41833, Control_c, 0, 64, 104
2, 41837, Note_on_c, 0, 70, 0
2, 41837, Control_c, 0, 64, 127
2, 41841, Note_on_c, 0, 79, 0
2, 41843, Note_on_c, 0, 63, 0
2, 41846, Note_on_c, 0, 73, 0
2, 41878, Note_on_c, 0, 77, 88
2, 41881, Note_on_c, 0, 70, 73
2, 41883, Note_on_c, 0, 67, 65
2, 41883, Note_on_c, 0, 61, 57
2, 41893, Note_on_c, 0, 67, 0
2, 41903, Note_on_c, 0, 61, 0
2, 41904, Note_on_c, 0, 70, 0
2, 41914, Note_on_c, 0, 77, 0
2, 41931, Note_on_c, 0, 73, 86
2, 41935, Note_on_c, 0, 67, 59
2, 41939, Note_on_c, 0, 65, 56
2, 41939, Note_on_c, 0, 58, 50
2, 41946, Note_on_c, 0, 58, 0
2, 41946, Note_on_c, 0, 65, 0
2, 41947, Note_on_c, 0, 67, 0
2, 41951, Note_on_c, 0, 73, 0
2, 41984, Note_on_c, 0, 70, 89
2, 41988, Note_on_c, 0, 65, 45
2, 41991, Note_on_c, 0, 61, 40
2, 41994, Note_on_c, 0, 55, 62
2, 41997, Note_on_c, 0, 65, 0
2, 42001, Note_on_c, 0, 55, 0
2, 42004, Note_on_c, 0, 70, 0
2, 42005, Note_on_c, 0, 61, 0
2, 42036, Note_on_c, 0, 58, 67
2, 42036, Note_on_c, 0, 53, 60
2, 42040, Note_on_c, 0, 69, 84
2, 42043, Note_on_c, 0, 61, 56
2, 42059, Note_on_c, 0, 61, 0
2, 42064, Note_on_c, 0, 58, 0
2, 42064, Note_on_c, 0, 53, 0
2, 42065, Note_on_c, 0, 69, 0
2, 42093, Note_on_c, 0, 58, 52
2, 42094, Note_on_c, 0, 68, 84
2, 42094, Note_on_c, 0, 52, 53
2, 42096, Note_on_c, 0, 61, 71
2, 42104, Note_on_c, 0, 52, 0
2, 42112, Note_on_c, 0, 58, 0
2, 42113, Note_on_c, 0, 61, 0
2, 42118, Note_on_c, 0, 68, 0
2, 42157, Note_on_c, 0, 67, 82
2, 42159, Note_on_c, 0, 61, 60
2, 42160, Note_on_c, 0, 58, 53
2, 42160, Control_c, 0, 64, 0
2, 42162, Note_on_c, 0, 51, 61
2, 42185, Note_on_c, 0, 61, 0
2, 42185, Control_c, 0, 64, 56
2, 42187, Note_on_c, 0, 58, 0
2, 42189, Control_c, 0, 64, 127
2, 42191, Note_on_c, 0, 51, 0
2, 42198, Note_on_c, 0, 67, 0
2, 42225, Control_c, 0, 64, 40
2, 42226, Note_on_c, 0, 66, 84
2, 42227, Note_on_c, 0, 61, 62
2, 42229, Control_c, 0, 64, 0
2, 42230, Note_on_c, 0, 58, 46
2, 42233, Note_on_c, 0, 52, 60
2, 42245, Control_c, 0, 64, 56
2, 42249, Control_c, 0, 64, 127
2, 42253, Note_on_c, 0, 58, 0
2, 42254, Note_on_c, 0, 61, 0
2, 42257, Note_on_c, 0, 52, 0
2, 42258, Note_on_c, 0, 66, 0
2, 42299, Note_on_c, 0, 65, 79
2, 42302, Control_c, 0, 64, 40
2, 42303, Note_on_c, 0, 61, 50
2, 42306, Control_c, 0, 64, 0
2, 42306, Note_on_c, 0, 58, 47
2, 42308, Note_on_c, 0, 53, 63
2, 42326, Control_c, 0, 64, 40
2, 42330, Note_on_c, 0, 53, 0
2, 42330, Control_c, 0, 64, 127
2, 42332, Note_on_c, 0, 58, 0
2, 42339, Note_on_c, 0, 61, 0
2, 42340, Note_on_c, 0, 65, 0
2, 42390, Note_on_c, 0, 64, 76
2, 42392, Note_on_c, 0, 58, 37
2, 42393, Note_on_c, 0, 61, 46
2, 42395, Control_c, 0, 64, 40
2, 42395, Note_on_c, 0, 54, 50
2, 42398, Control_c, 0, 64, 0
2, 42419, Note_on_c, 0, 54, 0
2, 42419, Control_c, 0, 64, 40
2, 42423, Control_c, 0, 64, 127
2, 42425, Note_on_c, 0, 58, 0
2, 42494, Control_c, 0, 64, 40
2, 42496, Note_on_c, 0, 55, 48
2, 42498, Control_c, 0, 64, 0
2, 42531, Note_on_c, 0, 58, 56
2, 42532, Control_c, 0, 64, 72
2, 42535, Control_c, 0, 64, 127
2, 42556, Control_c, 0, 64, 56
2, 42560, Control_c, 0, 64, 0
2, 42584, Control_c, 0, 64, 72
2, 42588, Control_c, 0, 64, 127
2, 42597, Note_on_c, 0, 55, 0
2, 42605, Note_on_c, 0, 58, 0
2, 42640, Note_on_c, 0, 61, 0
2, 42646, Note_on_c, 0, 64, 0
2, 42971, Control_c, 0, 64, 88
2, 42973, Note_on_c, 0, 63, 60
2, 42975, Control_c, 0, 64, 24
2, 42979, Control_c, 0, 64, 0
2, 43015, Control_c, 0, 64, 72
2, 43019, Control_c, 0, 64, 127
2, 43052, Note_on_c, 0, 63, 0
2, 43057, Note_on_c, 0, 68, 62
2, 43072, Control_c, 0, 64, 104
2, 43076, Control_c, 0, 64, 72
2, 43088, Control_c, 0, 64, 127
2, 43121, Note_on_c, 0, 68, 0
2, 43128, Note_on_c, 0, 70, 67
2, 43128, Control_c, 0, 64, 88
2, 43132, Control_c, 0, 64, 0
2, 43157, Control_c, 0, 64, 127
2, 43167, Note_on_c, 0, 44, 29
2, 43173, Note_on_c, 0, 70, 0
2, 43193, Note_on_c, 0, 54, 40
2, 43194, Note_on_c, 0, 44, 0
2, 43211, Note_on_c, 0, 56, 47
2, 43218, Note_on_c, 0, 54, 0
2, 43223, Note_on_c, 0, 60, 46
2, 43231, Note_on_c, 0, 56, 0
2, 43242, Note_on_c, 0, 63, 45
2, 43243, Note_on_c, 0, 60, 0
2, 43264, Note_on_c, 0, 63, 0
2, 43265, Note_on_c, 0, 68, 46
2, 43291, Note_on_c, 0, 68, 0
2, 43295, Note_on_c, 0, 72, 72
2, 43459, Note_on_c, 0, 72, 0
2, 43562, Note_on_c, 0, 72, 78
2, 43572, Control_c, 0, 64, 104
2, 43576, Control_c, 0, 64, 24
2, 43580, Control_c, 0, 64, 0
2, 43589, Note_on_c, 0, 44, 51
2, 43600, Control_c, 0, 64, 104
2, 43604, Note_on_c, 0, 72, 0
2, 43604, Control_c, 0, 64, 127
2, 43607, Note_on_c, 0, 53, 57
2, 43609, Note_on_c, 0, 44, 0
2, 43622, Note_on_c, 0, 56, 53
2, 43628, Note_on_c, 0, 61, 49
2, 43629, Note_on_c, 0, 53, 0
2, 43635, Note_on_c, 0, 56, 0
2, 43650, Note_on_c, 0, 61, 0
2, 43651, Note_on_c, 0, 68, 53
2, 43667, Note_on_c, 0, 68, 0
2, 43667, Note_on_c, 0, 72, 78
2, 43736, Note_on_c, 0, 72, 0
2, 43745, Note_on_c, 0, 75, 84
2, 43788, Note_on_c, 0, 75, 0
2, 43806, Note_on_c, 0, 73, 84
2, 43854, Note_on_c, 0, 73, 0
2, 43860, Note_on_c, 0, 65, 81
2, 43911, Note_on_c, 0, 65, 0
2, 43913, Note_on_c, 0, 68, 78
2, 43959, Note_on_c, 0, 68, 0
2, 43962, Note_on_c, 0, 70, 72
2, 43990, Note_on_c, 0, 70, 0
2, 43990, Note_on_c, 0, 44, 37
2, 44011, Note_on_c, 0, 60, 52
2, 44019, Note_on_c, 0, 51, 32
2, 44031, Note_on_c, 0, 63, 46
2, 44037, Note_on_c, 0, 56, 25
2, 44064, Control_c, 0, 64, 104
2, 44067, Control_c, 0, 64, 40
2, 44069, Note_on_c, 0, 72, 74
2, 44071, Control_c, 0, 64, 0
2, 44108, Control_c, 0, 64, 72
2, 44112, Control_c, 0, 64, 127
2, 44127, Note_on_c, 0, 72, 0
2, 44141, Control_c, 0, 64, 72
2, 44141, Note_on_c, 0, 67, 63
2, 44145, Control_c, 0, 64, 0
2, 44161, Control_c, 0, 64, 40
2, 44164, Note_on_c, 0, 63, 0
2, 44165, Control_c, 0, 64, 88
2, 44168, Control_c, 0, 64, 127
2, 44183, Note_on_c, 0, 67, 0
2, 44197, Control_c, 0, 64, 88
2, 44200, Note_on_c, 0, 68, 60
2, 44201, Control_c, 0, 64, 24
2, 44205, Control_c, 0, 64, 0
2, 44221, Control_c, 0, 64, 24
2, 44225, Control_c, 0, 64, 88
2, 44229, Control_c, 0, 64, 127
2, 44269, Note_on_c, 0, 68, 0
2, 44271, Note_on_c, 0, 63, 53
2, 44294, Control_c, 0, 64, 104
2, 44298, Control_c, 0, 64, 72
2, 44302, Control_c, 0, 64, 40
2, 44306, Control_c, 0, 64, 0
2, 44350, Control_c, 0, 64, 40
2, 44354, Control_c, 0, 64, 88
2, 44358, Control_c, 0, 64, 127
2, 44379, Note_on_c, 0, 44, 0
2, 44391, Note_on_c, 0, 56, 0
2, 44391, Note_on_c, 0, 51, 0
2, 44392, Note_on_c, 0, 60, 0
2, 44404, Note_on_c, 0, 63, 0
2, 44577, Note_on_c, 0, 63, 59
2, 44600, Control_c, 0, 64, 104
2, 44604, Control_c, 0, 64, 40
2, 44608, Control_c, 0, 64, 0
2, 44633, Control_c, 0, 64, 88
2, 44637, Control_c, 0, 64, 127
2, 44654, Note_on_c, 0, 68, 60
2, 44656, Note_on_c, 0, 63, 0
2, 44705, Note_on_c, 0, 68, 0
2, 44729, Note_on_c, 0, 70, 62
2, 44753, Control_c, 0, 64, 72
2, 44757, Control_c, 0, 64, 0
2, 44767, Note_on_c, 0, 42, 51
2, 44782, Control_c, 0, 64, 104
2, 44783, Note_on_c, 0, 70, 0
2, 44786, Control_c, 0, 64, 127
2, 44796, Note_on_c, 0, 42, 0
2, 44796, Note_on_c, 0, 51, 39
2, 44811, Note_on_c, 0, 56, 34
2, 44815, Note_on_c, 0, 60, 39
2, 44821, Note_on_c, 0, 51, 0
2, 44829, Note_on_c, 0, 63, 38
2, 44834, Note_on_c, 0, 56, 0
2, 44840, Note_on_c, 0, 60, 0
2, 44853, Note_on_c, 0, 63, 0
2, 44853, Note_on_c, 0, 68, 47
2, 44883, Note_on_c, 0, 68, 0
2, 44884, Note_on_c, 0, 72, 75
2, 45042, Note_on_c, 0, 72, 0
2, 45131, Note_on_c, 0, 72, 76
2, 45141, Control_c, 0, 64, 72
2, 45145, Control_c, 0, 64, 0
2, 45158, Note_on_c, 0, 41, 47
2, 45165, Note_on_c, 0, 72, 0
2, 45165, Control_c, 0, 64, 40
2, 45169, Control_c, 0, 64, 104
2, 45173, Control_c, 0, 64, 127
2, 45179, Note_on_c, 0, 49, 60
2, 45181, Note_on_c, 0, 41, 0
2, 45206, Note_on_c, 0, 56, 44
2, 45211, Note_on_c, 0, 49, 0
2, 45219, Note_on_c, 0, 61, 42
2, 45223, Note_on_c, 0, 56, 0
2, 45241, Note_on_c, 0, 61, 0
2, 45241, Note_on_c, 0, 68, 55
2, 45262, Note_on_c, 0, 68, 0
2, 45268, Note_on_c, 0, 75, 86
2, 45336, Note_on_c, 0, 75, 0
2, 45336, Note_on_c, 0, 73, 87
2, 45387, Note_on_c, 0, 73, 0
2, 45403, Note_on_c, 0, 80, 87
2, 45458, Note_on_c, 0, 80, 0
2, 45470, Note_on_c, 0, 77, 83
2, 45503, Note_on_c, 0, 77, 0
2, 45522, Note_on_c, 0, 75, 81
2, 45562, Note_on_c, 0, 75, 0
2, 45566, Note_on_c, 0, 73, 76
2, 45605, Note_on_c, 0, 73, 0
2, 45610, Note_on_c, 0, 68, 71
2, 45643, Note_on_c, 0, 68, 0
2, 45650, Note_on_c, 0, 70, 73
2, 45671, Note_on_c, 0, 70, 0
2, 45686, Note_on_c, 0, 40, 41
2, 45710, Note_on_c, 0, 60, 53
2, 45729, Note_on_c, 0, 55, 59
2, 45729, Control_c, 0, 64, 40
2, 45730, Note_on_c, 0, 67, 63
2, 45733, Control_c, 0, 64, 0
2, 45734, Note_on_c, 0, 60, 0
2, 45760, Note_on_c, 0, 73, 75
2, 45761, Control_c, 0, 64, 56
2, 45766, Control_c, 0, 64, 127
2, 45769, Note_on_c, 0, 67, 0
2, 45789, Note_on_c, 0, 73, 0
2, 45812, Note_on_c, 0, 72, 57
2, 45828, Note_on_c, 0, 72, 0
2, 45845, Note_on_c, 0, 73, 50
2, 45866, Note_on_c, 0, 73, 0
2, 45872, Note_on_c, 0, 72, 61
2, 45889, Note_on_c, 0, 72, 0
2, 45892, Note_on_c, 0, 73, 53
2, 45908, Note_on_c, 0, 55, 0
2, 45909, Note_on_c, 0, 73, 0
2, 45912, Note_on_c, 0, 40, 0
2, 45912, Note_on_c, 0, 72, 57
2, 45924, Note_on_c, 0, 72, 0
2, 45926, Note_on_c, 0, 73, 44
2, 45943, Note_on_c, 0, 73, 0
2, 45945, Note_on_c, 0, 72, 60
2, 45955, Note_on_c, 0, 72, 0
2, 45959, Note_on_c, 0, 73, 57
2, 45975, Note_on_c, 0, 73, 0
2, 45978, Note_on_c, 0, 72, 67
2, 45990, Note_on_c, 0, 72, 0
2, 45992, Note_on_c, 0, 73, 64
2, 46007, Note_on_c, 0, 73, 0
2, 46011, Note_on_c, 0, 72, 53
2, 46021, Note_on_c, 0, 72, 0
2, 46023, Note_on_c, 0, 73, 60
2, 46036, Note_on_c, 0, 73, 0
2, 46038, Note_on_c, 0, 72, 65
2, 46050, Note_on_c, 0, 72, 0
2, 46053, Note_on_c, 0, 73, 62
2, 46069, Note_on_c, 0, 73, 0
2, 46071, Note_on_c, 0, 72, 60
2, 46084, Note_on_c, 0, 72, 0
2, 46084, Note_on_c, 0, 73, 65
2, 46101, Note_on_c, 0, 73, 0
2, 46106, Note_on_c, 0, 72, 66
2, 46117, Note_on_c, 0, 73, 53
2, 46119, Note_on_c, 0, 72, 0
2, 46138, Note_on_c, 0, 73, 0
2, 46138, Note_on_c, 0, 72, 64
2, 46150, Note_on_c, 0, 72, 0
2, 46156, Note_on_c, 0, 73, 63
2, 46175, Note_on_c, 0, 73, 0
2, 46176, Note_on_c, 0, 72, 57
2, 46192, Note_on_c, 0, 72, 0
2, 46198, Note_on_c, 0, 71, 58
2, 46214, Note_on_c, 0, 72, 59
2, 46215, Note_on_c, 0, 71, 0
2, 46224, Note_on_c, 0, 72, 0
2, 46231, Note_on_c, 0, 73, 65
2, 46246, Note_on_c, 0, 73, 0
2, 46253, Note_on_c, 0, 74, 61
2, 46267, Note_on_c, 0, 74, 0
2, 46275, Note_on_c, 0, 75, 58
2, 46283, Note_on_c, 0, 75, 0
2, 46294, Note_on_c, 0, 76, 71
2, 46302, Note_on_c, 0, 76, 0
2, 46314, Note_on_c, 0, 77, 60
2, 46325, Note_on_c, 0, 77, 0
2, 46330, Note_on_c, 0, 78, 56
2, 46339, Note_on_c, 0, 78, 0
2, 46348, Note_on_c, 0, 79, 66
2, 46361, Note_on_c, 0, 79, 0
2, 46368, Note_on_c, 0, 80, 57
2, 46383, Note_on_c, 0, 80, 0
2, 46389, Note_on_c, 0, 81, 54
2, 46403, Note_on_c, 0, 81, 0
2, 46408, Note_on_c, 0, 82, 60
2, 46422, Note_on_c, 0, 82, 0
2, 46431, Note_on_c, 0, 83, 62
2, 46443, Note_on_c, 0, 83, 0
2, 46453, Note_on_c, 0, 84, 57
2, 46453, Note_on_c, 0, 67, 43
2, 46454, Note_on_c, 0, 64, 36
2, 46464, Note_on_c, 0, 84, 0
2, 46464, Control_c, 0, 64, 88
2, 46468, Control_c, 0, 64, 24
2, 46471, Note_on_c, 0, 85, 58
2, 46472, Note_on_c, 0, 72, 63
2, 46473, Control_c, 0, 64, 0
2, 46486, Note_on_c, 0, 85, 0
2, 46489, Control_c, 0, 64, 40
2, 46492, Note_on_c, 0, 86, 66
2, 46493, Control_c, 0, 64, 127
2, 46507, Note_on_c, 0, 86, 0
2, 46511, Note_on_c, 0, 87, 58
2, 46524, Note_on_c, 0, 87, 0
2, 46532, Note_on_c, 0, 88, 66
2, 46542, Note_on_c, 0, 88, 0
2, 46551, Note_on_c, 0, 89, 59
2, 46563, Note_on_c, 0, 89, 0
2, 46569, Note_on_c, 0, 90, 60
2, 46583, Note_on_c, 0, 90, 0
2, 46590, Note_on_c, 0, 91, 58
2, 46604, Note_on_c, 0, 91, 0
2, 46609, Note_on_c, 0, 92, 69
2, 46625, Note_on_c, 0, 92, 0
2, 46630, Note_on_c, 0, 93, 70
2, 46646, Note_on_c, 0, 93, 0
2, 46651, Note_on_c, 0, 94, 54
2, 46664, Note_on_c, 0, 94, 0
2, 46669, Note_on_c, 0, 64, 0
2, 46672, Note_on_c, 0, 95, 62
2, 46673, Note_on_c, 0, 67, 0
2, 46683, Note_on_c, 0, 95, 0
2, 46690, Note_on_c, 0, 72, 0
2, 46691, Note_on_c, 0, 96, 72
2, 46706, Note_on_c, 0, 96, 0
2, 46713, Note_on_c, 0, 66, 38
2, 46715, Note_on_c, 0, 63, 37
2, 46717, Note_on_c, 0, 97, 69
2, 46719, Control_c, 0, 64, 88
2, 46723, Note_on_c, 0, 69, 46
2, 46723, Control_c, 0, 64, 0
2, 46727, Note_on_c, 0, 97, 0
2, 46735, Note_on_c, 0, 72, 55
2, 46739, Note_on_c, 0, 96, 59
2, 46747, Control_c, 0, 64, 127
2, 46748, Note_on_c, 0, 96, 0
2, 46757, Note_on_c, 0, 97, 64
2, 46769, Note_on_c, 0, 97, 0
2, 46770, Note_on_c, 0, 96, 66
2, 46787, Note_on_c, 0, 96, 0
2, 46789, Note_on_c, 0, 97, 68
2, 46804, Note_on_c, 0, 96, 65
2, 46806, Note_on_c, 0, 97, 0
2, 46819, Note_on_c, 0, 97, 66
2, 46820, Note_on_c, 0, 96, 0
2, 46835, Note_on_c, 0, 96, 69
2, 46837, Note_on_c, 0, 97, 0
2, 46852, Note_on_c, 0, 96, 0
2, 46856, Note_on_c, 0, 97, 57
2, 46868, Note_on_c, 0, 96, 64
2, 46869, Note_on_c, 0, 97, 0
2, 46884, Note_on_c, 0, 96, 0
2, 46885, Note_on_c, 0, 97, 58
2, 46897, Note_on_c, 0, 72, 0
2, 46901, Note_on_c, 0, 97, 0
2, 46902, Note_on_c, 0, 96, 65
2, 46916, Note_on_c, 0, 96, 0
2, 46918, Note_on_c, 0, 97, 59
2, 46920, Note_on_c, 0, 69, 0
2, 46933, Note_on_c, 0, 97, 0
2, 46933, Note_on_c, 0, 96, 68
2, 46947, Note_on_c, 0, 66, 0
2, 46949, Note_on_c, 0, 96, 0
2, 46950, Note_on_c, 0, 63, 0
2, 46953, Note_on_c, 0, 97, 56
2, 46967, Note_on_c, 0, 96, 61
2, 46968, Note_on_c, 0, 97, 0
2, 46985, Note_on_c, 0, 96, 0
2, 46987, Note_on_c, 0, 97, 53
2, 47003, Note_on_c, 0, 97, 0
2, 47003, Note_on_c, 0, 96, 64
2, 47007, Note_on_c, 0, 75, 70
2, 47021, Note_on_c, 0, 96, 0
2, 47024, Note_on_c, 0, 97, 56
2, 47039, Note_on_c, 0, 96, 59
2, 47040, Note_on_c, 0, 97, 0
2, 47056, Note_on_c, 0, 75, 0
2, 47057, Note_on_c, 0, 96, 0
2, 47059, Note_on_c, 0, 73, 56
2, 47059, Note_on_c, 0, 97, 58
2, 47076, Note_on_c, 0, 97, 0
2, 47076, Note_on_c, 0, 96, 65
2, 47093, Note_on_c, 0, 96, 0
2, 47096, Note_on_c, 0, 97, 53
2, 47102, Note_on_c, 0, 73, 0
2, 47113, Note_on_c, 0, 96, 64
2, 47115, Note_on_c, 0, 97, 0
2, 47115, Note_on_c, 0, 72, 58
2, 47127, Note_on_c, 0, 72, 0
2, 47129, Note_on_c, 0, 96, 0
2, 47134, Note_on_c, 0, 97, 53
2, 47148, Note_on_c, 0, 97, 0
2, 47149, Note_on_c, 0, 96, 64
2, 47165, Note_on_c, 0, 96, 0
2, 47165, Note_on_c, 0, 97, 58
2, 47183, Note_on_c, 0, 96, 66
2, 47184, Note_on_c, 0, 97, 0
2, 47200, Note_on_c, 0, 96, 0
2, 47204, Note_on_c, 0, 97, 55
2, 47218, Note_on_c, 0, 96, 64
2, 47219, Note_on_c, 0, 97, 0
2, 47235, Note_on_c, 0, 96, 0
2, 47239, Note_on_c, 0, 97, 58
2, 47257, Note_on_c, 0, 97, 0
2, 47258, Note_on_c, 0, 96, 55
2, 47272, Note_on_c, 0, 96, 0
2, 47276, Note_on_c, 0, 97, 54
2, 47291, Note_on_c, 0, 97, 0
2, 47291, Note_on_c, 0, 96, 48
2, 47308, Note_on_c, 0, 96, 0
2, 47314, Note_on_c, 0, 97, 4
2, 47333, Note_on_c, 0, 97, 0
2, 47347, Note_on_c, 0, 95, 48
2, 47370, Note_on_c, 0, 95, 0
2, 47376, Note_on_c, 0, 96, 49
2, 47403, Note_on_c, 0, 96, 0
2, 47411, Note_on_c, 0, 101, 54
2, 47432, Note_on_c, 0, 101, 0
2, 47436, Note_on_c, 0, 102, 64
2, 47460, Note_on_c, 0, 102, 0
2, 47463, Note_on_c, 0, 92, 64
2, 47488, Note_on_c, 0, 93, 64
2, 47498, Note_on_c, 0, 92, 0
2, 47509, Note_on_c, 0, 93, 0
2, 47511, Note_on_c, 0, 98, 63
2, 47529, Note_on_c, 0, 98, 0
2, 47533, Note_on_c, 0, 99, 49
2, 47541, Note_on_c, 0, 99, 0
2, 47550, Note_on_c, 0, 89, 62
2, 47569, Note_on_c, 0, 90, 68
2, 47570, Note_on_c, 0, 89, 0
2, 47591, Note_on_c, 0, 95, 59
2, 47592, Note_on_c, 0, 90, 0
2, 47608, Note_on_c, 0, 96, 74
2, 47609, Note_on_c, 0, 95, 0
2, 47623, Note_on_c, 0, 96, 0
2, 47633, Note_on_c, 0, 86, 65
2, 47651, Note_on_c, 0, 87, 67
2, 47655, Note_on_c, 0, 86, 0
2, 47664, Note_on_c, 0, 92, 60
2, 47674, Note_on_c, 0, 87, 0
2, 47689, Note_on_c, 0, 92, 0
2, 47689, Note_on_c, 0, 93, 67
2, 47701, Note_on_c, 0, 93, 0
2, 47712, Note_on_c, 0, 83, 68
2, 47732, Note_on_c, 0, 84, 70
2, 47735, Note_on_c, 0, 83, 0
2, 47749, Note_on_c, 0, 89, 58
2, 47753, Note_on_c, 0, 84, 0
2, 47772, Note_on_c, 0, 90, 65
2, 47773, Note_on_c, 0, 89, 0
2, 47786, Note_on_c, 0, 90, 0
2, 47790, Note_on_c, 0, 80, 58
2, 47807, Note_on_c, 0, 80, 0
2, 47814, Note_on_c, 0, 81, 58
2, 47828, Note_on_c, 0, 86, 55
2, 47832, Note_on_c, 0, 81, 0
2, 47848, Note_on_c, 0, 86, 0
2, 47849, Note_on_c, 0, 87, 55
2, 47859, Note_on_c, 0, 87, 0
2, 47867, Note_on_c, 0, 77, 60
2, 47881, Note_on_c, 0, 77, 0
2, 47889, Note_on_c, 0, 78, 57
2, 47902, Note_on_c, 0, 78, 0
2, 47904, Note_on_c, 0, 83, 58
2, 47925, Note_on_c, 0, 83, 0
2, 47927, Note_on_c, 0, 84, 54
2, 47935, Note_on_c, 0, 84, 0
2, 47952, Note_on_c, 0, 74, 53
2, 47971, Note_on_c, 0, 75, 61
2, 47972, Note_on_c, 0, 74, 0
2, 47987, Note_on_c, 0, 80, 49
2, 47993, Note_on_c, 0, 75, 0
2, 48007, Note_on_c, 0, 80, 0
2, 48011, Note_on_c, 0, 81, 49
2, 48022, Note_on_c, 0, 81, 0
2, 48034, Note_on_c, 0, 71, 56
2, 48041, Control_c, 0, 64, 88
2, 48046, Control_c, 0, 64, 40
2, 48050, Control_c, 0, 64, 24
2, 48059, Note_on_c, 0, 71, 0
2, 48059, Note_on_c, 0, 72, 58
2, 48062, Control_c, 0, 64, 88
2, 48066, Control_c, 0, 64, 127
2, 48077, Note_on_c, 0, 72, 0
2, 48077, Note_on_c, 0, 77, 56
2, 48097, Note_on_c, 0, 77, 0
2, 48098, Note_on_c, 0, 78, 60
2, 48120, Note_on_c, 0, 78, 0
2, 48126, Note_on_c, 0, 71, 49
2, 48145, Note_on_c, 0, 71, 0
2, 48147, Note_on_c, 0, 72, 62
2, 48171, Note_on_c, 0, 72, 0
2, 48172, Note_on_c, 0, 77, 63
2, 48194, Note_on_c, 0, 77, 0
2, 48196, Note_on_c, 0, 78, 42
2, 48213, Note_on_c, 0, 78, 0
2, 48219, Note_on_c, 0, 71, 47
2, 48242, Note_on_c, 0, 71, 0
2, 48246, Note_on_c, 0, 72, 54
2, 48271, Note_on_c, 0, 72, 0
2, 48275, Note_on_c, 0, 77, 53
2, 48295, Note_on_c, 0, 77, 0
2, 48296, Note_on_c, 0, 78, 47
2, 48314, Note_on_c, 0, 78, 0
2, 48326, Note_on_c, 0, 71, 46
2, 48349, Note_on_c, 0, 71, 0
2, 48358, Note_on_c, 0, 72, 40
2, 48388, Note_on_c, 0, 72, 0
2, 48391, Note_on_c, 0, 77, 39
2, 48416, Note_on_c, 0, 77, 0
2, 48419, Note_on_c, 0, 78, 54
2, 48441, Note_on_c, 0, 78, 0
2, 48463, Note_on_c, 0, 71, 38
2, 48470, Control_c, 0, 64, 104
2, 48474, Control_c, 0, 64, 56
2, 48478, Control_c, 0, 64, 40
2, 48482, Control_c, 0, 64, 24
2, 48490, Control_c, 0, 64, 56
2, 48494, Control_c, 0, 64, 88
2, 48496, Note_on_c, 0, 71, 0
2, 48498, Control_c, 0, 64, 127
2, 48515, Note_on_c, 0, 72, 55
2, 48541, Note_on_c, 0, 72, 0
2, 48577, Note_on_c, 0, 73, 55
2, 48583, Control_c, 0, 64, 104
2, 48587, Control_c, 0, 64, 88
2, 48599, Control_c, 0, 64, 127
2, 48606, Note_on_c, 0, 73, 0
2, 48641, Note_on_c, 0, 74, 58
2, 48647, Control_c, 0, 64, 88
2, 48651, Control_c, 0, 64, 56
2, 48667, Control_c, 0, 64, 88
2, 48671, Control_c, 0, 64, 127
2, 48673, Note_on_c, 0, 74, 0
2, 48707, Note_on_c, 0, 75, 60
2, 48707, Control_c, 0, 64, 88
2, 48711, Control_c, 0, 64, 40
2, 48716, Control_c, 0, 64, 0
2, 48736, Control_c, 0, 64, 56
2, 48740, Control_c, 0, 64, 88
2, 48744, Control_c, 0, 64, 127
2, 48785, Note_on_c, 0, 75, 0
2, 48795, Note_on_c, 0, 76, 62
2, 48808, Control_c, 0, 64, 104
2, 48813, Control_c, 0, 64, 56
2, 48817, Control_c, 0, 64, 24
2, 48829, Control_c, 0, 64, 72
2, 48833, Control_c, 0, 64, 127
2, 48912, Note_on_c, 0, 76, 0
2, 48933, Control_c, 0, 64, 56
2, 48936, Note_on_c, 0, 38, 36
2, 48937, Control_c, 0, 64, 0
2, 48939, Note_on_c, 0, 77, 70
2, 48953, Control_c, 0, 64, 40
2, 48957, Control_c, 0, 64, 104
2, 48961, Control_c, 0, 64, 127
2, 48964, Note_on_c, 0, 38, 0
2, 49042, Note_on_c, 0, 65, 44
2, 49047, Note_on_c, 0, 56, 32
2, 49071, Note_on_c, 0, 56, 0
2, 49081, Note_on_c, 0, 65, 0
2, 49091, Note_on_c, 0, 68, 37
2, 49110, Note_on_c, 0, 59, 26
2, 49122, Note_on_c, 0, 59, 0
2, 49127, Note_on_c, 0, 68, 0
2, 49149, Note_on_c, 0, 56, 37
2, 49154, Note_on_c, 0, 65, 38
2, 49181, Note_on_c, 0, 56, 0
2, 49201, Note_on_c, 0, 65, 0
2, 49204, Note_on_c, 0, 68, 40
2, 49218, Note_on_c, 0, 59, 30
2, 49233, Note_on_c, 0, 59, 0
2, 49242, Note_on_c, 0, 68, 0
2, 49261, Note_on_c, 0, 65, 46
2, 49261, Note_on_c, 0, 56, 36
2, 49269, Note_on_c, 0, 77, 0
2, 49294, Note_on_c, 0, 56, 0
2, 49295, Note_on_c, 0, 65, 0
2, 49319, Note_on_c, 0, 77, 83
2, 49319, Note_on_c, 0, 68, 35
2, 49329, Note_on_c, 0, 59, 31
2, 49348, Note_on_c, 0, 59, 0
2, 49353, Note_on_c, 0, 68, 0
2, 49377, Note_on_c, 0, 65, 34
2, 49378, Note_on_c, 0, 56, 34
2, 49403, Note_on_c, 0, 56, 0
2, 49405, Note_on_c, 0, 65, 0
2, 49423, Note_on_c, 0, 77, 0
2, 49423, Note_on_c, 0, 68, 33
2, 49431, Note_on_c, 0, 59, 35
2, 49458, Note_on_c, 0, 59, 0
2, 49467, Note_on_c, 0, 68, 0
2, 49481, Note_on_c, 0, 77, 74
2, 49485, Note_on_c, 0, 56, 29
2, 49493, Note_on_c, 0, 65, 22
2, 49517, Note_on_c, 0, 56, 0
2, 49532, Note_on_c, 0, 65, 0
2, 49539, Note_on_c, 0, 68, 31
2, 49549, Note_on_c, 0, 59, 22
2, 49553, Note_on_c, 0, 77, 0
2, 49568, Note_on_c, 0, 59, 0
2, 49574, Note_on_c, 0, 68, 0
2, 49595, Note_on_c, 0, 56, 30
2, 49615, Note_on_c, 0, 56, 0
2, 49679, Note_on_c, 0, 77, 82
2, 49684, Control_c, 0, 64, 56
2, 49686, Note_on_c, 0, 39, 42
2, 49688, Control_c, 0, 64, 0
2, 49712, Control_c, 0, 64, 104
2, 49713, Note_on_c, 0, 39, 0
2, 49716, Control_c, 0, 64, 127
2, 49759, Note_on_c, 0, 61, 43
2, 49760, Note_on_c, 0, 56, 32
2, 49793, Note_on_c, 0, 56, 0
2, 49797, Note_on_c, 0, 61, 0
2, 49808, Note_on_c, 0, 65, 36
2, 49821, Note_on_c, 0, 58, 23
2, 49836, Note_on_c, 0, 65, 0
2, 49839, Note_on_c, 0, 58, 0
2, 49858, Note_on_c, 0, 61, 34
2, 49861, Note_on_c, 0, 56, 32
2, 49887, Note_on_c, 0, 56, 0
2, 49889, Note_on_c, 0, 61, 0
2, 49909, Note_on_c, 0, 65, 37
2, 49913, Note_on_c, 0, 58, 27
2, 49938, Note_on_c, 0, 65, 0
2, 49942, Note_on_c, 0, 58, 0
2, 49963, Note_on_c, 0, 56, 33
2, 49966, Note_on_c, 0, 61, 26
2, 49984, Note_on_c, 0, 56, 0
2, 50002, Note_on_c, 0, 61, 0
2, 50008, Note_on_c, 0, 77, 0
2, 50011, Note_on_c, 0, 70, 50
2, 50017, Note_on_c, 0, 65, 31
2, 50023, Note_on_c, 0, 58, 20
2, 50044, Note_on_c, 0, 65, 0
2, 50048, Note_on_c, 0, 58, 0
2, 50068, Note_on_c, 0, 61, 25
2, 50073, Note_on_c, 0, 56, 23
2, 50099, Note_on_c, 0, 56, 0
2, 50104, Note_on_c, 0, 61, 0
2, 50105, Note_on_c, 0, 70, 0
2, 50121, Note_on_c, 0, 65, 24
2, 50123, Note_on_c, 0, 58, 20
2, 50147, Note_on_c, 0, 65, 0
2, 50160, Note_on_c, 0, 58, 0
2, 50176, Note_on_c, 0, 56, 30
2, 50176, Note_on_c, 0, 61, 25
2, 50209, Note_on_c, 0, 56, 0
2, 50216, Note_on_c, 0, 61, 0
2, 50229, Note_on_c, 0, 58, 23
2, 50232, Note_on_c, 0, 65, 22
2, 50255, Note_on_c, 0, 65, 0
2, 50294, Note_on_c, 0, 58, 0
2, 50299, Note_on_c, 0, 61, 32
2, 50299, Note_on_c, 0, 56, 17
2, 50309, Note_on_c, 0, 61, 0
2, 50315, Note_on_c, 0, 56, 0
2, 50395, Note_on_c, 0, 89, 77
2, 50397, Note_on_c, 0, 77, 64
2, 50398, Control_c, 0, 64, 88
2, 50402, Control_c, 0, 64, 24
2, 50406, Note_on_c, 0, 38, 51
2, 50406, Control_c, 0, 64, 0
2, 50419, Note_on_c, 0, 38, 0
2, 50425, Control_c, 0, 64, 56
2, 50430, Control_c, 0, 64, 127
2, 50484, Note_on_c, 0, 56, 35
2, 50485, Note_on_c, 0, 65, 46
2, 50507, Note_on_c, 0, 65, 0
2, 50507, Note_on_c, 0, 56, 0
2, 50528, Note_on_c, 0, 68, 40
2, 50544, Note_on_c, 0, 59, 27
2, 50555, Note_on_c, 0, 68, 0
2, 50556, Note_on_c, 0, 59, 0
2, 50579, Note_on_c, 0, 65, 53
2, 50579, Note_on_c, 0, 56, 46
2, 50605, Note_on_c, 0, 56, 0
2, 50613, Note_on_c, 0, 65, 0
2, 50624, Note_on_c, 0, 68, 53
2, 50634, Note_on_c, 0, 59, 38
2, 50646, Note_on_c, 0, 59, 0
2, 50652, Note_on_c, 0, 68, 0
2, 50674, Note_on_c, 0, 77, 0
2, 50675, Note_on_c, 0, 56, 43
2, 50675, Note_on_c, 0, 65, 51
2, 50679, Note_on_c, 0, 89, 0
2, 50702, Note_on_c, 0, 56, 0
2, 50709, Note_on_c, 0, 65, 0
2, 50721, Note_on_c, 0, 68, 36
2, 50725, Note_on_c, 0, 89, 92
2, 50728, Note_on_c, 0, 77, 75
2, 50737, Note_on_c, 0, 59, 32
2, 50757, Note_on_c, 0, 59, 0
2, 50757, Note_on_c, 0, 68, 0
2, 50777, Note_on_c, 0, 56, 48
2, 50781, Note_on_c, 0, 65, 42
2, 50804, Note_on_c, 0, 56, 0
2, 50817, Note_on_c, 0, 65, 0
2, 50820, Note_on_c, 0, 68, 46
2, 50823, Note_on_c, 0, 77, 0
2, 50830, Note_on_c, 0, 59, 40
2, 50831, Note_on_c, 0, 89, 0
2, 50853, Note_on_c, 0, 59, 0
2, 50854, Note_on_c, 0, 68, 0
2, 50873, Note_on_c, 0, 89, 87
2, 50876, Note_on_c, 0, 77, 76
2, 50877, Note_on_c, 0, 56, 37
2, 50879, Note_on_c, 0, 65, 39
2, 50906, Note_on_c, 0, 56, 0
2, 50912, Note_on_c, 0, 65, 0
2, 50923, Note_on_c, 0, 68, 40
2, 50925, Note_on_c, 0, 59, 37
2, 50957, Note_on_c, 0, 68, 0
2, 50959, Note_on_c, 0, 59, 0
2, 50959, Note_on_c, 0, 77, 0
2, 50965, Note_on_c, 0, 89, 0
2, 50974, Note_on_c, 0, 56, 47
2, 50974, Note_on_c, 0, 65, 29
2, 50982, Note_on_c, 0, 65, 0
2, 50993, Note_on_c, 0, 56, 0
2, 51044, Note_on_c, 0, 89, 82
2, 51045, Note_on_c, 0, 77, 66
2, 51055, Control_c, 0, 64, 72
2, 51059, Note_on_c, 0, 39, 44
2, 51059, Control_c, 0, 64, 0
2, 51076, Note_on_c, 0, 39, 0
2, 51084, Control_c, 0, 64, 104
2, 51088, Control_c, 0, 64, 127
2, 51121, Note_on_c, 0, 61, 46
2, 51121, Note_on_c, 0, 56, 38
2, 51151, Note_on_c, 0, 56, 0
2, 51159, Note_on_c, 0, 61, 0
2, 51168, Note_on_c, 0, 65, 44
2, 51171, Note_on_c, 0, 58, 43
2, 51192, Note_on_c, 0, 65, 0
2, 51197, Note_on_c, 0, 58, 0
2, 51216, Note_on_c, 0, 61, 40
2, 51218, Note_on_c, 0, 56, 34
2, 51241, Note_on_c, 0, 56, 0
2, 51243, Note_on_c, 0, 61, 0
2, 51264, Note_on_c, 0, 65, 37
2, 51265, Note_on_c, 0, 58, 33
2, 51266, Note_on_c, 0, 89, 0
2, 51277, Note_on_c, 0, 77, 0
2, 51288, Note_on_c, 0, 65, 0
2, 51297, Note_on_c, 0, 58, 0
2, 51315, Note_on_c, 0, 61, 28
2, 51317, Note_on_c, 0, 56, 22
2, 51336, Note_on_c, 0, 56, 0
2, 51349, Note_on_c, 0, 61, 0
2, 51365, Note_on_c, 0, 82, 61
2, 51368, Note_on_c, 0, 70, 45
2, 51374, Note_on_c, 0, 58, 25
2, 51377, Note_on_c, 0, 65, 19
2, 51394, Note_on_c, 0, 65, 0
2, 51409, Note_on_c, 0, 58, 0
2, 51419, Note_on_c, 0, 56, 30
2, 51421, Note_on_c, 0, 70, 0
2, 51422, Note_on_c, 0, 61, 28
2, 51447, Note_on_c, 0, 56, 0
2, 51448, Note_on_c, 0, 82, 0
2, 51450, Note_on_c, 0, 61, 0
2, 51466, Note_on_c, 0, 58, 32
2, 51467, Note_on_c, 0, 65, 33
2, 51492, Note_on_c, 0, 65, 0
2, 51501, Note_on_c, 0, 58, 0
2, 51521, Note_on_c, 0, 61, 27
2, 51523, Note_on_c, 0, 56, 26
2, 51556, Note_on_c, 0, 61, 0
2, 51559, Note_on_c, 0, 56, 0
2, 51571, Note_on_c, 0, 58, 30
2, 51579, Note_on_c, 0, 65, 16
2, 51599, Note_on_c, 0, 65, 0
2, 51641, Note_on_c, 0, 56, 22
2, 51641, Note_on_c, 0, 61, 13
2, 51649, Note_on_c, 0, 61, 0
2, 51649, Note_on_c, 0, 58, 0
2, 51653, Note_on_c, 0, 56, 0
2, 51723, Note_on_c, 0, 89, 82
2, 51725, Control_c, 0, 64, 56
2, 51726, Note_on_c, 0, 77, 64
2, 51728, Control_c, 0, 64, 0
2, 51735, Note_on_c, 0, 38, 42
2, 51749, Note_on_c, 0, 38, 0
2, 51749, Control_c, 0, 64, 40
2, 51753, Control_c, 0, 64, 127
2, 51802, Note_on_c, 0, 56, 39
2, 51805, Note_on_c, 0, 65, 53
2, 51827, Note_on_c, 0, 56, 0
2, 51833, Note_on_c, 0, 65, 0
2, 51852, Note_on_c, 0, 68, 32
2, 51861, Note_on_c, 0, 59, 38
2, 51873, Note_on_c, 0, 59, 0
2, 51878, Note_on_c, 0, 68, 0
2, 51899, Note_on_c, 0, 56, 43
2, 51900, Note_on_c, 0, 65, 46
2, 51922, Note_on_c, 0, 56, 0
2, 51928, Note_on_c, 0, 65, 0
2, 51943, Note_on_c, 0, 68, 48
2, 51951, Note_on_c, 0, 59, 43
2, 51962, Note_on_c, 0, 59, 0
2, 51969, Note_on_c, 0, 68, 0
2, 51975, Note_on_c, 0, 89, 0
2, 51979, Note_on_c, 0, 77, 0
2, 51986, Note_on_c, 0, 65, 51
2, 51989, Note_on_c, 0, 56, 34
2, 52013, Note_on_c, 0, 56, 0
2, 52019, Note_on_c, 0, 65, 0
2, 52032, Note_on_c, 0, 89, 94
2, 52035, Note_on_c, 0, 77, 82
2, 52036, Note_on_c, 0, 68, 38
2, 52046, Note_on_c, 0, 59, 34
2, 52066, Note_on_c, 0, 59, 0
2, 52066, Note_on_c, 0, 68, 0
2, 52081, Note_on_c, 0, 65, 53
2, 52086, Note_on_c, 0, 56, 44
2, 52094, Note_on_c, 0, 77, 0
2, 52096, Note_on_c, 0, 89, 0
2, 52113, Note_on_c, 0, 56, 0
2, 52119, Note_on_c, 0, 65, 0
2, 52127, Note_on_c, 0, 68, 42
2, 52129, Note_on_c, 0, 89, 99
2, 52130, Note_on_c, 0, 77, 89
2, 52137, Note_on_c, 0, 59, 44
2, 52161, Note_on_c, 0, 68, 0
2, 52165, Note_on_c, 0, 59, 0
2, 52176, Note_on_c, 0, 65, 54
2, 52181, Note_on_c, 0, 56, 44
2, 52204, Note_on_c, 0, 56, 0
2, 52213, Note_on_c, 0, 65, 0
2, 52214, Note_on_c, 0, 77, 0
2, 52217, Note_on_c, 0, 89, 0
2, 52219, Note_on_c, 0, 68, 53
2, 52223, Note_on_c, 0, 59, 51
2, 52255, Note_on_c, 0, 68, 0
2, 52261, Note_on_c, 0, 89, 102
2, 52263, Note_on_c, 0, 59, 0
2, 52263, Note_on_c, 0, 77, 94
2, 52265, Note_on_c, 0, 65, 56
2, 52309, Note_on_c, 0, 77, 0
2, 52309, Note_on_c, 0, 68, 46
2, 52314, Note_on_c, 0, 56, 44
2, 52318, Note_on_c, 0, 89, 0
2, 52322, Note_on_c, 0, 65, 0
2, 52322, Note_on_c, 0, 68, 0
2, 52335, Note_on_c, 0, 56, 0
2, 52365, Note_on_c, 0, 80, 86
2, 52397, Note_on_c, 0, 92, 105
2, 52403, Control_c, 0, 64, 104
2, 52403, Note_on_c, 0, 39, 62
2, 52407, Control_c, 0, 64, 0
2, 52431, Note_on_c, 0, 39, 0
2, 52431, Control_c, 0, 64, 72
2, 52435, Control_c, 0, 64, 127
2, 52486, Note_on_c, 0, 51, 62
2, 52498, Note_on_c, 0, 58, 49
2, 52502, Note_on_c, 0, 51, 0
2, 52511, Note_on_c, 0, 61, 56
2, 52523, Note_on_c, 0, 58, 0
2, 52527, Note_on_c, 0, 65, 59
2, 52528, Note_on_c, 0, 61, 0
2, 52556, Note_on_c, 0, 65, 0
2, 52562, Note_on_c, 0, 68, 71
2, 52581, Note_on_c, 0, 68, 0
2, 52676, Note_on_c, 0, 80, 0
2, 52724, Note_on_c, 0, 92, 0
2, 52767, Note_on_c, 0, 91, 96
2, 52771, Note_on_c, 0, 79, 75
2, 52809, Note_on_c, 0, 91, 0
2, 52812, Note_on_c, 0, 79, 0
2, 52870, Note_on_c, 0, 89, 97
2, 52873, Note_on_c, 0, 77, 87
2, 52894, Note_on_c, 0, 77, 0
2, 52895, Note_on_c, 0, 89, 0
2, 52945, Note_on_c, 0, 87, 90
2, 52947, Note_on_c, 0, 75, 85
2, 52963, Note_on_c, 0, 75, 0
2, 52965, Note_on_c, 0, 87, 0
2, 53013, Note_on_c, 0, 85, 86
2, 53013, Note_on_c, 0, 73, 84
2, 53030, Note_on_c, 0, 73, 0
2, 53030, Note_on_c, 0, 85, 0
2, 53079, Note_on_c, 0, 77, 89
2, 53082, Note_on_c, 0, 65, 72
2, 53097, Note_on_c, 0, 65, 0
2, 53104, Note_on_c, 0, 77, 0
2, 53148, Note_on_c, 0, 79, 92
2, 53150, Note_on_c, 0, 67, 70
2, 53169, Control_c, 0, 64, 24
2, 53173, Control_c, 0, 64, 0
2, 53175, Note_on_c, 0, 67, 0
2, 53185, Note_on_c, 0, 51, 53
2, 53197, Note_on_c, 0, 79, 0
2, 53197, Control_c, 0, 64, 104
2, 53202, Control_c, 0, 64, 127
2, 53203, Note_on_c, 0, 51, 0
2, 53203, Note_on_c, 0, 61, 63
2, 53228, Note_on_c, 0, 67, 56
2, 53230, Note_on_c, 0, 61, 0
2, 53245, Note_on_c, 0, 67, 0
2, 53259, Note_on_c, 0, 72, 70
2, 53303, Note_on_c, 0, 84, 88
2, 53455, Note_on_c, 0, 72, 0
2, 53458, Note_on_c, 0, 84, 0
2, 53575, Note_on_c, 0, 82, 70
2, 53584, Note_on_c, 0, 70, 32
2, 53592, Note_on_c, 0, 70, 0
2, 53608, Note_on_c, 0, 82, 0
2, 53629, Note_on_c, 0, 70, 58
2, 53708, Note_on_c, 0, 82, 64
2, 53750, Control_c, 0, 64, 56
2, 53754, Control_c, 0, 64, 0
2, 53782, Control_c, 0, 64, 104
2, 53786, Control_c, 0, 64, 127
2, 53802, Note_on_c, 0, 44, 43
2, 53825, Note_on_c, 0, 44, 0
2, 53850, Note_on_c, 0, 70, 0
2, 53860, Note_on_c, 0, 51, 27
2, 53877, Note_on_c, 0, 82, 0
2, 53885, Note_on_c, 0, 51, 0
2, 53885, Note_on_c, 0, 60, 34
2, 53895, Note_on_c, 0, 80, 60
2, 53898, Note_on_c, 0, 68, 38
2, 53899, Note_on_c, 0, 60, 0
2, 53945, Note_on_c, 0, 68, 0
2, 53954, Note_on_c, 0, 63, 28
2, 53961, Note_on_c, 0, 56, 28
2, 53983, Note_on_c, 0, 63, 0
2, 53992, Note_on_c, 0, 56, 0
2, 54021, Note_on_c, 0, 60, 38
2, 54023, Note_on_c, 0, 51, 23
2, 54043, Note_on_c, 0, 51, 0
2, 54059, Note_on_c, 0, 80, 0
2, 54074, Note_on_c, 0, 60, 0
2, 54089, Note_on_c, 0, 63, 37
2, 54095, Note_on_c, 0, 56, 27
2, 54105, Note_on_c, 0, 56, 0
2, 54111, Note_on_c, 0, 63, 0
2, 54165, Note_on_c, 0, 62, 57
2, 54227, Note_on_c, 0, 62, 0
2, 54238, Note_on_c, 0, 63, 61
2, 54250, Control_c, 0, 64, 40
2, 54254, Control_c, 0, 64, 0
2, 54274, Control_c, 0, 64, 24
2, 54279, Control_c, 0, 64, 72
2, 54283, Control_c, 0, 64, 127
2, 54299, Note_on_c, 0, 63, 0
2, 54299, Control_c, 0, 64, 88
2, 54300, Note_on_c, 0, 68, 71
2, 54303, Control_c, 0, 64, 0
2, 54327, Control_c, 0, 64, 40
2, 54331, Control_c, 0, 64, 72
2, 54335, Control_c, 0, 64, 88
2, 54339, Control_c, 0, 64, 127
2, 54355, Control_c, 0, 64, 88
2, 54359, Control_c, 0, 64, 24
2, 54363, Control_c, 0, 64, 0
2, 54364, Note_on_c, 0, 72, 77
2, 54370, Note_on_c, 0, 68, 0
2, 54387, Control_c, 0, 64, 40
2, 54391, Control_c, 0, 64, 72
2, 54395, Control_c, 0, 64, 88
2, 54399, Control_c, 0, 64, 104
2, 54415, Note_on_c, 0, 72, 0
2, 54419, Control_c, 0, 64, 56
2, 54424, Control_c, 0, 64, 24
2, 54427, Note_on_c, 0, 73, 67
2, 54428, Control_c, 0, 64, 0
2, 54467, Control_c, 0, 64, 56
2, 54471, Control_c, 0, 64, 72
2, 54476, Control_c, 0, 64, 88
2, 54480, Control_c, 0, 64, 104
2, 54492, Control_c, 0, 64, 56
2, 54496, Control_c, 0, 64, 0
2, 54502, Note_on_c, 0, 69, 67
2, 54514, Note_on_c, 0, 73, 0
2, 54529, Control_c, 0, 64, 24
2, 54533, Control_c, 0, 64, 72
2, 54537, Control_c, 0, 64, 104
2, 54541, Control_c, 0, 64, 127
2, 54557, Control_c, 0, 64, 40
2, 54561, Control_c, 0, 64, 0
2, 54617, Control_c, 0, 64, 40
2, 54620, Control_c, 0, 64, 0
2, 54638, Note_on_c, 0, 44, 35
2, 54649, Control_c, 0, 64, 72
2, 54653, Note_on_c, 0, 44, 0
2, 54653, Control_c, 0, 64, 127
2, 54673, Note_on_c, 0, 51, 27
2, 54686, Note_on_c, 0, 69, 0
2, 54691, Note_on_c, 0, 70, 56
2, 54694, Control_c, 0, 64, 72
2, 54698, Control_c, 0, 64, 0
2, 54702, Note_on_c, 0, 61, 45
2, 54714, Control_c, 0, 64, 56
2, 54717, Control_c, 0, 64, 127
2, 54727, Note_on_c, 0, 61, 0
2, 54727, Note_on_c, 0, 51, 0
2, 54758, Note_on_c, 0, 63, 42
2, 54762, Note_on_c, 0, 55, 41
2, 54779, Note_on_c, 0, 63, 0
2, 54781, Note_on_c, 0, 55, 0
2, 54813, Note_on_c, 0, 61, 40
2, 54816, Note_on_c, 0, 51, 35
2, 54841, Note_on_c, 0, 61, 0
2, 54886, Note_on_c, 0, 63, 29
2, 54894, Note_on_c, 0, 55, 37
2, 54919, Note_on_c, 0, 55, 0
2, 54919, Note_on_c, 0, 63, 0
2, 54920, Note_on_c, 0, 51, 0
2, 54942, Note_on_c, 0, 70, 0
2, 54974, Note_on_c, 0, 62, 67
2, 54992, Control_c, 0, 64, 72
2, 54996, Control_c, 0, 64, 0
2, 55012, Control_c, 0, 64, 40
2, 55016, Control_c, 0, 64, 72
2, 55021, Control_c, 0, 64, 127
2, 55048, Note_on_c, 0, 63, 70
2, 55048, Control_c, 0, 64, 88
2, 55051, Note_on_c, 0, 62, 0
2, 55053, Control_c, 0, 64, 0
2, 55069, Control_c, 0, 64, 56
2, 55073, Control_c, 0, 64, 88
2, 55077, Control_c, 0, 64, 104
2, 55081, Control_c, 0, 64, 127
2, 55100, Note_on_c, 0, 63, 0
2, 55101, Control_c, 0, 64, 104
2, 55105, Control_c, 0, 64, 56
2, 55108, Control_c, 0, 64, 0
2, 55109, Note_on_c, 0, 67, 70
2, 55125, Control_c, 0, 64, 40
2, 55129, Control_c, 0, 64, 88
2, 55133, Control_c, 0, 64, 127
2, 55153, Control_c, 0, 64, 72
2, 55157, Control_c, 0, 64, 0
2, 55165, Note_on_c, 0, 70, 79
2, 55167, Note_on_c, 0, 67, 0
2, 55198, Control_c, 0, 64, 40
2, 55202, Control_c, 0, 64, 72
2, 55206, Control_c, 0, 64, 104
2, 55209, Control_c, 0, 64, 127
2, 55225, Note_on_c, 0, 70, 0
2, 55226, Note_on_c, 0, 73, 83
2, 55230, Control_c, 0, 64, 104
2, 55234, Control_c, 0, 64, 24
2, 55238, Control_c, 0, 64, 0
2, 55262, Control_c, 0, 64, 24
2, 55266, Control_c, 0, 64, 72
2, 55271, Control_c, 0, 64, 127
2, 55326, Note_on_c, 0, 77, 82
2, 55331, Note_on_c, 0, 73, 0
2, 55351, Control_c, 0, 64, 104
2, 55355, Control_c, 0, 64, 40
2, 55359, Control_c, 0, 64, 0
2, 55395, Control_c, 0, 64, 127
2, 55407, Note_on_c, 0, 44, 43
2, 55432, Note_on_c, 0, 44, 0
2, 55452, Note_on_c, 0, 54, 28
2, 55481, Note_on_c, 0, 60, 39
2, 55491, Note_on_c, 0, 54, 0
2, 55498, Note_on_c, 0, 60, 0
2, 55504, Note_on_c, 0, 77, 0
2, 55508, Note_on_c, 0, 75, 69
2, 55558, Note_on_c, 0, 63, 33
2, 55564, Note_on_c, 0, 56, 35
2, 55594, Note_on_c, 0, 63, 0
2, 55596, Note_on_c, 0, 56, 0
2, 55620, Note_on_c, 0, 60, 51
2, 55628, Note_on_c, 0, 54, 25
2, 55645, Note_on_c, 0, 60, 0
2, 55691, Note_on_c, 0, 63, 34
2, 55699, Note_on_c, 0, 56, 23
2, 55711, Note_on_c, 0, 54, 0
2, 55715, Note_on_c, 0, 56, 0
2, 55721, Note_on_c, 0, 63, 0
2, 55755, Note_on_c, 0, 75, 0
2, 55765, Note_on_c, 0, 67, 65
2, 55835, Note_on_c, 0, 68, 74
2, 55836, Note_on_c, 0, 67, 0
2, 55879, Note_on_c, 0, 68, 0
2, 55895, Note_on_c, 0, 72, 82
2, 55951, Note_on_c, 0, 75, 80
2, 55961, Note_on_c, 0, 72, 0
2, 56008, Note_on_c, 0, 75, 0
2, 56013, Note_on_c, 0, 82, 84
2, 56085, Note_on_c, 0, 82, 0
2, 56089, Note_on_c, 0, 79, 85
2, 56096, Control_c, 0, 64, 40
2, 56099, Note_on_c, 0, 44, 58
2, 56101, Control_c, 0, 64, 0
2, 56121, Note_on_c, 0, 44, 0
2, 56121, Control_c, 0, 64, 40
2, 56125, Control_c, 0, 64, 104
2, 56129, Control_c, 0, 64, 127
2, 56160, Note_on_c, 0, 79, 0
2, 56174, Note_on_c, 0, 80, 85
2, 56179, Note_on_c, 0, 61, 43
2, 56181, Note_on_c, 0, 53, 45
2, 56205, Note_on_c, 0, 53, 0
2, 56214, Note_on_c, 0, 61, 0
2, 56229, Note_on_c, 0, 80, 0
2, 56232, Note_on_c, 0, 72, 89
2, 56236, Note_on_c, 0, 65, 48
2, 56239, Note_on_c, 0, 56, 40
2, 56261, Note_on_c, 0, 65, 0
2, 56268, Note_on_c, 0, 56, 0
2, 56284, Note_on_c, 0, 61, 45
2, 56286, Note_on_c, 0, 73, 87
2, 56293, Note_on_c, 0, 72, 0
2, 56293, Note_on_c, 0, 53, 54
2, 56307, Note_on_c, 0, 73, 0
2, 56344, Note_on_c, 0, 77, 87
2, 56346, Note_on_c, 0, 65, 47
2, 56359, Note_on_c, 0, 53, 0
2, 56361, Note_on_c, 0, 65, 0
2, 56365, Note_on_c, 0, 77, 0
2, 56365, Note_on_c, 0, 61, 0
2, 56399, Note_on_c, 0, 87, 95
2, 56450, Note_on_c, 0, 87, 0
2, 56460, Note_on_c, 0, 84, 97
2, 56461, Note_on_c, 0, 44, 63
2, 56461, Control_c, 0, 64, 24
2, 56464, Control_c, 0, 64, 0
2, 56471, Note_on_c, 0, 44, 0
2, 56481, Control_c, 0, 64, 56
2, 56485, Control_c, 0, 64, 127
2, 56512, Note_on_c, 0, 84, 0
2, 56522, Note_on_c, 0, 61, 58
2, 56523, Note_on_c, 0, 85, 92
2, 56527, Note_on_c, 0, 52, 48
2, 56557, Note_on_c, 0, 52, 0
2, 56568, Note_on_c, 0, 61, 0
2, 56576, Note_on_c, 0, 85, 0
2, 56578, Note_on_c, 0, 75, 93
2, 56580, Note_on_c, 0, 64, 63
2, 56581, Note_on_c, 0, 56, 46
2, 56599, Note_on_c, 0, 64, 0
2, 56609, Note_on_c, 0, 75, 0
2, 56611, Note_on_c, 0, 56, 0
2, 56635, Note_on_c, 0, 61, 51
2, 56635, Note_on_c, 0, 76, 99
2, 56640, Note_on_c, 0, 52, 52
2, 56684, Note_on_c, 0, 76, 0
2, 56694, Note_on_c, 0, 52, 0
2, 56695, Note_on_c, 0, 80, 90
2, 56700, Note_on_c, 0, 64, 60
2, 56703, Note_on_c, 0, 56, 48
2, 56715, Note_on_c, 0, 61, 0
2, 56717, Note_on_c, 0, 80, 0
2, 56721, Note_on_c, 0, 64, 0
2, 56733, Note_on_c, 0, 56, 0
2, 56761, Note_on_c, 0, 90, 99
2, 56839, Note_on_c, 0, 90, 0
2, 56847, Note_on_c, 0, 87, 87
2, 56860, Control_c, 0, 64, 24
2, 56862, Note_on_c, 0, 44, 51
2, 56864, Control_c, 0, 64, 0
2, 56881, Note_on_c, 0, 44, 0
2, 56888, Control_c, 0, 64, 127
2, 56928, Note_on_c, 0, 87, 0
2, 56933, Note_on_c, 0, 88, 93
2, 56941, Note_on_c, 0, 62, 57
2, 56945, Note_on_c, 0, 56, 44
2, 56973, Note_on_c, 0, 62, 0
2, 56976, Note_on_c, 0, 56, 0
2, 56996, Note_on_c, 0, 88, 0
2, 56997, Note_on_c, 0, 82, 80
2, 57003, Note_on_c, 0, 64, 47
2, 57008, Note_on_c, 0, 59, 38
2, 57019, Note_on_c, 0, 59, 0
2, 57027, Note_on_c, 0, 64, 0
2, 57046, Note_on_c, 0, 82, 0
2, 57054, Note_on_c, 0, 83, 86
2, 57058, Note_on_c, 0, 56, 31
2, 57058, Note_on_c, 0, 62, 45
2, 57086, Note_on_c, 0, 62, 0
2, 57088, Note_on_c, 0, 56, 0
2, 57094, Note_on_c, 0, 83, 0
2, 57104, Note_on_c, 0, 79, 76
2, 57109, Note_on_c, 0, 64, 42
2, 57112, Note_on_c, 0, 59, 38
2, 57127, Note_on_c, 0, 59, 0
2, 57134, Note_on_c, 0, 64, 0
2, 57136, Note_on_c, 0, 79, 0
2, 57159, Note_on_c, 0, 80, 69
2, 57162, Note_on_c, 0, 62, 52
2, 57164, Note_on_c, 0, 56, 43
2, 57194, Note_on_c, 0, 56, 0
2, 57194, Note_on_c, 0, 62, 0
2, 57215, Note_on_c, 0, 75, 73
2, 57216, Note_on_c, 0, 80, 0
2, 57219, Note_on_c, 0, 64, 37
2, 57223, Note_on_c, 0, 59, 39
2, 57239, Note_on_c, 0, 59, 0
2, 57245, Note_on_c, 0, 64, 0
2, 57267, Note_on_c, 0, 75, 0
2, 57274, Note_on_c, 0, 76, 73
2, 57278, Note_on_c, 0, 56, 25
2, 57278, Note_on_c, 0, 62, 29
2, 57307, Note_on_c, 0, 76, 0
2, 57317, Note_on_c, 0, 62, 0
2, 57318, Note_on_c, 0, 56, 0
2, 57329, Note_on_c, 0, 70, 59
2, 57333, Note_on_c, 0, 64, 35
2, 57355, Note_on_c, 0, 64, 0
2, 57361, Note_on_c, 0, 70, 0
2, 57388, Note_on_c, 0, 71, 65
2, 57396, Note_on_c, 0, 62, 41
2, 57398, Note_on_c, 0, 56, 25
2, 57432, Note_on_c, 0, 62, 0
2, 57433, Note_on_c, 0, 71, 0
2, 57440, Note_on_c, 0, 56, 0
2, 57447, Note_on_c, 0, 67, 57
2, 57453, Note_on_c, 0, 59, 37
2, 57453, Note_on_c, 0, 64, 25
2, 57471, Note_on_c, 0, 64, 0
2, 57479, Note_on_c, 0, 59, 0
2, 57499, Note_on_c, 0, 67, 0
2, 57513, Note_on_c, 0, 68, 57
2, 57576, Note_on_c, 0, 68, 0
2, 57597, Note_on_c, 0, 63, 60
2, 57626, Control_c, 0, 64, 40
2, 57630, Control_c, 0, 64, 0
2, 57647, Control_c, 0, 64, 24
2, 57651, Control_c, 0, 64, 88
2, 57655, Control_c, 0, 64, 127
2, 57672, Note_on_c, 0, 63, 0
2, 57676, Note_on_c, 0, 64, 65
2, 57687, Control_c, 0, 64, 88
2, 57691, Control_c, 0, 64, 0
2, 57723, Control_c, 0, 64, 56
2, 57727, Control_c, 0, 64, 104
2, 57730, Control_c, 0, 64, 127
2, 57759, Note_on_c, 0, 68, 60
2, 57763, Note_on_c, 0, 64, 0
2, 57763, Control_c, 0, 64, 88
2, 57767, Control_c, 0, 64, 40
2, 57771, Control_c, 0, 64, 0
2, 57804, Control_c, 0, 64, 56
2, 57808, Control_c, 0, 64, 88
2, 57812, Control_c, 0, 64, 127
2, 57837, Note_on_c, 0, 73, 60
2, 57839, Control_c, 0, 64, 104
2, 57844, Note_on_c, 0, 68, 0
2, 57844, Control_c, 0, 64, 40
2, 57848, Control_c, 0, 64, 0
2, 57872, Control_c, 0, 64, 24
2, 57876, Control_c, 0, 64, 72
2, 57880, Control_c, 0, 64, 127
2, 57913, Note_on_c, 0, 73, 0
2, 57926, Note_on_c, 0, 70, 58
2, 57949, Control_c, 0, 64, 56
2, 57953, Control_c, 0, 64, 0
2, 57980, Control_c, 0, 64, 88
2, 57984, Control_c, 0, 64, 127
2, 58005, Control_c, 0, 64, 72
2, 58009, Control_c, 0, 64, 0
2, 58033, Control_c, 0, 64, 127
2, 58036, Note_on_c, 0, 44, 42
2, 58061, Note_on_c, 0, 44, 0
2, 58063, Note_on_c, 0, 52, 44
2, 58064, Note_on_c, 0, 70, 0
2, 58079, Note_on_c, 0, 62, 44
2, 58087, Note_on_c, 0, 59, 24
2, 58106, Note_on_c, 0, 64, 39
2, 58115, Note_on_c, 0, 68, 43
2, 58133, Note_on_c, 0, 64, 0
2, 58135, Note_on_c, 0, 59, 0
2, 58141, Note_on_c, 0, 71, 68
2, 58143, Note_on_c, 0, 68, 0
2, 58143, Note_on_c, 0, 62, 0
2, 58164, Note_on_c, 0, 71, 0
2, 58165, Note_on_c, 0, 59, 25
2, 58229, Note_on_c, 0, 52, 0
2, 58233, Note_on_c, 0, 59, 0
2, 58310, Note_on_c, 0, 78, 70
2, 58581, Note_on_c, 0, 78, 0
2, 58590, Note_on_c, 0, 76, 52
2, 58639, Note_on_c, 0, 76, 0
2, 58848, Control_c, 0, 64, 104
2, 58851, Note_on_c, 0, 44, 34
2, 58852, Control_c, 0, 64, 24
2, 58856, Control_c, 0, 64, 0
2, 58869, Note_on_c, 0, 51, 32
2, 58875, Note_on_c, 0, 60, 39
2, 58876, Control_c, 0, 64, 56
2, 58880, Control_c, 0, 64, 127
2, 58882, Note_on_c, 0, 56, 35
2, 58891, Note_on_c, 0, 63, 46
2, 58893, Note_on_c, 0, 44, 0
2, 58897, Note_on_c, 0, 60, 0
2, 58903, Note_on_c, 0, 51, 0
2, 58912, Note_on_c, 0, 56, 0
2, 58917, Note_on_c, 0, 63, 0
2, 58920, Note_on_c, 0, 68, 43
2, 58942, Note_on_c, 0, 72, 67
2, 58943, Note_on_c, 0, 68, 0
2, 59091, Note_on_c, 0, 79, 70
2, 59271, Note_on_c, 0, 79, 0
2, 59311, Note_on_c, 0, 77, 48
2, 59329, Note_on_c, 0, 77, 0
2, 59336, Note_on_c, 0, 72, 0
2, 59397, Control_c, 0, 64, 40
2, 59401, Control_c, 0, 64, 0
2, 59406, Note_on_c, 0, 44, 51
2, 59411, Note_on_c, 0, 59, 49
2, 59412, Note_on_c, 0, 51, 20
2, 59420, Note_on_c, 0, 51, 0
2, 59425, Control_c, 0, 64, 127
2, 59431, Note_on_c, 0, 59, 0
2, 59432, Note_on_c, 0, 62, 52
2, 59435, Note_on_c, 0, 52, 47
2, 59443, Note_on_c, 0, 64, 63
2, 59454, Note_on_c, 0, 62, 0
2, 59469, Note_on_c, 0, 64, 0
2, 59469, Note_on_c, 0, 71, 78
2, 59476, Note_on_c, 0, 44, 0
2, 59481, Note_on_c, 0, 52, 0
2, 59602, Note_on_c, 0, 78, 69
2, 59681, Note_on_c, 0, 71, 0
2, 59789, Note_on_c, 0, 78, 0
2, 59817, Note_on_c, 0, 76, 57
2, 59825, Note_on_c, 0, 76, 0
2, 59905, Control_c, 0, 64, 88
2, 59908, Control_c, 0, 64, 0
2, 59912, Note_on_c, 0, 44, 34
2, 59923, Note_on_c, 0, 60, 45
2, 59925, Note_on_c, 0, 51, 32
2, 59929, Control_c, 0, 64, 40
2, 59933, Control_c, 0, 64, 127
2, 59934, Note_on_c, 0, 60, 0
2, 59935, Note_on_c, 0, 63, 39
2, 59935, Note_on_c, 0, 56, 34
2, 59947, Note_on_c, 0, 44, 0
2, 59955, Note_on_c, 0, 51, 0
2, 59955, Note_on_c, 0, 68, 56
2, 59958, Note_on_c, 0, 63, 0
2, 59965, Note_on_c, 0, 56, 0
2, 59980, Note_on_c, 0, 72, 70
2, 59981, Note_on_c, 0, 68, 0
2, 60115, Note_on_c, 0, 79, 66
2, 60268, Note_on_c, 0, 72, 0
2, 60303, Note_on_c, 0, 79, 0
2, 60323, Note_on_c, 0, 77, 55
2, 60344, Note_on_c, 0, 77, 0
2, 60417, Control_c, 0, 64, 40
2, 60420, Note_on_c, 0, 44, 44
2, 60421, Control_c, 0, 64, 0
2, 60438, Note_on_c, 0, 52, 51
2, 60439, Note_on_c, 0, 44, 0
2, 60441, Control_c, 0, 64, 104
2, 60445, Control_c, 0, 64, 127
2, 60446, Note_on_c, 0, 59, 49
2, 60458, Note_on_c, 0, 62, 53
2, 60462, Note_on_c, 0, 59, 0
2, 60462, Note_on_c, 0, 52, 0
2, 60479, Note_on_c, 0, 62, 0
2, 60479, Note_on_c, 0, 64, 58
2, 60503, Note_on_c, 0, 64, 0
2, 60503, Note_on_c, 0, 71, 62
2, 60635, Note_on_c, 0, 78, 58
2, 60815, Note_on_c, 0, 78, 0
2, 60854, Note_on_c, 0, 76, 52
2, 60865, Note_on_c, 0, 76, 0
2, 60890, Note_on_c, 0, 71, 0
2, 60948, Control_c, 0, 64, 72
2, 60953, Control_c, 0, 64, 0
2, 60958, Note_on_c, 0, 44, 33
2, 60973, Control_c, 0, 64, 40
2, 60977, Note_on_c, 0, 56, 38
2, 60977, Control_c, 0, 64, 127
2, 60983, Note_on_c, 0, 60, 58
2, 60985, Note_on_c, 0, 44, 0
2, 60999, Note_on_c, 0, 63, 29
2, 61002, Note_on_c, 0, 60, 0
2, 61006, Note_on_c, 0, 56, 0
2, 61017, Note_on_c, 0, 63, 0
2, 61017, Note_on_c, 0, 68, 53
2, 61041, Note_on_c, 0, 72, 70
2, 61043, Note_on_c, 0, 68, 0
2, 61171, Note_on_c, 0, 79, 68
2, 61357, Note_on_c, 0, 79, 0
2, 61387, Note_on_c, 0, 77, 55
2, 61401, Note_on_c, 0, 77, 0
2, 61445, Note_on_c, 0, 72, 0
2, 61493, Control_c, 0, 64, 40
2, 61495, Note_on_c, 0, 44, 44
2, 61497, Control_c, 0, 64, 0
2, 61506, Note_on_c, 0, 51, 32
2, 61517, Note_on_c, 0, 56, 34
2, 61521, Note_on_c, 0, 60, 52
2, 61522, Control_c, 0, 64, 104
2, 61526, Control_c, 0, 64, 127
2, 61532, Note_on_c, 0, 44, 0
2, 61534, Note_on_c, 0, 63, 40
2, 61538, Note_on_c, 0, 60, 0
2, 61539, Note_on_c, 0, 51, 0
2, 61547, Note_on_c, 0, 56, 0
2, 61557, Note_on_c, 0, 63, 0
2, 61557, Note_on_c, 0, 68, 49
2, 61581, Note_on_c, 0, 72, 64
2, 61582, Note_on_c, 0, 68, 0
2, 61721, Note_on_c, 0, 80, 54
2, 61923, Note_on_c, 0, 80, 0
2, 61962, Note_on_c, 0, 79, 53
2, 61985, Note_on_c, 0, 79, 0
2, 62036, Note_on_c, 0, 72, 0
2, 62094, Note_on_c, 0, 44, 37
2, 62103, Control_c, 0, 64, 72
2, 62107, Control_c, 0, 64, 0
2, 62120, Note_on_c, 0, 51, 46
2, 62131, Control_c, 0, 64, 56
2, 62135, Control_c, 0, 64, 127
2, 62136, Note_on_c, 0, 56, 31
2, 62139, Note_on_c, 0, 44, 0
2, 62151, Note_on_c, 0, 60, 46
2, 62153, Note_on_c, 0, 51, 0
2, 62164, Note_on_c, 0, 56, 0
2, 62167, Note_on_c, 0, 63, 39
2, 62171, Note_on_c, 0, 60, 0
2, 62192, Note_on_c, 0, 63, 0
2, 62194, Note_on_c, 0, 68, 50
2, 62223, Note_on_c, 0, 68, 0
2, 62224, Note_on_c, 0, 72, 60
2, 62280, Note_on_c, 0, 72, 0
2, 62434, Note_on_c, 0, 82, 68
2, 62724, Note_on_c, 0, 82, 0
2, 62729, Note_on_c, 0, 80, 42
2, 62850, Note_on_c, 0, 80, 0
2, 63276, Control_c, 0, 64, 104
2, 63284, Control_c, 0, 64, 88
2, 63295, Control_c, 0, 64, 72
2, 63324, Control_c, 0, 64, 56
2, 63332, Control_c, 0, 64, 40
2, 63336, Control_c, 0, 64, 24
2, 63340, Control_c, 0, 64, 0
2, 63340, End_track
3, 0, Start_track
3, 0, MIDI_port, 0
3, 0, Title_t, "Franz Liszt"
3, 0, End_track
4, 0, Start_track
4, 0, MIDI_port, 0
4, 0, Title_t, "Copyright 1998"
4, 0, End_track
5, 0, Start_track
5, 0, MIDI_port, 0
5, 0, Title_t, "Robert Finley"
5, 0, End_track
0, 0, End_of_file
