0, 0, Header, 0, 1, 384
1, 0, Start_track
1, 0, Tempo, 512820
1, 0, Title_t, "Rhapsodie Nr. 9 - Pesther Karnev"
1, 0, Program_c, 0, 0
1, 0, Control_c, 0, 7, 100
1, 3, Control_c, 0, 10, 64
1, 3, Control_c, 0, 91, 127
1, 3, Program_c, 0, 0
1, 6, Control_c, 0, 7, 100
1, 6, Control_c, 0, 10, 64
1, 6, Program_c, 0, 0
1, 1075, Control_c, 0, 64, 127
1, 1087, Note_on_c, 0, 46, 77
1, 1087, Note_on_c, 0, 34, 61
1, 1187, Note_on_c, 0, 46, 0
1, 1187, Note_on_c, 0, 51, 89
1, 1187, Note_on_c, 0, 34, 0
1, 1190, Note_on_c, 0, 39, 70
1, 1190, Note_on_c, 0, 27, 59
1, 1884, Note_on_c, 0, 51, 0
1, 1884, Note_on_c, 0, 55, 77
1, 1884, Note_on_c, 0, 27, 0
1, 1887, Note_on_c, 0, 39, 0
1, 1887, Note_on_c, 0, 43, 61
1, 1887, Note_on_c, 0, 31, 51
1, 1984, Note_on_c, 0, 55, 0
1, 1984, Note_on_c, 0, 56, 83
1, 1984, Note_on_c, 0, 31, 0
1, 1987, Note_on_c, 0, 43, 0
1, 1987, Note_on_c, 0, 44, 66
1, 1987, Note_on_c, 0, 32, 56
1, 1992, Control_c, 0, 64, 0
1, 2084, Note_on_c, 0, 56, 0
1, 2084, Note_on_c, 0, 32, 0
1, 2084, Note_on_c, 0, 44, 0
1, 2387, Note_on_c, 0, 57, 81
1, 2387, Note_on_c, 0, 45, 64
1, 2387, Note_on_c, 0, 33, 55
1, 2491, Note_on_c, 0, 57, 0
1, 2491, Note_on_c, 0, 33, 0
1, 2491, Note_on_c, 0, 45, 0
1, 2809, Note_on_c, 0, 58, 89
1, 2809, Note_on_c, 0, 46, 70
1, 2809, Note_on_c, 0, 34, 59
1, 2812, Control_c, 0, 64, 127
1, 3584, Note_on_c, 0, 58, 0
1, 3584, Note_on_c, 0, 87, 84
1, 3584, Note_on_c, 0, 82, 70
1, 3587, Note_on_c, 0, 79, 70
1, 3587, Note_on_c, 0, 75, 70
1, 3587, Note_on_c, 0, 34, 0
1, 3590, Note_on_c, 0, 46, 0
1, 3590, Note_on_c, 0, 67, 67
1, 3590, Note_on_c, 0, 63, 56
1, 3593, Note_on_c, 0, 58, 56
1, 3593, Note_on_c, 0, 55, 56
1, 3658, Control_c, 0, 64, 0
1, 3681, Note_on_c, 0, 75, 0
1, 3681, Note_on_c, 0, 87, 0
1, 3681, Note_on_c, 0, 82, 0
1, 3684, Note_on_c, 0, 79, 0
1, 3684, Note_on_c, 0, 55, 0
1, 3684, Note_on_c, 0, 67, 0
1, 3687, Note_on_c, 0, 63, 0
1, 3687, Note_on_c, 0, 58, 0
1, 4252, Control_c, 0, 64, 127
1, 4263, Note_on_c, 0, 46, 77
1, 4263, Note_on_c, 0, 34, 61
1, 4360, Note_on_c, 0, 46, 0
1, 4360, Note_on_c, 0, 51, 89
1, 4360, Note_on_c, 0, 34, 0
1, 4363, Note_on_c, 0, 39, 70
1, 4363, Note_on_c, 0, 27, 59
1, 5053, Note_on_c, 0, 51, 0
1, 5053, Note_on_c, 0, 55, 77
1, 5053, Note_on_c, 0, 27, 0
1, 5056, Note_on_c, 0, 39, 0
1, 5056, Note_on_c, 0, 43, 61
1, 5056, Note_on_c, 0, 31, 50
1, 5153, Note_on_c, 0, 55, 0
1, 5153, Note_on_c, 0, 58, 83
1, 5153, Note_on_c, 0, 31, 0
1, 5156, Note_on_c, 0, 43, 0
1, 5156, Note_on_c, 0, 46, 67
1, 5156, Note_on_c, 0, 34, 56
1, 5162, Control_c, 0, 64, 0
1, 5255, Note_on_c, 0, 58, 0
1, 5255, Note_on_c, 0, 34, 0
1, 5255, Note_on_c, 0, 46, 0
1, 5560, Note_on_c, 0, 60, 81
1, 5560, Note_on_c, 0, 48, 66
1, 5560, Note_on_c, 0, 36, 55
1, 5663, Note_on_c, 0, 60, 0
1, 5663, Note_on_c, 0, 36, 0
1, 5663, Note_on_c, 0, 48, 0
1, 5975, Note_on_c, 0, 61, 89
1, 5975, Note_on_c, 0, 49, 70
1, 5975, Note_on_c, 0, 37, 59
1, 5978, Control_c, 0, 64, 127
1, 6751, Note_on_c, 0, 61, 0
1, 6751, Note_on_c, 0, 91, 85
1, 6751, Note_on_c, 0, 87, 70
1, 6754, Note_on_c, 0, 82, 70
1, 6754, Note_on_c, 0, 79, 70
1, 6754, Note_on_c, 0, 37, 0
1, 6757, Note_on_c, 0, 49, 0
1, 6757, Note_on_c, 0, 70, 67
1, 6757, Note_on_c, 0, 67, 56
1, 6760, Note_on_c, 0, 63, 56
1, 6760, Note_on_c, 0, 58, 56
1, 6825, Control_c, 0, 64, 0
1, 6848, Note_on_c, 0, 79, 0
1, 6848, Note_on_c, 0, 91, 0
1, 6848, Note_on_c, 0, 87, 0
1, 6851, Note_on_c, 0, 82, 0
1, 6851, Note_on_c, 0, 58, 0
1, 6851, Note_on_c, 0, 70, 0
1, 6854, Note_on_c, 0, 67, 0
1, 6854, Note_on_c, 0, 63, 0
1, 7396, Control_c, 0, 64, 127
1, 7430, Note_on_c, 0, 48, 77
1, 7430, Note_on_c, 0, 26, 49
1, 7430, Note_on_c, 0, 36, 61
1, 7526, Note_on_c, 0, 48, 0
1, 7526, Note_on_c, 0, 51, 89
1, 7526, Note_on_c, 0, 36, 0
1, 7529, Note_on_c, 0, 26, 0
1, 7529, Note_on_c, 0, 39, 70
1, 7529, Note_on_c, 0, 27, 59
1, 8213, Note_on_c, 0, 51, 0
1, 8213, Note_on_c, 0, 56, 64
1, 8213, Note_on_c, 0, 27, 0
1, 8216, Note_on_c, 0, 39, 0
1, 8216, Note_on_c, 0, 44, 52
1, 8216, Note_on_c, 0, 32, 44
1, 8312, Note_on_c, 0, 56, 0
1, 8312, Note_on_c, 0, 60, 72
1, 8312, Note_on_c, 0, 32, 0
1, 8315, Note_on_c, 0, 44, 0
1, 8315, Note_on_c, 0, 48, 56
1, 8315, Note_on_c, 0, 36, 47
1, 8320, Control_c, 0, 64, 0
1, 8392, Control_c, 0, 64, 127
1, 8576, Note_on_c, 0, 60, 0
1, 8576, Note_on_c, 0, 61, 75
1, 8576, Note_on_c, 0, 36, 0
1, 8579, Note_on_c, 0, 48, 0
1, 8579, Note_on_c, 0, 49, 59
1, 8579, Note_on_c, 0, 37, 49
1, 8585, Control_c, 0, 64, 0
1, 8657, Control_c, 0, 64, 127
1, 8858, Note_on_c, 0, 61, 0
1, 8858, Note_on_c, 0, 62, 79
1, 8858, Note_on_c, 0, 37, 0
1, 8861, Note_on_c, 0, 49, 0
1, 8861, Note_on_c, 0, 50, 63
1, 8861, Note_on_c, 0, 38, 53
1, 8868, Control_c, 0, 64, 0
1, 8960, Control_c, 0, 64, 127
1, 9160, Note_on_c, 0, 62, 0
1, 9160, Note_on_c, 0, 63, 89
1, 9160, Note_on_c, 0, 38, 0
1, 9163, Note_on_c, 0, 50, 0
1, 9163, Note_on_c, 0, 51, 70
1, 9163, Note_on_c, 0, 39, 59
1, 9234, Control_c, 0, 64, 0
1, 9348, Control_c, 0, 64, 127
1, 9940, Note_on_c, 0, 63, 0
1, 9940, Note_on_c, 0, 92, 84
1, 9940, Note_on_c, 0, 87, 70
1, 9943, Note_on_c, 0, 84, 70
1, 9943, Note_on_c, 0, 80, 70
1, 9943, Note_on_c, 0, 39, 0
1, 9946, Note_on_c, 0, 51, 0
1, 9946, Note_on_c, 0, 72, 67
1, 9946, Note_on_c, 0, 68, 56
1, 9949, Note_on_c, 0, 63, 56
1, 9949, Note_on_c, 0, 60, 56
1, 10015, Control_c, 0, 64, 0
1, 10038, Note_on_c, 0, 80, 0
1, 10038, Note_on_c, 0, 92, 0
1, 10038, Note_on_c, 0, 87, 0
1, 10041, Note_on_c, 0, 84, 0
1, 10041, Note_on_c, 0, 60, 0
1, 10041, Note_on_c, 0, 72, 0
1, 10044, Note_on_c, 0, 68, 0
1, 10044, Note_on_c, 0, 63, 0
1, 10509, Control_c, 0, 64, 127
1, 10624, Note_on_c, 0, 48, 77
1, 10624, Note_on_c, 0, 26, 49
1, 10624, Note_on_c, 0, 36, 61
1, 10720, Note_on_c, 0, 48, 0
1, 10720, Note_on_c, 0, 51, 89
1, 10720, Note_on_c, 0, 36, 0
1, 10723, Note_on_c, 0, 26, 0
1, 10723, Note_on_c, 0, 39, 70
1, 10723, Note_on_c, 0, 27, 59
1, 11391, Note_on_c, 0, 51, 0
1, 11391, Note_on_c, 0, 56, 70
1, 11391, Note_on_c, 0, 27, 0
1, 11394, Note_on_c, 0, 39, 0
1, 11394, Note_on_c, 0, 44, 56
1, 11394, Note_on_c, 0, 32, 56
1, 11487, Note_on_c, 0, 56, 0
1, 11487, Note_on_c, 0, 60, 68
1, 11487, Note_on_c, 0, 32, 0
1, 11490, Note_on_c, 0, 44, 0
1, 11490, Note_on_c, 0, 48, 53
1, 11490, Note_on_c, 0, 36, 45
1, 11495, Control_c, 0, 64, 0
1, 11571, Control_c, 0, 64, 127
1, 11680, Note_on_c, 0, 60, 0
1, 11680, Note_on_c, 0, 63, 70
1, 11680, Note_on_c, 0, 36, 0
1, 11683, Note_on_c, 0, 48, 0
1, 11683, Note_on_c, 0, 51, 58
1, 11683, Note_on_c, 0, 39, 49
1, 11883, Note_on_c, 0, 63, 0
1, 11883, Note_on_c, 0, 64, 74
1, 11883, Note_on_c, 0, 39, 0
1, 11886, Note_on_c, 0, 51, 0
1, 11886, Note_on_c, 0, 52, 62
1, 11886, Note_on_c, 0, 40, 52
1, 11892, Control_c, 0, 64, 0
1, 11972, Control_c, 0, 64, 127
1, 12104, Note_on_c, 0, 64, 0
1, 12104, Note_on_c, 0, 65, 79
1, 12104, Note_on_c, 0, 40, 0
1, 12107, Note_on_c, 0, 52, 0
1, 12107, Note_on_c, 0, 53, 68
1, 12107, Note_on_c, 0, 41, 57
1, 12328, Note_on_c, 0, 65, 0
1, 12328, Note_on_c, 0, 66, 89
1, 12328, Note_on_c, 0, 41, 0
1, 12331, Note_on_c, 0, 53, 0
1, 12331, Note_on_c, 0, 54, 70
1, 12331, Note_on_c, 0, 42, 59
1, 12341, Control_c, 0, 64, 0
1, 12397, Control_c, 0, 64, 127
1, 13115, Note_on_c, 0, 66, 0
1, 13115, Note_on_c, 0, 93, 84
1, 13115, Note_on_c, 0, 90, 70
1, 13118, Note_on_c, 0, 84, 70
1, 13118, Note_on_c, 0, 81, 70
1, 13118, Note_on_c, 0, 42, 0
1, 13121, Note_on_c, 0, 54, 0
1, 13121, Note_on_c, 0, 75, 67
1, 13121, Note_on_c, 0, 72, 56
1, 13124, Note_on_c, 0, 66, 56
1, 13124, Note_on_c, 0, 63, 56
1, 13202, Control_c, 0, 64, 0
1, 13229, Note_on_c, 0, 81, 0
1, 13229, Note_on_c, 0, 93, 0
1, 13229, Note_on_c, 0, 90, 0
1, 13232, Note_on_c, 0, 84, 0
1, 13232, Note_on_c, 0, 63, 0
1, 13232, Note_on_c, 0, 75, 0
1, 13235, Note_on_c, 0, 72, 0
1, 13235, Note_on_c, 0, 66, 0
1, 14244, Note_on_c, 0, 63, 43
1, 14244, Note_on_c, 0, 68, 43
1, 14244, Note_on_c, 0, 54, 34
1, 14247, Note_on_c, 0, 60, 34
1, 14309, Note_on_c, 0, 68, 0
1, 14309, Note_on_c, 0, 63, 0
1, 14309, Note_on_c, 0, 60, 0
1, 14312, Note_on_c, 0, 54, 0
1, 14461, Note_on_c, 0, 65, 43
1, 14461, Note_on_c, 0, 71, 43
1, 14461, Note_on_c, 0, 56, 34
1, 14464, Note_on_c, 0, 62, 34
1, 14526, Note_on_c, 0, 71, 0
1, 14526, Note_on_c, 0, 65, 0
1, 14526, Note_on_c, 0, 62, 0
1, 14529, Note_on_c, 0, 56, 0
1, 14673, Note_on_c, 0, 66, 47
1, 14673, Note_on_c, 0, 72, 47
1, 14673, Note_on_c, 0, 57, 39
1, 14676, Note_on_c, 0, 63, 39
1, 14735, Note_on_c, 0, 72, 0
1, 14735, Note_on_c, 0, 66, 0
1, 14735, Note_on_c, 0, 63, 0
1, 14738, Note_on_c, 0, 57, 0
1, 14876, Note_on_c, 0, 68, 43
1, 14876, Note_on_c, 0, 74, 43
1, 14876, Note_on_c, 0, 59, 35
1, 14879, Note_on_c, 0, 65, 35
1, 14935, Note_on_c, 0, 74, 0
1, 14935, Note_on_c, 0, 68, 0
1, 14935, Note_on_c, 0, 65, 0
1, 14938, Note_on_c, 0, 59, 0
1, 15070, Note_on_c, 0, 69, 43
1, 15070, Note_on_c, 0, 75, 43
1, 15070, Note_on_c, 0, 60, 35
1, 15073, Note_on_c, 0, 66, 35
1, 15127, Note_on_c, 0, 75, 0
1, 15127, Note_on_c, 0, 69, 0
1, 15127, Note_on_c, 0, 66, 0
1, 15130, Note_on_c, 0, 60, 0
1, 15258, Note_on_c, 0, 71, 47
1, 15258, Note_on_c, 0, 77, 47
1, 15258, Note_on_c, 0, 62, 39
1, 15261, Note_on_c, 0, 68, 39
1, 15315, Note_on_c, 0, 77, 0
1, 15315, Note_on_c, 0, 71, 0
1, 15315, Note_on_c, 0, 68, 0
1, 15318, Note_on_c, 0, 62, 0
1, 15442, Note_on_c, 0, 72, 43
1, 15442, Note_on_c, 0, 78, 43
1, 15442, Note_on_c, 0, 63, 34
1, 15445, Note_on_c, 0, 69, 34
1, 15496, Note_on_c, 0, 78, 0
1, 15496, Note_on_c, 0, 72, 0
1, 15496, Note_on_c, 0, 69, 0
1, 15499, Note_on_c, 0, 63, 0
1, 15619, Note_on_c, 0, 74, 43
1, 15619, Note_on_c, 0, 80, 43
1, 15619, Note_on_c, 0, 65, 34
1, 15622, Note_on_c, 0, 71, 34
1, 15671, Note_on_c, 0, 80, 0
1, 15671, Note_on_c, 0, 74, 0
1, 15671, Note_on_c, 0, 71, 0
1, 15674, Note_on_c, 0, 65, 0
1, 15790, Note_on_c, 0, 75, 47
1, 15790, Note_on_c, 0, 81, 47
1, 15790, Note_on_c, 0, 66, 39
1, 15793, Note_on_c, 0, 72, 39
1, 15839, Note_on_c, 0, 81, 0
1, 15839, Note_on_c, 0, 75, 0
1, 15839, Note_on_c, 0, 72, 0
1, 15842, Note_on_c, 0, 66, 0
1, 15954, Note_on_c, 0, 77, 45
1, 15954, Note_on_c, 0, 83, 45
1, 15954, Note_on_c, 0, 68, 37
1, 15957, Note_on_c, 0, 74, 37
1, 16003, Note_on_c, 0, 83, 0
1, 16003, Note_on_c, 0, 77, 0
1, 16003, Note_on_c, 0, 74, 0
1, 16006, Note_on_c, 0, 68, 0
1, 16117, Note_on_c, 0, 78, 45
1, 16117, Note_on_c, 0, 84, 45
1, 16117, Note_on_c, 0, 69, 37
1, 16120, Note_on_c, 0, 75, 37
1, 16166, Note_on_c, 0, 84, 0
1, 16166, Note_on_c, 0, 78, 0
1, 16166, Note_on_c, 0, 75, 0
1, 16169, Note_on_c, 0, 69, 0
1, 16278, Note_on_c, 0, 80, 47
1, 16278, Note_on_c, 0, 86, 47
1, 16278, Note_on_c, 0, 71, 42
1, 16281, Note_on_c, 0, 77, 42
1, 16326, Note_on_c, 0, 86, 0
1, 16326, Note_on_c, 0, 80, 0
1, 16326, Note_on_c, 0, 77, 0
1, 16329, Note_on_c, 0, 71, 0
1, 16435, Note_on_c, 0, 81, 48
1, 16435, Note_on_c, 0, 87, 48
1, 16435, Note_on_c, 0, 72, 42
1, 16438, Note_on_c, 0, 78, 42
1, 16481, Note_on_c, 0, 87, 0
1, 16481, Note_on_c, 0, 81, 0
1, 16481, Note_on_c, 0, 78, 0
1, 16484, Note_on_c, 0, 72, 0
1, 16588, Note_on_c, 0, 83, 49
1, 16588, Note_on_c, 0, 89, 49
1, 16588, Note_on_c, 0, 74, 43
1, 16591, Note_on_c, 0, 80, 43
1, 16634, Note_on_c, 0, 89, 0
1, 16634, Note_on_c, 0, 83, 0
1, 16634, Note_on_c, 0, 80, 0
1, 16637, Note_on_c, 0, 74, 0
1, 16740, Note_on_c, 0, 84, 50
1, 16740, Note_on_c, 0, 90, 50
1, 16740, Note_on_c, 0, 75, 43
1, 16743, Note_on_c, 0, 81, 43
1, 16785, Note_on_c, 0, 90, 0
1, 16785, Note_on_c, 0, 84, 0
1, 16785, Note_on_c, 0, 81, 0
1, 16788, Note_on_c, 0, 75, 0
1, 16886, Note_on_c, 0, 86, 51
1, 16886, Note_on_c, 0, 92, 51
1, 16886, Note_on_c, 0, 77, 44
1, 16889, Note_on_c, 0, 83, 44
1, 16929, Note_on_c, 0, 92, 0
1, 16929, Note_on_c, 0, 86, 0
1, 16929, Note_on_c, 0, 83, 0
1, 16932, Note_on_c, 0, 77, 0
1, 17029, Note_on_c, 0, 87, 52
1, 17029, Note_on_c, 0, 93, 52
1, 17029, Note_on_c, 0, 78, 44
1, 17032, Note_on_c, 0, 84, 44
1, 17071, Note_on_c, 0, 93, 0
1, 17071, Note_on_c, 0, 87, 0
1, 17071, Note_on_c, 0, 84, 0
1, 17074, Note_on_c, 0, 78, 0
1, 17169, Note_on_c, 0, 89, 54
1, 17169, Note_on_c, 0, 95, 54
1, 17169, Note_on_c, 0, 80, 45
1, 17172, Note_on_c, 0, 86, 45
1, 17210, Note_on_c, 0, 95, 0
1, 17210, Note_on_c, 0, 89, 0
1, 17210, Note_on_c, 0, 86, 0
1, 17213, Note_on_c, 0, 80, 0
1, 17306, Note_on_c, 0, 90, 56
1, 17306, Note_on_c, 0, 96, 56
1, 17306, Note_on_c, 0, 81, 46
1, 17309, Note_on_c, 0, 87, 46
1, 17347, Note_on_c, 0, 96, 0
1, 17347, Note_on_c, 0, 90, 0
1, 17347, Note_on_c, 0, 87, 0
1, 17350, Note_on_c, 0, 81, 0
1, 17441, Note_on_c, 0, 91, 58
1, 17441, Note_on_c, 0, 97, 58
1, 17441, Note_on_c, 0, 82, 49
1, 17444, Note_on_c, 0, 88, 49
1, 17481, Note_on_c, 0, 97, 0
1, 17481, Note_on_c, 0, 91, 0
1, 17481, Note_on_c, 0, 88, 0
1, 17484, Note_on_c, 0, 82, 0
1, 17574, Note_on_c, 0, 92, 61
1, 17574, Note_on_c, 0, 98, 61
1, 17574, Note_on_c, 0, 83, 50
1, 17577, Note_on_c, 0, 89, 50
1, 17604, Note_on_c, 0, 98, 0
1, 17604, Note_on_c, 0, 92, 0
1, 17604, Note_on_c, 0, 89, 0
1, 17607, Note_on_c, 0, 83, 0
1, 17673, Note_on_c, 0, 93, 63
1, 17673, Note_on_c, 0, 99, 63
1, 17673, Note_on_c, 0, 84, 51
1, 17676, Note_on_c, 0, 90, 51
1, 17702, Note_on_c, 0, 99, 0
1, 17702, Note_on_c, 0, 93, 0
1, 17702, Note_on_c, 0, 90, 0
1, 17705, Note_on_c, 0, 84, 0
1, 17771, Note_on_c, 0, 94, 64
1, 17771, Note_on_c, 0, 100, 64
1, 17771, Note_on_c, 0, 85, 53
1, 17774, Note_on_c, 0, 91, 53
1, 17800, Note_on_c, 0, 100, 0
1, 17800, Note_on_c, 0, 94, 0
1, 17800, Note_on_c, 0, 91, 0
1, 17803, Note_on_c, 0, 85, 0
1, 17867, Note_on_c, 0, 95, 67
1, 17867, Note_on_c, 0, 101, 67
1, 17867, Note_on_c, 0, 86, 54
1, 17870, Note_on_c, 0, 92, 54
1, 17896, Note_on_c, 0, 101, 0
1, 17896, Note_on_c, 0, 95, 0
1, 17896, Note_on_c, 0, 92, 0
1, 17899, Note_on_c, 0, 86, 0
1, 17963, Note_on_c, 0, 102, 69
1, 17963, Note_on_c, 0, 96, 69
1, 17963, Note_on_c, 0, 93, 59
1, 17966, Note_on_c, 0, 87, 59
1, 17991, Note_on_c, 0, 96, 0
1, 17991, Note_on_c, 0, 102, 0
1, 17991, Note_on_c, 0, 87, 0
1, 17994, Note_on_c, 0, 93, 0
1, 19747, Note_on_c, 0, 75, 50
1, 20029, Note_on_c, 0, 69, 40
1, 20029, Note_on_c, 0, 66, 33
1, 20436, Note_on_c, 0, 75, 0
1, 20436, Note_on_c, 0, 77, 46
1, 20504, Note_on_c, 0, 77, 0
1, 20504, Note_on_c, 0, 75, 47
1, 20572, Note_on_c, 0, 75, 0
1, 20572, Note_on_c, 0, 74, 50
1, 20572, Note_on_c, 0, 66, 0
1, 20575, Note_on_c, 0, 65, 38
1, 20843, Note_on_c, 0, 74, 0
1, 20843, Note_on_c, 0, 72, 41
1, 20843, Note_on_c, 0, 65, 0
1, 20846, Note_on_c, 0, 63, 38
1, 21034, Note_on_c, 0, 72, 0
1, 21034, Note_on_c, 0, 63, 0
1, 21034, Note_on_c, 0, 62, 26
1, 21076, Note_on_c, 0, 65, 31
1, 21118, Note_on_c, 0, 72, 30
1, 21160, Note_on_c, 0, 69, 0
1, 21160, Note_on_c, 0, 77, 47
1, 21415, Note_on_c, 0, 77, 0
1, 21415, Note_on_c, 0, 72, 0
1, 21415, Note_on_c, 0, 69, 37
1, 21418, Note_on_c, 0, 65, 0
1, 21418, Note_on_c, 0, 62, 0
1, 21697, Note_on_c, 0, 69, 0
1, 21697, Note_on_c, 0, 70, 37
1, 21979, Note_on_c, 0, 70, 0
1, 22784, Note_on_c, 0, 70, 50
1, 23322, Note_on_c, 0, 64, 40
1, 23322, Note_on_c, 0, 61, 36
1, 23729, Note_on_c, 0, 70, 0
1, 23729, Note_on_c, 0, 72, 46
1, 23797, Note_on_c, 0, 72, 0
1, 23797, Note_on_c, 0, 70, 47
1, 23865, Note_on_c, 0, 70, 0
1, 23865, Note_on_c, 0, 68, 50
1, 23865, Note_on_c, 0, 61, 0
1, 23868, Note_on_c, 0, 60, 38
1, 24137, Note_on_c, 0, 68, 0
1, 24137, Note_on_c, 0, 67, 41
1, 24137, Note_on_c, 0, 60, 0
1, 24140, Note_on_c, 0, 58, 38
1, 24328, Note_on_c, 0, 67, 0
1, 24328, Note_on_c, 0, 58, 0
1, 24328, Note_on_c, 0, 57, 26
1, 24370, Note_on_c, 0, 60, 31
1, 24412, Note_on_c, 0, 67, 30
1, 24454, Note_on_c, 0, 64, 0
1, 24454, Note_on_c, 0, 72, 47
1, 24709, Note_on_c, 0, 72, 0
1, 24709, Note_on_c, 0, 67, 0
1, 24709, Note_on_c, 0, 64, 37
1, 24712, Note_on_c, 0, 57, 0
1, 24991, Note_on_c, 0, 64, 0
1, 24991, Note_on_c, 0, 65, 37
1, 24991, Note_on_c, 0, 56, 30
1, 25272, Note_on_c, 0, 65, 0
1, 25272, Note_on_c, 0, 56, 0
1, 25554, Note_on_c, 0, 60, 0
1, 26117, Note_on_c, 0, 65, 50
1, 26646, Note_on_c, 0, 63, 40
1, 26646, Note_on_c, 0, 59, 36
1, 26646, Note_on_c, 0, 44, 30
1, 27051, Note_on_c, 0, 65, 0
1, 27051, Note_on_c, 0, 67, 46
1, 27118, Note_on_c, 0, 67, 0
1, 27118, Note_on_c, 0, 65, 47
1, 27185, Note_on_c, 0, 65, 0
1, 27185, Note_on_c, 0, 64, 50
1, 27438, Note_on_c, 0, 64, 0
1, 27438, Note_on_c, 0, 65, 41
1, 27616, Note_on_c, 0, 65, 0
1, 27658, Note_on_c, 0, 58, 36
1, 27700, Note_on_c, 0, 65, 41
1, 27742, Note_on_c, 0, 63, 0
1, 27742, Note_on_c, 0, 70, 45
1, 27742, Note_on_c, 0, 44, 0
1, 27745, Note_on_c, 0, 59, 0
1, 27745, Note_on_c, 0, 55, 31
1, 27745, Note_on_c, 0, 46, 26
1, 27997, Note_on_c, 0, 70, 0
1, 27997, Note_on_c, 0, 65, 0
1, 27997, Note_on_c, 0, 62, 37
1, 28279, Note_on_c, 0, 62, 0
1, 28279, Note_on_c, 0, 58, 0
1, 28279, Note_on_c, 0, 63, 37
1, 28560, Note_on_c, 0, 63, 0
1, 28772, Note_on_c, 0, 58, 36
1, 28813, Note_on_c, 0, 63, 35
1, 28855, Note_on_c, 0, 71, 45
1, 28855, Note_on_c, 0, 46, 0
1, 28855, Note_on_c, 0, 55, 0
1, 28858, Note_on_c, 0, 54, 31
1, 28858, Note_on_c, 0, 46, 26
1, 29111, Note_on_c, 0, 71, 0
1, 29111, Note_on_c, 0, 63, 0
1, 29111, Note_on_c, 0, 62, 37
1, 29392, Note_on_c, 0, 62, 0
1, 29392, Note_on_c, 0, 58, 0
1, 29392, Note_on_c, 0, 63, 37
1, 29674, Note_on_c, 0, 63, 0
1, 29904, Note_on_c, 0, 63, 31
1, 29992, Note_on_c, 0, 63, 0
1, 29992, Note_on_c, 0, 53, 37
1, 29992, Note_on_c, 0, 56, 37
1, 29995, Note_on_c, 0, 63, 37
1, 29995, Note_on_c, 0, 46, 0
1, 29995, Note_on_c, 0, 54, 0
1, 29998, Note_on_c, 0, 47, 31
1, 29998, Note_on_c, 0, 34, 26
1, 30274, Note_on_c, 0, 63, 0
1, 30274, Note_on_c, 0, 59, 31
1, 30556, Note_on_c, 0, 59, 0
1, 30556, Note_on_c, 0, 63, 37
1, 30556, Note_on_c, 0, 47, 0
1, 30559, Note_on_c, 0, 46, 31
1, 30837, Note_on_c, 0, 63, 0
1, 30837, Note_on_c, 0, 60, 31
1, 31119, Note_on_c, 0, 60, 0
1, 31119, Note_on_c, 0, 56, 0
1, 31119, Note_on_c, 0, 53, 0
1, 31122, Note_on_c, 0, 63, 39
1, 31122, Note_on_c, 0, 46, 0
1, 31122, Note_on_c, 0, 34, 0
1, 31495, Note_on_c, 0, 63, 0
1, 31495, Note_on_c, 0, 61, 33
1, 31870, Note_on_c, 0, 61, 0
1, 31870, Note_on_c, 0, 63, 33
1, 32246, Note_on_c, 0, 63, 0
1, 32246, Note_on_c, 0, 62, 35
1, 32589, Note_on_c, 0, 62, 0
1, 32589, Note_on_c, 0, 63, 28
1, 32678, Note_on_c, 0, 63, 0
1, 32678, Note_on_c, 0, 62, 28
1, 32766, Note_on_c, 0, 62, 0
1, 32766, Note_on_c, 0, 61, 28
1, 32855, Note_on_c, 0, 61, 0
1, 32855, Note_on_c, 0, 62, 28
1, 32944, Note_on_c, 0, 62, 0
1, 32944, Note_on_c, 0, 58, 32
1, 32988, Note_on_c, 0, 62, 35
1, 33033, Note_on_c, 0, 67, 38
1, 34132, Note_on_c, 0, 67, 0
1, 34132, Note_on_c, 0, 62, 0
1, 34132, Note_on_c, 0, 58, 0
1, 34135, Note_on_c, 0, 56, 35
1, 34135, Note_on_c, 0, 65, 35
1, 34287, Note_on_c, 0, 65, 0
1, 34287, Note_on_c, 0, 56, 0
1, 34287, Note_on_c, 0, 39, 35
1, 34429, Note_on_c, 0, 39, 0
1, 34748, Note_on_c, 0, 46, 33
1, 34780, Note_on_c, 0, 55, 34
1, 34811, Note_on_c, 0, 63, 35
1, 34868, Note_on_c, 0, 63, 0
1, 34868, Note_on_c, 0, 55, 0
1, 34868, Note_on_c, 0, 46, 0
1, 35660, Note_on_c, 0, 46, 33
1, 35689, Note_on_c, 0, 55, 34
1, 35717, Note_on_c, 0, 63, 36
1, 35765, Note_on_c, 0, 63, 0
1, 35765, Note_on_c, 0, 55, 0
1, 35765, Note_on_c, 0, 46, 0
1, 36105, Note_on_c, 0, 39, 35
1, 36219, Note_on_c, 0, 39, 0
1, 36546, Note_on_c, 0, 46, 33
1, 36579, Note_on_c, 0, 55, 34
1, 36612, Note_on_c, 0, 63, 36
1, 36669, Note_on_c, 0, 63, 0
1, 36669, Note_on_c, 0, 55, 0
1, 36669, Note_on_c, 0, 46, 0
1, 37461, Note_on_c, 0, 46, 35
1, 37489, Note_on_c, 0, 55, 37
1, 37517, Note_on_c, 0, 63, 38
1, 37570, Note_on_c, 0, 63, 0
1, 37570, Note_on_c, 0, 55, 0
1, 37570, Note_on_c, 0, 46, 0
1, 37829, Note_on_c, 0, 58, 60
1, 37933, Note_on_c, 0, 58, 0
1, 37933, Note_on_c, 0, 63, 68
1, 37933, Note_on_c, 0, 39, 38
1, 37936, Control_c, 0, 64, 127
1, 38055, Note_on_c, 0, 39, 0
1, 38361, Note_on_c, 0, 46, 37
1, 38392, Note_on_c, 0, 55, 38
1, 38422, Note_on_c, 0, 63, 39
1, 38456, Control_c, 0, 64, 0
1, 38471, Note_on_c, 0, 63, 0
1, 38471, Note_on_c, 0, 55, 0
1, 38471, Note_on_c, 0, 46, 0
1, 38713, Note_on_c, 0, 63, 0
1, 38713, Note_on_c, 0, 67, 57
1, 38811, Note_on_c, 0, 67, 0
1, 38811, Note_on_c, 0, 68, 57
1, 38919, Note_on_c, 0, 68, 0
1, 39189, Note_on_c, 0, 46, 37
1, 39216, Note_on_c, 0, 55, 38
1, 39244, Note_on_c, 0, 69, 66
1, 39244, Note_on_c, 0, 63, 39
1, 39297, Note_on_c, 0, 63, 0
1, 39297, Note_on_c, 0, 55, 0
1, 39297, Note_on_c, 0, 46, 0
1, 39350, Note_on_c, 0, 69, 0
1, 39673, Note_on_c, 0, 70, 71
1, 39673, Note_on_c, 0, 39, 38
1, 39676, Control_c, 0, 64, 127
1, 39791, Note_on_c, 0, 39, 0
1, 40088, Note_on_c, 0, 46, 36
1, 40117, Note_on_c, 0, 55, 38
1, 40133, Control_c, 0, 64, 0
1, 40147, Note_on_c, 0, 63, 40
1, 40194, Note_on_c, 0, 63, 0
1, 40194, Note_on_c, 0, 55, 0
1, 40194, Note_on_c, 0, 46, 0
1, 40523, Note_on_c, 0, 70, 0
1, 40523, Note_on_c, 0, 75, 68
1, 40579, Note_on_c, 0, 75, 0
1, 40916, Note_on_c, 0, 46, 38
1, 40944, Note_on_c, 0, 55, 39
1, 40972, Note_on_c, 0, 67, 49
1, 40972, Note_on_c, 0, 70, 63
1, 40972, Note_on_c, 0, 63, 41
1, 41024, Note_on_c, 0, 63, 0
1, 41024, Note_on_c, 0, 55, 0
1, 41024, Note_on_c, 0, 46, 0
1, 41286, Note_on_c, 0, 70, 0
1, 41286, Note_on_c, 0, 67, 0
1, 41286, Note_on_c, 0, 65, 46
1, 41289, Note_on_c, 0, 68, 59
1, 41338, Note_on_c, 0, 68, 0
1, 41338, Note_on_c, 0, 65, 0
1, 41338, Note_on_c, 0, 67, 47
1, 41341, Note_on_c, 0, 70, 59
1, 41390, Note_on_c, 0, 70, 0
1, 41390, Note_on_c, 0, 67, 0
1, 41390, Note_on_c, 0, 65, 54
1, 41393, Note_on_c, 0, 68, 69
1, 41393, Note_on_c, 0, 39, 38
1, 41470, Control_c, 0, 64, 127
1, 41504, Note_on_c, 0, 39, 0
1, 41618, Note_on_c, 0, 68, 0
1, 41618, Note_on_c, 0, 65, 0
1, 41761, Note_on_c, 0, 46, 35
1, 41789, Note_on_c, 0, 53, 37
1, 41799, Control_c, 0, 64, 0
1, 41818, Note_on_c, 0, 56, 39
1, 41846, Note_on_c, 0, 62, 40
1, 41893, Note_on_c, 0, 62, 0
1, 41893, Note_on_c, 0, 46, 0
1, 41893, Note_on_c, 0, 53, 0
1, 41896, Note_on_c, 0, 56, 0
1, 42032, Note_on_c, 0, 67, 60
1, 42032, Note_on_c, 0, 64, 50
1, 42218, Note_on_c, 0, 64, 0
1, 42218, Note_on_c, 0, 67, 0
1, 42218, Note_on_c, 0, 68, 66
1, 42221, Note_on_c, 0, 65, 51
1, 42271, Note_on_c, 0, 65, 0
1, 42271, Note_on_c, 0, 68, 0
1, 42594, Note_on_c, 0, 53, 38
1, 42594, Note_on_c, 0, 46, 38
1, 42621, Note_on_c, 0, 56, 39
1, 42647, Note_on_c, 0, 67, 50
1, 42647, Note_on_c, 0, 70, 64
1, 42647, Note_on_c, 0, 62, 40
1, 42702, Note_on_c, 0, 70, 0
1, 42702, Note_on_c, 0, 67, 0
1, 42702, Note_on_c, 0, 62, 0
1, 42705, Note_on_c, 0, 53, 0
1, 42705, Note_on_c, 0, 46, 0
1, 42705, Note_on_c, 0, 56, 0
1, 43084, Note_on_c, 0, 67, 68
1, 43084, Note_on_c, 0, 63, 54
1, 43084, Note_on_c, 0, 39, 38
1, 43087, Control_c, 0, 64, 127
1, 43206, Note_on_c, 0, 39, 0
1, 43512, Note_on_c, 0, 46, 39
1, 43543, Note_on_c, 0, 55, 41
1, 43548, Control_c, 0, 64, 0
1, 43573, Note_on_c, 0, 63, 42
1, 43625, Note_on_c, 0, 63, 0
1, 43625, Note_on_c, 0, 55, 0
1, 43625, Note_on_c, 0, 46, 0
1, 43988, Note_on_c, 0, 63, 0
1, 43988, Note_on_c, 0, 67, 0
1, 44144, Note_on_c, 0, 58, 58
1, 44218, Control_c, 0, 64, 127
1, 44300, Note_on_c, 0, 58, 0
1, 44300, Note_on_c, 0, 59, 50
1, 44397, Note_on_c, 0, 46, 37
1, 44426, Note_on_c, 0, 55, 39
1, 44455, Note_on_c, 0, 59, 0
1, 44455, Note_on_c, 0, 60, 51
1, 44455, Note_on_c, 0, 63, 40
1, 44459, Control_c, 0, 64, 0
1, 44508, Note_on_c, 0, 63, 0
1, 44508, Note_on_c, 0, 55, 0
1, 44508, Note_on_c, 0, 46, 0
1, 44598, Note_on_c, 0, 60, 0
1, 44598, Note_on_c, 0, 61, 55
1, 44612, Control_c, 0, 64, 127
1, 44741, Note_on_c, 0, 61, 0
1, 44741, Note_on_c, 0, 62, 58
1, 44884, Note_on_c, 0, 62, 0
1, 44884, Note_on_c, 0, 63, 68
1, 44884, Note_on_c, 0, 39, 38
1, 44896, Control_c, 0, 64, 0
1, 44929, Control_c, 0, 64, 127
1, 45007, Note_on_c, 0, 39, 0
1, 45313, Note_on_c, 0, 46, 38
1, 45343, Note_on_c, 0, 55, 39
1, 45374, Note_on_c, 0, 63, 41
1, 45379, Control_c, 0, 64, 0
1, 45423, Note_on_c, 0, 63, 0
1, 45423, Note_on_c, 0, 55, 0
1, 45423, Note_on_c, 0, 46, 0
1, 45665, Note_on_c, 0, 63, 0
1, 45665, Note_on_c, 0, 67, 57
1, 45762, Note_on_c, 0, 67, 0
1, 45762, Note_on_c, 0, 68, 57
1, 45870, Note_on_c, 0, 68, 0
1, 46141, Note_on_c, 0, 46, 38
1, 46168, Note_on_c, 0, 55, 40
1, 46195, Note_on_c, 0, 69, 66
1, 46195, Note_on_c, 0, 63, 41
1, 46248, Note_on_c, 0, 63, 0
1, 46248, Note_on_c, 0, 55, 0
1, 46248, Note_on_c, 0, 46, 0
1, 46302, Note_on_c, 0, 69, 0
1, 46517, Note_on_c, 0, 69, 49
1, 46551, Control_c, 0, 64, 127
1, 46551, Note_on_c, 0, 69, 0
1, 46551, Note_on_c, 0, 70, 44
1, 46589, Note_on_c, 0, 70, 0
1, 46589, Note_on_c, 0, 72, 47
1, 46624, Note_on_c, 0, 72, 0
1, 46624, Note_on_c, 0, 70, 54
1, 46624, Note_on_c, 0, 39, 38
1, 46672, Note_on_c, 0, 70, 0
1, 46672, Note_on_c, 0, 72, 49
1, 46719, Note_on_c, 0, 72, 0
1, 46719, Note_on_c, 0, 70, 50
1, 46743, Note_on_c, 0, 39, 0
1, 46767, Note_on_c, 0, 70, 0
1, 46767, Note_on_c, 0, 72, 47
1, 46814, Note_on_c, 0, 72, 0
1, 46814, Note_on_c, 0, 70, 50
1, 46861, Note_on_c, 0, 70, 0
1, 46861, Note_on_c, 0, 72, 47
1, 46909, Note_on_c, 0, 72, 0
1, 46909, Note_on_c, 0, 70, 50
1, 46956, Note_on_c, 0, 70, 0
1, 46956, Note_on_c, 0, 72, 47
1, 47004, Note_on_c, 0, 72, 0
1, 47004, Note_on_c, 0, 70, 50
1, 47039, Note_on_c, 0, 46, 38
1, 47051, Note_on_c, 0, 70, 0
1, 47051, Note_on_c, 0, 72, 45
1, 47069, Note_on_c, 0, 55, 39
1, 47099, Note_on_c, 0, 72, 0
1, 47099, Note_on_c, 0, 70, 50
1, 47099, Note_on_c, 0, 63, 41
1, 47136, Note_on_c, 0, 70, 0
1, 47136, Note_on_c, 0, 72, 46
1, 47146, Note_on_c, 0, 63, 0
1, 47146, Note_on_c, 0, 55, 0
1, 47146, Note_on_c, 0, 46, 0
1, 47174, Note_on_c, 0, 72, 0
1, 47174, Note_on_c, 0, 70, 50
1, 47211, Note_on_c, 0, 70, 0
1, 47211, Note_on_c, 0, 72, 45
1, 47249, Note_on_c, 0, 72, 0
1, 47249, Note_on_c, 0, 70, 50
1, 47287, Note_on_c, 0, 70, 0
1, 47287, Note_on_c, 0, 72, 47
1, 47334, Note_on_c, 0, 72, 0
1, 47334, Note_on_c, 0, 70, 53
1, 47381, Note_on_c, 0, 70, 0
1, 47381, Note_on_c, 0, 69, 50
1, 47428, Note_on_c, 0, 69, 0
1, 47428, Note_on_c, 0, 70, 50
1, 47474, Note_on_c, 0, 70, 0
1, 47474, Note_on_c, 0, 79, 68
1, 47474, Note_on_c, 0, 75, 58
1, 47515, Control_c, 0, 64, 0
1, 47531, Note_on_c, 0, 75, 0
1, 47531, Note_on_c, 0, 79, 0
1, 47868, Note_on_c, 0, 46, 38
1, 47896, Note_on_c, 0, 55, 40
1, 47924, Note_on_c, 0, 63, 42
1, 47976, Note_on_c, 0, 63, 0
1, 47976, Note_on_c, 0, 55, 0
1, 47976, Note_on_c, 0, 46, 0
1, 48133, Note_on_c, 0, 67, 49
1, 48133, Note_on_c, 0, 70, 63
1, 48237, Note_on_c, 0, 70, 0
1, 48237, Note_on_c, 0, 67, 0
1, 48237, Note_on_c, 0, 65, 46
1, 48240, Note_on_c, 0, 68, 59
1, 48289, Note_on_c, 0, 68, 0
1, 48289, Note_on_c, 0, 65, 0
1, 48289, Note_on_c, 0, 67, 47
1, 48292, Note_on_c, 0, 70, 59
1, 48342, Note_on_c, 0, 70, 0
1, 48342, Note_on_c, 0, 67, 0
1, 48342, Note_on_c, 0, 65, 54
1, 48345, Note_on_c, 0, 68, 69
1, 48345, Note_on_c, 0, 39, 38
1, 48345, Control_c, 0, 64, 127
1, 48456, Note_on_c, 0, 39, 0
1, 48570, Note_on_c, 0, 68, 0
1, 48570, Note_on_c, 0, 65, 0
1, 48712, Note_on_c, 0, 46, 37
1, 48741, Note_on_c, 0, 53, 38
1, 48764, Control_c, 0, 64, 0
1, 48769, Note_on_c, 0, 56, 39
1, 48798, Note_on_c, 0, 62, 41
1, 48844, Note_on_c, 0, 62, 0
1, 48844, Note_on_c, 0, 46, 0
1, 48844, Note_on_c, 0, 53, 0
1, 48847, Note_on_c, 0, 56, 0
1, 48983, Note_on_c, 0, 64, 50
1, 48983, Note_on_c, 0, 67, 60
1, 49169, Note_on_c, 0, 67, 0
1, 49169, Note_on_c, 0, 64, 0
1, 49169, Note_on_c, 0, 68, 66
1, 49172, Note_on_c, 0, 65, 51
1, 49223, Note_on_c, 0, 65, 0
1, 49223, Note_on_c, 0, 68, 0
1, 49545, Note_on_c, 0, 46, 36
1, 49572, Note_on_c, 0, 53, 38
1, 49599, Note_on_c, 0, 62, 50
1, 49599, Note_on_c, 0, 70, 64
1, 49599, Note_on_c, 0, 56, 39
1, 49654, Note_on_c, 0, 70, 0
1, 49654, Note_on_c, 0, 62, 0
1, 49654, Note_on_c, 0, 56, 0
1, 49657, Note_on_c, 0, 53, 0
1, 49657, Note_on_c, 0, 46, 0
1, 50035, Note_on_c, 0, 63, 68
1, 50035, Note_on_c, 0, 39, 38
1, 50045, Control_c, 0, 64, 127
1, 50158, Note_on_c, 0, 39, 0
1, 50464, Note_on_c, 0, 46, 35
1, 50494, Note_on_c, 0, 55, 38
1, 50525, Note_on_c, 0, 63, 41
1, 50540, Control_c, 0, 64, 0
1, 50577, Note_on_c, 0, 63, 0
1, 50577, Note_on_c, 0, 55, 0
1, 50577, Note_on_c, 0, 46, 0
1, 50940, Note_on_c, 0, 63, 0
1, 51348, Note_on_c, 0, 46, 34
1, 51378, Note_on_c, 0, 55, 37
1, 51407, Note_on_c, 0, 63, 39
1, 51460, Note_on_c, 0, 63, 0
1, 51460, Note_on_c, 0, 55, 0
1, 51460, Note_on_c, 0, 46, 0
1, 51836, Note_on_c, 0, 39, 38
1, 51950, Note_on_c, 0, 39, 0
1, 52277, Note_on_c, 0, 46, 36
1, 52310, Note_on_c, 0, 55, 39
1, 52343, Note_on_c, 0, 63, 42
1, 52399, Note_on_c, 0, 63, 0
1, 52399, Note_on_c, 0, 55, 0
1, 52399, Note_on_c, 0, 46, 0
1, 53192, Note_on_c, 0, 46, 36
1, 53220, Note_on_c, 0, 55, 38
1, 53248, Note_on_c, 0, 63, 41
1, 53301, Note_on_c, 0, 63, 0
1, 53301, Note_on_c, 0, 55, 0
1, 53301, Note_on_c, 0, 46, 0
1, 53560, Note_on_c, 0, 70, 60
1, 53664, Note_on_c, 0, 70, 0
1, 53664, Note_on_c, 0, 63, 62
1, 53664, Note_on_c, 0, 75, 74
1, 53667, Note_on_c, 0, 39, 48
1, 53667, Control_c, 0, 64, 127
1, 53779, Note_on_c, 0, 39, 0
1, 54066, Note_on_c, 0, 46, 42
1, 54095, Note_on_c, 0, 55, 46
1, 54123, Note_on_c, 0, 63, 48
1, 54170, Note_on_c, 0, 63, 0
1, 54170, Note_on_c, 0, 55, 0
1, 54170, Note_on_c, 0, 46, 0
1, 54403, Note_on_c, 0, 75, 0
1, 54403, Note_on_c, 0, 63, 0
1, 54403, Note_on_c, 0, 67, 52
1, 54406, Note_on_c, 0, 79, 62
1, 54497, Note_on_c, 0, 79, 0
1, 54497, Note_on_c, 0, 67, 0
1, 54497, Note_on_c, 0, 68, 52
1, 54500, Note_on_c, 0, 80, 62
1, 54531, Control_c, 0, 64, 0
1, 54601, Note_on_c, 0, 80, 0
1, 54601, Note_on_c, 0, 68, 0
1, 54863, Note_on_c, 0, 46, 39
1, 54889, Note_on_c, 0, 55, 41
1, 54915, Note_on_c, 0, 69, 56
1, 54915, Note_on_c, 0, 81, 67
1, 54915, Note_on_c, 0, 63, 44
1, 54971, Note_on_c, 0, 63, 0
1, 54971, Note_on_c, 0, 55, 0
1, 54971, Note_on_c, 0, 46, 0
1, 55026, Note_on_c, 0, 81, 0
1, 55026, Note_on_c, 0, 69, 0
1, 55249, Note_on_c, 0, 70, 44
1, 55305, Note_on_c, 0, 70, 0
1, 55305, Note_on_c, 0, 75, 46
1, 55361, Note_on_c, 0, 75, 0
1, 55361, Note_on_c, 0, 82, 53
1, 55361, Note_on_c, 0, 39, 38
1, 55373, Control_c, 0, 64, 127
1, 55419, Note_on_c, 0, 82, 0
1, 55419, Note_on_c, 0, 84, 41
1, 55464, Note_on_c, 0, 39, 0
1, 55478, Note_on_c, 0, 84, 0
1, 55478, Note_on_c, 0, 82, 41
1, 55537, Note_on_c, 0, 81, 41
1, 55537, Note_on_c, 0, 82, 0
1, 55595, Note_on_c, 0, 81, 0
1, 55595, Note_on_c, 0, 82, 41
1, 55654, Note_on_c, 0, 82, 0
1, 55654, Note_on_c, 0, 84, 48
1, 55713, Note_on_c, 0, 84, 0
1, 55713, Note_on_c, 0, 82, 41
1, 55721, Note_on_c, 0, 46, 39
1, 55747, Note_on_c, 0, 55, 42
1, 55772, Note_on_c, 0, 82, 0
1, 55772, Note_on_c, 0, 75, 48
1, 55772, Note_on_c, 0, 63, 46
1, 55820, Note_on_c, 0, 63, 0
1, 55820, Note_on_c, 0, 55, 0
1, 55820, Note_on_c, 0, 46, 0
1, 55836, Note_on_c, 0, 75, 0
1, 55836, Note_on_c, 0, 70, 42
1, 55898, Note_on_c, 0, 70, 0
1, 55898, Note_on_c, 0, 63, 46
1, 55961, Note_on_c, 0, 63, 0
1, 55961, Note_on_c, 0, 70, 52
1, 56024, Note_on_c, 0, 70, 0
1, 56024, Note_on_c, 0, 75, 63
1, 56086, Note_on_c, 0, 75, 0
1, 56086, Note_on_c, 0, 82, 73
1, 56149, Note_on_c, 0, 82, 0
1, 56149, Note_on_c, 0, 87, 81
1, 56171, Control_c, 0, 64, 0
1, 56259, Note_on_c, 0, 87, 0
1, 56533, Note_on_c, 0, 46, 35
1, 56561, Note_on_c, 0, 55, 37
1, 56588, Note_on_c, 0, 63, 38
1, 56639, Note_on_c, 0, 63, 0
1, 56639, Note_on_c, 0, 55, 0
1, 56639, Note_on_c, 0, 46, 0
1, 56792, Note_on_c, 0, 67, 54
1, 56792, Note_on_c, 0, 70, 54
1, 56893, Note_on_c, 0, 70, 0
1, 56893, Note_on_c, 0, 67, 0
1, 56893, Note_on_c, 0, 67, 33
1, 56896, Note_on_c, 0, 70, 40
1, 56896, Control_c, 0, 64, 127
1, 56944, Note_on_c, 0, 70, 0
1, 56944, Note_on_c, 0, 67, 0
1, 56944, Note_on_c, 0, 66, 33
1, 56947, Note_on_c, 0, 69, 40
1, 56995, Note_on_c, 0, 69, 0
1, 56995, Note_on_c, 0, 66, 0
1, 56995, Note_on_c, 0, 65, 39
1, 56998, Note_on_c, 0, 68, 49
1, 56998, Note_on_c, 0, 39, 35
1, 57093, Note_on_c, 0, 68, 0
1, 57093, Note_on_c, 0, 65, 0
1, 57093, Note_on_c, 0, 39, 0
1, 57105, Control_c, 0, 64, 0
1, 57285, Control_c, 0, 64, 127
1, 57290, Note_on_c, 0, 82, 42
1, 57290, Note_on_c, 0, 79, 36
1, 57314, Note_on_c, 0, 46, 31
1, 57339, Note_on_c, 0, 79, 0
1, 57339, Note_on_c, 0, 82, 0
1, 57339, Note_on_c, 0, 81, 43
1, 57342, Note_on_c, 0, 78, 37
1, 57342, Note_on_c, 0, 53, 33
1, 57364, Note_on_c, 0, 56, 34
1, 57388, Note_on_c, 0, 78, 0
1, 57388, Note_on_c, 0, 81, 0
1, 57388, Note_on_c, 0, 77, 44
1, 57391, Note_on_c, 0, 80, 50
1, 57391, Note_on_c, 0, 62, 36
1, 57414, Control_c, 0, 64, 0
1, 57435, Note_on_c, 0, 62, 0
1, 57435, Note_on_c, 0, 46, 0
1, 57435, Note_on_c, 0, 53, 0
1, 57438, Note_on_c, 0, 56, 0
1, 57481, Note_on_c, 0, 80, 0
1, 57481, Note_on_c, 0, 77, 0
1, 57662, Control_c, 0, 64, 127
1, 57667, Note_on_c, 0, 94, 41
1, 57667, Note_on_c, 0, 91, 36
1, 57713, Note_on_c, 0, 91, 0
1, 57713, Note_on_c, 0, 94, 0
1, 57713, Note_on_c, 0, 90, 37
1, 57716, Note_on_c, 0, 93, 41
1, 57759, Note_on_c, 0, 93, 0
1, 57759, Note_on_c, 0, 90, 0
1, 57759, Note_on_c, 0, 92, 48
1, 57762, Note_on_c, 0, 89, 44
1, 57805, Control_c, 0, 64, 0
1, 57860, Note_on_c, 0, 89, 0
1, 57860, Note_on_c, 0, 92, 0
1, 58060, Note_on_c, 0, 64, 36
1, 58060, Note_on_c, 0, 67, 42
1, 58110, Note_on_c, 0, 46, 32
1, 58110, Note_on_c, 0, 53, 32
1, 58136, Note_on_c, 0, 56, 34
1, 58161, Note_on_c, 0, 67, 0
1, 58161, Note_on_c, 0, 64, 0
1, 58161, Note_on_c, 0, 65, 43
1, 58164, Note_on_c, 0, 68, 49
1, 58164, Note_on_c, 0, 62, 36
1, 58212, Note_on_c, 0, 68, 0
1, 58212, Note_on_c, 0, 65, 0
1, 58212, Note_on_c, 0, 62, 0
1, 58215, Note_on_c, 0, 46, 0
1, 58215, Note_on_c, 0, 53, 0
1, 58215, Note_on_c, 0, 56, 0
1, 58367, Note_on_c, 0, 67, 38
1, 58367, Note_on_c, 0, 70, 44
1, 58422, Note_on_c, 0, 70, 0
1, 58422, Note_on_c, 0, 67, 0
1, 58588, Note_on_c, 0, 67, 52
1, 58588, Note_on_c, 0, 63, 44
1, 58588, Note_on_c, 0, 39, 35
1, 58591, Control_c, 0, 64, 127
1, 58710, Note_on_c, 0, 39, 0
1, 59012, Control_c, 0, 64, 0
1, 59016, Note_on_c, 0, 46, 35
1, 59047, Note_on_c, 0, 55, 37
1, 59078, Note_on_c, 0, 63, 39
1, 59130, Note_on_c, 0, 63, 0
1, 59130, Note_on_c, 0, 55, 0
1, 59130, Note_on_c, 0, 46, 0
1, 59493, Note_on_c, 0, 63, 0
1, 59493, Note_on_c, 0, 67, 0
1, 59648, Note_on_c, 0, 70, 52
1, 59648, Note_on_c, 0, 58, 52
1, 59726, Control_c, 0, 64, 127
1, 59804, Note_on_c, 0, 58, 0
1, 59804, Note_on_c, 0, 71, 52
1, 59804, Note_on_c, 0, 59, 52
1, 59823, Note_on_c, 0, 70, 0
1, 59901, Note_on_c, 0, 46, 37
1, 59911, Control_c, 0, 64, 0
1, 59930, Note_on_c, 0, 55, 39
1, 59960, Note_on_c, 0, 59, 0
1, 59960, Note_on_c, 0, 72, 50
1, 59960, Note_on_c, 0, 60, 50
1, 59963, Note_on_c, 0, 63, 41
1, 59977, Note_on_c, 0, 71, 0
1, 60012, Note_on_c, 0, 63, 0
1, 60012, Note_on_c, 0, 55, 0
1, 60012, Note_on_c, 0, 46, 0
1, 60102, Note_on_c, 0, 60, 0
1, 60102, Note_on_c, 0, 73, 56
1, 60102, Note_on_c, 0, 61, 56
1, 60120, Note_on_c, 0, 72, 0
1, 60158, Control_c, 0, 64, 127
1, 60245, Note_on_c, 0, 61, 0
1, 60245, Note_on_c, 0, 74, 60
1, 60245, Note_on_c, 0, 62, 60
1, 60263, Note_on_c, 0, 73, 0
1, 60389, Note_on_c, 0, 62, 0
1, 60389, Note_on_c, 0, 75, 84
1, 60389, Note_on_c, 0, 63, 71
1, 60392, Note_on_c, 0, 39, 53
1, 60408, Note_on_c, 0, 74, 0
1, 60412, Control_c, 0, 64, 0
1, 60480, Control_c, 0, 64, 127
1, 60504, Note_on_c, 0, 39, 0
1, 60791, Note_on_c, 0, 46, 42
1, 60820, Note_on_c, 0, 55, 45
1, 60848, Note_on_c, 0, 63, 48
1, 60896, Note_on_c, 0, 63, 0
1, 60896, Note_on_c, 0, 55, 0
1, 60896, Note_on_c, 0, 46, 0
1, 61132, Note_on_c, 0, 63, 0
1, 61132, Note_on_c, 0, 75, 0
1, 61132, Note_on_c, 0, 79, 66
1, 61135, Note_on_c, 0, 67, 56
1, 61227, Note_on_c, 0, 67, 0
1, 61227, Note_on_c, 0, 79, 0
1, 61227, Note_on_c, 0, 80, 73
1, 61230, Note_on_c, 0, 68, 61
1, 61261, Control_c, 0, 64, 0
1, 61331, Note_on_c, 0, 68, 0
1, 61331, Note_on_c, 0, 80, 0
1, 61592, Note_on_c, 0, 46, 44
1, 61618, Note_on_c, 0, 55, 46
1, 61645, Note_on_c, 0, 81, 78
1, 61645, Note_on_c, 0, 69, 66
1, 61645, Note_on_c, 0, 63, 47
1, 61697, Note_on_c, 0, 63, 0
1, 61697, Note_on_c, 0, 55, 0
1, 61697, Note_on_c, 0, 46, 0
1, 61751, Note_on_c, 0, 69, 0
1, 61751, Note_on_c, 0, 81, 0
1, 61966, Note_on_c, 0, 70, 44
1, 62019, Note_on_c, 0, 70, 0
1, 62019, Note_on_c, 0, 75, 46
1, 62073, Note_on_c, 0, 75, 0
1, 62073, Note_on_c, 0, 82, 60
1, 62073, Note_on_c, 0, 39, 48
1, 62085, Control_c, 0, 64, 127
1, 62130, Note_on_c, 0, 82, 0
1, 62130, Note_on_c, 0, 84, 45
1, 62174, Note_on_c, 0, 39, 0
1, 62188, Note_on_c, 0, 84, 0
1, 62188, Note_on_c, 0, 82, 45
1, 62245, Note_on_c, 0, 81, 45
1, 62245, Note_on_c, 0, 82, 0
1, 62303, Note_on_c, 0, 81, 0
1, 62303, Note_on_c, 0, 82, 45
1, 62361, Note_on_c, 0, 82, 0
1, 62361, Note_on_c, 0, 84, 52
1, 62418, Note_on_c, 0, 84, 0
1, 62418, Note_on_c, 0, 82, 45
1, 62426, Note_on_c, 0, 46, 36
1, 62452, Note_on_c, 0, 55, 38
1, 62476, Note_on_c, 0, 82, 0
1, 62476, Note_on_c, 0, 75, 52
1, 62476, Note_on_c, 0, 63, 40
1, 62524, Note_on_c, 0, 63, 0
1, 62524, Note_on_c, 0, 55, 0
1, 62524, Note_on_c, 0, 46, 0
1, 62531, Note_on_c, 0, 75, 0
1, 62531, Note_on_c, 0, 70, 47
1, 62586, Note_on_c, 0, 70, 0
1, 62586, Note_on_c, 0, 63, 51
1, 62640, Note_on_c, 0, 63, 0
1, 62640, Note_on_c, 0, 70, 58
1, 62695, Note_on_c, 0, 70, 0
1, 62695, Note_on_c, 0, 75, 62
1, 62749, Note_on_c, 0, 75, 0
1, 62749, Note_on_c, 0, 82, 68
1, 62803, Note_on_c, 0, 82, 74
1, 62803, Note_on_c, 0, 82, 0
1, 62853, Note_on_c, 0, 82, 0
1, 62853, Note_on_c, 0, 91, 85
1, 62853, Note_on_c, 0, 87, 75
1, 62875, Control_c, 0, 64, 0
1, 62965, Note_on_c, 0, 87, 0
1, 62965, Note_on_c, 0, 91, 0
1, 63246, Note_on_c, 0, 46, 35
1, 63274, Note_on_c, 0, 55, 37
1, 63302, Note_on_c, 0, 63, 38
1, 63354, Note_on_c, 0, 63, 0
1, 63354, Note_on_c, 0, 55, 0
1, 63354, Note_on_c, 0, 46, 0
1, 63508, Note_on_c, 0, 67, 54
1, 63508, Note_on_c, 0, 70, 54
1, 63611, Note_on_c, 0, 70, 0
1, 63611, Note_on_c, 0, 67, 0
1, 63611, Note_on_c, 0, 67, 33
1, 63614, Note_on_c, 0, 70, 40
1, 63614, Control_c, 0, 64, 127
1, 63663, Note_on_c, 0, 70, 0
1, 63663, Note_on_c, 0, 67, 0
1, 63663, Note_on_c, 0, 66, 33
1, 63666, Note_on_c, 0, 69, 40
1, 63714, Note_on_c, 0, 69, 0
1, 63714, Note_on_c, 0, 66, 0
1, 63714, Note_on_c, 0, 65, 39
1, 63717, Note_on_c, 0, 68, 49
1, 63717, Note_on_c, 0, 39, 35
1, 63814, Note_on_c, 0, 68, 0
1, 63814, Note_on_c, 0, 65, 0
1, 63814, Note_on_c, 0, 39, 0
1, 63826, Control_c, 0, 64, 0
1, 64008, Control_c, 0, 64, 127
1, 64013, Note_on_c, 0, 82, 42
1, 64013, Note_on_c, 0, 79, 36
1, 64038, Note_on_c, 0, 46, 31
1, 64063, Note_on_c, 0, 79, 0
1, 64063, Note_on_c, 0, 82, 0
1, 64063, Note_on_c, 0, 81, 43
1, 64066, Note_on_c, 0, 78, 37
1, 64066, Note_on_c, 0, 53, 33
1, 64088, Note_on_c, 0, 56, 34
1, 64113, Note_on_c, 0, 78, 0
1, 64113, Note_on_c, 0, 81, 0
1, 64113, Note_on_c, 0, 77, 44
1, 64116, Note_on_c, 0, 80, 50
1, 64116, Note_on_c, 0, 62, 36
1, 64139, Control_c, 0, 64, 0
1, 64159, Note_on_c, 0, 62, 0
1, 64159, Note_on_c, 0, 46, 0
1, 64159, Note_on_c, 0, 53, 0
1, 64162, Note_on_c, 0, 56, 0
1, 64206, Note_on_c, 0, 80, 0
1, 64206, Note_on_c, 0, 77, 0
1, 64387, Control_c, 0, 64, 127
1, 64391, Note_on_c, 0, 94, 41
1, 64391, Note_on_c, 0, 91, 36
1, 64438, Note_on_c, 0, 91, 0
1, 64438, Note_on_c, 0, 94, 0
1, 64438, Note_on_c, 0, 90, 37
1, 64441, Note_on_c, 0, 93, 41
1, 64484, Note_on_c, 0, 93, 0
1, 64484, Note_on_c, 0, 90, 0
1, 64484, Note_on_c, 0, 92, 48
1, 64487, Note_on_c, 0, 89, 44
1, 64529, Control_c, 0, 64, 0
1, 64584, Note_on_c, 0, 89, 0
1, 64584, Note_on_c, 0, 92, 0
1, 64785, Note_on_c, 0, 64, 36
1, 64785, Note_on_c, 0, 67, 42
1, 64835, Note_on_c, 0, 46, 32
1, 64835, Note_on_c, 0, 53, 32
1, 64860, Note_on_c, 0, 56, 34
1, 64885, Note_on_c, 0, 67, 0
1, 64885, Note_on_c, 0, 64, 0
1, 64885, Note_on_c, 0, 65, 41
1, 64888, Note_on_c, 0, 68, 49
1, 64888, Note_on_c, 0, 62, 36
1, 64936, Note_on_c, 0, 62, 0
1, 64936, Note_on_c, 0, 46, 0
1, 64936, Note_on_c, 0, 53, 0
1, 64939, Note_on_c, 0, 56, 0
1, 65022, Note_on_c, 0, 68, 0
1, 65022, Note_on_c, 0, 65, 0
1, 65022, Note_on_c, 0, 68, 38
1, 65025, Note_on_c, 0, 72, 44
1, 65255, Note_on_c, 0, 72, 0
1, 65255, Note_on_c, 0, 68, 0
1, 65255, Note_on_c, 0, 67, 38
1, 65258, Note_on_c, 0, 70, 44
1, 65343, Note_on_c, 0, 70, 0
1, 65343, Note_on_c, 0, 67, 0
1, 65343, Note_on_c, 0, 67, 52
1, 65346, Note_on_c, 0, 63, 44
1, 65346, Note_on_c, 0, 39, 35
1, 65400, Control_c, 0, 64, 127
1, 65466, Note_on_c, 0, 39, 0
1, 65772, Note_on_c, 0, 46, 35
1, 65802, Note_on_c, 0, 55, 37
1, 65833, Note_on_c, 0, 63, 0
1, 65833, Note_on_c, 0, 67, 0
1, 65833, Note_on_c, 0, 63, 39
1, 65845, Control_c, 0, 64, 0
1, 65884, Note_on_c, 0, 63, 0
1, 65884, Note_on_c, 0, 55, 0
1, 65884, Note_on_c, 0, 46, 0
1, 66595, Note_on_c, 0, 46, 35
1, 66621, Note_on_c, 0, 55, 37
1, 66646, Note_on_c, 0, 85, 69
1, 66646, Note_on_c, 0, 82, 55
1, 66646, Note_on_c, 0, 63, 39
1, 66693, Note_on_c, 0, 63, 0
1, 66693, Note_on_c, 0, 55, 0
1, 66693, Note_on_c, 0, 46, 0
1, 67017, Note_on_c, 0, 82, 0
1, 67017, Note_on_c, 0, 85, 0
1, 67017, Note_on_c, 0, 84, 58
1, 67020, Note_on_c, 0, 80, 48
1, 67020, Note_on_c, 0, 39, 36
1, 67026, Control_c, 0, 64, 127
1, 67118, Note_on_c, 0, 39, 0
1, 67320, Note_on_c, 0, 80, 0
1, 67320, Note_on_c, 0, 84, 0
1, 67320, Note_on_c, 0, 86, 43
1, 67368, Note_on_c, 0, 86, 0
1, 67368, Note_on_c, 0, 84, 49
1, 67368, Note_on_c, 0, 48, 36
1, 67392, Note_on_c, 0, 56, 38
1, 67392, Control_c, 0, 64, 0
1, 67415, Note_on_c, 0, 84, 0
1, 67415, Note_on_c, 0, 82, 54
1, 67415, Note_on_c, 0, 79, 46
1, 67418, Note_on_c, 0, 63, 40
1, 67464, Note_on_c, 0, 63, 0
1, 67464, Note_on_c, 0, 56, 0
1, 67464, Note_on_c, 0, 48, 0
1, 67513, Note_on_c, 0, 79, 0
1, 67513, Note_on_c, 0, 82, 0
1, 67610, Note_on_c, 0, 80, 49
1, 67610, Note_on_c, 0, 77, 40
1, 67707, Note_on_c, 0, 77, 0
1, 67707, Note_on_c, 0, 80, 0
1, 67804, Note_on_c, 0, 79, 51
1, 67804, Note_on_c, 0, 75, 43
1, 67902, Note_on_c, 0, 75, 0
1, 67902, Note_on_c, 0, 79, 0
1, 68000, Note_on_c, 0, 77, 46
1, 68000, Note_on_c, 0, 70, 38
1, 68099, Note_on_c, 0, 70, 0
1, 68099, Note_on_c, 0, 77, 0
1, 68148, Note_on_c, 0, 51, 35
1, 68172, Note_on_c, 0, 58, 37
1, 68197, Note_on_c, 0, 75, 54
1, 68197, Note_on_c, 0, 67, 46
1, 68197, Note_on_c, 0, 63, 39
1, 68248, Note_on_c, 0, 63, 0
1, 68248, Note_on_c, 0, 58, 0
1, 68248, Note_on_c, 0, 51, 0
1, 68299, Note_on_c, 0, 67, 0
1, 68299, Note_on_c, 0, 75, 0
1, 68502, Note_on_c, 0, 67, 48
1, 68502, Note_on_c, 0, 63, 40
1, 68611, Note_on_c, 0, 63, 0
1, 68611, Note_on_c, 0, 67, 0
1, 68611, Note_on_c, 0, 68, 61
1, 68614, Note_on_c, 0, 65, 52
1, 68614, Note_on_c, 0, 39, 36
1, 68614, Control_c, 0, 64, 127
1, 68710, Note_on_c, 0, 39, 0
1, 68810, Note_on_c, 0, 65, 0
1, 68810, Note_on_c, 0, 68, 0
1, 68810, Note_on_c, 0, 70, 45
1, 68860, Note_on_c, 0, 70, 0
1, 68860, Note_on_c, 0, 68, 45
1, 68910, Note_on_c, 0, 68, 0
1, 68910, Note_on_c, 0, 67, 51
1, 68910, Note_on_c, 0, 64, 43
1, 68935, Note_on_c, 0, 46, 36
1, 68960, Note_on_c, 0, 53, 38
1, 68984, Note_on_c, 0, 56, 38
1, 68993, Control_c, 0, 64, 0
1, 69009, Note_on_c, 0, 64, 0
1, 69009, Note_on_c, 0, 67, 0
1, 69009, Note_on_c, 0, 68, 56
1, 69012, Note_on_c, 0, 65, 47
1, 69012, Note_on_c, 0, 62, 40
1, 69058, Note_on_c, 0, 65, 0
1, 69058, Note_on_c, 0, 68, 0
1, 69058, Note_on_c, 0, 62, 0
1, 69061, Note_on_c, 0, 46, 0
1, 69061, Note_on_c, 0, 53, 0
1, 69061, Note_on_c, 0, 56, 0
1, 69202, Note_on_c, 0, 69, 54
1, 69202, Note_on_c, 0, 66, 46
1, 69253, Note_on_c, 0, 66, 0
1, 69253, Note_on_c, 0, 69, 0
1, 69407, Note_on_c, 0, 70, 59
1, 69407, Note_on_c, 0, 67, 50
1, 69617, Note_on_c, 0, 67, 0
1, 69617, Note_on_c, 0, 70, 0
1, 69775, Note_on_c, 0, 51, 35
1, 69801, Note_on_c, 0, 55, 37
1, 69828, Note_on_c, 0, 85, 69
1, 69828, Note_on_c, 0, 82, 55
1, 69828, Note_on_c, 0, 63, 39
1, 69874, Note_on_c, 0, 63, 0
1, 69874, Note_on_c, 0, 55, 0
1, 69874, Note_on_c, 0, 51, 0
1, 70199, Note_on_c, 0, 82, 0
1, 70199, Note_on_c, 0, 85, 0
1, 70199, Note_on_c, 0, 84, 58
1, 70202, Note_on_c, 0, 80, 48
1, 70202, Note_on_c, 0, 39, 36
1, 70217, Control_c, 0, 64, 127
1, 70300, Note_on_c, 0, 39, 0
1, 70502, Note_on_c, 0, 80, 0
1, 70502, Note_on_c, 0, 84, 0
1, 70502, Note_on_c, 0, 86, 43
1, 70550, Note_on_c, 0, 86, 0
1, 70550, Note_on_c, 0, 84, 49
1, 70550, Note_on_c, 0, 48, 36
1, 70573, Note_on_c, 0, 56, 38
1, 70586, Control_c, 0, 64, 0
1, 70597, Note_on_c, 0, 84, 0
1, 70597, Note_on_c, 0, 82, 54
1, 70597, Note_on_c, 0, 79, 46
1, 70600, Note_on_c, 0, 63, 40
1, 70644, Note_on_c, 0, 63, 0
1, 70644, Note_on_c, 0, 56, 0
1, 70644, Note_on_c, 0, 48, 0
1, 70691, Note_on_c, 0, 79, 0
1, 70691, Note_on_c, 0, 82, 0
1, 70784, Note_on_c, 0, 80, 49
1, 70784, Note_on_c, 0, 77, 40
1, 70877, Note_on_c, 0, 77, 0
1, 70877, Note_on_c, 0, 80, 0
1, 70971, Note_on_c, 0, 79, 51
1, 70971, Note_on_c, 0, 75, 43
1, 71069, Note_on_c, 0, 75, 0
1, 71069, Note_on_c, 0, 79, 0
1, 71167, Note_on_c, 0, 77, 46
1, 71167, Note_on_c, 0, 70, 38
1, 71266, Note_on_c, 0, 70, 0
1, 71266, Note_on_c, 0, 77, 0
1, 71315, Note_on_c, 0, 51, 35
1, 71339, Note_on_c, 0, 58, 37
1, 71364, Note_on_c, 0, 75, 54
1, 71364, Note_on_c, 0, 67, 46
1, 71364, Note_on_c, 0, 63, 39
1, 71415, Note_on_c, 0, 63, 0
1, 71415, Note_on_c, 0, 58, 0
1, 71415, Note_on_c, 0, 51, 0
1, 71466, Note_on_c, 0, 67, 0
1, 71466, Note_on_c, 0, 75, 0
1, 71669, Note_on_c, 0, 67, 48
1, 71669, Note_on_c, 0, 63, 40
1, 71778, Note_on_c, 0, 63, 0
1, 71778, Note_on_c, 0, 67, 0
1, 71778, Note_on_c, 0, 68, 61
1, 71781, Note_on_c, 0, 65, 52
1, 71781, Note_on_c, 0, 39, 36
1, 71807, Control_c, 0, 64, 127
1, 71878, Note_on_c, 0, 39, 0
1, 71977, Note_on_c, 0, 65, 0
1, 71977, Note_on_c, 0, 68, 0
1, 71977, Note_on_c, 0, 70, 45
1, 72027, Note_on_c, 0, 70, 0
1, 72027, Note_on_c, 0, 68, 45
1, 72077, Note_on_c, 0, 68, 0
1, 72077, Note_on_c, 0, 67, 51
1, 72077, Note_on_c, 0, 64, 43
1, 72102, Note_on_c, 0, 46, 36
1, 72127, Note_on_c, 0, 53, 38
1, 72152, Note_on_c, 0, 56, 38
1, 72176, Note_on_c, 0, 64, 0
1, 72176, Note_on_c, 0, 67, 0
1, 72176, Note_on_c, 0, 68, 56
1, 72179, Note_on_c, 0, 65, 47
1, 72179, Note_on_c, 0, 62, 40
1, 72182, Control_c, 0, 64, 0
1, 72225, Note_on_c, 0, 65, 0
1, 72225, Note_on_c, 0, 68, 0
1, 72225, Note_on_c, 0, 62, 0
1, 72228, Note_on_c, 0, 46, 0
1, 72228, Note_on_c, 0, 53, 0
1, 72228, Note_on_c, 0, 56, 0
1, 72369, Note_on_c, 0, 70, 54
1, 72369, Note_on_c, 0, 62, 46
1, 72420, Note_on_c, 0, 62, 0
1, 72420, Note_on_c, 0, 70, 0
1, 72574, Note_on_c, 0, 63, 59
1, 72784, Note_on_c, 0, 63, 0
1, 72942, Note_on_c, 0, 51, 35
1, 72969, Note_on_c, 0, 55, 37
1, 72995, Note_on_c, 0, 82, 63
1, 72995, Note_on_c, 0, 63, 39
1, 73020, Note_on_c, 0, 87, 67
1, 73045, Note_on_c, 0, 97, 71
1, 73045, Note_on_c, 0, 63, 0
1, 73045, Note_on_c, 0, 55, 0
1, 73048, Note_on_c, 0, 51, 0
1, 73348, Note_on_c, 0, 97, 0
1, 73348, Note_on_c, 0, 87, 0
1, 73348, Note_on_c, 0, 82, 0
1, 73351, Note_on_c, 0, 80, 64
1, 73373, Note_on_c, 0, 87, 66
1, 73399, Note_on_c, 0, 96, 69
1, 73399, Note_on_c, 0, 39, 36
1, 73413, Control_c, 0, 64, 127
1, 73500, Note_on_c, 0, 39, 0
1, 73702, Note_on_c, 0, 96, 0
1, 73702, Note_on_c, 0, 87, 0
1, 73702, Note_on_c, 0, 80, 0
1, 73705, Note_on_c, 0, 94, 40
1, 73705, Note_on_c, 0, 98, 48
1, 73749, Note_on_c, 0, 98, 0
1, 73749, Note_on_c, 0, 94, 0
1, 73749, Note_on_c, 0, 92, 42
1, 73752, Note_on_c, 0, 96, 55
1, 73752, Note_on_c, 0, 48, 36
1, 73773, Note_on_c, 0, 56, 38
1, 73797, Note_on_c, 0, 96, 0
1, 73797, Note_on_c, 0, 92, 0
1, 73797, Note_on_c, 0, 94, 61
1, 73800, Note_on_c, 0, 91, 61
1, 73800, Note_on_c, 0, 63, 40
1, 73819, Control_c, 0, 64, 0
1, 73843, Note_on_c, 0, 63, 0
1, 73843, Note_on_c, 0, 56, 0
1, 73843, Note_on_c, 0, 48, 0
1, 73890, Note_on_c, 0, 91, 0
1, 73890, Note_on_c, 0, 94, 0
1, 73984, Note_on_c, 0, 92, 51
1, 73984, Note_on_c, 0, 89, 51
1, 74077, Note_on_c, 0, 89, 0
1, 74077, Note_on_c, 0, 92, 0
1, 74170, Note_on_c, 0, 91, 56
1, 74170, Note_on_c, 0, 87, 56
1, 74269, Note_on_c, 0, 87, 0
1, 74269, Note_on_c, 0, 91, 0
1, 74367, Note_on_c, 0, 89, 49
1, 74367, Note_on_c, 0, 82, 49
1, 74465, Note_on_c, 0, 82, 0
1, 74465, Note_on_c, 0, 89, 0
1, 74514, Note_on_c, 0, 51, 35
1, 74539, Note_on_c, 0, 58, 37
1, 74564, Note_on_c, 0, 87, 55
1, 74564, Note_on_c, 0, 79, 55
1, 74564, Note_on_c, 0, 63, 39
1, 74614, Note_on_c, 0, 63, 0
1, 74614, Note_on_c, 0, 58, 0
1, 74614, Note_on_c, 0, 51, 0
1, 74665, Note_on_c, 0, 79, 0
1, 74665, Note_on_c, 0, 87, 0
1, 74923, Note_on_c, 0, 63, 40
1, 74923, Note_on_c, 0, 67, 48
1, 74978, Note_on_c, 0, 67, 0
1, 74978, Note_on_c, 0, 63, 0
1, 74978, Note_on_c, 0, 68, 61
1, 74981, Note_on_c, 0, 65, 52
1, 74981, Note_on_c, 0, 39, 36
1, 74989, Control_c, 0, 64, 127
1, 75077, Note_on_c, 0, 39, 0
1, 75177, Note_on_c, 0, 65, 0
1, 75177, Note_on_c, 0, 68, 0
1, 75177, Note_on_c, 0, 70, 45
1, 75227, Note_on_c, 0, 70, 0
1, 75227, Note_on_c, 0, 68, 45
1, 75276, Note_on_c, 0, 68, 0
1, 75276, Note_on_c, 0, 67, 51
1, 75276, Note_on_c, 0, 64, 43
1, 75301, Note_on_c, 0, 46, 36
1, 75326, Note_on_c, 0, 53, 38
1, 75351, Note_on_c, 0, 56, 38
1, 75366, Control_c, 0, 64, 0
1, 75376, Note_on_c, 0, 64, 0
1, 75376, Note_on_c, 0, 67, 0
1, 75376, Note_on_c, 0, 68, 56
1, 75379, Note_on_c, 0, 65, 47
1, 75379, Note_on_c, 0, 62, 40
1, 75424, Note_on_c, 0, 65, 0
1, 75424, Note_on_c, 0, 68, 0
1, 75424, Note_on_c, 0, 62, 0
1, 75427, Note_on_c, 0, 46, 0
1, 75427, Note_on_c, 0, 53, 0
1, 75427, Note_on_c, 0, 56, 0
1, 75569, Note_on_c, 0, 69, 54
1, 75569, Note_on_c, 0, 66, 46
1, 75620, Note_on_c, 0, 66, 0
1, 75620, Note_on_c, 0, 69, 0
1, 75774, Note_on_c, 0, 70, 59
1, 75774, Note_on_c, 0, 67, 50
1, 75984, Note_on_c, 0, 67, 0
1, 75984, Note_on_c, 0, 70, 0
1, 76142, Note_on_c, 0, 51, 35
1, 76168, Note_on_c, 0, 55, 37
1, 76194, Note_on_c, 0, 82, 61
1, 76194, Note_on_c, 0, 63, 39
1, 76220, Note_on_c, 0, 87, 65
1, 76245, Note_on_c, 0, 97, 68
1, 76245, Note_on_c, 0, 63, 0
1, 76245, Note_on_c, 0, 55, 0
1, 76248, Note_on_c, 0, 51, 0
1, 76499, Note_on_c, 0, 82, 0
1, 76550, Note_on_c, 0, 97, 0
1, 76550, Note_on_c, 0, 87, 0
1, 76550, Note_on_c, 0, 80, 61
1, 76576, Note_on_c, 0, 87, 64
1, 76601, Note_on_c, 0, 96, 67
1, 76601, Note_on_c, 0, 39, 36
1, 76609, Control_c, 0, 64, 127
1, 76702, Note_on_c, 0, 39, 0
1, 76904, Note_on_c, 0, 96, 0
1, 76904, Note_on_c, 0, 87, 0
1, 76904, Note_on_c, 0, 80, 0
1, 76907, Note_on_c, 0, 94, 31
1, 76907, Note_on_c, 0, 98, 51
1, 76952, Note_on_c, 0, 98, 0
1, 76952, Note_on_c, 0, 94, 0
1, 76952, Note_on_c, 0, 92, 42
1, 76955, Note_on_c, 0, 96, 55
1, 76955, Note_on_c, 0, 48, 36
1, 76975, Note_on_c, 0, 56, 38
1, 76999, Note_on_c, 0, 96, 0
1, 76999, Note_on_c, 0, 92, 0
1, 76999, Note_on_c, 0, 94, 60
1, 77002, Note_on_c, 0, 91, 60
1, 77002, Note_on_c, 0, 63, 40
1, 77021, Control_c, 0, 64, 0
1, 77046, Note_on_c, 0, 63, 0
1, 77046, Note_on_c, 0, 56, 0
1, 77046, Note_on_c, 0, 48, 0
1, 77093, Note_on_c, 0, 91, 0
1, 77093, Note_on_c, 0, 94, 0
1, 77186, Note_on_c, 0, 92, 54
1, 77186, Note_on_c, 0, 89, 54
1, 77279, Note_on_c, 0, 89, 0
1, 77279, Note_on_c, 0, 92, 0
1, 77373, Note_on_c, 0, 91, 58
1, 77373, Note_on_c, 0, 87, 58
1, 77471, Note_on_c, 0, 87, 0
1, 77471, Note_on_c, 0, 91, 0
1, 77569, Note_on_c, 0, 89, 54
1, 77569, Note_on_c, 0, 82, 54
1, 77668, Note_on_c, 0, 82, 0
1, 77668, Note_on_c, 0, 89, 0
1, 77717, Note_on_c, 0, 51, 35
1, 77741, Note_on_c, 0, 58, 37
1, 77766, Note_on_c, 0, 87, 63
1, 77766, Note_on_c, 0, 79, 63
1, 77766, Note_on_c, 0, 63, 39
1, 77818, Note_on_c, 0, 63, 0
1, 77818, Note_on_c, 0, 58, 0
1, 77818, Note_on_c, 0, 51, 0
1, 77871, Note_on_c, 0, 79, 0
1, 77871, Note_on_c, 0, 87, 0
1, 78081, Note_on_c, 0, 67, 48
1, 78081, Note_on_c, 0, 63, 40
1, 78190, Note_on_c, 0, 63, 0
1, 78190, Note_on_c, 0, 67, 0
1, 78190, Note_on_c, 0, 68, 61
1, 78193, Note_on_c, 0, 65, 52
1, 78193, Note_on_c, 0, 39, 36
1, 78199, Control_c, 0, 64, 127
1, 78297, Note_on_c, 0, 39, 0
1, 78538, Note_on_c, 0, 46, 36
1, 78564, Note_on_c, 0, 53, 38
1, 78591, Note_on_c, 0, 56, 38
1, 78605, Control_c, 0, 64, 0
1, 78618, Note_on_c, 0, 62, 40
1, 78669, Note_on_c, 0, 62, 0
1, 78669, Note_on_c, 0, 46, 0
1, 78669, Note_on_c, 0, 53, 0
1, 78672, Note_on_c, 0, 56, 0
1, 78822, Note_on_c, 0, 65, 0
1, 78822, Note_on_c, 0, 68, 0
1, 78822, Note_on_c, 0, 64, 43
1, 78825, Note_on_c, 0, 67, 51
1, 79056, Note_on_c, 0, 64, 0
1, 79056, Note_on_c, 0, 65, 47
1, 79056, Note_on_c, 0, 68, 56
1, 79065, Note_on_c, 0, 67, 0
1, 79118, Note_on_c, 0, 68, 0
1, 79118, Note_on_c, 0, 65, 0
1, 79550, Note_on_c, 0, 62, 46
1, 79550, Note_on_c, 0, 70, 54
1, 79619, Note_on_c, 0, 70, 0
1, 79619, Note_on_c, 0, 62, 0
1, 80024, Note_on_c, 0, 34, 61
1, 80083, Note_on_c, 0, 34, 0
1, 80083, Note_on_c, 0, 39, 68
1, 80445, Note_on_c, 0, 58, 40
1, 80473, Note_on_c, 0, 63, 42
1, 80501, Note_on_c, 0, 67, 44
1, 80529, Note_on_c, 0, 70, 46
1, 80579, Note_on_c, 0, 70, 0
1, 80579, Note_on_c, 0, 58, 0
1, 80579, Note_on_c, 0, 63, 0
1, 80582, Note_on_c, 0, 67, 0
1, 80663, Note_on_c, 0, 39, 0
1, 80663, Note_on_c, 0, 43, 64
1, 80731, Note_on_c, 0, 43, 0
1, 80798, Note_on_c, 0, 44, 64
1, 80865, Note_on_c, 0, 44, 0
1, 80933, Note_on_c, 0, 45, 68
1, 81003, Note_on_c, 0, 45, 0
1, 81073, Note_on_c, 0, 46, 64
1, 81143, Note_on_c, 0, 46, 0
1, 81213, Note_on_c, 0, 51, 64
1, 81274, Note_on_c, 0, 67, 40
1, 81283, Note_on_c, 0, 51, 0
1, 81301, Note_on_c, 0, 70, 42
1, 81327, Note_on_c, 0, 75, 44
1, 81353, Note_on_c, 0, 79, 46
1, 81353, Note_on_c, 0, 55, 68
1, 81405, Note_on_c, 0, 79, 0
1, 81405, Note_on_c, 0, 67, 0
1, 81405, Note_on_c, 0, 70, 0
1, 81408, Note_on_c, 0, 75, 0
1, 81422, Note_on_c, 0, 55, 0
1, 81490, Note_on_c, 0, 56, 64
1, 81558, Note_on_c, 0, 56, 0
1, 81626, Note_on_c, 0, 57, 64
1, 81660, Note_on_c, 0, 57, 56
1, 81695, Note_on_c, 0, 57, 0
1, 81695, Note_on_c, 0, 57, 0
1, 81695, Note_on_c, 0, 58, 50
1, 81729, Note_on_c, 0, 58, 0
1, 81729, Note_on_c, 0, 60, 46
1, 81763, Note_on_c, 0, 60, 0
1, 81763, Note_on_c, 0, 58, 58
1, 81763, Control_c, 0, 64, 127
1, 81805, Note_on_c, 0, 58, 0
1, 81805, Note_on_c, 0, 60, 50
1, 81847, Note_on_c, 0, 60, 0
1, 81847, Note_on_c, 0, 58, 57
1, 81889, Note_on_c, 0, 58, 0
1, 81889, Note_on_c, 0, 60, 50
1, 81930, Note_on_c, 0, 60, 0
1, 81930, Note_on_c, 0, 58, 56
1, 81972, Note_on_c, 0, 58, 0
1, 81972, Note_on_c, 0, 60, 49
1, 82013, Note_on_c, 0, 60, 0
1, 82013, Note_on_c, 0, 58, 55
1, 82054, Note_on_c, 0, 58, 0
1, 82054, Note_on_c, 0, 60, 50
1, 82095, Note_on_c, 0, 60, 0
1, 82095, Note_on_c, 0, 58, 56
1, 82100, Note_on_c, 0, 79, 42
1, 82125, Note_on_c, 0, 82, 44
1, 82135, Note_on_c, 0, 58, 0
1, 82135, Note_on_c, 0, 60, 48
1, 82151, Note_on_c, 0, 87, 45
1, 82176, Note_on_c, 0, 91, 47
1, 82176, Note_on_c, 0, 60, 0
1, 82176, Note_on_c, 0, 58, 55
1, 82213, Note_on_c, 0, 58, 0
1, 82213, Note_on_c, 0, 60, 50
1, 82223, Note_on_c, 0, 91, 0
1, 82223, Note_on_c, 0, 79, 0
1, 82223, Note_on_c, 0, 82, 0
1, 82226, Note_on_c, 0, 87, 0
1, 82251, Note_on_c, 0, 60, 0
1, 82251, Note_on_c, 0, 58, 58
1, 82289, Note_on_c, 0, 58, 0
1, 82289, Note_on_c, 0, 60, 51
1, 82326, Note_on_c, 0, 60, 0
1, 82326, Note_on_c, 0, 58, 60
1, 82364, Note_on_c, 0, 58, 0
1, 82364, Note_on_c, 0, 60, 56
1, 82411, Note_on_c, 0, 60, 0
1, 82411, Note_on_c, 0, 58, 63
1, 82458, Note_on_c, 0, 58, 0
1, 82458, Note_on_c, 0, 57, 60
1, 82505, Note_on_c, 0, 57, 0
1, 82505, Note_on_c, 0, 58, 60
1, 82552, Note_on_c, 0, 58, 0
1, 82552, Note_on_c, 0, 63, 74
1, 82569, Control_c, 0, 64, 0
1, 82657, Note_on_c, 0, 63, 0
1, 82920, Note_on_c, 0, 46, 52
1, 82946, Note_on_c, 0, 55, 56
1, 82973, Note_on_c, 0, 63, 58
1, 83025, Note_on_c, 0, 63, 0
1, 83025, Note_on_c, 0, 55, 0
1, 83025, Note_on_c, 0, 46, 0
1, 83288, Note_on_c, 0, 70, 40
1, 83288, Note_on_c, 0, 67, 34
1, 83394, Note_on_c, 0, 67, 0
1, 83394, Note_on_c, 0, 70, 0
1, 83394, Note_on_c, 0, 68, 45
1, 83397, Note_on_c, 0, 65, 38
1, 83397, Note_on_c, 0, 39, 35
1, 83397, Control_c, 0, 64, 127
1, 83496, Note_on_c, 0, 65, 0
1, 83496, Note_on_c, 0, 68, 0
1, 83496, Note_on_c, 0, 75, 40
1, 83499, Note_on_c, 0, 72, 34
1, 83499, Note_on_c, 0, 39, 0
1, 83598, Note_on_c, 0, 72, 0
1, 83598, Note_on_c, 0, 75, 0
1, 83598, Note_on_c, 0, 74, 45
1, 83601, Note_on_c, 0, 70, 38
1, 83701, Note_on_c, 0, 70, 0
1, 83701, Note_on_c, 0, 74, 0
1, 83701, Note_on_c, 0, 79, 41
1, 83704, Note_on_c, 0, 75, 34
1, 83726, Note_on_c, 0, 46, 31
1, 83752, Note_on_c, 0, 53, 33
1, 83777, Note_on_c, 0, 56, 34
1, 83803, Note_on_c, 0, 75, 0
1, 83803, Note_on_c, 0, 79, 0
1, 83803, Note_on_c, 0, 77, 48
1, 83806, Note_on_c, 0, 74, 40
1, 83806, Note_on_c, 0, 62, 36
1, 83814, Control_c, 0, 64, 0
1, 83825, Control_c, 0, 64, 127
1, 83849, Note_on_c, 0, 62, 0
1, 83849, Note_on_c, 0, 46, 0
1, 83849, Note_on_c, 0, 53, 0
1, 83852, Note_on_c, 0, 56, 0
1, 83896, Note_on_c, 0, 74, 0
1, 83896, Note_on_c, 0, 77, 0
1, 83896, Note_on_c, 0, 84, 43
1, 83899, Note_on_c, 0, 80, 36
1, 83989, Note_on_c, 0, 80, 0
1, 83989, Note_on_c, 0, 84, 0
1, 83989, Note_on_c, 0, 82, 43
1, 83992, Note_on_c, 0, 79, 36
1, 84087, Note_on_c, 0, 79, 0
1, 84087, Note_on_c, 0, 82, 0
1, 84087, Note_on_c, 0, 80, 43
1, 84090, Note_on_c, 0, 77, 36
1, 84186, Note_on_c, 0, 77, 0
1, 84186, Note_on_c, 0, 80, 0
1, 84186, Note_on_c, 0, 79, 49
1, 84189, Note_on_c, 0, 75, 49
1, 84198, Control_c, 0, 64, 0
1, 84229, Control_c, 0, 64, 127
1, 84287, Note_on_c, 0, 75, 0
1, 84287, Note_on_c, 0, 79, 0
1, 84287, Note_on_c, 0, 77, 44
1, 84290, Note_on_c, 0, 74, 37
1, 84387, Note_on_c, 0, 74, 0
1, 84387, Note_on_c, 0, 77, 0
1, 84387, Note_on_c, 0, 75, 44
1, 84390, Note_on_c, 0, 72, 37
1, 84487, Note_on_c, 0, 72, 0
1, 84487, Note_on_c, 0, 75, 0
1, 84487, Note_on_c, 0, 74, 44
1, 84490, Note_on_c, 0, 70, 37
1, 84537, Note_on_c, 0, 46, 32
1, 84537, Note_on_c, 0, 53, 32
1, 84563, Note_on_c, 0, 56, 34
1, 84588, Note_on_c, 0, 70, 0
1, 84588, Note_on_c, 0, 74, 0
1, 84588, Note_on_c, 0, 72, 47
1, 84591, Note_on_c, 0, 68, 39
1, 84591, Note_on_c, 0, 62, 36
1, 84600, Control_c, 0, 64, 0
1, 84626, Control_c, 0, 64, 127
1, 84639, Note_on_c, 0, 62, 0
1, 84639, Note_on_c, 0, 46, 0
1, 84639, Note_on_c, 0, 53, 0
1, 84642, Note_on_c, 0, 56, 0
1, 84691, Note_on_c, 0, 68, 0
1, 84691, Note_on_c, 0, 72, 0
1, 84691, Note_on_c, 0, 70, 45
1, 84694, Note_on_c, 0, 67, 38
1, 84794, Note_on_c, 0, 67, 0
1, 84794, Note_on_c, 0, 70, 0
1, 84794, Note_on_c, 0, 69, 43
1, 84797, Note_on_c, 0, 66, 36
1, 84861, Control_c, 0, 64, 0
1, 84864, Note_on_c, 0, 66, 0
1, 84864, Note_on_c, 0, 69, 0
1, 84994, Note_on_c, 0, 68, 40
1, 84994, Note_on_c, 0, 65, 34
1, 85053, Note_on_c, 0, 65, 0
1, 85053, Note_on_c, 0, 68, 0
1, 85053, Note_on_c, 0, 67, 45
1, 85056, Note_on_c, 0, 63, 38
1, 85056, Note_on_c, 0, 39, 35
1, 85110, Control_c, 0, 64, 127
1, 85175, Note_on_c, 0, 39, 0
1, 85482, Note_on_c, 0, 46, 32
1, 85512, Note_on_c, 0, 55, 35
1, 85524, Control_c, 0, 64, 0
1, 85543, Note_on_c, 0, 63, 0
1, 85543, Note_on_c, 0, 67, 0
1, 85543, Note_on_c, 0, 63, 38
1, 85595, Note_on_c, 0, 63, 0
1, 85595, Note_on_c, 0, 55, 0
1, 85595, Note_on_c, 0, 46, 0
1, 86366, Note_on_c, 0, 46, 31
1, 86395, Note_on_c, 0, 55, 34
1, 86425, Note_on_c, 0, 63, 36
1, 86478, Note_on_c, 0, 63, 0
1, 86478, Note_on_c, 0, 55, 0
1, 86478, Note_on_c, 0, 46, 0
1, 86795, Note_on_c, 0, 34, 61
1, 86853, Note_on_c, 0, 34, 0
1, 86853, Note_on_c, 0, 39, 68
1, 87208, Note_on_c, 0, 58, 40
1, 87235, Note_on_c, 0, 63, 42
1, 87262, Note_on_c, 0, 67, 44
1, 87290, Note_on_c, 0, 70, 46
1, 87340, Note_on_c, 0, 70, 0
1, 87340, Note_on_c, 0, 58, 0
1, 87340, Note_on_c, 0, 63, 0
1, 87343, Note_on_c, 0, 67, 0
1, 87425, Note_on_c, 0, 39, 0
1, 87425, Note_on_c, 0, 43, 64
1, 87493, Note_on_c, 0, 43, 0
1, 87561, Note_on_c, 0, 44, 64
1, 87628, Note_on_c, 0, 44, 0
1, 87696, Note_on_c, 0, 45, 68
1, 87767, Note_on_c, 0, 45, 0
1, 87838, Note_on_c, 0, 46, 64
1, 87910, Note_on_c, 0, 46, 0
1, 87981, Note_on_c, 0, 51, 64
1, 88043, Note_on_c, 0, 67, 40
1, 88052, Note_on_c, 0, 51, 0
1, 88070, Note_on_c, 0, 70, 42
1, 88096, Note_on_c, 0, 75, 44
1, 88123, Note_on_c, 0, 79, 46
1, 88123, Note_on_c, 0, 55, 68
1, 88175, Note_on_c, 0, 79, 0
1, 88175, Note_on_c, 0, 67, 0
1, 88175, Note_on_c, 0, 70, 0
1, 88178, Note_on_c, 0, 75, 0
1, 88192, Note_on_c, 0, 55, 0
1, 88261, Note_on_c, 0, 56, 64
1, 88331, Note_on_c, 0, 56, 0
1, 88400, Note_on_c, 0, 57, 64
1, 88434, Note_on_c, 0, 57, 56
1, 88469, Note_on_c, 0, 57, 0
1, 88469, Note_on_c, 0, 57, 0
1, 88469, Note_on_c, 0, 58, 50
1, 88503, Note_on_c, 0, 58, 0
1, 88503, Note_on_c, 0, 60, 46
1, 88538, Note_on_c, 0, 60, 0
1, 88538, Note_on_c, 0, 58, 58
1, 88538, Control_c, 0, 64, 127
1, 88580, Note_on_c, 0, 58, 0
1, 88580, Note_on_c, 0, 60, 50
1, 88622, Note_on_c, 0, 60, 0
1, 88622, Note_on_c, 0, 58, 57
1, 88664, Note_on_c, 0, 58, 0
1, 88664, Note_on_c, 0, 60, 50
1, 88705, Note_on_c, 0, 60, 0
1, 88705, Note_on_c, 0, 58, 56
1, 88747, Note_on_c, 0, 58, 0
1, 88747, Note_on_c, 0, 60, 49
1, 88788, Note_on_c, 0, 60, 0
1, 88788, Note_on_c, 0, 58, 55
1, 88829, Note_on_c, 0, 58, 0
1, 88829, Note_on_c, 0, 60, 50
1, 88870, Note_on_c, 0, 60, 0
1, 88870, Note_on_c, 0, 58, 56
1, 88875, Note_on_c, 0, 79, 42
1, 88900, Note_on_c, 0, 82, 44
1, 88910, Note_on_c, 0, 58, 0
1, 88910, Note_on_c, 0, 60, 48
1, 88926, Note_on_c, 0, 87, 45
1, 88951, Note_on_c, 0, 91, 47
1, 88951, Note_on_c, 0, 60, 0
1, 88951, Note_on_c, 0, 58, 55
1, 88989, Note_on_c, 0, 58, 0
1, 88989, Note_on_c, 0, 60, 50
1, 88998, Note_on_c, 0, 91, 0
1, 88998, Note_on_c, 0, 79, 0
1, 88998, Note_on_c, 0, 82, 0
1, 89001, Note_on_c, 0, 87, 0
1, 89026, Note_on_c, 0, 60, 0
1, 89026, Note_on_c, 0, 58, 58
1, 89064, Note_on_c, 0, 58, 0
1, 89064, Note_on_c, 0, 60, 51
1, 89101, Note_on_c, 0, 60, 0
1, 89101, Note_on_c, 0, 58, 60
1, 89139, Note_on_c, 0, 58, 0
1, 89139, Note_on_c, 0, 60, 56
1, 89186, Note_on_c, 0, 60, 0
1, 89186, Note_on_c, 0, 58, 63
1, 89233, Note_on_c, 0, 58, 0
1, 89233, Note_on_c, 0, 57, 60
1, 89280, Note_on_c, 0, 57, 0
1, 89280, Note_on_c, 0, 58, 60
1, 89327, Note_on_c, 0, 58, 0
1, 89327, Note_on_c, 0, 67, 74
1, 89327, Note_on_c, 0, 63, 68
1, 89344, Control_c, 0, 64, 0
1, 89432, Note_on_c, 0, 63, 0
1, 89432, Note_on_c, 0, 67, 0
1, 89695, Note_on_c, 0, 46, 57
1, 89721, Note_on_c, 0, 55, 61
1, 89748, Note_on_c, 0, 63, 63
1, 89800, Note_on_c, 0, 63, 0
1, 89800, Note_on_c, 0, 55, 0
1, 89800, Note_on_c, 0, 46, 0
1, 90063, Note_on_c, 0, 70, 40
1, 90063, Note_on_c, 0, 67, 34
1, 90169, Note_on_c, 0, 67, 0
1, 90169, Note_on_c, 0, 70, 0
1, 90169, Note_on_c, 0, 67, 40
1, 90172, Note_on_c, 0, 70, 45
1, 90172, Note_on_c, 0, 39, 35
1, 90172, Control_c, 0, 64, 127
1, 90253, Note_on_c, 0, 70, 0
1, 90253, Note_on_c, 0, 67, 0
1, 90253, Note_on_c, 0, 66, 36
1, 90256, Note_on_c, 0, 69, 41
1, 90295, Note_on_c, 0, 39, 0
1, 90337, Note_on_c, 0, 69, 0
1, 90337, Note_on_c, 0, 66, 0
1, 90337, Note_on_c, 0, 65, 36
1, 90340, Note_on_c, 0, 68, 41
1, 90429, Note_on_c, 0, 68, 0
1, 90429, Note_on_c, 0, 65, 0
1, 90429, Note_on_c, 0, 72, 40
1, 90432, Note_on_c, 0, 75, 45
1, 90513, Note_on_c, 0, 72, 0
1, 90513, Note_on_c, 0, 71, 40
1, 90587, Note_on_c, 0, 46, 31
1, 90597, Note_on_c, 0, 71, 0
1, 90597, Note_on_c, 0, 75, 0
1, 90597, Note_on_c, 0, 70, 34
1, 90600, Note_on_c, 0, 74, 40
1, 90619, Note_on_c, 0, 53, 33
1, 90650, Note_on_c, 0, 56, 34
1, 90682, Note_on_c, 0, 74, 0
1, 90682, Note_on_c, 0, 70, 0
1, 90682, Note_on_c, 0, 75, 44
1, 90685, Note_on_c, 0, 79, 51
1, 90685, Note_on_c, 0, 62, 36
1, 90698, Control_c, 0, 64, 0
1, 90712, Control_c, 0, 64, 127
1, 90747, Note_on_c, 0, 62, 0
1, 90747, Note_on_c, 0, 46, 0
1, 90747, Note_on_c, 0, 53, 0
1, 90750, Note_on_c, 0, 56, 0
1, 90768, Note_on_c, 0, 79, 0
1, 90768, Note_on_c, 0, 78, 49
1, 90860, Note_on_c, 0, 78, 0
1, 90860, Note_on_c, 0, 75, 0
1, 90860, Note_on_c, 0, 74, 42
1, 90863, Note_on_c, 0, 77, 49
1, 90955, Note_on_c, 0, 77, 0
1, 90955, Note_on_c, 0, 74, 0
1, 90955, Note_on_c, 0, 84, 60
1, 90958, Note_on_c, 0, 80, 53
1, 91006, Control_c, 0, 64, 0
1, 91133, Note_on_c, 0, 80, 0
1, 91133, Note_on_c, 0, 84, 0
1, 91762, Note_on_c, 0, 79, 45
1, 91762, Note_on_c, 0, 76, 45
1, 91895, Note_on_c, 0, 76, 0
1, 91895, Note_on_c, 0, 79, 0
1, 91895, Note_on_c, 0, 80, 45
1, 91898, Note_on_c, 0, 77, 45
1, 92021, Note_on_c, 0, 77, 0
1, 92021, Note_on_c, 0, 80, 0
1, 92021, Note_on_c, 0, 76, 45
1, 92024, Note_on_c, 0, 73, 45
1, 92139, Note_on_c, 0, 73, 0
1, 92139, Note_on_c, 0, 76, 0
1, 92139, Note_on_c, 0, 74, 45
1, 92142, Note_on_c, 0, 77, 45
1, 92249, Note_on_c, 0, 77, 0
1, 92249, Note_on_c, 0, 74, 0
1, 92249, Note_on_c, 0, 72, 45
1, 92252, Note_on_c, 0, 69, 45
1, 92353, Note_on_c, 0, 69, 0
1, 92353, Note_on_c, 0, 72, 0
1, 92353, Note_on_c, 0, 70, 45
1, 92356, Note_on_c, 0, 74, 45
1, 92457, Note_on_c, 0, 74, 0
1, 92457, Note_on_c, 0, 70, 0
1, 92457, Note_on_c, 0, 67, 45
1, 92460, Note_on_c, 0, 71, 45
1, 92482, Note_on_c, 0, 46, 25
1, 92507, Note_on_c, 0, 53, 28
1, 92532, Note_on_c, 0, 56, 34
1, 92557, Note_on_c, 0, 71, 0
1, 92557, Note_on_c, 0, 67, 0
1, 92557, Note_on_c, 0, 68, 45
1, 92560, Note_on_c, 0, 72, 45
1, 92560, Note_on_c, 0, 62, 36
1, 92617, Note_on_c, 0, 72, 0
1, 92617, Note_on_c, 0, 68, 0
1, 92617, Note_on_c, 0, 62, 0
1, 92620, Note_on_c, 0, 46, 0
1, 92620, Note_on_c, 0, 53, 0
1, 92620, Note_on_c, 0, 56, 0
1, 92678, Note_on_c, 0, 64, 45
1, 92678, Note_on_c, 0, 67, 45
1, 92734, Note_on_c, 0, 67, 0
1, 92734, Note_on_c, 0, 64, 0
1, 92790, Note_on_c, 0, 67, 45
1, 92790, Note_on_c, 0, 70, 45
1, 92848, Note_on_c, 0, 70, 0
1, 92848, Note_on_c, 0, 67, 0
1, 92907, Note_on_c, 0, 65, 45
1, 92907, Note_on_c, 0, 68, 45
1, 92965, Note_on_c, 0, 68, 0
1, 92965, Note_on_c, 0, 65, 0
1, 93023, Note_on_c, 0, 67, 45
1, 93023, Note_on_c, 0, 63, 38
1, 93023, Note_on_c, 0, 39, 35
1, 93073, Control_c, 0, 64, 127
1, 93146, Note_on_c, 0, 39, 0
1, 93452, Note_on_c, 0, 46, 32
1, 93482, Note_on_c, 0, 55, 35
1, 93513, Note_on_c, 0, 63, 0
1, 93513, Note_on_c, 0, 67, 0
1, 93513, Note_on_c, 0, 63, 38
1, 93522, Control_c, 0, 64, 0
1, 93565, Note_on_c, 0, 63, 0
1, 93565, Note_on_c, 0, 55, 0
1, 93565, Note_on_c, 0, 46, 0
1, 94336, Note_on_c, 0, 46, 31
1, 94366, Note_on_c, 0, 55, 34
1, 94395, Note_on_c, 0, 63, 36
1, 94448, Note_on_c, 0, 63, 0
1, 94448, Note_on_c, 0, 55, 0
1, 94448, Note_on_c, 0, 46, 0
1, 94765, Note_on_c, 0, 58, 38
1, 94816, Note_on_c, 0, 58, 0
1, 94816, Note_on_c, 0, 63, 52
1, 94816, Note_on_c, 0, 39, 35
1, 94842, Control_c, 0, 64, 127
1, 94939, Note_on_c, 0, 39, 0
1, 95184, Note_on_c, 0, 63, 0
1, 95184, Note_on_c, 0, 67, 39
1, 95230, Note_on_c, 0, 67, 0
1, 95245, Note_on_c, 0, 67, 36
1, 95245, Note_on_c, 0, 46, 34
1, 95276, Note_on_c, 0, 55, 35
1, 95291, Note_on_c, 0, 67, 0
1, 95306, Note_on_c, 0, 68, 39
1, 95306, Note_on_c, 0, 63, 36
1, 95319, Control_c, 0, 64, 0
1, 95349, Note_on_c, 0, 68, 0
1, 95364, Note_on_c, 0, 68, 36
1, 95364, Note_on_c, 0, 63, 0
1, 95364, Note_on_c, 0, 55, 0
1, 95367, Note_on_c, 0, 46, 0
1, 95407, Note_on_c, 0, 68, 0
1, 95422, Note_on_c, 0, 69, 39
1, 95465, Note_on_c, 0, 69, 0
1, 95479, Note_on_c, 0, 69, 36
1, 95521, Note_on_c, 0, 69, 0
1, 95535, Note_on_c, 0, 70, 39
1, 95577, Note_on_c, 0, 70, 0
1, 95591, Note_on_c, 0, 70, 36
1, 95633, Note_on_c, 0, 70, 0
1, 95647, Note_on_c, 0, 75, 39
1, 95688, Note_on_c, 0, 75, 0
1, 95702, Note_on_c, 0, 75, 36
1, 95742, Note_on_c, 0, 75, 0
1, 95756, Note_on_c, 0, 79, 39
1, 95796, Note_on_c, 0, 79, 0
1, 95810, Note_on_c, 0, 79, 35
1, 95850, Note_on_c, 0, 79, 0
1, 95864, Note_on_c, 0, 80, 39
1, 95905, Note_on_c, 0, 80, 0
1, 95919, Note_on_c, 0, 80, 35
1, 95961, Note_on_c, 0, 80, 0
1, 95975, Note_on_c, 0, 81, 39
1, 96017, Note_on_c, 0, 81, 0
1, 96031, Note_on_c, 0, 81, 34
1, 96074, Note_on_c, 0, 81, 0
1, 96088, Note_on_c, 0, 82, 39
1, 96131, Note_on_c, 0, 82, 0
1, 96146, Note_on_c, 0, 82, 34
1, 96146, Note_on_c, 0, 46, 34
1, 96175, Note_on_c, 0, 55, 35
1, 96189, Note_on_c, 0, 82, 0
1, 96204, Note_on_c, 0, 87, 39
1, 96204, Note_on_c, 0, 63, 36
1, 96250, Note_on_c, 0, 87, 0
1, 96265, Note_on_c, 0, 87, 34
1, 96265, Note_on_c, 0, 63, 0
1, 96265, Note_on_c, 0, 55, 0
1, 96268, Note_on_c, 0, 46, 0
1, 96311, Note_on_c, 0, 87, 0
1, 96326, Note_on_c, 0, 91, 39
1, 96372, Note_on_c, 0, 91, 0
1, 96387, Note_on_c, 0, 91, 35
1, 96433, Note_on_c, 0, 91, 0
1, 96449, Note_on_c, 0, 92, 41
1, 96495, Note_on_c, 0, 92, 0
1, 96510, Note_on_c, 0, 92, 36
1, 96556, Note_on_c, 0, 92, 0
1, 96571, Note_on_c, 0, 93, 42
1, 96617, Note_on_c, 0, 93, 0
1, 96632, Note_on_c, 0, 93, 37
1, 96678, Note_on_c, 0, 93, 0
1, 96694, Note_on_c, 0, 93, 43
1, 96694, Note_on_c, 0, 39, 35
1, 96694, Control_c, 0, 64, 127
1, 96759, Note_on_c, 0, 93, 0
1, 96759, Note_on_c, 0, 94, 38
1, 96825, Note_on_c, 0, 94, 0
1, 96825, Note_on_c, 0, 96, 38
1, 96825, Note_on_c, 0, 39, 0
1, 96890, Note_on_c, 0, 96, 0
1, 96890, Note_on_c, 0, 94, 34
1, 96955, Note_on_c, 0, 94, 0
1, 96955, Note_on_c, 0, 91, 42
1, 97015, Note_on_c, 0, 91, 0
1, 97015, Note_on_c, 0, 87, 35
1, 97075, Note_on_c, 0, 87, 0
1, 97075, Note_on_c, 0, 84, 41
1, 97135, Note_on_c, 0, 84, 0
1, 97135, Note_on_c, 0, 82, 34
1, 97135, Note_on_c, 0, 46, 33
1, 97165, Note_on_c, 0, 55, 37
1, 97194, Note_on_c, 0, 82, 0
1, 97194, Note_on_c, 0, 79, 40
1, 97194, Note_on_c, 0, 63, 35
1, 97250, Note_on_c, 0, 79, 0
1, 97250, Note_on_c, 0, 75, 33
1, 97250, Note_on_c, 0, 55, 0
1, 97253, Note_on_c, 0, 46, 0
1, 97277, Note_on_c, 0, 63, 0
1, 97305, Note_on_c, 0, 75, 0
1, 97305, Note_on_c, 0, 72, 38
1, 97360, Note_on_c, 0, 72, 0
1, 97360, Note_on_c, 0, 70, 32
1, 97416, Note_on_c, 0, 70, 0
1, 97416, Note_on_c, 0, 67, 38
1, 97471, Note_on_c, 0, 67, 0
1, 97471, Note_on_c, 0, 63, 33
1, 97526, Note_on_c, 0, 63, 0
1, 97526, Note_on_c, 0, 62, 37
1, 97582, Note_on_c, 0, 62, 0
1, 97582, Note_on_c, 0, 63, 34
1, 97637, Note_on_c, 0, 63, 0
1, 97637, Note_on_c, 0, 67, 33
1, 97694, Note_on_c, 0, 67, 0
1, 97694, Note_on_c, 0, 70, 34
1, 97750, Note_on_c, 0, 70, 0
1, 97750, Note_on_c, 0, 75, 35
1, 97807, Note_on_c, 0, 75, 0
1, 97807, Note_on_c, 0, 79, 36
1, 97865, Note_on_c, 0, 79, 0
1, 97865, Note_on_c, 0, 82, 38
1, 97923, Note_on_c, 0, 82, 0
1, 97923, Note_on_c, 0, 87, 39
1, 97982, Note_on_c, 0, 87, 0
1, 97982, Note_on_c, 0, 91, 40
1, 98041, Note_on_c, 0, 91, 0
1, 98041, Note_on_c, 0, 94, 41
1, 98041, Note_on_c, 0, 46, 35
1, 98071, Note_on_c, 0, 55, 36
1, 98101, Note_on_c, 0, 94, 0
1, 98101, Note_on_c, 0, 99, 47
1, 98101, Note_on_c, 0, 63, 38
1, 98104, Control_c, 0, 64, 0
1, 98157, Note_on_c, 0, 63, 0
1, 98157, Note_on_c, 0, 55, 0
1, 98157, Note_on_c, 0, 46, 0
1, 98327, Note_on_c, 0, 99, 0
1, 98440, Note_on_c, 0, 70, 39
1, 98440, Note_on_c, 0, 67, 33
1, 98497, Note_on_c, 0, 67, 0
1, 98497, Note_on_c, 0, 70, 0
1, 98553, Note_on_c, 0, 68, 47
1, 98553, Note_on_c, 0, 65, 39
1, 98553, Note_on_c, 0, 39, 35
1, 98624, Note_on_c, 0, 65, 0
1, 98624, Note_on_c, 0, 68, 0
1, 98659, Note_on_c, 0, 39, 0
1, 98698, Note_on_c, 0, 82, 39
1, 98777, Note_on_c, 0, 82, 0
1, 98856, Note_on_c, 0, 67, 39
1, 98856, Note_on_c, 0, 64, 33
1, 98925, Note_on_c, 0, 46, 31
1, 98935, Note_on_c, 0, 64, 0
1, 98935, Note_on_c, 0, 67, 0
1, 98955, Note_on_c, 0, 53, 33
1, 98985, Note_on_c, 0, 56, 34
1, 99014, Note_on_c, 0, 68, 46
1, 99014, Note_on_c, 0, 65, 39
1, 99014, Note_on_c, 0, 62, 36
1, 99066, Note_on_c, 0, 62, 0
1, 99066, Note_on_c, 0, 46, 0
1, 99066, Note_on_c, 0, 53, 0
1, 99069, Note_on_c, 0, 56, 0
1, 99083, Note_on_c, 0, 65, 0
1, 99083, Note_on_c, 0, 68, 0
1, 99155, Note_on_c, 0, 94, 41
1, 99229, Note_on_c, 0, 94, 0
1, 99304, Note_on_c, 0, 70, 41
1, 99304, Note_on_c, 0, 67, 34
1, 99382, Note_on_c, 0, 67, 0
1, 99382, Note_on_c, 0, 70, 0
1, 99462, Note_on_c, 0, 72, 47
1, 99462, Note_on_c, 0, 68, 39
1, 99532, Note_on_c, 0, 68, 0
1, 99532, Note_on_c, 0, 72, 0
1, 99606, Note_on_c, 0, 82, 41
1, 99682, Note_on_c, 0, 82, 0
1, 99759, Note_on_c, 0, 74, 41
1, 99759, Note_on_c, 0, 70, 34
1, 99836, Note_on_c, 0, 70, 0
1, 99836, Note_on_c, 0, 74, 0
1, 99869, Note_on_c, 0, 46, 25
1, 99883, Note_on_c, 0, 53, 28
1, 99898, Note_on_c, 0, 56, 34
1, 99912, Note_on_c, 0, 75, 45
1, 99912, Note_on_c, 0, 72, 38
1, 99912, Note_on_c, 0, 62, 36
1, 99964, Note_on_c, 0, 62, 0
1, 99964, Note_on_c, 0, 46, 0
1, 99964, Note_on_c, 0, 53, 0
1, 99967, Note_on_c, 0, 56, 0
1, 99981, Note_on_c, 0, 72, 0
1, 99981, Note_on_c, 0, 75, 0
1, 100054, Note_on_c, 0, 94, 40
1, 100130, Note_on_c, 0, 94, 0
1, 100206, Note_on_c, 0, 77, 40
1, 100206, Note_on_c, 0, 74, 34
1, 100297, Note_on_c, 0, 74, 0
1, 100297, Note_on_c, 0, 77, 0
1, 100395, Note_on_c, 0, 79, 46
1, 100395, Note_on_c, 0, 75, 39
1, 100395, Note_on_c, 0, 39, 35
1, 100399, Control_c, 0, 64, 127
1, 100478, Note_on_c, 0, 75, 0
1, 100478, Note_on_c, 0, 79, 0
1, 100478, Note_on_c, 0, 77, 40
1, 100481, Note_on_c, 0, 70, 34
1, 100519, Note_on_c, 0, 39, 0
1, 100559, Note_on_c, 0, 70, 0
1, 100559, Note_on_c, 0, 77, 0
1, 100559, Note_on_c, 0, 75, 40
1, 100562, Note_on_c, 0, 67, 34
1, 100638, Note_on_c, 0, 67, 0
1, 100638, Note_on_c, 0, 75, 0
1, 100638, Note_on_c, 0, 77, 40
1, 100641, Note_on_c, 0, 70, 34
1, 100716, Note_on_c, 0, 70, 0
1, 100716, Note_on_c, 0, 77, 0
1, 100716, Note_on_c, 0, 79, 40
1, 100719, Note_on_c, 0, 75, 34
1, 100793, Note_on_c, 0, 77, 34
1, 100793, Note_on_c, 0, 75, 0
1, 100793, Note_on_c, 0, 79, 0
1, 100793, Note_on_c, 0, 82, 41
1, 100814, Note_on_c, 0, 46, 33
1, 100843, Note_on_c, 0, 55, 37
1, 100871, Note_on_c, 0, 77, 0
1, 100871, Note_on_c, 0, 82, 0
1, 100871, Note_on_c, 0, 87, 43
1, 100871, Note_on_c, 0, 79, 36
1, 100871, Note_on_c, 0, 63, 35
1, 100930, Note_on_c, 0, 55, 0
1, 100930, Note_on_c, 0, 46, 0
1, 100949, Note_on_c, 0, 79, 0
1, 100949, Note_on_c, 0, 87, 0
1, 100949, Note_on_c, 0, 89, 44
1, 100952, Note_on_c, 0, 82, 37
1, 100959, Note_on_c, 0, 63, 0
1, 101028, Note_on_c, 0, 82, 0
1, 101028, Note_on_c, 0, 89, 0
1, 101028, Note_on_c, 0, 91, 45
1, 101031, Note_on_c, 0, 87, 38
1, 101107, Note_on_c, 0, 87, 0
1, 101107, Note_on_c, 0, 91, 0
1, 101107, Note_on_c, 0, 94, 45
1, 101110, Note_on_c, 0, 89, 38
1, 101187, Note_on_c, 0, 89, 0
1, 101187, Note_on_c, 0, 94, 0
1, 101187, Note_on_c, 0, 99, 46
1, 101190, Note_on_c, 0, 91, 39
1, 101268, Note_on_c, 0, 91, 0
1, 101268, Note_on_c, 0, 99, 0
1, 101268, Note_on_c, 0, 101, 47
1, 101271, Note_on_c, 0, 94, 39
1, 101350, Note_on_c, 0, 94, 0
1, 101350, Note_on_c, 0, 101, 0
1, 101350, Note_on_c, 0, 99, 57
1, 101353, Note_on_c, 0, 103, 57
1, 101410, Control_c, 0, 64, 0
1, 101464, Note_on_c, 0, 103, 0
1, 101464, Note_on_c, 0, 99, 0
1, 101749, Note_on_c, 0, 46, 35
1, 101778, Note_on_c, 0, 55, 36
1, 101806, Note_on_c, 0, 63, 38
1, 101864, Note_on_c, 0, 63, 0
1, 101864, Note_on_c, 0, 55, 0
1, 101864, Note_on_c, 0, 46, 0
1, 102149, Note_on_c, 0, 58, 38
1, 102252, Note_on_c, 0, 58, 0
1, 102252, Note_on_c, 0, 63, 52
1, 102252, Note_on_c, 0, 39, 35
1, 102284, Control_c, 0, 64, 127
1, 102375, Note_on_c, 0, 39, 0
1, 102620, Note_on_c, 0, 63, 0
1, 102620, Note_on_c, 0, 67, 39
1, 102666, Note_on_c, 0, 67, 0
1, 102681, Note_on_c, 0, 67, 36
1, 102681, Note_on_c, 0, 46, 34
1, 102711, Note_on_c, 0, 55, 35
1, 102727, Note_on_c, 0, 67, 0
1, 102742, Note_on_c, 0, 68, 39
1, 102742, Note_on_c, 0, 63, 36
1, 102742, Control_c, 0, 64, 0
1, 102785, Note_on_c, 0, 68, 0
1, 102800, Note_on_c, 0, 68, 36
1, 102800, Note_on_c, 0, 63, 0
1, 102800, Note_on_c, 0, 55, 0
1, 102803, Note_on_c, 0, 46, 0
1, 102843, Note_on_c, 0, 68, 0
1, 102857, Note_on_c, 0, 69, 39
1, 102900, Note_on_c, 0, 69, 0
1, 102915, Note_on_c, 0, 69, 36
1, 102957, Note_on_c, 0, 69, 0
1, 102971, Note_on_c, 0, 70, 39
1, 103013, Note_on_c, 0, 70, 0
1, 103027, Note_on_c, 0, 70, 36
1, 103069, Note_on_c, 0, 70, 0
1, 103083, Note_on_c, 0, 75, 39
1, 103124, Note_on_c, 0, 75, 0
1, 103137, Note_on_c, 0, 75, 36
1, 103178, Note_on_c, 0, 75, 0
1, 103192, Note_on_c, 0, 79, 39
1, 103232, Note_on_c, 0, 79, 0
1, 103246, Note_on_c, 0, 79, 35
1, 103286, Note_on_c, 0, 79, 0
1, 103300, Note_on_c, 0, 80, 39
1, 103341, Note_on_c, 0, 80, 0
1, 103355, Note_on_c, 0, 80, 35
1, 103397, Note_on_c, 0, 80, 0
1, 103411, Note_on_c, 0, 81, 39
1, 103453, Note_on_c, 0, 81, 0
1, 103467, Note_on_c, 0, 81, 34
1, 103510, Note_on_c, 0, 81, 0
1, 103524, Note_on_c, 0, 82, 39
1, 103567, Note_on_c, 0, 82, 0
1, 103581, Note_on_c, 0, 82, 34
1, 103581, Note_on_c, 0, 46, 34
1, 103611, Note_on_c, 0, 55, 35
1, 103625, Note_on_c, 0, 82, 0
1, 103640, Note_on_c, 0, 87, 39
1, 103640, Note_on_c, 0, 63, 36
1, 103686, Note_on_c, 0, 87, 0
1, 103701, Note_on_c, 0, 87, 34
1, 103701, Note_on_c, 0, 63, 0
1, 103701, Note_on_c, 0, 55, 0
1, 103704, Note_on_c, 0, 46, 0
1, 103747, Note_on_c, 0, 87, 0
1, 103762, Note_on_c, 0, 91, 39
1, 103808, Note_on_c, 0, 91, 0
1, 103823, Note_on_c, 0, 91, 35
1, 103869, Note_on_c, 0, 91, 0
1, 103885, Note_on_c, 0, 92, 41
1, 103930, Note_on_c, 0, 92, 0
1, 103946, Note_on_c, 0, 92, 36
1, 103992, Note_on_c, 0, 92, 0
1, 104007, Note_on_c, 0, 93, 42
1, 104053, Note_on_c, 0, 93, 0
1, 104068, Note_on_c, 0, 93, 37
1, 104114, Note_on_c, 0, 93, 0
1, 104129, Note_on_c, 0, 93, 43
1, 104129, Note_on_c, 0, 39, 35
1, 104129, Control_c, 0, 64, 127
1, 104195, Note_on_c, 0, 93, 0
1, 104195, Note_on_c, 0, 94, 38
1, 104260, Note_on_c, 0, 94, 0
1, 104260, Note_on_c, 0, 96, 38
1, 104260, Note_on_c, 0, 39, 0
1, 104326, Note_on_c, 0, 96, 0
1, 104326, Note_on_c, 0, 94, 34
1, 104391, Note_on_c, 0, 94, 0
1, 104391, Note_on_c, 0, 91, 42
1, 104451, Note_on_c, 0, 91, 0
1, 104451, Note_on_c, 0, 87, 35
1, 104511, Note_on_c, 0, 87, 0
1, 104511, Note_on_c, 0, 84, 41
1, 104571, Note_on_c, 0, 84, 0
1, 104571, Note_on_c, 0, 82, 34
1, 104571, Note_on_c, 0, 46, 33
1, 104600, Note_on_c, 0, 55, 37
1, 104630, Note_on_c, 0, 82, 0
1, 104630, Note_on_c, 0, 79, 40
1, 104630, Note_on_c, 0, 63, 35
1, 104686, Note_on_c, 0, 79, 0
1, 104686, Note_on_c, 0, 75, 33
1, 104686, Note_on_c, 0, 55, 0
1, 104689, Note_on_c, 0, 46, 0
1, 104713, Note_on_c, 0, 63, 0
1, 104741, Note_on_c, 0, 75, 0
1, 104741, Note_on_c, 0, 72, 38
1, 104796, Note_on_c, 0, 72, 0
1, 104796, Note_on_c, 0, 70, 32
1, 104852, Note_on_c, 0, 70, 0
1, 104852, Note_on_c, 0, 67, 38
1, 104907, Note_on_c, 0, 67, 0
1, 104907, Note_on_c, 0, 63, 33
1, 104962, Note_on_c, 0, 63, 0
1, 104962, Note_on_c, 0, 62, 37
1, 105018, Note_on_c, 0, 62, 0
1, 105018, Note_on_c, 0, 63, 34
1, 105073, Note_on_c, 0, 63, 0
1, 105073, Note_on_c, 0, 67, 33
1, 105129, Note_on_c, 0, 67, 0
1, 105129, Note_on_c, 0, 70, 34
1, 105186, Note_on_c, 0, 70, 0
1, 105186, Note_on_c, 0, 75, 36
1, 105243, Note_on_c, 0, 75, 0
1, 105243, Note_on_c, 0, 79, 38
1, 105301, Note_on_c, 0, 79, 0
1, 105301, Note_on_c, 0, 82, 41
1, 105359, Note_on_c, 0, 82, 0
1, 105359, Note_on_c, 0, 87, 43
1, 105418, Note_on_c, 0, 87, 0
1, 105418, Note_on_c, 0, 91, 45
1, 105477, Note_on_c, 0, 91, 0
1, 105477, Note_on_c, 0, 94, 47
1, 105477, Note_on_c, 0, 46, 35
1, 105507, Note_on_c, 0, 55, 36
1, 105537, Note_on_c, 0, 94, 0
1, 105537, Note_on_c, 0, 96, 46
1, 105537, Note_on_c, 0, 99, 54
1, 105540, Note_on_c, 0, 63, 38
1, 105540, Control_c, 0, 64, 0
1, 105593, Note_on_c, 0, 63, 0
1, 105593, Note_on_c, 0, 55, 0
1, 105593, Note_on_c, 0, 46, 0
1, 105763, Note_on_c, 0, 99, 0
1, 105763, Note_on_c, 0, 96, 0
1, 105933, Note_on_c, 0, 67, 33
1, 105933, Note_on_c, 0, 70, 39
1, 105975, Note_on_c, 0, 70, 0
1, 105975, Note_on_c, 0, 67, 0
1, 105989, Note_on_c, 0, 68, 47
1, 105989, Note_on_c, 0, 65, 39
1, 105989, Note_on_c, 0, 39, 35
1, 106059, Note_on_c, 0, 65, 0
1, 106059, Note_on_c, 0, 68, 0
1, 106094, Note_on_c, 0, 39, 0
1, 106134, Note_on_c, 0, 82, 39
1, 106213, Note_on_c, 0, 82, 0
1, 106292, Note_on_c, 0, 67, 39
1, 106292, Note_on_c, 0, 64, 33
1, 106361, Note_on_c, 0, 46, 31
1, 106371, Note_on_c, 0, 64, 0
1, 106371, Note_on_c, 0, 67, 0
1, 106391, Note_on_c, 0, 53, 33
1, 106420, Note_on_c, 0, 56, 34
1, 106450, Note_on_c, 0, 68, 46
1, 106450, Note_on_c, 0, 65, 39
1, 106450, Note_on_c, 0, 62, 36
1, 106501, Note_on_c, 0, 62, 0
1, 106501, Note_on_c, 0, 46, 0
1, 106501, Note_on_c, 0, 53, 0
1, 106504, Note_on_c, 0, 56, 0
1, 106519, Note_on_c, 0, 65, 0
1, 106519, Note_on_c, 0, 68, 0
1, 106590, Note_on_c, 0, 94, 41
1, 106665, Note_on_c, 0, 94, 0
1, 106740, Note_on_c, 0, 70, 41
1, 106740, Note_on_c, 0, 67, 34
1, 106818, Note_on_c, 0, 67, 0
1, 106818, Note_on_c, 0, 70, 0
1, 106898, Note_on_c, 0, 72, 47
1, 106898, Note_on_c, 0, 68, 39
1, 106968, Note_on_c, 0, 68, 0
1, 106968, Note_on_c, 0, 72, 0
1, 107042, Note_on_c, 0, 82, 41
1, 107118, Note_on_c, 0, 82, 0
1, 107195, Note_on_c, 0, 67, 34
1, 107195, Note_on_c, 0, 70, 41
1, 107271, Note_on_c, 0, 70, 0
1, 107271, Note_on_c, 0, 67, 0
1, 107305, Note_on_c, 0, 46, 25
1, 107319, Note_on_c, 0, 53, 28
1, 107334, Note_on_c, 0, 56, 34
1, 107348, Note_on_c, 0, 68, 45
1, 107348, Note_on_c, 0, 65, 38
1, 107348, Note_on_c, 0, 62, 36
1, 107400, Note_on_c, 0, 62, 0
1, 107400, Note_on_c, 0, 46, 0
1, 107400, Note_on_c, 0, 53, 0
1, 107403, Note_on_c, 0, 56, 0
1, 107417, Note_on_c, 0, 65, 0
1, 107417, Note_on_c, 0, 68, 0
1, 107490, Note_on_c, 0, 94, 40
1, 107566, Note_on_c, 0, 94, 0
1, 107642, Note_on_c, 0, 58, 34
1, 107642, Note_on_c, 0, 65, 40
1, 107725, Note_on_c, 0, 65, 0
1, 107725, Note_on_c, 0, 58, 0
1, 107814, Note_on_c, 0, 55, 40
1, 107814, Note_on_c, 0, 63, 40
1, 107814, Note_on_c, 0, 39, 35
1, 107870, Control_c, 0, 64, 127
1, 107934, Note_on_c, 0, 39, 0
1, 108218, Note_on_c, 0, 46, 36
1, 108247, Note_on_c, 0, 55, 38
1, 108275, Note_on_c, 0, 63, 0
1, 108275, Note_on_c, 0, 55, 0
1, 108275, Note_on_c, 0, 63, 39
1, 108332, Note_on_c, 0, 55, 0
1, 108332, Note_on_c, 0, 46, 0
1, 108361, Note_on_c, 0, 63, 0
1, 108370, Control_c, 0, 64, 0
1, 109144, Note_on_c, 0, 51, 35
1, 109173, Note_on_c, 0, 58, 36
1, 109187, Control_c, 0, 64, 127
1, 109201, Note_on_c, 0, 82, 46
1, 109201, Note_on_c, 0, 67, 38
1, 109249, Note_on_c, 0, 67, 0
1, 109249, Note_on_c, 0, 58, 0
1, 109249, Note_on_c, 0, 51, 0
1, 109265, Note_on_c, 0, 82, 0
1, 109265, Note_on_c, 0, 87, 45
1, 109329, Note_on_c, 0, 87, 0
1, 109329, Note_on_c, 0, 97, 60
1, 109393, Note_on_c, 0, 97, 0
1, 109393, Note_on_c, 0, 87, 45
1, 109457, Note_on_c, 0, 87, 0
1, 109457, Note_on_c, 0, 89, 45
1, 109521, Note_on_c, 0, 89, 0
1, 109521, Note_on_c, 0, 87, 45
1, 109585, Note_on_c, 0, 87, 0
1, 109585, Note_on_c, 0, 80, 53
1, 109585, Note_on_c, 0, 39, 35
1, 109588, Control_c, 0, 64, 0
1, 109619, Control_c, 0, 64, 127
1, 109650, Note_on_c, 0, 80, 0
1, 109650, Note_on_c, 0, 87, 46
1, 109683, Note_on_c, 0, 39, 0
1, 109716, Note_on_c, 0, 87, 0
1, 109716, Note_on_c, 0, 96, 46
1, 109782, Note_on_c, 0, 96, 0
1, 109782, Note_on_c, 0, 87, 57
1, 109848, Note_on_c, 0, 87, 0
1, 109848, Note_on_c, 0, 89, 46
1, 109914, Note_on_c, 0, 89, 0
1, 109914, Note_on_c, 0, 87, 46
1, 109931, Note_on_c, 0, 48, 34
1, 109956, Note_on_c, 0, 56, 36
1, 109980, Note_on_c, 0, 87, 0
1, 109980, Note_on_c, 0, 79, 48
1, 109980, Note_on_c, 0, 63, 38
1, 110030, Note_on_c, 0, 56, 0
1, 110030, Note_on_c, 0, 48, 0
1, 110055, Note_on_c, 0, 63, 0
1, 110079, Note_on_c, 0, 79, 0
1, 110079, Note_on_c, 0, 94, 52
1, 110178, Note_on_c, 0, 94, 0
1, 110178, Note_on_c, 0, 77, 44
1, 110277, Note_on_c, 0, 77, 0
1, 110277, Note_on_c, 0, 92, 52
1, 110376, Note_on_c, 0, 92, 0
1, 110376, Note_on_c, 0, 75, 44
1, 110382, Control_c, 0, 64, 0
1, 110412, Control_c, 0, 64, 127
1, 110470, Note_on_c, 0, 75, 0
1, 110470, Note_on_c, 0, 91, 47
1, 110563, Note_on_c, 0, 91, 0
1, 110563, Note_on_c, 0, 74, 41
1, 110656, Note_on_c, 0, 74, 0
1, 110656, Note_on_c, 0, 90, 45
1, 110703, Note_on_c, 0, 51, 35
1, 110726, Note_on_c, 0, 58, 36
1, 110750, Note_on_c, 0, 90, 0
1, 110750, Note_on_c, 0, 75, 40
1, 110750, Note_on_c, 0, 67, 38
1, 110797, Note_on_c, 0, 67, 0
1, 110797, Note_on_c, 0, 58, 0
1, 110797, Note_on_c, 0, 51, 0
1, 110843, Note_on_c, 0, 75, 0
1, 110843, Note_on_c, 0, 91, 45
1, 110937, Note_on_c, 0, 91, 0
1, 110937, Note_on_c, 0, 76, 41
1, 111030, Note_on_c, 0, 76, 0
1, 111030, Note_on_c, 0, 91, 45
1, 111123, Note_on_c, 0, 91, 0
1, 111123, Note_on_c, 0, 77, 42
1, 111123, Note_on_c, 0, 39, 35
1, 111129, Control_c, 0, 64, 0
1, 111183, Control_c, 0, 64, 127
1, 111220, Note_on_c, 0, 77, 0
1, 111220, Note_on_c, 0, 92, 47
1, 111220, Note_on_c, 0, 39, 0
1, 111318, Note_on_c, 0, 92, 0
1, 111318, Note_on_c, 0, 76, 43
1, 111415, Note_on_c, 0, 76, 0
1, 111415, Note_on_c, 0, 91, 49
1, 111463, Note_on_c, 0, 46, 33
1, 111487, Note_on_c, 0, 56, 35
1, 111512, Note_on_c, 0, 91, 0
1, 111512, Note_on_c, 0, 77, 46
1, 111512, Note_on_c, 0, 62, 36
1, 111560, Note_on_c, 0, 56, 0
1, 111560, Note_on_c, 0, 46, 0
1, 111584, Note_on_c, 0, 62, 0
1, 111609, Note_on_c, 0, 77, 0
1, 111609, Note_on_c, 0, 92, 52
1, 111706, Note_on_c, 0, 92, 0
1, 111706, Note_on_c, 0, 78, 43
1, 111803, Note_on_c, 0, 78, 0
1, 111803, Note_on_c, 0, 93, 46
1, 111888, Control_c, 0, 64, 0
1, 111900, Note_on_c, 0, 93, 0
1, 111900, Note_on_c, 0, 79, 47
1, 111931, Control_c, 0, 64, 127
1, 111997, Note_on_c, 0, 79, 0
1, 111997, Note_on_c, 0, 94, 55
1, 112094, Note_on_c, 0, 94, 0
1, 112239, Note_on_c, 0, 51, 31
1, 112262, Control_c, 0, 64, 0
1, 112262, Note_on_c, 0, 58, 34
1, 112288, Note_on_c, 0, 70, 45
1, 112288, Note_on_c, 0, 67, 37
1, 112314, Control_c, 0, 64, 127
1, 112335, Note_on_c, 0, 67, 0
1, 112335, Note_on_c, 0, 58, 0
1, 112335, Note_on_c, 0, 51, 0
1, 112350, Note_on_c, 0, 70, 0
1, 112350, Note_on_c, 0, 75, 38
1, 112412, Note_on_c, 0, 75, 0
1, 112412, Note_on_c, 0, 85, 58
1, 112475, Note_on_c, 0, 85, 0
1, 112475, Note_on_c, 0, 75, 42
1, 112537, Note_on_c, 0, 75, 0
1, 112537, Note_on_c, 0, 77, 38
1, 112599, Note_on_c, 0, 77, 0
1, 112599, Note_on_c, 0, 75, 40
1, 112662, Note_on_c, 0, 75, 0
1, 112662, Note_on_c, 0, 68, 45
1, 112662, Note_on_c, 0, 39, 35
1, 112665, Control_c, 0, 64, 0
1, 112695, Control_c, 0, 64, 127
1, 112726, Note_on_c, 0, 68, 0
1, 112726, Note_on_c, 0, 75, 35
1, 112759, Note_on_c, 0, 39, 0
1, 112791, Note_on_c, 0, 75, 0
1, 112791, Note_on_c, 0, 84, 51
1, 112856, Note_on_c, 0, 84, 0
1, 112856, Note_on_c, 0, 75, 35
1, 112920, Note_on_c, 0, 75, 0
1, 112920, Note_on_c, 0, 77, 35
1, 112985, Note_on_c, 0, 77, 0
1, 112985, Note_on_c, 0, 75, 35
1, 113001, Note_on_c, 0, 48, 32
1, 113025, Note_on_c, 0, 56, 34
1, 113050, Note_on_c, 0, 75, 0
1, 113050, Note_on_c, 0, 67, 42
1, 113050, Note_on_c, 0, 63, 35
1, 113054, Control_c, 0, 64, 0
1, 113069, Control_c, 0, 64, 127
1, 113098, Note_on_c, 0, 56, 0
1, 113098, Note_on_c, 0, 48, 0
1, 113122, Note_on_c, 0, 63, 0
1, 113145, Note_on_c, 0, 67, 0
1, 113145, Note_on_c, 0, 82, 48
1, 113241, Note_on_c, 0, 82, 0
1, 113241, Note_on_c, 0, 65, 44
1, 113337, Note_on_c, 0, 65, 0
1, 113337, Note_on_c, 0, 80, 48
1, 113410, Control_c, 0, 64, 0
1, 113433, Note_on_c, 0, 80, 0
1, 113433, Note_on_c, 0, 63, 40
1, 113438, Control_c, 0, 64, 127
1, 113526, Note_on_c, 0, 63, 0
1, 113526, Note_on_c, 0, 79, 47
1, 113620, Note_on_c, 0, 79, 0
1, 113620, Note_on_c, 0, 62, 39
1, 113713, Note_on_c, 0, 62, 0
1, 113713, Note_on_c, 0, 78, 46
1, 113760, Note_on_c, 0, 51, 32
1, 113783, Note_on_c, 0, 58, 34
1, 113806, Note_on_c, 0, 78, 0
1, 113806, Note_on_c, 0, 63, 38
1, 113806, Note_on_c, 0, 67, 35
1, 113809, Control_c, 0, 64, 0
1, 113848, Control_c, 0, 64, 127
1, 113853, Note_on_c, 0, 67, 0
1, 113853, Note_on_c, 0, 58, 0
1, 113853, Note_on_c, 0, 51, 0
1, 113900, Note_on_c, 0, 63, 0
1, 113900, Note_on_c, 0, 79, 45
1, 113993, Note_on_c, 0, 79, 0
1, 113993, Note_on_c, 0, 64, 38
1, 114087, Note_on_c, 0, 64, 0
1, 114087, Note_on_c, 0, 79, 47
1, 114180, Note_on_c, 0, 79, 0
1, 114180, Note_on_c, 0, 65, 41
1, 114180, Note_on_c, 0, 39, 33
1, 114186, Control_c, 0, 64, 0
1, 114240, Control_c, 0, 64, 127
1, 114277, Note_on_c, 0, 65, 0
1, 114277, Note_on_c, 0, 80, 44
1, 114277, Note_on_c, 0, 39, 0
1, 114374, Note_on_c, 0, 80, 0
1, 114374, Note_on_c, 0, 64, 38
1, 114471, Note_on_c, 0, 64, 0
1, 114471, Note_on_c, 0, 79, 46
1, 114520, Note_on_c, 0, 46, 27
1, 114544, Note_on_c, 0, 56, 28
1, 114568, Note_on_c, 0, 79, 0
1, 114568, Note_on_c, 0, 65, 40
1, 114568, Note_on_c, 0, 62, 29
1, 114617, Note_on_c, 0, 56, 0
1, 114617, Note_on_c, 0, 46, 0
1, 114641, Note_on_c, 0, 62, 0
1, 114665, Note_on_c, 0, 65, 0
1, 114665, Note_on_c, 0, 80, 45
1, 114762, Note_on_c, 0, 80, 0
1, 114762, Note_on_c, 0, 61, 38
1, 114859, Note_on_c, 0, 61, 0
1, 114859, Note_on_c, 0, 76, 44
1, 114956, Note_on_c, 0, 76, 0
1, 114956, Note_on_c, 0, 62, 40
1, 114960, Control_c, 0, 64, 0
1, 114988, Control_c, 0, 64, 127
1, 115053, Note_on_c, 0, 62, 0
1, 115053, Note_on_c, 0, 77, 46
1, 115150, Note_on_c, 0, 77, 0
1, 115199, Control_c, 0, 64, 0
1, 115296, Note_on_c, 0, 51, 31
1, 115320, Note_on_c, 0, 58, 33
1, 115345, Note_on_c, 0, 82, 50
1, 115345, Note_on_c, 0, 67, 35
1, 115351, Control_c, 0, 64, 127
1, 115392, Note_on_c, 0, 67, 0
1, 115392, Note_on_c, 0, 58, 0
1, 115392, Note_on_c, 0, 51, 0
1, 115408, Note_on_c, 0, 82, 0
1, 115408, Note_on_c, 0, 87, 45
1, 115472, Note_on_c, 0, 87, 0
1, 115472, Note_on_c, 0, 97, 54
1, 115536, Note_on_c, 0, 97, 0
1, 115536, Note_on_c, 0, 87, 45
1, 115600, Note_on_c, 0, 87, 0
1, 115600, Note_on_c, 0, 89, 45
1, 115664, Note_on_c, 0, 89, 0
1, 115664, Note_on_c, 0, 87, 45
1, 115728, Note_on_c, 0, 87, 0
1, 115728, Note_on_c, 0, 80, 50
1, 115728, Note_on_c, 0, 39, 35
1, 115731, Control_c, 0, 64, 0
1, 115762, Control_c, 0, 64, 127
1, 115794, Note_on_c, 0, 80, 0
1, 115794, Note_on_c, 0, 87, 46
1, 115827, Note_on_c, 0, 39, 0
1, 115860, Note_on_c, 0, 87, 0
1, 115860, Note_on_c, 0, 96, 54
1, 115926, Note_on_c, 0, 96, 0
1, 115926, Note_on_c, 0, 87, 46
1, 115992, Note_on_c, 0, 87, 0
1, 115992, Note_on_c, 0, 89, 46
1, 116058, Note_on_c, 0, 89, 0
1, 116058, Note_on_c, 0, 87, 46
1, 116074, Note_on_c, 0, 48, 34
1, 116099, Note_on_c, 0, 56, 36
1, 116124, Note_on_c, 0, 87, 0
1, 116124, Note_on_c, 0, 79, 42
1, 116124, Note_on_c, 0, 63, 38
1, 116173, Note_on_c, 0, 56, 0
1, 116173, Note_on_c, 0, 48, 0
1, 116198, Note_on_c, 0, 63, 0
1, 116223, Note_on_c, 0, 79, 0
1, 116223, Note_on_c, 0, 94, 49
1, 116321, Note_on_c, 0, 94, 0
1, 116321, Note_on_c, 0, 77, 44
1, 116420, Note_on_c, 0, 77, 0
1, 116420, Note_on_c, 0, 92, 47
1, 116519, Note_on_c, 0, 92, 0
1, 116519, Note_on_c, 0, 75, 41
1, 116528, Control_c, 0, 64, 0
1, 116572, Control_c, 0, 64, 127
1, 116613, Note_on_c, 0, 75, 0
1, 116613, Note_on_c, 0, 91, 48
1, 116706, Note_on_c, 0, 91, 0
1, 116706, Note_on_c, 0, 74, 41
1, 116800, Note_on_c, 0, 74, 0
1, 116800, Note_on_c, 0, 90, 46
1, 116846, Note_on_c, 0, 51, 35
1, 116870, Note_on_c, 0, 58, 36
1, 116893, Note_on_c, 0, 90, 0
1, 116893, Note_on_c, 0, 75, 41
1, 116893, Note_on_c, 0, 67, 38
1, 116940, Note_on_c, 0, 67, 0
1, 116940, Note_on_c, 0, 58, 0
1, 116940, Note_on_c, 0, 51, 0
1, 116986, Note_on_c, 0, 75, 0
1, 116986, Note_on_c, 0, 91, 46
1, 117080, Note_on_c, 0, 91, 0
1, 117080, Note_on_c, 0, 76, 40
1, 117173, Note_on_c, 0, 76, 0
1, 117173, Note_on_c, 0, 91, 45
1, 117267, Note_on_c, 0, 91, 0
1, 117267, Note_on_c, 0, 77, 39
1, 117267, Note_on_c, 0, 39, 35
1, 117272, Control_c, 0, 64, 0
1, 117326, Control_c, 0, 64, 127
1, 117364, Note_on_c, 0, 77, 0
1, 117364, Note_on_c, 0, 92, 47
1, 117364, Note_on_c, 0, 39, 0
1, 117461, Note_on_c, 0, 92, 0
1, 117461, Note_on_c, 0, 76, 40
1, 117558, Note_on_c, 0, 76, 0
1, 117558, Note_on_c, 0, 91, 46
1, 117606, Note_on_c, 0, 46, 34
1, 117631, Note_on_c, 0, 56, 35
1, 117655, Note_on_c, 0, 91, 0
1, 117655, Note_on_c, 0, 77, 43
1, 117655, Note_on_c, 0, 62, 38
1, 117703, Note_on_c, 0, 56, 0
1, 117703, Note_on_c, 0, 46, 0
1, 117728, Note_on_c, 0, 62, 0
1, 117752, Note_on_c, 0, 77, 0
1, 117752, Note_on_c, 0, 92, 48
1, 117849, Note_on_c, 0, 92, 0
1, 117849, Note_on_c, 0, 78, 45
1, 117946, Note_on_c, 0, 78, 0
1, 117946, Note_on_c, 0, 93, 51
1, 118032, Control_c, 0, 64, 0
1, 118043, Note_on_c, 0, 93, 0
1, 118043, Note_on_c, 0, 79, 47
1, 118074, Control_c, 0, 64, 127
1, 118140, Note_on_c, 0, 79, 0
1, 118140, Note_on_c, 0, 94, 52
1, 118237, Note_on_c, 0, 94, 0
1, 118383, Note_on_c, 0, 51, 30
1, 118405, Control_c, 0, 64, 0
1, 118405, Note_on_c, 0, 58, 33
1, 118431, Note_on_c, 0, 70, 45
1, 118431, Note_on_c, 0, 67, 37
1, 118458, Control_c, 0, 64, 127
1, 118478, Note_on_c, 0, 67, 0
1, 118478, Note_on_c, 0, 58, 0
1, 118478, Note_on_c, 0, 51, 0
1, 118493, Note_on_c, 0, 70, 0
1, 118493, Note_on_c, 0, 75, 38
1, 118556, Note_on_c, 0, 75, 0
1, 118556, Note_on_c, 0, 85, 50
1, 118618, Note_on_c, 0, 85, 0
1, 118618, Note_on_c, 0, 75, 38
1, 118680, Note_on_c, 0, 75, 0
1, 118680, Note_on_c, 0, 77, 38
1, 118742, Note_on_c, 0, 77, 0
1, 118742, Note_on_c, 0, 75, 40
1, 118805, Note_on_c, 0, 75, 0
1, 118805, Note_on_c, 0, 68, 45
1, 118805, Note_on_c, 0, 39, 35
1, 118808, Control_c, 0, 64, 0
1, 118839, Control_c, 0, 64, 127
1, 118869, Note_on_c, 0, 68, 0
1, 118869, Note_on_c, 0, 75, 38
1, 118902, Note_on_c, 0, 39, 0
1, 118934, Note_on_c, 0, 75, 0
1, 118934, Note_on_c, 0, 84, 48
1, 118999, Note_on_c, 0, 84, 0
1, 118999, Note_on_c, 0, 75, 38
1, 119063, Note_on_c, 0, 75, 0
1, 119063, Note_on_c, 0, 77, 38
1, 119128, Note_on_c, 0, 77, 0
1, 119128, Note_on_c, 0, 75, 38
1, 119144, Note_on_c, 0, 48, 31
1, 119169, Note_on_c, 0, 56, 34
1, 119193, Note_on_c, 0, 75, 0
1, 119193, Note_on_c, 0, 67, 40
1, 119193, Note_on_c, 0, 63, 36
1, 119197, Control_c, 0, 64, 0
1, 119212, Control_c, 0, 64, 127
1, 119241, Note_on_c, 0, 56, 0
1, 119241, Note_on_c, 0, 48, 0
1, 119265, Note_on_c, 0, 63, 0
1, 119289, Note_on_c, 0, 67, 0
1, 119289, Note_on_c, 0, 82, 46
1, 119384, Note_on_c, 0, 82, 0
1, 119384, Note_on_c, 0, 65, 39
1, 119480, Note_on_c, 0, 65, 0
1, 119480, Note_on_c, 0, 80, 47
1, 119576, Note_on_c, 0, 80, 0
1, 119576, Note_on_c, 0, 63, 39
1, 119584, Control_c, 0, 64, 0
1, 119614, Control_c, 0, 64, 127
1, 119669, Note_on_c, 0, 63, 0
1, 119669, Note_on_c, 0, 79, 45
1, 119763, Note_on_c, 0, 79, 0
1, 119763, Note_on_c, 0, 62, 40
1, 119856, Note_on_c, 0, 62, 0
1, 119856, Note_on_c, 0, 78, 45
1, 119903, Note_on_c, 0, 51, 32
1, 119926, Note_on_c, 0, 58, 34
1, 119950, Note_on_c, 0, 78, 0
1, 119950, Note_on_c, 0, 63, 39
1, 119950, Note_on_c, 0, 67, 36
1, 119950, Control_c, 0, 64, 0
1, 119979, Control_c, 0, 64, 127
1, 119996, Note_on_c, 0, 67, 0
1, 119996, Note_on_c, 0, 58, 0
1, 119996, Note_on_c, 0, 51, 0
1, 120043, Note_on_c, 0, 63, 0
1, 120043, Note_on_c, 0, 79, 43
1, 120136, Note_on_c, 0, 79, 0
1, 120136, Note_on_c, 0, 64, 38
1, 120230, Note_on_c, 0, 64, 0
1, 120230, Note_on_c, 0, 79, 37
1, 120324, Note_on_c, 0, 79, 0
1, 120324, Note_on_c, 0, 65, 44
1, 120324, Note_on_c, 0, 39, 35
1, 120330, Control_c, 0, 64, 0
1, 120385, Control_c, 0, 64, 127
1, 120422, Note_on_c, 0, 65, 0
1, 120422, Note_on_c, 0, 80, 37
1, 120422, Note_on_c, 0, 39, 0
1, 120520, Note_on_c, 0, 80, 0
1, 120520, Note_on_c, 0, 67, 47
1, 120617, Note_on_c, 0, 67, 0
1, 120617, Note_on_c, 0, 82, 38
1, 120714, Note_on_c, 0, 82, 0
1, 120714, Note_on_c, 0, 68, 47
1, 120714, Note_on_c, 0, 59, 30
1, 120717, Note_on_c, 0, 56, 25
1, 120717, Note_on_c, 0, 47, 25
1, 120717, Note_on_c, 0, 51, 25
1, 120810, Note_on_c, 0, 68, 0
1, 120810, Note_on_c, 0, 83, 38
1, 120906, Note_on_c, 0, 83, 0
1, 120906, Note_on_c, 0, 71, 45
1, 121002, Note_on_c, 0, 71, 0
1, 121002, Note_on_c, 0, 88, 33
1, 121098, Note_on_c, 0, 88, 0
1, 121098, Note_on_c, 0, 74, 47
1, 121193, Note_on_c, 0, 74, 0
1, 121193, Note_on_c, 0, 89, 37
1, 121288, Note_on_c, 0, 89, 0
1, 121288, Note_on_c, 0, 76, 45
1, 121383, Note_on_c, 0, 76, 0
1, 121383, Note_on_c, 0, 91, 33
1, 121477, Note_on_c, 0, 91, 0
1, 121477, Note_on_c, 0, 77, 45
1, 121477, Note_on_c, 0, 51, 0
1, 121480, Note_on_c, 0, 59, 0
1, 121480, Note_on_c, 0, 56, 0
1, 121480, Note_on_c, 0, 47, 0
1, 121483, Note_on_c, 0, 59, 30
1, 121483, Note_on_c, 0, 47, 25
1, 121483, Note_on_c, 0, 51, 25
1, 121486, Note_on_c, 0, 56, 25
1, 121486, Control_c, 0, 64, 0
1, 121535, Control_c, 0, 64, 127
1, 121571, Note_on_c, 0, 77, 0
1, 121571, Note_on_c, 0, 92, 33
1, 121665, Note_on_c, 0, 92, 0
1, 121665, Note_on_c, 0, 79, 47
1, 121759, Note_on_c, 0, 79, 0
1, 121759, Note_on_c, 0, 94, 34
1, 121852, Note_on_c, 0, 94, 0
1, 121852, Note_on_c, 0, 80, 52
1, 121945, Note_on_c, 0, 80, 0
1, 121945, Note_on_c, 0, 95, 37
1, 122038, Note_on_c, 0, 95, 0
1, 122038, Note_on_c, 0, 83, 50
1, 122131, Note_on_c, 0, 83, 0
1, 122131, Note_on_c, 0, 100, 37
1, 122224, Note_on_c, 0, 100, 0
1, 122224, Note_on_c, 0, 86, 57
1, 122224, Note_on_c, 0, 56, 0
1, 122227, Note_on_c, 0, 59, 0
1, 122227, Note_on_c, 0, 47, 0
1, 122227, Note_on_c, 0, 51, 0
1, 122230, Note_on_c, 0, 59, 30
1, 122230, Note_on_c, 0, 47, 25
1, 122230, Note_on_c, 0, 51, 25
1, 122233, Note_on_c, 0, 56, 25
1, 122239, Control_c, 0, 64, 0
1, 122312, Control_c, 0, 64, 127
1, 122316, Note_on_c, 0, 86, 0
1, 122316, Note_on_c, 0, 101, 43
1, 122409, Note_on_c, 0, 101, 0
1, 122409, Note_on_c, 0, 85, 53
1, 122502, Note_on_c, 0, 85, 0
1, 122502, Note_on_c, 0, 100, 44
1, 122595, Note_on_c, 0, 100, 0
1, 122595, Note_on_c, 0, 86, 58
1, 122595, Note_on_c, 0, 56, 0
1, 122598, Note_on_c, 0, 59, 0
1, 122598, Note_on_c, 0, 47, 0
1, 122598, Note_on_c, 0, 51, 0
1, 122601, Note_on_c, 0, 59, 30
1, 122601, Note_on_c, 0, 47, 25
1, 122601, Note_on_c, 0, 51, 25
1, 122604, Note_on_c, 0, 56, 25
1, 122611, Control_c, 0, 64, 0
1, 122671, Control_c, 0, 64, 127
1, 122689, Note_on_c, 0, 86, 0
1, 122689, Note_on_c, 0, 101, 44
1, 122784, Note_on_c, 0, 101, 0
1, 122784, Note_on_c, 0, 85, 53
1, 122881, Note_on_c, 0, 85, 0
1, 122881, Note_on_c, 0, 100, 44
1, 122978, Note_on_c, 0, 100, 0
1, 122978, Note_on_c, 0, 86, 62
1, 122978, Note_on_c, 0, 56, 0
1, 122981, Note_on_c, 0, 59, 0
1, 122981, Note_on_c, 0, 47, 0
1, 122981, Note_on_c, 0, 51, 0
1, 122984, Note_on_c, 0, 59, 30
1, 122984, Note_on_c, 0, 47, 25
1, 122984, Note_on_c, 0, 51, 25
1, 122987, Note_on_c, 0, 56, 25
1, 122995, Control_c, 0, 64, 0
1, 123053, Control_c, 0, 64, 127
1, 123077, Note_on_c, 0, 86, 0
1, 123077, Note_on_c, 0, 101, 51
1, 123178, Note_on_c, 0, 101, 0
1, 123178, Note_on_c, 0, 85, 60
1, 123279, Note_on_c, 0, 85, 0
1, 123279, Note_on_c, 0, 100, 57
1, 123383, Note_on_c, 0, 100, 0
1, 123383, Note_on_c, 0, 86, 46
1, 123449, Note_on_c, 0, 86, 0
1, 123449, Note_on_c, 0, 92, 50
1, 123513, Note_on_c, 0, 92, 0
1, 123513, Note_on_c, 0, 95, 54
1, 123577, Note_on_c, 0, 95, 0
1, 123577, Note_on_c, 0, 98, 59
1, 123641, Note_on_c, 0, 98, 0
1, 123641, Note_on_c, 0, 103, 66
1, 123703, Note_on_c, 0, 103, 0
1, 123703, Note_on_c, 0, 102, 49
1, 123764, Note_on_c, 0, 102, 0
1, 123764, Note_on_c, 0, 98, 49
1, 123825, Note_on_c, 0, 98, 0
1, 123825, Note_on_c, 0, 95, 48
1, 123884, Note_on_c, 0, 95, 0
1, 123884, Note_on_c, 0, 102, 59
1, 123943, Note_on_c, 0, 102, 0
1, 123943, Note_on_c, 0, 101, 46
1, 124001, Note_on_c, 0, 101, 0
1, 124001, Note_on_c, 0, 98, 45
1, 124059, Note_on_c, 0, 98, 0
1, 124059, Note_on_c, 0, 95, 45
1, 124115, Note_on_c, 0, 95, 0
1, 124115, Note_on_c, 0, 101, 57
1, 124171, Note_on_c, 0, 101, 0
1, 124171, Note_on_c, 0, 100, 41
1, 124226, Note_on_c, 0, 100, 0
1, 124226, Note_on_c, 0, 95, 41
1, 124281, Note_on_c, 0, 95, 0
1, 124281, Note_on_c, 0, 92, 41
1, 124335, Note_on_c, 0, 92, 0
1, 124335, Note_on_c, 0, 100, 55
1, 124335, Note_on_c, 0, 56, 0
1, 124338, Note_on_c, 0, 59, 0
1, 124338, Note_on_c, 0, 47, 0
1, 124338, Note_on_c, 0, 51, 0
1, 124338, Control_c, 0, 64, 0
1, 124367, Control_c, 0, 64, 127
1, 124388, Note_on_c, 0, 100, 0
1, 124388, Note_on_c, 0, 99, 40
1, 124440, Note_on_c, 0, 99, 0
1, 124440, Note_on_c, 0, 95, 40
1, 124492, Note_on_c, 0, 95, 0
1, 124492, Note_on_c, 0, 92, 40
1, 124544, Note_on_c, 0, 92, 0
1, 124544, Note_on_c, 0, 99, 53
1, 124594, Note_on_c, 0, 99, 0
1, 124594, Note_on_c, 0, 98, 40
1, 124645, Note_on_c, 0, 98, 0
1, 124645, Note_on_c, 0, 92, 40
1, 124694, Note_on_c, 0, 92, 0
1, 124694, Note_on_c, 0, 89, 40
1, 124743, Note_on_c, 0, 89, 0
1, 124743, Note_on_c, 0, 98, 52
1, 124792, Note_on_c, 0, 98, 0
1, 124792, Note_on_c, 0, 97, 38
1, 124840, Note_on_c, 0, 97, 0
1, 124840, Note_on_c, 0, 92, 38
1, 124889, Note_on_c, 0, 92, 0
1, 124889, Note_on_c, 0, 89, 38
1, 124937, Note_on_c, 0, 89, 0
1, 124937, Note_on_c, 0, 97, 50
1, 124984, Note_on_c, 0, 97, 0
1, 124984, Note_on_c, 0, 96, 38
1, 125032, Note_on_c, 0, 96, 0
1, 125032, Note_on_c, 0, 92, 38
1, 125079, Note_on_c, 0, 92, 0
1, 125079, Note_on_c, 0, 89, 38
1, 125127, Note_on_c, 0, 89, 0
1, 125127, Note_on_c, 0, 96, 53
1, 125134, Control_c, 0, 64, 0
1, 125151, Control_c, 0, 64, 127
1, 125173, Note_on_c, 0, 96, 0
1, 125173, Note_on_c, 0, 95, 35
1, 125220, Note_on_c, 0, 95, 0
1, 125220, Note_on_c, 0, 92, 35
1, 125267, Note_on_c, 0, 92, 0
1, 125267, Note_on_c, 0, 89, 35
1, 125314, Note_on_c, 0, 89, 0
1, 125314, Note_on_c, 0, 95, 52
1, 125360, Note_on_c, 0, 95, 0
1, 125360, Note_on_c, 0, 94, 35
1, 125407, Note_on_c, 0, 94, 0
1, 125407, Note_on_c, 0, 89, 35
1, 125454, Note_on_c, 0, 89, 0
1, 125454, Note_on_c, 0, 86, 35
1, 125500, Note_on_c, 0, 86, 0
1, 125500, Note_on_c, 0, 94, 51
1, 125547, Note_on_c, 0, 94, 0
1, 125547, Note_on_c, 0, 93, 35
1, 125594, Note_on_c, 0, 93, 0
1, 125594, Note_on_c, 0, 89, 35
1, 125640, Note_on_c, 0, 89, 0
1, 125640, Note_on_c, 0, 86, 35
1, 125687, Note_on_c, 0, 86, 0
1, 125687, Note_on_c, 0, 93, 52
1, 125734, Note_on_c, 0, 93, 0
1, 125734, Note_on_c, 0, 92, 35
1, 125781, Note_on_c, 0, 92, 0
1, 125781, Note_on_c, 0, 89, 35
1, 125833, Note_on_c, 0, 89, 0
1, 125833, Note_on_c, 0, 86, 35
1, 125886, Note_on_c, 0, 86, 0
1, 125886, Note_on_c, 0, 92, 54
1, 125901, Control_c, 0, 64, 0
1, 125933, Control_c, 0, 64, 127
1, 125933, Note_on_c, 0, 92, 0
1, 125933, Note_on_c, 0, 91, 38
1, 125983, Note_on_c, 0, 91, 0
1, 125983, Note_on_c, 0, 86, 35
1, 126030, Note_on_c, 0, 86, 0
1, 126030, Note_on_c, 0, 83, 35
1, 126077, Note_on_c, 0, 83, 0
1, 126077, Note_on_c, 0, 91, 53
1, 126124, Note_on_c, 0, 91, 0
1, 126124, Note_on_c, 0, 90, 35
1, 126171, Note_on_c, 0, 90, 0
1, 126171, Note_on_c, 0, 86, 35
1, 126218, Note_on_c, 0, 86, 0
1, 126218, Note_on_c, 0, 83, 35
1, 126265, Note_on_c, 0, 83, 0
1, 126265, Note_on_c, 0, 90, 54
1, 126312, Note_on_c, 0, 90, 0
1, 126312, Note_on_c, 0, 89, 35
1, 126359, Note_on_c, 0, 89, 0
1, 126359, Note_on_c, 0, 86, 35
1, 126407, Note_on_c, 0, 86, 0
1, 126407, Note_on_c, 0, 83, 35
1, 126454, Note_on_c, 0, 83, 0
1, 126454, Note_on_c, 0, 89, 53
1, 126501, Note_on_c, 0, 89, 0
1, 126501, Note_on_c, 0, 88, 35
1, 126548, Note_on_c, 0, 88, 0
1, 126548, Note_on_c, 0, 83, 35
1, 126601, Note_on_c, 0, 83, 0
1, 126601, Note_on_c, 0, 80, 35
1, 126653, Note_on_c, 0, 80, 0
1, 126653, Note_on_c, 0, 88, 55
1, 126653, Control_c, 0, 64, 0
1, 126685, Control_c, 0, 64, 127
1, 126704, Note_on_c, 0, 88, 0
1, 126704, Note_on_c, 0, 87, 35
1, 126751, Note_on_c, 0, 87, 0
1, 126751, Note_on_c, 0, 83, 35
1, 126798, Note_on_c, 0, 83, 0
1, 126798, Note_on_c, 0, 80, 35
1, 126845, Note_on_c, 0, 80, 0
1, 126845, Note_on_c, 0, 87, 55
1, 126892, Note_on_c, 0, 87, 0
1, 126892, Note_on_c, 0, 86, 35
1, 126939, Note_on_c, 0, 86, 0
1, 126939, Note_on_c, 0, 80, 35
1, 126986, Note_on_c, 0, 80, 0
1, 126986, Note_on_c, 0, 77, 35
1, 127033, Note_on_c, 0, 77, 0
1, 127033, Note_on_c, 0, 86, 56
1, 127080, Note_on_c, 0, 86, 0
1, 127080, Note_on_c, 0, 85, 35
1, 127127, Note_on_c, 0, 85, 0
1, 127127, Note_on_c, 0, 80, 35
1, 127174, Note_on_c, 0, 80, 0
1, 127174, Note_on_c, 0, 77, 35
1, 127221, Note_on_c, 0, 77, 0
1, 127221, Note_on_c, 0, 85, 51
1, 127268, Note_on_c, 0, 85, 0
1, 127268, Note_on_c, 0, 84, 35
1, 127315, Note_on_c, 0, 84, 0
1, 127315, Note_on_c, 0, 80, 35
1, 127368, Note_on_c, 0, 80, 0
1, 127368, Note_on_c, 0, 77, 35
1, 127421, Note_on_c, 0, 77, 0
1, 127421, Note_on_c, 0, 84, 55
1, 127432, Control_c, 0, 64, 0
1, 127469, Note_on_c, 0, 84, 0
1, 127469, Note_on_c, 0, 83, 35
1, 127483, Control_c, 0, 64, 127
1, 127517, Note_on_c, 0, 83, 0
1, 127517, Note_on_c, 0, 80, 35
1, 127565, Note_on_c, 0, 80, 0
1, 127565, Note_on_c, 0, 77, 35
1, 127613, Note_on_c, 0, 77, 0
1, 127613, Note_on_c, 0, 83, 53
1, 127661, Note_on_c, 0, 83, 0
1, 127661, Note_on_c, 0, 82, 35
1, 127708, Note_on_c, 0, 82, 0
1, 127708, Note_on_c, 0, 77, 35
1, 127756, Note_on_c, 0, 77, 0
1, 127756, Note_on_c, 0, 74, 35
1, 127804, Note_on_c, 0, 74, 0
1, 127804, Note_on_c, 0, 82, 55
1, 127852, Note_on_c, 0, 82, 0
1, 127852, Note_on_c, 0, 81, 35
1, 127900, Note_on_c, 0, 81, 0
1, 127900, Note_on_c, 0, 77, 35
1, 127948, Note_on_c, 0, 77, 0
1, 127948, Note_on_c, 0, 74, 35
1, 127996, Note_on_c, 0, 74, 0
1, 127996, Note_on_c, 0, 81, 53
1, 128044, Note_on_c, 0, 81, 0
1, 128044, Note_on_c, 0, 80, 35
1, 128092, Note_on_c, 0, 80, 0
1, 128092, Note_on_c, 0, 77, 35
1, 128145, Note_on_c, 0, 77, 0
1, 128145, Note_on_c, 0, 74, 35
1, 128199, Note_on_c, 0, 74, 0
1, 128199, Note_on_c, 0, 80, 56
1, 128211, Control_c, 0, 64, 0
1, 128231, Control_c, 0, 64, 127
1, 128247, Note_on_c, 0, 80, 0
1, 128247, Note_on_c, 0, 79, 37
1, 128296, Note_on_c, 0, 79, 0
1, 128296, Note_on_c, 0, 74, 34
1, 128344, Note_on_c, 0, 74, 0
1, 128344, Note_on_c, 0, 71, 35
1, 128392, Note_on_c, 0, 71, 0
1, 128392, Note_on_c, 0, 79, 56
1, 128440, Note_on_c, 0, 79, 0
1, 128440, Note_on_c, 0, 78, 38
1, 128488, Note_on_c, 0, 78, 0
1, 128488, Note_on_c, 0, 74, 36
1, 128537, Note_on_c, 0, 74, 0
1, 128537, Note_on_c, 0, 71, 36
1, 128585, Note_on_c, 0, 71, 0
1, 128585, Note_on_c, 0, 78, 57
1, 128594, Control_c, 0, 64, 0
1, 128607, Control_c, 0, 64, 127
1, 128633, Note_on_c, 0, 78, 0
1, 128633, Note_on_c, 0, 77, 40
1, 128682, Note_on_c, 0, 77, 0
1, 128682, Note_on_c, 0, 74, 35
1, 128730, Note_on_c, 0, 74, 0
1, 128730, Note_on_c, 0, 71, 35
1, 128779, Note_on_c, 0, 71, 0
1, 128779, Note_on_c, 0, 77, 55
1, 128827, Note_on_c, 0, 77, 0
1, 128827, Note_on_c, 0, 76, 40
1, 128876, Note_on_c, 0, 76, 0
1, 128876, Note_on_c, 0, 71, 36
1, 128925, Note_on_c, 0, 71, 0
1, 128925, Note_on_c, 0, 68, 36
1, 128974, Note_on_c, 0, 68, 0
1, 128974, Note_on_c, 0, 76, 58
1, 128980, Control_c, 0, 64, 0
1, 129013, Control_c, 0, 64, 127
1, 129023, Note_on_c, 0, 76, 0
1, 129023, Note_on_c, 0, 75, 39
1, 129072, Note_on_c, 0, 75, 0
1, 129072, Note_on_c, 0, 71, 35
1, 129121, Note_on_c, 0, 71, 0
1, 129121, Note_on_c, 0, 68, 36
1, 129170, Note_on_c, 0, 68, 0
1, 129170, Note_on_c, 0, 75, 58
1, 129220, Note_on_c, 0, 75, 0
1, 129220, Note_on_c, 0, 74, 39
1, 129269, Note_on_c, 0, 74, 0
1, 129269, Note_on_c, 0, 68, 37
1, 129319, Note_on_c, 0, 68, 0
1, 129319, Note_on_c, 0, 65, 37
1, 129368, Note_on_c, 0, 65, 0
1, 129368, Note_on_c, 0, 74, 61
1, 129387, Control_c, 0, 64, 0
1, 129418, Note_on_c, 0, 74, 0
1, 129418, Note_on_c, 0, 73, 45
1, 129418, Control_c, 0, 64, 127
1, 129468, Note_on_c, 0, 73, 0
1, 129468, Note_on_c, 0, 68, 40
1, 129517, Note_on_c, 0, 68, 0
1, 129517, Note_on_c, 0, 65, 40
1, 129567, Note_on_c, 0, 65, 0
1, 129567, Note_on_c, 0, 73, 61
1, 129617, Note_on_c, 0, 73, 0
1, 129617, Note_on_c, 0, 72, 45
1, 129668, Note_on_c, 0, 72, 0
1, 129668, Note_on_c, 0, 68, 39
1, 129718, Note_on_c, 0, 68, 0
1, 129718, Note_on_c, 0, 65, 39
1, 129768, Note_on_c, 0, 65, 0
1, 129768, Note_on_c, 0, 72, 63
1, 129776, Control_c, 0, 64, 0
1, 129813, Control_c, 0, 64, 127
1, 129818, Note_on_c, 0, 72, 0
1, 129818, Note_on_c, 0, 71, 47
1, 129869, Note_on_c, 0, 71, 0
1, 129869, Note_on_c, 0, 68, 43
1, 129919, Note_on_c, 0, 68, 0
1, 129919, Note_on_c, 0, 65, 44
1, 129970, Note_on_c, 0, 65, 0
1, 129970, Note_on_c, 0, 71, 63
1, 130020, Note_on_c, 0, 71, 0
1, 130020, Note_on_c, 0, 70, 49
1, 130071, Note_on_c, 0, 70, 0
1, 130071, Note_on_c, 0, 65, 46
1, 130121, Note_on_c, 0, 65, 0
1, 130121, Note_on_c, 0, 62, 39
1, 130172, Note_on_c, 0, 62, 0
1, 130172, Note_on_c, 0, 61, 66
1, 130189, Control_c, 0, 64, 0
1, 130232, Control_c, 0, 64, 127
1, 130239, Note_on_c, 0, 61, 0
1, 130239, Note_on_c, 0, 62, 39
1, 130306, Note_on_c, 0, 62, 0
1, 130306, Note_on_c, 0, 65, 39
1, 130369, Note_on_c, 0, 65, 0
1, 130369, Note_on_c, 0, 68, 40
1, 130428, Note_on_c, 0, 68, 0
1, 130428, Note_on_c, 0, 69, 41
1, 130482, Note_on_c, 0, 69, 0
1, 130482, Note_on_c, 0, 70, 42
1, 130534, Note_on_c, 0, 70, 0
1, 130534, Note_on_c, 0, 71, 43
1, 130586, Note_on_c, 0, 71, 0
1, 130586, Note_on_c, 0, 74, 43
1, 130638, Note_on_c, 0, 74, 0
1, 130638, Note_on_c, 0, 77, 44
1, 130690, Note_on_c, 0, 77, 0
1, 130690, Note_on_c, 0, 80, 45
1, 130741, Note_on_c, 0, 80, 0
1, 130741, Note_on_c, 0, 81, 46
1, 130793, Note_on_c, 0, 81, 0
1, 130793, Note_on_c, 0, 82, 47
1, 130844, Note_on_c, 0, 82, 0
1, 130844, Note_on_c, 0, 83, 49
1, 130894, Note_on_c, 0, 83, 0
1, 130894, Note_on_c, 0, 86, 50
1, 130945, Note_on_c, 0, 86, 0
1, 130945, Note_on_c, 0, 89, 51
1, 130996, Note_on_c, 0, 89, 0
1, 130996, Note_on_c, 0, 92, 53
1, 131046, Note_on_c, 0, 92, 0
1, 131046, Note_on_c, 0, 93, 54
1, 131096, Note_on_c, 0, 93, 0
1, 131096, Note_on_c, 0, 94, 56
1, 131146, Note_on_c, 0, 94, 0
1, 131146, Note_on_c, 0, 95, 63
1, 131146, Control_c, 0, 64, 0
1, 131168, Control_c, 0, 64, 127
1, 131197, Note_on_c, 0, 95, 0
1, 131197, Note_on_c, 0, 98, 51
1, 131247, Note_on_c, 0, 98, 0
1, 131247, Note_on_c, 0, 96, 51
1, 131297, Note_on_c, 0, 96, 0
1, 131297, Note_on_c, 0, 93, 57
1, 131347, Note_on_c, 0, 93, 0
1, 131347, Note_on_c, 0, 96, 45
1, 131397, Note_on_c, 0, 96, 0
1, 131397, Note_on_c, 0, 94, 45
1, 131447, Note_on_c, 0, 94, 0
1, 131447, Note_on_c, 0, 91, 53
1, 131497, Note_on_c, 0, 91, 0
1, 131497, Note_on_c, 0, 94, 43
1, 131547, Note_on_c, 0, 94, 0
1, 131547, Note_on_c, 0, 92, 43
1, 131597, Note_on_c, 0, 92, 0
1, 131597, Note_on_c, 0, 88, 47
1, 131647, Note_on_c, 0, 88, 0
1, 131647, Note_on_c, 0, 91, 41
1, 131697, Note_on_c, 0, 91, 0
1, 131697, Note_on_c, 0, 89, 41
1, 131747, Note_on_c, 0, 89, 0
1, 131747, Note_on_c, 0, 85, 48
1, 131798, Note_on_c, 0, 85, 0
1, 131798, Note_on_c, 0, 87, 38
1, 131848, Note_on_c, 0, 87, 0
1, 131848, Note_on_c, 0, 86, 38
1, 131898, Note_on_c, 0, 86, 0
1, 131898, Note_on_c, 0, 83, 48
1, 131948, Note_on_c, 0, 83, 0
1, 131948, Note_on_c, 0, 86, 35
1, 131998, Note_on_c, 0, 86, 0
1, 131998, Note_on_c, 0, 84, 35
1, 132048, Note_on_c, 0, 84, 0
1, 132048, Note_on_c, 0, 81, 47
1, 132098, Note_on_c, 0, 81, 0
1, 132098, Note_on_c, 0, 84, 35
1, 132148, Note_on_c, 0, 84, 0
1, 132148, Note_on_c, 0, 82, 35
1, 132198, Note_on_c, 0, 82, 0
1, 132198, Note_on_c, 0, 79, 44
1, 132248, Note_on_c, 0, 79, 0
1, 132248, Note_on_c, 0, 82, 35
1, 132298, Note_on_c, 0, 82, 0
1, 132298, Note_on_c, 0, 80, 35
1, 132349, Note_on_c, 0, 80, 0
1, 132349, Note_on_c, 0, 76, 44
1, 132359, Control_c, 0, 64, 0
1, 132380, Control_c, 0, 64, 127
1, 132399, Note_on_c, 0, 76, 0
1, 132399, Note_on_c, 0, 79, 35
1, 132449, Note_on_c, 0, 79, 0
1, 132449, Note_on_c, 0, 77, 35
1, 132500, Note_on_c, 0, 77, 0
1, 132500, Note_on_c, 0, 73, 41
1, 132550, Note_on_c, 0, 73, 0
1, 132550, Note_on_c, 0, 75, 35
1, 132601, Note_on_c, 0, 75, 0
1, 132601, Note_on_c, 0, 74, 35
1, 132653, Note_on_c, 0, 74, 0
1, 132653, Note_on_c, 0, 71, 41
1, 132704, Note_on_c, 0, 71, 0
1, 132704, Note_on_c, 0, 74, 34
1, 132756, Note_on_c, 0, 74, 0
1, 132756, Note_on_c, 0, 72, 34
1, 132808, Note_on_c, 0, 72, 0
1, 132808, Note_on_c, 0, 68, 41
1, 132860, Note_on_c, 0, 68, 0
1, 132860, Note_on_c, 0, 72, 33
1, 132913, Note_on_c, 0, 72, 0
1, 132913, Note_on_c, 0, 70, 33
1, 132966, Note_on_c, 0, 70, 0
1, 132966, Note_on_c, 0, 67, 40
1, 132975, Control_c, 0, 64, 0
1, 133006, Control_c, 0, 64, 127
1, 133019, Note_on_c, 0, 67, 0
1, 133019, Note_on_c, 0, 70, 31
1, 133072, Note_on_c, 0, 70, 0
1, 133072, Note_on_c, 0, 68, 31
1, 133126, Note_on_c, 0, 68, 0
1, 133126, Note_on_c, 0, 64, 40
1, 133180, Note_on_c, 0, 64, 0
1, 133180, Note_on_c, 0, 67, 29
1, 133234, Note_on_c, 0, 67, 0
1, 133234, Note_on_c, 0, 65, 29
1, 133288, Note_on_c, 0, 65, 0
1, 133288, Note_on_c, 0, 61, 39
1, 133343, Note_on_c, 0, 61, 0
1, 133343, Note_on_c, 0, 63, 30
1, 133398, Note_on_c, 0, 63, 0
1, 133398, Note_on_c, 0, 62, 30
1, 133453, Note_on_c, 0, 62, 0
1, 133453, Note_on_c, 0, 59, 39
1, 133509, Note_on_c, 0, 59, 0
1, 133509, Note_on_c, 0, 62, 30
1, 133564, Note_on_c, 0, 62, 0
1, 133564, Note_on_c, 0, 60, 30
1, 133620, Note_on_c, 0, 60, 0
1, 133620, Note_on_c, 0, 57, 38
1, 133628, Control_c, 0, 64, 0
1, 133650, Control_c, 0, 64, 127
1, 133677, Note_on_c, 0, 57, 0
1, 133677, Note_on_c, 0, 58, 31
1, 133736, Note_on_c, 0, 58, 0
1, 133736, Note_on_c, 0, 60, 31
1, 133797, Note_on_c, 0, 60, 0
1, 133797, Note_on_c, 0, 58, 39
1, 133862, Note_on_c, 0, 58, 0
1, 133862, Note_on_c, 0, 57, 32
1, 133929, Note_on_c, 0, 57, 0
1, 133929, Note_on_c, 0, 58, 47
1, 134014, Note_on_c, 0, 58, 0
1, 134014, Note_on_c, 0, 62, 49
1, 134034, Control_c, 0, 64, 0
1, 134049, Note_on_c, 0, 62, 0
1, 134156, Note_on_c, 0, 53, 39
1, 134298, Note_on_c, 0, 62, 56
1, 134298, Note_on_c, 0, 53, 0
1, 134298, Note_on_c, 0, 46, 41
1, 134426, Note_on_c, 0, 46, 0
1, 134426, Note_on_c, 0, 39, 34
1, 134553, Note_on_c, 0, 62, 0
1, 134553, Note_on_c, 0, 60, 52
1, 134613, Note_on_c, 0, 60, 0
1, 134672, Note_on_c, 0, 39, 0
1, 134672, Note_on_c, 0, 53, 40
1, 134790, Note_on_c, 0, 60, 56
1, 134790, Note_on_c, 0, 53, 0
1, 134790, Note_on_c, 0, 46, 41
1, 134904, Note_on_c, 0, 46, 0
1, 134904, Note_on_c, 0, 39, 35
1, 135017, Note_on_c, 0, 60, 0
1, 135017, Note_on_c, 0, 55, 52
1, 135076, Note_on_c, 0, 55, 0
1, 135135, Note_on_c, 0, 39, 0
1, 135135, Note_on_c, 0, 51, 37
1, 135254, Note_on_c, 0, 58, 46
1, 135254, Note_on_c, 0, 51, 0
1, 135254, Note_on_c, 0, 46, 41
1, 135340, Note_on_c, 0, 58, 0
1, 135369, Note_on_c, 0, 46, 0
1, 135369, Note_on_c, 0, 39, 34
1, 135455, Note_on_c, 0, 60, 48
1, 135484, Note_on_c, 0, 60, 0
1, 135484, Note_on_c, 0, 58, 49
1, 135570, Note_on_c, 0, 58, 0
1, 135599, Note_on_c, 0, 39, 0
1, 135599, Note_on_c, 0, 51, 40
1, 135656, Note_on_c, 0, 57, 46
1, 135713, Note_on_c, 0, 57, 0
1, 135713, Note_on_c, 0, 58, 52
1, 135713, Note_on_c, 0, 51, 0
1, 135716, Note_on_c, 0, 46, 41
1, 135837, Note_on_c, 0, 58, 0
1, 135837, Note_on_c, 0, 46, 0
1, 135837, Note_on_c, 0, 39, 37
1, 135960, Note_on_c, 0, 53, 52
1, 136018, Note_on_c, 0, 53, 0
1, 136075, Note_on_c, 0, 55, 49
1, 136075, Note_on_c, 0, 39, 0
1, 136075, Note_on_c, 0, 50, 39
1, 136133, Note_on_c, 0, 55, 0
1, 136190, Note_on_c, 0, 56, 50
1, 136190, Note_on_c, 0, 50, 0
1, 136190, Note_on_c, 0, 46, 41
1, 136247, Note_on_c, 0, 56, 0
1, 136303, Note_on_c, 0, 60, 50
1, 136303, Note_on_c, 0, 46, 0
1, 136303, Note_on_c, 0, 39, 36
1, 136360, Note_on_c, 0, 60, 0
1, 136416, Note_on_c, 0, 58, 52
1, 136473, Note_on_c, 0, 58, 0
1, 136530, Note_on_c, 0, 56, 48
1, 136530, Note_on_c, 0, 39, 0
1, 136530, Note_on_c, 0, 50, 39
1, 136586, Note_on_c, 0, 56, 0
1, 136643, Note_on_c, 0, 55, 49
1, 136643, Note_on_c, 0, 50, 0
1, 136643, Note_on_c, 0, 46, 41
1, 136699, Note_on_c, 0, 55, 0
1, 136756, Note_on_c, 0, 53, 49
1, 136756, Note_on_c, 0, 46, 0
1, 136756, Note_on_c, 0, 39, 36
1, 136798, Note_on_c, 0, 53, 0
1, 136841, Note_on_c, 0, 57, 46
1, 136869, Note_on_c, 0, 57, 0
1, 136869, Note_on_c, 0, 58, 52
1, 136929, Note_on_c, 0, 58, 0
1, 136989, Note_on_c, 0, 39, 0
1, 136989, Note_on_c, 0, 55, 39
1, 137108, Note_on_c, 0, 58, 46
1, 137108, Note_on_c, 0, 55, 0
1, 137108, Note_on_c, 0, 46, 41
1, 137193, Note_on_c, 0, 58, 0
1, 137221, Note_on_c, 0, 58, 48
1, 137221, Note_on_c, 0, 46, 0
1, 137221, Note_on_c, 0, 39, 35
1, 137278, Note_on_c, 0, 58, 0
1, 137278, Note_on_c, 0, 60, 48
1, 137334, Note_on_c, 0, 60, 0
1, 137334, Note_on_c, 0, 58, 49
1, 137419, Note_on_c, 0, 58, 0
1, 137448, Note_on_c, 0, 39, 0
1, 137448, Note_on_c, 0, 55, 39
1, 137504, Note_on_c, 0, 57, 46
1, 137561, Note_on_c, 0, 57, 0
1, 137561, Note_on_c, 0, 58, 52
1, 137561, Note_on_c, 0, 55, 0
1, 137564, Note_on_c, 0, 46, 41
1, 137682, Note_on_c, 0, 46, 0
1, 137682, Note_on_c, 0, 39, 36
1, 137804, Note_on_c, 0, 58, 0
1, 137804, Note_on_c, 0, 62, 49
1, 137835, Note_on_c, 0, 62, 0
1, 137929, Note_on_c, 0, 39, 0
1, 137929, Note_on_c, 0, 53, 39
1, 138055, Note_on_c, 0, 62, 55
1, 138055, Note_on_c, 0, 53, 0
1, 138055, Note_on_c, 0, 46, 41
1, 138173, Note_on_c, 0, 46, 0
1, 138173, Note_on_c, 0, 39, 34
1, 138292, Note_on_c, 0, 62, 0
1, 138292, Note_on_c, 0, 60, 52
1, 138351, Note_on_c, 0, 60, 0
1, 138410, Note_on_c, 0, 39, 0
1, 138410, Note_on_c, 0, 53, 40
1, 138529, Note_on_c, 0, 60, 56
1, 138529, Note_on_c, 0, 53, 0
1, 138529, Note_on_c, 0, 46, 41
1, 138642, Note_on_c, 0, 46, 0
1, 138642, Note_on_c, 0, 39, 35
1, 138755, Note_on_c, 0, 60, 0
1, 138755, Note_on_c, 0, 55, 49
1, 138814, Note_on_c, 0, 55, 0
1, 138874, Note_on_c, 0, 39, 0
1, 138874, Note_on_c, 0, 51, 37
1, 138992, Note_on_c, 0, 58, 56
1, 138992, Note_on_c, 0, 51, 0
1, 138992, Note_on_c, 0, 46, 41
1, 139078, Note_on_c, 0, 58, 0
1, 139107, Note_on_c, 0, 46, 0
1, 139107, Note_on_c, 0, 39, 34
1, 139193, Note_on_c, 0, 60, 48
1, 139222, Note_on_c, 0, 60, 0
1, 139222, Note_on_c, 0, 58, 49
1, 139308, Note_on_c, 0, 58, 0
1, 139337, Note_on_c, 0, 39, 0
1, 139337, Note_on_c, 0, 51, 40
1, 139394, Note_on_c, 0, 57, 46
1, 139452, Note_on_c, 0, 57, 0
1, 139452, Note_on_c, 0, 58, 52
1, 139452, Note_on_c, 0, 51, 0
1, 139455, Note_on_c, 0, 46, 41
1, 139575, Note_on_c, 0, 58, 0
1, 139575, Note_on_c, 0, 46, 0
1, 139575, Note_on_c, 0, 39, 37
1, 139699, Note_on_c, 0, 53, 52
1, 139756, Note_on_c, 0, 53, 0
1, 139814, Note_on_c, 0, 55, 49
1, 139814, Note_on_c, 0, 39, 0
1, 139814, Note_on_c, 0, 50, 39
1, 139871, Note_on_c, 0, 55, 0
1, 139929, Note_on_c, 0, 56, 50
1, 139929, Note_on_c, 0, 50, 0
1, 139929, Note_on_c, 0, 46, 41
1, 139985, Note_on_c, 0, 56, 0
1, 140042, Note_on_c, 0, 60, 50
1, 140042, Note_on_c, 0, 46, 0
1, 140042, Note_on_c, 0, 39, 36
1, 140098, Note_on_c, 0, 60, 0
1, 140155, Note_on_c, 0, 58, 52
1, 140211, Note_on_c, 0, 58, 0
1, 140268, Note_on_c, 0, 56, 48
1, 140268, Note_on_c, 0, 39, 0
1, 140268, Note_on_c, 0, 50, 39
1, 140325, Note_on_c, 0, 56, 0
1, 140381, Note_on_c, 0, 55, 49
1, 140381, Note_on_c, 0, 50, 0
1, 140381, Note_on_c, 0, 46, 41
1, 140438, Note_on_c, 0, 55, 0
1, 140494, Note_on_c, 0, 53, 49
1, 140494, Note_on_c, 0, 46, 0
1, 140494, Note_on_c, 0, 39, 36
1, 140551, Note_on_c, 0, 53, 0
1, 140608, Note_on_c, 0, 55, 53
1, 140664, Note_on_c, 0, 55, 0
1, 140721, Note_on_c, 0, 39, 0
1, 140721, Note_on_c, 0, 46, 39
1, 140834, Note_on_c, 0, 51, 56
1, 140834, Note_on_c, 0, 46, 0
1, 140834, Note_on_c, 0, 39, 41
1, 140947, Note_on_c, 0, 39, 0
1, 140947, Note_on_c, 0, 46, 36
1, 141173, Note_on_c, 0, 46, 0
1, 141173, Note_on_c, 0, 46, 39
1, 141287, Note_on_c, 0, 51, 0
1, 141287, Note_on_c, 0, 54, 45
1, 141287, Note_on_c, 0, 46, 0
1, 141290, Note_on_c, 0, 39, 41
1, 141343, Note_on_c, 0, 54, 0
1, 141343, Note_on_c, 0, 55, 47
1, 141400, Note_on_c, 0, 55, 0
1, 141400, Note_on_c, 0, 57, 49
1, 141400, Note_on_c, 0, 39, 0
1, 141403, Note_on_c, 0, 46, 36
1, 141456, Note_on_c, 0, 57, 0
1, 141456, Note_on_c, 0, 58, 51
1, 141513, Note_on_c, 0, 58, 0
1, 141513, Note_on_c, 0, 62, 49
1, 141513, Note_on_c, 0, 46, 0
1, 141543, Note_on_c, 0, 62, 0
1, 141634, Note_on_c, 0, 53, 39
1, 141756, Note_on_c, 0, 62, 55
1, 141756, Note_on_c, 0, 53, 0
1, 141756, Note_on_c, 0, 46, 41
1, 141876, Note_on_c, 0, 46, 0
1, 141876, Note_on_c, 0, 39, 34
1, 141997, Note_on_c, 0, 62, 0
1, 141997, Note_on_c, 0, 60, 51
1, 142056, Note_on_c, 0, 60, 0
1, 142115, Note_on_c, 0, 39, 0
1, 142115, Note_on_c, 0, 53, 40
1, 142234, Note_on_c, 0, 60, 56
1, 142234, Note_on_c, 0, 53, 0
1, 142234, Note_on_c, 0, 46, 41
1, 142347, Note_on_c, 0, 46, 0
1, 142347, Note_on_c, 0, 39, 35
1, 142460, Note_on_c, 0, 60, 0
1, 142460, Note_on_c, 0, 55, 52
1, 142519, Note_on_c, 0, 55, 0
1, 142579, Note_on_c, 0, 39, 0
1, 142579, Note_on_c, 0, 51, 37
1, 142697, Note_on_c, 0, 58, 46
1, 142697, Note_on_c, 0, 51, 0
1, 142697, Note_on_c, 0, 46, 41
1, 142783, Note_on_c, 0, 58, 0
1, 142812, Note_on_c, 0, 46, 0
1, 142812, Note_on_c, 0, 39, 34
1, 142898, Note_on_c, 0, 60, 48
1, 142927, Note_on_c, 0, 60, 0
1, 142927, Note_on_c, 0, 58, 49
1, 143013, Note_on_c, 0, 58, 0
1, 143042, Note_on_c, 0, 39, 0
1, 143042, Note_on_c, 0, 51, 40
1, 143099, Note_on_c, 0, 57, 46
1, 143157, Note_on_c, 0, 57, 0
1, 143157, Note_on_c, 0, 58, 52
1, 143157, Note_on_c, 0, 51, 0
1, 143160, Note_on_c, 0, 46, 41
1, 143280, Note_on_c, 0, 58, 0
1, 143280, Note_on_c, 0, 46, 0
1, 143280, Note_on_c, 0, 39, 37
1, 143404, Note_on_c, 0, 53, 52
1, 143461, Note_on_c, 0, 53, 0
1, 143519, Note_on_c, 0, 55, 49
1, 143519, Note_on_c, 0, 39, 0
1, 143519, Note_on_c, 0, 50, 39
1, 143576, Note_on_c, 0, 55, 0
1, 143633, Note_on_c, 0, 56, 50
1, 143633, Note_on_c, 0, 50, 0
1, 143633, Note_on_c, 0, 46, 41
1, 143690, Note_on_c, 0, 56, 0
1, 143747, Note_on_c, 0, 60, 50
1, 143747, Note_on_c, 0, 46, 0
1, 143747, Note_on_c, 0, 39, 36
1, 143803, Note_on_c, 0, 60, 0
1, 143860, Note_on_c, 0, 58, 52
1, 143916, Note_on_c, 0, 58, 0
1, 143973, Note_on_c, 0, 56, 48
1, 143973, Note_on_c, 0, 39, 0
1, 143973, Note_on_c, 0, 50, 39
1, 144030, Note_on_c, 0, 56, 0
1, 144086, Note_on_c, 0, 55, 49
1, 144086, Note_on_c, 0, 50, 0
1, 144086, Note_on_c, 0, 46, 41
1, 144143, Note_on_c, 0, 55, 0
1, 144199, Note_on_c, 0, 53, 49
1, 144199, Note_on_c, 0, 46, 0
1, 144199, Note_on_c, 0, 39, 36
1, 144242, Note_on_c, 0, 53, 0
1, 144284, Note_on_c, 0, 57, 46
1, 144312, Note_on_c, 0, 57, 0
1, 144312, Note_on_c, 0, 58, 52
1, 144372, Note_on_c, 0, 58, 0
1, 144432, Note_on_c, 0, 39, 0
1, 144432, Note_on_c, 0, 55, 39
1, 144551, Note_on_c, 0, 58, 46
1, 144551, Note_on_c, 0, 55, 0
1, 144551, Note_on_c, 0, 46, 41
1, 144636, Note_on_c, 0, 58, 0
1, 144665, Note_on_c, 0, 58, 48
1, 144665, Note_on_c, 0, 46, 0
1, 144665, Note_on_c, 0, 39, 35
1, 144721, Note_on_c, 0, 58, 0
1, 144721, Note_on_c, 0, 60, 48
1, 144778, Note_on_c, 0, 60, 0
1, 144778, Note_on_c, 0, 58, 49
1, 144863, Note_on_c, 0, 58, 0
1, 144891, Note_on_c, 0, 39, 0
1, 144891, Note_on_c, 0, 55, 39
1, 144948, Note_on_c, 0, 57, 46
1, 145004, Note_on_c, 0, 57, 0
1, 145004, Note_on_c, 0, 58, 52
1, 145004, Note_on_c, 0, 55, 0
1, 145007, Note_on_c, 0, 46, 41
1, 145126, Note_on_c, 0, 46, 0
1, 145126, Note_on_c, 0, 39, 36
1, 145247, Note_on_c, 0, 58, 0
1, 145247, Note_on_c, 0, 62, 49
1, 145278, Note_on_c, 0, 62, 0
1, 145372, Note_on_c, 0, 39, 0
1, 145372, Note_on_c, 0, 53, 39
1, 145498, Note_on_c, 0, 62, 54
1, 145498, Note_on_c, 0, 53, 0
1, 145498, Note_on_c, 0, 46, 41
1, 145616, Note_on_c, 0, 46, 0
1, 145616, Note_on_c, 0, 39, 34
1, 145735, Note_on_c, 0, 62, 0
1, 145735, Note_on_c, 0, 60, 49
1, 145794, Note_on_c, 0, 60, 0
1, 145854, Note_on_c, 0, 39, 0
1, 145854, Note_on_c, 0, 53, 40
1, 145972, Note_on_c, 0, 60, 55
1, 145972, Note_on_c, 0, 53, 0
1, 145972, Note_on_c, 0, 46, 41
1, 146085, Note_on_c, 0, 46, 0
1, 146085, Note_on_c, 0, 39, 35
1, 146198, Note_on_c, 0, 60, 0
1, 146198, Note_on_c, 0, 55, 52
1, 146258, Note_on_c, 0, 55, 0
1, 146317, Note_on_c, 0, 39, 0
1, 146317, Note_on_c, 0, 51, 37
1, 146436, Note_on_c, 0, 58, 46
1, 146436, Note_on_c, 0, 51, 0
1, 146436, Note_on_c, 0, 46, 41
1, 146522, Note_on_c, 0, 58, 0
1, 146550, Note_on_c, 0, 46, 0
1, 146550, Note_on_c, 0, 39, 34
1, 146637, Note_on_c, 0, 60, 48
1, 146665, Note_on_c, 0, 60, 0
1, 146665, Note_on_c, 0, 58, 49
1, 146752, Note_on_c, 0, 58, 0
1, 146780, Note_on_c, 0, 39, 0
1, 146780, Note_on_c, 0, 51, 40
1, 146838, Note_on_c, 0, 57, 46
1, 146895, Note_on_c, 0, 57, 0
1, 146895, Note_on_c, 0, 58, 52
1, 146895, Note_on_c, 0, 51, 0
1, 146898, Note_on_c, 0, 46, 41
1, 147019, Note_on_c, 0, 58, 0
1, 147019, Note_on_c, 0, 46, 0
1, 147019, Note_on_c, 0, 39, 37
1, 147142, Note_on_c, 0, 53, 52
1, 147199, Note_on_c, 0, 53, 0
1, 147257, Note_on_c, 0, 55, 49
1, 147257, Note_on_c, 0, 39, 0
1, 147257, Note_on_c, 0, 50, 39
1, 147314, Note_on_c, 0, 55, 0
1, 147372, Note_on_c, 0, 56, 50
1, 147372, Note_on_c, 0, 50, 0
1, 147372, Note_on_c, 0, 46, 41
1, 147428, Note_on_c, 0, 56, 0
1, 147485, Note_on_c, 0, 60, 50
1, 147485, Note_on_c, 0, 46, 0
1, 147485, Note_on_c, 0, 39, 36
1, 147542, Note_on_c, 0, 60, 0
1, 147598, Note_on_c, 0, 58, 52
1, 147655, Note_on_c, 0, 58, 0
1, 147711, Note_on_c, 0, 56, 48
1, 147711, Note_on_c, 0, 39, 0
1, 147711, Note_on_c, 0, 50, 39
1, 147768, Note_on_c, 0, 56, 0
1, 147825, Note_on_c, 0, 55, 49
1, 147825, Note_on_c, 0, 50, 0
1, 147825, Note_on_c, 0, 46, 41
1, 147881, Note_on_c, 0, 55, 0
1, 147938, Note_on_c, 0, 53, 49
1, 147938, Note_on_c, 0, 46, 0
1, 147938, Note_on_c, 0, 39, 36
1, 147994, Note_on_c, 0, 53, 0
1, 148051, Note_on_c, 0, 55, 56
1, 148107, Note_on_c, 0, 55, 0
1, 148164, Note_on_c, 0, 39, 0
1, 148164, Note_on_c, 0, 46, 39
1, 148277, Note_on_c, 0, 51, 58
1, 148277, Note_on_c, 0, 46, 0
1, 148277, Note_on_c, 0, 39, 41
1, 148390, Note_on_c, 0, 39, 0
1, 148390, Note_on_c, 0, 46, 36
1, 148617, Note_on_c, 0, 46, 0
1, 148617, Note_on_c, 0, 51, 39
1, 148673, Note_on_c, 0, 66, 41
1, 148702, Note_on_c, 0, 69, 49
1, 148730, Note_on_c, 0, 69, 0
1, 148730, Note_on_c, 0, 66, 0
1, 148730, Note_on_c, 0, 51, 0
1, 148733, Note_on_c, 0, 70, 49
1, 148733, Note_on_c, 0, 67, 41
1, 148733, Note_on_c, 0, 51, 0
1, 148736, Note_on_c, 0, 46, 41
1, 148843, Note_on_c, 0, 46, 0
1, 148843, Note_on_c, 0, 39, 36
1, 148956, Note_on_c, 0, 67, 0
1, 148956, Note_on_c, 0, 70, 0
1, 148956, Note_on_c, 0, 74, 49
1, 148959, Note_on_c, 0, 65, 41
1, 148959, Note_on_c, 0, 70, 41
1, 149012, Control_c, 0, 64, 127
1, 149019, Note_on_c, 0, 70, 0
1, 149019, Note_on_c, 0, 65, 0
1, 149019, Note_on_c, 0, 74, 0
1, 149082, Note_on_c, 0, 39, 0
1, 149082, Note_on_c, 0, 53, 39
1, 149207, Note_on_c, 0, 74, 49
1, 149207, Note_on_c, 0, 65, 41
1, 149207, Note_on_c, 0, 70, 41
1, 149210, Note_on_c, 0, 53, 0
1, 149210, Note_on_c, 0, 46, 41
1, 149326, Note_on_c, 0, 46, 0
1, 149326, Note_on_c, 0, 39, 34
1, 149444, Note_on_c, 0, 70, 0
1, 149444, Note_on_c, 0, 65, 0
1, 149444, Note_on_c, 0, 74, 0
1, 149447, Note_on_c, 0, 72, 52
1, 149447, Note_on_c, 0, 68, 44
1, 149464, Control_c, 0, 64, 0
1, 149527, Control_c, 0, 64, 127
1, 149533, Note_on_c, 0, 68, 0
1, 149533, Note_on_c, 0, 72, 0
1, 149563, Note_on_c, 0, 39, 0
1, 149563, Note_on_c, 0, 53, 40
1, 149681, Note_on_c, 0, 72, 47
1, 149681, Note_on_c, 0, 62, 39
1, 149681, Note_on_c, 0, 68, 39
1, 149684, Note_on_c, 0, 53, 0
1, 149684, Note_on_c, 0, 46, 41
1, 149795, Note_on_c, 0, 46, 0
1, 149795, Note_on_c, 0, 39, 35
1, 149908, Note_on_c, 0, 68, 0
1, 149908, Note_on_c, 0, 62, 0
1, 149908, Note_on_c, 0, 72, 0
1, 149911, Note_on_c, 0, 67, 52
1, 149911, Note_on_c, 0, 63, 44
1, 149911, Control_c, 0, 64, 0
1, 149938, Control_c, 0, 64, 127
1, 149997, Note_on_c, 0, 63, 0
1, 149997, Note_on_c, 0, 67, 0
1, 150026, Note_on_c, 0, 39, 0
1, 150026, Note_on_c, 0, 55, 37
1, 150145, Note_on_c, 0, 67, 46
1, 150145, Note_on_c, 0, 70, 46
1, 150145, Note_on_c, 0, 58, 39
1, 150148, Note_on_c, 0, 55, 0
1, 150148, Note_on_c, 0, 46, 41
1, 150231, Note_on_c, 0, 58, 0
1, 150231, Note_on_c, 0, 70, 0
1, 150231, Note_on_c, 0, 67, 0
1, 150260, Note_on_c, 0, 46, 0
1, 150260, Note_on_c, 0, 39, 34
1, 150317, Note_on_c, 0, 72, 48
1, 150375, Note_on_c, 0, 72, 0
1, 150375, Note_on_c, 0, 70, 49
1, 150375, Note_on_c, 0, 67, 41
1, 150380, Control_c, 0, 64, 0
1, 150410, Control_c, 0, 64, 127
1, 150461, Note_on_c, 0, 67, 0
1, 150461, Note_on_c, 0, 70, 0
1, 150490, Note_on_c, 0, 39, 0
1, 150490, Note_on_c, 0, 55, 40
1, 150547, Note_on_c, 0, 69, 46
1, 150547, Note_on_c, 0, 66, 39
1, 150604, Note_on_c, 0, 66, 0
1, 150604, Note_on_c, 0, 69, 0
1, 150604, Note_on_c, 0, 70, 52
1, 150607, Note_on_c, 0, 67, 44
1, 150607, Note_on_c, 0, 55, 0
1, 150607, Note_on_c, 0, 46, 41
1, 150728, Note_on_c, 0, 67, 0
1, 150728, Note_on_c, 0, 70, 0
1, 150728, Note_on_c, 0, 46, 0
1, 150731, Note_on_c, 0, 39, 37
1, 150851, Note_on_c, 0, 65, 52
1, 150851, Note_on_c, 0, 58, 44
1, 150865, Control_c, 0, 64, 0
1, 150909, Note_on_c, 0, 65, 0
1, 150966, Note_on_c, 0, 67, 49
1, 150966, Note_on_c, 0, 39, 0
1, 150966, Note_on_c, 0, 50, 39
1, 151024, Note_on_c, 0, 67, 0
1, 151081, Note_on_c, 0, 68, 50
1, 151081, Note_on_c, 0, 50, 0
1, 151081, Note_on_c, 0, 46, 41
1, 151138, Note_on_c, 0, 68, 0
1, 151194, Note_on_c, 0, 72, 50
1, 151194, Note_on_c, 0, 46, 0
1, 151194, Note_on_c, 0, 39, 36
1, 151251, Note_on_c, 0, 72, 0
1, 151307, Note_on_c, 0, 58, 0
1, 151307, Note_on_c, 0, 70, 52
1, 151364, Note_on_c, 0, 70, 0
1, 151421, Note_on_c, 0, 68, 48
1, 151421, Note_on_c, 0, 39, 0
1, 151421, Note_on_c, 0, 50, 39
1, 151477, Note_on_c, 0, 68, 0
1, 151534, Note_on_c, 0, 67, 49
1, 151534, Note_on_c, 0, 50, 0
1, 151534, Note_on_c, 0, 46, 41
1, 151590, Note_on_c, 0, 67, 0
1, 151647, Note_on_c, 0, 65, 49
1, 151647, Note_on_c, 0, 46, 0
1, 151647, Note_on_c, 0, 39, 36
1, 151704, Note_on_c, 0, 65, 0
1, 151760, Note_on_c, 0, 67, 52
1, 151760, Note_on_c, 0, 70, 52
1, 151779, Control_c, 0, 64, 127
1, 151845, Note_on_c, 0, 70, 0
1, 151845, Note_on_c, 0, 67, 0
1, 151873, Note_on_c, 0, 39, 0
1, 151873, Note_on_c, 0, 51, 39
1, 151986, Note_on_c, 0, 67, 46
1, 151986, Note_on_c, 0, 70, 46
1, 151986, Note_on_c, 0, 58, 39
1, 151989, Note_on_c, 0, 51, 0
1, 151989, Note_on_c, 0, 46, 41
1, 152071, Note_on_c, 0, 58, 0
1, 152071, Note_on_c, 0, 70, 0
1, 152071, Note_on_c, 0, 67, 0
1, 152100, Note_on_c, 0, 46, 0
1, 152100, Note_on_c, 0, 39, 36
1, 152184, Note_on_c, 0, 72, 48
1, 152213, Note_on_c, 0, 72, 0
1, 152213, Note_on_c, 0, 70, 49
1, 152213, Note_on_c, 0, 67, 41
1, 152222, Control_c, 0, 64, 0
1, 152245, Control_c, 0, 64, 127
1, 152298, Note_on_c, 0, 67, 0
1, 152298, Note_on_c, 0, 70, 0
1, 152326, Note_on_c, 0, 39, 0
1, 152326, Note_on_c, 0, 51, 39
1, 152383, Note_on_c, 0, 69, 46
1, 152383, Note_on_c, 0, 66, 39
1, 152439, Note_on_c, 0, 66, 0
1, 152439, Note_on_c, 0, 69, 0
1, 152439, Note_on_c, 0, 70, 52
1, 152442, Note_on_c, 0, 67, 44
1, 152442, Note_on_c, 0, 51, 0
1, 152442, Note_on_c, 0, 46, 41
1, 152552, Note_on_c, 0, 67, 0
1, 152552, Note_on_c, 0, 70, 0
1, 152552, Note_on_c, 0, 46, 0
1, 152555, Note_on_c, 0, 39, 36
1, 152665, Note_on_c, 0, 86, 49
1, 152665, Note_on_c, 0, 77, 41
1, 152665, Note_on_c, 0, 82, 41
1, 152668, Control_c, 0, 64, 0
1, 152721, Control_c, 0, 64, 127
1, 152728, Note_on_c, 0, 82, 0
1, 152728, Note_on_c, 0, 77, 0
1, 152728, Note_on_c, 0, 86, 0
1, 152791, Note_on_c, 0, 39, 0
1, 152791, Note_on_c, 0, 53, 39
1, 152916, Note_on_c, 0, 86, 49
1, 152916, Note_on_c, 0, 77, 41
1, 152916, Note_on_c, 0, 82, 41
1, 152919, Note_on_c, 0, 53, 0
1, 152919, Note_on_c, 0, 46, 41
1, 153035, Note_on_c, 0, 46, 0
1, 153035, Note_on_c, 0, 39, 34
1, 153154, Note_on_c, 0, 82, 0
1, 153154, Note_on_c, 0, 77, 0
1, 153154, Note_on_c, 0, 86, 0
1, 153157, Note_on_c, 0, 84, 52
1, 153157, Note_on_c, 0, 80, 44
1, 153173, Control_c, 0, 64, 0
1, 153237, Control_c, 0, 64, 127
1, 153242, Note_on_c, 0, 80, 0
1, 153242, Note_on_c, 0, 84, 0
1, 153272, Note_on_c, 0, 39, 0
1, 153272, Note_on_c, 0, 53, 40
1, 153391, Note_on_c, 0, 84, 47
1, 153391, Note_on_c, 0, 74, 39
1, 153391, Note_on_c, 0, 80, 39
1, 153394, Note_on_c, 0, 53, 0
1, 153394, Note_on_c, 0, 46, 41
1, 153504, Note_on_c, 0, 46, 0
1, 153504, Note_on_c, 0, 39, 35
1, 153617, Note_on_c, 0, 80, 0
1, 153617, Note_on_c, 0, 74, 0
1, 153617, Note_on_c, 0, 84, 0
1, 153620, Note_on_c, 0, 79, 52
1, 153620, Note_on_c, 0, 75, 44
1, 153620, Control_c, 0, 64, 0
1, 153648, Control_c, 0, 64, 127
1, 153706, Note_on_c, 0, 75, 0
1, 153706, Note_on_c, 0, 79, 0
1, 153735, Note_on_c, 0, 39, 0
1, 153735, Note_on_c, 0, 55, 37
1, 153854, Note_on_c, 0, 79, 46
1, 153854, Note_on_c, 0, 82, 46
1, 153854, Note_on_c, 0, 70, 39
1, 153857, Note_on_c, 0, 55, 0
1, 153857, Note_on_c, 0, 46, 41
1, 153940, Note_on_c, 0, 70, 0
1, 153940, Note_on_c, 0, 82, 0
1, 153940, Note_on_c, 0, 79, 0
1, 153969, Note_on_c, 0, 46, 0
1, 153969, Note_on_c, 0, 39, 34
1, 154055, Note_on_c, 0, 84, 48
1, 154084, Note_on_c, 0, 84, 0
1, 154084, Note_on_c, 0, 82, 49
1, 154084, Note_on_c, 0, 79, 41
1, 154090, Control_c, 0, 64, 0
1, 154119, Control_c, 0, 64, 127
1, 154170, Note_on_c, 0, 79, 0
1, 154170, Note_on_c, 0, 82, 0
1, 154199, Note_on_c, 0, 39, 0
1, 154199, Note_on_c, 0, 55, 40
1, 154256, Note_on_c, 0, 81, 46
1, 154256, Note_on_c, 0, 78, 39
1, 154314, Note_on_c, 0, 78, 0
1, 154314, Note_on_c, 0, 81, 0
1, 154314, Note_on_c, 0, 82, 52
1, 154317, Note_on_c, 0, 79, 44
1, 154317, Note_on_c, 0, 55, 0
1, 154317, Note_on_c, 0, 46, 41
1, 154437, Note_on_c, 0, 79, 0
1, 154437, Note_on_c, 0, 82, 0
1, 154437, Note_on_c, 0, 46, 0
1, 154440, Note_on_c, 0, 39, 37
1, 154561, Note_on_c, 0, 77, 52
1, 154561, Note_on_c, 0, 70, 44
1, 154574, Control_c, 0, 64, 0
1, 154618, Note_on_c, 0, 77, 0
1, 154675, Note_on_c, 0, 79, 49
1, 154675, Note_on_c, 0, 39, 0
1, 154675, Note_on_c, 0, 50, 39
1, 154733, Note_on_c, 0, 79, 0
1, 154790, Note_on_c, 0, 80, 50
1, 154790, Note_on_c, 0, 50, 0
1, 154790, Note_on_c, 0, 46, 41
1, 154847, Note_on_c, 0, 80, 0
1, 154904, Note_on_c, 0, 84, 50
1, 154904, Note_on_c, 0, 46, 0
1, 154904, Note_on_c, 0, 39, 36
1, 154960, Note_on_c, 0, 84, 0
1, 155017, Note_on_c, 0, 70, 0
1, 155017, Note_on_c, 0, 70, 44
1, 155017, Note_on_c, 0, 82, 52
1, 155073, Note_on_c, 0, 82, 0
1, 155130, Note_on_c, 0, 80, 48
1, 155130, Note_on_c, 0, 39, 0
1, 155130, Note_on_c, 0, 50, 39
1, 155186, Note_on_c, 0, 80, 0
1, 155243, Note_on_c, 0, 79, 49
1, 155243, Note_on_c, 0, 50, 0
1, 155243, Note_on_c, 0, 46, 41
1, 155300, Note_on_c, 0, 79, 0
1, 155356, Note_on_c, 0, 77, 49
1, 155356, Note_on_c, 0, 46, 0
1, 155356, Note_on_c, 0, 39, 36
1, 155413, Note_on_c, 0, 77, 0
1, 155469, Note_on_c, 0, 70, 0
1, 155469, Note_on_c, 0, 70, 52
1, 155469, Note_on_c, 0, 79, 52
1, 155488, Control_c, 0, 64, 127
1, 155554, Note_on_c, 0, 79, 0
1, 155554, Note_on_c, 0, 70, 0
1, 155583, Note_on_c, 0, 39, 0
1, 155583, Note_on_c, 0, 51, 39
1, 155696, Note_on_c, 0, 70, 46
1, 155696, Note_on_c, 0, 75, 46
1, 155696, Note_on_c, 0, 67, 39
1, 155699, Note_on_c, 0, 51, 0
1, 155699, Note_on_c, 0, 46, 41
1, 155809, Note_on_c, 0, 46, 0
1, 155809, Note_on_c, 0, 39, 36
1, 155931, Control_c, 0, 64, 0
1, 155954, Control_c, 0, 64, 127
1, 156035, Note_on_c, 0, 39, 0
1, 156035, Note_on_c, 0, 51, 39
1, 156092, Note_on_c, 0, 67, 0
1, 156092, Note_on_c, 0, 75, 0
1, 156092, Note_on_c, 0, 70, 0
1, 156120, Note_on_c, 0, 74, 46
1, 156148, Note_on_c, 0, 74, 0
1, 156148, Note_on_c, 0, 67, 36
1, 156148, Note_on_c, 0, 70, 37
1, 156151, Note_on_c, 0, 75, 43
1, 156151, Note_on_c, 0, 51, 0
1, 156151, Note_on_c, 0, 46, 41
1, 156262, Note_on_c, 0, 75, 0
1, 156262, Note_on_c, 0, 70, 0
1, 156262, Note_on_c, 0, 67, 0
1, 156265, Note_on_c, 0, 46, 0
1, 156265, Note_on_c, 0, 39, 36
1, 156375, Note_on_c, 0, 89, 52
1, 156375, Note_on_c, 0, 82, 44
1, 156375, Note_on_c, 0, 39, 0
1, 156388, Control_c, 0, 64, 0
1, 156432, Note_on_c, 0, 89, 0
1, 156490, Note_on_c, 0, 91, 49
1, 156490, Note_on_c, 0, 68, 39
1, 156547, Note_on_c, 0, 91, 0
1, 156605, Note_on_c, 0, 92, 50
1, 156605, Note_on_c, 0, 68, 0
1, 156605, Note_on_c, 0, 62, 41
1, 156661, Note_on_c, 0, 92, 0
1, 156718, Note_on_c, 0, 96, 50
1, 156718, Note_on_c, 0, 62, 0
1, 156718, Note_on_c, 0, 58, 36
1, 156774, Note_on_c, 0, 96, 0
1, 156831, Note_on_c, 0, 82, 0
1, 156831, Note_on_c, 0, 82, 44
1, 156831, Note_on_c, 0, 94, 52
1, 156834, Note_on_c, 0, 58, 0
1, 156887, Note_on_c, 0, 94, 0
1, 156944, Note_on_c, 0, 92, 48
1, 156944, Note_on_c, 0, 50, 39
1, 157001, Note_on_c, 0, 92, 0
1, 157057, Note_on_c, 0, 91, 49
1, 157057, Note_on_c, 0, 50, 0
1, 157057, Note_on_c, 0, 46, 41
1, 157114, Note_on_c, 0, 91, 0
1, 157170, Note_on_c, 0, 89, 49
1, 157170, Note_on_c, 0, 46, 0
1, 157170, Note_on_c, 0, 39, 36
1, 157227, Note_on_c, 0, 89, 0
1, 157284, Note_on_c, 0, 82, 0
1, 157284, Note_on_c, 0, 82, 44
1, 157284, Note_on_c, 0, 94, 52
1, 157287, Note_on_c, 0, 91, 44
1, 157287, Note_on_c, 0, 39, 0
1, 157287, Control_c, 0, 64, 0
1, 157314, Control_c, 0, 64, 127
1, 157372, Note_on_c, 0, 91, 0
1, 157372, Note_on_c, 0, 94, 0
1, 157372, Note_on_c, 0, 82, 0
1, 157402, Note_on_c, 0, 67, 37
1, 157521, Note_on_c, 0, 82, 44
1, 157521, Note_on_c, 0, 94, 49
1, 157521, Note_on_c, 0, 91, 41
1, 157524, Note_on_c, 0, 67, 0
1, 157524, Note_on_c, 0, 63, 41
1, 157636, Note_on_c, 0, 63, 0
1, 157636, Note_on_c, 0, 58, 34
1, 157693, Note_on_c, 0, 91, 0
1, 157693, Note_on_c, 0, 94, 0
1, 157693, Note_on_c, 0, 93, 46
1, 157696, Note_on_c, 0, 90, 39
1, 157750, Note_on_c, 0, 90, 0
1, 157750, Note_on_c, 0, 93, 0
1, 157750, Note_on_c, 0, 82, 0
1, 157753, Note_on_c, 0, 82, 44
1, 157753, Note_on_c, 0, 94, 52
1, 157753, Note_on_c, 0, 91, 44
1, 157756, Note_on_c, 0, 58, 0
1, 157756, Control_c, 0, 64, 0
1, 157788, Control_c, 0, 64, 127
1, 157874, Note_on_c, 0, 51, 40
1, 157997, Note_on_c, 0, 51, 0
1, 157997, Note_on_c, 0, 46, 41
1, 158121, Note_on_c, 0, 46, 0
1, 158121, Note_on_c, 0, 39, 37
1, 158244, Note_on_c, 0, 91, 0
1, 158244, Note_on_c, 0, 94, 0
1, 158244, Note_on_c, 0, 82, 0
1, 158247, Note_on_c, 0, 77, 52
1, 158247, Note_on_c, 0, 70, 44
1, 158247, Note_on_c, 0, 39, 0
1, 158258, Control_c, 0, 64, 0
1, 158302, Note_on_c, 0, 77, 0
1, 158359, Note_on_c, 0, 79, 49
1, 158359, Note_on_c, 0, 68, 39
1, 158416, Note_on_c, 0, 79, 0
1, 158474, Note_on_c, 0, 80, 50
1, 158474, Note_on_c, 0, 68, 0
1, 158474, Note_on_c, 0, 62, 41
1, 158531, Note_on_c, 0, 80, 0
1, 158587, Note_on_c, 0, 84, 50
1, 158587, Note_on_c, 0, 62, 0
1, 158587, Note_on_c, 0, 58, 36
1, 158644, Note_on_c, 0, 84, 0
1, 158700, Note_on_c, 0, 70, 0
1, 158700, Note_on_c, 0, 70, 44
1, 158700, Note_on_c, 0, 82, 52
1, 158703, Note_on_c, 0, 58, 0
1, 158757, Note_on_c, 0, 82, 0
1, 158813, Note_on_c, 0, 80, 48
1, 158813, Note_on_c, 0, 50, 39
1, 158870, Note_on_c, 0, 80, 0
1, 158927, Note_on_c, 0, 79, 49
1, 158927, Note_on_c, 0, 50, 0
1, 158927, Note_on_c, 0, 46, 41
1, 158983, Note_on_c, 0, 79, 0
1, 159040, Note_on_c, 0, 77, 49
1, 159040, Note_on_c, 0, 46, 0
1, 159040, Note_on_c, 0, 39, 36
1, 159096, Note_on_c, 0, 77, 0
1, 159153, Note_on_c, 0, 70, 0
1, 159153, Note_on_c, 0, 70, 52
1, 159153, Note_on_c, 0, 79, 52
1, 159156, Note_on_c, 0, 39, 0
1, 159172, Control_c, 0, 64, 127
1, 159238, Note_on_c, 0, 79, 0
1, 159238, Note_on_c, 0, 70, 0
1, 159266, Note_on_c, 0, 63, 39
1, 159379, Note_on_c, 0, 70, 46
1, 159379, Note_on_c, 0, 75, 46
1, 159379, Note_on_c, 0, 67, 39
1, 159382, Note_on_c, 0, 63, 0
1, 159382, Note_on_c, 0, 58, 41
1, 159492, Note_on_c, 0, 58, 0
1, 159492, Note_on_c, 0, 51, 36
1, 159606, Note_on_c, 0, 51, 0
1, 159615, Control_c, 0, 64, 0
1, 159638, Control_c, 0, 64, 127
1, 159719, Note_on_c, 0, 51, 39
1, 159775, Note_on_c, 0, 67, 0
1, 159775, Note_on_c, 0, 75, 0
1, 159775, Note_on_c, 0, 70, 0
1, 159804, Note_on_c, 0, 74, 46
1, 159832, Note_on_c, 0, 74, 0
1, 159832, Note_on_c, 0, 67, 36
1, 159832, Note_on_c, 0, 70, 37
1, 159835, Note_on_c, 0, 75, 43
1, 159835, Note_on_c, 0, 51, 0
1, 159835, Note_on_c, 0, 46, 41
1, 159945, Note_on_c, 0, 75, 0
1, 159945, Note_on_c, 0, 70, 0
1, 159945, Note_on_c, 0, 67, 0
1, 159948, Note_on_c, 0, 46, 0
1, 159948, Note_on_c, 0, 39, 36
1, 160058, Note_on_c, 0, 89, 52
1, 160058, Note_on_c, 0, 82, 44
1, 160058, Note_on_c, 0, 39, 0
1, 160072, Control_c, 0, 64, 0
1, 160116, Note_on_c, 0, 89, 0
1, 160173, Note_on_c, 0, 91, 49
1, 160173, Note_on_c, 0, 68, 39
1, 160231, Note_on_c, 0, 91, 0
1, 160288, Note_on_c, 0, 92, 50
1, 160288, Note_on_c, 0, 68, 0
1, 160288, Note_on_c, 0, 62, 41
1, 160345, Note_on_c, 0, 92, 0
1, 160401, Note_on_c, 0, 96, 50
1, 160401, Note_on_c, 0, 62, 0
1, 160401, Note_on_c, 0, 58, 36
1, 160458, Note_on_c, 0, 96, 0
1, 160514, Note_on_c, 0, 82, 0
1, 160514, Note_on_c, 0, 82, 44
1, 160514, Note_on_c, 0, 94, 52
1, 160517, Note_on_c, 0, 58, 0
1, 160571, Note_on_c, 0, 94, 0
1, 160628, Note_on_c, 0, 92, 48
1, 160628, Note_on_c, 0, 50, 39
1, 160684, Note_on_c, 0, 92, 0
1, 160741, Note_on_c, 0, 91, 49
1, 160741, Note_on_c, 0, 50, 0
1, 160741, Note_on_c, 0, 46, 41
1, 160797, Note_on_c, 0, 91, 0
1, 160854, Note_on_c, 0, 89, 49
1, 160854, Note_on_c, 0, 46, 0
1, 160854, Note_on_c, 0, 39, 36
1, 160911, Note_on_c, 0, 89, 0
1, 160967, Note_on_c, 0, 82, 0
1, 160967, Note_on_c, 0, 82, 44
1, 160967, Note_on_c, 0, 94, 52
1, 160970, Note_on_c, 0, 91, 44
1, 160970, Note_on_c, 0, 39, 0
1, 160970, Control_c, 0, 64, 0
1, 160998, Control_c, 0, 64, 127
1, 161056, Note_on_c, 0, 91, 0
1, 161056, Note_on_c, 0, 94, 0
1, 161056, Note_on_c, 0, 82, 0
1, 161086, Note_on_c, 0, 67, 37
1, 161204, Note_on_c, 0, 82, 44
1, 161204, Note_on_c, 0, 94, 49
1, 161204, Note_on_c, 0, 91, 41
1, 161207, Note_on_c, 0, 67, 0
1, 161207, Note_on_c, 0, 63, 41
1, 161319, Note_on_c, 0, 63, 0
1, 161319, Note_on_c, 0, 58, 34
1, 161377, Note_on_c, 0, 91, 0
1, 161377, Note_on_c, 0, 94, 0
1, 161377, Note_on_c, 0, 93, 46
1, 161380, Note_on_c, 0, 90, 39
1, 161434, Note_on_c, 0, 90, 0
1, 161434, Note_on_c, 0, 93, 0
1, 161434, Note_on_c, 0, 82, 0
1, 161437, Note_on_c, 0, 82, 44
1, 161437, Note_on_c, 0, 94, 52
1, 161437, Note_on_c, 0, 91, 44
1, 161440, Note_on_c, 0, 58, 0
1, 161440, Control_c, 0, 64, 0
1, 161472, Control_c, 0, 64, 127
1, 161557, Note_on_c, 0, 51, 40
1, 161681, Note_on_c, 0, 51, 0
1, 161681, Note_on_c, 0, 46, 41
1, 161804, Note_on_c, 0, 46, 0
1, 161804, Note_on_c, 0, 39, 37
1, 161928, Note_on_c, 0, 91, 0
1, 161928, Note_on_c, 0, 94, 0
1, 161928, Note_on_c, 0, 82, 0
1, 161931, Note_on_c, 0, 77, 52
1, 161931, Note_on_c, 0, 70, 44
1, 161931, Note_on_c, 0, 39, 0
1, 161942, Control_c, 0, 64, 0
1, 161989, Note_on_c, 0, 77, 0
1, 162051, Note_on_c, 0, 79, 49
1, 162051, Note_on_c, 0, 68, 39
1, 162113, Note_on_c, 0, 79, 0
1, 162175, Note_on_c, 0, 80, 50
1, 162175, Note_on_c, 0, 68, 0
1, 162175, Note_on_c, 0, 62, 41
1, 162233, Note_on_c, 0, 80, 0
1, 162291, Note_on_c, 0, 84, 50
1, 162291, Note_on_c, 0, 62, 0
1, 162291, Note_on_c, 0, 58, 36
1, 162350, Note_on_c, 0, 84, 0
1, 162408, Note_on_c, 0, 70, 0
1, 162408, Note_on_c, 0, 70, 44
1, 162408, Note_on_c, 0, 82, 52
1, 162411, Note_on_c, 0, 58, 0
1, 162468, Note_on_c, 0, 82, 0
1, 162527, Note_on_c, 0, 80, 48
1, 162527, Note_on_c, 0, 50, 39
1, 162587, Note_on_c, 0, 80, 0
1, 162647, Note_on_c, 0, 79, 49
1, 162647, Note_on_c, 0, 50, 0
1, 162647, Note_on_c, 0, 46, 41
1, 162708, Note_on_c, 0, 79, 0
1, 162768, Note_on_c, 0, 77, 49
1, 162768, Note_on_c, 0, 46, 0
1, 162768, Note_on_c, 0, 39, 36
1, 162829, Note_on_c, 0, 77, 0
1, 162859, Note_on_c, 0, 78, 49
1, 162890, Note_on_c, 0, 78, 0
1, 162890, Note_on_c, 0, 70, 0
1, 162890, Note_on_c, 0, 79, 49
1, 162893, Note_on_c, 0, 39, 0
1, 162955, Note_on_c, 0, 79, 0
1, 163150, Note_on_c, 0, 70, 44
1, 163150, Note_on_c, 0, 67, 37
1, 163150, Note_on_c, 0, 55, 38
1, 163153, Note_on_c, 0, 39, 32
1, 163289, Note_on_c, 0, 70, 0
1, 163289, Note_on_c, 0, 75, 49
1, 163359, Note_on_c, 0, 75, 0
1, 163429, Note_on_c, 0, 67, 0
1, 163429, Note_on_c, 0, 74, 42
1, 163429, Note_on_c, 0, 68, 35
1, 163432, Note_on_c, 0, 39, 0
1, 163432, Note_on_c, 0, 55, 0
1, 163432, Note_on_c, 0, 56, 38
1, 163435, Note_on_c, 0, 41, 32
1, 163568, Note_on_c, 0, 74, 0
1, 163568, Note_on_c, 0, 77, 49
1, 163638, Note_on_c, 0, 77, 0
1, 163708, Note_on_c, 0, 68, 0
1, 163708, Note_on_c, 0, 65, 42
1, 163708, Note_on_c, 0, 62, 35
1, 163711, Note_on_c, 0, 41, 0
1, 163711, Note_on_c, 0, 56, 0
1, 163711, Note_on_c, 0, 59, 38
1, 163714, Note_on_c, 0, 43, 32
1, 163847, Note_on_c, 0, 65, 0
1, 163847, Note_on_c, 0, 71, 49
1, 163921, Note_on_c, 0, 71, 0
1, 164002, Note_on_c, 0, 62, 0
1, 164002, Note_on_c, 0, 72, 46
1, 164002, Note_on_c, 0, 67, 39
1, 164005, Note_on_c, 0, 43, 0
1, 164005, Note_on_c, 0, 59, 0
1, 164005, Note_on_c, 0, 63, 47
1, 164008, Note_on_c, 0, 48, 39
1, 164008, Note_on_c, 0, 55, 39
1, 164394, Control_c, 0, 64, 127
1, 164787, Note_on_c, 0, 67, 0
1, 164787, Note_on_c, 0, 72, 0
1, 164787, Note_on_c, 0, 71, 47
1, 164908, Note_on_c, 0, 71, 0
1, 164908, Note_on_c, 0, 72, 41
1, 165029, Note_on_c, 0, 72, 0
1, 165029, Note_on_c, 0, 74, 41
1, 165150, Note_on_c, 0, 74, 0
1, 165150, Note_on_c, 0, 72, 45
1, 165275, Note_on_c, 0, 72, 0
1, 165275, Note_on_c, 0, 71, 40
1, 165407, Note_on_c, 0, 71, 0
1, 165407, Note_on_c, 0, 72, 45
1, 165549, Note_on_c, 0, 72, 0
1, 165549, Note_on_c, 0, 55, 0
1, 165549, Note_on_c, 0, 48, 0
1, 165552, Note_on_c, 0, 63, 0
1, 165552, Note_on_c, 0, 44, 37
1, 165552, Control_c, 0, 64, 0
1, 165609, Note_on_c, 0, 53, 38
1, 165627, Control_c, 0, 64, 127
1, 165669, Note_on_c, 0, 60, 39
1, 165729, Note_on_c, 0, 65, 47
1, 165789, Note_on_c, 0, 72, 49
1, 165849, Note_on_c, 0, 77, 51
1, 166990, Note_on_c, 0, 77, 0
1, 166990, Note_on_c, 0, 72, 0
1, 166990, Note_on_c, 0, 65, 0
1, 166993, Note_on_c, 0, 75, 49
1, 166993, Note_on_c, 0, 60, 0
1, 166993, Note_on_c, 0, 53, 0
1, 166996, Note_on_c, 0, 44, 0
1, 167351, Note_on_c, 0, 75, 0
1, 167351, Note_on_c, 0, 75, 42
1, 167471, Note_on_c, 0, 75, 0
1, 167471, Note_on_c, 0, 46, 37
1, 167527, Note_on_c, 0, 53, 38
1, 167544, Control_c, 0, 64, 0
1, 167584, Note_on_c, 0, 58, 39
1, 167640, Note_on_c, 0, 62, 47
1, 167663, Control_c, 0, 64, 127
1, 167697, Note_on_c, 0, 68, 49
1, 167774, Note_on_c, 0, 74, 51
1, 169117, Control_c, 0, 64, 0
1, 169246, Note_on_c, 0, 74, 0
1, 169246, Note_on_c, 0, 68, 0
1, 169246, Note_on_c, 0, 62, 0
1, 169249, Note_on_c, 0, 62, 46
1, 169249, Note_on_c, 0, 58, 0
1, 169249, Note_on_c, 0, 53, 0
1, 169252, Note_on_c, 0, 46, 0
1, 169252, Note_on_c, 0, 34, 35
1, 169294, Note_on_c, 0, 68, 50
1, 169341, Note_on_c, 0, 77, 58
1, 169389, Note_on_c, 0, 77, 0
1, 169389, Note_on_c, 0, 68, 0
1, 169389, Note_on_c, 0, 62, 0
1, 169392, Note_on_c, 0, 34, 0
1, 169628, Note_on_c, 0, 75, 56
1, 169628, Note_on_c, 0, 67, 47
1, 169628, Note_on_c, 0, 39, 43
1, 169693, Note_on_c, 0, 67, 0
1, 169693, Note_on_c, 0, 75, 0
1, 169693, Note_on_c, 0, 39, 0
1, 169756, Note_on_c, 0, 77, 49
1, 169756, Note_on_c, 0, 70, 41
1, 169816, Note_on_c, 0, 70, 0
1, 169816, Note_on_c, 0, 77, 0
1, 169875, Note_on_c, 0, 79, 50
1, 169875, Note_on_c, 0, 75, 42
1, 169875, Note_on_c, 0, 67, 37
1, 169878, Note_on_c, 0, 63, 31
1, 169878, Note_on_c, 0, 55, 31
1, 169935, Note_on_c, 0, 75, 0
1, 169935, Note_on_c, 0, 79, 0
1, 169935, Note_on_c, 0, 55, 0
1, 169938, Note_on_c, 0, 63, 0
1, 169938, Note_on_c, 0, 67, 0
1, 169995, Note_on_c, 0, 80, 44
1, 169995, Note_on_c, 0, 77, 37
1, 170060, Note_on_c, 0, 77, 0
1, 170060, Note_on_c, 0, 80, 0
1, 170093, Note_on_c, 0, 84, 56
1, 170126, Note_on_c, 0, 84, 0
1, 170126, Note_on_c, 0, 82, 50
1, 170126, Note_on_c, 0, 79, 42
1, 170187, Note_on_c, 0, 79, 0
1, 170187, Note_on_c, 0, 82, 0
1, 170310, Note_on_c, 0, 81, 45
1, 170310, Note_on_c, 0, 78, 38
1, 170371, Note_on_c, 0, 78, 0
1, 170371, Note_on_c, 0, 81, 0
1, 170371, Note_on_c, 0, 82, 50
1, 170374, Note_on_c, 0, 79, 50
1, 170374, Note_on_c, 0, 67, 35
1, 170374, Note_on_c, 0, 63, 29
1, 170377, Note_on_c, 0, 58, 29
1, 170435, Note_on_c, 0, 79, 0
1, 170435, Note_on_c, 0, 82, 0
1, 170435, Note_on_c, 0, 58, 0
1, 170438, Note_on_c, 0, 63, 0
1, 170438, Note_on_c, 0, 67, 0
1, 170629, Note_on_c, 0, 56, 97
1, 170629, Note_on_c, 0, 44, 74
1, 170629, Note_on_c, 0, 32, 63
1, 170634, Control_c, 0, 64, 127
1, 170824, Note_on_c, 0, 56, 0
1, 170824, Note_on_c, 0, 32, 0
1, 170824, Note_on_c, 0, 44, 0
1, 170832, Control_c, 0, 64, 0
1, 170889, Note_on_c, 0, 84, 56
1, 170889, Note_on_c, 0, 72, 47
1, 170889, Note_on_c, 0, 75, 47
1, 170892, Note_on_c, 0, 68, 48
1, 170892, Note_on_c, 0, 56, 40
1, 170892, Note_on_c, 0, 63, 40
1, 170950, Note_on_c, 0, 75, 0
1, 170950, Note_on_c, 0, 72, 0
1, 170950, Note_on_c, 0, 84, 0
1, 170953, Note_on_c, 0, 63, 0
1, 170953, Note_on_c, 0, 56, 0
1, 170953, Note_on_c, 0, 68, 0
1, 171074, Note_on_c, 0, 67, 41
1, 171074, Note_on_c, 0, 55, 35
1, 171129, Note_on_c, 0, 84, 66
1, 171129, Note_on_c, 0, 80, 56
1, 171129, Note_on_c, 0, 72, 56
1, 171132, Note_on_c, 0, 55, 0
1, 171132, Note_on_c, 0, 67, 0
1, 171132, Note_on_c, 0, 68, 55
1, 171135, Note_on_c, 0, 56, 46
1, 171135, Note_on_c, 0, 63, 46
1, 171193, Note_on_c, 0, 72, 0
1, 171193, Note_on_c, 0, 80, 0
1, 171193, Note_on_c, 0, 84, 0
1, 171196, Note_on_c, 0, 63, 0
1, 171196, Note_on_c, 0, 56, 0
1, 171196, Note_on_c, 0, 68, 0
1, 171318, Note_on_c, 0, 83, 51
1, 171318, Note_on_c, 0, 71, 42
1, 171318, Note_on_c, 0, 79, 42
1, 171379, Note_on_c, 0, 79, 0
1, 171379, Note_on_c, 0, 71, 0
1, 171379, Note_on_c, 0, 83, 0
1, 171382, Note_on_c, 0, 84, 51
1, 171382, Note_on_c, 0, 80, 42
1, 171382, Note_on_c, 0, 72, 42
1, 171440, Note_on_c, 0, 72, 0
1, 171440, Note_on_c, 0, 80, 0
1, 171440, Note_on_c, 0, 84, 0
1, 171633, Note_on_c, 0, 55, 96
1, 171633, Note_on_c, 0, 43, 74
1, 171633, Note_on_c, 0, 31, 63
1, 171638, Control_c, 0, 64, 127
1, 171828, Note_on_c, 0, 55, 0
1, 171828, Note_on_c, 0, 31, 0
1, 171828, Note_on_c, 0, 43, 0
1, 171874, Control_c, 0, 64, 0
1, 171893, Note_on_c, 0, 82, 56
1, 171893, Note_on_c, 0, 70, 47
1, 171893, Note_on_c, 0, 75, 47
1, 171896, Note_on_c, 0, 67, 48
1, 171896, Note_on_c, 0, 55, 40
1, 171896, Note_on_c, 0, 63, 40
1, 171954, Note_on_c, 0, 75, 0
1, 171954, Note_on_c, 0, 70, 0
1, 171954, Note_on_c, 0, 82, 0
1, 171957, Note_on_c, 0, 63, 0
1, 171957, Note_on_c, 0, 55, 0
1, 171957, Note_on_c, 0, 67, 0
1, 172078, Note_on_c, 0, 66, 41
1, 172078, Note_on_c, 0, 54, 35
1, 172132, Note_on_c, 0, 82, 66
1, 172132, Note_on_c, 0, 79, 56
1, 172132, Note_on_c, 0, 70, 56
1, 172135, Note_on_c, 0, 54, 0
1, 172135, Note_on_c, 0, 66, 0
1, 172135, Note_on_c, 0, 67, 55
1, 172138, Note_on_c, 0, 55, 46
1, 172138, Note_on_c, 0, 63, 46
1, 172197, Note_on_c, 0, 70, 0
1, 172197, Note_on_c, 0, 79, 0
1, 172197, Note_on_c, 0, 82, 0
1, 172200, Note_on_c, 0, 63, 0
1, 172200, Note_on_c, 0, 55, 0
1, 172200, Note_on_c, 0, 67, 0
1, 172323, Note_on_c, 0, 81, 51
1, 172323, Note_on_c, 0, 69, 42
1, 172323, Note_on_c, 0, 78, 42
1, 172385, Note_on_c, 0, 78, 0
1, 172385, Note_on_c, 0, 69, 0
1, 172385, Note_on_c, 0, 81, 0
1, 172388, Note_on_c, 0, 82, 51
1, 172388, Note_on_c, 0, 79, 42
1, 172388, Note_on_c, 0, 70, 42
1, 172447, Note_on_c, 0, 70, 0
1, 172447, Note_on_c, 0, 79, 0
1, 172447, Note_on_c, 0, 82, 0
1, 172643, Note_on_c, 0, 53, 95
1, 172643, Note_on_c, 0, 41, 74
1, 172643, Note_on_c, 0, 29, 63
1, 172648, Control_c, 0, 64, 127
1, 172838, Note_on_c, 0, 53, 0
1, 172838, Note_on_c, 0, 29, 0
1, 172838, Note_on_c, 0, 41, 0
1, 172884, Control_c, 0, 64, 0
1, 172903, Note_on_c, 0, 80, 56
1, 172903, Note_on_c, 0, 68, 47
1, 172903, Note_on_c, 0, 74, 47
1, 172906, Note_on_c, 0, 65, 48
1, 172906, Note_on_c, 0, 53, 40
1, 172906, Note_on_c, 0, 62, 40
1, 172964, Note_on_c, 0, 74, 0
1, 172964, Note_on_c, 0, 68, 0
1, 172964, Note_on_c, 0, 80, 0
1, 172967, Note_on_c, 0, 62, 0
1, 172967, Note_on_c, 0, 53, 0
1, 172967, Note_on_c, 0, 65, 0
1, 173088, Note_on_c, 0, 64, 41
1, 173088, Note_on_c, 0, 52, 35
1, 173141, Note_on_c, 0, 80, 66
1, 173141, Note_on_c, 0, 77, 56
1, 173141, Note_on_c, 0, 68, 56
1, 173144, Note_on_c, 0, 52, 0
1, 173144, Note_on_c, 0, 64, 0
1, 173144, Note_on_c, 0, 65, 55
1, 173147, Note_on_c, 0, 53, 46
1, 173147, Note_on_c, 0, 62, 46
1, 173206, Note_on_c, 0, 68, 0
1, 173206, Note_on_c, 0, 77, 0
1, 173206, Note_on_c, 0, 80, 0
1, 173209, Note_on_c, 0, 62, 0
1, 173209, Note_on_c, 0, 53, 0
1, 173209, Note_on_c, 0, 65, 0
1, 173332, Note_on_c, 0, 79, 51
1, 173332, Note_on_c, 0, 67, 42
1, 173332, Note_on_c, 0, 76, 42
1, 173394, Note_on_c, 0, 76, 0
1, 173394, Note_on_c, 0, 67, 0
1, 173394, Note_on_c, 0, 79, 0
1, 173397, Note_on_c, 0, 80, 51
1, 173397, Note_on_c, 0, 77, 42
1, 173397, Note_on_c, 0, 68, 42
1, 173455, Note_on_c, 0, 68, 0
1, 173455, Note_on_c, 0, 77, 0
1, 173455, Note_on_c, 0, 80, 0
1, 173652, Note_on_c, 0, 51, 99
1, 173652, Note_on_c, 0, 39, 74
1, 173652, Note_on_c, 0, 27, 63
1, 173657, Control_c, 0, 64, 127
1, 173757, Control_c, 0, 64, 0
1, 173846, Note_on_c, 0, 51, 0
1, 173846, Note_on_c, 0, 27, 0
1, 173846, Note_on_c, 0, 39, 0
1, 173911, Note_on_c, 0, 79, 56
1, 173911, Note_on_c, 0, 67, 47
1, 173911, Note_on_c, 0, 70, 47
1, 173914, Note_on_c, 0, 63, 48
1, 173914, Note_on_c, 0, 51, 40
1, 173914, Note_on_c, 0, 58, 40
1, 173973, Note_on_c, 0, 70, 0
1, 173973, Note_on_c, 0, 67, 0
1, 173973, Note_on_c, 0, 79, 0
1, 173976, Note_on_c, 0, 58, 0
1, 173976, Note_on_c, 0, 51, 0
1, 173976, Note_on_c, 0, 63, 0
1, 174096, Note_on_c, 0, 62, 41
1, 174096, Note_on_c, 0, 50, 35
1, 174150, Note_on_c, 0, 79, 66
1, 174150, Note_on_c, 0, 75, 56
1, 174150, Note_on_c, 0, 67, 56
1, 174153, Note_on_c, 0, 50, 0
1, 174153, Note_on_c, 0, 62, 0
1, 174153, Note_on_c, 0, 63, 55
1, 174156, Note_on_c, 0, 51, 46
1, 174156, Note_on_c, 0, 58, 46
1, 174216, Note_on_c, 0, 67, 0
1, 174216, Note_on_c, 0, 75, 0
1, 174216, Note_on_c, 0, 79, 0
1, 174219, Note_on_c, 0, 58, 0
1, 174219, Note_on_c, 0, 51, 0
1, 174219, Note_on_c, 0, 63, 0
1, 174345, Note_on_c, 0, 78, 51
1, 174345, Note_on_c, 0, 66, 42
1, 174345, Note_on_c, 0, 74, 42
1, 174407, Note_on_c, 0, 74, 0
1, 174407, Note_on_c, 0, 66, 0
1, 174407, Note_on_c, 0, 78, 0
1, 174410, Note_on_c, 0, 79, 51
1, 174410, Note_on_c, 0, 75, 42
1, 174410, Note_on_c, 0, 67, 42
1, 174469, Note_on_c, 0, 67, 0
1, 174469, Note_on_c, 0, 75, 0
1, 174469, Note_on_c, 0, 79, 0
1, 174665, Note_on_c, 0, 80, 52
1, 174665, Note_on_c, 0, 72, 44
1, 174665, Note_on_c, 0, 34, 48
1, 174728, Note_on_c, 0, 72, 0
1, 174728, Note_on_c, 0, 80, 0
1, 174728, Note_on_c, 0, 34, 0
1, 174791, Note_on_c, 0, 79, 47
1, 174791, Note_on_c, 0, 70, 39
1, 174853, Note_on_c, 0, 70, 0
1, 174853, Note_on_c, 0, 79, 0
1, 174916, Note_on_c, 0, 77, 47
1, 174916, Note_on_c, 0, 68, 39
1, 174916, Note_on_c, 0, 62, 42
1, 174919, Note_on_c, 0, 56, 35
1, 174919, Note_on_c, 0, 53, 35
1, 174977, Note_on_c, 0, 68, 0
1, 174977, Note_on_c, 0, 77, 0
1, 174977, Note_on_c, 0, 53, 0
1, 174980, Note_on_c, 0, 56, 0
1, 174980, Note_on_c, 0, 62, 0
1, 175038, Note_on_c, 0, 75, 47
1, 175038, Note_on_c, 0, 67, 39
1, 175104, Note_on_c, 0, 67, 0
1, 175104, Note_on_c, 0, 75, 0
1, 175170, Note_on_c, 0, 74, 52
1, 175170, Note_on_c, 0, 65, 44
1, 175170, Note_on_c, 0, 46, 47
1, 175233, Note_on_c, 0, 65, 0
1, 175233, Note_on_c, 0, 74, 0
1, 175233, Note_on_c, 0, 46, 0
1, 175296, Note_on_c, 0, 70, 45
1, 175296, Note_on_c, 0, 62, 38
1, 175358, Note_on_c, 0, 62, 0
1, 175358, Note_on_c, 0, 70, 0
1, 175421, Note_on_c, 0, 72, 45
1, 175421, Note_on_c, 0, 63, 38
1, 175421, Note_on_c, 0, 58, 40
1, 175424, Note_on_c, 0, 53, 34
1, 175424, Note_on_c, 0, 56, 34
1, 175488, Note_on_c, 0, 63, 0
1, 175488, Note_on_c, 0, 72, 0
1, 175488, Note_on_c, 0, 56, 0
1, 175491, Note_on_c, 0, 53, 0
1, 175491, Note_on_c, 0, 58, 0
1, 175555, Note_on_c, 0, 74, 45
1, 175555, Note_on_c, 0, 65, 38
1, 175621, Note_on_c, 0, 65, 0
1, 175621, Note_on_c, 0, 74, 0
1, 175688, Note_on_c, 0, 75, 56
1, 175688, Note_on_c, 0, 67, 47
1, 175688, Note_on_c, 0, 39, 43
1, 175749, Note_on_c, 0, 67, 0
1, 175749, Note_on_c, 0, 75, 0
1, 175749, Note_on_c, 0, 39, 0
1, 175810, Note_on_c, 0, 77, 49
1, 175810, Note_on_c, 0, 70, 41
1, 175872, Note_on_c, 0, 70, 0
1, 175872, Note_on_c, 0, 77, 0
1, 175933, Note_on_c, 0, 79, 50
1, 175933, Note_on_c, 0, 75, 42
1, 175933, Note_on_c, 0, 63, 37
1, 175936, Note_on_c, 0, 58, 31
1, 175936, Note_on_c, 0, 55, 31
1, 175992, Note_on_c, 0, 75, 0
1, 175992, Note_on_c, 0, 79, 0
1, 175992, Note_on_c, 0, 55, 0
1, 175995, Note_on_c, 0, 58, 0
1, 175995, Note_on_c, 0, 63, 0
1, 176051, Note_on_c, 0, 80, 44
1, 176051, Note_on_c, 0, 77, 37
1, 176116, Note_on_c, 0, 77, 0
1, 176116, Note_on_c, 0, 80, 0
1, 176149, Note_on_c, 0, 84, 56
1, 176182, Note_on_c, 0, 84, 0
1, 176182, Note_on_c, 0, 82, 50
1, 176182, Note_on_c, 0, 79, 42
1, 176185, Note_on_c, 0, 46, 43
1, 176243, Note_on_c, 0, 79, 0
1, 176243, Note_on_c, 0, 82, 0
1, 176243, Note_on_c, 0, 46, 0
1, 176366, Note_on_c, 0, 81, 45
1, 176366, Note_on_c, 0, 78, 38
1, 176427, Note_on_c, 0, 78, 0
1, 176427, Note_on_c, 0, 81, 0
1, 176427, Note_on_c, 0, 82, 50
1, 176430, Note_on_c, 0, 79, 50
1, 176430, Note_on_c, 0, 63, 35
1, 176430, Note_on_c, 0, 58, 29
1, 176433, Note_on_c, 0, 55, 29
1, 176488, Note_on_c, 0, 79, 0
1, 176488, Note_on_c, 0, 82, 0
1, 176488, Note_on_c, 0, 55, 0
1, 176491, Note_on_c, 0, 58, 0
1, 176491, Note_on_c, 0, 63, 0
1, 176681, Note_on_c, 0, 92, 52
1, 176681, Note_on_c, 0, 84, 44
1, 176681, Note_on_c, 0, 34, 48
1, 176744, Note_on_c, 0, 84, 0
1, 176744, Note_on_c, 0, 92, 0
1, 176744, Note_on_c, 0, 34, 0
1, 176807, Note_on_c, 0, 91, 47
1, 176807, Note_on_c, 0, 82, 39
1, 176870, Note_on_c, 0, 82, 0
1, 176870, Note_on_c, 0, 91, 0
1, 176932, Note_on_c, 0, 89, 47
1, 176932, Note_on_c, 0, 80, 39
1, 176932, Note_on_c, 0, 62, 42
1, 176935, Note_on_c, 0, 56, 35
1, 176935, Note_on_c, 0, 53, 35
1, 176991, Note_on_c, 0, 80, 0
1, 176991, Note_on_c, 0, 89, 0
1, 176991, Note_on_c, 0, 53, 0
1, 176994, Note_on_c, 0, 56, 0
1, 176994, Note_on_c, 0, 62, 0
1, 177051, Note_on_c, 0, 87, 47
1, 177051, Note_on_c, 0, 79, 39
1, 177117, Note_on_c, 0, 79, 0
1, 177117, Note_on_c, 0, 87, 0
1, 177183, Note_on_c, 0, 86, 52
1, 177183, Note_on_c, 0, 77, 44
1, 177183, Note_on_c, 0, 46, 47
1, 177245, Note_on_c, 0, 77, 0
1, 177245, Note_on_c, 0, 86, 0
1, 177245, Note_on_c, 0, 46, 0
1, 177308, Note_on_c, 0, 82, 45
1, 177308, Note_on_c, 0, 74, 38
1, 177371, Note_on_c, 0, 74, 0
1, 177371, Note_on_c, 0, 82, 0
1, 177434, Note_on_c, 0, 84, 45
1, 177434, Note_on_c, 0, 75, 38
1, 177434, Note_on_c, 0, 58, 40
1, 177437, Note_on_c, 0, 53, 34
1, 177437, Note_on_c, 0, 56, 34
1, 177500, Note_on_c, 0, 75, 0
1, 177500, Note_on_c, 0, 84, 0
1, 177500, Note_on_c, 0, 56, 0
1, 177503, Note_on_c, 0, 53, 0
1, 177503, Note_on_c, 0, 58, 0
1, 177567, Note_on_c, 0, 86, 45
1, 177567, Note_on_c, 0, 77, 38
1, 177634, Note_on_c, 0, 77, 0
1, 177634, Note_on_c, 0, 86, 0
1, 177700, Note_on_c, 0, 87, 56
1, 177700, Note_on_c, 0, 79, 47
1, 177700, Note_on_c, 0, 39, 43
1, 177762, Note_on_c, 0, 79, 0
1, 177762, Note_on_c, 0, 87, 0
1, 177762, Note_on_c, 0, 39, 0
1, 177823, Note_on_c, 0, 89, 49
1, 177823, Note_on_c, 0, 82, 41
1, 177884, Note_on_c, 0, 82, 0
1, 177884, Note_on_c, 0, 89, 0
1, 177945, Note_on_c, 0, 91, 50
1, 177945, Note_on_c, 0, 87, 42
1, 177945, Note_on_c, 0, 63, 37
1, 177948, Note_on_c, 0, 58, 31
1, 177948, Note_on_c, 0, 55, 31
1, 178006, Note_on_c, 0, 87, 0
1, 178006, Note_on_c, 0, 91, 0
1, 178006, Note_on_c, 0, 55, 0
1, 178009, Note_on_c, 0, 58, 0
1, 178009, Note_on_c, 0, 63, 0
1, 178068, Note_on_c, 0, 92, 44
1, 178068, Note_on_c, 0, 89, 37
1, 178133, Note_on_c, 0, 89, 0
1, 178133, Note_on_c, 0, 92, 0
1, 178166, Note_on_c, 0, 96, 56
1, 178199, Note_on_c, 0, 96, 0
1, 178199, Note_on_c, 0, 94, 50
1, 178199, Note_on_c, 0, 91, 42
1, 178202, Note_on_c, 0, 46, 43
1, 178260, Note_on_c, 0, 91, 0
1, 178260, Note_on_c, 0, 94, 0
1, 178260, Note_on_c, 0, 46, 0
1, 178382, Note_on_c, 0, 93, 45
1, 178382, Note_on_c, 0, 90, 38
1, 178443, Note_on_c, 0, 90, 0
1, 178443, Note_on_c, 0, 93, 0
1, 178443, Note_on_c, 0, 94, 50
1, 178446, Note_on_c, 0, 91, 50
1, 178446, Note_on_c, 0, 63, 35
1, 178446, Note_on_c, 0, 58, 29
1, 178449, Note_on_c, 0, 55, 29
1, 178507, Note_on_c, 0, 91, 0
1, 178507, Note_on_c, 0, 94, 0
1, 178507, Note_on_c, 0, 55, 0
1, 178510, Note_on_c, 0, 58, 0
1, 178510, Note_on_c, 0, 63, 0
1, 178699, Note_on_c, 0, 56, 93
1, 178699, Note_on_c, 0, 44, 74
1, 178699, Note_on_c, 0, 32, 63
1, 178704, Control_c, 0, 64, 127
1, 178893, Note_on_c, 0, 56, 0
1, 178893, Note_on_c, 0, 32, 0
1, 178893, Note_on_c, 0, 44, 0
1, 178912, Control_c, 0, 64, 0
1, 178958, Note_on_c, 0, 84, 56
1, 178958, Note_on_c, 0, 72, 47
1, 178958, Note_on_c, 0, 75, 47
1, 178961, Note_on_c, 0, 68, 48
1, 178961, Note_on_c, 0, 56, 40
1, 178961, Note_on_c, 0, 63, 40
1, 179020, Note_on_c, 0, 75, 0
1, 179020, Note_on_c, 0, 72, 0
1, 179020, Note_on_c, 0, 84, 0
1, 179023, Note_on_c, 0, 63, 0
1, 179023, Note_on_c, 0, 56, 0
1, 179023, Note_on_c, 0, 68, 0
1, 179144, Note_on_c, 0, 67, 41
1, 179144, Note_on_c, 0, 55, 35
1, 179199, Note_on_c, 0, 84, 66
1, 179199, Note_on_c, 0, 80, 56
1, 179199, Note_on_c, 0, 72, 56
1, 179202, Note_on_c, 0, 55, 0
1, 179202, Note_on_c, 0, 67, 0
1, 179202, Note_on_c, 0, 68, 55
1, 179205, Note_on_c, 0, 56, 46
1, 179205, Note_on_c, 0, 63, 46
1, 179267, Note_on_c, 0, 72, 0
1, 179267, Note_on_c, 0, 80, 0
1, 179267, Note_on_c, 0, 84, 0
1, 179270, Note_on_c, 0, 63, 0
1, 179270, Note_on_c, 0, 56, 0
1, 179270, Note_on_c, 0, 68, 0
1, 179397, Note_on_c, 0, 83, 51
1, 179397, Note_on_c, 0, 71, 42
1, 179397, Note_on_c, 0, 79, 42
1, 179459, Note_on_c, 0, 79, 0
1, 179459, Note_on_c, 0, 71, 0
1, 179459, Note_on_c, 0, 83, 0
1, 179462, Note_on_c, 0, 84, 51
1, 179462, Note_on_c, 0, 80, 42
1, 179462, Note_on_c, 0, 72, 42
1, 179522, Note_on_c, 0, 72, 0
1, 179522, Note_on_c, 0, 80, 0
1, 179522, Note_on_c, 0, 84, 0
1, 179716, Note_on_c, 0, 55, 101
1, 179716, Note_on_c, 0, 43, 74
1, 179716, Note_on_c, 0, 31, 63
1, 179722, Control_c, 0, 64, 127
1, 179911, Note_on_c, 0, 55, 0
1, 179911, Note_on_c, 0, 31, 0
1, 179911, Note_on_c, 0, 43, 0
1, 179948, Control_c, 0, 64, 0
1, 179976, Note_on_c, 0, 82, 56
1, 179976, Note_on_c, 0, 70, 47
1, 179976, Note_on_c, 0, 75, 47
1, 179979, Note_on_c, 0, 67, 48
1, 179979, Note_on_c, 0, 55, 40
1, 179979, Note_on_c, 0, 63, 40
1, 180038, Note_on_c, 0, 75, 0
1, 180038, Note_on_c, 0, 70, 0
1, 180038, Note_on_c, 0, 82, 0
1, 180041, Note_on_c, 0, 63, 0
1, 180041, Note_on_c, 0, 55, 0
1, 180041, Note_on_c, 0, 67, 0
1, 180161, Note_on_c, 0, 66, 41
1, 180161, Note_on_c, 0, 54, 35
1, 180215, Note_on_c, 0, 82, 66
1, 180215, Note_on_c, 0, 79, 56
1, 180215, Note_on_c, 0, 70, 56
1, 180218, Note_on_c, 0, 54, 0
1, 180218, Note_on_c, 0, 66, 0
1, 180218, Note_on_c, 0, 67, 55
1, 180221, Note_on_c, 0, 55, 46
1, 180221, Note_on_c, 0, 63, 46
1, 180281, Note_on_c, 0, 70, 0
1, 180281, Note_on_c, 0, 79, 0
1, 180281, Note_on_c, 0, 82, 0
1, 180284, Note_on_c, 0, 63, 0
1, 180284, Note_on_c, 0, 55, 0
1, 180284, Note_on_c, 0, 67, 0
1, 180409, Note_on_c, 0, 81, 51
1, 180409, Note_on_c, 0, 69, 42
1, 180409, Note_on_c, 0, 78, 42
1, 180472, Note_on_c, 0, 78, 0
1, 180472, Note_on_c, 0, 69, 0
1, 180472, Note_on_c, 0, 81, 0
1, 180475, Note_on_c, 0, 82, 51
1, 180475, Note_on_c, 0, 79, 42
1, 180475, Note_on_c, 0, 70, 42
1, 180534, Note_on_c, 0, 70, 0
1, 180534, Note_on_c, 0, 79, 0
1, 180534, Note_on_c, 0, 82, 0
1, 180731, Note_on_c, 0, 53, 96
1, 180731, Note_on_c, 0, 41, 74
1, 180731, Note_on_c, 0, 29, 63
1, 180737, Control_c, 0, 64, 127
1, 180926, Note_on_c, 0, 53, 0
1, 180926, Note_on_c, 0, 29, 0
1, 180926, Note_on_c, 0, 41, 0
1, 180978, Control_c, 0, 64, 0
1, 180991, Note_on_c, 0, 80, 56
1, 180991, Note_on_c, 0, 68, 47
1, 180991, Note_on_c, 0, 74, 47
1, 180994, Note_on_c, 0, 65, 48
1, 180994, Note_on_c, 0, 53, 40
1, 180994, Note_on_c, 0, 62, 40
1, 181053, Note_on_c, 0, 74, 0
1, 181053, Note_on_c, 0, 68, 0
1, 181053, Note_on_c, 0, 80, 0
1, 181056, Note_on_c, 0, 62, 0
1, 181056, Note_on_c, 0, 53, 0
1, 181056, Note_on_c, 0, 65, 0
1, 181176, Note_on_c, 0, 64, 41
1, 181176, Note_on_c, 0, 52, 35
1, 181230, Note_on_c, 0, 80, 66
1, 181230, Note_on_c, 0, 77, 56
1, 181230, Note_on_c, 0, 68, 56
1, 181233, Note_on_c, 0, 52, 0
1, 181233, Note_on_c, 0, 64, 0
1, 181233, Note_on_c, 0, 65, 55
1, 181236, Note_on_c, 0, 53, 46
1, 181236, Note_on_c, 0, 62, 46
1, 181296, Note_on_c, 0, 68, 0
1, 181296, Note_on_c, 0, 77, 0
1, 181296, Note_on_c, 0, 80, 0
1, 181299, Note_on_c, 0, 62, 0
1, 181299, Note_on_c, 0, 53, 0
1, 181299, Note_on_c, 0, 65, 0
1, 181424, Note_on_c, 0, 79, 51
1, 181424, Note_on_c, 0, 67, 42
1, 181424, Note_on_c, 0, 76, 42
1, 181485, Note_on_c, 0, 76, 0
1, 181485, Note_on_c, 0, 67, 0
1, 181485, Note_on_c, 0, 79, 0
1, 181488, Note_on_c, 0, 80, 51
1, 181488, Note_on_c, 0, 77, 42
1, 181488, Note_on_c, 0, 68, 42
1, 181546, Note_on_c, 0, 68, 0
1, 181546, Note_on_c, 0, 77, 0
1, 181546, Note_on_c, 0, 80, 0
1, 181742, Note_on_c, 0, 51, 92
1, 181742, Note_on_c, 0, 39, 74
1, 181742, Note_on_c, 0, 27, 63
1, 181747, Control_c, 0, 64, 127
1, 181937, Note_on_c, 0, 51, 0
1, 181937, Note_on_c, 0, 27, 0
1, 181937, Note_on_c, 0, 39, 0
1, 181977, Control_c, 0, 64, 0
1, 182001, Note_on_c, 0, 79, 56
1, 182001, Note_on_c, 0, 67, 47
1, 182001, Note_on_c, 0, 70, 47
1, 182004, Note_on_c, 0, 63, 48
1, 182004, Note_on_c, 0, 51, 40
1, 182004, Note_on_c, 0, 58, 40
1, 182063, Note_on_c, 0, 70, 0
1, 182063, Note_on_c, 0, 67, 0
1, 182063, Note_on_c, 0, 79, 0
1, 182066, Note_on_c, 0, 58, 0
1, 182066, Note_on_c, 0, 51, 0
1, 182066, Note_on_c, 0, 63, 0
1, 182187, Note_on_c, 0, 62, 41
1, 182187, Note_on_c, 0, 50, 35
1, 182240, Note_on_c, 0, 79, 66
1, 182240, Note_on_c, 0, 75, 56
1, 182240, Note_on_c, 0, 67, 56
1, 182243, Note_on_c, 0, 50, 0
1, 182243, Note_on_c, 0, 62, 0
1, 182243, Note_on_c, 0, 63, 55
1, 182246, Note_on_c, 0, 51, 46
1, 182246, Note_on_c, 0, 58, 46
1, 182307, Note_on_c, 0, 67, 0
1, 182307, Note_on_c, 0, 75, 0
1, 182307, Note_on_c, 0, 79, 0
1, 182310, Note_on_c, 0, 58, 0
1, 182310, Note_on_c, 0, 51, 0
1, 182310, Note_on_c, 0, 63, 0
1, 182435, Note_on_c, 0, 78, 51
1, 182435, Note_on_c, 0, 66, 42
1, 182435, Note_on_c, 0, 74, 42
1, 182497, Note_on_c, 0, 74, 0
1, 182497, Note_on_c, 0, 66, 0
1, 182497, Note_on_c, 0, 78, 0
1, 182500, Note_on_c, 0, 79, 51
1, 182500, Note_on_c, 0, 75, 42
1, 182500, Note_on_c, 0, 67, 42
1, 182559, Note_on_c, 0, 67, 0
1, 182559, Note_on_c, 0, 75, 0
1, 182559, Note_on_c, 0, 79, 0
1, 182755, Note_on_c, 0, 92, 52
1, 182755, Note_on_c, 0, 84, 44
1, 182755, Note_on_c, 0, 34, 48
1, 182816, Note_on_c, 0, 84, 0
1, 182816, Note_on_c, 0, 92, 0
1, 182816, Note_on_c, 0, 34, 0
1, 182877, Note_on_c, 0, 91, 47
1, 182877, Note_on_c, 0, 82, 39
1, 182938, Note_on_c, 0, 82, 0
1, 182938, Note_on_c, 0, 91, 0
1, 182999, Note_on_c, 0, 89, 47
1, 182999, Note_on_c, 0, 80, 39
1, 182999, Note_on_c, 0, 62, 42
1, 183002, Note_on_c, 0, 56, 35
1, 183002, Note_on_c, 0, 53, 35
1, 183062, Note_on_c, 0, 80, 0
1, 183062, Note_on_c, 0, 89, 0
1, 183062, Note_on_c, 0, 53, 0
1, 183065, Note_on_c, 0, 56, 0
1, 183065, Note_on_c, 0, 62, 0
1, 183124, Note_on_c, 0, 87, 47
1, 183124, Note_on_c, 0, 79, 39
1, 183190, Note_on_c, 0, 79, 0
1, 183190, Note_on_c, 0, 87, 0
1, 183256, Note_on_c, 0, 86, 52
1, 183256, Note_on_c, 0, 77, 44
1, 183256, Note_on_c, 0, 46, 47
1, 183319, Note_on_c, 0, 77, 0
1, 183319, Note_on_c, 0, 86, 0
1, 183319, Note_on_c, 0, 46, 0
1, 183382, Note_on_c, 0, 82, 45
1, 183382, Note_on_c, 0, 74, 38
1, 183444, Note_on_c, 0, 74, 0
1, 183444, Note_on_c, 0, 82, 0
1, 183507, Note_on_c, 0, 84, 45
1, 183507, Note_on_c, 0, 75, 38
1, 183507, Note_on_c, 0, 58, 40
1, 183510, Note_on_c, 0, 53, 34
1, 183510, Note_on_c, 0, 56, 34
1, 183570, Note_on_c, 0, 75, 0
1, 183570, Note_on_c, 0, 84, 0
1, 183570, Note_on_c, 0, 56, 0
1, 183573, Note_on_c, 0, 53, 0
1, 183573, Note_on_c, 0, 58, 0
1, 183632, Note_on_c, 0, 86, 45
1, 183632, Note_on_c, 0, 77, 38
1, 183698, Note_on_c, 0, 77, 0
1, 183698, Note_on_c, 0, 86, 0
1, 183764, Note_on_c, 0, 87, 56
1, 183764, Note_on_c, 0, 79, 47
1, 183764, Note_on_c, 0, 39, 43
1, 183824, Note_on_c, 0, 79, 0
1, 183824, Note_on_c, 0, 87, 0
1, 183824, Note_on_c, 0, 39, 0
1, 183884, Note_on_c, 0, 89, 49
1, 183884, Note_on_c, 0, 82, 41
1, 183943, Note_on_c, 0, 82, 0
1, 183943, Note_on_c, 0, 89, 0
1, 184003, Note_on_c, 0, 91, 50
1, 184003, Note_on_c, 0, 87, 42
1, 184003, Note_on_c, 0, 63, 37
1, 184006, Note_on_c, 0, 58, 31
1, 184006, Note_on_c, 0, 55, 31
1, 184064, Note_on_c, 0, 87, 0
1, 184064, Note_on_c, 0, 91, 0
1, 184064, Note_on_c, 0, 55, 0
1, 184067, Note_on_c, 0, 58, 0
1, 184067, Note_on_c, 0, 63, 0
1, 184125, Note_on_c, 0, 92, 44
1, 184125, Note_on_c, 0, 89, 37
1, 184191, Note_on_c, 0, 89, 0
1, 184191, Note_on_c, 0, 92, 0
1, 184223, Note_on_c, 0, 96, 56
1, 184256, Note_on_c, 0, 96, 0
1, 184256, Note_on_c, 0, 94, 50
1, 184256, Note_on_c, 0, 91, 42
1, 184259, Note_on_c, 0, 46, 43
1, 184317, Note_on_c, 0, 91, 0
1, 184317, Note_on_c, 0, 94, 0
1, 184317, Note_on_c, 0, 46, 0
1, 184377, Note_on_c, 0, 90, 38
1, 184377, Note_on_c, 0, 93, 45
1, 184437, Note_on_c, 0, 93, 0
1, 184437, Note_on_c, 0, 90, 0
1, 184498, Note_on_c, 0, 96, 50
1, 184498, Note_on_c, 0, 92, 50
1, 184498, Note_on_c, 0, 63, 35
1, 184501, Note_on_c, 0, 58, 29
1, 184501, Note_on_c, 0, 55, 29
1, 184559, Note_on_c, 0, 92, 0
1, 184559, Note_on_c, 0, 96, 0
1, 184559, Note_on_c, 0, 55, 0
1, 184562, Note_on_c, 0, 58, 0
1, 184562, Note_on_c, 0, 63, 0
1, 184620, Note_on_c, 0, 94, 50
1, 184620, Note_on_c, 0, 91, 50
1, 184681, Note_on_c, 0, 91, 0
1, 184681, Note_on_c, 0, 94, 0
1, 184742, Note_on_c, 0, 80, 52
1, 184742, Note_on_c, 0, 72, 44
1, 184742, Note_on_c, 0, 34, 48
1, 184805, Note_on_c, 0, 72, 0
1, 184805, Note_on_c, 0, 80, 0
1, 184805, Note_on_c, 0, 34, 0
1, 184867, Note_on_c, 0, 79, 47
1, 184867, Note_on_c, 0, 70, 39
1, 184930, Note_on_c, 0, 70, 0
1, 184930, Note_on_c, 0, 79, 0
1, 184993, Note_on_c, 0, 77, 47
1, 184993, Note_on_c, 0, 68, 39
1, 184993, Note_on_c, 0, 62, 42
1, 184996, Note_on_c, 0, 56, 35
1, 184996, Note_on_c, 0, 53, 35
1, 185053, Note_on_c, 0, 68, 0
1, 185053, Note_on_c, 0, 77, 0
1, 185053, Note_on_c, 0, 53, 0
1, 185056, Note_on_c, 0, 56, 0
1, 185056, Note_on_c, 0, 62, 0
1, 185114, Note_on_c, 0, 75, 47
1, 185114, Note_on_c, 0, 67, 39
1, 185177, Note_on_c, 0, 67, 0
1, 185177, Note_on_c, 0, 75, 0
1, 185240, Note_on_c, 0, 74, 52
1, 185240, Note_on_c, 0, 65, 44
1, 185240, Note_on_c, 0, 46, 47
1, 185303, Note_on_c, 0, 65, 0
1, 185303, Note_on_c, 0, 74, 0
1, 185303, Note_on_c, 0, 46, 0
1, 185365, Note_on_c, 0, 70, 45
1, 185365, Note_on_c, 0, 62, 38
1, 185428, Note_on_c, 0, 62, 0
1, 185428, Note_on_c, 0, 70, 0
1, 185491, Note_on_c, 0, 72, 45
1, 185491, Note_on_c, 0, 63, 38
1, 185491, Note_on_c, 0, 58, 40
1, 185494, Note_on_c, 0, 53, 34
1, 185494, Note_on_c, 0, 56, 34
1, 185553, Note_on_c, 0, 63, 0
1, 185553, Note_on_c, 0, 72, 0
1, 185553, Note_on_c, 0, 56, 0
1, 185556, Note_on_c, 0, 53, 0
1, 185556, Note_on_c, 0, 58, 0
1, 185616, Note_on_c, 0, 74, 45
1, 185616, Note_on_c, 0, 65, 38
1, 185682, Note_on_c, 0, 65, 0
1, 185682, Note_on_c, 0, 74, 0
1, 185748, Note_on_c, 0, 75, 56
1, 185748, Note_on_c, 0, 67, 47
1, 185748, Note_on_c, 0, 39, 43
1, 185809, Note_on_c, 0, 67, 0
1, 185809, Note_on_c, 0, 75, 0
1, 185809, Note_on_c, 0, 39, 0
1, 185870, Note_on_c, 0, 77, 49
1, 185870, Note_on_c, 0, 70, 41
1, 185931, Note_on_c, 0, 70, 0
1, 185931, Note_on_c, 0, 77, 0
1, 185993, Note_on_c, 0, 79, 50
1, 185993, Note_on_c, 0, 75, 42
1, 185993, Note_on_c, 0, 63, 37
1, 185996, Note_on_c, 0, 58, 31
1, 185996, Note_on_c, 0, 55, 31
1, 186054, Note_on_c, 0, 75, 0
1, 186054, Note_on_c, 0, 79, 0
1, 186054, Note_on_c, 0, 55, 0
1, 186057, Note_on_c, 0, 58, 0
1, 186057, Note_on_c, 0, 63, 0
1, 186115, Note_on_c, 0, 80, 44
1, 186115, Note_on_c, 0, 77, 37
1, 186181, Note_on_c, 0, 77, 0
1, 186181, Note_on_c, 0, 80, 0
1, 186246, Note_on_c, 0, 82, 50
1, 186246, Note_on_c, 0, 79, 42
1, 186246, Note_on_c, 0, 46, 43
1, 186307, Note_on_c, 0, 79, 0
1, 186307, Note_on_c, 0, 82, 0
1, 186307, Note_on_c, 0, 46, 0
1, 186368, Note_on_c, 0, 78, 38
1, 186368, Note_on_c, 0, 81, 45
1, 186430, Note_on_c, 0, 81, 0
1, 186430, Note_on_c, 0, 78, 0
1, 186491, Note_on_c, 0, 84, 50
1, 186491, Note_on_c, 0, 80, 50
1, 186491, Note_on_c, 0, 63, 35
1, 186494, Note_on_c, 0, 58, 29
1, 186494, Note_on_c, 0, 55, 29
1, 186552, Note_on_c, 0, 80, 0
1, 186552, Note_on_c, 0, 84, 0
1, 186552, Note_on_c, 0, 55, 0
1, 186555, Note_on_c, 0, 58, 0
1, 186555, Note_on_c, 0, 63, 0
1, 186613, Note_on_c, 0, 82, 50
1, 186613, Note_on_c, 0, 79, 50
1, 186674, Note_on_c, 0, 79, 0
1, 186674, Note_on_c, 0, 82, 0
1, 186736, Note_on_c, 0, 92, 52
1, 186736, Note_on_c, 0, 84, 44
1, 186736, Note_on_c, 0, 34, 48
1, 186798, Note_on_c, 0, 84, 0
1, 186798, Note_on_c, 0, 92, 0
1, 186798, Note_on_c, 0, 34, 0
1, 186861, Note_on_c, 0, 91, 47
1, 186861, Note_on_c, 0, 82, 39
1, 186924, Note_on_c, 0, 82, 0
1, 186924, Note_on_c, 0, 91, 0
1, 186987, Note_on_c, 0, 89, 47
1, 186987, Note_on_c, 0, 80, 39
1, 186987, Note_on_c, 0, 62, 42
1, 186990, Note_on_c, 0, 56, 35
1, 186990, Note_on_c, 0, 53, 35
1, 187049, Note_on_c, 0, 80, 0
1, 187049, Note_on_c, 0, 89, 0
1, 187049, Note_on_c, 0, 53, 0
1, 187052, Note_on_c, 0, 56, 0
1, 187052, Note_on_c, 0, 62, 0
1, 187112, Note_on_c, 0, 87, 47
1, 187112, Note_on_c, 0, 79, 39
1, 187178, Note_on_c, 0, 79, 0
1, 187178, Note_on_c, 0, 87, 0
1, 187244, Note_on_c, 0, 86, 52
1, 187244, Note_on_c, 0, 77, 44
1, 187244, Note_on_c, 0, 46, 47
1, 187307, Note_on_c, 0, 77, 0
1, 187307, Note_on_c, 0, 86, 0
1, 187307, Note_on_c, 0, 46, 0
1, 187370, Note_on_c, 0, 82, 45
1, 187370, Note_on_c, 0, 74, 38
1, 187433, Note_on_c, 0, 74, 0
1, 187433, Note_on_c, 0, 82, 0
1, 187495, Note_on_c, 0, 84, 45
1, 187495, Note_on_c, 0, 75, 38
1, 187495, Note_on_c, 0, 62, 40
1, 187498, Note_on_c, 0, 53, 34
1, 187498, Note_on_c, 0, 56, 34
1, 187558, Note_on_c, 0, 75, 0
1, 187558, Note_on_c, 0, 84, 0
1, 187558, Note_on_c, 0, 56, 0
1, 187561, Note_on_c, 0, 53, 0
1, 187561, Note_on_c, 0, 62, 0
1, 187622, Note_on_c, 0, 86, 45
1, 187622, Note_on_c, 0, 77, 38
1, 187685, Note_on_c, 0, 77, 0
1, 187685, Note_on_c, 0, 86, 0
1, 187748, Note_on_c, 0, 87, 56
1, 187748, Note_on_c, 0, 79, 47
1, 187748, Note_on_c, 0, 39, 43
1, 187809, Note_on_c, 0, 79, 0
1, 187809, Note_on_c, 0, 87, 0
1, 187809, Note_on_c, 0, 39, 0
1, 187870, Note_on_c, 0, 89, 49
1, 187870, Note_on_c, 0, 82, 41
1, 187931, Note_on_c, 0, 82, 0
1, 187931, Note_on_c, 0, 89, 0
1, 187993, Note_on_c, 0, 91, 50
1, 187993, Note_on_c, 0, 87, 42
1, 187993, Note_on_c, 0, 63, 37
1, 187996, Note_on_c, 0, 58, 31
1, 187996, Note_on_c, 0, 55, 31
1, 188054, Note_on_c, 0, 87, 0
1, 188054, Note_on_c, 0, 91, 0
1, 188054, Note_on_c, 0, 55, 0
1, 188057, Note_on_c, 0, 58, 0
1, 188057, Note_on_c, 0, 63, 0
1, 188115, Note_on_c, 0, 92, 44
1, 188115, Note_on_c, 0, 89, 37
1, 188178, Note_on_c, 0, 89, 0
1, 188178, Note_on_c, 0, 92, 0
1, 188241, Note_on_c, 0, 94, 50
1, 188241, Note_on_c, 0, 91, 42
1, 188241, Note_on_c, 0, 46, 43
1, 188302, Note_on_c, 0, 91, 0
1, 188302, Note_on_c, 0, 94, 0
1, 188302, Note_on_c, 0, 46, 0
1, 188364, Note_on_c, 0, 90, 38
1, 188364, Note_on_c, 0, 93, 45
1, 188425, Note_on_c, 0, 93, 0
1, 188425, Note_on_c, 0, 90, 0
1, 188486, Note_on_c, 0, 96, 50
1, 188486, Note_on_c, 0, 92, 42
1, 188486, Note_on_c, 0, 63, 35
1, 188489, Note_on_c, 0, 58, 29
1, 188489, Note_on_c, 0, 55, 29
1, 188547, Note_on_c, 0, 92, 0
1, 188547, Note_on_c, 0, 96, 0
1, 188547, Note_on_c, 0, 55, 0
1, 188550, Note_on_c, 0, 58, 0
1, 188550, Note_on_c, 0, 63, 0
1, 188608, Note_on_c, 0, 94, 50
1, 188608, Note_on_c, 0, 91, 42
1, 188677, Note_on_c, 0, 91, 0
1, 188677, Note_on_c, 0, 94, 0
1, 188745, Note_on_c, 0, 92, 56
1, 188745, Note_on_c, 0, 84, 47
1, 188745, Note_on_c, 0, 34, 59
1, 188807, Note_on_c, 0, 84, 0
1, 188807, Note_on_c, 0, 92, 0
1, 188807, Note_on_c, 0, 34, 0
1, 188868, Note_on_c, 0, 91, 53
1, 188868, Note_on_c, 0, 82, 45
1, 188929, Note_on_c, 0, 82, 0
1, 188929, Note_on_c, 0, 91, 0
1, 188990, Note_on_c, 0, 89, 53
1, 188990, Note_on_c, 0, 80, 45
1, 188990, Note_on_c, 0, 53, 29
1, 188993, Note_on_c, 0, 56, 29
1, 188993, Note_on_c, 0, 62, 35
1, 189051, Note_on_c, 0, 80, 0
1, 189051, Note_on_c, 0, 89, 0
1, 189051, Note_on_c, 0, 62, 0
1, 189054, Note_on_c, 0, 56, 0
1, 189054, Note_on_c, 0, 53, 0
1, 189113, Note_on_c, 0, 87, 53
1, 189113, Note_on_c, 0, 79, 45
1, 189174, Note_on_c, 0, 79, 0
1, 189174, Note_on_c, 0, 87, 0
1, 189235, Note_on_c, 0, 86, 56
1, 189235, Note_on_c, 0, 77, 47
1, 189296, Note_on_c, 0, 77, 0
1, 189296, Note_on_c, 0, 86, 0
1, 189358, Note_on_c, 0, 82, 50
1, 189358, Note_on_c, 0, 74, 42
1, 189426, Note_on_c, 0, 74, 0
1, 189426, Note_on_c, 0, 82, 0
1, 189494, Note_on_c, 0, 81, 50
1, 189494, Note_on_c, 0, 73, 42
1, 189494, Note_on_c, 0, 67, 44
1, 189497, Note_on_c, 0, 64, 37
1, 189556, Note_on_c, 0, 73, 0
1, 189556, Note_on_c, 0, 81, 0
1, 189556, Note_on_c, 0, 64, 0
1, 189559, Note_on_c, 0, 67, 0
1, 189617, Note_on_c, 0, 82, 50
1, 189617, Note_on_c, 0, 74, 42
1, 189617, Note_on_c, 0, 68, 44
1, 189620, Note_on_c, 0, 65, 37
1, 189678, Note_on_c, 0, 74, 0
1, 189678, Note_on_c, 0, 82, 0
1, 189678, Note_on_c, 0, 65, 0
1, 189681, Note_on_c, 0, 68, 0
1, 189739, Note_on_c, 0, 83, 51
1, 189739, Note_on_c, 0, 75, 43
1, 189739, Note_on_c, 0, 69, 42
1, 189742, Note_on_c, 0, 66, 35
1, 189801, Note_on_c, 0, 75, 0
1, 189801, Note_on_c, 0, 83, 0
1, 189801, Note_on_c, 0, 66, 0
1, 189804, Note_on_c, 0, 69, 0
1, 189863, Note_on_c, 0, 84, 43
1, 189863, Note_on_c, 0, 76, 36
1, 189863, Note_on_c, 0, 70, 43
1, 189866, Note_on_c, 0, 67, 36
1, 189924, Note_on_c, 0, 76, 0
1, 189924, Note_on_c, 0, 84, 0
1, 189924, Note_on_c, 0, 67, 0
1, 189927, Note_on_c, 0, 70, 0
1, 189986, Note_on_c, 0, 85, 45
1, 189986, Note_on_c, 0, 77, 38
1, 189986, Note_on_c, 0, 71, 44
1, 189989, Note_on_c, 0, 68, 37
1, 190048, Note_on_c, 0, 77, 0
1, 190048, Note_on_c, 0, 85, 0
1, 190048, Note_on_c, 0, 68, 0
1, 190051, Note_on_c, 0, 71, 0
1, 190109, Note_on_c, 0, 86, 46
1, 190109, Note_on_c, 0, 78, 39
1, 190109, Note_on_c, 0, 72, 45
1, 190112, Note_on_c, 0, 69, 38
1, 190170, Note_on_c, 0, 78, 0
1, 190170, Note_on_c, 0, 86, 0
1, 190170, Note_on_c, 0, 69, 0
1, 190173, Note_on_c, 0, 72, 0
1, 190231, Note_on_c, 0, 87, 48
1, 190231, Note_on_c, 0, 79, 40
1, 190231, Note_on_c, 0, 73, 46
1, 190234, Note_on_c, 0, 70, 39
1, 190292, Note_on_c, 0, 79, 0
1, 190292, Note_on_c, 0, 87, 0
1, 190292, Note_on_c, 0, 70, 0
1, 190295, Note_on_c, 0, 73, 0
1, 190353, Note_on_c, 0, 88, 50
1, 190353, Note_on_c, 0, 80, 42
1, 190353, Note_on_c, 0, 74, 47
1, 190356, Note_on_c, 0, 71, 39
1, 190414, Note_on_c, 0, 80, 0
1, 190414, Note_on_c, 0, 88, 0
1, 190414, Note_on_c, 0, 71, 0
1, 190417, Note_on_c, 0, 74, 0
1, 190474, Note_on_c, 0, 89, 51
1, 190474, Note_on_c, 0, 81, 43
1, 190474, Note_on_c, 0, 75, 48
1, 190477, Note_on_c, 0, 72, 40
1, 190535, Note_on_c, 0, 81, 0
1, 190535, Note_on_c, 0, 89, 0
1, 190535, Note_on_c, 0, 72, 0
1, 190538, Note_on_c, 0, 75, 0
1, 190595, Note_on_c, 0, 90, 53
1, 190595, Note_on_c, 0, 82, 45
1, 190595, Note_on_c, 0, 76, 49
1, 190598, Note_on_c, 0, 73, 41
1, 190655, Note_on_c, 0, 82, 0
1, 190655, Note_on_c, 0, 90, 0
1, 190655, Note_on_c, 0, 73, 0
1, 190658, Note_on_c, 0, 76, 0
1, 190716, Note_on_c, 0, 91, 55
1, 190716, Note_on_c, 0, 83, 46
1, 190716, Note_on_c, 0, 77, 50
1, 190719, Note_on_c, 0, 74, 42
1, 190776, Note_on_c, 0, 83, 0
1, 190776, Note_on_c, 0, 91, 0
1, 190776, Note_on_c, 0, 74, 0
1, 190779, Note_on_c, 0, 77, 0
1, 190836, Note_on_c, 0, 92, 56
1, 190836, Note_on_c, 0, 84, 47
1, 190836, Note_on_c, 0, 78, 51
1, 190839, Note_on_c, 0, 75, 43
1, 190895, Note_on_c, 0, 84, 0
1, 190895, Note_on_c, 0, 92, 0
1, 190895, Note_on_c, 0, 75, 0
1, 190898, Note_on_c, 0, 78, 0
1, 190954, Note_on_c, 0, 93, 58
1, 190954, Note_on_c, 0, 85, 49
1, 190954, Note_on_c, 0, 79, 53
1, 190957, Note_on_c, 0, 76, 45
1, 191013, Note_on_c, 0, 85, 0
1, 191013, Note_on_c, 0, 93, 0
1, 191013, Note_on_c, 0, 76, 0
1, 191016, Note_on_c, 0, 79, 0
1, 191071, Note_on_c, 0, 94, 60
1, 191071, Note_on_c, 0, 86, 51
1, 191071, Note_on_c, 0, 80, 54
1, 191074, Note_on_c, 0, 77, 45
1, 191129, Note_on_c, 0, 86, 0
1, 191129, Note_on_c, 0, 94, 0
1, 191129, Note_on_c, 0, 77, 0
1, 191132, Note_on_c, 0, 80, 0
1, 191187, Note_on_c, 0, 93, 68
1, 191187, Note_on_c, 0, 85, 57
1, 191187, Note_on_c, 0, 79, 55
1, 191190, Note_on_c, 0, 76, 46
1, 191245, Note_on_c, 0, 85, 0
1, 191245, Note_on_c, 0, 93, 0
1, 191245, Note_on_c, 0, 76, 0
1, 191248, Note_on_c, 0, 79, 0
1, 191304, Note_on_c, 0, 94, 69
1, 191304, Note_on_c, 0, 86, 58
1, 191304, Note_on_c, 0, 80, 56
1, 191307, Note_on_c, 0, 77, 47
1, 191364, Note_on_c, 0, 86, 0
1, 191364, Note_on_c, 0, 94, 0
1, 191364, Note_on_c, 0, 77, 0
1, 191367, Note_on_c, 0, 80, 0
1, 191425, Note_on_c, 0, 93, 73
1, 191425, Note_on_c, 0, 81, 62
1, 191486, Note_on_c, 0, 81, 0
1, 191486, Note_on_c, 0, 93, 0
1, 191547, Note_on_c, 0, 94, 71
1, 191547, Note_on_c, 0, 82, 60
1, 191619, Note_on_c, 0, 82, 0
1, 191619, Note_on_c, 0, 94, 0
1, 191691, Note_on_c, 0, 98, 85
1, 191691, Note_on_c, 0, 86, 72
1, 191691, Note_on_c, 0, 94, 72
1, 191694, Note_on_c, 0, 44, 71
1, 191694, Note_on_c, 0, 32, 60
1, 191737, Control_c, 0, 64, 127
1, 191823, Note_on_c, 0, 94, 0
1, 191823, Note_on_c, 0, 86, 0
1, 191823, Note_on_c, 0, 98, 0
1, 191826, Note_on_c, 0, 32, 0
1, 191826, Note_on_c, 0, 44, 0
1, 191955, Note_on_c, 0, 98, 78
1, 191955, Note_on_c, 0, 86, 66
1, 191955, Note_on_c, 0, 94, 66
1, 191958, Note_on_c, 0, 65, 64
1, 191958, Note_on_c, 0, 60, 54
1, 191958, Note_on_c, 0, 53, 54
1, 192212, Note_on_c, 0, 94, 0
1, 192212, Note_on_c, 0, 86, 0
1, 192212, Note_on_c, 0, 98, 0
1, 192215, Note_on_c, 0, 96, 85
1, 192215, Note_on_c, 0, 84, 72
1, 192215, Note_on_c, 0, 92, 72
1, 192218, Note_on_c, 0, 53, 0
1, 192218, Note_on_c, 0, 60, 0
1, 192218, Note_on_c, 0, 65, 0
1, 192221, Note_on_c, 0, 46, 71
1, 192221, Note_on_c, 0, 34, 60
1, 192221, Control_c, 0, 64, 0
1, 192314, Control_c, 0, 64, 127
1, 192336, Note_on_c, 0, 92, 0
1, 192336, Note_on_c, 0, 84, 0
1, 192336, Note_on_c, 0, 96, 0
1, 192339, Note_on_c, 0, 34, 0
1, 192339, Note_on_c, 0, 46, 0
1, 192459, Note_on_c, 0, 96, 80
1, 192459, Note_on_c, 0, 84, 68
1, 192459, Note_on_c, 0, 92, 68
1, 192462, Note_on_c, 0, 65, 65
1, 192462, Note_on_c, 0, 62, 55
1, 192462, Note_on_c, 0, 53, 55
1, 192715, Note_on_c, 0, 92, 0
1, 192715, Note_on_c, 0, 84, 0
1, 192715, Note_on_c, 0, 96, 0
1, 192718, Note_on_c, 0, 91, 84
1, 192718, Note_on_c, 0, 79, 71
1, 192718, Note_on_c, 0, 87, 71
1, 192721, Note_on_c, 0, 53, 0
1, 192721, Note_on_c, 0, 62, 0
1, 192721, Note_on_c, 0, 65, 0
1, 192724, Note_on_c, 0, 51, 71
1, 192724, Note_on_c, 0, 39, 60
1, 192724, Control_c, 0, 64, 0
1, 192759, Control_c, 0, 64, 127
1, 192838, Note_on_c, 0, 87, 0
1, 192838, Note_on_c, 0, 79, 0
1, 192838, Note_on_c, 0, 91, 0
1, 192841, Note_on_c, 0, 39, 0
1, 192841, Note_on_c, 0, 51, 0
1, 192961, Note_on_c, 0, 94, 76
1, 192961, Note_on_c, 0, 82, 64
1, 192961, Note_on_c, 0, 91, 64
1, 192964, Note_on_c, 0, 67, 65
1, 192964, Note_on_c, 0, 63, 55
1, 192964, Note_on_c, 0, 55, 55
1, 193091, Note_on_c, 0, 91, 0
1, 193091, Note_on_c, 0, 82, 0
1, 193091, Note_on_c, 0, 94, 0
1, 193094, Note_on_c, 0, 55, 0
1, 193094, Note_on_c, 0, 63, 0
1, 193094, Note_on_c, 0, 67, 0
1, 193221, Note_on_c, 0, 94, 81
1, 193221, Note_on_c, 0, 82, 68
1, 193221, Note_on_c, 0, 91, 68
1, 193224, Note_on_c, 0, 51, 71
1, 193224, Note_on_c, 0, 39, 60
1, 193282, Note_on_c, 0, 91, 0
1, 193282, Note_on_c, 0, 82, 0
1, 193282, Note_on_c, 0, 94, 0
1, 193344, Note_on_c, 0, 39, 0
1, 193344, Note_on_c, 0, 51, 0
1, 193405, Note_on_c, 0, 93, 72
1, 193405, Note_on_c, 0, 81, 61
1, 193405, Note_on_c, 0, 90, 61
1, 193466, Note_on_c, 0, 90, 0
1, 193466, Note_on_c, 0, 81, 0
1, 193466, Note_on_c, 0, 93, 0
1, 193469, Note_on_c, 0, 94, 80
1, 193469, Note_on_c, 0, 82, 68
1, 193469, Note_on_c, 0, 91, 68
1, 193472, Note_on_c, 0, 67, 65
1, 193472, Note_on_c, 0, 63, 55
1, 193472, Note_on_c, 0, 55, 55
1, 193596, Note_on_c, 0, 91, 0
1, 193596, Note_on_c, 0, 82, 0
1, 193596, Note_on_c, 0, 94, 0
1, 193599, Note_on_c, 0, 55, 0
1, 193599, Note_on_c, 0, 63, 0
1, 193599, Note_on_c, 0, 67, 0
1, 193726, Note_on_c, 0, 89, 75
1, 193726, Note_on_c, 0, 77, 63
1, 193726, Note_on_c, 0, 80, 63
1, 193729, Note_on_c, 0, 53, 71
1, 193729, Note_on_c, 0, 41, 60
1, 193770, Control_c, 0, 64, 0
1, 193787, Note_on_c, 0, 80, 0
1, 193787, Note_on_c, 0, 77, 0
1, 193787, Note_on_c, 0, 89, 0
1, 193808, Control_c, 0, 64, 127
1, 193848, Note_on_c, 0, 91, 74
1, 193848, Note_on_c, 0, 79, 62
1, 193848, Note_on_c, 0, 82, 62
1, 193851, Note_on_c, 0, 41, 0
1, 193851, Note_on_c, 0, 53, 0
1, 193909, Note_on_c, 0, 82, 0
1, 193909, Note_on_c, 0, 79, 0
1, 193909, Note_on_c, 0, 91, 0
1, 193970, Note_on_c, 0, 92, 74
1, 193970, Note_on_c, 0, 80, 62
1, 193970, Note_on_c, 0, 84, 62
1, 193973, Note_on_c, 0, 65, 65
1, 193973, Note_on_c, 0, 60, 55
1, 193973, Note_on_c, 0, 56, 55
1, 194030, Note_on_c, 0, 84, 0
1, 194030, Note_on_c, 0, 80, 0
1, 194030, Note_on_c, 0, 92, 0
1, 194089, Note_on_c, 0, 87, 74
1, 194089, Note_on_c, 0, 96, 74
1, 194089, Note_on_c, 0, 84, 62
1, 194092, Note_on_c, 0, 56, 0
1, 194092, Note_on_c, 0, 60, 0
1, 194092, Note_on_c, 0, 65, 0
1, 194148, Note_on_c, 0, 84, 0
1, 194148, Note_on_c, 0, 96, 0
1, 194148, Note_on_c, 0, 87, 0
1, 194207, Note_on_c, 0, 86, 76
1, 194207, Note_on_c, 0, 94, 76
1, 194207, Note_on_c, 0, 82, 64
1, 194210, Note_on_c, 0, 46, 71
1, 194210, Note_on_c, 0, 34, 60
1, 194214, Control_c, 0, 64, 0
1, 194257, Control_c, 0, 64, 127
1, 194268, Note_on_c, 0, 82, 0
1, 194268, Note_on_c, 0, 94, 0
1, 194268, Note_on_c, 0, 86, 0
1, 194329, Note_on_c, 0, 92, 73
1, 194329, Note_on_c, 0, 80, 62
1, 194329, Note_on_c, 0, 84, 62
1, 194332, Note_on_c, 0, 34, 0
1, 194332, Note_on_c, 0, 46, 0
1, 194390, Note_on_c, 0, 84, 0
1, 194390, Note_on_c, 0, 80, 0
1, 194390, Note_on_c, 0, 92, 0
1, 194451, Note_on_c, 0, 91, 74
1, 194451, Note_on_c, 0, 79, 62
1, 194451, Note_on_c, 0, 82, 62
1, 194454, Note_on_c, 0, 65, 65
1, 194454, Note_on_c, 0, 62, 55
1, 194454, Note_on_c, 0, 56, 55
1, 194512, Note_on_c, 0, 82, 0
1, 194512, Note_on_c, 0, 79, 0
1, 194512, Note_on_c, 0, 91, 0
1, 194573, Note_on_c, 0, 89, 74
1, 194573, Note_on_c, 0, 77, 62
1, 194573, Note_on_c, 0, 80, 62
1, 194576, Note_on_c, 0, 56, 0
1, 194576, Note_on_c, 0, 62, 0
1, 194576, Note_on_c, 0, 65, 0
1, 194634, Note_on_c, 0, 80, 0
1, 194634, Note_on_c, 0, 77, 0
1, 194634, Note_on_c, 0, 89, 0
1, 194695, Note_on_c, 0, 94, 84
1, 194695, Note_on_c, 0, 91, 84
1, 194695, Note_on_c, 0, 82, 71
1, 194698, Note_on_c, 0, 51, 71
1, 194698, Note_on_c, 0, 39, 60
1, 194698, Control_c, 0, 64, 0
1, 194740, Control_c, 0, 64, 127
1, 194819, Note_on_c, 0, 82, 0
1, 194819, Note_on_c, 0, 91, 0
1, 194819, Note_on_c, 0, 94, 0
1, 194822, Note_on_c, 0, 39, 0
1, 194822, Note_on_c, 0, 51, 0
1, 194942, Note_on_c, 0, 91, 76
1, 194942, Note_on_c, 0, 94, 76
1, 194942, Note_on_c, 0, 82, 64
1, 194945, Note_on_c, 0, 67, 65
1, 194945, Note_on_c, 0, 63, 55
1, 194945, Note_on_c, 0, 55, 55
1, 195072, Note_on_c, 0, 82, 0
1, 195072, Note_on_c, 0, 94, 0
1, 195072, Note_on_c, 0, 91, 0
1, 195075, Note_on_c, 0, 55, 0
1, 195075, Note_on_c, 0, 63, 0
1, 195075, Note_on_c, 0, 67, 0
1, 195137, Note_on_c, 0, 81, 61
1, 195137, Note_on_c, 0, 90, 72
1, 195137, Note_on_c, 0, 93, 72
1, 195202, Note_on_c, 0, 93, 0
1, 195202, Note_on_c, 0, 90, 0
1, 195202, Note_on_c, 0, 81, 0
1, 195205, Note_on_c, 0, 94, 81
1, 195205, Note_on_c, 0, 91, 81
1, 195205, Note_on_c, 0, 82, 68
1, 195208, Note_on_c, 0, 51, 71
1, 195208, Note_on_c, 0, 39, 60
1, 195324, Note_on_c, 0, 39, 0
1, 195324, Note_on_c, 0, 51, 0
1, 195447, Note_on_c, 0, 67, 65
1, 195447, Note_on_c, 0, 63, 55
1, 195447, Note_on_c, 0, 55, 55
1, 195580, Note_on_c, 0, 55, 0
1, 195580, Note_on_c, 0, 63, 0
1, 195580, Note_on_c, 0, 67, 0
1, 195713, Note_on_c, 0, 82, 0
1, 195713, Note_on_c, 0, 91, 0
1, 195713, Note_on_c, 0, 94, 0
1, 195716, Note_on_c, 0, 98, 85
1, 195716, Note_on_c, 0, 86, 72
1, 195716, Note_on_c, 0, 94, 72
1, 195719, Note_on_c, 0, 44, 71
1, 195719, Note_on_c, 0, 32, 60
1, 195724, Control_c, 0, 64, 0
1, 195840, Control_c, 0, 64, 127
1, 195857, Note_on_c, 0, 94, 0
1, 195857, Note_on_c, 0, 86, 0
1, 195857, Note_on_c, 0, 98, 0
1, 195860, Note_on_c, 0, 32, 0
1, 195860, Note_on_c, 0, 44, 0
1, 196000, Note_on_c, 0, 98, 78
1, 196000, Note_on_c, 0, 86, 66
1, 196000, Note_on_c, 0, 94, 66
1, 196003, Note_on_c, 0, 65, 64
1, 196003, Note_on_c, 0, 60, 54
1, 196003, Note_on_c, 0, 53, 54
1, 196279, Note_on_c, 0, 94, 0
1, 196279, Note_on_c, 0, 86, 0
1, 196279, Note_on_c, 0, 98, 0
1, 196282, Note_on_c, 0, 96, 85
1, 196282, Note_on_c, 0, 84, 72
1, 196282, Note_on_c, 0, 92, 72
1, 196285, Note_on_c, 0, 53, 0
1, 196285, Note_on_c, 0, 60, 0
1, 196285, Note_on_c, 0, 65, 0
1, 196288, Note_on_c, 0, 46, 71
1, 196288, Note_on_c, 0, 34, 60
1, 196288, Control_c, 0, 64, 0
1, 196385, Control_c, 0, 64, 127
1, 196407, Note_on_c, 0, 92, 0
1, 196407, Note_on_c, 0, 84, 0
1, 196407, Note_on_c, 0, 96, 0
1, 196410, Note_on_c, 0, 34, 0
1, 196410, Note_on_c, 0, 46, 0
1, 196535, Note_on_c, 0, 96, 80
1, 196535, Note_on_c, 0, 84, 68
1, 196535, Note_on_c, 0, 92, 68
1, 196538, Note_on_c, 0, 65, 65
1, 196538, Note_on_c, 0, 62, 55
1, 196538, Note_on_c, 0, 53, 55
1, 196804, Note_on_c, 0, 92, 0
1, 196804, Note_on_c, 0, 84, 0
1, 196804, Note_on_c, 0, 96, 0
1, 196807, Note_on_c, 0, 91, 84
1, 196807, Note_on_c, 0, 79, 71
1, 196807, Note_on_c, 0, 87, 71
1, 196810, Note_on_c, 0, 53, 0
1, 196810, Note_on_c, 0, 62, 0
1, 196810, Note_on_c, 0, 65, 0
1, 196813, Note_on_c, 0, 51, 71
1, 196813, Note_on_c, 0, 39, 60
1, 196813, Control_c, 0, 64, 0
1, 196848, Control_c, 0, 64, 127
1, 196927, Note_on_c, 0, 87, 0
1, 196927, Note_on_c, 0, 79, 0
1, 196927, Note_on_c, 0, 91, 0
1, 196930, Note_on_c, 0, 39, 0
1, 196930, Note_on_c, 0, 51, 0
1, 197051, Note_on_c, 0, 94, 76
1, 197051, Note_on_c, 0, 82, 64
1, 197051, Note_on_c, 0, 91, 64
1, 197054, Note_on_c, 0, 67, 65
1, 197054, Note_on_c, 0, 63, 55
1, 197054, Note_on_c, 0, 55, 55
1, 197180, Note_on_c, 0, 91, 0
1, 197180, Note_on_c, 0, 82, 0
1, 197180, Note_on_c, 0, 94, 0
1, 197183, Note_on_c, 0, 55, 0
1, 197183, Note_on_c, 0, 63, 0
1, 197183, Note_on_c, 0, 67, 0
1, 197310, Note_on_c, 0, 94, 81
1, 197310, Note_on_c, 0, 82, 68
1, 197310, Note_on_c, 0, 91, 68
1, 197313, Note_on_c, 0, 51, 71
1, 197313, Note_on_c, 0, 39, 60
1, 197372, Note_on_c, 0, 91, 0
1, 197372, Note_on_c, 0, 82, 0
1, 197372, Note_on_c, 0, 94, 0
1, 197433, Note_on_c, 0, 39, 0
1, 197433, Note_on_c, 0, 51, 0
1, 197494, Note_on_c, 0, 93, 72
1, 197494, Note_on_c, 0, 81, 61
1, 197494, Note_on_c, 0, 90, 61
1, 197555, Note_on_c, 0, 90, 0
1, 197555, Note_on_c, 0, 81, 0
1, 197555, Note_on_c, 0, 93, 0
1, 197558, Note_on_c, 0, 94, 80
1, 197558, Note_on_c, 0, 82, 68
1, 197558, Note_on_c, 0, 91, 68
1, 197561, Note_on_c, 0, 67, 65
1, 197561, Note_on_c, 0, 63, 55
1, 197561, Note_on_c, 0, 55, 55
1, 197685, Note_on_c, 0, 91, 0
1, 197685, Note_on_c, 0, 82, 0
1, 197685, Note_on_c, 0, 94, 0
1, 197688, Note_on_c, 0, 55, 0
1, 197688, Note_on_c, 0, 63, 0
1, 197688, Note_on_c, 0, 67, 0
1, 197815, Note_on_c, 0, 89, 66
1, 197815, Note_on_c, 0, 77, 56
1, 197815, Note_on_c, 0, 80, 56
1, 197818, Note_on_c, 0, 53, 71
1, 197818, Note_on_c, 0, 41, 60
1, 197859, Control_c, 0, 64, 0
1, 197876, Note_on_c, 0, 80, 0
1, 197876, Note_on_c, 0, 77, 0
1, 197876, Note_on_c, 0, 89, 0
1, 197898, Control_c, 0, 64, 127
1, 197937, Note_on_c, 0, 91, 68
1, 197937, Note_on_c, 0, 79, 57
1, 197937, Note_on_c, 0, 82, 57
1, 197940, Note_on_c, 0, 41, 0
1, 197940, Note_on_c, 0, 53, 0
1, 197999, Note_on_c, 0, 82, 0
1, 197999, Note_on_c, 0, 79, 0
1, 197999, Note_on_c, 0, 91, 0
1, 198060, Note_on_c, 0, 92, 70
1, 198060, Note_on_c, 0, 80, 59
1, 198060, Note_on_c, 0, 83, 59
1, 198063, Note_on_c, 0, 65, 65
1, 198063, Note_on_c, 0, 60, 55
1, 198063, Note_on_c, 0, 56, 55
1, 198119, Note_on_c, 0, 83, 0
1, 198119, Note_on_c, 0, 80, 0
1, 198119, Note_on_c, 0, 92, 0
1, 198178, Note_on_c, 0, 84, 61
1, 198178, Note_on_c, 0, 93, 72
1, 198178, Note_on_c, 0, 81, 61
1, 198181, Note_on_c, 0, 56, 0
1, 198181, Note_on_c, 0, 60, 0
1, 198181, Note_on_c, 0, 65, 0
1, 198237, Note_on_c, 0, 81, 0
1, 198237, Note_on_c, 0, 93, 0
1, 198237, Note_on_c, 0, 84, 0
1, 198296, Note_on_c, 0, 94, 74
1, 198296, Note_on_c, 0, 85, 62
1, 198296, Note_on_c, 0, 82, 62
1, 198299, Note_on_c, 0, 46, 71
1, 198299, Note_on_c, 0, 34, 60
1, 198303, Control_c, 0, 64, 0
1, 198346, Control_c, 0, 64, 127
1, 198357, Note_on_c, 0, 82, 0
1, 198357, Note_on_c, 0, 85, 0
1, 198357, Note_on_c, 0, 94, 0
1, 198418, Note_on_c, 0, 95, 76
1, 198418, Note_on_c, 0, 83, 64
1, 198418, Note_on_c, 0, 86, 64
1, 198421, Note_on_c, 0, 34, 0
1, 198421, Note_on_c, 0, 46, 0
1, 198479, Note_on_c, 0, 86, 0
1, 198479, Note_on_c, 0, 83, 0
1, 198479, Note_on_c, 0, 95, 0
1, 198540, Note_on_c, 0, 96, 78
1, 198540, Note_on_c, 0, 84, 66
1, 198540, Note_on_c, 0, 87, 66
1, 198543, Note_on_c, 0, 65, 65
1, 198543, Note_on_c, 0, 62, 55
1, 198543, Note_on_c, 0, 56, 55
1, 198603, Note_on_c, 0, 87, 0
1, 198603, Note_on_c, 0, 84, 0
1, 198603, Note_on_c, 0, 96, 0
1, 198665, Note_on_c, 0, 98, 79
1, 198665, Note_on_c, 0, 86, 67
1, 198665, Note_on_c, 0, 89, 67
1, 198668, Note_on_c, 0, 56, 0
1, 198668, Note_on_c, 0, 62, 0
1, 198668, Note_on_c, 0, 65, 0
1, 198728, Note_on_c, 0, 89, 0
1, 198728, Note_on_c, 0, 86, 0
1, 198728, Note_on_c, 0, 98, 0
1, 198790, Note_on_c, 0, 99, 81
1, 198790, Note_on_c, 0, 87, 68
1, 198790, Note_on_c, 0, 91, 68
1, 198793, Note_on_c, 0, 39, 60
1, 198793, Note_on_c, 0, 51, 71
1, 198793, Control_c, 0, 64, 0
1, 198851, Note_on_c, 0, 91, 0
1, 198851, Note_on_c, 0, 87, 0
1, 198851, Note_on_c, 0, 99, 0
1, 198898, Control_c, 0, 64, 127
1, 198912, Note_on_c, 0, 51, 0
1, 198912, Note_on_c, 0, 39, 0
1, 199278, Note_on_c, 0, 75, 68
1, 199278, Note_on_c, 0, 79, 68
1, 199278, Note_on_c, 0, 82, 68
1, 199281, Note_on_c, 0, 87, 81
1, 199281, Note_on_c, 0, 63, 60
1, 199281, Note_on_c, 0, 67, 71
1, 199284, Note_on_c, 0, 55, 60
1, 199284, Note_on_c, 0, 58, 60
1, 199339, Note_on_c, 0, 87, 0
1, 199339, Note_on_c, 0, 75, 0
1, 199339, Note_on_c, 0, 79, 0
1, 199342, Note_on_c, 0, 82, 0
1, 199400, Note_on_c, 0, 55, 0
1, 199400, Note_on_c, 0, 63, 0
1, 199400, Note_on_c, 0, 67, 0
1, 199403, Note_on_c, 0, 58, 0
1, 199408, Control_c, 0, 64, 0
1, 200499, Note_on_c, 0, 58, 57
1, 200554, Note_on_c, 0, 58, 0
1, 200554, Note_on_c, 0, 60, 54
1, 200609, Note_on_c, 0, 60, 0
1, 200609, Note_on_c, 0, 58, 55
1, 200664, Note_on_c, 0, 58, 0
1, 200664, Note_on_c, 0, 57, 55
1, 200718, Note_on_c, 0, 57, 0
1, 200718, Note_on_c, 0, 58, 55
1, 200773, Note_on_c, 0, 58, 0
1, 200773, Note_on_c, 0, 62, 60
1, 200832, Note_on_c, 0, 62, 0
1, 200931, Note_on_c, 0, 61, 53
1, 201002, Note_on_c, 0, 61, 0
1, 201072, Note_on_c, 0, 60, 53
1, 201072, Note_on_c, 0, 46, 34
1, 201072, Note_on_c, 0, 53, 41
1, 201139, Note_on_c, 0, 60, 0
1, 201139, Note_on_c, 0, 53, 0
1, 201139, Note_on_c, 0, 46, 0
1, 201205, Note_on_c, 0, 59, 53
1, 201272, Note_on_c, 0, 59, 0
1, 201339, Note_on_c, 0, 58, 57
1, 201339, Note_on_c, 0, 39, 45
1, 201409, Note_on_c, 0, 58, 0
1, 201409, Note_on_c, 0, 39, 0
1, 201478, Note_on_c, 0, 57, 54
1, 201544, Note_on_c, 0, 57, 0
1, 201609, Note_on_c, 0, 56, 54
1, 201609, Note_on_c, 0, 46, 37
1, 201609, Note_on_c, 0, 53, 44
1, 201675, Note_on_c, 0, 56, 0
1, 201675, Note_on_c, 0, 53, 0
1, 201675, Note_on_c, 0, 46, 0
1, 201740, Note_on_c, 0, 60, 54
1, 201806, Note_on_c, 0, 60, 0
1, 201871, Note_on_c, 0, 55, 57
1, 201938, Note_on_c, 0, 55, 0
1, 202005, Note_on_c, 0, 56, 54
1, 202071, Note_on_c, 0, 56, 0
1, 202138, Note_on_c, 0, 57, 54
1, 202138, Note_on_c, 0, 46, 34
1, 202138, Note_on_c, 0, 51, 40
1, 202205, Note_on_c, 0, 57, 0
1, 202205, Note_on_c, 0, 51, 0
1, 202205, Note_on_c, 0, 46, 0
1, 202271, Note_on_c, 0, 58, 54
1, 202307, Note_on_c, 0, 58, 0
1, 202343, Note_on_c, 0, 57, 49
1, 202374, Note_on_c, 0, 57, 0
1, 202374, Note_on_c, 0, 58, 49
1, 202405, Note_on_c, 0, 58, 0
1, 202405, Note_on_c, 0, 60, 49
1, 202436, Note_on_c, 0, 60, 0
1, 202436, Note_on_c, 0, 58, 57
1, 202436, Note_on_c, 0, 39, 45
1, 202496, Note_on_c, 0, 58, 0
1, 202496, Note_on_c, 0, 39, 0
1, 202557, Note_on_c, 0, 57, 53
1, 202617, Note_on_c, 0, 57, 0
1, 202677, Note_on_c, 0, 58, 57
1, 202677, Note_on_c, 0, 46, 36
1, 202677, Note_on_c, 0, 51, 43
1, 202745, Note_on_c, 0, 58, 0
1, 202745, Note_on_c, 0, 51, 0
1, 202745, Note_on_c, 0, 46, 0
1, 202813, Note_on_c, 0, 55, 54
1, 202881, Note_on_c, 0, 55, 0
1, 202957, Note_on_c, 0, 53, 57
1, 203023, Note_on_c, 0, 53, 0
1, 203089, Note_on_c, 0, 55, 51
1, 203155, Note_on_c, 0, 55, 0
1, 203221, Note_on_c, 0, 56, 51
1, 203221, Note_on_c, 0, 46, 35
1, 203221, Note_on_c, 0, 50, 42
1, 203287, Note_on_c, 0, 56, 0
1, 203287, Note_on_c, 0, 50, 0
1, 203287, Note_on_c, 0, 46, 0
1, 203353, Note_on_c, 0, 60, 51
1, 203419, Note_on_c, 0, 60, 0
1, 203485, Note_on_c, 0, 58, 54
1, 203485, Note_on_c, 0, 39, 45
1, 203551, Note_on_c, 0, 58, 0
1, 203551, Note_on_c, 0, 39, 0
1, 203618, Note_on_c, 0, 56, 51
1, 203684, Note_on_c, 0, 56, 0
1, 203750, Note_on_c, 0, 55, 51
1, 203750, Note_on_c, 0, 46, 36
1, 203750, Note_on_c, 0, 50, 43
1, 203816, Note_on_c, 0, 55, 0
1, 203816, Note_on_c, 0, 50, 0
1, 203816, Note_on_c, 0, 46, 0
1, 203882, Note_on_c, 0, 53, 51
1, 203948, Note_on_c, 0, 53, 0
1, 204018, Note_on_c, 0, 57, 54
1, 204084, Note_on_c, 0, 57, 0
1, 204150, Note_on_c, 0, 58, 45
1, 204216, Note_on_c, 0, 58, 0
1, 204282, Note_on_c, 0, 58, 47
1, 204282, Note_on_c, 0, 46, 34
1, 204282, Note_on_c, 0, 55, 41
1, 204348, Note_on_c, 0, 58, 0
1, 204348, Note_on_c, 0, 55, 0
1, 204348, Note_on_c, 0, 46, 0
1, 204414, Note_on_c, 0, 59, 48
1, 204479, Note_on_c, 0, 59, 0
1, 204544, Note_on_c, 0, 59, 50
1, 204544, Note_on_c, 0, 39, 45
1, 204609, Note_on_c, 0, 59, 0
1, 204609, Note_on_c, 0, 39, 0
1, 204673, Note_on_c, 0, 60, 52
1, 204737, Note_on_c, 0, 60, 0
1, 204800, Note_on_c, 0, 60, 54
1, 204800, Note_on_c, 0, 46, 41
1, 204800, Note_on_c, 0, 55, 49
1, 204863, Note_on_c, 0, 60, 0
1, 204863, Note_on_c, 0, 55, 0
1, 204863, Note_on_c, 0, 46, 0
1, 204925, Note_on_c, 0, 61, 55
1, 204988, Note_on_c, 0, 61, 0
1, 205070, Note_on_c, 0, 62, 58
1, 205137, Note_on_c, 0, 62, 0
1, 205205, Note_on_c, 0, 61, 53
1, 205274, Note_on_c, 0, 61, 0
1, 205342, Note_on_c, 0, 60, 53
1, 205342, Note_on_c, 0, 46, 34
1, 205342, Note_on_c, 0, 53, 41
1, 205409, Note_on_c, 0, 60, 0
1, 205409, Note_on_c, 0, 53, 0
1, 205409, Note_on_c, 0, 46, 0
1, 205476, Note_on_c, 0, 59, 53
1, 205542, Note_on_c, 0, 59, 0
1, 205609, Note_on_c, 0, 58, 57
1, 205609, Note_on_c, 0, 39, 45
1, 205674, Note_on_c, 0, 58, 0
1, 205674, Note_on_c, 0, 39, 0
1, 205740, Note_on_c, 0, 57, 54
1, 205805, Note_on_c, 0, 57, 0
1, 205871, Note_on_c, 0, 56, 54
1, 205871, Note_on_c, 0, 46, 37
1, 205871, Note_on_c, 0, 53, 44
1, 205936, Note_on_c, 0, 56, 0
1, 205936, Note_on_c, 0, 53, 0
1, 205936, Note_on_c, 0, 46, 0
1, 206002, Note_on_c, 0, 60, 54
1, 206067, Note_on_c, 0, 60, 0
1, 206133, Note_on_c, 0, 55, 57
1, 206202, Note_on_c, 0, 55, 0
1, 206271, Note_on_c, 0, 56, 54
1, 206337, Note_on_c, 0, 56, 0
1, 206403, Note_on_c, 0, 57, 54
1, 206403, Note_on_c, 0, 46, 34
1, 206403, Note_on_c, 0, 51, 40
1, 206469, Note_on_c, 0, 57, 0
1, 206469, Note_on_c, 0, 51, 0
1, 206469, Note_on_c, 0, 46, 0
1, 206535, Note_on_c, 0, 58, 54
1, 206571, Note_on_c, 0, 58, 0
1, 206607, Note_on_c, 0, 57, 49
1, 206638, Note_on_c, 0, 57, 0
1, 206638, Note_on_c, 0, 58, 49
1, 206669, Note_on_c, 0, 58, 0
1, 206669, Note_on_c, 0, 60, 49
1, 206700, Note_on_c, 0, 60, 0
1, 206700, Note_on_c, 0, 58, 57
1, 206700, Note_on_c, 0, 39, 45
1, 206762, Note_on_c, 0, 58, 0
1, 206762, Note_on_c, 0, 39, 0
1, 206824, Note_on_c, 0, 57, 53
1, 206886, Note_on_c, 0, 57, 0
1, 206947, Note_on_c, 0, 58, 57
1, 206947, Note_on_c, 0, 46, 36
1, 206947, Note_on_c, 0, 51, 43
1, 207013, Note_on_c, 0, 58, 0
1, 207013, Note_on_c, 0, 51, 0
1, 207013, Note_on_c, 0, 46, 0
1, 207079, Note_on_c, 0, 55, 54
1, 207145, Note_on_c, 0, 55, 0
1, 207222, Note_on_c, 0, 53, 57
1, 207288, Note_on_c, 0, 53, 0
1, 207354, Note_on_c, 0, 55, 51
1, 207420, Note_on_c, 0, 55, 0
1, 207486, Note_on_c, 0, 56, 51
1, 207486, Note_on_c, 0, 46, 35
1, 207486, Note_on_c, 0, 50, 42
1, 207552, Note_on_c, 0, 56, 0
1, 207552, Note_on_c, 0, 50, 0
1, 207552, Note_on_c, 0, 46, 0
1, 207618, Note_on_c, 0, 60, 51
1, 207684, Note_on_c, 0, 60, 0
1, 207750, Note_on_c, 0, 58, 54
1, 207750, Note_on_c, 0, 39, 45
1, 207816, Note_on_c, 0, 58, 0
1, 207816, Note_on_c, 0, 39, 0
1, 207882, Note_on_c, 0, 56, 51
1, 207948, Note_on_c, 0, 56, 0
1, 208014, Note_on_c, 0, 55, 51
1, 208014, Note_on_c, 0, 46, 36
1, 208014, Note_on_c, 0, 50, 43
1, 208081, Note_on_c, 0, 55, 0
1, 208081, Note_on_c, 0, 50, 0
1, 208081, Note_on_c, 0, 46, 0
1, 208147, Note_on_c, 0, 53, 51
1, 208213, Note_on_c, 0, 53, 0
1, 208282, Note_on_c, 0, 55, 54
1, 208349, Note_on_c, 0, 55, 0
1, 208415, Note_on_c, 0, 51, 51
1, 208481, Note_on_c, 0, 51, 0
1, 208547, Note_on_c, 0, 55, 53
1, 208547, Note_on_c, 0, 46, 34
1, 208547, Note_on_c, 0, 51, 41
1, 208613, Note_on_c, 0, 55, 0
1, 208613, Note_on_c, 0, 51, 0
1, 208613, Note_on_c, 0, 46, 0
1, 208679, Note_on_c, 0, 58, 55
1, 208744, Note_on_c, 0, 58, 0
1, 208809, Note_on_c, 0, 63, 57
1, 208809, Note_on_c, 0, 39, 45
1, 208874, Note_on_c, 0, 63, 0
1, 208874, Note_on_c, 0, 39, 0
1, 208938, Note_on_c, 0, 66, 52
1, 209001, Note_on_c, 0, 66, 0
1, 209065, Note_on_c, 0, 67, 53
1, 209128, Note_on_c, 0, 67, 0
1, 209190, Note_on_c, 0, 70, 55
1, 209252, Note_on_c, 0, 70, 0
1, 209334, Note_on_c, 0, 74, 63
1, 209388, Note_on_c, 0, 74, 0
1, 209463, Note_on_c, 0, 65, 55
1, 209528, Note_on_c, 0, 65, 0
1, 209593, Note_on_c, 0, 74, 76
1, 209593, Note_on_c, 0, 46, 54
1, 209593, Note_on_c, 0, 56, 63
1, 209596, Control_c, 0, 64, 127
1, 209715, Note_on_c, 0, 82, 55
1, 209837, Note_on_c, 0, 82, 0
1, 209837, Note_on_c, 0, 74, 0
1, 209837, Note_on_c, 0, 72, 59
1, 209840, Note_on_c, 0, 56, 0
1, 209840, Note_on_c, 0, 46, 0
1, 209840, Note_on_c, 0, 39, 47
1, 209844, Control_c, 0, 64, 0
1, 209898, Note_on_c, 0, 72, 0
1, 209960, Note_on_c, 0, 65, 55
1, 210022, Note_on_c, 0, 65, 0
1, 210084, Note_on_c, 0, 72, 76
1, 210084, Note_on_c, 0, 39, 0
1, 210084, Note_on_c, 0, 46, 46
1, 210087, Note_on_c, 0, 56, 56
1, 210097, Control_c, 0, 64, 127
1, 210199, Note_on_c, 0, 80, 55
1, 210315, Note_on_c, 0, 80, 0
1, 210315, Note_on_c, 0, 72, 0
1, 210315, Note_on_c, 0, 67, 63
1, 210318, Note_on_c, 0, 56, 0
1, 210318, Note_on_c, 0, 46, 0
1, 210318, Control_c, 0, 64, 0
1, 210375, Note_on_c, 0, 67, 0
1, 210435, Note_on_c, 0, 58, 55
1, 210494, Note_on_c, 0, 58, 0
1, 210554, Note_on_c, 0, 67, 75
1, 210554, Note_on_c, 0, 46, 54
1, 210554, Note_on_c, 0, 55, 63
1, 210571, Control_c, 0, 64, 127
1, 210670, Note_on_c, 0, 75, 55
1, 210786, Note_on_c, 0, 75, 0
1, 210786, Note_on_c, 0, 67, 0
1, 210786, Note_on_c, 0, 70, 59
1, 210789, Note_on_c, 0, 55, 0
1, 210789, Note_on_c, 0, 46, 0
1, 210789, Note_on_c, 0, 39, 47
1, 210806, Control_c, 0, 64, 0
1, 210843, Note_on_c, 0, 70, 0
1, 210899, Note_on_c, 0, 63, 55
1, 210956, Note_on_c, 0, 63, 0
1, 211013, Note_on_c, 0, 70, 72
1, 211013, Note_on_c, 0, 39, 0
1, 211013, Note_on_c, 0, 46, 46
1, 211016, Note_on_c, 0, 55, 56
1, 211026, Control_c, 0, 64, 127
1, 211126, Note_on_c, 0, 79, 55
1, 211183, Note_on_c, 0, 79, 0
1, 211211, Note_on_c, 0, 73, 59
1, 211240, Note_on_c, 0, 73, 0
1, 211240, Note_on_c, 0, 70, 0
1, 211240, Note_on_c, 0, 74, 63
1, 211243, Note_on_c, 0, 55, 0
1, 211243, Note_on_c, 0, 46, 0
1, 211243, Control_c, 0, 64, 0
1, 211294, Note_on_c, 0, 74, 0
1, 211349, Note_on_c, 0, 65, 55
1, 211403, Note_on_c, 0, 65, 0
1, 211458, Note_on_c, 0, 74, 77
1, 211458, Note_on_c, 0, 46, 54
1, 211458, Note_on_c, 0, 56, 63
1, 211470, Control_c, 0, 64, 127
1, 211600, Note_on_c, 0, 82, 55
1, 211628, Note_on_c, 0, 82, 0
1, 211656, Note_on_c, 0, 76, 56
1, 211685, Note_on_c, 0, 76, 0
1, 211685, Note_on_c, 0, 74, 0
1, 211685, Note_on_c, 0, 77, 59
1, 211688, Note_on_c, 0, 56, 0
1, 211688, Note_on_c, 0, 46, 0
1, 211688, Note_on_c, 0, 39, 47
1, 211692, Control_c, 0, 64, 0
1, 211737, Note_on_c, 0, 77, 0
1, 211790, Note_on_c, 0, 70, 55
1, 211842, Note_on_c, 0, 70, 0
1, 211895, Note_on_c, 0, 77, 79
1, 211895, Note_on_c, 0, 39, 0
1, 211895, Note_on_c, 0, 46, 46
1, 211898, Note_on_c, 0, 56, 56
1, 211907, Control_c, 0, 64, 127
1, 212005, Note_on_c, 0, 86, 61
1, 212060, Note_on_c, 0, 86, 0
1, 212087, Note_on_c, 0, 78, 60
1, 212115, Note_on_c, 0, 78, 0
1, 212115, Note_on_c, 0, 77, 0
1, 212115, Note_on_c, 0, 79, 64
1, 212118, Note_on_c, 0, 56, 0
1, 212118, Note_on_c, 0, 46, 0
1, 212118, Control_c, 0, 64, 0
1, 212167, Note_on_c, 0, 79, 0
1, 212219, Note_on_c, 0, 70, 56
1, 212271, Note_on_c, 0, 70, 0
1, 212323, Note_on_c, 0, 79, 79
1, 212323, Note_on_c, 0, 46, 55
1, 212323, Note_on_c, 0, 55, 64
1, 212328, Control_c, 0, 64, 127
1, 212431, Note_on_c, 0, 87, 58
1, 212485, Note_on_c, 0, 87, 0
1, 212512, Note_on_c, 0, 81, 57
1, 212539, Note_on_c, 0, 81, 0
1, 212539, Note_on_c, 0, 79, 0
1, 212539, Note_on_c, 0, 82, 61
1, 212542, Note_on_c, 0, 55, 0
1, 212542, Note_on_c, 0, 46, 0
1, 212542, Note_on_c, 0, 39, 48
1, 212550, Control_c, 0, 64, 0
1, 212590, Note_on_c, 0, 82, 0
1, 212641, Note_on_c, 0, 75, 57
1, 212692, Note_on_c, 0, 75, 0
1, 212743, Note_on_c, 0, 82, 78
1, 212743, Note_on_c, 0, 39, 0
1, 212743, Note_on_c, 0, 46, 48
1, 212746, Note_on_c, 0, 55, 57
1, 212760, Control_c, 0, 64, 127
1, 212851, Note_on_c, 0, 91, 57
1, 212932, Note_on_c, 0, 85, 62
1, 212959, Note_on_c, 0, 85, 0
1, 212959, Note_on_c, 0, 91, 0
1, 212959, Note_on_c, 0, 82, 0
1, 212962, Note_on_c, 0, 86, 66
1, 212962, Note_on_c, 0, 55, 0
1, 212962, Note_on_c, 0, 46, 0
1, 212965, Control_c, 0, 64, 0
1, 213010, Note_on_c, 0, 86, 0
1, 213061, Note_on_c, 0, 77, 57
1, 213112, Note_on_c, 0, 77, 0
1, 213163, Note_on_c, 0, 86, 81
1, 213163, Note_on_c, 0, 46, 56
1, 213163, Note_on_c, 0, 56, 67
1, 213170, Control_c, 0, 64, 127
1, 213270, Note_on_c, 0, 94, 58
1, 213324, Note_on_c, 0, 94, 0
1, 213350, Note_on_c, 0, 83, 58
1, 213377, Note_on_c, 0, 83, 0
1, 213377, Note_on_c, 0, 86, 0
1, 213377, Note_on_c, 0, 84, 62
1, 213380, Note_on_c, 0, 56, 0
1, 213380, Note_on_c, 0, 46, 0
1, 213380, Note_on_c, 0, 39, 49
1, 213383, Control_c, 0, 64, 0
1, 213428, Note_on_c, 0, 84, 0
1, 213478, Note_on_c, 0, 77, 58
1, 213529, Note_on_c, 0, 77, 0
1, 213580, Note_on_c, 0, 84, 83
1, 213580, Note_on_c, 0, 39, 0
1, 213580, Note_on_c, 0, 46, 49
1, 213583, Note_on_c, 0, 56, 60
1, 213592, Control_c, 0, 64, 127
1, 213685, Note_on_c, 0, 92, 58
1, 213763, Note_on_c, 0, 78, 63
1, 213789, Note_on_c, 0, 78, 0
1, 213789, Note_on_c, 0, 92, 0
1, 213789, Note_on_c, 0, 84, 0
1, 213792, Note_on_c, 0, 79, 68
1, 213792, Note_on_c, 0, 56, 0
1, 213792, Note_on_c, 0, 46, 0
1, 213795, Control_c, 0, 64, 0
1, 213840, Note_on_c, 0, 79, 0
1, 213891, Note_on_c, 0, 70, 59
1, 213941, Note_on_c, 0, 70, 0
1, 213992, Note_on_c, 0, 79, 81
1, 213992, Note_on_c, 0, 46, 57
1, 213992, Note_on_c, 0, 55, 68
1, 214003, Control_c, 0, 64, 127
1, 214097, Note_on_c, 0, 87, 59
1, 214149, Note_on_c, 0, 87, 0
1, 214176, Note_on_c, 0, 81, 60
1, 214202, Note_on_c, 0, 81, 0
1, 214202, Note_on_c, 0, 79, 0
1, 214202, Note_on_c, 0, 82, 64
1, 214205, Note_on_c, 0, 55, 0
1, 214205, Note_on_c, 0, 46, 0
1, 214205, Note_on_c, 0, 39, 51
1, 214208, Control_c, 0, 64, 0
1, 214252, Note_on_c, 0, 82, 0
1, 214301, Note_on_c, 0, 75, 59
1, 214351, Note_on_c, 0, 75, 0
1, 214401, Note_on_c, 0, 82, 81
1, 214401, Note_on_c, 0, 39, 0
1, 214401, Note_on_c, 0, 46, 50
1, 214404, Note_on_c, 0, 55, 61
1, 214417, Control_c, 0, 64, 127
1, 214506, Note_on_c, 0, 91, 60
1, 214584, Note_on_c, 0, 85, 68
1, 214611, Note_on_c, 0, 85, 0
1, 214611, Note_on_c, 0, 91, 0
1, 214611, Note_on_c, 0, 82, 0
1, 214614, Note_on_c, 0, 86, 69
1, 214614, Note_on_c, 0, 55, 0
1, 214614, Note_on_c, 0, 46, 0
1, 214617, Control_c, 0, 64, 0
1, 214660, Note_on_c, 0, 86, 0
1, 214709, Note_on_c, 0, 77, 61
1, 214758, Note_on_c, 0, 77, 0
1, 214808, Note_on_c, 0, 86, 87
1, 214808, Note_on_c, 0, 46, 58
1, 214808, Note_on_c, 0, 56, 69
1, 214822, Control_c, 0, 64, 127
1, 214915, Note_on_c, 0, 94, 61
1, 214968, Note_on_c, 0, 94, 0
1, 214968, Note_on_c, 0, 88, 70
1, 214995, Note_on_c, 0, 88, 0
1, 215022, Note_on_c, 0, 86, 0
1, 215022, Note_on_c, 0, 89, 66
1, 215022, Note_on_c, 0, 56, 0
1, 215025, Note_on_c, 0, 46, 0
1, 215025, Note_on_c, 0, 39, 52
1, 215028, Control_c, 0, 64, 0
1, 215071, Note_on_c, 0, 89, 0
1, 215120, Note_on_c, 0, 82, 61
1, 215169, Note_on_c, 0, 82, 0
1, 215219, Note_on_c, 0, 89, 84
1, 215219, Note_on_c, 0, 39, 0
1, 215219, Note_on_c, 0, 46, 51
1, 215222, Note_on_c, 0, 56, 62
1, 215226, Control_c, 0, 64, 127
1, 215326, Note_on_c, 0, 98, 62
1, 215406, Note_on_c, 0, 90, 64
1, 215433, Note_on_c, 0, 90, 0
1, 215433, Note_on_c, 0, 98, 0
1, 215433, Note_on_c, 0, 89, 0
1, 215436, Note_on_c, 0, 91, 83
1, 215436, Note_on_c, 0, 56, 0
1, 215436, Note_on_c, 0, 46, 0
1, 215439, Control_c, 0, 64, 0
1, 215482, Note_on_c, 0, 91, 0
1, 215531, Note_on_c, 0, 86, 62
1, 215580, Note_on_c, 0, 86, 0
1, 215630, Note_on_c, 0, 91, 70
1, 215630, Note_on_c, 0, 46, 51
1, 215630, Note_on_c, 0, 55, 60
1, 215637, Control_c, 0, 64, 127
1, 215740, Note_on_c, 0, 99, 62
1, 215795, Note_on_c, 0, 99, 0
1, 215850, Note_on_c, 0, 91, 0
1, 215850, Note_on_c, 0, 63, 79
1, 215850, Note_on_c, 0, 55, 0
1, 215853, Note_on_c, 0, 46, 0
1, 215853, Note_on_c, 0, 39, 47
1, 215863, Control_c, 0, 64, 0
1, 216070, Note_on_c, 0, 39, 0
1, 216070, Note_on_c, 0, 46, 39
1, 216070, Note_on_c, 0, 55, 47
1, 216235, Note_on_c, 0, 63, 0
1, 216235, Note_on_c, 0, 64, 48
1, 216290, Note_on_c, 0, 64, 0
1, 216290, Note_on_c, 0, 65, 48
1, 216290, Note_on_c, 0, 55, 0
1, 216293, Note_on_c, 0, 46, 0
1, 216358, Note_on_c, 0, 65, 0
1, 216358, Note_on_c, 0, 67, 50
1, 216425, Note_on_c, 0, 67, 0
1, 216425, Note_on_c, 0, 68, 52
1, 216493, Note_on_c, 0, 68, 0
1, 216493, Note_on_c, 0, 72, 54
1, 216493, Note_on_c, 0, 46, 42
1, 216496, Note_on_c, 0, 56, 42
1, 216496, Control_c, 0, 64, 127
1, 216564, Note_on_c, 0, 72, 0
1, 216564, Note_on_c, 0, 70, 53
1, 216635, Note_on_c, 0, 70, 0
1, 216635, Note_on_c, 0, 68, 52
1, 216707, Note_on_c, 0, 68, 0
1, 216707, Note_on_c, 0, 67, 51
1, 216707, Note_on_c, 0, 56, 0
1, 216710, Note_on_c, 0, 46, 0
1, 216710, Note_on_c, 0, 39, 44
1, 216714, Control_c, 0, 64, 0
1, 216748, Control_c, 0, 64, 127
1, 216773, Note_on_c, 0, 67, 0
1, 216773, Note_on_c, 0, 65, 50
1, 216840, Note_on_c, 0, 65, 0
1, 216840, Note_on_c, 0, 63, 49
1, 216907, Note_on_c, 0, 63, 0
1, 216907, Note_on_c, 0, 62, 48
1, 216907, Note_on_c, 0, 39, 0
1, 216910, Note_on_c, 0, 46, 40
1, 216910, Note_on_c, 0, 56, 40
1, 216980, Note_on_c, 0, 62, 0
1, 216980, Note_on_c, 0, 60, 48
1, 217053, Note_on_c, 0, 60, 0
1, 217053, Note_on_c, 0, 58, 47
1, 217125, Note_on_c, 0, 58, 0
1, 217125, Note_on_c, 0, 57, 49
1, 217125, Note_on_c, 0, 56, 0
1, 217128, Note_on_c, 0, 46, 0
1, 217128, Control_c, 0, 64, 0
1, 217193, Note_on_c, 0, 57, 0
1, 217193, Note_on_c, 0, 58, 50
1, 217261, Note_on_c, 0, 58, 0
1, 217261, Note_on_c, 0, 60, 51
1, 217330, Note_on_c, 0, 60, 0
1, 217330, Note_on_c, 0, 62, 51
1, 217330, Note_on_c, 0, 46, 40
1, 217333, Note_on_c, 0, 55, 40
1, 217350, Control_c, 0, 64, 127
1, 217402, Note_on_c, 0, 62, 0
1, 217402, Note_on_c, 0, 63, 52
1, 217475, Note_on_c, 0, 63, 0
1, 217475, Note_on_c, 0, 66, 53
1, 217548, Note_on_c, 0, 66, 0
1, 217548, Note_on_c, 0, 67, 54
1, 217548, Note_on_c, 0, 55, 0
1, 217551, Note_on_c, 0, 46, 0
1, 217551, Note_on_c, 0, 39, 44
1, 217567, Control_c, 0, 64, 0
1, 217598, Control_c, 0, 64, 127
1, 217614, Note_on_c, 0, 67, 0
1, 217614, Note_on_c, 0, 68, 54
1, 217681, Note_on_c, 0, 68, 0
1, 217681, Note_on_c, 0, 70, 55
1, 217748, Note_on_c, 0, 70, 0
1, 217748, Note_on_c, 0, 72, 56
1, 217748, Note_on_c, 0, 39, 0
1, 217751, Note_on_c, 0, 46, 41
1, 217751, Note_on_c, 0, 55, 41
1, 217819, Note_on_c, 0, 72, 0
1, 217819, Note_on_c, 0, 74, 57
1, 217889, Note_on_c, 0, 74, 0
1, 217889, Note_on_c, 0, 75, 58
1, 217934, Note_on_c, 0, 75, 0
1, 217934, Note_on_c, 0, 74, 56
1, 217960, Note_on_c, 0, 77, 63
1, 217960, Note_on_c, 0, 55, 0
1, 217960, Note_on_c, 0, 46, 0
1, 217963, Control_c, 0, 64, 0
1, 218027, Note_on_c, 0, 77, 0
1, 218027, Note_on_c, 0, 74, 0
1, 218027, Note_on_c, 0, 79, 58
1, 218094, Note_on_c, 0, 79, 0
1, 218094, Note_on_c, 0, 80, 59
1, 218161, Note_on_c, 0, 80, 0
1, 218161, Note_on_c, 0, 84, 64
1, 218161, Note_on_c, 0, 53, 40
1, 218164, Note_on_c, 0, 56, 40
1, 218164, Note_on_c, 0, 62, 40
1, 218192, Control_c, 0, 64, 127
1, 218231, Note_on_c, 0, 84, 0
1, 218231, Note_on_c, 0, 82, 63
1, 218302, Note_on_c, 0, 82, 0
1, 218302, Note_on_c, 0, 80, 62
1, 218363, Control_c, 0, 64, 0
1, 218373, Note_on_c, 0, 80, 0
1, 218373, Note_on_c, 0, 79, 60
1, 218373, Note_on_c, 0, 62, 0
1, 218376, Note_on_c, 0, 56, 0
1, 218376, Note_on_c, 0, 53, 0
1, 218376, Note_on_c, 0, 39, 44
1, 218399, Control_c, 0, 64, 127
1, 218439, Note_on_c, 0, 79, 0
1, 218439, Note_on_c, 0, 77, 59
1, 218506, Note_on_c, 0, 77, 0
1, 218506, Note_on_c, 0, 75, 58
1, 218573, Note_on_c, 0, 75, 0
1, 218573, Note_on_c, 0, 74, 57
1, 218573, Note_on_c, 0, 39, 0
1, 218576, Note_on_c, 0, 62, 40
1, 218576, Note_on_c, 0, 56, 40
1, 218576, Note_on_c, 0, 53, 40
1, 218644, Note_on_c, 0, 74, 0
1, 218644, Note_on_c, 0, 72, 55
1, 218714, Note_on_c, 0, 72, 0
1, 218714, Note_on_c, 0, 70, 54
1, 218785, Note_on_c, 0, 70, 0
1, 218785, Note_on_c, 0, 69, 55
1, 218785, Note_on_c, 0, 53, 0
1, 218788, Note_on_c, 0, 56, 0
1, 218788, Note_on_c, 0, 62, 0
1, 218788, Control_c, 0, 64, 0
1, 218851, Note_on_c, 0, 69, 0
1, 218851, Note_on_c, 0, 70, 55
1, 218918, Note_on_c, 0, 70, 0
1, 218918, Note_on_c, 0, 72, 56
1, 218984, Note_on_c, 0, 72, 0
1, 218984, Note_on_c, 0, 74, 56
1, 218984, Note_on_c, 0, 55, 41
1, 218987, Note_on_c, 0, 58, 41
1, 218987, Note_on_c, 0, 63, 41
1, 218987, Control_c, 0, 64, 127
1, 219053, Note_on_c, 0, 74, 0
1, 219053, Note_on_c, 0, 75, 57
1, 219123, Note_on_c, 0, 75, 0
1, 219123, Note_on_c, 0, 78, 58
1, 219187, Control_c, 0, 64, 0
1, 219192, Note_on_c, 0, 78, 0
1, 219192, Note_on_c, 0, 79, 58
1, 219192, Note_on_c, 0, 63, 0
1, 219195, Note_on_c, 0, 58, 0
1, 219195, Note_on_c, 0, 55, 0
1, 219195, Note_on_c, 0, 39, 44
1, 219213, Control_c, 0, 64, 127
1, 219258, Note_on_c, 0, 79, 0
1, 219258, Note_on_c, 0, 80, 59
1, 219324, Note_on_c, 0, 80, 0
1, 219324, Note_on_c, 0, 82, 60
1, 219391, Note_on_c, 0, 82, 0
1, 219391, Note_on_c, 0, 84, 60
1, 219391, Note_on_c, 0, 39, 0
1, 219394, Note_on_c, 0, 63, 42
1, 219394, Note_on_c, 0, 58, 42
1, 219394, Note_on_c, 0, 55, 42
1, 219461, Note_on_c, 0, 84, 0
1, 219461, Note_on_c, 0, 86, 61
1, 219531, Note_on_c, 0, 86, 0
1, 219531, Note_on_c, 0, 87, 63
1, 219574, Note_on_c, 0, 87, 0
1, 219574, Note_on_c, 0, 86, 52
1, 219601, Note_on_c, 0, 89, 63
1, 219601, Note_on_c, 0, 55, 0
1, 219601, Note_on_c, 0, 58, 0
1, 219604, Note_on_c, 0, 63, 0
1, 219604, Control_c, 0, 64, 0
1, 219604, Control_c, 0, 64, 0
1, 219666, Note_on_c, 0, 89, 0
1, 219666, Note_on_c, 0, 86, 0
1, 219666, Note_on_c, 0, 91, 58
1, 219732, Note_on_c, 0, 91, 0
1, 219732, Note_on_c, 0, 92, 59
1, 219798, Note_on_c, 0, 92, 0
1, 219798, Note_on_c, 0, 96, 64
1, 219798, Note_on_c, 0, 53, 40
1, 219801, Note_on_c, 0, 56, 40
1, 219801, Note_on_c, 0, 62, 40
1, 219828, Control_c, 0, 64, 127
1, 219868, Note_on_c, 0, 96, 0
1, 219868, Note_on_c, 0, 94, 63
1, 219938, Note_on_c, 0, 94, 0
1, 219938, Note_on_c, 0, 92, 62
1, 219998, Control_c, 0, 64, 0
1, 220008, Note_on_c, 0, 92, 0
1, 220008, Note_on_c, 0, 91, 60
1, 220008, Note_on_c, 0, 62, 0
1, 220011, Note_on_c, 0, 56, 0
1, 220011, Note_on_c, 0, 53, 0
1, 220011, Note_on_c, 0, 39, 44
1, 220034, Control_c, 0, 64, 127
1, 220073, Note_on_c, 0, 91, 0
1, 220073, Note_on_c, 0, 89, 59
1, 220139, Note_on_c, 0, 89, 0
1, 220139, Note_on_c, 0, 87, 58
1, 220205, Note_on_c, 0, 87, 0
1, 220205, Note_on_c, 0, 86, 57
1, 220205, Note_on_c, 0, 39, 0
1, 220208, Note_on_c, 0, 62, 40
1, 220208, Note_on_c, 0, 56, 40
1, 220208, Note_on_c, 0, 53, 40
1, 220274, Note_on_c, 0, 86, 0
1, 220274, Note_on_c, 0, 84, 55
1, 220343, Note_on_c, 0, 84, 0
1, 220343, Note_on_c, 0, 82, 54
1, 220413, Note_on_c, 0, 82, 0
1, 220413, Note_on_c, 0, 81, 55
1, 220413, Note_on_c, 0, 53, 0
1, 220416, Note_on_c, 0, 56, 0
1, 220416, Note_on_c, 0, 62, 0
1, 220416, Control_c, 0, 64, 0
1, 220478, Note_on_c, 0, 81, 0
1, 220478, Note_on_c, 0, 82, 55
1, 220544, Note_on_c, 0, 82, 0
1, 220544, Note_on_c, 0, 84, 56
1, 220610, Note_on_c, 0, 84, 0
1, 220610, Note_on_c, 0, 86, 56
1, 220610, Note_on_c, 0, 55, 41
1, 220613, Note_on_c, 0, 58, 41
1, 220613, Note_on_c, 0, 63, 41
1, 220613, Control_c, 0, 64, 127
1, 220678, Note_on_c, 0, 86, 0
1, 220678, Note_on_c, 0, 87, 57
1, 220747, Note_on_c, 0, 87, 0
1, 220747, Note_on_c, 0, 89, 58
1, 220811, Control_c, 0, 64, 0
1, 220816, Note_on_c, 0, 89, 0
1, 220816, Note_on_c, 0, 91, 58
1, 220816, Note_on_c, 0, 63, 0
1, 220819, Note_on_c, 0, 58, 0
1, 220819, Note_on_c, 0, 55, 0
1, 220819, Note_on_c, 0, 39, 44
1, 220836, Control_c, 0, 64, 127
1, 220882, Note_on_c, 0, 91, 0
1, 220882, Note_on_c, 0, 92, 58
1, 220947, Note_on_c, 0, 92, 0
1, 220947, Note_on_c, 0, 94, 57
1, 221013, Note_on_c, 0, 94, 0
1, 221013, Note_on_c, 0, 96, 56
1, 221013, Note_on_c, 0, 39, 0
1, 221016, Note_on_c, 0, 63, 42
1, 221016, Note_on_c, 0, 58, 42
1, 221016, Note_on_c, 0, 55, 42
1, 221082, Note_on_c, 0, 96, 0
1, 221082, Note_on_c, 0, 98, 56
1, 221152, Note_on_c, 0, 98, 0
1, 221152, Note_on_c, 0, 99, 55
1, 221221, Note_on_c, 0, 99, 0
1, 221221, Note_on_c, 0, 100, 55
1, 221221, Note_on_c, 0, 55, 0
1, 221224, Note_on_c, 0, 58, 0
1, 221224, Note_on_c, 0, 63, 0
1, 221224, Control_c, 0, 64, 0
1, 221287, Note_on_c, 0, 100, 0
1, 221287, Note_on_c, 0, 101, 50
1, 221353, Note_on_c, 0, 101, 0
1, 221353, Note_on_c, 0, 94, 54
1, 221421, Note_on_c, 0, 94, 0
1, 221421, Note_on_c, 0, 97, 50
1, 221421, Note_on_c, 0, 68, 32
1, 221424, Note_on_c, 0, 58, 32
1, 221424, Note_on_c, 0, 62, 32
1, 221424, Control_c, 0, 64, 127
1, 221493, Note_on_c, 0, 97, 0
1, 221493, Note_on_c, 0, 98, 54
1, 221564, Note_on_c, 0, 98, 0
1, 221564, Note_on_c, 0, 89, 50
1, 221635, Note_on_c, 0, 89, 0
1, 221635, Note_on_c, 0, 100, 54
1, 221635, Note_on_c, 0, 62, 0
1, 221638, Note_on_c, 0, 58, 0
1, 221638, Note_on_c, 0, 68, 0
1, 221638, Note_on_c, 0, 39, 35
1, 221701, Note_on_c, 0, 100, 0
1, 221701, Note_on_c, 0, 101, 50
1, 221766, Note_on_c, 0, 101, 0
1, 221766, Note_on_c, 0, 94, 54
1, 221832, Note_on_c, 0, 94, 0
1, 221832, Note_on_c, 0, 97, 50
1, 221832, Note_on_c, 0, 39, 0
1, 221835, Note_on_c, 0, 68, 33
1, 221835, Note_on_c, 0, 62, 33
1, 221835, Note_on_c, 0, 58, 33
1, 221901, Note_on_c, 0, 97, 0
1, 221901, Note_on_c, 0, 98, 55
1, 221971, Note_on_c, 0, 98, 0
1, 221971, Note_on_c, 0, 89, 50
1, 222040, Note_on_c, 0, 89, 0
1, 222040, Note_on_c, 0, 102, 55
1, 222040, Note_on_c, 0, 58, 0
1, 222043, Note_on_c, 0, 62, 0
1, 222043, Note_on_c, 0, 68, 0
1, 222043, Control_c, 0, 64, 0
1, 222106, Note_on_c, 0, 102, 0
1, 222106, Note_on_c, 0, 103, 50
1, 222171, Note_on_c, 0, 103, 0
1, 222171, Note_on_c, 0, 94, 54
1, 222237, Note_on_c, 0, 94, 0
1, 222237, Note_on_c, 0, 98, 50
1, 222237, Note_on_c, 0, 58, 32
1, 222240, Note_on_c, 0, 63, 32
1, 222240, Note_on_c, 0, 67, 32
1, 222240, Control_c, 0, 64, 127
1, 222306, Note_on_c, 0, 98, 0
1, 222306, Note_on_c, 0, 99, 54
1, 222376, Note_on_c, 0, 99, 0
1, 222376, Note_on_c, 0, 91, 50
1, 222445, Note_on_c, 0, 91, 0
1, 222445, Note_on_c, 0, 102, 54
1, 222445, Note_on_c, 0, 67, 0
1, 222448, Note_on_c, 0, 63, 0
1, 222448, Note_on_c, 0, 58, 0
1, 222448, Note_on_c, 0, 39, 35
1, 222511, Note_on_c, 0, 102, 0
1, 222511, Note_on_c, 0, 103, 50
1, 222578, Note_on_c, 0, 103, 0
1, 222578, Note_on_c, 0, 94, 54
1, 222646, Note_on_c, 0, 94, 0
1, 222646, Note_on_c, 0, 98, 50
1, 222646, Note_on_c, 0, 39, 0
1, 222649, Note_on_c, 0, 67, 33
1, 222649, Note_on_c, 0, 63, 33
1, 222649, Note_on_c, 0, 58, 33
1, 222717, Note_on_c, 0, 98, 0
1, 222717, Note_on_c, 0, 99, 55
1, 222788, Note_on_c, 0, 99, 0
1, 222788, Note_on_c, 0, 91, 50
1, 222859, Note_on_c, 0, 91, 0
1, 222859, Note_on_c, 0, 100, 55
1, 222859, Note_on_c, 0, 58, 0
1, 222862, Note_on_c, 0, 63, 0
1, 222862, Note_on_c, 0, 67, 0
1, 222862, Control_c, 0, 64, 0
1, 222926, Note_on_c, 0, 100, 0
1, 222926, Note_on_c, 0, 101, 50
1, 222993, Note_on_c, 0, 101, 0
1, 222993, Note_on_c, 0, 94, 54
1, 223060, Note_on_c, 0, 94, 0
1, 223060, Note_on_c, 0, 97, 50
1, 223060, Note_on_c, 0, 68, 32
1, 223063, Note_on_c, 0, 58, 32
1, 223063, Note_on_c, 0, 62, 32
1, 223063, Control_c, 0, 64, 127
1, 223131, Note_on_c, 0, 97, 0
1, 223131, Note_on_c, 0, 98, 54
1, 223202, Note_on_c, 0, 98, 0
1, 223202, Note_on_c, 0, 89, 50
1, 223273, Note_on_c, 0, 89, 0
1, 223273, Note_on_c, 0, 100, 54
1, 223273, Note_on_c, 0, 62, 0
1, 223276, Note_on_c, 0, 58, 0
1, 223276, Note_on_c, 0, 68, 0
1, 223276, Note_on_c, 0, 39, 35
1, 223340, Note_on_c, 0, 100, 0
1, 223340, Note_on_c, 0, 101, 50
1, 223407, Note_on_c, 0, 101, 0
1, 223407, Note_on_c, 0, 94, 54
1, 223474, Note_on_c, 0, 94, 0
1, 223474, Note_on_c, 0, 97, 50
1, 223474, Note_on_c, 0, 39, 0
1, 223477, Note_on_c, 0, 68, 33
1, 223477, Note_on_c, 0, 62, 33
1, 223477, Note_on_c, 0, 58, 33
1, 223544, Note_on_c, 0, 97, 0
1, 223544, Note_on_c, 0, 98, 55
1, 223615, Note_on_c, 0, 98, 0
1, 223615, Note_on_c, 0, 89, 50
1, 223686, Note_on_c, 0, 89, 0
1, 223686, Note_on_c, 0, 102, 55
1, 223686, Note_on_c, 0, 58, 0
1, 223689, Note_on_c, 0, 62, 0
1, 223689, Note_on_c, 0, 68, 0
1, 223689, Control_c, 0, 64, 0
1, 223752, Note_on_c, 0, 102, 0
1, 223752, Note_on_c, 0, 103, 50
1, 223819, Note_on_c, 0, 103, 0
1, 223819, Note_on_c, 0, 94, 54
1, 223886, Note_on_c, 0, 94, 0
1, 223886, Note_on_c, 0, 98, 50
1, 223886, Note_on_c, 0, 58, 32
1, 223889, Note_on_c, 0, 63, 32
1, 223889, Note_on_c, 0, 67, 32
1, 223889, Control_c, 0, 64, 127
1, 223957, Note_on_c, 0, 98, 0
1, 223957, Note_on_c, 0, 99, 54
1, 224028, Note_on_c, 0, 99, 0
1, 224028, Note_on_c, 0, 91, 50
1, 224100, Note_on_c, 0, 91, 0
1, 224100, Note_on_c, 0, 102, 54
1, 224100, Note_on_c, 0, 67, 0
1, 224103, Note_on_c, 0, 63, 0
1, 224103, Note_on_c, 0, 58, 0
1, 224103, Note_on_c, 0, 39, 35
1, 224166, Note_on_c, 0, 102, 0
1, 224166, Note_on_c, 0, 103, 50
1, 224233, Note_on_c, 0, 103, 0
1, 224233, Note_on_c, 0, 94, 54
1, 224300, Note_on_c, 0, 94, 0
1, 224300, Note_on_c, 0, 98, 50
1, 224300, Note_on_c, 0, 39, 0
1, 224303, Note_on_c, 0, 67, 33
1, 224303, Note_on_c, 0, 63, 33
1, 224303, Note_on_c, 0, 58, 33
1, 224371, Note_on_c, 0, 98, 0
1, 224371, Note_on_c, 0, 99, 55
1, 224442, Note_on_c, 0, 99, 0
1, 224442, Note_on_c, 0, 91, 50
1, 224514, Note_on_c, 0, 91, 0
1, 224514, Note_on_c, 0, 100, 55
1, 224514, Note_on_c, 0, 58, 0
1, 224517, Note_on_c, 0, 63, 0
1, 224517, Note_on_c, 0, 67, 0
1, 224517, Control_c, 0, 64, 0
1, 224580, Note_on_c, 0, 100, 0
1, 224580, Note_on_c, 0, 101, 50
1, 224647, Note_on_c, 0, 101, 0
1, 224647, Note_on_c, 0, 94, 54
1, 224714, Note_on_c, 0, 94, 0
1, 224714, Note_on_c, 0, 97, 50
1, 224714, Note_on_c, 0, 68, 32
1, 224717, Note_on_c, 0, 58, 32
1, 224717, Note_on_c, 0, 62, 32
1, 224717, Control_c, 0, 64, 127
1, 224784, Note_on_c, 0, 97, 0
1, 224784, Note_on_c, 0, 98, 54
1, 224854, Note_on_c, 0, 98, 0
1, 224854, Note_on_c, 0, 89, 50
1, 224924, Note_on_c, 0, 89, 0
1, 224924, Note_on_c, 0, 100, 54
1, 224924, Note_on_c, 0, 62, 0
1, 224927, Note_on_c, 0, 58, 0
1, 224927, Note_on_c, 0, 68, 0
1, 224927, Note_on_c, 0, 39, 35
1, 224992, Note_on_c, 0, 100, 0
1, 224992, Note_on_c, 0, 101, 50
1, 225060, Note_on_c, 0, 101, 0
1, 225060, Note_on_c, 0, 94, 54
1, 225128, Note_on_c, 0, 94, 0
1, 225128, Note_on_c, 0, 97, 50
1, 225128, Note_on_c, 0, 39, 0
1, 225131, Note_on_c, 0, 68, 33
1, 225131, Note_on_c, 0, 62, 33
1, 225131, Note_on_c, 0, 58, 33
1, 225199, Note_on_c, 0, 97, 0
1, 225199, Note_on_c, 0, 98, 55
1, 225270, Note_on_c, 0, 98, 0
1, 225270, Note_on_c, 0, 89, 50
1, 225340, Note_on_c, 0, 89, 0
1, 225340, Note_on_c, 0, 102, 55
1, 225340, Note_on_c, 0, 58, 0
1, 225343, Note_on_c, 0, 62, 0
1, 225343, Note_on_c, 0, 68, 0
1, 225343, Control_c, 0, 64, 0
1, 225409, Note_on_c, 0, 102, 0
1, 225409, Note_on_c, 0, 103, 50
1, 225478, Note_on_c, 0, 103, 0
1, 225478, Note_on_c, 0, 94, 54
1, 225546, Note_on_c, 0, 94, 0
1, 225546, Note_on_c, 0, 98, 50
1, 225546, Note_on_c, 0, 58, 32
1, 225549, Note_on_c, 0, 63, 32
1, 225549, Note_on_c, 0, 67, 32
1, 225549, Control_c, 0, 64, 127
1, 225618, Note_on_c, 0, 98, 0
1, 225618, Note_on_c, 0, 99, 54
1, 225689, Note_on_c, 0, 99, 0
1, 225689, Note_on_c, 0, 91, 50
1, 225760, Note_on_c, 0, 91, 0
1, 225760, Note_on_c, 0, 102, 54
1, 225760, Note_on_c, 0, 67, 0
1, 225763, Note_on_c, 0, 63, 0
1, 225763, Note_on_c, 0, 58, 0
1, 225763, Note_on_c, 0, 39, 35
1, 225828, Note_on_c, 0, 102, 0
1, 225828, Note_on_c, 0, 103, 50
1, 225897, Note_on_c, 0, 103, 0
1, 225897, Note_on_c, 0, 94, 54
1, 225966, Note_on_c, 0, 94, 0
1, 225966, Note_on_c, 0, 98, 50
1, 225966, Note_on_c, 0, 39, 0
1, 225969, Note_on_c, 0, 67, 33
1, 225969, Note_on_c, 0, 63, 33
1, 225969, Note_on_c, 0, 58, 33
1, 226037, Note_on_c, 0, 98, 0
1, 226037, Note_on_c, 0, 99, 55
1, 226108, Note_on_c, 0, 99, 0
1, 226108, Note_on_c, 0, 91, 50
1, 226179, Note_on_c, 0, 91, 0
1, 226179, Note_on_c, 0, 100, 55
1, 226179, Note_on_c, 0, 58, 0
1, 226182, Note_on_c, 0, 63, 0
1, 226182, Note_on_c, 0, 67, 0
1, 226182, Control_c, 0, 64, 0
1, 226248, Note_on_c, 0, 100, 0
1, 226248, Note_on_c, 0, 101, 50
1, 226317, Note_on_c, 0, 101, 0
1, 226317, Note_on_c, 0, 94, 54
1, 226385, Note_on_c, 0, 94, 0
1, 226385, Note_on_c, 0, 97, 50
1, 226385, Note_on_c, 0, 68, 32
1, 226388, Note_on_c, 0, 58, 32
1, 226388, Note_on_c, 0, 62, 32
1, 226388, Control_c, 0, 64, 127
1, 226457, Note_on_c, 0, 97, 0
1, 226457, Note_on_c, 0, 98, 54
1, 226528, Note_on_c, 0, 98, 0
1, 226528, Note_on_c, 0, 89, 50
1, 226599, Note_on_c, 0, 89, 0
1, 226599, Note_on_c, 0, 100, 54
1, 226599, Note_on_c, 0, 62, 0
1, 226602, Note_on_c, 0, 58, 0
1, 226602, Note_on_c, 0, 68, 0
1, 226602, Note_on_c, 0, 39, 35
1, 226668, Note_on_c, 0, 100, 0
1, 226668, Note_on_c, 0, 101, 50
1, 226736, Note_on_c, 0, 101, 0
1, 226736, Note_on_c, 0, 94, 54
1, 226805, Note_on_c, 0, 94, 0
1, 226805, Note_on_c, 0, 97, 50
1, 226805, Note_on_c, 0, 39, 0
1, 226808, Note_on_c, 0, 68, 33
1, 226808, Note_on_c, 0, 62, 33
1, 226808, Note_on_c, 0, 58, 33
1, 226876, Note_on_c, 0, 97, 0
1, 226876, Note_on_c, 0, 98, 55
1, 226946, Note_on_c, 0, 98, 0
1, 226946, Note_on_c, 0, 89, 50
1, 227017, Note_on_c, 0, 89, 0
1, 227017, Note_on_c, 0, 102, 50
1, 227017, Note_on_c, 0, 93, 50
1, 227020, Note_on_c, 0, 58, 0
1, 227020, Note_on_c, 0, 62, 0
1, 227020, Note_on_c, 0, 68, 0
1, 227023, Control_c, 0, 64, 0
1, 227045, Control_c, 0, 64, 127
1, 227071, Note_on_c, 0, 93, 0
1, 227071, Note_on_c, 0, 102, 0
1, 227071, Note_on_c, 0, 94, 55
1, 227074, Note_on_c, 0, 103, 55
1, 227102, Control_c, 0, 64, 0
1, 227180, Note_on_c, 0, 103, 0
1, 227180, Note_on_c, 0, 94, 0
1, 227426, Note_on_c, 0, 58, 32
1, 227453, Note_on_c, 0, 74, 47
1, 227453, Note_on_c, 0, 66, 47
1, 227453, Note_on_c, 0, 39, 33
1, 227456, Control_c, 0, 64, 0
1, 227483, Control_c, 0, 64, 127
1, 227511, Note_on_c, 0, 66, 0
1, 227511, Note_on_c, 0, 74, 0
1, 227511, Note_on_c, 0, 67, 52
1, 227514, Note_on_c, 0, 75, 52
1, 227622, Control_c, 0, 64, 0
1, 227628, Note_on_c, 0, 75, 0
1, 227628, Note_on_c, 0, 67, 0
1, 227891, Note_on_c, 0, 41, 30
1, 227920, Note_on_c, 0, 86, 45
1, 227920, Note_on_c, 0, 77, 45
1, 227920, Note_on_c, 0, 39, 0
1, 227923, Note_on_c, 0, 58, 0
1, 227923, Note_on_c, 0, 56, 33
1, 227923, Control_c, 0, 64, 127
1, 227992, Note_on_c, 0, 77, 0
1, 227992, Note_on_c, 0, 86, 0
1, 227992, Note_on_c, 0, 89, 51
1, 227995, Note_on_c, 0, 80, 51
1, 228039, Control_c, 0, 64, 0
1, 228135, Note_on_c, 0, 80, 0
1, 228135, Note_on_c, 0, 89, 0
1, 228458, Note_on_c, 0, 43, 30
1, 228490, Control_c, 0, 64, 127
1, 228494, Note_on_c, 0, 62, 46
1, 228494, Note_on_c, 0, 71, 46
1, 228494, Note_on_c, 0, 56, 0
1, 228497, Note_on_c, 0, 41, 0
1, 228497, Note_on_c, 0, 59, 33
1, 228575, Note_on_c, 0, 71, 0
1, 228575, Note_on_c, 0, 62, 0
1, 228575, Note_on_c, 0, 65, 52
1, 228578, Note_on_c, 0, 74, 52
1, 228598, Control_c, 0, 64, 0
1, 228737, Note_on_c, 0, 74, 0
1, 228737, Note_on_c, 0, 65, 0
1, 229062, Note_on_c, 0, 59, 0
1, 229062, Note_on_c, 0, 43, 0
1, 229062, Note_on_c, 0, 48, 33
1, 229102, Note_on_c, 0, 55, 33
1, 229143, Note_on_c, 0, 72, 36
1, 229143, Note_on_c, 0, 63, 33
1, 229143, Control_c, 0, 64, 127
1, 229210, Note_on_c, 0, 72, 0
1, 229210, Note_on_c, 0, 74, 33
1, 229272, Note_on_c, 0, 74, 0
1, 229272, Note_on_c, 0, 72, 37
1, 229334, Note_on_c, 0, 72, 0
1, 229334, Note_on_c, 0, 74, 33
1, 229395, Note_on_c, 0, 74, 0
1, 229395, Note_on_c, 0, 72, 37
1, 229456, Note_on_c, 0, 72, 0
1, 229456, Note_on_c, 0, 74, 33
1, 229515, Note_on_c, 0, 74, 0
1, 229515, Note_on_c, 0, 72, 37
1, 229574, Note_on_c, 0, 72, 0
1, 229574, Note_on_c, 0, 74, 33
1, 229632, Note_on_c, 0, 74, 0
1, 229632, Note_on_c, 0, 72, 37
1, 229688, Note_on_c, 0, 72, 0
1, 229688, Note_on_c, 0, 74, 33
1, 229744, Note_on_c, 0, 74, 0
1, 229744, Note_on_c, 0, 72, 37
1, 229801, Note_on_c, 0, 72, 0
1, 229801, Note_on_c, 0, 74, 33
1, 229858, Note_on_c, 0, 74, 0
1, 229858, Note_on_c, 0, 72, 37
1, 229915, Note_on_c, 0, 72, 0
1, 229915, Note_on_c, 0, 74, 33
1, 229972, Note_on_c, 0, 74, 0
1, 229972, Note_on_c, 0, 72, 37
1, 230028, Note_on_c, 0, 72, 0
1, 230028, Note_on_c, 0, 74, 33
1, 230085, Note_on_c, 0, 74, 0
1, 230085, Note_on_c, 0, 71, 38
1, 230085, Note_on_c, 0, 63, 0
1, 230088, Note_on_c, 0, 55, 0
1, 230088, Note_on_c, 0, 48, 0
1, 230088, Control_c, 0, 64, 0
1, 230112, Control_c, 0, 64, 127
1, 230142, Note_on_c, 0, 71, 0
1, 230142, Note_on_c, 0, 72, 33
1, 230200, Note_on_c, 0, 72, 0
1, 230200, Note_on_c, 0, 74, 34
1, 230257, Note_on_c, 0, 74, 0
1, 230257, Note_on_c, 0, 75, 34
1, 230314, Note_on_c, 0, 75, 0
1, 230314, Note_on_c, 0, 74, 41
1, 230371, Note_on_c, 0, 74, 0
1, 230371, Note_on_c, 0, 75, 36
1, 230427, Note_on_c, 0, 75, 0
1, 230427, Note_on_c, 0, 78, 37
1, 230484, Note_on_c, 0, 78, 0
1, 230484, Note_on_c, 0, 79, 44
1, 230540, Note_on_c, 0, 79, 0
1, 230540, Note_on_c, 0, 78, 38
1, 230596, Note_on_c, 0, 78, 0
1, 230596, Note_on_c, 0, 79, 39
1, 230653, Note_on_c, 0, 79, 0
1, 230653, Note_on_c, 0, 83, 39
1, 230708, Note_on_c, 0, 83, 0
1, 230708, Note_on_c, 0, 84, 40
1, 230764, Note_on_c, 0, 84, 0
1, 230764, Note_on_c, 0, 83, 47
1, 230820, Note_on_c, 0, 83, 0
1, 230820, Note_on_c, 0, 84, 42
1, 230875, Note_on_c, 0, 84, 0
1, 230875, Note_on_c, 0, 86, 42
1, 230931, Note_on_c, 0, 86, 0
1, 230931, Note_on_c, 0, 87, 43
1, 230986, Note_on_c, 0, 87, 0
1, 230986, Note_on_c, 0, 86, 51
1, 231011, Control_c, 0, 64, 0
1, 231019, Control_c, 0, 64, 127
1, 231041, Note_on_c, 0, 86, 0
1, 231041, Note_on_c, 0, 87, 45
1, 231095, Note_on_c, 0, 87, 0
1, 231095, Note_on_c, 0, 90, 45
1, 231150, Note_on_c, 0, 90, 0
1, 231150, Note_on_c, 0, 91, 54
1, 231205, Note_on_c, 0, 91, 0
1, 231205, Note_on_c, 0, 90, 47
1, 231260, Note_on_c, 0, 90, 0
1, 231260, Note_on_c, 0, 91, 47
1, 231315, Note_on_c, 0, 91, 0
1, 231315, Note_on_c, 0, 95, 48
1, 231370, Note_on_c, 0, 95, 0
1, 231370, Note_on_c, 0, 96, 49
1, 231425, Note_on_c, 0, 96, 0
1, 231425, Note_on_c, 0, 95, 57
1, 231479, Note_on_c, 0, 95, 0
1, 231479, Note_on_c, 0, 96, 50
1, 231534, Note_on_c, 0, 96, 0
1, 231534, Note_on_c, 0, 98, 51
1, 231589, Note_on_c, 0, 98, 0
1, 231589, Note_on_c, 0, 99, 52
1, 231644, Note_on_c, 0, 99, 0
1, 231644, Note_on_c, 0, 98, 61
1, 231699, Note_on_c, 0, 98, 0
1, 231699, Note_on_c, 0, 99, 53
1, 231755, Note_on_c, 0, 99, 0
1, 231755, Note_on_c, 0, 102, 54
1, 231818, Note_on_c, 0, 102, 0
1, 231818, Note_on_c, 0, 103, 65
1, 231881, Note_on_c, 0, 103, 0
1, 231881, Note_on_c, 0, 95, 61
1, 231881, Control_c, 0, 64, 0
1, 231909, Control_c, 0, 64, 127
1, 231935, Note_on_c, 0, 95, 0
1, 231935, Note_on_c, 0, 96, 53
1, 231990, Note_on_c, 0, 96, 0
1, 231990, Note_on_c, 0, 98, 53
1, 232045, Note_on_c, 0, 98, 0
1, 232045, Note_on_c, 0, 99, 53
1, 232100, Note_on_c, 0, 99, 0
1, 232100, Note_on_c, 0, 90, 54
1, 232154, Note_on_c, 0, 90, 0
1, 232154, Note_on_c, 0, 91, 48
1, 232208, Note_on_c, 0, 91, 0
1, 232208, Note_on_c, 0, 95, 49
1, 232262, Note_on_c, 0, 95, 0
1, 232262, Note_on_c, 0, 96, 49
1, 232315, Note_on_c, 0, 96, 0
1, 232315, Note_on_c, 0, 86, 51
1, 232368, Note_on_c, 0, 86, 0
1, 232368, Note_on_c, 0, 87, 45
1, 232422, Note_on_c, 0, 87, 0
1, 232422, Note_on_c, 0, 90, 45
1, 232476, Note_on_c, 0, 90, 0
1, 232476, Note_on_c, 0, 91, 45
1, 232530, Note_on_c, 0, 91, 0
1, 232530, Note_on_c, 0, 83, 47
1, 232585, Note_on_c, 0, 83, 0
1, 232585, Note_on_c, 0, 84, 42
1, 232640, Note_on_c, 0, 84, 0
1, 232640, Note_on_c, 0, 86, 42
1, 232700, Note_on_c, 0, 86, 0
1, 232700, Note_on_c, 0, 87, 43
1, 232761, Note_on_c, 0, 87, 0
1, 232761, Note_on_c, 0, 78, 44
1, 232816, Note_on_c, 0, 78, 0
1, 232816, Note_on_c, 0, 79, 39
1, 232871, Note_on_c, 0, 79, 0
1, 232871, Note_on_c, 0, 83, 40
1, 232926, Note_on_c, 0, 83, 0
1, 232926, Note_on_c, 0, 84, 40
1, 232981, Note_on_c, 0, 84, 0
1, 232981, Note_on_c, 0, 74, 40
1, 233036, Note_on_c, 0, 74, 0
1, 233036, Note_on_c, 0, 75, 36
1, 233091, Note_on_c, 0, 75, 0
1, 233091, Note_on_c, 0, 78, 37
1, 233152, Note_on_c, 0, 78, 0
1, 233152, Note_on_c, 0, 79, 36
1, 233214, Note_on_c, 0, 79, 0
1, 233214, Note_on_c, 0, 71, 41
1, 233217, Control_c, 0, 64, 0
1, 233245, Control_c, 0, 64, 127
1, 233269, Note_on_c, 0, 71, 0
1, 233269, Note_on_c, 0, 72, 38
1, 233324, Note_on_c, 0, 72, 0
1, 233324, Note_on_c, 0, 74, 40
1, 233378, Note_on_c, 0, 74, 0
1, 233378, Note_on_c, 0, 75, 41
1, 233433, Note_on_c, 0, 75, 0
1, 233433, Note_on_c, 0, 66, 43
1, 233487, Note_on_c, 0, 66, 0
1, 233487, Note_on_c, 0, 67, 44
1, 233541, Note_on_c, 0, 67, 0
1, 233541, Note_on_c, 0, 71, 46
1, 233594, Note_on_c, 0, 71, 0
1, 233594, Note_on_c, 0, 72, 47
1, 233647, Note_on_c, 0, 72, 0
1, 233647, Note_on_c, 0, 71, 49
1, 233700, Note_on_c, 0, 71, 0
1, 233700, Note_on_c, 0, 72, 49
1, 233754, Note_on_c, 0, 72, 0
1, 233754, Note_on_c, 0, 74, 51
1, 233808, Note_on_c, 0, 74, 0
1, 233808, Note_on_c, 0, 75, 53
1, 233863, Note_on_c, 0, 75, 0
1, 233863, Note_on_c, 0, 74, 55
1, 233918, Note_on_c, 0, 74, 0
1, 233918, Note_on_c, 0, 75, 57
1, 233973, Note_on_c, 0, 75, 0
1, 233973, Note_on_c, 0, 78, 59
1, 234035, Note_on_c, 0, 78, 0
1, 234035, Note_on_c, 0, 79, 61
1, 234093, Note_on_c, 0, 79, 0
1, 234093, Note_on_c, 0, 71, 41
1, 234120, Control_c, 0, 64, 0
1, 234148, Note_on_c, 0, 71, 0
1, 234148, Note_on_c, 0, 72, 38
1, 234156, Control_c, 0, 64, 127
1, 234203, Note_on_c, 0, 72, 0
1, 234203, Note_on_c, 0, 74, 40
1, 234257, Note_on_c, 0, 74, 0
1, 234257, Note_on_c, 0, 75, 41
1, 234311, Note_on_c, 0, 75, 0
1, 234311, Note_on_c, 0, 66, 43
1, 234365, Note_on_c, 0, 66, 0
1, 234365, Note_on_c, 0, 67, 44
1, 234419, Note_on_c, 0, 67, 0
1, 234419, Note_on_c, 0, 71, 46
1, 234473, Note_on_c, 0, 71, 0
1, 234473, Note_on_c, 0, 72, 47
1, 234526, Note_on_c, 0, 72, 0
1, 234526, Note_on_c, 0, 71, 49
1, 234579, Note_on_c, 0, 71, 0
1, 234579, Note_on_c, 0, 72, 49
1, 234632, Note_on_c, 0, 72, 0
1, 234632, Note_on_c, 0, 74, 51
1, 234686, Note_on_c, 0, 74, 0
1, 234686, Note_on_c, 0, 75, 53
1, 234741, Note_on_c, 0, 75, 0
1, 234741, Note_on_c, 0, 74, 55
1, 234795, Note_on_c, 0, 74, 0
1, 234795, Note_on_c, 0, 75, 57
1, 234851, Note_on_c, 0, 75, 0
1, 234851, Note_on_c, 0, 78, 59
1, 234912, Note_on_c, 0, 78, 0
1, 234912, Note_on_c, 0, 79, 61
1, 234973, Note_on_c, 0, 79, 0
1, 234973, Note_on_c, 0, 71, 54
1, 234973, Control_c, 0, 64, 0
1, 234998, Control_c, 0, 64, 127
1, 235028, Note_on_c, 0, 71, 0
1, 235028, Note_on_c, 0, 72, 49
1, 235082, Note_on_c, 0, 72, 0
1, 235082, Note_on_c, 0, 74, 47
1, 235137, Note_on_c, 0, 74, 0
1, 235137, Note_on_c, 0, 75, 47
1, 235191, Note_on_c, 0, 75, 0
1, 235191, Note_on_c, 0, 66, 47
1, 235246, Note_on_c, 0, 66, 0
1, 235246, Note_on_c, 0, 67, 53
1, 235300, Note_on_c, 0, 67, 0
1, 235300, Note_on_c, 0, 71, 45
1, 235355, Note_on_c, 0, 71, 0
1, 235355, Note_on_c, 0, 72, 45
1, 235409, Note_on_c, 0, 72, 0
1, 235409, Note_on_c, 0, 62, 50
1, 235464, Note_on_c, 0, 62, 0
1, 235464, Note_on_c, 0, 63, 41
1, 235518, Note_on_c, 0, 63, 0
1, 235518, Note_on_c, 0, 66, 41
1, 235573, Note_on_c, 0, 66, 0
1, 235573, Note_on_c, 0, 67, 41
1, 235628, Note_on_c, 0, 67, 0
1, 235628, Note_on_c, 0, 66, 46
1, 235684, Note_on_c, 0, 66, 0
1, 235684, Note_on_c, 0, 67, 43
1, 235739, Note_on_c, 0, 67, 0
1, 235739, Note_on_c, 0, 71, 43
1, 235795, Note_on_c, 0, 71, 0
1, 235795, Note_on_c, 0, 72, 43
1, 235850, Note_on_c, 0, 72, 0
1, 235850, Note_on_c, 0, 44, 43
1, 235886, Control_c, 0, 64, 0
1, 235889, Note_on_c, 0, 53, 43
1, 235908, Control_c, 0, 64, 127
1, 235927, Note_on_c, 0, 60, 43
1, 235966, Note_on_c, 0, 65, 43
1, 236004, Note_on_c, 0, 72, 43
1, 236049, Note_on_c, 0, 77, 43
1, 236267, Note_on_c, 0, 77, 0
1, 236267, Note_on_c, 0, 76, 43
1, 236339, Note_on_c, 0, 76, 0
1, 236339, Note_on_c, 0, 77, 42
1, 236410, Note_on_c, 0, 77, 0
1, 236410, Note_on_c, 0, 79, 43
1, 236480, Note_on_c, 0, 79, 0
1, 236480, Note_on_c, 0, 72, 0
1, 236480, Note_on_c, 0, 65, 0
1, 236483, Note_on_c, 0, 77, 48
1, 236483, Note_on_c, 0, 60, 0
1, 236483, Note_on_c, 0, 53, 0
1, 236486, Note_on_c, 0, 44, 0
1, 236532, Note_on_c, 0, 77, 0
1, 236532, Note_on_c, 0, 79, 43
1, 236584, Note_on_c, 0, 79, 0
1, 236584, Note_on_c, 0, 77, 47
1, 236635, Note_on_c, 0, 77, 0
1, 236635, Note_on_c, 0, 79, 43
1, 236686, Note_on_c, 0, 79, 0
1, 236686, Note_on_c, 0, 77, 47
1, 236737, Note_on_c, 0, 77, 0
1, 236737, Note_on_c, 0, 79, 43
1, 236789, Note_on_c, 0, 79, 0
1, 236789, Note_on_c, 0, 77, 50
1, 236840, Note_on_c, 0, 77, 0
1, 236840, Note_on_c, 0, 79, 43
1, 236891, Note_on_c, 0, 79, 0
1, 236891, Note_on_c, 0, 77, 49
1, 236942, Note_on_c, 0, 77, 0
1, 236942, Note_on_c, 0, 79, 43
1, 236992, Note_on_c, 0, 79, 0
1, 236992, Note_on_c, 0, 77, 48
1, 237043, Note_on_c, 0, 77, 0
1, 237043, Note_on_c, 0, 79, 43
1, 237095, Note_on_c, 0, 79, 0
1, 237095, Note_on_c, 0, 77, 46
1, 237146, Note_on_c, 0, 77, 0
1, 237146, Note_on_c, 0, 79, 43
1, 237198, Note_on_c, 0, 79, 0
1, 237198, Note_on_c, 0, 77, 49
1, 237251, Note_on_c, 0, 77, 0
1, 237251, Note_on_c, 0, 79, 43
1, 237304, Note_on_c, 0, 79, 0
1, 237304, Note_on_c, 0, 76, 47
1, 237519, Note_on_c, 0, 76, 0
1, 237519, Note_on_c, 0, 77, 47
1, 237734, Note_on_c, 0, 77, 0
1, 237734, Note_on_c, 0, 86, 58
1, 237828, Note_on_c, 0, 86, 0
1, 237828, Note_on_c, 0, 85, 56
1, 237925, Note_on_c, 0, 84, 55
1, 237925, Note_on_c, 0, 85, 0
1, 238023, Note_on_c, 0, 83, 54
1, 238023, Note_on_c, 0, 84, 0
1, 238123, Note_on_c, 0, 83, 0
1, 238123, Note_on_c, 0, 82, 53
1, 238226, Note_on_c, 0, 82, 0
1, 238226, Note_on_c, 0, 81, 52
1, 238330, Note_on_c, 0, 81, 0
1, 238333, Note_on_c, 0, 80, 51
1, 238437, Note_on_c, 0, 79, 50
1, 238440, Note_on_c, 0, 80, 0
1, 238546, Note_on_c, 0, 79, 0
1, 238550, Note_on_c, 0, 78, 49
1, 238657, Note_on_c, 0, 77, 49
1, 238662, Note_on_c, 0, 78, 0
1, 238670, Control_c, 0, 64, 0
1, 238787, Note_on_c, 0, 77, 0
1, 238787, Note_on_c, 0, 71, 48
1, 238933, Note_on_c, 0, 71, 0
1, 238933, Note_on_c, 0, 72, 46
1, 239091, Note_on_c, 0, 72, 0
1, 239091, Note_on_c, 0, 77, 45
1, 239280, Note_on_c, 0, 77, 0
1, 239280, Note_on_c, 0, 76, 44
1, 239484, Note_on_c, 0, 76, 0
1, 239484, Note_on_c, 0, 75, 43
1, 239640, Note_on_c, 0, 75, 0
1, 239640, Note_on_c, 0, 75, 43
1, 239774, Note_on_c, 0, 75, 0
1, 239774, Note_on_c, 0, 46, 37
1, 239830, Note_on_c, 0, 53, 38
1, 239847, Control_c, 0, 64, 0
1, 239887, Note_on_c, 0, 58, 39
1, 239943, Note_on_c, 0, 62, 47
1, 239966, Control_c, 0, 64, 127
1, 240000, Note_on_c, 0, 68, 49
1, 240077, Note_on_c, 0, 74, 51
1, 241420, Control_c, 0, 64, 0
1, 241549, Note_on_c, 0, 74, 0
1, 241549, Note_on_c, 0, 68, 0
1, 241549, Note_on_c, 0, 62, 0
1, 241552, Note_on_c, 0, 62, 46
1, 241552, Note_on_c, 0, 58, 0
1, 241552, Note_on_c, 0, 53, 0
1, 241555, Note_on_c, 0, 46, 0
1, 241555, Note_on_c, 0, 34, 35
1, 241597, Note_on_c, 0, 68, 50
1, 241644, Note_on_c, 0, 77, 58
1, 241692, Note_on_c, 0, 77, 0
1, 241692, Note_on_c, 0, 68, 0
1, 241692, Note_on_c, 0, 62, 0
1, 241695, Note_on_c, 0, 34, 0
1, 241931, Note_on_c, 0, 75, 56
1, 241931, Note_on_c, 0, 67, 47
1, 241931, Note_on_c, 0, 39, 43
1, 241992, Note_on_c, 0, 67, 0
1, 241992, Note_on_c, 0, 75, 0
1, 241992, Note_on_c, 0, 39, 0
1, 242054, Note_on_c, 0, 77, 49
1, 242054, Note_on_c, 0, 70, 41
1, 242115, Note_on_c, 0, 70, 0
1, 242115, Note_on_c, 0, 77, 0
1, 242176, Note_on_c, 0, 79, 50
1, 242176, Note_on_c, 0, 75, 42
1, 242176, Note_on_c, 0, 46, 46
1, 242237, Note_on_c, 0, 75, 0
1, 242237, Note_on_c, 0, 79, 0
1, 242237, Note_on_c, 0, 46, 0
1, 242299, Note_on_c, 0, 80, 44
1, 242299, Note_on_c, 0, 77, 37
1, 242364, Note_on_c, 0, 77, 0
1, 242364, Note_on_c, 0, 80, 0
1, 242397, Note_on_c, 0, 84, 56
1, 242429, Note_on_c, 0, 84, 0
1, 242429, Note_on_c, 0, 82, 50
1, 242429, Note_on_c, 0, 79, 42
1, 242432, Note_on_c, 0, 55, 51
1, 242491, Note_on_c, 0, 79, 0
1, 242491, Note_on_c, 0, 82, 0
1, 242491, Note_on_c, 0, 55, 0
1, 242613, Note_on_c, 0, 81, 45
1, 242613, Note_on_c, 0, 78, 38
1, 242674, Note_on_c, 0, 78, 0
1, 242674, Note_on_c, 0, 81, 0
1, 242674, Note_on_c, 0, 82, 59
1, 242677, Note_on_c, 0, 79, 50
1, 242677, Note_on_c, 0, 63, 68
1, 242736, Note_on_c, 0, 79, 0
1, 242736, Note_on_c, 0, 82, 0
1, 242736, Note_on_c, 0, 63, 0
1, 242919, Note_on_c, 0, 56, 68
1, 242978, Note_on_c, 0, 56, 0
1, 243038, Note_on_c, 0, 63, 51
1, 243038, Note_on_c, 0, 72, 51
1, 243097, Note_on_c, 0, 72, 0
1, 243097, Note_on_c, 0, 63, 0
1, 243156, Note_on_c, 0, 72, 44
1, 243156, Note_on_c, 0, 68, 37
1, 243218, Note_on_c, 0, 68, 0
1, 243218, Note_on_c, 0, 72, 0
1, 243280, Note_on_c, 0, 75, 43
1, 243280, Note_on_c, 0, 84, 51
1, 243341, Note_on_c, 0, 84, 0
1, 243341, Note_on_c, 0, 75, 0
1, 243397, Note_on_c, 0, 84, 60
1, 243397, Note_on_c, 0, 75, 51
1, 243459, Note_on_c, 0, 75, 0
1, 243459, Note_on_c, 0, 84, 0
1, 243521, Note_on_c, 0, 79, 55
1, 243521, Note_on_c, 0, 83, 55
1, 243580, Note_on_c, 0, 83, 0
1, 243580, Note_on_c, 0, 79, 0
1, 243639, Note_on_c, 0, 80, 54
1, 243639, Note_on_c, 0, 84, 64
1, 243698, Note_on_c, 0, 84, 0
1, 243698, Note_on_c, 0, 80, 0
1, 243889, Note_on_c, 0, 55, 68
1, 243948, Note_on_c, 0, 55, 0
1, 244007, Note_on_c, 0, 63, 51
1, 244007, Note_on_c, 0, 70, 51
1, 244066, Note_on_c, 0, 70, 0
1, 244066, Note_on_c, 0, 63, 0
1, 244126, Note_on_c, 0, 70, 44
1, 244126, Note_on_c, 0, 67, 37
1, 244187, Note_on_c, 0, 67, 0
1, 244187, Note_on_c, 0, 70, 0
1, 244249, Note_on_c, 0, 75, 43
1, 244249, Note_on_c, 0, 82, 51
1, 244311, Note_on_c, 0, 82, 0
1, 244311, Note_on_c, 0, 75, 0
1, 244366, Note_on_c, 0, 82, 60
1, 244366, Note_on_c, 0, 75, 51
1, 244428, Note_on_c, 0, 75, 0
1, 244428, Note_on_c, 0, 82, 0
1, 244491, Note_on_c, 0, 78, 55
1, 244491, Note_on_c, 0, 81, 55
1, 244549, Note_on_c, 0, 81, 0
1, 244549, Note_on_c, 0, 78, 0
1, 244608, Note_on_c, 0, 79, 54
1, 244608, Note_on_c, 0, 82, 64
1, 244667, Note_on_c, 0, 82, 0
1, 244667, Note_on_c, 0, 79, 0
1, 244858, Note_on_c, 0, 53, 68
1, 244917, Note_on_c, 0, 53, 0
1, 244976, Note_on_c, 0, 62, 51
1, 244976, Note_on_c, 0, 68, 51
1, 245036, Note_on_c, 0, 68, 0
1, 245036, Note_on_c, 0, 62, 0
1, 245095, Note_on_c, 0, 68, 44
1, 245095, Note_on_c, 0, 65, 37
1, 245157, Note_on_c, 0, 65, 0
1, 245157, Note_on_c, 0, 68, 0
1, 245218, Note_on_c, 0, 74, 43
1, 245218, Note_on_c, 0, 80, 51
1, 245280, Note_on_c, 0, 80, 0
1, 245280, Note_on_c, 0, 74, 0
1, 245335, Note_on_c, 0, 80, 60
1, 245335, Note_on_c, 0, 74, 51
1, 245398, Note_on_c, 0, 74, 0
1, 245398, Note_on_c, 0, 80, 0
1, 245460, Note_on_c, 0, 76, 55
1, 245460, Note_on_c, 0, 79, 55
1, 245519, Note_on_c, 0, 79, 0
1, 245519, Note_on_c, 0, 76, 0
1, 245578, Note_on_c, 0, 77, 54
1, 245578, Note_on_c, 0, 80, 64
1, 245636, Note_on_c, 0, 80, 0
1, 245636, Note_on_c, 0, 77, 0
1, 245827, Note_on_c, 0, 51, 68
1, 245887, Note_on_c, 0, 51, 0
1, 245947, Note_on_c, 0, 63, 51
1, 245947, Note_on_c, 0, 67, 51
1, 246007, Note_on_c, 0, 67, 0
1, 246007, Note_on_c, 0, 63, 0
1, 246067, Note_on_c, 0, 67, 44
1, 246067, Note_on_c, 0, 63, 37
1, 246129, Note_on_c, 0, 63, 0
1, 246129, Note_on_c, 0, 67, 0
1, 246190, Note_on_c, 0, 75, 43
1, 246190, Note_on_c, 0, 79, 51
1, 246252, Note_on_c, 0, 79, 0
1, 246252, Note_on_c, 0, 75, 0
1, 246307, Note_on_c, 0, 79, 60
1, 246307, Note_on_c, 0, 75, 51
1, 246370, Note_on_c, 0, 75, 0
1, 246370, Note_on_c, 0, 79, 0
1, 246432, Note_on_c, 0, 74, 55
1, 246432, Note_on_c, 0, 78, 55
1, 246491, Note_on_c, 0, 78, 0
1, 246491, Note_on_c, 0, 74, 0
1, 246549, Note_on_c, 0, 75, 54
1, 246549, Note_on_c, 0, 79, 64
1, 246608, Note_on_c, 0, 79, 0
1, 246608, Note_on_c, 0, 75, 0
1, 246799, Note_on_c, 0, 80, 52
1, 246799, Note_on_c, 0, 72, 44
1, 246799, Note_on_c, 0, 46, 48
1, 246862, Note_on_c, 0, 72, 0
1, 246862, Note_on_c, 0, 80, 0
1, 246862, Note_on_c, 0, 46, 0
1, 246925, Note_on_c, 0, 79, 47
1, 246925, Note_on_c, 0, 70, 39
1, 246987, Note_on_c, 0, 70, 0
1, 246987, Note_on_c, 0, 79, 0
1, 247050, Note_on_c, 0, 77, 47
1, 247050, Note_on_c, 0, 68, 39
1, 247050, Note_on_c, 0, 62, 42
1, 247113, Note_on_c, 0, 68, 0
1, 247113, Note_on_c, 0, 77, 0
1, 247113, Note_on_c, 0, 62, 0
1, 247176, Note_on_c, 0, 75, 47
1, 247176, Note_on_c, 0, 67, 39
1, 247241, Note_on_c, 0, 67, 0
1, 247241, Note_on_c, 0, 75, 0
1, 247307, Note_on_c, 0, 74, 52
1, 247307, Note_on_c, 0, 65, 44
1, 247307, Note_on_c, 0, 46, 47
1, 247369, Note_on_c, 0, 65, 0
1, 247369, Note_on_c, 0, 74, 0
1, 247369, Note_on_c, 0, 46, 0
1, 247432, Note_on_c, 0, 70, 45
1, 247432, Note_on_c, 0, 62, 38
1, 247495, Note_on_c, 0, 62, 0
1, 247495, Note_on_c, 0, 70, 0
1, 247558, Note_on_c, 0, 72, 45
1, 247558, Note_on_c, 0, 63, 38
1, 247558, Note_on_c, 0, 56, 40
1, 247624, Note_on_c, 0, 63, 0
1, 247624, Note_on_c, 0, 72, 0
1, 247624, Note_on_c, 0, 56, 0
1, 247691, Note_on_c, 0, 74, 45
1, 247691, Note_on_c, 0, 65, 38
1, 247758, Note_on_c, 0, 65, 0
1, 247758, Note_on_c, 0, 74, 0
1, 247824, Note_on_c, 0, 75, 56
1, 247824, Note_on_c, 0, 67, 47
1, 247824, Note_on_c, 0, 39, 43
1, 247886, Note_on_c, 0, 67, 0
1, 247886, Note_on_c, 0, 75, 0
1, 247886, Note_on_c, 0, 39, 0
1, 247947, Note_on_c, 0, 77, 49
1, 247947, Note_on_c, 0, 70, 41
1, 248008, Note_on_c, 0, 70, 0
1, 248008, Note_on_c, 0, 77, 0
1, 248069, Note_on_c, 0, 79, 50
1, 248069, Note_on_c, 0, 75, 42
1, 248069, Note_on_c, 0, 46, 46
1, 248130, Note_on_c, 0, 75, 0
1, 248130, Note_on_c, 0, 79, 0
1, 248130, Note_on_c, 0, 46, 0
1, 248192, Note_on_c, 0, 80, 44
1, 248192, Note_on_c, 0, 77, 37
1, 248257, Note_on_c, 0, 77, 0
1, 248257, Note_on_c, 0, 80, 0
1, 248290, Note_on_c, 0, 84, 56
1, 248323, Note_on_c, 0, 84, 0
1, 248323, Note_on_c, 0, 82, 50
1, 248323, Note_on_c, 0, 79, 42
1, 248326, Note_on_c, 0, 55, 51
1, 248384, Note_on_c, 0, 79, 0
1, 248384, Note_on_c, 0, 82, 0
1, 248384, Note_on_c, 0, 55, 0
1, 248445, Note_on_c, 0, 78, 38
1, 248445, Note_on_c, 0, 81, 45
1, 248506, Note_on_c, 0, 81, 0
1, 248506, Note_on_c, 0, 78, 0
1, 248567, Note_on_c, 0, 82, 59
1, 248567, Note_on_c, 0, 79, 50
1, 248567, Note_on_c, 0, 63, 68
1, 248629, Note_on_c, 0, 79, 0
1, 248629, Note_on_c, 0, 82, 0
1, 248629, Note_on_c, 0, 63, 0
1, 248812, Note_on_c, 0, 68, 68
1, 248873, Note_on_c, 0, 68, 0
1, 248933, Note_on_c, 0, 75, 51
1, 248933, Note_on_c, 0, 84, 51
1, 248993, Note_on_c, 0, 84, 0
1, 248993, Note_on_c, 0, 75, 0
1, 249054, Note_on_c, 0, 84, 44
1, 249054, Note_on_c, 0, 80, 37
1, 249110, Note_on_c, 0, 80, 0
1, 249110, Note_on_c, 0, 84, 0
1, 249166, Note_on_c, 0, 87, 43
1, 249166, Note_on_c, 0, 96, 51
1, 249223, Note_on_c, 0, 96, 0
1, 249223, Note_on_c, 0, 87, 0
1, 249280, Note_on_c, 0, 96, 60
1, 249280, Note_on_c, 0, 87, 51
1, 249342, Note_on_c, 0, 87, 0
1, 249342, Note_on_c, 0, 96, 0
1, 249404, Note_on_c, 0, 91, 55
1, 249404, Note_on_c, 0, 95, 55
1, 249463, Note_on_c, 0, 95, 0
1, 249463, Note_on_c, 0, 91, 0
1, 249521, Note_on_c, 0, 92, 54
1, 249521, Note_on_c, 0, 96, 64
1, 249580, Note_on_c, 0, 96, 0
1, 249580, Note_on_c, 0, 92, 0
1, 249770, Note_on_c, 0, 67, 68
1, 249832, Note_on_c, 0, 67, 0
1, 249894, Note_on_c, 0, 75, 51
1, 249894, Note_on_c, 0, 82, 51
1, 249955, Note_on_c, 0, 82, 0
1, 249955, Note_on_c, 0, 75, 0
1, 250017, Note_on_c, 0, 82, 44
1, 250017, Note_on_c, 0, 79, 37
1, 250073, Note_on_c, 0, 79, 0
1, 250073, Note_on_c, 0, 82, 0
1, 250129, Note_on_c, 0, 87, 43
1, 250129, Note_on_c, 0, 94, 51
1, 250186, Note_on_c, 0, 94, 0
1, 250186, Note_on_c, 0, 87, 0
1, 250242, Note_on_c, 0, 94, 60
1, 250242, Note_on_c, 0, 87, 51
1, 250304, Note_on_c, 0, 87, 0
1, 250304, Note_on_c, 0, 94, 0
1, 250366, Note_on_c, 0, 90, 55
1, 250366, Note_on_c, 0, 93, 55
1, 250424, Note_on_c, 0, 93, 0
1, 250424, Note_on_c, 0, 90, 0
1, 250482, Note_on_c, 0, 91, 54
1, 250482, Note_on_c, 0, 94, 64
1, 250540, Note_on_c, 0, 94, 0
1, 250540, Note_on_c, 0, 91, 0
1, 250730, Note_on_c, 0, 65, 68
1, 250790, Note_on_c, 0, 65, 0
1, 250851, Note_on_c, 0, 74, 51
1, 250851, Note_on_c, 0, 80, 51
1, 250911, Note_on_c, 0, 80, 0
1, 250911, Note_on_c, 0, 74, 0
1, 250971, Note_on_c, 0, 80, 44
1, 250971, Note_on_c, 0, 77, 37
1, 251028, Note_on_c, 0, 77, 0
1, 251028, Note_on_c, 0, 80, 0
1, 251084, Note_on_c, 0, 86, 43
1, 251084, Note_on_c, 0, 92, 51
1, 251140, Note_on_c, 0, 92, 0
1, 251140, Note_on_c, 0, 86, 0
1, 251196, Note_on_c, 0, 92, 60
1, 251196, Note_on_c, 0, 86, 51
1, 251258, Note_on_c, 0, 86, 0
1, 251258, Note_on_c, 0, 92, 0
1, 251320, Note_on_c, 0, 88, 55
1, 251320, Note_on_c, 0, 91, 55
1, 251379, Note_on_c, 0, 91, 0
1, 251379, Note_on_c, 0, 88, 0
1, 251438, Note_on_c, 0, 89, 54
1, 251438, Note_on_c, 0, 92, 64
1, 251497, Note_on_c, 0, 92, 0
1, 251497, Note_on_c, 0, 89, 0
1, 251688, Note_on_c, 0, 63, 68
1, 251748, Note_on_c, 0, 63, 0
1, 251809, Note_on_c, 0, 75, 51
1, 251809, Note_on_c, 0, 79, 51
1, 251869, Note_on_c, 0, 79, 0
1, 251869, Note_on_c, 0, 75, 0
1, 251929, Note_on_c, 0, 79, 44
1, 251929, Note_on_c, 0, 75, 37
1, 251986, Note_on_c, 0, 75, 0
1, 251986, Note_on_c, 0, 79, 0
1, 252042, Note_on_c, 0, 87, 43
1, 252042, Note_on_c, 0, 91, 51
1, 252098, Note_on_c, 0, 91, 0
1, 252098, Note_on_c, 0, 87, 0
1, 252154, Note_on_c, 0, 91, 60
1, 252154, Note_on_c, 0, 87, 51
1, 252216, Note_on_c, 0, 87, 0
1, 252216, Note_on_c, 0, 91, 0
1, 252279, Note_on_c, 0, 86, 55
1, 252279, Note_on_c, 0, 90, 55
1, 252337, Note_on_c, 0, 90, 0
1, 252337, Note_on_c, 0, 86, 0
1, 252396, Note_on_c, 0, 87, 54
1, 252396, Note_on_c, 0, 91, 64
1, 252455, Note_on_c, 0, 91, 0
1, 252455, Note_on_c, 0, 87, 0
1, 252646, Note_on_c, 0, 92, 52
1, 252646, Note_on_c, 0, 84, 44
1, 252646, Note_on_c, 0, 58, 48
1, 252706, Note_on_c, 0, 84, 0
1, 252706, Note_on_c, 0, 92, 0
1, 252706, Note_on_c, 0, 58, 0
1, 252767, Note_on_c, 0, 91, 47
1, 252767, Note_on_c, 0, 82, 39
1, 252827, Note_on_c, 0, 82, 0
1, 252827, Note_on_c, 0, 91, 0
1, 252887, Note_on_c, 0, 89, 47
1, 252887, Note_on_c, 0, 80, 39
1, 252887, Note_on_c, 0, 74, 42
1, 252948, Note_on_c, 0, 80, 0
1, 252948, Note_on_c, 0, 89, 0
1, 252948, Note_on_c, 0, 74, 0
1, 253008, Note_on_c, 0, 87, 47
1, 253008, Note_on_c, 0, 79, 39
1, 253074, Note_on_c, 0, 79, 0
1, 253074, Note_on_c, 0, 87, 0
1, 253139, Note_on_c, 0, 86, 52
1, 253139, Note_on_c, 0, 77, 44
1, 253139, Note_on_c, 0, 58, 47
1, 253199, Note_on_c, 0, 77, 0
1, 253199, Note_on_c, 0, 86, 0
1, 253199, Note_on_c, 0, 58, 0
1, 253260, Note_on_c, 0, 82, 45
1, 253260, Note_on_c, 0, 74, 38
1, 253320, Note_on_c, 0, 74, 0
1, 253320, Note_on_c, 0, 82, 0
1, 253380, Note_on_c, 0, 84, 45
1, 253380, Note_on_c, 0, 75, 38
1, 253380, Note_on_c, 0, 68, 40
1, 253444, Note_on_c, 0, 75, 0
1, 253444, Note_on_c, 0, 84, 0
1, 253444, Note_on_c, 0, 68, 0
1, 253507, Note_on_c, 0, 86, 45
1, 253507, Note_on_c, 0, 77, 38
1, 253571, Note_on_c, 0, 77, 0
1, 253571, Note_on_c, 0, 86, 0
1, 253635, Note_on_c, 0, 87, 56
1, 253635, Note_on_c, 0, 79, 47
1, 253635, Note_on_c, 0, 51, 43
1, 253694, Note_on_c, 0, 79, 0
1, 253694, Note_on_c, 0, 87, 0
1, 253694, Note_on_c, 0, 51, 0
1, 253754, Note_on_c, 0, 89, 49
1, 253754, Note_on_c, 0, 82, 41
1, 253813, Note_on_c, 0, 82, 0
1, 253813, Note_on_c, 0, 89, 0
1, 253873, Note_on_c, 0, 91, 50
1, 253873, Note_on_c, 0, 87, 42
1, 253873, Note_on_c, 0, 58, 41
1, 253933, Note_on_c, 0, 87, 0
1, 253933, Note_on_c, 0, 91, 0
1, 253933, Note_on_c, 0, 58, 0
1, 253992, Note_on_c, 0, 92, 44
1, 253992, Note_on_c, 0, 89, 37
1, 254054, Note_on_c, 0, 89, 0
1, 254054, Note_on_c, 0, 92, 0
1, 254115, Note_on_c, 0, 94, 50
1, 254115, Note_on_c, 0, 91, 42
1, 254115, Note_on_c, 0, 67, 48
1, 254174, Note_on_c, 0, 91, 0
1, 254174, Note_on_c, 0, 94, 0
1, 254174, Note_on_c, 0, 67, 0
1, 254233, Note_on_c, 0, 90, 38
1, 254233, Note_on_c, 0, 93, 45
1, 254292, Note_on_c, 0, 93, 0
1, 254292, Note_on_c, 0, 90, 0
1, 254351, Note_on_c, 0, 96, 50
1, 254351, Note_on_c, 0, 92, 50
1, 254351, Note_on_c, 0, 75, 51
1, 254410, Note_on_c, 0, 92, 0
1, 254410, Note_on_c, 0, 96, 0
1, 254410, Note_on_c, 0, 75, 0
1, 254469, Note_on_c, 0, 91, 38
1, 254469, Note_on_c, 0, 94, 45
1, 254532, Note_on_c, 0, 94, 0
1, 254532, Note_on_c, 0, 91, 0
1, 254595, Note_on_c, 0, 92, 52
1, 254595, Note_on_c, 0, 84, 44
1, 254595, Note_on_c, 0, 58, 48
1, 254656, Note_on_c, 0, 84, 0
1, 254656, Note_on_c, 0, 92, 0
1, 254656, Note_on_c, 0, 58, 0
1, 254717, Note_on_c, 0, 91, 47
1, 254717, Note_on_c, 0, 82, 39
1, 254777, Note_on_c, 0, 82, 0
1, 254777, Note_on_c, 0, 91, 0
1, 254838, Note_on_c, 0, 89, 47
1, 254838, Note_on_c, 0, 80, 39
1, 254838, Note_on_c, 0, 74, 42
1, 254899, Note_on_c, 0, 80, 0
1, 254899, Note_on_c, 0, 89, 0
1, 254899, Note_on_c, 0, 74, 0
1, 254960, Note_on_c, 0, 87, 48
1, 254960, Note_on_c, 0, 79, 40
1, 255023, Note_on_c, 0, 79, 0
1, 255023, Note_on_c, 0, 87, 0
1, 255086, Note_on_c, 0, 86, 54
1, 255086, Note_on_c, 0, 77, 45
1, 255086, Note_on_c, 0, 58, 48
1, 255146, Note_on_c, 0, 77, 0
1, 255146, Note_on_c, 0, 86, 0
1, 255146, Note_on_c, 0, 58, 0
1, 255207, Note_on_c, 0, 82, 47
1, 255207, Note_on_c, 0, 74, 39
1, 255267, Note_on_c, 0, 74, 0
1, 255267, Note_on_c, 0, 82, 0
1, 255328, Note_on_c, 0, 84, 48
1, 255328, Note_on_c, 0, 75, 40
1, 255328, Note_on_c, 0, 68, 42
1, 255388, Note_on_c, 0, 75, 0
1, 255388, Note_on_c, 0, 84, 0
1, 255388, Note_on_c, 0, 68, 0
1, 255448, Note_on_c, 0, 86, 48
1, 255448, Note_on_c, 0, 77, 41
1, 255508, Note_on_c, 0, 77, 0
1, 255508, Note_on_c, 0, 86, 0
1, 255568, Note_on_c, 0, 87, 61
1, 255568, Note_on_c, 0, 79, 51
1, 255568, Note_on_c, 0, 51, 46
1, 255626, Note_on_c, 0, 79, 0
1, 255626, Note_on_c, 0, 87, 0
1, 255626, Note_on_c, 0, 51, 0
1, 255683, Note_on_c, 0, 89, 53
1, 255683, Note_on_c, 0, 82, 45
1, 255741, Note_on_c, 0, 82, 0
1, 255741, Note_on_c, 0, 89, 0
1, 255798, Note_on_c, 0, 91, 55
1, 255798, Note_on_c, 0, 87, 46
1, 255798, Note_on_c, 0, 58, 46
1, 255856, Note_on_c, 0, 87, 0
1, 255856, Note_on_c, 0, 91, 0
1, 255856, Note_on_c, 0, 58, 0
1, 255913, Note_on_c, 0, 92, 49
1, 255913, Note_on_c, 0, 89, 41
1, 255973, Note_on_c, 0, 89, 0
1, 255973, Note_on_c, 0, 92, 0
1, 256034, Note_on_c, 0, 94, 57
1, 256034, Note_on_c, 0, 91, 47
1, 256034, Note_on_c, 0, 67, 51
1, 256091, Note_on_c, 0, 91, 0
1, 256091, Note_on_c, 0, 94, 0
1, 256091, Note_on_c, 0, 67, 0
1, 256149, Note_on_c, 0, 90, 43
1, 256149, Note_on_c, 0, 93, 51
1, 256207, Note_on_c, 0, 93, 0
1, 256207, Note_on_c, 0, 90, 0
1, 256265, Note_on_c, 0, 96, 58
1, 256265, Note_on_c, 0, 92, 58
1, 256265, Note_on_c, 0, 75, 57
1, 256322, Note_on_c, 0, 92, 0
1, 256322, Note_on_c, 0, 96, 0
1, 256322, Note_on_c, 0, 75, 0
1, 256380, Note_on_c, 0, 91, 44
1, 256380, Note_on_c, 0, 94, 52
1, 256438, Note_on_c, 0, 94, 0
1, 256438, Note_on_c, 0, 91, 0
1, 256496, Note_on_c, 0, 92, 61
1, 256496, Note_on_c, 0, 84, 52
1, 256496, Note_on_c, 0, 58, 57
1, 256555, Note_on_c, 0, 84, 0
1, 256555, Note_on_c, 0, 92, 0
1, 256555, Note_on_c, 0, 58, 0
1, 256615, Note_on_c, 0, 91, 56
1, 256615, Note_on_c, 0, 82, 46
1, 256674, Note_on_c, 0, 82, 0
1, 256674, Note_on_c, 0, 91, 0
1, 256734, Note_on_c, 0, 89, 56
1, 256734, Note_on_c, 0, 80, 47
1, 256734, Note_on_c, 0, 65, 43
1, 256737, Note_on_c, 0, 74, 50
1, 256793, Note_on_c, 0, 80, 0
1, 256793, Note_on_c, 0, 89, 0
1, 256793, Note_on_c, 0, 74, 0
1, 256796, Note_on_c, 0, 65, 0
1, 256853, Note_on_c, 0, 87, 57
1, 256853, Note_on_c, 0, 79, 47
1, 256919, Note_on_c, 0, 79, 0
1, 256919, Note_on_c, 0, 87, 0
1, 256984, Note_on_c, 0, 86, 63
1, 256984, Note_on_c, 0, 77, 54
1, 257047, Note_on_c, 0, 77, 0
1, 257047, Note_on_c, 0, 86, 0
1, 257235, Note_on_c, 0, 70, 51
1, 257235, Note_on_c, 0, 82, 60
1, 257235, Note_on_c, 0, 56, 41
1, 257238, Note_on_c, 0, 68, 49
1, 257356, Note_on_c, 0, 82, 0
1, 257356, Note_on_c, 0, 70, 0
1, 257356, Note_on_c, 0, 71, 51
1, 257359, Note_on_c, 0, 83, 60
1, 257359, Note_on_c, 0, 68, 0
1, 257359, Note_on_c, 0, 56, 0
1, 257362, Note_on_c, 0, 67, 49
1, 257362, Note_on_c, 0, 55, 41
1, 257476, Note_on_c, 0, 83, 0
1, 257476, Note_on_c, 0, 71, 0
1, 257476, Note_on_c, 0, 72, 53
1, 257479, Note_on_c, 0, 84, 63
1, 257479, Note_on_c, 0, 55, 0
1, 257479, Note_on_c, 0, 67, 0
1, 257482, Note_on_c, 0, 66, 57
1, 257482, Note_on_c, 0, 54, 48
1, 257596, Note_on_c, 0, 84, 0
1, 257596, Note_on_c, 0, 72, 0
1, 257596, Note_on_c, 0, 73, 49
1, 257599, Note_on_c, 0, 85, 58
1, 257599, Note_on_c, 0, 54, 0
1, 257599, Note_on_c, 0, 66, 0
1, 257602, Note_on_c, 0, 65, 52
1, 257602, Note_on_c, 0, 53, 44
1, 257717, Note_on_c, 0, 85, 0
1, 257717, Note_on_c, 0, 73, 0
1, 257717, Note_on_c, 0, 74, 49
1, 257720, Note_on_c, 0, 86, 58
1, 257720, Note_on_c, 0, 53, 0
1, 257720, Note_on_c, 0, 65, 0
1, 257723, Note_on_c, 0, 64, 52
1, 257723, Note_on_c, 0, 52, 44
1, 257837, Note_on_c, 0, 86, 0
1, 257837, Note_on_c, 0, 74, 0
1, 257837, Note_on_c, 0, 75, 49
1, 257840, Note_on_c, 0, 87, 58
1, 257840, Note_on_c, 0, 52, 0
1, 257840, Note_on_c, 0, 64, 0
1, 257843, Note_on_c, 0, 63, 52
1, 257843, Note_on_c, 0, 51, 44
1, 257958, Note_on_c, 0, 87, 0
1, 257958, Note_on_c, 0, 75, 0
1, 257958, Note_on_c, 0, 86, 63
1, 257961, Note_on_c, 0, 74, 53
1, 257961, Note_on_c, 0, 51, 0
1, 257961, Note_on_c, 0, 63, 0
1, 257964, Note_on_c, 0, 62, 58
1, 257964, Note_on_c, 0, 50, 49
1, 258078, Note_on_c, 0, 74, 0
1, 258078, Note_on_c, 0, 86, 0
1, 258078, Note_on_c, 0, 87, 59
1, 258081, Note_on_c, 0, 75, 50
1, 258081, Note_on_c, 0, 50, 0
1, 258081, Note_on_c, 0, 62, 0
1, 258084, Note_on_c, 0, 61, 53
1, 258084, Note_on_c, 0, 49, 45
1, 258199, Note_on_c, 0, 75, 0
1, 258199, Note_on_c, 0, 87, 0
1, 258199, Note_on_c, 0, 88, 59
1, 258202, Note_on_c, 0, 76, 50
1, 258202, Note_on_c, 0, 49, 0
1, 258202, Note_on_c, 0, 61, 0
1, 258205, Note_on_c, 0, 60, 53
1, 258205, Note_on_c, 0, 48, 45
1, 258319, Note_on_c, 0, 76, 0
1, 258319, Note_on_c, 0, 88, 0
1, 258319, Note_on_c, 0, 77, 50
1, 258322, Note_on_c, 0, 89, 59
1, 258322, Note_on_c, 0, 48, 0
1, 258322, Note_on_c, 0, 60, 0
1, 258325, Note_on_c, 0, 47, 45
1, 258325, Note_on_c, 0, 59, 53
1, 258439, Note_on_c, 0, 89, 0
1, 258439, Note_on_c, 0, 77, 0
1, 258439, Note_on_c, 0, 76, 58
1, 258442, Note_on_c, 0, 88, 69
1, 258442, Note_on_c, 0, 59, 0
1, 258442, Note_on_c, 0, 47, 0
1, 258445, Note_on_c, 0, 58, 59
1, 258445, Note_on_c, 0, 46, 50
1, 258556, Note_on_c, 0, 88, 0
1, 258556, Note_on_c, 0, 76, 0
1, 258556, Note_on_c, 0, 77, 52
1, 258559, Note_on_c, 0, 89, 62
1, 258559, Note_on_c, 0, 46, 0
1, 258559, Note_on_c, 0, 58, 0
1, 258562, Note_on_c, 0, 57, 54
1, 258562, Note_on_c, 0, 45, 45
1, 258672, Note_on_c, 0, 89, 0
1, 258672, Note_on_c, 0, 77, 0
1, 258672, Note_on_c, 0, 78, 52
1, 258675, Note_on_c, 0, 90, 62
1, 258675, Note_on_c, 0, 45, 0
1, 258675, Note_on_c, 0, 57, 0
1, 258678, Note_on_c, 0, 44, 46
1, 258678, Note_on_c, 0, 56, 55
1, 258789, Note_on_c, 0, 90, 0
1, 258789, Note_on_c, 0, 78, 0
1, 258789, Note_on_c, 0, 79, 52
1, 258792, Note_on_c, 0, 91, 62
1, 258792, Note_on_c, 0, 56, 0
1, 258792, Note_on_c, 0, 44, 0
1, 258795, Note_on_c, 0, 55, 55
1, 258795, Note_on_c, 0, 43, 46
1, 258906, Note_on_c, 0, 91, 0
1, 258906, Note_on_c, 0, 79, 0
1, 258906, Note_on_c, 0, 78, 59
1, 258909, Note_on_c, 0, 90, 70
1, 258909, Note_on_c, 0, 43, 0
1, 258909, Note_on_c, 0, 55, 0
1, 258912, Note_on_c, 0, 42, 46
1, 258912, Note_on_c, 0, 54, 55
1, 259023, Note_on_c, 0, 90, 0
1, 259023, Note_on_c, 0, 78, 0
1, 259023, Note_on_c, 0, 79, 54
1, 259026, Note_on_c, 0, 91, 64
1, 259026, Note_on_c, 0, 54, 0
1, 259026, Note_on_c, 0, 42, 0
1, 259029, Note_on_c, 0, 41, 53
1, 259029, Note_on_c, 0, 53, 63
1, 259139, Note_on_c, 0, 91, 0
1, 259139, Note_on_c, 0, 79, 0
1, 259139, Note_on_c, 0, 80, 54
1, 259142, Note_on_c, 0, 92, 64
1, 259142, Note_on_c, 0, 53, 0
1, 259142, Note_on_c, 0, 41, 0
1, 259145, Note_on_c, 0, 40, 48
1, 259145, Note_on_c, 0, 52, 57
1, 259256, Note_on_c, 0, 92, 0
1, 259256, Note_on_c, 0, 80, 0
1, 259256, Note_on_c, 0, 81, 54
1, 259259, Note_on_c, 0, 93, 64
1, 259259, Note_on_c, 0, 52, 0
1, 259259, Note_on_c, 0, 40, 0
1, 259262, Note_on_c, 0, 39, 48
1, 259262, Note_on_c, 0, 51, 57
1, 259373, Note_on_c, 0, 93, 0
1, 259373, Note_on_c, 0, 81, 0
1, 259373, Note_on_c, 0, 80, 62
1, 259376, Note_on_c, 0, 92, 74
1, 259376, Note_on_c, 0, 51, 0
1, 259376, Note_on_c, 0, 39, 0
1, 259379, Note_on_c, 0, 38, 56
1, 259379, Note_on_c, 0, 50, 66
1, 259379, Control_c, 0, 64, 127
1, 259487, Note_on_c, 0, 92, 0
1, 259487, Note_on_c, 0, 80, 0
1, 259487, Note_on_c, 0, 81, 53
1, 259490, Note_on_c, 0, 93, 63
1, 259490, Note_on_c, 0, 50, 0
1, 259490, Note_on_c, 0, 38, 0
1, 259493, Note_on_c, 0, 37, 50
1, 259493, Note_on_c, 0, 49, 59
1, 259602, Note_on_c, 0, 93, 0
1, 259602, Note_on_c, 0, 81, 0
1, 259602, Note_on_c, 0, 82, 54
1, 259605, Note_on_c, 0, 94, 64
1, 259605, Note_on_c, 0, 49, 0
1, 259605, Note_on_c, 0, 37, 0
1, 259608, Note_on_c, 0, 36, 51
1, 259608, Note_on_c, 0, 48, 60
1, 259715, Note_on_c, 0, 94, 0
1, 259715, Note_on_c, 0, 82, 0
1, 259715, Note_on_c, 0, 83, 54
1, 259718, Note_on_c, 0, 95, 64
1, 259718, Note_on_c, 0, 48, 0
1, 259718, Note_on_c, 0, 36, 0
1, 259721, Note_on_c, 0, 35, 51
1, 259721, Note_on_c, 0, 47, 60
1, 259828, Note_on_c, 0, 95, 0
1, 259828, Note_on_c, 0, 83, 0
1, 259828, Note_on_c, 0, 82, 64
1, 259831, Note_on_c, 0, 94, 75
1, 259831, Note_on_c, 0, 47, 0
1, 259831, Note_on_c, 0, 35, 0
1, 259834, Note_on_c, 0, 34, 59
1, 259834, Note_on_c, 0, 46, 71
1, 259834, Control_c, 0, 64, 0
1, 259860, Control_c, 0, 64, 127
1, 259945, Note_on_c, 0, 94, 0
1, 259945, Note_on_c, 0, 82, 0
1, 259945, Note_on_c, 0, 83, 59
1, 259948, Note_on_c, 0, 95, 71
1, 260065, Note_on_c, 0, 95, 0
1, 260065, Note_on_c, 0, 83, 0
1, 260065, Note_on_c, 0, 84, 64
1, 260068, Note_on_c, 0, 96, 77
1, 260068, Note_on_c, 0, 46, 0
1, 260068, Note_on_c, 0, 34, 0
1, 260071, Note_on_c, 0, 33, 60
1, 260071, Note_on_c, 0, 45, 72
1, 260187, Note_on_c, 0, 96, 0
1, 260187, Note_on_c, 0, 84, 0
1, 260187, Note_on_c, 0, 85, 69
1, 260190, Note_on_c, 0, 97, 82
1, 260326, Note_on_c, 0, 97, 0
1, 260326, Note_on_c, 0, 85, 0
1, 260326, Note_on_c, 0, 98, 93
1, 260329, Note_on_c, 0, 86, 79
1, 260329, Note_on_c, 0, 94, 79
1, 260329, Note_on_c, 0, 45, 0
1, 260332, Note_on_c, 0, 33, 0
1, 260332, Note_on_c, 0, 44, 78
1, 260332, Note_on_c, 0, 32, 66
1, 260335, Control_c, 0, 64, 0
1, 260411, Control_c, 0, 64, 127
1, 260591, Note_on_c, 0, 94, 0
1, 260591, Note_on_c, 0, 86, 0
1, 260591, Note_on_c, 0, 98, 0
1, 260594, Note_on_c, 0, 98, 85
1, 260594, Note_on_c, 0, 86, 72
1, 260594, Note_on_c, 0, 94, 72
1, 260597, Note_on_c, 0, 32, 0
1, 260597, Note_on_c, 0, 44, 0
1, 260597, Note_on_c, 0, 65, 70
1, 260600, Note_on_c, 0, 60, 59
1, 260600, Note_on_c, 0, 53, 59
1, 260839, Note_on_c, 0, 94, 0
1, 260839, Note_on_c, 0, 86, 0
1, 260839, Note_on_c, 0, 98, 0
1, 260842, Note_on_c, 0, 96, 93
1, 260842, Note_on_c, 0, 84, 79
1, 260842, Note_on_c, 0, 92, 79
1, 260845, Note_on_c, 0, 53, 0
1, 260845, Note_on_c, 0, 60, 0
1, 260845, Note_on_c, 0, 65, 0
1, 260848, Note_on_c, 0, 46, 78
1, 260848, Note_on_c, 0, 34, 66
1, 260874, Control_c, 0, 64, 0
1, 260940, Control_c, 0, 64, 127
1, 261084, Note_on_c, 0, 92, 0
1, 261084, Note_on_c, 0, 84, 0
1, 261084, Note_on_c, 0, 96, 0
1, 261087, Note_on_c, 0, 96, 88
1, 261087, Note_on_c, 0, 84, 74
1, 261087, Note_on_c, 0, 92, 74
1, 261090, Note_on_c, 0, 34, 0
1, 261090, Note_on_c, 0, 46, 0
1, 261090, Note_on_c, 0, 65, 71
1, 261093, Note_on_c, 0, 62, 60
1, 261093, Note_on_c, 0, 53, 60
1, 261326, Note_on_c, 0, 92, 0
1, 261326, Note_on_c, 0, 84, 0
1, 261326, Note_on_c, 0, 96, 0
1, 261329, Note_on_c, 0, 91, 92
1, 261329, Note_on_c, 0, 79, 78
1, 261329, Note_on_c, 0, 87, 78
1, 261332, Note_on_c, 0, 53, 0
1, 261332, Note_on_c, 0, 62, 0
1, 261332, Note_on_c, 0, 65, 0
1, 261335, Note_on_c, 0, 51, 78
1, 261335, Note_on_c, 0, 39, 66
1, 261335, Control_c, 0, 64, 0
1, 261368, Control_c, 0, 64, 127
1, 261558, Note_on_c, 0, 87, 0
1, 261558, Note_on_c, 0, 79, 0
1, 261558, Note_on_c, 0, 91, 0
1, 261561, Note_on_c, 0, 94, 83
1, 261561, Note_on_c, 0, 82, 70
1, 261561, Note_on_c, 0, 91, 70
1, 261564, Note_on_c, 0, 39, 0
1, 261564, Note_on_c, 0, 51, 0
1, 261564, Note_on_c, 0, 67, 71
1, 261567, Note_on_c, 0, 63, 60
1, 261567, Note_on_c, 0, 55, 60
1, 261806, Note_on_c, 0, 91, 0
1, 261806, Note_on_c, 0, 82, 0
1, 261806, Note_on_c, 0, 94, 0
1, 261809, Note_on_c, 0, 94, 89
1, 261809, Note_on_c, 0, 82, 74
1, 261809, Note_on_c, 0, 91, 74
1, 261812, Note_on_c, 0, 55, 0
1, 261812, Note_on_c, 0, 63, 0
1, 261812, Note_on_c, 0, 67, 0
1, 261815, Note_on_c, 0, 51, 78
1, 261815, Note_on_c, 0, 39, 66
1, 261922, Note_on_c, 0, 91, 0
1, 261922, Note_on_c, 0, 82, 0
1, 261922, Note_on_c, 0, 94, 0
1, 261925, Note_on_c, 0, 81, 67
1, 261925, Note_on_c, 0, 90, 67
1, 261925, Note_on_c, 0, 93, 79
1, 262038, Note_on_c, 0, 93, 0
1, 262038, Note_on_c, 0, 90, 0
1, 262038, Note_on_c, 0, 81, 0
1, 262041, Note_on_c, 0, 94, 88
1, 262041, Note_on_c, 0, 82, 74
1, 262041, Note_on_c, 0, 91, 74
1, 262044, Note_on_c, 0, 39, 0
1, 262044, Note_on_c, 0, 51, 0
1, 262044, Note_on_c, 0, 67, 71
1, 262047, Note_on_c, 0, 63, 60
1, 262047, Note_on_c, 0, 55, 60
1, 262288, Note_on_c, 0, 91, 0
1, 262288, Note_on_c, 0, 82, 0
1, 262288, Note_on_c, 0, 94, 0
1, 262291, Note_on_c, 0, 89, 82
1, 262291, Note_on_c, 0, 77, 69
1, 262291, Note_on_c, 0, 55, 0
1, 262294, Note_on_c, 0, 63, 0
1, 262294, Note_on_c, 0, 67, 0
1, 262294, Note_on_c, 0, 53, 78
1, 262297, Note_on_c, 0, 41, 66
1, 262330, Control_c, 0, 64, 0
1, 262367, Control_c, 0, 64, 127
1, 262406, Note_on_c, 0, 77, 0
1, 262406, Note_on_c, 0, 89, 0
1, 262406, Note_on_c, 0, 91, 81
1, 262409, Note_on_c, 0, 79, 68
1, 262523, Note_on_c, 0, 79, 0
1, 262523, Note_on_c, 0, 91, 0
1, 262523, Note_on_c, 0, 92, 81
1, 262526, Note_on_c, 0, 80, 68
1, 262526, Note_on_c, 0, 41, 0
1, 262526, Note_on_c, 0, 53, 0
1, 262529, Note_on_c, 0, 65, 71
1, 262529, Note_on_c, 0, 60, 60
1, 262529, Note_on_c, 0, 56, 60
1, 262640, Note_on_c, 0, 80, 0
1, 262640, Note_on_c, 0, 92, 0
1, 262640, Note_on_c, 0, 96, 81
1, 262643, Note_on_c, 0, 84, 68
1, 262757, Note_on_c, 0, 84, 0
1, 262757, Note_on_c, 0, 96, 0
1, 262757, Note_on_c, 0, 94, 83
1, 262760, Note_on_c, 0, 82, 70
1, 262760, Note_on_c, 0, 56, 0
1, 262760, Note_on_c, 0, 60, 0
1, 262763, Note_on_c, 0, 65, 0
1, 262763, Note_on_c, 0, 46, 78
1, 262763, Note_on_c, 0, 34, 66
1, 262763, Control_c, 0, 64, 0
1, 262805, Control_c, 0, 64, 127
1, 262875, Note_on_c, 0, 82, 0
1, 262875, Note_on_c, 0, 94, 0
1, 262875, Note_on_c, 0, 92, 80
1, 262878, Note_on_c, 0, 80, 68
1, 262992, Note_on_c, 0, 80, 0
1, 262992, Note_on_c, 0, 92, 0
1, 262992, Note_on_c, 0, 91, 81
1, 262995, Note_on_c, 0, 79, 68
1, 262995, Note_on_c, 0, 34, 0
1, 262995, Note_on_c, 0, 46, 0
1, 262998, Note_on_c, 0, 65, 71
1, 262998, Note_on_c, 0, 62, 60
1, 262998, Note_on_c, 0, 56, 60
1, 263109, Note_on_c, 0, 79, 0
1, 263109, Note_on_c, 0, 91, 0
1, 263109, Note_on_c, 0, 89, 81
1, 263112, Note_on_c, 0, 77, 68
1, 263227, Note_on_c, 0, 77, 0
1, 263227, Note_on_c, 0, 89, 0
1, 263227, Note_on_c, 0, 91, 92
1, 263230, Note_on_c, 0, 87, 92
1, 263230, Note_on_c, 0, 79, 78
1, 263230, Note_on_c, 0, 56, 0
1, 263233, Note_on_c, 0, 62, 0
1, 263233, Note_on_c, 0, 65, 0
1, 263233, Note_on_c, 0, 51, 78
1, 263236, Note_on_c, 0, 39, 66
1, 263236, Control_c, 0, 64, 0
1, 263268, Control_c, 0, 64, 127
1, 263457, Note_on_c, 0, 79, 0
1, 263457, Note_on_c, 0, 87, 0
1, 263457, Note_on_c, 0, 91, 0
1, 263460, Note_on_c, 0, 91, 83
1, 263460, Note_on_c, 0, 94, 83
1, 263460, Note_on_c, 0, 82, 70
1, 263463, Note_on_c, 0, 39, 0
1, 263463, Note_on_c, 0, 51, 0
1, 263463, Note_on_c, 0, 67, 71
1, 263466, Note_on_c, 0, 63, 60
1, 263466, Note_on_c, 0, 55, 60
1, 263642, Note_on_c, 0, 82, 0
1, 263642, Note_on_c, 0, 94, 0
1, 263642, Note_on_c, 0, 91, 0
1, 263645, Note_on_c, 0, 81, 67
1, 263645, Note_on_c, 0, 90, 79
1, 263645, Note_on_c, 0, 93, 79
1, 263704, Note_on_c, 0, 93, 0
1, 263704, Note_on_c, 0, 90, 0
1, 263704, Note_on_c, 0, 81, 0
1, 263707, Note_on_c, 0, 94, 89
1, 263707, Note_on_c, 0, 91, 89
1, 263707, Note_on_c, 0, 82, 74
1, 263710, Note_on_c, 0, 55, 0
1, 263710, Note_on_c, 0, 63, 0
1, 263710, Note_on_c, 0, 67, 0
1, 263713, Note_on_c, 0, 51, 78
1, 263713, Note_on_c, 0, 39, 66
1, 263936, Note_on_c, 0, 39, 0
1, 263936, Note_on_c, 0, 51, 0
1, 263936, Note_on_c, 0, 67, 71
1, 263939, Note_on_c, 0, 63, 60
1, 263939, Note_on_c, 0, 55, 60
1, 264184, Note_on_c, 0, 82, 0
1, 264184, Note_on_c, 0, 91, 0
1, 264184, Note_on_c, 0, 94, 0
1, 264187, Note_on_c, 0, 98, 93
1, 264187, Note_on_c, 0, 86, 79
1, 264187, Note_on_c, 0, 94, 79
1, 264190, Note_on_c, 0, 55, 0
1, 264190, Note_on_c, 0, 63, 0
1, 264190, Note_on_c, 0, 67, 0
1, 264193, Note_on_c, 0, 44, 78
1, 264193, Note_on_c, 0, 32, 66
1, 264193, Control_c, 0, 64, 0
1, 264301, Control_c, 0, 64, 127
1, 264449, Note_on_c, 0, 94, 0
1, 264449, Note_on_c, 0, 86, 0
1, 264449, Note_on_c, 0, 98, 0
1, 264452, Note_on_c, 0, 98, 85
1, 264452, Note_on_c, 0, 86, 72
1, 264452, Note_on_c, 0, 94, 72
1, 264455, Note_on_c, 0, 32, 0
1, 264455, Note_on_c, 0, 44, 0
1, 264455, Note_on_c, 0, 65, 70
1, 264458, Note_on_c, 0, 60, 59
1, 264458, Note_on_c, 0, 53, 59
1, 264702, Note_on_c, 0, 94, 0
1, 264702, Note_on_c, 0, 86, 0
1, 264702, Note_on_c, 0, 98, 0
1, 264705, Note_on_c, 0, 96, 93
1, 264705, Note_on_c, 0, 84, 79
1, 264705, Note_on_c, 0, 92, 79
1, 264708, Note_on_c, 0, 53, 0
1, 264708, Note_on_c, 0, 60, 0
1, 264708, Note_on_c, 0, 65, 0
1, 264711, Note_on_c, 0, 46, 78
1, 264711, Note_on_c, 0, 34, 66
1, 264711, Control_c, 0, 64, 0
1, 264808, Control_c, 0, 64, 127
1, 264958, Note_on_c, 0, 92, 0
1, 264958, Note_on_c, 0, 84, 0
1, 264958, Note_on_c, 0, 96, 0
1, 264961, Note_on_c, 0, 96, 88
1, 264961, Note_on_c, 0, 84, 74
1, 264961, Note_on_c, 0, 92, 74
1, 264964, Note_on_c, 0, 34, 0
1, 264964, Note_on_c, 0, 46, 0
1, 264964, Note_on_c, 0, 65, 71
1, 264967, Note_on_c, 0, 62, 60
1, 264967, Note_on_c, 0, 53, 60
1, 265217, Note_on_c, 0, 92, 0
1, 265217, Note_on_c, 0, 84, 0
1, 265217, Note_on_c, 0, 96, 0
1, 265220, Note_on_c, 0, 91, 92
1, 265220, Note_on_c, 0, 79, 78
1, 265220, Note_on_c, 0, 87, 78
1, 265223, Note_on_c, 0, 53, 0
1, 265223, Note_on_c, 0, 62, 0
1, 265223, Note_on_c, 0, 65, 0
1, 265226, Note_on_c, 0, 51, 78
1, 265226, Note_on_c, 0, 39, 66
1, 265226, Control_c, 0, 64, 0
1, 265259, Control_c, 0, 64, 127
1, 265452, Note_on_c, 0, 87, 0
1, 265452, Note_on_c, 0, 79, 0
1, 265452, Note_on_c, 0, 91, 0
1, 265455, Note_on_c, 0, 94, 83
1, 265455, Note_on_c, 0, 82, 70
1, 265455, Note_on_c, 0, 91, 70
1, 265458, Note_on_c, 0, 39, 0
1, 265458, Note_on_c, 0, 51, 0
1, 265458, Note_on_c, 0, 67, 71
1, 265461, Note_on_c, 0, 63, 60
1, 265461, Note_on_c, 0, 55, 60
1, 265696, Note_on_c, 0, 91, 0
1, 265696, Note_on_c, 0, 82, 0
1, 265696, Note_on_c, 0, 94, 0
1, 265699, Note_on_c, 0, 94, 89
1, 265699, Note_on_c, 0, 82, 74
1, 265699, Note_on_c, 0, 91, 74
1, 265702, Note_on_c, 0, 55, 0
1, 265702, Note_on_c, 0, 63, 0
1, 265702, Note_on_c, 0, 67, 0
1, 265705, Note_on_c, 0, 51, 78
1, 265705, Note_on_c, 0, 39, 66
1, 265814, Note_on_c, 0, 91, 0
1, 265814, Note_on_c, 0, 82, 0
1, 265814, Note_on_c, 0, 94, 0
1, 265817, Note_on_c, 0, 81, 67
1, 265817, Note_on_c, 0, 90, 67
1, 265817, Note_on_c, 0, 93, 79
1, 265931, Note_on_c, 0, 93, 0
1, 265931, Note_on_c, 0, 90, 0
1, 265931, Note_on_c, 0, 81, 0
1, 265934, Note_on_c, 0, 94, 88
1, 265934, Note_on_c, 0, 82, 74
1, 265934, Note_on_c, 0, 91, 74
1, 265937, Note_on_c, 0, 39, 0
1, 265937, Note_on_c, 0, 51, 0
1, 265937, Note_on_c, 0, 67, 71
1, 265940, Note_on_c, 0, 63, 60
1, 265940, Note_on_c, 0, 55, 60
1, 266191, Note_on_c, 0, 91, 0
1, 266191, Note_on_c, 0, 82, 0
1, 266191, Note_on_c, 0, 94, 0
1, 266194, Note_on_c, 0, 89, 72
1, 266194, Note_on_c, 0, 77, 61
1, 266194, Note_on_c, 0, 80, 61
1, 266197, Note_on_c, 0, 55, 0
1, 266197, Note_on_c, 0, 63, 0
1, 266197, Note_on_c, 0, 67, 0
1, 266200, Note_on_c, 0, 53, 78
1, 266200, Note_on_c, 0, 41, 66
1, 266235, Control_c, 0, 64, 0
1, 266273, Control_c, 0, 64, 127
1, 266313, Note_on_c, 0, 80, 0
1, 266313, Note_on_c, 0, 77, 0
1, 266313, Note_on_c, 0, 89, 0
1, 266316, Note_on_c, 0, 91, 74
1, 266316, Note_on_c, 0, 79, 62
1, 266316, Note_on_c, 0, 82, 62
1, 266436, Note_on_c, 0, 82, 0
1, 266436, Note_on_c, 0, 79, 0
1, 266436, Note_on_c, 0, 91, 0
1, 266439, Note_on_c, 0, 92, 77
1, 266439, Note_on_c, 0, 80, 64
1, 266439, Note_on_c, 0, 83, 64
1, 266442, Note_on_c, 0, 41, 0
1, 266442, Note_on_c, 0, 53, 0
1, 266442, Note_on_c, 0, 65, 71
1, 266445, Note_on_c, 0, 60, 60
1, 266445, Note_on_c, 0, 56, 60
1, 266558, Note_on_c, 0, 83, 0
1, 266558, Note_on_c, 0, 80, 0
1, 266558, Note_on_c, 0, 92, 0
1, 266561, Note_on_c, 0, 93, 79
1, 266561, Note_on_c, 0, 81, 67
1, 266561, Note_on_c, 0, 84, 67
1, 266680, Note_on_c, 0, 81, 0
1, 266680, Note_on_c, 0, 93, 0
1, 266680, Note_on_c, 0, 94, 81
1, 266683, Note_on_c, 0, 85, 68
1, 266683, Note_on_c, 0, 82, 68
1, 266683, Note_on_c, 0, 56, 0
1, 266686, Note_on_c, 0, 60, 0
1, 266686, Note_on_c, 0, 65, 0
1, 266686, Note_on_c, 0, 46, 78
1, 266689, Note_on_c, 0, 34, 66
1, 266689, Note_on_c, 0, 84, 0
1, 266689, Control_c, 0, 64, 0
1, 266728, Control_c, 0, 64, 127
1, 266798, Note_on_c, 0, 94, 0
1, 266798, Note_on_c, 0, 85, 0
1, 266798, Note_on_c, 0, 82, 0
1, 266801, Note_on_c, 0, 95, 83
1, 266801, Note_on_c, 0, 83, 70
1, 266801, Note_on_c, 0, 86, 70
1, 266915, Note_on_c, 0, 86, 0
1, 266915, Note_on_c, 0, 83, 0
1, 266915, Note_on_c, 0, 95, 0
1, 266918, Note_on_c, 0, 96, 85
1, 266918, Note_on_c, 0, 84, 72
1, 266918, Note_on_c, 0, 87, 72
1, 266921, Note_on_c, 0, 34, 0
1, 266921, Note_on_c, 0, 46, 0
1, 266921, Note_on_c, 0, 65, 71
1, 266924, Note_on_c, 0, 62, 60
1, 266924, Note_on_c, 0, 56, 60
1, 267032, Note_on_c, 0, 87, 0
1, 267032, Note_on_c, 0, 84, 0
1, 267032, Note_on_c, 0, 96, 0
1, 267035, Note_on_c, 0, 98, 86
1, 267035, Note_on_c, 0, 86, 73
1, 267035, Note_on_c, 0, 89, 73
1, 267150, Note_on_c, 0, 89, 0
1, 267150, Note_on_c, 0, 86, 0
1, 267150, Note_on_c, 0, 98, 0
1, 267153, Note_on_c, 0, 99, 89
1, 267153, Note_on_c, 0, 87, 74
1, 267153, Note_on_c, 0, 91, 74
1, 267156, Note_on_c, 0, 56, 0
1, 267156, Note_on_c, 0, 62, 0
1, 267156, Note_on_c, 0, 65, 0
1, 267159, Note_on_c, 0, 39, 66
1, 267159, Note_on_c, 0, 51, 78
1, 267159, Control_c, 0, 64, 0
1, 267211, Note_on_c, 0, 91, 0
1, 267211, Note_on_c, 0, 87, 0
1, 267211, Note_on_c, 0, 99, 0
1, 267258, Control_c, 0, 64, 127
1, 267272, Note_on_c, 0, 51, 0
1, 267272, Note_on_c, 0, 39, 0
1, 267394, Note_on_c, 0, 75, 68
1, 267394, Note_on_c, 0, 79, 68
1, 267394, Note_on_c, 0, 87, 81
1, 267397, Note_on_c, 0, 55, 60
1, 267397, Note_on_c, 0, 58, 60
1, 267397, Note_on_c, 0, 63, 60
1, 267400, Note_on_c, 0, 67, 71
1, 267884, Note_on_c, 0, 87, 0
1, 267884, Note_on_c, 0, 79, 0
1, 267884, Note_on_c, 0, 75, 0
1, 267887, Note_on_c, 0, 75, 61
1, 267887, Note_on_c, 0, 79, 61
1, 267887, Note_on_c, 0, 87, 72
1, 267890, Note_on_c, 0, 67, 0
1, 267890, Note_on_c, 0, 55, 0
1, 267890, Note_on_c, 0, 58, 0
1, 267893, Note_on_c, 0, 63, 0
1, 267893, Note_on_c, 0, 55, 54
1, 267893, Note_on_c, 0, 58, 54
1, 267896, Note_on_c, 0, 63, 54
1, 267896, Note_on_c, 0, 67, 63
1, 267945, Note_on_c, 0, 67, 0
1, 267945, Note_on_c, 0, 55, 0
1, 267945, Note_on_c, 0, 58, 0
1, 267948, Note_on_c, 0, 63, 0
1, 268007, Note_on_c, 0, 87, 0
1, 268007, Note_on_c, 0, 79, 0
1, 268007, Note_on_c, 0, 75, 0
1, 268010, Control_c, 0, 64, 0
1, 268129, Note_on_c, 0, 62, 51
1, 268129, Note_on_c, 0, 65, 63
1, 268129, Note_on_c, 0, 56, 36
1, 268132, Note_on_c, 0, 58, 43
1, 268132, Note_on_c, 0, 51, 36
1, 268188, Note_on_c, 0, 65, 0
1, 268246, Note_on_c, 0, 62, 0
1, 268246, Note_on_c, 0, 67, 59
1, 268246, Note_on_c, 0, 51, 0
1, 268249, Note_on_c, 0, 58, 0
1, 268249, Note_on_c, 0, 56, 0
1, 268305, Note_on_c, 0, 67, 0
1, 268364, Note_on_c, 0, 62, 52
1, 268364, Note_on_c, 0, 68, 59
1, 268364, Note_on_c, 0, 58, 39
1, 268367, Note_on_c, 0, 56, 33
1, 268367, Note_on_c, 0, 51, 33
1, 268422, Note_on_c, 0, 68, 0
1, 268481, Note_on_c, 0, 72, 59
1, 268539, Note_on_c, 0, 72, 0
1, 268598, Note_on_c, 0, 70, 64
1, 268653, Note_on_c, 0, 70, 0
1, 268709, Note_on_c, 0, 68, 55
1, 268764, Note_on_c, 0, 68, 0
1, 268819, Note_on_c, 0, 62, 0
1, 268819, Note_on_c, 0, 62, 50
1, 268819, Note_on_c, 0, 67, 56
1, 268822, Note_on_c, 0, 51, 0
1, 268822, Note_on_c, 0, 56, 0
1, 268822, Note_on_c, 0, 58, 0
1, 268825, Note_on_c, 0, 58, 39
1, 268825, Note_on_c, 0, 56, 33
1, 268825, Note_on_c, 0, 51, 33
1, 268877, Note_on_c, 0, 67, 0
1, 268935, Note_on_c, 0, 62, 0
1, 268935, Note_on_c, 0, 65, 57
1, 268935, Note_on_c, 0, 51, 0
1, 268938, Note_on_c, 0, 56, 0
1, 268938, Note_on_c, 0, 58, 0
1, 268993, Note_on_c, 0, 65, 0
1, 269051, Note_on_c, 0, 70, 63
1, 269051, Note_on_c, 0, 67, 53
1, 269051, Note_on_c, 0, 61, 51
1, 269054, Note_on_c, 0, 51, 51
1, 269106, Note_on_c, 0, 67, 0
1, 269106, Note_on_c, 0, 70, 0
1, 269106, Note_on_c, 0, 51, 0
1, 269109, Note_on_c, 0, 61, 0
1, 269244, Note_on_c, 0, 72, 57
1, 269272, Note_on_c, 0, 72, 0
1, 269272, Note_on_c, 0, 67, 53
1, 269272, Note_on_c, 0, 70, 63
1, 269275, Note_on_c, 0, 61, 39
1, 269275, Note_on_c, 0, 51, 33
1, 269328, Note_on_c, 0, 70, 0
1, 269328, Note_on_c, 0, 67, 0
1, 269441, Note_on_c, 0, 66, 47
1, 269441, Note_on_c, 0, 69, 56
1, 269497, Note_on_c, 0, 69, 0
1, 269497, Note_on_c, 0, 66, 0
1, 269497, Note_on_c, 0, 67, 52
1, 269500, Note_on_c, 0, 70, 62
1, 269714, Note_on_c, 0, 51, 0
1, 269714, Note_on_c, 0, 61, 0
1, 269714, Note_on_c, 0, 61, 43
1, 269717, Note_on_c, 0, 51, 40
1, 269835, Note_on_c, 0, 51, 0
1, 269835, Note_on_c, 0, 61, 0
1, 269956, Note_on_c, 0, 70, 0
1, 269956, Note_on_c, 0, 67, 0
1, 269956, Note_on_c, 0, 60, 51
1, 269959, Note_on_c, 0, 65, 63
1, 269959, Note_on_c, 0, 56, 43
1, 269959, Note_on_c, 0, 51, 36
1, 270013, Note_on_c, 0, 65, 0
1, 270071, Note_on_c, 0, 60, 0
1, 270071, Note_on_c, 0, 67, 59
1, 270071, Note_on_c, 0, 51, 0
1, 270074, Note_on_c, 0, 56, 0
1, 270128, Note_on_c, 0, 67, 0
1, 270186, Note_on_c, 0, 60, 52
1, 270186, Note_on_c, 0, 68, 59
1, 270186, Note_on_c, 0, 56, 39
1, 270189, Note_on_c, 0, 51, 33
1, 270241, Note_on_c, 0, 68, 0
1, 270296, Note_on_c, 0, 72, 59
1, 270351, Note_on_c, 0, 72, 0
1, 270406, Note_on_c, 0, 70, 64
1, 270462, Note_on_c, 0, 70, 0
1, 270517, Note_on_c, 0, 68, 55
1, 270572, Note_on_c, 0, 68, 0
1, 270627, Note_on_c, 0, 60, 0
1, 270627, Note_on_c, 0, 62, 50
1, 270627, Note_on_c, 0, 67, 56
1, 270630, Note_on_c, 0, 51, 0
1, 270630, Note_on_c, 0, 56, 0
1, 270630, Note_on_c, 0, 59, 43
1, 270633, Note_on_c, 0, 51, 33
1, 270685, Note_on_c, 0, 67, 0
1, 270743, Note_on_c, 0, 62, 0
1, 270743, Note_on_c, 0, 65, 57
1, 270743, Note_on_c, 0, 51, 0
1, 270746, Note_on_c, 0, 59, 0
1, 270801, Note_on_c, 0, 65, 0
1, 270859, Note_on_c, 0, 67, 63
1, 270859, Note_on_c, 0, 63, 53
1, 270859, Note_on_c, 0, 58, 51
1, 270862, Note_on_c, 0, 51, 51
1, 270923, Note_on_c, 0, 63, 0
1, 270923, Note_on_c, 0, 67, 0
1, 270923, Note_on_c, 0, 51, 0
1, 270926, Note_on_c, 0, 58, 0
1, 271112, Note_on_c, 0, 58, 46
1, 271112, Note_on_c, 0, 63, 52
1, 271112, Note_on_c, 0, 55, 39
1, 271115, Note_on_c, 0, 51, 33
1, 271139, Control_c, 0, 64, 127
1, 271497, Note_on_c, 0, 51, 0
1, 271497, Note_on_c, 0, 55, 0
1, 271521, Note_on_c, 0, 62, 46
1, 271521, Note_on_c, 0, 54, 37
1, 271544, Note_on_c, 0, 62, 0
1, 271544, Note_on_c, 0, 63, 0
1, 271544, Note_on_c, 0, 58, 0
1, 271547, Note_on_c, 0, 58, 53
1, 271547, Note_on_c, 0, 63, 63
1, 271547, Note_on_c, 0, 54, 0
1, 271550, Note_on_c, 0, 55, 43
1, 271550, Note_on_c, 0, 51, 40
1, 271560, Control_c, 0, 64, 0
1, 271657, Note_on_c, 0, 63, 0
1, 271657, Note_on_c, 0, 58, 0
1, 271657, Note_on_c, 0, 51, 0
1, 271660, Note_on_c, 0, 55, 0
1, 271769, Note_on_c, 0, 65, 53
1, 271769, Note_on_c, 0, 77, 63
1, 271769, Note_on_c, 0, 39, 43
1, 271825, Note_on_c, 0, 77, 0
1, 271825, Note_on_c, 0, 65, 0
1, 271880, Note_on_c, 0, 67, 50
1, 271880, Note_on_c, 0, 79, 59
1, 271880, Note_on_c, 0, 39, 0
1, 271935, Note_on_c, 0, 79, 0
1, 271935, Note_on_c, 0, 67, 0
1, 271990, Note_on_c, 0, 68, 50
1, 271990, Note_on_c, 0, 80, 59
1, 271990, Note_on_c, 0, 56, 39
1, 271993, Note_on_c, 0, 50, 33
1, 271993, Note_on_c, 0, 46, 33
1, 272006, Control_c, 0, 64, 127
1, 272045, Note_on_c, 0, 80, 0
1, 272045, Note_on_c, 0, 68, 0
1, 272101, Note_on_c, 0, 72, 50
1, 272101, Note_on_c, 0, 84, 59
1, 272156, Note_on_c, 0, 84, 0
1, 272156, Note_on_c, 0, 72, 0
1, 272211, Note_on_c, 0, 70, 54
1, 272211, Note_on_c, 0, 82, 64
1, 272266, Note_on_c, 0, 82, 0
1, 272266, Note_on_c, 0, 70, 0
1, 272321, Note_on_c, 0, 68, 46
1, 272321, Note_on_c, 0, 80, 55
1, 272377, Note_on_c, 0, 80, 0
1, 272377, Note_on_c, 0, 68, 0
1, 272432, Note_on_c, 0, 67, 47
1, 272432, Note_on_c, 0, 79, 56
1, 272432, Note_on_c, 0, 46, 0
1, 272435, Note_on_c, 0, 50, 0
1, 272435, Note_on_c, 0, 56, 0
1, 272435, Note_on_c, 0, 56, 39
1, 272438, Note_on_c, 0, 50, 33
1, 272438, Note_on_c, 0, 46, 33
1, 272487, Note_on_c, 0, 79, 0
1, 272487, Note_on_c, 0, 67, 0
1, 272542, Note_on_c, 0, 65, 48
1, 272542, Note_on_c, 0, 77, 57
1, 272542, Note_on_c, 0, 46, 0
1, 272545, Note_on_c, 0, 50, 0
1, 272545, Note_on_c, 0, 56, 0
1, 272597, Note_on_c, 0, 77, 0
1, 272597, Note_on_c, 0, 65, 0
1, 272653, Note_on_c, 0, 82, 63
1, 272653, Note_on_c, 0, 70, 53
1, 272653, Note_on_c, 0, 39, 51
1, 272656, Control_c, 0, 64, 0
1, 272706, Note_on_c, 0, 70, 0
1, 272706, Note_on_c, 0, 82, 0
1, 272706, Note_on_c, 0, 39, 0
1, 272838, Note_on_c, 0, 84, 57
1, 272865, Note_on_c, 0, 84, 0
1, 272865, Note_on_c, 0, 70, 53
1, 272865, Note_on_c, 0, 82, 63
1, 272868, Note_on_c, 0, 55, 33
1, 272868, Note_on_c, 0, 58, 39
1, 272868, Note_on_c, 0, 49, 33
1, 272871, Control_c, 0, 64, 127
1, 272921, Note_on_c, 0, 82, 0
1, 272921, Note_on_c, 0, 70, 0
1, 273034, Note_on_c, 0, 69, 47
1, 273034, Note_on_c, 0, 81, 56
1, 273090, Note_on_c, 0, 81, 0
1, 273090, Note_on_c, 0, 69, 0
1, 273090, Note_on_c, 0, 70, 52
1, 273093, Note_on_c, 0, 82, 62
1, 273307, Note_on_c, 0, 49, 0
1, 273307, Note_on_c, 0, 58, 0
1, 273307, Note_on_c, 0, 55, 0
1, 273310, Note_on_c, 0, 55, 40
1, 273310, Note_on_c, 0, 58, 43
1, 273310, Note_on_c, 0, 49, 40
1, 273428, Note_on_c, 0, 49, 0
1, 273428, Note_on_c, 0, 58, 0
1, 273428, Note_on_c, 0, 55, 0
1, 273549, Note_on_c, 0, 82, 0
1, 273549, Note_on_c, 0, 70, 0
1, 273549, Note_on_c, 0, 65, 53
1, 273552, Note_on_c, 0, 77, 63
1, 273552, Note_on_c, 0, 39, 43
1, 273571, Control_c, 0, 64, 0
1, 273606, Note_on_c, 0, 77, 0
1, 273606, Note_on_c, 0, 65, 0
1, 273664, Note_on_c, 0, 67, 50
1, 273664, Note_on_c, 0, 79, 59
1, 273664, Note_on_c, 0, 39, 0
1, 273721, Note_on_c, 0, 79, 0
1, 273721, Note_on_c, 0, 67, 0
1, 273779, Note_on_c, 0, 68, 50
1, 273779, Note_on_c, 0, 80, 59
1, 273779, Note_on_c, 0, 48, 33
1, 273782, Note_on_c, 0, 56, 39
1, 273782, Note_on_c, 0, 51, 33
1, 273794, Control_c, 0, 64, 127
1, 273834, Note_on_c, 0, 80, 0
1, 273834, Note_on_c, 0, 68, 0
1, 273889, Note_on_c, 0, 72, 50
1, 273889, Note_on_c, 0, 84, 59
1, 273944, Note_on_c, 0, 84, 0
1, 273944, Note_on_c, 0, 72, 0
1, 274000, Note_on_c, 0, 70, 54
1, 274000, Note_on_c, 0, 82, 64
1, 274055, Note_on_c, 0, 82, 0
1, 274055, Note_on_c, 0, 70, 0
1, 274110, Note_on_c, 0, 68, 46
1, 274110, Note_on_c, 0, 80, 55
1, 274165, Note_on_c, 0, 80, 0
1, 274165, Note_on_c, 0, 68, 0
1, 274207, Control_c, 0, 64, 0
1, 274220, Note_on_c, 0, 67, 47
1, 274220, Note_on_c, 0, 79, 56
1, 274220, Note_on_c, 0, 51, 0
1, 274223, Note_on_c, 0, 56, 0
1, 274223, Note_on_c, 0, 48, 0
1, 274223, Note_on_c, 0, 47, 33
1, 274226, Note_on_c, 0, 56, 43
1, 274226, Note_on_c, 0, 51, 33
1, 274278, Note_on_c, 0, 79, 0
1, 274278, Note_on_c, 0, 67, 0
1, 274336, Note_on_c, 0, 65, 48
1, 274336, Note_on_c, 0, 77, 57
1, 274336, Note_on_c, 0, 51, 0
1, 274339, Note_on_c, 0, 56, 0
1, 274339, Note_on_c, 0, 47, 0
1, 274394, Note_on_c, 0, 77, 0
1, 274394, Note_on_c, 0, 65, 0
1, 274453, Note_on_c, 0, 79, 63
1, 274453, Note_on_c, 0, 67, 53
1, 274453, Note_on_c, 0, 39, 51
1, 274516, Note_on_c, 0, 67, 0
1, 274516, Note_on_c, 0, 79, 0
1, 274516, Note_on_c, 0, 39, 0
1, 274706, Note_on_c, 0, 63, 46
1, 274706, Note_on_c, 0, 75, 52
1, 274706, Note_on_c, 0, 55, 39
1, 274709, Note_on_c, 0, 46, 33
1, 274732, Control_c, 0, 64, 127
1, 275114, Note_on_c, 0, 74, 46
1, 275137, Note_on_c, 0, 74, 0
1, 275137, Note_on_c, 0, 75, 0
1, 275137, Note_on_c, 0, 63, 0
1, 275140, Note_on_c, 0, 63, 53
1, 275140, Note_on_c, 0, 75, 63
1, 275140, Note_on_c, 0, 46, 0
1, 275143, Note_on_c, 0, 55, 0
1, 275143, Note_on_c, 0, 55, 43
1, 275143, Note_on_c, 0, 46, 40
1, 275155, Control_c, 0, 64, 0
1, 275259, Note_on_c, 0, 75, 0
1, 275259, Note_on_c, 0, 63, 0
1, 275259, Note_on_c, 0, 46, 0
1, 275262, Note_on_c, 0, 55, 0
1, 275343, Note_on_c, 0, 66, 36
1, 275367, Note_on_c, 0, 66, 0
1, 275367, Note_on_c, 0, 67, 50
1, 275367, Note_on_c, 0, 59, 42
1, 275370, Note_on_c, 0, 43, 32
1, 275370, Note_on_c, 0, 50, 40
1, 275430, Note_on_c, 0, 59, 0
1, 275430, Note_on_c, 0, 67, 0
1, 275430, Note_on_c, 0, 50, 0
1, 275433, Note_on_c, 0, 43, 0
1, 275620, Note_on_c, 0, 60, 36
1, 275620, Note_on_c, 0, 63, 41
1, 275620, Note_on_c, 0, 55, 31
1, 275623, Note_on_c, 0, 48, 26
1, 275623, Control_c, 0, 64, 127
1, 276028, Note_on_c, 0, 62, 36
1, 276052, Note_on_c, 0, 62, 0
1, 276052, Note_on_c, 0, 63, 0
1, 276052, Note_on_c, 0, 60, 0
1, 276055, Note_on_c, 0, 59, 42
1, 276055, Note_on_c, 0, 63, 50
1, 276055, Note_on_c, 0, 48, 0
1, 276058, Note_on_c, 0, 55, 0
1, 276058, Note_on_c, 0, 51, 34
1, 276058, Note_on_c, 0, 44, 32
1, 276068, Control_c, 0, 64, 0
1, 276164, Note_on_c, 0, 63, 0
1, 276164, Note_on_c, 0, 59, 0
1, 276164, Note_on_c, 0, 44, 0
1, 276167, Note_on_c, 0, 51, 0
1, 276277, Note_on_c, 0, 91, 50
1, 276277, Note_on_c, 0, 79, 42
1, 276277, Note_on_c, 0, 39, 40
1, 276325, Control_c, 0, 64, 127
1, 276340, Note_on_c, 0, 79, 0
1, 276340, Note_on_c, 0, 91, 0
1, 276340, Note_on_c, 0, 39, 0
1, 276530, Note_on_c, 0, 75, 36
1, 276530, Note_on_c, 0, 87, 41
1, 276530, Note_on_c, 0, 55, 31
1, 276533, Note_on_c, 0, 46, 26
1, 276938, Note_on_c, 0, 86, 36
1, 276962, Note_on_c, 0, 86, 0
1, 276962, Note_on_c, 0, 87, 0
1, 276962, Note_on_c, 0, 75, 0
1, 276965, Note_on_c, 0, 75, 42
1, 276965, Note_on_c, 0, 87, 50
1, 276965, Note_on_c, 0, 46, 0
1, 276968, Note_on_c, 0, 55, 0
1, 276968, Note_on_c, 0, 55, 34
1, 276968, Note_on_c, 0, 46, 32
1, 276979, Control_c, 0, 64, 0
1, 277083, Note_on_c, 0, 87, 0
1, 277083, Note_on_c, 0, 75, 0
1, 277083, Note_on_c, 0, 46, 0
1, 277086, Note_on_c, 0, 55, 0
1, 277167, Note_on_c, 0, 66, 36
1, 277191, Note_on_c, 0, 66, 0
1, 277191, Note_on_c, 0, 67, 50
1, 277191, Note_on_c, 0, 59, 42
1, 277194, Note_on_c, 0, 43, 32
1, 277194, Note_on_c, 0, 50, 40
1, 277254, Note_on_c, 0, 59, 0
1, 277254, Note_on_c, 0, 67, 0
1, 277254, Note_on_c, 0, 50, 0
1, 277257, Note_on_c, 0, 43, 0
1, 277444, Note_on_c, 0, 60, 36
1, 277444, Note_on_c, 0, 63, 41
1, 277444, Note_on_c, 0, 55, 31
1, 277447, Note_on_c, 0, 48, 26
1, 277447, Control_c, 0, 64, 127
1, 277852, Note_on_c, 0, 62, 36
1, 277876, Note_on_c, 0, 62, 0
1, 277876, Note_on_c, 0, 63, 0
1, 277876, Note_on_c, 0, 60, 0
1, 277879, Note_on_c, 0, 59, 42
1, 277879, Note_on_c, 0, 63, 50
1, 277879, Note_on_c, 0, 48, 0
1, 277882, Note_on_c, 0, 55, 0
1, 277882, Note_on_c, 0, 51, 34
1, 277882, Note_on_c, 0, 44, 32
1, 277893, Control_c, 0, 64, 0
1, 277993, Note_on_c, 0, 63, 0
1, 277993, Note_on_c, 0, 59, 0
1, 277993, Note_on_c, 0, 44, 0
1, 277996, Note_on_c, 0, 51, 0
1, 278111, Note_on_c, 0, 55, 42
1, 278111, Note_on_c, 0, 67, 50
1, 278111, Note_on_c, 0, 58, 42
1, 278114, Note_on_c, 0, 39, 32
1, 278114, Note_on_c, 0, 51, 40
1, 278179, Note_on_c, 0, 58, 0
1, 278179, Note_on_c, 0, 67, 0
1, 278179, Note_on_c, 0, 55, 0
1, 278182, Note_on_c, 0, 51, 0
1, 278182, Note_on_c, 0, 39, 0
1, 278382, Note_on_c, 0, 55, 36
1, 278382, Note_on_c, 0, 60, 36
1, 278382, Note_on_c, 0, 63, 41
1, 278385, Note_on_c, 0, 48, 31
1, 278385, Note_on_c, 0, 36, 26
1, 278385, Control_c, 0, 64, 127
1, 278817, Note_on_c, 0, 62, 36
1, 278841, Note_on_c, 0, 62, 0
1, 278841, Note_on_c, 0, 55, 0
1, 278841, Note_on_c, 0, 60, 0
1, 278844, Note_on_c, 0, 63, 0
1, 278844, Note_on_c, 0, 56, 42
1, 278844, Note_on_c, 0, 59, 42
1, 278847, Note_on_c, 0, 63, 50
1, 278847, Note_on_c, 0, 36, 0
1, 278847, Note_on_c, 0, 48, 0
1, 278850, Note_on_c, 0, 44, 34
1, 278850, Note_on_c, 0, 32, 32
1, 278857, Control_c, 0, 64, 0
1, 278959, Note_on_c, 0, 63, 0
1, 278959, Note_on_c, 0, 59, 0
1, 278959, Note_on_c, 0, 56, 0
1, 278962, Note_on_c, 0, 32, 0
1, 278962, Note_on_c, 0, 44, 0
1, 279078, Note_on_c, 0, 55, 42
1, 279078, Note_on_c, 0, 67, 50
1, 279078, Note_on_c, 0, 58, 42
1, 279081, Note_on_c, 0, 39, 32
1, 279081, Note_on_c, 0, 51, 40
1, 279146, Note_on_c, 0, 58, 0
1, 279146, Note_on_c, 0, 67, 0
1, 279146, Note_on_c, 0, 55, 0
1, 279149, Note_on_c, 0, 51, 0
1, 279149, Note_on_c, 0, 39, 0
1, 279349, Note_on_c, 0, 55, 36
1, 279349, Note_on_c, 0, 60, 36
1, 279349, Note_on_c, 0, 63, 41
1, 279352, Note_on_c, 0, 48, 31
1, 279352, Note_on_c, 0, 36, 26
1, 279352, Control_c, 0, 64, 127
1, 279781, Note_on_c, 0, 62, 36
1, 279805, Note_on_c, 0, 62, 0
1, 279805, Note_on_c, 0, 55, 0
1, 279805, Note_on_c, 0, 60, 0
1, 279808, Note_on_c, 0, 63, 0
1, 279808, Note_on_c, 0, 56, 42
1, 279808, Note_on_c, 0, 59, 42
1, 279811, Note_on_c, 0, 63, 50
1, 279811, Note_on_c, 0, 36, 0
1, 279811, Note_on_c, 0, 48, 0
1, 279814, Note_on_c, 0, 44, 34
1, 279814, Note_on_c, 0, 32, 32
1, 279824, Control_c, 0, 64, 0
1, 279937, Note_on_c, 0, 63, 0
1, 279937, Note_on_c, 0, 59, 0
1, 279937, Note_on_c, 0, 56, 0
1, 279940, Note_on_c, 0, 32, 0
1, 279940, Note_on_c, 0, 44, 0
1, 280070, Note_on_c, 0, 55, 39
1, 280070, Note_on_c, 0, 67, 46
1, 280070, Note_on_c, 0, 58, 39
1, 280073, Note_on_c, 0, 39, 33
1, 280073, Note_on_c, 0, 51, 39
1, 280073, Control_c, 0, 64, 127
1, 280576, Note_on_c, 0, 58, 0
1, 280576, Note_on_c, 0, 67, 0
1, 280576, Note_on_c, 0, 55, 0
1, 280579, Note_on_c, 0, 55, 33
1, 280579, Note_on_c, 0, 60, 33
1, 280579, Note_on_c, 0, 63, 39
1, 280582, Note_on_c, 0, 51, 0
1, 280582, Note_on_c, 0, 39, 0
1, 280582, Note_on_c, 0, 36, 22
1, 280585, Note_on_c, 0, 48, 31
1, 280592, Control_c, 0, 64, 0
1, 280745, Control_c, 0, 64, 127
1, 281082, Note_on_c, 0, 63, 0
1, 281082, Note_on_c, 0, 60, 0
1, 281082, Note_on_c, 0, 55, 0
1, 281085, Note_on_c, 0, 48, 0
1, 281085, Note_on_c, 0, 36, 0
1, 281085, Control_c, 0, 64, 0
1, 281551, Note_on_c, 0, 62, 36
1, 281576, Note_on_c, 0, 62, 0
1, 281576, Note_on_c, 0, 56, 33
1, 281576, Note_on_c, 0, 59, 33
1, 281579, Note_on_c, 0, 63, 39
1, 281579, Note_on_c, 0, 32, 22
1, 281579, Note_on_c, 0, 44, 31
1, 282019, Note_on_c, 0, 63, 0
1, 282019, Note_on_c, 0, 59, 0
1, 282019, Note_on_c, 0, 56, 0
1, 282022, Note_on_c, 0, 55, 37
1, 282050, Note_on_c, 0, 63, 39
1, 282082, Note_on_c, 0, 70, 40
1, 282082, Note_on_c, 0, 44, 0
1, 282082, Note_on_c, 0, 32, 0
1, 282085, Note_on_c, 0, 27, 22
1, 282085, Note_on_c, 0, 39, 31
1, 282142, Control_c, 0, 64, 127
1, 282335, Note_on_c, 0, 39, 0
1, 282335, Note_on_c, 0, 43, 31
1, 282452, Note_on_c, 0, 43, 0
1, 282452, Note_on_c, 0, 44, 30
1, 282561, Note_on_c, 0, 44, 0
1, 282561, Note_on_c, 0, 27, 0
1, 282561, Note_on_c, 0, 45, 30
1, 282669, Note_on_c, 0, 45, 0
1, 282669, Note_on_c, 0, 46, 30
1, 282777, Note_on_c, 0, 46, 0
1, 282777, Note_on_c, 0, 51, 30
1, 282885, Note_on_c, 0, 51, 0
1, 282885, Note_on_c, 0, 55, 30
1, 282994, Note_on_c, 0, 70, 0
1, 282994, Note_on_c, 0, 63, 0
1, 282994, Note_on_c, 0, 55, 0
1, 282997, Note_on_c, 0, 55, 0
1, 282997, Note_on_c, 0, 56, 30
1, 282997, Control_c, 0, 64, 0
1, 283101, Note_on_c, 0, 56, 0
1, 283101, Note_on_c, 0, 57, 30
1, 283208, Note_on_c, 0, 57, 0
1, 283208, Note_on_c, 0, 58, 30
1, 283314, Note_on_c, 0, 63, 28
1, 283314, Note_on_c, 0, 58, 0
1, 283419, Note_on_c, 0, 63, 0
1, 283419, Note_on_c, 0, 67, 28
1, 283523, Note_on_c, 0, 67, 0
1, 283523, Note_on_c, 0, 68, 27
1, 283627, Note_on_c, 0, 68, 0
1, 283627, Note_on_c, 0, 69, 26
1, 283730, Note_on_c, 0, 69, 0
1, 283730, Note_on_c, 0, 70, 25
1, 283832, Note_on_c, 0, 70, 0
1, 283832, Note_on_c, 0, 75, 27
1, 283832, Control_c, 0, 64, 127
1, 283933, Note_on_c, 0, 75, 0
1, 283933, Note_on_c, 0, 79, 27
1, 284035, Note_on_c, 0, 79, 0
1, 284035, Note_on_c, 0, 80, 27
1, 284136, Note_on_c, 0, 80, 0
1, 284136, Note_on_c, 0, 81, 27
1, 284238, Note_on_c, 0, 81, 0
1, 284238, Note_on_c, 0, 82, 27
1, 284341, Note_on_c, 0, 82, 0
1, 284341, Note_on_c, 0, 87, 27
1, 284444, Note_on_c, 0, 87, 0
1, 284444, Note_on_c, 0, 91, 27
1, 284549, Note_on_c, 0, 91, 0
1, 284549, Note_on_c, 0, 92, 27
1, 284656, Note_on_c, 0, 92, 0
1, 284656, Note_on_c, 0, 93, 27
1, 284763, Note_on_c, 0, 93, 0
1, 284763, Note_on_c, 0, 94, 27
1, 284872, Note_on_c, 0, 94, 0
1, 284872, Note_on_c, 0, 99, 33
1, 284956, Control_c, 0, 64, 0
1, 284983, Note_on_c, 0, 99, 0
1, 286446, Note_on_c, 0, 70, 81
1, 286446, Note_on_c, 0, 82, 96
1, 286446, Note_on_c, 0, 46, 61
1, 286449, Note_on_c, 0, 58, 72
1, 286449, Control_c, 0, 64, 127
1, 286646, Note_on_c, 0, 82, 0
1, 286646, Note_on_c, 0, 70, 0
1, 286646, Note_on_c, 0, 58, 0
1, 286649, Note_on_c, 0, 46, 0
1, 286713, Note_on_c, 0, 70, 77
1, 286713, Note_on_c, 0, 82, 91
1, 286713, Note_on_c, 0, 46, 57
1, 286716, Note_on_c, 0, 58, 68
1, 286736, Control_c, 0, 64, 0
1, 286762, Note_on_c, 0, 82, 0
1, 286762, Note_on_c, 0, 70, 0
1, 286762, Note_on_c, 0, 58, 0
1, 286765, Note_on_c, 0, 46, 0
1, 286842, Note_on_c, 0, 70, 77
1, 286842, Note_on_c, 0, 82, 91
1, 286842, Note_on_c, 0, 46, 57
1, 286845, Note_on_c, 0, 58, 68
1, 286891, Note_on_c, 0, 82, 0
1, 286891, Note_on_c, 0, 70, 0
1, 286891, Note_on_c, 0, 58, 0
1, 286894, Note_on_c, 0, 46, 0
1, 286971, Note_on_c, 0, 75, 85
1, 286971, Note_on_c, 0, 87, 101
1, 286971, Note_on_c, 0, 51, 63
1, 286974, Note_on_c, 0, 63, 75
1, 286979, Control_c, 0, 64, 127
1, 287382, Note_on_c, 0, 87, 0
1, 287382, Note_on_c, 0, 75, 0
1, 287382, Note_on_c, 0, 75, 74
1, 287385, Note_on_c, 0, 87, 89
1, 287385, Note_on_c, 0, 63, 0
1, 287385, Note_on_c, 0, 51, 0
1, 287388, Note_on_c, 0, 51, 55
1, 287388, Note_on_c, 0, 63, 66
1, 287388, Control_c, 0, 64, 0
1, 287434, Note_on_c, 0, 87, 0
1, 287434, Note_on_c, 0, 75, 0
1, 287434, Note_on_c, 0, 63, 0
1, 287437, Note_on_c, 0, 51, 0
1, 287519, Note_on_c, 0, 73, 79
1, 287519, Note_on_c, 0, 85, 93
1, 287519, Note_on_c, 0, 49, 58
1, 287522, Note_on_c, 0, 61, 69
1, 287522, Control_c, 0, 64, 127
1, 287566, Note_on_c, 0, 85, 0
1, 287566, Note_on_c, 0, 73, 0
1, 287566, Note_on_c, 0, 61, 0
1, 287569, Note_on_c, 0, 49, 0
1, 287645, Note_on_c, 0, 71, 79
1, 287645, Note_on_c, 0, 83, 93
1, 287645, Note_on_c, 0, 47, 58
1, 287648, Note_on_c, 0, 59, 69
1, 287692, Note_on_c, 0, 83, 0
1, 287692, Note_on_c, 0, 71, 0
1, 287692, Note_on_c, 0, 59, 0
1, 287695, Note_on_c, 0, 47, 0
1, 287770, Note_on_c, 0, 70, 78
1, 287770, Note_on_c, 0, 82, 92
1, 287770, Note_on_c, 0, 46, 57
1, 287773, Note_on_c, 0, 58, 68
1, 287773, Control_c, 0, 64, 0
1, 287819, Note_on_c, 0, 82, 0
1, 287819, Note_on_c, 0, 70, 0
1, 287819, Note_on_c, 0, 58, 0
1, 287822, Note_on_c, 0, 46, 0
1, 287901, Note_on_c, 0, 68, 81
1, 287901, Note_on_c, 0, 80, 96
1, 287901, Note_on_c, 0, 44, 61
1, 287904, Note_on_c, 0, 56, 72
1, 287950, Note_on_c, 0, 80, 0
1, 287950, Note_on_c, 0, 68, 0
1, 287950, Note_on_c, 0, 56, 0
1, 287953, Note_on_c, 0, 44, 0
1, 288032, Note_on_c, 0, 70, 80
1, 288032, Note_on_c, 0, 82, 94
1, 288032, Note_on_c, 0, 46, 60
1, 288035, Note_on_c, 0, 58, 70
1, 288083, Note_on_c, 0, 82, 0
1, 288083, Note_on_c, 0, 70, 0
1, 288083, Note_on_c, 0, 58, 0
1, 288086, Note_on_c, 0, 46, 0
1, 288169, Note_on_c, 0, 63, 75
1, 288169, Note_on_c, 0, 75, 90
1, 288169, Note_on_c, 0, 39, 56
1, 288172, Note_on_c, 0, 51, 67
1, 288220, Note_on_c, 0, 75, 0
1, 288220, Note_on_c, 0, 63, 0
1, 288220, Note_on_c, 0, 51, 0
1, 288223, Note_on_c, 0, 39, 0
1, 288306, Note_on_c, 0, 63, 75
1, 288306, Note_on_c, 0, 75, 90
1, 288306, Note_on_c, 0, 39, 56
1, 288309, Note_on_c, 0, 51, 67
1, 288613, Note_on_c, 0, 75, 0
1, 288613, Note_on_c, 0, 63, 0
1, 288613, Note_on_c, 0, 67, 57
1, 288616, Note_on_c, 0, 70, 68
1, 288616, Note_on_c, 0, 51, 0
1, 288616, Note_on_c, 0, 39, 0
1, 288619, Note_on_c, 0, 63, 51
1, 288619, Control_c, 0, 64, 127
1, 288817, Note_on_c, 0, 70, 0
1, 288817, Note_on_c, 0, 67, 0
1, 288817, Note_on_c, 0, 63, 0
1, 288886, Note_on_c, 0, 67, 54
1, 288886, Note_on_c, 0, 70, 64
1, 288886, Note_on_c, 0, 61, 40
1, 288886, Note_on_c, 0, 63, 48
1, 288893, Control_c, 0, 64, 0
1, 288934, Note_on_c, 0, 70, 0
1, 288934, Note_on_c, 0, 67, 0
1, 288934, Note_on_c, 0, 61, 0
1, 288934, Note_on_c, 0, 63, 0
1, 289015, Note_on_c, 0, 70, 64
1, 289015, Note_on_c, 0, 67, 54
1, 289015, Note_on_c, 0, 61, 40
1, 289018, Note_on_c, 0, 63, 48
1, 289063, Note_on_c, 0, 67, 0
1, 289063, Note_on_c, 0, 70, 0
1, 289063, Note_on_c, 0, 63, 0
1, 289066, Note_on_c, 0, 61, 0
1, 289144, Note_on_c, 0, 66, 60
1, 289144, Note_on_c, 0, 75, 71
1, 289144, Note_on_c, 0, 59, 45
1, 289147, Note_on_c, 0, 63, 53
1, 289171, Control_c, 0, 64, 127
1, 289550, Note_on_c, 0, 75, 0
1, 289550, Note_on_c, 0, 66, 0
1, 289550, Note_on_c, 0, 75, 62
1, 289553, Note_on_c, 0, 66, 52
1, 289553, Note_on_c, 0, 63, 0
1, 289553, Note_on_c, 0, 59, 0
1, 289556, Note_on_c, 0, 59, 39
1, 289556, Note_on_c, 0, 63, 46
1, 289581, Control_c, 0, 64, 0
1, 289600, Note_on_c, 0, 66, 0
1, 289600, Note_on_c, 0, 75, 0
1, 289600, Note_on_c, 0, 63, 0
1, 289603, Note_on_c, 0, 59, 0
1, 289685, Note_on_c, 0, 67, 56
1, 289685, Note_on_c, 0, 73, 66
1, 289685, Note_on_c, 0, 63, 55
1, 289688, Note_on_c, 0, 58, 49
1, 289688, Control_c, 0, 64, 127
1, 289732, Note_on_c, 0, 73, 0
1, 289732, Note_on_c, 0, 58, 0
1, 289811, Note_on_c, 0, 67, 0
1, 289811, Note_on_c, 0, 70, 66
1, 289811, Note_on_c, 0, 63, 0
1, 289814, Note_on_c, 0, 61, 49
1, 289828, Control_c, 0, 64, 0
1, 289858, Note_on_c, 0, 70, 0
1, 289858, Note_on_c, 0, 61, 0
1, 289936, Note_on_c, 0, 63, 55
1, 289936, Note_on_c, 0, 71, 65
1, 289936, Note_on_c, 0, 56, 48
1, 289985, Note_on_c, 0, 71, 0
1, 289985, Note_on_c, 0, 56, 0
1, 290067, Note_on_c, 0, 63, 0
1, 290067, Note_on_c, 0, 68, 68
1, 290067, Note_on_c, 0, 59, 51
1, 290116, Note_on_c, 0, 68, 0
1, 290116, Note_on_c, 0, 59, 0
1, 290199, Note_on_c, 0, 63, 56
1, 290199, Note_on_c, 0, 70, 67
1, 290199, Note_on_c, 0, 55, 50
1, 290250, Note_on_c, 0, 70, 0
1, 290250, Note_on_c, 0, 55, 0
1, 290335, Note_on_c, 0, 63, 0
1, 290335, Note_on_c, 0, 63, 63
1, 290335, Note_on_c, 0, 58, 47
1, 290388, Note_on_c, 0, 63, 0
1, 290388, Note_on_c, 0, 58, 0
1, 290474, Note_on_c, 0, 63, 57
1, 290780, Note_on_c, 0, 67, 57
1, 290780, Note_on_c, 0, 70, 68
1, 290780, Note_on_c, 0, 63, 0
1, 290783, Note_on_c, 0, 63, 51
1, 290783, Control_c, 0, 64, 127
1, 290983, Note_on_c, 0, 70, 0
1, 290983, Note_on_c, 0, 67, 0
1, 290983, Note_on_c, 0, 63, 0
1, 291047, Control_c, 0, 64, 0
1, 291051, Note_on_c, 0, 67, 54
1, 291051, Note_on_c, 0, 70, 64
1, 291051, Note_on_c, 0, 61, 40
1, 291051, Note_on_c, 0, 63, 48
1, 291099, Note_on_c, 0, 70, 0
1, 291099, Note_on_c, 0, 67, 0
1, 291099, Note_on_c, 0, 61, 0
1, 291099, Note_on_c, 0, 63, 0
1, 291180, Note_on_c, 0, 70, 64
1, 291180, Note_on_c, 0, 67, 54
1, 291180, Note_on_c, 0, 61, 40
1, 291183, Note_on_c, 0, 63, 48
1, 291228, Note_on_c, 0, 67, 0
1, 291228, Note_on_c, 0, 70, 0
1, 291228, Note_on_c, 0, 63, 0
1, 291231, Note_on_c, 0, 61, 0
1, 291309, Note_on_c, 0, 66, 60
1, 291309, Note_on_c, 0, 75, 71
1, 291309, Note_on_c, 0, 59, 45
1, 291312, Note_on_c, 0, 63, 53
1, 291344, Control_c, 0, 64, 127
1, 291574, Note_on_c, 0, 67, 60
1, 291578, Note_on_c, 0, 66, 0
1, 291709, Note_on_c, 0, 67, 0
1, 291712, Note_on_c, 0, 75, 0
1, 291712, Note_on_c, 0, 75, 62
1, 291712, Note_on_c, 0, 68, 52
1, 291715, Note_on_c, 0, 63, 0
1, 291715, Note_on_c, 0, 59, 0
1, 291715, Note_on_c, 0, 59, 39
1, 291718, Note_on_c, 0, 63, 46
1, 291718, Control_c, 0, 64, 0
1, 291763, Note_on_c, 0, 68, 0
1, 291763, Note_on_c, 0, 75, 0
1, 291763, Note_on_c, 0, 63, 0
1, 291766, Note_on_c, 0, 59, 0
1, 291847, Note_on_c, 0, 64, 56
1, 291847, Note_on_c, 0, 68, 56
1, 291847, Note_on_c, 0, 73, 66
1, 291850, Note_on_c, 0, 58, 49
1, 291850, Control_c, 0, 64, 127
1, 291894, Note_on_c, 0, 73, 0
1, 291894, Note_on_c, 0, 58, 0
1, 291972, Note_on_c, 0, 68, 0
1, 291972, Note_on_c, 0, 64, 0
1, 291972, Note_on_c, 0, 71, 66
1, 291975, Note_on_c, 0, 61, 49
1, 291981, Control_c, 0, 64, 0
1, 292020, Note_on_c, 0, 71, 0
1, 292020, Note_on_c, 0, 61, 0
1, 292098, Note_on_c, 0, 61, 55
1, 292098, Note_on_c, 0, 67, 55
1, 292098, Note_on_c, 0, 70, 65
1, 292101, Note_on_c, 0, 51, 48
1, 292149, Note_on_c, 0, 70, 0
1, 292149, Note_on_c, 0, 51, 0
1, 292233, Note_on_c, 0, 67, 0
1, 292233, Note_on_c, 0, 61, 0
1, 292233, Note_on_c, 0, 63, 68
1, 292236, Note_on_c, 0, 55, 51
1, 292284, Note_on_c, 0, 63, 0
1, 292284, Note_on_c, 0, 55, 0
1, 292369, Note_on_c, 0, 63, 58
1, 292369, Note_on_c, 0, 68, 70
1, 292369, Note_on_c, 0, 56, 43
1, 292372, Note_on_c, 0, 59, 52
1, 292403, Note_on_c, 0, 56, 0
1, 292421, Note_on_c, 0, 68, 0
1, 292421, Note_on_c, 0, 63, 0
1, 292421, Note_on_c, 0, 59, 0
1, 292507, Note_on_c, 0, 63, 66
1, 292507, Note_on_c, 0, 59, 49
1, 292559, Note_on_c, 0, 63, 0
1, 292559, Note_on_c, 0, 59, 0
1, 292646, Note_on_c, 0, 63, 60
1, 292646, Note_on_c, 0, 68, 70
1, 292646, Note_on_c, 0, 56, 47
1, 292649, Note_on_c, 0, 59, 56
1, 292854, Note_on_c, 0, 68, 0
1, 292854, Note_on_c, 0, 63, 0
1, 292854, Note_on_c, 0, 59, 0
1, 292857, Note_on_c, 0, 56, 0
1, 292923, Note_on_c, 0, 70, 81
1, 292923, Note_on_c, 0, 82, 96
1, 292923, Note_on_c, 0, 46, 61
1, 292926, Note_on_c, 0, 58, 72
1, 292931, Control_c, 0, 64, 127
1, 293124, Note_on_c, 0, 82, 0
1, 293124, Note_on_c, 0, 70, 0
1, 293124, Note_on_c, 0, 58, 0
1, 293127, Note_on_c, 0, 46, 0
1, 293187, Control_c, 0, 64, 0
1, 293191, Note_on_c, 0, 70, 77
1, 293191, Note_on_c, 0, 82, 91
1, 293191, Note_on_c, 0, 46, 57
1, 293194, Note_on_c, 0, 58, 68
1, 293239, Note_on_c, 0, 82, 0
1, 293239, Note_on_c, 0, 70, 0
1, 293239, Note_on_c, 0, 58, 0
1, 293242, Note_on_c, 0, 46, 0
1, 293320, Note_on_c, 0, 70, 77
1, 293320, Note_on_c, 0, 82, 91
1, 293320, Note_on_c, 0, 46, 57
1, 293323, Note_on_c, 0, 58, 68
1, 293368, Note_on_c, 0, 82, 0
1, 293368, Note_on_c, 0, 70, 0
1, 293368, Note_on_c, 0, 58, 0
1, 293371, Note_on_c, 0, 46, 0
1, 293449, Note_on_c, 0, 75, 85
1, 293449, Note_on_c, 0, 87, 101
1, 293449, Note_on_c, 0, 51, 63
1, 293452, Note_on_c, 0, 63, 75
1, 293457, Control_c, 0, 64, 127
1, 293860, Note_on_c, 0, 87, 0
1, 293860, Note_on_c, 0, 75, 0
1, 293860, Note_on_c, 0, 75, 74
1, 293863, Note_on_c, 0, 87, 89
1, 293863, Note_on_c, 0, 63, 0
1, 293863, Note_on_c, 0, 51, 0
1, 293866, Note_on_c, 0, 51, 55
1, 293866, Note_on_c, 0, 63, 66
1, 293866, Control_c, 0, 64, 0
1, 293911, Note_on_c, 0, 87, 0
1, 293911, Note_on_c, 0, 75, 0
1, 293911, Note_on_c, 0, 63, 0
1, 293914, Note_on_c, 0, 51, 0
1, 293997, Note_on_c, 0, 73, 79
1, 293997, Note_on_c, 0, 85, 93
1, 293997, Note_on_c, 0, 49, 58
1, 294000, Note_on_c, 0, 61, 69
1, 294000, Control_c, 0, 64, 127
1, 294044, Note_on_c, 0, 85, 0
1, 294044, Note_on_c, 0, 73, 0
1, 294044, Note_on_c, 0, 61, 0
1, 294047, Note_on_c, 0, 49, 0
1, 294123, Note_on_c, 0, 71, 79
1, 294123, Note_on_c, 0, 83, 93
1, 294123, Note_on_c, 0, 47, 58
1, 294126, Note_on_c, 0, 59, 69
1, 294170, Note_on_c, 0, 83, 0
1, 294170, Note_on_c, 0, 71, 0
1, 294170, Note_on_c, 0, 59, 0
1, 294173, Note_on_c, 0, 47, 0
1, 294249, Note_on_c, 0, 70, 78
1, 294249, Note_on_c, 0, 82, 92
1, 294249, Note_on_c, 0, 46, 57
1, 294252, Note_on_c, 0, 58, 68
1, 294252, Control_c, 0, 64, 0
1, 294298, Note_on_c, 0, 82, 0
1, 294298, Note_on_c, 0, 70, 0
1, 294298, Note_on_c, 0, 58, 0
1, 294301, Note_on_c, 0, 46, 0
1, 294380, Note_on_c, 0, 68, 81
1, 294380, Note_on_c, 0, 80, 96
1, 294380, Note_on_c, 0, 44, 61
1, 294383, Note_on_c, 0, 56, 72
1, 294429, Note_on_c, 0, 80, 0
1, 294429, Note_on_c, 0, 68, 0
1, 294429, Note_on_c, 0, 56, 0
1, 294432, Note_on_c, 0, 44, 0
1, 294510, Note_on_c, 0, 70, 80
1, 294510, Note_on_c, 0, 82, 94
1, 294510, Note_on_c, 0, 46, 60
1, 294513, Note_on_c, 0, 58, 70
1, 294562, Note_on_c, 0, 82, 0
1, 294562, Note_on_c, 0, 70, 0
1, 294562, Note_on_c, 0, 58, 0
1, 294565, Note_on_c, 0, 46, 0
1, 294649, Note_on_c, 0, 63, 75
1, 294649, Note_on_c, 0, 75, 90
1, 294649, Note_on_c, 0, 39, 56
1, 294652, Note_on_c, 0, 51, 67
1, 294701, Note_on_c, 0, 75, 0
1, 294701, Note_on_c, 0, 63, 0
1, 294701, Note_on_c, 0, 51, 0
1, 294704, Note_on_c, 0, 39, 0
1, 294788, Note_on_c, 0, 63, 75
1, 294788, Note_on_c, 0, 75, 90
1, 294788, Note_on_c, 0, 39, 56
1, 294791, Note_on_c, 0, 51, 67
1, 295095, Note_on_c, 0, 75, 0
1, 295095, Note_on_c, 0, 63, 0
1, 295095, Note_on_c, 0, 67, 57
1, 295098, Note_on_c, 0, 70, 68
1, 295098, Note_on_c, 0, 51, 0
1, 295098, Note_on_c, 0, 39, 0
1, 295101, Note_on_c, 0, 63, 51
1, 295101, Control_c, 0, 64, 127
1, 295300, Note_on_c, 0, 70, 0
1, 295300, Note_on_c, 0, 67, 0
1, 295300, Note_on_c, 0, 63, 0
1, 295360, Control_c, 0, 64, 0
1, 295368, Note_on_c, 0, 67, 54
1, 295368, Note_on_c, 0, 70, 64
1, 295368, Note_on_c, 0, 61, 40
1, 295368, Note_on_c, 0, 63, 48
1, 295416, Note_on_c, 0, 70, 0
1, 295416, Note_on_c, 0, 67, 0
1, 295416, Note_on_c, 0, 61, 0
1, 295416, Note_on_c, 0, 63, 0
1, 295497, Note_on_c, 0, 70, 64
1, 295497, Note_on_c, 0, 67, 54
1, 295497, Note_on_c, 0, 61, 40
1, 295500, Note_on_c, 0, 63, 48
1, 295545, Note_on_c, 0, 67, 0
1, 295545, Note_on_c, 0, 70, 0
1, 295545, Note_on_c, 0, 63, 0
1, 295548, Note_on_c, 0, 61, 0
1, 295626, Note_on_c, 0, 66, 60
1, 295626, Note_on_c, 0, 75, 71
1, 295626, Note_on_c, 0, 59, 45
1, 295629, Note_on_c, 0, 63, 53
1, 295654, Control_c, 0, 64, 127
1, 296032, Note_on_c, 0, 75, 0
1, 296032, Note_on_c, 0, 66, 0
1, 296032, Note_on_c, 0, 75, 62
1, 296035, Note_on_c, 0, 66, 52
1, 296035, Note_on_c, 0, 63, 0
1, 296035, Note_on_c, 0, 59, 0
1, 296038, Note_on_c, 0, 59, 39
1, 296038, Note_on_c, 0, 63, 46
1, 296064, Control_c, 0, 64, 0
1, 296083, Note_on_c, 0, 66, 0
1, 296083, Note_on_c, 0, 75, 0
1, 296083, Note_on_c, 0, 63, 0
1, 296086, Note_on_c, 0, 59, 0
1, 296167, Note_on_c, 0, 67, 56
1, 296167, Note_on_c, 0, 73, 66
1, 296167, Note_on_c, 0, 63, 55
1, 296170, Note_on_c, 0, 58, 49
1, 296170, Control_c, 0, 64, 127
1, 296214, Note_on_c, 0, 73, 0
1, 296214, Note_on_c, 0, 58, 0
1, 296293, Note_on_c, 0, 67, 0
1, 296293, Note_on_c, 0, 70, 66
1, 296293, Note_on_c, 0, 63, 0
1, 296296, Note_on_c, 0, 61, 49
1, 296311, Control_c, 0, 64, 0
1, 296340, Note_on_c, 0, 70, 0
1, 296340, Note_on_c, 0, 61, 0
1, 296418, Note_on_c, 0, 63, 55
1, 296418, Note_on_c, 0, 71, 65
1, 296418, Note_on_c, 0, 56, 48
1, 296467, Note_on_c, 0, 71, 0
1, 296467, Note_on_c, 0, 56, 0
1, 296549, Note_on_c, 0, 63, 0
1, 296549, Note_on_c, 0, 68, 68
1, 296549, Note_on_c, 0, 59, 51
1, 296598, Note_on_c, 0, 68, 0
1, 296598, Note_on_c, 0, 59, 0
1, 296679, Note_on_c, 0, 63, 56
1, 296679, Note_on_c, 0, 70, 67
1, 296679, Note_on_c, 0, 55, 50
1, 296731, Note_on_c, 0, 70, 0
1, 296731, Note_on_c, 0, 55, 0
1, 296815, Note_on_c, 0, 63, 0
1, 296815, Note_on_c, 0, 63, 63
1, 296815, Note_on_c, 0, 58, 47
1, 296868, Note_on_c, 0, 63, 0
1, 296868, Note_on_c, 0, 58, 0
1, 296953, Note_on_c, 0, 63, 57
1, 297259, Note_on_c, 0, 67, 57
1, 297259, Note_on_c, 0, 70, 68
1, 297259, Note_on_c, 0, 63, 0
1, 297262, Note_on_c, 0, 63, 51
1, 297262, Control_c, 0, 64, 127
1, 297462, Note_on_c, 0, 70, 0
1, 297462, Note_on_c, 0, 67, 0
1, 297462, Note_on_c, 0, 63, 0
1, 297530, Note_on_c, 0, 67, 54
1, 297530, Note_on_c, 0, 70, 64
1, 297530, Note_on_c, 0, 61, 40
1, 297530, Note_on_c, 0, 63, 48
1, 297533, Control_c, 0, 64, 0
1, 297577, Note_on_c, 0, 70, 0
1, 297577, Note_on_c, 0, 67, 0
1, 297577, Note_on_c, 0, 61, 0
1, 297577, Note_on_c, 0, 63, 0
1, 297655, Note_on_c, 0, 70, 64
1, 297655, Note_on_c, 0, 67, 54
1, 297655, Note_on_c, 0, 61, 40
1, 297658, Note_on_c, 0, 63, 48
1, 297702, Note_on_c, 0, 67, 0
1, 297702, Note_on_c, 0, 70, 0
1, 297702, Note_on_c, 0, 63, 0
1, 297705, Note_on_c, 0, 61, 0
1, 297781, Note_on_c, 0, 66, 60
1, 297781, Note_on_c, 0, 75, 71
1, 297781, Note_on_c, 0, 59, 45
1, 297784, Note_on_c, 0, 63, 53
1, 297816, Control_c, 0, 64, 127
1, 298044, Note_on_c, 0, 67, 60
1, 298048, Note_on_c, 0, 66, 0
1, 298182, Note_on_c, 0, 67, 0
1, 298186, Note_on_c, 0, 75, 0
1, 298186, Note_on_c, 0, 75, 62
1, 298186, Note_on_c, 0, 68, 52
1, 298189, Note_on_c, 0, 63, 0
1, 298189, Note_on_c, 0, 59, 0
1, 298189, Note_on_c, 0, 59, 39
1, 298192, Note_on_c, 0, 63, 46
1, 298192, Control_c, 0, 64, 0
1, 298238, Note_on_c, 0, 68, 0
1, 298238, Note_on_c, 0, 75, 0
1, 298238, Note_on_c, 0, 63, 0
1, 298241, Note_on_c, 0, 59, 0
1, 298324, Note_on_c, 0, 64, 56
1, 298324, Note_on_c, 0, 68, 56
1, 298324, Note_on_c, 0, 73, 66
1, 298327, Note_on_c, 0, 58, 49
1, 298327, Control_c, 0, 64, 127
1, 298372, Note_on_c, 0, 73, 0
1, 298372, Note_on_c, 0, 58, 0
1, 298453, Note_on_c, 0, 68, 0
1, 298453, Note_on_c, 0, 64, 0
1, 298453, Note_on_c, 0, 71, 66
1, 298456, Note_on_c, 0, 61, 49
1, 298462, Control_c, 0, 64, 0
1, 298501, Note_on_c, 0, 71, 0
1, 298501, Note_on_c, 0, 61, 0
1, 298582, Note_on_c, 0, 61, 55
1, 298582, Note_on_c, 0, 67, 55
1, 298582, Note_on_c, 0, 70, 65
1, 298585, Note_on_c, 0, 51, 48
1, 298635, Note_on_c, 0, 70, 0
1, 298635, Note_on_c, 0, 51, 0
1, 298723, Note_on_c, 0, 67, 0
1, 298723, Note_on_c, 0, 61, 0
1, 298723, Note_on_c, 0, 63, 68
1, 298726, Note_on_c, 0, 55, 51
1, 298776, Note_on_c, 0, 63, 0
1, 298776, Note_on_c, 0, 55, 0
1, 298865, Note_on_c, 0, 63, 58
1, 298865, Note_on_c, 0, 68, 70
1, 298865, Note_on_c, 0, 56, 43
1, 298868, Note_on_c, 0, 59, 52
1, 298901, Note_on_c, 0, 56, 0
1, 298919, Note_on_c, 0, 68, 0
1, 298919, Note_on_c, 0, 59, 0
1, 299009, Note_on_c, 0, 63, 0
1, 299009, Note_on_c, 0, 63, 66
1, 299009, Note_on_c, 0, 59, 49
1, 299065, Note_on_c, 0, 63, 0
1, 299065, Note_on_c, 0, 59, 0
1, 299156, Note_on_c, 0, 63, 60
1, 299156, Note_on_c, 0, 68, 70
1, 299156, Note_on_c, 0, 56, 47
1, 299159, Note_on_c, 0, 59, 56
1, 299375, Note_on_c, 0, 68, 0
1, 299375, Note_on_c, 0, 63, 0
1, 299375, Note_on_c, 0, 59, 0
1, 299378, Note_on_c, 0, 56, 0
1, 299448, Note_on_c, 0, 63, 55
1, 299519, Note_on_c, 0, 63, 0
1, 299590, Note_on_c, 0, 65, 49
1, 299661, Note_on_c, 0, 65, 0
1, 299732, Note_on_c, 0, 67, 48
1, 299803, Note_on_c, 0, 67, 0
1, 299875, Note_on_c, 0, 68, 47
1, 299946, Note_on_c, 0, 68, 0
1, 299999, Note_on_c, 0, 39, 33
1, 300017, Note_on_c, 0, 61, 51
1, 300017, Note_on_c, 0, 63, 51
1, 300017, Note_on_c, 0, 70, 60
1, 300020, Note_on_c, 0, 55, 41
1, 300020, Control_c, 0, 64, 127
1, 300088, Note_on_c, 0, 55, 0
1, 300159, Note_on_c, 0, 70, 0
1, 300159, Note_on_c, 0, 63, 0
1, 300159, Note_on_c, 0, 61, 0
1, 300162, Note_on_c, 0, 51, 37
1, 300226, Note_on_c, 0, 51, 0
1, 300293, Note_on_c, 0, 61, 44
1, 300293, Note_on_c, 0, 70, 52
1, 300293, Note_on_c, 0, 39, 0
1, 300303, Control_c, 0, 64, 0
1, 300358, Note_on_c, 0, 70, 0
1, 300358, Note_on_c, 0, 61, 0
1, 300423, Note_on_c, 0, 63, 44
1, 300423, Note_on_c, 0, 72, 52
1, 300497, Note_on_c, 0, 72, 0
1, 300497, Note_on_c, 0, 63, 0
1, 300552, Note_on_c, 0, 44, 32
1, 300570, Note_on_c, 0, 60, 49
1, 300570, Note_on_c, 0, 63, 49
1, 300570, Note_on_c, 0, 68, 58
1, 300573, Note_on_c, 0, 56, 43
1, 300573, Control_c, 0, 64, 127
1, 300639, Note_on_c, 0, 56, 0
1, 300709, Note_on_c, 0, 68, 0
1, 300709, Note_on_c, 0, 63, 0
1, 300709, Note_on_c, 0, 60, 0
1, 300712, Note_on_c, 0, 51, 35
1, 300749, Control_c, 0, 64, 0
1, 300778, Note_on_c, 0, 51, 0
1, 300847, Note_on_c, 0, 44, 0
1, 300847, Note_on_c, 0, 63, 42
1, 300917, Note_on_c, 0, 63, 0
1, 300986, Note_on_c, 0, 56, 36
1, 301055, Note_on_c, 0, 56, 0
1, 301107, Note_on_c, 0, 39, 33
1, 301125, Note_on_c, 0, 61, 51
1, 301125, Note_on_c, 0, 63, 51
1, 301125, Note_on_c, 0, 70, 60
1, 301128, Note_on_c, 0, 55, 41
1, 301137, Control_c, 0, 64, 127
1, 301194, Note_on_c, 0, 55, 0
1, 301263, Note_on_c, 0, 70, 0
1, 301263, Note_on_c, 0, 63, 0
1, 301263, Note_on_c, 0, 61, 0
1, 301266, Note_on_c, 0, 51, 37
1, 301330, Note_on_c, 0, 51, 0
1, 301396, Note_on_c, 0, 61, 44
1, 301396, Note_on_c, 0, 70, 52
1, 301396, Note_on_c, 0, 39, 0
1, 301405, Control_c, 0, 64, 0
1, 301461, Note_on_c, 0, 70, 0
1, 301461, Note_on_c, 0, 61, 0
1, 301525, Note_on_c, 0, 63, 44
1, 301525, Note_on_c, 0, 72, 52
1, 301596, Note_on_c, 0, 72, 0
1, 301596, Note_on_c, 0, 63, 0
1, 301650, Note_on_c, 0, 44, 32
1, 301668, Note_on_c, 0, 60, 49
1, 301668, Note_on_c, 0, 63, 49
1, 301668, Note_on_c, 0, 68, 58
1, 301671, Note_on_c, 0, 56, 43
1, 301671, Control_c, 0, 64, 127
1, 301737, Note_on_c, 0, 56, 0
1, 301806, Note_on_c, 0, 68, 0
1, 301806, Note_on_c, 0, 63, 0
1, 301806, Note_on_c, 0, 60, 0
1, 301809, Note_on_c, 0, 51, 35
1, 301847, Control_c, 0, 64, 0
1, 301876, Note_on_c, 0, 51, 0
1, 301945, Note_on_c, 0, 44, 0
1, 301945, Note_on_c, 0, 63, 42
1, 302014, Note_on_c, 0, 63, 0
1, 302084, Note_on_c, 0, 56, 36
1, 302153, Note_on_c, 0, 56, 0
1, 302222, Note_on_c, 0, 63, 51
1, 302222, Note_on_c, 0, 67, 51
1, 302222, Note_on_c, 0, 70, 60
1, 302225, Note_on_c, 0, 51, 43
1, 302225, Control_c, 0, 64, 127
1, 302292, Note_on_c, 0, 51, 0
1, 302361, Note_on_c, 0, 63, 33
1, 302428, Note_on_c, 0, 63, 0
1, 302490, Control_c, 0, 64, 0
1, 302494, Note_on_c, 0, 70, 0
1, 302494, Note_on_c, 0, 67, 0
1, 302494, Note_on_c, 0, 63, 0
1, 302497, Note_on_c, 0, 67, 44
1, 302497, Note_on_c, 0, 63, 44
1, 302497, Note_on_c, 0, 70, 52
1, 302500, Note_on_c, 0, 49, 43
1, 302558, Note_on_c, 0, 70, 0
1, 302558, Note_on_c, 0, 63, 0
1, 302558, Note_on_c, 0, 67, 0
1, 302561, Note_on_c, 0, 49, 0
1, 302622, Note_on_c, 0, 67, 44
1, 302622, Note_on_c, 0, 63, 44
1, 302622, Note_on_c, 0, 70, 52
1, 302625, Note_on_c, 0, 61, 37
1, 302693, Note_on_c, 0, 70, 0
1, 302693, Note_on_c, 0, 63, 0
1, 302693, Note_on_c, 0, 67, 0
1, 302696, Note_on_c, 0, 61, 0
1, 302765, Note_on_c, 0, 63, 51
1, 302765, Note_on_c, 0, 66, 51
1, 302765, Note_on_c, 0, 75, 60
1, 302768, Note_on_c, 0, 47, 43
1, 302801, Control_c, 0, 64, 127
1, 302834, Note_on_c, 0, 47, 0
1, 302903, Note_on_c, 0, 59, 33
1, 302970, Note_on_c, 0, 59, 0
1, 303036, Note_on_c, 0, 75, 0
1, 303036, Note_on_c, 0, 66, 0
1, 303036, Note_on_c, 0, 63, 0
1, 303039, Note_on_c, 0, 71, 44
1, 303039, Note_on_c, 0, 63, 44
1, 303039, Note_on_c, 0, 75, 52
1, 303042, Note_on_c, 0, 42, 43
1, 303049, Control_c, 0, 64, 0
1, 303101, Note_on_c, 0, 75, 0
1, 303101, Note_on_c, 0, 63, 0
1, 303101, Note_on_c, 0, 71, 0
1, 303104, Note_on_c, 0, 42, 0
1, 303165, Note_on_c, 0, 71, 44
1, 303165, Note_on_c, 0, 63, 44
1, 303165, Note_on_c, 0, 75, 52
1, 303168, Note_on_c, 0, 54, 37
1, 303237, Note_on_c, 0, 75, 0
1, 303237, Note_on_c, 0, 63, 0
1, 303237, Note_on_c, 0, 71, 0
1, 303240, Note_on_c, 0, 54, 0
1, 303309, Note_on_c, 0, 64, 50
1, 303309, Note_on_c, 0, 73, 59
1, 303309, Note_on_c, 0, 43, 43
1, 303374, Note_on_c, 0, 73, 0
1, 303374, Note_on_c, 0, 64, 0
1, 303374, Note_on_c, 0, 43, 0
1, 303439, Note_on_c, 0, 63, 43
1, 303439, Note_on_c, 0, 71, 51
1, 303439, Note_on_c, 0, 51, 38
1, 303506, Note_on_c, 0, 71, 0
1, 303506, Note_on_c, 0, 63, 0
1, 303506, Note_on_c, 0, 51, 0
1, 303574, Note_on_c, 0, 61, 43
1, 303574, Note_on_c, 0, 70, 51
1, 303574, Note_on_c, 0, 44, 43
1, 303641, Note_on_c, 0, 70, 0
1, 303641, Note_on_c, 0, 61, 0
1, 303641, Note_on_c, 0, 44, 0
1, 303708, Note_on_c, 0, 59, 43
1, 303708, Note_on_c, 0, 68, 51
1, 303708, Note_on_c, 0, 51, 40
1, 303775, Note_on_c, 0, 68, 0
1, 303775, Note_on_c, 0, 59, 0
1, 303775, Note_on_c, 0, 51, 0
1, 303843, Note_on_c, 0, 58, 51
1, 303843, Note_on_c, 0, 63, 51
1, 303843, Note_on_c, 0, 70, 60
1, 303846, Note_on_c, 0, 39, 43
1, 303846, Control_c, 0, 64, 127
1, 303912, Note_on_c, 0, 39, 0
1, 303981, Note_on_c, 0, 46, 33
1, 304047, Note_on_c, 0, 46, 0
1, 304113, Note_on_c, 0, 70, 0
1, 304113, Note_on_c, 0, 63, 0
1, 304113, Note_on_c, 0, 58, 0
1, 304116, Note_on_c, 0, 63, 44
1, 304116, Note_on_c, 0, 58, 44
1, 304116, Note_on_c, 0, 70, 52
1, 304119, Note_on_c, 0, 51, 43
1, 304131, Control_c, 0, 64, 0
1, 304177, Note_on_c, 0, 70, 0
1, 304177, Note_on_c, 0, 58, 0
1, 304177, Note_on_c, 0, 63, 0
1, 304180, Note_on_c, 0, 51, 0
1, 304241, Note_on_c, 0, 63, 44
1, 304241, Note_on_c, 0, 58, 44
1, 304241, Note_on_c, 0, 70, 52
1, 304244, Note_on_c, 0, 46, 37
1, 304313, Note_on_c, 0, 70, 0
1, 304313, Note_on_c, 0, 58, 0
1, 304313, Note_on_c, 0, 63, 0
1, 304316, Note_on_c, 0, 46, 0
1, 304384, Note_on_c, 0, 55, 50
1, 304384, Note_on_c, 0, 61, 50
1, 304384, Note_on_c, 0, 63, 59
1, 304387, Note_on_c, 0, 39, 43
1, 304451, Note_on_c, 0, 63, 0
1, 304451, Note_on_c, 0, 61, 0
1, 304451, Note_on_c, 0, 55, 0
1, 304454, Note_on_c, 0, 39, 0
1, 304519, Note_on_c, 0, 56, 43
1, 304519, Note_on_c, 0, 65, 51
1, 304519, Note_on_c, 0, 46, 38
1, 304586, Note_on_c, 0, 65, 0
1, 304586, Note_on_c, 0, 56, 0
1, 304586, Note_on_c, 0, 46, 0
1, 304653, Note_on_c, 0, 58, 43
1, 304653, Note_on_c, 0, 61, 43
1, 304653, Note_on_c, 0, 67, 51
1, 304656, Note_on_c, 0, 51, 43
1, 304720, Note_on_c, 0, 67, 0
1, 304720, Note_on_c, 0, 61, 0
1, 304720, Note_on_c, 0, 58, 0
1, 304723, Note_on_c, 0, 51, 0
1, 304788, Note_on_c, 0, 55, 43
1, 304788, Note_on_c, 0, 63, 51
1, 304788, Note_on_c, 0, 46, 40
1, 304859, Note_on_c, 0, 63, 0
1, 304859, Note_on_c, 0, 55, 0
1, 304859, Note_on_c, 0, 46, 0
1, 304930, Note_on_c, 0, 56, 51
1, 304930, Note_on_c, 0, 60, 51
1, 304930, Note_on_c, 0, 68, 60
1, 304933, Note_on_c, 0, 44, 47
1, 304933, Note_on_c, 0, 51, 47
1, 304933, Control_c, 0, 64, 127
1, 304997, Note_on_c, 0, 51, 0
1, 304997, Note_on_c, 0, 44, 0
1, 305064, Note_on_c, 0, 68, 0
1, 305064, Note_on_c, 0, 60, 0
1, 305064, Note_on_c, 0, 56, 0
1, 305067, Note_on_c, 0, 39, 38
1, 305092, Control_c, 0, 64, 0
1, 305134, Note_on_c, 0, 39, 0
1, 305204, Note_on_c, 0, 32, 43
1, 305274, Note_on_c, 0, 32, 0
1, 305485, Note_on_c, 0, 63, 52
1, 305485, Note_on_c, 0, 75, 63
1, 305556, Note_on_c, 0, 75, 0
1, 305556, Note_on_c, 0, 63, 0
1, 305627, Note_on_c, 0, 65, 47
1, 305627, Note_on_c, 0, 77, 56
1, 305698, Note_on_c, 0, 77, 0
1, 305698, Note_on_c, 0, 65, 0
1, 305769, Note_on_c, 0, 67, 46
1, 305769, Note_on_c, 0, 79, 55
1, 305837, Note_on_c, 0, 79, 0
1, 305837, Note_on_c, 0, 67, 0
1, 305904, Note_on_c, 0, 68, 44
1, 305904, Note_on_c, 0, 80, 54
1, 305904, Note_on_c, 0, 39, 37
1, 305920, Control_c, 0, 64, 127
1, 305972, Note_on_c, 0, 80, 0
1, 305972, Note_on_c, 0, 68, 0
1, 305972, Note_on_c, 0, 39, 0
1, 306040, Note_on_c, 0, 70, 58
1, 306040, Note_on_c, 0, 73, 58
1, 306040, Note_on_c, 0, 82, 69
1, 306043, Note_on_c, 0, 55, 47
1, 306107, Note_on_c, 0, 55, 0
1, 306175, Note_on_c, 0, 82, 0
1, 306175, Note_on_c, 0, 73, 0
1, 306175, Note_on_c, 0, 70, 0
1, 306178, Note_on_c, 0, 51, 42
1, 306243, Note_on_c, 0, 51, 0
1, 306310, Note_on_c, 0, 70, 50
1, 306310, Note_on_c, 0, 73, 50
1, 306310, Note_on_c, 0, 82, 59
1, 306313, Note_on_c, 0, 63, 47
1, 306320, Control_c, 0, 64, 0
1, 306375, Note_on_c, 0, 82, 0
1, 306375, Note_on_c, 0, 73, 0
1, 306375, Note_on_c, 0, 70, 0
1, 306378, Note_on_c, 0, 63, 0
1, 306440, Note_on_c, 0, 72, 50
1, 306440, Note_on_c, 0, 75, 50
1, 306440, Note_on_c, 0, 84, 59
1, 306443, Note_on_c, 0, 44, 36
1, 306457, Control_c, 0, 64, 127
1, 306514, Note_on_c, 0, 84, 0
1, 306514, Note_on_c, 0, 75, 0
1, 306514, Note_on_c, 0, 72, 0
1, 306517, Note_on_c, 0, 44, 0
1, 306587, Note_on_c, 0, 68, 56
1, 306587, Note_on_c, 0, 72, 56
1, 306587, Note_on_c, 0, 80, 66
1, 306590, Note_on_c, 0, 56, 49
1, 306656, Note_on_c, 0, 56, 0
1, 306726, Note_on_c, 0, 80, 0
1, 306726, Note_on_c, 0, 72, 0
1, 306726, Note_on_c, 0, 68, 0
1, 306729, Note_on_c, 0, 51, 40
1, 306795, Note_on_c, 0, 51, 0
1, 306864, Note_on_c, 0, 63, 48
1, 306906, Control_c, 0, 64, 0
1, 306929, Note_on_c, 0, 63, 0
1, 306987, Control_c, 0, 64, 127
1, 306994, Note_on_c, 0, 39, 41
1, 307066, Note_on_c, 0, 39, 0
1, 307138, Note_on_c, 0, 70, 58
1, 307138, Note_on_c, 0, 73, 58
1, 307138, Note_on_c, 0, 82, 69
1, 307141, Note_on_c, 0, 55, 47
1, 307208, Note_on_c, 0, 55, 0
1, 307277, Note_on_c, 0, 82, 0
1, 307277, Note_on_c, 0, 73, 0
1, 307277, Note_on_c, 0, 70, 0
1, 307280, Note_on_c, 0, 51, 42
1, 307343, Note_on_c, 0, 51, 0
1, 307409, Note_on_c, 0, 70, 50
1, 307409, Note_on_c, 0, 73, 50
1, 307409, Note_on_c, 0, 82, 59
1, 307412, Note_on_c, 0, 63, 47
1, 307412, Control_c, 0, 64, 0
1, 307473, Note_on_c, 0, 82, 0
1, 307473, Note_on_c, 0, 73, 0
1, 307473, Note_on_c, 0, 70, 0
1, 307476, Note_on_c, 0, 63, 0
1, 307538, Note_on_c, 0, 72, 50
1, 307538, Note_on_c, 0, 75, 50
1, 307538, Note_on_c, 0, 84, 59
1, 307541, Note_on_c, 0, 44, 36
1, 307571, Control_c, 0, 64, 127
1, 307609, Note_on_c, 0, 84, 0
1, 307609, Note_on_c, 0, 75, 0
1, 307609, Note_on_c, 0, 72, 0
1, 307612, Note_on_c, 0, 44, 0
1, 307681, Note_on_c, 0, 68, 56
1, 307681, Note_on_c, 0, 72, 56
1, 307681, Note_on_c, 0, 80, 66
1, 307684, Note_on_c, 0, 56, 49
1, 307750, Note_on_c, 0, 56, 0
1, 307819, Note_on_c, 0, 80, 0
1, 307819, Note_on_c, 0, 72, 0
1, 307819, Note_on_c, 0, 68, 0
1, 307822, Note_on_c, 0, 51, 40
1, 307889, Note_on_c, 0, 51, 0
1, 307958, Note_on_c, 0, 63, 48
1, 308022, Note_on_c, 0, 63, 0
1, 308086, Note_on_c, 0, 56, 41
1, 308112, Control_c, 0, 64, 0
1, 308159, Note_on_c, 0, 56, 0
1, 308231, Note_on_c, 0, 70, 58
1, 308231, Note_on_c, 0, 75, 58
1, 308231, Note_on_c, 0, 79, 58
1, 308234, Note_on_c, 0, 82, 69
1, 308234, Note_on_c, 0, 51, 49
1, 308239, Control_c, 0, 64, 127
1, 308301, Note_on_c, 0, 51, 0
1, 308370, Note_on_c, 0, 63, 37
1, 308438, Note_on_c, 0, 63, 0
1, 308506, Note_on_c, 0, 82, 0
1, 308506, Note_on_c, 0, 70, 0
1, 308506, Note_on_c, 0, 75, 0
1, 308509, Note_on_c, 0, 79, 0
1, 308509, Note_on_c, 0, 70, 50
1, 308509, Note_on_c, 0, 79, 50
1, 308512, Note_on_c, 0, 75, 50
1, 308512, Note_on_c, 0, 82, 59
1, 308512, Note_on_c, 0, 49, 49
1, 308515, Control_c, 0, 64, 0
1, 308570, Note_on_c, 0, 82, 0
1, 308570, Note_on_c, 0, 70, 0
1, 308570, Note_on_c, 0, 79, 0
1, 308573, Note_on_c, 0, 75, 0
1, 308573, Note_on_c, 0, 49, 0
1, 308634, Note_on_c, 0, 70, 50
1, 308634, Note_on_c, 0, 79, 50
1, 308634, Note_on_c, 0, 75, 50
1, 308637, Note_on_c, 0, 82, 59
1, 308637, Note_on_c, 0, 61, 42
1, 308710, Note_on_c, 0, 82, 0
1, 308710, Note_on_c, 0, 70, 0
1, 308710, Note_on_c, 0, 79, 0
1, 308713, Note_on_c, 0, 75, 0
1, 308713, Note_on_c, 0, 61, 0
1, 308785, Note_on_c, 0, 75, 58
1, 308785, Note_on_c, 0, 78, 58
1, 308785, Note_on_c, 0, 87, 69
1, 308788, Note_on_c, 0, 47, 49
1, 308798, Control_c, 0, 64, 127
1, 308854, Note_on_c, 0, 47, 0
1, 308922, Note_on_c, 0, 59, 37
1, 308990, Note_on_c, 0, 59, 0
1, 309058, Note_on_c, 0, 87, 0
1, 309058, Note_on_c, 0, 78, 0
1, 309058, Note_on_c, 0, 75, 0
1, 309061, Note_on_c, 0, 83, 50
1, 309061, Note_on_c, 0, 75, 50
1, 309061, Note_on_c, 0, 87, 59
1, 309064, Note_on_c, 0, 42, 49
1, 309086, Control_c, 0, 64, 0
1, 309125, Note_on_c, 0, 87, 0
1, 309125, Note_on_c, 0, 75, 0
1, 309125, Note_on_c, 0, 83, 0
1, 309128, Note_on_c, 0, 42, 0
1, 309191, Note_on_c, 0, 83, 50
1, 309191, Note_on_c, 0, 75, 50
1, 309191, Note_on_c, 0, 87, 59
1, 309194, Note_on_c, 0, 54, 42
1, 309264, Note_on_c, 0, 87, 0
1, 309264, Note_on_c, 0, 75, 0
1, 309264, Note_on_c, 0, 83, 0
1, 309267, Note_on_c, 0, 54, 0
1, 309336, Note_on_c, 0, 73, 57
1, 309336, Note_on_c, 0, 76, 57
1, 309336, Note_on_c, 0, 85, 67
1, 309339, Note_on_c, 0, 43, 49
1, 309401, Note_on_c, 0, 85, 0
1, 309401, Note_on_c, 0, 76, 0
1, 309401, Note_on_c, 0, 73, 0
1, 309404, Note_on_c, 0, 43, 0
1, 309465, Note_on_c, 0, 71, 49
1, 309465, Note_on_c, 0, 75, 49
1, 309465, Note_on_c, 0, 83, 58
1, 309468, Note_on_c, 0, 51, 36
1, 309468, Note_on_c, 0, 55, 43
1, 309530, Note_on_c, 0, 83, 0
1, 309530, Note_on_c, 0, 75, 0
1, 309530, Note_on_c, 0, 71, 0
1, 309533, Note_on_c, 0, 55, 0
1, 309533, Note_on_c, 0, 51, 0
1, 309595, Note_on_c, 0, 70, 49
1, 309595, Note_on_c, 0, 73, 49
1, 309595, Note_on_c, 0, 82, 58
1, 309598, Note_on_c, 0, 44, 49
1, 309661, Note_on_c, 0, 82, 0
1, 309661, Note_on_c, 0, 73, 0
1, 309661, Note_on_c, 0, 70, 0
1, 309664, Note_on_c, 0, 44, 0
1, 309727, Note_on_c, 0, 68, 49
1, 309727, Note_on_c, 0, 71, 49
1, 309727, Note_on_c, 0, 80, 58
1, 309730, Note_on_c, 0, 51, 39
1, 309730, Note_on_c, 0, 56, 46
1, 309794, Note_on_c, 0, 80, 0
1, 309794, Note_on_c, 0, 71, 0
1, 309794, Note_on_c, 0, 68, 0
1, 309797, Note_on_c, 0, 56, 0
1, 309797, Note_on_c, 0, 51, 0
1, 309862, Note_on_c, 0, 70, 58
1, 309862, Note_on_c, 0, 75, 58
1, 309862, Note_on_c, 0, 82, 69
1, 309865, Note_on_c, 0, 39, 49
1, 309865, Control_c, 0, 64, 127
1, 309931, Note_on_c, 0, 39, 0
1, 310001, Note_on_c, 0, 46, 37
1, 310068, Note_on_c, 0, 46, 0
1, 310135, Note_on_c, 0, 82, 0
1, 310135, Note_on_c, 0, 75, 0
1, 310135, Note_on_c, 0, 70, 0
1, 310138, Note_on_c, 0, 75, 50
1, 310138, Note_on_c, 0, 70, 50
1, 310138, Note_on_c, 0, 82, 59
1, 310141, Note_on_c, 0, 51, 49
1, 310141, Control_c, 0, 64, 0
1, 310200, Note_on_c, 0, 82, 0
1, 310200, Note_on_c, 0, 70, 0
1, 310200, Note_on_c, 0, 75, 0
1, 310203, Note_on_c, 0, 51, 0
1, 310264, Note_on_c, 0, 75, 50
1, 310264, Note_on_c, 0, 70, 50
1, 310264, Note_on_c, 0, 82, 59
1, 310267, Note_on_c, 0, 58, 42
1, 310336, Note_on_c, 0, 82, 0
1, 310336, Note_on_c, 0, 70, 0
1, 310336, Note_on_c, 0, 75, 0
1, 310339, Note_on_c, 0, 58, 0
1, 310407, Note_on_c, 0, 67, 57
1, 310407, Note_on_c, 0, 73, 57
1, 310407, Note_on_c, 0, 75, 67
1, 310410, Note_on_c, 0, 63, 49
1, 310475, Note_on_c, 0, 75, 0
1, 310475, Note_on_c, 0, 73, 0
1, 310475, Note_on_c, 0, 67, 0
1, 310478, Note_on_c, 0, 63, 0
1, 310542, Note_on_c, 0, 68, 49
1, 310542, Note_on_c, 0, 77, 58
1, 310542, Note_on_c, 0, 58, 43
1, 310609, Note_on_c, 0, 77, 0
1, 310609, Note_on_c, 0, 68, 0
1, 310609, Note_on_c, 0, 58, 0
1, 310676, Note_on_c, 0, 70, 49
1, 310676, Note_on_c, 0, 73, 49
1, 310676, Note_on_c, 0, 79, 58
1, 310679, Note_on_c, 0, 51, 49
1, 310744, Note_on_c, 0, 79, 0
1, 310744, Note_on_c, 0, 73, 0
1, 310744, Note_on_c, 0, 70, 0
1, 310747, Note_on_c, 0, 51, 0
1, 310811, Note_on_c, 0, 67, 49
1, 310811, Note_on_c, 0, 75, 58
1, 310811, Note_on_c, 0, 61, 46
1, 310882, Note_on_c, 0, 75, 0
1, 310882, Note_on_c, 0, 67, 0
1, 310882, Note_on_c, 0, 61, 0
1, 310953, Note_on_c, 0, 68, 58
1, 310953, Note_on_c, 0, 75, 58
1, 310953, Note_on_c, 0, 80, 69
1, 310956, Note_on_c, 0, 60, 54
1, 310956, Control_c, 0, 64, 127
1, 311020, Note_on_c, 0, 60, 0
1, 311087, Note_on_c, 0, 80, 0
1, 311087, Note_on_c, 0, 75, 0
1, 311087, Note_on_c, 0, 68, 0
1, 311090, Note_on_c, 0, 51, 43
1, 311157, Note_on_c, 0, 51, 0
1, 311227, Note_on_c, 0, 44, 49
1, 311268, Control_c, 0, 64, 0
1, 311297, Note_on_c, 0, 44, 0
1, 311519, Note_on_c, 0, 70, 66
1, 311519, Note_on_c, 0, 75, 66
1, 311519, Note_on_c, 0, 79, 66
1, 311522, Note_on_c, 0, 82, 79
1, 311522, Note_on_c, 0, 39, 54
1, 311522, Note_on_c, 0, 51, 64
1, 311525, Control_c, 0, 64, 127
1, 311589, Note_on_c, 0, 51, 0
1, 311589, Note_on_c, 0, 39, 0
1, 311658, Note_on_c, 0, 40, 46
1, 311658, Note_on_c, 0, 52, 55
1, 311726, Note_on_c, 0, 52, 0
1, 311726, Note_on_c, 0, 40, 0
1, 311793, Note_on_c, 0, 82, 0
1, 311793, Note_on_c, 0, 70, 0
1, 311793, Note_on_c, 0, 75, 0
1, 311796, Note_on_c, 0, 79, 0
1, 311796, Note_on_c, 0, 70, 57
1, 311796, Note_on_c, 0, 79, 57
1, 311799, Note_on_c, 0, 75, 57
1, 311799, Note_on_c, 0, 82, 67
1, 311799, Note_on_c, 0, 37, 56
1, 311802, Note_on_c, 0, 49, 67
1, 311808, Control_c, 0, 64, 0
1, 311858, Note_on_c, 0, 82, 0
1, 311858, Note_on_c, 0, 70, 0
1, 311858, Note_on_c, 0, 79, 0
1, 311861, Note_on_c, 0, 75, 0
1, 311861, Note_on_c, 0, 49, 0
1, 311861, Note_on_c, 0, 37, 0
1, 311922, Note_on_c, 0, 70, 57
1, 311922, Note_on_c, 0, 79, 57
1, 311922, Note_on_c, 0, 75, 57
1, 311925, Note_on_c, 0, 82, 67
1, 311925, Note_on_c, 0, 39, 50
1, 311925, Note_on_c, 0, 51, 59
1, 311994, Note_on_c, 0, 82, 0
1, 311994, Note_on_c, 0, 70, 0
1, 311994, Note_on_c, 0, 79, 0
1, 311997, Note_on_c, 0, 75, 0
1, 311997, Note_on_c, 0, 51, 0
1, 311997, Note_on_c, 0, 39, 0
1, 312065, Note_on_c, 0, 75, 66
1, 312065, Note_on_c, 0, 78, 66
1, 312065, Note_on_c, 0, 87, 79
1, 312068, Note_on_c, 0, 35, 58
1, 312068, Note_on_c, 0, 47, 69
1, 312087, Control_c, 0, 64, 127
1, 312135, Note_on_c, 0, 47, 0
1, 312135, Note_on_c, 0, 35, 0
1, 312204, Note_on_c, 0, 37, 51
1, 312204, Note_on_c, 0, 49, 60
1, 312273, Note_on_c, 0, 49, 0
1, 312273, Note_on_c, 0, 37, 0
1, 312343, Note_on_c, 0, 87, 0
1, 312343, Note_on_c, 0, 78, 0
1, 312343, Note_on_c, 0, 75, 0
1, 312346, Note_on_c, 0, 78, 57
1, 312346, Note_on_c, 0, 75, 57
1, 312346, Note_on_c, 0, 87, 67
1, 312349, Note_on_c, 0, 33, 56
1, 312349, Note_on_c, 0, 45, 66
1, 312349, Control_c, 0, 64, 0
1, 312408, Note_on_c, 0, 87, 0
1, 312408, Note_on_c, 0, 75, 0
1, 312408, Note_on_c, 0, 78, 0
1, 312411, Note_on_c, 0, 45, 0
1, 312411, Note_on_c, 0, 33, 0
1, 312473, Note_on_c, 0, 78, 57
1, 312473, Note_on_c, 0, 75, 57
1, 312473, Note_on_c, 0, 87, 67
1, 312476, Note_on_c, 0, 35, 50
1, 312476, Note_on_c, 0, 47, 59
1, 312545, Note_on_c, 0, 87, 0
1, 312545, Note_on_c, 0, 75, 0
1, 312545, Note_on_c, 0, 78, 0
1, 312548, Note_on_c, 0, 47, 0
1, 312548, Note_on_c, 0, 35, 0
1, 312616, Note_on_c, 0, 73, 65
1, 312616, Note_on_c, 0, 76, 65
1, 312616, Note_on_c, 0, 85, 77
1, 312619, Note_on_c, 0, 31, 59
1, 312619, Note_on_c, 0, 43, 70
1, 312681, Note_on_c, 0, 85, 0
1, 312681, Note_on_c, 0, 76, 0
1, 312681, Note_on_c, 0, 73, 0
1, 312746, Note_on_c, 0, 71, 56
1, 312746, Note_on_c, 0, 75, 56
1, 312746, Note_on_c, 0, 83, 66
1, 312813, Note_on_c, 0, 83, 0
1, 312813, Note_on_c, 0, 75, 0
1, 312813, Note_on_c, 0, 71, 0
1, 312880, Note_on_c, 0, 70, 56
1, 312880, Note_on_c, 0, 73, 56
1, 312880, Note_on_c, 0, 82, 66
1, 312883, Note_on_c, 0, 43, 0
1, 312883, Note_on_c, 0, 31, 0
1, 312883, Note_on_c, 0, 32, 60
1, 312886, Note_on_c, 0, 44, 71
1, 312947, Note_on_c, 0, 82, 0
1, 312947, Note_on_c, 0, 73, 0
1, 312947, Note_on_c, 0, 70, 0
1, 313014, Note_on_c, 0, 68, 56
1, 313014, Note_on_c, 0, 71, 56
1, 313014, Note_on_c, 0, 80, 66
1, 313091, Note_on_c, 0, 80, 0
1, 313091, Note_on_c, 0, 71, 0
1, 313091, Note_on_c, 0, 68, 0
1, 313168, Note_on_c, 0, 70, 66
1, 313168, Note_on_c, 0, 75, 66
1, 313168, Note_on_c, 0, 82, 79
1, 313171, Note_on_c, 0, 44, 0
1, 313171, Note_on_c, 0, 32, 0
1, 313171, Note_on_c, 0, 39, 67
1, 313176, Control_c, 0, 64, 127
1, 313237, Note_on_c, 0, 39, 0
1, 313306, Note_on_c, 0, 46, 59
1, 313376, Note_on_c, 0, 46, 0
1, 313441, Control_c, 0, 64, 0
1, 313445, Note_on_c, 0, 82, 0
1, 313445, Note_on_c, 0, 75, 0
1, 313445, Note_on_c, 0, 70, 0
1, 313448, Note_on_c, 0, 75, 57
1, 313448, Note_on_c, 0, 70, 57
1, 313448, Note_on_c, 0, 82, 67
1, 313451, Note_on_c, 0, 51, 67
1, 313512, Note_on_c, 0, 82, 0
1, 313512, Note_on_c, 0, 70, 0
1, 313512, Note_on_c, 0, 75, 0
1, 313515, Note_on_c, 0, 51, 0
1, 313579, Note_on_c, 0, 75, 57
1, 313579, Note_on_c, 0, 70, 57
1, 313579, Note_on_c, 0, 82, 67
1, 313582, Note_on_c, 0, 58, 61
1, 313650, Note_on_c, 0, 82, 0
1, 313650, Note_on_c, 0, 70, 0
1, 313650, Note_on_c, 0, 75, 0
1, 313653, Note_on_c, 0, 58, 0
1, 313722, Note_on_c, 0, 67, 65
1, 313722, Note_on_c, 0, 73, 65
1, 313722, Note_on_c, 0, 75, 77
1, 313725, Note_on_c, 0, 63, 69
1, 313789, Note_on_c, 0, 75, 0
1, 313789, Note_on_c, 0, 73, 0
1, 313789, Note_on_c, 0, 67, 0
1, 313792, Note_on_c, 0, 63, 0
1, 313856, Note_on_c, 0, 68, 56
1, 313856, Note_on_c, 0, 77, 66
1, 313856, Note_on_c, 0, 58, 57
1, 313923, Note_on_c, 0, 77, 0
1, 313923, Note_on_c, 0, 68, 0
1, 313923, Note_on_c, 0, 58, 0
1, 313991, Note_on_c, 0, 70, 56
1, 313991, Note_on_c, 0, 73, 56
1, 313991, Note_on_c, 0, 79, 66
1, 313994, Note_on_c, 0, 51, 67
1, 314058, Note_on_c, 0, 79, 0
1, 314058, Note_on_c, 0, 73, 0
1, 314058, Note_on_c, 0, 70, 0
1, 314061, Note_on_c, 0, 51, 0
1, 314125, Note_on_c, 0, 67, 56
1, 314125, Note_on_c, 0, 75, 66
1, 314125, Note_on_c, 0, 61, 61
1, 314202, Note_on_c, 0, 75, 0
1, 314202, Note_on_c, 0, 67, 0
1, 314202, Note_on_c, 0, 61, 0
1, 314279, Note_on_c, 0, 68, 66
1, 314279, Note_on_c, 0, 75, 66
1, 314279, Note_on_c, 0, 80, 79
1, 314282, Note_on_c, 0, 60, 76
1, 314282, Control_c, 0, 64, 127
1, 314346, Note_on_c, 0, 60, 0
1, 314413, Note_on_c, 0, 80, 0
1, 314413, Note_on_c, 0, 75, 0
1, 314413, Note_on_c, 0, 68, 0
1, 314416, Note_on_c, 0, 51, 64
1, 314483, Note_on_c, 0, 51, 0
1, 314553, Note_on_c, 0, 44, 71
1, 314594, Control_c, 0, 64, 0
1, 314623, Note_on_c, 0, 44, 0
1, 314901, Note_on_c, 0, 71, 35
1, 314901, Note_on_c, 0, 81, 50
1, 314901, Note_on_c, 0, 63, 34
1, 314931, Control_c, 0, 64, 127
1, 314988, Note_on_c, 0, 63, 0
1, 314988, Note_on_c, 0, 73, 25
1, 315076, Note_on_c, 0, 73, 0
1, 315076, Note_on_c, 0, 66, 25
1, 315164, Note_on_c, 0, 81, 0
1, 315164, Note_on_c, 0, 83, 36
1, 315164, Note_on_c, 0, 66, 0
1, 315167, Note_on_c, 0, 73, 25
1, 315202, Note_on_c, 0, 83, 0
1, 315202, Note_on_c, 0, 81, 36
1, 315239, Note_on_c, 0, 81, 0
1, 315239, Note_on_c, 0, 80, 50
1, 315239, Note_on_c, 0, 73, 0
1, 315242, Note_on_c, 0, 59, 31
1, 315251, Control_c, 0, 64, 0
1, 315286, Control_c, 0, 64, 127
1, 315322, Note_on_c, 0, 59, 0
1, 315322, Note_on_c, 0, 73, 25
1, 315406, Note_on_c, 0, 80, 0
1, 315406, Note_on_c, 0, 78, 41
1, 315406, Note_on_c, 0, 73, 0
1, 315409, Note_on_c, 0, 66, 25
1, 315484, Note_on_c, 0, 66, 0
1, 315484, Note_on_c, 0, 73, 25
1, 315562, Note_on_c, 0, 78, 0
1, 315562, Note_on_c, 0, 71, 0
1, 315562, Note_on_c, 0, 71, 29
1, 315565, Note_on_c, 0, 83, 43
1, 315565, Note_on_c, 0, 73, 0
1, 315565, Note_on_c, 0, 64, 34
1, 315568, Control_c, 0, 64, 0
1, 315617, Control_c, 0, 64, 127
1, 315647, Note_on_c, 0, 64, 0
1, 315647, Note_on_c, 0, 73, 25
1, 315733, Note_on_c, 0, 83, 0
1, 315733, Note_on_c, 0, 75, 45
1, 315733, Note_on_c, 0, 73, 0
1, 315736, Note_on_c, 0, 68, 25
1, 315819, Note_on_c, 0, 68, 0
1, 315819, Note_on_c, 0, 73, 25
1, 315862, Note_on_c, 0, 75, 0
1, 315862, Note_on_c, 0, 78, 35
1, 315899, Note_on_c, 0, 78, 0
1, 315899, Note_on_c, 0, 76, 43
1, 315899, Note_on_c, 0, 73, 0
1, 315902, Note_on_c, 0, 59, 31
1, 315909, Control_c, 0, 64, 0
1, 315943, Control_c, 0, 64, 127
1, 315982, Note_on_c, 0, 59, 0
1, 315982, Note_on_c, 0, 73, 25
1, 316065, Note_on_c, 0, 73, 0
1, 316065, Note_on_c, 0, 68, 25
1, 316149, Note_on_c, 0, 68, 0
1, 316149, Note_on_c, 0, 73, 25
1, 316232, Note_on_c, 0, 76, 0
1, 316232, Note_on_c, 0, 71, 0
1, 316232, Note_on_c, 0, 71, 35
1, 316235, Note_on_c, 0, 81, 50
1, 316235, Note_on_c, 0, 73, 0
1, 316235, Note_on_c, 0, 63, 34
1, 316267, Control_c, 0, 64, 0
1, 316300, Control_c, 0, 64, 127
1, 316317, Note_on_c, 0, 63, 0
1, 316317, Note_on_c, 0, 73, 25
1, 316403, Note_on_c, 0, 73, 0
1, 316403, Note_on_c, 0, 66, 25
1, 316489, Note_on_c, 0, 81, 0
1, 316489, Note_on_c, 0, 83, 36
1, 316489, Note_on_c, 0, 66, 0
1, 316492, Note_on_c, 0, 73, 25
1, 316527, Note_on_c, 0, 83, 0
1, 316527, Note_on_c, 0, 81, 36
1, 316564, Note_on_c, 0, 81, 0
1, 316564, Note_on_c, 0, 80, 50
1, 316564, Note_on_c, 0, 73, 0
1, 316567, Note_on_c, 0, 59, 31
1, 316576, Control_c, 0, 64, 0
1, 316609, Control_c, 0, 64, 127
1, 316645, Note_on_c, 0, 59, 0
1, 316645, Note_on_c, 0, 73, 25
1, 316725, Note_on_c, 0, 80, 0
1, 316725, Note_on_c, 0, 78, 41
1, 316725, Note_on_c, 0, 73, 0
1, 316728, Note_on_c, 0, 66, 25
1, 316801, Note_on_c, 0, 66, 0
1, 316801, Note_on_c, 0, 73, 25
1, 316878, Note_on_c, 0, 78, 0
1, 316878, Note_on_c, 0, 71, 0
1, 316878, Note_on_c, 0, 71, 29
1, 316881, Note_on_c, 0, 83, 44
1, 316881, Note_on_c, 0, 73, 0
1, 316881, Note_on_c, 0, 64, 34
1, 316884, Control_c, 0, 64, 0
1, 316933, Control_c, 0, 64, 127
1, 316963, Note_on_c, 0, 64, 0
1, 316963, Note_on_c, 0, 73, 25
1, 317049, Note_on_c, 0, 83, 0
1, 317049, Note_on_c, 0, 75, 45
1, 317049, Note_on_c, 0, 73, 0
1, 317052, Note_on_c, 0, 68, 25
1, 317135, Note_on_c, 0, 68, 0
1, 317135, Note_on_c, 0, 73, 25
1, 317178, Note_on_c, 0, 75, 0
1, 317178, Note_on_c, 0, 78, 35
1, 317215, Note_on_c, 0, 78, 0
1, 317215, Note_on_c, 0, 76, 43
1, 317215, Note_on_c, 0, 73, 0
1, 317218, Note_on_c, 0, 59, 31
1, 317225, Control_c, 0, 64, 0
1, 317259, Control_c, 0, 64, 127
1, 317298, Note_on_c, 0, 59, 0
1, 317298, Note_on_c, 0, 73, 25
1, 317381, Note_on_c, 0, 73, 0
1, 317381, Note_on_c, 0, 68, 25
1, 317473, Note_on_c, 0, 68, 0
1, 317473, Note_on_c, 0, 64, 25
1, 317564, Note_on_c, 0, 76, 0
1, 317564, Note_on_c, 0, 71, 0
1, 317564, Note_on_c, 0, 64, 0
1, 317567, Note_on_c, 0, 37, 44
1, 317567, Note_on_c, 0, 49, 52
1, 317567, Control_c, 0, 64, 0
1, 317632, Control_c, 0, 64, 127
1, 317643, Note_on_c, 0, 54, 36
1, 317643, Note_on_c, 0, 49, 0
1, 317643, Note_on_c, 0, 42, 47
1, 317722, Note_on_c, 0, 54, 0
1, 317722, Note_on_c, 0, 58, 41
1, 317801, Note_on_c, 0, 58, 0
1, 317801, Note_on_c, 0, 66, 36
1, 317801, Note_on_c, 0, 64, 28
1, 317889, Note_on_c, 0, 64, 0
1, 317889, Note_on_c, 0, 66, 0
1, 317889, Note_on_c, 0, 42, 0
1, 317892, Note_on_c, 0, 37, 0
1, 317892, Note_on_c, 0, 35, 32
1, 317892, Note_on_c, 0, 47, 38
1, 317899, Control_c, 0, 64, 0
1, 317960, Control_c, 0, 64, 127
1, 317972, Note_on_c, 0, 54, 24
1, 317972, Note_on_c, 0, 47, 0
1, 317972, Note_on_c, 0, 42, 35
1, 318054, Note_on_c, 0, 54, 0
1, 318054, Note_on_c, 0, 59, 27
1, 318149, Note_on_c, 0, 59, 0
1, 318149, Note_on_c, 0, 66, 24
1, 318149, Note_on_c, 0, 63, 19
1, 318291, Note_on_c, 0, 63, 0
1, 318291, Note_on_c, 0, 66, 0
1, 318291, Note_on_c, 0, 71, 35
1, 318294, Note_on_c, 0, 81, 50
1, 318294, Note_on_c, 0, 42, 0
1, 318294, Note_on_c, 0, 35, 0
1, 318297, Note_on_c, 0, 63, 34
1, 318297, Control_c, 0, 64, 0
1, 318321, Control_c, 0, 64, 127
1, 318378, Note_on_c, 0, 63, 0
1, 318378, Note_on_c, 0, 73, 25
1, 318466, Note_on_c, 0, 73, 0
1, 318466, Note_on_c, 0, 66, 25
1, 318554, Note_on_c, 0, 81, 0
1, 318554, Note_on_c, 0, 83, 36
1, 318554, Note_on_c, 0, 66, 0
1, 318557, Note_on_c, 0, 73, 25
1, 318592, Note_on_c, 0, 83, 0
1, 318592, Note_on_c, 0, 81, 36
1, 318629, Note_on_c, 0, 81, 0
1, 318629, Note_on_c, 0, 80, 50
1, 318629, Note_on_c, 0, 73, 0
1, 318632, Note_on_c, 0, 59, 31
1, 318641, Control_c, 0, 64, 0
1, 318674, Control_c, 0, 64, 127
1, 318710, Note_on_c, 0, 59, 0
1, 318710, Note_on_c, 0, 73, 25
1, 318790, Note_on_c, 0, 80, 0
1, 318790, Note_on_c, 0, 78, 41
1, 318790, Note_on_c, 0, 73, 0
1, 318793, Note_on_c, 0, 66, 25
1, 318866, Note_on_c, 0, 66, 0
1, 318866, Note_on_c, 0, 73, 25
1, 318943, Note_on_c, 0, 78, 0
1, 318943, Note_on_c, 0, 71, 0
1, 318943, Note_on_c, 0, 71, 29
1, 318946, Note_on_c, 0, 83, 43
1, 318946, Note_on_c, 0, 73, 0
1, 318946, Note_on_c, 0, 64, 34
1, 318949, Control_c, 0, 64, 0
1, 318998, Control_c, 0, 64, 127
1, 319028, Note_on_c, 0, 64, 0
1, 319028, Note_on_c, 0, 73, 25
1, 319114, Note_on_c, 0, 83, 0
1, 319114, Note_on_c, 0, 75, 45
1, 319114, Note_on_c, 0, 73, 0
1, 319117, Note_on_c, 0, 68, 25
1, 319200, Note_on_c, 0, 68, 0
1, 319200, Note_on_c, 0, 73, 25
1, 319243, Note_on_c, 0, 75, 0
1, 319243, Note_on_c, 0, 78, 35
1, 319280, Note_on_c, 0, 78, 0
1, 319280, Note_on_c, 0, 76, 43
1, 319280, Note_on_c, 0, 73, 0
1, 319283, Note_on_c, 0, 59, 31
1, 319290, Control_c, 0, 64, 0
1, 319324, Control_c, 0, 64, 127
1, 319363, Note_on_c, 0, 59, 0
1, 319363, Note_on_c, 0, 73, 25
1, 319446, Note_on_c, 0, 73, 0
1, 319446, Note_on_c, 0, 68, 25
1, 319529, Note_on_c, 0, 68, 0
1, 319529, Note_on_c, 0, 73, 25
1, 319613, Note_on_c, 0, 76, 0
1, 319613, Note_on_c, 0, 71, 0
1, 319613, Note_on_c, 0, 71, 35
1, 319616, Note_on_c, 0, 81, 50
1, 319616, Note_on_c, 0, 73, 0
1, 319616, Note_on_c, 0, 63, 34
1, 319649, Control_c, 0, 64, 0
1, 319682, Control_c, 0, 64, 127
1, 319700, Note_on_c, 0, 63, 0
1, 319700, Note_on_c, 0, 73, 25
1, 319788, Note_on_c, 0, 73, 0
1, 319788, Note_on_c, 0, 66, 25
1, 319876, Note_on_c, 0, 81, 0
1, 319876, Note_on_c, 0, 83, 36
1, 319876, Note_on_c, 0, 66, 0
1, 319879, Note_on_c, 0, 73, 25
1, 319914, Note_on_c, 0, 83, 0
1, 319914, Note_on_c, 0, 81, 36
1, 319951, Note_on_c, 0, 81, 0
1, 319951, Note_on_c, 0, 80, 50
1, 319951, Note_on_c, 0, 73, 0
1, 319954, Note_on_c, 0, 59, 31
1, 319963, Control_c, 0, 64, 0
1, 319996, Control_c, 0, 64, 127
1, 320032, Note_on_c, 0, 59, 0
1, 320032, Note_on_c, 0, 73, 25
1, 320112, Note_on_c, 0, 80, 0
1, 320112, Note_on_c, 0, 78, 41
1, 320112, Note_on_c, 0, 73, 0
1, 320115, Note_on_c, 0, 66, 25
1, 320188, Note_on_c, 0, 66, 0
1, 320188, Note_on_c, 0, 73, 25
1, 320265, Note_on_c, 0, 78, 0
1, 320265, Note_on_c, 0, 71, 0
1, 320265, Note_on_c, 0, 71, 29
1, 320268, Note_on_c, 0, 83, 44
1, 320268, Note_on_c, 0, 73, 0
1, 320268, Note_on_c, 0, 64, 34
1, 320271, Control_c, 0, 64, 0
1, 320320, Control_c, 0, 64, 127
1, 320350, Note_on_c, 0, 64, 0
1, 320350, Note_on_c, 0, 73, 25
1, 320436, Note_on_c, 0, 83, 0
1, 320436, Note_on_c, 0, 75, 45
1, 320436, Note_on_c, 0, 73, 0
1, 320439, Note_on_c, 0, 68, 25
1, 320522, Note_on_c, 0, 68, 0
1, 320522, Note_on_c, 0, 73, 25
1, 320565, Note_on_c, 0, 75, 0
1, 320565, Note_on_c, 0, 78, 35
1, 320602, Note_on_c, 0, 78, 0
1, 320602, Note_on_c, 0, 76, 43
1, 320602, Note_on_c, 0, 73, 0
1, 320605, Note_on_c, 0, 59, 31
1, 320612, Control_c, 0, 64, 0
1, 320646, Control_c, 0, 64, 127
1, 320685, Note_on_c, 0, 59, 0
1, 320685, Note_on_c, 0, 73, 25
1, 320768, Note_on_c, 0, 73, 0
1, 320768, Note_on_c, 0, 68, 25
1, 320860, Note_on_c, 0, 68, 0
1, 320860, Note_on_c, 0, 64, 25
1, 320951, Note_on_c, 0, 76, 0
1, 320951, Note_on_c, 0, 71, 0
1, 320951, Note_on_c, 0, 64, 0
1, 320954, Note_on_c, 0, 37, 44
1, 320954, Note_on_c, 0, 49, 52
1, 320954, Control_c, 0, 64, 0
1, 321019, Control_c, 0, 64, 127
1, 321030, Note_on_c, 0, 54, 36
1, 321030, Note_on_c, 0, 49, 0
1, 321030, Note_on_c, 0, 42, 47
1, 321109, Note_on_c, 0, 54, 0
1, 321109, Note_on_c, 0, 58, 41
1, 321188, Note_on_c, 0, 58, 0
1, 321188, Note_on_c, 0, 66, 36
1, 321188, Note_on_c, 0, 64, 28
1, 321273, Note_on_c, 0, 64, 0
1, 321273, Note_on_c, 0, 66, 0
1, 321273, Note_on_c, 0, 42, 0
1, 321276, Note_on_c, 0, 37, 0
1, 321276, Note_on_c, 0, 35, 32
1, 321276, Note_on_c, 0, 47, 38
1, 321280, Control_c, 0, 64, 0
1, 321344, Control_c, 0, 64, 127
1, 321355, Note_on_c, 0, 54, 24
1, 321355, Note_on_c, 0, 47, 0
1, 321355, Note_on_c, 0, 42, 35
1, 321444, Note_on_c, 0, 54, 0
1, 321444, Note_on_c, 0, 59, 27
1, 321538, Note_on_c, 0, 59, 0
1, 321538, Note_on_c, 0, 66, 24
1, 321538, Note_on_c, 0, 63, 19
1, 321688, Note_on_c, 0, 63, 0
1, 321688, Note_on_c, 0, 66, 0
1, 321688, Note_on_c, 0, 71, 35
1, 321691, Note_on_c, 0, 78, 50
1, 321691, Note_on_c, 0, 42, 0
1, 321691, Note_on_c, 0, 35, 0
1, 321694, Note_on_c, 0, 62, 34
1, 321694, Control_c, 0, 64, 0
1, 321694, Control_c, 0, 64, 0
1, 321719, Control_c, 0, 64, 127
1, 321776, Note_on_c, 0, 62, 0
1, 321776, Note_on_c, 0, 73, 25
1, 321863, Note_on_c, 0, 73, 0
1, 321863, Note_on_c, 0, 66, 25
1, 321951, Note_on_c, 0, 78, 0
1, 321951, Note_on_c, 0, 80, 36
1, 321951, Note_on_c, 0, 66, 0
1, 321954, Note_on_c, 0, 73, 25
1, 321989, Note_on_c, 0, 80, 0
1, 321989, Note_on_c, 0, 78, 36
1, 322027, Note_on_c, 0, 78, 0
1, 322027, Note_on_c, 0, 77, 50
1, 322027, Note_on_c, 0, 73, 0
1, 322030, Note_on_c, 0, 62, 31
1, 322038, Control_c, 0, 64, 0
1, 322071, Control_c, 0, 64, 127
1, 322107, Note_on_c, 0, 62, 0
1, 322107, Note_on_c, 0, 73, 25
1, 322187, Note_on_c, 0, 77, 0
1, 322187, Note_on_c, 0, 78, 41
1, 322187, Note_on_c, 0, 73, 0
1, 322190, Note_on_c, 0, 66, 25
1, 322263, Note_on_c, 0, 66, 0
1, 322263, Note_on_c, 0, 73, 25
1, 322302, Note_on_c, 0, 78, 0
1, 322302, Note_on_c, 0, 81, 35
1, 322340, Note_on_c, 0, 81, 0
1, 322340, Note_on_c, 0, 71, 0
1, 322340, Note_on_c, 0, 71, 29
1, 322343, Note_on_c, 0, 80, 43
1, 322343, Note_on_c, 0, 73, 0
1, 322343, Note_on_c, 0, 64, 34
1, 322346, Control_c, 0, 64, 0
1, 322395, Control_c, 0, 64, 127
1, 322426, Note_on_c, 0, 64, 0
1, 322426, Note_on_c, 0, 73, 25
1, 322511, Note_on_c, 0, 73, 0
1, 322511, Note_on_c, 0, 68, 25
1, 322597, Note_on_c, 0, 68, 0
1, 322597, Note_on_c, 0, 73, 25
1, 322640, Note_on_c, 0, 80, 0
1, 322640, Note_on_c, 0, 80, 35
1, 322677, Note_on_c, 0, 80, 0
1, 322677, Note_on_c, 0, 71, 0
1, 322677, Note_on_c, 0, 71, 29
1, 322680, Note_on_c, 0, 78, 43
1, 322680, Note_on_c, 0, 73, 0
1, 322680, Note_on_c, 0, 62, 31
1, 322687, Control_c, 0, 64, 0
1, 322721, Control_c, 0, 64, 127
1, 322760, Note_on_c, 0, 62, 0
1, 322760, Note_on_c, 0, 73, 25
1, 322843, Note_on_c, 0, 73, 0
1, 322843, Note_on_c, 0, 66, 25
1, 322927, Note_on_c, 0, 66, 0
1, 322927, Note_on_c, 0, 73, 25
1, 323010, Note_on_c, 0, 78, 0
1, 323010, Note_on_c, 0, 71, 0
1, 323010, Note_on_c, 0, 73, 0
1, 323013, Note_on_c, 0, 37, 44
1, 323013, Note_on_c, 0, 49, 52
1, 323013, Control_c, 0, 64, 0
1, 323078, Control_c, 0, 64, 127
1, 323089, Note_on_c, 0, 54, 36
1, 323089, Note_on_c, 0, 49, 0
1, 323089, Note_on_c, 0, 42, 47
1, 323168, Note_on_c, 0, 54, 0
1, 323168, Note_on_c, 0, 58, 41
1, 323247, Note_on_c, 0, 58, 0
1, 323247, Note_on_c, 0, 66, 36
1, 323247, Note_on_c, 0, 64, 28
1, 323332, Note_on_c, 0, 64, 0
1, 323332, Note_on_c, 0, 66, 0
1, 323332, Note_on_c, 0, 42, 0
1, 323335, Note_on_c, 0, 37, 0
1, 323335, Note_on_c, 0, 35, 32
1, 323335, Note_on_c, 0, 47, 38
1, 323338, Control_c, 0, 64, 0
1, 323403, Control_c, 0, 64, 127
1, 323415, Note_on_c, 0, 54, 24
1, 323415, Note_on_c, 0, 47, 0
1, 323415, Note_on_c, 0, 42, 35
1, 323503, Note_on_c, 0, 54, 0
1, 323503, Note_on_c, 0, 59, 27
1, 323598, Note_on_c, 0, 59, 0
1, 323598, Note_on_c, 0, 66, 24
1, 323598, Note_on_c, 0, 63, 19
1, 323712, Note_on_c, 0, 63, 0
1, 323712, Note_on_c, 0, 66, 0
1, 323712, Note_on_c, 0, 81, 37
1, 323748, Note_on_c, 0, 81, 0
1, 323748, Note_on_c, 0, 80, 50
1, 323748, Note_on_c, 0, 42, 0
1, 323751, Note_on_c, 0, 35, 0
1, 323751, Note_on_c, 0, 62, 34
1, 323751, Control_c, 0, 64, 0
1, 323754, Control_c, 0, 64, 0
1, 323777, Control_c, 0, 64, 127
1, 323830, Note_on_c, 0, 80, 0
1, 323830, Note_on_c, 0, 62, 0
1, 323830, Note_on_c, 0, 73, 25
1, 323872, Note_on_c, 0, 80, 37
1, 323907, Note_on_c, 0, 80, 0
1, 323907, Note_on_c, 0, 78, 50
1, 323907, Note_on_c, 0, 73, 0
1, 323910, Note_on_c, 0, 66, 25
1, 323917, Control_c, 0, 64, 0
1, 323945, Control_c, 0, 64, 127
1, 323988, Note_on_c, 0, 78, 0
1, 323988, Note_on_c, 0, 66, 0
1, 323988, Note_on_c, 0, 73, 25
1, 324028, Note_on_c, 0, 78, 37
1, 324063, Note_on_c, 0, 78, 0
1, 324063, Note_on_c, 0, 77, 50
1, 324063, Note_on_c, 0, 73, 0
1, 324066, Note_on_c, 0, 62, 31
1, 324075, Control_c, 0, 64, 0
1, 324110, Control_c, 0, 64, 127
1, 324147, Note_on_c, 0, 77, 0
1, 324147, Note_on_c, 0, 62, 0
1, 324147, Note_on_c, 0, 71, 25
1, 324189, Note_on_c, 0, 77, 37
1, 324225, Note_on_c, 0, 77, 0
1, 324225, Note_on_c, 0, 74, 50
1, 324225, Note_on_c, 0, 71, 0
1, 324228, Note_on_c, 0, 66, 25
1, 324233, Control_c, 0, 64, 0
1, 324259, Control_c, 0, 64, 127
1, 324313, Note_on_c, 0, 74, 0
1, 324313, Note_on_c, 0, 66, 0
1, 324313, Note_on_c, 0, 71, 25
1, 324401, Note_on_c, 0, 73, 50
1, 324401, Note_on_c, 0, 71, 0
1, 324401, Note_on_c, 0, 65, 34
1, 324408, Control_c, 0, 64, 0
1, 324454, Control_c, 0, 64, 127
1, 324487, Note_on_c, 0, 73, 0
1, 324487, Note_on_c, 0, 65, 0
1, 324487, Note_on_c, 0, 71, 25
1, 324573, Note_on_c, 0, 85, 50
1, 324573, Note_on_c, 0, 71, 0
1, 324573, Note_on_c, 0, 68, 25
1, 324582, Control_c, 0, 64, 0
1, 324630, Control_c, 0, 64, 127
1, 324659, Note_on_c, 0, 85, 0
1, 324659, Note_on_c, 0, 68, 0
1, 324659, Note_on_c, 0, 71, 25
1, 324744, Note_on_c, 0, 85, 50
1, 324744, Note_on_c, 0, 71, 0
1, 324744, Note_on_c, 0, 66, 31
1, 324754, Control_c, 0, 64, 0
1, 324789, Control_c, 0, 64, 127
1, 324830, Note_on_c, 0, 85, 0
1, 324830, Note_on_c, 0, 66, 0
1, 324830, Note_on_c, 0, 76, 25
1, 324916, Note_on_c, 0, 97, 50
1, 324916, Note_on_c, 0, 76, 0
1, 324916, Note_on_c, 0, 70, 25
1, 324922, Control_c, 0, 64, 0
1, 324957, Control_c, 0, 64, 127
1, 325002, Note_on_c, 0, 97, 0
1, 325002, Note_on_c, 0, 70, 0
1, 325002, Note_on_c, 0, 76, 25
1, 325096, Note_on_c, 0, 76, 0
1, 325096, Note_on_c, 0, 42, 46
1, 325096, Control_c, 0, 64, 0
1, 325164, Control_c, 0, 64, 127
1, 325176, Note_on_c, 0, 54, 32
1, 325176, Note_on_c, 0, 49, 42
1, 325255, Note_on_c, 0, 54, 0
1, 325255, Note_on_c, 0, 58, 36
1, 325335, Note_on_c, 0, 58, 0
1, 325335, Note_on_c, 0, 66, 32
1, 325335, Note_on_c, 0, 64, 25
1, 325418, Note_on_c, 0, 64, 0
1, 325418, Note_on_c, 0, 66, 0
1, 325418, Note_on_c, 0, 49, 0
1, 325421, Note_on_c, 0, 42, 0
1, 325421, Note_on_c, 0, 35, 34
1, 325427, Control_c, 0, 64, 0
1, 325489, Control_c, 0, 64, 127
1, 325501, Note_on_c, 0, 54, 21
1, 325501, Note_on_c, 0, 47, 31
1, 325589, Note_on_c, 0, 54, 0
1, 325589, Note_on_c, 0, 59, 24
1, 325684, Note_on_c, 0, 59, 0
1, 325684, Note_on_c, 0, 66, 21
1, 325684, Note_on_c, 0, 63, 17
1, 325833, Note_on_c, 0, 63, 0
1, 325833, Note_on_c, 0, 66, 0
1, 325833, Note_on_c, 0, 71, 35
1, 325836, Note_on_c, 0, 78, 50
1, 325836, Note_on_c, 0, 47, 0
1, 325836, Note_on_c, 0, 35, 0
1, 325839, Note_on_c, 0, 62, 34
1, 325839, Control_c, 0, 64, 0
1, 325839, Control_c, 0, 64, 0
1, 325864, Control_c, 0, 64, 127
1, 325921, Note_on_c, 0, 62, 0
1, 325921, Note_on_c, 0, 73, 25
1, 326009, Note_on_c, 0, 73, 0
1, 326009, Note_on_c, 0, 66, 25
1, 326097, Note_on_c, 0, 78, 0
1, 326097, Note_on_c, 0, 80, 36
1, 326097, Note_on_c, 0, 66, 0
1, 326100, Note_on_c, 0, 73, 25
1, 326134, Note_on_c, 0, 80, 0
1, 326134, Note_on_c, 0, 78, 36
1, 326172, Note_on_c, 0, 78, 0
1, 326172, Note_on_c, 0, 77, 50
1, 326172, Note_on_c, 0, 73, 0
1, 326175, Note_on_c, 0, 62, 31
1, 326183, Control_c, 0, 64, 0
1, 326217, Control_c, 0, 64, 127
1, 326252, Note_on_c, 0, 62, 0
1, 326252, Note_on_c, 0, 73, 25
1, 326333, Note_on_c, 0, 77, 0
1, 326333, Note_on_c, 0, 78, 41
1, 326333, Note_on_c, 0, 73, 0
1, 326336, Note_on_c, 0, 66, 25
1, 326409, Note_on_c, 0, 66, 0
1, 326409, Note_on_c, 0, 73, 25
1, 326447, Note_on_c, 0, 78, 0
1, 326447, Note_on_c, 0, 81, 35
1, 326485, Note_on_c, 0, 81, 0
1, 326485, Note_on_c, 0, 71, 0
1, 326485, Note_on_c, 0, 71, 29
1, 326488, Note_on_c, 0, 80, 43
1, 326488, Note_on_c, 0, 73, 0
1, 326488, Note_on_c, 0, 64, 34
1, 326492, Control_c, 0, 64, 0
1, 326540, Control_c, 0, 64, 127
1, 326571, Note_on_c, 0, 64, 0
1, 326571, Note_on_c, 0, 73, 25
1, 326657, Note_on_c, 0, 73, 0
1, 326657, Note_on_c, 0, 68, 25
1, 326743, Note_on_c, 0, 68, 0
1, 326743, Note_on_c, 0, 73, 25
1, 326785, Note_on_c, 0, 80, 0
1, 326785, Note_on_c, 0, 80, 35
1, 326823, Note_on_c, 0, 80, 0
1, 326823, Note_on_c, 0, 71, 0
1, 326823, Note_on_c, 0, 71, 29
1, 326826, Note_on_c, 0, 78, 43
1, 326826, Note_on_c, 0, 73, 0
1, 326826, Note_on_c, 0, 62, 31
1, 326832, Control_c, 0, 64, 0
1, 326866, Control_c, 0, 64, 127
1, 326906, Note_on_c, 0, 62, 0
1, 326906, Note_on_c, 0, 73, 25
1, 326989, Note_on_c, 0, 73, 0
1, 326989, Note_on_c, 0, 66, 25
1, 327072, Note_on_c, 0, 66, 0
1, 327072, Note_on_c, 0, 73, 25
1, 327155, Note_on_c, 0, 78, 0
1, 327155, Note_on_c, 0, 71, 0
1, 327155, Note_on_c, 0, 73, 0
1, 327158, Note_on_c, 0, 37, 39
1, 327158, Note_on_c, 0, 49, 46
1, 327158, Control_c, 0, 64, 0
1, 327223, Control_c, 0, 64, 127
1, 327235, Note_on_c, 0, 54, 32
1, 327235, Note_on_c, 0, 49, 0
1, 327235, Note_on_c, 0, 42, 42
1, 327314, Note_on_c, 0, 54, 0
1, 327314, Note_on_c, 0, 58, 36
1, 327393, Note_on_c, 0, 58, 0
1, 327393, Note_on_c, 0, 66, 32
1, 327393, Note_on_c, 0, 64, 25
1, 327476, Note_on_c, 0, 64, 0
1, 327476, Note_on_c, 0, 66, 0
1, 327476, Note_on_c, 0, 42, 0
1, 327479, Note_on_c, 0, 37, 0
1, 327479, Note_on_c, 0, 35, 28
1, 327479, Note_on_c, 0, 47, 34
1, 327482, Control_c, 0, 64, 0
1, 327547, Control_c, 0, 64, 127
1, 327559, Note_on_c, 0, 54, 21
1, 327559, Note_on_c, 0, 47, 0
1, 327559, Note_on_c, 0, 42, 31
1, 327647, Note_on_c, 0, 54, 0
1, 327647, Note_on_c, 0, 59, 24
1, 327741, Note_on_c, 0, 59, 0
1, 327741, Note_on_c, 0, 66, 24
1, 327741, Note_on_c, 0, 63, 19
1, 327856, Note_on_c, 0, 63, 0
1, 327856, Note_on_c, 0, 66, 0
1, 327856, Note_on_c, 0, 81, 37
1, 327892, Note_on_c, 0, 81, 0
1, 327892, Note_on_c, 0, 80, 50
1, 327892, Note_on_c, 0, 42, 0
1, 327895, Note_on_c, 0, 35, 0
1, 327895, Note_on_c, 0, 62, 34
1, 327895, Control_c, 0, 64, 0
1, 327898, Control_c, 0, 64, 0
1, 327920, Control_c, 0, 64, 127
1, 327973, Note_on_c, 0, 80, 0
1, 327973, Note_on_c, 0, 62, 0
1, 327973, Note_on_c, 0, 73, 25
1, 328014, Note_on_c, 0, 80, 37
1, 328049, Note_on_c, 0, 80, 0
1, 328049, Note_on_c, 0, 78, 50
1, 328049, Note_on_c, 0, 73, 0
1, 328052, Note_on_c, 0, 66, 25
1, 328059, Control_c, 0, 64, 0
1, 328088, Control_c, 0, 64, 127
1, 328132, Note_on_c, 0, 78, 0
1, 328132, Note_on_c, 0, 66, 0
1, 328132, Note_on_c, 0, 73, 25
1, 328174, Note_on_c, 0, 78, 37
1, 328209, Note_on_c, 0, 78, 0
1, 328209, Note_on_c, 0, 77, 50
1, 328209, Note_on_c, 0, 73, 0
1, 328212, Note_on_c, 0, 62, 31
1, 328221, Control_c, 0, 64, 0
1, 328256, Control_c, 0, 64, 127
1, 328294, Note_on_c, 0, 77, 0
1, 328294, Note_on_c, 0, 62, 0
1, 328294, Note_on_c, 0, 71, 25
1, 328336, Note_on_c, 0, 77, 37
1, 328371, Note_on_c, 0, 77, 0
1, 328371, Note_on_c, 0, 74, 50
1, 328371, Note_on_c, 0, 71, 0
1, 328374, Note_on_c, 0, 66, 25
1, 328379, Control_c, 0, 64, 0
1, 328404, Control_c, 0, 64, 127
1, 328456, Note_on_c, 0, 74, 0
1, 328456, Note_on_c, 0, 66, 0
1, 328456, Note_on_c, 0, 71, 25
1, 328541, Note_on_c, 0, 73, 50
1, 328541, Note_on_c, 0, 71, 0
1, 328541, Note_on_c, 0, 65, 34
1, 328548, Control_c, 0, 64, 0
1, 328594, Control_c, 0, 64, 127
1, 328627, Note_on_c, 0, 73, 0
1, 328627, Note_on_c, 0, 65, 0
1, 328627, Note_on_c, 0, 71, 25
1, 328713, Note_on_c, 0, 85, 50
1, 328713, Note_on_c, 0, 71, 0
1, 328713, Note_on_c, 0, 68, 25
1, 328724, Control_c, 0, 64, 0
1, 328770, Control_c, 0, 64, 127
1, 328799, Note_on_c, 0, 85, 0
1, 328799, Note_on_c, 0, 68, 0
1, 328799, Note_on_c, 0, 71, 25
1, 328884, Note_on_c, 0, 85, 50
1, 328884, Note_on_c, 0, 71, 0
1, 328884, Note_on_c, 0, 66, 31
1, 328894, Control_c, 0, 64, 0
1, 328929, Control_c, 0, 64, 127
1, 328970, Note_on_c, 0, 85, 0
1, 328970, Note_on_c, 0, 66, 0
1, 328970, Note_on_c, 0, 76, 25
1, 329056, Note_on_c, 0, 97, 50
1, 329056, Note_on_c, 0, 76, 0
1, 329056, Note_on_c, 0, 70, 25
1, 329062, Control_c, 0, 64, 0
1, 329103, Control_c, 0, 64, 127
1, 329154, Note_on_c, 0, 97, 0
1, 329154, Note_on_c, 0, 70, 0
1, 329154, Note_on_c, 0, 76, 25
1, 329253, Note_on_c, 0, 76, 0
1, 329253, Note_on_c, 0, 42, 44
1, 329253, Control_c, 0, 64, 0
1, 329338, Control_c, 0, 64, 127
1, 329352, Note_on_c, 0, 54, 30
1, 329352, Note_on_c, 0, 49, 39
1, 329450, Note_on_c, 0, 54, 0
1, 329450, Note_on_c, 0, 58, 34
1, 329549, Note_on_c, 0, 58, 0
1, 329549, Note_on_c, 0, 66, 30
1, 329549, Note_on_c, 0, 64, 23
1, 329655, Note_on_c, 0, 64, 0
1, 329655, Note_on_c, 0, 66, 0
1, 329655, Note_on_c, 0, 49, 0
1, 329658, Note_on_c, 0, 42, 0
1, 329658, Note_on_c, 0, 35, 32
1, 329658, Control_c, 0, 64, 0
1, 329749, Control_c, 0, 64, 127
1, 329765, Note_on_c, 0, 54, 20
1, 329765, Note_on_c, 0, 47, 29
1, 329875, Note_on_c, 0, 54, 0
1, 329875, Note_on_c, 0, 59, 22
1, 329985, Note_on_c, 0, 59, 0
1, 329985, Note_on_c, 0, 66, 20
1, 329985, Note_on_c, 0, 63, 16
1, 330205, Note_on_c, 0, 63, 0
1, 330205, Note_on_c, 0, 66, 0
1, 330205, Note_on_c, 0, 81, 42
1, 330208, Note_on_c, 0, 93, 50
1, 330208, Note_on_c, 0, 47, 0
1, 330208, Note_on_c, 0, 35, 0
1, 330211, Note_on_c, 0, 51, 34
1, 330211, Control_c, 0, 64, 0
1, 330236, Control_c, 0, 64, 127
1, 330322, Note_on_c, 0, 51, 0
1, 330322, Note_on_c, 0, 61, 25
1, 330439, Note_on_c, 0, 61, 0
1, 330439, Note_on_c, 0, 59, 25
1, 330468, Note_on_c, 0, 93, 0
1, 330468, Note_on_c, 0, 95, 36
1, 330506, Note_on_c, 0, 95, 0
1, 330506, Note_on_c, 0, 93, 36
1, 330544, Note_on_c, 0, 93, 0
1, 330544, Note_on_c, 0, 81, 0
1, 330544, Note_on_c, 0, 80, 42
1, 330547, Note_on_c, 0, 92, 50
1, 330547, Note_on_c, 0, 59, 0
1, 330547, Note_on_c, 0, 69, 31
1, 330556, Control_c, 0, 64, 0
1, 330590, Control_c, 0, 64, 127
1, 330627, Note_on_c, 0, 69, 0
1, 330627, Note_on_c, 0, 66, 25
1, 330710, Note_on_c, 0, 92, 0
1, 330710, Note_on_c, 0, 80, 0
1, 330710, Note_on_c, 0, 78, 34
1, 330713, Note_on_c, 0, 90, 41
1, 330713, Note_on_c, 0, 66, 0
1, 330713, Note_on_c, 0, 61, 25
1, 330788, Note_on_c, 0, 61, 0
1, 330788, Note_on_c, 0, 59, 25
1, 330866, Note_on_c, 0, 90, 0
1, 330866, Note_on_c, 0, 78, 0
1, 330866, Note_on_c, 0, 83, 36
1, 330869, Note_on_c, 0, 95, 43
1, 330869, Note_on_c, 0, 59, 0
1, 330869, Note_on_c, 0, 52, 34
1, 330873, Control_c, 0, 64, 0
1, 330921, Control_c, 0, 64, 127
1, 330980, Note_on_c, 0, 52, 0
1, 330980, Note_on_c, 0, 61, 25
1, 331038, Note_on_c, 0, 95, 0
1, 331038, Note_on_c, 0, 83, 0
1, 331038, Note_on_c, 0, 75, 38
1, 331041, Note_on_c, 0, 87, 45
1, 331095, Note_on_c, 0, 61, 0
1, 331095, Note_on_c, 0, 59, 25
1, 331166, Note_on_c, 0, 87, 0
1, 331166, Note_on_c, 0, 90, 35
1, 331203, Note_on_c, 0, 90, 0
1, 331203, Note_on_c, 0, 75, 0
1, 331203, Note_on_c, 0, 76, 36
1, 331206, Note_on_c, 0, 88, 43
1, 331206, Note_on_c, 0, 59, 0
1, 331206, Note_on_c, 0, 68, 31
1, 331213, Control_c, 0, 64, 0
1, 331247, Control_c, 0, 64, 127
1, 331287, Note_on_c, 0, 68, 0
1, 331287, Note_on_c, 0, 64, 25
1, 331370, Note_on_c, 0, 64, 0
1, 331370, Note_on_c, 0, 61, 25
1, 331453, Note_on_c, 0, 61, 0
1, 331453, Note_on_c, 0, 59, 25
1, 331536, Note_on_c, 0, 88, 0
1, 331536, Note_on_c, 0, 76, 0
1, 331536, Note_on_c, 0, 81, 42
1, 331539, Note_on_c, 0, 93, 50
1, 331539, Note_on_c, 0, 59, 0
1, 331539, Note_on_c, 0, 51, 34
1, 331571, Control_c, 0, 64, 0
1, 331604, Control_c, 0, 64, 127
1, 331651, Note_on_c, 0, 51, 0
1, 331651, Note_on_c, 0, 61, 25
1, 331765, Note_on_c, 0, 61, 0
1, 331765, Note_on_c, 0, 59, 25
1, 331793, Note_on_c, 0, 93, 0
1, 331793, Note_on_c, 0, 95, 36
1, 331831, Note_on_c, 0, 95, 0
1, 331831, Note_on_c, 0, 93, 36
1, 331869, Note_on_c, 0, 93, 0
1, 331869, Note_on_c, 0, 81, 0
1, 331869, Note_on_c, 0, 80, 42
1, 331872, Note_on_c, 0, 92, 50
1, 331872, Note_on_c, 0, 59, 0
1, 331872, Note_on_c, 0, 69, 31
1, 331880, Control_c, 0, 64, 0
1, 331914, Control_c, 0, 64, 127
1, 331949, Note_on_c, 0, 69, 0
1, 331949, Note_on_c, 0, 66, 25
1, 332029, Note_on_c, 0, 92, 0
1, 332029, Note_on_c, 0, 80, 0
1, 332029, Note_on_c, 0, 78, 34
1, 332032, Note_on_c, 0, 90, 41
1, 332032, Note_on_c, 0, 66, 0
1, 332032, Note_on_c, 0, 61, 25
1, 332106, Note_on_c, 0, 61, 0
1, 332106, Note_on_c, 0, 59, 25
1, 332182, Note_on_c, 0, 90, 0
1, 332182, Note_on_c, 0, 78, 0
1, 332182, Note_on_c, 0, 83, 37
1, 332185, Note_on_c, 0, 95, 44
1, 332185, Note_on_c, 0, 59, 0
1, 332185, Note_on_c, 0, 52, 34
1, 332189, Control_c, 0, 64, 0
1, 332237, Control_c, 0, 64, 127
1, 332296, Note_on_c, 0, 52, 0
1, 332296, Note_on_c, 0, 61, 25
1, 332354, Note_on_c, 0, 95, 0
1, 332354, Note_on_c, 0, 83, 0
1, 332354, Note_on_c, 0, 75, 38
1, 332357, Note_on_c, 0, 87, 45
1, 332411, Note_on_c, 0, 61, 0
1, 332411, Note_on_c, 0, 59, 25
1, 332482, Note_on_c, 0, 87, 0
1, 332482, Note_on_c, 0, 90, 35
1, 332519, Note_on_c, 0, 90, 0
1, 332519, Note_on_c, 0, 75, 0
1, 332519, Note_on_c, 0, 76, 36
1, 332522, Note_on_c, 0, 88, 43
1, 332522, Note_on_c, 0, 59, 0
1, 332522, Note_on_c, 0, 68, 31
1, 332529, Control_c, 0, 64, 0
1, 332563, Control_c, 0, 64, 127
1, 332603, Note_on_c, 0, 68, 0
1, 332603, Note_on_c, 0, 64, 25
1, 332686, Note_on_c, 0, 64, 0
1, 332686, Note_on_c, 0, 61, 25
1, 332777, Note_on_c, 0, 61, 0
1, 332777, Note_on_c, 0, 59, 25
1, 332868, Note_on_c, 0, 88, 0
1, 332868, Note_on_c, 0, 76, 0
1, 332868, Note_on_c, 0, 59, 0
1, 332871, Note_on_c, 0, 37, 41
1, 332871, Note_on_c, 0, 49, 49
1, 332871, Control_c, 0, 64, 0
1, 332936, Control_c, 0, 64, 127
1, 332948, Note_on_c, 0, 54, 34
1, 332948, Note_on_c, 0, 49, 0
1, 332948, Note_on_c, 0, 42, 44
1, 333027, Note_on_c, 0, 54, 0
1, 333027, Note_on_c, 0, 58, 38
1, 333106, Note_on_c, 0, 58, 0
1, 333106, Note_on_c, 0, 66, 34
1, 333106, Note_on_c, 0, 64, 26
1, 333193, Note_on_c, 0, 64, 0
1, 333193, Note_on_c, 0, 66, 0
1, 333193, Note_on_c, 0, 42, 0
1, 333196, Note_on_c, 0, 37, 0
1, 333196, Note_on_c, 0, 35, 30
1, 333196, Note_on_c, 0, 47, 36
1, 333199, Control_c, 0, 64, 0
1, 333264, Control_c, 0, 64, 127
1, 333276, Note_on_c, 0, 54, 22
1, 333276, Note_on_c, 0, 47, 0
1, 333276, Note_on_c, 0, 42, 33
1, 333359, Note_on_c, 0, 54, 0
1, 333359, Note_on_c, 0, 59, 25
1, 333453, Note_on_c, 0, 59, 0
1, 333453, Note_on_c, 0, 66, 22
1, 333453, Note_on_c, 0, 63, 18
1, 333595, Note_on_c, 0, 63, 0
1, 333595, Note_on_c, 0, 66, 0
1, 333595, Note_on_c, 0, 81, 42
1, 333598, Note_on_c, 0, 93, 50
1, 333598, Note_on_c, 0, 42, 0
1, 333598, Note_on_c, 0, 35, 0
1, 333601, Note_on_c, 0, 51, 34
1, 333601, Control_c, 0, 64, 0
1, 333626, Control_c, 0, 64, 127
1, 333712, Note_on_c, 0, 51, 0
1, 333712, Note_on_c, 0, 61, 25
1, 333829, Note_on_c, 0, 61, 0
1, 333829, Note_on_c, 0, 59, 25
1, 333858, Note_on_c, 0, 93, 0
1, 333858, Note_on_c, 0, 95, 36
1, 333896, Note_on_c, 0, 95, 0
1, 333896, Note_on_c, 0, 93, 36
1, 333934, Note_on_c, 0, 93, 0
1, 333934, Note_on_c, 0, 81, 0
1, 333934, Note_on_c, 0, 80, 42
1, 333937, Note_on_c, 0, 92, 50
1, 333937, Note_on_c, 0, 59, 0
1, 333937, Note_on_c, 0, 69, 31
1, 333946, Control_c, 0, 64, 0
1, 333980, Control_c, 0, 64, 127
1, 334017, Note_on_c, 0, 69, 0
1, 334017, Note_on_c, 0, 66, 25
1, 334100, Note_on_c, 0, 92, 0
1, 334100, Note_on_c, 0, 80, 0
1, 334100, Note_on_c, 0, 78, 34
1, 334103, Note_on_c, 0, 90, 41
1, 334103, Note_on_c, 0, 66, 0
1, 334103, Note_on_c, 0, 61, 25
1, 334178, Note_on_c, 0, 61, 0
1, 334178, Note_on_c, 0, 59, 25
1, 334256, Note_on_c, 0, 90, 0
1, 334256, Note_on_c, 0, 78, 0
1, 334256, Note_on_c, 0, 83, 36
1, 334259, Note_on_c, 0, 95, 43
1, 334259, Note_on_c, 0, 59, 0
1, 334259, Note_on_c, 0, 52, 34
1, 334263, Control_c, 0, 64, 0
1, 334311, Control_c, 0, 64, 127
1, 334371, Note_on_c, 0, 52, 0
1, 334371, Note_on_c, 0, 61, 25
1, 334428, Note_on_c, 0, 95, 0
1, 334428, Note_on_c, 0, 83, 0
1, 334428, Note_on_c, 0, 75, 38
1, 334431, Note_on_c, 0, 87, 45
1, 334485, Note_on_c, 0, 61, 0
1, 334485, Note_on_c, 0, 59, 25
1, 334556, Note_on_c, 0, 87, 0
1, 334556, Note_on_c, 0, 90, 35
1, 334594, Note_on_c, 0, 90, 0
1, 334594, Note_on_c, 0, 75, 0
1, 334594, Note_on_c, 0, 76, 36
1, 334597, Note_on_c, 0, 88, 43
1, 334597, Note_on_c, 0, 59, 0
1, 334597, Note_on_c, 0, 68, 31
1, 334603, Control_c, 0, 64, 0
1, 334637, Control_c, 0, 64, 127
1, 334677, Note_on_c, 0, 68, 0
1, 334677, Note_on_c, 0, 64, 25
1, 334760, Note_on_c, 0, 64, 0
1, 334760, Note_on_c, 0, 61, 25
1, 334843, Note_on_c, 0, 61, 0
1, 334843, Note_on_c, 0, 59, 25
1, 334926, Note_on_c, 0, 88, 0
1, 334926, Note_on_c, 0, 76, 0
1, 334926, Note_on_c, 0, 81, 42
1, 334929, Note_on_c, 0, 93, 50
1, 334929, Note_on_c, 0, 59, 0
1, 334929, Note_on_c, 0, 51, 34
1, 334961, Control_c, 0, 64, 0
1, 334994, Control_c, 0, 64, 127
1, 335041, Note_on_c, 0, 51, 0
1, 335041, Note_on_c, 0, 61, 25
1, 335155, Note_on_c, 0, 61, 0
1, 335155, Note_on_c, 0, 59, 25
1, 335184, Note_on_c, 0, 93, 0
1, 335184, Note_on_c, 0, 95, 36
1, 335221, Note_on_c, 0, 95, 0
1, 335221, Note_on_c, 0, 93, 36
1, 335259, Note_on_c, 0, 93, 0
1, 335259, Note_on_c, 0, 81, 0
1, 335259, Note_on_c, 0, 80, 42
1, 335262, Note_on_c, 0, 92, 50
1, 335262, Note_on_c, 0, 59, 0
1, 335262, Note_on_c, 0, 69, 31
1, 335270, Control_c, 0, 64, 0
1, 335304, Control_c, 0, 64, 127
1, 335339, Note_on_c, 0, 69, 0
1, 335339, Note_on_c, 0, 66, 25
1, 335419, Note_on_c, 0, 92, 0
1, 335419, Note_on_c, 0, 80, 0
1, 335419, Note_on_c, 0, 78, 34
1, 335422, Note_on_c, 0, 90, 41
1, 335422, Note_on_c, 0, 66, 0
1, 335422, Note_on_c, 0, 61, 25
1, 335496, Note_on_c, 0, 61, 0
1, 335496, Note_on_c, 0, 59, 25
1, 335572, Note_on_c, 0, 90, 0
1, 335572, Note_on_c, 0, 78, 0
1, 335572, Note_on_c, 0, 83, 37
1, 335575, Note_on_c, 0, 95, 44
1, 335575, Note_on_c, 0, 59, 0
1, 335575, Note_on_c, 0, 52, 34
1, 335579, Control_c, 0, 64, 0
1, 335627, Control_c, 0, 64, 127
1, 335687, Note_on_c, 0, 52, 0
1, 335687, Note_on_c, 0, 61, 25
1, 335744, Note_on_c, 0, 95, 0
1, 335744, Note_on_c, 0, 83, 0
1, 335744, Note_on_c, 0, 75, 38
1, 335747, Note_on_c, 0, 87, 45
1, 335801, Note_on_c, 0, 61, 0
1, 335801, Note_on_c, 0, 59, 25
1, 335872, Note_on_c, 0, 87, 0
1, 335872, Note_on_c, 0, 90, 35
1, 335909, Note_on_c, 0, 90, 0
1, 335909, Note_on_c, 0, 75, 0
1, 335909, Note_on_c, 0, 76, 36
1, 335912, Note_on_c, 0, 88, 43
1, 335912, Note_on_c, 0, 59, 0
1, 335912, Note_on_c, 0, 68, 31
1, 335919, Control_c, 0, 64, 0
1, 335953, Control_c, 0, 64, 127
1, 335993, Note_on_c, 0, 68, 0
1, 335993, Note_on_c, 0, 64, 25
1, 336076, Note_on_c, 0, 64, 0
1, 336076, Note_on_c, 0, 61, 25
1, 336167, Note_on_c, 0, 61, 0
1, 336167, Note_on_c, 0, 59, 25
1, 336259, Note_on_c, 0, 88, 0
1, 336259, Note_on_c, 0, 76, 0
1, 336259, Note_on_c, 0, 59, 0
1, 336262, Note_on_c, 0, 37, 41
1, 336262, Note_on_c, 0, 49, 49
1, 336262, Control_c, 0, 64, 0
1, 336326, Control_c, 0, 64, 127
1, 336338, Note_on_c, 0, 54, 34
1, 336338, Note_on_c, 0, 49, 0
1, 336338, Note_on_c, 0, 42, 44
1, 336417, Note_on_c, 0, 54, 0
1, 336417, Note_on_c, 0, 58, 38
1, 336496, Note_on_c, 0, 58, 0
1, 336496, Note_on_c, 0, 66, 34
1, 336496, Note_on_c, 0, 64, 26
1, 336584, Note_on_c, 0, 64, 0
1, 336584, Note_on_c, 0, 66, 0
1, 336584, Note_on_c, 0, 42, 0
1, 336587, Note_on_c, 0, 37, 0
1, 336587, Note_on_c, 0, 35, 30
1, 336587, Note_on_c, 0, 47, 36
1, 336592, Control_c, 0, 64, 0
1, 336654, Control_c, 0, 64, 127
1, 336666, Note_on_c, 0, 54, 22
1, 336666, Note_on_c, 0, 47, 0
1, 336666, Note_on_c, 0, 42, 33
1, 336749, Note_on_c, 0, 54, 0
1, 336749, Note_on_c, 0, 59, 25
1, 336843, Note_on_c, 0, 59, 0
1, 336843, Note_on_c, 0, 66, 22
1, 336843, Note_on_c, 0, 63, 18
1, 336985, Note_on_c, 0, 63, 0
1, 336985, Note_on_c, 0, 66, 0
1, 336985, Note_on_c, 0, 78, 42
1, 336988, Note_on_c, 0, 90, 50
1, 336988, Note_on_c, 0, 42, 0
1, 336988, Note_on_c, 0, 35, 0
1, 336991, Note_on_c, 0, 50, 34
1, 336995, Control_c, 0, 64, 0
1, 337014, Control_c, 0, 64, 127
1, 337102, Note_on_c, 0, 50, 0
1, 337102, Note_on_c, 0, 61, 25
1, 337219, Note_on_c, 0, 61, 0
1, 337219, Note_on_c, 0, 59, 25
1, 337249, Note_on_c, 0, 90, 0
1, 337249, Note_on_c, 0, 92, 36
1, 337286, Note_on_c, 0, 92, 0
1, 337286, Note_on_c, 0, 90, 36
1, 337324, Note_on_c, 0, 90, 0
1, 337324, Note_on_c, 0, 78, 0
1, 337324, Note_on_c, 0, 77, 42
1, 337327, Note_on_c, 0, 89, 50
1, 337327, Note_on_c, 0, 59, 0
1, 337327, Note_on_c, 0, 66, 34
1, 337333, Control_c, 0, 64, 0
1, 337366, Control_c, 0, 64, 127
1, 337431, Note_on_c, 0, 66, 0
1, 337431, Note_on_c, 0, 61, 25
1, 337484, Note_on_c, 0, 89, 0
1, 337484, Note_on_c, 0, 77, 0
1, 337484, Note_on_c, 0, 78, 34
1, 337487, Note_on_c, 0, 90, 41
1, 337535, Note_on_c, 0, 61, 0
1, 337535, Note_on_c, 0, 59, 25
1, 337599, Note_on_c, 0, 90, 0
1, 337599, Note_on_c, 0, 93, 35
1, 337637, Note_on_c, 0, 93, 0
1, 337637, Note_on_c, 0, 78, 0
1, 337637, Note_on_c, 0, 80, 36
1, 337640, Note_on_c, 0, 92, 43
1, 337640, Note_on_c, 0, 59, 0
1, 337640, Note_on_c, 0, 52, 34
1, 337646, Control_c, 0, 64, 0
1, 337675, Control_c, 0, 64, 127
1, 337752, Note_on_c, 0, 52, 0
1, 337752, Note_on_c, 0, 59, 29
1, 337866, Note_on_c, 0, 59, 0
1, 337866, Note_on_c, 0, 68, 28
1, 337937, Note_on_c, 0, 92, 0
1, 337937, Note_on_c, 0, 92, 35
1, 337974, Note_on_c, 0, 92, 0
1, 337974, Note_on_c, 0, 80, 0
1, 337974, Note_on_c, 0, 78, 24
1, 337977, Note_on_c, 0, 90, 43
1, 337977, Note_on_c, 0, 68, 0
1, 337977, Note_on_c, 0, 50, 34
1, 337981, Control_c, 0, 64, 0
1, 338004, Control_c, 0, 64, 127
1, 338085, Note_on_c, 0, 50, 0
1, 338085, Note_on_c, 0, 59, 27
1, 338196, Note_on_c, 0, 59, 0
1, 338196, Note_on_c, 0, 66, 27
1, 338307, Note_on_c, 0, 90, 0
1, 338307, Note_on_c, 0, 78, 0
1, 338307, Note_on_c, 0, 66, 0
1, 338310, Note_on_c, 0, 37, 44
1, 338310, Note_on_c, 0, 49, 52
1, 338310, Control_c, 0, 64, 0
1, 338375, Control_c, 0, 64, 127
1, 338386, Note_on_c, 0, 54, 36
1, 338386, Note_on_c, 0, 49, 0
1, 338386, Note_on_c, 0, 42, 47
1, 338465, Note_on_c, 0, 54, 0
1, 338465, Note_on_c, 0, 58, 41
1, 338545, Note_on_c, 0, 58, 0
1, 338545, Note_on_c, 0, 66, 36
1, 338545, Note_on_c, 0, 64, 28
1, 338632, Note_on_c, 0, 64, 0
1, 338632, Note_on_c, 0, 66, 0
1, 338632, Note_on_c, 0, 42, 0
1, 338635, Note_on_c, 0, 37, 0
1, 338635, Note_on_c, 0, 35, 32
1, 338635, Note_on_c, 0, 47, 38
1, 338638, Control_c, 0, 64, 0
1, 338703, Control_c, 0, 64, 127
1, 338715, Note_on_c, 0, 54, 24
1, 338715, Note_on_c, 0, 47, 0
1, 338715, Note_on_c, 0, 42, 35
1, 338798, Note_on_c, 0, 54, 0
1, 338798, Note_on_c, 0, 59, 27
1, 338892, Note_on_c, 0, 59, 0
1, 338892, Note_on_c, 0, 66, 24
1, 338892, Note_on_c, 0, 63, 19
1, 338963, Note_on_c, 0, 63, 0
1, 338963, Note_on_c, 0, 66, 0
1, 338963, Note_on_c, 0, 93, 37
1, 338999, Note_on_c, 0, 93, 0
1, 338999, Note_on_c, 0, 80, 42
1, 338999, Note_on_c, 0, 92, 50
1, 339002, Note_on_c, 0, 42, 0
1, 339002, Note_on_c, 0, 35, 0
1, 339002, Note_on_c, 0, 50, 34
1, 339005, Control_c, 0, 64, 0
1, 339005, Control_c, 0, 64, 0
1, 339027, Control_c, 0, 64, 127
1, 339080, Note_on_c, 0, 92, 0
1, 339080, Note_on_c, 0, 80, 0
1, 339107, Note_on_c, 0, 50, 0
1, 339107, Note_on_c, 0, 61, 25
1, 339121, Note_on_c, 0, 92, 37
1, 339156, Note_on_c, 0, 92, 0
1, 339156, Note_on_c, 0, 78, 42
1, 339156, Note_on_c, 0, 90, 50
1, 339166, Control_c, 0, 64, 0
1, 339195, Control_c, 0, 64, 127
1, 339211, Note_on_c, 0, 61, 0
1, 339211, Note_on_c, 0, 59, 25
1, 339239, Note_on_c, 0, 90, 0
1, 339239, Note_on_c, 0, 78, 0
1, 339281, Note_on_c, 0, 90, 37
1, 339316, Note_on_c, 0, 90, 0
1, 339316, Note_on_c, 0, 76, 42
1, 339316, Note_on_c, 0, 88, 50
1, 339319, Note_on_c, 0, 59, 0
1, 339319, Note_on_c, 0, 66, 34
1, 339328, Control_c, 0, 64, 0
1, 339363, Control_c, 0, 64, 127
1, 339401, Note_on_c, 0, 88, 0
1, 339401, Note_on_c, 0, 76, 0
1, 339429, Note_on_c, 0, 66, 0
1, 339429, Note_on_c, 0, 61, 25
1, 339443, Note_on_c, 0, 88, 37
1, 339478, Note_on_c, 0, 88, 0
1, 339478, Note_on_c, 0, 74, 42
1, 339478, Note_on_c, 0, 86, 50
1, 339486, Control_c, 0, 64, 0
1, 339511, Control_c, 0, 64, 127
1, 339535, Note_on_c, 0, 61, 0
1, 339535, Note_on_c, 0, 59, 25
1, 339563, Note_on_c, 0, 86, 0
1, 339563, Note_on_c, 0, 74, 0
1, 339648, Note_on_c, 0, 73, 50
1, 339648, Note_on_c, 0, 59, 0
1, 339648, Note_on_c, 0, 53, 34
1, 339655, Control_c, 0, 64, 0
1, 339701, Control_c, 0, 64, 127
1, 339734, Note_on_c, 0, 73, 0
1, 339763, Note_on_c, 0, 53, 0
1, 339763, Note_on_c, 0, 59, 29
1, 339820, Note_on_c, 0, 85, 50
1, 339833, Control_c, 0, 64, 0
1, 339877, Note_on_c, 0, 59, 0
1, 339877, Note_on_c, 0, 68, 28
1, 339877, Control_c, 0, 64, 127
1, 339906, Note_on_c, 0, 85, 0
1, 339991, Note_on_c, 0, 85, 50
1, 339991, Note_on_c, 0, 68, 0
1, 339991, Note_on_c, 0, 54, 34
1, 340001, Control_c, 0, 64, 0
1, 340036, Control_c, 0, 64, 127
1, 340077, Note_on_c, 0, 85, 0
1, 340106, Note_on_c, 0, 54, 0
1, 340106, Note_on_c, 0, 64, 27
1, 340163, Note_on_c, 0, 97, 50
1, 340170, Control_c, 0, 64, 0
1, 340213, Control_c, 0, 64, 127
1, 340234, Note_on_c, 0, 64, 0
1, 340234, Note_on_c, 0, 70, 27
1, 340269, Note_on_c, 0, 97, 0
1, 340375, Note_on_c, 0, 70, 0
1, 340375, Note_on_c, 0, 42, 44
1, 340375, Control_c, 0, 64, 0
1, 340453, Control_c, 0, 64, 127
1, 340466, Note_on_c, 0, 54, 30
1, 340466, Note_on_c, 0, 49, 39
1, 340557, Note_on_c, 0, 54, 0
1, 340557, Note_on_c, 0, 58, 34
1, 340649, Note_on_c, 0, 58, 0
1, 340649, Note_on_c, 0, 66, 30
1, 340649, Note_on_c, 0, 64, 23
1, 340757, Note_on_c, 0, 64, 0
1, 340757, Note_on_c, 0, 66, 0
1, 340757, Note_on_c, 0, 49, 0
1, 340760, Note_on_c, 0, 42, 0
1, 340760, Note_on_c, 0, 35, 32
1, 340760, Control_c, 0, 64, 0
1, 340837, Control_c, 0, 64, 127
1, 340850, Note_on_c, 0, 54, 20
1, 340850, Note_on_c, 0, 42, 29
1, 340944, Note_on_c, 0, 54, 0
1, 340944, Note_on_c, 0, 59, 22
1, 341038, Note_on_c, 0, 59, 0
1, 341038, Note_on_c, 0, 66, 20
1, 341038, Note_on_c, 0, 63, 16
1, 341181, Note_on_c, 0, 63, 0
1, 341181, Note_on_c, 0, 66, 0
1, 341181, Note_on_c, 0, 78, 42
1, 341184, Note_on_c, 0, 90, 50
1, 341184, Note_on_c, 0, 42, 0
1, 341184, Note_on_c, 0, 35, 0
1, 341187, Note_on_c, 0, 50, 34
1, 341190, Control_c, 0, 64, 0
1, 341209, Control_c, 0, 64, 127
1, 341298, Note_on_c, 0, 50, 0
1, 341298, Note_on_c, 0, 61, 25
1, 341415, Note_on_c, 0, 61, 0
1, 341415, Note_on_c, 0, 59, 25
1, 341444, Note_on_c, 0, 90, 0
1, 341444, Note_on_c, 0, 92, 36
1, 341483, Note_on_c, 0, 92, 0
1, 341483, Note_on_c, 0, 90, 36
1, 341522, Note_on_c, 0, 90, 0
1, 341522, Note_on_c, 0, 78, 0
1, 341522, Note_on_c, 0, 77, 42
1, 341525, Note_on_c, 0, 89, 50
1, 341525, Note_on_c, 0, 59, 0
1, 341525, Note_on_c, 0, 66, 34
1, 341531, Control_c, 0, 64, 0
1, 341565, Control_c, 0, 64, 127
1, 341632, Note_on_c, 0, 66, 0
1, 341632, Note_on_c, 0, 61, 25
1, 341687, Note_on_c, 0, 89, 0
1, 341687, Note_on_c, 0, 77, 0
1, 341687, Note_on_c, 0, 78, 34
1, 341690, Note_on_c, 0, 90, 41
1, 341739, Note_on_c, 0, 61, 0
1, 341739, Note_on_c, 0, 59, 25
1, 341804, Note_on_c, 0, 90, 0
1, 341804, Note_on_c, 0, 93, 35
1, 341843, Note_on_c, 0, 93, 0
1, 341843, Note_on_c, 0, 78, 0
1, 341843, Note_on_c, 0, 80, 36
1, 341846, Note_on_c, 0, 92, 43
1, 341846, Note_on_c, 0, 59, 0
1, 341846, Note_on_c, 0, 52, 34
1, 341852, Control_c, 0, 64, 0
1, 341882, Control_c, 0, 64, 127
1, 341962, Note_on_c, 0, 52, 0
1, 341962, Note_on_c, 0, 59, 29
1, 342081, Note_on_c, 0, 59, 0
1, 342081, Note_on_c, 0, 68, 28
1, 342155, Note_on_c, 0, 92, 0
1, 342155, Note_on_c, 0, 92, 35
1, 342192, Note_on_c, 0, 92, 0
1, 342192, Note_on_c, 0, 80, 0
1, 342192, Note_on_c, 0, 78, 24
1, 342195, Note_on_c, 0, 90, 43
1, 342195, Note_on_c, 0, 68, 0
1, 342195, Note_on_c, 0, 50, 34
1, 342199, Control_c, 0, 64, 0
1, 342221, Control_c, 0, 64, 127
1, 342303, Note_on_c, 0, 50, 0
1, 342303, Note_on_c, 0, 59, 27
1, 342414, Note_on_c, 0, 59, 0
1, 342414, Note_on_c, 0, 66, 27
1, 342525, Note_on_c, 0, 90, 0
1, 342525, Note_on_c, 0, 78, 0
1, 342525, Note_on_c, 0, 66, 0
1, 342528, Note_on_c, 0, 37, 44
1, 342528, Note_on_c, 0, 49, 52
1, 342528, Control_c, 0, 64, 0
1, 342595, Control_c, 0, 64, 127
1, 342606, Note_on_c, 0, 54, 36
1, 342606, Note_on_c, 0, 49, 0
1, 342606, Note_on_c, 0, 42, 47
1, 342688, Note_on_c, 0, 54, 0
1, 342688, Note_on_c, 0, 58, 41
1, 342769, Note_on_c, 0, 58, 0
1, 342769, Note_on_c, 0, 66, 36
1, 342769, Note_on_c, 0, 64, 28
1, 342862, Note_on_c, 0, 64, 0
1, 342862, Note_on_c, 0, 66, 0
1, 342862, Note_on_c, 0, 42, 0
1, 342865, Note_on_c, 0, 37, 0
1, 342865, Note_on_c, 0, 35, 32
1, 342865, Note_on_c, 0, 47, 38
1, 342868, Control_c, 0, 64, 0
1, 342938, Control_c, 0, 64, 127
1, 342950, Note_on_c, 0, 54, 24
1, 342950, Note_on_c, 0, 47, 0
1, 342950, Note_on_c, 0, 42, 35
1, 343039, Note_on_c, 0, 54, 0
1, 343039, Note_on_c, 0, 59, 27
1, 343133, Note_on_c, 0, 59, 0
1, 343133, Note_on_c, 0, 63, 19
1, 343133, Note_on_c, 0, 66, 24
1, 343228, Note_on_c, 0, 66, 0
1, 343228, Note_on_c, 0, 63, 0
1, 343228, Note_on_c, 0, 93, 45
1, 343231, Note_on_c, 0, 42, 0
1, 343231, Note_on_c, 0, 35, 0
1, 343231, Note_on_c, 0, 50, 34
1, 343240, Control_c, 0, 64, 0
1, 343265, Control_c, 0, 64, 127
1, 343286, Note_on_c, 0, 93, 0
1, 343286, Note_on_c, 0, 92, 44
1, 343345, Note_on_c, 0, 90, 44
1, 343345, Note_on_c, 0, 50, 0
1, 343345, Note_on_c, 0, 61, 25
1, 343348, Note_on_c, 0, 92, 0
1, 343403, Note_on_c, 0, 90, 0
1, 343403, Note_on_c, 0, 88, 43
1, 343462, Note_on_c, 0, 88, 0
1, 343462, Note_on_c, 0, 86, 43
1, 343462, Note_on_c, 0, 61, 0
1, 343465, Note_on_c, 0, 59, 25
1, 343517, Note_on_c, 0, 86, 0
1, 343517, Note_on_c, 0, 85, 42
1, 343569, Note_on_c, 0, 85, 0
1, 343569, Note_on_c, 0, 83, 42
1, 343569, Note_on_c, 0, 59, 0
1, 343572, Note_on_c, 0, 66, 34
1, 343624, Note_on_c, 0, 83, 0
1, 343624, Note_on_c, 0, 81, 41
1, 343679, Note_on_c, 0, 81, 0
1, 343679, Note_on_c, 0, 80, 41
1, 343679, Note_on_c, 0, 66, 0
1, 343682, Note_on_c, 0, 61, 25
1, 343734, Note_on_c, 0, 80, 0
1, 343734, Note_on_c, 0, 78, 40
1, 343786, Note_on_c, 0, 78, 0
1, 343786, Note_on_c, 0, 76, 39
1, 343786, Note_on_c, 0, 61, 0
1, 343789, Note_on_c, 0, 59, 25
1, 343838, Note_on_c, 0, 76, 0
1, 343838, Note_on_c, 0, 74, 39
1, 343890, Note_on_c, 0, 74, 0
1, 343890, Note_on_c, 0, 73, 40
1, 343890, Note_on_c, 0, 59, 0
1, 343893, Note_on_c, 0, 52, 34
1, 343909, Control_c, 0, 64, 0
1, 343926, Control_c, 0, 64, 127
1, 343935, Note_on_c, 0, 73, 0
1, 343979, Note_on_c, 0, 85, 36
1, 344009, Note_on_c, 0, 52, 0
1, 344009, Note_on_c, 0, 59, 29
1, 344024, Note_on_c, 0, 85, 0
1, 344068, Note_on_c, 0, 85, 36
1, 344113, Note_on_c, 0, 85, 0
1, 344128, Note_on_c, 0, 59, 0
1, 344128, Note_on_c, 0, 68, 28
1, 344157, Note_on_c, 0, 97, 38
1, 344202, Note_on_c, 0, 97, 0
1, 344239, Note_on_c, 0, 97, 39
1, 344239, Note_on_c, 0, 68, 0
1, 344276, Note_on_c, 0, 97, 0
1, 344314, Note_on_c, 0, 85, 36
1, 344351, Note_on_c, 0, 85, 0
1, 344388, Note_on_c, 0, 85, 36
1, 344425, Note_on_c, 0, 85, 0
1, 344462, Note_on_c, 0, 73, 37
1, 344506, Note_on_c, 0, 73, 0
1, 344549, Note_on_c, 0, 73, 44
1, 344586, Note_on_c, 0, 73, 0
1, 344623, Note_on_c, 0, 85, 36
1, 344660, Note_on_c, 0, 85, 0
1, 344698, Note_on_c, 0, 85, 36
1, 344735, Note_on_c, 0, 85, 0
1, 344772, Note_on_c, 0, 97, 41
1, 344809, Note_on_c, 0, 97, 0
1, 344846, Note_on_c, 0, 97, 41
1, 344884, Note_on_c, 0, 97, 0
1, 344921, Note_on_c, 0, 85, 36
1, 344958, Note_on_c, 0, 85, 0
1, 344995, Note_on_c, 0, 85, 36
1, 345032, Note_on_c, 0, 85, 0
1, 345069, Note_on_c, 0, 73, 36
1, 345112, Note_on_c, 0, 73, 0
1, 345155, Note_on_c, 0, 73, 42
1, 345193, Note_on_c, 0, 73, 0
1, 345230, Note_on_c, 0, 85, 37
1, 345268, Note_on_c, 0, 85, 0
1, 345305, Note_on_c, 0, 85, 37
1, 345342, Note_on_c, 0, 85, 0
1, 345380, Note_on_c, 0, 97, 40
1, 345417, Note_on_c, 0, 97, 0
1, 345455, Note_on_c, 0, 97, 40
1, 345492, Note_on_c, 0, 97, 0
1, 345530, Note_on_c, 0, 85, 37
1, 345567, Note_on_c, 0, 85, 0
1, 345604, Note_on_c, 0, 85, 37
1, 345642, Note_on_c, 0, 85, 0
1, 345679, Note_on_c, 0, 97, 37
1, 345723, Note_on_c, 0, 97, 0
1, 345766, Note_on_c, 0, 97, 42
1, 345804, Note_on_c, 0, 97, 0
1, 345841, Note_on_c, 0, 85, 37
1, 345879, Note_on_c, 0, 85, 0
1, 345916, Note_on_c, 0, 85, 37
1, 345954, Note_on_c, 0, 85, 0
1, 345991, Note_on_c, 0, 97, 39
1, 346029, Note_on_c, 0, 97, 0
1, 346066, Note_on_c, 0, 97, 39
1, 346104, Note_on_c, 0, 97, 0
1, 346143, Note_on_c, 0, 85, 37
1, 346182, Note_on_c, 0, 85, 0
1, 346222, Note_on_c, 0, 85, 37
1, 346263, Note_on_c, 0, 85, 0
1, 346304, Note_on_c, 0, 97, 37
1, 346373, Note_on_c, 0, 97, 0
1, 346373, Note_on_c, 0, 64, 37
1, 346393, Note_on_c, 0, 68, 42
1, 346413, Note_on_c, 0, 98, 39
1, 346413, Note_on_c, 0, 74, 49
1, 346413, Control_c, 0, 64, 0
1, 346445, Control_c, 0, 64, 127
1, 346470, Note_on_c, 0, 98, 0
1, 346470, Note_on_c, 0, 100, 38
1, 346526, Note_on_c, 0, 100, 0
1, 346526, Note_on_c, 0, 98, 37
1, 346582, Note_on_c, 0, 98, 0
1, 346582, Note_on_c, 0, 97, 36
1, 346638, Note_on_c, 0, 97, 0
1, 346638, Note_on_c, 0, 95, 36
1, 346692, Note_on_c, 0, 95, 0
1, 346692, Note_on_c, 0, 93, 36
1, 346742, Note_on_c, 0, 93, 0
1, 346742, Note_on_c, 0, 92, 35
1, 346742, Note_on_c, 0, 74, 0
1, 346745, Note_on_c, 0, 73, 47
1, 346795, Note_on_c, 0, 92, 0
1, 346795, Note_on_c, 0, 90, 34
1, 346849, Note_on_c, 0, 90, 0
1, 346849, Note_on_c, 0, 88, 33
1, 346902, Note_on_c, 0, 88, 0
1, 346902, Note_on_c, 0, 86, 32
1, 346902, Note_on_c, 0, 73, 0
1, 346905, Note_on_c, 0, 71, 41
1, 346954, Note_on_c, 0, 86, 0
1, 346954, Note_on_c, 0, 85, 31
1, 347006, Note_on_c, 0, 85, 0
1, 347006, Note_on_c, 0, 83, 30
1, 347058, Note_on_c, 0, 83, 0
1, 347058, Note_on_c, 0, 81, 29
1, 347058, Note_on_c, 0, 71, 0
1, 347061, Note_on_c, 0, 68, 0
1, 347061, Note_on_c, 0, 64, 0
1, 347061, Note_on_c, 0, 64, 38
1, 347064, Note_on_c, 0, 73, 38
1, 347064, Note_on_c, 0, 76, 45
1, 347064, Control_c, 0, 64, 0
1, 347092, Control_c, 0, 64, 127
1, 347114, Note_on_c, 0, 81, 0
1, 347114, Note_on_c, 0, 80, 28
1, 347170, Note_on_c, 0, 80, 0
1, 347170, Note_on_c, 0, 81, 29
1, 347226, Note_on_c, 0, 81, 0
1, 347226, Note_on_c, 0, 83, 31
1, 347226, Note_on_c, 0, 76, 0
1, 347229, Note_on_c, 0, 68, 39
1, 347282, Note_on_c, 0, 83, 0
1, 347282, Note_on_c, 0, 85, 32
1, 347338, Note_on_c, 0, 85, 0
1, 347338, Note_on_c, 0, 86, 33
1, 347394, Note_on_c, 0, 86, 0
1, 347394, Note_on_c, 0, 88, 34
1, 347394, Note_on_c, 0, 68, 0
1, 347397, Note_on_c, 0, 69, 45
1, 347447, Note_on_c, 0, 88, 0
1, 347447, Note_on_c, 0, 90, 35
1, 347500, Note_on_c, 0, 90, 0
1, 347500, Note_on_c, 0, 92, 36
1, 347553, Note_on_c, 0, 92, 0
1, 347553, Note_on_c, 0, 93, 36
1, 347608, Note_on_c, 0, 93, 0
1, 347608, Note_on_c, 0, 95, 37
1, 347684, Note_on_c, 0, 95, 0
1, 347684, Note_on_c, 0, 97, 38
1, 347707, Note_on_c, 0, 69, 0
1, 347707, Note_on_c, 0, 64, 37
1, 347728, Note_on_c, 0, 68, 42
1, 347748, Note_on_c, 0, 97, 0
1, 347748, Note_on_c, 0, 98, 39
1, 347748, Note_on_c, 0, 73, 0
1, 347751, Note_on_c, 0, 64, 0
1, 347751, Note_on_c, 0, 74, 49
1, 347751, Control_c, 0, 64, 0
1, 347780, Control_c, 0, 64, 127
1, 347805, Note_on_c, 0, 98, 0
1, 347805, Note_on_c, 0, 100, 38
1, 347861, Note_on_c, 0, 100, 0
1, 347861, Note_on_c, 0, 98, 37
1, 347917, Note_on_c, 0, 98, 0
1, 347917, Note_on_c, 0, 97, 36
1, 347974, Note_on_c, 0, 97, 0
1, 347974, Note_on_c, 0, 95, 36
1, 348027, Note_on_c, 0, 95, 0
1, 348027, Note_on_c, 0, 93, 36
1, 348077, Note_on_c, 0, 93, 0
1, 348077, Note_on_c, 0, 92, 35
1, 348077, Note_on_c, 0, 74, 0
1, 348080, Note_on_c, 0, 73, 47
1, 348131, Note_on_c, 0, 92, 0
1, 348131, Note_on_c, 0, 90, 34
1, 348184, Note_on_c, 0, 90, 0
1, 348184, Note_on_c, 0, 88, 33
1, 348238, Note_on_c, 0, 88, 0
1, 348238, Note_on_c, 0, 86, 32
1, 348238, Note_on_c, 0, 73, 0
1, 348241, Note_on_c, 0, 71, 41
1, 348290, Note_on_c, 0, 86, 0
1, 348290, Note_on_c, 0, 85, 31
1, 348342, Note_on_c, 0, 85, 0
1, 348342, Note_on_c, 0, 83, 30
1, 348394, Note_on_c, 0, 83, 0
1, 348394, Note_on_c, 0, 81, 29
1, 348394, Note_on_c, 0, 71, 0
1, 348397, Note_on_c, 0, 64, 0
1, 348397, Note_on_c, 0, 68, 0
1, 348397, Note_on_c, 0, 64, 38
1, 348400, Note_on_c, 0, 73, 38
1, 348400, Note_on_c, 0, 76, 45
1, 348400, Control_c, 0, 64, 0
1, 348417, Control_c, 0, 64, 127
1, 348449, Note_on_c, 0, 81, 0
1, 348449, Note_on_c, 0, 80, 28
1, 348505, Note_on_c, 0, 80, 0
1, 348505, Note_on_c, 0, 81, 29
1, 348561, Note_on_c, 0, 81, 0
1, 348561, Note_on_c, 0, 83, 31
1, 348561, Note_on_c, 0, 76, 0
1, 348564, Note_on_c, 0, 68, 39
1, 348617, Note_on_c, 0, 83, 0
1, 348617, Note_on_c, 0, 85, 32
1, 348673, Note_on_c, 0, 85, 0
1, 348673, Note_on_c, 0, 86, 33
1, 348729, Note_on_c, 0, 86, 0
1, 348729, Note_on_c, 0, 88, 34
1, 348729, Note_on_c, 0, 68, 0
1, 348732, Note_on_c, 0, 69, 45
1, 348782, Note_on_c, 0, 88, 0
1, 348782, Note_on_c, 0, 90, 35
1, 348835, Note_on_c, 0, 90, 0
1, 348835, Note_on_c, 0, 92, 36
1, 348888, Note_on_c, 0, 92, 0
1, 348888, Note_on_c, 0, 93, 36
1, 348943, Note_on_c, 0, 93, 0
1, 348943, Note_on_c, 0, 95, 37
1, 349018, Note_on_c, 0, 95, 0
1, 349018, Note_on_c, 0, 97, 38
1, 349041, Note_on_c, 0, 69, 0
1, 349041, Note_on_c, 0, 64, 37
1, 349061, Note_on_c, 0, 68, 42
1, 349081, Note_on_c, 0, 97, 0
1, 349081, Note_on_c, 0, 98, 39
1, 349081, Note_on_c, 0, 73, 0
1, 349084, Note_on_c, 0, 64, 0
1, 349084, Note_on_c, 0, 74, 49
1, 349084, Control_c, 0, 64, 0
1, 349113, Control_c, 0, 64, 127
1, 349137, Note_on_c, 0, 98, 0
1, 349137, Note_on_c, 0, 100, 38
1, 349194, Note_on_c, 0, 100, 0
1, 349194, Note_on_c, 0, 98, 37
1, 349250, Note_on_c, 0, 98, 0
1, 349250, Note_on_c, 0, 97, 36
1, 349306, Note_on_c, 0, 97, 0
1, 349306, Note_on_c, 0, 95, 36
1, 349360, Note_on_c, 0, 95, 0
1, 349360, Note_on_c, 0, 93, 36
1, 349410, Note_on_c, 0, 93, 0
1, 349410, Note_on_c, 0, 92, 35
1, 349410, Note_on_c, 0, 74, 0
1, 349413, Note_on_c, 0, 73, 47
1, 349463, Note_on_c, 0, 92, 0
1, 349463, Note_on_c, 0, 90, 34
1, 349517, Note_on_c, 0, 90, 0
1, 349517, Note_on_c, 0, 88, 33
1, 349570, Note_on_c, 0, 88, 0
1, 349570, Note_on_c, 0, 86, 32
1, 349570, Note_on_c, 0, 73, 0
1, 349573, Note_on_c, 0, 71, 41
1, 349622, Note_on_c, 0, 86, 0
1, 349622, Note_on_c, 0, 85, 31
1, 349674, Note_on_c, 0, 85, 0
1, 349674, Note_on_c, 0, 83, 30
1, 349726, Note_on_c, 0, 83, 0
1, 349726, Note_on_c, 0, 81, 29
1, 349726, Note_on_c, 0, 71, 0
1, 349729, Note_on_c, 0, 64, 0
1, 349729, Note_on_c, 0, 68, 0
1, 349729, Note_on_c, 0, 64, 38
1, 349732, Note_on_c, 0, 73, 38
1, 349732, Note_on_c, 0, 76, 45
1, 349741, Control_c, 0, 64, 0
1, 349758, Control_c, 0, 64, 127
1, 349782, Note_on_c, 0, 81, 0
1, 349782, Note_on_c, 0, 80, 28
1, 349838, Note_on_c, 0, 80, 0
1, 349838, Note_on_c, 0, 81, 29
1, 349894, Note_on_c, 0, 81, 0
1, 349894, Note_on_c, 0, 83, 31
1, 349894, Note_on_c, 0, 76, 0
1, 349897, Note_on_c, 0, 68, 39
1, 349950, Note_on_c, 0, 83, 0
1, 349950, Note_on_c, 0, 85, 32
1, 350006, Note_on_c, 0, 85, 0
1, 350006, Note_on_c, 0, 86, 33
1, 350062, Note_on_c, 0, 86, 0
1, 350062, Note_on_c, 0, 88, 34
1, 350062, Note_on_c, 0, 68, 0
1, 350065, Note_on_c, 0, 69, 45
1, 350115, Note_on_c, 0, 88, 0
1, 350115, Note_on_c, 0, 90, 35
1, 350168, Note_on_c, 0, 90, 0
1, 350168, Note_on_c, 0, 92, 36
1, 350221, Note_on_c, 0, 92, 0
1, 350221, Note_on_c, 0, 93, 36
1, 350274, Note_on_c, 0, 93, 0
1, 350274, Note_on_c, 0, 95, 37
1, 350329, Note_on_c, 0, 95, 0
1, 350329, Note_on_c, 0, 97, 38
1, 350343, Note_on_c, 0, 69, 0
1, 350385, Note_on_c, 0, 97, 0
1, 350385, Note_on_c, 0, 98, 41
1, 350385, Note_on_c, 0, 73, 0
1, 350388, Note_on_c, 0, 64, 0
1, 350388, Note_on_c, 0, 64, 39
1, 350388, Note_on_c, 0, 68, 39
1, 350391, Note_on_c, 0, 71, 39
1, 350391, Note_on_c, 0, 74, 49
1, 350415, Control_c, 0, 64, 0
1, 350438, Note_on_c, 0, 98, 0
1, 350438, Note_on_c, 0, 99, 44
1, 350442, Control_c, 0, 64, 127
1, 350492, Note_on_c, 0, 99, 0
1, 350492, Note_on_c, 0, 100, 46
1, 350544, Note_on_c, 0, 100, 0
1, 350544, Note_on_c, 0, 101, 49
1, 350596, Note_on_c, 0, 101, 0
1, 350596, Note_on_c, 0, 100, 49
1, 350649, Note_on_c, 0, 100, 0
1, 350649, Note_on_c, 0, 99, 47
1, 350702, Note_on_c, 0, 99, 0
1, 350702, Note_on_c, 0, 98, 46
1, 350755, Note_on_c, 0, 98, 0
1, 350755, Note_on_c, 0, 97, 45
1, 350808, Note_on_c, 0, 97, 0
1, 350808, Note_on_c, 0, 96, 44
1, 350862, Note_on_c, 0, 96, 0
1, 350862, Note_on_c, 0, 95, 43
1, 350916, Note_on_c, 0, 95, 0
1, 350916, Note_on_c, 0, 94, 41
1, 350970, Note_on_c, 0, 94, 0
1, 350970, Note_on_c, 0, 93, 40
1, 351024, Note_on_c, 0, 93, 0
1, 351024, Note_on_c, 0, 92, 39
1, 351079, Note_on_c, 0, 92, 0
1, 351079, Note_on_c, 0, 93, 44
1, 351133, Note_on_c, 0, 93, 0
1, 351133, Note_on_c, 0, 94, 46
1, 351186, Note_on_c, 0, 94, 0
1, 351186, Note_on_c, 0, 95, 48
1, 351239, Note_on_c, 0, 95, 0
1, 351239, Note_on_c, 0, 94, 49
1, 351292, Note_on_c, 0, 94, 0
1, 351292, Note_on_c, 0, 93, 48
1, 351345, Note_on_c, 0, 93, 0
1, 351345, Note_on_c, 0, 92, 47
1, 351398, Note_on_c, 0, 92, 0
1, 351398, Note_on_c, 0, 91, 46
1, 351452, Note_on_c, 0, 91, 0
1, 351452, Note_on_c, 0, 90, 45
1, 351506, Note_on_c, 0, 90, 0
1, 351506, Note_on_c, 0, 89, 45
1, 351560, Note_on_c, 0, 89, 0
1, 351560, Note_on_c, 0, 88, 44
1, 351615, Note_on_c, 0, 88, 0
1, 351615, Note_on_c, 0, 87, 43
1, 351669, Note_on_c, 0, 87, 0
1, 351669, Note_on_c, 0, 86, 41
1, 351669, Note_on_c, 0, 71, 0
1, 351672, Note_on_c, 0, 64, 0
1, 351672, Note_on_c, 0, 68, 0
1, 351672, Control_c, 0, 64, 0
1, 351698, Control_c, 0, 64, 127
1, 351723, Note_on_c, 0, 86, 0
1, 351723, Note_on_c, 0, 87, 44
1, 351776, Note_on_c, 0, 87, 0
1, 351776, Note_on_c, 0, 88, 46
1, 351829, Note_on_c, 0, 88, 0
1, 351829, Note_on_c, 0, 89, 49
1, 351881, Note_on_c, 0, 89, 0
1, 351881, Note_on_c, 0, 88, 49
1, 351934, Note_on_c, 0, 88, 0
1, 351934, Note_on_c, 0, 87, 47
1, 351987, Note_on_c, 0, 87, 0
1, 351987, Note_on_c, 0, 86, 46
1, 351987, Note_on_c, 0, 74, 0
1, 352040, Note_on_c, 0, 86, 0
1, 352040, Note_on_c, 0, 85, 45
1, 352093, Note_on_c, 0, 85, 0
1, 352093, Note_on_c, 0, 84, 44
1, 352147, Note_on_c, 0, 84, 0
1, 352147, Note_on_c, 0, 83, 43
1, 352201, Note_on_c, 0, 83, 0
1, 352201, Note_on_c, 0, 82, 41
1, 352255, Note_on_c, 0, 82, 0
1, 352255, Note_on_c, 0, 81, 40
1, 352309, Note_on_c, 0, 81, 0
1, 352309, Note_on_c, 0, 80, 39
1, 352321, Control_c, 0, 64, 0
1, 352340, Control_c, 0, 64, 127
1, 352364, Note_on_c, 0, 80, 0
1, 352364, Note_on_c, 0, 81, 44
1, 352418, Note_on_c, 0, 81, 0
1, 352418, Note_on_c, 0, 82, 46
1, 352471, Note_on_c, 0, 82, 0
1, 352471, Note_on_c, 0, 83, 48
1, 352524, Note_on_c, 0, 83, 0
1, 352524, Note_on_c, 0, 82, 49
1, 352577, Note_on_c, 0, 82, 0
1, 352577, Note_on_c, 0, 81, 48
1, 352630, Note_on_c, 0, 81, 0
1, 352630, Note_on_c, 0, 80, 47
1, 352683, Note_on_c, 0, 80, 0
1, 352683, Note_on_c, 0, 79, 46
1, 352737, Note_on_c, 0, 79, 0
1, 352737, Note_on_c, 0, 78, 45
1, 352791, Note_on_c, 0, 78, 0
1, 352791, Note_on_c, 0, 77, 45
1, 352845, Note_on_c, 0, 77, 0
1, 352845, Note_on_c, 0, 76, 44
1, 352899, Note_on_c, 0, 76, 0
1, 352899, Note_on_c, 0, 75, 43
1, 352954, Note_on_c, 0, 75, 0
1, 352954, Note_on_c, 0, 74, 41
1, 352954, Control_c, 0, 64, 0
1, 352985, Control_c, 0, 64, 127
1, 353009, Note_on_c, 0, 74, 0
1, 353009, Note_on_c, 0, 75, 44
1, 353063, Note_on_c, 0, 75, 0
1, 353063, Note_on_c, 0, 76, 46
1, 353117, Note_on_c, 0, 76, 0
1, 353117, Note_on_c, 0, 77, 49
1, 353171, Note_on_c, 0, 77, 0
1, 353171, Note_on_c, 0, 76, 49
1, 353224, Note_on_c, 0, 76, 0
1, 353224, Note_on_c, 0, 75, 47
1, 353278, Note_on_c, 0, 75, 0
1, 353278, Note_on_c, 0, 74, 46
1, 353332, Note_on_c, 0, 74, 0
1, 353332, Note_on_c, 0, 73, 45
1, 353387, Note_on_c, 0, 73, 0
1, 353387, Note_on_c, 0, 72, 44
1, 353441, Note_on_c, 0, 72, 0
1, 353441, Note_on_c, 0, 71, 43
1, 353496, Note_on_c, 0, 71, 0
1, 353496, Note_on_c, 0, 70, 41
1, 353551, Note_on_c, 0, 70, 0
1, 353551, Note_on_c, 0, 69, 40
1, 353606, Note_on_c, 0, 69, 0
1, 353606, Note_on_c, 0, 68, 39
1, 353625, Control_c, 0, 64, 0
1, 353632, Control_c, 0, 64, 127
1, 353661, Note_on_c, 0, 68, 0
1, 353661, Note_on_c, 0, 69, 44
1, 353716, Note_on_c, 0, 69, 0
1, 353716, Note_on_c, 0, 70, 46
1, 353770, Note_on_c, 0, 70, 0
1, 353770, Note_on_c, 0, 71, 48
1, 353823, Note_on_c, 0, 71, 0
1, 353823, Note_on_c, 0, 70, 49
1, 353877, Note_on_c, 0, 70, 0
1, 353877, Note_on_c, 0, 69, 48
1, 353931, Note_on_c, 0, 69, 0
1, 353931, Note_on_c, 0, 68, 45
1, 353972, Note_on_c, 0, 68, 0
1, 353972, Note_on_c, 0, 67, 45
1, 354014, Note_on_c, 0, 67, 0
1, 354014, Note_on_c, 0, 66, 47
1, 354056, Note_on_c, 0, 66, 0
1, 354056, Note_on_c, 0, 65, 49
1, 354098, Note_on_c, 0, 65, 0
1, 354098, Note_on_c, 0, 64, 50
1, 354139, Control_c, 0, 64, 0
1, 354184, Note_on_c, 0, 64, 0
1, 354316, Note_on_c, 0, 67, 45
1, 354316, Note_on_c, 0, 70, 54
1, 354316, Note_on_c, 0, 63, 40
1, 354367, Note_on_c, 0, 63, 0
1, 354452, Note_on_c, 0, 64, 38
1, 354503, Note_on_c, 0, 64, 0
1, 354520, Note_on_c, 0, 70, 0
1, 354520, Note_on_c, 0, 67, 0
1, 354588, Note_on_c, 0, 67, 43
1, 354588, Note_on_c, 0, 70, 51
1, 354588, Note_on_c, 0, 61, 38
1, 354637, Note_on_c, 0, 70, 0
1, 354637, Note_on_c, 0, 67, 0
1, 354637, Note_on_c, 0, 61, 0
1, 354718, Note_on_c, 0, 67, 43
1, 354718, Note_on_c, 0, 63, 38
1, 354718, Note_on_c, 0, 70, 51
1, 354766, Note_on_c, 0, 67, 0
1, 354766, Note_on_c, 0, 63, 0
1, 354766, Note_on_c, 0, 70, 0
1, 354847, Note_on_c, 0, 66, 48
1, 354847, Note_on_c, 0, 75, 56
1, 354847, Note_on_c, 0, 59, 40
1, 354896, Note_on_c, 0, 59, 0
1, 354979, Note_on_c, 0, 61, 38
1, 355028, Note_on_c, 0, 61, 0
1, 355111, Note_on_c, 0, 57, 38
1, 355160, Note_on_c, 0, 57, 0
1, 355243, Note_on_c, 0, 75, 0
1, 355243, Note_on_c, 0, 66, 0
1, 355243, Note_on_c, 0, 75, 49
1, 355246, Note_on_c, 0, 66, 41
1, 355246, Note_on_c, 0, 59, 38
1, 355293, Note_on_c, 0, 66, 0
1, 355293, Note_on_c, 0, 75, 0
1, 355293, Note_on_c, 0, 59, 0
1, 355375, Note_on_c, 0, 64, 44
1, 355375, Note_on_c, 0, 73, 52
1, 355375, Note_on_c, 0, 55, 44
1, 355422, Note_on_c, 0, 73, 0
1, 355422, Note_on_c, 0, 55, 0
1, 355501, Note_on_c, 0, 64, 0
1, 355501, Note_on_c, 0, 70, 52
1, 355501, Note_on_c, 0, 61, 39
1, 355549, Note_on_c, 0, 70, 0
1, 355549, Note_on_c, 0, 61, 0
1, 355628, Note_on_c, 0, 63, 44
1, 355628, Note_on_c, 0, 71, 52
1, 355628, Note_on_c, 0, 56, 38
1, 355676, Note_on_c, 0, 71, 0
1, 355676, Note_on_c, 0, 56, 0
1, 355757, Note_on_c, 0, 63, 0
1, 355757, Note_on_c, 0, 68, 54
1, 355757, Note_on_c, 0, 59, 40
1, 355805, Note_on_c, 0, 68, 0
1, 355805, Note_on_c, 0, 59, 0
1, 355886, Note_on_c, 0, 67, 44
1, 355886, Note_on_c, 0, 70, 53
1, 355886, Note_on_c, 0, 51, 40
1, 355937, Note_on_c, 0, 70, 0
1, 355937, Note_on_c, 0, 51, 0
1, 356022, Note_on_c, 0, 67, 0
1, 356022, Note_on_c, 0, 63, 50
1, 356022, Note_on_c, 0, 58, 37
1, 356075, Note_on_c, 0, 63, 0
1, 356075, Note_on_c, 0, 58, 0
1, 356161, Note_on_c, 0, 63, 45
1, 356448, Note_on_c, 0, 67, 49
1, 356448, Note_on_c, 0, 70, 59
1, 356448, Note_on_c, 0, 63, 0
1, 356451, Note_on_c, 0, 63, 44
1, 356499, Note_on_c, 0, 63, 0
1, 356584, Note_on_c, 0, 64, 41
1, 356635, Note_on_c, 0, 64, 0
1, 356652, Note_on_c, 0, 70, 0
1, 356652, Note_on_c, 0, 67, 0
1, 356720, Note_on_c, 0, 67, 47
1, 356720, Note_on_c, 0, 70, 56
1, 356720, Note_on_c, 0, 61, 41
1, 356768, Note_on_c, 0, 70, 0
1, 356768, Note_on_c, 0, 67, 0
1, 356768, Note_on_c, 0, 61, 0
1, 356849, Note_on_c, 0, 67, 47
1, 356849, Note_on_c, 0, 63, 41
1, 356849, Note_on_c, 0, 70, 56
1, 356897, Note_on_c, 0, 67, 0
1, 356897, Note_on_c, 0, 63, 0
1, 356897, Note_on_c, 0, 70, 0
1, 356978, Note_on_c, 0, 66, 52
1, 356978, Note_on_c, 0, 75, 61
1, 356978, Note_on_c, 0, 59, 44
1, 357028, Note_on_c, 0, 59, 0
1, 357110, Note_on_c, 0, 61, 41
1, 357160, Note_on_c, 0, 61, 0
1, 357242, Note_on_c, 0, 57, 41
1, 357292, Note_on_c, 0, 57, 0
1, 357375, Note_on_c, 0, 75, 0
1, 357375, Note_on_c, 0, 66, 0
1, 357375, Note_on_c, 0, 75, 53
1, 357378, Note_on_c, 0, 66, 45
1, 357378, Note_on_c, 0, 59, 41
1, 357424, Note_on_c, 0, 66, 0
1, 357424, Note_on_c, 0, 75, 0
1, 357424, Note_on_c, 0, 59, 0
1, 357507, Note_on_c, 0, 64, 48
1, 357507, Note_on_c, 0, 73, 57
1, 357507, Note_on_c, 0, 56, 48
1, 357554, Note_on_c, 0, 73, 0
1, 357554, Note_on_c, 0, 56, 0
1, 357633, Note_on_c, 0, 64, 0
1, 357633, Note_on_c, 0, 71, 57
1, 357633, Note_on_c, 0, 61, 39
1, 357680, Note_on_c, 0, 71, 0
1, 357680, Note_on_c, 0, 61, 0
1, 357759, Note_on_c, 0, 67, 48
1, 357759, Note_on_c, 0, 70, 58
1, 357759, Note_on_c, 0, 51, 41
1, 357807, Note_on_c, 0, 70, 0
1, 357807, Note_on_c, 0, 51, 0
1, 357888, Note_on_c, 0, 67, 0
1, 357888, Note_on_c, 0, 63, 61
1, 357888, Note_on_c, 0, 55, 39
1, 357891, Note_on_c, 0, 61, 45
1, 357937, Note_on_c, 0, 63, 0
1, 357937, Note_on_c, 0, 61, 0
1, 357937, Note_on_c, 0, 55, 0
1, 358017, Note_on_c, 0, 68, 60
1, 358017, Note_on_c, 0, 56, 46
1, 358069, Note_on_c, 0, 68, 0
1, 358069, Note_on_c, 0, 56, 0
1, 358155, Note_on_c, 0, 63, 58
1, 358155, Note_on_c, 0, 59, 42
1, 358207, Note_on_c, 0, 63, 0
1, 358207, Note_on_c, 0, 59, 0
1, 358293, Note_on_c, 0, 63, 55
1, 358293, Note_on_c, 0, 68, 62
1, 358293, Note_on_c, 0, 56, 48
1, 358296, Note_on_c, 0, 59, 52
1, 358350, Note_on_c, 0, 68, 0
1, 358350, Note_on_c, 0, 63, 0
1, 358350, Note_on_c, 0, 59, 0
1, 358353, Note_on_c, 0, 56, 0
1, 358599, Note_on_c, 0, 70, 58
1, 358599, Note_on_c, 0, 75, 58
1, 358599, Note_on_c, 0, 79, 58
1, 358602, Note_on_c, 0, 82, 70
1, 358602, Note_on_c, 0, 51, 44
1, 358602, Note_on_c, 0, 63, 52
1, 358605, Control_c, 0, 64, 127
1, 358650, Note_on_c, 0, 63, 0
1, 358650, Note_on_c, 0, 51, 0
1, 358735, Note_on_c, 0, 52, 41
1, 358735, Note_on_c, 0, 64, 49
1, 358767, Control_c, 0, 64, 0
1, 358786, Note_on_c, 0, 64, 0
1, 358786, Note_on_c, 0, 52, 0
1, 358803, Note_on_c, 0, 82, 0
1, 358803, Note_on_c, 0, 70, 0
1, 358803, Note_on_c, 0, 75, 0
1, 358806, Note_on_c, 0, 79, 0
1, 358871, Note_on_c, 0, 70, 55
1, 358871, Note_on_c, 0, 75, 55
1, 358871, Note_on_c, 0, 79, 55
1, 358874, Note_on_c, 0, 82, 66
1, 358874, Note_on_c, 0, 49, 41
1, 358874, Note_on_c, 0, 61, 49
1, 358919, Note_on_c, 0, 82, 0
1, 358919, Note_on_c, 0, 70, 0
1, 358919, Note_on_c, 0, 75, 0
1, 358922, Note_on_c, 0, 79, 0
1, 358922, Note_on_c, 0, 61, 0
1, 358922, Note_on_c, 0, 49, 0
1, 359000, Note_on_c, 0, 70, 55
1, 359000, Note_on_c, 0, 75, 55
1, 359000, Note_on_c, 0, 79, 55
1, 359003, Note_on_c, 0, 51, 41
1, 359003, Note_on_c, 0, 63, 49
1, 359003, Note_on_c, 0, 82, 66
1, 359048, Note_on_c, 0, 79, 0
1, 359048, Note_on_c, 0, 70, 0
1, 359048, Note_on_c, 0, 75, 0
1, 359051, Note_on_c, 0, 63, 0
1, 359051, Note_on_c, 0, 51, 0
1, 359051, Note_on_c, 0, 82, 0
1, 359129, Note_on_c, 0, 75, 62
1, 359129, Note_on_c, 0, 78, 62
1, 359129, Note_on_c, 0, 87, 72
1, 359132, Note_on_c, 0, 47, 44
1, 359132, Note_on_c, 0, 59, 52
1, 359132, Control_c, 0, 64, 127
1, 359179, Note_on_c, 0, 59, 0
1, 359179, Note_on_c, 0, 47, 0
1, 359261, Note_on_c, 0, 49, 41
1, 359261, Note_on_c, 0, 61, 49
1, 359282, Control_c, 0, 64, 0
1, 359311, Note_on_c, 0, 61, 0
1, 359311, Note_on_c, 0, 49, 0
1, 359393, Note_on_c, 0, 45, 41
1, 359393, Note_on_c, 0, 57, 49
1, 359443, Note_on_c, 0, 57, 0
1, 359443, Note_on_c, 0, 45, 0
1, 359525, Note_on_c, 0, 87, 0
1, 359525, Note_on_c, 0, 78, 0
1, 359525, Note_on_c, 0, 75, 0
1, 359528, Note_on_c, 0, 75, 53
1, 359528, Note_on_c, 0, 87, 63
1, 359528, Note_on_c, 0, 78, 53
1, 359531, Note_on_c, 0, 47, 41
1, 359531, Note_on_c, 0, 59, 49
1, 359575, Note_on_c, 0, 78, 0
1, 359575, Note_on_c, 0, 87, 0
1, 359575, Note_on_c, 0, 75, 0
1, 359578, Note_on_c, 0, 59, 0
1, 359578, Note_on_c, 0, 47, 0
1, 359658, Note_on_c, 0, 73, 57
1, 359658, Note_on_c, 0, 76, 57
1, 359658, Note_on_c, 0, 85, 67
1, 359661, Note_on_c, 0, 43, 48
1, 359661, Note_on_c, 0, 55, 57
1, 359705, Note_on_c, 0, 85, 0
1, 359705, Note_on_c, 0, 76, 0
1, 359705, Note_on_c, 0, 73, 0
1, 359784, Note_on_c, 0, 70, 67
1, 359784, Note_on_c, 0, 82, 67
1, 359831, Note_on_c, 0, 82, 0
1, 359831, Note_on_c, 0, 70, 0
1, 359910, Note_on_c, 0, 71, 57
1, 359910, Note_on_c, 0, 75, 57
1, 359910, Note_on_c, 0, 83, 67
1, 359913, Note_on_c, 0, 55, 0
1, 359913, Note_on_c, 0, 43, 0
1, 359913, Note_on_c, 0, 44, 41
1, 359916, Note_on_c, 0, 56, 49
1, 359958, Note_on_c, 0, 83, 0
1, 359958, Note_on_c, 0, 75, 0
1, 359958, Note_on_c, 0, 71, 0
1, 360039, Note_on_c, 0, 68, 70
1, 360039, Note_on_c, 0, 80, 70
1, 360088, Note_on_c, 0, 80, 0
1, 360088, Note_on_c, 0, 68, 0
1, 360168, Note_on_c, 0, 70, 57
1, 360168, Note_on_c, 0, 75, 57
1, 360168, Note_on_c, 0, 82, 68
1, 360171, Note_on_c, 0, 56, 0
1, 360171, Note_on_c, 0, 44, 0
1, 360171, Note_on_c, 0, 39, 44
1, 360174, Note_on_c, 0, 51, 52
1, 360218, Note_on_c, 0, 82, 0
1, 360218, Note_on_c, 0, 75, 0
1, 360218, Note_on_c, 0, 70, 0
1, 360221, Note_on_c, 0, 51, 0
1, 360221, Note_on_c, 0, 39, 0
1, 360301, Note_on_c, 0, 63, 57
1, 360301, Note_on_c, 0, 75, 65
1, 360301, Note_on_c, 0, 43, 40
1, 360304, Note_on_c, 0, 55, 48
1, 360351, Note_on_c, 0, 75, 0
1, 360351, Note_on_c, 0, 63, 0
1, 360351, Note_on_c, 0, 55, 0
1, 360354, Note_on_c, 0, 43, 0
1, 360434, Note_on_c, 0, 63, 57
1, 360434, Note_on_c, 0, 75, 68
1, 360434, Note_on_c, 0, 46, 40
1, 360437, Note_on_c, 0, 58, 48
1, 360484, Note_on_c, 0, 75, 0
1, 360484, Note_on_c, 0, 63, 0
1, 360484, Note_on_c, 0, 58, 0
1, 360487, Note_on_c, 0, 46, 0
1, 360568, Note_on_c, 0, 50, 40
1, 360568, Note_on_c, 0, 62, 48
1, 360620, Note_on_c, 0, 62, 0
1, 360620, Note_on_c, 0, 50, 0
1, 360707, Note_on_c, 0, 70, 60
1, 360707, Note_on_c, 0, 75, 60
1, 360707, Note_on_c, 0, 79, 60
1, 360710, Note_on_c, 0, 82, 73
1, 360710, Note_on_c, 0, 51, 46
1, 360710, Note_on_c, 0, 63, 54
1, 360713, Control_c, 0, 64, 127
1, 360758, Note_on_c, 0, 63, 0
1, 360758, Note_on_c, 0, 51, 0
1, 360843, Note_on_c, 0, 52, 43
1, 360843, Note_on_c, 0, 64, 51
1, 360856, Control_c, 0, 64, 0
1, 360894, Note_on_c, 0, 64, 0
1, 360894, Note_on_c, 0, 52, 0
1, 360912, Note_on_c, 0, 82, 0
1, 360912, Note_on_c, 0, 70, 0
1, 360912, Note_on_c, 0, 75, 0
1, 360915, Note_on_c, 0, 79, 0
1, 360980, Note_on_c, 0, 70, 57
1, 360980, Note_on_c, 0, 75, 57
1, 360980, Note_on_c, 0, 79, 57
1, 360983, Note_on_c, 0, 82, 69
1, 360983, Note_on_c, 0, 49, 43
1, 360983, Note_on_c, 0, 61, 51
1, 361028, Note_on_c, 0, 82, 0
1, 361028, Note_on_c, 0, 70, 0
1, 361028, Note_on_c, 0, 75, 0
1, 361031, Note_on_c, 0, 79, 0
1, 361031, Note_on_c, 0, 61, 0
1, 361031, Note_on_c, 0, 49, 0
1, 361109, Note_on_c, 0, 70, 57
1, 361109, Note_on_c, 0, 75, 57
1, 361109, Note_on_c, 0, 79, 57
1, 361112, Note_on_c, 0, 51, 43
1, 361112, Note_on_c, 0, 63, 51
1, 361112, Note_on_c, 0, 82, 69
1, 361157, Note_on_c, 0, 79, 0
1, 361157, Note_on_c, 0, 70, 0
1, 361157, Note_on_c, 0, 75, 0
1, 361160, Note_on_c, 0, 63, 0
1, 361160, Note_on_c, 0, 51, 0
1, 361160, Note_on_c, 0, 82, 0
1, 361238, Note_on_c, 0, 75, 65
1, 361238, Note_on_c, 0, 78, 65
1, 361238, Note_on_c, 0, 87, 75
1, 361241, Note_on_c, 0, 47, 46
1, 361241, Note_on_c, 0, 59, 54
1, 361287, Note_on_c, 0, 59, 0
1, 361287, Note_on_c, 0, 47, 0
1, 361370, Note_on_c, 0, 49, 43
1, 361370, Note_on_c, 0, 61, 51
1, 361419, Note_on_c, 0, 61, 0
1, 361419, Note_on_c, 0, 49, 0
1, 361502, Note_on_c, 0, 45, 43
1, 361502, Note_on_c, 0, 57, 51
1, 361552, Note_on_c, 0, 57, 0
1, 361552, Note_on_c, 0, 45, 0
1, 361634, Note_on_c, 0, 47, 43
1, 361634, Note_on_c, 0, 59, 51
1, 361684, Note_on_c, 0, 59, 0
1, 361684, Note_on_c, 0, 47, 0
1, 361766, Note_on_c, 0, 87, 0
1, 361766, Note_on_c, 0, 78, 0
1, 361766, Note_on_c, 0, 75, 0
1, 361769, Note_on_c, 0, 74, 63
1, 361769, Note_on_c, 0, 79, 63
1, 361769, Note_on_c, 0, 83, 63
1, 361772, Note_on_c, 0, 86, 76
1, 361772, Note_on_c, 0, 43, 48
1, 361772, Note_on_c, 0, 55, 56
1, 361775, Control_c, 0, 64, 127
1, 361817, Note_on_c, 0, 55, 0
1, 361817, Note_on_c, 0, 43, 0
1, 361902, Note_on_c, 0, 45, 45
1, 361902, Note_on_c, 0, 57, 53
1, 361954, Note_on_c, 0, 57, 0
1, 361954, Note_on_c, 0, 45, 0
1, 361971, Note_on_c, 0, 86, 0
1, 361971, Note_on_c, 0, 74, 0
1, 361971, Note_on_c, 0, 79, 0
1, 361974, Note_on_c, 0, 83, 0
1, 362039, Note_on_c, 0, 74, 59
1, 362039, Note_on_c, 0, 79, 59
1, 362039, Note_on_c, 0, 83, 59
1, 362042, Note_on_c, 0, 86, 72
1, 362042, Note_on_c, 0, 41, 45
1, 362042, Note_on_c, 0, 53, 53
1, 362045, Control_c, 0, 64, 0
1, 362087, Note_on_c, 0, 86, 0
1, 362087, Note_on_c, 0, 74, 0
1, 362087, Note_on_c, 0, 79, 0
1, 362090, Note_on_c, 0, 83, 0
1, 362090, Note_on_c, 0, 53, 0
1, 362090, Note_on_c, 0, 41, 0
1, 362168, Note_on_c, 0, 86, 72
1, 362168, Note_on_c, 0, 74, 59
1, 362168, Note_on_c, 0, 79, 59
1, 362171, Note_on_c, 0, 83, 59
1, 362171, Note_on_c, 0, 43, 45
1, 362171, Note_on_c, 0, 55, 53
1, 362216, Note_on_c, 0, 83, 0
1, 362216, Note_on_c, 0, 86, 0
1, 362216, Note_on_c, 0, 74, 0
1, 362219, Note_on_c, 0, 79, 0
1, 362219, Note_on_c, 0, 55, 0
1, 362219, Note_on_c, 0, 43, 0
1, 362297, Note_on_c, 0, 79, 68
1, 362297, Note_on_c, 0, 82, 68
1, 362297, Note_on_c, 0, 87, 68
1, 362300, Note_on_c, 0, 91, 78
1, 362300, Note_on_c, 0, 39, 48
1, 362300, Note_on_c, 0, 51, 56
1, 362303, Control_c, 0, 64, 127
1, 362346, Note_on_c, 0, 51, 0
1, 362346, Note_on_c, 0, 39, 0
1, 362429, Note_on_c, 0, 41, 45
1, 362429, Note_on_c, 0, 53, 53
1, 362451, Control_c, 0, 64, 0
1, 362479, Note_on_c, 0, 53, 0
1, 362479, Note_on_c, 0, 41, 0
1, 362561, Note_on_c, 0, 37, 45
1, 362561, Note_on_c, 0, 49, 53
1, 362611, Note_on_c, 0, 49, 0
1, 362611, Note_on_c, 0, 37, 0
1, 362693, Note_on_c, 0, 39, 45
1, 362693, Note_on_c, 0, 51, 53
1, 362743, Note_on_c, 0, 51, 0
1, 362743, Note_on_c, 0, 39, 0
1, 362825, Note_on_c, 0, 91, 0
1, 362825, Note_on_c, 0, 79, 0
1, 362825, Note_on_c, 0, 82, 0
1, 362828, Note_on_c, 0, 87, 0
1, 362828, Note_on_c, 0, 79, 66
1, 362828, Note_on_c, 0, 84, 66
1, 362831, Note_on_c, 0, 88, 66
1, 362831, Note_on_c, 0, 91, 79
1, 362831, Note_on_c, 0, 36, 67
1, 362834, Control_c, 0, 64, 127
1, 362962, Note_on_c, 0, 36, 0
1, 362962, Note_on_c, 0, 48, 55
1, 363013, Note_on_c, 0, 48, 0
1, 363030, Note_on_c, 0, 91, 0
1, 363030, Note_on_c, 0, 79, 0
1, 363030, Note_on_c, 0, 84, 0
1, 363033, Note_on_c, 0, 88, 0
1, 363088, Control_c, 0, 64, 0
1, 363098, Note_on_c, 0, 79, 61
1, 363098, Note_on_c, 0, 84, 61
1, 363098, Note_on_c, 0, 88, 61
1, 363101, Note_on_c, 0, 91, 75
1, 363101, Note_on_c, 0, 35, 64
1, 363146, Note_on_c, 0, 91, 0
1, 363146, Note_on_c, 0, 79, 0
1, 363146, Note_on_c, 0, 84, 0
1, 363149, Note_on_c, 0, 88, 0
1, 363227, Note_on_c, 0, 91, 75
1, 363227, Note_on_c, 0, 79, 61
1, 363227, Note_on_c, 0, 84, 61
1, 363230, Note_on_c, 0, 88, 61
1, 363230, Note_on_c, 0, 35, 0
1, 363230, Note_on_c, 0, 47, 55
1, 363275, Note_on_c, 0, 88, 0
1, 363275, Note_on_c, 0, 91, 0
1, 363275, Note_on_c, 0, 79, 0
1, 363278, Note_on_c, 0, 84, 0
1, 363278, Note_on_c, 0, 47, 0
1, 363356, Note_on_c, 0, 84, 71
1, 363356, Note_on_c, 0, 88, 71
1, 363356, Note_on_c, 0, 91, 71
1, 363359, Note_on_c, 0, 96, 81
1, 363359, Note_on_c, 0, 33, 70
1, 363359, Control_c, 0, 64, 127
1, 363488, Note_on_c, 0, 33, 0
1, 363488, Note_on_c, 0, 45, 55
1, 363538, Note_on_c, 0, 45, 0
1, 363608, Control_c, 0, 64, 0
1, 363620, Note_on_c, 0, 31, 67
1, 363645, Control_c, 0, 64, 127
1, 363752, Note_on_c, 0, 31, 0
1, 363752, Note_on_c, 0, 43, 56
1, 363802, Note_on_c, 0, 43, 0
1, 363884, Note_on_c, 0, 96, 0
1, 363884, Note_on_c, 0, 84, 0
1, 363884, Note_on_c, 0, 88, 0
1, 363887, Note_on_c, 0, 91, 0
1, 363887, Note_on_c, 0, 67, 67
1, 363887, Note_on_c, 0, 72, 67
1, 363890, Note_on_c, 0, 76, 67
1, 363890, Note_on_c, 0, 79, 80
1, 363890, Note_on_c, 0, 36, 68
1, 363893, Control_c, 0, 64, 0
1, 363936, Control_c, 0, 64, 127
1, 364021, Note_on_c, 0, 36, 0
1, 364021, Note_on_c, 0, 48, 56
1, 364072, Note_on_c, 0, 48, 0
1, 364089, Note_on_c, 0, 79, 0
1, 364089, Note_on_c, 0, 67, 0
1, 364089, Note_on_c, 0, 72, 0
1, 364092, Note_on_c, 0, 76, 0
1, 364140, Control_c, 0, 64, 0
1, 364157, Note_on_c, 0, 67, 62
1, 364157, Note_on_c, 0, 72, 62
1, 364157, Note_on_c, 0, 76, 62
1, 364160, Note_on_c, 0, 79, 77
1, 364160, Note_on_c, 0, 35, 65
1, 364205, Note_on_c, 0, 79, 0
1, 364205, Note_on_c, 0, 67, 0
1, 364205, Note_on_c, 0, 72, 0
1, 364208, Note_on_c, 0, 76, 0
1, 364286, Note_on_c, 0, 79, 77
1, 364286, Note_on_c, 0, 67, 62
1, 364286, Note_on_c, 0, 72, 62
1, 364289, Note_on_c, 0, 76, 62
1, 364289, Note_on_c, 0, 35, 0
1, 364289, Note_on_c, 0, 47, 56
1, 364334, Note_on_c, 0, 76, 0
1, 364334, Note_on_c, 0, 79, 0
1, 364334, Note_on_c, 0, 67, 0
1, 364337, Note_on_c, 0, 72, 0
1, 364337, Note_on_c, 0, 47, 0
1, 364415, Note_on_c, 0, 72, 73
1, 364415, Note_on_c, 0, 76, 73
1, 364415, Note_on_c, 0, 79, 73
1, 364418, Note_on_c, 0, 84, 83
1, 364418, Note_on_c, 0, 40, 72
1, 364418, Control_c, 0, 64, 127
1, 364547, Note_on_c, 0, 52, 75
1, 364944, Note_on_c, 0, 84, 0
1, 364944, Note_on_c, 0, 72, 0
1, 364944, Note_on_c, 0, 76, 0
1, 364947, Note_on_c, 0, 79, 0
1, 364947, Note_on_c, 0, 79, 69
1, 364947, Note_on_c, 0, 84, 69
1, 364950, Note_on_c, 0, 88, 69
1, 364950, Note_on_c, 0, 91, 82
1, 364950, Note_on_c, 0, 52, 0
1, 364953, Note_on_c, 0, 40, 0
1, 364953, Note_on_c, 0, 36, 58
1, 364953, Note_on_c, 0, 48, 70
1, 364956, Control_c, 0, 64, 0
1, 364976, Control_c, 0, 64, 127
1, 364995, Note_on_c, 0, 48, 0
1, 364995, Note_on_c, 0, 36, 0
1, 365080, Note_on_c, 0, 48, 48
1, 365080, Note_on_c, 0, 60, 57
1, 365131, Note_on_c, 0, 60, 0
1, 365131, Note_on_c, 0, 48, 0
1, 365148, Note_on_c, 0, 91, 0
1, 365148, Note_on_c, 0, 79, 0
1, 365148, Note_on_c, 0, 84, 0
1, 365151, Note_on_c, 0, 88, 0
1, 365216, Note_on_c, 0, 79, 64
1, 365216, Note_on_c, 0, 84, 64
1, 365216, Note_on_c, 0, 88, 64
1, 365219, Note_on_c, 0, 91, 78
1, 365219, Note_on_c, 0, 35, 56
1, 365219, Note_on_c, 0, 47, 67
1, 365222, Control_c, 0, 64, 0
1, 365264, Note_on_c, 0, 91, 0
1, 365264, Note_on_c, 0, 79, 0
1, 365264, Note_on_c, 0, 84, 0
1, 365267, Note_on_c, 0, 88, 0
1, 365267, Note_on_c, 0, 47, 0
1, 365267, Note_on_c, 0, 35, 0
1, 365345, Note_on_c, 0, 91, 78
1, 365345, Note_on_c, 0, 79, 64
1, 365345, Note_on_c, 0, 84, 64
1, 365348, Note_on_c, 0, 88, 64
1, 365348, Note_on_c, 0, 59, 57
1, 365348, Note_on_c, 0, 47, 48
1, 365393, Note_on_c, 0, 88, 0
1, 365393, Note_on_c, 0, 91, 0
1, 365393, Note_on_c, 0, 79, 0
1, 365396, Note_on_c, 0, 84, 0
1, 365396, Note_on_c, 0, 47, 0
1, 365396, Note_on_c, 0, 59, 0
1, 365474, Note_on_c, 0, 84, 75
1, 365474, Note_on_c, 0, 88, 75
1, 365474, Note_on_c, 0, 91, 75
1, 365477, Note_on_c, 0, 96, 85
1, 365477, Note_on_c, 0, 45, 74
1, 365477, Note_on_c, 0, 33, 62
1, 365480, Control_c, 0, 64, 127
1, 365524, Note_on_c, 0, 33, 0
1, 365524, Note_on_c, 0, 45, 0
1, 365606, Note_on_c, 0, 57, 58
1, 365606, Note_on_c, 0, 45, 48
1, 365656, Note_on_c, 0, 45, 0
1, 365656, Note_on_c, 0, 57, 0
1, 365738, Note_on_c, 0, 43, 71
1, 365738, Note_on_c, 0, 31, 59
1, 365748, Control_c, 0, 64, 0
1, 365782, Control_c, 0, 64, 127
1, 365788, Note_on_c, 0, 31, 0
1, 365788, Note_on_c, 0, 43, 0
1, 365870, Note_on_c, 0, 55, 58
1, 365870, Note_on_c, 0, 43, 49
1, 365920, Note_on_c, 0, 43, 0
1, 365920, Note_on_c, 0, 55, 0
1, 366003, Note_on_c, 0, 96, 0
1, 366003, Note_on_c, 0, 84, 0
1, 366003, Note_on_c, 0, 88, 0
1, 366006, Note_on_c, 0, 91, 0
1, 366006, Note_on_c, 0, 67, 70
1, 366006, Note_on_c, 0, 72, 70
1, 366009, Note_on_c, 0, 76, 70
1, 366009, Note_on_c, 0, 79, 84
1, 366009, Note_on_c, 0, 36, 59
1, 366012, Note_on_c, 0, 48, 71
1, 366012, Control_c, 0, 64, 0
1, 366054, Note_on_c, 0, 48, 0
1, 366054, Note_on_c, 0, 36, 0
1, 366067, Control_c, 0, 64, 127
1, 366139, Note_on_c, 0, 48, 49
1, 366139, Note_on_c, 0, 60, 58
1, 366190, Note_on_c, 0, 60, 0
1, 366190, Note_on_c, 0, 48, 0
1, 366207, Note_on_c, 0, 79, 0
1, 366207, Note_on_c, 0, 67, 0
1, 366207, Note_on_c, 0, 72, 0
1, 366210, Note_on_c, 0, 76, 0
1, 366275, Note_on_c, 0, 67, 65
1, 366275, Note_on_c, 0, 72, 65
1, 366275, Note_on_c, 0, 76, 65
1, 366278, Note_on_c, 0, 79, 81
1, 366278, Note_on_c, 0, 38, 58
1, 366278, Note_on_c, 0, 50, 69
1, 366281, Control_c, 0, 64, 0
1, 366323, Note_on_c, 0, 79, 0
1, 366323, Note_on_c, 0, 67, 0
1, 366323, Note_on_c, 0, 72, 0
1, 366326, Note_on_c, 0, 76, 0
1, 366326, Note_on_c, 0, 50, 0
1, 366326, Note_on_c, 0, 38, 0
1, 366404, Note_on_c, 0, 79, 81
1, 366404, Note_on_c, 0, 67, 65
1, 366404, Note_on_c, 0, 72, 65
1, 366407, Note_on_c, 0, 76, 65
1, 366407, Note_on_c, 0, 62, 59
1, 366407, Note_on_c, 0, 50, 49
1, 366452, Note_on_c, 0, 76, 0
1, 366452, Note_on_c, 0, 79, 0
1, 366452, Note_on_c, 0, 67, 0
1, 366455, Note_on_c, 0, 72, 0
1, 366455, Note_on_c, 0, 50, 0
1, 366455, Note_on_c, 0, 62, 0
1, 366533, Note_on_c, 0, 72, 76
1, 366533, Note_on_c, 0, 76, 76
1, 366533, Note_on_c, 0, 79, 76
1, 366536, Note_on_c, 0, 84, 87
1, 366536, Note_on_c, 0, 52, 75
1, 366536, Note_on_c, 0, 40, 63
1, 366539, Control_c, 0, 64, 127
1, 366583, Note_on_c, 0, 40, 0
1, 366583, Note_on_c, 0, 52, 0
1, 366665, Note_on_c, 0, 64, 80
1, 366665, Note_on_c, 0, 52, 65
1, 367077, Note_on_c, 0, 84, 0
1, 367077, Note_on_c, 0, 72, 0
1, 367077, Note_on_c, 0, 76, 0
1, 367080, Note_on_c, 0, 79, 0
1, 367080, Note_on_c, 0, 85, 72
1, 367080, Note_on_c, 0, 93, 72
1, 367083, Note_on_c, 0, 97, 86
1, 367083, Note_on_c, 0, 52, 0
1, 367083, Note_on_c, 0, 64, 0
1, 367086, Note_on_c, 0, 33, 61
1, 367086, Note_on_c, 0, 45, 73
1, 367086, Control_c, 0, 64, 0
1, 367126, Control_c, 0, 64, 127
1, 367129, Note_on_c, 0, 45, 0
1, 367129, Note_on_c, 0, 33, 0
1, 367216, Note_on_c, 0, 45, 50
1, 367216, Note_on_c, 0, 57, 60
1, 367268, Note_on_c, 0, 57, 0
1, 367268, Note_on_c, 0, 45, 0
1, 367285, Note_on_c, 0, 97, 0
1, 367285, Note_on_c, 0, 93, 0
1, 367285, Note_on_c, 0, 85, 0
1, 367355, Note_on_c, 0, 85, 67
1, 367355, Note_on_c, 0, 93, 67
1, 367355, Note_on_c, 0, 97, 82
1, 367358, Note_on_c, 0, 32, 59
1, 367358, Note_on_c, 0, 44, 70
1, 367364, Control_c, 0, 64, 0
1, 367404, Note_on_c, 0, 97, 0
1, 367404, Note_on_c, 0, 93, 0
1, 367404, Note_on_c, 0, 85, 0
1, 367407, Note_on_c, 0, 44, 0
1, 367407, Note_on_c, 0, 32, 0
1, 367485, Note_on_c, 0, 97, 82
1, 367485, Note_on_c, 0, 85, 67
1, 367485, Note_on_c, 0, 93, 67
1, 367488, Note_on_c, 0, 56, 60
1, 367488, Note_on_c, 0, 44, 50
1, 367534, Note_on_c, 0, 93, 0
1, 367534, Note_on_c, 0, 85, 0
1, 367534, Note_on_c, 0, 97, 0
1, 367537, Note_on_c, 0, 44, 0
1, 367537, Note_on_c, 0, 56, 0
1, 367616, Note_on_c, 0, 97, 78
1, 367616, Note_on_c, 0, 88, 78
1, 367616, Note_on_c, 0, 93, 78
1, 367619, Note_on_c, 0, 100, 89
1, 367619, Note_on_c, 0, 42, 77
1, 367619, Note_on_c, 0, 30, 64
1, 367622, Control_c, 0, 64, 127
1, 367666, Note_on_c, 0, 30, 0
1, 367666, Note_on_c, 0, 42, 0
1, 367750, Note_on_c, 0, 54, 60
1, 367750, Note_on_c, 0, 42, 50
1, 367801, Note_on_c, 0, 42, 0
1, 367801, Note_on_c, 0, 54, 0
1, 367878, Control_c, 0, 64, 0
1, 367885, Note_on_c, 0, 40, 73
1, 367885, Note_on_c, 0, 28, 61
1, 367913, Control_c, 0, 64, 127
1, 367935, Note_on_c, 0, 28, 0
1, 367935, Note_on_c, 0, 40, 0
1, 368019, Note_on_c, 0, 52, 60
1, 368019, Note_on_c, 0, 40, 50
1, 368070, Note_on_c, 0, 40, 0
1, 368070, Note_on_c, 0, 52, 0
1, 368154, Note_on_c, 0, 100, 0
1, 368154, Note_on_c, 0, 97, 0
1, 368154, Note_on_c, 0, 88, 0
1, 368157, Note_on_c, 0, 93, 0
1, 368157, Note_on_c, 0, 73, 72
1, 368157, Note_on_c, 0, 81, 72
1, 368160, Note_on_c, 0, 85, 86
1, 368160, Note_on_c, 0, 33, 61
1, 368160, Note_on_c, 0, 45, 73
1, 368163, Control_c, 0, 64, 0
1, 368196, Control_c, 0, 64, 127
1, 368206, Note_on_c, 0, 45, 0
1, 368206, Note_on_c, 0, 33, 0
1, 368292, Note_on_c, 0, 45, 50
1, 368292, Note_on_c, 0, 57, 60
1, 368343, Note_on_c, 0, 57, 0
1, 368343, Note_on_c, 0, 45, 0
1, 368361, Note_on_c, 0, 85, 0
1, 368361, Note_on_c, 0, 81, 0
1, 368361, Note_on_c, 0, 73, 0
1, 368430, Note_on_c, 0, 73, 67
1, 368430, Note_on_c, 0, 81, 67
1, 368430, Note_on_c, 0, 85, 82
1, 368433, Note_on_c, 0, 35, 59
1, 368433, Note_on_c, 0, 47, 70
1, 368448, Control_c, 0, 64, 0
1, 368479, Note_on_c, 0, 85, 0
1, 368479, Note_on_c, 0, 81, 0
1, 368479, Note_on_c, 0, 73, 0
1, 368482, Note_on_c, 0, 47, 0
1, 368482, Note_on_c, 0, 35, 0
1, 368562, Note_on_c, 0, 85, 82
1, 368562, Note_on_c, 0, 73, 67
1, 368562, Note_on_c, 0, 81, 67
1, 368565, Note_on_c, 0, 59, 60
1, 368565, Note_on_c, 0, 47, 50
1, 368611, Note_on_c, 0, 81, 0
1, 368611, Note_on_c, 0, 73, 0
1, 368611, Note_on_c, 0, 85, 0
1, 368614, Note_on_c, 0, 47, 0
1, 368614, Note_on_c, 0, 59, 0
1, 368694, Note_on_c, 0, 85, 78
1, 368694, Note_on_c, 0, 76, 78
1, 368694, Note_on_c, 0, 81, 78
1, 368697, Note_on_c, 0, 88, 89
1, 368697, Note_on_c, 0, 49, 77
1, 368697, Note_on_c, 0, 37, 64
1, 368700, Control_c, 0, 64, 127
1, 368744, Note_on_c, 0, 37, 0
1, 368744, Note_on_c, 0, 49, 0
1, 368828, Note_on_c, 0, 61, 81
1, 368828, Note_on_c, 0, 49, 66
1, 369232, Note_on_c, 0, 88, 0
1, 369232, Note_on_c, 0, 85, 0
1, 369232, Note_on_c, 0, 76, 0
1, 369235, Note_on_c, 0, 81, 0
1, 369235, Note_on_c, 0, 85, 72
1, 369235, Note_on_c, 0, 93, 72
1, 369238, Note_on_c, 0, 97, 86
1, 369238, Note_on_c, 0, 49, 0
1, 369238, Note_on_c, 0, 61, 0
1, 369241, Note_on_c, 0, 33, 61
1, 369241, Note_on_c, 0, 45, 73
1, 369241, Control_c, 0, 64, 0
1, 369282, Control_c, 0, 64, 127
1, 369285, Note_on_c, 0, 45, 0
1, 369285, Note_on_c, 0, 33, 0
1, 369372, Note_on_c, 0, 45, 50
1, 369372, Note_on_c, 0, 57, 60
1, 369425, Note_on_c, 0, 57, 0
1, 369425, Note_on_c, 0, 45, 0
1, 369442, Note_on_c, 0, 97, 0
1, 369442, Note_on_c, 0, 93, 0
1, 369442, Note_on_c, 0, 85, 0
1, 369513, Note_on_c, 0, 85, 67
1, 369513, Note_on_c, 0, 93, 67
1, 369513, Note_on_c, 0, 97, 82
1, 369516, Note_on_c, 0, 32, 59
1, 369516, Note_on_c, 0, 44, 70
1, 369519, Control_c, 0, 64, 0
1, 369562, Note_on_c, 0, 97, 0
1, 369562, Note_on_c, 0, 93, 0
1, 369562, Note_on_c, 0, 85, 0
1, 369565, Note_on_c, 0, 44, 0
1, 369565, Note_on_c, 0, 32, 0
1, 369645, Note_on_c, 0, 97, 82
1, 369645, Note_on_c, 0, 85, 67
1, 369645, Note_on_c, 0, 93, 67
1, 369648, Note_on_c, 0, 56, 60
1, 369648, Note_on_c, 0, 44, 50
1, 369694, Note_on_c, 0, 93, 0
1, 369694, Note_on_c, 0, 85, 0
1, 369694, Note_on_c, 0, 97, 0
1, 369697, Note_on_c, 0, 44, 0
1, 369697, Note_on_c, 0, 56, 0
1, 369777, Note_on_c, 0, 97, 78
1, 369777, Note_on_c, 0, 88, 78
1, 369777, Note_on_c, 0, 93, 78
1, 369780, Note_on_c, 0, 100, 89
1, 369780, Note_on_c, 0, 42, 77
1, 369780, Note_on_c, 0, 30, 64
1, 369783, Control_c, 0, 64, 127
1, 369829, Note_on_c, 0, 30, 0
1, 369829, Note_on_c, 0, 42, 0
1, 369915, Note_on_c, 0, 54, 60
1, 369915, Note_on_c, 0, 42, 50
1, 369966, Note_on_c, 0, 42, 0
1, 369966, Note_on_c, 0, 54, 0
1, 370053, Note_on_c, 0, 40, 73
1, 370053, Note_on_c, 0, 28, 61
1, 370053, Control_c, 0, 64, 0
1, 370092, Control_c, 0, 64, 127
1, 370104, Note_on_c, 0, 28, 0
1, 370104, Note_on_c, 0, 40, 0
1, 370190, Note_on_c, 0, 52, 60
1, 370190, Note_on_c, 0, 40, 50
1, 370242, Note_on_c, 0, 40, 0
1, 370242, Note_on_c, 0, 52, 0
1, 370328, Note_on_c, 0, 100, 0
1, 370328, Note_on_c, 0, 97, 0
1, 370328, Note_on_c, 0, 88, 0
1, 370331, Note_on_c, 0, 93, 0
1, 370331, Note_on_c, 0, 73, 72
1, 370331, Note_on_c, 0, 81, 72
1, 370334, Note_on_c, 0, 85, 86
1, 370334, Note_on_c, 0, 33, 61
1, 370334, Note_on_c, 0, 45, 73
1, 370337, Control_c, 0, 64, 0
1, 370363, Control_c, 0, 64, 127
1, 370383, Note_on_c, 0, 45, 0
1, 370383, Note_on_c, 0, 33, 0
1, 370475, Note_on_c, 0, 45, 50
1, 370475, Note_on_c, 0, 57, 60
1, 370530, Note_on_c, 0, 57, 0
1, 370530, Note_on_c, 0, 45, 0
1, 370548, Note_on_c, 0, 85, 0
1, 370548, Note_on_c, 0, 81, 0
1, 370548, Note_on_c, 0, 73, 0
1, 370622, Note_on_c, 0, 73, 67
1, 370622, Note_on_c, 0, 81, 67
1, 370622, Note_on_c, 0, 85, 82
1, 370625, Note_on_c, 0, 35, 59
1, 370625, Note_on_c, 0, 47, 70
1, 370632, Control_c, 0, 64, 0
1, 370673, Note_on_c, 0, 85, 0
1, 370673, Note_on_c, 0, 81, 0
1, 370673, Note_on_c, 0, 73, 0
1, 370676, Note_on_c, 0, 47, 0
1, 370676, Note_on_c, 0, 35, 0
1, 370759, Note_on_c, 0, 85, 82
1, 370759, Note_on_c, 0, 73, 67
1, 370759, Note_on_c, 0, 81, 67
1, 370762, Note_on_c, 0, 59, 60
1, 370762, Note_on_c, 0, 47, 50
1, 370810, Note_on_c, 0, 81, 0
1, 370810, Note_on_c, 0, 73, 0
1, 370810, Note_on_c, 0, 85, 0
1, 370813, Note_on_c, 0, 47, 0
1, 370813, Note_on_c, 0, 59, 0
1, 370896, Note_on_c, 0, 85, 78
1, 370896, Note_on_c, 0, 76, 78
1, 370896, Note_on_c, 0, 81, 78
1, 370899, Note_on_c, 0, 88, 89
1, 370899, Note_on_c, 0, 49, 77
1, 370899, Note_on_c, 0, 37, 64
1, 370902, Control_c, 0, 64, 127
1, 370956, Note_on_c, 0, 37, 0
1, 370956, Note_on_c, 0, 49, 0
1, 371057, Note_on_c, 0, 61, 81
1, 371057, Note_on_c, 0, 49, 66
1, 371416, Control_c, 0, 64, 0
1, 371448, Note_on_c, 0, 49, 0
1, 371448, Note_on_c, 0, 61, 0
1, 371484, Note_on_c, 0, 88, 0
1, 371484, Note_on_c, 0, 85, 0
1, 371484, Note_on_c, 0, 76, 0
1, 371487, Note_on_c, 0, 81, 0
1, 371487, Note_on_c, 0, 54, 73
1, 371487, Note_on_c, 0, 58, 73
1, 371490, Note_on_c, 0, 61, 73
1, 371490, Note_on_c, 0, 66, 87
1, 371490, Note_on_c, 0, 30, 55
1, 371493, Note_on_c, 0, 34, 55
1, 371493, Note_on_c, 0, 37, 55
1, 371493, Note_on_c, 0, 42, 65
1, 371624, Control_c, 0, 64, 127
1, 371765, Note_on_c, 0, 66, 0
1, 371765, Note_on_c, 0, 54, 0
1, 371765, Note_on_c, 0, 58, 0
1, 371768, Note_on_c, 0, 61, 0
1, 371768, Note_on_c, 0, 58, 68
1, 371768, Note_on_c, 0, 61, 68
1, 371771, Note_on_c, 0, 65, 80
1, 371771, Note_on_c, 0, 53, 68
1, 371771, Note_on_c, 0, 42, 0
1, 371774, Note_on_c, 0, 30, 0
1, 371774, Note_on_c, 0, 34, 0
1, 371774, Note_on_c, 0, 37, 0
1, 371777, Note_on_c, 0, 29, 51
1, 371777, Note_on_c, 0, 34, 51
1, 371777, Note_on_c, 0, 37, 51
1, 371780, Note_on_c, 0, 41, 60
1, 371780, Control_c, 0, 64, 0
1, 371889, Control_c, 0, 64, 127
1, 372046, Note_on_c, 0, 53, 0
1, 372046, Note_on_c, 0, 58, 0
1, 372046, Note_on_c, 0, 61, 0
1, 372049, Note_on_c, 0, 65, 0
1, 372049, Note_on_c, 0, 51, 72
1, 372049, Note_on_c, 0, 54, 72
1, 372052, Note_on_c, 0, 58, 72
1, 372052, Note_on_c, 0, 63, 85
1, 372052, Note_on_c, 0, 41, 0
1, 372055, Note_on_c, 0, 29, 0
1, 372055, Note_on_c, 0, 34, 0
1, 372055, Note_on_c, 0, 37, 0
1, 372058, Note_on_c, 0, 27, 55
1, 372058, Note_on_c, 0, 30, 55
1, 372058, Note_on_c, 0, 34, 55
1, 372061, Note_on_c, 0, 39, 65
1, 372061, Control_c, 0, 64, 0
1, 372186, Control_c, 0, 64, 127
1, 372326, Note_on_c, 0, 63, 0
1, 372326, Note_on_c, 0, 51, 0
1, 372326, Note_on_c, 0, 54, 0
1, 372329, Note_on_c, 0, 58, 0
1, 372329, Note_on_c, 0, 54, 68
1, 372329, Note_on_c, 0, 58, 68
1, 372332, Note_on_c, 0, 61, 80
1, 372332, Note_on_c, 0, 49, 68
1, 372332, Note_on_c, 0, 39, 0
1, 372335, Note_on_c, 0, 27, 0
1, 372335, Note_on_c, 0, 30, 0
1, 372335, Note_on_c, 0, 34, 0
1, 372338, Note_on_c, 0, 25, 51
1, 372338, Note_on_c, 0, 30, 51
1, 372338, Note_on_c, 0, 34, 51
1, 372341, Note_on_c, 0, 37, 51
1, 372341, Control_c, 0, 64, 0
1, 372439, Control_c, 0, 64, 127
1, 372618, Note_on_c, 0, 49, 0
1, 372618, Note_on_c, 0, 54, 0
1, 372618, Note_on_c, 0, 58, 0
1, 372621, Note_on_c, 0, 61, 0
1, 372621, Note_on_c, 0, 54, 73
1, 372621, Note_on_c, 0, 58, 73
1, 372624, Note_on_c, 0, 61, 73
1, 372624, Note_on_c, 0, 66, 86
1, 372624, Note_on_c, 0, 37, 0
1, 372627, Note_on_c, 0, 25, 0
1, 372627, Note_on_c, 0, 30, 0
1, 372627, Note_on_c, 0, 34, 0
1, 372630, Note_on_c, 0, 30, 55
1, 372630, Note_on_c, 0, 34, 55
1, 372630, Note_on_c, 0, 37, 55
1, 372633, Note_on_c, 0, 42, 65
1, 372633, Control_c, 0, 64, 0
1, 372683, Control_c, 0, 64, 127
1, 372742, Note_on_c, 0, 66, 0
1, 372742, Note_on_c, 0, 54, 0
1, 372742, Note_on_c, 0, 58, 0
1, 372745, Note_on_c, 0, 61, 0
1, 372745, Note_on_c, 0, 42, 0
1, 372745, Note_on_c, 0, 30, 0
1, 372748, Note_on_c, 0, 34, 0
1, 372748, Note_on_c, 0, 37, 0
1, 372756, Note_on_c, 0, 54, 68
1, 372756, Note_on_c, 0, 58, 68
1, 372756, Note_on_c, 0, 61, 68
1, 372759, Note_on_c, 0, 66, 80
1, 372759, Note_on_c, 0, 30, 51
1, 372759, Note_on_c, 0, 34, 51
1, 372762, Note_on_c, 0, 37, 51
1, 372762, Note_on_c, 0, 42, 60
1, 372880, Note_on_c, 0, 66, 0
1, 372880, Note_on_c, 0, 54, 0
1, 372880, Note_on_c, 0, 58, 0
1, 372883, Note_on_c, 0, 61, 0
1, 372883, Note_on_c, 0, 42, 0
1, 372883, Note_on_c, 0, 30, 0
1, 372886, Note_on_c, 0, 34, 0
1, 372886, Note_on_c, 0, 37, 0
1, 372894, Note_on_c, 0, 56, 73
1, 372894, Note_on_c, 0, 61, 73
1, 372894, Note_on_c, 0, 68, 86
1, 372897, Note_on_c, 0, 32, 55
1, 372897, Note_on_c, 0, 37, 55
1, 372897, Note_on_c, 0, 44, 65
1, 372910, Control_c, 0, 64, 0
1, 372986, Control_c, 0, 64, 127
1, 373180, Note_on_c, 0, 68, 0
1, 373180, Note_on_c, 0, 61, 0
1, 373180, Note_on_c, 0, 56, 0
1, 373183, Note_on_c, 0, 58, 75
1, 373183, Note_on_c, 0, 61, 75
1, 373183, Note_on_c, 0, 66, 75
1, 373186, Note_on_c, 0, 70, 89
1, 373186, Note_on_c, 0, 44, 0
1, 373186, Note_on_c, 0, 37, 0
1, 373189, Note_on_c, 0, 32, 0
1, 373189, Note_on_c, 0, 34, 57
1, 373189, Note_on_c, 0, 37, 57
1, 373192, Note_on_c, 0, 42, 57
1, 373192, Note_on_c, 0, 46, 68
1, 373192, Control_c, 0, 64, 0
1, 373305, Control_c, 0, 64, 127
1, 373445, Control_c, 0, 64, 0
1, 373461, Note_on_c, 0, 70, 0
1, 373461, Note_on_c, 0, 58, 0
1, 373461, Note_on_c, 0, 61, 0
1, 373464, Note_on_c, 0, 66, 0
1, 373464, Note_on_c, 0, 46, 0
1, 373464, Note_on_c, 0, 34, 0
1, 373467, Note_on_c, 0, 37, 0
1, 373467, Note_on_c, 0, 42, 0
1, 373743, Note_on_c, 0, 54, 73
1, 373743, Note_on_c, 0, 58, 73
1, 373743, Note_on_c, 0, 61, 73
1, 373746, Note_on_c, 0, 66, 87
1, 373746, Note_on_c, 0, 30, 55
1, 373746, Note_on_c, 0, 34, 55
1, 373749, Note_on_c, 0, 37, 55
1, 373749, Note_on_c, 0, 42, 65
1, 373880, Control_c, 0, 64, 127
1, 374017, Note_on_c, 0, 66, 0
1, 374017, Note_on_c, 0, 54, 0
1, 374017, Note_on_c, 0, 58, 0
1, 374020, Note_on_c, 0, 61, 0
1, 374020, Note_on_c, 0, 58, 68
1, 374020, Note_on_c, 0, 61, 68
1, 374023, Note_on_c, 0, 65, 80
1, 374023, Note_on_c, 0, 53, 68
1, 374023, Note_on_c, 0, 42, 0
1, 374026, Note_on_c, 0, 30, 0
1, 374026, Note_on_c, 0, 34, 0
1, 374026, Note_on_c, 0, 37, 0
1, 374029, Note_on_c, 0, 29, 51
1, 374029, Note_on_c, 0, 34, 51
1, 374029, Note_on_c, 0, 37, 51
1, 374032, Note_on_c, 0, 41, 60
1, 374032, Control_c, 0, 64, 0
1, 374139, Control_c, 0, 64, 127
1, 374291, Note_on_c, 0, 53, 0
1, 374291, Note_on_c, 0, 58, 0
1, 374291, Note_on_c, 0, 61, 0
1, 374294, Note_on_c, 0, 65, 0
1, 374294, Note_on_c, 0, 51, 72
1, 374294, Note_on_c, 0, 54, 72
1, 374297, Note_on_c, 0, 58, 72
1, 374297, Note_on_c, 0, 63, 85
1, 374297, Note_on_c, 0, 41, 0
1, 374300, Note_on_c, 0, 29, 0
1, 374300, Note_on_c, 0, 34, 0
1, 374300, Note_on_c, 0, 37, 0
1, 374303, Note_on_c, 0, 27, 55
1, 374303, Note_on_c, 0, 30, 55
1, 374303, Note_on_c, 0, 34, 55
1, 374306, Note_on_c, 0, 39, 65
1, 374306, Control_c, 0, 64, 0
1, 374426, Control_c, 0, 64, 127
1, 374560, Note_on_c, 0, 63, 0
1, 374560, Note_on_c, 0, 51, 0
1, 374560, Note_on_c, 0, 54, 0
1, 374563, Note_on_c, 0, 58, 0
1, 374563, Note_on_c, 0, 54, 68
1, 374563, Note_on_c, 0, 58, 68
1, 374566, Note_on_c, 0, 61, 80
1, 374566, Note_on_c, 0, 49, 68
1, 374566, Note_on_c, 0, 39, 0
1, 374569, Note_on_c, 0, 27, 0
1, 374569, Note_on_c, 0, 30, 0
1, 374569, Note_on_c, 0, 34, 0
1, 374572, Note_on_c, 0, 25, 51
1, 374572, Note_on_c, 0, 30, 51
1, 374572, Note_on_c, 0, 34, 51
1, 374575, Note_on_c, 0, 37, 51
1, 374575, Control_c, 0, 64, 0
1, 374672, Control_c, 0, 64, 127
1, 374848, Note_on_c, 0, 49, 0
1, 374848, Note_on_c, 0, 54, 0
1, 374848, Note_on_c, 0, 58, 0
1, 374851, Note_on_c, 0, 61, 0
1, 374851, Note_on_c, 0, 54, 73
1, 374851, Note_on_c, 0, 58, 73
1, 374854, Note_on_c, 0, 61, 73
1, 374854, Note_on_c, 0, 66, 86
1, 374854, Note_on_c, 0, 37, 0
1, 374857, Note_on_c, 0, 25, 0
1, 374857, Note_on_c, 0, 30, 0
1, 374857, Note_on_c, 0, 34, 0
1, 374860, Note_on_c, 0, 30, 55
1, 374860, Note_on_c, 0, 34, 55
1, 374860, Note_on_c, 0, 37, 55
1, 374863, Note_on_c, 0, 42, 65
1, 374863, Control_c, 0, 64, 0
1, 374911, Control_c, 0, 64, 127
1, 374969, Note_on_c, 0, 66, 0
1, 374969, Note_on_c, 0, 54, 0
1, 374969, Note_on_c, 0, 58, 0
1, 374972, Note_on_c, 0, 61, 0
1, 374972, Note_on_c, 0, 42, 0
1, 374972, Note_on_c, 0, 30, 0
1, 374975, Note_on_c, 0, 34, 0
1, 374975, Note_on_c, 0, 37, 0
1, 374982, Note_on_c, 0, 54, 68
1, 374982, Note_on_c, 0, 58, 68
1, 374982, Note_on_c, 0, 61, 68
1, 374985, Note_on_c, 0, 66, 80
1, 374985, Note_on_c, 0, 30, 51
1, 374985, Note_on_c, 0, 34, 51
1, 374988, Note_on_c, 0, 37, 51
1, 374988, Note_on_c, 0, 42, 60
1, 375102, Note_on_c, 0, 66, 0
1, 375102, Note_on_c, 0, 54, 0
1, 375102, Note_on_c, 0, 58, 0
1, 375105, Note_on_c, 0, 61, 0
1, 375105, Note_on_c, 0, 42, 0
1, 375105, Note_on_c, 0, 30, 0
1, 375108, Note_on_c, 0, 34, 0
1, 375108, Note_on_c, 0, 37, 0
1, 375116, Note_on_c, 0, 56, 73
1, 375116, Note_on_c, 0, 61, 73
1, 375116, Note_on_c, 0, 68, 86
1, 375119, Note_on_c, 0, 32, 55
1, 375119, Note_on_c, 0, 37, 55
1, 375119, Note_on_c, 0, 44, 65
1, 375132, Control_c, 0, 64, 0
1, 375208, Control_c, 0, 64, 127
1, 375402, Note_on_c, 0, 68, 0
1, 375402, Note_on_c, 0, 61, 0
1, 375402, Note_on_c, 0, 56, 0
1, 375405, Note_on_c, 0, 58, 75
1, 375405, Note_on_c, 0, 61, 75
1, 375405, Note_on_c, 0, 66, 75
1, 375408, Note_on_c, 0, 70, 89
1, 375408, Note_on_c, 0, 44, 0
1, 375408, Note_on_c, 0, 37, 0
1, 375411, Note_on_c, 0, 32, 0
1, 375411, Note_on_c, 0, 34, 57
1, 375411, Note_on_c, 0, 37, 57
1, 375414, Note_on_c, 0, 42, 57
1, 375414, Note_on_c, 0, 46, 68
1, 375414, Control_c, 0, 64, 0
1, 375526, Control_c, 0, 64, 127
1, 375667, Control_c, 0, 64, 0
1, 375683, Note_on_c, 0, 70, 0
1, 375683, Note_on_c, 0, 58, 0
1, 375683, Note_on_c, 0, 61, 0
1, 375686, Note_on_c, 0, 66, 0
1, 375686, Note_on_c, 0, 46, 0
1, 375686, Note_on_c, 0, 34, 0
1, 375689, Note_on_c, 0, 37, 0
1, 375689, Note_on_c, 0, 42, 0
1, 375963, Note_on_c, 0, 61, 77
1, 375963, Note_on_c, 0, 66, 77
1, 375963, Note_on_c, 0, 70, 77
1, 375966, Note_on_c, 0, 73, 91
1, 375966, Note_on_c, 0, 42, 62
1, 375966, Note_on_c, 0, 46, 62
1, 375969, Note_on_c, 0, 49, 62
1, 375969, Note_on_c, 0, 54, 73
1, 375969, Control_c, 0, 64, 127
1, 376383, Note_on_c, 0, 73, 0
1, 376383, Note_on_c, 0, 61, 0
1, 376383, Note_on_c, 0, 66, 0
1, 376386, Note_on_c, 0, 70, 0
1, 376386, Note_on_c, 0, 61, 72
1, 376386, Note_on_c, 0, 66, 72
1, 376389, Note_on_c, 0, 70, 72
1, 376389, Note_on_c, 0, 73, 85
1, 376389, Note_on_c, 0, 54, 0
1, 376392, Note_on_c, 0, 42, 0
1, 376392, Note_on_c, 0, 46, 0
1, 376392, Note_on_c, 0, 49, 0
1, 376395, Note_on_c, 0, 42, 57
1, 376395, Note_on_c, 0, 46, 57
1, 376395, Note_on_c, 0, 49, 57
1, 376398, Note_on_c, 0, 54, 68
1, 376525, Note_on_c, 0, 73, 0
1, 376525, Note_on_c, 0, 61, 0
1, 376525, Note_on_c, 0, 66, 0
1, 376528, Note_on_c, 0, 70, 0
1, 376528, Note_on_c, 0, 63, 78
1, 376528, Note_on_c, 0, 66, 78
1, 376531, Note_on_c, 0, 71, 78
1, 376531, Note_on_c, 0, 75, 92
1, 376531, Note_on_c, 0, 54, 0
1, 376534, Note_on_c, 0, 42, 0
1, 376534, Note_on_c, 0, 46, 0
1, 376534, Note_on_c, 0, 49, 0
1, 376537, Note_on_c, 0, 47, 62
1, 376537, Note_on_c, 0, 51, 62
1, 376537, Note_on_c, 0, 54, 62
1, 376540, Note_on_c, 0, 59, 73
1, 376540, Control_c, 0, 64, 0
1, 376681, Control_c, 0, 64, 127
1, 376806, Note_on_c, 0, 75, 0
1, 376806, Note_on_c, 0, 63, 0
1, 376806, Note_on_c, 0, 66, 0
1, 376809, Note_on_c, 0, 71, 0
1, 376809, Note_on_c, 0, 61, 73
1, 376809, Note_on_c, 0, 66, 73
1, 376812, Note_on_c, 0, 70, 73
1, 376812, Note_on_c, 0, 73, 86
1, 376812, Note_on_c, 0, 59, 0
1, 376815, Note_on_c, 0, 47, 0
1, 376815, Note_on_c, 0, 51, 0
1, 376815, Note_on_c, 0, 54, 0
1, 376818, Note_on_c, 0, 42, 59
1, 376818, Note_on_c, 0, 46, 59
1, 376818, Note_on_c, 0, 49, 59
1, 376821, Note_on_c, 0, 54, 70
1, 376821, Control_c, 0, 64, 0
1, 376964, Control_c, 0, 64, 127
1, 377092, Note_on_c, 0, 73, 0
1, 377092, Note_on_c, 0, 61, 0
1, 377092, Note_on_c, 0, 66, 0
1, 377095, Note_on_c, 0, 70, 0
1, 377095, Note_on_c, 0, 58, 79
1, 377095, Note_on_c, 0, 70, 93
1, 377098, Note_on_c, 0, 54, 0
1, 377098, Note_on_c, 0, 42, 0
1, 377098, Note_on_c, 0, 46, 0
1, 377101, Note_on_c, 0, 49, 0
1, 377101, Note_on_c, 0, 34, 62
1, 377101, Note_on_c, 0, 46, 74
1, 377104, Control_c, 0, 64, 0
1, 377178, Control_c, 0, 64, 127
1, 377511, Note_on_c, 0, 70, 0
1, 377511, Note_on_c, 0, 58, 0
1, 377511, Note_on_c, 0, 58, 73
1, 377514, Note_on_c, 0, 68, 87
1, 377514, Note_on_c, 0, 46, 0
1, 377514, Note_on_c, 0, 34, 0
1, 377517, Note_on_c, 0, 38, 56
1, 377517, Note_on_c, 0, 46, 67
1, 377650, Note_on_c, 0, 68, 0
1, 377650, Note_on_c, 0, 58, 0
1, 377650, Note_on_c, 0, 58, 77
1, 377653, Note_on_c, 0, 66, 91
1, 377653, Note_on_c, 0, 46, 0
1, 377653, Note_on_c, 0, 38, 0
1, 377656, Note_on_c, 0, 39, 61
1, 377656, Note_on_c, 0, 46, 72
1, 377656, Control_c, 0, 64, 0
1, 377718, Note_on_c, 0, 66, 0
1, 377718, Note_on_c, 0, 58, 0
1, 377718, Note_on_c, 0, 46, 0
1, 377721, Note_on_c, 0, 39, 0
1, 377786, Note_on_c, 0, 58, 72
1, 377786, Note_on_c, 0, 65, 85
1, 377786, Note_on_c, 0, 41, 58
1, 377789, Note_on_c, 0, 46, 69
1, 377854, Note_on_c, 0, 65, 0
1, 377854, Note_on_c, 0, 58, 0
1, 377854, Note_on_c, 0, 46, 0
1, 377857, Note_on_c, 0, 41, 0
1, 377922, Note_on_c, 0, 58, 71
1, 377922, Note_on_c, 0, 63, 84
1, 377922, Note_on_c, 0, 42, 58
1, 377925, Note_on_c, 0, 46, 69
1, 378063, Note_on_c, 0, 63, 0
1, 378063, Note_on_c, 0, 58, 0
1, 378063, Note_on_c, 0, 46, 0
1, 378066, Note_on_c, 0, 42, 0
1, 378203, Note_on_c, 0, 66, 66
1, 378203, Note_on_c, 0, 70, 78
1, 378203, Note_on_c, 0, 54, 66
1, 378206, Note_on_c, 0, 58, 78
1, 378206, Control_c, 0, 64, 127
1, 378257, Note_on_c, 0, 70, 0
1, 378257, Note_on_c, 0, 71, 73
1, 378311, Note_on_c, 0, 71, 0
1, 378311, Note_on_c, 0, 70, 73
1, 378365, Note_on_c, 0, 70, 0
1, 378365, Note_on_c, 0, 69, 73
1, 378418, Note_on_c, 0, 69, 0
1, 378418, Note_on_c, 0, 70, 73
1, 378472, Note_on_c, 0, 70, 0
1, 378472, Note_on_c, 0, 66, 0
1, 378472, Note_on_c, 0, 68, 62
1, 378475, Note_on_c, 0, 71, 73
1, 378475, Note_on_c, 0, 58, 0
1, 378475, Note_on_c, 0, 54, 0
1, 378478, Note_on_c, 0, 56, 58
1, 378478, Note_on_c, 0, 59, 69
1, 378478, Control_c, 0, 64, 0
1, 378541, Note_on_c, 0, 71, 0
1, 378541, Note_on_c, 0, 68, 0
1, 378541, Note_on_c, 0, 59, 0
1, 378544, Note_on_c, 0, 56, 0
1, 378610, Note_on_c, 0, 66, 59
1, 378610, Note_on_c, 0, 70, 70
1, 378610, Note_on_c, 0, 54, 58
1, 378613, Note_on_c, 0, 58, 69
1, 378685, Note_on_c, 0, 70, 0
1, 378685, Note_on_c, 0, 66, 0
1, 378685, Note_on_c, 0, 58, 0
1, 378688, Note_on_c, 0, 54, 0
1, 378761, Note_on_c, 0, 65, 68
1, 378761, Note_on_c, 0, 68, 80
1, 378761, Note_on_c, 0, 53, 62
1, 378764, Note_on_c, 0, 56, 74
1, 378831, Note_on_c, 0, 68, 0
1, 378831, Note_on_c, 0, 65, 0
1, 378831, Note_on_c, 0, 56, 0
1, 378834, Note_on_c, 0, 53, 0
1, 378900, Note_on_c, 0, 63, 62
1, 378900, Note_on_c, 0, 66, 73
1, 378900, Note_on_c, 0, 51, 58
1, 378903, Note_on_c, 0, 54, 69
1, 378970, Note_on_c, 0, 66, 0
1, 378970, Note_on_c, 0, 63, 0
1, 378970, Note_on_c, 0, 54, 0
1, 378973, Note_on_c, 0, 51, 0
1, 379040, Note_on_c, 0, 58, 62
1, 379040, Note_on_c, 0, 65, 73
1, 379040, Note_on_c, 0, 46, 58
1, 379043, Note_on_c, 0, 53, 69
1, 379185, Note_on_c, 0, 65, 0
1, 379185, Note_on_c, 0, 58, 0
1, 379185, Note_on_c, 0, 53, 0
1, 379188, Note_on_c, 0, 46, 0
1, 379330, Note_on_c, 0, 54, 75
1, 379330, Note_on_c, 0, 58, 75
1, 379330, Note_on_c, 0, 63, 89
1, 379333, Note_on_c, 0, 39, 64
1, 379333, Note_on_c, 0, 46, 64
1, 379333, Note_on_c, 0, 51, 76
1, 379338, Control_c, 0, 64, 127
1, 379469, Note_on_c, 0, 63, 0
1, 379469, Note_on_c, 0, 58, 0
1, 379469, Note_on_c, 0, 54, 0
1, 379472, Note_on_c, 0, 51, 0
1, 379472, Note_on_c, 0, 46, 0
1, 379472, Note_on_c, 0, 39, 0
1, 379502, Control_c, 0, 64, 0
1, 379888, Note_on_c, 0, 73, 77
1, 379888, Note_on_c, 0, 78, 77
1, 379888, Note_on_c, 0, 82, 77
1, 379891, Note_on_c, 0, 85, 91
1, 379891, Note_on_c, 0, 42, 62
1, 379891, Note_on_c, 0, 46, 62
1, 379894, Note_on_c, 0, 49, 62
1, 379894, Note_on_c, 0, 54, 73
1, 379894, Control_c, 0, 64, 127
1, 380307, Note_on_c, 0, 85, 0
1, 380307, Note_on_c, 0, 73, 0
1, 380307, Note_on_c, 0, 78, 0
1, 380310, Note_on_c, 0, 82, 0
1, 380310, Note_on_c, 0, 73, 72
1, 380310, Note_on_c, 0, 78, 72
1, 380313, Note_on_c, 0, 82, 72
1, 380313, Note_on_c, 0, 85, 85
1, 380313, Note_on_c, 0, 54, 0
1, 380316, Note_on_c, 0, 42, 0
1, 380316, Note_on_c, 0, 46, 0
1, 380316, Note_on_c, 0, 49, 0
1, 380319, Note_on_c, 0, 42, 57
1, 380319, Note_on_c, 0, 46, 57
1, 380319, Note_on_c, 0, 49, 57
1, 380322, Note_on_c, 0, 54, 68
1, 380450, Note_on_c, 0, 85, 0
1, 380450, Note_on_c, 0, 73, 0
1, 380450, Note_on_c, 0, 78, 0
1, 380453, Note_on_c, 0, 82, 0
1, 380453, Note_on_c, 0, 75, 78
1, 380453, Note_on_c, 0, 78, 78
1, 380456, Note_on_c, 0, 83, 78
1, 380456, Note_on_c, 0, 87, 92
1, 380456, Note_on_c, 0, 54, 0
1, 380459, Note_on_c, 0, 42, 0
1, 380459, Note_on_c, 0, 46, 0
1, 380459, Note_on_c, 0, 49, 0
1, 380462, Note_on_c, 0, 47, 62
1, 380462, Note_on_c, 0, 51, 62
1, 380462, Note_on_c, 0, 54, 62
1, 380465, Note_on_c, 0, 59, 73
1, 380465, Control_c, 0, 64, 0
1, 380605, Control_c, 0, 64, 127
1, 380730, Note_on_c, 0, 87, 0
1, 380730, Note_on_c, 0, 75, 0
1, 380730, Note_on_c, 0, 78, 0
1, 380733, Note_on_c, 0, 83, 0
1, 380733, Note_on_c, 0, 73, 73
1, 380733, Note_on_c, 0, 78, 73
1, 380736, Note_on_c, 0, 82, 73
1, 380736, Note_on_c, 0, 85, 86
1, 380736, Note_on_c, 0, 59, 0
1, 380739, Note_on_c, 0, 47, 0
1, 380739, Note_on_c, 0, 51, 0
1, 380739, Note_on_c, 0, 54, 0
1, 380742, Note_on_c, 0, 42, 59
1, 380742, Note_on_c, 0, 46, 59
1, 380742, Note_on_c, 0, 49, 59
1, 380745, Note_on_c, 0, 54, 70
1, 380745, Control_c, 0, 64, 0
1, 380889, Control_c, 0, 64, 127
1, 381017, Note_on_c, 0, 85, 0
1, 381017, Note_on_c, 0, 73, 0
1, 381017, Note_on_c, 0, 78, 0
1, 381020, Note_on_c, 0, 82, 0
1, 381020, Note_on_c, 0, 70, 79
1, 381020, Note_on_c, 0, 82, 93
1, 381023, Note_on_c, 0, 54, 0
1, 381023, Note_on_c, 0, 42, 0
1, 381023, Note_on_c, 0, 46, 0
1, 381026, Note_on_c, 0, 49, 0
1, 381026, Note_on_c, 0, 34, 62
1, 381026, Note_on_c, 0, 46, 74
1, 381029, Control_c, 0, 64, 0
1, 381110, Control_c, 0, 64, 127
1, 381435, Note_on_c, 0, 82, 0
1, 381435, Note_on_c, 0, 70, 0
1, 381435, Note_on_c, 0, 68, 73
1, 381438, Note_on_c, 0, 80, 87
1, 381438, Note_on_c, 0, 46, 0
1, 381438, Note_on_c, 0, 34, 0
1, 381441, Note_on_c, 0, 46, 56
1, 381441, Note_on_c, 0, 38, 56
1, 381441, Note_on_c, 0, 50, 67
1, 381575, Note_on_c, 0, 80, 0
1, 381575, Note_on_c, 0, 68, 0
1, 381575, Note_on_c, 0, 66, 77
1, 381578, Note_on_c, 0, 78, 91
1, 381578, Note_on_c, 0, 50, 0
1, 381578, Note_on_c, 0, 38, 0
1, 381581, Note_on_c, 0, 46, 0
1, 381581, Note_on_c, 0, 46, 61
1, 381581, Note_on_c, 0, 39, 61
1, 381584, Note_on_c, 0, 51, 72
1, 381584, Control_c, 0, 64, 0
1, 381643, Note_on_c, 0, 78, 0
1, 381643, Note_on_c, 0, 66, 0
1, 381643, Note_on_c, 0, 51, 0
1, 381646, Note_on_c, 0, 39, 0
1, 381646, Note_on_c, 0, 46, 0
1, 381711, Note_on_c, 0, 65, 72
1, 381711, Note_on_c, 0, 77, 85
1, 381711, Note_on_c, 0, 46, 58
1, 381714, Note_on_c, 0, 41, 58
1, 381714, Note_on_c, 0, 53, 69
1, 381779, Note_on_c, 0, 77, 0
1, 381779, Note_on_c, 0, 65, 0
1, 381779, Note_on_c, 0, 53, 0
1, 381782, Note_on_c, 0, 41, 0
1, 381782, Note_on_c, 0, 46, 0
1, 381847, Note_on_c, 0, 63, 71
1, 381847, Note_on_c, 0, 75, 84
1, 381847, Note_on_c, 0, 46, 58
1, 381850, Note_on_c, 0, 42, 58
1, 381850, Note_on_c, 0, 54, 69
1, 381987, Note_on_c, 0, 75, 0
1, 381987, Note_on_c, 0, 63, 0
1, 381987, Note_on_c, 0, 54, 0
1, 381990, Note_on_c, 0, 42, 0
1, 381990, Note_on_c, 0, 46, 0
1, 382128, Note_on_c, 0, 78, 66
1, 382128, Note_on_c, 0, 82, 78
1, 382128, Note_on_c, 0, 58, 66
1, 382131, Note_on_c, 0, 54, 66
1, 382131, Note_on_c, 0, 66, 78
1, 382131, Control_c, 0, 64, 127
1, 382180, Note_on_c, 0, 82, 0
1, 382180, Note_on_c, 0, 83, 73
1, 382232, Note_on_c, 0, 83, 0
1, 382232, Note_on_c, 0, 82, 73
1, 382284, Note_on_c, 0, 82, 0
1, 382284, Note_on_c, 0, 81, 73
1, 382336, Note_on_c, 0, 81, 0
1, 382336, Note_on_c, 0, 82, 73
1, 382387, Note_on_c, 0, 82, 0
1, 382387, Note_on_c, 0, 78, 0
1, 382387, Note_on_c, 0, 71, 62
1, 382390, Note_on_c, 0, 83, 73
1, 382390, Note_on_c, 0, 66, 0
1, 382390, Note_on_c, 0, 54, 0
1, 382393, Note_on_c, 0, 58, 0
1, 382393, Note_on_c, 0, 56, 58
1, 382393, Note_on_c, 0, 68, 69
1, 382393, Control_c, 0, 64, 0
1, 382455, Note_on_c, 0, 83, 0
1, 382455, Note_on_c, 0, 71, 0
1, 382455, Note_on_c, 0, 68, 0
1, 382458, Note_on_c, 0, 56, 0
1, 382523, Note_on_c, 0, 70, 59
1, 382523, Note_on_c, 0, 82, 70
1, 382523, Note_on_c, 0, 54, 58
1, 382526, Note_on_c, 0, 66, 69
1, 382598, Note_on_c, 0, 82, 0
1, 382598, Note_on_c, 0, 70, 0
1, 382598, Note_on_c, 0, 66, 0
1, 382601, Note_on_c, 0, 54, 0
1, 382674, Note_on_c, 0, 68, 68
1, 382674, Note_on_c, 0, 80, 80
1, 382674, Note_on_c, 0, 53, 62
1, 382677, Note_on_c, 0, 65, 74
1, 382741, Note_on_c, 0, 80, 0
1, 382741, Note_on_c, 0, 68, 0
1, 382741, Note_on_c, 0, 65, 0
1, 382744, Note_on_c, 0, 53, 0
1, 382808, Note_on_c, 0, 66, 62
1, 382808, Note_on_c, 0, 78, 73
1, 382808, Note_on_c, 0, 51, 58
1, 382811, Note_on_c, 0, 63, 69
1, 382875, Note_on_c, 0, 78, 0
1, 382875, Note_on_c, 0, 66, 0
1, 382875, Note_on_c, 0, 63, 0
1, 382878, Note_on_c, 0, 51, 0
1, 382943, Note_on_c, 0, 65, 62
1, 382943, Note_on_c, 0, 77, 73
1, 382943, Note_on_c, 0, 46, 58
1, 382946, Note_on_c, 0, 58, 69
1, 383087, Note_on_c, 0, 77, 0
1, 383087, Note_on_c, 0, 65, 0
1, 383087, Note_on_c, 0, 58, 0
1, 383090, Note_on_c, 0, 46, 0
1, 383232, Note_on_c, 0, 63, 75
1, 383232, Note_on_c, 0, 70, 75
1, 383232, Note_on_c, 0, 75, 89
1, 383235, Note_on_c, 0, 51, 64
1, 383235, Note_on_c, 0, 54, 64
1, 383235, Note_on_c, 0, 58, 76
1, 383241, Control_c, 0, 64, 127
1, 383371, Note_on_c, 0, 75, 0
1, 383371, Note_on_c, 0, 70, 0
1, 383371, Note_on_c, 0, 63, 0
1, 383374, Note_on_c, 0, 58, 0
1, 383374, Note_on_c, 0, 54, 0
1, 383374, Note_on_c, 0, 51, 0
1, 383403, Control_c, 0, 64, 0
1, 383787, Note_on_c, 0, 54, 65
1, 383787, Note_on_c, 0, 58, 65
1, 383787, Note_on_c, 0, 61, 65
1, 383790, Note_on_c, 0, 66, 78
1, 383790, Note_on_c, 0, 30, 66
1, 383790, Note_on_c, 0, 34, 66
1, 383793, Note_on_c, 0, 37, 66
1, 383793, Note_on_c, 0, 42, 78
1, 383793, Control_c, 0, 64, 127
1, 383919, Note_on_c, 0, 66, 0
1, 383919, Note_on_c, 0, 54, 0
1, 383919, Note_on_c, 0, 58, 0
1, 383922, Note_on_c, 0, 61, 0
1, 383922, Note_on_c, 0, 54, 55
1, 383922, Note_on_c, 0, 58, 55
1, 383925, Note_on_c, 0, 61, 55
1, 383925, Note_on_c, 0, 66, 65
1, 384051, Note_on_c, 0, 66, 0
1, 384051, Note_on_c, 0, 54, 0
1, 384051, Note_on_c, 0, 58, 0
1, 384054, Note_on_c, 0, 61, 0
1, 384054, Note_on_c, 0, 42, 0
1, 384054, Note_on_c, 0, 30, 0
1, 384057, Note_on_c, 0, 34, 0
1, 384057, Note_on_c, 0, 37, 0
1, 384057, Note_on_c, 0, 29, 61
1, 384060, Note_on_c, 0, 34, 61
1, 384060, Note_on_c, 0, 37, 61
1, 384060, Note_on_c, 0, 41, 72
1, 384060, Control_c, 0, 64, 0
1, 384123, Control_c, 0, 64, 127
1, 384188, Note_on_c, 0, 58, 54
1, 384188, Note_on_c, 0, 61, 54
1, 384188, Note_on_c, 0, 65, 64
1, 384191, Note_on_c, 0, 53, 54
1, 384324, Note_on_c, 0, 53, 0
1, 384324, Note_on_c, 0, 58, 0
1, 384324, Note_on_c, 0, 61, 0
1, 384327, Note_on_c, 0, 65, 0
1, 384327, Note_on_c, 0, 41, 0
1, 384327, Note_on_c, 0, 29, 0
1, 384330, Note_on_c, 0, 34, 0
1, 384330, Note_on_c, 0, 37, 0
1, 384330, Note_on_c, 0, 27, 66
1, 384333, Note_on_c, 0, 30, 66
1, 384333, Note_on_c, 0, 34, 66
1, 384333, Note_on_c, 0, 39, 78
1, 384336, Control_c, 0, 64, 0
1, 384388, Control_c, 0, 64, 127
1, 384460, Note_on_c, 0, 51, 57
1, 384460, Note_on_c, 0, 54, 57
1, 384460, Note_on_c, 0, 58, 57
1, 384463, Note_on_c, 0, 63, 68
1, 384596, Note_on_c, 0, 63, 0
1, 384596, Note_on_c, 0, 51, 0
1, 384596, Note_on_c, 0, 54, 0
1, 384599, Note_on_c, 0, 58, 0
1, 384599, Note_on_c, 0, 39, 0
1, 384599, Note_on_c, 0, 27, 0
1, 384602, Note_on_c, 0, 30, 0
1, 384602, Note_on_c, 0, 34, 0
1, 384602, Note_on_c, 0, 25, 61
1, 384605, Note_on_c, 0, 30, 61
1, 384605, Note_on_c, 0, 34, 61
1, 384605, Note_on_c, 0, 37, 61
1, 384608, Control_c, 0, 64, 0
1, 384688, Control_c, 0, 64, 127
1, 384738, Note_on_c, 0, 54, 54
1, 384738, Note_on_c, 0, 58, 54
1, 384738, Note_on_c, 0, 61, 64
1, 384741, Note_on_c, 0, 49, 54
1, 384880, Note_on_c, 0, 49, 0
1, 384880, Note_on_c, 0, 54, 0
1, 384880, Note_on_c, 0, 58, 0
1, 384883, Note_on_c, 0, 61, 0
1, 384883, Note_on_c, 0, 37, 0
1, 384883, Note_on_c, 0, 25, 0
1, 384886, Note_on_c, 0, 30, 0
1, 384886, Note_on_c, 0, 34, 0
1, 384886, Note_on_c, 0, 30, 66
1, 384889, Note_on_c, 0, 34, 66
1, 384889, Note_on_c, 0, 37, 66
1, 384889, Note_on_c, 0, 42, 78
1, 384892, Control_c, 0, 64, 0
1, 384944, Control_c, 0, 64, 127
1, 385016, Note_on_c, 0, 54, 54
1, 385016, Note_on_c, 0, 58, 54
1, 385016, Note_on_c, 0, 61, 54
1, 385019, Note_on_c, 0, 66, 64
1, 385137, Note_on_c, 0, 66, 0
1, 385137, Note_on_c, 0, 54, 0
1, 385137, Note_on_c, 0, 58, 0
1, 385140, Note_on_c, 0, 61, 0
1, 385151, Note_on_c, 0, 42, 0
1, 385151, Note_on_c, 0, 30, 0
1, 385151, Note_on_c, 0, 34, 0
1, 385154, Note_on_c, 0, 37, 0
1, 385154, Note_on_c, 0, 32, 66
1, 385154, Note_on_c, 0, 37, 66
1, 385157, Note_on_c, 0, 44, 78
1, 385167, Control_c, 0, 64, 0
1, 385242, Control_c, 0, 64, 127
1, 385292, Note_on_c, 0, 56, 58
1, 385292, Note_on_c, 0, 61, 58
1, 385292, Note_on_c, 0, 68, 69
1, 385434, Note_on_c, 0, 68, 0
1, 385434, Note_on_c, 0, 61, 0
1, 385434, Note_on_c, 0, 56, 0
1, 385437, Note_on_c, 0, 44, 0
1, 385437, Note_on_c, 0, 37, 0
1, 385437, Note_on_c, 0, 32, 0
1, 385440, Note_on_c, 0, 34, 68
1, 385440, Note_on_c, 0, 37, 68
1, 385440, Note_on_c, 0, 42, 68
1, 385443, Note_on_c, 0, 46, 81
1, 385443, Control_c, 0, 64, 0
1, 385481, Control_c, 0, 64, 127
1, 385571, Note_on_c, 0, 58, 60
1, 385571, Note_on_c, 0, 61, 60
1, 385571, Note_on_c, 0, 66, 60
1, 385574, Note_on_c, 0, 70, 72
1, 385692, Control_c, 0, 64, 0
1, 385707, Note_on_c, 0, 70, 0
1, 385707, Note_on_c, 0, 58, 0
1, 385707, Note_on_c, 0, 61, 0
1, 385710, Note_on_c, 0, 66, 0
1, 385710, Note_on_c, 0, 46, 0
1, 385710, Note_on_c, 0, 34, 0
1, 385713, Note_on_c, 0, 37, 0
1, 385713, Note_on_c, 0, 42, 0
1, 385990, Note_on_c, 0, 54, 65
1, 385990, Note_on_c, 0, 58, 65
1, 385990, Note_on_c, 0, 61, 65
1, 385993, Note_on_c, 0, 66, 78
1, 385993, Note_on_c, 0, 30, 66
1, 385993, Note_on_c, 0, 34, 66
1, 385996, Note_on_c, 0, 37, 66
1, 385996, Note_on_c, 0, 42, 78
1, 385996, Control_c, 0, 64, 127
1, 386121, Note_on_c, 0, 66, 0
1, 386121, Note_on_c, 0, 54, 0
1, 386121, Note_on_c, 0, 58, 0
1, 386124, Note_on_c, 0, 61, 0
1, 386124, Note_on_c, 0, 54, 55
1, 386124, Note_on_c, 0, 58, 55
1, 386127, Note_on_c, 0, 61, 55
1, 386127, Note_on_c, 0, 66, 65
1, 386253, Note_on_c, 0, 66, 0
1, 386253, Note_on_c, 0, 54, 0
1, 386253, Note_on_c, 0, 58, 0
1, 386256, Note_on_c, 0, 61, 0
1, 386256, Note_on_c, 0, 42, 0
1, 386256, Note_on_c, 0, 30, 0
1, 386259, Note_on_c, 0, 34, 0
1, 386259, Note_on_c, 0, 37, 0
1, 386259, Note_on_c, 0, 29, 61
1, 386262, Note_on_c, 0, 34, 61
1, 386262, Note_on_c, 0, 37, 61
1, 386262, Note_on_c, 0, 41, 72
1, 386262, Control_c, 0, 64, 0
1, 386324, Control_c, 0, 64, 127
1, 386388, Note_on_c, 0, 58, 54
1, 386388, Note_on_c, 0, 61, 54
1, 386388, Note_on_c, 0, 65, 64
1, 386391, Note_on_c, 0, 53, 54
1, 386523, Note_on_c, 0, 53, 0
1, 386523, Note_on_c, 0, 58, 0
1, 386523, Note_on_c, 0, 61, 0
1, 386526, Note_on_c, 0, 65, 0
1, 386526, Note_on_c, 0, 41, 0
1, 386526, Note_on_c, 0, 29, 0
1, 386529, Note_on_c, 0, 34, 0
1, 386529, Note_on_c, 0, 37, 0
1, 386529, Note_on_c, 0, 27, 66
1, 386532, Note_on_c, 0, 30, 66
1, 386532, Note_on_c, 0, 34, 66
1, 386532, Note_on_c, 0, 39, 78
1, 386535, Control_c, 0, 64, 0
1, 386587, Control_c, 0, 64, 127
1, 386659, Note_on_c, 0, 51, 57
1, 386659, Note_on_c, 0, 54, 57
1, 386659, Note_on_c, 0, 58, 57
1, 386662, Note_on_c, 0, 63, 68
1, 386794, Note_on_c, 0, 63, 0
1, 386794, Note_on_c, 0, 51, 0
1, 386794, Note_on_c, 0, 54, 0
1, 386797, Note_on_c, 0, 58, 0
1, 386797, Note_on_c, 0, 39, 0
1, 386797, Note_on_c, 0, 27, 0
1, 386800, Note_on_c, 0, 30, 0
1, 386800, Note_on_c, 0, 34, 0
1, 386800, Note_on_c, 0, 25, 61
1, 386803, Note_on_c, 0, 30, 61
1, 386803, Note_on_c, 0, 34, 61
1, 386803, Note_on_c, 0, 37, 61
1, 386806, Control_c, 0, 64, 0
1, 386886, Control_c, 0, 64, 127
1, 386936, Note_on_c, 0, 54, 54
1, 386936, Note_on_c, 0, 58, 54
1, 386936, Note_on_c, 0, 61, 64
1, 386939, Note_on_c, 0, 49, 54
1, 387078, Note_on_c, 0, 49, 0
1, 387078, Note_on_c, 0, 54, 0
1, 387078, Note_on_c, 0, 58, 0
1, 387081, Note_on_c, 0, 61, 0
1, 387081, Note_on_c, 0, 37, 0
1, 387081, Note_on_c, 0, 25, 0
1, 387084, Note_on_c, 0, 30, 0
1, 387084, Note_on_c, 0, 34, 0
1, 387084, Note_on_c, 0, 30, 66
1, 387087, Note_on_c, 0, 34, 66
1, 387087, Note_on_c, 0, 37, 66
1, 387087, Note_on_c, 0, 42, 78
1, 387090, Control_c, 0, 64, 0
1, 387142, Control_c, 0, 64, 127
1, 387214, Note_on_c, 0, 54, 54
1, 387214, Note_on_c, 0, 58, 54
1, 387214, Note_on_c, 0, 61, 54
1, 387217, Note_on_c, 0, 66, 64
1, 387336, Note_on_c, 0, 66, 0
1, 387336, Note_on_c, 0, 54, 0
1, 387336, Note_on_c, 0, 58, 0
1, 387339, Note_on_c, 0, 61, 0
1, 387349, Note_on_c, 0, 42, 0
1, 387349, Note_on_c, 0, 30, 0
1, 387349, Note_on_c, 0, 34, 0
1, 387352, Note_on_c, 0, 37, 0
1, 387352, Note_on_c, 0, 32, 66
1, 387352, Note_on_c, 0, 37, 66
1, 387355, Note_on_c, 0, 44, 78
1, 387365, Control_c, 0, 64, 0
1, 387440, Control_c, 0, 64, 127
1, 387490, Note_on_c, 0, 56, 58
1, 387490, Note_on_c, 0, 61, 58
1, 387490, Note_on_c, 0, 68, 69
1, 387632, Note_on_c, 0, 68, 0
1, 387632, Note_on_c, 0, 61, 0
1, 387632, Note_on_c, 0, 56, 0
1, 387635, Note_on_c, 0, 44, 0
1, 387635, Note_on_c, 0, 37, 0
1, 387635, Note_on_c, 0, 32, 0
1, 387638, Note_on_c, 0, 34, 68
1, 387638, Note_on_c, 0, 37, 68
1, 387638, Note_on_c, 0, 42, 68
1, 387641, Note_on_c, 0, 46, 81
1, 387641, Control_c, 0, 64, 0
1, 387680, Control_c, 0, 64, 127
1, 387769, Note_on_c, 0, 58, 60
1, 387769, Note_on_c, 0, 61, 60
1, 387769, Note_on_c, 0, 66, 60
1, 387772, Note_on_c, 0, 70, 72
1, 387890, Control_c, 0, 64, 0
1, 387906, Note_on_c, 0, 70, 0
1, 387906, Note_on_c, 0, 58, 0
1, 387906, Note_on_c, 0, 61, 0
1, 387909, Note_on_c, 0, 66, 0
1, 387909, Note_on_c, 0, 46, 0
1, 387909, Note_on_c, 0, 34, 0
1, 387912, Note_on_c, 0, 37, 0
1, 387912, Note_on_c, 0, 42, 0
1, 388188, Note_on_c, 0, 61, 77
1, 388188, Note_on_c, 0, 66, 77
1, 388188, Note_on_c, 0, 70, 77
1, 388191, Note_on_c, 0, 73, 91
1, 388191, Note_on_c, 0, 42, 62
1, 388191, Note_on_c, 0, 46, 62
1, 388194, Note_on_c, 0, 49, 62
1, 388194, Note_on_c, 0, 54, 73
1, 388194, Control_c, 0, 64, 127
1, 388608, Note_on_c, 0, 73, 0
1, 388608, Note_on_c, 0, 61, 0
1, 388608, Note_on_c, 0, 66, 0
1, 388611, Note_on_c, 0, 70, 0
1, 388611, Note_on_c, 0, 61, 72
1, 388611, Note_on_c, 0, 66, 72
1, 388614, Note_on_c, 0, 70, 72
1, 388614, Note_on_c, 0, 73, 85
1, 388614, Note_on_c, 0, 54, 0
1, 388617, Note_on_c, 0, 42, 0
1, 388617, Note_on_c, 0, 46, 0
1, 388617, Note_on_c, 0, 49, 0
1, 388620, Note_on_c, 0, 42, 57
1, 388620, Note_on_c, 0, 46, 57
1, 388620, Note_on_c, 0, 49, 57
1, 388623, Note_on_c, 0, 54, 68
1, 388750, Note_on_c, 0, 73, 0
1, 388750, Note_on_c, 0, 61, 0
1, 388750, Note_on_c, 0, 66, 0
1, 388753, Note_on_c, 0, 70, 0
1, 388753, Note_on_c, 0, 63, 78
1, 388753, Note_on_c, 0, 66, 78
1, 388756, Note_on_c, 0, 71, 78
1, 388756, Note_on_c, 0, 75, 92
1, 388756, Note_on_c, 0, 54, 0
1, 388759, Note_on_c, 0, 42, 0
1, 388759, Note_on_c, 0, 46, 0
1, 388759, Note_on_c, 0, 49, 0
1, 388762, Note_on_c, 0, 47, 62
1, 388762, Note_on_c, 0, 51, 62
1, 388762, Note_on_c, 0, 54, 62
1, 388765, Note_on_c, 0, 59, 73
1, 388765, Control_c, 0, 64, 0
1, 388905, Control_c, 0, 64, 127
1, 389031, Note_on_c, 0, 75, 0
1, 389031, Note_on_c, 0, 63, 0
1, 389031, Note_on_c, 0, 66, 0
1, 389034, Note_on_c, 0, 71, 0
1, 389034, Note_on_c, 0, 61, 73
1, 389034, Note_on_c, 0, 66, 73
1, 389037, Note_on_c, 0, 70, 73
1, 389037, Note_on_c, 0, 73, 86
1, 389037, Note_on_c, 0, 59, 0
1, 389040, Note_on_c, 0, 47, 0
1, 389040, Note_on_c, 0, 51, 0
1, 389040, Note_on_c, 0, 54, 0
1, 389043, Note_on_c, 0, 42, 59
1, 389043, Note_on_c, 0, 46, 59
1, 389043, Note_on_c, 0, 49, 59
1, 389046, Note_on_c, 0, 54, 70
1, 389046, Control_c, 0, 64, 0
1, 389189, Control_c, 0, 64, 127
1, 389317, Note_on_c, 0, 73, 0
1, 389317, Note_on_c, 0, 61, 0
1, 389317, Note_on_c, 0, 66, 0
1, 389320, Note_on_c, 0, 70, 0
1, 389320, Note_on_c, 0, 58, 79
1, 389320, Note_on_c, 0, 70, 93
1, 389323, Note_on_c, 0, 54, 0
1, 389323, Note_on_c, 0, 42, 0
1, 389323, Note_on_c, 0, 46, 0
1, 389326, Note_on_c, 0, 49, 0
1, 389326, Note_on_c, 0, 34, 62
1, 389326, Note_on_c, 0, 46, 74
1, 389329, Control_c, 0, 64, 0
1, 389409, Control_c, 0, 64, 127
1, 389730, Note_on_c, 0, 70, 0
1, 389730, Note_on_c, 0, 58, 0
1, 389730, Note_on_c, 0, 58, 73
1, 389733, Note_on_c, 0, 68, 87
1, 389733, Note_on_c, 0, 46, 0
1, 389733, Note_on_c, 0, 34, 0
1, 389736, Note_on_c, 0, 38, 56
1, 389736, Note_on_c, 0, 46, 67
1, 389868, Note_on_c, 0, 68, 0
1, 389868, Note_on_c, 0, 58, 0
1, 389868, Note_on_c, 0, 58, 77
1, 389871, Note_on_c, 0, 66, 91
1, 389871, Note_on_c, 0, 46, 0
1, 389871, Note_on_c, 0, 38, 0
1, 389874, Note_on_c, 0, 39, 61
1, 389874, Note_on_c, 0, 46, 72
1, 389874, Control_c, 0, 64, 0
1, 389934, Note_on_c, 0, 66, 0
1, 389934, Note_on_c, 0, 58, 0
1, 389934, Note_on_c, 0, 46, 0
1, 389937, Note_on_c, 0, 39, 0
1, 390000, Note_on_c, 0, 58, 72
1, 390000, Note_on_c, 0, 65, 85
1, 390000, Note_on_c, 0, 41, 58
1, 390003, Note_on_c, 0, 46, 69
1, 390066, Note_on_c, 0, 65, 0
1, 390066, Note_on_c, 0, 58, 0
1, 390066, Note_on_c, 0, 46, 0
1, 390069, Note_on_c, 0, 41, 0
1, 390132, Note_on_c, 0, 58, 71
1, 390132, Note_on_c, 0, 63, 84
1, 390132, Note_on_c, 0, 42, 58
1, 390135, Note_on_c, 0, 46, 69
1, 390272, Note_on_c, 0, 63, 0
1, 390272, Note_on_c, 0, 58, 0
1, 390272, Note_on_c, 0, 46, 0
1, 390275, Note_on_c, 0, 42, 0
1, 390411, Note_on_c, 0, 66, 66
1, 390411, Note_on_c, 0, 70, 78
1, 390411, Note_on_c, 0, 54, 66
1, 390414, Note_on_c, 0, 58, 78
1, 390414, Control_c, 0, 64, 127
1, 390463, Note_on_c, 0, 70, 0
1, 390463, Note_on_c, 0, 71, 73
1, 390516, Note_on_c, 0, 71, 0
1, 390516, Note_on_c, 0, 70, 73
1, 390569, Note_on_c, 0, 70, 0
1, 390569, Note_on_c, 0, 69, 73
1, 390622, Note_on_c, 0, 69, 0
1, 390622, Note_on_c, 0, 70, 73
1, 390675, Note_on_c, 0, 70, 0
1, 390675, Note_on_c, 0, 66, 0
1, 390675, Note_on_c, 0, 68, 62
1, 390678, Note_on_c, 0, 71, 73
1, 390678, Note_on_c, 0, 58, 0
1, 390678, Note_on_c, 0, 54, 0
1, 390681, Note_on_c, 0, 56, 58
1, 390681, Note_on_c, 0, 59, 69
1, 390681, Control_c, 0, 64, 0
1, 390744, Note_on_c, 0, 71, 0
1, 390744, Note_on_c, 0, 68, 0
1, 390744, Note_on_c, 0, 59, 0
1, 390747, Note_on_c, 0, 56, 0
1, 390813, Note_on_c, 0, 66, 59
1, 390813, Note_on_c, 0, 70, 70
1, 390813, Note_on_c, 0, 54, 58
1, 390816, Note_on_c, 0, 58, 69
1, 390888, Note_on_c, 0, 70, 0
1, 390888, Note_on_c, 0, 66, 0
1, 390888, Note_on_c, 0, 58, 0
1, 390891, Note_on_c, 0, 54, 0
1, 390963, Note_on_c, 0, 65, 68
1, 390963, Note_on_c, 0, 68, 80
1, 390963, Note_on_c, 0, 53, 62
1, 390966, Note_on_c, 0, 56, 74
1, 391033, Note_on_c, 0, 68, 0
1, 391033, Note_on_c, 0, 65, 0
1, 391033, Note_on_c, 0, 56, 0
1, 391036, Note_on_c, 0, 53, 0
1, 391103, Note_on_c, 0, 63, 62
1, 391103, Note_on_c, 0, 66, 73
1, 391103, Note_on_c, 0, 51, 58
1, 391106, Note_on_c, 0, 54, 69
1, 391173, Note_on_c, 0, 66, 0
1, 391173, Note_on_c, 0, 63, 0
1, 391173, Note_on_c, 0, 54, 0
1, 391176, Note_on_c, 0, 51, 0
1, 391242, Note_on_c, 0, 58, 62
1, 391242, Note_on_c, 0, 65, 73
1, 391242, Note_on_c, 0, 46, 58
1, 391245, Note_on_c, 0, 53, 69
1, 391388, Note_on_c, 0, 65, 0
1, 391388, Note_on_c, 0, 58, 0
1, 391388, Note_on_c, 0, 53, 0
1, 391391, Note_on_c, 0, 46, 0
1, 391534, Note_on_c, 0, 54, 75
1, 391534, Note_on_c, 0, 58, 75
1, 391534, Note_on_c, 0, 63, 89
1, 391537, Note_on_c, 0, 39, 64
1, 391537, Note_on_c, 0, 46, 64
1, 391537, Note_on_c, 0, 51, 76
1, 391542, Control_c, 0, 64, 127
1, 391675, Note_on_c, 0, 63, 0
1, 391675, Note_on_c, 0, 58, 0
1, 391675, Note_on_c, 0, 54, 0
1, 391678, Note_on_c, 0, 51, 0
1, 391678, Note_on_c, 0, 46, 0
1, 391678, Note_on_c, 0, 39, 0
1, 391707, Control_c, 0, 64, 0
1, 392096, Note_on_c, 0, 73, 77
1, 392096, Note_on_c, 0, 78, 77
1, 392096, Note_on_c, 0, 82, 77
1, 392099, Note_on_c, 0, 85, 91
1, 392099, Note_on_c, 0, 42, 62
1, 392099, Note_on_c, 0, 46, 62
1, 392102, Note_on_c, 0, 49, 62
1, 392102, Note_on_c, 0, 54, 73
1, 392102, Control_c, 0, 64, 127
1, 392505, Note_on_c, 0, 85, 0
1, 392505, Note_on_c, 0, 73, 0
1, 392505, Note_on_c, 0, 78, 0
1, 392508, Note_on_c, 0, 82, 0
1, 392508, Note_on_c, 0, 73, 72
1, 392508, Note_on_c, 0, 78, 72
1, 392511, Note_on_c, 0, 82, 72
1, 392511, Note_on_c, 0, 85, 85
1, 392511, Note_on_c, 0, 54, 0
1, 392514, Note_on_c, 0, 42, 0
1, 392514, Note_on_c, 0, 46, 0
1, 392514, Note_on_c, 0, 49, 0
1, 392517, Note_on_c, 0, 42, 57
1, 392517, Note_on_c, 0, 46, 57
1, 392517, Note_on_c, 0, 49, 57
1, 392520, Note_on_c, 0, 54, 68
1, 392648, Note_on_c, 0, 85, 0
1, 392648, Note_on_c, 0, 73, 0
1, 392648, Note_on_c, 0, 78, 0
1, 392651, Note_on_c, 0, 82, 0
1, 392651, Note_on_c, 0, 75, 78
1, 392651, Note_on_c, 0, 78, 78
1, 392654, Note_on_c, 0, 83, 78
1, 392654, Note_on_c, 0, 87, 92
1, 392654, Note_on_c, 0, 54, 0
1, 392657, Note_on_c, 0, 42, 0
1, 392657, Note_on_c, 0, 46, 0
1, 392657, Note_on_c, 0, 49, 0
1, 392660, Note_on_c, 0, 47, 62
1, 392660, Note_on_c, 0, 51, 62
1, 392660, Note_on_c, 0, 54, 62
1, 392663, Note_on_c, 0, 59, 73
1, 392663, Control_c, 0, 64, 0
1, 392797, Control_c, 0, 64, 127
1, 392917, Note_on_c, 0, 87, 0
1, 392917, Note_on_c, 0, 75, 0
1, 392917, Note_on_c, 0, 78, 0
1, 392920, Note_on_c, 0, 83, 0
1, 392920, Note_on_c, 0, 73, 73
1, 392920, Note_on_c, 0, 78, 73
1, 392923, Note_on_c, 0, 82, 73
1, 392923, Note_on_c, 0, 85, 86
1, 392923, Note_on_c, 0, 59, 0
1, 392926, Note_on_c, 0, 47, 0
1, 392926, Note_on_c, 0, 51, 0
1, 392926, Note_on_c, 0, 54, 0
1, 392929, Note_on_c, 0, 42, 59
1, 392929, Note_on_c, 0, 46, 59
1, 392929, Note_on_c, 0, 49, 59
1, 392932, Note_on_c, 0, 54, 70
1, 392932, Control_c, 0, 64, 0
1, 393072, Control_c, 0, 64, 127
1, 393197, Note_on_c, 0, 85, 0
1, 393197, Note_on_c, 0, 73, 0
1, 393197, Note_on_c, 0, 78, 0
1, 393200, Note_on_c, 0, 82, 0
1, 393200, Note_on_c, 0, 70, 79
1, 393200, Note_on_c, 0, 82, 93
1, 393203, Note_on_c, 0, 54, 0
1, 393203, Note_on_c, 0, 42, 0
1, 393203, Note_on_c, 0, 46, 0
1, 393206, Note_on_c, 0, 49, 0
1, 393206, Note_on_c, 0, 34, 62
1, 393206, Note_on_c, 0, 46, 74
1, 393209, Control_c, 0, 64, 0
1, 393290, Control_c, 0, 64, 127
1, 393611, Note_on_c, 0, 82, 0
1, 393611, Note_on_c, 0, 70, 0
1, 393611, Note_on_c, 0, 68, 73
1, 393614, Note_on_c, 0, 80, 87
1, 393614, Note_on_c, 0, 46, 0
1, 393614, Note_on_c, 0, 34, 0
1, 393617, Note_on_c, 0, 46, 56
1, 393617, Note_on_c, 0, 38, 56
1, 393617, Note_on_c, 0, 50, 67
1, 393746, Note_on_c, 0, 80, 0
1, 393746, Note_on_c, 0, 68, 0
1, 393746, Note_on_c, 0, 66, 77
1, 393749, Note_on_c, 0, 78, 91
1, 393749, Note_on_c, 0, 50, 0
1, 393749, Note_on_c, 0, 38, 0
1, 393752, Note_on_c, 0, 46, 0
1, 393752, Note_on_c, 0, 46, 61
1, 393752, Note_on_c, 0, 39, 61
1, 393755, Note_on_c, 0, 51, 72
1, 393755, Control_c, 0, 64, 0
1, 393811, Note_on_c, 0, 78, 0
1, 393811, Note_on_c, 0, 66, 0
1, 393811, Note_on_c, 0, 51, 0
1, 393814, Note_on_c, 0, 39, 0
1, 393814, Note_on_c, 0, 46, 0
1, 393876, Note_on_c, 0, 65, 72
1, 393876, Note_on_c, 0, 77, 85
1, 393876, Note_on_c, 0, 46, 58
1, 393879, Note_on_c, 0, 41, 58
1, 393879, Note_on_c, 0, 53, 69
1, 393941, Note_on_c, 0, 77, 0
1, 393941, Note_on_c, 0, 65, 0
1, 393941, Note_on_c, 0, 53, 0
1, 393944, Note_on_c, 0, 41, 0
1, 393944, Note_on_c, 0, 46, 0
1, 394007, Note_on_c, 0, 63, 71
1, 394007, Note_on_c, 0, 75, 84
1, 394007, Note_on_c, 0, 46, 58
1, 394010, Note_on_c, 0, 42, 58
1, 394010, Note_on_c, 0, 54, 69
1, 394145, Note_on_c, 0, 75, 0
1, 394145, Note_on_c, 0, 63, 0
1, 394145, Note_on_c, 0, 54, 0
1, 394148, Note_on_c, 0, 42, 0
1, 394148, Note_on_c, 0, 46, 0
1, 394282, Note_on_c, 0, 78, 66
1, 394282, Note_on_c, 0, 82, 78
1, 394282, Note_on_c, 0, 58, 66
1, 394285, Note_on_c, 0, 54, 66
1, 394285, Note_on_c, 0, 66, 78
1, 394285, Control_c, 0, 64, 127
1, 394337, Note_on_c, 0, 82, 0
1, 394337, Note_on_c, 0, 83, 73
1, 394393, Note_on_c, 0, 83, 0
1, 394393, Note_on_c, 0, 82, 73
1, 394448, Note_on_c, 0, 82, 0
1, 394448, Note_on_c, 0, 81, 73
1, 394503, Note_on_c, 0, 81, 0
1, 394503, Note_on_c, 0, 82, 73
1, 394558, Note_on_c, 0, 82, 0
1, 394558, Note_on_c, 0, 78, 0
1, 394558, Note_on_c, 0, 71, 62
1, 394561, Note_on_c, 0, 83, 73
1, 394561, Note_on_c, 0, 66, 0
1, 394561, Note_on_c, 0, 54, 0
1, 394564, Note_on_c, 0, 58, 0
1, 394564, Note_on_c, 0, 56, 58
1, 394564, Note_on_c, 0, 68, 69
1, 394564, Control_c, 0, 64, 0
1, 394627, Note_on_c, 0, 83, 0
1, 394627, Note_on_c, 0, 71, 0
1, 394627, Note_on_c, 0, 68, 0
1, 394630, Note_on_c, 0, 56, 0
1, 394696, Note_on_c, 0, 70, 59
1, 394696, Note_on_c, 0, 82, 70
1, 394696, Note_on_c, 0, 54, 58
1, 394699, Note_on_c, 0, 66, 69
1, 394771, Note_on_c, 0, 82, 0
1, 394771, Note_on_c, 0, 70, 0
1, 394771, Note_on_c, 0, 66, 0
1, 394774, Note_on_c, 0, 54, 0
1, 394847, Note_on_c, 0, 68, 68
1, 394847, Note_on_c, 0, 80, 80
1, 394847, Note_on_c, 0, 53, 62
1, 394850, Note_on_c, 0, 65, 74
1, 394913, Note_on_c, 0, 80, 0
1, 394913, Note_on_c, 0, 68, 0
1, 394913, Note_on_c, 0, 65, 0
1, 394916, Note_on_c, 0, 53, 0
1, 394980, Note_on_c, 0, 66, 62
1, 394980, Note_on_c, 0, 78, 73
1, 394980, Note_on_c, 0, 51, 58
1, 394983, Note_on_c, 0, 63, 69
1, 395047, Note_on_c, 0, 78, 0
1, 395047, Note_on_c, 0, 66, 0
1, 395047, Note_on_c, 0, 63, 0
1, 395050, Note_on_c, 0, 51, 0
1, 395114, Note_on_c, 0, 65, 62
1, 395114, Note_on_c, 0, 77, 73
1, 395114, Note_on_c, 0, 46, 58
1, 395117, Note_on_c, 0, 58, 69
1, 395253, Note_on_c, 0, 77, 0
1, 395253, Note_on_c, 0, 65, 0
1, 395253, Note_on_c, 0, 58, 0
1, 395256, Note_on_c, 0, 46, 0
1, 395391, Note_on_c, 0, 66, 66
1, 395391, Note_on_c, 0, 70, 78
1, 395391, Note_on_c, 0, 54, 66
1, 395394, Note_on_c, 0, 58, 78
1, 395394, Control_c, 0, 64, 127
1, 395445, Note_on_c, 0, 70, 0
1, 395445, Note_on_c, 0, 71, 73
1, 395499, Note_on_c, 0, 71, 0
1, 395499, Note_on_c, 0, 70, 73
1, 395553, Note_on_c, 0, 70, 0
1, 395553, Note_on_c, 0, 69, 73
1, 395607, Note_on_c, 0, 69, 0
1, 395607, Note_on_c, 0, 70, 73
1, 395660, Note_on_c, 0, 70, 0
1, 395660, Note_on_c, 0, 66, 0
1, 395660, Note_on_c, 0, 68, 62
1, 395663, Note_on_c, 0, 71, 73
1, 395663, Note_on_c, 0, 58, 0
1, 395663, Note_on_c, 0, 54, 0
1, 395666, Note_on_c, 0, 56, 58
1, 395666, Note_on_c, 0, 59, 69
1, 395666, Control_c, 0, 64, 0
1, 395729, Note_on_c, 0, 71, 0
1, 395729, Note_on_c, 0, 68, 0
1, 395729, Note_on_c, 0, 59, 0
1, 395732, Note_on_c, 0, 56, 0
1, 395798, Note_on_c, 0, 66, 59
1, 395798, Note_on_c, 0, 70, 70
1, 395798, Note_on_c, 0, 54, 58
1, 395801, Note_on_c, 0, 58, 69
1, 395874, Note_on_c, 0, 70, 0
1, 395874, Note_on_c, 0, 66, 0
1, 395874, Note_on_c, 0, 58, 0
1, 395877, Note_on_c, 0, 54, 0
1, 395949, Note_on_c, 0, 65, 68
1, 395949, Note_on_c, 0, 68, 80
1, 395949, Note_on_c, 0, 53, 62
1, 395952, Note_on_c, 0, 56, 74
1, 396024, Note_on_c, 0, 68, 0
1, 396024, Note_on_c, 0, 65, 0
1, 396024, Note_on_c, 0, 56, 0
1, 396027, Note_on_c, 0, 53, 0
1, 396100, Note_on_c, 0, 63, 62
1, 396100, Note_on_c, 0, 66, 73
1, 396100, Note_on_c, 0, 51, 58
1, 396103, Note_on_c, 0, 54, 69
1, 396175, Note_on_c, 0, 66, 0
1, 396175, Note_on_c, 0, 63, 0
1, 396175, Note_on_c, 0, 54, 0
1, 396178, Note_on_c, 0, 51, 0
1, 396250, Note_on_c, 0, 58, 62
1, 396250, Note_on_c, 0, 65, 73
1, 396250, Note_on_c, 0, 46, 58
1, 396253, Note_on_c, 0, 53, 69
1, 396413, Note_on_c, 0, 65, 0
1, 396413, Note_on_c, 0, 58, 0
1, 396413, Note_on_c, 0, 53, 0
1, 396416, Note_on_c, 0, 46, 0
1, 396576, Note_on_c, 0, 54, 66
1, 396576, Note_on_c, 0, 58, 78
1, 396576, Note_on_c, 0, 42, 66
1, 396579, Note_on_c, 0, 46, 78
1, 396579, Control_c, 0, 64, 127
1, 396642, Note_on_c, 0, 58, 0
1, 396642, Note_on_c, 0, 59, 73
1, 396707, Note_on_c, 0, 59, 0
1, 396707, Note_on_c, 0, 58, 73
1, 396773, Note_on_c, 0, 58, 0
1, 396773, Note_on_c, 0, 57, 73
1, 396838, Note_on_c, 0, 57, 0
1, 396838, Note_on_c, 0, 58, 73
1, 396904, Note_on_c, 0, 58, 0
1, 396904, Note_on_c, 0, 54, 0
1, 396904, Note_on_c, 0, 56, 62
1, 396907, Note_on_c, 0, 59, 73
1, 396907, Note_on_c, 0, 46, 0
1, 396907, Note_on_c, 0, 42, 0
1, 396910, Note_on_c, 0, 44, 58
1, 396910, Note_on_c, 0, 47, 69
1, 396914, Control_c, 0, 64, 0
1, 396987, Note_on_c, 0, 59, 0
1, 396987, Note_on_c, 0, 56, 0
1, 396987, Note_on_c, 0, 47, 0
1, 396990, Note_on_c, 0, 44, 0
1, 397069, Note_on_c, 0, 54, 59
1, 397069, Note_on_c, 0, 58, 70
1, 397069, Note_on_c, 0, 42, 58
1, 397072, Note_on_c, 0, 46, 69
1, 397157, Note_on_c, 0, 58, 0
1, 397157, Note_on_c, 0, 54, 0
1, 397157, Note_on_c, 0, 46, 0
1, 397160, Note_on_c, 0, 42, 0
1, 397245, Note_on_c, 0, 53, 68
1, 397245, Note_on_c, 0, 56, 80
1, 397245, Note_on_c, 0, 41, 62
1, 397248, Note_on_c, 0, 44, 74
1, 397335, Note_on_c, 0, 56, 0
1, 397335, Note_on_c, 0, 53, 0
1, 397335, Note_on_c, 0, 44, 0
1, 397338, Note_on_c, 0, 41, 0
1, 397426, Note_on_c, 0, 51, 62
1, 397426, Note_on_c, 0, 54, 73
1, 397426, Note_on_c, 0, 39, 58
1, 397429, Note_on_c, 0, 42, 69
1, 397526, Note_on_c, 0, 54, 0
1, 397526, Note_on_c, 0, 51, 0
1, 397526, Note_on_c, 0, 42, 0
1, 397529, Note_on_c, 0, 39, 0
1, 397626, Note_on_c, 0, 46, 62
1, 397626, Note_on_c, 0, 53, 73
1, 397626, Note_on_c, 0, 34, 58
1, 397629, Note_on_c, 0, 41, 69
1, 397838, Note_on_c, 0, 53, 0
1, 397838, Note_on_c, 0, 46, 0
1, 397838, Note_on_c, 0, 41, 0
1, 397841, Note_on_c, 0, 34, 0
1, 397997, Note_on_c, 0, 27, 58
1, 398015, Note_on_c, 0, 31, 58
1, 398033, Note_on_c, 0, 34, 58
1, 398050, Note_on_c, 0, 51, 86
1, 398050, Note_on_c, 0, 39, 69
1, 398050, Control_c, 0, 64, 127
1, 398241, Note_on_c, 0, 39, 0
1, 398241, Note_on_c, 0, 27, 0
1, 398241, Note_on_c, 0, 31, 0
1, 398244, Note_on_c, 0, 34, 0
1, 398244, Note_on_c, 0, 39, 58
1, 398244, Note_on_c, 0, 46, 58
1, 398247, Note_on_c, 0, 51, 69
1, 398431, Note_on_c, 0, 51, 0
1, 398431, Note_on_c, 0, 55, 56
1, 398431, Note_on_c, 0, 58, 56
1, 398434, Note_on_c, 0, 63, 56
1, 398434, Note_on_c, 0, 67, 66
1, 398434, Note_on_c, 0, 51, 0
1, 398437, Note_on_c, 0, 46, 0
1, 398437, Note_on_c, 0, 39, 0
1, 398621, Note_on_c, 0, 67, 0
1, 398621, Note_on_c, 0, 55, 0
1, 398621, Note_on_c, 0, 58, 0
1, 398624, Note_on_c, 0, 63, 0
1, 398624, Note_on_c, 0, 79, 66
1, 398624, Note_on_c, 0, 75, 56
1, 398627, Note_on_c, 0, 70, 56
1, 398627, Note_on_c, 0, 67, 56
1, 398717, Note_on_c, 0, 43, 79
1, 398717, Note_on_c, 0, 55, 79
1, 398812, Note_on_c, 0, 67, 0
1, 398812, Note_on_c, 0, 79, 0
1, 398812, Note_on_c, 0, 75, 0
1, 398815, Note_on_c, 0, 70, 0
1, 398815, Note_on_c, 0, 91, 71
1, 398815, Note_on_c, 0, 87, 71
1, 398818, Note_on_c, 0, 82, 60
1, 398818, Note_on_c, 0, 79, 60
1, 398818, Note_on_c, 0, 55, 0
1, 398821, Note_on_c, 0, 43, 0
1, 398821, Note_on_c, 0, 44, 85
1, 398821, Note_on_c, 0, 56, 85
1, 399009, Note_on_c, 0, 79, 0
1, 399009, Note_on_c, 0, 91, 0
1, 399009, Note_on_c, 0, 87, 0
1, 399012, Note_on_c, 0, 82, 0
1, 399012, Note_on_c, 0, 103, 78
1, 399012, Note_on_c, 0, 99, 78
1, 399015, Note_on_c, 0, 94, 66
1, 399015, Note_on_c, 0, 91, 66
1, 399206, Note_on_c, 0, 91, 0
1, 399206, Note_on_c, 0, 103, 0
1, 399206, Note_on_c, 0, 99, 0
1, 399209, Note_on_c, 0, 94, 0
1, 399209, Note_on_c, 0, 56, 0
1, 399209, Note_on_c, 0, 44, 0
1, 399212, Note_on_c, 0, 45, 84
1, 399212, Note_on_c, 0, 57, 84
1, 399212, Control_c, 0, 64, 0
1, 399551, Note_on_c, 0, 57, 0
1, 399551, Note_on_c, 0, 45, 0
1, 399551, Note_on_c, 0, 27, 58
1, 399567, Note_on_c, 0, 31, 58
1, 399584, Note_on_c, 0, 34, 58
1, 399600, Note_on_c, 0, 46, 82
1, 399600, Note_on_c, 0, 58, 86
1, 399600, Note_on_c, 0, 39, 69
1, 399603, Control_c, 0, 64, 127
1, 399790, Note_on_c, 0, 39, 0
1, 399790, Note_on_c, 0, 27, 0
1, 399790, Note_on_c, 0, 31, 0
1, 399793, Note_on_c, 0, 34, 0
1, 399793, Note_on_c, 0, 39, 58
1, 399793, Note_on_c, 0, 46, 58
1, 399796, Note_on_c, 0, 51, 69
1, 399981, Note_on_c, 0, 58, 0
1, 399981, Note_on_c, 0, 46, 0
1, 399981, Note_on_c, 0, 55, 56
1, 399984, Note_on_c, 0, 58, 56
1, 399984, Note_on_c, 0, 63, 56
1, 399984, Note_on_c, 0, 67, 66
1, 399987, Note_on_c, 0, 51, 0
1, 399987, Note_on_c, 0, 46, 0
1, 399987, Note_on_c, 0, 39, 0
1, 400171, Note_on_c, 0, 67, 0
1, 400171, Note_on_c, 0, 55, 0
1, 400171, Note_on_c, 0, 58, 0
1, 400174, Note_on_c, 0, 63, 0
1, 400174, Note_on_c, 0, 79, 66
1, 400174, Note_on_c, 0, 75, 56
1, 400177, Note_on_c, 0, 70, 56
1, 400177, Note_on_c, 0, 67, 56
1, 400361, Note_on_c, 0, 67, 0
1, 400361, Note_on_c, 0, 79, 0
1, 400361, Note_on_c, 0, 75, 0
1, 400364, Note_on_c, 0, 70, 0
1, 400364, Note_on_c, 0, 91, 72
1, 400364, Note_on_c, 0, 87, 72
1, 400367, Note_on_c, 0, 82, 61
1, 400367, Note_on_c, 0, 79, 61
1, 400367, Note_on_c, 0, 51, 68
1, 400370, Note_on_c, 0, 63, 85
1, 400558, Note_on_c, 0, 79, 0
1, 400558, Note_on_c, 0, 91, 0
1, 400558, Note_on_c, 0, 87, 0
1, 400561, Note_on_c, 0, 82, 0
1, 400561, Note_on_c, 0, 103, 77
1, 400561, Note_on_c, 0, 99, 77
1, 400564, Note_on_c, 0, 94, 65
1, 400564, Note_on_c, 0, 91, 65
1, 400756, Note_on_c, 0, 91, 0
1, 400756, Note_on_c, 0, 103, 0
1, 400756, Note_on_c, 0, 99, 0
1, 400759, Note_on_c, 0, 94, 0
1, 400759, Note_on_c, 0, 63, 0
1, 400759, Note_on_c, 0, 51, 0
1, 400759, Control_c, 0, 64, 0
1, 401051, Note_on_c, 0, 43, 79
1, 401051, Note_on_c, 0, 55, 79
1, 401100, Note_on_c, 0, 27, 58
1, 401125, Note_on_c, 0, 34, 58
1, 401150, Note_on_c, 0, 55, 0
1, 401150, Note_on_c, 0, 43, 0
1, 401150, Note_on_c, 0, 44, 75
1, 401153, Note_on_c, 0, 56, 86
1, 401153, Note_on_c, 0, 38, 69
1, 401240, Control_c, 0, 64, 127
1, 401342, Note_on_c, 0, 38, 0
1, 401342, Note_on_c, 0, 34, 0
1, 401342, Note_on_c, 0, 27, 0
1, 401345, Note_on_c, 0, 41, 58
1, 401345, Note_on_c, 0, 46, 58
1, 401345, Note_on_c, 0, 50, 69
1, 401534, Note_on_c, 0, 56, 0
1, 401534, Note_on_c, 0, 44, 0
1, 401534, Note_on_c, 0, 53, 56
1, 401537, Note_on_c, 0, 58, 56
1, 401537, Note_on_c, 0, 62, 56
1, 401537, Note_on_c, 0, 65, 66
1, 401540, Note_on_c, 0, 50, 0
1, 401540, Note_on_c, 0, 46, 0
1, 401540, Note_on_c, 0, 41, 0
1, 401543, Note_on_c, 0, 44, 72
1, 401543, Note_on_c, 0, 56, 82
1, 401726, Note_on_c, 0, 65, 0
1, 401726, Note_on_c, 0, 53, 0
1, 401726, Note_on_c, 0, 58, 0
1, 401729, Note_on_c, 0, 62, 0
1, 401729, Note_on_c, 0, 77, 66
1, 401729, Note_on_c, 0, 74, 56
1, 401732, Note_on_c, 0, 70, 56
1, 401732, Note_on_c, 0, 65, 56
1, 401822, Note_on_c, 0, 56, 0
1, 401822, Note_on_c, 0, 44, 0
1, 401822, Note_on_c, 0, 43, 79
1, 401825, Note_on_c, 0, 55, 79
1, 401918, Note_on_c, 0, 65, 0
1, 401918, Note_on_c, 0, 77, 0
1, 401918, Note_on_c, 0, 74, 0
1, 401921, Note_on_c, 0, 70, 0
1, 401921, Note_on_c, 0, 89, 72
1, 401921, Note_on_c, 0, 86, 61
1, 401924, Note_on_c, 0, 82, 61
1, 401924, Note_on_c, 0, 77, 61
1, 401924, Note_on_c, 0, 55, 0
1, 401927, Note_on_c, 0, 43, 0
1, 401927, Note_on_c, 0, 44, 85
1, 401927, Note_on_c, 0, 56, 85
1, 402116, Note_on_c, 0, 77, 0
1, 402116, Note_on_c, 0, 89, 0
1, 402116, Note_on_c, 0, 86, 0
1, 402119, Note_on_c, 0, 82, 0
1, 402119, Note_on_c, 0, 101, 81
1, 402119, Note_on_c, 0, 98, 81
1, 402122, Note_on_c, 0, 94, 68
1, 402122, Note_on_c, 0, 89, 68
1, 402315, Note_on_c, 0, 89, 0
1, 402315, Note_on_c, 0, 101, 0
1, 402315, Note_on_c, 0, 98, 0
1, 402318, Note_on_c, 0, 94, 0
1, 402318, Note_on_c, 0, 56, 0
1, 402318, Note_on_c, 0, 44, 0
1, 402321, Note_on_c, 0, 45, 84
1, 402321, Note_on_c, 0, 57, 84
1, 402321, Control_c, 0, 64, 0
1, 402663, Note_on_c, 0, 57, 0
1, 402663, Note_on_c, 0, 45, 0
1, 402663, Note_on_c, 0, 27, 58
1, 402688, Note_on_c, 0, 34, 58
1, 402713, Note_on_c, 0, 46, 86
1, 402713, Note_on_c, 0, 58, 86
1, 402713, Note_on_c, 0, 39, 69
1, 402716, Control_c, 0, 64, 127
1, 402903, Note_on_c, 0, 39, 0
1, 402903, Note_on_c, 0, 34, 0
1, 402903, Note_on_c, 0, 27, 0
1, 402906, Note_on_c, 0, 39, 58
1, 402906, Note_on_c, 0, 46, 58
1, 402906, Note_on_c, 0, 51, 69
1, 403094, Note_on_c, 0, 58, 0
1, 403094, Note_on_c, 0, 46, 0
1, 403094, Note_on_c, 0, 55, 56
1, 403097, Note_on_c, 0, 58, 56
1, 403097, Note_on_c, 0, 63, 56
1, 403097, Note_on_c, 0, 67, 66
1, 403100, Note_on_c, 0, 51, 0
1, 403100, Note_on_c, 0, 46, 0
1, 403100, Note_on_c, 0, 39, 0
1, 403284, Note_on_c, 0, 67, 0
1, 403284, Note_on_c, 0, 55, 0
1, 403284, Note_on_c, 0, 58, 0
1, 403287, Note_on_c, 0, 63, 0
1, 403287, Note_on_c, 0, 79, 66
1, 403287, Note_on_c, 0, 75, 56
1, 403290, Note_on_c, 0, 70, 56
1, 403290, Note_on_c, 0, 67, 56
1, 403474, Note_on_c, 0, 67, 0
1, 403474, Note_on_c, 0, 79, 0
1, 403474, Note_on_c, 0, 75, 0
1, 403477, Note_on_c, 0, 70, 0
1, 403477, Note_on_c, 0, 91, 73
1, 403477, Note_on_c, 0, 87, 73
1, 403480, Note_on_c, 0, 82, 62
1, 403480, Note_on_c, 0, 79, 62
1, 403671, Note_on_c, 0, 79, 0
1, 403671, Note_on_c, 0, 91, 0
1, 403671, Note_on_c, 0, 87, 0
1, 403674, Note_on_c, 0, 82, 0
1, 403674, Note_on_c, 0, 103, 81
1, 403674, Note_on_c, 0, 99, 81
1, 403677, Note_on_c, 0, 94, 68
1, 403677, Note_on_c, 0, 91, 68
1, 403868, Note_on_c, 0, 91, 0
1, 403868, Note_on_c, 0, 103, 0
1, 403868, Note_on_c, 0, 99, 0
1, 403871, Note_on_c, 0, 94, 0
1, 403874, Control_c, 0, 64, 0
1, 404065, Note_on_c, 0, 46, 71
1, 404065, Note_on_c, 0, 34, 62
1, 404131, Note_on_c, 0, 46, 0
1, 404131, Note_on_c, 0, 48, 73
1, 404131, Note_on_c, 0, 34, 0
1, 404134, Note_on_c, 0, 36, 65
1, 404197, Note_on_c, 0, 48, 0
1, 404197, Note_on_c, 0, 50, 75
1, 404197, Note_on_c, 0, 36, 0
1, 404200, Note_on_c, 0, 38, 68
1, 404236, Note_on_c, 0, 50, 0
1, 404236, Note_on_c, 0, 38, 0
1, 404236, Note_on_c, 0, 27, 58
1, 404244, Note_on_c, 0, 31, 58
1, 404252, Note_on_c, 0, 34, 58
1, 404260, Note_on_c, 0, 51, 86
1, 404260, Note_on_c, 0, 39, 69
1, 404296, Control_c, 0, 64, 127
1, 404450, Note_on_c, 0, 39, 0
1, 404450, Note_on_c, 0, 27, 0
1, 404450, Note_on_c, 0, 31, 0
1, 404453, Note_on_c, 0, 34, 0
1, 404453, Note_on_c, 0, 39, 58
1, 404453, Note_on_c, 0, 46, 58
1, 404456, Note_on_c, 0, 51, 69
1, 404640, Note_on_c, 0, 51, 0
1, 404640, Note_on_c, 0, 63, 56
1, 404640, Note_on_c, 0, 58, 56
1, 404643, Note_on_c, 0, 55, 56
1, 404643, Note_on_c, 0, 67, 66
1, 404643, Note_on_c, 0, 51, 0
1, 404646, Note_on_c, 0, 46, 0
1, 404646, Note_on_c, 0, 39, 0
1, 404825, Note_on_c, 0, 67, 0
1, 404825, Note_on_c, 0, 63, 0
1, 404825, Note_on_c, 0, 58, 0
1, 404828, Note_on_c, 0, 55, 0
1, 404828, Note_on_c, 0, 67, 56
1, 404828, Note_on_c, 0, 70, 56
1, 404831, Note_on_c, 0, 79, 66
1, 404831, Note_on_c, 0, 75, 56
1, 404917, Note_on_c, 0, 43, 79
1, 404917, Note_on_c, 0, 55, 79
1, 405009, Note_on_c, 0, 75, 0
1, 405009, Note_on_c, 0, 67, 0
1, 405009, Note_on_c, 0, 70, 0
1, 405012, Note_on_c, 0, 79, 0
1, 405012, Note_on_c, 0, 82, 60
1, 405012, Note_on_c, 0, 79, 60
1, 405015, Note_on_c, 0, 91, 71
1, 405015, Note_on_c, 0, 87, 71
1, 405015, Note_on_c, 0, 55, 0
1, 405018, Note_on_c, 0, 43, 0
1, 405018, Note_on_c, 0, 44, 85
1, 405018, Note_on_c, 0, 56, 85
1, 405206, Note_on_c, 0, 87, 0
1, 405206, Note_on_c, 0, 82, 0
1, 405206, Note_on_c, 0, 79, 0
1, 405209, Note_on_c, 0, 91, 0
1, 405209, Note_on_c, 0, 91, 66
1, 405209, Note_on_c, 0, 99, 78
1, 405212, Note_on_c, 0, 103, 78
1, 405212, Note_on_c, 0, 94, 66
1, 405403, Note_on_c, 0, 94, 0
1, 405403, Note_on_c, 0, 91, 0
1, 405403, Note_on_c, 0, 99, 0
1, 405406, Note_on_c, 0, 103, 0
1, 405406, Note_on_c, 0, 56, 0
1, 405406, Note_on_c, 0, 44, 0
1, 405409, Note_on_c, 0, 45, 84
1, 405409, Note_on_c, 0, 57, 84
1, 405409, Control_c, 0, 64, 0
1, 405748, Note_on_c, 0, 57, 0
1, 405748, Note_on_c, 0, 45, 0
1, 405748, Note_on_c, 0, 27, 58
1, 405764, Note_on_c, 0, 31, 58
1, 405780, Note_on_c, 0, 34, 58
1, 405797, Note_on_c, 0, 58, 86
1, 405797, Note_on_c, 0, 46, 86
1, 405797, Note_on_c, 0, 39, 69
1, 405800, Control_c, 0, 64, 127
1, 405987, Note_on_c, 0, 39, 0
1, 405987, Note_on_c, 0, 27, 0
1, 405987, Note_on_c, 0, 31, 0
1, 405990, Note_on_c, 0, 34, 0
1, 405990, Note_on_c, 0, 39, 58
1, 405990, Note_on_c, 0, 46, 58
1, 405993, Note_on_c, 0, 51, 69
1, 406178, Note_on_c, 0, 46, 0
1, 406178, Note_on_c, 0, 58, 0
1, 406178, Note_on_c, 0, 67, 66
1, 406181, Note_on_c, 0, 55, 56
1, 406181, Note_on_c, 0, 58, 56
1, 406181, Note_on_c, 0, 63, 56
1, 406184, Note_on_c, 0, 51, 0
1, 406184, Note_on_c, 0, 46, 0
1, 406184, Note_on_c, 0, 39, 0
1, 406368, Note_on_c, 0, 63, 0
1, 406368, Note_on_c, 0, 67, 0
1, 406368, Note_on_c, 0, 55, 0
1, 406371, Note_on_c, 0, 58, 0
1, 406371, Note_on_c, 0, 67, 56
1, 406371, Note_on_c, 0, 79, 66
1, 406374, Note_on_c, 0, 75, 56
1, 406374, Note_on_c, 0, 70, 56
1, 406558, Note_on_c, 0, 70, 0
1, 406558, Note_on_c, 0, 67, 0
1, 406558, Note_on_c, 0, 79, 0
1, 406561, Note_on_c, 0, 75, 0
1, 406561, Note_on_c, 0, 91, 72
1, 406561, Note_on_c, 0, 82, 61
1, 406564, Note_on_c, 0, 87, 72
1, 406564, Note_on_c, 0, 79, 61
1, 406564, Note_on_c, 0, 51, 71
1, 406567, Note_on_c, 0, 63, 85
1, 406755, Note_on_c, 0, 79, 0
1, 406755, Note_on_c, 0, 91, 0
1, 406755, Note_on_c, 0, 82, 0
1, 406758, Note_on_c, 0, 87, 0
1, 406758, Note_on_c, 0, 103, 77
1, 406758, Note_on_c, 0, 94, 65
1, 406761, Note_on_c, 0, 99, 77
1, 406761, Note_on_c, 0, 91, 65
1, 406953, Note_on_c, 0, 91, 0
1, 406953, Note_on_c, 0, 103, 0
1, 406953, Note_on_c, 0, 94, 0
1, 406956, Note_on_c, 0, 99, 0
1, 406956, Note_on_c, 0, 63, 0
1, 406956, Note_on_c, 0, 51, 0
1, 406956, Control_c, 0, 64, 0
1, 407248, Note_on_c, 0, 55, 79
1, 407248, Note_on_c, 0, 43, 79
1, 407297, Note_on_c, 0, 27, 58
1, 407322, Note_on_c, 0, 34, 58
1, 407347, Note_on_c, 0, 43, 0
1, 407347, Note_on_c, 0, 55, 0
1, 407347, Note_on_c, 0, 44, 75
1, 407350, Note_on_c, 0, 56, 86
1, 407350, Note_on_c, 0, 38, 69
1, 407437, Control_c, 0, 64, 127
1, 407539, Note_on_c, 0, 38, 0
1, 407539, Note_on_c, 0, 34, 0
1, 407539, Note_on_c, 0, 27, 0
1, 407542, Note_on_c, 0, 41, 58
1, 407542, Note_on_c, 0, 46, 58
1, 407542, Note_on_c, 0, 50, 69
1, 407731, Note_on_c, 0, 56, 0
1, 407731, Note_on_c, 0, 44, 0
1, 407731, Note_on_c, 0, 53, 56
1, 407734, Note_on_c, 0, 58, 56
1, 407734, Note_on_c, 0, 62, 56
1, 407734, Note_on_c, 0, 65, 66
1, 407737, Note_on_c, 0, 50, 0
1, 407737, Note_on_c, 0, 46, 0
1, 407737, Note_on_c, 0, 41, 0
1, 407740, Note_on_c, 0, 44, 72
1, 407740, Note_on_c, 0, 56, 82
1, 407923, Note_on_c, 0, 65, 0
1, 407923, Note_on_c, 0, 53, 0
1, 407923, Note_on_c, 0, 58, 0
1, 407926, Note_on_c, 0, 62, 0
1, 407926, Note_on_c, 0, 77, 66
1, 407926, Note_on_c, 0, 74, 56
1, 407929, Note_on_c, 0, 70, 56
1, 407929, Note_on_c, 0, 65, 56
1, 408019, Note_on_c, 0, 56, 0
1, 408019, Note_on_c, 0, 44, 0
1, 408019, Note_on_c, 0, 43, 79
1, 408022, Note_on_c, 0, 55, 79
1, 408115, Note_on_c, 0, 65, 0
1, 408115, Note_on_c, 0, 77, 0
1, 408115, Note_on_c, 0, 74, 0
1, 408118, Note_on_c, 0, 70, 0
1, 408118, Note_on_c, 0, 89, 72
1, 408118, Note_on_c, 0, 86, 61
1, 408121, Note_on_c, 0, 82, 61
1, 408121, Note_on_c, 0, 77, 61
1, 408121, Note_on_c, 0, 55, 0
1, 408124, Note_on_c, 0, 43, 0
1, 408124, Note_on_c, 0, 44, 85
1, 408124, Note_on_c, 0, 56, 85
1, 408313, Note_on_c, 0, 77, 0
1, 408313, Note_on_c, 0, 89, 0
1, 408313, Note_on_c, 0, 86, 0
1, 408316, Note_on_c, 0, 82, 0
1, 408316, Note_on_c, 0, 101, 81
1, 408316, Note_on_c, 0, 98, 81
1, 408319, Note_on_c, 0, 94, 68
1, 408319, Note_on_c, 0, 89, 68
1, 408512, Note_on_c, 0, 89, 0
1, 408512, Note_on_c, 0, 101, 0
1, 408512, Note_on_c, 0, 98, 0
1, 408515, Note_on_c, 0, 94, 0
1, 408515, Note_on_c, 0, 56, 0
1, 408515, Note_on_c, 0, 44, 0
1, 408518, Note_on_c, 0, 41, 84
1, 408518, Note_on_c, 0, 53, 84
1, 408518, Control_c, 0, 64, 0
1, 408860, Note_on_c, 0, 53, 0
1, 408860, Note_on_c, 0, 41, 0
1, 408860, Note_on_c, 0, 27, 58
1, 408877, Note_on_c, 0, 31, 58
1, 408893, Note_on_c, 0, 34, 58
1, 408910, Note_on_c, 0, 51, 86
1, 408910, Note_on_c, 0, 39, 69
1, 408910, Control_c, 0, 64, 127
1, 409100, Note_on_c, 0, 39, 0
1, 409100, Note_on_c, 0, 27, 0
1, 409100, Note_on_c, 0, 31, 0
1, 409103, Note_on_c, 0, 34, 0
1, 409103, Note_on_c, 0, 39, 58
1, 409103, Note_on_c, 0, 46, 58
1, 409106, Note_on_c, 0, 51, 69
1, 409291, Note_on_c, 0, 55, 56
1, 409291, Note_on_c, 0, 58, 56
1, 409291, Note_on_c, 0, 63, 66
1, 409294, Note_on_c, 0, 51, 0
1, 409294, Note_on_c, 0, 46, 0
1, 409294, Note_on_c, 0, 39, 0
1, 409481, Note_on_c, 0, 63, 0
1, 409481, Note_on_c, 0, 58, 0
1, 409481, Note_on_c, 0, 55, 0
1, 409484, Note_on_c, 0, 75, 66
1, 409484, Note_on_c, 0, 70, 56
1, 409484, Note_on_c, 0, 67, 56
1, 409671, Note_on_c, 0, 67, 0
1, 409671, Note_on_c, 0, 51, 0
1, 409671, Note_on_c, 0, 75, 0
1, 409674, Note_on_c, 0, 70, 0
1, 409674, Note_on_c, 0, 87, 73
1, 409674, Note_on_c, 0, 82, 73
1, 409677, Note_on_c, 0, 79, 62
1, 409868, Note_on_c, 0, 79, 0
1, 409868, Note_on_c, 0, 82, 0
1, 409868, Note_on_c, 0, 87, 0
1, 409871, Note_on_c, 0, 99, 81
1, 409871, Note_on_c, 0, 94, 81
1, 409871, Note_on_c, 0, 91, 68
1, 410065, Note_on_c, 0, 91, 0
1, 410065, Note_on_c, 0, 94, 0
1, 410065, Note_on_c, 0, 99, 0
1, 410068, Note_on_c, 0, 46, 80
1, 410068, Note_on_c, 0, 58, 80
1, 410083, Control_c, 0, 64, 0
1, 410109, Control_c, 0, 64, 127
1, 410361, Note_on_c, 0, 58, 0
1, 410361, Note_on_c, 0, 46, 0
1, 410410, Note_on_c, 0, 27, 58
1, 410423, Control_c, 0, 64, 0
1, 410428, Note_on_c, 0, 31, 58
1, 410446, Note_on_c, 0, 34, 58
1, 410463, Note_on_c, 0, 63, 82
1, 410463, Note_on_c, 0, 51, 75
1, 410463, Note_on_c, 0, 39, 69
1, 410466, Control_c, 0, 64, 127
1, 410654, Note_on_c, 0, 39, 0
1, 410654, Note_on_c, 0, 27, 0
1, 410654, Note_on_c, 0, 31, 0
1, 410657, Note_on_c, 0, 34, 0
1, 410657, Note_on_c, 0, 39, 58
1, 410657, Note_on_c, 0, 46, 58
1, 410660, Note_on_c, 0, 51, 69
1, 410749, Note_on_c, 0, 55, 62
1, 410844, Note_on_c, 0, 55, 0
1, 410844, Note_on_c, 0, 51, 0
1, 410844, Note_on_c, 0, 63, 0
1, 410847, Note_on_c, 0, 58, 53
1, 410847, Note_on_c, 0, 63, 53
1, 410847, Note_on_c, 0, 67, 62
1, 410850, Note_on_c, 0, 51, 0
1, 410850, Note_on_c, 0, 46, 0
1, 410850, Note_on_c, 0, 39, 0
1, 410939, Note_on_c, 0, 67, 0
1, 410939, Note_on_c, 0, 63, 0
1, 410939, Note_on_c, 0, 58, 0
1, 410942, Note_on_c, 0, 67, 57
1, 411034, Note_on_c, 0, 67, 0
1, 411034, Note_on_c, 0, 79, 62
1, 411034, Note_on_c, 0, 75, 53
1, 411037, Note_on_c, 0, 70, 53
1, 411130, Note_on_c, 0, 70, 0
1, 411130, Note_on_c, 0, 75, 0
1, 411130, Note_on_c, 0, 79, 0
1, 411133, Note_on_c, 0, 79, 56
1, 411133, Note_on_c, 0, 55, 76
1, 411133, Note_on_c, 0, 67, 76
1, 411225, Note_on_c, 0, 79, 0
1, 411225, Note_on_c, 0, 91, 67
1, 411225, Note_on_c, 0, 87, 67
1, 411228, Note_on_c, 0, 82, 57
1, 411228, Note_on_c, 0, 67, 0
1, 411228, Note_on_c, 0, 55, 0
1, 411231, Note_on_c, 0, 56, 81
1, 411231, Note_on_c, 0, 68, 81
1, 411323, Note_on_c, 0, 82, 0
1, 411323, Note_on_c, 0, 87, 0
1, 411323, Note_on_c, 0, 91, 0
1, 411326, Note_on_c, 0, 79, 60
1, 411422, Note_on_c, 0, 79, 0
1, 411422, Note_on_c, 0, 91, 70
1, 411422, Note_on_c, 0, 87, 58
1, 411425, Note_on_c, 0, 82, 58
1, 411520, Note_on_c, 0, 82, 0
1, 411520, Note_on_c, 0, 87, 0
1, 411520, Note_on_c, 0, 91, 0
1, 411523, Note_on_c, 0, 91, 62
1, 411619, Note_on_c, 0, 91, 0
1, 411619, Note_on_c, 0, 103, 81
1, 411619, Note_on_c, 0, 99, 78
1, 411622, Note_on_c, 0, 94, 62
1, 411622, Note_on_c, 0, 68, 0
1, 411622, Note_on_c, 0, 56, 0
1, 411625, Note_on_c, 0, 57, 80
1, 411625, Note_on_c, 0, 69, 80
1, 411625, Control_c, 0, 64, 0
1, 411657, Control_c, 0, 64, 127
1, 411816, Note_on_c, 0, 94, 0
1, 411816, Note_on_c, 0, 99, 0
1, 411816, Note_on_c, 0, 103, 0
1, 411964, Note_on_c, 0, 69, 0
1, 411964, Note_on_c, 0, 57, 0
1, 411964, Note_on_c, 0, 27, 58
1, 411981, Note_on_c, 0, 31, 58
1, 411999, Note_on_c, 0, 34, 58
1, 412017, Note_on_c, 0, 70, 82
1, 412017, Note_on_c, 0, 58, 73
1, 412017, Note_on_c, 0, 39, 69
1, 412020, Control_c, 0, 64, 0
1, 412067, Control_c, 0, 64, 127
1, 412207, Note_on_c, 0, 39, 0
1, 412207, Note_on_c, 0, 27, 0
1, 412207, Note_on_c, 0, 31, 0
1, 412210, Note_on_c, 0, 34, 0
1, 412210, Note_on_c, 0, 39, 58
1, 412210, Note_on_c, 0, 46, 58
1, 412213, Note_on_c, 0, 51, 69
1, 412302, Note_on_c, 0, 55, 62
1, 412397, Note_on_c, 0, 55, 0
1, 412397, Note_on_c, 0, 58, 53
1, 412397, Note_on_c, 0, 63, 53
1, 412400, Note_on_c, 0, 67, 62
1, 412400, Note_on_c, 0, 51, 0
1, 412400, Note_on_c, 0, 46, 0
1, 412403, Note_on_c, 0, 39, 0
1, 412493, Note_on_c, 0, 67, 0
1, 412493, Note_on_c, 0, 58, 0
1, 412493, Note_on_c, 0, 63, 0
1, 412496, Note_on_c, 0, 67, 57
1, 412586, Note_on_c, 0, 58, 0
1, 412586, Note_on_c, 0, 70, 0
1, 412586, Note_on_c, 0, 67, 0
1, 412586, Note_on_c, 0, 79, 62
1, 412586, Note_on_c, 0, 75, 53
1, 412586, Note_on_c, 0, 70, 53
1, 412683, Note_on_c, 0, 70, 0
1, 412683, Note_on_c, 0, 75, 0
1, 412683, Note_on_c, 0, 79, 0
1, 412686, Note_on_c, 0, 79, 56
1, 412778, Note_on_c, 0, 79, 0
1, 412778, Note_on_c, 0, 91, 67
1, 412778, Note_on_c, 0, 87, 67
1, 412781, Note_on_c, 0, 82, 57
1, 412781, Note_on_c, 0, 63, 81
1, 412781, Note_on_c, 0, 75, 84
1, 412877, Note_on_c, 0, 82, 0
1, 412877, Note_on_c, 0, 87, 0
1, 412877, Note_on_c, 0, 91, 0
1, 412880, Note_on_c, 0, 79, 60
1, 412975, Note_on_c, 0, 79, 0
1, 412975, Note_on_c, 0, 91, 70
1, 412975, Note_on_c, 0, 87, 58
1, 412978, Note_on_c, 0, 82, 58
1, 413074, Note_on_c, 0, 82, 0
1, 413074, Note_on_c, 0, 87, 0
1, 413074, Note_on_c, 0, 91, 0
1, 413077, Note_on_c, 0, 91, 62
1, 413172, Note_on_c, 0, 91, 0
1, 413172, Note_on_c, 0, 103, 81
1, 413172, Note_on_c, 0, 99, 78
1, 413175, Note_on_c, 0, 94, 62
1, 413175, Note_on_c, 0, 75, 0
1, 413175, Note_on_c, 0, 63, 0
1, 413196, Control_c, 0, 64, 0
1, 413248, Control_c, 0, 64, 127
1, 413369, Note_on_c, 0, 94, 0
1, 413369, Note_on_c, 0, 99, 0
1, 413369, Note_on_c, 0, 103, 0
1, 413468, Note_on_c, 0, 55, 76
1, 413468, Note_on_c, 0, 67, 76
1, 413517, Note_on_c, 0, 27, 58
1, 413544, Note_on_c, 0, 34, 58
1, 413570, Note_on_c, 0, 67, 0
1, 413570, Note_on_c, 0, 55, 0
1, 413570, Note_on_c, 0, 68, 82
1, 413573, Note_on_c, 0, 56, 73
1, 413573, Note_on_c, 0, 38, 69
1, 413573, Control_c, 0, 64, 0
1, 413612, Control_c, 0, 64, 127
1, 413760, Note_on_c, 0, 38, 0
1, 413760, Note_on_c, 0, 34, 0
1, 413760, Note_on_c, 0, 27, 0
1, 413763, Note_on_c, 0, 41, 58
1, 413763, Note_on_c, 0, 46, 58
1, 413763, Note_on_c, 0, 50, 69
1, 413856, Note_on_c, 0, 53, 62
1, 413951, Note_on_c, 0, 53, 0
1, 413951, Note_on_c, 0, 56, 0
1, 413951, Note_on_c, 0, 68, 0
1, 413954, Note_on_c, 0, 58, 53
1, 413954, Note_on_c, 0, 62, 53
1, 413954, Note_on_c, 0, 65, 62
1, 413957, Note_on_c, 0, 50, 0
1, 413957, Note_on_c, 0, 46, 0
1, 413957, Note_on_c, 0, 41, 0
1, 414046, Note_on_c, 0, 65, 0
1, 414046, Note_on_c, 0, 62, 0
1, 414046, Note_on_c, 0, 58, 0
1, 414049, Note_on_c, 0, 65, 57
1, 414141, Note_on_c, 0, 65, 0
1, 414141, Note_on_c, 0, 77, 62
1, 414141, Note_on_c, 0, 74, 53
1, 414144, Note_on_c, 0, 70, 53
1, 414236, Note_on_c, 0, 70, 0
1, 414236, Note_on_c, 0, 74, 0
1, 414236, Note_on_c, 0, 77, 0
1, 414239, Note_on_c, 0, 77, 56
1, 414239, Note_on_c, 0, 55, 76
1, 414239, Note_on_c, 0, 67, 76
1, 414332, Note_on_c, 0, 77, 0
1, 414332, Note_on_c, 0, 89, 67
1, 414332, Note_on_c, 0, 86, 67
1, 414335, Note_on_c, 0, 82, 57
1, 414335, Note_on_c, 0, 67, 0
1, 414335, Note_on_c, 0, 55, 0
1, 414338, Note_on_c, 0, 56, 81
1, 414338, Note_on_c, 0, 68, 81
1, 414430, Note_on_c, 0, 82, 0
1, 414430, Note_on_c, 0, 86, 0
1, 414430, Note_on_c, 0, 89, 0
1, 414433, Note_on_c, 0, 77, 60
1, 414529, Note_on_c, 0, 77, 0
1, 414529, Note_on_c, 0, 89, 70
1, 414529, Note_on_c, 0, 86, 58
1, 414532, Note_on_c, 0, 82, 58
1, 414627, Note_on_c, 0, 82, 0
1, 414627, Note_on_c, 0, 86, 0
1, 414627, Note_on_c, 0, 89, 0
1, 414630, Note_on_c, 0, 89, 62
1, 414726, Note_on_c, 0, 89, 0
1, 414726, Note_on_c, 0, 101, 81
1, 414726, Note_on_c, 0, 98, 74
1, 414729, Note_on_c, 0, 94, 62
1, 414729, Note_on_c, 0, 68, 0
1, 414729, Note_on_c, 0, 56, 0
1, 414732, Note_on_c, 0, 57, 80
1, 414732, Note_on_c, 0, 69, 80
1, 414732, Control_c, 0, 64, 0
1, 414766, Control_c, 0, 64, 127
1, 414923, Note_on_c, 0, 94, 0
1, 414923, Note_on_c, 0, 98, 0
1, 414923, Note_on_c, 0, 101, 0
1, 415071, Note_on_c, 0, 69, 0
1, 415071, Note_on_c, 0, 57, 0
1, 415071, Note_on_c, 0, 27, 58
1, 415088, Note_on_c, 0, 31, 58
1, 415106, Note_on_c, 0, 34, 58
1, 415123, Note_on_c, 0, 70, 82
1, 415123, Note_on_c, 0, 58, 73
1, 415123, Note_on_c, 0, 39, 69
1, 415129, Control_c, 0, 64, 0
1, 415182, Control_c, 0, 64, 127
1, 415314, Note_on_c, 0, 39, 0
1, 415314, Note_on_c, 0, 27, 0
1, 415314, Note_on_c, 0, 31, 0
1, 415317, Note_on_c, 0, 34, 0
1, 415317, Note_on_c, 0, 39, 58
1, 415317, Note_on_c, 0, 46, 58
1, 415320, Note_on_c, 0, 51, 69
1, 415409, Note_on_c, 0, 55, 62
1, 415504, Note_on_c, 0, 55, 0
1, 415504, Note_on_c, 0, 58, 53
1, 415504, Note_on_c, 0, 63, 53
1, 415507, Note_on_c, 0, 67, 62
1, 415507, Note_on_c, 0, 51, 0
1, 415507, Note_on_c, 0, 46, 0
1, 415510, Note_on_c, 0, 39, 0
1, 415599, Note_on_c, 0, 67, 0
1, 415599, Note_on_c, 0, 58, 0
1, 415599, Note_on_c, 0, 63, 0
1, 415602, Note_on_c, 0, 67, 57
1, 415693, Note_on_c, 0, 58, 0
1, 415693, Note_on_c, 0, 70, 0
1, 415693, Note_on_c, 0, 67, 0
1, 415693, Note_on_c, 0, 79, 62
1, 415693, Note_on_c, 0, 75, 53
1, 415693, Note_on_c, 0, 70, 53
1, 415790, Note_on_c, 0, 70, 0
1, 415790, Note_on_c, 0, 75, 0
1, 415790, Note_on_c, 0, 79, 0
1, 415793, Note_on_c, 0, 79, 56
1, 415885, Note_on_c, 0, 79, 0
1, 415885, Note_on_c, 0, 91, 67
1, 415885, Note_on_c, 0, 87, 67
1, 415888, Note_on_c, 0, 82, 57
1, 415888, Note_on_c, 0, 55, 81
1, 415888, Note_on_c, 0, 67, 84
1, 415984, Note_on_c, 0, 82, 0
1, 415984, Note_on_c, 0, 87, 0
1, 415984, Note_on_c, 0, 91, 0
1, 415987, Note_on_c, 0, 79, 60
1, 416082, Note_on_c, 0, 79, 0
1, 416082, Note_on_c, 0, 91, 70
1, 416082, Note_on_c, 0, 87, 58
1, 416085, Note_on_c, 0, 82, 58
1, 416181, Note_on_c, 0, 82, 0
1, 416181, Note_on_c, 0, 87, 0
1, 416181, Note_on_c, 0, 91, 0
1, 416184, Note_on_c, 0, 91, 62
1, 416279, Note_on_c, 0, 91, 0
1, 416279, Note_on_c, 0, 103, 81
1, 416279, Note_on_c, 0, 99, 78
1, 416282, Note_on_c, 0, 94, 62
1, 416282, Note_on_c, 0, 67, 0
1, 416282, Note_on_c, 0, 55, 0
1, 416331, Control_c, 0, 64, 0
1, 416372, Control_c, 0, 64, 127
1, 416476, Note_on_c, 0, 94, 0
1, 416476, Note_on_c, 0, 99, 0
1, 416476, Note_on_c, 0, 103, 0
1, 416575, Note_on_c, 0, 46, 76
1, 416575, Note_on_c, 0, 58, 76
1, 416624, Note_on_c, 0, 27, 58
1, 416642, Note_on_c, 0, 31, 58
1, 416659, Note_on_c, 0, 34, 58
1, 416677, Note_on_c, 0, 58, 0
1, 416677, Note_on_c, 0, 46, 0
1, 416677, Note_on_c, 0, 63, 82
1, 416680, Note_on_c, 0, 51, 75
1, 416680, Note_on_c, 0, 39, 69
1, 416680, Control_c, 0, 64, 0
1, 416721, Control_c, 0, 64, 127
1, 416867, Note_on_c, 0, 39, 0
1, 416867, Note_on_c, 0, 27, 0
1, 416867, Note_on_c, 0, 31, 0
1, 416870, Note_on_c, 0, 34, 0
1, 416870, Note_on_c, 0, 39, 58
1, 416870, Note_on_c, 0, 46, 58
1, 416873, Note_on_c, 0, 51, 69
1, 416962, Note_on_c, 0, 55, 62
1, 417058, Note_on_c, 0, 55, 0
1, 417058, Note_on_c, 0, 51, 0
1, 417058, Note_on_c, 0, 63, 0
1, 417061, Note_on_c, 0, 58, 53
1, 417061, Note_on_c, 0, 63, 53
1, 417061, Note_on_c, 0, 67, 62
1, 417064, Note_on_c, 0, 51, 0
1, 417064, Note_on_c, 0, 46, 0
1, 417064, Note_on_c, 0, 39, 0
1, 417153, Note_on_c, 0, 67, 0
1, 417153, Note_on_c, 0, 63, 0
1, 417153, Note_on_c, 0, 58, 0
1, 417156, Note_on_c, 0, 67, 57
1, 417248, Note_on_c, 0, 67, 0
1, 417248, Note_on_c, 0, 79, 62
1, 417248, Note_on_c, 0, 75, 53
1, 417251, Note_on_c, 0, 70, 53
1, 417343, Note_on_c, 0, 70, 0
1, 417343, Note_on_c, 0, 75, 0
1, 417343, Note_on_c, 0, 79, 0
1, 417346, Note_on_c, 0, 79, 56
1, 417346, Note_on_c, 0, 55, 76
1, 417346, Note_on_c, 0, 67, 72
1, 417438, Note_on_c, 0, 79, 0
1, 417438, Note_on_c, 0, 91, 67
1, 417438, Note_on_c, 0, 87, 67
1, 417441, Note_on_c, 0, 82, 57
1, 417441, Note_on_c, 0, 67, 0
1, 417441, Note_on_c, 0, 55, 0
1, 417444, Note_on_c, 0, 56, 81
1, 417444, Note_on_c, 0, 68, 76
1, 417537, Note_on_c, 0, 82, 0
1, 417537, Note_on_c, 0, 87, 0
1, 417537, Note_on_c, 0, 91, 0
1, 417540, Note_on_c, 0, 79, 60
1, 417635, Note_on_c, 0, 79, 0
1, 417635, Note_on_c, 0, 91, 70
1, 417635, Note_on_c, 0, 87, 58
1, 417638, Note_on_c, 0, 82, 58
1, 417734, Note_on_c, 0, 82, 0
1, 417734, Note_on_c, 0, 87, 0
1, 417734, Note_on_c, 0, 91, 0
1, 417737, Note_on_c, 0, 91, 62
1, 417833, Note_on_c, 0, 91, 0
1, 417833, Note_on_c, 0, 103, 81
1, 417833, Note_on_c, 0, 99, 78
1, 417836, Note_on_c, 0, 94, 62
1, 417836, Note_on_c, 0, 68, 0
1, 417836, Note_on_c, 0, 56, 0
1, 417839, Note_on_c, 0, 57, 80
1, 417839, Note_on_c, 0, 69, 80
1, 417839, Control_c, 0, 64, 0
1, 417873, Control_c, 0, 64, 127
1, 418030, Note_on_c, 0, 94, 0
1, 418030, Note_on_c, 0, 99, 0
1, 418030, Note_on_c, 0, 103, 0
1, 418177, Note_on_c, 0, 69, 0
1, 418177, Note_on_c, 0, 57, 0
1, 418177, Note_on_c, 0, 27, 58
1, 418195, Note_on_c, 0, 31, 58
1, 418213, Note_on_c, 0, 34, 58
1, 418230, Note_on_c, 0, 70, 82
1, 418230, Note_on_c, 0, 58, 73
1, 418230, Note_on_c, 0, 39, 69
1, 418233, Control_c, 0, 64, 0
1, 418303, Control_c, 0, 64, 127
1, 418421, Note_on_c, 0, 39, 0
1, 418421, Note_on_c, 0, 27, 0
1, 418421, Note_on_c, 0, 31, 0
1, 418424, Note_on_c, 0, 34, 0
1, 418424, Note_on_c, 0, 39, 58
1, 418424, Note_on_c, 0, 46, 58
1, 418427, Note_on_c, 0, 51, 69
1, 418516, Note_on_c, 0, 55, 62
1, 418611, Note_on_c, 0, 55, 0
1, 418611, Note_on_c, 0, 58, 53
1, 418611, Note_on_c, 0, 63, 53
1, 418614, Note_on_c, 0, 67, 62
1, 418614, Note_on_c, 0, 51, 0
1, 418614, Note_on_c, 0, 46, 0
1, 418617, Note_on_c, 0, 39, 0
1, 418706, Note_on_c, 0, 67, 0
1, 418706, Note_on_c, 0, 58, 0
1, 418706, Note_on_c, 0, 63, 0
1, 418709, Note_on_c, 0, 67, 57
1, 418800, Note_on_c, 0, 58, 0
1, 418800, Note_on_c, 0, 70, 0
1, 418800, Note_on_c, 0, 67, 0
1, 418800, Note_on_c, 0, 79, 62
1, 418800, Note_on_c, 0, 75, 53
1, 418800, Note_on_c, 0, 70, 53
1, 418897, Note_on_c, 0, 70, 0
1, 418897, Note_on_c, 0, 75, 0
1, 418897, Note_on_c, 0, 79, 0
1, 418900, Note_on_c, 0, 79, 56
1, 418992, Note_on_c, 0, 79, 0
1, 418992, Note_on_c, 0, 91, 67
1, 418992, Note_on_c, 0, 87, 67
1, 418995, Note_on_c, 0, 82, 57
1, 418995, Note_on_c, 0, 63, 81
1, 418995, Note_on_c, 0, 75, 84
1, 419090, Note_on_c, 0, 82, 0
1, 419090, Note_on_c, 0, 87, 0
1, 419090, Note_on_c, 0, 91, 0
1, 419093, Note_on_c, 0, 79, 60
1, 419189, Note_on_c, 0, 79, 0
1, 419189, Note_on_c, 0, 91, 70
1, 419189, Note_on_c, 0, 87, 58
1, 419192, Note_on_c, 0, 82, 58
1, 419287, Note_on_c, 0, 82, 0
1, 419287, Note_on_c, 0, 87, 0
1, 419287, Note_on_c, 0, 91, 0
1, 419290, Note_on_c, 0, 91, 62
1, 419386, Note_on_c, 0, 91, 0
1, 419386, Note_on_c, 0, 103, 81
1, 419386, Note_on_c, 0, 99, 78
1, 419389, Note_on_c, 0, 94, 62
1, 419389, Note_on_c, 0, 75, 0
1, 419389, Note_on_c, 0, 63, 0
1, 419392, Control_c, 0, 64, 0
1, 419438, Control_c, 0, 64, 127
1, 419583, Note_on_c, 0, 94, 0
1, 419583, Note_on_c, 0, 99, 0
1, 419583, Note_on_c, 0, 103, 0
1, 419682, Note_on_c, 0, 55, 76
1, 419682, Note_on_c, 0, 67, 76
1, 419731, Note_on_c, 0, 27, 58
1, 419757, Note_on_c, 0, 34, 58
1, 419784, Note_on_c, 0, 67, 0
1, 419784, Note_on_c, 0, 55, 0
1, 419784, Note_on_c, 0, 68, 82
1, 419787, Note_on_c, 0, 56, 73
1, 419787, Note_on_c, 0, 38, 69
1, 419787, Control_c, 0, 64, 0
1, 419865, Control_c, 0, 64, 127
1, 419974, Note_on_c, 0, 38, 0
1, 419974, Note_on_c, 0, 34, 0
1, 419974, Note_on_c, 0, 27, 0
1, 419977, Note_on_c, 0, 41, 58
1, 419977, Note_on_c, 0, 46, 58
1, 419977, Note_on_c, 0, 50, 69
1, 420069, Note_on_c, 0, 53, 62
1, 420164, Note_on_c, 0, 53, 0
1, 420164, Note_on_c, 0, 56, 0
1, 420164, Note_on_c, 0, 68, 0
1, 420167, Note_on_c, 0, 58, 53
1, 420167, Note_on_c, 0, 62, 53
1, 420167, Note_on_c, 0, 65, 62
1, 420170, Note_on_c, 0, 50, 0
1, 420170, Note_on_c, 0, 46, 0
1, 420170, Note_on_c, 0, 41, 0
1, 420260, Note_on_c, 0, 65, 0
1, 420260, Note_on_c, 0, 62, 0
1, 420260, Note_on_c, 0, 58, 0
1, 420263, Note_on_c, 0, 65, 57
1, 420355, Note_on_c, 0, 65, 0
1, 420355, Note_on_c, 0, 77, 62
1, 420355, Note_on_c, 0, 74, 53
1, 420358, Note_on_c, 0, 70, 53
1, 420450, Note_on_c, 0, 70, 0
1, 420450, Note_on_c, 0, 74, 0
1, 420450, Note_on_c, 0, 77, 0
1, 420453, Note_on_c, 0, 77, 56
1, 420453, Note_on_c, 0, 55, 76
1, 420453, Note_on_c, 0, 67, 76
1, 420545, Note_on_c, 0, 77, 0
1, 420545, Note_on_c, 0, 89, 67
1, 420545, Note_on_c, 0, 86, 67
1, 420548, Note_on_c, 0, 82, 57
1, 420548, Note_on_c, 0, 67, 0
1, 420548, Note_on_c, 0, 55, 0
1, 420551, Note_on_c, 0, 56, 81
1, 420551, Note_on_c, 0, 68, 81
1, 420644, Note_on_c, 0, 82, 0
1, 420644, Note_on_c, 0, 86, 0
1, 420644, Note_on_c, 0, 89, 0
1, 420647, Note_on_c, 0, 77, 60
1, 420742, Note_on_c, 0, 77, 0
1, 420742, Note_on_c, 0, 89, 70
1, 420742, Note_on_c, 0, 86, 58
1, 420745, Note_on_c, 0, 82, 58
1, 420841, Note_on_c, 0, 82, 0
1, 420841, Note_on_c, 0, 86, 0
1, 420841, Note_on_c, 0, 89, 0
1, 420844, Note_on_c, 0, 89, 62
1, 420939, Note_on_c, 0, 89, 0
1, 420939, Note_on_c, 0, 101, 81
1, 420939, Note_on_c, 0, 98, 74
1, 420942, Note_on_c, 0, 94, 62
1, 420942, Note_on_c, 0, 68, 0
1, 420942, Note_on_c, 0, 56, 0
1, 420945, Note_on_c, 0, 53, 80
1, 420945, Note_on_c, 0, 65, 80
1, 420945, Control_c, 0, 64, 0
1, 420985, Control_c, 0, 64, 127
1, 421136, Note_on_c, 0, 94, 0
1, 421136, Note_on_c, 0, 98, 0
1, 421136, Note_on_c, 0, 101, 0
1, 421284, Note_on_c, 0, 65, 0
1, 421284, Note_on_c, 0, 53, 0
1, 421284, Note_on_c, 0, 27, 58
1, 421302, Note_on_c, 0, 31, 58
1, 421320, Note_on_c, 0, 34, 58
1, 421337, Note_on_c, 0, 63, 82
1, 421337, Note_on_c, 0, 51, 73
1, 421337, Note_on_c, 0, 39, 69
1, 421340, Control_c, 0, 64, 0
1, 421421, Control_c, 0, 64, 127
1, 421528, Note_on_c, 0, 39, 0
1, 421528, Note_on_c, 0, 27, 0
1, 421528, Note_on_c, 0, 31, 0
1, 421531, Note_on_c, 0, 34, 0
1, 421531, Note_on_c, 0, 39, 58
1, 421531, Note_on_c, 0, 46, 58
1, 421534, Note_on_c, 0, 51, 69
1, 421623, Note_on_c, 0, 55, 62
1, 421718, Note_on_c, 0, 55, 0
1, 421718, Note_on_c, 0, 51, 0
1, 421718, Note_on_c, 0, 63, 0
1, 421721, Note_on_c, 0, 58, 53
1, 421721, Note_on_c, 0, 63, 62
1, 421721, Note_on_c, 0, 51, 0
1, 421724, Note_on_c, 0, 46, 0
1, 421724, Note_on_c, 0, 39, 0
1, 421813, Note_on_c, 0, 63, 0
1, 421813, Note_on_c, 0, 58, 0
1, 421813, Note_on_c, 0, 67, 57
1, 421908, Note_on_c, 0, 67, 0
1, 421908, Note_on_c, 0, 75, 62
1, 421908, Note_on_c, 0, 70, 53
1, 422003, Note_on_c, 0, 70, 0
1, 422003, Note_on_c, 0, 75, 0
1, 422003, Note_on_c, 0, 79, 56
1, 422099, Note_on_c, 0, 79, 0
1, 422099, Note_on_c, 0, 87, 70
1, 422099, Note_on_c, 0, 82, 58
1, 422197, Note_on_c, 0, 82, 0
1, 422197, Note_on_c, 0, 87, 0
1, 422197, Note_on_c, 0, 79, 60
1, 422296, Note_on_c, 0, 79, 0
1, 422296, Note_on_c, 0, 87, 76
1, 422296, Note_on_c, 0, 82, 64
1, 422394, Note_on_c, 0, 82, 0
1, 422394, Note_on_c, 0, 87, 0
1, 422394, Note_on_c, 0, 91, 62
1, 422493, Note_on_c, 0, 91, 0
1, 422493, Note_on_c, 0, 99, 86
1, 422493, Note_on_c, 0, 94, 69
1, 422496, Note_on_c, 0, 63, 68
1, 422496, Note_on_c, 0, 67, 68
1, 422496, Note_on_c, 0, 73, 80
1, 422496, Control_c, 0, 64, 0
1, 422542, Control_c, 0, 64, 127
1, 422678, Note_on_c, 0, 94, 0
1, 422678, Note_on_c, 0, 99, 0
1, 422864, Note_on_c, 0, 73, 0
1, 422864, Note_on_c, 0, 67, 0
1, 422864, Note_on_c, 0, 63, 0
1, 422867, Note_on_c, 0, 68, 65
1, 422867, Note_on_c, 0, 72, 77
1, 422867, Control_c, 0, 64, 0
1, 422942, Control_c, 0, 64, 127
1, 422952, Note_on_c, 0, 75, 60
1, 423040, Note_on_c, 0, 75, 0
1, 423040, Note_on_c, 0, 87, 62
1, 423040, Note_on_c, 0, 80, 52
1, 423127, Note_on_c, 0, 80, 0
1, 423127, Note_on_c, 0, 87, 0
1, 423127, Note_on_c, 0, 87, 64
1, 423215, Note_on_c, 0, 87, 0
1, 423215, Note_on_c, 0, 99, 65
1, 423215, Note_on_c, 0, 92, 55
1, 423218, Note_on_c, 0, 72, 0
1, 423218, Note_on_c, 0, 68, 0
1, 423218, Note_on_c, 0, 67, 63
1, 423221, Note_on_c, 0, 70, 75
1, 423224, Control_c, 0, 64, 0
1, 423269, Control_c, 0, 64, 127
1, 423300, Note_on_c, 0, 92, 0
1, 423300, Note_on_c, 0, 99, 0
1, 423300, Note_on_c, 0, 87, 60
1, 423303, Note_on_c, 0, 70, 0
1, 423303, Note_on_c, 0, 67, 0
1, 423384, Note_on_c, 0, 87, 0
1, 423384, Note_on_c, 0, 99, 64
1, 423384, Note_on_c, 0, 92, 54
1, 423387, Note_on_c, 0, 65, 63
1, 423387, Note_on_c, 0, 68, 75
1, 423468, Note_on_c, 0, 92, 0
1, 423468, Note_on_c, 0, 99, 0
1, 423468, Note_on_c, 0, 87, 60
1, 423471, Note_on_c, 0, 68, 0
1, 423471, Note_on_c, 0, 65, 0
1, 423553, Note_on_c, 0, 87, 0
1, 423553, Note_on_c, 0, 63, 67
1, 423553, Note_on_c, 0, 67, 79
1, 423560, Control_c, 0, 64, 0
1, 423614, Control_c, 0, 64, 127
1, 423640, Note_on_c, 0, 70, 60
1, 423640, Note_on_c, 0, 67, 0
1, 423640, Note_on_c, 0, 63, 0
1, 423727, Note_on_c, 0, 70, 0
1, 423727, Note_on_c, 0, 94, 63
1, 423727, Note_on_c, 0, 87, 53
1, 423730, Note_on_c, 0, 58, 63
1, 423730, Note_on_c, 0, 65, 75
1, 423814, Note_on_c, 0, 87, 0
1, 423814, Note_on_c, 0, 94, 0
1, 423814, Note_on_c, 0, 82, 60
1, 423817, Note_on_c, 0, 65, 0
1, 423817, Note_on_c, 0, 58, 0
1, 423901, Note_on_c, 0, 82, 0
1, 423901, Note_on_c, 0, 94, 64
1, 423901, Note_on_c, 0, 87, 54
1, 423904, Note_on_c, 0, 55, 63
1, 423904, Note_on_c, 0, 63, 75
1, 423910, Control_c, 0, 64, 0
1, 423981, Control_c, 0, 64, 127
1, 423992, Note_on_c, 0, 87, 0
1, 423992, Note_on_c, 0, 94, 0
1, 423992, Note_on_c, 0, 82, 60
1, 423995, Note_on_c, 0, 63, 0
1, 423995, Note_on_c, 0, 55, 0
1, 424082, Note_on_c, 0, 82, 0
1, 424082, Note_on_c, 0, 94, 64
1, 424082, Note_on_c, 0, 87, 54
1, 424085, Note_on_c, 0, 63, 64
1, 424085, Note_on_c, 0, 67, 76
1, 424173, Note_on_c, 0, 87, 0
1, 424173, Note_on_c, 0, 94, 0
1, 424173, Note_on_c, 0, 82, 60
1, 424176, Note_on_c, 0, 67, 0
1, 424176, Note_on_c, 0, 63, 0
1, 424263, Note_on_c, 0, 82, 0
1, 424263, Note_on_c, 0, 65, 68
1, 424263, Note_on_c, 0, 68, 80
1, 424277, Control_c, 0, 64, 0
1, 424313, Control_c, 0, 64, 127
1, 424351, Note_on_c, 0, 70, 60
1, 424438, Note_on_c, 0, 70, 0
1, 424438, Note_on_c, 0, 94, 63
1, 424438, Note_on_c, 0, 86, 53
1, 424525, Note_on_c, 0, 86, 0
1, 424525, Note_on_c, 0, 94, 0
1, 424525, Note_on_c, 0, 82, 60
1, 424528, Note_on_c, 0, 68, 0
1, 424528, Note_on_c, 0, 65, 0
1, 424528, Note_on_c, 0, 64, 63
1, 424531, Note_on_c, 0, 67, 75
1, 424612, Note_on_c, 0, 82, 0
1, 424612, Note_on_c, 0, 94, 64
1, 424612, Note_on_c, 0, 86, 54
1, 424615, Note_on_c, 0, 67, 0
1, 424615, Note_on_c, 0, 64, 0
1, 424615, Note_on_c, 0, 65, 63
1, 424618, Note_on_c, 0, 68, 75
1, 424618, Control_c, 0, 64, 0
1, 424660, Control_c, 0, 64, 127
1, 424696, Note_on_c, 0, 86, 0
1, 424696, Note_on_c, 0, 94, 0
1, 424696, Note_on_c, 0, 82, 60
1, 424699, Note_on_c, 0, 68, 0
1, 424699, Note_on_c, 0, 65, 0
1, 424781, Note_on_c, 0, 82, 0
1, 424781, Note_on_c, 0, 94, 64
1, 424781, Note_on_c, 0, 86, 54
1, 424784, Note_on_c, 0, 66, 66
1, 424784, Note_on_c, 0, 69, 78
1, 424865, Note_on_c, 0, 86, 0
1, 424865, Note_on_c, 0, 94, 0
1, 424865, Note_on_c, 0, 82, 60
1, 424868, Note_on_c, 0, 69, 0
1, 424868, Note_on_c, 0, 66, 0
1, 424950, Note_on_c, 0, 82, 0
1, 424950, Note_on_c, 0, 67, 68
1, 424950, Note_on_c, 0, 70, 80
1, 424970, Control_c, 0, 64, 0
1, 425025, Control_c, 0, 64, 127
1, 425038, Note_on_c, 0, 70, 60
1, 425038, Note_on_c, 0, 70, 0
1, 425038, Note_on_c, 0, 67, 0
1, 425126, Note_on_c, 0, 70, 0
1, 425126, Note_on_c, 0, 94, 63
1, 425126, Note_on_c, 0, 87, 53
1, 425215, Note_on_c, 0, 87, 0
1, 425215, Note_on_c, 0, 94, 0
1, 425215, Note_on_c, 0, 82, 60
1, 425303, Note_on_c, 0, 82, 0
1, 425303, Note_on_c, 0, 94, 64
1, 425303, Note_on_c, 0, 87, 54
1, 425306, Note_on_c, 0, 63, 68
1, 425306, Note_on_c, 0, 67, 68
1, 425306, Note_on_c, 0, 73, 80
1, 425392, Note_on_c, 0, 87, 0
1, 425392, Note_on_c, 0, 94, 0
1, 425392, Note_on_c, 0, 82, 60
1, 425480, Note_on_c, 0, 82, 0
1, 425480, Note_on_c, 0, 94, 64
1, 425480, Note_on_c, 0, 87, 54
1, 425569, Note_on_c, 0, 87, 0
1, 425569, Note_on_c, 0, 94, 0
1, 425569, Note_on_c, 0, 82, 60
1, 425657, Note_on_c, 0, 82, 0
1, 425657, Note_on_c, 0, 73, 0
1, 425657, Note_on_c, 0, 67, 0
1, 425660, Note_on_c, 0, 63, 0
1, 425660, Note_on_c, 0, 68, 65
1, 425660, Note_on_c, 0, 72, 77
1, 425660, Control_c, 0, 64, 0
1, 425736, Control_c, 0, 64, 127
1, 425747, Note_on_c, 0, 75, 60
1, 425837, Note_on_c, 0, 75, 0
1, 425837, Note_on_c, 0, 87, 62
1, 425837, Note_on_c, 0, 80, 52
1, 425927, Note_on_c, 0, 80, 0
1, 425927, Note_on_c, 0, 87, 0
1, 425927, Note_on_c, 0, 87, 64
1, 426017, Note_on_c, 0, 87, 0
1, 426017, Note_on_c, 0, 99, 65
1, 426017, Note_on_c, 0, 92, 55
1, 426020, Note_on_c, 0, 72, 0
1, 426020, Note_on_c, 0, 68, 0
1, 426020, Note_on_c, 0, 67, 63
1, 426023, Note_on_c, 0, 70, 75
1, 426023, Control_c, 0, 64, 0
1, 426071, Control_c, 0, 64, 127
1, 426102, Note_on_c, 0, 92, 0
1, 426102, Note_on_c, 0, 99, 0
1, 426102, Note_on_c, 0, 87, 60
1, 426105, Note_on_c, 0, 70, 0
1, 426105, Note_on_c, 0, 67, 0
1, 426187, Note_on_c, 0, 87, 0
1, 426187, Note_on_c, 0, 99, 64
1, 426187, Note_on_c, 0, 92, 54
1, 426190, Note_on_c, 0, 65, 63
1, 426190, Note_on_c, 0, 68, 75
1, 426272, Note_on_c, 0, 92, 0
1, 426272, Note_on_c, 0, 99, 0
1, 426272, Note_on_c, 0, 87, 60
1, 426275, Note_on_c, 0, 68, 0
1, 426275, Note_on_c, 0, 65, 0
1, 426357, Note_on_c, 0, 87, 0
1, 426357, Note_on_c, 0, 63, 67
1, 426357, Note_on_c, 0, 67, 79
1, 426364, Control_c, 0, 64, 0
1, 426419, Control_c, 0, 64, 127
1, 426445, Note_on_c, 0, 70, 60
1, 426445, Note_on_c, 0, 67, 0
1, 426445, Note_on_c, 0, 63, 0
1, 426534, Note_on_c, 0, 70, 0
1, 426534, Note_on_c, 0, 94, 63
1, 426534, Note_on_c, 0, 87, 53
1, 426537, Note_on_c, 0, 58, 63
1, 426537, Note_on_c, 0, 65, 75
1, 426622, Note_on_c, 0, 87, 0
1, 426622, Note_on_c, 0, 94, 0
1, 426622, Note_on_c, 0, 82, 60
1, 426625, Note_on_c, 0, 65, 0
1, 426625, Note_on_c, 0, 58, 0
1, 426711, Note_on_c, 0, 82, 0
1, 426711, Note_on_c, 0, 94, 64
1, 426711, Note_on_c, 0, 87, 54
1, 426714, Note_on_c, 0, 55, 63
1, 426714, Note_on_c, 0, 63, 75
1, 426720, Control_c, 0, 64, 0
1, 426791, Control_c, 0, 64, 127
1, 426801, Note_on_c, 0, 87, 0
1, 426801, Note_on_c, 0, 94, 0
1, 426801, Note_on_c, 0, 82, 60
1, 426804, Note_on_c, 0, 63, 0
1, 426804, Note_on_c, 0, 55, 0
1, 426892, Note_on_c, 0, 82, 0
1, 426892, Note_on_c, 0, 94, 64
1, 426892, Note_on_c, 0, 87, 54
1, 426895, Note_on_c, 0, 63, 64
1, 426895, Note_on_c, 0, 67, 76
1, 426982, Note_on_c, 0, 87, 0
1, 426982, Note_on_c, 0, 94, 0
1, 426982, Note_on_c, 0, 82, 60
1, 426985, Note_on_c, 0, 67, 0
1, 426985, Note_on_c, 0, 63, 0
1, 427073, Note_on_c, 0, 82, 0
1, 427073, Note_on_c, 0, 65, 68
1, 427073, Note_on_c, 0, 68, 80
1, 427086, Control_c, 0, 64, 0
1, 427122, Control_c, 0, 64, 127
1, 427160, Note_on_c, 0, 70, 60
1, 427247, Note_on_c, 0, 70, 0
1, 427247, Note_on_c, 0, 94, 63
1, 427247, Note_on_c, 0, 86, 53
1, 427334, Note_on_c, 0, 86, 0
1, 427334, Note_on_c, 0, 94, 0
1, 427334, Note_on_c, 0, 82, 60
1, 427337, Note_on_c, 0, 68, 0
1, 427337, Note_on_c, 0, 65, 0
1, 427337, Note_on_c, 0, 64, 63
1, 427340, Note_on_c, 0, 67, 75
1, 427421, Note_on_c, 0, 82, 0
1, 427421, Note_on_c, 0, 94, 64
1, 427421, Note_on_c, 0, 86, 54
1, 427424, Note_on_c, 0, 67, 0
1, 427424, Note_on_c, 0, 64, 0
1, 427424, Note_on_c, 0, 65, 63
1, 427427, Note_on_c, 0, 68, 75
1, 427430, Control_c, 0, 64, 0
1, 427469, Control_c, 0, 64, 127
1, 427506, Note_on_c, 0, 86, 0
1, 427506, Note_on_c, 0, 94, 0
1, 427506, Note_on_c, 0, 82, 60
1, 427509, Note_on_c, 0, 68, 0
1, 427509, Note_on_c, 0, 65, 0
1, 427591, Note_on_c, 0, 82, 0
1, 427591, Note_on_c, 0, 94, 64
1, 427591, Note_on_c, 0, 86, 54
1, 427594, Note_on_c, 0, 58, 66
1, 427594, Note_on_c, 0, 65, 78
1, 427677, Note_on_c, 0, 86, 0
1, 427677, Note_on_c, 0, 94, 0
1, 427677, Note_on_c, 0, 82, 60
1, 427680, Note_on_c, 0, 65, 0
1, 427680, Note_on_c, 0, 58, 0
1, 427762, Note_on_c, 0, 82, 0
1, 427762, Note_on_c, 0, 87, 53
1, 427762, Note_on_c, 0, 94, 63
1, 427765, Note_on_c, 0, 55, 68
1, 427765, Note_on_c, 0, 63, 80
1, 427778, Control_c, 0, 64, 0
1, 427838, Control_c, 0, 64, 127
1, 427850, Note_on_c, 0, 94, 0
1, 427850, Note_on_c, 0, 87, 0
1, 427850, Note_on_c, 0, 63, 0
1, 427853, Note_on_c, 0, 55, 0
1, 427980, Control_c, 0, 64, 0
1, 428115, Note_on_c, 0, 82, 75
1, 428115, Note_on_c, 0, 39, 65
1, 428115, Note_on_c, 0, 51, 77
1, 428123, Control_c, 0, 64, 127
1, 428202, Note_on_c, 0, 82, 0
1, 428202, Note_on_c, 0, 97, 60
1, 428288, Note_on_c, 0, 97, 0
1, 428288, Note_on_c, 0, 87, 67
1, 428288, Note_on_c, 0, 51, 0
1, 428291, Note_on_c, 0, 39, 0
1, 428291, Note_on_c, 0, 43, 61
1, 428291, Note_on_c, 0, 55, 72
1, 428375, Note_on_c, 0, 87, 0
1, 428375, Note_on_c, 0, 97, 60
1, 428461, Note_on_c, 0, 97, 0
1, 428461, Note_on_c, 0, 80, 72
1, 428461, Note_on_c, 0, 55, 0
1, 428464, Note_on_c, 0, 43, 0
1, 428464, Note_on_c, 0, 44, 68
1, 428464, Note_on_c, 0, 56, 80
1, 428472, Control_c, 0, 64, 0
1, 428497, Control_c, 0, 64, 127
1, 428547, Note_on_c, 0, 80, 0
1, 428547, Note_on_c, 0, 96, 57
1, 428632, Note_on_c, 0, 96, 0
1, 428632, Note_on_c, 0, 87, 57
1, 428632, Note_on_c, 0, 56, 0
1, 428635, Note_on_c, 0, 44, 0
1, 428635, Note_on_c, 0, 48, 62
1, 428635, Note_on_c, 0, 60, 73
1, 428718, Note_on_c, 0, 87, 0
1, 428718, Note_on_c, 0, 96, 57
1, 428804, Note_on_c, 0, 96, 0
1, 428804, Note_on_c, 0, 79, 69
1, 428804, Note_on_c, 0, 60, 0
1, 428807, Note_on_c, 0, 48, 0
1, 428807, Note_on_c, 0, 51, 62
1, 428807, Note_on_c, 0, 63, 73
1, 428818, Control_c, 0, 64, 0
1, 428851, Control_c, 0, 64, 127
1, 428887, Note_on_c, 0, 79, 0
1, 428887, Note_on_c, 0, 94, 56
1, 428969, Note_on_c, 0, 94, 0
1, 428969, Note_on_c, 0, 77, 67
1, 428969, Note_on_c, 0, 63, 0
1, 428972, Note_on_c, 0, 51, 0
1, 428972, Note_on_c, 0, 56, 62
1, 428972, Note_on_c, 0, 68, 73
1, 429052, Note_on_c, 0, 77, 0
1, 429052, Note_on_c, 0, 92, 56
1, 429137, Note_on_c, 0, 92, 0
1, 429137, Note_on_c, 0, 75, 67
1, 429137, Note_on_c, 0, 68, 0
1, 429140, Note_on_c, 0, 56, 0
1, 429140, Note_on_c, 0, 58, 62
1, 429140, Note_on_c, 0, 70, 73
1, 429154, Control_c, 0, 64, 0
1, 429202, Control_c, 0, 64, 127
1, 429223, Note_on_c, 0, 75, 0
1, 429223, Note_on_c, 0, 91, 56
1, 429308, Note_on_c, 0, 91, 0
1, 429308, Note_on_c, 0, 74, 66
1, 429393, Note_on_c, 0, 74, 0
1, 429393, Note_on_c, 0, 90, 56
1, 429478, Note_on_c, 0, 90, 0
1, 429478, Note_on_c, 0, 75, 67
1, 429478, Note_on_c, 0, 70, 0
1, 429481, Note_on_c, 0, 58, 0
1, 429481, Note_on_c, 0, 39, 65
1, 429481, Note_on_c, 0, 51, 77
1, 429490, Control_c, 0, 64, 0
1, 429531, Control_c, 0, 64, 127
1, 429565, Note_on_c, 0, 75, 0
1, 429565, Note_on_c, 0, 91, 56
1, 429652, Note_on_c, 0, 91, 0
1, 429652, Note_on_c, 0, 76, 68
1, 429652, Note_on_c, 0, 51, 0
1, 429655, Note_on_c, 0, 39, 0
1, 429655, Note_on_c, 0, 43, 61
1, 429655, Note_on_c, 0, 55, 72
1, 429739, Note_on_c, 0, 76, 0
1, 429739, Note_on_c, 0, 91, 57
1, 429826, Note_on_c, 0, 91, 0
1, 429826, Note_on_c, 0, 77, 67
1, 429826, Note_on_c, 0, 55, 0
1, 429829, Note_on_c, 0, 43, 0
1, 429829, Note_on_c, 0, 46, 68
1, 429829, Note_on_c, 0, 58, 80
1, 429837, Control_c, 0, 64, 0
1, 429871, Control_c, 0, 64, 127
1, 429912, Note_on_c, 0, 77, 0
1, 429912, Note_on_c, 0, 92, 60
1, 429999, Note_on_c, 0, 92, 0
1, 429999, Note_on_c, 0, 76, 66
1, 429999, Note_on_c, 0, 58, 0
1, 430002, Note_on_c, 0, 46, 0
1, 430002, Note_on_c, 0, 50, 58
1, 430002, Note_on_c, 0, 62, 69
1, 430085, Note_on_c, 0, 76, 0
1, 430085, Note_on_c, 0, 91, 60
1, 430172, Note_on_c, 0, 91, 0
1, 430172, Note_on_c, 0, 77, 67
1, 430172, Note_on_c, 0, 62, 0
1, 430175, Note_on_c, 0, 50, 0
1, 430175, Note_on_c, 0, 53, 62
1, 430175, Note_on_c, 0, 65, 73
1, 430190, Control_c, 0, 64, 0
1, 430227, Control_c, 0, 64, 127
1, 430254, Note_on_c, 0, 77, 0
1, 430254, Note_on_c, 0, 92, 57
1, 430337, Note_on_c, 0, 92, 0
1, 430337, Note_on_c, 0, 78, 65
1, 430337, Note_on_c, 0, 65, 0
1, 430340, Note_on_c, 0, 53, 0
1, 430340, Note_on_c, 0, 61, 65
1, 430340, Note_on_c, 0, 57, 65
1, 430343, Note_on_c, 0, 69, 77
1, 430419, Note_on_c, 0, 78, 0
1, 430419, Note_on_c, 0, 93, 57
1, 430506, Note_on_c, 0, 93, 0
1, 430506, Note_on_c, 0, 79, 70
1, 430506, Note_on_c, 0, 69, 0
1, 430509, Note_on_c, 0, 57, 0
1, 430509, Note_on_c, 0, 61, 0
1, 430509, Note_on_c, 0, 67, 69
1, 430512, Note_on_c, 0, 58, 69
1, 430512, Note_on_c, 0, 70, 82
1, 430520, Control_c, 0, 64, 0
1, 430567, Control_c, 0, 64, 127
1, 430592, Note_on_c, 0, 79, 0
1, 430592, Note_on_c, 0, 94, 58
1, 430677, Note_on_c, 0, 94, 0
1, 430677, Note_on_c, 0, 87, 58
1, 430763, Note_on_c, 0, 87, 0
1, 430763, Note_on_c, 0, 94, 58
1, 430850, Note_on_c, 0, 94, 0
1, 430850, Note_on_c, 0, 82, 75
1, 430850, Note_on_c, 0, 70, 0
1, 430853, Note_on_c, 0, 58, 0
1, 430853, Note_on_c, 0, 67, 0
1, 430853, Note_on_c, 0, 39, 65
1, 430856, Note_on_c, 0, 51, 77
1, 430867, Control_c, 0, 64, 0
1, 430905, Control_c, 0, 64, 127
1, 430939, Note_on_c, 0, 82, 0
1, 430939, Note_on_c, 0, 97, 60
1, 431027, Note_on_c, 0, 97, 0
1, 431027, Note_on_c, 0, 87, 67
1, 431027, Note_on_c, 0, 51, 0
1, 431030, Note_on_c, 0, 39, 0
1, 431030, Note_on_c, 0, 43, 61
1, 431030, Note_on_c, 0, 55, 72
1, 431115, Note_on_c, 0, 87, 0
1, 431115, Note_on_c, 0, 97, 60
1, 431204, Note_on_c, 0, 97, 0
1, 431204, Note_on_c, 0, 80, 72
1, 431204, Note_on_c, 0, 55, 0
1, 431207, Note_on_c, 0, 43, 0
1, 431207, Note_on_c, 0, 44, 68
1, 431207, Note_on_c, 0, 56, 80
1, 431215, Control_c, 0, 64, 0
1, 431240, Control_c, 0, 64, 127
1, 431290, Note_on_c, 0, 80, 0
1, 431290, Note_on_c, 0, 96, 57
1, 431375, Note_on_c, 0, 96, 0
1, 431375, Note_on_c, 0, 87, 57
1, 431375, Note_on_c, 0, 56, 0
1, 431378, Note_on_c, 0, 44, 0
1, 431378, Note_on_c, 0, 48, 62
1, 431378, Note_on_c, 0, 60, 73
1, 431461, Note_on_c, 0, 87, 0
1, 431461, Note_on_c, 0, 96, 57
1, 431547, Note_on_c, 0, 96, 0
1, 431547, Note_on_c, 0, 79, 69
1, 431547, Note_on_c, 0, 60, 0
1, 431550, Note_on_c, 0, 48, 0
1, 431550, Note_on_c, 0, 51, 62
1, 431550, Note_on_c, 0, 63, 73
1, 431561, Control_c, 0, 64, 0
1, 431609, Control_c, 0, 64, 127
1, 431629, Note_on_c, 0, 79, 0
1, 431629, Note_on_c, 0, 94, 56
1, 431712, Note_on_c, 0, 94, 0
1, 431712, Note_on_c, 0, 77, 67
1, 431712, Note_on_c, 0, 63, 0
1, 431715, Note_on_c, 0, 51, 0
1, 431715, Note_on_c, 0, 56, 62
1, 431715, Note_on_c, 0, 68, 73
1, 431795, Note_on_c, 0, 77, 0
1, 431795, Note_on_c, 0, 92, 56
1, 431877, Note_on_c, 0, 92, 0
1, 431877, Note_on_c, 0, 75, 67
1, 431877, Note_on_c, 0, 68, 0
1, 431880, Note_on_c, 0, 56, 0
1, 431880, Note_on_c, 0, 58, 62
1, 431880, Note_on_c, 0, 70, 73
1, 431894, Control_c, 0, 64, 0
1, 431942, Control_c, 0, 64, 127
1, 431962, Note_on_c, 0, 75, 0
1, 431962, Note_on_c, 0, 91, 56
1, 432047, Note_on_c, 0, 91, 0
1, 432047, Note_on_c, 0, 74, 66
1, 432132, Note_on_c, 0, 74, 0
1, 432132, Note_on_c, 0, 90, 56
1, 432218, Note_on_c, 0, 90, 0
1, 432218, Note_on_c, 0, 75, 67
1, 432218, Note_on_c, 0, 70, 0
1, 432221, Note_on_c, 0, 58, 0
1, 432221, Note_on_c, 0, 39, 65
1, 432221, Note_on_c, 0, 51, 77
1, 432230, Control_c, 0, 64, 0
1, 432271, Control_c, 0, 64, 127
1, 432305, Note_on_c, 0, 75, 0
1, 432305, Note_on_c, 0, 91, 56
1, 432392, Note_on_c, 0, 91, 0
1, 432392, Note_on_c, 0, 76, 68
1, 432392, Note_on_c, 0, 51, 0
1, 432395, Note_on_c, 0, 39, 0
1, 432395, Note_on_c, 0, 43, 61
1, 432395, Note_on_c, 0, 55, 72
1, 432479, Note_on_c, 0, 76, 0
1, 432479, Note_on_c, 0, 91, 57
1, 432566, Note_on_c, 0, 91, 0
1, 432566, Note_on_c, 0, 77, 67
1, 432566, Note_on_c, 0, 55, 0
1, 432569, Note_on_c, 0, 43, 0
1, 432569, Note_on_c, 0, 46, 68
1, 432569, Note_on_c, 0, 58, 80
1, 432577, Control_c, 0, 64, 0
1, 432611, Control_c, 0, 64, 127
1, 432652, Note_on_c, 0, 77, 0
1, 432652, Note_on_c, 0, 92, 60
1, 432739, Note_on_c, 0, 92, 0
1, 432739, Note_on_c, 0, 76, 66
1, 432739, Note_on_c, 0, 58, 0
1, 432742, Note_on_c, 0, 46, 0
1, 432742, Note_on_c, 0, 50, 58
1, 432742, Note_on_c, 0, 62, 69
1, 432825, Note_on_c, 0, 76, 0
1, 432825, Note_on_c, 0, 91, 60
1, 432911, Note_on_c, 0, 91, 0
1, 432911, Note_on_c, 0, 77, 67
1, 432911, Note_on_c, 0, 62, 0
1, 432914, Note_on_c, 0, 50, 0
1, 432914, Note_on_c, 0, 53, 62
1, 432914, Note_on_c, 0, 65, 73
1, 432929, Control_c, 0, 64, 0
1, 432967, Control_c, 0, 64, 127
1, 432994, Note_on_c, 0, 77, 0
1, 432994, Note_on_c, 0, 92, 57
1, 433077, Note_on_c, 0, 92, 0
1, 433077, Note_on_c, 0, 78, 65
1, 433077, Note_on_c, 0, 65, 0
1, 433080, Note_on_c, 0, 53, 0
1, 433080, Note_on_c, 0, 61, 65
1, 433080, Note_on_c, 0, 57, 65
1, 433083, Note_on_c, 0, 69, 77
1, 433159, Note_on_c, 0, 78, 0
1, 433159, Note_on_c, 0, 93, 57
1, 433242, Note_on_c, 0, 93, 0
1, 433242, Note_on_c, 0, 79, 70
1, 433242, Note_on_c, 0, 69, 0
1, 433245, Note_on_c, 0, 57, 0
1, 433245, Note_on_c, 0, 61, 0
1, 433245, Note_on_c, 0, 67, 69
1, 433248, Note_on_c, 0, 58, 69
1, 433248, Note_on_c, 0, 70, 82
1, 433256, Control_c, 0, 64, 0
1, 433303, Control_c, 0, 64, 127
1, 433328, Note_on_c, 0, 79, 0
1, 433328, Note_on_c, 0, 94, 58
1, 433413, Note_on_c, 0, 94, 0
1, 433413, Note_on_c, 0, 87, 58
1, 433499, Note_on_c, 0, 87, 0
1, 433499, Note_on_c, 0, 94, 58
1, 433585, Note_on_c, 0, 94, 0
1, 433585, Note_on_c, 0, 82, 75
1, 433585, Note_on_c, 0, 70, 0
1, 433588, Note_on_c, 0, 58, 0
1, 433588, Note_on_c, 0, 67, 0
1, 433588, Note_on_c, 0, 39, 65
1, 433591, Note_on_c, 0, 51, 77
1, 433601, Control_c, 0, 64, 0
1, 433638, Control_c, 0, 64, 127
1, 433672, Note_on_c, 0, 82, 0
1, 433672, Note_on_c, 0, 97, 60
1, 433759, Note_on_c, 0, 97, 0
1, 433759, Note_on_c, 0, 87, 67
1, 433759, Note_on_c, 0, 51, 0
1, 433762, Note_on_c, 0, 39, 0
1, 433762, Note_on_c, 0, 43, 61
1, 433762, Note_on_c, 0, 55, 72
1, 433846, Note_on_c, 0, 87, 0
1, 433846, Note_on_c, 0, 97, 60
1, 433933, Note_on_c, 0, 97, 0
1, 433933, Note_on_c, 0, 80, 72
1, 433933, Note_on_c, 0, 55, 0
1, 433936, Note_on_c, 0, 43, 0
1, 433936, Note_on_c, 0, 44, 68
1, 433936, Note_on_c, 0, 56, 80
1, 433945, Control_c, 0, 64, 0
1, 433970, Control_c, 0, 64, 127
1, 434019, Note_on_c, 0, 80, 0
1, 434019, Note_on_c, 0, 96, 57
1, 434106, Note_on_c, 0, 96, 0
1, 434106, Note_on_c, 0, 87, 57
1, 434106, Note_on_c, 0, 56, 0
1, 434109, Note_on_c, 0, 44, 0
1, 434109, Note_on_c, 0, 48, 62
1, 434109, Note_on_c, 0, 60, 73
1, 434192, Note_on_c, 0, 87, 0
1, 434192, Note_on_c, 0, 96, 57
1, 434279, Note_on_c, 0, 96, 0
1, 434279, Note_on_c, 0, 79, 69
1, 434279, Note_on_c, 0, 60, 0
1, 434282, Note_on_c, 0, 48, 0
1, 434282, Note_on_c, 0, 51, 62
1, 434282, Note_on_c, 0, 63, 73
1, 434293, Control_c, 0, 64, 0
1, 434342, Control_c, 0, 64, 127
1, 434362, Note_on_c, 0, 79, 0
1, 434362, Note_on_c, 0, 94, 56
1, 434445, Note_on_c, 0, 94, 0
1, 434445, Note_on_c, 0, 77, 67
1, 434445, Note_on_c, 0, 63, 0
1, 434448, Note_on_c, 0, 51, 0
1, 434448, Note_on_c, 0, 56, 62
1, 434448, Note_on_c, 0, 68, 73
1, 434528, Note_on_c, 0, 77, 0
1, 434528, Note_on_c, 0, 92, 56
1, 434611, Note_on_c, 0, 92, 0
1, 434611, Note_on_c, 0, 75, 67
1, 434611, Note_on_c, 0, 68, 0
1, 434614, Note_on_c, 0, 56, 0
1, 434614, Note_on_c, 0, 58, 62
1, 434614, Note_on_c, 0, 70, 73
1, 434629, Control_c, 0, 64, 0
1, 434677, Control_c, 0, 64, 127
1, 434698, Note_on_c, 0, 75, 0
1, 434698, Note_on_c, 0, 91, 56
1, 434784, Note_on_c, 0, 91, 0
1, 434784, Note_on_c, 0, 74, 66
1, 434871, Note_on_c, 0, 74, 0
1, 434871, Note_on_c, 0, 90, 56
1, 434957, Note_on_c, 0, 90, 0
1, 434957, Note_on_c, 0, 75, 67
1, 434957, Note_on_c, 0, 70, 0
1, 434960, Note_on_c, 0, 58, 0
1, 434969, Control_c, 0, 64, 0
1, 435008, Control_c, 0, 64, 127
1, 435040, Note_on_c, 0, 75, 0
1, 435040, Note_on_c, 0, 91, 56
1, 435123, Note_on_c, 0, 91, 0
1, 435123, Note_on_c, 0, 63, 54
1, 435123, Note_on_c, 0, 75, 64
1, 435207, Note_on_c, 0, 79, 48
1, 435207, Note_on_c, 0, 91, 57
1, 435290, Note_on_c, 0, 91, 0
1, 435290, Note_on_c, 0, 79, 0
1, 435290, Note_on_c, 0, 75, 0
1, 435293, Note_on_c, 0, 63, 0
1, 435293, Note_on_c, 0, 62, 51
1, 435293, Note_on_c, 0, 74, 72
1, 435300, Control_c, 0, 64, 0
1, 435331, Control_c, 0, 64, 127
1, 435369, Note_on_c, 0, 80, 51
1, 435369, Note_on_c, 0, 92, 61
1, 435369, Note_on_c, 0, 74, 0
1, 435372, Note_on_c, 0, 62, 0
1, 435448, Note_on_c, 0, 92, 0
1, 435448, Note_on_c, 0, 80, 0
1, 435448, Note_on_c, 0, 65, 44
1, 435451, Note_on_c, 0, 77, 62
1, 435531, Note_on_c, 0, 79, 49
1, 435531, Note_on_c, 0, 91, 58
1, 435531, Note_on_c, 0, 77, 0
1, 435534, Note_on_c, 0, 65, 0
1, 435613, Note_on_c, 0, 91, 0
1, 435613, Note_on_c, 0, 79, 0
1, 435613, Note_on_c, 0, 61, 59
1, 435616, Note_on_c, 0, 73, 70
1, 435622, Control_c, 0, 64, 0
1, 435659, Control_c, 0, 64, 127
1, 435692, Note_on_c, 0, 80, 50
1, 435692, Note_on_c, 0, 92, 59
1, 435692, Note_on_c, 0, 73, 0
1, 435695, Note_on_c, 0, 61, 0
1, 435771, Note_on_c, 0, 92, 0
1, 435771, Note_on_c, 0, 80, 0
1, 435771, Note_on_c, 0, 65, 55
1, 435774, Note_on_c, 0, 77, 65
1, 435854, Note_on_c, 0, 79, 46
1, 435854, Note_on_c, 0, 91, 55
1, 435854, Note_on_c, 0, 77, 0
1, 435857, Note_on_c, 0, 65, 0
1, 435936, Note_on_c, 0, 91, 0
1, 435936, Note_on_c, 0, 79, 0
1, 435936, Note_on_c, 0, 60, 51
1, 435939, Note_on_c, 0, 72, 72
1, 435939, Control_c, 0, 64, 0
1, 435977, Control_c, 0, 64, 127
1, 436014, Note_on_c, 0, 80, 50
1, 436014, Note_on_c, 0, 92, 59
1, 436014, Note_on_c, 0, 72, 0
1, 436017, Note_on_c, 0, 60, 0
1, 436093, Note_on_c, 0, 92, 0
1, 436093, Note_on_c, 0, 80, 0
1, 436093, Note_on_c, 0, 65, 44
1, 436096, Note_on_c, 0, 77, 62
1, 436175, Note_on_c, 0, 79, 47
1, 436175, Note_on_c, 0, 91, 56
1, 436175, Note_on_c, 0, 77, 0
1, 436178, Note_on_c, 0, 65, 0
1, 436257, Note_on_c, 0, 91, 0
1, 436257, Note_on_c, 0, 79, 0
1, 436257, Note_on_c, 0, 59, 59
1, 436260, Note_on_c, 0, 71, 70
1, 436266, Control_c, 0, 64, 0
1, 436303, Control_c, 0, 64, 127
1, 436335, Note_on_c, 0, 80, 49
1, 436335, Note_on_c, 0, 92, 58
1, 436335, Note_on_c, 0, 71, 0
1, 436338, Note_on_c, 0, 59, 0
1, 436414, Note_on_c, 0, 92, 0
1, 436414, Note_on_c, 0, 80, 0
1, 436414, Note_on_c, 0, 62, 55
1, 436417, Note_on_c, 0, 74, 65
1, 436494, Note_on_c, 0, 82, 47
1, 436494, Note_on_c, 0, 79, 47
1, 436494, Note_on_c, 0, 91, 56
1, 436497, Note_on_c, 0, 74, 0
1, 436497, Note_on_c, 0, 62, 0
1, 436574, Note_on_c, 0, 91, 0
1, 436574, Note_on_c, 0, 79, 0
1, 436574, Note_on_c, 0, 82, 0
1, 436577, Note_on_c, 0, 56, 61
1, 436577, Note_on_c, 0, 68, 72
1, 436584, Control_c, 0, 64, 0
1, 436615, Control_c, 0, 64, 127
1, 436651, Note_on_c, 0, 83, 50
1, 436651, Note_on_c, 0, 80, 50
1, 436651, Note_on_c, 0, 92, 59
1, 436654, Note_on_c, 0, 68, 0
1, 436654, Note_on_c, 0, 56, 0
1, 436728, Note_on_c, 0, 92, 0
1, 436728, Note_on_c, 0, 80, 0
1, 436728, Note_on_c, 0, 83, 0
1, 436731, Note_on_c, 0, 59, 52
1, 436731, Note_on_c, 0, 71, 62
1, 436807, Note_on_c, 0, 82, 45
1, 436807, Note_on_c, 0, 79, 45
1, 436807, Note_on_c, 0, 91, 54
1, 436810, Note_on_c, 0, 71, 0
1, 436810, Note_on_c, 0, 59, 0
1, 436885, Note_on_c, 0, 91, 0
1, 436885, Note_on_c, 0, 79, 0
1, 436885, Note_on_c, 0, 82, 0
1, 436888, Note_on_c, 0, 54, 71
1, 436888, Note_on_c, 0, 66, 71
1, 436894, Control_c, 0, 64, 0
1, 436929, Control_c, 0, 64, 127
1, 436961, Note_on_c, 0, 83, 60
1, 436961, Note_on_c, 0, 80, 51
1, 436961, Note_on_c, 0, 92, 60
1, 436964, Note_on_c, 0, 66, 0
1, 436964, Note_on_c, 0, 54, 0
1, 437036, Note_on_c, 0, 92, 0
1, 437036, Note_on_c, 0, 80, 0
1, 437036, Note_on_c, 0, 83, 0
1, 437039, Note_on_c, 0, 59, 66
1, 437039, Note_on_c, 0, 71, 66
1, 437113, Note_on_c, 0, 82, 48
1, 437113, Note_on_c, 0, 79, 48
1, 437113, Note_on_c, 0, 91, 57
1, 437116, Note_on_c, 0, 71, 0
1, 437116, Note_on_c, 0, 59, 0
1, 437191, Note_on_c, 0, 91, 0
1, 437191, Note_on_c, 0, 79, 0
1, 437191, Note_on_c, 0, 82, 0
1, 437194, Note_on_c, 0, 52, 63
1, 437194, Note_on_c, 0, 64, 74
1, 437194, Control_c, 0, 64, 0
1, 437230, Control_c, 0, 64, 127
1, 437267, Note_on_c, 0, 83, 63
1, 437267, Note_on_c, 0, 80, 53
1, 437267, Note_on_c, 0, 92, 63
1, 437270, Note_on_c, 0, 64, 0
1, 437270, Note_on_c, 0, 52, 0
1, 437343, Note_on_c, 0, 92, 0
1, 437343, Note_on_c, 0, 80, 0
1, 437343, Note_on_c, 0, 83, 0
1, 437346, Note_on_c, 0, 56, 54
1, 437346, Note_on_c, 0, 68, 65
1, 437421, Note_on_c, 0, 82, 51
1, 437421, Note_on_c, 0, 79, 51
1, 437421, Note_on_c, 0, 91, 60
1, 437424, Note_on_c, 0, 68, 0
1, 437424, Note_on_c, 0, 56, 0
1, 437499, Note_on_c, 0, 91, 0
1, 437499, Note_on_c, 0, 79, 0
1, 437499, Note_on_c, 0, 82, 0
1, 437502, Note_on_c, 0, 51, 74
1, 437502, Note_on_c, 0, 63, 74
1, 437508, Control_c, 0, 64, 0
1, 437543, Control_c, 0, 64, 127
1, 437575, Note_on_c, 0, 83, 54
1, 437575, Note_on_c, 0, 80, 54
1, 437575, Note_on_c, 0, 92, 63
1, 437578, Note_on_c, 0, 63, 0
1, 437578, Note_on_c, 0, 51, 0
1, 437650, Note_on_c, 0, 92, 0
1, 437650, Note_on_c, 0, 80, 0
1, 437650, Note_on_c, 0, 83, 0
1, 437653, Note_on_c, 0, 56, 69
1, 437653, Note_on_c, 0, 68, 69
1, 437727, Note_on_c, 0, 88, 52
1, 437727, Note_on_c, 0, 79, 52
1, 437727, Note_on_c, 0, 91, 62
1, 437730, Note_on_c, 0, 68, 0
1, 437730, Note_on_c, 0, 56, 0
1, 437805, Note_on_c, 0, 91, 0
1, 437805, Note_on_c, 0, 79, 0
1, 437805, Note_on_c, 0, 88, 0
1, 437808, Note_on_c, 0, 52, 65
1, 437808, Note_on_c, 0, 64, 77
1, 437808, Control_c, 0, 64, 0
1, 437844, Control_c, 0, 64, 127
1, 437880, Note_on_c, 0, 89, 65
1, 437880, Note_on_c, 0, 80, 55
1, 437880, Note_on_c, 0, 92, 65
1, 437883, Note_on_c, 0, 64, 0
1, 437883, Note_on_c, 0, 52, 0
1, 437956, Note_on_c, 0, 92, 0
1, 437956, Note_on_c, 0, 80, 0
1, 437956, Note_on_c, 0, 89, 0
1, 437959, Note_on_c, 0, 56, 56
1, 437959, Note_on_c, 0, 68, 67
1, 438033, Note_on_c, 0, 88, 53
1, 438033, Note_on_c, 0, 79, 53
1, 438033, Note_on_c, 0, 91, 63
1, 438036, Note_on_c, 0, 68, 0
1, 438036, Note_on_c, 0, 56, 0
1, 438110, Note_on_c, 0, 91, 0
1, 438110, Note_on_c, 0, 79, 0
1, 438110, Note_on_c, 0, 88, 0
1, 438113, Note_on_c, 0, 48, 77
1, 438113, Note_on_c, 0, 60, 77
1, 438119, Control_c, 0, 64, 0
1, 438154, Control_c, 0, 64, 127
1, 438185, Note_on_c, 0, 89, 56
1, 438185, Note_on_c, 0, 80, 56
1, 438185, Note_on_c, 0, 92, 66
1, 438188, Note_on_c, 0, 60, 0
1, 438188, Note_on_c, 0, 48, 0
1, 438259, Note_on_c, 0, 92, 0
1, 438259, Note_on_c, 0, 80, 0
1, 438259, Note_on_c, 0, 89, 0
1, 438262, Note_on_c, 0, 56, 72
1, 438262, Note_on_c, 0, 68, 72
1, 438336, Note_on_c, 0, 88, 54
1, 438336, Note_on_c, 0, 79, 54
1, 438336, Note_on_c, 0, 91, 64
1, 438339, Note_on_c, 0, 68, 0
1, 438339, Note_on_c, 0, 56, 0
1, 438410, Note_on_c, 0, 91, 0
1, 438410, Note_on_c, 0, 79, 0
1, 438410, Note_on_c, 0, 88, 0
1, 438413, Note_on_c, 0, 47, 68
1, 438413, Note_on_c, 0, 59, 80
1, 438413, Control_c, 0, 64, 0
1, 438449, Control_c, 0, 64, 127
1, 438483, Note_on_c, 0, 89, 68
1, 438483, Note_on_c, 0, 80, 57
1, 438483, Note_on_c, 0, 92, 68
1, 438486, Note_on_c, 0, 59, 0
1, 438486, Note_on_c, 0, 47, 0
1, 438557, Note_on_c, 0, 92, 0
1, 438557, Note_on_c, 0, 80, 0
1, 438557, Note_on_c, 0, 89, 0
1, 438560, Note_on_c, 0, 50, 58
1, 438560, Note_on_c, 0, 62, 70
1, 438632, Note_on_c, 0, 88, 55
1, 438632, Note_on_c, 0, 79, 55
1, 438632, Note_on_c, 0, 91, 65
1, 438635, Note_on_c, 0, 62, 0
1, 438635, Note_on_c, 0, 50, 0
1, 438708, Note_on_c, 0, 91, 0
1, 438708, Note_on_c, 0, 79, 0
1, 438708, Note_on_c, 0, 88, 0
1, 438711, Note_on_c, 0, 44, 79
1, 438711, Note_on_c, 0, 56, 79
1, 438717, Control_c, 0, 64, 0
1, 438751, Control_c, 0, 64, 127
1, 438781, Note_on_c, 0, 89, 58
1, 438781, Note_on_c, 0, 80, 58
1, 438781, Note_on_c, 0, 92, 68
1, 438784, Note_on_c, 0, 56, 0
1, 438784, Note_on_c, 0, 44, 0
1, 438855, Note_on_c, 0, 92, 0
1, 438855, Note_on_c, 0, 80, 0
1, 438855, Note_on_c, 0, 89, 0
1, 438858, Note_on_c, 0, 47, 74
1, 438858, Note_on_c, 0, 59, 74
1, 438930, Note_on_c, 0, 88, 56
1, 438930, Note_on_c, 0, 79, 56
1, 438930, Note_on_c, 0, 91, 66
1, 438933, Note_on_c, 0, 59, 0
1, 438933, Note_on_c, 0, 47, 0
1, 439006, Note_on_c, 0, 91, 0
1, 439006, Note_on_c, 0, 79, 0
1, 439006, Note_on_c, 0, 88, 0
1, 439009, Note_on_c, 0, 41, 70
1, 439009, Note_on_c, 0, 53, 83
1, 439009, Control_c, 0, 64, 0
1, 439043, Control_c, 0, 64, 127
1, 439078, Note_on_c, 0, 89, 70
1, 439078, Note_on_c, 0, 80, 59
1, 439078, Note_on_c, 0, 92, 70
1, 439081, Note_on_c, 0, 53, 0
1, 439081, Note_on_c, 0, 41, 0
1, 439150, Note_on_c, 0, 92, 0
1, 439150, Note_on_c, 0, 80, 0
1, 439150, Note_on_c, 0, 89, 0
1, 439153, Note_on_c, 0, 44, 60
1, 439153, Note_on_c, 0, 56, 72
1, 439224, Note_on_c, 0, 88, 57
1, 439224, Note_on_c, 0, 79, 57
1, 439224, Note_on_c, 0, 91, 67
1, 439227, Note_on_c, 0, 56, 0
1, 439227, Note_on_c, 0, 44, 0
1, 439297, Note_on_c, 0, 91, 0
1, 439297, Note_on_c, 0, 79, 0
1, 439297, Note_on_c, 0, 88, 0
1, 439300, Note_on_c, 0, 38, 83
1, 439300, Note_on_c, 0, 50, 83
1, 439305, Control_c, 0, 64, 0
1, 439339, Control_c, 0, 64, 127
1, 439369, Note_on_c, 0, 89, 61
1, 439369, Note_on_c, 0, 80, 61
1, 439369, Note_on_c, 0, 92, 72
1, 439372, Note_on_c, 0, 50, 0
1, 439372, Note_on_c, 0, 38, 0
1, 439440, Note_on_c, 0, 92, 0
1, 439440, Note_on_c, 0, 80, 0
1, 439440, Note_on_c, 0, 89, 0
1, 439443, Note_on_c, 0, 41, 79
1, 439443, Note_on_c, 0, 53, 79
1, 439515, Note_on_c, 0, 88, 60
1, 439515, Note_on_c, 0, 79, 60
1, 439515, Note_on_c, 0, 91, 71
1, 439518, Note_on_c, 0, 53, 0
1, 439518, Note_on_c, 0, 41, 0
1, 439590, Note_on_c, 0, 91, 0
1, 439590, Note_on_c, 0, 79, 0
1, 439590, Note_on_c, 0, 88, 0
1, 439593, Note_on_c, 0, 37, 76
1, 439593, Note_on_c, 0, 49, 90
1, 439593, Control_c, 0, 64, 0
1, 439627, Control_c, 0, 64, 127
1, 439661, Note_on_c, 0, 89, 76
1, 439661, Note_on_c, 0, 80, 64
1, 439661, Note_on_c, 0, 92, 76
1, 439664, Note_on_c, 0, 49, 0
1, 439664, Note_on_c, 0, 37, 0
1, 439733, Note_on_c, 0, 92, 0
1, 439733, Note_on_c, 0, 80, 0
1, 439733, Note_on_c, 0, 89, 0
1, 439736, Note_on_c, 0, 41, 65
1, 439736, Note_on_c, 0, 53, 79
1, 439807, Note_on_c, 0, 88, 62
1, 439807, Note_on_c, 0, 79, 62
1, 439807, Note_on_c, 0, 91, 74
1, 439810, Note_on_c, 0, 53, 0
1, 439810, Note_on_c, 0, 41, 0
1, 439881, Note_on_c, 0, 91, 0
1, 439881, Note_on_c, 0, 79, 0
1, 439881, Note_on_c, 0, 88, 0
1, 439884, Note_on_c, 0, 35, 90
1, 439884, Note_on_c, 0, 47, 90
1, 439890, Control_c, 0, 64, 0
1, 439927, Control_c, 0, 64, 127
1, 439959, Note_on_c, 0, 89, 66
1, 439959, Note_on_c, 0, 80, 66
1, 439959, Note_on_c, 0, 92, 78
1, 439962, Note_on_c, 0, 47, 0
1, 439962, Note_on_c, 0, 35, 0
1, 440040, Note_on_c, 0, 92, 0
1, 440040, Note_on_c, 0, 80, 0
1, 440040, Note_on_c, 0, 89, 0
1, 440043, Note_on_c, 0, 41, 85
1, 440043, Note_on_c, 0, 53, 85
1, 440128, Note_on_c, 0, 87, 65
1, 440128, Note_on_c, 0, 79, 65
1, 440128, Note_on_c, 0, 91, 77
1, 440131, Note_on_c, 0, 53, 0
1, 440131, Note_on_c, 0, 41, 0
1, 440224, Note_on_c, 0, 91, 0
1, 440224, Note_on_c, 0, 79, 0
1, 440224, Note_on_c, 0, 87, 0
1, 440227, Note_on_c, 0, 80, 77
1, 440227, Note_on_c, 0, 86, 77
1, 440227, Note_on_c, 0, 92, 91
1, 440230, Note_on_c, 0, 34, 72
1, 440230, Note_on_c, 0, 46, 85
1, 440230, Control_c, 0, 64, 0
1, 440293, Control_c, 0, 64, 127
1, 440381, Note_on_c, 0, 46, 0
1, 440381, Note_on_c, 0, 34, 0
1, 440381, Note_on_c, 0, 65, 72
1, 440384, Note_on_c, 0, 62, 61
1, 440384, Note_on_c, 0, 53, 61
1, 440460, Note_on_c, 0, 92, 0
1, 440460, Note_on_c, 0, 86, 0
1, 440460, Note_on_c, 0, 80, 0
1, 440463, Note_on_c, 0, 94, 78
1, 440499, Note_on_c, 0, 94, 0
1, 440499, Note_on_c, 0, 92, 78
1, 440538, Note_on_c, 0, 92, 0
1, 440538, Note_on_c, 0, 79, 74
1, 440538, Note_on_c, 0, 91, 88
1, 440541, Note_on_c, 0, 53, 0
1, 440541, Note_on_c, 0, 62, 0
1, 440541, Note_on_c, 0, 65, 0
1, 440544, Note_on_c, 0, 46, 66
1, 440544, Note_on_c, 0, 58, 78
1, 440618, Note_on_c, 0, 91, 0
1, 440618, Note_on_c, 0, 79, 0
1, 440618, Note_on_c, 0, 58, 0
1, 440621, Note_on_c, 0, 46, 0
1, 440699, Note_on_c, 0, 77, 69
1, 440699, Note_on_c, 0, 89, 82
1, 440699, Note_on_c, 0, 62, 73
1, 440702, Note_on_c, 0, 58, 61
1, 440702, Note_on_c, 0, 53, 61
1, 440783, Note_on_c, 0, 89, 0
1, 440783, Note_on_c, 0, 77, 0
1, 440783, Note_on_c, 0, 53, 0
1, 440786, Note_on_c, 0, 58, 0
1, 440786, Note_on_c, 0, 62, 0
1, 440867, Note_on_c, 0, 82, 75
1, 440867, Note_on_c, 0, 94, 90
1, 440867, Note_on_c, 0, 34, 69
1, 440870, Note_on_c, 0, 46, 82
1, 440870, Control_c, 0, 64, 0
1, 440908, Control_c, 0, 64, 127
1, 440948, Note_on_c, 0, 94, 0
1, 440948, Note_on_c, 0, 82, 0
1, 440948, Note_on_c, 0, 46, 0
1, 440951, Note_on_c, 0, 34, 0
1, 441029, Note_on_c, 0, 74, 68
1, 441029, Note_on_c, 0, 86, 81
1, 441029, Note_on_c, 0, 67, 72
1, 441032, Note_on_c, 0, 63, 61
1, 441032, Note_on_c, 0, 55, 61
1, 441110, Note_on_c, 0, 86, 0
1, 441110, Note_on_c, 0, 74, 0
1, 441110, Note_on_c, 0, 55, 0
1, 441113, Note_on_c, 0, 63, 0
1, 441113, Note_on_c, 0, 67, 0
1, 441191, Note_on_c, 0, 75, 74
1, 441191, Note_on_c, 0, 87, 88
1, 441191, Note_on_c, 0, 46, 68
1, 441194, Note_on_c, 0, 58, 80
1, 441352, Note_on_c, 0, 58, 0
1, 441352, Note_on_c, 0, 46, 0
1, 441352, Note_on_c, 0, 67, 74
1, 441355, Note_on_c, 0, 63, 62
1, 441355, Note_on_c, 0, 55, 62
1, 441514, Note_on_c, 0, 87, 0
1, 441514, Note_on_c, 0, 75, 0
1, 441514, Note_on_c, 0, 80, 77
1, 441517, Note_on_c, 0, 86, 77
1, 441517, Note_on_c, 0, 92, 91
1, 441517, Note_on_c, 0, 55, 0
1, 441520, Note_on_c, 0, 63, 0
1, 441520, Note_on_c, 0, 67, 0
1, 441520, Note_on_c, 0, 34, 72
1, 441523, Note_on_c, 0, 46, 85
1, 441523, Control_c, 0, 64, 0
1, 441546, Control_c, 0, 64, 127
1, 441671, Note_on_c, 0, 46, 0
1, 441671, Note_on_c, 0, 34, 0
1, 441671, Note_on_c, 0, 65, 72
1, 441674, Note_on_c, 0, 62, 61
1, 441674, Note_on_c, 0, 53, 61
1, 441750, Note_on_c, 0, 92, 0
1, 441750, Note_on_c, 0, 86, 0
1, 441750, Note_on_c, 0, 80, 0
1, 441753, Note_on_c, 0, 94, 78
1, 441789, Note_on_c, 0, 94, 0
1, 441789, Note_on_c, 0, 92, 78
1, 441828, Note_on_c, 0, 92, 0
1, 441828, Note_on_c, 0, 79, 74
1, 441828, Note_on_c, 0, 91, 88
1, 441831, Note_on_c, 0, 53, 0
1, 441831, Note_on_c, 0, 62, 0
1, 441831, Note_on_c, 0, 65, 0
1, 441834, Note_on_c, 0, 46, 66
1, 441834, Note_on_c, 0, 58, 78
1, 441908, Note_on_c, 0, 91, 0
1, 441908, Note_on_c, 0, 79, 0
1, 441908, Note_on_c, 0, 58, 0
1, 441911, Note_on_c, 0, 46, 0
1, 441989, Note_on_c, 0, 77, 69
1, 441989, Note_on_c, 0, 89, 82
1, 441989, Note_on_c, 0, 62, 73
1, 441992, Note_on_c, 0, 58, 61
1, 441992, Note_on_c, 0, 53, 61
1, 442073, Note_on_c, 0, 89, 0
1, 442073, Note_on_c, 0, 77, 0
1, 442073, Note_on_c, 0, 53, 0
1, 442076, Note_on_c, 0, 58, 0
1, 442076, Note_on_c, 0, 62, 0
1, 442157, Note_on_c, 0, 82, 75
1, 442157, Note_on_c, 0, 94, 90
1, 442157, Note_on_c, 0, 34, 69
1, 442160, Note_on_c, 0, 46, 82
1, 442160, Control_c, 0, 64, 0
1, 442198, Control_c, 0, 64, 127
1, 442238, Note_on_c, 0, 94, 0
1, 442238, Note_on_c, 0, 82, 0
1, 442238, Note_on_c, 0, 46, 0
1, 442241, Note_on_c, 0, 34, 0
1, 442319, Note_on_c, 0, 74, 68
1, 442319, Note_on_c, 0, 86, 81
1, 442319, Note_on_c, 0, 67, 72
1, 442322, Note_on_c, 0, 63, 61
1, 442322, Note_on_c, 0, 55, 61
1, 442400, Note_on_c, 0, 86, 0
1, 442400, Note_on_c, 0, 74, 0
1, 442400, Note_on_c, 0, 55, 0
1, 442403, Note_on_c, 0, 63, 0
1, 442403, Note_on_c, 0, 67, 0
1, 442481, Note_on_c, 0, 75, 74
1, 442481, Note_on_c, 0, 87, 88
1, 442481, Note_on_c, 0, 46, 68
1, 442484, Note_on_c, 0, 58, 80
1, 442642, Note_on_c, 0, 58, 0
1, 442642, Note_on_c, 0, 46, 0
1, 442642, Note_on_c, 0, 67, 74
1, 442645, Note_on_c, 0, 63, 62
1, 442645, Note_on_c, 0, 55, 62
1, 442829, Note_on_c, 0, 87, 0
1, 442829, Note_on_c, 0, 75, 0
1, 442829, Note_on_c, 0, 55, 0
1, 442832, Note_on_c, 0, 63, 0
1, 442832, Note_on_c, 0, 67, 0
1, 442832, Note_on_c, 0, 36, 71
1, 442835, Note_on_c, 0, 48, 84
1, 442835, Control_c, 0, 64, 0
1, 442920, Note_on_c, 0, 48, 0
1, 442920, Note_on_c, 0, 36, 0
1, 443011, Note_on_c, 0, 53, 61
1, 443011, Note_on_c, 0, 57, 61
1, 443011, Note_on_c, 0, 63, 72
1, 443014, Note_on_c, 0, 65, 72
1, 443014, Note_on_c, 0, 35, 66
1, 443014, Note_on_c, 0, 47, 78
1, 443109, Note_on_c, 0, 65, 0
1, 443109, Note_on_c, 0, 53, 0
1, 443109, Note_on_c, 0, 57, 0
1, 443112, Note_on_c, 0, 63, 0
1, 443112, Note_on_c, 0, 47, 0
1, 443112, Note_on_c, 0, 35, 0
1, 443208, Note_on_c, 0, 58, 63
1, 443208, Note_on_c, 0, 53, 63
1, 443208, Note_on_c, 0, 62, 75
1, 443211, Note_on_c, 0, 65, 75
1, 443211, Note_on_c, 0, 34, 70
1, 443211, Note_on_c, 0, 46, 83
1, 443302, Note_on_c, 0, 65, 0
1, 443302, Note_on_c, 0, 58, 0
1, 443302, Note_on_c, 0, 53, 0
1, 443305, Note_on_c, 0, 62, 0
1, 443305, Note_on_c, 0, 46, 0
1, 443305, Note_on_c, 0, 34, 0
1, 443585, Note_on_c, 0, 56, 77
1, 443585, Note_on_c, 0, 68, 91
1, 443625, Control_c, 0, 64, 127
1, 443735, Note_on_c, 0, 86, 77
1, 443735, Note_on_c, 0, 82, 77
1, 443735, Note_on_c, 0, 74, 64
1, 443738, Note_on_c, 0, 77, 64
1, 443892, Note_on_c, 0, 77, 0
1, 443892, Note_on_c, 0, 86, 0
1, 443892, Note_on_c, 0, 82, 0
1, 443895, Note_on_c, 0, 74, 0
1, 443895, Note_on_c, 0, 68, 0
1, 443895, Note_on_c, 0, 56, 0
1, 443898, Note_on_c, 0, 55, 74
1, 443898, Note_on_c, 0, 67, 88
1, 443898, Control_c, 0, 64, 0
1, 443950, Control_c, 0, 64, 127
1, 443968, Note_on_c, 0, 67, 0
1, 443968, Note_on_c, 0, 55, 0
1, 444044, Note_on_c, 0, 98, 77
1, 444044, Note_on_c, 0, 94, 77
1, 444044, Note_on_c, 0, 89, 64
1, 444047, Note_on_c, 0, 86, 64
1, 444047, Note_on_c, 0, 53, 69
1, 444047, Note_on_c, 0, 65, 82
1, 444128, Note_on_c, 0, 86, 0
1, 444128, Note_on_c, 0, 98, 0
1, 444128, Note_on_c, 0, 94, 0
1, 444131, Note_on_c, 0, 89, 0
1, 444131, Note_on_c, 0, 65, 0
1, 444131, Note_on_c, 0, 53, 0
1, 444213, Note_on_c, 0, 58, 75
1, 444213, Note_on_c, 0, 70, 90
1, 444218, Control_c, 0, 64, 0
1, 444262, Control_c, 0, 64, 127
1, 444290, Note_on_c, 0, 70, 0
1, 444290, Note_on_c, 0, 58, 0
1, 444367, Note_on_c, 0, 91, 77
1, 444367, Note_on_c, 0, 87, 77
1, 444367, Note_on_c, 0, 79, 64
1, 444370, Note_on_c, 0, 82, 64
1, 444370, Note_on_c, 0, 50, 68
1, 444370, Note_on_c, 0, 62, 81
1, 444445, Note_on_c, 0, 82, 0
1, 444445, Note_on_c, 0, 91, 0
1, 444445, Note_on_c, 0, 87, 0
1, 444448, Note_on_c, 0, 79, 0
1, 444448, Note_on_c, 0, 62, 0
1, 444448, Note_on_c, 0, 50, 0
1, 444524, Note_on_c, 0, 51, 74
1, 444524, Note_on_c, 0, 63, 88
1, 444537, Control_c, 0, 64, 0
1, 444593, Control_c, 0, 64, 127
1, 444681, Note_on_c, 0, 103, 77
1, 444681, Note_on_c, 0, 99, 77
1, 444681, Note_on_c, 0, 94, 64
1, 444684, Note_on_c, 0, 91, 64
1, 444838, Note_on_c, 0, 91, 0
1, 444838, Note_on_c, 0, 103, 0
1, 444838, Note_on_c, 0, 99, 0
1, 444841, Note_on_c, 0, 94, 0
1, 444841, Note_on_c, 0, 63, 0
1, 444841, Note_on_c, 0, 51, 0
1, 444844, Note_on_c, 0, 44, 77
1, 444844, Note_on_c, 0, 56, 91
1, 444844, Control_c, 0, 64, 0
1, 444900, Control_c, 0, 64, 127
1, 444989, Note_on_c, 0, 74, 77
1, 444989, Note_on_c, 0, 70, 77
1, 444989, Note_on_c, 0, 62, 64
1, 444992, Note_on_c, 0, 65, 64
1, 445145, Note_on_c, 0, 65, 0
1, 445145, Note_on_c, 0, 74, 0
1, 445145, Note_on_c, 0, 70, 0
1, 445148, Note_on_c, 0, 62, 0
1, 445148, Note_on_c, 0, 56, 0
1, 445148, Note_on_c, 0, 44, 0
1, 445151, Note_on_c, 0, 43, 74
1, 445151, Note_on_c, 0, 55, 88
1, 445151, Control_c, 0, 64, 0
1, 445204, Control_c, 0, 64, 127
1, 445222, Note_on_c, 0, 55, 0
1, 445222, Note_on_c, 0, 43, 0
1, 445299, Note_on_c, 0, 86, 77
1, 445299, Note_on_c, 0, 82, 77
1, 445299, Note_on_c, 0, 77, 64
1, 445302, Note_on_c, 0, 74, 64
1, 445302, Note_on_c, 0, 41, 69
1, 445302, Note_on_c, 0, 53, 82
1, 445383, Note_on_c, 0, 74, 0
1, 445383, Note_on_c, 0, 86, 0
1, 445383, Note_on_c, 0, 82, 0
1, 445386, Note_on_c, 0, 77, 0
1, 445386, Note_on_c, 0, 53, 0
1, 445386, Note_on_c, 0, 41, 0
1, 445467, Note_on_c, 0, 46, 75
1, 445467, Note_on_c, 0, 58, 90
1, 445473, Control_c, 0, 64, 0
1, 445517, Control_c, 0, 64, 127
1, 445545, Note_on_c, 0, 58, 0
1, 445545, Note_on_c, 0, 46, 0
1, 445622, Note_on_c, 0, 79, 77
1, 445622, Note_on_c, 0, 75, 77
1, 445622, Note_on_c, 0, 67, 64
1, 445625, Note_on_c, 0, 70, 64
1, 445625, Note_on_c, 0, 38, 68
1, 445625, Note_on_c, 0, 50, 81
1, 445701, Note_on_c, 0, 70, 0
1, 445701, Note_on_c, 0, 79, 0
1, 445701, Note_on_c, 0, 75, 0
1, 445704, Note_on_c, 0, 67, 0
1, 445704, Note_on_c, 0, 50, 0
1, 445704, Note_on_c, 0, 38, 0
1, 445779, Note_on_c, 0, 39, 74
1, 445779, Note_on_c, 0, 51, 88
1, 445793, Control_c, 0, 64, 0
1, 445849, Control_c, 0, 64, 127
1, 445937, Note_on_c, 0, 91, 77
1, 445937, Note_on_c, 0, 87, 77
1, 445937, Note_on_c, 0, 82, 64
1, 445940, Note_on_c, 0, 79, 64
1, 446122, Note_on_c, 0, 79, 0
1, 446122, Note_on_c, 0, 91, 0
1, 446122, Note_on_c, 0, 87, 0
1, 446125, Note_on_c, 0, 82, 0
1, 446125, Note_on_c, 0, 51, 0
1, 446125, Note_on_c, 0, 39, 0
1, 446128, Note_on_c, 0, 36, 71
1, 446128, Note_on_c, 0, 48, 84
1, 446128, Control_c, 0, 64, 0
1, 446214, Note_on_c, 0, 48, 0
1, 446214, Note_on_c, 0, 36, 0
1, 446305, Note_on_c, 0, 53, 61
1, 446305, Note_on_c, 0, 57, 61
1, 446305, Note_on_c, 0, 63, 72
1, 446308, Note_on_c, 0, 65, 72
1, 446308, Note_on_c, 0, 35, 66
1, 446308, Note_on_c, 0, 47, 78
1, 446403, Note_on_c, 0, 65, 0
1, 446403, Note_on_c, 0, 53, 0
1, 446403, Note_on_c, 0, 57, 0
1, 446406, Note_on_c, 0, 63, 0
1, 446406, Note_on_c, 0, 47, 0
1, 446406, Note_on_c, 0, 35, 0
1, 446502, Note_on_c, 0, 53, 63
1, 446502, Note_on_c, 0, 62, 75
1, 446502, Note_on_c, 0, 65, 75
1, 446505, Note_on_c, 0, 34, 70
1, 446505, Note_on_c, 0, 46, 83
1, 446505, Note_on_c, 0, 58, 63
1, 446596, Note_on_c, 0, 65, 0
1, 446596, Note_on_c, 0, 53, 0
1, 446596, Note_on_c, 0, 62, 0
1, 446599, Note_on_c, 0, 46, 0
1, 446599, Note_on_c, 0, 34, 0
1, 446599, Note_on_c, 0, 58, 0
1, 446879, Note_on_c, 0, 85, 77
1, 446879, Note_on_c, 0, 77, 77
1, 446879, Note_on_c, 0, 82, 77
1, 446882, Note_on_c, 0, 37, 72
1, 446882, Note_on_c, 0, 49, 85
1, 446882, Control_c, 0, 64, 0
1, 446885, Note_on_c, 0, 89, 91
1, 446951, Control_c, 0, 64, 127
1, 447042, Note_on_c, 0, 49, 0
1, 447042, Note_on_c, 0, 37, 0
1, 447042, Note_on_c, 0, 65, 72
1, 447045, Note_on_c, 0, 61, 61
1, 447045, Note_on_c, 0, 58, 61
1, 447205, Note_on_c, 0, 82, 0
1, 447205, Note_on_c, 0, 85, 0
1, 447205, Note_on_c, 0, 77, 0
1, 447208, Note_on_c, 0, 76, 74
1, 447208, Note_on_c, 0, 88, 88
1, 447208, Note_on_c, 0, 58, 0
1, 447211, Note_on_c, 0, 61, 0
1, 447211, Note_on_c, 0, 65, 0
1, 447211, Note_on_c, 0, 46, 66
1, 447214, Note_on_c, 0, 58, 78
1, 447214, Note_on_c, 0, 89, 0
1, 447285, Note_on_c, 0, 88, 0
1, 447285, Note_on_c, 0, 76, 0
1, 447285, Note_on_c, 0, 58, 0
1, 447288, Note_on_c, 0, 46, 0
1, 447365, Note_on_c, 0, 77, 69
1, 447365, Note_on_c, 0, 89, 82
1, 447365, Note_on_c, 0, 65, 73
1, 447368, Note_on_c, 0, 61, 61
1, 447368, Note_on_c, 0, 58, 61
1, 447450, Note_on_c, 0, 89, 0
1, 447450, Note_on_c, 0, 77, 0
1, 447450, Note_on_c, 0, 58, 0
1, 447453, Note_on_c, 0, 61, 0
1, 447453, Note_on_c, 0, 65, 0
1, 447534, Note_on_c, 0, 91, 91
1, 447534, Note_on_c, 0, 79, 77
1, 447534, Note_on_c, 0, 82, 77
1, 447537, Note_on_c, 0, 39, 72
1, 447537, Note_on_c, 0, 51, 85
1, 447537, Control_c, 0, 64, 0
1, 447607, Control_c, 0, 64, 127
1, 447698, Note_on_c, 0, 51, 0
1, 447698, Note_on_c, 0, 39, 0
1, 447698, Note_on_c, 0, 67, 72
1, 447701, Note_on_c, 0, 63, 61
1, 447701, Note_on_c, 0, 58, 61
1, 447821, Note_on_c, 0, 58, 0
1, 447821, Note_on_c, 0, 63, 0
1, 447821, Note_on_c, 0, 67, 0
1, 447862, Note_on_c, 0, 82, 0
1, 447862, Note_on_c, 0, 79, 0
1, 447862, Note_on_c, 0, 91, 0
1, 447865, Note_on_c, 0, 82, 74
1, 447865, Note_on_c, 0, 77, 74
1, 447865, Note_on_c, 0, 89, 88
1, 447868, Note_on_c, 0, 37, 72
1, 447868, Note_on_c, 0, 49, 85
1, 447878, Control_c, 0, 64, 0
1, 447957, Control_c, 0, 64, 127
1, 448029, Note_on_c, 0, 49, 0
1, 448029, Note_on_c, 0, 37, 0
1, 448029, Note_on_c, 0, 58, 61
1, 448032, Note_on_c, 0, 65, 72
1, 448032, Note_on_c, 0, 61, 61
1, 448171, Note_on_c, 0, 61, 0
1, 448171, Note_on_c, 0, 65, 0
1, 448171, Note_on_c, 0, 58, 0
1, 448219, Note_on_c, 0, 89, 0
1, 448219, Note_on_c, 0, 77, 0
1, 448219, Note_on_c, 0, 82, 0
1, 448222, Note_on_c, 0, 36, 71
1, 448222, Note_on_c, 0, 48, 84
1, 448247, Control_c, 0, 64, 0
1, 448308, Note_on_c, 0, 48, 0
1, 448308, Note_on_c, 0, 36, 0
1, 448397, Note_on_c, 0, 53, 61
1, 448397, Note_on_c, 0, 57, 61
1, 448397, Note_on_c, 0, 63, 72
1, 448400, Note_on_c, 0, 65, 72
1, 448400, Note_on_c, 0, 35, 66
1, 448400, Note_on_c, 0, 47, 78
1, 448496, Note_on_c, 0, 65, 0
1, 448496, Note_on_c, 0, 53, 0
1, 448496, Note_on_c, 0, 57, 0
1, 448499, Note_on_c, 0, 63, 0
1, 448499, Note_on_c, 0, 47, 0
1, 448499, Note_on_c, 0, 35, 0
1, 448594, Note_on_c, 0, 53, 63
1, 448594, Note_on_c, 0, 62, 75
1, 448594, Note_on_c, 0, 65, 75
1, 448597, Note_on_c, 0, 34, 70
1, 448597, Note_on_c, 0, 46, 83
1, 448597, Note_on_c, 0, 58, 63
1, 448690, Note_on_c, 0, 65, 0
1, 448690, Note_on_c, 0, 53, 0
1, 448690, Note_on_c, 0, 62, 0
1, 448693, Note_on_c, 0, 46, 0
1, 448693, Note_on_c, 0, 34, 0
1, 448693, Note_on_c, 0, 58, 0
1, 448978, Note_on_c, 0, 82, 68
1, 448978, Note_on_c, 0, 79, 68
1, 448978, Note_on_c, 0, 91, 81
1, 448981, Note_on_c, 0, 37, 72
1, 448981, Note_on_c, 0, 49, 85
1, 448981, Control_c, 0, 64, 0
1, 449054, Control_c, 0, 64, 127
1, 449093, Note_on_c, 0, 91, 0
1, 449093, Note_on_c, 0, 79, 0
1, 449093, Note_on_c, 0, 82, 0
1, 449096, Note_on_c, 0, 77, 57
1, 449096, Note_on_c, 0, 89, 68
1, 449149, Note_on_c, 0, 49, 0
1, 449149, Note_on_c, 0, 37, 0
1, 449149, Note_on_c, 0, 65, 72
1, 449152, Note_on_c, 0, 61, 61
1, 449152, Note_on_c, 0, 58, 61
1, 449204, Note_on_c, 0, 89, 0
1, 449204, Note_on_c, 0, 77, 0
1, 449204, Note_on_c, 0, 76, 57
1, 449207, Note_on_c, 0, 88, 68
1, 449316, Note_on_c, 0, 88, 0
1, 449316, Note_on_c, 0, 76, 0
1, 449316, Note_on_c, 0, 75, 63
1, 449319, Note_on_c, 0, 87, 75
1, 449319, Note_on_c, 0, 58, 0
1, 449319, Note_on_c, 0, 61, 0
1, 449322, Note_on_c, 0, 65, 0
1, 449322, Note_on_c, 0, 37, 66
1, 449322, Note_on_c, 0, 49, 78
1, 449396, Note_on_c, 0, 49, 0
1, 449396, Note_on_c, 0, 37, 0
1, 449423, Note_on_c, 0, 87, 0
1, 449423, Note_on_c, 0, 75, 0
1, 449423, Note_on_c, 0, 74, 59
1, 449426, Note_on_c, 0, 86, 70
1, 449477, Note_on_c, 0, 65, 73
1, 449477, Note_on_c, 0, 61, 61
1, 449477, Note_on_c, 0, 58, 61
1, 449534, Note_on_c, 0, 86, 0
1, 449534, Note_on_c, 0, 74, 0
1, 449534, Note_on_c, 0, 73, 59
1, 449537, Note_on_c, 0, 85, 70
1, 449563, Note_on_c, 0, 58, 0
1, 449563, Note_on_c, 0, 61, 0
1, 449563, Note_on_c, 0, 65, 0
1, 449650, Note_on_c, 0, 85, 0
1, 449650, Note_on_c, 0, 73, 0
1, 449650, Note_on_c, 0, 72, 71
1, 449653, Note_on_c, 0, 84, 84
1, 449653, Note_on_c, 0, 36, 72
1, 449653, Note_on_c, 0, 48, 85
1, 449656, Control_c, 0, 64, 0
1, 449686, Control_c, 0, 64, 127
1, 449734, Note_on_c, 0, 84, 0
1, 449734, Note_on_c, 0, 72, 0
1, 449734, Note_on_c, 0, 48, 0
1, 449737, Note_on_c, 0, 36, 0
1, 449818, Note_on_c, 0, 84, 64
1, 449818, Note_on_c, 0, 96, 77
1, 449818, Note_on_c, 0, 64, 72
1, 449821, Note_on_c, 0, 58, 61
1, 449821, Note_on_c, 0, 55, 61
1, 449903, Note_on_c, 0, 96, 0
1, 449903, Note_on_c, 0, 84, 0
1, 449903, Note_on_c, 0, 55, 0
1, 449906, Note_on_c, 0, 58, 0
1, 449906, Note_on_c, 0, 64, 0
1, 449987, Note_on_c, 0, 72, 70
1, 449987, Note_on_c, 0, 84, 83
1, 449987, Note_on_c, 0, 53, 78
1, 449990, Note_on_c, 0, 41, 66
1, 450001, Control_c, 0, 64, 0
1, 450044, Control_c, 0, 64, 127
1, 450072, Note_on_c, 0, 84, 0
1, 450072, Note_on_c, 0, 72, 0
1, 450072, Note_on_c, 0, 41, 0
1, 450075, Note_on_c, 0, 53, 0
1, 450156, Note_on_c, 0, 84, 64
1, 450156, Note_on_c, 0, 96, 77
1, 450156, Note_on_c, 0, 63, 61
1, 450159, Note_on_c, 0, 57, 61
1, 450159, Note_on_c, 0, 65, 73
1, 450241, Note_on_c, 0, 96, 0
1, 450241, Note_on_c, 0, 84, 0
1, 450241, Note_on_c, 0, 57, 0
1, 450244, Note_on_c, 0, 63, 0
1, 450244, Note_on_c, 0, 65, 0
1, 450325, Note_on_c, 0, 36, 71
1, 450325, Note_on_c, 0, 48, 84
1, 450325, Control_c, 0, 64, 0
1, 450416, Note_on_c, 0, 48, 0
1, 450416, Note_on_c, 0, 36, 0
1, 450506, Note_on_c, 0, 53, 61
1, 450506, Note_on_c, 0, 57, 61
1, 450506, Note_on_c, 0, 63, 72
1, 450509, Note_on_c, 0, 65, 72
1, 450509, Note_on_c, 0, 35, 66
1, 450509, Note_on_c, 0, 47, 78
1, 450601, Note_on_c, 0, 65, 0
1, 450601, Note_on_c, 0, 53, 0
1, 450601, Note_on_c, 0, 57, 0
1, 450604, Note_on_c, 0, 63, 0
1, 450604, Note_on_c, 0, 47, 0
1, 450604, Note_on_c, 0, 35, 0
1, 450695, Note_on_c, 0, 53, 63
1, 450695, Note_on_c, 0, 62, 75
1, 450695, Note_on_c, 0, 65, 75
1, 450698, Note_on_c, 0, 34, 70
1, 450698, Note_on_c, 0, 46, 83
1, 450698, Note_on_c, 0, 58, 63
1, 450789, Note_on_c, 0, 65, 0
1, 450789, Note_on_c, 0, 53, 0
1, 450789, Note_on_c, 0, 62, 0
1, 450792, Note_on_c, 0, 46, 0
1, 450792, Note_on_c, 0, 34, 0
1, 450792, Note_on_c, 0, 58, 0
1, 451073, Note_on_c, 0, 65, 91
1, 451073, Note_on_c, 0, 61, 77
1, 451073, Note_on_c, 0, 53, 77
1, 451076, Note_on_c, 0, 58, 77
1, 451076, Control_c, 0, 64, 127
1, 451235, Note_on_c, 0, 82, 82
1, 451235, Note_on_c, 0, 73, 69
1, 451235, Note_on_c, 0, 70, 69
1, 451317, Note_on_c, 0, 70, 0
1, 451317, Note_on_c, 0, 73, 0
1, 451317, Note_on_c, 0, 82, 0
1, 451360, Control_c, 0, 64, 0
1, 451398, Note_on_c, 0, 58, 0
1, 451398, Note_on_c, 0, 65, 0
1, 451398, Note_on_c, 0, 61, 0
1, 451401, Note_on_c, 0, 53, 0
1, 451401, Note_on_c, 0, 52, 74
1, 451401, Note_on_c, 0, 64, 88
1, 451478, Note_on_c, 0, 64, 0
1, 451478, Note_on_c, 0, 52, 0
1, 451559, Note_on_c, 0, 94, 81
1, 451559, Note_on_c, 0, 85, 68
1, 451559, Note_on_c, 0, 82, 68
1, 451562, Note_on_c, 0, 53, 69
1, 451562, Note_on_c, 0, 65, 82
1, 451643, Note_on_c, 0, 82, 0
1, 451643, Note_on_c, 0, 85, 0
1, 451643, Note_on_c, 0, 94, 0
1, 451646, Note_on_c, 0, 65, 0
1, 451646, Note_on_c, 0, 53, 0
1, 451728, Note_on_c, 0, 63, 77
1, 451728, Note_on_c, 0, 67, 91
1, 451728, Note_on_c, 0, 55, 77
1, 451731, Note_on_c, 0, 58, 77
1, 451758, Control_c, 0, 64, 127
1, 451891, Note_on_c, 0, 82, 82
1, 451891, Note_on_c, 0, 75, 69
1, 451891, Note_on_c, 0, 70, 69
1, 451973, Note_on_c, 0, 70, 0
1, 451973, Note_on_c, 0, 75, 0
1, 451973, Note_on_c, 0, 82, 0
1, 452040, Control_c, 0, 64, 0
1, 452055, Note_on_c, 0, 58, 0
1, 452055, Note_on_c, 0, 63, 0
1, 452055, Note_on_c, 0, 67, 0
1, 452058, Note_on_c, 0, 55, 0
1, 452058, Note_on_c, 0, 61, 74
1, 452058, Note_on_c, 0, 53, 74
1, 452061, Note_on_c, 0, 58, 74
1, 452061, Note_on_c, 0, 65, 88
1, 452091, Control_c, 0, 64, 127
1, 452222, Note_on_c, 0, 94, 81
1, 452222, Note_on_c, 0, 85, 68
1, 452222, Note_on_c, 0, 82, 68
1, 452312, Note_on_c, 0, 82, 0
1, 452312, Note_on_c, 0, 85, 0
1, 452312, Note_on_c, 0, 94, 0
1, 452402, Note_on_c, 0, 65, 0
1, 452402, Note_on_c, 0, 61, 0
1, 452402, Note_on_c, 0, 53, 0
1, 452405, Note_on_c, 0, 58, 0
1, 452405, Note_on_c, 0, 36, 71
1, 452405, Note_on_c, 0, 48, 84
1, 452408, Control_c, 0, 64, 0
1, 452495, Note_on_c, 0, 48, 0
1, 452495, Note_on_c, 0, 36, 0
1, 452589, Note_on_c, 0, 53, 61
1, 452589, Note_on_c, 0, 57, 61
1, 452589, Note_on_c, 0, 63, 72
1, 452592, Note_on_c, 0, 65, 72
1, 452592, Note_on_c, 0, 35, 66
1, 452592, Note_on_c, 0, 47, 78
1, 452686, Note_on_c, 0, 65, 0
1, 452686, Note_on_c, 0, 53, 0
1, 452686, Note_on_c, 0, 57, 0
1, 452689, Note_on_c, 0, 63, 0
1, 452689, Note_on_c, 0, 47, 0
1, 452689, Note_on_c, 0, 35, 0
1, 452784, Note_on_c, 0, 53, 63
1, 452784, Note_on_c, 0, 62, 75
1, 452784, Note_on_c, 0, 65, 75
1, 452787, Note_on_c, 0, 34, 70
1, 452787, Note_on_c, 0, 46, 83
1, 452787, Note_on_c, 0, 58, 63
1, 452882, Note_on_c, 0, 65, 0
1, 452882, Note_on_c, 0, 53, 0
1, 452882, Note_on_c, 0, 62, 0
1, 452885, Note_on_c, 0, 46, 0
1, 452885, Note_on_c, 0, 34, 0
1, 452885, Note_on_c, 0, 58, 0
1, 453175, Note_on_c, 0, 55, 68
1, 453175, Note_on_c, 0, 67, 81
1, 453187, Control_c, 0, 64, 127
1, 453292, Note_on_c, 0, 67, 0
1, 453292, Note_on_c, 0, 55, 0
1, 453292, Note_on_c, 0, 53, 57
1, 453295, Note_on_c, 0, 65, 68
1, 453348, Note_on_c, 0, 73, 69
1, 453348, Note_on_c, 0, 70, 69
1, 453348, Note_on_c, 0, 77, 69
1, 453351, Note_on_c, 0, 82, 82
1, 453404, Note_on_c, 0, 65, 0
1, 453404, Note_on_c, 0, 53, 0
1, 453404, Note_on_c, 0, 52, 57
1, 453407, Note_on_c, 0, 64, 68
1, 453432, Note_on_c, 0, 82, 0
1, 453432, Note_on_c, 0, 73, 0
1, 453432, Note_on_c, 0, 70, 0
1, 453435, Note_on_c, 0, 77, 0
1, 453499, Control_c, 0, 64, 0
1, 453515, Note_on_c, 0, 64, 0
1, 453515, Note_on_c, 0, 52, 0
1, 453515, Note_on_c, 0, 51, 63
1, 453518, Note_on_c, 0, 63, 75
1, 453538, Control_c, 0, 64, 127
1, 453622, Note_on_c, 0, 63, 0
1, 453622, Note_on_c, 0, 51, 0
1, 453622, Note_on_c, 0, 50, 59
1, 453625, Note_on_c, 0, 62, 70
1, 453676, Note_on_c, 0, 82, 68
1, 453676, Note_on_c, 0, 89, 68
1, 453676, Note_on_c, 0, 85, 68
1, 453679, Note_on_c, 0, 94, 81
1, 453733, Note_on_c, 0, 62, 0
1, 453733, Note_on_c, 0, 50, 0
1, 453733, Note_on_c, 0, 49, 59
1, 453736, Note_on_c, 0, 61, 70
1, 453762, Note_on_c, 0, 94, 0
1, 453762, Note_on_c, 0, 82, 0
1, 453762, Note_on_c, 0, 89, 0
1, 453765, Note_on_c, 0, 85, 0
1, 453849, Note_on_c, 0, 61, 0
1, 453849, Note_on_c, 0, 49, 0
1, 453849, Note_on_c, 0, 55, 77
1, 453852, Note_on_c, 0, 60, 91
1, 453852, Note_on_c, 0, 48, 77
1, 453852, Note_on_c, 0, 52, 77
1, 453855, Control_c, 0, 64, 0
1, 453915, Control_c, 0, 64, 127
1, 454013, Note_on_c, 0, 79, 69
1, 454013, Note_on_c, 0, 84, 82
1, 454013, Note_on_c, 0, 76, 69
1, 454016, Note_on_c, 0, 72, 69
1, 454095, Note_on_c, 0, 72, 0
1, 454095, Note_on_c, 0, 79, 0
1, 454095, Note_on_c, 0, 84, 0
1, 454098, Note_on_c, 0, 76, 0
1, 454161, Control_c, 0, 64, 0
1, 454177, Note_on_c, 0, 52, 0
1, 454177, Note_on_c, 0, 55, 0
1, 454177, Note_on_c, 0, 60, 0
1, 454180, Note_on_c, 0, 48, 0
1, 454180, Note_on_c, 0, 48, 74
1, 454180, Note_on_c, 0, 41, 74
1, 454183, Note_on_c, 0, 45, 74
1, 454183, Note_on_c, 0, 53, 88
1, 454212, Control_c, 0, 64, 127
1, 454343, Note_on_c, 0, 96, 68
1, 454343, Note_on_c, 0, 101, 81
1, 454343, Note_on_c, 0, 93, 68
1, 454346, Note_on_c, 0, 89, 68
1, 454438, Note_on_c, 0, 89, 0
1, 454438, Note_on_c, 0, 96, 0
1, 454438, Note_on_c, 0, 101, 0
1, 454441, Note_on_c, 0, 93, 0
1, 454533, Note_on_c, 0, 53, 0
1, 454533, Note_on_c, 0, 48, 0
1, 454533, Note_on_c, 0, 41, 0
1, 454536, Note_on_c, 0, 45, 0
1, 454536, Note_on_c, 0, 36, 71
1, 454536, Note_on_c, 0, 48, 84
1, 454539, Control_c, 0, 64, 0
1, 454539, Control_c, 0, 64, 0
1, 454627, Note_on_c, 0, 48, 0
1, 454627, Note_on_c, 0, 36, 0
1, 454720, Note_on_c, 0, 53, 61
1, 454720, Note_on_c, 0, 57, 61
1, 454720, Note_on_c, 0, 63, 72
1, 454723, Note_on_c, 0, 65, 72
1, 454723, Note_on_c, 0, 35, 66
1, 454723, Note_on_c, 0, 47, 78
1, 454819, Note_on_c, 0, 65, 0
1, 454819, Note_on_c, 0, 53, 0
1, 454819, Note_on_c, 0, 57, 0
1, 454822, Note_on_c, 0, 63, 0
1, 454822, Note_on_c, 0, 47, 0
1, 454822, Note_on_c, 0, 35, 0
1, 454918, Note_on_c, 0, 53, 63
1, 454918, Note_on_c, 0, 62, 75
1, 454918, Note_on_c, 0, 65, 75
1, 454921, Note_on_c, 0, 34, 70
1, 454921, Note_on_c, 0, 46, 83
1, 454921, Note_on_c, 0, 58, 63
1, 455008, Note_on_c, 0, 65, 0
1, 455008, Note_on_c, 0, 53, 0
1, 455008, Note_on_c, 0, 62, 0
1, 455011, Note_on_c, 0, 46, 0
1, 455011, Note_on_c, 0, 34, 0
1, 455011, Note_on_c, 0, 58, 0
1, 455189, Note_on_c, 0, 68, 64
1, 455228, Note_on_c, 0, 68, 0
1, 455228, Note_on_c, 0, 70, 64
1, 455267, Note_on_c, 0, 70, 0
1, 455267, Note_on_c, 0, 68, 73
1, 455290, Control_c, 0, 64, 127
1, 455426, Note_on_c, 0, 74, 52
1, 455477, Note_on_c, 0, 74, 0
1, 455477, Note_on_c, 0, 77, 54
1, 455527, Note_on_c, 0, 77, 0
1, 455527, Note_on_c, 0, 82, 55
1, 455577, Note_on_c, 0, 82, 0
1, 455577, Note_on_c, 0, 86, 57
1, 455577, Note_on_c, 0, 68, 0
1, 455580, Note_on_c, 0, 67, 69
1, 455630, Note_on_c, 0, 86, 0
1, 455630, Note_on_c, 0, 89, 59
1, 455657, Note_on_c, 0, 67, 0
1, 455683, Note_on_c, 0, 89, 0
1, 455683, Note_on_c, 0, 94, 60
1, 455735, Note_on_c, 0, 94, 0
1, 455735, Note_on_c, 0, 98, 62
1, 455735, Note_on_c, 0, 65, 62
1, 455818, Note_on_c, 0, 98, 0
1, 455818, Note_on_c, 0, 65, 0
1, 455898, Note_on_c, 0, 70, 70
1, 455898, Control_c, 0, 64, 0
1, 455926, Control_c, 0, 64, 127
1, 455977, Note_on_c, 0, 70, 0
1, 456055, Note_on_c, 0, 79, 53
1, 456055, Note_on_c, 0, 62, 63
1, 456110, Note_on_c, 0, 79, 0
1, 456110, Note_on_c, 0, 82, 55
1, 456138, Note_on_c, 0, 62, 0
1, 456164, Note_on_c, 0, 82, 0
1, 456164, Note_on_c, 0, 87, 57
1, 456217, Note_on_c, 0, 87, 0
1, 456217, Note_on_c, 0, 91, 59
1, 456217, Note_on_c, 0, 63, 71
1, 456238, Control_c, 0, 64, 0
1, 456270, Note_on_c, 0, 91, 0
1, 456270, Note_on_c, 0, 94, 61
1, 456270, Control_c, 0, 64, 127
1, 456323, Note_on_c, 0, 94, 0
1, 456323, Note_on_c, 0, 99, 64
1, 456376, Note_on_c, 0, 99, 0
1, 456376, Note_on_c, 0, 103, 66
1, 456417, Control_c, 0, 64, 0
1, 456480, Note_on_c, 0, 103, 0
1, 456480, Note_on_c, 0, 63, 0
1, 456480, Note_on_c, 0, 64, 64
1, 456524, Note_on_c, 0, 64, 0
1, 456524, Note_on_c, 0, 66, 64
1, 456567, Note_on_c, 0, 66, 0
1, 456567, Note_on_c, 0, 63, 73
1, 456590, Control_c, 0, 64, 127
1, 456725, Note_on_c, 0, 70, 52
1, 456776, Note_on_c, 0, 70, 0
1, 456776, Note_on_c, 0, 73, 54
1, 456826, Note_on_c, 0, 73, 0
1, 456826, Note_on_c, 0, 78, 56
1, 456875, Note_on_c, 0, 78, 0
1, 456875, Note_on_c, 0, 82, 58
1, 456875, Note_on_c, 0, 63, 0
1, 456878, Note_on_c, 0, 63, 69
1, 456929, Note_on_c, 0, 82, 0
1, 456929, Note_on_c, 0, 85, 60
1, 456955, Note_on_c, 0, 63, 0
1, 456982, Note_on_c, 0, 85, 0
1, 456982, Note_on_c, 0, 90, 61
1, 457034, Note_on_c, 0, 90, 0
1, 457034, Note_on_c, 0, 94, 63
1, 457034, Note_on_c, 0, 61, 62
1, 457117, Note_on_c, 0, 94, 0
1, 457117, Note_on_c, 0, 61, 0
1, 457197, Note_on_c, 0, 66, 70
1, 457197, Control_c, 0, 64, 0
1, 457224, Control_c, 0, 64, 127
1, 457275, Note_on_c, 0, 66, 0
1, 457354, Note_on_c, 0, 71, 54
1, 457354, Note_on_c, 0, 58, 63
1, 457407, Note_on_c, 0, 71, 0
1, 457407, Note_on_c, 0, 75, 55
1, 457435, Note_on_c, 0, 58, 0
1, 457462, Note_on_c, 0, 75, 0
1, 457462, Note_on_c, 0, 78, 57
1, 457516, Note_on_c, 0, 78, 0
1, 457516, Note_on_c, 0, 83, 58
1, 457516, Note_on_c, 0, 59, 71
1, 457524, Control_c, 0, 64, 0
1, 457567, Note_on_c, 0, 83, 0
1, 457567, Note_on_c, 0, 87, 60
1, 457567, Control_c, 0, 64, 127
1, 457618, Note_on_c, 0, 87, 0
1, 457618, Note_on_c, 0, 90, 61
1, 457668, Note_on_c, 0, 90, 0
1, 457668, Note_on_c, 0, 95, 63
1, 457675, Control_c, 0, 64, 0
1, 457773, Note_on_c, 0, 95, 0
1, 457773, Note_on_c, 0, 60, 64
1, 457815, Note_on_c, 0, 60, 0
1, 457815, Note_on_c, 0, 62, 64
1, 457857, Note_on_c, 0, 62, 0
1, 457857, Note_on_c, 0, 59, 0
1, 457857, Note_on_c, 0, 60, 73
1, 457881, Control_c, 0, 64, 127
1, 458019, Note_on_c, 0, 66, 54
1, 458071, Note_on_c, 0, 66, 0
1, 458071, Note_on_c, 0, 68, 56
1, 458121, Note_on_c, 0, 68, 0
1, 458121, Note_on_c, 0, 74, 57
1, 458171, Note_on_c, 0, 74, 0
1, 458171, Note_on_c, 0, 78, 58
1, 458171, Note_on_c, 0, 60, 0
1, 458174, Note_on_c, 0, 59, 69
1, 458223, Note_on_c, 0, 78, 0
1, 458223, Note_on_c, 0, 80, 59
1, 458249, Note_on_c, 0, 59, 0
1, 458275, Note_on_c, 0, 80, 0
1, 458275, Note_on_c, 0, 86, 60
1, 458326, Note_on_c, 0, 86, 0
1, 458326, Note_on_c, 0, 90, 62
1, 458326, Note_on_c, 0, 57, 62
1, 458409, Note_on_c, 0, 90, 0
1, 458409, Note_on_c, 0, 57, 0
1, 458489, Note_on_c, 0, 62, 70
1, 458489, Control_c, 0, 64, 0
1, 458517, Control_c, 0, 64, 127
1, 458568, Note_on_c, 0, 62, 0
1, 458646, Note_on_c, 0, 67, 54
1, 458646, Note_on_c, 0, 54, 63
1, 458699, Note_on_c, 0, 67, 0
1, 458699, Note_on_c, 0, 71, 55
1, 458727, Note_on_c, 0, 54, 0
1, 458755, Note_on_c, 0, 71, 0
1, 458755, Note_on_c, 0, 74, 57
1, 458808, Note_on_c, 0, 74, 0
1, 458808, Note_on_c, 0, 79, 58
1, 458808, Note_on_c, 0, 55, 71
1, 458829, Control_c, 0, 64, 0
1, 458860, Note_on_c, 0, 79, 0
1, 458860, Note_on_c, 0, 83, 59
1, 458860, Control_c, 0, 64, 127
1, 458910, Note_on_c, 0, 83, 0
1, 458910, Note_on_c, 0, 86, 60
1, 458961, Note_on_c, 0, 86, 0
1, 458961, Note_on_c, 0, 91, 62
1, 459000, Control_c, 0, 64, 0
1, 459048, Note_on_c, 0, 91, 0
1, 459048, Note_on_c, 0, 55, 0
1, 459135, Note_on_c, 0, 44, 55
1, 459135, Note_on_c, 0, 56, 65
1, 459208, Control_c, 0, 64, 127
1, 459216, Note_on_c, 0, 59, 45
1, 459216, Note_on_c, 0, 71, 54
1, 459216, Note_on_c, 0, 56, 0
1, 459219, Note_on_c, 0, 44, 0
1, 459296, Note_on_c, 0, 71, 0
1, 459296, Note_on_c, 0, 59, 0
1, 459296, Note_on_c, 0, 50, 46
1, 459299, Note_on_c, 0, 62, 55
1, 459376, Note_on_c, 0, 77, 55
1, 459376, Note_on_c, 0, 65, 46
1, 459376, Note_on_c, 0, 62, 0
1, 459379, Note_on_c, 0, 50, 0
1, 459454, Note_on_c, 0, 65, 0
1, 459454, Note_on_c, 0, 77, 0
1, 459454, Note_on_c, 0, 45, 55
1, 459457, Note_on_c, 0, 57, 65
1, 459469, Control_c, 0, 64, 0
1, 459532, Note_on_c, 0, 72, 56
1, 459532, Note_on_c, 0, 60, 47
1, 459532, Note_on_c, 0, 57, 0
1, 459535, Note_on_c, 0, 45, 0
1, 459539, Control_c, 0, 64, 127
1, 459608, Note_on_c, 0, 60, 0
1, 459608, Note_on_c, 0, 72, 0
1, 459608, Note_on_c, 0, 63, 56
1, 459611, Note_on_c, 0, 51, 47
1, 459683, Note_on_c, 0, 78, 56
1, 459683, Note_on_c, 0, 66, 47
1, 459683, Note_on_c, 0, 51, 0
1, 459686, Note_on_c, 0, 63, 0
1, 459757, Note_on_c, 0, 66, 0
1, 459757, Note_on_c, 0, 78, 0
1, 459757, Note_on_c, 0, 46, 59
1, 459760, Note_on_c, 0, 58, 70
1, 459763, Control_c, 0, 64, 0
1, 459833, Note_on_c, 0, 75, 60
1, 459833, Note_on_c, 0, 63, 51
1, 459833, Note_on_c, 0, 58, 0
1, 459836, Note_on_c, 0, 46, 0
1, 459836, Control_c, 0, 64, 127
1, 459909, Note_on_c, 0, 63, 0
1, 459909, Note_on_c, 0, 75, 0
1, 459909, Note_on_c, 0, 67, 60
1, 459912, Note_on_c, 0, 55, 51
1, 459985, Note_on_c, 0, 82, 60
1, 459985, Note_on_c, 0, 70, 51
1, 459985, Note_on_c, 0, 55, 0
1, 459988, Note_on_c, 0, 67, 0
1, 460061, Note_on_c, 0, 70, 0
1, 460061, Note_on_c, 0, 82, 0
1, 460061, Note_on_c, 0, 63, 72
1, 460064, Note_on_c, 0, 51, 61
1, 460137, Note_on_c, 0, 79, 61
1, 460137, Note_on_c, 0, 67, 51
1, 460137, Note_on_c, 0, 51, 0
1, 460140, Note_on_c, 0, 63, 0
1, 460213, Note_on_c, 0, 67, 0
1, 460213, Note_on_c, 0, 79, 0
1, 460213, Note_on_c, 0, 70, 61
1, 460216, Note_on_c, 0, 58, 51
1, 460291, Note_on_c, 0, 87, 61
1, 460291, Note_on_c, 0, 75, 51
1, 460291, Note_on_c, 0, 58, 0
1, 460294, Note_on_c, 0, 70, 0
1, 460375, Note_on_c, 0, 75, 0
1, 460375, Note_on_c, 0, 87, 0
1, 460375, Note_on_c, 0, 53, 61
1, 460378, Note_on_c, 0, 65, 72
1, 460382, Control_c, 0, 64, 0
1, 460441, Control_c, 0, 64, 127
1, 460449, Note_on_c, 0, 82, 62
1, 460449, Note_on_c, 0, 70, 52
1, 460449, Note_on_c, 0, 65, 0
1, 460452, Note_on_c, 0, 53, 0
1, 460524, Note_on_c, 0, 70, 0
1, 460524, Note_on_c, 0, 82, 0
1, 460524, Note_on_c, 0, 74, 62
1, 460527, Note_on_c, 0, 62, 52
1, 460598, Note_on_c, 0, 89, 62
1, 460598, Note_on_c, 0, 77, 52
1, 460598, Note_on_c, 0, 62, 0
1, 460601, Note_on_c, 0, 74, 0
1, 460673, Note_on_c, 0, 77, 0
1, 460673, Note_on_c, 0, 89, 0
1, 460673, Note_on_c, 0, 70, 75
1, 460676, Note_on_c, 0, 58, 63
1, 460747, Note_on_c, 0, 86, 63
1, 460747, Note_on_c, 0, 74, 53
1, 460747, Note_on_c, 0, 58, 0
1, 460750, Note_on_c, 0, 70, 0
1, 460821, Note_on_c, 0, 74, 0
1, 460821, Note_on_c, 0, 86, 0
1, 460821, Note_on_c, 0, 77, 63
1, 460824, Note_on_c, 0, 65, 53
1, 460896, Note_on_c, 0, 94, 63
1, 460896, Note_on_c, 0, 82, 53
1, 460896, Note_on_c, 0, 65, 0
1, 460899, Note_on_c, 0, 77, 0
1, 460983, Note_on_c, 0, 82, 0
1, 460983, Note_on_c, 0, 94, 0
1, 460983, Note_on_c, 0, 56, 62
1, 460986, Note_on_c, 0, 68, 73
1, 460990, Control_c, 0, 64, 0
1, 461039, Control_c, 0, 64, 127
1, 461142, Note_on_c, 0, 74, 52
1, 461193, Note_on_c, 0, 74, 0
1, 461193, Note_on_c, 0, 77, 54
1, 461244, Note_on_c, 0, 77, 0
1, 461244, Note_on_c, 0, 82, 55
1, 461293, Note_on_c, 0, 82, 0
1, 461293, Note_on_c, 0, 86, 57
1, 461293, Note_on_c, 0, 68, 0
1, 461296, Note_on_c, 0, 56, 0
1, 461296, Note_on_c, 0, 55, 58
1, 461296, Note_on_c, 0, 67, 69
1, 461346, Note_on_c, 0, 86, 0
1, 461346, Note_on_c, 0, 89, 59
1, 461373, Note_on_c, 0, 67, 0
1, 461373, Note_on_c, 0, 55, 0
1, 461399, Note_on_c, 0, 89, 0
1, 461399, Note_on_c, 0, 94, 60
1, 461451, Note_on_c, 0, 94, 0
1, 461451, Note_on_c, 0, 98, 62
1, 461451, Note_on_c, 0, 53, 52
1, 461454, Note_on_c, 0, 65, 62
1, 461534, Note_on_c, 0, 98, 0
1, 461534, Note_on_c, 0, 65, 0
1, 461534, Note_on_c, 0, 53, 0
1, 461614, Note_on_c, 0, 58, 59
1, 461614, Note_on_c, 0, 70, 70
1, 461614, Control_c, 0, 64, 0
1, 461642, Control_c, 0, 64, 127
1, 461693, Note_on_c, 0, 70, 0
1, 461693, Note_on_c, 0, 58, 0
1, 461771, Note_on_c, 0, 79, 53
1, 461771, Note_on_c, 0, 50, 53
1, 461771, Note_on_c, 0, 62, 63
1, 461826, Note_on_c, 0, 79, 0
1, 461826, Note_on_c, 0, 82, 55
1, 461854, Note_on_c, 0, 62, 0
1, 461854, Note_on_c, 0, 50, 0
1, 461881, Note_on_c, 0, 82, 0
1, 461881, Note_on_c, 0, 87, 57
1, 461933, Note_on_c, 0, 87, 0
1, 461933, Note_on_c, 0, 91, 59
1, 461933, Note_on_c, 0, 51, 60
1, 461936, Note_on_c, 0, 63, 71
1, 461954, Control_c, 0, 64, 0
1, 461986, Note_on_c, 0, 91, 0
1, 461986, Note_on_c, 0, 94, 61
1, 461986, Control_c, 0, 64, 127
1, 462039, Note_on_c, 0, 94, 0
1, 462039, Note_on_c, 0, 99, 64
1, 462092, Note_on_c, 0, 99, 0
1, 462092, Note_on_c, 0, 103, 66
1, 462159, Control_c, 0, 64, 0
1, 462196, Note_on_c, 0, 103, 0
1, 462196, Note_on_c, 0, 63, 0
1, 462196, Note_on_c, 0, 51, 0
1, 462283, Note_on_c, 0, 52, 62
1, 462283, Note_on_c, 0, 64, 73
1, 462307, Control_c, 0, 64, 127
1, 462441, Note_on_c, 0, 70, 52
1, 462492, Note_on_c, 0, 70, 0
1, 462492, Note_on_c, 0, 73, 54
1, 462542, Note_on_c, 0, 73, 0
1, 462542, Note_on_c, 0, 78, 56
1, 462592, Note_on_c, 0, 78, 0
1, 462592, Note_on_c, 0, 82, 58
1, 462592, Note_on_c, 0, 64, 0
1, 462595, Note_on_c, 0, 52, 0
1, 462595, Note_on_c, 0, 51, 58
1, 462595, Note_on_c, 0, 63, 69
1, 462645, Note_on_c, 0, 82, 0
1, 462645, Note_on_c, 0, 85, 60
1, 462671, Note_on_c, 0, 63, 0
1, 462671, Note_on_c, 0, 51, 0
1, 462698, Note_on_c, 0, 85, 0
1, 462698, Note_on_c, 0, 90, 61
1, 462750, Note_on_c, 0, 90, 0
1, 462750, Note_on_c, 0, 94, 63
1, 462750, Note_on_c, 0, 49, 52
1, 462753, Note_on_c, 0, 61, 62
1, 462833, Note_on_c, 0, 94, 0
1, 462833, Note_on_c, 0, 61, 0
1, 462833, Note_on_c, 0, 49, 0
1, 462913, Note_on_c, 0, 54, 59
1, 462913, Note_on_c, 0, 66, 70
1, 462913, Control_c, 0, 64, 0
1, 462940, Control_c, 0, 64, 127
1, 462991, Note_on_c, 0, 66, 0
1, 462991, Note_on_c, 0, 54, 0
1, 463070, Note_on_c, 0, 71, 54
1, 463070, Note_on_c, 0, 46, 53
1, 463070, Note_on_c, 0, 58, 63
1, 463123, Note_on_c, 0, 71, 0
1, 463123, Note_on_c, 0, 75, 55
1, 463151, Note_on_c, 0, 58, 0
1, 463151, Note_on_c, 0, 46, 0
1, 463179, Note_on_c, 0, 75, 0
1, 463179, Note_on_c, 0, 78, 57
1, 463232, Note_on_c, 0, 78, 0
1, 463232, Note_on_c, 0, 83, 58
1, 463232, Note_on_c, 0, 47, 60
1, 463235, Note_on_c, 0, 59, 71
1, 463240, Control_c, 0, 64, 0
1, 463283, Note_on_c, 0, 83, 0
1, 463283, Note_on_c, 0, 87, 60
1, 463283, Control_c, 0, 64, 127
1, 463334, Note_on_c, 0, 87, 0
1, 463334, Note_on_c, 0, 90, 61
1, 463384, Note_on_c, 0, 90, 0
1, 463384, Note_on_c, 0, 95, 63
1, 463412, Control_c, 0, 64, 0
1, 463489, Note_on_c, 0, 95, 0
1, 463489, Note_on_c, 0, 59, 0
1, 463489, Note_on_c, 0, 47, 0
1, 463573, Note_on_c, 0, 48, 62
1, 463573, Note_on_c, 0, 60, 73
1, 463598, Control_c, 0, 64, 127
1, 463735, Note_on_c, 0, 66, 54
1, 463787, Note_on_c, 0, 66, 0
1, 463787, Note_on_c, 0, 68, 56
1, 463837, Note_on_c, 0, 68, 0
1, 463837, Note_on_c, 0, 74, 57
1, 463887, Note_on_c, 0, 74, 0
1, 463887, Note_on_c, 0, 78, 58
1, 463887, Note_on_c, 0, 60, 0
1, 463890, Note_on_c, 0, 48, 0
1, 463890, Note_on_c, 0, 47, 58
1, 463890, Note_on_c, 0, 59, 69
1, 463939, Note_on_c, 0, 78, 0
1, 463939, Note_on_c, 0, 80, 59
1, 463965, Note_on_c, 0, 59, 0
1, 463965, Note_on_c, 0, 47, 0
1, 463991, Note_on_c, 0, 80, 0
1, 463991, Note_on_c, 0, 86, 60
1, 464042, Note_on_c, 0, 86, 0
1, 464042, Note_on_c, 0, 90, 62
1, 464042, Note_on_c, 0, 45, 52
1, 464045, Note_on_c, 0, 57, 62
1, 464125, Note_on_c, 0, 90, 0
1, 464125, Note_on_c, 0, 57, 0
1, 464125, Note_on_c, 0, 45, 0
1, 464205, Note_on_c, 0, 50, 59
1, 464205, Note_on_c, 0, 62, 70
1, 464205, Control_c, 0, 64, 0
1, 464233, Control_c, 0, 64, 127
1, 464284, Note_on_c, 0, 62, 0
1, 464284, Note_on_c, 0, 50, 0
1, 464362, Note_on_c, 0, 67, 54
1, 464362, Note_on_c, 0, 42, 53
1, 464362, Note_on_c, 0, 54, 63
1, 464415, Note_on_c, 0, 67, 0
1, 464415, Note_on_c, 0, 71, 55
1, 464443, Note_on_c, 0, 54, 0
1, 464443, Note_on_c, 0, 42, 0
1, 464471, Note_on_c, 0, 71, 0
1, 464471, Note_on_c, 0, 74, 57
1, 464524, Note_on_c, 0, 74, 0
1, 464524, Note_on_c, 0, 79, 58
1, 464524, Note_on_c, 0, 43, 60
1, 464527, Note_on_c, 0, 55, 71
1, 464545, Control_c, 0, 64, 0
1, 464576, Note_on_c, 0, 79, 0
1, 464576, Note_on_c, 0, 83, 59
1, 464576, Control_c, 0, 64, 127
1, 464626, Note_on_c, 0, 83, 0
1, 464626, Note_on_c, 0, 86, 60
1, 464677, Note_on_c, 0, 86, 0
1, 464677, Note_on_c, 0, 91, 62
1, 464731, Control_c, 0, 64, 0
1, 464765, Note_on_c, 0, 91, 0
1, 464765, Note_on_c, 0, 55, 0
1, 464765, Note_on_c, 0, 43, 0
1, 464852, Note_on_c, 0, 44, 55
1, 464852, Note_on_c, 0, 56, 65
1, 464924, Control_c, 0, 64, 127
1, 464932, Note_on_c, 0, 59, 45
1, 464932, Note_on_c, 0, 71, 54
1, 464932, Note_on_c, 0, 56, 0
1, 464935, Note_on_c, 0, 44, 0
1, 465012, Note_on_c, 0, 71, 0
1, 465012, Note_on_c, 0, 59, 0
1, 465012, Note_on_c, 0, 50, 46
1, 465015, Note_on_c, 0, 62, 55
1, 465092, Note_on_c, 0, 77, 55
1, 465092, Note_on_c, 0, 65, 46
1, 465092, Note_on_c, 0, 62, 0
1, 465095, Note_on_c, 0, 50, 0
1, 465171, Note_on_c, 0, 65, 0
1, 465171, Note_on_c, 0, 77, 0
1, 465171, Note_on_c, 0, 45, 55
1, 465174, Note_on_c, 0, 57, 65
1, 465185, Control_c, 0, 64, 0
1, 465248, Note_on_c, 0, 72, 56
1, 465248, Note_on_c, 0, 60, 47
1, 465248, Note_on_c, 0, 57, 0
1, 465251, Note_on_c, 0, 45, 0
1, 465255, Control_c, 0, 64, 127
1, 465324, Note_on_c, 0, 60, 0
1, 465324, Note_on_c, 0, 72, 0
1, 465324, Note_on_c, 0, 63, 56
1, 465327, Note_on_c, 0, 51, 47
1, 465399, Note_on_c, 0, 78, 56
1, 465399, Note_on_c, 0, 66, 47
1, 465399, Note_on_c, 0, 51, 0
1, 465402, Note_on_c, 0, 63, 0
1, 465474, Note_on_c, 0, 66, 0
1, 465474, Note_on_c, 0, 78, 0
1, 465474, Note_on_c, 0, 46, 58
1, 465477, Note_on_c, 0, 58, 69
1, 465477, Control_c, 0, 64, 0
1, 465550, Note_on_c, 0, 75, 57
1, 465550, Note_on_c, 0, 63, 48
1, 465550, Note_on_c, 0, 58, 0
1, 465553, Note_on_c, 0, 46, 0
1, 465553, Control_c, 0, 64, 127
1, 465625, Note_on_c, 0, 63, 0
1, 465625, Note_on_c, 0, 75, 0
1, 465625, Note_on_c, 0, 67, 57
1, 465628, Note_on_c, 0, 55, 48
1, 465701, Note_on_c, 0, 82, 57
1, 465701, Note_on_c, 0, 70, 48
1, 465701, Note_on_c, 0, 55, 0
1, 465704, Note_on_c, 0, 67, 0
1, 465777, Note_on_c, 0, 70, 0
1, 465777, Note_on_c, 0, 82, 0
1, 465777, Note_on_c, 0, 63, 69
1, 465780, Note_on_c, 0, 51, 58
1, 465853, Note_on_c, 0, 79, 57
1, 465853, Note_on_c, 0, 67, 48
1, 465853, Note_on_c, 0, 51, 0
1, 465856, Note_on_c, 0, 63, 0
1, 465929, Note_on_c, 0, 67, 0
1, 465929, Note_on_c, 0, 79, 0
1, 465929, Note_on_c, 0, 70, 57
1, 465932, Note_on_c, 0, 58, 48
1, 466007, Note_on_c, 0, 87, 58
1, 466007, Note_on_c, 0, 75, 49
1, 466007, Note_on_c, 0, 58, 0
1, 466010, Note_on_c, 0, 70, 0
1, 466091, Note_on_c, 0, 75, 0
1, 466091, Note_on_c, 0, 87, 0
1, 466091, Note_on_c, 0, 55, 60
1, 466094, Note_on_c, 0, 67, 71
1, 466099, Control_c, 0, 64, 0
1, 466157, Control_c, 0, 64, 127
1, 466166, Note_on_c, 0, 82, 59
1, 466166, Note_on_c, 0, 70, 50
1, 466166, Note_on_c, 0, 67, 0
1, 466169, Note_on_c, 0, 55, 0
1, 466240, Note_on_c, 0, 70, 0
1, 466240, Note_on_c, 0, 82, 0
1, 466240, Note_on_c, 0, 75, 59
1, 466243, Note_on_c, 0, 63, 50
1, 466314, Note_on_c, 0, 91, 59
1, 466314, Note_on_c, 0, 79, 50
1, 466314, Note_on_c, 0, 63, 0
1, 466317, Note_on_c, 0, 75, 0
1, 466389, Note_on_c, 0, 79, 0
1, 466389, Note_on_c, 0, 91, 0
1, 466389, Note_on_c, 0, 70, 72
1, 466392, Note_on_c, 0, 58, 61
1, 466463, Note_on_c, 0, 87, 55
1, 466463, Note_on_c, 0, 75, 55
1, 466463, Note_on_c, 0, 58, 0
1, 466466, Note_on_c, 0, 70, 0
1, 466537, Note_on_c, 0, 75, 0
1, 466537, Note_on_c, 0, 87, 0
1, 466537, Note_on_c, 0, 79, 55
1, 466540, Note_on_c, 0, 67, 55
1, 466613, Note_on_c, 0, 94, 55
1, 466613, Note_on_c, 0, 82, 55
1, 466613, Note_on_c, 0, 67, 0
1, 466616, Note_on_c, 0, 79, 0
1, 466699, Note_on_c, 0, 82, 0
1, 466699, Note_on_c, 0, 94, 0
1, 466699, Note_on_c, 0, 65, 64
1, 466702, Note_on_c, 0, 77, 64
1, 466702, Control_c, 0, 64, 0
1, 466743, Control_c, 0, 64, 127
1, 466774, Note_on_c, 0, 92, 50
1, 466774, Note_on_c, 0, 80, 50
1, 466774, Note_on_c, 0, 77, 0
1, 466777, Note_on_c, 0, 65, 0
1, 466849, Note_on_c, 0, 80, 0
1, 466849, Note_on_c, 0, 92, 0
1, 466849, Note_on_c, 0, 62, 58
1, 466852, Note_on_c, 0, 74, 58
1, 466924, Note_on_c, 0, 89, 50
1, 466924, Note_on_c, 0, 77, 50
1, 466924, Note_on_c, 0, 74, 0
1, 466927, Note_on_c, 0, 62, 0
1, 466999, Note_on_c, 0, 77, 0
1, 466999, Note_on_c, 0, 89, 0
1, 466999, Note_on_c, 0, 58, 57
1, 467002, Note_on_c, 0, 70, 57
1, 467073, Note_on_c, 0, 86, 50
1, 467073, Note_on_c, 0, 74, 50
1, 467073, Note_on_c, 0, 70, 0
1, 467076, Note_on_c, 0, 58, 0
1, 467148, Note_on_c, 0, 74, 0
1, 467148, Note_on_c, 0, 86, 0
1, 467148, Note_on_c, 0, 56, 57
1, 467151, Note_on_c, 0, 68, 57
1, 467223, Note_on_c, 0, 82, 50
1, 467223, Note_on_c, 0, 70, 50
1, 467223, Note_on_c, 0, 68, 0
1, 467226, Note_on_c, 0, 56, 0
1, 467304, Note_on_c, 0, 70, 0
1, 467304, Note_on_c, 0, 82, 0
1, 467304, Note_on_c, 0, 53, 64
1, 467307, Note_on_c, 0, 65, 64
1, 467307, Control_c, 0, 64, 0
1, 467365, Control_c, 0, 64, 127
1, 467378, Note_on_c, 0, 80, 50
1, 467378, Note_on_c, 0, 68, 50
1, 467378, Note_on_c, 0, 65, 0
1, 467381, Note_on_c, 0, 53, 0
1, 467453, Note_on_c, 0, 68, 0
1, 467453, Note_on_c, 0, 80, 0
1, 467453, Note_on_c, 0, 50, 58
1, 467456, Note_on_c, 0, 62, 58
1, 467527, Note_on_c, 0, 77, 50
1, 467527, Note_on_c, 0, 65, 50
1, 467527, Note_on_c, 0, 62, 0
1, 467530, Note_on_c, 0, 50, 0
1, 467602, Note_on_c, 0, 65, 0
1, 467602, Note_on_c, 0, 77, 0
1, 467602, Note_on_c, 0, 46, 57
1, 467605, Note_on_c, 0, 58, 57
1, 467676, Note_on_c, 0, 74, 51
1, 467676, Note_on_c, 0, 62, 51
1, 467676, Note_on_c, 0, 58, 0
1, 467679, Note_on_c, 0, 46, 0
1, 467750, Note_on_c, 0, 62, 0
1, 467750, Note_on_c, 0, 74, 0
1, 467750, Note_on_c, 0, 44, 59
1, 467753, Note_on_c, 0, 56, 59
1, 467825, Note_on_c, 0, 65, 53
1, 467825, Note_on_c, 0, 77, 53
1, 467825, Note_on_c, 0, 56, 0
1, 467828, Note_on_c, 0, 44, 0
1, 467912, Note_on_c, 0, 77, 0
1, 467912, Note_on_c, 0, 65, 0
1, 467912, Note_on_c, 0, 41, 70
1, 467915, Note_on_c, 0, 53, 70
1, 467915, Control_c, 0, 64, 0
1, 467962, Control_c, 0, 64, 127
1, 467987, Note_on_c, 0, 80, 56
1, 467987, Note_on_c, 0, 68, 56
1, 467987, Note_on_c, 0, 53, 0
1, 467990, Note_on_c, 0, 41, 0
1, 468062, Note_on_c, 0, 68, 0
1, 468062, Note_on_c, 0, 80, 0
1, 468062, Note_on_c, 0, 38, 66
1, 468065, Note_on_c, 0, 50, 66
1, 468136, Note_on_c, 0, 82, 58
1, 468136, Note_on_c, 0, 70, 58
1, 468136, Note_on_c, 0, 50, 0
1, 468139, Note_on_c, 0, 38, 0
1, 468211, Note_on_c, 0, 70, 0
1, 468211, Note_on_c, 0, 82, 0
1, 468211, Note_on_c, 0, 34, 68
1, 468214, Note_on_c, 0, 46, 68
1, 468286, Note_on_c, 0, 86, 61
1, 468286, Note_on_c, 0, 74, 61
1, 468286, Note_on_c, 0, 46, 0
1, 468289, Note_on_c, 0, 34, 0
1, 468361, Note_on_c, 0, 74, 0
1, 468361, Note_on_c, 0, 86, 0
1, 468361, Note_on_c, 0, 33, 71
1, 468364, Note_on_c, 0, 45, 71
1, 468436, Note_on_c, 0, 77, 64
1, 468436, Note_on_c, 0, 89, 64
1, 468436, Note_on_c, 0, 45, 0
1, 468439, Note_on_c, 0, 33, 0
1, 468511, Note_on_c, 0, 89, 0
1, 468511, Note_on_c, 0, 77, 0
1, 468511, Note_on_c, 0, 32, 84
1, 468514, Note_on_c, 0, 44, 84
1, 468514, Control_c, 0, 64, 0
1, 468563, Control_c, 0, 64, 127
1, 468586, Note_on_c, 0, 92, 67
1, 468586, Note_on_c, 0, 80, 67
1, 468586, Note_on_c, 0, 44, 0
1, 468589, Note_on_c, 0, 32, 0
1, 468661, Note_on_c, 0, 80, 0
1, 468661, Note_on_c, 0, 92, 0
1, 468661, Note_on_c, 0, 31, 80
1, 468664, Note_on_c, 0, 43, 80
1, 468735, Note_on_c, 0, 94, 70
1, 468735, Note_on_c, 0, 82, 70
1, 468735, Note_on_c, 0, 43, 0
1, 468738, Note_on_c, 0, 31, 0
1, 468810, Note_on_c, 0, 82, 0
1, 468810, Note_on_c, 0, 94, 0
1, 468810, Note_on_c, 0, 29, 81
1, 468813, Note_on_c, 0, 41, 81
1, 468885, Note_on_c, 0, 96, 73
1, 468885, Note_on_c, 0, 84, 73
1, 468885, Note_on_c, 0, 41, 0
1, 468888, Note_on_c, 0, 29, 0
1, 468961, Note_on_c, 0, 84, 0
1, 468961, Note_on_c, 0, 96, 0
1, 468961, Note_on_c, 0, 34, 85
1, 468964, Note_on_c, 0, 46, 85
1, 469039, Note_on_c, 0, 86, 75
1, 469039, Note_on_c, 0, 98, 75
1, 469039, Note_on_c, 0, 46, 0
1, 469042, Note_on_c, 0, 34, 0
1, 469118, Note_on_c, 0, 98, 0
1, 469118, Note_on_c, 0, 86, 0
1, 469118, Note_on_c, 0, 27, 79
1, 469121, Note_on_c, 0, 39, 94
1, 469138, Control_c, 0, 64, 0
1, 469193, Note_on_c, 0, 99, 82
1, 469193, Note_on_c, 0, 87, 70
1, 469193, Note_on_c, 0, 39, 0
1, 469196, Note_on_c, 0, 27, 0
1, 469196, Control_c, 0, 64, 127
1, 469268, Note_on_c, 0, 87, 0
1, 469268, Note_on_c, 0, 99, 0
1, 469268, Note_on_c, 0, 34, 73
1, 469271, Note_on_c, 0, 46, 87
1, 469342, Note_on_c, 0, 101, 73
1, 469342, Note_on_c, 0, 98, 73
1, 469342, Note_on_c, 0, 94, 62
1, 469345, Note_on_c, 0, 89, 62
1, 469345, Note_on_c, 0, 46, 0
1, 469345, Note_on_c, 0, 34, 0
1, 469417, Note_on_c, 0, 89, 0
1, 469417, Note_on_c, 0, 101, 0
1, 469417, Note_on_c, 0, 98, 0
1, 469420, Note_on_c, 0, 94, 0
1, 469420, Note_on_c, 0, 39, 78
1, 469420, Note_on_c, 0, 51, 93
1, 469426, Control_c, 0, 64, 0
1, 469465, Control_c, 0, 64, 127
1, 469492, Note_on_c, 0, 103, 77
1, 469492, Note_on_c, 0, 99, 77
1, 469492, Note_on_c, 0, 94, 66
1, 469495, Note_on_c, 0, 91, 66
1, 469495, Note_on_c, 0, 51, 0
1, 469495, Note_on_c, 0, 39, 0
1, 469567, Note_on_c, 0, 91, 0
1, 469567, Note_on_c, 0, 103, 0
1, 469567, Note_on_c, 0, 99, 0
1, 469570, Note_on_c, 0, 94, 0
1, 469570, Note_on_c, 0, 46, 73
1, 469570, Note_on_c, 0, 58, 87
1, 469642, Note_on_c, 0, 101, 77
1, 469642, Note_on_c, 0, 98, 77
1, 469642, Note_on_c, 0, 94, 66
1, 469645, Note_on_c, 0, 89, 66
1, 469645, Note_on_c, 0, 58, 0
1, 469645, Note_on_c, 0, 46, 0
1, 469721, Note_on_c, 0, 89, 0
1, 469721, Note_on_c, 0, 101, 0
1, 469721, Note_on_c, 0, 98, 0
1, 469724, Note_on_c, 0, 94, 0
1, 469724, Note_on_c, 0, 51, 78
1, 469724, Note_on_c, 0, 63, 93
1, 469724, Control_c, 0, 64, 0
1, 469774, Control_c, 0, 64, 127
1, 469796, Note_on_c, 0, 103, 77
1, 469796, Note_on_c, 0, 99, 77
1, 469796, Note_on_c, 0, 94, 66
1, 469799, Note_on_c, 0, 91, 66
1, 469799, Note_on_c, 0, 63, 0
1, 469799, Note_on_c, 0, 51, 0
1, 469871, Note_on_c, 0, 91, 0
1, 469871, Note_on_c, 0, 103, 0
1, 469871, Note_on_c, 0, 99, 0
1, 469874, Note_on_c, 0, 94, 0
1, 469874, Note_on_c, 0, 46, 69
1, 469874, Note_on_c, 0, 58, 81
1, 469946, Note_on_c, 0, 101, 77
1, 469946, Note_on_c, 0, 98, 77
1, 469946, Note_on_c, 0, 94, 66
1, 469949, Note_on_c, 0, 89, 66
1, 469949, Note_on_c, 0, 58, 0
1, 469949, Note_on_c, 0, 46, 0
1, 470021, Note_on_c, 0, 89, 0
1, 470021, Note_on_c, 0, 101, 0
1, 470021, Note_on_c, 0, 98, 0
1, 470024, Note_on_c, 0, 94, 0
1, 470024, Note_on_c, 0, 39, 74
1, 470024, Note_on_c, 0, 51, 88
1, 470036, Control_c, 0, 64, 0
1, 470096, Note_on_c, 0, 103, 77
1, 470096, Note_on_c, 0, 99, 77
1, 470096, Note_on_c, 0, 91, 66
1, 470099, Note_on_c, 0, 94, 66
1, 470099, Note_on_c, 0, 51, 0
1, 470099, Note_on_c, 0, 39, 0
1, 470102, Control_c, 0, 64, 127
1, 470170, Note_on_c, 0, 94, 0
1, 470170, Note_on_c, 0, 103, 0
1, 470170, Note_on_c, 0, 99, 0
1, 470173, Note_on_c, 0, 91, 0
1, 470173, Note_on_c, 0, 34, 71
1, 470173, Note_on_c, 0, 46, 84
1, 470245, Note_on_c, 0, 101, 77
1, 470245, Note_on_c, 0, 98, 77
1, 470245, Note_on_c, 0, 94, 66
1, 470248, Note_on_c, 0, 89, 66
1, 470248, Note_on_c, 0, 46, 0
1, 470248, Note_on_c, 0, 34, 0
1, 470326, Note_on_c, 0, 89, 0
1, 470326, Note_on_c, 0, 101, 0
1, 470326, Note_on_c, 0, 98, 0
1, 470329, Note_on_c, 0, 94, 0
1, 470329, Note_on_c, 0, 39, 78
1, 470329, Note_on_c, 0, 51, 93
1, 470329, Control_c, 0, 64, 0
1, 470378, Control_c, 0, 64, 127
1, 470400, Note_on_c, 0, 103, 77
1, 470400, Note_on_c, 0, 99, 77
1, 470400, Note_on_c, 0, 94, 66
1, 470403, Note_on_c, 0, 91, 66
1, 470403, Note_on_c, 0, 51, 0
1, 470403, Note_on_c, 0, 39, 0
1, 470475, Note_on_c, 0, 91, 0
1, 470475, Note_on_c, 0, 103, 0
1, 470475, Note_on_c, 0, 99, 0
1, 470478, Note_on_c, 0, 94, 0
1, 470478, Note_on_c, 0, 46, 69
1, 470478, Note_on_c, 0, 58, 81
1, 470550, Note_on_c, 0, 101, 77
1, 470550, Note_on_c, 0, 98, 77
1, 470550, Note_on_c, 0, 94, 66
1, 470553, Note_on_c, 0, 89, 66
1, 470553, Note_on_c, 0, 58, 0
1, 470553, Note_on_c, 0, 46, 0
1, 470625, Note_on_c, 0, 89, 0
1, 470625, Note_on_c, 0, 101, 0
1, 470625, Note_on_c, 0, 98, 0
1, 470628, Note_on_c, 0, 94, 0
1, 470628, Note_on_c, 0, 51, 74
1, 470628, Note_on_c, 0, 63, 88
1, 470641, Control_c, 0, 64, 0
1, 470700, Note_on_c, 0, 103, 77
1, 470700, Note_on_c, 0, 99, 77
1, 470700, Note_on_c, 0, 91, 66
1, 470703, Note_on_c, 0, 94, 66
1, 470703, Note_on_c, 0, 63, 0
1, 470703, Note_on_c, 0, 51, 0
1, 470706, Control_c, 0, 64, 127
1, 470775, Note_on_c, 0, 94, 0
1, 470775, Note_on_c, 0, 103, 0
1, 470775, Note_on_c, 0, 99, 0
1, 470778, Note_on_c, 0, 91, 0
1, 470778, Note_on_c, 0, 46, 71
1, 470778, Note_on_c, 0, 58, 84
1, 470850, Note_on_c, 0, 101, 77
1, 470850, Note_on_c, 0, 98, 77
1, 470850, Note_on_c, 0, 94, 66
1, 470853, Note_on_c, 0, 89, 66
1, 470853, Note_on_c, 0, 58, 0
1, 470853, Note_on_c, 0, 46, 0
1, 470932, Note_on_c, 0, 89, 0
1, 470932, Note_on_c, 0, 101, 0
1, 470932, Note_on_c, 0, 98, 0
1, 470935, Note_on_c, 0, 94, 0
1, 470935, Note_on_c, 0, 39, 78
1, 470935, Note_on_c, 0, 51, 93
1, 470935, Control_c, 0, 64, 0
1, 470984, Control_c, 0, 64, 127
1, 471007, Note_on_c, 0, 103, 77
1, 471007, Note_on_c, 0, 99, 77
1, 471007, Note_on_c, 0, 94, 66
1, 471010, Note_on_c, 0, 91, 66
1, 471010, Note_on_c, 0, 51, 0
1, 471010, Note_on_c, 0, 39, 0
1, 471081, Note_on_c, 0, 91, 0
1, 471081, Note_on_c, 0, 103, 0
1, 471081, Note_on_c, 0, 99, 0
1, 471084, Note_on_c, 0, 94, 0
1, 471084, Note_on_c, 0, 34, 69
1, 471084, Note_on_c, 0, 46, 81
1, 471156, Note_on_c, 0, 101, 77
1, 471156, Note_on_c, 0, 98, 77
1, 471156, Note_on_c, 0, 94, 66
1, 471159, Note_on_c, 0, 89, 66
1, 471159, Note_on_c, 0, 46, 0
1, 471159, Note_on_c, 0, 34, 0
1, 471231, Note_on_c, 0, 89, 0
1, 471231, Note_on_c, 0, 101, 0
1, 471231, Note_on_c, 0, 98, 0
1, 471234, Note_on_c, 0, 94, 0
1, 471234, Note_on_c, 0, 39, 74
1, 471234, Note_on_c, 0, 51, 88
1, 471247, Control_c, 0, 64, 0
1, 471307, Note_on_c, 0, 103, 77
1, 471307, Note_on_c, 0, 99, 77
1, 471307, Note_on_c, 0, 91, 66
1, 471310, Note_on_c, 0, 94, 66
1, 471310, Note_on_c, 0, 51, 0
1, 471310, Note_on_c, 0, 39, 0
1, 471313, Control_c, 0, 64, 127
1, 471383, Note_on_c, 0, 94, 0
1, 471383, Note_on_c, 0, 103, 0
1, 471383, Note_on_c, 0, 99, 0
1, 471386, Note_on_c, 0, 91, 0
1, 471386, Note_on_c, 0, 46, 71
1, 471386, Note_on_c, 0, 58, 84
1, 471462, Note_on_c, 0, 101, 77
1, 471462, Note_on_c, 0, 98, 77
1, 471462, Note_on_c, 0, 94, 66
1, 471465, Note_on_c, 0, 89, 66
1, 471465, Note_on_c, 0, 58, 0
1, 471465, Note_on_c, 0, 46, 0
1, 471541, Note_on_c, 0, 89, 0
1, 471541, Note_on_c, 0, 101, 0
1, 471541, Note_on_c, 0, 98, 0
1, 471544, Note_on_c, 0, 94, 0
1, 471544, Note_on_c, 0, 91, 77
1, 471544, Note_on_c, 0, 94, 77
1, 471547, Note_on_c, 0, 99, 77
1, 471547, Note_on_c, 0, 103, 93
1, 471547, Note_on_c, 0, 51, 78
1, 471550, Note_on_c, 0, 63, 93
1, 471550, Control_c, 0, 64, 0
1, 471598, Control_c, 0, 64, 127
1, 471622, Note_on_c, 0, 63, 0
1, 471622, Note_on_c, 0, 51, 0
1, 471702, Note_on_c, 0, 103, 0
1, 471702, Note_on_c, 0, 91, 0
1, 471702, Note_on_c, 0, 94, 0
1, 471705, Note_on_c, 0, 99, 0
1, 471782, Note_on_c, 0, 70, 68
1, 471782, Note_on_c, 0, 67, 68
1, 471782, Note_on_c, 0, 75, 68
1, 471785, Note_on_c, 0, 79, 80
1, 471785, Note_on_c, 0, 55, 64
1, 471785, Note_on_c, 0, 51, 64
1, 471788, Note_on_c, 0, 58, 64
1, 471788, Note_on_c, 0, 63, 75
1, 471862, Note_on_c, 0, 79, 0
1, 471862, Note_on_c, 0, 70, 0
1, 471862, Note_on_c, 0, 67, 0
1, 471865, Note_on_c, 0, 75, 0
1, 471865, Note_on_c, 0, 67, 75
1, 471865, Note_on_c, 0, 70, 75
1, 471868, Note_on_c, 0, 75, 75
1, 471868, Note_on_c, 0, 79, 89
1, 471868, Note_on_c, 0, 63, 0
1, 471871, Note_on_c, 0, 55, 0
1, 471871, Note_on_c, 0, 51, 0
1, 471871, Note_on_c, 0, 58, 0
1, 471874, Note_on_c, 0, 51, 68
1, 471874, Note_on_c, 0, 55, 68
1, 471874, Note_on_c, 0, 58, 68
1, 471877, Note_on_c, 0, 63, 80
1, 471942, Note_on_c, 0, 79, 0
1, 471942, Note_on_c, 0, 67, 0
1, 471942, Note_on_c, 0, 70, 0
1, 471945, Note_on_c, 0, 75, 0
1, 471945, Note_on_c, 0, 63, 0
1, 471945, Note_on_c, 0, 51, 0
1, 471948, Note_on_c, 0, 55, 0
1, 471948, Note_on_c, 0, 58, 0
1, 472103, Note_on_c, 0, 55, 70
1, 472103, Note_on_c, 0, 58, 70
1, 472103, Note_on_c, 0, 63, 82
1, 472106, Note_on_c, 0, 39, 65
1, 472106, Note_on_c, 0, 46, 65
1, 472106, Note_on_c, 0, 51, 76
1, 472183, Note_on_c, 0, 63, 0
1, 472183, Note_on_c, 0, 58, 0
1, 472183, Note_on_c, 0, 55, 0
1, 472186, Note_on_c, 0, 55, 76
1, 472186, Note_on_c, 0, 58, 76
1, 472186, Note_on_c, 0, 63, 91
1, 472189, Note_on_c, 0, 51, 0
1, 472189, Note_on_c, 0, 46, 0
1, 472189, Note_on_c, 0, 39, 0
1, 472192, Note_on_c, 0, 39, 68
1, 472192, Note_on_c, 0, 46, 68
1, 472192, Note_on_c, 0, 51, 80
1, 472263, Note_on_c, 0, 63, 0
1, 472263, Note_on_c, 0, 58, 0
1, 472263, Note_on_c, 0, 55, 0
1, 472266, Note_on_c, 0, 51, 0
1, 472266, Note_on_c, 0, 46, 0
1, 472266, Note_on_c, 0, 39, 0
1, 472424, Note_on_c, 0, 70, 68
1, 472424, Note_on_c, 0, 75, 68
1, 472424, Note_on_c, 0, 82, 80
1, 472427, Note_on_c, 0, 55, 64
1, 472427, Note_on_c, 0, 58, 64
1, 472427, Note_on_c, 0, 63, 64
1, 472430, Note_on_c, 0, 67, 75
1, 472504, Note_on_c, 0, 82, 0
1, 472504, Note_on_c, 0, 75, 0
1, 472504, Note_on_c, 0, 70, 0
1, 472507, Note_on_c, 0, 70, 75
1, 472507, Note_on_c, 0, 75, 75
1, 472507, Note_on_c, 0, 82, 89
1, 472510, Note_on_c, 0, 67, 0
1, 472510, Note_on_c, 0, 55, 0
1, 472510, Note_on_c, 0, 58, 0
1, 472513, Note_on_c, 0, 63, 0
1, 472513, Note_on_c, 0, 58, 68
1, 472513, Note_on_c, 0, 55, 68
1, 472516, Note_on_c, 0, 63, 68
1, 472516, Note_on_c, 0, 67, 80
1, 472584, Note_on_c, 0, 82, 0
1, 472584, Note_on_c, 0, 75, 0
1, 472584, Note_on_c, 0, 70, 0
1, 472587, Note_on_c, 0, 67, 0
1, 472587, Note_on_c, 0, 58, 0
1, 472587, Note_on_c, 0, 55, 0
1, 472590, Note_on_c, 0, 63, 0
1, 472745, Note_on_c, 0, 55, 70
1, 472745, Note_on_c, 0, 58, 70
1, 472745, Note_on_c, 0, 63, 82
1, 472748, Note_on_c, 0, 39, 65
1, 472748, Note_on_c, 0, 46, 65
1, 472748, Note_on_c, 0, 51, 76
1, 472825, Note_on_c, 0, 63, 0
1, 472825, Note_on_c, 0, 58, 0
1, 472825, Note_on_c, 0, 55, 0
1, 472828, Note_on_c, 0, 55, 76
1, 472828, Note_on_c, 0, 58, 76
1, 472828, Note_on_c, 0, 63, 91
1, 472831, Note_on_c, 0, 51, 0
1, 472831, Note_on_c, 0, 46, 0
1, 472831, Note_on_c, 0, 39, 0
1, 472834, Note_on_c, 0, 39, 68
1, 472834, Note_on_c, 0, 46, 68
1, 472834, Note_on_c, 0, 51, 80
1, 472905, Note_on_c, 0, 63, 0
1, 472905, Note_on_c, 0, 58, 0
1, 472905, Note_on_c, 0, 55, 0
1, 472908, Note_on_c, 0, 51, 0
1, 472908, Note_on_c, 0, 46, 0
1, 472908, Note_on_c, 0, 39, 0
1, 473467, Note_on_c, 0, 75, 84
1, 473467, Note_on_c, 0, 79, 84
1, 473467, Note_on_c, 0, 87, 99
1, 473470, Note_on_c, 0, 55, 74
1, 473470, Note_on_c, 0, 58, 74
1, 473470, Note_on_c, 0, 63, 74
1, 473473, Note_on_c, 0, 67, 88
1, 473547, Note_on_c, 0, 87, 0
1, 473547, Note_on_c, 0, 79, 0
1, 473547, Note_on_c, 0, 75, 0
1, 473550, Note_on_c, 0, 67, 0
1, 473550, Note_on_c, 0, 55, 0
1, 473550, Note_on_c, 0, 58, 0
1, 473553, Note_on_c, 0, 63, 0
1, 474109, Note_on_c, 0, 87, 84
1, 474109, Note_on_c, 0, 91, 84
1, 474109, Note_on_c, 0, 99, 99
1, 474112, Note_on_c, 0, 67, 74
1, 474112, Note_on_c, 0, 70, 74
1, 474112, Note_on_c, 0, 75, 74
1, 474115, Note_on_c, 0, 79, 88
1, 474189, Note_on_c, 0, 99, 0
1, 474189, Note_on_c, 0, 91, 0
1, 474189, Note_on_c, 0, 87, 0
1, 474192, Note_on_c, 0, 79, 0
1, 474192, Note_on_c, 0, 67, 0
1, 474192, Note_on_c, 0, 70, 0
1, 474195, Note_on_c, 0, 75, 0
1, 474590, Control_c, 0, 64, 0
1, 476088, End_track
0, 0, End_of_file
