0, 0, Header, 0, 1, 480
1, 0, Start_track
1, 0, Title_t, "Wandererfantasie D760, 1. Satz"
1, 0, Copyright_t, "Copyright © 2004 by Bernd Krueger"
1, 0, Text_t, "Franz Schubert"
1, 0, Text_t, "Allegro con fuoco ma non troppo"
1, 0, Text_t, "Fertiggestellt am 21.3.2004\012"
1, 0, Text_t, "Update am 15.3.2014\012"
1, 0, Text_t, "Dauer: 5:54 Minuten\012"
1, 0, SMPTE_offset, 96, 0, 3, 0, 0
1, 0, Time_signature, 4, 2, 24, 8
1, 0, Key_signature, 0, "major"
1, 0, Tempo, 412343
1, 0, Program_c, 0, 0
1, 0, Control_c, 0, 7, 100
1, 0, Control_c, 0, 10, 64
1, 0, Note_on_c, 0, 52, 74
1, 0, Note_on_c, 0, 55, 74
1, 0, Note_on_c, 0, 60, 74
1, 0, Note_on_c, 0, 64, 88
1, 0, Control_c, 0, 91, 127
1, 0, Text_t, "bdca426d104a26ac9dcb070447587523"
1, 0, Program_c, 0, 0
1, 0, Control_c, 0, 7, 100
1, 0, Control_c, 0, 10, 64
1, 0, Note_on_c, 0, 36, 55
1, 0, Note_on_c, 0, 43, 55
1, 0, Note_on_c, 0, 48, 64
1, 480, Tempo, 402253
1, 480, Note_on_c, 0, 48, 0
1, 480, Note_on_c, 0, 36, 0
1, 480, Note_on_c, 0, 55, 0
1, 480, Note_on_c, 0, 60, 0
1, 480, Note_on_c, 0, 52, 0
1, 480, Note_on_c, 0, 43, 0
1, 480, Note_on_c, 0, 64, 0
1, 480, Note_on_c, 0, 52, 70
1, 480, Note_on_c, 0, 55, 70
1, 480, Note_on_c, 0, 60, 70
1, 480, Note_on_c, 0, 64, 83
1, 480, Note_on_c, 0, 36, 49
1, 480, Note_on_c, 0, 43, 49
1, 480, Note_on_c, 0, 48, 59
1, 600, Note_on_c, 0, 48, 0
1, 600, Note_on_c, 0, 36, 0
1, 600, Note_on_c, 0, 55, 0
1, 600, Note_on_c, 0, 60, 0
1, 600, Note_on_c, 0, 52, 0
1, 600, Note_on_c, 0, 43, 0
1, 600, Note_on_c, 0, 64, 0
1, 720, Note_on_c, 0, 52, 70
1, 720, Note_on_c, 0, 55, 70
1, 720, Note_on_c, 0, 60, 70
1, 720, Note_on_c, 0, 64, 83
1, 720, Note_on_c, 0, 36, 49
1, 720, Note_on_c, 0, 43, 49
1, 720, Note_on_c, 0, 48, 59
1, 840, Note_on_c, 0, 48, 0
1, 840, Note_on_c, 0, 36, 0
1, 840, Note_on_c, 0, 55, 0
1, 840, Note_on_c, 0, 60, 0
1, 840, Note_on_c, 0, 52, 0
1, 840, Note_on_c, 0, 43, 0
1, 840, Note_on_c, 0, 64, 0
1, 960, Tempo, 412343
1, 960, Note_on_c, 0, 52, 74
1, 960, Note_on_c, 0, 55, 74
1, 960, Note_on_c, 0, 60, 74
1, 960, Note_on_c, 0, 64, 88
1, 960, Note_on_c, 0, 36, 56
1, 960, Note_on_c, 0, 43, 56
1, 960, Note_on_c, 0, 48, 66
1, 1440, Tempo, 402253
1, 1440, Note_on_c, 0, 48, 0
1, 1440, Note_on_c, 0, 36, 0
1, 1440, Note_on_c, 0, 55, 0
1, 1440, Note_on_c, 0, 60, 0
1, 1440, Note_on_c, 0, 52, 0
1, 1440, Note_on_c, 0, 43, 0
1, 1440, Note_on_c, 0, 64, 0
1, 1440, Note_on_c, 0, 52, 69
1, 1440, Note_on_c, 0, 55, 69
1, 1440, Note_on_c, 0, 60, 69
1, 1440, Note_on_c, 0, 64, 82
1, 1440, Note_on_c, 0, 36, 50
1, 1440, Note_on_c, 0, 43, 50
1, 1440, Note_on_c, 0, 48, 60
1, 1560, Note_on_c, 0, 48, 0
1, 1560, Note_on_c, 0, 36, 0
1, 1560, Note_on_c, 0, 55, 0
1, 1560, Note_on_c, 0, 60, 0
1, 1560, Note_on_c, 0, 52, 0
1, 1560, Note_on_c, 0, 43, 0
1, 1560, Note_on_c, 0, 64, 0
1, 1680, Note_on_c, 0, 52, 69
1, 1680, Note_on_c, 0, 55, 69
1, 1680, Note_on_c, 0, 60, 69
1, 1680, Note_on_c, 0, 64, 82
1, 1680, Note_on_c, 0, 36, 50
1, 1680, Note_on_c, 0, 43, 50
1, 1680, Note_on_c, 0, 48, 60
1, 1800, Note_on_c, 0, 48, 0
1, 1800, Note_on_c, 0, 36, 0
1, 1800, Note_on_c, 0, 55, 0
1, 1800, Note_on_c, 0, 60, 0
1, 1800, Note_on_c, 0, 52, 0
1, 1800, Note_on_c, 0, 43, 0
1, 1800, Note_on_c, 0, 64, 0
1, 1920, Tempo, 410874
1, 1920, Note_on_c, 0, 52, 74
1, 1920, Note_on_c, 0, 55, 74
1, 1920, Note_on_c, 0, 60, 74
1, 1920, Note_on_c, 0, 64, 88
1, 1920, Note_on_c, 0, 36, 56
1, 1920, Note_on_c, 0, 43, 56
1, 1920, Note_on_c, 0, 48, 66
1, 1976, Control_c, 0, 64, 127
1, 2160, Note_on_c, 0, 48, 0
1, 2160, Note_on_c, 0, 36, 0
1, 2160, Note_on_c, 0, 55, 0
1, 2160, Note_on_c, 0, 60, 0
1, 2160, Note_on_c, 0, 52, 0
1, 2160, Note_on_c, 0, 43, 0
1, 2160, Note_on_c, 0, 64, 0
1, 2160, Note_on_c, 0, 48, 79
1, 2280, Note_on_c, 0, 48, 0
1, 2280, Note_on_c, 0, 52, 81
1, 2360, Tempo, 409417
1, 2400, Note_on_c, 0, 52, 0
1, 2400, Note_on_c, 0, 55, 83
1, 2440, Tempo, 410874
1, 2480, Tempo, 412343
1, 2520, Tempo, 413822
1, 2520, Note_on_c, 0, 55, 0
1, 2520, Note_on_c, 0, 60, 85
1, 2600, Tempo, 415340
1, 2640, Tempo, 416840
1, 2640, Note_on_c, 0, 60, 0
1, 2640, Note_on_c, 0, 64, 89
1, 2680, Tempo, 418352
1, 2760, Note_on_c, 0, 64, 0
1, 2760, Note_on_c, 0, 67, 91
1, 2880, Note_on_c, 0, 67, 0
1, 2880, Note_on_c, 0, 59, 88
1, 2880, Note_on_c, 0, 71, 88
1, 2890, Control_c, 0, 64, 0
1, 3360, Note_on_c, 0, 71, 0
1, 3360, Note_on_c, 0, 59, 0
1, 3360, Note_on_c, 0, 60, 70
1, 3360, Note_on_c, 0, 72, 84
1, 3480, Note_on_c, 0, 72, 0
1, 3480, Note_on_c, 0, 60, 0
1, 3600, Note_on_c, 0, 60, 70
1, 3600, Note_on_c, 0, 72, 84
1, 3720, Note_on_c, 0, 72, 0
1, 3720, Note_on_c, 0, 60, 0
1, 3840, Tempo, 437956
1, 3840, Note_on_c, 0, 65, 76
1, 3840, Note_on_c, 0, 67, 76
1, 3840, Note_on_c, 0, 71, 91
1, 3840, Note_on_c, 0, 73, 91
1, 3840, Note_on_c, 0, 31, 57
1, 3840, Note_on_c, 0, 43, 68
1, 4080, Note_on_c, 0, 43, 0
1, 4080, Note_on_c, 0, 67, 0
1, 4080, Note_on_c, 0, 71, 0
1, 4080, Note_on_c, 0, 65, 0
1, 4080, Note_on_c, 0, 31, 0
1, 4080, Note_on_c, 0, 73, 0
1, 4320, Note_on_c, 0, 67, 71
1, 4320, Note_on_c, 0, 65, 71
1, 4320, Note_on_c, 0, 71, 85
1, 4320, Note_on_c, 0, 74, 85
1, 4320, Note_on_c, 0, 43, 57
1, 4320, Note_on_c, 0, 55, 68
1, 4560, Note_on_c, 0, 55, 0
1, 4560, Note_on_c, 0, 65, 0
1, 4560, Note_on_c, 0, 71, 0
1, 4560, Note_on_c, 0, 67, 0
1, 4560, Note_on_c, 0, 43, 0
1, 4560, Note_on_c, 0, 74, 0
1, 4866, Tempo, 446097
1, 5760, Tempo, 412343
1, 5760, Note_on_c, 0, 53, 64
1, 5760, Note_on_c, 0, 55, 64
1, 5760, Note_on_c, 0, 59, 64
1, 5760, Note_on_c, 0, 62, 76
1, 5760, Control_c, 0, 91, 127
1, 5760, Text_t, "bdca426d104a26ac9dcb070447587523"
1, 5760, Note_on_c, 0, 31, 47
1, 5760, Note_on_c, 0, 43, 56
1, 6240, Tempo, 402253
1, 6240, Note_on_c, 0, 43, 0
1, 6240, Note_on_c, 0, 55, 0
1, 6240, Note_on_c, 0, 59, 0
1, 6240, Note_on_c, 0, 53, 0
1, 6240, Note_on_c, 0, 31, 0
1, 6240, Note_on_c, 0, 62, 0
1, 6240, Note_on_c, 0, 53, 60
1, 6240, Note_on_c, 0, 55, 60
1, 6240, Note_on_c, 0, 59, 60
1, 6240, Note_on_c, 0, 62, 72
1, 6240, Note_on_c, 0, 31, 42
1, 6240, Note_on_c, 0, 43, 51
1, 6360, Note_on_c, 0, 43, 0
1, 6360, Note_on_c, 0, 55, 0
1, 6360, Note_on_c, 0, 59, 0
1, 6360, Note_on_c, 0, 53, 0
1, 6360, Note_on_c, 0, 31, 0
1, 6360, Note_on_c, 0, 62, 0
1, 6480, Note_on_c, 0, 53, 60
1, 6480, Note_on_c, 0, 55, 60
1, 6480, Note_on_c, 0, 59, 60
1, 6480, Note_on_c, 0, 62, 72
1, 6480, Note_on_c, 0, 31, 42
1, 6480, Note_on_c, 0, 43, 51
1, 6600, Note_on_c, 0, 43, 0
1, 6600, Note_on_c, 0, 55, 0
1, 6600, Note_on_c, 0, 59, 0
1, 6600, Note_on_c, 0, 53, 0
1, 6600, Note_on_c, 0, 31, 0
1, 6600, Note_on_c, 0, 62, 0
1, 6720, Tempo, 412343
1, 6720, Note_on_c, 0, 53, 64
1, 6720, Note_on_c, 0, 55, 64
1, 6720, Note_on_c, 0, 59, 64
1, 6720, Note_on_c, 0, 62, 76
1, 6720, Note_on_c, 0, 31, 48
1, 6720, Note_on_c, 0, 43, 57
1, 7200, Tempo, 402253
1, 7200, Note_on_c, 0, 43, 0
1, 7200, Note_on_c, 0, 55, 0
1, 7200, Note_on_c, 0, 59, 0
1, 7200, Note_on_c, 0, 53, 0
1, 7200, Note_on_c, 0, 31, 0
1, 7200, Note_on_c, 0, 62, 0
1, 7200, Note_on_c, 0, 53, 59
1, 7200, Note_on_c, 0, 55, 59
1, 7200, Note_on_c, 0, 59, 59
1, 7200, Note_on_c, 0, 62, 71
1, 7200, Note_on_c, 0, 31, 43
1, 7200, Note_on_c, 0, 43, 52
1, 7320, Note_on_c, 0, 43, 0
1, 7320, Note_on_c, 0, 55, 0
1, 7320, Note_on_c, 0, 59, 0
1, 7320, Note_on_c, 0, 53, 0
1, 7320, Note_on_c, 0, 31, 0
1, 7320, Note_on_c, 0, 62, 0
1, 7440, Note_on_c, 0, 53, 59
1, 7440, Note_on_c, 0, 55, 59
1, 7440, Note_on_c, 0, 59, 59
1, 7440, Note_on_c, 0, 62, 71
1, 7440, Note_on_c, 0, 31, 43
1, 7440, Note_on_c, 0, 43, 52
1, 7560, Note_on_c, 0, 43, 0
1, 7560, Note_on_c, 0, 55, 0
1, 7560, Note_on_c, 0, 59, 0
1, 7560, Note_on_c, 0, 53, 0
1, 7560, Note_on_c, 0, 31, 0
1, 7560, Note_on_c, 0, 62, 0
1, 7680, Tempo, 410874
1, 7680, Note_on_c, 0, 53, 64
1, 7680, Note_on_c, 0, 55, 64
1, 7680, Note_on_c, 0, 59, 64
1, 7680, Note_on_c, 0, 62, 76
1, 7680, Note_on_c, 0, 31, 48
1, 7680, Note_on_c, 0, 43, 57
1, 7736, Control_c, 0, 64, 127
1, 7920, Note_on_c, 0, 43, 0
1, 7920, Note_on_c, 0, 55, 0
1, 7920, Note_on_c, 0, 59, 0
1, 7920, Note_on_c, 0, 53, 0
1, 7920, Note_on_c, 0, 31, 0
1, 7920, Note_on_c, 0, 62, 0
1, 7920, Note_on_c, 0, 55, 68
1, 8040, Note_on_c, 0, 55, 0
1, 8040, Note_on_c, 0, 59, 70
1, 8120, Tempo, 409417
1, 8160, Note_on_c, 0, 59, 0
1, 8160, Note_on_c, 0, 62, 72
1, 8200, Tempo, 410874
1, 8240, Tempo, 412343
1, 8280, Tempo, 413822
1, 8280, Note_on_c, 0, 62, 0
1, 8280, Note_on_c, 0, 65, 74
1, 8360, Tempo, 415340
1, 8400, Tempo, 416840
1, 8400, Note_on_c, 0, 65, 0
1, 8400, Note_on_c, 0, 67, 76
1, 8440, Tempo, 418352
1, 8520, Note_on_c, 0, 67, 0
1, 8520, Note_on_c, 0, 71, 78
1, 8640, Note_on_c, 0, 71, 0
1, 8640, Note_on_c, 0, 61, 88
1, 8640, Note_on_c, 0, 73, 88
1, 8650, Control_c, 0, 64, 0
1, 9120, Note_on_c, 0, 73, 0
1, 9120, Note_on_c, 0, 61, 0
1, 9120, Note_on_c, 0, 62, 70
1, 9120, Note_on_c, 0, 74, 83
1, 9240, Note_on_c, 0, 74, 0
1, 9240, Note_on_c, 0, 62, 0
1, 9360, Note_on_c, 0, 62, 70
1, 9360, Note_on_c, 0, 74, 83
1, 9480, Note_on_c, 0, 74, 0
1, 9480, Note_on_c, 0, 62, 0
1, 9600, Tempo, 437956
1, 9600, Note_on_c, 0, 63, 77
1, 9600, Note_on_c, 0, 67, 77
1, 9600, Note_on_c, 0, 72, 91
1, 9600, Note_on_c, 0, 75, 91
1, 9600, Note_on_c, 0, 43, 52
1, 9600, Note_on_c, 0, 36, 52
1, 9600, Note_on_c, 0, 48, 62
1, 9840, Note_on_c, 0, 48, 0
1, 9840, Note_on_c, 0, 43, 0
1, 9840, Note_on_c, 0, 67, 0
1, 9840, Note_on_c, 0, 72, 0
1, 9840, Note_on_c, 0, 63, 0
1, 9840, Note_on_c, 0, 36, 0
1, 9840, Note_on_c, 0, 75, 0
1, 10080, Note_on_c, 0, 67, 71
1, 10080, Note_on_c, 0, 64, 71
1, 10080, Note_on_c, 0, 72, 84
1, 10080, Note_on_c, 0, 76, 84
1, 10080, Note_on_c, 0, 55, 50
1, 10080, Note_on_c, 0, 48, 50
1, 10080, Note_on_c, 0, 60, 60
1, 10320, Note_on_c, 0, 60, 0
1, 10320, Note_on_c, 0, 55, 0
1, 10320, Note_on_c, 0, 64, 0
1, 10320, Note_on_c, 0, 72, 0
1, 10320, Note_on_c, 0, 67, 0
1, 10320, Note_on_c, 0, 48, 0
1, 10320, Note_on_c, 0, 76, 0
1, 10760, Tempo, 436364
1, 10800, Tempo, 405405
1, 10800, Note_on_c, 0, 55, 64
1, 10920, Note_on_c, 0, 55, 0
1, 10920, Note_on_c, 0, 60, 66
1, 10920, Control_c, 0, 64, 127
1, 11040, Tempo, 392157
1, 11040, Note_on_c, 0, 60, 0
1, 11040, Note_on_c, 0, 64, 68
1, 11160, Note_on_c, 0, 64, 0
1, 11160, Note_on_c, 0, 67, 70
1, 11280, Note_on_c, 0, 67, 0
1, 11280, Note_on_c, 0, 72, 72
1, 11400, Note_on_c, 0, 72, 0
1, 11400, Note_on_c, 0, 76, 74
1, 11520, Tempo, 413793
1, 11520, Note_on_c, 0, 76, 0
1, 11520, Note_on_c, 0, 67, 66
1, 11520, Note_on_c, 0, 76, 66
1, 11520, Note_on_c, 0, 79, 78
1, 11520, Note_on_c, 0, 36, 50
1, 11520, Note_on_c, 0, 48, 60
1, 12000, Tempo, 404040
1, 12000, Note_on_c, 0, 79, 0
1, 12000, Note_on_c, 0, 67, 0
1, 12000, Note_on_c, 0, 76, 0
1, 12000, Note_on_c, 0, 67, 58
1, 12000, Note_on_c, 0, 76, 58
1, 12000, Note_on_c, 0, 79, 70
1, 12228, Note_on_c, 0, 79, 0
1, 12228, Note_on_c, 0, 67, 0
1, 12228, Note_on_c, 0, 76, 0
1, 12240, Note_on_c, 0, 67, 58
1, 12240, Note_on_c, 0, 76, 58
1, 12240, Note_on_c, 0, 79, 70
1, 12468, Note_on_c, 0, 79, 0
1, 12468, Note_on_c, 0, 67, 0
1, 12468, Note_on_c, 0, 76, 0
1, 12480, Tempo, 412371
1, 12480, Note_on_c, 0, 36, 0
1, 12480, Note_on_c, 0, 48, 0
1, 12480, Note_on_c, 0, 67, 65
1, 12480, Note_on_c, 0, 74, 65
1, 12480, Note_on_c, 0, 79, 78
1, 12480, Note_on_c, 0, 35, 44
1, 12480, Note_on_c, 0, 47, 53
1, 12497, Control_c, 0, 64, 0
1, 12720, Tempo, 442804
1, 12748, Control_c, 0, 64, 127
1, 12960, Tempo, 404040
1, 12960, Note_on_c, 0, 47, 0
1, 12960, Note_on_c, 0, 35, 0
1, 12960, Note_on_c, 0, 47, 57
1, 12960, Note_on_c, 0, 59, 70
1, 13200, Note_on_c, 0, 59, 0
1, 13200, Note_on_c, 0, 67, 0
1, 13200, Note_on_c, 0, 79, 0
1, 13200, Note_on_c, 0, 74, 0
1, 13200, Note_on_c, 0, 47, 0
1, 13200, Note_on_c, 0, 67, 67
1, 13200, Note_on_c, 0, 74, 67
1, 13200, Note_on_c, 0, 79, 80
1, 13200, Note_on_c, 0, 47, 53
1, 13200, Note_on_c, 0, 59, 65
1, 13440, Tempo, 412371
1, 13440, Note_on_c, 0, 59, 0
1, 13440, Note_on_c, 0, 79, 0
1, 13440, Note_on_c, 0, 67, 0
1, 13440, Note_on_c, 0, 74, 0
1, 13440, Note_on_c, 0, 47, 0
1, 13440, Note_on_c, 0, 72, 74
1, 13440, Note_on_c, 0, 79, 74
1, 13440, Note_on_c, 0, 84, 88
1, 13440, Note_on_c, 0, 45, 63
1, 13440, Note_on_c, 0, 57, 72
1, 13444, Control_c, 0, 64, 0
1, 13915, Note_on_c, 0, 57, 0
1, 13915, Note_on_c, 0, 84, 0
1, 13915, Note_on_c, 0, 72, 0
1, 13915, Note_on_c, 0, 79, 0
1, 13915, Note_on_c, 0, 45, 0
1, 13920, Note_on_c, 0, 72, 63
1, 13920, Note_on_c, 0, 78, 63
1, 13920, Note_on_c, 0, 84, 75
1, 13920, Note_on_c, 0, 38, 50
1, 13920, Note_on_c, 0, 50, 61
1, 14148, Note_on_c, 0, 84, 0
1, 14148, Note_on_c, 0, 72, 0
1, 14148, Note_on_c, 0, 78, 0
1, 14160, Note_on_c, 0, 72, 61
1, 14160, Note_on_c, 0, 78, 61
1, 14160, Note_on_c, 0, 84, 73
1, 14388, Note_on_c, 0, 84, 0
1, 14388, Note_on_c, 0, 72, 0
1, 14388, Note_on_c, 0, 78, 0
1, 14400, Tempo, 427046
1, 14400, Note_on_c, 0, 38, 0
1, 14400, Note_on_c, 0, 50, 0
1, 14400, Note_on_c, 0, 71, 64
1, 14400, Note_on_c, 0, 79, 64
1, 14400, Note_on_c, 0, 83, 76
1, 14400, Note_on_c, 0, 43, 48
1, 14400, Note_on_c, 0, 55, 59
1, 14638, Note_on_c, 0, 55, 0
1, 14640, Tempo, 402685
1, 14640, Note_on_c, 0, 83, 0
1, 14640, Note_on_c, 0, 71, 0
1, 14640, Note_on_c, 0, 79, 0
1, 14640, Note_on_c, 0, 43, 0
1, 14640, Note_on_c, 0, 55, 64
1, 14760, Note_on_c, 0, 55, 0
1, 14760, Note_on_c, 0, 60, 66
1, 14760, Control_c, 0, 64, 127
1, 14880, Tempo, 392157
1, 14880, Note_on_c, 0, 60, 0
1, 14880, Note_on_c, 0, 64, 68
1, 15000, Note_on_c, 0, 64, 0
1, 15000, Note_on_c, 0, 67, 70
1, 15120, Note_on_c, 0, 67, 0
1, 15120, Note_on_c, 0, 72, 72
1, 15240, Note_on_c, 0, 72, 0
1, 15240, Note_on_c, 0, 76, 74
1, 15360, Tempo, 413793
1, 15360, Note_on_c, 0, 76, 0
1, 15360, Note_on_c, 0, 67, 66
1, 15360, Note_on_c, 0, 76, 66
1, 15360, Note_on_c, 0, 79, 78
1, 15360, Note_on_c, 0, 36, 50
1, 15360, Note_on_c, 0, 48, 60
1, 15835, Note_on_c, 0, 79, 0
1, 15835, Note_on_c, 0, 67, 0
1, 15835, Note_on_c, 0, 76, 0
1, 15840, Tempo, 404040
1, 15840, Note_on_c, 0, 67, 58
1, 15840, Note_on_c, 0, 76, 58
1, 15840, Note_on_c, 0, 79, 70
1, 16080, Note_on_c, 0, 79, 0
1, 16080, Note_on_c, 0, 67, 0
1, 16080, Note_on_c, 0, 76, 0
1, 16080, Note_on_c, 0, 67, 58
1, 16080, Note_on_c, 0, 76, 58
1, 16080, Note_on_c, 0, 79, 70
1, 16320, Tempo, 412371
1, 16320, Note_on_c, 0, 79, 0
1, 16320, Note_on_c, 0, 67, 0
1, 16320, Note_on_c, 0, 48, 0
1, 16320, Note_on_c, 0, 36, 0
1, 16320, Note_on_c, 0, 76, 0
1, 16320, Note_on_c, 0, 67, 65
1, 16320, Note_on_c, 0, 74, 65
1, 16320, Note_on_c, 0, 79, 78
1, 16320, Note_on_c, 0, 35, 44
1, 16320, Note_on_c, 0, 47, 53
1, 16340, Control_c, 0, 64, 0
1, 16560, Tempo, 442804
1, 16588, Control_c, 0, 64, 127
1, 16800, Tempo, 404040
1, 16800, Note_on_c, 0, 47, 0
1, 16800, Note_on_c, 0, 35, 0
1, 16800, Note_on_c, 0, 47, 55
1, 16800, Note_on_c, 0, 59, 67
1, 17028, Note_on_c, 0, 59, 0
1, 17028, Note_on_c, 0, 47, 0
1, 17040, Note_on_c, 0, 79, 0
1, 17040, Note_on_c, 0, 74, 0
1, 17040, Note_on_c, 0, 67, 0
1, 17040, Note_on_c, 0, 67, 67
1, 17040, Note_on_c, 0, 74, 67
1, 17040, Note_on_c, 0, 79, 80
1, 17040, Note_on_c, 0, 47, 53
1, 17040, Note_on_c, 0, 59, 65
1, 17268, Note_on_c, 0, 59, 0
1, 17268, Note_on_c, 0, 47, 0
1, 17280, Tempo, 412371
1, 17280, Note_on_c, 0, 67, 0
1, 17280, Note_on_c, 0, 74, 0
1, 17280, Note_on_c, 0, 79, 0
1, 17280, Note_on_c, 0, 72, 74
1, 17280, Note_on_c, 0, 79, 74
1, 17280, Note_on_c, 0, 84, 88
1, 17280, Note_on_c, 0, 45, 63
1, 17280, Note_on_c, 0, 57, 72
1, 17285, Control_c, 0, 64, 0
1, 17755, Note_on_c, 0, 57, 0
1, 17755, Note_on_c, 0, 84, 0
1, 17755, Note_on_c, 0, 72, 0
1, 17755, Note_on_c, 0, 79, 0
1, 17755, Note_on_c, 0, 45, 0
1, 17760, Note_on_c, 0, 72, 63
1, 17760, Note_on_c, 0, 78, 63
1, 17760, Note_on_c, 0, 84, 75
1, 17760, Note_on_c, 0, 38, 50
1, 17760, Note_on_c, 0, 50, 61
1, 17988, Note_on_c, 0, 84, 0
1, 17988, Note_on_c, 0, 72, 0
1, 17988, Note_on_c, 0, 78, 0
1, 18000, Note_on_c, 0, 72, 61
1, 18000, Note_on_c, 0, 78, 61
1, 18000, Note_on_c, 0, 84, 73
1, 18228, Note_on_c, 0, 84, 0
1, 18228, Note_on_c, 0, 72, 0
1, 18228, Note_on_c, 0, 78, 0
1, 18240, Note_on_c, 0, 38, 0
1, 18240, Note_on_c, 0, 50, 0
1, 18240, Note_on_c, 0, 71, 64
1, 18240, Note_on_c, 0, 79, 64
1, 18240, Note_on_c, 0, 83, 76
1, 18240, Note_on_c, 0, 43, 48
1, 18240, Note_on_c, 0, 55, 59
1, 18480, Tempo, 402685
1, 18480, Note_on_c, 0, 55, 0
1, 18480, Note_on_c, 0, 83, 0
1, 18480, Note_on_c, 0, 71, 0
1, 18480, Note_on_c, 0, 79, 0
1, 18480, Note_on_c, 0, 43, 0
1, 18480, Note_on_c, 0, 60, 64
1, 18600, Note_on_c, 0, 60, 0
1, 18600, Note_on_c, 0, 65, 66
1, 18600, Control_c, 0, 64, 127
1, 18720, Tempo, 392157
1, 18720, Note_on_c, 0, 65, 0
1, 18720, Note_on_c, 0, 69, 68
1, 18840, Note_on_c, 0, 69, 0
1, 18840, Note_on_c, 0, 72, 70
1, 18960, Note_on_c, 0, 72, 0
1, 18960, Note_on_c, 0, 77, 72
1, 19080, Note_on_c, 0, 77, 0
1, 19080, Note_on_c, 0, 81, 74
1, 19200, Tempo, 413793
1, 19200, Note_on_c, 0, 81, 0
1, 19200, Note_on_c, 0, 72, 72
1, 19200, Note_on_c, 0, 81, 72
1, 19200, Note_on_c, 0, 84, 85
1, 19200, Note_on_c, 0, 41, 50
1, 19200, Note_on_c, 0, 53, 60
1, 19675, Note_on_c, 0, 84, 0
1, 19675, Note_on_c, 0, 72, 0
1, 19675, Note_on_c, 0, 81, 0
1, 19680, Tempo, 404040
1, 19680, Note_on_c, 0, 72, 63
1, 19680, Note_on_c, 0, 81, 63
1, 19680, Note_on_c, 0, 84, 77
1, 19908, Note_on_c, 0, 84, 0
1, 19908, Note_on_c, 0, 72, 0
1, 19908, Note_on_c, 0, 81, 0
1, 19920, Note_on_c, 0, 72, 63
1, 19920, Note_on_c, 0, 81, 63
1, 19920, Note_on_c, 0, 84, 77
1, 20148, Note_on_c, 0, 84, 0
1, 20148, Note_on_c, 0, 72, 0
1, 20148, Note_on_c, 0, 81, 0
1, 20160, Tempo, 412371
1, 20160, Note_on_c, 0, 41, 0
1, 20160, Note_on_c, 0, 53, 0
1, 20160, Note_on_c, 0, 72, 71
1, 20160, Note_on_c, 0, 79, 71
1, 20160, Note_on_c, 0, 84, 85
1, 20160, Note_on_c, 0, 40, 44
1, 20160, Note_on_c, 0, 52, 53
1, 20170, Control_c, 0, 64, 0
1, 20400, Tempo, 442804
1, 20428, Control_c, 0, 64, 127
1, 20640, Tempo, 427046
1, 20640, Note_on_c, 0, 52, 0
1, 20640, Note_on_c, 0, 40, 0
1, 20640, Note_on_c, 0, 52, 57
1, 20640, Note_on_c, 0, 64, 70
1, 20868, Note_on_c, 0, 64, 0
1, 20868, Note_on_c, 0, 52, 0
1, 20880, Note_on_c, 0, 84, 0
1, 20880, Note_on_c, 0, 79, 0
1, 20880, Note_on_c, 0, 72, 0
1, 20880, Note_on_c, 0, 72, 73
1, 20880, Note_on_c, 0, 79, 73
1, 20880, Note_on_c, 0, 84, 88
1, 20880, Note_on_c, 0, 52, 53
1, 20880, Note_on_c, 0, 64, 65
1, 21108, Note_on_c, 0, 64, 0
1, 21108, Note_on_c, 0, 52, 0
1, 21120, Tempo, 412371
1, 21120, Note_on_c, 0, 72, 0
1, 21120, Note_on_c, 0, 79, 0
1, 21120, Note_on_c, 0, 84, 0
1, 21120, Note_on_c, 0, 77, 81
1, 21120, Note_on_c, 0, 84, 81
1, 21120, Note_on_c, 0, 89, 96
1, 21120, Control_c, 0, 64, 0
1, 21120, Note_on_c, 0, 50, 63
1, 21120, Note_on_c, 0, 62, 72
1, 21595, Note_on_c, 0, 62, 0
1, 21595, Note_on_c, 0, 89, 0
1, 21595, Note_on_c, 0, 77, 0
1, 21595, Note_on_c, 0, 84, 0
1, 21595, Note_on_c, 0, 50, 0
1, 21600, Note_on_c, 0, 77, 75
1, 21600, Note_on_c, 0, 83, 75
1, 21600, Note_on_c, 0, 89, 90
1, 21600, Note_on_c, 0, 43, 54
1, 21600, Note_on_c, 0, 55, 67
1, 21828, Note_on_c, 0, 89, 0
1, 21828, Note_on_c, 0, 77, 0
1, 21828, Note_on_c, 0, 83, 0
1, 21840, Note_on_c, 0, 77, 73
1, 21840, Note_on_c, 0, 83, 73
1, 21840, Note_on_c, 0, 89, 88
1, 22068, Note_on_c, 0, 89, 0
1, 22068, Note_on_c, 0, 77, 0
1, 22068, Note_on_c, 0, 83, 0
1, 22080, Note_on_c, 0, 43, 0
1, 22080, Note_on_c, 0, 55, 0
1, 22080, Note_on_c, 0, 76, 76
1, 22080, Note_on_c, 0, 83, 76
1, 22080, Note_on_c, 0, 88, 92
1, 22080, Note_on_c, 0, 48, 52
1, 22080, Note_on_c, 0, 60, 65
1, 22555, Note_on_c, 0, 88, 0
1, 22555, Note_on_c, 0, 76, 0
1, 22555, Note_on_c, 0, 83, 0
1, 22560, Tempo, 404040
1, 22560, Note_on_c, 0, 48, 0
1, 22560, Note_on_c, 0, 60, 0
1, 22560, Note_on_c, 0, 88, 88
1, 22560, Note_on_c, 0, 81, 73
1, 22560, Note_on_c, 0, 76, 73
1, 22560, Note_on_c, 0, 41, 57
1, 22560, Note_on_c, 0, 53, 70
1, 22788, Note_on_c, 0, 53, 0
1, 22788, Note_on_c, 0, 41, 0
1, 22800, Note_on_c, 0, 41, 53
1, 22800, Note_on_c, 0, 53, 65
1, 23028, Note_on_c, 0, 53, 0
1, 23028, Note_on_c, 0, 41, 0
1, 23035, Note_on_c, 0, 76, 0
1, 23035, Note_on_c, 0, 81, 0
1, 23035, Note_on_c, 0, 88, 0
1, 23040, Tempo, 412371
1, 23040, Note_on_c, 0, 74, 81
1, 23040, Note_on_c, 0, 81, 81
1, 23040, Note_on_c, 0, 86, 95
1, 23040, Note_on_c, 0, 47, 62
1, 23040, Note_on_c, 0, 59, 71
1, 23043, Control_c, 0, 64, 0
1, 23520, Note_on_c, 0, 59, 0
1, 23520, Note_on_c, 0, 86, 0
1, 23520, Note_on_c, 0, 74, 0
1, 23520, Note_on_c, 0, 81, 0
1, 23520, Note_on_c, 0, 47, 0
1, 23520, Note_on_c, 0, 74, 74
1, 23520, Note_on_c, 0, 80, 74
1, 23520, Note_on_c, 0, 86, 88
1, 23520, Note_on_c, 0, 40, 53
1, 23520, Note_on_c, 0, 52, 65
1, 23748, Note_on_c, 0, 86, 0
1, 23748, Note_on_c, 0, 74, 0
1, 23748, Note_on_c, 0, 80, 0
1, 23760, Note_on_c, 0, 74, 71
1, 23760, Note_on_c, 0, 80, 71
1, 23760, Note_on_c, 0, 86, 85
1, 23988, Note_on_c, 0, 86, 0
1, 23988, Note_on_c, 0, 74, 0
1, 23988, Note_on_c, 0, 80, 0
1, 24000, Note_on_c, 0, 40, 0
1, 24000, Note_on_c, 0, 52, 0
1, 24000, Note_on_c, 0, 72, 74
1, 24000, Note_on_c, 0, 81, 74
1, 24000, Note_on_c, 0, 84, 89
1, 24000, Note_on_c, 0, 45, 51
1, 24000, Note_on_c, 0, 57, 63
1, 24480, Tempo, 413793
1, 24480, Note_on_c, 0, 57, 0
1, 24480, Note_on_c, 0, 84, 0
1, 24480, Note_on_c, 0, 72, 0
1, 24480, Note_on_c, 0, 81, 0
1, 24480, Note_on_c, 0, 45, 0
1, 24480, Note_on_c, 0, 81, 67
1, 24480, Note_on_c, 0, 72, 56
1, 24480, Note_on_c, 0, 69, 56
1, 24480, Note_on_c, 0, 33, 44
1, 24480, Note_on_c, 0, 45, 53
1, 24600, Note_on_c, 0, 45, 0
1, 24600, Note_on_c, 0, 33, 0
1, 24720, Note_on_c, 0, 31, 40
1, 24720, Note_on_c, 0, 43, 49
1, 24840, Note_on_c, 0, 43, 0
1, 24840, Note_on_c, 0, 31, 0
1, 24960, Tempo, 418118
1, 24960, Note_on_c, 0, 69, 0
1, 24960, Note_on_c, 0, 72, 0
1, 24960, Note_on_c, 0, 81, 0
1, 24960, Note_on_c, 0, 69, 35
1, 24960, Note_on_c, 0, 76, 42
1, 24960, Note_on_c, 0, 29, 34
1, 25024, Control_c, 0, 64, 127
1, 25040, Tempo, 416667
1, 25080, Note_on_c, 0, 29, 0
1, 25080, Note_on_c, 0, 76, 0
1, 25080, Note_on_c, 0, 69, 0
1, 25080, Note_on_c, 0, 81, 44
1, 25080, Note_on_c, 0, 41, 35
1, 25120, Tempo, 415225
1, 25160, Tempo, 413793
1, 25200, Note_on_c, 0, 41, 0
1, 25200, Note_on_c, 0, 81, 0
1, 25200, Note_on_c, 0, 69, 38
1, 25200, Note_on_c, 0, 76, 45
1, 25200, Note_on_c, 0, 29, 37
1, 25240, Tempo, 412371
1, 25280, Tempo, 410959
1, 25320, Note_on_c, 0, 29, 0
1, 25320, Note_on_c, 0, 76, 0
1, 25320, Note_on_c, 0, 69, 0
1, 25320, Note_on_c, 0, 81, 47
1, 25320, Note_on_c, 0, 41, 38
1, 25360, Tempo, 409556
1, 25440, Tempo, 408163
1, 25440, Note_on_c, 0, 41, 0
1, 25440, Note_on_c, 0, 81, 0
1, 25440, Note_on_c, 0, 69, 41
1, 25440, Note_on_c, 0, 76, 49
1, 25440, Note_on_c, 0, 29, 39
1, 25480, Tempo, 406780
1, 25560, Tempo, 405405
1, 25560, Note_on_c, 0, 29, 0
1, 25560, Note_on_c, 0, 76, 0
1, 25560, Note_on_c, 0, 69, 0
1, 25560, Note_on_c, 0, 81, 51
1, 25560, Note_on_c, 0, 41, 41
1, 25600, Tempo, 404040
1, 25680, Tempo, 402685
1, 25680, Note_on_c, 0, 41, 0
1, 25680, Note_on_c, 0, 81, 0
1, 25680, Note_on_c, 0, 69, 45
1, 25680, Note_on_c, 0, 76, 53
1, 25680, Note_on_c, 0, 29, 42
1, 25760, Tempo, 401338
1, 25800, Tempo, 400000
1, 25800, Note_on_c, 0, 29, 0
1, 25800, Note_on_c, 0, 76, 0
1, 25800, Note_on_c, 0, 69, 0
1, 25800, Note_on_c, 0, 81, 54
1, 25800, Note_on_c, 0, 41, 44
1, 25880, Tempo, 398671
1, 25920, Tempo, 397351
1, 25920, Note_on_c, 0, 41, 0
1, 25920, Note_on_c, 0, 81, 0
1, 25920, Note_on_c, 0, 69, 47
1, 25920, Note_on_c, 0, 76, 56
1, 25920, Note_on_c, 0, 29, 45
1, 26040, Tempo, 396040
1, 26040, Note_on_c, 0, 29, 0
1, 26040, Note_on_c, 0, 76, 0
1, 26040, Note_on_c, 0, 69, 0
1, 26040, Note_on_c, 0, 81, 58
1, 26040, Note_on_c, 0, 41, 47
1, 26160, Note_on_c, 0, 41, 0
1, 26160, Note_on_c, 0, 81, 0
1, 26160, Note_on_c, 0, 69, 51
1, 26160, Note_on_c, 0, 76, 60
1, 26160, Note_on_c, 0, 29, 48
1, 26240, Tempo, 394737
1, 26280, Note_on_c, 0, 29, 0
1, 26280, Note_on_c, 0, 76, 0
1, 26280, Note_on_c, 0, 69, 0
1, 26280, Note_on_c, 0, 81, 62
1, 26280, Note_on_c, 0, 41, 50
1, 26400, Note_on_c, 0, 41, 0
1, 26400, Note_on_c, 0, 81, 0
1, 26400, Note_on_c, 0, 69, 53
1, 26400, Note_on_c, 0, 76, 63
1, 26400, Note_on_c, 0, 29, 51
1, 26480, Tempo, 393443
1, 26520, Note_on_c, 0, 29, 0
1, 26520, Note_on_c, 0, 76, 0
1, 26520, Note_on_c, 0, 69, 0
1, 26520, Note_on_c, 0, 81, 65
1, 26520, Note_on_c, 0, 41, 52
1, 26640, Note_on_c, 0, 41, 0
1, 26640, Note_on_c, 0, 81, 0
1, 26640, Note_on_c, 0, 69, 56
1, 26640, Note_on_c, 0, 76, 67
1, 26640, Note_on_c, 0, 29, 54
1, 26680, Tempo, 392157
1, 26760, Note_on_c, 0, 29, 0
1, 26760, Note_on_c, 0, 76, 0
1, 26760, Note_on_c, 0, 69, 0
1, 26760, Note_on_c, 0, 81, 69
1, 26760, Note_on_c, 0, 41, 55
1, 26880, Tempo, 388350
1, 26880, Note_on_c, 0, 41, 0
1, 26880, Note_on_c, 0, 81, 0
1, 26880, Note_on_c, 0, 69, 62
1, 26880, Note_on_c, 0, 75, 73
1, 26880, Note_on_c, 0, 42, 61
1, 26904, Control_c, 0, 64, 0
1, 26926, Control_c, 0, 64, 127
1, 27000, Note_on_c, 0, 42, 0
1, 27000, Note_on_c, 0, 75, 0
1, 27000, Note_on_c, 0, 69, 0
1, 27000, Note_on_c, 0, 81, 74
1, 27000, Note_on_c, 0, 43, 62
1, 27040, Tempo, 387097
1, 27120, Note_on_c, 0, 43, 0
1, 27120, Note_on_c, 0, 81, 0
1, 27120, Note_on_c, 0, 69, 63
1, 27120, Note_on_c, 0, 75, 75
1, 27120, Note_on_c, 0, 44, 63
1, 27160, Tempo, 385852
1, 27240, Note_on_c, 0, 44, 0
1, 27240, Note_on_c, 0, 75, 0
1, 27240, Note_on_c, 0, 69, 0
1, 27240, Note_on_c, 0, 81, 76
1, 27240, Note_on_c, 0, 45, 64
1, 27320, Tempo, 384615
1, 27360, Note_on_c, 0, 45, 0
1, 27360, Note_on_c, 0, 81, 0
1, 27360, Note_on_c, 0, 69, 66
1, 27360, Note_on_c, 0, 75, 78
1, 27360, Note_on_c, 0, 46, 66
1, 27440, Tempo, 383387
1, 27480, Note_on_c, 0, 46, 0
1, 27480, Note_on_c, 0, 75, 0
1, 27480, Note_on_c, 0, 69, 0
1, 27480, Note_on_c, 0, 81, 80
1, 27480, Note_on_c, 0, 47, 67
1, 27600, Note_on_c, 0, 47, 0
1, 27600, Note_on_c, 0, 81, 0
1, 27600, Note_on_c, 0, 69, 69
1, 27600, Note_on_c, 0, 75, 81
1, 27600, Note_on_c, 0, 48, 69
1, 27640, Tempo, 384615
1, 27720, Note_on_c, 0, 48, 0
1, 27720, Note_on_c, 0, 75, 0
1, 27720, Note_on_c, 0, 69, 0
1, 27720, Note_on_c, 0, 81, 83
1, 27720, Note_on_c, 0, 49, 70
1, 27840, Tempo, 385852
1, 27840, Note_on_c, 0, 49, 0
1, 27840, Note_on_c, 0, 81, 0
1, 27840, Note_on_c, 0, 69, 71
1, 27840, Note_on_c, 0, 75, 85
1, 27840, Note_on_c, 0, 50, 72
1, 27960, Note_on_c, 0, 50, 0
1, 27960, Note_on_c, 0, 75, 0
1, 27960, Note_on_c, 0, 69, 0
1, 27960, Note_on_c, 0, 81, 86
1, 27960, Note_on_c, 0, 51, 73
1, 28040, Tempo, 387097
1, 28080, Note_on_c, 0, 51, 0
1, 28080, Note_on_c, 0, 81, 0
1, 28080, Note_on_c, 0, 69, 74
1, 28080, Note_on_c, 0, 75, 87
1, 28080, Note_on_c, 0, 52, 75
1, 28200, Note_on_c, 0, 52, 0
1, 28200, Note_on_c, 0, 75, 0
1, 28200, Note_on_c, 0, 69, 0
1, 28200, Note_on_c, 0, 81, 89
1, 28200, Note_on_c, 0, 53, 76
1, 28240, Tempo, 388350
1, 28320, Tempo, 408163
1, 28320, Note_on_c, 0, 53, 0
1, 28320, Note_on_c, 0, 81, 0
1, 28320, Note_on_c, 0, 69, 77
1, 28320, Note_on_c, 0, 75, 90
1, 28320, Note_on_c, 0, 81, 90
1, 28320, Note_on_c, 0, 41, 66
1, 28320, Note_on_c, 0, 53, 78
1, 28329, Control_c, 0, 64, 0
1, 28560, Note_on_c, 0, 53, 0
1, 28560, Note_on_c, 0, 81, 0
1, 28560, Note_on_c, 0, 69, 0
1, 28560, Note_on_c, 0, 75, 0
1, 28560, Note_on_c, 0, 41, 0
1, 28560, Note_on_c, 0, 69, 78
1, 28560, Note_on_c, 0, 75, 93
1, 28560, Note_on_c, 0, 81, 93
1, 28560, Note_on_c, 0, 41, 66
1, 28560, Note_on_c, 0, 53, 79
1, 28800, Tempo, 424028
1, 28800, Note_on_c, 0, 53, 0
1, 28800, Note_on_c, 0, 81, 0
1, 28800, Note_on_c, 0, 69, 0
1, 28800, Note_on_c, 0, 75, 0
1, 28800, Note_on_c, 0, 41, 0
1, 28800, Note_on_c, 0, 69, 84
1, 28800, Note_on_c, 0, 75, 84
1, 28800, Note_on_c, 0, 81, 100
1, 28800, Note_on_c, 0, 41, 74
1, 28800, Note_on_c, 0, 53, 88
1, 28920, Note_on_c, 0, 53, 0
1, 28920, Note_on_c, 0, 81, 0
1, 28920, Note_on_c, 0, 69, 0
1, 28920, Note_on_c, 0, 75, 0
1, 28920, Note_on_c, 0, 41, 0
1, 29040, Tempo, 406780
1, 29040, Note_on_c, 0, 71, 75
1, 29040, Note_on_c, 0, 75, 75
1, 29040, Note_on_c, 0, 83, 90
1, 29040, Note_on_c, 0, 81, 90
1, 29040, Note_on_c, 0, 53, 68
1, 29040, Note_on_c, 0, 65, 81
1, 29160, Note_on_c, 0, 65, 0
1, 29160, Note_on_c, 0, 75, 0
1, 29160, Note_on_c, 0, 83, 0
1, 29160, Note_on_c, 0, 71, 0
1, 29160, Note_on_c, 0, 53, 0
1, 29160, Note_on_c, 0, 81, 0
1, 29280, Tempo, 413793
1, 29280, Note_on_c, 0, 71, 75
1, 29280, Note_on_c, 0, 75, 75
1, 29280, Note_on_c, 0, 81, 90
1, 29280, Note_on_c, 0, 83, 90
1, 29280, Note_on_c, 0, 53, 68
1, 29280, Note_on_c, 0, 65, 81
1, 29400, Note_on_c, 0, 65, 0
1, 29400, Note_on_c, 0, 75, 0
1, 29400, Note_on_c, 0, 81, 0
1, 29400, Note_on_c, 0, 71, 0
1, 29400, Note_on_c, 0, 53, 0
1, 29400, Note_on_c, 0, 83, 0
1, 29520, Tempo, 406780
1, 29520, Note_on_c, 0, 71, 75
1, 29520, Note_on_c, 0, 75, 75
1, 29520, Note_on_c, 0, 81, 90
1, 29520, Note_on_c, 0, 83, 90
1, 29520, Note_on_c, 0, 53, 68
1, 29520, Note_on_c, 0, 65, 81
1, 29640, Note_on_c, 0, 65, 0
1, 29640, Note_on_c, 0, 75, 0
1, 29640, Note_on_c, 0, 81, 0
1, 29640, Note_on_c, 0, 71, 0
1, 29640, Note_on_c, 0, 53, 0
1, 29640, Note_on_c, 0, 83, 0
1, 29760, Note_on_c, 0, 71, 75
1, 29760, Note_on_c, 0, 75, 75
1, 29760, Note_on_c, 0, 81, 90
1, 29760, Note_on_c, 0, 83, 90
1, 29760, Note_on_c, 0, 53, 68
1, 29760, Note_on_c, 0, 65, 81
1, 29880, Note_on_c, 0, 65, 0
1, 29880, Note_on_c, 0, 75, 0
1, 29880, Note_on_c, 0, 81, 0
1, 29880, Note_on_c, 0, 71, 0
1, 29880, Note_on_c, 0, 53, 0
1, 29880, Note_on_c, 0, 83, 0
1, 30000, Note_on_c, 0, 71, 75
1, 30000, Note_on_c, 0, 75, 75
1, 30000, Note_on_c, 0, 81, 90
1, 30000, Note_on_c, 0, 83, 90
1, 30000, Note_on_c, 0, 53, 68
1, 30000, Note_on_c, 0, 65, 81
1, 30120, Note_on_c, 0, 65, 0
1, 30120, Note_on_c, 0, 75, 0
1, 30120, Note_on_c, 0, 81, 0
1, 30120, Note_on_c, 0, 71, 0
1, 30120, Note_on_c, 0, 53, 0
1, 30120, Note_on_c, 0, 83, 0
1, 30240, Tempo, 415225
1, 30240, Note_on_c, 0, 71, 75
1, 30240, Note_on_c, 0, 75, 75
1, 30240, Note_on_c, 0, 81, 90
1, 30240, Note_on_c, 0, 83, 90
1, 30240, Note_on_c, 0, 53, 68
1, 30240, Note_on_c, 0, 65, 81
1, 30360, Note_on_c, 0, 65, 0
1, 30360, Note_on_c, 0, 75, 0
1, 30360, Note_on_c, 0, 81, 0
1, 30360, Note_on_c, 0, 71, 0
1, 30360, Note_on_c, 0, 53, 0
1, 30360, Note_on_c, 0, 83, 0
1, 30480, Note_on_c, 0, 71, 75
1, 30480, Note_on_c, 0, 75, 75
1, 30480, Note_on_c, 0, 81, 90
1, 30480, Note_on_c, 0, 83, 90
1, 30480, Note_on_c, 0, 53, 68
1, 30480, Note_on_c, 0, 65, 81
1, 30600, Note_on_c, 0, 65, 0
1, 30600, Note_on_c, 0, 75, 0
1, 30600, Note_on_c, 0, 81, 0
1, 30600, Note_on_c, 0, 71, 0
1, 30600, Note_on_c, 0, 53, 0
1, 30600, Note_on_c, 0, 83, 0
1, 30720, Tempo, 418118
1, 30720, Note_on_c, 0, 71, 85
1, 30720, Note_on_c, 0, 76, 85
1, 30720, Note_on_c, 0, 80, 85
1, 30720, Note_on_c, 0, 83, 101
1, 30720, Note_on_c, 0, 64, 91
1, 30720, Note_on_c, 0, 52, 77
1, 30960, Note_on_c, 0, 52, 0
1, 30960, Note_on_c, 0, 76, 0
1, 30960, Note_on_c, 0, 80, 0
1, 30960, Note_on_c, 0, 71, 0
1, 30960, Note_on_c, 0, 64, 0
1, 30960, Note_on_c, 0, 83, 0
1, 31200, Note_on_c, 0, 88, 102
1, 31200, Note_on_c, 0, 83, 86
1, 31200, Note_on_c, 0, 80, 86
1, 31200, Note_on_c, 0, 76, 86
1, 31200, Note_on_c, 0, 40, 74
1, 31200, Note_on_c, 0, 52, 88
1, 31440, Note_on_c, 0, 52, 0
1, 31440, Note_on_c, 0, 83, 0
1, 31440, Note_on_c, 0, 80, 0
1, 31440, Note_on_c, 0, 88, 0
1, 31440, Note_on_c, 0, 40, 0
1, 31440, Note_on_c, 0, 76, 0
1, 32640, Tempo, 412343
1, 32640, Note_on_c, 0, 52, 29
1, 32640, Note_on_c, 0, 55, 29
1, 32640, Note_on_c, 0, 60, 29
1, 32640, Note_on_c, 0, 64, 36
1, 32640, Control_c, 0, 91, 127
1, 32640, Text_t, "bdca426d104a26ac9dcb070447587523"
1, 32640, Note_on_c, 0, 36, 22
1, 32640, Note_on_c, 0, 43, 22
1, 32640, Note_on_c, 0, 48, 25
1, 33115, Note_on_c, 0, 48, 0
1, 33115, Note_on_c, 0, 36, 0
1, 33115, Note_on_c, 0, 55, 0
1, 33115, Note_on_c, 0, 60, 0
1, 33115, Note_on_c, 0, 52, 0
1, 33115, Note_on_c, 0, 43, 0
1, 33115, Note_on_c, 0, 64, 0
1, 33120, Tempo, 402253
1, 33120, Note_on_c, 0, 52, 28
1, 33120, Note_on_c, 0, 55, 28
1, 33120, Note_on_c, 0, 60, 28
1, 33120, Note_on_c, 0, 64, 34
1, 33120, Note_on_c, 0, 36, 19
1, 33120, Note_on_c, 0, 43, 19
1, 33120, Note_on_c, 0, 48, 23
1, 33240, Note_on_c, 0, 48, 0
1, 33240, Note_on_c, 0, 36, 0
1, 33240, Note_on_c, 0, 55, 0
1, 33240, Note_on_c, 0, 60, 0
1, 33240, Note_on_c, 0, 52, 0
1, 33240, Note_on_c, 0, 43, 0
1, 33240, Note_on_c, 0, 64, 0
1, 33360, Note_on_c, 0, 52, 28
1, 33360, Note_on_c, 0, 55, 28
1, 33360, Note_on_c, 0, 60, 28
1, 33360, Note_on_c, 0, 64, 34
1, 33360, Note_on_c, 0, 36, 19
1, 33360, Note_on_c, 0, 43, 19
1, 33360, Note_on_c, 0, 48, 23
1, 33480, Note_on_c, 0, 48, 0
1, 33480, Note_on_c, 0, 36, 0
1, 33480, Note_on_c, 0, 55, 0
1, 33480, Note_on_c, 0, 60, 0
1, 33480, Note_on_c, 0, 52, 0
1, 33480, Note_on_c, 0, 43, 0
1, 33480, Note_on_c, 0, 64, 0
1, 33600, Tempo, 412343
1, 33600, Note_on_c, 0, 52, 29
1, 33600, Note_on_c, 0, 55, 29
1, 33600, Note_on_c, 0, 60, 29
1, 33600, Note_on_c, 0, 64, 36
1, 33600, Note_on_c, 0, 36, 22
1, 33600, Note_on_c, 0, 43, 22
1, 33600, Note_on_c, 0, 48, 26
1, 34075, Note_on_c, 0, 48, 0
1, 34075, Note_on_c, 0, 36, 0
1, 34075, Note_on_c, 0, 55, 0
1, 34075, Note_on_c, 0, 60, 0
1, 34075, Note_on_c, 0, 52, 0
1, 34075, Note_on_c, 0, 43, 0
1, 34075, Note_on_c, 0, 64, 0
1, 34080, Tempo, 402253
1, 34080, Note_on_c, 0, 52, 27
1, 34080, Note_on_c, 0, 55, 27
1, 34080, Note_on_c, 0, 60, 27
1, 34080, Note_on_c, 0, 64, 33
1, 34080, Note_on_c, 0, 36, 20
1, 34080, Note_on_c, 0, 43, 20
1, 34080, Note_on_c, 0, 48, 24
1, 34200, Note_on_c, 0, 48, 0
1, 34200, Note_on_c, 0, 36, 0
1, 34200, Note_on_c, 0, 55, 0
1, 34200, Note_on_c, 0, 60, 0
1, 34200, Note_on_c, 0, 52, 0
1, 34200, Note_on_c, 0, 43, 0
1, 34200, Note_on_c, 0, 64, 0
1, 34320, Note_on_c, 0, 52, 27
1, 34320, Note_on_c, 0, 55, 27
1, 34320, Note_on_c, 0, 60, 27
1, 34320, Note_on_c, 0, 64, 33
1, 34320, Note_on_c, 0, 36, 20
1, 34320, Note_on_c, 0, 43, 20
1, 34320, Note_on_c, 0, 48, 24
1, 34440, Note_on_c, 0, 48, 0
1, 34440, Note_on_c, 0, 36, 0
1, 34440, Note_on_c, 0, 55, 0
1, 34440, Note_on_c, 0, 60, 0
1, 34440, Note_on_c, 0, 52, 0
1, 34440, Note_on_c, 0, 43, 0
1, 34440, Note_on_c, 0, 64, 0
1, 34560, Tempo, 410874
1, 34560, Note_on_c, 0, 52, 29
1, 34560, Note_on_c, 0, 55, 29
1, 34560, Note_on_c, 0, 60, 29
1, 34560, Note_on_c, 0, 64, 36
1, 34560, Note_on_c, 0, 36, 22
1, 34560, Note_on_c, 0, 43, 22
1, 34560, Note_on_c, 0, 48, 26
1, 34616, Control_c, 0, 64, 127
1, 34800, Note_on_c, 0, 48, 0
1, 34800, Note_on_c, 0, 36, 0
1, 34800, Note_on_c, 0, 55, 0
1, 34800, Note_on_c, 0, 60, 0
1, 34800, Note_on_c, 0, 52, 0
1, 34800, Note_on_c, 0, 43, 0
1, 34800, Note_on_c, 0, 64, 0
1, 34800, Note_on_c, 0, 48, 32
1, 34920, Note_on_c, 0, 48, 0
1, 34920, Note_on_c, 0, 52, 33
1, 35000, Tempo, 409417
1, 35040, Note_on_c, 0, 52, 0
1, 35040, Note_on_c, 0, 55, 34
1, 35080, Tempo, 410874
1, 35120, Tempo, 412343
1, 35160, Tempo, 413822
1, 35160, Note_on_c, 0, 55, 0
1, 35160, Note_on_c, 0, 60, 35
1, 35240, Tempo, 415340
1, 35280, Tempo, 416840
1, 35280, Note_on_c, 0, 60, 0
1, 35280, Note_on_c, 0, 64, 36
1, 35320, Tempo, 418352
1, 35400, Note_on_c, 0, 64, 0
1, 35400, Note_on_c, 0, 67, 37
1, 35520, Note_on_c, 0, 67, 0
1, 35520, Note_on_c, 0, 59, 36
1, 35520, Note_on_c, 0, 71, 36
1, 35530, Control_c, 0, 64, 0
1, 36000, Note_on_c, 0, 71, 0
1, 36000, Note_on_c, 0, 59, 0
1, 36000, Note_on_c, 0, 60, 28
1, 36000, Note_on_c, 0, 72, 34
1, 36120, Note_on_c, 0, 72, 0
1, 36120, Note_on_c, 0, 60, 0
1, 36240, Note_on_c, 0, 60, 28
1, 36240, Note_on_c, 0, 72, 34
1, 36360, Note_on_c, 0, 72, 0
1, 36360, Note_on_c, 0, 60, 0
1, 36480, Tempo, 437956
1, 36480, Note_on_c, 0, 65, 31
1, 36480, Note_on_c, 0, 67, 31
1, 36480, Note_on_c, 0, 71, 37
1, 36480, Note_on_c, 0, 73, 37
1, 36480, Note_on_c, 0, 31, 22
1, 36480, Note_on_c, 0, 43, 27
1, 36720, Note_on_c, 0, 43, 0
1, 36720, Note_on_c, 0, 67, 0
1, 36720, Note_on_c, 0, 71, 0
1, 36720, Note_on_c, 0, 65, 0
1, 36720, Note_on_c, 0, 31, 0
1, 36720, Note_on_c, 0, 73, 0
1, 36960, Tempo, 538117
1, 36960, Note_on_c, 0, 67, 28
1, 36960, Note_on_c, 0, 65, 28
1, 36960, Note_on_c, 0, 71, 35
1, 36960, Note_on_c, 0, 74, 35
1, 36960, Note_on_c, 0, 43, 22
1, 36960, Note_on_c, 0, 55, 27
1, 37200, Note_on_c, 0, 55, 0
1, 37200, Note_on_c, 0, 65, 0
1, 37200, Note_on_c, 0, 71, 0
1, 37200, Note_on_c, 0, 67, 0
1, 37200, Note_on_c, 0, 43, 0
1, 37200, Note_on_c, 0, 74, 0
1, 37440, Tempo, 451128
1, 37440, Note_on_c, 0, 77, 35
1, 37440, Note_on_c, 0, 79, 35
1, 37440, Note_on_c, 0, 86, 35
1, 37440, Note_on_c, 0, 83, 35
1, 37440, Note_on_c, 0, 74, 27
1, 37440, Note_on_c, 0, 71, 22
1, 37440, Note_on_c, 0, 67, 22
1, 38400, Tempo, 412343
1, 38400, Note_on_c, 0, 67, 0
1, 38400, Note_on_c, 0, 74, 0
1, 38400, Note_on_c, 0, 79, 0
1, 38400, Note_on_c, 0, 86, 0
1, 38400, Note_on_c, 0, 77, 0
1, 38400, Note_on_c, 0, 71, 0
1, 38400, Note_on_c, 0, 83, 0
1, 38400, Note_on_c, 0, 53, 25
1, 38400, Note_on_c, 0, 55, 25
1, 38400, Note_on_c, 0, 59, 25
1, 38400, Note_on_c, 0, 62, 31
1, 38400, Control_c, 0, 91, 127
1, 38400, Text_t, "bdca426d104a26ac9dcb070447587523"
1, 38400, Note_on_c, 0, 31, 18
1, 38400, Note_on_c, 0, 43, 22
1, 38875, Note_on_c, 0, 43, 0
1, 38875, Note_on_c, 0, 55, 0
1, 38875, Note_on_c, 0, 59, 0
1, 38875, Note_on_c, 0, 53, 0
1, 38875, Note_on_c, 0, 31, 0
1, 38875, Note_on_c, 0, 62, 0
1, 38880, Tempo, 402253
1, 38880, Note_on_c, 0, 53, 24
1, 38880, Note_on_c, 0, 55, 24
1, 38880, Note_on_c, 0, 59, 24
1, 38880, Note_on_c, 0, 62, 28
1, 38880, Note_on_c, 0, 31, 16
1, 38880, Note_on_c, 0, 43, 20
1, 39000, Note_on_c, 0, 43, 0
1, 39000, Note_on_c, 0, 55, 0
1, 39000, Note_on_c, 0, 59, 0
1, 39000, Note_on_c, 0, 53, 0
1, 39000, Note_on_c, 0, 31, 0
1, 39000, Note_on_c, 0, 62, 0
1, 39120, Note_on_c, 0, 53, 24
1, 39120, Note_on_c, 0, 55, 24
1, 39120, Note_on_c, 0, 59, 24
1, 39120, Note_on_c, 0, 62, 28
1, 39120, Note_on_c, 0, 31, 16
1, 39120, Note_on_c, 0, 43, 20
1, 39240, Note_on_c, 0, 43, 0
1, 39240, Note_on_c, 0, 55, 0
1, 39240, Note_on_c, 0, 59, 0
1, 39240, Note_on_c, 0, 53, 0
1, 39240, Note_on_c, 0, 31, 0
1, 39240, Note_on_c, 0, 62, 0
1, 39360, Tempo, 412343
1, 39360, Note_on_c, 0, 53, 25
1, 39360, Note_on_c, 0, 55, 25
1, 39360, Note_on_c, 0, 59, 25
1, 39360, Note_on_c, 0, 62, 31
1, 39360, Note_on_c, 0, 31, 19
1, 39360, Note_on_c, 0, 43, 22
1, 39835, Note_on_c, 0, 43, 0
1, 39835, Note_on_c, 0, 55, 0
1, 39835, Note_on_c, 0, 59, 0
1, 39835, Note_on_c, 0, 53, 0
1, 39835, Note_on_c, 0, 31, 0
1, 39835, Note_on_c, 0, 62, 0
1, 39840, Tempo, 402253
1, 39840, Note_on_c, 0, 53, 23
1, 39840, Note_on_c, 0, 55, 23
1, 39840, Note_on_c, 0, 59, 23
1, 39840, Note_on_c, 0, 62, 28
1, 39840, Note_on_c, 0, 31, 17
1, 39840, Note_on_c, 0, 43, 20
1, 39960, Note_on_c, 0, 43, 0
1, 39960, Note_on_c, 0, 55, 0
1, 39960, Note_on_c, 0, 59, 0
1, 39960, Note_on_c, 0, 53, 0
1, 39960, Note_on_c, 0, 31, 0
1, 39960, Note_on_c, 0, 62, 0
1, 40080, Note_on_c, 0, 53, 23
1, 40080, Note_on_c, 0, 55, 23
1, 40080, Note_on_c, 0, 59, 23
1, 40080, Note_on_c, 0, 62, 28
1, 40080, Note_on_c, 0, 31, 17
1, 40080, Note_on_c, 0, 43, 20
1, 40200, Note_on_c, 0, 43, 0
1, 40200, Note_on_c, 0, 55, 0
1, 40200, Note_on_c, 0, 59, 0
1, 40200, Note_on_c, 0, 53, 0
1, 40200, Note_on_c, 0, 31, 0
1, 40200, Note_on_c, 0, 62, 0
1, 40320, Tempo, 410874
1, 40320, Note_on_c, 0, 53, 25
1, 40320, Note_on_c, 0, 55, 25
1, 40320, Note_on_c, 0, 59, 25
1, 40320, Note_on_c, 0, 62, 31
1, 40320, Note_on_c, 0, 31, 19
1, 40320, Note_on_c, 0, 43, 22
1, 40376, Control_c, 0, 64, 127
1, 40560, Note_on_c, 0, 43, 0
1, 40560, Note_on_c, 0, 55, 0
1, 40560, Note_on_c, 0, 59, 0
1, 40560, Note_on_c, 0, 53, 0
1, 40560, Note_on_c, 0, 31, 0
1, 40560, Note_on_c, 0, 62, 0
1, 40560, Note_on_c, 0, 55, 27
1, 40680, Note_on_c, 0, 55, 0
1, 40680, Note_on_c, 0, 59, 28
1, 40760, Tempo, 409417
1, 40800, Note_on_c, 0, 59, 0
1, 40800, Note_on_c, 0, 62, 28
1, 40840, Tempo, 410874
1, 40880, Tempo, 412343
1, 40920, Tempo, 413822
1, 40920, Note_on_c, 0, 62, 0
1, 40920, Note_on_c, 0, 65, 29
1, 41000, Tempo, 415340
1, 41040, Tempo, 416840
1, 41040, Note_on_c, 0, 65, 0
1, 41040, Note_on_c, 0, 67, 31
1, 41080, Tempo, 418352
1, 41160, Note_on_c, 0, 67, 0
1, 41160, Note_on_c, 0, 71, 32
1, 41280, Note_on_c, 0, 71, 0
1, 41280, Note_on_c, 0, 61, 36
1, 41280, Note_on_c, 0, 73, 36
1, 41290, Control_c, 0, 64, 0
1, 41760, Note_on_c, 0, 73, 0
1, 41760, Note_on_c, 0, 61, 0
1, 41760, Note_on_c, 0, 62, 28
1, 41760, Note_on_c, 0, 74, 34
1, 41880, Note_on_c, 0, 74, 0
1, 41880, Note_on_c, 0, 62, 0
1, 42000, Note_on_c, 0, 62, 28
1, 42000, Note_on_c, 0, 74, 34
1, 42120, Note_on_c, 0, 74, 0
1, 42120, Note_on_c, 0, 62, 0
1, 42240, Tempo, 437956
1, 42240, Note_on_c, 0, 63, 31
1, 42240, Note_on_c, 0, 67, 31
1, 42240, Note_on_c, 0, 72, 37
1, 42240, Note_on_c, 0, 75, 37
1, 42240, Note_on_c, 0, 43, 20
1, 42240, Note_on_c, 0, 36, 20
1, 42240, Note_on_c, 0, 48, 24
1, 42480, Note_on_c, 0, 48, 0
1, 42480, Note_on_c, 0, 43, 0
1, 42480, Note_on_c, 0, 67, 0
1, 42480, Note_on_c, 0, 72, 0
1, 42480, Note_on_c, 0, 63, 0
1, 42480, Note_on_c, 0, 36, 0
1, 42480, Note_on_c, 0, 75, 0
1, 42720, Tempo, 542986
1, 42720, Note_on_c, 0, 67, 28
1, 42720, Note_on_c, 0, 64, 28
1, 42720, Note_on_c, 0, 72, 34
1, 42720, Note_on_c, 0, 76, 34
1, 42720, Note_on_c, 0, 55, 20
1, 42720, Note_on_c, 0, 48, 20
1, 42720, Note_on_c, 0, 60, 24
1, 42960, Note_on_c, 0, 60, 0
1, 42960, Note_on_c, 0, 55, 0
1, 42960, Note_on_c, 0, 64, 0
1, 42960, Note_on_c, 0, 72, 0
1, 42960, Note_on_c, 0, 67, 0
1, 42960, Note_on_c, 0, 48, 0
1, 42960, Note_on_c, 0, 76, 0
1, 43200, Tempo, 451128
1, 43200, Note_on_c, 0, 76, 35
1, 43200, Note_on_c, 0, 79, 35
1, 43200, Note_on_c, 0, 88, 35
1, 43200, Note_on_c, 0, 84, 35
1, 43200, Note_on_c, 0, 72, 27
1, 43200, Note_on_c, 0, 67, 22
1, 43200, Note_on_c, 0, 60, 22
1, 44160, Note_on_c, 0, 60, 0
1, 44160, Note_on_c, 0, 72, 0
1, 44160, Note_on_c, 0, 79, 0
1, 44160, Note_on_c, 0, 88, 0
1, 44160, Note_on_c, 0, 76, 0
1, 44160, Note_on_c, 0, 67, 0
1, 44160, Note_on_c, 0, 84, 0
1, 44379, Control_c, 0, 64, 127
1, 44400, Tempo, 434783
1, 44400, Note_on_c, 0, 55, 27
1, 44520, Note_on_c, 0, 55, 0
1, 44520, Note_on_c, 0, 60, 28
1, 44640, Note_on_c, 0, 60, 0
1, 44640, Note_on_c, 0, 64, 28
1, 44760, Note_on_c, 0, 64, 0
1, 44760, Note_on_c, 0, 67, 29
1, 44880, Note_on_c, 0, 67, 0
1, 44880, Note_on_c, 0, 72, 31
1, 45000, Note_on_c, 0, 72, 0
1, 45000, Note_on_c, 0, 76, 32
1, 45120, Tempo, 483871
1, 45120, Note_on_c, 0, 76, 0
1, 45120, Note_on_c, 0, 72, 30
1, 45120, Note_on_c, 0, 67, 30
1, 45120, Note_on_c, 0, 79, 37
1, 45120, Note_on_c, 0, 33, 29
1, 45120, Note_on_c, 0, 45, 35
1, 45136, Control_c, 0, 64, 0
1, 45480, Note_on_c, 0, 45, 0
1, 45480, Note_on_c, 0, 79, 0
1, 45480, Note_on_c, 0, 72, 0
1, 45480, Note_on_c, 0, 67, 0
1, 45480, Note_on_c, 0, 33, 0
1, 45600, Tempo, 615385
1, 45600, Note_on_c, 0, 65, 29
1, 45600, Note_on_c, 0, 72, 29
1, 45600, Note_on_c, 0, 77, 36
1, 45600, Note_on_c, 0, 57, 26
1, 45600, Note_on_c, 0, 60, 32
1, 45840, Note_on_c, 0, 60, 0
1, 45840, Note_on_c, 0, 77, 0
1, 45840, Note_on_c, 0, 65, 0
1, 45840, Note_on_c, 0, 72, 0
1, 45840, Note_on_c, 0, 57, 0
1, 46080, Tempo, 451128
1, 46080, Note_on_c, 0, 84, 35
1, 46080, Note_on_c, 0, 77, 28
1, 46080, Note_on_c, 0, 72, 27
1, 46080, Note_on_c, 0, 69, 18
1, 47040, Note_on_c, 0, 69, 0
1, 47040, Note_on_c, 0, 84, 0
1, 47040, Note_on_c, 0, 77, 0
1, 47040, Note_on_c, 0, 72, 0
1, 47259, Control_c, 0, 64, 127
1, 47280, Tempo, 434783
1, 47280, Note_on_c, 0, 57, 24
1, 47400, Note_on_c, 0, 57, 0
1, 47400, Note_on_c, 0, 60, 25
1, 47520, Note_on_c, 0, 60, 0
1, 47520, Note_on_c, 0, 65, 25
1, 47640, Note_on_c, 0, 65, 0
1, 47640, Note_on_c, 0, 69, 26
1, 47760, Note_on_c, 0, 69, 0
1, 47760, Note_on_c, 0, 72, 27
1, 47880, Note_on_c, 0, 72, 0
1, 47880, Note_on_c, 0, 77, 27
1, 48000, Tempo, 495868
1, 48000, Note_on_c, 0, 77, 0
1, 48000, Note_on_c, 0, 72, 26
1, 48000, Note_on_c, 0, 69, 26
1, 48000, Note_on_c, 0, 81, 32
1, 48000, Note_on_c, 0, 40, 25
1, 48000, Note_on_c, 0, 52, 29
1, 48056, Control_c, 0, 64, 0
1, 48360, Note_on_c, 0, 52, 0
1, 48360, Note_on_c, 0, 81, 0
1, 48360, Note_on_c, 0, 72, 0
1, 48360, Note_on_c, 0, 69, 0
1, 48360, Note_on_c, 0, 40, 0
1, 48480, Tempo, 670391
1, 48480, Note_on_c, 0, 67, 26
1, 48480, Note_on_c, 0, 72, 26
1, 48480, Note_on_c, 0, 79, 32
1, 48480, Note_on_c, 0, 52, 23
1, 48480, Note_on_c, 0, 55, 27
1, 48720, Note_on_c, 0, 55, 0
1, 48720, Note_on_c, 0, 79, 0
1, 48720, Note_on_c, 0, 67, 0
1, 48720, Note_on_c, 0, 72, 0
1, 48720, Note_on_c, 0, 52, 0
1, 48960, Tempo, 451128
1, 48960, Note_on_c, 0, 72, 25
1, 48960, Note_on_c, 0, 84, 31
1, 48960, Note_on_c, 0, 79, 25
1, 48960, Note_on_c, 0, 67, 24
1, 48960, Note_on_c, 0, 64, 16
1, 50880, Tempo, 405405
1, 50880, Note_on_c, 0, 64, 0
1, 50880, Note_on_c, 0, 79, 0
1, 50880, Note_on_c, 0, 72, 0
1, 50880, Note_on_c, 0, 84, 0
1, 50880, Note_on_c, 0, 67, 0
1, 51106, Control_c, 0, 64, 127
1, 51120, Note_on_c, 0, 60, 76
1, 51240, Note_on_c, 0, 60, 0
1, 51240, Note_on_c, 0, 64, 78
1, 51360, Note_on_c, 0, 64, 0
1, 51360, Note_on_c, 0, 67, 80
1, 51480, Note_on_c, 0, 67, 0
1, 51480, Note_on_c, 0, 72, 82
1, 51600, Note_on_c, 0, 72, 0
1, 51600, Note_on_c, 0, 76, 84
1, 51720, Note_on_c, 0, 76, 0
1, 51720, Note_on_c, 0, 79, 86
1, 51840, Tempo, 459770
1, 51840, Note_on_c, 0, 79, 0
1, 51840, Note_on_c, 0, 72, 79
1, 51840, Note_on_c, 0, 77, 79
1, 51840, Note_on_c, 0, 80, 79
1, 51840, Note_on_c, 0, 84, 93
1, 51840, Control_c, 0, 64, 0
1, 52080, Tempo, 419580
1, 52080, Note_on_c, 0, 38, 72
1, 52103, Control_c, 0, 64, 127
1, 52200, Note_on_c, 0, 38, 0
1, 52200, Note_on_c, 0, 41, 74
1, 52320, Tempo, 406780
1, 52320, Note_on_c, 0, 41, 0
1, 52320, Note_on_c, 0, 44, 76
1, 52440, Note_on_c, 0, 44, 0
1, 52440, Note_on_c, 0, 50, 78
1, 52560, Note_on_c, 0, 50, 0
1, 52560, Note_on_c, 0, 53, 80
1, 52680, Note_on_c, 0, 53, 0
1, 52680, Note_on_c, 0, 56, 82
1, 52800, Note_on_c, 0, 56, 0
1, 52800, Note_on_c, 0, 84, 0
1, 52800, Note_on_c, 0, 72, 0
1, 52800, Note_on_c, 0, 77, 0
1, 52800, Note_on_c, 0, 80, 0
1, 52800, Note_on_c, 0, 71, 77
1, 52800, Note_on_c, 0, 77, 77
1, 52800, Note_on_c, 0, 83, 91
1, 52800, Note_on_c, 0, 79, 77
1, 52800, Control_c, 0, 64, 0
1, 52800, Note_on_c, 0, 50, 71
1, 52800, Note_on_c, 0, 62, 84
1, 53760, Tempo, 416667
1, 53760, Note_on_c, 0, 62, 0
1, 53760, Note_on_c, 0, 77, 0
1, 53760, Note_on_c, 0, 83, 0
1, 53760, Note_on_c, 0, 71, 0
1, 53760, Note_on_c, 0, 50, 0
1, 53760, Note_on_c, 0, 79, 0
1, 53760, Note_on_c, 0, 72, 78
1, 53760, Note_on_c, 0, 84, 92
1, 53760, Note_on_c, 0, 79, 78
1, 53760, Note_on_c, 0, 52, 68
1, 53760, Note_on_c, 0, 64, 80
1, 54240, Note_on_c, 0, 64, 0
1, 54240, Note_on_c, 0, 79, 0
1, 54240, Note_on_c, 0, 72, 0
1, 54240, Note_on_c, 0, 84, 0
1, 54240, Note_on_c, 0, 52, 0
1, 54240, Note_on_c, 0, 76, 76
1, 54240, Note_on_c, 0, 88, 90
1, 54240, Note_on_c, 0, 81, 76
1, 54240, Note_on_c, 0, 78, 76
1, 54240, Note_on_c, 0, 48, 64
1, 54240, Note_on_c, 0, 60, 76
1, 54720, Tempo, 449438
1, 54720, Note_on_c, 0, 60, 0
1, 54720, Note_on_c, 0, 88, 0
1, 54720, Note_on_c, 0, 81, 0
1, 54720, Note_on_c, 0, 76, 0
1, 54720, Note_on_c, 0, 48, 0
1, 54720, Note_on_c, 0, 78, 0
1, 54720, Note_on_c, 0, 74, 79
1, 54720, Note_on_c, 0, 86, 94
1, 54720, Note_on_c, 0, 83, 79
1, 54720, Note_on_c, 0, 79, 79
1, 54720, Note_on_c, 0, 43, 68
1, 54720, Note_on_c, 0, 55, 80
1, 54960, Tempo, 402685
1, 54960, Note_on_c, 0, 55, 0
1, 54960, Note_on_c, 0, 86, 0
1, 54960, Note_on_c, 0, 83, 0
1, 54960, Note_on_c, 0, 74, 0
1, 54960, Note_on_c, 0, 43, 0
1, 54960, Note_on_c, 0, 79, 0
1, 54960, Note_on_c, 0, 62, 76
1, 55059, Control_c, 0, 64, 127
1, 55080, Note_on_c, 0, 62, 0
1, 55080, Note_on_c, 0, 67, 79
1, 55200, Note_on_c, 0, 67, 0
1, 55200, Note_on_c, 0, 71, 82
1, 55320, Note_on_c, 0, 71, 0
1, 55320, Note_on_c, 0, 74, 85
1, 55440, Note_on_c, 0, 74, 0
1, 55440, Note_on_c, 0, 79, 88
1, 55560, Note_on_c, 0, 79, 0
1, 55560, Note_on_c, 0, 83, 91
1, 55680, Tempo, 459770
1, 55680, Note_on_c, 0, 83, 0
1, 55680, Note_on_c, 0, 72, 79
1, 55680, Note_on_c, 0, 77, 79
1, 55680, Note_on_c, 0, 80, 79
1, 55680, Note_on_c, 0, 84, 93
1, 55685, Control_c, 0, 64, 0
1, 55920, Tempo, 419580
1, 55920, Note_on_c, 0, 38, 72
1, 55943, Control_c, 0, 64, 127
1, 56040, Note_on_c, 0, 38, 0
1, 56040, Note_on_c, 0, 41, 74
1, 56160, Tempo, 406780
1, 56160, Note_on_c, 0, 41, 0
1, 56160, Note_on_c, 0, 44, 76
1, 56280, Note_on_c, 0, 44, 0
1, 56280, Note_on_c, 0, 50, 78
1, 56400, Note_on_c, 0, 50, 0
1, 56400, Note_on_c, 0, 53, 80
1, 56520, Note_on_c, 0, 53, 0
1, 56520, Note_on_c, 0, 56, 82
1, 56640, Note_on_c, 0, 56, 0
1, 56640, Note_on_c, 0, 84, 0
1, 56640, Note_on_c, 0, 72, 0
1, 56640, Note_on_c, 0, 77, 0
1, 56640, Note_on_c, 0, 80, 0
1, 56640, Note_on_c, 0, 71, 77
1, 56640, Note_on_c, 0, 77, 77
1, 56640, Note_on_c, 0, 83, 91
1, 56640, Note_on_c, 0, 79, 77
1, 56640, Note_on_c, 0, 50, 71
1, 56640, Note_on_c, 0, 62, 84
1, 56644, Control_c, 0, 64, 0
1, 57600, Tempo, 422535
1, 57600, Note_on_c, 0, 62, 0
1, 57600, Note_on_c, 0, 77, 0
1, 57600, Note_on_c, 0, 83, 0
1, 57600, Note_on_c, 0, 71, 0
1, 57600, Note_on_c, 0, 50, 0
1, 57600, Note_on_c, 0, 79, 0
1, 57600, Note_on_c, 0, 72, 78
1, 57600, Note_on_c, 0, 84, 92
1, 57600, Note_on_c, 0, 79, 78
1, 57600, Note_on_c, 0, 52, 68
1, 57600, Note_on_c, 0, 64, 80
1, 58080, Note_on_c, 0, 64, 0
1, 58080, Note_on_c, 0, 79, 0
1, 58080, Note_on_c, 0, 72, 0
1, 58080, Note_on_c, 0, 84, 0
1, 58080, Note_on_c, 0, 52, 0
1, 58080, Note_on_c, 0, 76, 76
1, 58080, Note_on_c, 0, 88, 90
1, 58080, Note_on_c, 0, 81, 76
1, 58080, Note_on_c, 0, 78, 76
1, 58080, Note_on_c, 0, 48, 64
1, 58080, Note_on_c, 0, 60, 76
1, 58560, Note_on_c, 0, 60, 0
1, 58560, Note_on_c, 0, 88, 0
1, 58560, Note_on_c, 0, 81, 0
1, 58560, Note_on_c, 0, 76, 0
1, 58560, Note_on_c, 0, 48, 0
1, 58560, Note_on_c, 0, 78, 0
1, 58560, Note_on_c, 0, 74, 79
1, 58560, Note_on_c, 0, 86, 94
1, 58560, Note_on_c, 0, 83, 79
1, 58560, Note_on_c, 0, 79, 79
1, 58560, Note_on_c, 0, 43, 68
1, 58560, Note_on_c, 0, 55, 80
1, 58800, Tempo, 416667
1, 58800, Note_on_c, 0, 55, 0
1, 58800, Note_on_c, 0, 86, 0
1, 58800, Note_on_c, 0, 83, 0
1, 58800, Note_on_c, 0, 74, 0
1, 58800, Note_on_c, 0, 43, 0
1, 58800, Note_on_c, 0, 79, 0
1, 58800, Note_on_c, 0, 67, 76
1, 58899, Control_c, 0, 64, 127
1, 58920, Note_on_c, 0, 67, 0
1, 58920, Note_on_c, 0, 71, 79
1, 59040, Note_on_c, 0, 71, 0
1, 59040, Note_on_c, 0, 74, 82
1, 59160, Note_on_c, 0, 74, 0
1, 59160, Note_on_c, 0, 79, 85
1, 59280, Note_on_c, 0, 79, 0
1, 59280, Note_on_c, 0, 83, 88
1, 59400, Note_on_c, 0, 83, 0
1, 59400, Note_on_c, 0, 86, 91
1, 59520, Tempo, 459770
1, 59520, Note_on_c, 0, 86, 0
1, 59520, Note_on_c, 0, 79, 79
1, 59520, Note_on_c, 0, 82, 79
1, 59520, Note_on_c, 0, 85, 79
1, 59520, Note_on_c, 0, 91, 93
1, 59520, Control_c, 0, 64, 0
1, 59720, Tempo, 422535
1, 59760, Note_on_c, 0, 52, 73
1, 59783, Control_c, 0, 64, 127
1, 59800, Tempo, 421053
1, 59880, Tempo, 419580
1, 59880, Note_on_c, 0, 52, 0
1, 59880, Note_on_c, 0, 55, 75
1, 59960, Tempo, 418118
1, 60000, Note_on_c, 0, 55, 0
1, 60000, Note_on_c, 0, 58, 77
1, 60040, Tempo, 416667
1, 60120, Tempo, 415225
1, 60120, Note_on_c, 0, 58, 0
1, 60120, Note_on_c, 0, 61, 79
1, 60200, Tempo, 413793
1, 60240, Note_on_c, 0, 61, 0
1, 60240, Note_on_c, 0, 67, 80
1, 60280, Tempo, 412371
1, 60360, Tempo, 410959
1, 60360, Note_on_c, 0, 67, 0
1, 60360, Note_on_c, 0, 70, 82
1, 60400, Tempo, 408163
1, 60480, Note_on_c, 0, 70, 0
1, 60480, Note_on_c, 0, 91, 0
1, 60480, Note_on_c, 0, 79, 0
1, 60480, Note_on_c, 0, 82, 0
1, 60480, Note_on_c, 0, 85, 0
1, 60480, Note_on_c, 0, 73, 88
1, 60600, Note_on_c, 0, 73, 0
1, 60600, Note_on_c, 0, 76, 82
1, 60640, Tempo, 409556
1, 60720, Note_on_c, 0, 76, 0
1, 60720, Note_on_c, 0, 73, 81
1, 60840, Tempo, 410959
1, 60840, Note_on_c, 0, 73, 0
1, 60840, Note_on_c, 0, 70, 80
1, 60960, Note_on_c, 0, 70, 0
1, 60960, Note_on_c, 0, 67, 76
1, 61040, Tempo, 412371
1, 61080, Note_on_c, 0, 67, 0
1, 61080, Note_on_c, 0, 64, 78
1, 61200, Note_on_c, 0, 64, 0
1, 61200, Note_on_c, 0, 61, 78
1, 61240, Tempo, 413793
1, 61320, Note_on_c, 0, 61, 0
1, 61320, Note_on_c, 0, 58, 76
1, 61400, Tempo, 410959
1, 61440, Tempo, 415225
1, 61440, Note_on_c, 0, 58, 0
1, 61440, Note_on_c, 0, 88, 89
1, 61440, Note_on_c, 0, 61, 76
1, 61560, Note_on_c, 0, 61, 0
1, 61560, Note_on_c, 0, 88, 0
1, 61560, Note_on_c, 0, 91, 82
1, 61560, Note_on_c, 0, 64, 68
1, 61680, Note_on_c, 0, 64, 0
1, 61680, Note_on_c, 0, 91, 0
1, 61680, Note_on_c, 0, 88, 82
1, 61680, Note_on_c, 0, 61, 69
1, 61800, Note_on_c, 0, 61, 0
1, 61800, Note_on_c, 0, 88, 0
1, 61800, Note_on_c, 0, 85, 82
1, 61800, Note_on_c, 0, 58, 69
1, 61920, Note_on_c, 0, 58, 0
1, 61920, Note_on_c, 0, 85, 0
1, 61920, Note_on_c, 0, 82, 86
1, 61920, Note_on_c, 0, 55, 73
1, 62040, Note_on_c, 0, 55, 0
1, 62040, Note_on_c, 0, 82, 0
1, 62040, Note_on_c, 0, 79, 75
1, 62040, Note_on_c, 0, 52, 66
1, 62160, Note_on_c, 0, 52, 0
1, 62160, Note_on_c, 0, 79, 0
1, 62160, Note_on_c, 0, 76, 75
1, 62160, Note_on_c, 0, 49, 66
1, 62280, Tempo, 442804
1, 62280, Note_on_c, 0, 49, 0
1, 62280, Note_on_c, 0, 76, 0
1, 62280, Note_on_c, 0, 73, 75
1, 62280, Note_on_c, 0, 46, 66
1, 62400, Tempo, 415225
1, 62400, Note_on_c, 0, 46, 0
1, 62400, Note_on_c, 0, 73, 0
1, 62400, Note_on_c, 0, 76, 81
1, 62400, Note_on_c, 0, 49, 66
1, 62520, Note_on_c, 0, 49, 0
1, 62520, Note_on_c, 0, 76, 0
1, 62520, Note_on_c, 0, 79, 73
1, 62520, Note_on_c, 0, 52, 60
1, 62640, Note_on_c, 0, 52, 0
1, 62640, Note_on_c, 0, 79, 0
1, 62640, Note_on_c, 0, 76, 73
1, 62640, Note_on_c, 0, 49, 60
1, 62760, Note_on_c, 0, 49, 0
1, 62760, Note_on_c, 0, 76, 0
1, 62760, Note_on_c, 0, 73, 73
1, 62760, Note_on_c, 0, 46, 60
1, 62880, Note_on_c, 0, 46, 0
1, 62880, Note_on_c, 0, 73, 0
1, 62880, Note_on_c, 0, 70, 80
1, 62880, Note_on_c, 0, 43, 67
1, 63000, Note_on_c, 0, 43, 0
1, 63000, Note_on_c, 0, 70, 0
1, 63000, Note_on_c, 0, 67, 74
1, 63000, Note_on_c, 0, 40, 59
1, 63120, Note_on_c, 0, 40, 0
1, 63120, Note_on_c, 0, 67, 0
1, 63120, Note_on_c, 0, 64, 74
1, 63120, Note_on_c, 0, 37, 60
1, 63240, Tempo, 439560
1, 63240, Note_on_c, 0, 37, 0
1, 63240, Note_on_c, 0, 64, 0
1, 63240, Note_on_c, 0, 61, 74
1, 63240, Note_on_c, 0, 34, 60
1, 63360, Tempo, 416667
1, 63360, Note_on_c, 0, 34, 0
1, 63360, Note_on_c, 0, 61, 0
1, 63360, Note_on_c, 0, 64, 77
1, 63360, Note_on_c, 0, 37, 68
1, 63370, Control_c, 0, 64, 0
1, 63417, Control_c, 0, 64, 127
1, 63480, Note_on_c, 0, 37, 0
1, 63480, Note_on_c, 0, 64, 0
1, 63480, Note_on_c, 0, 67, 58
1, 63480, Note_on_c, 0, 40, 47
1, 63600, Note_on_c, 0, 40, 0
1, 63600, Note_on_c, 0, 67, 0
1, 63600, Note_on_c, 0, 64, 58
1, 63600, Note_on_c, 0, 37, 47
1, 63720, Note_on_c, 0, 37, 0
1, 63720, Note_on_c, 0, 64, 0
1, 63720, Note_on_c, 0, 61, 58
1, 63720, Note_on_c, 0, 34, 47
1, 63840, Note_on_c, 0, 34, 0
1, 63840, Note_on_c, 0, 61, 0
1, 63840, Note_on_c, 0, 64, 64
1, 63840, Note_on_c, 0, 37, 58
1, 63960, Note_on_c, 0, 37, 0
1, 63960, Note_on_c, 0, 64, 0
1, 63960, Note_on_c, 0, 67, 53
1, 63960, Note_on_c, 0, 40, 45
1, 64080, Note_on_c, 0, 40, 0
1, 64080, Note_on_c, 0, 67, 0
1, 64080, Note_on_c, 0, 64, 52
1, 64080, Note_on_c, 0, 37, 45
1, 64120, Tempo, 413793
1, 64200, Note_on_c, 0, 37, 0
1, 64200, Note_on_c, 0, 64, 0
1, 64200, Note_on_c, 0, 61, 52
1, 64200, Note_on_c, 0, 34, 45
1, 64320, Tempo, 412371
1, 64320, Note_on_c, 0, 34, 0
1, 64320, Note_on_c, 0, 61, 0
1, 64320, Note_on_c, 0, 64, 57
1, 64320, Note_on_c, 0, 37, 53
1, 64330, Control_c, 0, 64, 0
1, 64440, Note_on_c, 0, 37, 0
1, 64440, Note_on_c, 0, 64, 0
1, 64440, Note_on_c, 0, 67, 48
1, 64440, Note_on_c, 0, 40, 39
1, 64520, Tempo, 410959
1, 64560, Note_on_c, 0, 40, 0
1, 64560, Note_on_c, 0, 67, 0
1, 64560, Note_on_c, 0, 64, 48
1, 64560, Note_on_c, 0, 37, 39
1, 64680, Note_on_c, 0, 37, 0
1, 64680, Note_on_c, 0, 64, 0
1, 64680, Note_on_c, 0, 61, 48
1, 64680, Note_on_c, 0, 34, 39
1, 64720, Tempo, 409556
1, 64800, Note_on_c, 0, 34, 0
1, 64800, Note_on_c, 0, 61, 0
1, 64800, Note_on_c, 0, 64, 54
1, 64800, Note_on_c, 0, 37, 51
1, 64920, Tempo, 408163
1, 64920, Note_on_c, 0, 37, 0
1, 64920, Note_on_c, 0, 64, 0
1, 64920, Note_on_c, 0, 67, 46
1, 64920, Note_on_c, 0, 40, 34
1, 65040, Note_on_c, 0, 40, 0
1, 65040, Note_on_c, 0, 67, 0
1, 65040, Note_on_c, 0, 64, 46
1, 65040, Note_on_c, 0, 37, 34
1, 65120, Tempo, 406780
1, 65160, Note_on_c, 0, 37, 0
1, 65160, Note_on_c, 0, 64, 0
1, 65160, Note_on_c, 0, 61, 46
1, 65160, Note_on_c, 0, 34, 34
1, 65280, Tempo, 405405
1, 65280, Note_on_c, 0, 34, 0
1, 65280, Note_on_c, 0, 61, 0
1, 65280, Note_on_c, 0, 62, 50
1, 65280, Note_on_c, 0, 35, 37
1, 65386, Control_c, 0, 64, 127
1, 65400, Note_on_c, 0, 35, 0
1, 65400, Note_on_c, 0, 62, 0
1, 65400, Note_on_c, 0, 67, 41
1, 65400, Note_on_c, 0, 38, 30
1, 65520, Note_on_c, 0, 38, 0
1, 65520, Note_on_c, 0, 67, 0
1, 65520, Note_on_c, 0, 62, 41
1, 65520, Note_on_c, 0, 43, 30
1, 65640, Note_on_c, 0, 43, 0
1, 65640, Note_on_c, 0, 62, 0
1, 65640, Note_on_c, 0, 55, 41
1, 65640, Note_on_c, 0, 38, 30
1, 65760, Note_on_c, 0, 38, 0
1, 65760, Note_on_c, 0, 55, 0
1, 65760, Note_on_c, 0, 62, 49
1, 65760, Note_on_c, 0, 35, 35
1, 65880, Note_on_c, 0, 35, 0
1, 65880, Note_on_c, 0, 62, 0
1, 65880, Note_on_c, 0, 67, 41
1, 65880, Note_on_c, 0, 38, 30
1, 66000, Note_on_c, 0, 38, 0
1, 66000, Note_on_c, 0, 67, 0
1, 66000, Note_on_c, 0, 62, 41
1, 66000, Note_on_c, 0, 43, 30
1, 66120, Note_on_c, 0, 43, 0
1, 66120, Note_on_c, 0, 62, 0
1, 66120, Note_on_c, 0, 55, 41
1, 66120, Note_on_c, 0, 38, 30
1, 66240, Note_on_c, 0, 38, 0
1, 66240, Note_on_c, 0, 55, 0
1, 66240, Note_on_c, 0, 62, 48
1, 66240, Note_on_c, 0, 35, 35
1, 66360, Note_on_c, 0, 35, 0
1, 66360, Note_on_c, 0, 62, 0
1, 66360, Note_on_c, 0, 67, 41
1, 66360, Note_on_c, 0, 38, 30
1, 66480, Note_on_c, 0, 38, 0
1, 66480, Note_on_c, 0, 67, 0
1, 66480, Note_on_c, 0, 62, 41
1, 66480, Note_on_c, 0, 43, 30
1, 66600, Note_on_c, 0, 43, 0
1, 66600, Note_on_c, 0, 62, 0
1, 66600, Note_on_c, 0, 55, 41
1, 66600, Note_on_c, 0, 38, 30
1, 66720, Tempo, 404040
1, 66720, Note_on_c, 0, 38, 0
1, 66720, Note_on_c, 0, 55, 0
1, 66720, Note_on_c, 0, 62, 48
1, 66720, Note_on_c, 0, 35, 35
1, 66840, Tempo, 405405
1, 66840, Note_on_c, 0, 35, 0
1, 66840, Note_on_c, 0, 62, 0
1, 66840, Note_on_c, 0, 67, 41
1, 66840, Note_on_c, 0, 38, 30
1, 66920, Tempo, 406780
1, 66960, Note_on_c, 0, 38, 0
1, 66960, Note_on_c, 0, 67, 0
1, 66960, Note_on_c, 0, 62, 40
1, 66960, Note_on_c, 0, 43, 30
1, 67000, Tempo, 408163
1, 67080, Tempo, 409556
1, 67080, Note_on_c, 0, 43, 0
1, 67080, Note_on_c, 0, 62, 0
1, 67080, Note_on_c, 0, 55, 40
1, 67080, Note_on_c, 0, 38, 30
1, 67160, Tempo, 410959
1, 67200, Tempo, 410959
1, 67200, Note_on_c, 0, 38, 0
1, 67200, Note_on_c, 0, 55, 0
1, 67200, Note_on_c, 0, 59, 55
1, 67200, Note_on_c, 0, 36, 37
1, 67211, Control_c, 0, 64, 0
1, 67306, Control_c, 0, 64, 127
1, 67320, Note_on_c, 0, 36, 0
1, 67320, Note_on_c, 0, 64, 41
1, 67320, Note_on_c, 0, 40, 30
1, 67440, Note_on_c, 0, 40, 0
1, 67440, Note_on_c, 0, 64, 0
1, 67440, Note_on_c, 0, 71, 41
1, 67440, Note_on_c, 0, 45, 30
1, 67560, Note_on_c, 0, 45, 0
1, 67560, Note_on_c, 0, 71, 0
1, 67560, Note_on_c, 0, 64, 41
1, 67560, Note_on_c, 0, 40, 30
1, 67680, Note_on_c, 0, 40, 0
1, 67680, Note_on_c, 0, 64, 0
1, 67680, Note_on_c, 0, 59, 0
1, 67680, Note_on_c, 0, 59, 53
1, 67680, Note_on_c, 0, 36, 35
1, 67800, Note_on_c, 0, 36, 0
1, 67800, Note_on_c, 0, 64, 41
1, 67800, Note_on_c, 0, 40, 30
1, 67920, Note_on_c, 0, 40, 0
1, 67920, Note_on_c, 0, 64, 0
1, 67920, Note_on_c, 0, 71, 41
1, 67920, Note_on_c, 0, 45, 30
1, 68040, Note_on_c, 0, 45, 0
1, 68040, Note_on_c, 0, 71, 0
1, 68040, Note_on_c, 0, 64, 41
1, 68040, Note_on_c, 0, 40, 30
1, 68160, Note_on_c, 0, 40, 0
1, 68160, Note_on_c, 0, 64, 0
1, 68160, Note_on_c, 0, 59, 0
1, 68160, Note_on_c, 0, 59, 52
1, 68160, Note_on_c, 0, 36, 35
1, 68280, Note_on_c, 0, 36, 0
1, 68280, Note_on_c, 0, 64, 41
1, 68280, Note_on_c, 0, 40, 30
1, 68400, Note_on_c, 0, 40, 0
1, 68400, Note_on_c, 0, 64, 0
1, 68400, Note_on_c, 0, 71, 41
1, 68400, Note_on_c, 0, 45, 30
1, 68520, Note_on_c, 0, 45, 0
1, 68520, Note_on_c, 0, 71, 0
1, 68520, Note_on_c, 0, 64, 41
1, 68520, Note_on_c, 0, 40, 30
1, 68640, Note_on_c, 0, 40, 0
1, 68640, Note_on_c, 0, 64, 0
1, 68640, Note_on_c, 0, 59, 0
1, 68640, Note_on_c, 0, 57, 52
1, 68640, Note_on_c, 0, 36, 35
1, 68760, Note_on_c, 0, 36, 0
1, 68760, Note_on_c, 0, 64, 41
1, 68760, Note_on_c, 0, 40, 30
1, 68880, Note_on_c, 0, 40, 0
1, 68880, Note_on_c, 0, 64, 0
1, 68880, Note_on_c, 0, 69, 40
1, 68880, Note_on_c, 0, 45, 30
1, 69000, Note_on_c, 0, 45, 0
1, 69000, Note_on_c, 0, 69, 0
1, 69000, Note_on_c, 0, 64, 40
1, 69000, Note_on_c, 0, 40, 30
1, 69120, Tempo, 410959
1, 69120, Note_on_c, 0, 40, 0
1, 69120, Note_on_c, 0, 64, 0
1, 69120, Note_on_c, 0, 57, 0
1, 69120, Note_on_c, 0, 59, 50
1, 69120, Note_on_c, 0, 38, 37
1, 69130, Control_c, 0, 64, 0
1, 69160, Tempo, 418118
1, 69189, Control_c, 0, 64, 127
1, 69240, Note_on_c, 0, 38, 0
1, 69240, Note_on_c, 0, 59, 0
1, 69240, Note_on_c, 0, 62, 41
1, 69240, Note_on_c, 0, 43, 30
1, 69280, Tempo, 419580
1, 69360, Note_on_c, 0, 43, 0
1, 69360, Note_on_c, 0, 62, 0
1, 69360, Note_on_c, 0, 69, 41
1, 69360, Note_on_c, 0, 47, 30
1, 69400, Tempo, 421053
1, 69480, Note_on_c, 0, 47, 0
1, 69480, Note_on_c, 0, 69, 0
1, 69480, Note_on_c, 0, 62, 41
1, 69480, Note_on_c, 0, 43, 30
1, 69520, Tempo, 422535
1, 69600, Note_on_c, 0, 43, 0
1, 69600, Note_on_c, 0, 62, 0
1, 69600, Note_on_c, 0, 59, 49
1, 69600, Note_on_c, 0, 38, 35
1, 69640, Tempo, 424028
1, 69720, Note_on_c, 0, 38, 0
1, 69720, Note_on_c, 0, 59, 0
1, 69720, Note_on_c, 0, 62, 41
1, 69720, Note_on_c, 0, 43, 30
1, 69760, Tempo, 425532
1, 69840, Note_on_c, 0, 43, 0
1, 69840, Note_on_c, 0, 62, 0
1, 69840, Note_on_c, 0, 67, 41
1, 69840, Note_on_c, 0, 47, 30
1, 69880, Tempo, 427046
1, 69960, Note_on_c, 0, 47, 0
1, 69960, Note_on_c, 0, 67, 0
1, 69960, Note_on_c, 0, 62, 41
1, 69960, Note_on_c, 0, 43, 30
1, 70000, Tempo, 428571
1, 70080, Note_on_c, 0, 43, 0
1, 70080, Note_on_c, 0, 62, 0
1, 70080, Note_on_c, 0, 60, 48
1, 70080, Note_on_c, 0, 38, 35
1, 70103, Control_c, 0, 64, 0
1, 70126, Control_c, 0, 64, 127
1, 70200, Note_on_c, 0, 38, 0
1, 70200, Note_on_c, 0, 60, 0
1, 70200, Note_on_c, 0, 62, 41
1, 70200, Note_on_c, 0, 45, 30
1, 70320, Tempo, 428571
1, 70320, Note_on_c, 0, 45, 0
1, 70320, Note_on_c, 0, 62, 0
1, 70320, Note_on_c, 0, 67, 41
1, 70320, Note_on_c, 0, 48, 30
1, 70360, Tempo, 431655
1, 70400, Tempo, 433213
1, 70440, Tempo, 436364
1, 70440, Note_on_c, 0, 48, 0
1, 70440, Note_on_c, 0, 67, 0
1, 70440, Note_on_c, 0, 62, 41
1, 70440, Note_on_c, 0, 45, 30
1, 70480, Tempo, 437956
1, 70520, Tempo, 441176
1, 70560, Tempo, 444444
1, 70560, Note_on_c, 0, 45, 0
1, 70560, Note_on_c, 0, 62, 0
1, 70560, Note_on_c, 0, 60, 48
1, 70560, Note_on_c, 0, 38, 35
1, 70680, Note_on_c, 0, 38, 0
1, 70680, Note_on_c, 0, 60, 0
1, 70680, Note_on_c, 0, 62, 41
1, 70680, Note_on_c, 0, 45, 30
1, 70800, Note_on_c, 0, 45, 0
1, 70800, Note_on_c, 0, 62, 0
1, 70800, Note_on_c, 0, 66, 40
1, 70800, Note_on_c, 0, 48, 30
1, 70920, Tempo, 502092
1, 70920, Note_on_c, 0, 48, 0
1, 70920, Note_on_c, 0, 66, 0
1, 70920, Note_on_c, 0, 62, 40
1, 70920, Note_on_c, 0, 45, 30
1, 71040, Tempo, 459770
1, 71040, Note_on_c, 0, 45, 0
1, 71040, Note_on_c, 0, 62, 0
1, 71040, Note_on_c, 0, 79, 79
1, 71040, Note_on_c, 0, 82, 79
1, 71040, Note_on_c, 0, 85, 79
1, 71040, Note_on_c, 0, 91, 93
1, 71050, Control_c, 0, 64, 0
1, 71240, Tempo, 422535
1, 71280, Note_on_c, 0, 52, 73
1, 71303, Control_c, 0, 64, 127
1, 71320, Tempo, 421053
1, 71400, Tempo, 419580
1, 71400, Note_on_c, 0, 52, 0
1, 71400, Note_on_c, 0, 55, 75
1, 71480, Tempo, 418118
1, 71520, Note_on_c, 0, 55, 0
1, 71520, Note_on_c, 0, 58, 77
1, 71560, Tempo, 416667
1, 71640, Tempo, 415225
1, 71640, Note_on_c, 0, 58, 0
1, 71640, Note_on_c, 0, 61, 79
1, 71720, Tempo, 413793
1, 71760, Note_on_c, 0, 61, 0
1, 71760, Note_on_c, 0, 67, 80
1, 71800, Tempo, 412371
1, 71880, Tempo, 410959
1, 71880, Note_on_c, 0, 67, 0
1, 71880, Note_on_c, 0, 70, 82
1, 71920, Tempo, 408163
1, 72000, Note_on_c, 0, 70, 0
1, 72000, Note_on_c, 0, 91, 0
1, 72000, Note_on_c, 0, 79, 0
1, 72000, Note_on_c, 0, 82, 0
1, 72000, Note_on_c, 0, 85, 0
1, 72000, Note_on_c, 0, 73, 88
1, 72120, Note_on_c, 0, 73, 0
1, 72120, Note_on_c, 0, 76, 82
1, 72160, Tempo, 409556
1, 72240, Note_on_c, 0, 76, 0
1, 72240, Note_on_c, 0, 73, 81
1, 72360, Tempo, 410959
1, 72360, Note_on_c, 0, 73, 0
1, 72360, Note_on_c, 0, 70, 80
1, 72480, Note_on_c, 0, 70, 0
1, 72480, Note_on_c, 0, 67, 76
1, 72560, Tempo, 412371
1, 72600, Note_on_c, 0, 67, 0
1, 72600, Note_on_c, 0, 64, 78
1, 72720, Note_on_c, 0, 64, 0
1, 72720, Note_on_c, 0, 61, 78
1, 72760, Tempo, 413793
1, 72840, Note_on_c, 0, 61, 0
1, 72840, Note_on_c, 0, 58, 76
1, 72920, Tempo, 410959
1, 72960, Tempo, 415225
1, 72960, Note_on_c, 0, 58, 0
1, 72960, Note_on_c, 0, 88, 89
1, 72960, Note_on_c, 0, 61, 76
1, 73080, Note_on_c, 0, 61, 0
1, 73080, Note_on_c, 0, 88, 0
1, 73080, Note_on_c, 0, 91, 82
1, 73080, Note_on_c, 0, 64, 68
1, 73200, Note_on_c, 0, 64, 0
1, 73200, Note_on_c, 0, 91, 0
1, 73200, Note_on_c, 0, 88, 82
1, 73200, Note_on_c, 0, 61, 69
1, 73320, Note_on_c, 0, 61, 0
1, 73320, Note_on_c, 0, 88, 0
1, 73320, Note_on_c, 0, 85, 82
1, 73320, Note_on_c, 0, 58, 69
1, 73440, Note_on_c, 0, 58, 0
1, 73440, Note_on_c, 0, 85, 0
1, 73440, Note_on_c, 0, 82, 86
1, 73440, Note_on_c, 0, 55, 73
1, 73560, Note_on_c, 0, 55, 0
1, 73560, Note_on_c, 0, 82, 0
1, 73560, Note_on_c, 0, 79, 75
1, 73560, Note_on_c, 0, 52, 66
1, 73680, Note_on_c, 0, 52, 0
1, 73680, Note_on_c, 0, 79, 0
1, 73680, Note_on_c, 0, 76, 75
1, 73680, Note_on_c, 0, 49, 66
1, 73800, Tempo, 442804
1, 73800, Note_on_c, 0, 49, 0
1, 73800, Note_on_c, 0, 76, 0
1, 73800, Note_on_c, 0, 73, 75
1, 73800, Note_on_c, 0, 46, 66
1, 73920, Tempo, 415225
1, 73920, Note_on_c, 0, 46, 0
1, 73920, Note_on_c, 0, 73, 0
1, 73920, Note_on_c, 0, 76, 81
1, 73920, Note_on_c, 0, 49, 66
1, 74040, Note_on_c, 0, 49, 0
1, 74040, Note_on_c, 0, 76, 0
1, 74040, Note_on_c, 0, 79, 73
1, 74040, Note_on_c, 0, 52, 60
1, 74160, Note_on_c, 0, 52, 0
1, 74160, Note_on_c, 0, 79, 0
1, 74160, Note_on_c, 0, 76, 73
1, 74160, Note_on_c, 0, 49, 60
1, 74280, Note_on_c, 0, 49, 0
1, 74280, Note_on_c, 0, 76, 0
1, 74280, Note_on_c, 0, 73, 73
1, 74280, Note_on_c, 0, 46, 60
1, 74400, Note_on_c, 0, 46, 0
1, 74400, Note_on_c, 0, 73, 0
1, 74400, Note_on_c, 0, 70, 80
1, 74400, Note_on_c, 0, 43, 67
1, 74520, Note_on_c, 0, 43, 0
1, 74520, Note_on_c, 0, 70, 0
1, 74520, Note_on_c, 0, 67, 74
1, 74520, Note_on_c, 0, 40, 59
1, 74640, Note_on_c, 0, 40, 0
1, 74640, Note_on_c, 0, 67, 0
1, 74640, Note_on_c, 0, 64, 74
1, 74640, Note_on_c, 0, 37, 60
1, 74760, Tempo, 439560
1, 74760, Note_on_c, 0, 37, 0
1, 74760, Note_on_c, 0, 64, 0
1, 74760, Note_on_c, 0, 61, 74
1, 74760, Note_on_c, 0, 34, 60
1, 74880, Tempo, 416667
1, 74880, Note_on_c, 0, 34, 0
1, 74880, Note_on_c, 0, 61, 0
1, 74880, Note_on_c, 0, 64, 77
1, 74880, Note_on_c, 0, 37, 68
1, 74890, Control_c, 0, 64, 0
1, 74937, Control_c, 0, 64, 127
1, 75000, Note_on_c, 0, 37, 0
1, 75000, Note_on_c, 0, 64, 0
1, 75000, Note_on_c, 0, 67, 58
1, 75000, Note_on_c, 0, 40, 47
1, 75120, Note_on_c, 0, 40, 0
1, 75120, Note_on_c, 0, 67, 0
1, 75120, Note_on_c, 0, 64, 58
1, 75120, Note_on_c, 0, 37, 47
1, 75240, Note_on_c, 0, 37, 0
1, 75240, Note_on_c, 0, 64, 0
1, 75240, Note_on_c, 0, 61, 58
1, 75240, Note_on_c, 0, 34, 47
1, 75360, Note_on_c, 0, 34, 0
1, 75360, Note_on_c, 0, 61, 0
1, 75360, Note_on_c, 0, 64, 64
1, 75360, Note_on_c, 0, 37, 58
1, 75480, Note_on_c, 0, 37, 0
1, 75480, Note_on_c, 0, 64, 0
1, 75480, Note_on_c, 0, 67, 53
1, 75480, Note_on_c, 0, 40, 45
1, 75600, Note_on_c, 0, 40, 0
1, 75600, Note_on_c, 0, 67, 0
1, 75600, Note_on_c, 0, 64, 52
1, 75600, Note_on_c, 0, 37, 45
1, 75640, Tempo, 413793
1, 75720, Note_on_c, 0, 37, 0
1, 75720, Note_on_c, 0, 64, 0
1, 75720, Note_on_c, 0, 61, 52
1, 75720, Note_on_c, 0, 34, 45
1, 75840, Tempo, 412371
1, 75840, Note_on_c, 0, 34, 0
1, 75840, Note_on_c, 0, 61, 0
1, 75840, Note_on_c, 0, 64, 57
1, 75840, Note_on_c, 0, 37, 53
1, 75852, Control_c, 0, 64, 0
1, 75960, Note_on_c, 0, 37, 0
1, 75960, Note_on_c, 0, 64, 0
1, 75960, Note_on_c, 0, 67, 48
1, 75960, Note_on_c, 0, 40, 39
1, 76040, Tempo, 410959
1, 76080, Note_on_c, 0, 40, 0
1, 76080, Note_on_c, 0, 67, 0
1, 76080, Note_on_c, 0, 64, 48
1, 76080, Note_on_c, 0, 37, 39
1, 76200, Note_on_c, 0, 37, 0
1, 76200, Note_on_c, 0, 64, 0
1, 76200, Note_on_c, 0, 61, 48
1, 76200, Note_on_c, 0, 34, 39
1, 76240, Tempo, 409556
1, 76320, Note_on_c, 0, 34, 0
1, 76320, Note_on_c, 0, 61, 0
1, 76320, Note_on_c, 0, 64, 54
1, 76320, Note_on_c, 0, 37, 51
1, 76440, Tempo, 408163
1, 76440, Note_on_c, 0, 37, 0
1, 76440, Note_on_c, 0, 64, 0
1, 76440, Note_on_c, 0, 67, 46
1, 76440, Note_on_c, 0, 40, 34
1, 76560, Note_on_c, 0, 40, 0
1, 76560, Note_on_c, 0, 67, 0
1, 76560, Note_on_c, 0, 64, 46
1, 76560, Note_on_c, 0, 37, 34
1, 76640, Tempo, 406780
1, 76680, Note_on_c, 0, 37, 0
1, 76680, Note_on_c, 0, 64, 0
1, 76680, Note_on_c, 0, 61, 46
1, 76680, Note_on_c, 0, 34, 34
1, 76800, Tempo, 405405
1, 76800, Note_on_c, 0, 34, 0
1, 76800, Note_on_c, 0, 61, 0
1, 76800, Note_on_c, 0, 64, 50
1, 76800, Note_on_c, 0, 35, 37
1, 76906, Control_c, 0, 64, 127
1, 76920, Note_on_c, 0, 35, 0
1, 76920, Note_on_c, 0, 64, 0
1, 76920, Note_on_c, 0, 67, 41
1, 76920, Note_on_c, 0, 40, 30
1, 77040, Note_on_c, 0, 40, 0
1, 77040, Note_on_c, 0, 67, 0
1, 77040, Note_on_c, 0, 64, 41
1, 77040, Note_on_c, 0, 43, 30
1, 77160, Note_on_c, 0, 43, 0
1, 77160, Note_on_c, 0, 64, 0
1, 77160, Note_on_c, 0, 55, 41
1, 77160, Note_on_c, 0, 40, 30
1, 77280, Note_on_c, 0, 40, 0
1, 77280, Note_on_c, 0, 55, 0
1, 77280, Note_on_c, 0, 64, 49
1, 77280, Note_on_c, 0, 35, 35
1, 77400, Note_on_c, 0, 35, 0
1, 77400, Note_on_c, 0, 64, 0
1, 77400, Note_on_c, 0, 67, 41
1, 77400, Note_on_c, 0, 40, 30
1, 77520, Note_on_c, 0, 40, 0
1, 77520, Note_on_c, 0, 67, 0
1, 77520, Note_on_c, 0, 64, 41
1, 77520, Note_on_c, 0, 43, 30
1, 77640, Note_on_c, 0, 43, 0
1, 77640, Note_on_c, 0, 64, 0
1, 77640, Note_on_c, 0, 55, 41
1, 77640, Note_on_c, 0, 40, 30
1, 77760, Note_on_c, 0, 40, 0
1, 77760, Note_on_c, 0, 55, 0
1, 77760, Note_on_c, 0, 64, 48
1, 77760, Note_on_c, 0, 35, 35
1, 77880, Note_on_c, 0, 35, 0
1, 77880, Note_on_c, 0, 64, 0
1, 77880, Note_on_c, 0, 67, 41
1, 77880, Note_on_c, 0, 40, 30
1, 78000, Note_on_c, 0, 40, 0
1, 78000, Note_on_c, 0, 67, 0
1, 78000, Note_on_c, 0, 64, 41
1, 78000, Note_on_c, 0, 43, 30
1, 78120, Note_on_c, 0, 43, 0
1, 78120, Note_on_c, 0, 64, 0
1, 78120, Note_on_c, 0, 55, 41
1, 78120, Note_on_c, 0, 40, 30
1, 78240, Tempo, 404040
1, 78240, Note_on_c, 0, 40, 0
1, 78240, Note_on_c, 0, 55, 0
1, 78240, Note_on_c, 0, 64, 48
1, 78240, Note_on_c, 0, 35, 35
1, 78360, Tempo, 405405
1, 78360, Note_on_c, 0, 35, 0
1, 78360, Note_on_c, 0, 64, 0
1, 78360, Note_on_c, 0, 67, 41
1, 78360, Note_on_c, 0, 40, 30
1, 78440, Tempo, 406780
1, 78480, Note_on_c, 0, 40, 0
1, 78480, Note_on_c, 0, 67, 0
1, 78480, Note_on_c, 0, 64, 40
1, 78480, Note_on_c, 0, 43, 30
1, 78520, Tempo, 408163
1, 78600, Tempo, 409556
1, 78600, Note_on_c, 0, 43, 0
1, 78600, Note_on_c, 0, 64, 0
1, 78600, Note_on_c, 0, 55, 40
1, 78600, Note_on_c, 0, 40, 30
1, 78680, Tempo, 410959
1, 78720, Tempo, 410959
1, 78720, Note_on_c, 0, 40, 0
1, 78720, Note_on_c, 0, 55, 0
1, 78720, Note_on_c, 0, 59, 55
1, 78720, Note_on_c, 0, 36, 37
1, 78730, Control_c, 0, 64, 0
1, 78791, Control_c, 0, 64, 127
1, 78840, Note_on_c, 0, 36, 0
1, 78840, Note_on_c, 0, 64, 41
1, 78840, Note_on_c, 0, 40, 30
1, 78960, Note_on_c, 0, 40, 0
1, 78960, Note_on_c, 0, 64, 0
1, 78960, Note_on_c, 0, 71, 41
1, 78960, Note_on_c, 0, 45, 30
1, 79080, Note_on_c, 0, 45, 0
1, 79080, Note_on_c, 0, 71, 0
1, 79080, Note_on_c, 0, 64, 41
1, 79080, Note_on_c, 0, 40, 30
1, 79200, Note_on_c, 0, 40, 0
1, 79200, Note_on_c, 0, 64, 0
1, 79200, Note_on_c, 0, 59, 0
1, 79200, Note_on_c, 0, 59, 53
1, 79200, Note_on_c, 0, 36, 35
1, 79320, Note_on_c, 0, 36, 0
1, 79320, Note_on_c, 0, 64, 41
1, 79320, Note_on_c, 0, 40, 30
1, 79440, Note_on_c, 0, 40, 0
1, 79440, Note_on_c, 0, 64, 0
1, 79440, Note_on_c, 0, 71, 41
1, 79440, Note_on_c, 0, 45, 30
1, 79560, Note_on_c, 0, 45, 0
1, 79560, Note_on_c, 0, 71, 0
1, 79560, Note_on_c, 0, 64, 41
1, 79560, Note_on_c, 0, 40, 30
1, 79680, Note_on_c, 0, 40, 0
1, 79680, Note_on_c, 0, 64, 0
1, 79680, Note_on_c, 0, 59, 0
1, 79680, Note_on_c, 0, 59, 52
1, 79680, Note_on_c, 0, 36, 35
1, 79800, Note_on_c, 0, 36, 0
1, 79800, Note_on_c, 0, 64, 41
1, 79800, Note_on_c, 0, 40, 30
1, 79920, Note_on_c, 0, 40, 0
1, 79920, Note_on_c, 0, 64, 0
1, 79920, Note_on_c, 0, 71, 41
1, 79920, Note_on_c, 0, 45, 30
1, 80040, Note_on_c, 0, 45, 0
1, 80040, Note_on_c, 0, 71, 0
1, 80040, Note_on_c, 0, 64, 41
1, 80040, Note_on_c, 0, 40, 30
1, 80160, Tempo, 412371
1, 80160, Note_on_c, 0, 40, 0
1, 80160, Note_on_c, 0, 64, 0
1, 80160, Note_on_c, 0, 59, 0
1, 80160, Note_on_c, 0, 57, 52
1, 80160, Note_on_c, 0, 36, 35
1, 80240, Tempo, 413793
1, 80280, Note_on_c, 0, 36, 0
1, 80280, Note_on_c, 0, 64, 41
1, 80280, Note_on_c, 0, 40, 30
1, 80320, Tempo, 415225
1, 80360, Tempo, 416667
1, 80400, Note_on_c, 0, 40, 0
1, 80400, Note_on_c, 0, 64, 0
1, 80400, Note_on_c, 0, 69, 40
1, 80400, Note_on_c, 0, 45, 30
1, 80440, Tempo, 418118
1, 80480, Tempo, 419580
1, 80520, Note_on_c, 0, 45, 0
1, 80520, Note_on_c, 0, 69, 0
1, 80520, Note_on_c, 0, 64, 40
1, 80520, Note_on_c, 0, 40, 30
1, 80560, Tempo, 421053
1, 80600, Tempo, 422535
1, 80640, Tempo, 410959
1, 80640, Note_on_c, 0, 40, 0
1, 80640, Note_on_c, 0, 64, 0
1, 80640, Note_on_c, 0, 57, 0
1, 80640, Note_on_c, 0, 59, 34
1, 80640, Note_on_c, 0, 38, 27
1, 80651, Control_c, 0, 64, 0
1, 80693, Control_c, 0, 64, 127
1, 80760, Note_on_c, 0, 38, 0
1, 80760, Note_on_c, 0, 59, 0
1, 80760, Note_on_c, 0, 62, 34
1, 80760, Note_on_c, 0, 43, 28
1, 80880, Note_on_c, 0, 43, 0
1, 80880, Note_on_c, 0, 62, 0
1, 80880, Note_on_c, 0, 69, 40
1, 80880, Note_on_c, 0, 47, 28
1, 81000, Note_on_c, 0, 47, 0
1, 81000, Note_on_c, 0, 62, 34
1, 81000, Note_on_c, 0, 43, 28
1, 81120, Note_on_c, 0, 43, 0
1, 81120, Note_on_c, 0, 62, 0
1, 81120, Note_on_c, 0, 59, 32
1, 81120, Note_on_c, 0, 38, 28
1, 81240, Note_on_c, 0, 38, 0
1, 81240, Note_on_c, 0, 59, 0
1, 81240, Note_on_c, 0, 62, 34
1, 81240, Note_on_c, 0, 43, 28
1, 81360, Note_on_c, 0, 43, 0
1, 81360, Note_on_c, 0, 62, 0
1, 81360, Note_on_c, 0, 69, 0
1, 81360, Note_on_c, 0, 69, 40
1, 81360, Note_on_c, 0, 47, 28
1, 81480, Note_on_c, 0, 47, 0
1, 81480, Note_on_c, 0, 62, 33
1, 81480, Note_on_c, 0, 43, 28
1, 81560, Tempo, 410959
1, 81600, Note_on_c, 0, 43, 0
1, 81600, Note_on_c, 0, 62, 0
1, 81600, Note_on_c, 0, 59, 32
1, 81600, Note_on_c, 0, 38, 28
1, 81720, Note_on_c, 0, 38, 0
1, 81720, Note_on_c, 0, 59, 0
1, 81720, Note_on_c, 0, 62, 33
1, 81720, Note_on_c, 0, 43, 28
1, 81760, Tempo, 412371
1, 81840, Note_on_c, 0, 43, 0
1, 81840, Note_on_c, 0, 62, 0
1, 81840, Note_on_c, 0, 69, 0
1, 81840, Note_on_c, 0, 69, 39
1, 81840, Note_on_c, 0, 47, 28
1, 81960, Tempo, 413793
1, 81960, Note_on_c, 0, 47, 0
1, 81960, Note_on_c, 0, 62, 33
1, 81960, Note_on_c, 0, 43, 28
1, 82080, Note_on_c, 0, 43, 0
1, 82080, Note_on_c, 0, 62, 0
1, 82080, Note_on_c, 0, 59, 32
1, 82080, Note_on_c, 0, 38, 29
1, 82160, Tempo, 415225
1, 82200, Note_on_c, 0, 38, 0
1, 82200, Note_on_c, 0, 59, 0
1, 82200, Note_on_c, 0, 62, 33
1, 82200, Note_on_c, 0, 43, 28
1, 82320, Note_on_c, 0, 43, 0
1, 82320, Note_on_c, 0, 62, 0
1, 82320, Note_on_c, 0, 69, 0
1, 82320, Note_on_c, 0, 67, 39
1, 82320, Note_on_c, 0, 47, 28
1, 82360, Tempo, 416667
1, 82440, Note_on_c, 0, 47, 0
1, 82440, Note_on_c, 0, 62, 33
1, 82440, Note_on_c, 0, 43, 28
1, 82520, Tempo, 418118
1, 82560, Tempo, 410959
1, 82560, Note_on_c, 0, 43, 0
1, 82560, Note_on_c, 0, 62, 0
1, 82560, Note_on_c, 0, 60, 33
1, 82560, Control_c, 0, 64, 0
1, 82560, Note_on_c, 0, 38, 29
1, 82590, Control_c, 0, 64, 127
1, 82680, Note_on_c, 0, 38, 0
1, 82680, Note_on_c, 0, 60, 0
1, 82680, Note_on_c, 0, 62, 33
1, 82680, Note_on_c, 0, 45, 28
1, 82800, Note_on_c, 0, 45, 0
1, 82800, Note_on_c, 0, 62, 0
1, 82800, Note_on_c, 0, 67, 0
1, 82800, Note_on_c, 0, 67, 39
1, 82800, Note_on_c, 0, 48, 28
1, 82920, Note_on_c, 0, 48, 0
1, 82920, Note_on_c, 0, 62, 33
1, 82920, Note_on_c, 0, 45, 28
1, 83040, Note_on_c, 0, 45, 0
1, 83040, Note_on_c, 0, 62, 0
1, 83040, Note_on_c, 0, 60, 31
1, 83040, Note_on_c, 0, 38, 29
1, 83160, Note_on_c, 0, 38, 0
1, 83160, Note_on_c, 0, 60, 0
1, 83160, Note_on_c, 0, 62, 33
1, 83160, Note_on_c, 0, 45, 28
1, 83280, Note_on_c, 0, 45, 0
1, 83280, Note_on_c, 0, 62, 0
1, 83280, Note_on_c, 0, 67, 0
1, 83280, Note_on_c, 0, 66, 39
1, 83280, Note_on_c, 0, 48, 28
1, 83400, Note_on_c, 0, 48, 0
1, 83400, Note_on_c, 0, 62, 33
1, 83400, Note_on_c, 0, 45, 28
1, 83480, Tempo, 409556
1, 83520, Note_on_c, 0, 45, 0
1, 83520, Note_on_c, 0, 62, 0
1, 83520, Note_on_c, 0, 60, 34
1, 83520, Note_on_c, 0, 38, 29
1, 83530, Control_c, 0, 64, 0
1, 83550, Control_c, 0, 64, 127
1, 83640, Tempo, 410959
1, 83640, Note_on_c, 0, 38, 0
1, 83640, Note_on_c, 0, 60, 0
1, 83640, Note_on_c, 0, 62, 35
1, 83640, Note_on_c, 0, 45, 28
1, 83760, Note_on_c, 0, 45, 0
1, 83760, Note_on_c, 0, 62, 0
1, 83760, Note_on_c, 0, 66, 0
1, 83760, Note_on_c, 0, 64, 40
1, 83760, Note_on_c, 0, 48, 28
1, 83800, Tempo, 412371
1, 83880, Note_on_c, 0, 48, 0
1, 83880, Note_on_c, 0, 62, 34
1, 83880, Note_on_c, 0, 45, 28
1, 83920, Tempo, 413793
1, 84000, Note_on_c, 0, 45, 0
1, 84000, Note_on_c, 0, 62, 0
1, 84000, Note_on_c, 0, 60, 35
1, 84000, Note_on_c, 0, 38, 28
1, 84080, Tempo, 415225
1, 84120, Note_on_c, 0, 38, 0
1, 84120, Note_on_c, 0, 60, 0
1, 84120, Note_on_c, 0, 62, 34
1, 84120, Note_on_c, 0, 45, 28
1, 84200, Tempo, 416667
1, 84240, Note_on_c, 0, 45, 0
1, 84240, Note_on_c, 0, 62, 0
1, 84240, Note_on_c, 0, 64, 0
1, 84240, Note_on_c, 0, 66, 40
1, 84240, Note_on_c, 0, 48, 28
1, 84360, Tempo, 418118
1, 84360, Note_on_c, 0, 48, 0
1, 84360, Note_on_c, 0, 62, 34
1, 84360, Note_on_c, 0, 45, 28
1, 84480, Tempo, 510638
1, 84480, Note_on_c, 0, 45, 0
1, 84480, Note_on_c, 0, 62, 0
1, 84480, Note_on_c, 0, 66, 0
1, 84480, Note_on_c, 0, 59, 40
1, 84480, Note_on_c, 0, 71, 40
1, 84480, Control_c, 0, 64, 0
1, 84480, Note_on_c, 0, 43, 28
1, 84720, Note_on_c, 0, 43, 0
1, 84720, Note_on_c, 0, 71, 0
1, 84720, Note_on_c, 0, 59, 0
1, 84720, Note_on_c, 0, 71, 47
1, 85176, Note_on_c, 0, 71, 0
1, 85200, Note_on_c, 0, 71, 47
1, 85656, Note_on_c, 0, 71, 0
1, 85680, Note_on_c, 0, 71, 47
1, 86136, Note_on_c, 0, 71, 0
1, 86160, Note_on_c, 0, 71, 44
1, 86616, Note_on_c, 0, 71, 0
1, 86640, Note_on_c, 0, 72, 50
1, 86880, Tempo, 510638
1, 86960, Tempo, 512821
1, 87040, Tempo, 515021
1, 87120, Tempo, 517241
1, 87120, Note_on_c, 0, 72, 0
1, 87120, Note_on_c, 0, 71, 48
1, 87200, Tempo, 519481
1, 87280, Tempo, 521739
1, 87360, Tempo, 524017
1, 87400, Tempo, 526316
1, 87480, Tempo, 528634
1, 87560, Tempo, 530973
1, 87600, Note_on_c, 0, 71, 0
1, 87600, Note_on_c, 0, 70, 48
1, 87640, Tempo, 533333
1, 87720, Tempo, 535714
1, 87800, Tempo, 538117
1, 87840, Tempo, 540541
1, 88080, Tempo, 606061
1, 88080, Note_on_c, 0, 70, 0
1, 88080, Note_on_c, 0, 69, 45
1, 88320, Tempo, 517241
1, 88320, Note_on_c, 0, 69, 0
1, 88320, Note_on_c, 0, 56, 30
1, 88320, Note_on_c, 0, 68, 36
1, 88320, Note_on_c, 0, 40, 33
1, 88419, Control_c, 0, 64, 127
1, 88560, Note_on_c, 0, 47, 27
1, 88795, Note_on_c, 0, 68, 0
1, 88795, Note_on_c, 0, 56, 0
1, 88800, Note_on_c, 0, 56, 27
1, 88800, Note_on_c, 0, 68, 34
1, 89028, Note_on_c, 0, 68, 0
1, 89028, Note_on_c, 0, 56, 0
1, 89040, Note_on_c, 0, 56, 27
1, 89040, Note_on_c, 0, 68, 34
1, 89268, Note_on_c, 0, 68, 0
1, 89268, Note_on_c, 0, 56, 0
1, 89280, Note_on_c, 0, 40, 0
1, 89280, Note_on_c, 0, 47, 0
1, 89280, Note_on_c, 0, 56, 30
1, 89280, Note_on_c, 0, 68, 36
1, 89280, Note_on_c, 0, 40, 31
1, 89520, Note_on_c, 0, 47, 27
1, 89755, Note_on_c, 0, 68, 0
1, 89755, Note_on_c, 0, 56, 0
1, 89760, Note_on_c, 0, 56, 27
1, 89760, Note_on_c, 0, 68, 33
1, 89988, Note_on_c, 0, 68, 0
1, 89988, Note_on_c, 0, 56, 0
1, 90000, Note_on_c, 0, 56, 27
1, 90000, Note_on_c, 0, 68, 33
1, 90228, Note_on_c, 0, 68, 0
1, 90228, Note_on_c, 0, 56, 0
1, 90240, Tempo, 502092
1, 90240, Note_on_c, 0, 40, 0
1, 90240, Note_on_c, 0, 47, 0
1, 90240, Note_on_c, 0, 56, 30
1, 90240, Note_on_c, 0, 68, 36
1, 90240, Note_on_c, 0, 42, 32
1, 90244, Control_c, 0, 64, 0
1, 90318, Control_c, 0, 64, 127
1, 90480, Note_on_c, 0, 68, 0
1, 90480, Note_on_c, 0, 56, 0
1, 90480, Note_on_c, 0, 59, 27
1, 90480, Note_on_c, 0, 71, 34
1, 90480, Note_on_c, 0, 47, 27
1, 90708, Note_on_c, 0, 47, 0
1, 90720, Tempo, 517241
1, 90720, Note_on_c, 0, 71, 0
1, 90720, Note_on_c, 0, 59, 0
1, 90720, Note_on_c, 0, 57, 27
1, 90720, Note_on_c, 0, 69, 34
1, 90720, Note_on_c, 0, 47, 27
1, 90776, Control_c, 0, 64, 0
1, 90948, Note_on_c, 0, 47, 0
1, 90960, Note_on_c, 0, 47, 27
1, 91188, Note_on_c, 0, 47, 0
1, 91200, Tempo, 508475
1, 91200, Note_on_c, 0, 69, 0
1, 91200, Note_on_c, 0, 57, 0
1, 91200, Note_on_c, 0, 47, 32
1, 91440, Note_on_c, 0, 47, 0
1, 91440, Note_on_c, 0, 49, 35
1, 91680, Tempo, 519481
1, 91680, Note_on_c, 0, 49, 0
1, 91680, Note_on_c, 0, 47, 31
1, 91800, Note_on_c, 0, 47, 0
1, 91920, Note_on_c, 0, 47, 31
1, 92040, Note_on_c, 0, 47, 0
1, 92160, Tempo, 517241
1, 92160, Note_on_c, 0, 42, 0
1, 92160, Note_on_c, 0, 57, 30
1, 92160, Note_on_c, 0, 69, 36
1, 92160, Note_on_c, 0, 42, 33
1, 92174, Control_c, 0, 64, 127
1, 92400, Note_on_c, 0, 47, 27
1, 92635, Note_on_c, 0, 69, 0
1, 92635, Note_on_c, 0, 57, 0
1, 92640, Note_on_c, 0, 57, 27
1, 92640, Note_on_c, 0, 69, 34
1, 92868, Note_on_c, 0, 69, 0
1, 92868, Note_on_c, 0, 57, 0
1, 92880, Note_on_c, 0, 57, 27
1, 92880, Note_on_c, 0, 69, 34
1, 93108, Note_on_c, 0, 69, 0
1, 93108, Note_on_c, 0, 57, 0
1, 93120, Note_on_c, 0, 42, 0
1, 93120, Note_on_c, 0, 47, 0
1, 93120, Note_on_c, 0, 57, 30
1, 93120, Note_on_c, 0, 69, 36
1, 93120, Note_on_c, 0, 42, 31
1, 93134, Control_c, 0, 64, 0
1, 93261, Control_c, 0, 64, 127
1, 93360, Note_on_c, 0, 47, 27
1, 93595, Note_on_c, 0, 69, 0
1, 93595, Note_on_c, 0, 57, 0
1, 93600, Note_on_c, 0, 57, 27
1, 93600, Note_on_c, 0, 69, 33
1, 93828, Note_on_c, 0, 69, 0
1, 93828, Note_on_c, 0, 57, 0
1, 93840, Tempo, 530973
1, 93840, Note_on_c, 0, 57, 27
1, 93840, Note_on_c, 0, 69, 33
1, 94068, Note_on_c, 0, 69, 0
1, 94068, Note_on_c, 0, 57, 0
1, 94080, Tempo, 502092
1, 94080, Note_on_c, 0, 42, 0
1, 94080, Note_on_c, 0, 47, 0
1, 94080, Note_on_c, 0, 58, 30
1, 94080, Note_on_c, 0, 70, 36
1, 94080, Control_c, 0, 64, 0
1, 94080, Note_on_c, 0, 44, 32
1, 94136, Control_c, 0, 64, 127
1, 94320, Note_on_c, 0, 70, 0
1, 94320, Note_on_c, 0, 58, 0
1, 94320, Note_on_c, 0, 61, 27
1, 94320, Note_on_c, 0, 73, 34
1, 94320, Note_on_c, 0, 47, 27
1, 94548, Note_on_c, 0, 47, 0
1, 94560, Tempo, 517241
1, 94560, Note_on_c, 0, 73, 0
1, 94560, Note_on_c, 0, 61, 0
1, 94560, Note_on_c, 0, 59, 27
1, 94560, Note_on_c, 0, 71, 34
1, 94560, Note_on_c, 0, 47, 27
1, 94595, Control_c, 0, 64, 0
1, 94788, Note_on_c, 0, 47, 0
1, 94800, Note_on_c, 0, 47, 27
1, 95028, Note_on_c, 0, 47, 0
1, 95040, Tempo, 508475
1, 95040, Note_on_c, 0, 47, 32
1, 95280, Tempo, 497925
1, 95280, Note_on_c, 0, 47, 0
1, 95280, Note_on_c, 0, 71, 0
1, 95280, Note_on_c, 0, 59, 0
1, 95280, Note_on_c, 0, 64, 30
1, 95280, Note_on_c, 0, 76, 43
1, 95280, Note_on_c, 0, 49, 39
1, 95520, Tempo, 515021
1, 95520, Note_on_c, 0, 49, 0
1, 95520, Note_on_c, 0, 76, 0
1, 95520, Note_on_c, 0, 64, 0
1, 95520, Note_on_c, 0, 66, 33
1, 95520, Note_on_c, 0, 78, 47
1, 95520, Note_on_c, 0, 47, 41
1, 95640, Note_on_c, 0, 47, 0
1, 95760, Note_on_c, 0, 78, 0
1, 95760, Note_on_c, 0, 66, 0
1, 95760, Note_on_c, 0, 76, 52
1, 95760, Note_on_c, 0, 68, 36
1, 95760, Note_on_c, 0, 80, 52
1, 95760, Note_on_c, 0, 47, 46
1, 95880, Note_on_c, 0, 47, 0
1, 96000, Note_on_c, 0, 68, 0
1, 96000, Note_on_c, 0, 80, 0
1, 96000, Note_on_c, 0, 44, 0
1, 96000, Note_on_c, 0, 69, 41
1, 96000, Note_on_c, 0, 81, 59
1, 96000, Note_on_c, 0, 54, 54
1, 96240, Note_on_c, 0, 76, 0
1, 96240, Note_on_c, 0, 75, 54
1, 96240, Note_on_c, 0, 59, 43
1, 96480, Note_on_c, 0, 59, 0
1, 96480, Note_on_c, 0, 75, 0
1, 96480, Note_on_c, 0, 73, 51
1, 96480, Note_on_c, 0, 61, 41
1, 96720, Note_on_c, 0, 61, 0
1, 96720, Note_on_c, 0, 73, 0
1, 96720, Note_on_c, 0, 71, 50
1, 96720, Note_on_c, 0, 63, 40
1, 96960, Note_on_c, 0, 63, 0
1, 96960, Note_on_c, 0, 54, 0
1, 96960, Note_on_c, 0, 71, 0
1, 96960, Note_on_c, 0, 71, 46
1, 96960, Note_on_c, 0, 52, 30
1, 96960, Note_on_c, 0, 64, 45
1, 97200, Note_on_c, 0, 81, 0
1, 97200, Note_on_c, 0, 69, 0
1, 97200, Note_on_c, 0, 68, 27
1, 97200, Note_on_c, 0, 80, 40
1, 97440, Note_on_c, 0, 80, 0
1, 97440, Note_on_c, 0, 52, 0
1, 97440, Note_on_c, 0, 64, 0
1, 97440, Note_on_c, 0, 68, 0
1, 97440, Note_on_c, 0, 69, 27
1, 97440, Note_on_c, 0, 78, 40
1, 97440, Note_on_c, 0, 54, 27
1, 97440, Note_on_c, 0, 63, 39
1, 97680, Tempo, 542986
1, 97680, Note_on_c, 0, 63, 0
1, 97680, Note_on_c, 0, 78, 0
1, 97680, Note_on_c, 0, 54, 0
1, 97680, Note_on_c, 0, 69, 0
1, 97680, Note_on_c, 0, 71, 27
1, 97680, Note_on_c, 0, 76, 40
1, 97680, Note_on_c, 0, 56, 26
1, 97680, Note_on_c, 0, 64, 37
1, 97920, Tempo, 515021
1, 97920, Note_on_c, 0, 64, 0
1, 97920, Note_on_c, 0, 76, 0
1, 97920, Note_on_c, 0, 71, 0
1, 97920, Note_on_c, 0, 71, 0
1, 97920, Note_on_c, 0, 56, 0
1, 97920, Note_on_c, 0, 71, 34
1, 97920, Note_on_c, 0, 76, 47
1, 97920, Note_on_c, 0, 66, 45
1, 97920, Note_on_c, 0, 54, 30
1, 98160, Note_on_c, 0, 76, 0
1, 98160, Note_on_c, 0, 75, 41
1, 98400, Tempo, 524017
1, 98400, Note_on_c, 0, 75, 0
1, 98400, Note_on_c, 0, 54, 0
1, 98400, Note_on_c, 0, 66, 0
1, 98400, Note_on_c, 0, 71, 0
1, 98400, Note_on_c, 0, 70, 29
1, 98400, Note_on_c, 0, 75, 44
1, 98400, Note_on_c, 0, 64, 36
1, 98400, Note_on_c, 0, 54, 25
1, 98640, Note_on_c, 0, 75, 0
1, 98640, Note_on_c, 0, 73, 36
1, 98880, Tempo, 560748
1, 98880, Note_on_c, 0, 73, 0
1, 98880, Note_on_c, 0, 54, 0
1, 98880, Note_on_c, 0, 64, 0
1, 98880, Note_on_c, 0, 70, 0
1, 98880, Note_on_c, 0, 71, 36
1, 98880, Note_on_c, 0, 63, 36
1, 98880, Note_on_c, 0, 59, 25
1, 99120, Tempo, 526316
1, 99120, Note_on_c, 0, 59, 0
1, 99120, Note_on_c, 0, 63, 0
1, 99120, Note_on_c, 0, 71, 0
1, 99120, Note_on_c, 0, 83, 39
1, 99120, Note_on_c, 0, 71, 27
1, 99360, Note_on_c, 0, 71, 0
1, 99360, Note_on_c, 0, 83, 0
1, 99360, Note_on_c, 0, 70, 26
1, 99360, Note_on_c, 0, 82, 36
1, 99600, Note_on_c, 0, 82, 0
1, 99600, Note_on_c, 0, 70, 0
1, 99600, Note_on_c, 0, 69, 25
1, 99600, Note_on_c, 0, 81, 36
1, 99840, Tempo, 517241
1, 99840, Note_on_c, 0, 81, 0
1, 99840, Note_on_c, 0, 69, 0
1, 99840, Note_on_c, 0, 68, 30
1, 99840, Note_on_c, 0, 80, 36
1, 99840, Note_on_c, 0, 52, 33
1, 99953, Control_c, 0, 64, 127
1, 100080, Note_on_c, 0, 59, 27
1, 100315, Note_on_c, 0, 80, 0
1, 100315, Note_on_c, 0, 68, 0
1, 100320, Note_on_c, 0, 68, 27
1, 100320, Note_on_c, 0, 80, 34
1, 100548, Note_on_c, 0, 80, 0
1, 100548, Note_on_c, 0, 68, 0
1, 100560, Note_on_c, 0, 68, 27
1, 100560, Note_on_c, 0, 80, 34
1, 100788, Note_on_c, 0, 80, 0
1, 100788, Note_on_c, 0, 68, 0
1, 100800, Note_on_c, 0, 52, 0
1, 100800, Note_on_c, 0, 59, 0
1, 100800, Note_on_c, 0, 68, 30
1, 100800, Note_on_c, 0, 80, 36
1, 100800, Note_on_c, 0, 52, 31
1, 101040, Note_on_c, 0, 59, 27
1, 101275, Note_on_c, 0, 80, 0
1, 101275, Note_on_c, 0, 68, 0
1, 101280, Note_on_c, 0, 68, 27
1, 101280, Note_on_c, 0, 80, 33
1, 101508, Note_on_c, 0, 80, 0
1, 101508, Note_on_c, 0, 68, 0
1, 101520, Note_on_c, 0, 68, 27
1, 101520, Note_on_c, 0, 80, 33
1, 101748, Note_on_c, 0, 80, 0
1, 101748, Note_on_c, 0, 68, 0
1, 101760, Tempo, 502092
1, 101760, Note_on_c, 0, 52, 0
1, 101760, Note_on_c, 0, 59, 0
1, 101760, Note_on_c, 0, 68, 30
1, 101760, Note_on_c, 0, 80, 36
1, 101760, Note_on_c, 0, 54, 32
1, 101770, Control_c, 0, 64, 0
1, 101838, Control_c, 0, 64, 127
1, 102000, Note_on_c, 0, 80, 0
1, 102000, Note_on_c, 0, 68, 0
1, 102000, Note_on_c, 0, 71, 27
1, 102000, Note_on_c, 0, 83, 34
1, 102000, Note_on_c, 0, 59, 27
1, 102228, Note_on_c, 0, 59, 0
1, 102240, Tempo, 517241
1, 102240, Note_on_c, 0, 83, 0
1, 102240, Note_on_c, 0, 71, 0
1, 102240, Note_on_c, 0, 69, 27
1, 102240, Note_on_c, 0, 81, 34
1, 102240, Note_on_c, 0, 59, 27
1, 102296, Control_c, 0, 64, 0
1, 102468, Note_on_c, 0, 59, 0
1, 102480, Note_on_c, 0, 59, 27
1, 102708, Note_on_c, 0, 59, 0
1, 102720, Tempo, 493827
1, 102720, Note_on_c, 0, 81, 0
1, 102720, Note_on_c, 0, 69, 0
1, 102720, Note_on_c, 0, 58, 32
1, 102840, Note_on_c, 0, 58, 0
1, 102840, Note_on_c, 0, 59, 27
1, 102960, Note_on_c, 0, 59, 0
1, 102960, Note_on_c, 0, 61, 27
1, 103080, Tempo, 533333
1, 103080, Note_on_c, 0, 61, 0
1, 103080, Note_on_c, 0, 59, 29
1, 103200, Tempo, 519481
1, 103200, Note_on_c, 0, 59, 0
1, 103200, Note_on_c, 0, 59, 31
1, 103320, Note_on_c, 0, 59, 0
1, 103440, Note_on_c, 0, 59, 31
1, 103560, Note_on_c, 0, 59, 0
1, 103680, Tempo, 517241
1, 103680, Note_on_c, 0, 54, 0
1, 103680, Note_on_c, 0, 69, 30
1, 103680, Note_on_c, 0, 81, 36
1, 103680, Note_on_c, 0, 54, 33
1, 103694, Control_c, 0, 64, 127
1, 103920, Note_on_c, 0, 59, 27
1, 104155, Note_on_c, 0, 81, 0
1, 104155, Note_on_c, 0, 69, 0
1, 104160, Note_on_c, 0, 69, 27
1, 104160, Note_on_c, 0, 81, 34
1, 104388, Note_on_c, 0, 81, 0
1, 104388, Note_on_c, 0, 69, 0
1, 104400, Note_on_c, 0, 69, 27
1, 104400, Note_on_c, 0, 81, 34
1, 104628, Note_on_c, 0, 81, 0
1, 104628, Note_on_c, 0, 69, 0
1, 104640, Note_on_c, 0, 54, 0
1, 104640, Note_on_c, 0, 59, 0
1, 104640, Note_on_c, 0, 69, 30
1, 104640, Note_on_c, 0, 81, 36
1, 104640, Note_on_c, 0, 54, 31
1, 104654, Control_c, 0, 64, 0
1, 104781, Control_c, 0, 64, 127
1, 104880, Note_on_c, 0, 59, 27
1, 105115, Note_on_c, 0, 81, 0
1, 105115, Note_on_c, 0, 69, 0
1, 105120, Tempo, 528634
1, 105120, Note_on_c, 0, 69, 27
1, 105120, Note_on_c, 0, 81, 33
1, 105348, Note_on_c, 0, 81, 0
1, 105348, Note_on_c, 0, 69, 0
1, 105360, Tempo, 552995
1, 105360, Note_on_c, 0, 69, 27
1, 105360, Note_on_c, 0, 81, 33
1, 105588, Note_on_c, 0, 81, 0
1, 105588, Note_on_c, 0, 69, 0
1, 105600, Tempo, 504202
1, 105600, Note_on_c, 0, 54, 0
1, 105600, Note_on_c, 0, 59, 0
1, 105600, Note_on_c, 0, 70, 30
1, 105600, Note_on_c, 0, 82, 36
1, 105600, Note_on_c, 0, 55, 32
1, 105602, Control_c, 0, 64, 0
1, 105656, Control_c, 0, 64, 127
1, 105840, Note_on_c, 0, 82, 0
1, 105840, Note_on_c, 0, 70, 0
1, 105840, Note_on_c, 0, 72, 27
1, 105840, Note_on_c, 0, 84, 34
1, 105840, Note_on_c, 0, 59, 27
1, 106068, Note_on_c, 0, 59, 0
1, 106080, Tempo, 517241
1, 106080, Note_on_c, 0, 84, 0
1, 106080, Note_on_c, 0, 72, 0
1, 106080, Note_on_c, 0, 71, 27
1, 106080, Note_on_c, 0, 83, 34
1, 106080, Note_on_c, 0, 59, 27
1, 106115, Control_c, 0, 64, 0
1, 106308, Note_on_c, 0, 59, 0
1, 106320, Note_on_c, 0, 59, 27
1, 106548, Note_on_c, 0, 59, 0
1, 106560, Tempo, 493827
1, 106560, Note_on_c, 0, 58, 32
1, 106680, Note_on_c, 0, 58, 0
1, 106680, Note_on_c, 0, 59, 27
1, 106800, Note_on_c, 0, 59, 0
1, 106800, Note_on_c, 0, 83, 0
1, 106800, Note_on_c, 0, 71, 0
1, 106800, Note_on_c, 0, 60, 27
1, 106920, Tempo, 538117
1, 106920, Note_on_c, 0, 60, 0
1, 106920, Note_on_c, 0, 59, 27
1, 107040, Tempo, 521739
1, 107040, Note_on_c, 0, 59, 0
1, 107040, Note_on_c, 0, 59, 31
1, 107160, Note_on_c, 0, 59, 0
1, 107280, Note_on_c, 0, 59, 31
1, 107400, Note_on_c, 0, 59, 0
1, 107520, Tempo, 504202
1, 107520, Note_on_c, 0, 55, 0
1, 107520, Note_on_c, 0, 71, 45
1, 107520, Note_on_c, 0, 83, 45
1, 107520, Control_c, 0, 64, 0
1, 107520, Note_on_c, 0, 57, 32
1, 107576, Control_c, 0, 64, 127
1, 107760, Note_on_c, 0, 83, 0
1, 107760, Note_on_c, 0, 71, 0
1, 107760, Note_on_c, 0, 74, 40
1, 107760, Note_on_c, 0, 86, 40
1, 107760, Note_on_c, 0, 64, 27
1, 107988, Note_on_c, 0, 64, 0
1, 108000, Tempo, 517241
1, 108000, Note_on_c, 0, 86, 0
1, 108000, Note_on_c, 0, 74, 0
1, 108000, Note_on_c, 0, 72, 41
1, 108000, Note_on_c, 0, 84, 41
1, 108000, Note_on_c, 0, 64, 27
1, 108035, Control_c, 0, 64, 0
1, 108228, Note_on_c, 0, 64, 0
1, 108240, Tempo, 542986
1, 108240, Note_on_c, 0, 64, 27
1, 108468, Note_on_c, 0, 64, 0
1, 108480, Tempo, 493827
1, 108480, Note_on_c, 0, 84, 0
1, 108480, Note_on_c, 0, 72, 0
1, 108480, Note_on_c, 0, 76, 54
1, 108480, Note_on_c, 0, 88, 54
1, 108480, Note_on_c, 0, 59, 36
1, 108600, Note_on_c, 0, 59, 0
1, 108600, Note_on_c, 0, 60, 32
1, 108720, Note_on_c, 0, 60, 0
1, 108720, Note_on_c, 0, 62, 35
1, 108840, Tempo, 538117
1, 108840, Note_on_c, 0, 62, 0
1, 108840, Note_on_c, 0, 60, 37
1, 108960, Tempo, 521739
1, 108960, Note_on_c, 0, 60, 0
1, 108960, Note_on_c, 0, 62, 35
1, 109200, Note_on_c, 0, 62, 0
1, 109200, Note_on_c, 0, 88, 0
1, 109200, Note_on_c, 0, 76, 0
1, 109200, Note_on_c, 0, 72, 43
1, 109200, Note_on_c, 0, 84, 43
1, 109200, Note_on_c, 0, 64, 34
1, 109440, Tempo, 504202
1, 109440, Note_on_c, 0, 64, 0
1, 109440, Note_on_c, 0, 57, 0
1, 109440, Note_on_c, 0, 72, 0
1, 109440, Note_on_c, 0, 84, 0
1, 109440, Note_on_c, 0, 70, 45
1, 109440, Note_on_c, 0, 82, 45
1, 109440, Control_c, 0, 64, 0
1, 109440, Note_on_c, 0, 55, 32
1, 109496, Control_c, 0, 64, 127
1, 109680, Note_on_c, 0, 82, 0
1, 109680, Note_on_c, 0, 70, 0
1, 109680, Note_on_c, 0, 72, 40
1, 109680, Note_on_c, 0, 84, 40
1, 109680, Note_on_c, 0, 64, 27
1, 109908, Note_on_c, 0, 64, 0
1, 109920, Tempo, 517241
1, 109920, Note_on_c, 0, 84, 0
1, 109920, Note_on_c, 0, 72, 0
1, 109920, Note_on_c, 0, 71, 41
1, 109920, Note_on_c, 0, 83, 41
1, 109920, Note_on_c, 0, 64, 27
1, 109955, Control_c, 0, 64, 0
1, 110148, Note_on_c, 0, 64, 0
1, 110160, Tempo, 542986
1, 110160, Note_on_c, 0, 64, 27
1, 110388, Note_on_c, 0, 64, 0
1, 110400, Tempo, 493827
1, 110400, Note_on_c, 0, 83, 0
1, 110400, Note_on_c, 0, 71, 0
1, 110400, Note_on_c, 0, 76, 54
1, 110400, Note_on_c, 0, 88, 54
1, 110400, Note_on_c, 0, 58, 36
1, 110520, Note_on_c, 0, 58, 0
1, 110520, Note_on_c, 0, 59, 33
1, 110640, Note_on_c, 0, 59, 0
1, 110640, Note_on_c, 0, 60, 35
1, 110760, Tempo, 538117
1, 110760, Note_on_c, 0, 60, 0
1, 110760, Note_on_c, 0, 59, 38
1, 110880, Tempo, 521739
1, 110880, Note_on_c, 0, 59, 0
1, 110880, Note_on_c, 0, 64, 40
1, 111120, Note_on_c, 0, 64, 0
1, 111120, Note_on_c, 0, 88, 0
1, 111120, Note_on_c, 0, 76, 0
1, 111120, Note_on_c, 0, 71, 43
1, 111120, Note_on_c, 0, 83, 43
1, 111120, Note_on_c, 0, 67, 34
1, 111360, Note_on_c, 0, 67, 0
1, 111360, Note_on_c, 0, 55, 0
1, 111360, Note_on_c, 0, 71, 0
1, 111360, Note_on_c, 0, 83, 0
1, 111360, Note_on_c, 0, 69, 39
1, 111360, Note_on_c, 0, 81, 46
1, 111360, Note_on_c, 0, 54, 33
1, 111600, Tempo, 510638
1, 111600, Note_on_c, 0, 54, 0
1, 111600, Note_on_c, 0, 81, 0
1, 111600, Note_on_c, 0, 69, 0
1, 111600, Note_on_c, 0, 71, 41
1, 111600, Note_on_c, 0, 83, 49
1, 111600, Note_on_c, 0, 55, 36
1, 111840, Note_on_c, 0, 55, 0
1, 111840, Note_on_c, 0, 83, 0
1, 111840, Note_on_c, 0, 71, 0
1, 111840, Note_on_c, 0, 72, 51
1, 111840, Note_on_c, 0, 84, 51
1, 111840, Note_on_c, 0, 59, 39
1, 111840, Note_on_c, 0, 57, 33
1, 112080, Tempo, 526316
1, 112080, Note_on_c, 0, 57, 0
1, 112080, Note_on_c, 0, 72, 0
1, 112080, Note_on_c, 0, 84, 0
1, 112080, Note_on_c, 0, 59, 0
1, 112080, Note_on_c, 0, 69, 39
1, 112080, Note_on_c, 0, 81, 46
1, 112080, Note_on_c, 0, 59, 35
1, 112080, Note_on_c, 0, 54, 29
1, 112320, Note_on_c, 0, 54, 0
1, 112320, Note_on_c, 0, 69, 0
1, 112320, Note_on_c, 0, 81, 0
1, 112320, Note_on_c, 0, 59, 0
1, 112320, Note_on_c, 0, 67, 37
1, 112320, Note_on_c, 0, 79, 45
1, 112320, Note_on_c, 0, 52, 33
1, 112560, Tempo, 515021
1, 112560, Note_on_c, 0, 52, 0
1, 112560, Note_on_c, 0, 79, 0
1, 112560, Note_on_c, 0, 67, 0
1, 112560, Note_on_c, 0, 70, 39
1, 112560, Note_on_c, 0, 82, 46
1, 112560, Note_on_c, 0, 54, 36
1, 112800, Note_on_c, 0, 54, 0
1, 112800, Note_on_c, 0, 82, 0
1, 112800, Note_on_c, 0, 70, 0
1, 112800, Note_on_c, 0, 71, 41
1, 112800, Note_on_c, 0, 83, 49
1, 112800, Note_on_c, 0, 59, 41
1, 112800, Note_on_c, 0, 55, 34
1, 113040, Tempo, 533333
1, 113040, Note_on_c, 0, 55, 0
1, 113040, Note_on_c, 0, 71, 0
1, 113040, Note_on_c, 0, 83, 0
1, 113040, Note_on_c, 0, 59, 0
1, 113040, Note_on_c, 0, 67, 37
1, 113040, Note_on_c, 0, 79, 45
1, 113040, Note_on_c, 0, 59, 36
1, 113040, Note_on_c, 0, 52, 30
1, 113280, Note_on_c, 0, 52, 0
1, 113280, Note_on_c, 0, 67, 0
1, 113280, Note_on_c, 0, 79, 0
1, 113280, Note_on_c, 0, 59, 0
1, 113280, Note_on_c, 0, 66, 36
1, 113280, Note_on_c, 0, 75, 36
1, 113280, Note_on_c, 0, 78, 43
1, 113280, Note_on_c, 0, 59, 43
1, 113280, Note_on_c, 0, 47, 36
1, 113520, Tempo, 519481
1, 113520, Note_on_c, 0, 59, 0
1, 113520, Note_on_c, 0, 58, 39
1, 113760, Note_on_c, 0, 58, 0
1, 113760, Note_on_c, 0, 59, 42
1, 114000, Note_on_c, 0, 59, 0
1, 114000, Note_on_c, 0, 60, 44
1, 114240, Tempo, 519481
1, 114240, Note_on_c, 0, 60, 0
1, 114240, Note_on_c, 0, 47, 0
1, 114240, Note_on_c, 0, 66, 0
1, 114240, Note_on_c, 0, 75, 0
1, 114240, Note_on_c, 0, 78, 0
1, 114240, Note_on_c, 0, 59, 47
1, 114360, Tempo, 521739
1, 114480, Tempo, 524017
1, 114480, Note_on_c, 0, 59, 0
1, 114480, Note_on_c, 0, 57, 44
1, 114560, Tempo, 526316
1, 114680, Tempo, 528634
1, 114720, Note_on_c, 0, 57, 0
1, 114720, Note_on_c, 0, 54, 44
1, 114800, Tempo, 530973
1, 114880, Tempo, 533333
1, 114960, Note_on_c, 0, 54, 0
1, 114960, Note_on_c, 0, 51, 43
1, 115200, Tempo, 524017
1, 115200, Note_on_c, 0, 51, 0
1, 115200, Note_on_c, 0, 57, 39
1, 115200, Note_on_c, 0, 69, 46
1, 115200, Note_on_c, 0, 42, 33
1, 115440, Tempo, 510638
1, 115440, Note_on_c, 0, 42, 0
1, 115440, Note_on_c, 0, 69, 0
1, 115440, Note_on_c, 0, 57, 0
1, 115440, Note_on_c, 0, 59, 41
1, 115440, Note_on_c, 0, 71, 49
1, 115440, Note_on_c, 0, 43, 36
1, 115680, Note_on_c, 0, 43, 0
1, 115680, Note_on_c, 0, 71, 0
1, 115680, Note_on_c, 0, 59, 0
1, 115680, Note_on_c, 0, 60, 51
1, 115680, Note_on_c, 0, 72, 51
1, 115680, Note_on_c, 0, 47, 39
1, 115680, Note_on_c, 0, 45, 33
1, 115920, Tempo, 526316
1, 115920, Note_on_c, 0, 45, 0
1, 115920, Note_on_c, 0, 60, 0
1, 115920, Note_on_c, 0, 72, 0
1, 115920, Note_on_c, 0, 47, 0
1, 115920, Note_on_c, 0, 57, 39
1, 115920, Note_on_c, 0, 69, 46
1, 115920, Note_on_c, 0, 47, 35
1, 115920, Note_on_c, 0, 42, 29
1, 116160, Note_on_c, 0, 42, 0
1, 116160, Note_on_c, 0, 57, 0
1, 116160, Note_on_c, 0, 69, 0
1, 116160, Note_on_c, 0, 47, 0
1, 116160, Note_on_c, 0, 55, 37
1, 116160, Note_on_c, 0, 67, 45
1, 116160, Note_on_c, 0, 40, 33
1, 116400, Tempo, 515021
1, 116400, Note_on_c, 0, 40, 0
1, 116400, Note_on_c, 0, 67, 0
1, 116400, Note_on_c, 0, 55, 0
1, 116400, Note_on_c, 0, 58, 39
1, 116400, Note_on_c, 0, 70, 46
1, 116400, Note_on_c, 0, 42, 36
1, 116640, Note_on_c, 0, 42, 0
1, 116640, Note_on_c, 0, 70, 0
1, 116640, Note_on_c, 0, 58, 0
1, 116640, Note_on_c, 0, 59, 41
1, 116640, Note_on_c, 0, 71, 49
1, 116640, Note_on_c, 0, 47, 41
1, 116640, Note_on_c, 0, 43, 34
1, 116880, Tempo, 533333
1, 116880, Note_on_c, 0, 43, 0
1, 116880, Note_on_c, 0, 59, 0
1, 116880, Note_on_c, 0, 71, 0
1, 116880, Note_on_c, 0, 47, 0
1, 116880, Note_on_c, 0, 55, 37
1, 116880, Note_on_c, 0, 67, 45
1, 116880, Note_on_c, 0, 47, 36
1, 116880, Note_on_c, 0, 40, 30
1, 117120, Note_on_c, 0, 40, 0
1, 117120, Note_on_c, 0, 55, 0
1, 117120, Note_on_c, 0, 67, 0
1, 117120, Note_on_c, 0, 47, 0
1, 117120, Note_on_c, 0, 54, 36
1, 117120, Note_on_c, 0, 63, 36
1, 117120, Note_on_c, 0, 66, 43
1, 117120, Note_on_c, 0, 35, 43
1, 117120, Note_on_c, 0, 47, 43
1, 117360, Tempo, 519481
1, 117595, Note_on_c, 0, 47, 0
1, 117595, Note_on_c, 0, 35, 0
1, 117600, Note_on_c, 0, 35, 36
1, 117600, Note_on_c, 0, 47, 36
1, 117828, Note_on_c, 0, 47, 0
1, 117828, Note_on_c, 0, 35, 0
1, 117840, Note_on_c, 0, 35, 36
1, 117840, Note_on_c, 0, 47, 36
1, 118068, Note_on_c, 0, 47, 0
1, 118068, Note_on_c, 0, 35, 0
1, 118080, Note_on_c, 0, 54, 0
1, 118080, Note_on_c, 0, 63, 0
1, 118080, Note_on_c, 0, 66, 0
1, 118080, Note_on_c, 0, 35, 43
1, 118080, Note_on_c, 0, 47, 43
1, 118320, Tempo, 526316
1, 118320, Note_on_c, 0, 62, 40
1, 118320, Note_on_c, 0, 66, 40
1, 118555, Note_on_c, 0, 47, 0
1, 118555, Note_on_c, 0, 35, 0
1, 118560, Note_on_c, 0, 62, 0
1, 118560, Note_on_c, 0, 66, 0
1, 118560, Note_on_c, 0, 61, 42
1, 118560, Note_on_c, 0, 64, 42
1, 118560, Note_on_c, 0, 66, 42
1, 118560, Note_on_c, 0, 35, 36
1, 118560, Note_on_c, 0, 47, 36
1, 118788, Note_on_c, 0, 47, 0
1, 118788, Note_on_c, 0, 35, 0
1, 118800, Note_on_c, 0, 61, 0
1, 118800, Note_on_c, 0, 64, 0
1, 118800, Note_on_c, 0, 66, 0
1, 118800, Note_on_c, 0, 59, 44
1, 118800, Note_on_c, 0, 62, 44
1, 118800, Note_on_c, 0, 66, 44
1, 118800, Note_on_c, 0, 35, 37
1, 118800, Note_on_c, 0, 47, 37
1, 119028, Note_on_c, 0, 47, 0
1, 119028, Note_on_c, 0, 35, 0
1, 119040, Tempo, 519481
1, 119040, Note_on_c, 0, 59, 0
1, 119040, Note_on_c, 0, 62, 0
1, 119040, Note_on_c, 0, 66, 0
1, 119040, Note_on_c, 0, 56, 45
1, 119040, Note_on_c, 0, 66, 45
1, 119040, Note_on_c, 0, 35, 43
1, 119040, Note_on_c, 0, 47, 43
1, 119280, Tempo, 545455
1, 119280, Note_on_c, 0, 47, 0
1, 119280, Note_on_c, 0, 35, 0
1, 119280, Note_on_c, 0, 38, 36
1, 119280, Note_on_c, 0, 50, 36
1, 119520, Tempo, 519481
1, 119520, Note_on_c, 0, 50, 0
1, 119520, Note_on_c, 0, 38, 0
1, 119520, Note_on_c, 0, 66, 0
1, 119520, Note_on_c, 0, 65, 44
1, 119520, Note_on_c, 0, 37, 36
1, 119520, Note_on_c, 0, 49, 36
1, 119760, Note_on_c, 0, 65, 0
1, 119760, Note_on_c, 0, 56, 0
1, 119760, Note_on_c, 0, 57, 45
1, 119760, Note_on_c, 0, 61, 45
1, 119760, Note_on_c, 0, 66, 45
1, 120000, Note_on_c, 0, 66, 0
1, 120000, Note_on_c, 0, 57, 0
1, 120000, Note_on_c, 0, 61, 0
1, 120000, Note_on_c, 0, 61, 47
1, 120000, Note_on_c, 0, 65, 47
1, 120000, Note_on_c, 0, 68, 47
1, 120240, Note_on_c, 0, 37, 0
1, 120240, Note_on_c, 0, 49, 0
1, 120240, Note_on_c, 0, 35, 36
1, 120240, Note_on_c, 0, 47, 36
1, 120480, Note_on_c, 0, 47, 0
1, 120480, Note_on_c, 0, 65, 0
1, 120480, Note_on_c, 0, 68, 0
1, 120480, Note_on_c, 0, 61, 0
1, 120480, Note_on_c, 0, 35, 0
1, 120480, Note_on_c, 0, 61, 47
1, 120480, Note_on_c, 0, 66, 47
1, 120480, Note_on_c, 0, 69, 47
1, 120480, Note_on_c, 0, 33, 36
1, 120480, Note_on_c, 0, 45, 36
1, 120720, Tempo, 547945
1, 120720, Note_on_c, 0, 45, 0
1, 120720, Note_on_c, 0, 69, 0
1, 120720, Note_on_c, 0, 61, 0
1, 120720, Note_on_c, 0, 66, 0
1, 120720, Note_on_c, 0, 33, 0
1, 120720, Note_on_c, 0, 61, 47
1, 120720, Note_on_c, 0, 65, 47
1, 120720, Note_on_c, 0, 73, 47
1, 120720, Note_on_c, 0, 32, 36
1, 120720, Note_on_c, 0, 44, 36
1, 120960, Tempo, 519481
1, 120960, Note_on_c, 0, 44, 0
1, 120960, Note_on_c, 0, 73, 0
1, 120960, Note_on_c, 0, 61, 0
1, 120960, Note_on_c, 0, 65, 0
1, 120960, Note_on_c, 0, 32, 0
1, 120960, Note_on_c, 0, 61, 51
1, 120960, Note_on_c, 0, 66, 51
1, 120960, Note_on_c, 0, 71, 51
1, 120960, Note_on_c, 0, 30, 40
1, 120960, Note_on_c, 0, 42, 40
1, 121440, Tempo, 526316
1, 121440, Note_on_c, 0, 71, 0
1, 121440, Note_on_c, 0, 69, 45
1, 121680, Note_on_c, 0, 69, 0
1, 121680, Note_on_c, 0, 61, 0
1, 121680, Note_on_c, 0, 66, 0
1, 121680, Note_on_c, 0, 59, 45
1, 121680, Note_on_c, 0, 61, 45
1, 121680, Note_on_c, 0, 68, 45
1, 121920, Tempo, 519481
1, 121920, Note_on_c, 0, 68, 0
1, 121920, Note_on_c, 0, 59, 0
1, 121920, Note_on_c, 0, 61, 0
1, 121920, Note_on_c, 0, 57, 49
1, 121920, Note_on_c, 0, 61, 49
1, 121920, Note_on_c, 0, 66, 49
1, 122160, Note_on_c, 0, 30, 0
1, 122160, Note_on_c, 0, 42, 0
1, 122160, Note_on_c, 0, 32, 36
1, 122160, Note_on_c, 0, 44, 36
1, 122400, Note_on_c, 0, 44, 0
1, 122400, Note_on_c, 0, 32, 0
1, 122400, Note_on_c, 0, 33, 36
1, 122400, Note_on_c, 0, 45, 36
1, 122640, Tempo, 538117
1, 122640, Note_on_c, 0, 45, 0
1, 122640, Note_on_c, 0, 66, 0
1, 122640, Note_on_c, 0, 61, 0
1, 122640, Note_on_c, 0, 57, 0
1, 122640, Note_on_c, 0, 33, 0
1, 122640, Note_on_c, 0, 56, 45
1, 122640, Note_on_c, 0, 64, 45
1, 122640, Note_on_c, 0, 34, 36
1, 122640, Note_on_c, 0, 46, 36
1, 122880, Tempo, 519481
1, 122880, Note_on_c, 0, 46, 0
1, 122880, Note_on_c, 0, 56, 0
1, 122880, Note_on_c, 0, 64, 0
1, 122880, Note_on_c, 0, 34, 0
1, 122880, Note_on_c, 0, 54, 46
1, 122880, Note_on_c, 0, 64, 46
1, 122880, Note_on_c, 0, 34, 43
1, 122880, Note_on_c, 0, 46, 43
1, 123120, Note_on_c, 0, 46, 0
1, 123120, Note_on_c, 0, 34, 0
1, 123120, Note_on_c, 0, 37, 35
1, 123120, Note_on_c, 0, 49, 35
1, 123360, Tempo, 528634
1, 123360, Note_on_c, 0, 49, 0
1, 123360, Note_on_c, 0, 37, 0
1, 123360, Note_on_c, 0, 64, 0
1, 123360, Note_on_c, 0, 63, 45
1, 123360, Note_on_c, 0, 35, 35
1, 123360, Note_on_c, 0, 47, 35
1, 123600, Note_on_c, 0, 63, 0
1, 123600, Note_on_c, 0, 54, 0
1, 123600, Note_on_c, 0, 56, 45
1, 123600, Note_on_c, 0, 59, 45
1, 123600, Note_on_c, 0, 64, 45
1, 123840, Note_on_c, 0, 64, 0
1, 123840, Note_on_c, 0, 56, 0
1, 123840, Note_on_c, 0, 59, 0
1, 123840, Note_on_c, 0, 59, 49
1, 123840, Note_on_c, 0, 63, 49
1, 123840, Note_on_c, 0, 66, 49
1, 124080, Note_on_c, 0, 35, 0
1, 124080, Note_on_c, 0, 47, 0
1, 124080, Note_on_c, 0, 33, 35
1, 124080, Note_on_c, 0, 45, 35
1, 124320, Tempo, 519481
1, 124320, Note_on_c, 0, 45, 0
1, 124320, Note_on_c, 0, 63, 0
1, 124320, Note_on_c, 0, 66, 0
1, 124320, Note_on_c, 0, 59, 0
1, 124320, Note_on_c, 0, 33, 0
1, 124320, Note_on_c, 0, 59, 43
1, 124320, Note_on_c, 0, 64, 43
1, 124320, Note_on_c, 0, 68, 43
1, 124320, Note_on_c, 0, 32, 36
1, 124320, Note_on_c, 0, 44, 36
1, 124560, Note_on_c, 0, 44, 0
1, 124560, Note_on_c, 0, 68, 0
1, 124560, Note_on_c, 0, 59, 0
1, 124560, Note_on_c, 0, 64, 0
1, 124560, Note_on_c, 0, 32, 0
1, 124560, Note_on_c, 0, 59, 43
1, 124560, Note_on_c, 0, 63, 43
1, 124560, Note_on_c, 0, 71, 43
1, 124560, Note_on_c, 0, 30, 36
1, 124560, Note_on_c, 0, 42, 36
1, 124800, Tempo, 526316
1, 124800, Note_on_c, 0, 42, 0
1, 124800, Note_on_c, 0, 71, 0
1, 124800, Note_on_c, 0, 59, 0
1, 124800, Note_on_c, 0, 63, 0
1, 124800, Note_on_c, 0, 30, 0
1, 124800, Note_on_c, 0, 59, 47
1, 124800, Note_on_c, 0, 64, 47
1, 124800, Note_on_c, 0, 69, 47
1, 124800, Note_on_c, 0, 40, 37
1, 125280, Tempo, 533333
1, 125280, Note_on_c, 0, 69, 0
1, 125280, Note_on_c, 0, 68, 39
1, 125520, Note_on_c, 0, 68, 0
1, 125520, Note_on_c, 0, 59, 0
1, 125520, Note_on_c, 0, 64, 0
1, 125520, Note_on_c, 0, 57, 37
1, 125520, Note_on_c, 0, 59, 37
1, 125520, Note_on_c, 0, 66, 37
1, 125760, Tempo, 550459
1, 125760, Note_on_c, 0, 66, 0
1, 125760, Note_on_c, 0, 59, 0
1, 125760, Note_on_c, 0, 57, 0
1, 125760, Note_on_c, 0, 56, 43
1, 125760, Note_on_c, 0, 59, 43
1, 125760, Note_on_c, 0, 64, 43
1, 126240, Tempo, 588235
1, 126240, Note_on_c, 0, 64, 0
1, 126240, Note_on_c, 0, 40, 0
1, 126240, Note_on_c, 0, 56, 0
1, 126240, Note_on_c, 0, 59, 0
1, 126240, Note_on_c, 0, 56, 36
1, 126240, Note_on_c, 0, 59, 36
1, 126240, Note_on_c, 0, 64, 36
1, 126240, Note_on_c, 0, 38, 34
1, 126720, Tempo, 466926
1, 126720, Note_on_c, 0, 38, 0
1, 126720, Note_on_c, 0, 56, 0
1, 126720, Note_on_c, 0, 59, 0
1, 126720, Note_on_c, 0, 64, 0
1, 126720, Note_on_c, 0, 60, 30
1, 126720, Note_on_c, 0, 64, 36
1, 126720, Note_on_c, 0, 36, 31
1, 126762, Control_c, 0, 64, 127
1, 126800, Tempo, 465116
1, 126840, Note_on_c, 0, 36, 0
1, 126840, Note_on_c, 0, 64, 0
1, 126840, Note_on_c, 0, 60, 0
1, 126840, Note_on_c, 0, 55, 30
1, 126840, Note_on_c, 0, 43, 27
1, 126880, Tempo, 463320
1, 126960, Tempo, 461538
1, 126960, Note_on_c, 0, 43, 0
1, 126960, Note_on_c, 0, 55, 0
1, 126960, Note_on_c, 0, 60, 31
1, 126960, Note_on_c, 0, 64, 36
1, 126960, Note_on_c, 0, 36, 32
1, 127040, Tempo, 459770
1, 127080, Note_on_c, 0, 36, 0
1, 127080, Note_on_c, 0, 64, 0
1, 127080, Note_on_c, 0, 60, 0
1, 127080, Note_on_c, 0, 55, 32
1, 127080, Note_on_c, 0, 43, 29
1, 127120, Tempo, 458015
1, 127200, Tempo, 456274
1, 127200, Note_on_c, 0, 43, 0
1, 127200, Note_on_c, 0, 55, 0
1, 127200, Note_on_c, 0, 60, 32
1, 127200, Note_on_c, 0, 64, 38
1, 127200, Note_on_c, 0, 36, 33
1, 127280, Tempo, 454545
1, 127320, Note_on_c, 0, 36, 0
1, 127320, Note_on_c, 0, 64, 0
1, 127320, Note_on_c, 0, 60, 0
1, 127320, Note_on_c, 0, 55, 33
1, 127320, Note_on_c, 0, 43, 30
1, 127360, Tempo, 452830
1, 127400, Tempo, 451128
1, 127440, Note_on_c, 0, 43, 0
1, 127440, Note_on_c, 0, 55, 0
1, 127440, Note_on_c, 0, 60, 34
1, 127440, Note_on_c, 0, 64, 40
1, 127440, Note_on_c, 0, 36, 35
1, 127480, Tempo, 449438
1, 127560, Tempo, 447761
1, 127560, Note_on_c, 0, 36, 0
1, 127560, Note_on_c, 0, 64, 0
1, 127560, Note_on_c, 0, 60, 0
1, 127560, Note_on_c, 0, 55, 34
1, 127560, Note_on_c, 0, 43, 31
1, 127640, Tempo, 446097
1, 127680, Note_on_c, 0, 43, 0
1, 127680, Note_on_c, 0, 55, 0
1, 127680, Note_on_c, 0, 60, 35
1, 127680, Note_on_c, 0, 64, 41
1, 127680, Note_on_c, 0, 36, 36
1, 127720, Tempo, 444444
1, 127800, Tempo, 442804
1, 127800, Note_on_c, 0, 36, 0
1, 127800, Note_on_c, 0, 64, 0
1, 127800, Note_on_c, 0, 60, 0
1, 127800, Note_on_c, 0, 55, 34
1, 127800, Note_on_c, 0, 43, 31
1, 127880, Tempo, 441176
1, 127920, Note_on_c, 0, 43, 0
1, 127920, Note_on_c, 0, 55, 0
1, 127920, Note_on_c, 0, 60, 36
1, 127920, Note_on_c, 0, 64, 44
1, 127920, Note_on_c, 0, 36, 38
1, 127960, Tempo, 439560
1, 128000, Tempo, 437956
1, 128040, Note_on_c, 0, 36, 0
1, 128040, Note_on_c, 0, 64, 0
1, 128040, Note_on_c, 0, 60, 0
1, 128040, Note_on_c, 0, 55, 37
1, 128040, Note_on_c, 0, 43, 32
1, 128080, Tempo, 436364
1, 128160, Tempo, 434783
1, 128160, Note_on_c, 0, 43, 0
1, 128160, Note_on_c, 0, 55, 0
1, 128160, Note_on_c, 0, 60, 38
1, 128160, Note_on_c, 0, 64, 46
1, 128160, Note_on_c, 0, 36, 39
1, 128240, Tempo, 433213
1, 128280, Note_on_c, 0, 36, 0
1, 128280, Note_on_c, 0, 64, 0
1, 128280, Note_on_c, 0, 60, 0
1, 128280, Note_on_c, 0, 55, 37
1, 128280, Note_on_c, 0, 43, 34
1, 128320, Tempo, 431655
1, 128400, Tempo, 430108
1, 128400, Note_on_c, 0, 43, 0
1, 128400, Note_on_c, 0, 55, 0
1, 128400, Note_on_c, 0, 60, 39
1, 128400, Note_on_c, 0, 64, 46
1, 128400, Note_on_c, 0, 36, 41
1, 128480, Tempo, 428571
1, 128520, Note_on_c, 0, 36, 0
1, 128520, Note_on_c, 0, 64, 0
1, 128520, Note_on_c, 0, 60, 0
1, 128520, Note_on_c, 0, 55, 40
1, 128520, Note_on_c, 0, 43, 36
1, 128560, Tempo, 427046
1, 128600, Tempo, 425532
1, 128640, Tempo, 427046
1, 128640, Note_on_c, 0, 43, 0
1, 128640, Note_on_c, 0, 55, 0
1, 128640, Note_on_c, 0, 64, 41
1, 128640, Note_on_c, 0, 67, 49
1, 128640, Control_c, 0, 64, 0
1, 128640, Note_on_c, 0, 36, 42
1, 128680, Tempo, 424028
1, 128689, Control_c, 0, 64, 127
1, 128760, Note_on_c, 0, 36, 0
1, 128760, Note_on_c, 0, 67, 0
1, 128760, Note_on_c, 0, 64, 0
1, 128760, Note_on_c, 0, 60, 41
1, 128760, Note_on_c, 0, 43, 38
1, 128800, Tempo, 422535
1, 128880, Note_on_c, 0, 43, 0
1, 128880, Note_on_c, 0, 60, 0
1, 128880, Note_on_c, 0, 64, 42
1, 128880, Note_on_c, 0, 67, 50
1, 128880, Note_on_c, 0, 36, 43
1, 128920, Tempo, 421053
1, 129000, Note_on_c, 0, 36, 0
1, 129000, Note_on_c, 0, 67, 0
1, 129000, Note_on_c, 0, 64, 0
1, 129000, Note_on_c, 0, 60, 43
1, 129000, Note_on_c, 0, 43, 39
1, 129040, Tempo, 419580
1, 129120, Note_on_c, 0, 43, 0
1, 129120, Note_on_c, 0, 60, 0
1, 129120, Note_on_c, 0, 64, 44
1, 129120, Note_on_c, 0, 67, 52
1, 129120, Note_on_c, 0, 36, 46
1, 129160, Tempo, 418118
1, 129240, Tempo, 416667
1, 129240, Note_on_c, 0, 36, 0
1, 129240, Note_on_c, 0, 67, 0
1, 129240, Note_on_c, 0, 64, 0
1, 129240, Note_on_c, 0, 60, 44
1, 129240, Note_on_c, 0, 43, 41
1, 129360, Tempo, 415225
1, 129360, Note_on_c, 0, 43, 0
1, 129360, Note_on_c, 0, 60, 0
1, 129360, Note_on_c, 0, 64, 46
1, 129360, Note_on_c, 0, 67, 54
1, 129360, Note_on_c, 0, 36, 47
1, 129480, Tempo, 413793
1, 129480, Note_on_c, 0, 36, 0
1, 129480, Note_on_c, 0, 67, 0
1, 129480, Note_on_c, 0, 64, 0
1, 129480, Note_on_c, 0, 60, 44
1, 129480, Note_on_c, 0, 43, 41
1, 129600, Tempo, 412371
1, 129600, Note_on_c, 0, 43, 0
1, 129600, Note_on_c, 0, 60, 0
1, 129600, Note_on_c, 0, 67, 48
1, 129600, Note_on_c, 0, 72, 57
1, 129600, Note_on_c, 0, 36, 49
1, 129680, Tempo, 410959
1, 129720, Note_on_c, 0, 36, 0
1, 129720, Note_on_c, 0, 72, 0
1, 129720, Note_on_c, 0, 67, 0
1, 129720, Note_on_c, 0, 64, 48
1, 129720, Note_on_c, 0, 43, 44
1, 129800, Tempo, 409556
1, 129840, Note_on_c, 0, 43, 0
1, 129840, Note_on_c, 0, 64, 0
1, 129840, Note_on_c, 0, 67, 49
1, 129840, Note_on_c, 0, 72, 57
1, 129840, Note_on_c, 0, 36, 50
1, 129920, Tempo, 408163
1, 129960, Note_on_c, 0, 36, 0
1, 129960, Note_on_c, 0, 72, 0
1, 129960, Note_on_c, 0, 67, 0
1, 129960, Note_on_c, 0, 64, 48
1, 129960, Note_on_c, 0, 43, 43
1, 130040, Tempo, 406780
1, 130080, Note_on_c, 0, 43, 0
1, 130080, Note_on_c, 0, 64, 0
1, 130080, Note_on_c, 0, 67, 50
1, 130080, Note_on_c, 0, 72, 59
1, 130080, Note_on_c, 0, 36, 52
1, 130120, Tempo, 405405
1, 130200, Note_on_c, 0, 36, 0
1, 130200, Note_on_c, 0, 72, 0
1, 130200, Note_on_c, 0, 67, 0
1, 130200, Note_on_c, 0, 64, 49
1, 130200, Note_on_c, 0, 43, 46
1, 130240, Tempo, 404040
1, 130320, Note_on_c, 0, 43, 0
1, 130320, Note_on_c, 0, 64, 0
1, 130320, Note_on_c, 0, 67, 52
1, 130320, Note_on_c, 0, 72, 61
1, 130320, Note_on_c, 0, 36, 53
1, 130360, Tempo, 402685
1, 130440, Note_on_c, 0, 36, 0
1, 130440, Note_on_c, 0, 72, 0
1, 130440, Note_on_c, 0, 67, 0
1, 130440, Note_on_c, 0, 64, 51
1, 130440, Note_on_c, 0, 43, 45
1, 130480, Tempo, 401338
1, 130560, Tempo, 400000
1, 130560, Note_on_c, 0, 43, 0
1, 130560, Note_on_c, 0, 64, 0
1, 130560, Note_on_c, 0, 72, 53
1, 130560, Note_on_c, 0, 76, 63
1, 130560, Control_c, 0, 64, 0
1, 130560, Note_on_c, 0, 36, 55
1, 130631, Control_c, 0, 64, 127
1, 130680, Note_on_c, 0, 36, 0
1, 130680, Note_on_c, 0, 76, 0
1, 130680, Note_on_c, 0, 72, 0
1, 130680, Note_on_c, 0, 67, 52
1, 130680, Note_on_c, 0, 43, 49
1, 130760, Tempo, 398671
1, 130800, Note_on_c, 0, 43, 0
1, 130800, Note_on_c, 0, 67, 0
1, 130800, Note_on_c, 0, 72, 55
1, 130800, Note_on_c, 0, 76, 65
1, 130800, Note_on_c, 0, 36, 57
1, 130920, Note_on_c, 0, 36, 0
1, 130920, Note_on_c, 0, 76, 0
1, 130920, Note_on_c, 0, 72, 0
1, 130920, Note_on_c, 0, 67, 53
1, 130920, Note_on_c, 0, 43, 51
1, 130960, Tempo, 397351
1, 131040, Note_on_c, 0, 43, 0
1, 131040, Note_on_c, 0, 67, 0
1, 131040, Note_on_c, 0, 76, 57
1, 131040, Note_on_c, 0, 79, 67
1, 131040, Note_on_c, 0, 36, 59
1, 131120, Tempo, 396040
1, 131160, Note_on_c, 0, 36, 0
1, 131160, Note_on_c, 0, 79, 0
1, 131160, Note_on_c, 0, 76, 0
1, 131160, Note_on_c, 0, 72, 56
1, 131160, Note_on_c, 0, 43, 52
1, 131280, Note_on_c, 0, 43, 0
1, 131280, Note_on_c, 0, 72, 0
1, 131280, Note_on_c, 0, 76, 58
1, 131280, Note_on_c, 0, 79, 68
1, 131280, Note_on_c, 0, 36, 60
1, 131320, Tempo, 394737
1, 131400, Note_on_c, 0, 36, 0
1, 131400, Note_on_c, 0, 79, 0
1, 131400, Note_on_c, 0, 76, 0
1, 131400, Note_on_c, 0, 72, 57
1, 131400, Note_on_c, 0, 43, 52
1, 131480, Tempo, 393443
1, 131520, Note_on_c, 0, 43, 0
1, 131520, Note_on_c, 0, 72, 0
1, 131520, Note_on_c, 0, 84, 71
1, 131520, Note_on_c, 0, 79, 60
1, 131520, Note_on_c, 0, 36, 62
1, 131640, Note_on_c, 0, 36, 0
1, 131640, Note_on_c, 0, 79, 0
1, 131640, Note_on_c, 0, 84, 0
1, 131640, Note_on_c, 0, 76, 59
1, 131640, Note_on_c, 0, 43, 55
1, 131680, Tempo, 392157
1, 131760, Note_on_c, 0, 43, 0
1, 131760, Note_on_c, 0, 76, 0
1, 131760, Note_on_c, 0, 79, 61
1, 131760, Note_on_c, 0, 84, 72
1, 131760, Note_on_c, 0, 36, 63
1, 131840, Tempo, 390879
1, 131880, Note_on_c, 0, 36, 0
1, 131880, Note_on_c, 0, 84, 0
1, 131880, Note_on_c, 0, 79, 0
1, 131880, Note_on_c, 0, 76, 62
1, 131880, Note_on_c, 0, 43, 56
1, 132000, Note_on_c, 0, 43, 0
1, 132000, Note_on_c, 0, 76, 0
1, 132000, Note_on_c, 0, 88, 75
1, 132000, Note_on_c, 0, 84, 63
1, 132000, Note_on_c, 0, 36, 65
1, 132040, Tempo, 389610
1, 132120, Note_on_c, 0, 36, 0
1, 132120, Note_on_c, 0, 84, 0
1, 132120, Note_on_c, 0, 88, 0
1, 132120, Note_on_c, 0, 79, 62
1, 132120, Note_on_c, 0, 43, 56
1, 132200, Tempo, 388350
1, 132240, Tempo, 425532
1, 132240, Note_on_c, 0, 43, 0
1, 132240, Note_on_c, 0, 79, 0
1, 132240, Note_on_c, 0, 88, 77
1, 132240, Note_on_c, 0, 84, 65
1, 132240, Note_on_c, 0, 36, 67
1, 132360, Note_on_c, 0, 36, 0
1, 132360, Note_on_c, 0, 84, 0
1, 132360, Note_on_c, 0, 88, 0
1, 132360, Note_on_c, 0, 79, 64
1, 132360, Note_on_c, 0, 43, 58
1, 132480, Tempo, 412343
1, 132480, Note_on_c, 0, 43, 0
1, 132480, Note_on_c, 0, 79, 0
1, 132480, Note_on_c, 0, 76, 74
1, 132480, Note_on_c, 0, 79, 74
1, 132480, Note_on_c, 0, 84, 74
1, 132480, Note_on_c, 0, 88, 88
1, 132480, Control_c, 0, 91, 127
1, 132480, Text_t, "bdca426d104a26ac9dcb070447587523"
1, 132480, Control_c, 0, 64, 0
1, 132480, Note_on_c, 0, 60, 55
1, 132480, Note_on_c, 0, 67, 55
1, 132480, Note_on_c, 0, 72, 64
1, 132551, Control_c, 0, 64, 127
1, 132955, Note_on_c, 0, 72, 0
1, 132955, Note_on_c, 0, 60, 0
1, 132955, Note_on_c, 0, 79, 0
1, 132955, Note_on_c, 0, 84, 0
1, 132955, Note_on_c, 0, 76, 0
1, 132955, Note_on_c, 0, 67, 0
1, 132955, Note_on_c, 0, 88, 0
1, 132960, Tempo, 402253
1, 132960, Note_on_c, 0, 76, 70
1, 132960, Note_on_c, 0, 79, 70
1, 132960, Note_on_c, 0, 84, 70
1, 132960, Note_on_c, 0, 88, 83
1, 132960, Note_on_c, 0, 60, 49
1, 132960, Note_on_c, 0, 67, 49
1, 132960, Note_on_c, 0, 72, 59
1, 133188, Note_on_c, 0, 72, 0
1, 133188, Note_on_c, 0, 60, 0
1, 133188, Note_on_c, 0, 79, 0
1, 133188, Note_on_c, 0, 84, 0
1, 133188, Note_on_c, 0, 76, 0
1, 133188, Note_on_c, 0, 67, 0
1, 133188, Note_on_c, 0, 88, 0
1, 133200, Note_on_c, 0, 76, 70
1, 133200, Note_on_c, 0, 79, 70
1, 133200, Note_on_c, 0, 84, 70
1, 133200, Note_on_c, 0, 88, 83
1, 133200, Note_on_c, 0, 60, 49
1, 133200, Note_on_c, 0, 67, 49
1, 133200, Note_on_c, 0, 72, 59
1, 133428, Note_on_c, 0, 72, 0
1, 133428, Note_on_c, 0, 60, 0
1, 133428, Note_on_c, 0, 79, 0
1, 133428, Note_on_c, 0, 84, 0
1, 133428, Note_on_c, 0, 76, 0
1, 133428, Note_on_c, 0, 67, 0
1, 133428, Note_on_c, 0, 88, 0
1, 133440, Tempo, 412343
1, 133440, Note_on_c, 0, 76, 74
1, 133440, Note_on_c, 0, 79, 74
1, 133440, Note_on_c, 0, 84, 74
1, 133440, Note_on_c, 0, 88, 88
1, 133440, Note_on_c, 0, 60, 56
1, 133440, Note_on_c, 0, 67, 56
1, 133440, Note_on_c, 0, 72, 66
1, 133915, Note_on_c, 0, 72, 0
1, 133915, Note_on_c, 0, 60, 0
1, 133915, Note_on_c, 0, 79, 0
1, 133915, Note_on_c, 0, 84, 0
1, 133915, Note_on_c, 0, 76, 0
1, 133915, Note_on_c, 0, 67, 0
1, 133915, Note_on_c, 0, 88, 0
1, 133920, Tempo, 402253
1, 133920, Note_on_c, 0, 76, 69
1, 133920, Note_on_c, 0, 79, 69
1, 133920, Note_on_c, 0, 84, 69
1, 133920, Note_on_c, 0, 88, 82
1, 133920, Note_on_c, 0, 60, 50
1, 133920, Note_on_c, 0, 67, 50
1, 133920, Note_on_c, 0, 72, 60
1, 134148, Note_on_c, 0, 72, 0
1, 134148, Note_on_c, 0, 60, 0
1, 134148, Note_on_c, 0, 79, 0
1, 134148, Note_on_c, 0, 84, 0
1, 134148, Note_on_c, 0, 76, 0
1, 134148, Note_on_c, 0, 67, 0
1, 134148, Note_on_c, 0, 88, 0
1, 134160, Note_on_c, 0, 76, 69
1, 134160, Note_on_c, 0, 79, 69
1, 134160, Note_on_c, 0, 84, 69
1, 134160, Note_on_c, 0, 88, 82
1, 134160, Note_on_c, 0, 60, 50
1, 134160, Note_on_c, 0, 67, 50
1, 134160, Note_on_c, 0, 72, 60
1, 134388, Note_on_c, 0, 72, 0
1, 134388, Note_on_c, 0, 60, 0
1, 134388, Note_on_c, 0, 79, 0
1, 134388, Note_on_c, 0, 84, 0
1, 134388, Note_on_c, 0, 76, 0
1, 134388, Note_on_c, 0, 67, 0
1, 134388, Note_on_c, 0, 88, 0
1, 134400, Tempo, 410874
1, 134400, Note_on_c, 0, 76, 74
1, 134400, Note_on_c, 0, 79, 74
1, 134400, Note_on_c, 0, 84, 74
1, 134400, Note_on_c, 0, 88, 88
1, 134400, Note_on_c, 0, 64, 56
1, 134400, Note_on_c, 0, 60, 56
1, 134400, Note_on_c, 0, 67, 56
1, 134400, Note_on_c, 0, 72, 66
1, 134408, Control_c, 0, 64, 0
1, 134456, Control_c, 0, 64, 127
1, 134640, Note_on_c, 0, 72, 0
1, 134640, Note_on_c, 0, 76, 0
1, 134640, Note_on_c, 0, 64, 0
1, 134640, Note_on_c, 0, 79, 0
1, 134640, Note_on_c, 0, 84, 0
1, 134640, Note_on_c, 0, 88, 0
1, 134640, Note_on_c, 0, 60, 0
1, 134640, Note_on_c, 0, 67, 0
1, 134640, Note_on_c, 0, 67, 79
1, 134760, Note_on_c, 0, 67, 0
1, 134760, Note_on_c, 0, 64, 81
1, 134840, Tempo, 409417
1, 134880, Note_on_c, 0, 64, 0
1, 134880, Note_on_c, 0, 60, 83
1, 134920, Tempo, 410874
1, 134960, Tempo, 412343
1, 135000, Tempo, 413822
1, 135000, Note_on_c, 0, 60, 0
1, 135000, Note_on_c, 0, 55, 85
1, 135080, Tempo, 415340
1, 135120, Tempo, 416840
1, 135120, Note_on_c, 0, 55, 0
1, 135120, Note_on_c, 0, 52, 89
1, 135160, Tempo, 418352
1, 135240, Note_on_c, 0, 52, 0
1, 135240, Note_on_c, 0, 48, 91
1, 135360, Note_on_c, 0, 48, 0
1, 135360, Note_on_c, 0, 47, 96
1, 135360, Note_on_c, 0, 35, 96
1, 135370, Control_c, 0, 64, 0
1, 135840, Note_on_c, 0, 35, 0
1, 135840, Note_on_c, 0, 47, 0
1, 135840, Note_on_c, 0, 48, 92
1, 135840, Note_on_c, 0, 36, 77
1, 135960, Note_on_c, 0, 36, 0
1, 135960, Note_on_c, 0, 48, 0
1, 136080, Note_on_c, 0, 48, 92
1, 136080, Note_on_c, 0, 36, 77
1, 136200, Note_on_c, 0, 36, 0
1, 136200, Note_on_c, 0, 48, 0
1, 136320, Tempo, 437956
1, 136320, Note_on_c, 0, 67, 76
1, 136320, Note_on_c, 0, 71, 76
1, 136320, Note_on_c, 0, 77, 91
1, 136320, Note_on_c, 0, 79, 91
1, 136320, Note_on_c, 0, 37, 57
1, 136320, Note_on_c, 0, 49, 68
1, 136560, Note_on_c, 0, 49, 0
1, 136560, Note_on_c, 0, 71, 0
1, 136560, Note_on_c, 0, 77, 0
1, 136560, Note_on_c, 0, 67, 0
1, 136560, Note_on_c, 0, 37, 0
1, 136560, Note_on_c, 0, 79, 0
1, 136800, Note_on_c, 0, 59, 71
1, 136800, Note_on_c, 0, 55, 71
1, 136800, Note_on_c, 0, 65, 85
1, 136800, Note_on_c, 0, 67, 85
1, 136800, Note_on_c, 0, 38, 57
1, 136800, Note_on_c, 0, 50, 68
1, 137040, Note_on_c, 0, 50, 0
1, 137040, Note_on_c, 0, 55, 0
1, 137040, Note_on_c, 0, 65, 0
1, 137040, Note_on_c, 0, 59, 0
1, 137040, Note_on_c, 0, 38, 0
1, 137040, Note_on_c, 0, 67, 0
1, 137346, Tempo, 446097
1, 138240, Tempo, 412343
1, 138240, Note_on_c, 0, 77, 74
1, 138240, Note_on_c, 0, 79, 74
1, 138240, Note_on_c, 0, 83, 74
1, 138240, Note_on_c, 0, 86, 88
1, 138240, Control_c, 0, 91, 127
1, 138240, Text_t, "bdca426d104a26ac9dcb070447587523"
1, 138240, Control_c, 0, 64, 0
1, 138240, Note_on_c, 0, 55, 55
1, 138240, Note_on_c, 0, 67, 64
1, 138311, Control_c, 0, 64, 127
1, 138715, Note_on_c, 0, 67, 0
1, 138715, Note_on_c, 0, 79, 0
1, 138715, Note_on_c, 0, 83, 0
1, 138715, Note_on_c, 0, 77, 0
1, 138715, Note_on_c, 0, 55, 0
1, 138715, Note_on_c, 0, 86, 0
1, 138720, Tempo, 402253
1, 138720, Note_on_c, 0, 77, 70
1, 138720, Note_on_c, 0, 79, 70
1, 138720, Note_on_c, 0, 83, 70
1, 138720, Note_on_c, 0, 86, 83
1, 138720, Note_on_c, 0, 55, 49
1, 138720, Note_on_c, 0, 67, 59
1, 138948, Note_on_c, 0, 67, 0
1, 138948, Note_on_c, 0, 79, 0
1, 138948, Note_on_c, 0, 83, 0
1, 138948, Note_on_c, 0, 77, 0
1, 138948, Note_on_c, 0, 55, 0
1, 138948, Note_on_c, 0, 86, 0
1, 138960, Note_on_c, 0, 77, 70
1, 138960, Note_on_c, 0, 79, 70
1, 138960, Note_on_c, 0, 83, 70
1, 138960, Note_on_c, 0, 86, 83
1, 138960, Note_on_c, 0, 55, 49
1, 138960, Note_on_c, 0, 67, 59
1, 139188, Note_on_c, 0, 67, 0
1, 139188, Note_on_c, 0, 79, 0
1, 139188, Note_on_c, 0, 83, 0
1, 139188, Note_on_c, 0, 77, 0
1, 139188, Note_on_c, 0, 55, 0
1, 139188, Note_on_c, 0, 86, 0
1, 139200, Tempo, 412343
1, 139200, Note_on_c, 0, 77, 74
1, 139200, Note_on_c, 0, 79, 74
1, 139200, Note_on_c, 0, 83, 74
1, 139200, Note_on_c, 0, 86, 88
1, 139200, Note_on_c, 0, 55, 56
1, 139200, Note_on_c, 0, 67, 66
1, 139675, Note_on_c, 0, 67, 0
1, 139675, Note_on_c, 0, 79, 0
1, 139675, Note_on_c, 0, 83, 0
1, 139675, Note_on_c, 0, 77, 0
1, 139675, Note_on_c, 0, 55, 0
1, 139675, Note_on_c, 0, 86, 0
1, 139680, Tempo, 402253
1, 139680, Note_on_c, 0, 77, 69
1, 139680, Note_on_c, 0, 79, 69
1, 139680, Note_on_c, 0, 83, 69
1, 139680, Note_on_c, 0, 86, 82
1, 139680, Note_on_c, 0, 55, 50
1, 139680, Note_on_c, 0, 67, 60
1, 139908, Note_on_c, 0, 67, 0
1, 139908, Note_on_c, 0, 79, 0
1, 139908, Note_on_c, 0, 83, 0
1, 139908, Note_on_c, 0, 77, 0
1, 139908, Note_on_c, 0, 55, 0
1, 139908, Note_on_c, 0, 86, 0
1, 139920, Note_on_c, 0, 77, 69
1, 139920, Note_on_c, 0, 79, 69
1, 139920, Note_on_c, 0, 83, 69
1, 139920, Note_on_c, 0, 86, 82
1, 139920, Note_on_c, 0, 55, 50
1, 139920, Note_on_c, 0, 67, 60
1, 140148, Note_on_c, 0, 67, 0
1, 140148, Note_on_c, 0, 79, 0
1, 140148, Note_on_c, 0, 83, 0
1, 140148, Note_on_c, 0, 77, 0
1, 140148, Note_on_c, 0, 55, 0
1, 140148, Note_on_c, 0, 86, 0
1, 140160, Tempo, 410874
1, 140160, Note_on_c, 0, 77, 74
1, 140160, Note_on_c, 0, 79, 74
1, 140160, Note_on_c, 0, 83, 74
1, 140160, Note_on_c, 0, 86, 88
1, 140160, Control_c, 0, 64, 0
1, 140160, Note_on_c, 0, 55, 56
1, 140160, Note_on_c, 0, 67, 66
1, 140216, Control_c, 0, 64, 127
1, 140400, Note_on_c, 0, 67, 0
1, 140400, Note_on_c, 0, 79, 0
1, 140400, Note_on_c, 0, 83, 0
1, 140400, Note_on_c, 0, 77, 0
1, 140400, Note_on_c, 0, 55, 0
1, 140400, Note_on_c, 0, 86, 0
1, 140400, Note_on_c, 0, 65, 79
1, 140520, Note_on_c, 0, 65, 0
1, 140520, Note_on_c, 0, 62, 81
1, 140600, Tempo, 409417
1, 140640, Note_on_c, 0, 62, 0
1, 140640, Note_on_c, 0, 59, 83
1, 140680, Tempo, 410874
1, 140720, Tempo, 412343
1, 140760, Tempo, 413822
1, 140760, Note_on_c, 0, 59, 0
1, 140760, Note_on_c, 0, 55, 85
1, 140840, Tempo, 415340
1, 140880, Tempo, 416840
1, 140880, Note_on_c, 0, 55, 0
1, 140880, Note_on_c, 0, 53, 89
1, 140920, Tempo, 418352
1, 141000, Note_on_c, 0, 53, 0
1, 141000, Note_on_c, 0, 50, 91
1, 141120, Note_on_c, 0, 50, 0
1, 141120, Note_on_c, 0, 49, 96
1, 141120, Note_on_c, 0, 37, 96
1, 141130, Control_c, 0, 64, 0
1, 141600, Note_on_c, 0, 37, 0
1, 141600, Note_on_c, 0, 49, 0
1, 141600, Note_on_c, 0, 50, 92
1, 141600, Note_on_c, 0, 38, 77
1, 141720, Note_on_c, 0, 38, 0
1, 141720, Note_on_c, 0, 50, 0
1, 141840, Note_on_c, 0, 50, 92
1, 141840, Note_on_c, 0, 38, 77
1, 141960, Note_on_c, 0, 38, 0
1, 141960, Note_on_c, 0, 50, 0
1, 142080, Tempo, 437956
1, 142080, Note_on_c, 0, 67, 79
1, 142080, Note_on_c, 0, 72, 79
1, 142080, Note_on_c, 0, 79, 95
1, 142080, Note_on_c, 0, 39, 59
1, 142080, Note_on_c, 0, 51, 71
1, 142320, Note_on_c, 0, 51, 0
1, 142320, Note_on_c, 0, 79, 0
1, 142320, Note_on_c, 0, 67, 0
1, 142320, Note_on_c, 0, 72, 0
1, 142320, Note_on_c, 0, 39, 0
1, 142560, Note_on_c, 0, 60, 74
1, 142560, Note_on_c, 0, 55, 74
1, 142560, Note_on_c, 0, 67, 89
1, 142560, Note_on_c, 0, 40, 59
1, 142560, Note_on_c, 0, 52, 71
1, 142800, Note_on_c, 0, 52, 0
1, 142800, Note_on_c, 0, 67, 0
1, 142800, Note_on_c, 0, 60, 0
1, 142800, Note_on_c, 0, 55, 0
1, 142800, Note_on_c, 0, 40, 0
1, 143040, Tempo, 437956
1, 143240, Tempo, 436364
1, 143280, Tempo, 405405
1, 143280, Note_on_c, 0, 55, 64
1, 143400, Note_on_c, 0, 55, 0
1, 143400, Note_on_c, 0, 60, 66
1, 143400, Control_c, 0, 64, 127
1, 143520, Tempo, 392157
1, 143520, Note_on_c, 0, 60, 0
1, 143520, Note_on_c, 0, 64, 68
1, 143640, Note_on_c, 0, 64, 0
1, 143640, Note_on_c, 0, 67, 70
1, 143760, Note_on_c, 0, 67, 0
1, 143760, Note_on_c, 0, 72, 72
1, 143880, Note_on_c, 0, 72, 0
1, 143880, Note_on_c, 0, 76, 74
1, 144000, Tempo, 413793
1, 144000, Note_on_c, 0, 76, 0
1, 144000, Note_on_c, 0, 67, 66
1, 144000, Note_on_c, 0, 76, 66
1, 144000, Note_on_c, 0, 79, 78
1, 144000, Note_on_c, 0, 36, 50
1, 144000, Note_on_c, 0, 48, 60
1, 144475, Note_on_c, 0, 79, 0
1, 144475, Note_on_c, 0, 67, 0
1, 144475, Note_on_c, 0, 76, 0
1, 144480, Tempo, 404040
1, 144480, Note_on_c, 0, 67, 58
1, 144480, Note_on_c, 0, 76, 58
1, 144480, Note_on_c, 0, 79, 70
1, 144708, Note_on_c, 0, 79, 0
1, 144708, Note_on_c, 0, 67, 0
1, 144708, Note_on_c, 0, 76, 0
1, 144720, Note_on_c, 0, 67, 58
1, 144720, Note_on_c, 0, 76, 58
1, 144720, Note_on_c, 0, 79, 70
1, 144948, Note_on_c, 0, 79, 0
1, 144948, Note_on_c, 0, 67, 0
1, 144948, Note_on_c, 0, 76, 0
1, 144960, Tempo, 412371
1, 144960, Note_on_c, 0, 36, 0
1, 144960, Note_on_c, 0, 48, 0
1, 144960, Note_on_c, 0, 67, 65
1, 144960, Note_on_c, 0, 74, 65
1, 144960, Note_on_c, 0, 79, 78
1, 144960, Note_on_c, 0, 35, 44
1, 144960, Note_on_c, 0, 47, 53
1, 144970, Control_c, 0, 64, 0
1, 145200, Tempo, 442804
1, 145228, Control_c, 0, 64, 127
1, 145440, Tempo, 404040
1, 145440, Note_on_c, 0, 47, 0
1, 145440, Note_on_c, 0, 35, 0
1, 145440, Note_on_c, 0, 47, 57
1, 145440, Note_on_c, 0, 59, 70
1, 145668, Note_on_c, 0, 59, 0
1, 145668, Note_on_c, 0, 47, 0
1, 145680, Note_on_c, 0, 79, 0
1, 145680, Note_on_c, 0, 74, 0
1, 145680, Note_on_c, 0, 67, 0
1, 145680, Note_on_c, 0, 67, 67
1, 145680, Note_on_c, 0, 74, 67
1, 145680, Note_on_c, 0, 79, 80
1, 145680, Note_on_c, 0, 47, 53
1, 145680, Note_on_c, 0, 59, 65
1, 145908, Note_on_c, 0, 59, 0
1, 145908, Note_on_c, 0, 47, 0
1, 145920, Tempo, 412371
1, 145920, Note_on_c, 0, 67, 0
1, 145920, Note_on_c, 0, 74, 0
1, 145920, Note_on_c, 0, 79, 0
1, 145920, Note_on_c, 0, 72, 74
1, 145920, Note_on_c, 0, 79, 74
1, 145920, Note_on_c, 0, 84, 88
1, 145920, Control_c, 0, 64, 0
1, 145920, Note_on_c, 0, 45, 63
1, 145920, Note_on_c, 0, 57, 72
1, 146400, Note_on_c, 0, 57, 0
1, 146400, Note_on_c, 0, 84, 0
1, 146400, Note_on_c, 0, 72, 0
1, 146400, Note_on_c, 0, 79, 0
1, 146400, Note_on_c, 0, 45, 0
1, 146400, Note_on_c, 0, 72, 63
1, 146400, Note_on_c, 0, 78, 63
1, 146400, Note_on_c, 0, 84, 75
1, 146400, Note_on_c, 0, 38, 50
1, 146400, Note_on_c, 0, 50, 61
1, 146640, Note_on_c, 0, 84, 0
1, 146640, Note_on_c, 0, 72, 0
1, 146640, Note_on_c, 0, 78, 0
1, 146640, Note_on_c, 0, 72, 61
1, 146640, Note_on_c, 0, 78, 61
1, 146640, Note_on_c, 0, 84, 73
1, 146880, Tempo, 427046
1, 146880, Note_on_c, 0, 84, 0
1, 146880, Note_on_c, 0, 72, 0
1, 146880, Note_on_c, 0, 50, 0
1, 146880, Note_on_c, 0, 38, 0
1, 146880, Note_on_c, 0, 78, 0
1, 146880, Note_on_c, 0, 71, 64
1, 146880, Note_on_c, 0, 79, 64
1, 146880, Note_on_c, 0, 83, 76
1, 146880, Note_on_c, 0, 43, 48
1, 146880, Note_on_c, 0, 55, 59
1, 147118, Note_on_c, 0, 55, 0
1, 147120, Tempo, 402685
1, 147120, Note_on_c, 0, 83, 0
1, 147120, Note_on_c, 0, 71, 0
1, 147120, Note_on_c, 0, 79, 0
1, 147120, Note_on_c, 0, 43, 0
1, 147120, Note_on_c, 0, 55, 64
1, 147240, Note_on_c, 0, 55, 0
1, 147240, Note_on_c, 0, 60, 66
1, 147240, Control_c, 0, 64, 127
1, 147360, Tempo, 392157
1, 147360, Note_on_c, 0, 60, 0
1, 147360, Note_on_c, 0, 64, 68
1, 147480, Note_on_c, 0, 64, 0
1, 147480, Note_on_c, 0, 67, 70
1, 147600, Note_on_c, 0, 67, 0
1, 147600, Note_on_c, 0, 72, 72
1, 147720, Note_on_c, 0, 72, 0
1, 147720, Note_on_c, 0, 76, 74
1, 147840, Tempo, 413793
1, 147840, Note_on_c, 0, 76, 0
1, 147840, Note_on_c, 0, 67, 66
1, 147840, Note_on_c, 0, 76, 66
1, 147840, Note_on_c, 0, 79, 78
1, 147840, Note_on_c, 0, 36, 50
1, 147840, Note_on_c, 0, 48, 60
1, 148315, Note_on_c, 0, 79, 0
1, 148315, Note_on_c, 0, 67, 0
1, 148315, Note_on_c, 0, 76, 0
1, 148320, Tempo, 404040
1, 148320, Note_on_c, 0, 67, 58
1, 148320, Note_on_c, 0, 76, 58
1, 148320, Note_on_c, 0, 79, 70
1, 148548, Note_on_c, 0, 79, 0
1, 148548, Note_on_c, 0, 67, 0
1, 148548, Note_on_c, 0, 76, 0
1, 148560, Note_on_c, 0, 67, 58
1, 148560, Note_on_c, 0, 76, 58
1, 148560, Note_on_c, 0, 79, 70
1, 148788, Note_on_c, 0, 79, 0
1, 148788, Note_on_c, 0, 67, 0
1, 148788, Note_on_c, 0, 76, 0
1, 148800, Tempo, 412371
1, 148800, Note_on_c, 0, 36, 0
1, 148800, Note_on_c, 0, 48, 0
1, 148800, Note_on_c, 0, 67, 65
1, 148800, Note_on_c, 0, 74, 65
1, 148800, Note_on_c, 0, 79, 78
1, 148800, Note_on_c, 0, 35, 44
1, 148800, Note_on_c, 0, 47, 53
1, 148818, Control_c, 0, 64, 0
1, 149040, Tempo, 442804
1, 149068, Control_c, 0, 64, 127
1, 149280, Tempo, 404040
1, 149280, Note_on_c, 0, 47, 0
1, 149280, Note_on_c, 0, 35, 0
1, 149280, Note_on_c, 0, 47, 57
1, 149280, Note_on_c, 0, 59, 70
1, 149508, Note_on_c, 0, 59, 0
1, 149508, Note_on_c, 0, 47, 0
1, 149520, Note_on_c, 0, 79, 0
1, 149520, Note_on_c, 0, 74, 0
1, 149520, Note_on_c, 0, 67, 0
1, 149520, Note_on_c, 0, 67, 67
1, 149520, Note_on_c, 0, 74, 67
1, 149520, Note_on_c, 0, 79, 80
1, 149520, Note_on_c, 0, 47, 53
1, 149520, Note_on_c, 0, 59, 65
1, 149748, Note_on_c, 0, 59, 0
1, 149748, Note_on_c, 0, 47, 0
1, 149760, Tempo, 412371
1, 149760, Note_on_c, 0, 67, 0
1, 149760, Note_on_c, 0, 74, 0
1, 149760, Note_on_c, 0, 79, 0
1, 149760, Note_on_c, 0, 72, 74
1, 149760, Note_on_c, 0, 79, 74
1, 149760, Note_on_c, 0, 84, 88
1, 149760, Control_c, 0, 64, 0
1, 149760, Note_on_c, 0, 45, 63
1, 149760, Note_on_c, 0, 57, 72
1, 150240, Note_on_c, 0, 57, 0
1, 150240, Note_on_c, 0, 84, 0
1, 150240, Note_on_c, 0, 72, 0
1, 150240, Note_on_c, 0, 79, 0
1, 150240, Note_on_c, 0, 45, 0
1, 150240, Note_on_c, 0, 72, 63
1, 150240, Note_on_c, 0, 78, 63
1, 150240, Note_on_c, 0, 84, 75
1, 150240, Note_on_c, 0, 38, 50
1, 150240, Note_on_c, 0, 50, 61
1, 150720, Note_on_c, 0, 50, 0
1, 150720, Note_on_c, 0, 84, 0
1, 150720, Note_on_c, 0, 72, 0
1, 150720, Note_on_c, 0, 78, 0
1, 150720, Note_on_c, 0, 38, 0
1, 150720, Note_on_c, 0, 71, 64
1, 150720, Note_on_c, 0, 79, 64
1, 150720, Note_on_c, 0, 83, 76
1, 150720, Note_on_c, 0, 43, 48
1, 150720, Note_on_c, 0, 55, 59
1, 150960, Tempo, 402685
1, 150960, Note_on_c, 0, 55, 0
1, 150960, Note_on_c, 0, 83, 0
1, 150960, Note_on_c, 0, 71, 0
1, 150960, Note_on_c, 0, 79, 0
1, 150960, Note_on_c, 0, 43, 0
1, 150960, Note_on_c, 0, 60, 64
1, 151080, Note_on_c, 0, 60, 0
1, 151080, Note_on_c, 0, 65, 66
1, 151080, Control_c, 0, 64, 127
1, 151200, Tempo, 392157
1, 151200, Note_on_c, 0, 65, 0
1, 151200, Note_on_c, 0, 69, 68
1, 151320, Note_on_c, 0, 69, 0
1, 151320, Note_on_c, 0, 72, 70
1, 151440, Note_on_c, 0, 72, 0
1, 151440, Note_on_c, 0, 77, 72
1, 151560, Note_on_c, 0, 77, 0
1, 151560, Note_on_c, 0, 81, 74
1, 151680, Tempo, 413793
1, 151680, Note_on_c, 0, 81, 0
1, 151680, Note_on_c, 0, 72, 72
1, 151680, Note_on_c, 0, 81, 72
1, 151680, Note_on_c, 0, 84, 85
1, 151680, Note_on_c, 0, 41, 50
1, 151680, Note_on_c, 0, 53, 60
1, 152155, Note_on_c, 0, 84, 0
1, 152155, Note_on_c, 0, 72, 0
1, 152155, Note_on_c, 0, 81, 0
1, 152160, Tempo, 404040
1, 152160, Note_on_c, 0, 72, 63
1, 152160, Note_on_c, 0, 81, 63
1, 152160, Note_on_c, 0, 84, 77
1, 152388, Note_on_c, 0, 84, 0
1, 152388, Note_on_c, 0, 72, 0
1, 152388, Note_on_c, 0, 81, 0
1, 152400, Note_on_c, 0, 72, 63
1, 152400, Note_on_c, 0, 81, 63
1, 152400, Note_on_c, 0, 84, 77
1, 152628, Note_on_c, 0, 84, 0
1, 152628, Note_on_c, 0, 72, 0
1, 152628, Note_on_c, 0, 81, 0
1, 152640, Tempo, 412371
1, 152640, Note_on_c, 0, 41, 0
1, 152640, Note_on_c, 0, 53, 0
1, 152640, Note_on_c, 0, 72, 71
1, 152640, Note_on_c, 0, 79, 71
1, 152640, Note_on_c, 0, 84, 85
1, 152640, Note_on_c, 0, 40, 44
1, 152640, Note_on_c, 0, 52, 53
1, 152660, Control_c, 0, 64, 0
1, 152880, Tempo, 442804
1, 152908, Control_c, 0, 64, 127
1, 153120, Tempo, 427046
1, 153120, Note_on_c, 0, 52, 0
1, 153120, Note_on_c, 0, 40, 0
1, 153120, Note_on_c, 0, 52, 57
1, 153120, Note_on_c, 0, 64, 70
1, 153348, Note_on_c, 0, 64, 0
1, 153348, Note_on_c, 0, 52, 0
1, 153360, Note_on_c, 0, 84, 0
1, 153360, Note_on_c, 0, 79, 0
1, 153360, Note_on_c, 0, 72, 0
1, 153360, Note_on_c, 0, 72, 73
1, 153360, Note_on_c, 0, 79, 73
1, 153360, Note_on_c, 0, 84, 88
1, 153360, Note_on_c, 0, 52, 53
1, 153360, Note_on_c, 0, 64, 65
1, 153588, Note_on_c, 0, 64, 0
1, 153588, Note_on_c, 0, 52, 0
1, 153600, Tempo, 412371
1, 153600, Note_on_c, 0, 72, 0
1, 153600, Note_on_c, 0, 79, 0
1, 153600, Note_on_c, 0, 84, 0
1, 153600, Note_on_c, 0, 77, 81
1, 153600, Note_on_c, 0, 84, 81
1, 153600, Note_on_c, 0, 89, 96
1, 153600, Control_c, 0, 64, 0
1, 153600, Note_on_c, 0, 50, 63
1, 153600, Note_on_c, 0, 62, 72
1, 154075, Note_on_c, 0, 62, 0
1, 154075, Note_on_c, 0, 89, 0
1, 154075, Note_on_c, 0, 77, 0
1, 154075, Note_on_c, 0, 84, 0
1, 154075, Note_on_c, 0, 50, 0
1, 154080, Note_on_c, 0, 77, 75
1, 154080, Note_on_c, 0, 83, 75
1, 154080, Note_on_c, 0, 89, 90
1, 154080, Note_on_c, 0, 43, 54
1, 154080, Note_on_c, 0, 55, 67
1, 154308, Note_on_c, 0, 89, 0
1, 154308, Note_on_c, 0, 77, 0
1, 154308, Note_on_c, 0, 83, 0
1, 154320, Note_on_c, 0, 77, 66
1, 154320, Note_on_c, 0, 83, 66
1, 154320, Note_on_c, 0, 89, 78
1, 154548, Note_on_c, 0, 89, 0
1, 154548, Note_on_c, 0, 77, 0
1, 154548, Note_on_c, 0, 83, 0
1, 154560, Note_on_c, 0, 43, 0
1, 154560, Note_on_c, 0, 55, 0
1, 154560, Note_on_c, 0, 76, 76
1, 154560, Note_on_c, 0, 83, 76
1, 154560, Note_on_c, 0, 88, 92
1, 154560, Note_on_c, 0, 48, 52
1, 154560, Note_on_c, 0, 60, 65
1, 155035, Note_on_c, 0, 60, 0
1, 155035, Note_on_c, 0, 88, 0
1, 155035, Note_on_c, 0, 76, 0
1, 155035, Note_on_c, 0, 83, 0
1, 155035, Note_on_c, 0, 48, 0
1, 155040, Tempo, 404040
1, 155040, Note_on_c, 0, 88, 84
1, 155040, Note_on_c, 0, 81, 70
1, 155040, Note_on_c, 0, 76, 70
1, 155040, Note_on_c, 0, 41, 55
1, 155040, Note_on_c, 0, 53, 67
1, 155268, Note_on_c, 0, 53, 0
1, 155268, Note_on_c, 0, 41, 0
1, 155280, Note_on_c, 0, 41, 51
1, 155280, Note_on_c, 0, 53, 62
1, 155508, Note_on_c, 0, 53, 0
1, 155508, Note_on_c, 0, 41, 0
1, 155520, Tempo, 412371
1, 155520, Note_on_c, 0, 76, 0
1, 155520, Note_on_c, 0, 81, 0
1, 155520, Note_on_c, 0, 88, 0
1, 155520, Note_on_c, 0, 74, 78
1, 155520, Note_on_c, 0, 81, 78
1, 155520, Note_on_c, 0, 86, 92
1, 155520, Control_c, 0, 64, 0
1, 155520, Note_on_c, 0, 47, 60
1, 155520, Note_on_c, 0, 59, 69
1, 155760, Note_on_c, 0, 86, 0
1, 155760, Note_on_c, 0, 74, 0
1, 155760, Note_on_c, 0, 81, 0
1, 155760, Note_on_c, 0, 74, 78
1, 155760, Note_on_c, 0, 80, 78
1, 155760, Note_on_c, 0, 86, 78
1, 156000, Note_on_c, 0, 86, 0
1, 156000, Note_on_c, 0, 74, 0
1, 156000, Note_on_c, 0, 59, 0
1, 156000, Note_on_c, 0, 47, 0
1, 156000, Note_on_c, 0, 80, 0
1, 156000, Note_on_c, 0, 72, 73
1, 156000, Note_on_c, 0, 81, 73
1, 156000, Note_on_c, 0, 84, 87
1, 156000, Note_on_c, 0, 48, 53
1, 156000, Note_on_c, 0, 60, 65
1, 156480, Note_on_c, 0, 60, 0
1, 156480, Note_on_c, 0, 84, 0
1, 156480, Note_on_c, 0, 72, 0
1, 156480, Note_on_c, 0, 81, 0
1, 156480, Note_on_c, 0, 48, 0
1, 156480, Note_on_c, 0, 81, 76
1, 156480, Note_on_c, 0, 71, 76
1, 156480, Note_on_c, 0, 77, 76
1, 156480, Note_on_c, 0, 83, 92
1, 156480, Note_on_c, 0, 50, 52
1, 156480, Note_on_c, 0, 62, 65
1, 156708, Note_on_c, 0, 62, 0
1, 156708, Note_on_c, 0, 50, 0
1, 156720, Note_on_c, 0, 50, 55
1, 156720, Note_on_c, 0, 62, 55
1, 156948, Note_on_c, 0, 62, 0
1, 156948, Note_on_c, 0, 50, 0
1, 156960, Tempo, 419580
1, 156960, Note_on_c, 0, 83, 0
1, 156960, Note_on_c, 0, 81, 0
1, 156960, Note_on_c, 0, 71, 0
1, 156960, Note_on_c, 0, 77, 0
1, 156960, Note_on_c, 0, 80, 74
1, 156960, Note_on_c, 0, 83, 89
1, 156960, Note_on_c, 0, 76, 74
1, 156960, Note_on_c, 0, 71, 74
1, 156960, Note_on_c, 0, 52, 58
1, 156960, Note_on_c, 0, 64, 71
1, 157320, Tempo, 401338
1, 157380, Note_on_c, 0, 71, 0
1, 157380, Note_on_c, 0, 76, 0
1, 157380, Note_on_c, 0, 80, 0
1, 157380, Note_on_c, 0, 83, 0
1, 157380, Note_on_c, 0, 81, 82
1, 157440, Tempo, 406780
1, 157440, Note_on_c, 0, 81, 0
1, 157440, Note_on_c, 0, 64, 0
1, 157440, Note_on_c, 0, 52, 0
1, 157440, Note_on_c, 0, 93, 92
1, 157440, Note_on_c, 0, 33, 81
1, 157440, Note_on_c, 0, 45, 96
1, 157680, Note_on_c, 0, 93, 0
1, 157680, Note_on_c, 0, 91, 82
1, 157800, Note_on_c, 0, 91, 0
1, 157800, Note_on_c, 0, 89, 82
1, 157915, Note_on_c, 0, 45, 0
1, 157915, Note_on_c, 0, 33, 0
1, 157920, Note_on_c, 0, 89, 0
1, 157920, Note_on_c, 0, 88, 81
1, 157920, Note_on_c, 0, 33, 75
1, 157920, Note_on_c, 0, 45, 90
1, 158040, Note_on_c, 0, 88, 0
1, 158040, Note_on_c, 0, 86, 81
1, 158148, Note_on_c, 0, 45, 0
1, 158148, Note_on_c, 0, 33, 0
1, 158160, Note_on_c, 0, 86, 0
1, 158160, Note_on_c, 0, 84, 80
1, 158160, Note_on_c, 0, 33, 75
1, 158160, Note_on_c, 0, 45, 90
1, 158280, Note_on_c, 0, 84, 0
1, 158280, Note_on_c, 0, 83, 79
1, 158388, Note_on_c, 0, 45, 0
1, 158388, Note_on_c, 0, 33, 0
1, 158400, Note_on_c, 0, 83, 0
1, 158400, Note_on_c, 0, 81, 79
1, 158400, Note_on_c, 0, 33, 81
1, 158400, Note_on_c, 0, 45, 96
1, 158520, Note_on_c, 0, 81, 0
1, 158520, Note_on_c, 0, 79, 78
1, 158640, Note_on_c, 0, 79, 0
1, 158640, Note_on_c, 0, 77, 78
1, 158760, Note_on_c, 0, 77, 0
1, 158760, Note_on_c, 0, 76, 77
1, 158875, Note_on_c, 0, 45, 0
1, 158875, Note_on_c, 0, 33, 0
1, 158880, Note_on_c, 0, 76, 0
1, 158880, Note_on_c, 0, 74, 77
1, 158880, Note_on_c, 0, 33, 75
1, 158880, Note_on_c, 0, 45, 90
1, 159000, Note_on_c, 0, 74, 0
1, 159000, Note_on_c, 0, 72, 75
1, 159108, Note_on_c, 0, 45, 0
1, 159108, Note_on_c, 0, 33, 0
1, 159120, Note_on_c, 0, 72, 0
1, 159120, Note_on_c, 0, 71, 74
1, 159120, Note_on_c, 0, 33, 74
1, 159120, Note_on_c, 0, 45, 88
1, 159240, Note_on_c, 0, 71, 0
1, 159240, Note_on_c, 0, 69, 74
1, 159348, Note_on_c, 0, 45, 0
1, 159348, Note_on_c, 0, 33, 0
1, 159360, Tempo, 393443
1, 159360, Note_on_c, 0, 69, 0
1, 159360, Note_on_c, 0, 68, 71
1, 159360, Note_on_c, 0, 33, 81
1, 159360, Note_on_c, 0, 45, 96
1, 159480, Note_on_c, 0, 68, 0
1, 159480, Note_on_c, 0, 65, 64
1, 159600, Tempo, 418118
1, 159600, Note_on_c, 0, 65, 0
1, 159600, Note_on_c, 0, 45, 0
1, 159600, Note_on_c, 0, 33, 0
1, 159600, Note_on_c, 0, 64, 64
1, 159600, Note_on_c, 0, 36, 75
1, 159600, Note_on_c, 0, 48, 90
1, 159720, Note_on_c, 0, 64, 0
1, 159720, Note_on_c, 0, 62, 64
1, 159840, Tempo, 410959
1, 159840, Note_on_c, 0, 62, 0
1, 159840, Note_on_c, 0, 48, 0
1, 159840, Note_on_c, 0, 36, 0
1, 159840, Note_on_c, 0, 68, 63
1, 159840, Note_on_c, 0, 35, 79
1, 159840, Note_on_c, 0, 47, 93
1, 159874, Control_c, 0, 64, 127
1, 159960, Note_on_c, 0, 68, 0
1, 159960, Note_on_c, 0, 65, 57
1, 160080, Note_on_c, 0, 65, 0
1, 160080, Note_on_c, 0, 64, 57
1, 160200, Note_on_c, 0, 64, 0
1, 160200, Note_on_c, 0, 62, 57
1, 160309, Control_c, 0, 64, 0
1, 160320, Note_on_c, 0, 62, 0
1, 160320, Note_on_c, 0, 47, 0
1, 160320, Note_on_c, 0, 35, 0
1, 160320, Note_on_c, 0, 68, 67
1, 160320, Note_on_c, 0, 74, 79
1, 160320, Note_on_c, 0, 77, 93
1, 160371, Control_c, 0, 64, 127
1, 160440, Note_on_c, 0, 68, 0
1, 160440, Note_on_c, 0, 65, 58
1, 160560, Note_on_c, 0, 65, 0
1, 160560, Note_on_c, 0, 64, 58
1, 160680, Note_on_c, 0, 64, 0
1, 160680, Note_on_c, 0, 62, 58
1, 160800, Note_on_c, 0, 62, 0
1, 160800, Note_on_c, 0, 68, 64
1, 160920, Note_on_c, 0, 68, 0
1, 160920, Note_on_c, 0, 65, 59
1, 161040, Tempo, 463320
1, 161040, Note_on_c, 0, 65, 0
1, 161040, Note_on_c, 0, 64, 59
1, 161160, Tempo, 402685
1, 161160, Note_on_c, 0, 64, 0
1, 161160, Note_on_c, 0, 62, 59
1, 161220, Note_on_c, 0, 62, 0
1, 161220, Note_on_c, 0, 83, 81
1, 161280, Tempo, 406780
1, 161280, Note_on_c, 0, 83, 0
1, 161280, Note_on_c, 0, 77, 0
1, 161280, Note_on_c, 0, 74, 0
1, 161280, Note_on_c, 0, 95, 92
1, 161280, Note_on_c, 0, 35, 81
1, 161280, Note_on_c, 0, 47, 96
1, 161301, Control_c, 0, 64, 0
1, 161520, Note_on_c, 0, 95, 0
1, 161520, Note_on_c, 0, 93, 82
1, 161640, Note_on_c, 0, 93, 0
1, 161640, Note_on_c, 0, 92, 82
1, 161755, Note_on_c, 0, 47, 0
1, 161755, Note_on_c, 0, 35, 0
1, 161760, Note_on_c, 0, 92, 0
1, 161760, Note_on_c, 0, 89, 81
1, 161760, Note_on_c, 0, 35, 75
1, 161760, Note_on_c, 0, 47, 90
1, 161880, Note_on_c, 0, 89, 0
1, 161880, Note_on_c, 0, 88, 81
1, 161988, Note_on_c, 0, 47, 0
1, 161988, Note_on_c, 0, 35, 0
1, 162000, Note_on_c, 0, 88, 0
1, 162000, Note_on_c, 0, 86, 80
1, 162000, Note_on_c, 0, 35, 75
1, 162000, Note_on_c, 0, 47, 90
1, 162120, Note_on_c, 0, 86, 0
1, 162120, Note_on_c, 0, 84, 79
1, 162228, Note_on_c, 0, 47, 0
1, 162228, Note_on_c, 0, 35, 0
1, 162240, Note_on_c, 0, 84, 0
1, 162240, Note_on_c, 0, 83, 79
1, 162240, Note_on_c, 0, 35, 81
1, 162240, Note_on_c, 0, 47, 96
1, 162360, Note_on_c, 0, 83, 0
1, 162360, Note_on_c, 0, 81, 78
1, 162480, Note_on_c, 0, 81, 0
1, 162480, Note_on_c, 0, 80, 78
1, 162600, Note_on_c, 0, 80, 0
1, 162600, Note_on_c, 0, 77, 77
1, 162715, Note_on_c, 0, 47, 0
1, 162715, Note_on_c, 0, 35, 0
1, 162720, Note_on_c, 0, 77, 0
1, 162720, Note_on_c, 0, 76, 77
1, 162720, Note_on_c, 0, 35, 75
1, 162720, Note_on_c, 0, 47, 90
1, 162840, Note_on_c, 0, 76, 0
1, 162840, Note_on_c, 0, 74, 75
1, 162948, Note_on_c, 0, 47, 0
1, 162948, Note_on_c, 0, 35, 0
1, 162960, Note_on_c, 0, 74, 0
1, 162960, Note_on_c, 0, 72, 74
1, 162960, Note_on_c, 0, 35, 74
1, 162960, Note_on_c, 0, 47, 88
1, 163080, Note_on_c, 0, 72, 0
1, 163080, Note_on_c, 0, 71, 74
1, 163188, Note_on_c, 0, 47, 0
1, 163188, Note_on_c, 0, 35, 0
1, 163200, Tempo, 393443
1, 163200, Note_on_c, 0, 71, 0
1, 163200, Note_on_c, 0, 69, 71
1, 163200, Note_on_c, 0, 35, 81
1, 163200, Note_on_c, 0, 47, 96
1, 163320, Note_on_c, 0, 69, 0
1, 163320, Note_on_c, 0, 63, 64
1, 163440, Tempo, 418118
1, 163440, Note_on_c, 0, 63, 0
1, 163440, Note_on_c, 0, 47, 0
1, 163440, Note_on_c, 0, 35, 0
1, 163440, Note_on_c, 0, 64, 64
1, 163440, Note_on_c, 0, 38, 75
1, 163440, Note_on_c, 0, 50, 90
1, 163560, Note_on_c, 0, 64, 0
1, 163560, Note_on_c, 0, 57, 64
1, 163680, Tempo, 410959
1, 163680, Note_on_c, 0, 57, 0
1, 163680, Note_on_c, 0, 50, 0
1, 163680, Note_on_c, 0, 38, 0
1, 163680, Note_on_c, 0, 69, 63
1, 163680, Note_on_c, 0, 36, 79
1, 163680, Note_on_c, 0, 48, 93
1, 163714, Control_c, 0, 64, 127
1, 163800, Note_on_c, 0, 69, 0
1, 163800, Note_on_c, 0, 63, 57
1, 163920, Note_on_c, 0, 63, 0
1, 163920, Note_on_c, 0, 64, 57
1, 164040, Note_on_c, 0, 64, 0
1, 164040, Note_on_c, 0, 57, 57
1, 164149, Control_c, 0, 64, 0
1, 164160, Note_on_c, 0, 57, 0
1, 164160, Note_on_c, 0, 48, 0
1, 164160, Note_on_c, 0, 36, 0
1, 164160, Note_on_c, 0, 69, 67
1, 164160, Note_on_c, 0, 72, 79
1, 164160, Note_on_c, 0, 76, 79
1, 164160, Note_on_c, 0, 81, 93
1, 164211, Control_c, 0, 64, 127
1, 164280, Note_on_c, 0, 69, 0
1, 164280, Note_on_c, 0, 63, 58
1, 164400, Note_on_c, 0, 63, 0
1, 164400, Note_on_c, 0, 64, 58
1, 164520, Note_on_c, 0, 64, 0
1, 164520, Note_on_c, 0, 57, 58
1, 164640, Note_on_c, 0, 57, 0
1, 164640, Note_on_c, 0, 69, 64
1, 164760, Note_on_c, 0, 69, 0
1, 164760, Note_on_c, 0, 63, 59
1, 164880, Note_on_c, 0, 63, 0
1, 164880, Note_on_c, 0, 64, 59
1, 165000, Note_on_c, 0, 64, 0
1, 165000, Note_on_c, 0, 57, 59
1, 165120, Tempo, 393443
1, 165120, Note_on_c, 0, 57, 0
1, 165120, Note_on_c, 0, 81, 0
1, 165120, Note_on_c, 0, 76, 0
1, 165120, Note_on_c, 0, 72, 0
1, 165120, Note_on_c, 0, 70, 67
1, 165120, Control_c, 0, 64, 0
1, 165120, Note_on_c, 0, 37, 77
1, 165120, Note_on_c, 0, 49, 91
1, 165240, Note_on_c, 0, 70, 0
1, 165240, Note_on_c, 0, 64, 61
1, 165360, Tempo, 418118
1, 165360, Note_on_c, 0, 64, 0
1, 165360, Note_on_c, 0, 49, 0
1, 165360, Note_on_c, 0, 37, 0
1, 165360, Note_on_c, 0, 65, 61
1, 165360, Note_on_c, 0, 40, 71
1, 165360, Note_on_c, 0, 52, 84
1, 165480, Note_on_c, 0, 65, 0
1, 165480, Note_on_c, 0, 58, 61
1, 165600, Tempo, 410959
1, 165600, Note_on_c, 0, 58, 0
1, 165600, Note_on_c, 0, 52, 0
1, 165600, Note_on_c, 0, 40, 0
1, 165600, Note_on_c, 0, 70, 60
1, 165600, Note_on_c, 0, 38, 74
1, 165600, Note_on_c, 0, 50, 88
1, 165634, Control_c, 0, 64, 127
1, 165720, Note_on_c, 0, 70, 0
1, 165720, Note_on_c, 0, 64, 53
1, 165840, Note_on_c, 0, 64, 0
1, 165840, Note_on_c, 0, 65, 53
1, 165960, Note_on_c, 0, 65, 0
1, 165960, Note_on_c, 0, 58, 53
1, 166080, Note_on_c, 0, 58, 0
1, 166080, Note_on_c, 0, 50, 0
1, 166080, Note_on_c, 0, 38, 0
1, 166080, Note_on_c, 0, 70, 59
1, 166080, Note_on_c, 0, 74, 70
1, 166080, Note_on_c, 0, 77, 72
1, 166080, Note_on_c, 0, 82, 85
1, 166087, Control_c, 0, 64, 0
1, 166131, Control_c, 0, 64, 127
1, 166200, Note_on_c, 0, 70, 0
1, 166200, Note_on_c, 0, 64, 51
1, 166320, Note_on_c, 0, 64, 0
1, 166320, Note_on_c, 0, 65, 51
1, 166440, Note_on_c, 0, 65, 0
1, 166440, Note_on_c, 0, 58, 51
1, 166560, Note_on_c, 0, 58, 0
1, 166560, Note_on_c, 0, 70, 58
1, 166680, Note_on_c, 0, 70, 0
1, 166680, Note_on_c, 0, 64, 52
1, 166800, Note_on_c, 0, 64, 0
1, 166800, Note_on_c, 0, 65, 52
1, 166920, Note_on_c, 0, 65, 0
1, 166920, Note_on_c, 0, 58, 52
1, 167000, Tempo, 410959
1, 167010, Tempo, 410959
1, 167040, Note_on_c, 0, 58, 0
1, 167040, Note_on_c, 0, 82, 0
1, 167040, Note_on_c, 0, 77, 0
1, 167040, Note_on_c, 0, 74, 0
1, 167040, Note_on_c, 0, 73, 53
1, 167040, Note_on_c, 0, 40, 52
1, 167040, Note_on_c, 0, 52, 52
1, 167049, Control_c, 0, 64, 0
1, 167103, Control_c, 0, 64, 127
1, 167160, Note_on_c, 0, 73, 0
1, 167160, Note_on_c, 0, 66, 47
1, 167170, Tempo, 409556
1, 167280, Note_on_c, 0, 66, 0
1, 167280, Note_on_c, 0, 67, 47
1, 167330, Tempo, 408163
1, 167400, Note_on_c, 0, 67, 0
1, 167400, Note_on_c, 0, 61, 48
1, 167490, Tempo, 406780
1, 167520, Note_on_c, 0, 61, 0
1, 167520, Note_on_c, 0, 52, 0
1, 167520, Note_on_c, 0, 40, 0
1, 167520, Note_on_c, 0, 74, 54
1, 167520, Note_on_c, 0, 41, 55
1, 167520, Note_on_c, 0, 53, 55
1, 167530, Control_c, 0, 64, 0
1, 167594, Control_c, 0, 64, 127
1, 167640, Note_on_c, 0, 74, 0
1, 167640, Note_on_c, 0, 68, 48
1, 167650, Tempo, 405405
1, 167760, Note_on_c, 0, 68, 0
1, 167760, Note_on_c, 0, 69, 48
1, 167810, Tempo, 404040
1, 167880, Note_on_c, 0, 69, 0
1, 167880, Note_on_c, 0, 62, 49
1, 167970, Tempo, 402685
1, 168000, Note_on_c, 0, 62, 0
1, 168000, Note_on_c, 0, 53, 0
1, 168000, Note_on_c, 0, 41, 0
1, 168000, Note_on_c, 0, 76, 55
1, 168000, Note_on_c, 0, 44, 58
1, 168000, Note_on_c, 0, 56, 58
1, 168010, Control_c, 0, 64, 0
1, 168069, Control_c, 0, 64, 127
1, 168120, Note_on_c, 0, 76, 0
1, 168120, Note_on_c, 0, 70, 49
1, 168130, Tempo, 401338
1, 168240, Note_on_c, 0, 70, 0
1, 168240, Note_on_c, 0, 71, 49
1, 168290, Tempo, 400000
1, 168360, Note_on_c, 0, 71, 0
1, 168360, Note_on_c, 0, 64, 49
1, 168450, Tempo, 398671
1, 168480, Note_on_c, 0, 64, 0
1, 168480, Note_on_c, 0, 56, 0
1, 168480, Note_on_c, 0, 44, 0
1, 168480, Note_on_c, 0, 77, 56
1, 168480, Note_on_c, 0, 45, 60
1, 168480, Note_on_c, 0, 57, 60
1, 168489, Control_c, 0, 64, 0
1, 168549, Control_c, 0, 64, 127
1, 168600, Note_on_c, 0, 77, 0
1, 168600, Note_on_c, 0, 71, 49
1, 168610, Tempo, 397351
1, 168720, Note_on_c, 0, 71, 0
1, 168720, Note_on_c, 0, 72, 49
1, 168770, Tempo, 396040
1, 168840, Note_on_c, 0, 72, 0
1, 168840, Note_on_c, 0, 65, 50
1, 168960, Note_on_c, 0, 65, 0
1, 168960, Note_on_c, 0, 57, 0
1, 168960, Note_on_c, 0, 45, 0
1, 168960, Note_on_c, 0, 80, 57
1, 168960, Note_on_c, 0, 47, 63
1, 168960, Note_on_c, 0, 59, 63
1, 168970, Control_c, 0, 64, 0
1, 169011, Control_c, 0, 64, 127
1, 169080, Note_on_c, 0, 80, 0
1, 169080, Note_on_c, 0, 75, 52
1, 169200, Note_on_c, 0, 75, 0
1, 169200, Note_on_c, 0, 76, 53
1, 169320, Note_on_c, 0, 76, 0
1, 169320, Note_on_c, 0, 68, 54
1, 169440, Tempo, 401338
1, 169440, Note_on_c, 0, 68, 0
1, 169440, Note_on_c, 0, 59, 0
1, 169440, Note_on_c, 0, 47, 0
1, 169440, Note_on_c, 0, 81, 59
1, 169440, Note_on_c, 0, 48, 66
1, 169440, Note_on_c, 0, 60, 66
1, 169450, Control_c, 0, 64, 0
1, 169497, Control_c, 0, 64, 127
1, 169560, Note_on_c, 0, 81, 0
1, 169560, Note_on_c, 0, 75, 52
1, 169680, Note_on_c, 0, 75, 0
1, 169680, Note_on_c, 0, 76, 53
1, 169800, Note_on_c, 0, 76, 0
1, 169800, Note_on_c, 0, 69, 53
1, 169920, Tempo, 396040
1, 169920, Note_on_c, 0, 69, 0
1, 169920, Note_on_c, 0, 60, 0
1, 169920, Note_on_c, 0, 48, 0
1, 169920, Note_on_c, 0, 83, 66
1, 169920, Note_on_c, 0, 65, 68
1, 169920, Note_on_c, 0, 53, 68
1, 169930, Control_c, 0, 64, 0
1, 169977, Control_c, 0, 64, 127
1, 170040, Note_on_c, 0, 83, 0
1, 170040, Note_on_c, 0, 75, 54
1, 170160, Note_on_c, 0, 75, 0
1, 170160, Note_on_c, 0, 81, 53
1, 170280, Note_on_c, 0, 81, 0
1, 170280, Note_on_c, 0, 71, 52
1, 170400, Note_on_c, 0, 71, 0
1, 170400, Note_on_c, 0, 53, 0
1, 170400, Note_on_c, 0, 65, 0
1, 170400, Note_on_c, 0, 84, 57
1, 170400, Note_on_c, 0, 52, 65
1, 170400, Note_on_c, 0, 64, 65
1, 170409, Control_c, 0, 64, 0
1, 170466, Control_c, 0, 64, 127
1, 170520, Note_on_c, 0, 84, 0
1, 170520, Note_on_c, 0, 76, 49
1, 170640, Note_on_c, 0, 76, 0
1, 170640, Note_on_c, 0, 80, 48
1, 170760, Note_on_c, 0, 80, 0
1, 170760, Note_on_c, 0, 72, 48
1, 170880, Tempo, 406780
1, 170880, Note_on_c, 0, 72, 0
1, 170880, Note_on_c, 0, 64, 0
1, 170880, Note_on_c, 0, 52, 0
1, 170880, Note_on_c, 0, 81, 66
1, 170880, Note_on_c, 0, 93, 79
1, 170880, Control_c, 0, 64, 0
1, 170880, Note_on_c, 0, 33, 75
1, 170937, Control_c, 0, 64, 127
1, 171120, Note_on_c, 0, 33, 0
1, 171120, Note_on_c, 0, 35, 67
1, 171240, Note_on_c, 0, 35, 0
1, 171240, Note_on_c, 0, 36, 67
1, 171355, Note_on_c, 0, 93, 0
1, 171355, Note_on_c, 0, 81, 0
1, 171360, Note_on_c, 0, 36, 0
1, 171360, Note_on_c, 0, 81, 62
1, 171360, Note_on_c, 0, 93, 73
1, 171360, Note_on_c, 0, 38, 66
1, 171370, Control_c, 0, 64, 0
1, 171434, Control_c, 0, 64, 127
1, 171480, Note_on_c, 0, 38, 0
1, 171480, Note_on_c, 0, 40, 66
1, 171588, Note_on_c, 0, 93, 0
1, 171588, Note_on_c, 0, 81, 0
1, 171600, Note_on_c, 0, 40, 0
1, 171600, Note_on_c, 0, 81, 62
1, 171600, Note_on_c, 0, 93, 73
1, 171600, Note_on_c, 0, 42, 65
1, 171720, Note_on_c, 0, 42, 0
1, 171720, Note_on_c, 0, 44, 64
1, 171828, Note_on_c, 0, 93, 0
1, 171828, Note_on_c, 0, 81, 0
1, 171840, Note_on_c, 0, 44, 0
1, 171840, Note_on_c, 0, 81, 66
1, 171840, Note_on_c, 0, 93, 79
1, 171840, Note_on_c, 0, 45, 64
1, 171850, Control_c, 0, 64, 0
1, 171914, Control_c, 0, 64, 127
1, 171960, Note_on_c, 0, 45, 0
1, 171960, Note_on_c, 0, 47, 63
1, 172080, Note_on_c, 0, 47, 0
1, 172080, Note_on_c, 0, 48, 63
1, 172200, Note_on_c, 0, 48, 0
1, 172200, Note_on_c, 0, 50, 63
1, 172315, Note_on_c, 0, 93, 0
1, 172315, Note_on_c, 0, 81, 0
1, 172320, Note_on_c, 0, 50, 0
1, 172320, Note_on_c, 0, 81, 62
1, 172320, Note_on_c, 0, 93, 73
1, 172320, Note_on_c, 0, 52, 63
1, 172326, Control_c, 0, 64, 0
1, 172371, Control_c, 0, 64, 127
1, 172440, Note_on_c, 0, 52, 0
1, 172440, Note_on_c, 0, 54, 62
1, 172548, Note_on_c, 0, 93, 0
1, 172548, Note_on_c, 0, 81, 0
1, 172560, Note_on_c, 0, 54, 0
1, 172560, Note_on_c, 0, 81, 61
1, 172560, Note_on_c, 0, 93, 72
1, 172560, Note_on_c, 0, 56, 61
1, 172680, Note_on_c, 0, 56, 0
1, 172680, Note_on_c, 0, 57, 61
1, 172788, Note_on_c, 0, 93, 0
1, 172788, Note_on_c, 0, 81, 0
1, 172800, Tempo, 393443
1, 172800, Note_on_c, 0, 57, 0
1, 172800, Note_on_c, 0, 81, 66
1, 172800, Note_on_c, 0, 93, 79
1, 172800, Note_on_c, 0, 58, 58
1, 172809, Control_c, 0, 64, 0
1, 172869, Control_c, 0, 64, 127
1, 172920, Note_on_c, 0, 58, 0
1, 172920, Note_on_c, 0, 61, 53
1, 173040, Tempo, 418118
1, 173040, Note_on_c, 0, 61, 0
1, 173040, Note_on_c, 0, 93, 0
1, 173040, Note_on_c, 0, 81, 0
1, 173040, Note_on_c, 0, 78, 62
1, 173040, Note_on_c, 0, 90, 73
1, 173040, Note_on_c, 0, 62, 53
1, 173160, Note_on_c, 0, 62, 0
1, 173160, Note_on_c, 0, 64, 53
1, 173280, Tempo, 410959
1, 173280, Note_on_c, 0, 64, 0
1, 173280, Note_on_c, 0, 90, 0
1, 173280, Note_on_c, 0, 78, 0
1, 173280, Note_on_c, 0, 79, 64
1, 173280, Note_on_c, 0, 91, 76
1, 173280, Note_on_c, 0, 58, 52
1, 173290, Control_c, 0, 64, 0
1, 173337, Control_c, 0, 64, 127
1, 173400, Note_on_c, 0, 58, 0
1, 173400, Note_on_c, 0, 61, 46
1, 173520, Tempo, 424028
1, 173520, Note_on_c, 0, 61, 0
1, 173520, Note_on_c, 0, 62, 46
1, 173640, Note_on_c, 0, 62, 0
1, 173640, Note_on_c, 0, 64, 46
1, 173760, Tempo, 410959
1, 173760, Note_on_c, 0, 64, 0
1, 173760, Note_on_c, 0, 91, 0
1, 173760, Note_on_c, 0, 79, 0
1, 173760, Note_on_c, 0, 45, 97
1, 173760, Note_on_c, 0, 58, 54
1, 173766, Control_c, 0, 64, 0
1, 173800, Control_c, 0, 64, 127
1, 173880, Note_on_c, 0, 58, 0
1, 173880, Note_on_c, 0, 61, 47
1, 174000, Note_on_c, 0, 61, 0
1, 174000, Note_on_c, 0, 62, 47
1, 174120, Note_on_c, 0, 62, 0
1, 174120, Note_on_c, 0, 64, 47
1, 174240, Note_on_c, 0, 64, 0
1, 174240, Note_on_c, 0, 58, 53
1, 174360, Note_on_c, 0, 58, 0
1, 174360, Note_on_c, 0, 61, 48
1, 174480, Note_on_c, 0, 61, 0
1, 174480, Note_on_c, 0, 62, 48
1, 174600, Note_on_c, 0, 62, 0
1, 174600, Note_on_c, 0, 64, 48
1, 174720, Tempo, 406780
1, 174720, Note_on_c, 0, 64, 0
1, 174720, Note_on_c, 0, 45, 0
1, 174720, Note_on_c, 0, 79, 66
1, 174720, Note_on_c, 0, 91, 79
1, 174720, Control_c, 0, 64, 0
1, 174720, Note_on_c, 0, 37, 75
1, 174777, Control_c, 0, 64, 127
1, 174960, Note_on_c, 0, 37, 0
1, 174960, Note_on_c, 0, 38, 67
1, 175080, Note_on_c, 0, 38, 0
1, 175080, Note_on_c, 0, 40, 67
1, 175195, Note_on_c, 0, 91, 0
1, 175195, Note_on_c, 0, 79, 0
1, 175200, Note_on_c, 0, 40, 0
1, 175200, Note_on_c, 0, 79, 62
1, 175200, Note_on_c, 0, 91, 73
1, 175200, Note_on_c, 0, 41, 66
1, 175210, Control_c, 0, 64, 0
1, 175274, Control_c, 0, 64, 127
1, 175320, Note_on_c, 0, 41, 0
1, 175320, Note_on_c, 0, 43, 66
1, 175428, Note_on_c, 0, 91, 0
1, 175428, Note_on_c, 0, 79, 0
1, 175440, Note_on_c, 0, 43, 0
1, 175440, Note_on_c, 0, 79, 62
1, 175440, Note_on_c, 0, 91, 73
1, 175440, Note_on_c, 0, 45, 65
1, 175560, Note_on_c, 0, 45, 0
1, 175560, Note_on_c, 0, 47, 64
1, 175668, Note_on_c, 0, 91, 0
1, 175668, Note_on_c, 0, 79, 0
1, 175680, Note_on_c, 0, 47, 0
1, 175680, Note_on_c, 0, 79, 66
1, 175680, Note_on_c, 0, 91, 79
1, 175680, Note_on_c, 0, 49, 64
1, 175690, Control_c, 0, 64, 0
1, 175754, Control_c, 0, 64, 127
1, 175800, Note_on_c, 0, 49, 0
1, 175800, Note_on_c, 0, 50, 63
1, 175920, Note_on_c, 0, 50, 0
1, 175920, Note_on_c, 0, 52, 63
1, 176040, Note_on_c, 0, 52, 0
1, 176040, Note_on_c, 0, 53, 63
1, 176155, Note_on_c, 0, 91, 0
1, 176155, Note_on_c, 0, 79, 0
1, 176160, Note_on_c, 0, 53, 0
1, 176160, Note_on_c, 0, 79, 62
1, 176160, Note_on_c, 0, 91, 73
1, 176160, Note_on_c, 0, 55, 63
1, 176166, Control_c, 0, 64, 0
1, 176211, Control_c, 0, 64, 127
1, 176280, Note_on_c, 0, 55, 0
1, 176280, Note_on_c, 0, 57, 62
1, 176388, Note_on_c, 0, 91, 0
1, 176388, Note_on_c, 0, 79, 0
1, 176400, Note_on_c, 0, 57, 0
1, 176400, Note_on_c, 0, 79, 61
1, 176400, Note_on_c, 0, 91, 72
1, 176400, Note_on_c, 0, 59, 61
1, 176520, Note_on_c, 0, 59, 0
1, 176520, Note_on_c, 0, 61, 61
1, 176628, Note_on_c, 0, 91, 0
1, 176628, Note_on_c, 0, 79, 0
1, 176640, Tempo, 393443
1, 176640, Note_on_c, 0, 61, 0
1, 176640, Note_on_c, 0, 79, 66
1, 176640, Note_on_c, 0, 91, 79
1, 176640, Note_on_c, 0, 62, 58
1, 176649, Control_c, 0, 64, 0
1, 176709, Control_c, 0, 64, 127
1, 176760, Note_on_c, 0, 62, 0
1, 176760, Note_on_c, 0, 65, 53
1, 176880, Tempo, 418118
1, 176880, Note_on_c, 0, 65, 0
1, 176880, Note_on_c, 0, 91, 0
1, 176880, Note_on_c, 0, 79, 0
1, 176880, Note_on_c, 0, 76, 62
1, 176880, Note_on_c, 0, 88, 73
1, 176880, Note_on_c, 0, 68, 53
1, 177000, Note_on_c, 0, 68, 0
1, 177000, Note_on_c, 0, 69, 53
1, 177120, Tempo, 410959
1, 177120, Note_on_c, 0, 69, 0
1, 177120, Note_on_c, 0, 88, 0
1, 177120, Note_on_c, 0, 76, 0
1, 177120, Note_on_c, 0, 77, 64
1, 177120, Note_on_c, 0, 89, 76
1, 177120, Note_on_c, 0, 62, 52
1, 177130, Control_c, 0, 64, 0
1, 177177, Control_c, 0, 64, 127
1, 177240, Note_on_c, 0, 62, 0
1, 177240, Note_on_c, 0, 65, 46
1, 177360, Tempo, 422535
1, 177360, Note_on_c, 0, 65, 0
1, 177360, Note_on_c, 0, 68, 46
1, 177480, Note_on_c, 0, 68, 0
1, 177480, Note_on_c, 0, 69, 46
1, 177600, Tempo, 410959
1, 177600, Note_on_c, 0, 69, 0
1, 177600, Note_on_c, 0, 89, 0
1, 177600, Note_on_c, 0, 77, 0
1, 177600, Note_on_c, 0, 45, 97
1, 177600, Note_on_c, 0, 62, 54
1, 177606, Control_c, 0, 64, 0
1, 177640, Control_c, 0, 64, 127
1, 177720, Note_on_c, 0, 62, 0
1, 177720, Note_on_c, 0, 65, 47
1, 177840, Note_on_c, 0, 65, 0
1, 177840, Note_on_c, 0, 68, 47
1, 177960, Note_on_c, 0, 68, 0
1, 177960, Note_on_c, 0, 69, 47
1, 178080, Note_on_c, 0, 69, 0
1, 178080, Note_on_c, 0, 62, 53
1, 178200, Note_on_c, 0, 62, 0
1, 178200, Note_on_c, 0, 65, 48
1, 178320, Note_on_c, 0, 65, 0
1, 178320, Note_on_c, 0, 68, 48
1, 178440, Note_on_c, 0, 68, 0
1, 178440, Note_on_c, 0, 69, 48
1, 178560, Tempo, 393443
1, 178560, Note_on_c, 0, 69, 0
1, 178560, Note_on_c, 0, 45, 0
1, 178560, Note_on_c, 0, 77, 62
1, 178560, Note_on_c, 0, 89, 75
1, 178560, Note_on_c, 0, 60, 55
1, 178569, Control_c, 0, 64, 0
1, 178629, Control_c, 0, 64, 127
1, 178680, Note_on_c, 0, 60, 0
1, 178680, Note_on_c, 0, 64, 50
1, 178800, Tempo, 418118
1, 178800, Note_on_c, 0, 64, 0
1, 178800, Note_on_c, 0, 89, 0
1, 178800, Note_on_c, 0, 77, 0
1, 178800, Note_on_c, 0, 75, 58
1, 178800, Note_on_c, 0, 87, 68
1, 178800, Note_on_c, 0, 68, 49
1, 178920, Note_on_c, 0, 68, 0
1, 178920, Note_on_c, 0, 69, 49
1, 179040, Tempo, 410959
1, 179040, Note_on_c, 0, 69, 0
1, 179040, Note_on_c, 0, 87, 0
1, 179040, Note_on_c, 0, 75, 0
1, 179040, Note_on_c, 0, 76, 58
1, 179040, Note_on_c, 0, 88, 69
1, 179040, Note_on_c, 0, 60, 47
1, 179050, Control_c, 0, 64, 0
1, 179097, Control_c, 0, 64, 127
1, 179160, Note_on_c, 0, 60, 0
1, 179160, Note_on_c, 0, 64, 42
1, 179280, Tempo, 422535
1, 179280, Note_on_c, 0, 64, 0
1, 179280, Note_on_c, 0, 68, 41
1, 179400, Note_on_c, 0, 68, 0
1, 179400, Note_on_c, 0, 69, 41
1, 179520, Tempo, 410959
1, 179520, Note_on_c, 0, 69, 0
1, 179520, Note_on_c, 0, 88, 0
1, 179520, Note_on_c, 0, 76, 0
1, 179520, Note_on_c, 0, 45, 86
1, 179520, Note_on_c, 0, 60, 48
1, 179526, Control_c, 0, 64, 0
1, 179560, Control_c, 0, 64, 127
1, 179640, Note_on_c, 0, 60, 0
1, 179640, Note_on_c, 0, 64, 41
1, 179760, Note_on_c, 0, 64, 0
1, 179760, Note_on_c, 0, 68, 41
1, 179880, Note_on_c, 0, 68, 0
1, 179880, Note_on_c, 0, 69, 40
1, 180000, Note_on_c, 0, 69, 0
1, 180000, Note_on_c, 0, 60, 45
1, 180120, Note_on_c, 0, 60, 0
1, 180120, Note_on_c, 0, 64, 40
1, 180240, Note_on_c, 0, 64, 0
1, 180240, Note_on_c, 0, 68, 40
1, 180360, Note_on_c, 0, 68, 0
1, 180360, Note_on_c, 0, 69, 40
1, 180480, Tempo, 398671
1, 180480, Note_on_c, 0, 69, 0
1, 180480, Note_on_c, 0, 45, 0
1, 180480, Note_on_c, 0, 76, 54
1, 180480, Note_on_c, 0, 88, 65
1, 180480, Note_on_c, 0, 59, 48
1, 180489, Control_c, 0, 64, 0
1, 180549, Control_c, 0, 64, 127
1, 180600, Note_on_c, 0, 59, 0
1, 180600, Note_on_c, 0, 62, 43
1, 180720, Tempo, 427046
1, 180720, Note_on_c, 0, 62, 0
1, 180720, Note_on_c, 0, 88, 0
1, 180720, Note_on_c, 0, 76, 0
1, 180720, Note_on_c, 0, 73, 50
1, 180720, Note_on_c, 0, 85, 59
1, 180720, Note_on_c, 0, 68, 42
1, 180840, Note_on_c, 0, 68, 0
1, 180840, Note_on_c, 0, 69, 42
1, 180960, Tempo, 416667
1, 180960, Note_on_c, 0, 69, 0
1, 180960, Note_on_c, 0, 85, 0
1, 180960, Note_on_c, 0, 73, 0
1, 180960, Note_on_c, 0, 74, 51
1, 180960, Note_on_c, 0, 86, 60
1, 180960, Note_on_c, 0, 59, 41
1, 180970, Control_c, 0, 64, 0
1, 181017, Control_c, 0, 64, 127
1, 181080, Note_on_c, 0, 59, 0
1, 181080, Note_on_c, 0, 62, 36
1, 181200, Tempo, 422535
1, 181200, Note_on_c, 0, 62, 0
1, 181200, Note_on_c, 0, 68, 35
1, 181320, Note_on_c, 0, 68, 0
1, 181320, Note_on_c, 0, 69, 35
1, 181440, Tempo, 410959
1, 181440, Note_on_c, 0, 69, 0
1, 181440, Note_on_c, 0, 86, 0
1, 181440, Note_on_c, 0, 74, 0
1, 181440, Note_on_c, 0, 45, 74
1, 181440, Note_on_c, 0, 59, 41
1, 181446, Control_c, 0, 64, 0
1, 181480, Control_c, 0, 64, 127
1, 181560, Note_on_c, 0, 59, 0
1, 181560, Note_on_c, 0, 62, 35
1, 181680, Note_on_c, 0, 62, 0
1, 181680, Note_on_c, 0, 68, 35
1, 181800, Note_on_c, 0, 68, 0
1, 181800, Note_on_c, 0, 69, 34
1, 181920, Note_on_c, 0, 69, 0
1, 181920, Note_on_c, 0, 59, 39
1, 182040, Note_on_c, 0, 59, 0
1, 182040, Note_on_c, 0, 62, 35
1, 182160, Note_on_c, 0, 62, 0
1, 182160, Note_on_c, 0, 68, 34
1, 182280, Note_on_c, 0, 68, 0
1, 182280, Note_on_c, 0, 69, 34
1, 182400, Tempo, 406780
1, 182400, Note_on_c, 0, 69, 0
1, 182400, Note_on_c, 0, 45, 0
1, 182400, Note_on_c, 0, 74, 48
1, 182400, Note_on_c, 0, 86, 58
1, 182400, Note_on_c, 0, 57, 43
1, 182409, Control_c, 0, 64, 0
1, 182469, Control_c, 0, 64, 127
1, 182520, Note_on_c, 0, 57, 0
1, 182520, Note_on_c, 0, 60, 35
1, 182640, Tempo, 444444
1, 182640, Note_on_c, 0, 60, 0
1, 182640, Note_on_c, 0, 86, 0
1, 182640, Note_on_c, 0, 74, 0
1, 182640, Note_on_c, 0, 71, 45
1, 182640, Note_on_c, 0, 83, 53
1, 182640, Note_on_c, 0, 68, 35
1, 182760, Note_on_c, 0, 68, 0
1, 182760, Note_on_c, 0, 69, 35
1, 182880, Tempo, 425532
1, 182880, Note_on_c, 0, 69, 0
1, 182880, Note_on_c, 0, 83, 0
1, 182880, Note_on_c, 0, 71, 0
1, 182880, Note_on_c, 0, 72, 45
1, 182880, Note_on_c, 0, 84, 54
1, 182880, Note_on_c, 0, 57, 35
1, 182890, Control_c, 0, 64, 0
1, 182937, Control_c, 0, 64, 127
1, 183000, Note_on_c, 0, 57, 0
1, 183000, Note_on_c, 0, 60, 35
1, 183120, Tempo, 436364
1, 183120, Note_on_c, 0, 60, 0
1, 183120, Note_on_c, 0, 68, 31
1, 183240, Note_on_c, 0, 68, 0
1, 183240, Note_on_c, 0, 69, 31
1, 183330, Tempo, 425532
1, 183337, Control_c, 0, 64, 0
1, 183360, Note_on_c, 0, 69, 0
1, 183360, Note_on_c, 0, 84, 0
1, 183360, Note_on_c, 0, 72, 0
1, 183360, Note_on_c, 0, 81, 56
1, 183360, Note_on_c, 0, 69, 47
1, 183360, Note_on_c, 0, 48, 40
1, 183411, Control_c, 0, 64, 127
1, 183480, Note_on_c, 0, 48, 0
1, 183480, Note_on_c, 0, 57, 36
1, 183600, Note_on_c, 0, 57, 0
1, 183600, Note_on_c, 0, 69, 0
1, 183600, Note_on_c, 0, 81, 0
1, 183600, Note_on_c, 0, 71, 50
1, 183600, Note_on_c, 0, 83, 59
1, 183600, Note_on_c, 0, 50, 37
1, 183720, Note_on_c, 0, 50, 0
1, 183720, Note_on_c, 0, 57, 38
1, 183840, Note_on_c, 0, 57, 0
1, 183840, Note_on_c, 0, 83, 0
1, 183840, Note_on_c, 0, 71, 0
1, 183840, Note_on_c, 0, 72, 52
1, 183840, Note_on_c, 0, 84, 62
1, 183840, Note_on_c, 0, 45, 46
1, 183960, Note_on_c, 0, 45, 0
1, 183960, Note_on_c, 0, 57, 40
1, 184080, Note_on_c, 0, 57, 0
1, 184080, Note_on_c, 0, 84, 0
1, 184080, Note_on_c, 0, 72, 0
1, 184080, Note_on_c, 0, 74, 55
1, 184080, Note_on_c, 0, 86, 65
1, 184080, Note_on_c, 0, 47, 41
1, 184200, Note_on_c, 0, 47, 0
1, 184200, Note_on_c, 0, 57, 42
1, 184320, Note_on_c, 0, 57, 0
1, 184320, Note_on_c, 0, 86, 0
1, 184320, Note_on_c, 0, 74, 0
1, 184320, Note_on_c, 0, 88, 68
1, 184320, Note_on_c, 0, 76, 57
1, 184320, Note_on_c, 0, 48, 50
1, 184329, Control_c, 0, 64, 0
1, 184371, Control_c, 0, 64, 127
1, 184440, Note_on_c, 0, 48, 0
1, 184440, Note_on_c, 0, 57, 43
1, 184560, Tempo, 451128
1, 184560, Note_on_c, 0, 57, 0
1, 184560, Note_on_c, 0, 52, 43
1, 184680, Note_on_c, 0, 52, 0
1, 184680, Note_on_c, 0, 57, 43
1, 184800, Tempo, 436364
1, 184800, Note_on_c, 0, 57, 0
1, 184800, Note_on_c, 0, 76, 0
1, 184800, Note_on_c, 0, 88, 0
1, 184800, Note_on_c, 0, 74, 56
1, 184800, Note_on_c, 0, 86, 66
1, 184800, Note_on_c, 0, 50, 47
1, 184920, Note_on_c, 0, 50, 0
1, 184920, Note_on_c, 0, 57, 39
1, 185040, Note_on_c, 0, 57, 0
1, 185040, Note_on_c, 0, 53, 39
1, 185160, Tempo, 444444
1, 185160, Note_on_c, 0, 53, 0
1, 185160, Note_on_c, 0, 86, 0
1, 185160, Note_on_c, 0, 74, 0
1, 185160, Note_on_c, 0, 72, 46
1, 185160, Note_on_c, 0, 84, 55
1, 185160, Note_on_c, 0, 57, 39
1, 185280, Note_on_c, 0, 57, 0
1, 185280, Note_on_c, 0, 84, 0
1, 185280, Note_on_c, 0, 72, 0
1, 185280, Note_on_c, 0, 84, 61
1, 185280, Note_on_c, 0, 72, 51
1, 185280, Note_on_c, 0, 52, 45
1, 185290, Control_c, 0, 64, 0
1, 185337, Control_c, 0, 64, 127
1, 185400, Note_on_c, 0, 52, 0
1, 185400, Note_on_c, 0, 60, 35
1, 185520, Note_on_c, 0, 60, 0
1, 185520, Note_on_c, 0, 57, 35
1, 185640, Note_on_c, 0, 57, 0
1, 185640, Note_on_c, 0, 60, 35
1, 185760, Note_on_c, 0, 60, 0
1, 185760, Note_on_c, 0, 72, 0
1, 185760, Note_on_c, 0, 84, 0
1, 185760, Note_on_c, 0, 71, 47
1, 185760, Note_on_c, 0, 83, 56
1, 185760, Note_on_c, 0, 52, 46
1, 185800, Tempo, 463320
1, 185880, Note_on_c, 0, 52, 0
1, 185880, Note_on_c, 0, 62, 35
1, 186000, Note_on_c, 0, 62, 0
1, 186000, Note_on_c, 0, 56, 35
1, 186120, Note_on_c, 0, 56, 0
1, 186120, Note_on_c, 0, 62, 35
1, 186240, Tempo, 446097
1, 186240, Note_on_c, 0, 62, 0
1, 186240, Note_on_c, 0, 83, 0
1, 186240, Note_on_c, 0, 71, 0
1, 186240, Note_on_c, 0, 68, 50
1, 186240, Note_on_c, 0, 80, 59
1, 186240, Note_on_c, 0, 53, 41
1, 186246, Control_c, 0, 64, 0
1, 186304, Control_c, 0, 64, 127
1, 186360, Note_on_c, 0, 53, 0
1, 186360, Note_on_c, 0, 60, 32
1, 186480, Note_on_c, 0, 60, 0
1, 186480, Note_on_c, 0, 57, 33
1, 186600, Note_on_c, 0, 57, 0
1, 186600, Note_on_c, 0, 60, 33
1, 186720, Note_on_c, 0, 60, 0
1, 186720, Note_on_c, 0, 80, 0
1, 186720, Note_on_c, 0, 68, 0
1, 186720, Note_on_c, 0, 69, 47
1, 186720, Note_on_c, 0, 81, 56
1, 186720, Note_on_c, 0, 53, 41
1, 186840, Note_on_c, 0, 53, 0
1, 186840, Note_on_c, 0, 60, 35
1, 186960, Tempo, 446097
1, 186960, Note_on_c, 0, 60, 0
1, 186960, Note_on_c, 0, 81, 0
1, 186960, Note_on_c, 0, 69, 0
1, 186960, Note_on_c, 0, 57, 35
1, 187040, Tempo, 447761
1, 187080, Note_on_c, 0, 57, 0
1, 187080, Note_on_c, 0, 60, 35
1, 187120, Tempo, 449438
1, 187200, Tempo, 451128
1, 187200, Note_on_c, 0, 60, 0
1, 187210, Note_on_c, 0, 81, 56
1, 187210, Note_on_c, 0, 69, 47
1, 187210, Control_c, 0, 64, 0
1, 187210, Note_on_c, 0, 48, 40
1, 187261, Control_c, 0, 64, 127
1, 187330, Note_on_c, 0, 48, 0
1, 187330, Note_on_c, 0, 57, 36
1, 187450, Note_on_c, 0, 57, 0
1, 187450, Note_on_c, 0, 69, 0
1, 187450, Note_on_c, 0, 81, 0
1, 187450, Note_on_c, 0, 71, 50
1, 187450, Note_on_c, 0, 83, 59
1, 187450, Note_on_c, 0, 50, 37
1, 187570, Note_on_c, 0, 50, 0
1, 187570, Note_on_c, 0, 57, 38
1, 187690, Note_on_c, 0, 57, 0
1, 187690, Note_on_c, 0, 83, 0
1, 187690, Note_on_c, 0, 71, 0
1, 187690, Note_on_c, 0, 72, 52
1, 187690, Note_on_c, 0, 84, 62
1, 187690, Note_on_c, 0, 45, 46
1, 187810, Note_on_c, 0, 45, 0
1, 187810, Note_on_c, 0, 57, 40
1, 187930, Note_on_c, 0, 57, 0
1, 187930, Note_on_c, 0, 84, 0
1, 187930, Note_on_c, 0, 72, 0
1, 187930, Note_on_c, 0, 74, 55
1, 187930, Note_on_c, 0, 86, 65
1, 187930, Note_on_c, 0, 47, 41
1, 188050, Note_on_c, 0, 47, 0
1, 188050, Note_on_c, 0, 57, 42
1, 188170, Note_on_c, 0, 57, 0
1, 188170, Note_on_c, 0, 86, 0
1, 188170, Note_on_c, 0, 74, 0
1, 188170, Note_on_c, 0, 88, 68
1, 188170, Note_on_c, 0, 76, 57
1, 188170, Control_c, 0, 64, 0
1, 188170, Note_on_c, 0, 48, 50
1, 188221, Control_c, 0, 64, 127
1, 188290, Note_on_c, 0, 48, 0
1, 188290, Note_on_c, 0, 57, 43
1, 188400, Tempo, 480000
1, 188410, Note_on_c, 0, 57, 0
1, 188410, Note_on_c, 0, 52, 43
1, 188530, Note_on_c, 0, 52, 0
1, 188530, Note_on_c, 0, 57, 43
1, 188640, Tempo, 458015
1, 188650, Note_on_c, 0, 57, 0
1, 188650, Note_on_c, 0, 76, 0
1, 188650, Note_on_c, 0, 88, 0
1, 188650, Note_on_c, 0, 74, 56
1, 188650, Note_on_c, 0, 86, 66
1, 188650, Note_on_c, 0, 50, 47
1, 188720, Tempo, 458015
1, 188770, Note_on_c, 0, 50, 0
1, 188770, Note_on_c, 0, 57, 39
1, 188800, Tempo, 459770
1, 188880, Tempo, 461538
1, 188890, Note_on_c, 0, 57, 0
1, 188890, Note_on_c, 0, 53, 39
1, 188960, Tempo, 463320
1, 189010, Note_on_c, 0, 53, 0
1, 189010, Note_on_c, 0, 86, 0
1, 189010, Note_on_c, 0, 74, 0
1, 189010, Note_on_c, 0, 72, 46
1, 189010, Note_on_c, 0, 84, 55
1, 189010, Note_on_c, 0, 57, 39
1, 189040, Tempo, 465116
1, 189120, Tempo, 466926
1, 189130, Note_on_c, 0, 57, 0
1, 189130, Note_on_c, 0, 84, 0
1, 189130, Note_on_c, 0, 72, 0
1, 189130, Note_on_c, 0, 84, 61
1, 189130, Note_on_c, 0, 72, 51
1, 189130, Control_c, 0, 64, 0
1, 189130, Note_on_c, 0, 52, 45
1, 189189, Control_c, 0, 64, 127
1, 189200, Tempo, 468750
1, 189250, Note_on_c, 0, 52, 0
1, 189250, Note_on_c, 0, 60, 35
1, 189280, Tempo, 470588
1, 189360, Tempo, 472441
1, 189370, Note_on_c, 0, 60, 0
1, 189370, Note_on_c, 0, 57, 35
1, 189440, Tempo, 474308
1, 189490, Note_on_c, 0, 57, 0
1, 189490, Note_on_c, 0, 60, 35
1, 189520, Tempo, 476190
1, 189560, Tempo, 478088
1, 189610, Note_on_c, 0, 60, 0
1, 189610, Note_on_c, 0, 72, 0
1, 189610, Note_on_c, 0, 84, 0
1, 189610, Note_on_c, 0, 71, 47
1, 189610, Note_on_c, 0, 83, 56
1, 189610, Note_on_c, 0, 52, 46
1, 189730, Note_on_c, 0, 52, 0
1, 189730, Note_on_c, 0, 62, 35
1, 189850, Note_on_c, 0, 62, 0
1, 189850, Note_on_c, 0, 56, 35
1, 189970, Note_on_c, 0, 56, 0
1, 189970, Note_on_c, 0, 62, 35
1, 190080, Tempo, 456274
1, 190080, Note_on_c, 0, 81, 69
1, 190080, Control_c, 0, 64, 0
1, 190080, Note_on_c, 0, 35, 68
1, 190080, Note_on_c, 0, 47, 80
1, 190090, Note_on_c, 0, 62, 0
1, 190090, Note_on_c, 0, 71, 0
1, 190090, Note_on_c, 0, 83, 0
1, 190200, Note_on_c, 0, 81, 0
1, 190200, Note_on_c, 0, 35, 0
1, 190200, Note_on_c, 0, 47, 0
1, 190200, Note_on_c, 0, 75, 61
1, 190320, Tempo, 434783
1, 190320, Note_on_c, 0, 75, 0
1, 190320, Note_on_c, 0, 76, 61
1, 190320, Note_on_c, 0, 38, 64
1, 190320, Note_on_c, 0, 50, 76
1, 190440, Note_on_c, 0, 50, 0
1, 190440, Note_on_c, 0, 38, 0
1, 190440, Note_on_c, 0, 76, 0
1, 190440, Note_on_c, 0, 69, 61
1, 190560, Tempo, 444444
1, 190560, Note_on_c, 0, 69, 0
1, 190560, Note_on_c, 0, 69, 66
1, 190560, Note_on_c, 0, 36, 69
1, 190560, Note_on_c, 0, 48, 82
1, 190594, Control_c, 0, 64, 127
1, 190680, Note_on_c, 0, 69, 0
1, 190680, Note_on_c, 0, 63, 61
1, 190800, Note_on_c, 0, 63, 0
1, 190800, Note_on_c, 0, 64, 61
1, 190920, Note_on_c, 0, 64, 0
1, 190920, Note_on_c, 0, 57, 61
1, 191040, Tempo, 452830
1, 191040, Note_on_c, 0, 57, 0
1, 191040, Note_on_c, 0, 48, 0
1, 191040, Note_on_c, 0, 36, 0
1, 191040, Note_on_c, 0, 82, 69
1, 191040, Note_on_c, 0, 37, 69
1, 191040, Note_on_c, 0, 49, 81
1, 191046, Control_c, 0, 64, 0
1, 191160, Note_on_c, 0, 49, 0
1, 191160, Note_on_c, 0, 37, 0
1, 191160, Note_on_c, 0, 82, 0
1, 191160, Note_on_c, 0, 76, 62
1, 191280, Tempo, 434783
1, 191280, Note_on_c, 0, 76, 0
1, 191280, Note_on_c, 0, 77, 62
1, 191280, Note_on_c, 0, 40, 64
1, 191280, Note_on_c, 0, 52, 76
1, 191400, Note_on_c, 0, 52, 0
1, 191400, Note_on_c, 0, 40, 0
1, 191400, Note_on_c, 0, 77, 0
1, 191400, Note_on_c, 0, 70, 62
1, 191520, Tempo, 442804
1, 191520, Note_on_c, 0, 70, 0
1, 191520, Note_on_c, 0, 70, 66
1, 191520, Note_on_c, 0, 38, 70
1, 191520, Note_on_c, 0, 50, 82
1, 191566, Control_c, 0, 64, 127
1, 191640, Note_on_c, 0, 70, 0
1, 191640, Note_on_c, 0, 64, 62
1, 191760, Note_on_c, 0, 64, 0
1, 191760, Note_on_c, 0, 65, 62
1, 191880, Note_on_c, 0, 65, 0
1, 191880, Note_on_c, 0, 58, 63
1, 192000, Tempo, 442804
1, 192000, Note_on_c, 0, 58, 0
1, 192000, Note_on_c, 0, 50, 0
1, 192000, Note_on_c, 0, 38, 0
1, 192000, Note_on_c, 0, 85, 72
1, 192000, Control_c, 0, 64, 0
1, 192000, Note_on_c, 0, 39, 70
1, 192000, Note_on_c, 0, 51, 83
1, 192120, Note_on_c, 0, 51, 0
1, 192120, Note_on_c, 0, 39, 0
1, 192120, Note_on_c, 0, 85, 0
1, 192120, Note_on_c, 0, 78, 63
1, 192240, Tempo, 428571
1, 192240, Note_on_c, 0, 78, 0
1, 192240, Note_on_c, 0, 79, 64
1, 192240, Note_on_c, 0, 41, 65
1, 192240, Note_on_c, 0, 53, 77
1, 192360, Note_on_c, 0, 53, 0
1, 192360, Note_on_c, 0, 41, 0
1, 192360, Note_on_c, 0, 79, 0
1, 192360, Note_on_c, 0, 73, 64
1, 192480, Tempo, 444444
1, 192480, Note_on_c, 0, 73, 0
1, 192480, Note_on_c, 0, 73, 70
1, 192480, Note_on_c, 0, 40, 71
1, 192480, Note_on_c, 0, 52, 84
1, 192543, Control_c, 0, 64, 127
1, 192600, Note_on_c, 0, 73, 0
1, 192600, Note_on_c, 0, 66, 64
1, 192720, Note_on_c, 0, 66, 0
1, 192720, Note_on_c, 0, 67, 63
1, 192840, Note_on_c, 0, 67, 0
1, 192840, Note_on_c, 0, 61, 63
1, 192960, Tempo, 436364
1, 192960, Note_on_c, 0, 61, 0
1, 192960, Note_on_c, 0, 52, 0
1, 192960, Note_on_c, 0, 40, 0
1, 192960, Note_on_c, 0, 86, 75
1, 192960, Note_on_c, 0, 40, 72
1, 192960, Note_on_c, 0, 52, 84
1, 192966, Control_c, 0, 64, 0
1, 193080, Note_on_c, 0, 52, 0
1, 193080, Note_on_c, 0, 40, 0
1, 193080, Note_on_c, 0, 86, 0
1, 193080, Note_on_c, 0, 80, 63
1, 193200, Tempo, 419580
1, 193200, Note_on_c, 0, 80, 0
1, 193200, Note_on_c, 0, 81, 64
1, 193200, Note_on_c, 0, 43, 66
1, 193200, Note_on_c, 0, 55, 79
1, 193320, Note_on_c, 0, 55, 0
1, 193320, Note_on_c, 0, 43, 0
1, 193320, Note_on_c, 0, 81, 0
1, 193320, Note_on_c, 0, 74, 64
1, 193440, Tempo, 446097
1, 193440, Note_on_c, 0, 74, 0
1, 193440, Note_on_c, 0, 74, 69
1, 193440, Note_on_c, 0, 41, 72
1, 193440, Note_on_c, 0, 53, 85
1, 193520, Control_c, 0, 64, 127
1, 193560, Note_on_c, 0, 74, 0
1, 193560, Note_on_c, 0, 68, 64
1, 193680, Note_on_c, 0, 68, 0
1, 193680, Note_on_c, 0, 69, 64
1, 193800, Note_on_c, 0, 69, 0
1, 193800, Note_on_c, 0, 62, 64
1, 193920, Tempo, 439560
1, 193920, Note_on_c, 0, 62, 0
1, 193920, Note_on_c, 0, 53, 0
1, 193920, Note_on_c, 0, 41, 0
1, 193920, Note_on_c, 0, 89, 76
1, 193920, Control_c, 0, 64, 0
1, 193920, Note_on_c, 0, 44, 73
1, 193920, Note_on_c, 0, 56, 86
1, 194040, Note_on_c, 0, 56, 0
1, 194040, Note_on_c, 0, 44, 0
1, 194040, Note_on_c, 0, 89, 0
1, 194040, Note_on_c, 0, 85, 65
1, 194160, Tempo, 466926
1, 194160, Note_on_c, 0, 85, 0
1, 194160, Note_on_c, 0, 86, 65
1, 194160, Note_on_c, 0, 62, 80
1, 194160, Note_on_c, 0, 59, 67
1, 194280, Note_on_c, 0, 59, 0
1, 194280, Note_on_c, 0, 62, 0
1, 194280, Note_on_c, 0, 86, 0
1, 194280, Note_on_c, 0, 77, 65
1, 194400, Tempo, 451128
1, 194400, Note_on_c, 0, 77, 0
1, 194400, Note_on_c, 0, 89, 71
1, 194400, Note_on_c, 0, 65, 88
1, 194400, Note_on_c, 0, 62, 74
1, 194400, Note_on_c, 0, 59, 74
1, 194400, Note_on_c, 0, 56, 74
1, 194429, Control_c, 0, 64, 127
1, 194520, Note_on_c, 0, 89, 0
1, 194520, Note_on_c, 0, 85, 66
1, 194640, Note_on_c, 0, 85, 0
1, 194640, Note_on_c, 0, 86, 66
1, 194760, Note_on_c, 0, 86, 0
1, 194760, Note_on_c, 0, 77, 66
1, 194880, Note_on_c, 0, 77, 0
1, 194880, Note_on_c, 0, 89, 70
1, 195000, Note_on_c, 0, 89, 0
1, 195000, Note_on_c, 0, 85, 61
1, 195120, Note_on_c, 0, 85, 0
1, 195120, Note_on_c, 0, 86, 61
1, 195240, Tempo, 512821
1, 195240, Note_on_c, 0, 86, 0
1, 195240, Note_on_c, 0, 77, 61
1, 195360, Tempo, 476190
1, 195360, Note_on_c, 0, 77, 0
1, 195360, Note_on_c, 0, 56, 0
1, 195360, Note_on_c, 0, 65, 0
1, 195360, Note_on_c, 0, 62, 0
1, 195360, Note_on_c, 0, 59, 0
1, 195360, Note_on_c, 0, 80, 64
1, 195360, Note_on_c, 0, 52, 37
1, 195360, Note_on_c, 0, 56, 37
1, 195360, Note_on_c, 0, 59, 45
1, 195381, Control_c, 0, 64, 0
1, 195480, Note_on_c, 0, 80, 0
1, 195480, Note_on_c, 0, 83, 58
1, 195600, Note_on_c, 0, 83, 0
1, 195600, Note_on_c, 0, 86, 58
1, 195720, Note_on_c, 0, 86, 0
1, 195720, Note_on_c, 0, 89, 58
1, 195840, Tempo, 447761
1, 195840, Note_on_c, 0, 89, 0
1, 195840, Note_on_c, 0, 59, 0
1, 195840, Note_on_c, 0, 56, 0
1, 195840, Note_on_c, 0, 52, 0
1, 195840, Note_on_c, 0, 88, 61
1, 195840, Note_on_c, 0, 76, 51
1, 195840, Note_on_c, 0, 48, 45
1, 195849, Control_c, 0, 64, 0
1, 195891, Control_c, 0, 64, 127
1, 195960, Note_on_c, 0, 48, 0
1, 195960, Note_on_c, 0, 57, 38
1, 196080, Tempo, 451128
1, 196080, Note_on_c, 0, 57, 0
1, 196080, Note_on_c, 0, 52, 38
1, 196200, Note_on_c, 0, 52, 0
1, 196200, Note_on_c, 0, 57, 38
1, 196320, Tempo, 436364
1, 196320, Note_on_c, 0, 57, 0
1, 196320, Note_on_c, 0, 76, 0
1, 196320, Note_on_c, 0, 88, 0
1, 196320, Note_on_c, 0, 74, 50
1, 196320, Note_on_c, 0, 86, 59
1, 196320, Note_on_c, 0, 50, 42
1, 196440, Note_on_c, 0, 50, 0
1, 196440, Note_on_c, 0, 57, 35
1, 196560, Note_on_c, 0, 57, 0
1, 196560, Note_on_c, 0, 53, 35
1, 196680, Tempo, 444444
1, 196680, Note_on_c, 0, 53, 0
1, 196680, Note_on_c, 0, 86, 0
1, 196680, Note_on_c, 0, 74, 0
1, 196680, Note_on_c, 0, 72, 41
1, 196680, Note_on_c, 0, 84, 49
1, 196680, Note_on_c, 0, 57, 35
1, 196800, Note_on_c, 0, 57, 0
1, 196800, Note_on_c, 0, 84, 0
1, 196800, Note_on_c, 0, 72, 0
1, 196800, Note_on_c, 0, 84, 54
1, 196800, Note_on_c, 0, 72, 45
1, 196800, Note_on_c, 0, 52, 40
1, 196810, Control_c, 0, 64, 0
1, 196857, Control_c, 0, 64, 127
1, 196920, Note_on_c, 0, 52, 0
1, 196920, Note_on_c, 0, 60, 31
1, 197040, Note_on_c, 0, 60, 0
1, 197040, Note_on_c, 0, 57, 31
1, 197160, Note_on_c, 0, 57, 0
1, 197160, Note_on_c, 0, 60, 31
1, 197280, Tempo, 463320
1, 197280, Note_on_c, 0, 60, 0
1, 197280, Note_on_c, 0, 72, 0
1, 197280, Note_on_c, 0, 84, 0
1, 197280, Note_on_c, 0, 71, 42
1, 197280, Note_on_c, 0, 83, 50
1, 197280, Note_on_c, 0, 52, 41
1, 197320, Tempo, 465116
1, 197360, Tempo, 466926
1, 197400, Tempo, 468750
1, 197400, Note_on_c, 0, 52, 0
1, 197400, Note_on_c, 0, 62, 31
1, 197440, Tempo, 470588
1, 197480, Tempo, 472441
1, 197520, Tempo, 474308
1, 197520, Note_on_c, 0, 62, 0
1, 197520, Note_on_c, 0, 56, 31
1, 197560, Tempo, 476190
1, 197600, Tempo, 478088
1, 197640, Tempo, 535714
1, 197640, Note_on_c, 0, 56, 0
1, 197640, Note_on_c, 0, 62, 31
1, 197760, Tempo, 452830
1, 197760, Note_on_c, 0, 62, 0
1, 197760, Note_on_c, 0, 83, 0
1, 197760, Note_on_c, 0, 71, 0
1, 197760, Note_on_c, 0, 88, 43
1, 197760, Note_on_c, 0, 76, 36
1, 197760, Note_on_c, 0, 48, 32
1, 197769, Control_c, 0, 64, 0
1, 197811, Control_c, 0, 64, 127
1, 197880, Note_on_c, 0, 48, 0
1, 197880, Note_on_c, 0, 57, 27
1, 198000, Tempo, 461538
1, 198000, Note_on_c, 0, 57, 0
1, 198000, Note_on_c, 0, 52, 27
1, 198120, Note_on_c, 0, 52, 0
1, 198120, Note_on_c, 0, 57, 27
1, 198240, Tempo, 442804
1, 198240, Note_on_c, 0, 57, 0
1, 198240, Note_on_c, 0, 76, 0
1, 198240, Note_on_c, 0, 88, 0
1, 198240, Note_on_c, 0, 74, 36
1, 198240, Note_on_c, 0, 86, 42
1, 198240, Note_on_c, 0, 50, 29
1, 198360, Note_on_c, 0, 50, 0
1, 198360, Note_on_c, 0, 57, 25
1, 198480, Note_on_c, 0, 57, 0
1, 198480, Note_on_c, 0, 53, 25
1, 198600, Tempo, 444444
1, 198600, Note_on_c, 0, 53, 0
1, 198600, Note_on_c, 0, 86, 0
1, 198600, Note_on_c, 0, 74, 0
1, 198600, Note_on_c, 0, 72, 28
1, 198600, Note_on_c, 0, 84, 35
1, 198600, Note_on_c, 0, 57, 25
1, 198720, Tempo, 456274
1, 198720, Note_on_c, 0, 57, 0
1, 198720, Note_on_c, 0, 84, 0
1, 198720, Note_on_c, 0, 72, 0
1, 198720, Note_on_c, 0, 84, 38
1, 198720, Note_on_c, 0, 72, 32
1, 198720, Note_on_c, 0, 52, 28
1, 198730, Control_c, 0, 64, 0
1, 198806, Control_c, 0, 64, 127
1, 198840, Note_on_c, 0, 52, 0
1, 198840, Note_on_c, 0, 60, 21
1, 198960, Note_on_c, 0, 60, 0
1, 198960, Note_on_c, 0, 57, 21
1, 199080, Note_on_c, 0, 57, 0
1, 199080, Note_on_c, 0, 60, 21
1, 199200, Note_on_c, 0, 60, 0
1, 199200, Note_on_c, 0, 72, 0
1, 199200, Note_on_c, 0, 84, 0
1, 199200, Note_on_c, 0, 71, 29
1, 199200, Note_on_c, 0, 83, 36
1, 199200, Note_on_c, 0, 52, 28
1, 199240, Tempo, 461538
1, 199280, Tempo, 465116
1, 199320, Tempo, 470588
1, 199320, Note_on_c, 0, 52, 0
1, 199320, Note_on_c, 0, 62, 21
1, 199360, Tempo, 474308
1, 199400, Tempo, 480000
1, 199440, Tempo, 485830
1, 199440, Note_on_c, 0, 62, 0
1, 199440, Note_on_c, 0, 56, 21
1, 199480, Tempo, 489796
1, 199520, Tempo, 495868
1, 199560, Tempo, 502092
1, 199560, Note_on_c, 0, 56, 0
1, 199560, Note_on_c, 0, 62, 21
1, 199680, Tempo, 459770
1, 199680, Note_on_c, 0, 62, 0
1, 199680, Note_on_c, 0, 83, 0
1, 199680, Note_on_c, 0, 71, 0
1, 199680, Note_on_c, 0, 81, 69
1, 199680, Control_c, 0, 64, 0
1, 199680, Note_on_c, 0, 35, 68
1, 199680, Note_on_c, 0, 47, 80
1, 199800, Note_on_c, 0, 47, 0
1, 199800, Note_on_c, 0, 35, 0
1, 199800, Note_on_c, 0, 81, 0
1, 199800, Note_on_c, 0, 75, 61
1, 199920, Tempo, 441176
1, 199920, Note_on_c, 0, 75, 0
1, 199920, Note_on_c, 0, 76, 61
1, 199920, Note_on_c, 0, 38, 64
1, 199920, Note_on_c, 0, 50, 76
1, 200040, Note_on_c, 0, 50, 0
1, 200040, Note_on_c, 0, 38, 0
1, 200040, Note_on_c, 0, 76, 0
1, 200040, Note_on_c, 0, 69, 61
1, 200153, Note_on_c, 0, 69, 0
1, 200160, Tempo, 449438
1, 200160, Note_on_c, 0, 69, 66
1, 200160, Note_on_c, 0, 36, 69
1, 200160, Note_on_c, 0, 48, 82
1, 200194, Control_c, 0, 64, 127
1, 200280, Note_on_c, 0, 69, 0
1, 200280, Note_on_c, 0, 63, 61
1, 200400, Note_on_c, 0, 63, 0
1, 200400, Note_on_c, 0, 64, 61
1, 200520, Note_on_c, 0, 64, 0
1, 200520, Note_on_c, 0, 57, 61
1, 200640, Tempo, 446097
1, 200640, Note_on_c, 0, 57, 0
1, 200640, Note_on_c, 0, 48, 0
1, 200640, Note_on_c, 0, 36, 0
1, 200640, Note_on_c, 0, 82, 68
1, 200640, Note_on_c, 0, 37, 68
1, 200640, Note_on_c, 0, 49, 80
1, 200646, Control_c, 0, 64, 0
1, 200760, Note_on_c, 0, 49, 0
1, 200760, Note_on_c, 0, 37, 0
1, 200760, Note_on_c, 0, 82, 0
1, 200760, Note_on_c, 0, 76, 61
1, 200880, Tempo, 434783
1, 200880, Note_on_c, 0, 76, 0
1, 200880, Note_on_c, 0, 77, 62
1, 200880, Note_on_c, 0, 40, 64
1, 200880, Note_on_c, 0, 52, 76
1, 201000, Note_on_c, 0, 52, 0
1, 201000, Note_on_c, 0, 40, 0
1, 201000, Note_on_c, 0, 77, 0
1, 201000, Note_on_c, 0, 70, 62
1, 201112, Note_on_c, 0, 70, 0
1, 201120, Tempo, 442804
1, 201120, Note_on_c, 0, 70, 66
1, 201120, Note_on_c, 0, 38, 69
1, 201120, Note_on_c, 0, 50, 81
1, 201166, Control_c, 0, 64, 127
1, 201240, Note_on_c, 0, 70, 0
1, 201240, Note_on_c, 0, 64, 62
1, 201360, Note_on_c, 0, 64, 0
1, 201360, Note_on_c, 0, 65, 62
1, 201480, Note_on_c, 0, 65, 0
1, 201480, Note_on_c, 0, 58, 62
1, 201600, Tempo, 442804
1, 201600, Note_on_c, 0, 58, 0
1, 201600, Note_on_c, 0, 50, 0
1, 201600, Note_on_c, 0, 38, 0
1, 201600, Note_on_c, 0, 85, 72
1, 201600, Control_c, 0, 64, 0
1, 201600, Note_on_c, 0, 39, 70
1, 201600, Note_on_c, 0, 51, 82
1, 201720, Note_on_c, 0, 51, 0
1, 201720, Note_on_c, 0, 39, 0
1, 201720, Note_on_c, 0, 85, 0
1, 201720, Note_on_c, 0, 78, 62
1, 201840, Tempo, 428571
1, 201840, Note_on_c, 0, 78, 0
1, 201840, Note_on_c, 0, 79, 62
1, 201840, Note_on_c, 0, 41, 63
1, 201840, Note_on_c, 0, 53, 76
1, 201960, Note_on_c, 0, 53, 0
1, 201960, Note_on_c, 0, 41, 0
1, 201960, Note_on_c, 0, 79, 0
1, 201960, Note_on_c, 0, 73, 62
1, 202073, Note_on_c, 0, 73, 0
1, 202080, Tempo, 441176
1, 202080, Note_on_c, 0, 73, 69
1, 202080, Note_on_c, 0, 40, 70
1, 202080, Note_on_c, 0, 52, 83
1, 202143, Control_c, 0, 64, 127
1, 202200, Note_on_c, 0, 73, 0
1, 202200, Note_on_c, 0, 66, 63
1, 202320, Note_on_c, 0, 66, 0
1, 202320, Note_on_c, 0, 67, 62
1, 202440, Note_on_c, 0, 67, 0
1, 202440, Note_on_c, 0, 61, 62
1, 202560, Tempo, 433213
1, 202560, Note_on_c, 0, 61, 0
1, 202560, Note_on_c, 0, 52, 0
1, 202560, Note_on_c, 0, 40, 0
1, 202560, Note_on_c, 0, 86, 74
1, 202560, Note_on_c, 0, 40, 71
1, 202560, Note_on_c, 0, 52, 84
1, 202566, Control_c, 0, 64, 0
1, 202680, Note_on_c, 0, 52, 0
1, 202680, Note_on_c, 0, 40, 0
1, 202680, Note_on_c, 0, 86, 0
1, 202680, Note_on_c, 0, 80, 63
1, 202800, Tempo, 416667
1, 202800, Note_on_c, 0, 80, 0
1, 202800, Note_on_c, 0, 81, 63
1, 202800, Note_on_c, 0, 43, 65
1, 202800, Note_on_c, 0, 55, 77
1, 202920, Note_on_c, 0, 55, 0
1, 202920, Note_on_c, 0, 43, 0
1, 202920, Note_on_c, 0, 81, 0
1, 202920, Note_on_c, 0, 74, 63
1, 203033, Note_on_c, 0, 74, 0
1, 203040, Tempo, 446097
1, 203040, Note_on_c, 0, 74, 68
1, 203040, Note_on_c, 0, 41, 71
1, 203040, Note_on_c, 0, 53, 84
1, 203120, Control_c, 0, 64, 127
1, 203160, Note_on_c, 0, 74, 0
1, 203160, Note_on_c, 0, 68, 63
1, 203280, Note_on_c, 0, 68, 0
1, 203280, Note_on_c, 0, 69, 63
1, 203400, Note_on_c, 0, 69, 0
1, 203400, Note_on_c, 0, 62, 63
1, 203520, Tempo, 433213
1, 203520, Note_on_c, 0, 62, 0
1, 203520, Note_on_c, 0, 53, 0
1, 203520, Note_on_c, 0, 41, 0
1, 203520, Note_on_c, 0, 88, 74
1, 203520, Control_c, 0, 64, 0
1, 203520, Note_on_c, 0, 42, 72
1, 203520, Note_on_c, 0, 54, 84
1, 203640, Note_on_c, 0, 54, 0
1, 203640, Note_on_c, 0, 42, 0
1, 203640, Note_on_c, 0, 88, 0
1, 203640, Note_on_c, 0, 82, 64
1, 203760, Tempo, 419580
1, 203760, Note_on_c, 0, 82, 0
1, 203760, Note_on_c, 0, 83, 65
1, 203760, Note_on_c, 0, 45, 66
1, 203760, Note_on_c, 0, 57, 79
1, 203880, Note_on_c, 0, 57, 0
1, 203880, Note_on_c, 0, 45, 0
1, 203880, Note_on_c, 0, 83, 0
1, 203880, Note_on_c, 0, 76, 65
1, 203991, Note_on_c, 0, 76, 0
1, 204000, Tempo, 444444
1, 204000, Note_on_c, 0, 76, 71
1, 204000, Note_on_c, 0, 44, 72
1, 204000, Note_on_c, 0, 56, 85
1, 204063, Control_c, 0, 64, 127
1, 204120, Note_on_c, 0, 76, 0
1, 204120, Note_on_c, 0, 70, 65
1, 204240, Note_on_c, 0, 70, 0
1, 204240, Note_on_c, 0, 71, 64
1, 204360, Note_on_c, 0, 71, 0
1, 204360, Note_on_c, 0, 64, 64
1, 204480, Note_on_c, 0, 64, 0
1, 204480, Note_on_c, 0, 56, 0
1, 204480, Note_on_c, 0, 44, 0
1, 204480, Note_on_c, 0, 89, 76
1, 204480, Note_on_c, 0, 44, 73
1, 204480, Note_on_c, 0, 56, 86
1, 204486, Control_c, 0, 64, 0
1, 204600, Note_on_c, 0, 56, 0
1, 204600, Note_on_c, 0, 44, 0
1, 204600, Note_on_c, 0, 89, 0
1, 204600, Note_on_c, 0, 83, 64
1, 204720, Tempo, 431655
1, 204720, Note_on_c, 0, 83, 0
1, 204720, Note_on_c, 0, 84, 64
1, 204720, Note_on_c, 0, 47, 66
1, 204720, Note_on_c, 0, 59, 79
1, 204840, Note_on_c, 0, 59, 0
1, 204840, Note_on_c, 0, 47, 0
1, 204840, Note_on_c, 0, 84, 0
1, 204840, Note_on_c, 0, 77, 64
1, 204949, Note_on_c, 0, 77, 0
1, 204960, Tempo, 446097
1, 204960, Note_on_c, 0, 77, 70
1, 204960, Note_on_c, 0, 45, 74
1, 204960, Note_on_c, 0, 57, 87
1, 205040, Control_c, 0, 64, 127
1, 205080, Note_on_c, 0, 77, 0
1, 205080, Note_on_c, 0, 71, 65
1, 205200, Tempo, 497925
1, 205200, Note_on_c, 0, 71, 0
1, 205200, Note_on_c, 0, 72, 65
1, 205320, Note_on_c, 0, 72, 0
1, 205320, Note_on_c, 0, 65, 65
1, 205400, Tempo, 410959
1, 205440, Note_on_c, 0, 65, 0
1, 205440, Note_on_c, 0, 57, 0
1, 205440, Note_on_c, 0, 45, 0
1, 205440, Note_on_c, 0, 80, 81
1, 205440, Note_on_c, 0, 92, 88
1, 205440, Note_on_c, 0, 58, 77
1, 205440, Note_on_c, 0, 62, 77
1, 205440, Control_c, 0, 64, 0
1, 205440, Note_on_c, 0, 65, 77
1, 205440, Note_on_c, 0, 68, 92
1, 205680, Tempo, 412371
1, 205680, Note_on_c, 0, 92, 0
1, 205680, Note_on_c, 0, 80, 0
1, 205680, Note_on_c, 0, 91, 81
1, 205800, Note_on_c, 0, 91, 0
1, 205800, Note_on_c, 0, 89, 80
1, 205920, Note_on_c, 0, 89, 0
1, 205920, Note_on_c, 0, 87, 79
1, 205960, Tempo, 413793
1, 206040, Note_on_c, 0, 87, 0
1, 206040, Note_on_c, 0, 86, 78
1, 206160, Note_on_c, 0, 86, 0
1, 206160, Note_on_c, 0, 84, 77
1, 206240, Tempo, 415225
1, 206280, Note_on_c, 0, 84, 0
1, 206280, Note_on_c, 0, 82, 76
1, 206399, Note_on_c, 0, 68, 0
1, 206400, Note_on_c, 0, 58, 0
1, 206400, Note_on_c, 0, 62, 0
1, 206400, Note_on_c, 0, 65, 0
1, 206400, Note_on_c, 0, 82, 0
1, 206400, Note_on_c, 0, 80, 75
1, 206520, Tempo, 416667
1, 206520, Note_on_c, 0, 80, 0
1, 206520, Note_on_c, 0, 79, 74
1, 206640, Note_on_c, 0, 79, 0
1, 206640, Note_on_c, 0, 77, 73
1, 206760, Note_on_c, 0, 77, 0
1, 206760, Note_on_c, 0, 75, 72
1, 206800, Tempo, 418118
1, 206880, Note_on_c, 0, 75, 0
1, 206880, Note_on_c, 0, 74, 72
1, 207000, Note_on_c, 0, 74, 0
1, 207000, Note_on_c, 0, 72, 71
1, 207080, Tempo, 419580
1, 207120, Note_on_c, 0, 72, 0
1, 207120, Note_on_c, 0, 70, 70
1, 207240, Note_on_c, 0, 70, 0
1, 207240, Note_on_c, 0, 69, 69
1, 207360, Tempo, 421053
1, 207360, Note_on_c, 0, 69, 0
1, 207360, Note_on_c, 0, 68, 68
1, 207480, Note_on_c, 0, 68, 0
1, 207480, Note_on_c, 0, 67, 66
1, 207520, Tempo, 422535
1, 207600, Note_on_c, 0, 67, 0
1, 207600, Note_on_c, 0, 65, 65
1, 207680, Tempo, 424028
1, 207720, Note_on_c, 0, 65, 0
1, 207720, Note_on_c, 0, 63, 64
1, 207840, Tempo, 425532
1, 207840, Note_on_c, 0, 63, 0
1, 207840, Note_on_c, 0, 62, 63
1, 207960, Note_on_c, 0, 62, 0
1, 207960, Note_on_c, 0, 60, 62
1, 208000, Tempo, 427046
1, 208080, Note_on_c, 0, 60, 0
1, 208080, Note_on_c, 0, 58, 61
1, 208160, Tempo, 428571
1, 208200, Note_on_c, 0, 58, 0
1, 208200, Note_on_c, 0, 56, 60
1, 208320, Tempo, 430108
1, 208320, Note_on_c, 0, 56, 0
1, 208320, Note_on_c, 0, 57, 59
1, 208440, Note_on_c, 0, 57, 0
1, 208440, Note_on_c, 0, 58, 59
1, 208480, Tempo, 431655
1, 208560, Note_on_c, 0, 58, 0
1, 208560, Note_on_c, 0, 60, 58
1, 208640, Tempo, 433213
1, 208680, Note_on_c, 0, 60, 0
1, 208680, Note_on_c, 0, 58, 57
1, 208800, Tempo, 434783
1, 208800, Note_on_c, 0, 58, 0
1, 208800, Note_on_c, 0, 57, 56
1, 208920, Note_on_c, 0, 57, 0
1, 208920, Note_on_c, 0, 58, 55
1, 208960, Tempo, 436364
1, 209040, Note_on_c, 0, 58, 0
1, 209040, Note_on_c, 0, 60, 54
1, 209120, Tempo, 437956
1, 209160, Note_on_c, 0, 60, 0
1, 209160, Note_on_c, 0, 58, 53
1, 209280, Tempo, 439560
1, 209280, Note_on_c, 0, 58, 0
1, 209280, Note_on_c, 0, 57, 53
1, 209360, Tempo, 441176
1, 209400, Tempo, 442804
1, 209440, Note_on_c, 0, 57, 0
1, 209440, Note_on_c, 0, 60, 46
1, 209480, Tempo, 444444
1, 209520, Tempo, 446097
1, 209560, Tempo, 447761
1, 209600, Note_on_c, 0, 60, 0
1, 209600, Note_on_c, 0, 58, 46
1, 209640, Tempo, 449438
1, 209680, Tempo, 451128
1, 209720, Tempo, 452830
1, 209760, Note_on_c, 0, 58, 0
1, 209760, Note_on_c, 0, 57, 51
1, 209800, Tempo, 454545
1, 209840, Tempo, 456274
1, 209880, Tempo, 458015
1, 209920, Note_on_c, 0, 57, 0
1, 209920, Note_on_c, 0, 60, 45
1, 209960, Tempo, 459770
1, 210000, Tempo, 461538
1, 210040, Tempo, 463320
1, 210080, Note_on_c, 0, 60, 0
1, 210080, Note_on_c, 0, 58, 45
1, 210120, Tempo, 465116
1, 210160, Tempo, 466926
1, 210200, Tempo, 468750
1, 210240, Tempo, 472441
1, 210240, Note_on_c, 0, 58, 0
1, 210240, Note_on_c, 0, 57, 53
1, 210280, Tempo, 476190
1, 210320, Tempo, 481928
1, 210360, Tempo, 487805
1, 210400, Tempo, 493827
1, 210400, Note_on_c, 0, 57, 0
1, 210400, Note_on_c, 0, 60, 42
1, 210440, Tempo, 500000
1, 210480, Tempo, 506329
1, 210520, Tempo, 512821
1, 210560, Tempo, 519481
1, 210560, Note_on_c, 0, 60, 0
1, 210560, Note_on_c, 0, 58, 42
1, 210600, Tempo, 526316
1, 210640, Tempo, 533333
1, 210680, Tempo, 540541
1, 210720, Tempo, 545455
1, 210720, Note_on_c, 0, 58, 0
1, 210720, Note_on_c, 0, 57, 49
1, 210760, Tempo, 552995
1, 210800, Tempo, 560748
1, 210840, Tempo, 568720
1, 210880, Tempo, 576923
1, 210880, Note_on_c, 0, 57, 0
1, 210880, Note_on_c, 0, 60, 38
1, 210920, Tempo, 585366
1, 210960, Tempo, 585366
1, 211000, Tempo, 631579
1, 211040, Tempo, 689655
1, 211040, Note_on_c, 0, 60, 0
1, 211040, Note_on_c, 0, 58, 38
1, 211080, Tempo, 754717
1, 211120, Tempo, 839161
1, 211160, Tempo, 944882
1, 211200, Tempo, 600000
1, 211200, Note_on_c, 0, 58, 0
1, 211200, Note_on_c, 0, 57, 36
1, 211200, Note_on_c, 0, 69, 44
1, 211440, Tempo, 582524
1, 211440, Note_on_c, 0, 69, 0
1, 211440, Note_on_c, 0, 57, 0
1, 211440, Note_on_c, 0, 60, 30
1, 211440, Note_on_c, 0, 72, 36
1, 211680, Note_on_c, 0, 72, 0
1, 211680, Note_on_c, 0, 60, 0
1, 211680, Note_on_c, 0, 58, 30
1, 211680, Note_on_c, 0, 70, 36
1, 211920, Tempo, 600000
1, 212160, Tempo, 582524
1, 212160, Note_on_c, 0, 70, 0
1, 212160, Note_on_c, 0, 58, 0
1, 212160, Note_on_c, 0, 57, 35
1, 212160, Note_on_c, 0, 69, 42
1, 212400, Note_on_c, 0, 69, 0
1, 212400, Note_on_c, 0, 57, 0
1, 212400, Note_on_c, 0, 60, 29
1, 212400, Note_on_c, 0, 72, 35
1, 212640, Note_on_c, 0, 72, 0
1, 212640, Note_on_c, 0, 60, 0
1, 212640, Note_on_c, 0, 58, 29
1, 212640, Note_on_c, 0, 70, 35
1, 212880, Tempo, 625000
1, 213120, Tempo, 609137
1, 213120, Note_on_c, 0, 70, 0
1, 213120, Note_on_c, 0, 58, 0
1, 213120, Note_on_c, 0, 69, 44
1, 213120, Control_c, 0, 64, 127
1, 213120, Note_on_c, 0, 51, 36
1, 213240, Note_on_c, 0, 51, 0
1, 213240, Note_on_c, 0, 58, 30
1, 213360, Tempo, 588235
1, 213360, Note_on_c, 0, 58, 0
1, 213360, Note_on_c, 0, 69, 0
1, 213360, Note_on_c, 0, 72, 39
1, 213360, Note_on_c, 0, 55, 31
1, 213480, Note_on_c, 0, 55, 0
1, 213480, Note_on_c, 0, 58, 31
1, 213600, Tempo, 571429
1, 213600, Note_on_c, 0, 58, 0
1, 213600, Note_on_c, 0, 72, 0
1, 213600, Note_on_c, 0, 70, 50
1, 213600, Note_on_c, 0, 63, 36
1, 213720, Note_on_c, 0, 63, 0
1, 213720, Note_on_c, 0, 58, 31
1, 213840, Note_on_c, 0, 58, 0
1, 213840, Note_on_c, 0, 55, 31
1, 213960, Note_on_c, 0, 55, 0
1, 213960, Note_on_c, 0, 58, 31
1, 214080, Note_on_c, 0, 58, 0
1, 214080, Note_on_c, 0, 51, 36
1, 214084, Control_c, 0, 64, 0
1, 214137, Control_c, 0, 64, 127
1, 214200, Note_on_c, 0, 51, 0
1, 214200, Note_on_c, 0, 58, 31
1, 214320, Tempo, 560748
1, 214320, Note_on_c, 0, 58, 0
1, 214320, Note_on_c, 0, 70, 0
1, 214320, Note_on_c, 0, 72, 46
1, 214320, Note_on_c, 0, 55, 31
1, 214440, Note_on_c, 0, 55, 0
1, 214440, Note_on_c, 0, 58, 32
1, 214560, Note_on_c, 0, 58, 0
1, 214560, Note_on_c, 0, 72, 0
1, 214560, Note_on_c, 0, 74, 48
1, 214560, Note_on_c, 0, 63, 36
1, 214680, Note_on_c, 0, 63, 0
1, 214680, Note_on_c, 0, 58, 31
1, 214800, Tempo, 591133
1, 214800, Note_on_c, 0, 58, 0
1, 214800, Note_on_c, 0, 74, 0
1, 214800, Note_on_c, 0, 75, 50
1, 214800, Note_on_c, 0, 55, 31
1, 214920, Note_on_c, 0, 55, 0
1, 214920, Note_on_c, 0, 58, 31
1, 215040, Tempo, 588235
1, 215040, Note_on_c, 0, 58, 0
1, 215040, Note_on_c, 0, 75, 0
1, 215040, Note_on_c, 0, 69, 52
1, 215040, Note_on_c, 0, 51, 36
1, 215046, Control_c, 0, 64, 0
1, 215103, Control_c, 0, 64, 127
1, 215160, Note_on_c, 0, 51, 0
1, 215160, Note_on_c, 0, 58, 30
1, 215280, Tempo, 568720
1, 215280, Note_on_c, 0, 58, 0
1, 215280, Note_on_c, 0, 69, 0
1, 215280, Note_on_c, 0, 72, 49
1, 215280, Note_on_c, 0, 55, 31
1, 215400, Note_on_c, 0, 55, 0
1, 215400, Note_on_c, 0, 58, 31
1, 215520, Note_on_c, 0, 58, 0
1, 215520, Note_on_c, 0, 72, 0
1, 215520, Note_on_c, 0, 70, 53
1, 215520, Note_on_c, 0, 63, 36
1, 215640, Note_on_c, 0, 63, 0
1, 215640, Note_on_c, 0, 58, 31
1, 215760, Note_on_c, 0, 58, 0
1, 215760, Note_on_c, 0, 55, 31
1, 215880, Note_on_c, 0, 55, 0
1, 215880, Note_on_c, 0, 58, 31
1, 216000, Note_on_c, 0, 58, 0
1, 216000, Note_on_c, 0, 51, 36
1, 216005, Control_c, 0, 64, 0
1, 216057, Control_c, 0, 64, 127
1, 216120, Note_on_c, 0, 51, 0
1, 216120, Note_on_c, 0, 58, 31
1, 216240, Tempo, 560748
1, 216240, Note_on_c, 0, 58, 0
1, 216240, Note_on_c, 0, 70, 0
1, 216240, Note_on_c, 0, 72, 47
1, 216240, Note_on_c, 0, 55, 31
1, 216360, Note_on_c, 0, 55, 0
1, 216360, Note_on_c, 0, 58, 32
1, 216480, Note_on_c, 0, 58, 0
1, 216480, Note_on_c, 0, 72, 0
1, 216480, Note_on_c, 0, 74, 49
1, 216480, Note_on_c, 0, 63, 36
1, 216600, Note_on_c, 0, 63, 0
1, 216600, Note_on_c, 0, 58, 31
1, 216720, Tempo, 591133
1, 216720, Note_on_c, 0, 58, 0
1, 216720, Note_on_c, 0, 74, 0
1, 216720, Note_on_c, 0, 75, 52
1, 216720, Note_on_c, 0, 55, 31
1, 216840, Note_on_c, 0, 55, 0
1, 216840, Note_on_c, 0, 58, 31
1, 216960, Tempo, 612245
1, 216960, Note_on_c, 0, 58, 0
1, 216960, Note_on_c, 0, 75, 0
1, 216960, Note_on_c, 0, 76, 57
1, 216960, Control_c, 0, 64, 0
1, 216960, Note_on_c, 0, 46, 40
1, 216970, Control_c, 0, 64, 0
1, 217023, Control_c, 0, 64, 127
1, 217080, Note_on_c, 0, 46, 0
1, 217080, Note_on_c, 0, 58, 33
1, 217200, Tempo, 568720
1, 217200, Note_on_c, 0, 58, 0
1, 217200, Note_on_c, 0, 76, 0
1, 217200, Note_on_c, 0, 79, 55
1, 217200, Note_on_c, 0, 56, 34
1, 217320, Note_on_c, 0, 56, 0
1, 217320, Note_on_c, 0, 58, 34
1, 217440, Note_on_c, 0, 58, 0
1, 217440, Note_on_c, 0, 79, 0
1, 217440, Note_on_c, 0, 77, 58
1, 217440, Note_on_c, 0, 62, 40
1, 217560, Note_on_c, 0, 62, 0
1, 217560, Note_on_c, 0, 58, 34
1, 217680, Note_on_c, 0, 58, 0
1, 217680, Note_on_c, 0, 56, 34
1, 217800, Note_on_c, 0, 56, 0
1, 217800, Note_on_c, 0, 58, 34
1, 217920, Note_on_c, 0, 58, 0
1, 217920, Control_c, 0, 64, 0
1, 217920, Note_on_c, 0, 46, 40
1, 217977, Control_c, 0, 64, 127
1, 218040, Note_on_c, 0, 46, 0
1, 218040, Note_on_c, 0, 58, 34
1, 218160, Tempo, 560748
1, 218160, Note_on_c, 0, 58, 0
1, 218160, Note_on_c, 0, 77, 0
1, 218160, Note_on_c, 0, 74, 55
1, 218160, Note_on_c, 0, 56, 34
1, 218280, Note_on_c, 0, 56, 0
1, 218280, Note_on_c, 0, 58, 35
1, 218400, Note_on_c, 0, 58, 0
1, 218400, Note_on_c, 0, 74, 0
1, 218400, Note_on_c, 0, 72, 53
1, 218400, Note_on_c, 0, 62, 40
1, 218520, Note_on_c, 0, 62, 0
1, 218520, Note_on_c, 0, 58, 34
1, 218640, Tempo, 591133
1, 218640, Note_on_c, 0, 58, 0
1, 218640, Note_on_c, 0, 72, 0
1, 218640, Note_on_c, 0, 70, 53
1, 218640, Note_on_c, 0, 56, 34
1, 218760, Note_on_c, 0, 56, 0
1, 218760, Note_on_c, 0, 58, 34
1, 218880, Tempo, 588235
1, 218880, Note_on_c, 0, 58, 0
1, 218880, Note_on_c, 0, 70, 0
1, 218880, Note_on_c, 0, 76, 57
1, 218880, Control_c, 0, 64, 0
1, 218880, Note_on_c, 0, 46, 40
1, 218890, Control_c, 0, 64, 0
1, 218943, Control_c, 0, 64, 127
1, 219000, Note_on_c, 0, 46, 0
1, 219000, Note_on_c, 0, 58, 33
1, 219120, Tempo, 568720
1, 219120, Note_on_c, 0, 58, 0
1, 219120, Note_on_c, 0, 76, 0
1, 219120, Note_on_c, 0, 79, 53
1, 219120, Note_on_c, 0, 56, 34
1, 219240, Note_on_c, 0, 56, 0
1, 219240, Note_on_c, 0, 58, 34
1, 219360, Note_on_c, 0, 58, 0
1, 219360, Note_on_c, 0, 79, 0
1, 219360, Note_on_c, 0, 77, 58
1, 219360, Note_on_c, 0, 62, 40
1, 219480, Note_on_c, 0, 62, 0
1, 219480, Note_on_c, 0, 58, 34
1, 219600, Note_on_c, 0, 58, 0
1, 219600, Note_on_c, 0, 56, 34
1, 219720, Note_on_c, 0, 56, 0
1, 219720, Note_on_c, 0, 58, 34
1, 219840, Note_on_c, 0, 58, 0
1, 219840, Note_on_c, 0, 46, 40
1, 219850, Control_c, 0, 64, 0
1, 219897, Control_c, 0, 64, 127
1, 219960, Note_on_c, 0, 46, 0
1, 219960, Note_on_c, 0, 58, 34
1, 220080, Tempo, 560748
1, 220080, Note_on_c, 0, 58, 0
1, 220080, Note_on_c, 0, 77, 0
1, 220080, Note_on_c, 0, 74, 55
1, 220080, Note_on_c, 0, 56, 34
1, 220200, Note_on_c, 0, 56, 0
1, 220200, Note_on_c, 0, 58, 35
1, 220320, Tempo, 552995
1, 220320, Note_on_c, 0, 58, 0
1, 220320, Note_on_c, 0, 74, 0
1, 220320, Note_on_c, 0, 72, 53
1, 220320, Note_on_c, 0, 62, 40
1, 220440, Note_on_c, 0, 62, 0
1, 220440, Note_on_c, 0, 58, 34
1, 220560, Tempo, 591133
1, 220560, Note_on_c, 0, 58, 0
1, 220560, Note_on_c, 0, 72, 0
1, 220560, Note_on_c, 0, 70, 53
1, 220560, Note_on_c, 0, 56, 34
1, 220680, Note_on_c, 0, 56, 0
1, 220680, Note_on_c, 0, 58, 34
1, 220800, Tempo, 612245
1, 220800, Note_on_c, 0, 58, 0
1, 220800, Note_on_c, 0, 70, 0
1, 220800, Note_on_c, 0, 81, 55
1, 220800, Note_on_c, 0, 69, 46
1, 220800, Note_on_c, 0, 51, 40
1, 220808, Control_c, 0, 64, 0
1, 220857, Control_c, 0, 64, 127
1, 220920, Note_on_c, 0, 51, 0
1, 220920, Note_on_c, 0, 58, 33
1, 221040, Tempo, 568720
1, 221040, Note_on_c, 0, 58, 0
1, 221040, Note_on_c, 0, 69, 0
1, 221040, Note_on_c, 0, 81, 0
1, 221040, Note_on_c, 0, 84, 51
1, 221040, Note_on_c, 0, 72, 42
1, 221040, Note_on_c, 0, 55, 34
1, 221160, Note_on_c, 0, 55, 0
1, 221160, Note_on_c, 0, 58, 34
1, 221280, Note_on_c, 0, 58, 0
1, 221280, Note_on_c, 0, 72, 0
1, 221280, Note_on_c, 0, 84, 0
1, 221280, Note_on_c, 0, 82, 58
1, 221280, Note_on_c, 0, 70, 49
1, 221280, Note_on_c, 0, 63, 40
1, 221400, Note_on_c, 0, 63, 0
1, 221400, Note_on_c, 0, 58, 34
1, 221520, Note_on_c, 0, 58, 0
1, 221520, Note_on_c, 0, 55, 34
1, 221640, Note_on_c, 0, 55, 0
1, 221640, Note_on_c, 0, 58, 34
1, 221760, Note_on_c, 0, 58, 0
1, 221760, Note_on_c, 0, 51, 40
1, 221769, Control_c, 0, 64, 0
1, 221817, Control_c, 0, 64, 127
1, 221880, Note_on_c, 0, 51, 0
1, 221880, Note_on_c, 0, 58, 34
1, 222000, Tempo, 560748
1, 222000, Note_on_c, 0, 58, 0
1, 222000, Note_on_c, 0, 70, 0
1, 222000, Note_on_c, 0, 82, 0
1, 222000, Note_on_c, 0, 84, 50
1, 222000, Note_on_c, 0, 72, 42
1, 222000, Note_on_c, 0, 55, 34
1, 222120, Note_on_c, 0, 55, 0
1, 222120, Note_on_c, 0, 58, 35
1, 222240, Note_on_c, 0, 58, 0
1, 222240, Note_on_c, 0, 72, 0
1, 222240, Note_on_c, 0, 84, 0
1, 222240, Note_on_c, 0, 86, 52
1, 222240, Note_on_c, 0, 74, 44
1, 222240, Note_on_c, 0, 63, 40
1, 222360, Note_on_c, 0, 63, 0
1, 222360, Note_on_c, 0, 58, 34
1, 222480, Tempo, 591133
1, 222480, Note_on_c, 0, 58, 0
1, 222480, Note_on_c, 0, 74, 0
1, 222480, Note_on_c, 0, 86, 0
1, 222480, Note_on_c, 0, 87, 55
1, 222480, Note_on_c, 0, 75, 46
1, 222480, Note_on_c, 0, 55, 34
1, 222600, Note_on_c, 0, 55, 0
1, 222600, Note_on_c, 0, 58, 34
1, 222720, Tempo, 588235
1, 222720, Note_on_c, 0, 58, 0
1, 222720, Note_on_c, 0, 75, 0
1, 222720, Note_on_c, 0, 87, 0
1, 222720, Note_on_c, 0, 81, 57
1, 222720, Note_on_c, 0, 69, 48
1, 222720, Note_on_c, 0, 51, 40
1, 222729, Control_c, 0, 64, 0
1, 222783, Control_c, 0, 64, 127
1, 222840, Note_on_c, 0, 51, 0
1, 222840, Note_on_c, 0, 58, 33
1, 222960, Tempo, 568720
1, 222960, Note_on_c, 0, 58, 0
1, 222960, Note_on_c, 0, 69, 0
1, 222960, Note_on_c, 0, 81, 0
1, 222960, Note_on_c, 0, 84, 53
1, 222960, Note_on_c, 0, 72, 45
1, 222960, Note_on_c, 0, 55, 34
1, 223080, Note_on_c, 0, 55, 0
1, 223080, Note_on_c, 0, 58, 34
1, 223200, Note_on_c, 0, 58, 0
1, 223200, Note_on_c, 0, 72, 0
1, 223200, Note_on_c, 0, 84, 0
1, 223200, Note_on_c, 0, 82, 58
1, 223200, Note_on_c, 0, 70, 49
1, 223200, Note_on_c, 0, 63, 40
1, 223320, Note_on_c, 0, 63, 0
1, 223320, Note_on_c, 0, 58, 34
1, 223440, Note_on_c, 0, 58, 0
1, 223440, Note_on_c, 0, 55, 34
1, 223560, Note_on_c, 0, 55, 0
1, 223560, Note_on_c, 0, 58, 34
1, 223680, Tempo, 585366
1, 223680, Note_on_c, 0, 58, 0
1, 223680, Note_on_c, 0, 51, 40
1, 223687, Control_c, 0, 64, 0
1, 223737, Control_c, 0, 64, 127
1, 223800, Note_on_c, 0, 51, 0
1, 223800, Note_on_c, 0, 58, 34
1, 223920, Tempo, 560748
1, 223920, Note_on_c, 0, 58, 0
1, 223920, Note_on_c, 0, 70, 0
1, 223920, Note_on_c, 0, 82, 0
1, 223920, Note_on_c, 0, 84, 51
1, 223920, Note_on_c, 0, 72, 42
1, 223920, Note_on_c, 0, 55, 34
1, 224040, Note_on_c, 0, 55, 0
1, 224040, Note_on_c, 0, 58, 35
1, 224160, Tempo, 552995
1, 224160, Note_on_c, 0, 58, 0
1, 224160, Note_on_c, 0, 72, 0
1, 224160, Note_on_c, 0, 84, 0
1, 224160, Note_on_c, 0, 86, 53
1, 224160, Note_on_c, 0, 74, 45
1, 224160, Note_on_c, 0, 63, 40
1, 224280, Note_on_c, 0, 63, 0
1, 224280, Note_on_c, 0, 58, 34
1, 224400, Tempo, 591133
1, 224400, Note_on_c, 0, 58, 0
1, 224400, Note_on_c, 0, 74, 0
1, 224400, Note_on_c, 0, 86, 0
1, 224400, Note_on_c, 0, 87, 57
1, 224400, Note_on_c, 0, 75, 48
1, 224400, Note_on_c, 0, 55, 34
1, 224520, Note_on_c, 0, 55, 0
1, 224520, Note_on_c, 0, 58, 34
1, 224640, Tempo, 588235
1, 224640, Note_on_c, 0, 58, 0
1, 224640, Note_on_c, 0, 75, 0
1, 224640, Note_on_c, 0, 87, 0
1, 224640, Note_on_c, 0, 88, 62
1, 224640, Note_on_c, 0, 76, 52
1, 224640, Control_c, 0, 64, 0
1, 224640, Note_on_c, 0, 46, 44
1, 224649, Control_c, 0, 64, 0
1, 224703, Control_c, 0, 64, 127
1, 224760, Note_on_c, 0, 46, 0
1, 224760, Note_on_c, 0, 58, 36
1, 224880, Tempo, 568720
1, 224880, Note_on_c, 0, 58, 0
1, 224880, Note_on_c, 0, 76, 0
1, 224880, Note_on_c, 0, 88, 0
1, 224880, Note_on_c, 0, 91, 56
1, 224880, Note_on_c, 0, 79, 47
1, 224880, Note_on_c, 0, 56, 36
1, 225000, Note_on_c, 0, 56, 0
1, 225000, Note_on_c, 0, 58, 36
1, 225120, Note_on_c, 0, 58, 0
1, 225120, Note_on_c, 0, 79, 0
1, 225120, Note_on_c, 0, 91, 0
1, 225120, Note_on_c, 0, 89, 61
1, 225120, Note_on_c, 0, 77, 51
1, 225120, Note_on_c, 0, 62, 44
1, 225240, Note_on_c, 0, 62, 0
1, 225240, Note_on_c, 0, 58, 36
1, 225360, Note_on_c, 0, 58, 0
1, 225360, Note_on_c, 0, 56, 36
1, 225480, Note_on_c, 0, 56, 0
1, 225480, Note_on_c, 0, 58, 36
1, 225600, Note_on_c, 0, 58, 0
1, 225600, Note_on_c, 0, 46, 44
1, 225607, Control_c, 0, 64, 0
1, 225657, Control_c, 0, 64, 127
1, 225720, Note_on_c, 0, 46, 0
1, 225720, Note_on_c, 0, 58, 36
1, 225840, Tempo, 560748
1, 225840, Note_on_c, 0, 58, 0
1, 225840, Note_on_c, 0, 77, 0
1, 225840, Note_on_c, 0, 89, 0
1, 225840, Note_on_c, 0, 86, 60
1, 225840, Note_on_c, 0, 74, 50
1, 225840, Note_on_c, 0, 56, 36
1, 225960, Note_on_c, 0, 56, 0
1, 225960, Note_on_c, 0, 58, 37
1, 226080, Note_on_c, 0, 58, 0
1, 226080, Note_on_c, 0, 74, 0
1, 226080, Note_on_c, 0, 86, 0
1, 226080, Note_on_c, 0, 84, 58
1, 226080, Note_on_c, 0, 72, 49
1, 226080, Note_on_c, 0, 62, 44
1, 226200, Note_on_c, 0, 62, 0
1, 226200, Note_on_c, 0, 58, 36
1, 226320, Tempo, 618557
1, 226320, Note_on_c, 0, 58, 0
1, 226320, Note_on_c, 0, 72, 0
1, 226320, Note_on_c, 0, 84, 0
1, 226320, Note_on_c, 0, 82, 58
1, 226320, Note_on_c, 0, 70, 49
1, 226320, Note_on_c, 0, 56, 36
1, 226440, Note_on_c, 0, 56, 0
1, 226440, Note_on_c, 0, 58, 36
1, 226560, Tempo, 588235
1, 226560, Note_on_c, 0, 58, 0
1, 226560, Note_on_c, 0, 70, 0
1, 226560, Note_on_c, 0, 82, 0
1, 226560, Note_on_c, 0, 88, 62
1, 226560, Note_on_c, 0, 76, 52
1, 226560, Control_c, 0, 64, 0
1, 226560, Note_on_c, 0, 46, 44
1, 226570, Control_c, 0, 64, 0
1, 226623, Control_c, 0, 64, 127
1, 226680, Note_on_c, 0, 46, 0
1, 226680, Note_on_c, 0, 58, 36
1, 226800, Tempo, 568720
1, 226800, Note_on_c, 0, 58, 0
1, 226800, Note_on_c, 0, 76, 0
1, 226800, Note_on_c, 0, 88, 0
1, 226800, Note_on_c, 0, 91, 57
1, 226800, Note_on_c, 0, 79, 48
1, 226800, Note_on_c, 0, 56, 36
1, 226920, Note_on_c, 0, 56, 0
1, 226920, Note_on_c, 0, 58, 36
1, 227040, Note_on_c, 0, 58, 0
1, 227040, Note_on_c, 0, 79, 0
1, 227040, Note_on_c, 0, 91, 0
1, 227040, Note_on_c, 0, 89, 62
1, 227040, Note_on_c, 0, 77, 52
1, 227040, Note_on_c, 0, 62, 44
1, 227160, Note_on_c, 0, 62, 0
1, 227160, Note_on_c, 0, 58, 36
1, 227280, Note_on_c, 0, 58, 0
1, 227280, Note_on_c, 0, 56, 36
1, 227400, Note_on_c, 0, 56, 0
1, 227400, Note_on_c, 0, 58, 36
1, 227520, Note_on_c, 0, 58, 0
1, 227520, Note_on_c, 0, 46, 44
1, 227530, Control_c, 0, 64, 0
1, 227577, Control_c, 0, 64, 127
1, 227640, Note_on_c, 0, 46, 0
1, 227640, Note_on_c, 0, 58, 36
1, 227760, Tempo, 560748
1, 227760, Note_on_c, 0, 58, 0
1, 227760, Note_on_c, 0, 77, 0
1, 227760, Note_on_c, 0, 89, 0
1, 227760, Note_on_c, 0, 86, 60
1, 227760, Note_on_c, 0, 74, 50
1, 227760, Note_on_c, 0, 56, 36
1, 227880, Note_on_c, 0, 56, 0
1, 227880, Note_on_c, 0, 58, 37
1, 228000, Note_on_c, 0, 58, 0
1, 228000, Note_on_c, 0, 74, 0
1, 228000, Note_on_c, 0, 86, 0
1, 228000, Note_on_c, 0, 84, 58
1, 228000, Note_on_c, 0, 72, 49
1, 228000, Note_on_c, 0, 62, 44
1, 228120, Note_on_c, 0, 62, 0
1, 228120, Note_on_c, 0, 58, 36
1, 228240, Tempo, 591133
1, 228240, Note_on_c, 0, 58, 0
1, 228240, Note_on_c, 0, 72, 0
1, 228240, Note_on_c, 0, 84, 0
1, 228240, Note_on_c, 0, 82, 58
1, 228240, Note_on_c, 0, 70, 49
1, 228240, Note_on_c, 0, 56, 36
1, 228360, Note_on_c, 0, 56, 0
1, 228360, Note_on_c, 0, 58, 36
1, 228480, Tempo, 631579
1, 228480, Note_on_c, 0, 58, 0
1, 228480, Note_on_c, 0, 70, 0
1, 228480, Note_on_c, 0, 82, 0
1, 228480, Note_on_c, 0, 82, 62
1, 228480, Note_on_c, 0, 70, 52
1, 228480, Control_c, 0, 64, 0
1, 228480, Note_on_c, 0, 51, 44
1, 228488, Control_c, 0, 64, 0
1, 228543, Control_c, 0, 64, 127
1, 228600, Note_on_c, 0, 51, 0
1, 228600, Note_on_c, 0, 58, 36
1, 228720, Tempo, 568720
1, 228720, Note_on_c, 0, 58, 0
1, 228720, Note_on_c, 0, 70, 0
1, 228720, Note_on_c, 0, 82, 0
1, 228720, Note_on_c, 0, 92, 57
1, 228720, Note_on_c, 0, 80, 48
1, 228720, Note_on_c, 0, 55, 36
1, 228840, Note_on_c, 0, 55, 0
1, 228840, Note_on_c, 0, 58, 36
1, 228960, Note_on_c, 0, 58, 0
1, 228960, Note_on_c, 0, 80, 0
1, 228960, Note_on_c, 0, 92, 0
1, 228960, Note_on_c, 0, 91, 62
1, 228960, Note_on_c, 0, 79, 52
1, 228960, Note_on_c, 0, 63, 44
1, 229080, Note_on_c, 0, 63, 0
1, 229080, Note_on_c, 0, 58, 36
1, 229200, Note_on_c, 0, 58, 0
1, 229200, Note_on_c, 0, 55, 36
1, 229320, Note_on_c, 0, 55, 0
1, 229320, Note_on_c, 0, 58, 36
1, 229440, Tempo, 585366
1, 229440, Note_on_c, 0, 58, 0
1, 229440, Note_on_c, 0, 43, 44
1, 229449, Control_c, 0, 64, 0
1, 229497, Control_c, 0, 64, 127
1, 229560, Note_on_c, 0, 43, 0
1, 229560, Note_on_c, 0, 59, 36
1, 229680, Tempo, 560748
1, 229680, Note_on_c, 0, 59, 0
1, 229680, Note_on_c, 0, 79, 0
1, 229680, Note_on_c, 0, 91, 0
1, 229680, Note_on_c, 0, 89, 60
1, 229680, Note_on_c, 0, 77, 50
1, 229680, Note_on_c, 0, 55, 36
1, 229800, Note_on_c, 0, 55, 0
1, 229800, Note_on_c, 0, 59, 37
1, 229920, Note_on_c, 0, 59, 0
1, 229920, Note_on_c, 0, 77, 0
1, 229920, Note_on_c, 0, 89, 0
1, 229920, Note_on_c, 0, 86, 58
1, 229920, Note_on_c, 0, 74, 49
1, 229920, Note_on_c, 0, 65, 44
1, 230040, Note_on_c, 0, 65, 0
1, 230040, Note_on_c, 0, 59, 36
1, 230160, Tempo, 591133
1, 230160, Note_on_c, 0, 59, 0
1, 230160, Note_on_c, 0, 74, 0
1, 230160, Note_on_c, 0, 86, 0
1, 230160, Note_on_c, 0, 83, 58
1, 230160, Note_on_c, 0, 71, 49
1, 230160, Note_on_c, 0, 55, 36
1, 230280, Note_on_c, 0, 55, 0
1, 230280, Note_on_c, 0, 59, 36
1, 230400, Tempo, 600000
1, 230400, Note_on_c, 0, 59, 0
1, 230400, Note_on_c, 0, 71, 0
1, 230400, Note_on_c, 0, 83, 0
1, 230400, Note_on_c, 0, 79, 62
1, 230400, Note_on_c, 0, 67, 52
1, 230400, Control_c, 0, 64, 0
1, 230400, Note_on_c, 0, 48, 44
1, 230409, Control_c, 0, 64, 0
1, 230463, Control_c, 0, 64, 127
1, 230520, Note_on_c, 0, 48, 0
1, 230520, Note_on_c, 0, 55, 36
1, 230640, Tempo, 568720
1, 230640, Note_on_c, 0, 55, 0
1, 230640, Note_on_c, 0, 67, 0
1, 230640, Note_on_c, 0, 79, 0
1, 230640, Note_on_c, 0, 89, 57
1, 230640, Note_on_c, 0, 77, 48
1, 230640, Note_on_c, 0, 51, 36
1, 230760, Note_on_c, 0, 51, 0
1, 230760, Note_on_c, 0, 55, 36
1, 230880, Note_on_c, 0, 55, 0
1, 230880, Note_on_c, 0, 77, 0
1, 230880, Note_on_c, 0, 89, 0
1, 230880, Note_on_c, 0, 87, 62
1, 230880, Note_on_c, 0, 75, 52
1, 230880, Note_on_c, 0, 60, 44
1, 231000, Note_on_c, 0, 60, 0
1, 231000, Note_on_c, 0, 55, 36
1, 231120, Note_on_c, 0, 55, 0
1, 231120, Note_on_c, 0, 51, 36
1, 231240, Note_on_c, 0, 51, 0
1, 231240, Note_on_c, 0, 55, 36
1, 231360, Tempo, 585366
1, 231360, Note_on_c, 0, 55, 0
1, 231360, Note_on_c, 0, 39, 44
1, 231369, Control_c, 0, 64, 0
1, 231417, Control_c, 0, 64, 127
1, 231480, Note_on_c, 0, 39, 0
1, 231480, Note_on_c, 0, 55, 36
1, 231600, Tempo, 560748
1, 231600, Note_on_c, 0, 55, 0
1, 231600, Note_on_c, 0, 75, 0
1, 231600, Note_on_c, 0, 87, 0
1, 231600, Note_on_c, 0, 85, 60
1, 231600, Note_on_c, 0, 73, 50
1, 231600, Note_on_c, 0, 51, 36
1, 231720, Note_on_c, 0, 51, 0
1, 231720, Note_on_c, 0, 55, 37
1, 231840, Note_on_c, 0, 55, 0
1, 231840, Note_on_c, 0, 73, 0
1, 231840, Note_on_c, 0, 85, 0
1, 231840, Note_on_c, 0, 82, 58
1, 231840, Note_on_c, 0, 70, 49
1, 231840, Note_on_c, 0, 61, 44
1, 231960, Note_on_c, 0, 61, 0
1, 231960, Note_on_c, 0, 55, 36
1, 232080, Tempo, 591133
1, 232080, Note_on_c, 0, 55, 0
1, 232080, Note_on_c, 0, 70, 0
1, 232080, Note_on_c, 0, 82, 0
1, 232080, Note_on_c, 0, 79, 58
1, 232080, Note_on_c, 0, 67, 49
1, 232080, Note_on_c, 0, 51, 36
1, 232200, Note_on_c, 0, 51, 0
1, 232200, Note_on_c, 0, 55, 36
1, 232320, Tempo, 600000
1, 232320, Note_on_c, 0, 55, 0
1, 232320, Note_on_c, 0, 67, 0
1, 232320, Note_on_c, 0, 79, 0
1, 232320, Note_on_c, 0, 75, 62
1, 232320, Note_on_c, 0, 63, 52
1, 232320, Control_c, 0, 64, 0
1, 232320, Note_on_c, 0, 44, 44
1, 232330, Control_c, 0, 64, 0
1, 232383, Control_c, 0, 64, 127
1, 232440, Note_on_c, 0, 44, 0
1, 232440, Note_on_c, 0, 51, 36
1, 232560, Tempo, 568720
1, 232560, Note_on_c, 0, 51, 0
1, 232560, Note_on_c, 0, 63, 0
1, 232560, Note_on_c, 0, 75, 0
1, 232560, Note_on_c, 0, 85, 56
1, 232560, Note_on_c, 0, 73, 47
1, 232560, Note_on_c, 0, 48, 36
1, 232680, Note_on_c, 0, 48, 0
1, 232680, Note_on_c, 0, 51, 36
1, 232800, Note_on_c, 0, 51, 0
1, 232800, Note_on_c, 0, 73, 0
1, 232800, Note_on_c, 0, 85, 0
1, 232800, Note_on_c, 0, 84, 60
1, 232800, Note_on_c, 0, 72, 50
1, 232800, Note_on_c, 0, 56, 42
1, 232920, Note_on_c, 0, 56, 0
1, 232920, Note_on_c, 0, 51, 35
1, 233040, Note_on_c, 0, 51, 0
1, 233040, Note_on_c, 0, 48, 34
1, 233160, Note_on_c, 0, 48, 0
1, 233160, Note_on_c, 0, 51, 34
1, 233280, Tempo, 612245
1, 233280, Note_on_c, 0, 51, 0
1, 233280, Note_on_c, 0, 37, 40
1, 233288, Control_c, 0, 64, 0
1, 233337, Control_c, 0, 64, 127
1, 233400, Note_on_c, 0, 37, 0
1, 233400, Note_on_c, 0, 53, 33
1, 233520, Tempo, 560748
1, 233520, Note_on_c, 0, 53, 0
1, 233520, Note_on_c, 0, 72, 0
1, 233520, Note_on_c, 0, 84, 0
1, 233520, Note_on_c, 0, 82, 54
1, 233520, Note_on_c, 0, 70, 45
1, 233520, Note_on_c, 0, 49, 33
1, 233640, Note_on_c, 0, 49, 0
1, 233640, Note_on_c, 0, 53, 33
1, 233760, Note_on_c, 0, 53, 0
1, 233760, Note_on_c, 0, 70, 0
1, 233760, Note_on_c, 0, 82, 0
1, 233760, Note_on_c, 0, 84, 51
1, 233760, Note_on_c, 0, 72, 43
1, 233760, Note_on_c, 0, 58, 38
1, 233880, Note_on_c, 0, 58, 0
1, 233880, Note_on_c, 0, 53, 32
1, 234000, Tempo, 591133
1, 234000, Note_on_c, 0, 53, 0
1, 234000, Note_on_c, 0, 72, 0
1, 234000, Note_on_c, 0, 84, 0
1, 234000, Note_on_c, 0, 85, 50
1, 234000, Note_on_c, 0, 73, 42
1, 234000, Note_on_c, 0, 49, 31
1, 234120, Note_on_c, 0, 49, 0
1, 234120, Note_on_c, 0, 53, 31
1, 234240, Tempo, 600000
1, 234240, Note_on_c, 0, 53, 0
1, 234240, Note_on_c, 0, 73, 0
1, 234240, Note_on_c, 0, 85, 0
1, 234240, Note_on_c, 0, 75, 52
1, 234240, Note_on_c, 0, 63, 44
1, 234240, Control_c, 0, 64, 0
1, 234240, Note_on_c, 0, 39, 36
1, 234248, Control_c, 0, 64, 0
1, 234303, Control_c, 0, 64, 127
1, 234360, Note_on_c, 0, 39, 0
1, 234360, Note_on_c, 0, 51, 30
1, 234480, Tempo, 568720
1, 234480, Note_on_c, 0, 51, 0
1, 234480, Note_on_c, 0, 63, 0
1, 234480, Note_on_c, 0, 75, 0
1, 234480, Note_on_c, 0, 82, 47
1, 234480, Note_on_c, 0, 70, 40
1, 234480, Note_on_c, 0, 48, 30
1, 234600, Note_on_c, 0, 48, 0
1, 234600, Note_on_c, 0, 51, 30
1, 234720, Note_on_c, 0, 51, 0
1, 234720, Note_on_c, 0, 70, 0
1, 234720, Note_on_c, 0, 82, 0
1, 234720, Note_on_c, 0, 80, 50
1, 234720, Note_on_c, 0, 68, 42
1, 234720, Note_on_c, 0, 56, 36
1, 234840, Note_on_c, 0, 56, 0
1, 234840, Note_on_c, 0, 51, 29
1, 234960, Note_on_c, 0, 51, 0
1, 234960, Note_on_c, 0, 48, 28
1, 235080, Note_on_c, 0, 48, 0
1, 235080, Note_on_c, 0, 51, 28
1, 235200, Tempo, 585366
1, 235200, Note_on_c, 0, 51, 0
1, 235200, Control_c, 0, 64, 0
1, 235200, Note_on_c, 0, 39, 34
1, 235257, Control_c, 0, 64, 127
1, 235320, Note_on_c, 0, 39, 0
1, 235320, Note_on_c, 0, 51, 27
1, 235440, Tempo, 571429
1, 235440, Note_on_c, 0, 51, 0
1, 235440, Note_on_c, 0, 68, 0
1, 235440, Note_on_c, 0, 80, 0
1, 235440, Note_on_c, 0, 79, 45
1, 235440, Note_on_c, 0, 67, 38
1, 235440, Note_on_c, 0, 49, 27
1, 235560, Note_on_c, 0, 49, 0
1, 235560, Note_on_c, 0, 51, 27
1, 235680, Tempo, 579710
1, 235680, Note_on_c, 0, 51, 0
1, 235680, Note_on_c, 0, 67, 0
1, 235680, Note_on_c, 0, 79, 0
1, 235680, Note_on_c, 0, 80, 42
1, 235680, Note_on_c, 0, 68, 36
1, 235680, Note_on_c, 0, 58, 32
1, 235800, Note_on_c, 0, 58, 0
1, 235800, Note_on_c, 0, 51, 26
1, 235920, Tempo, 628272
1, 235920, Note_on_c, 0, 51, 0
1, 235920, Note_on_c, 0, 68, 0
1, 235920, Note_on_c, 0, 80, 0
1, 235920, Note_on_c, 0, 82, 41
1, 235920, Note_on_c, 0, 70, 35
1, 235920, Note_on_c, 0, 49, 26
1, 236040, Note_on_c, 0, 49, 0
1, 236040, Note_on_c, 0, 51, 26
1, 236160, Tempo, 588235
1, 236160, Note_on_c, 0, 51, 0
1, 236160, Note_on_c, 0, 70, 0
1, 236160, Note_on_c, 0, 82, 0
1, 236160, Note_on_c, 0, 74, 44
1, 236160, Note_on_c, 0, 56, 26
1, 236168, Control_c, 0, 64, 0
1, 236200, Control_c, 0, 64, 127
1, 236280, Note_on_c, 0, 56, 0
1, 236280, Note_on_c, 0, 63, 25
1, 236400, Tempo, 568720
1, 236400, Note_on_c, 0, 63, 0
1, 236400, Note_on_c, 0, 74, 0
1, 236400, Note_on_c, 0, 77, 40
1, 236400, Note_on_c, 0, 60, 26
1, 236520, Note_on_c, 0, 60, 0
1, 236520, Note_on_c, 0, 63, 26
1, 236640, Note_on_c, 0, 63, 0
1, 236640, Note_on_c, 0, 77, 0
1, 236640, Note_on_c, 0, 75, 46
1, 236640, Note_on_c, 0, 68, 29
1, 236760, Note_on_c, 0, 68, 0
1, 236760, Note_on_c, 0, 63, 26
1, 236880, Note_on_c, 0, 63, 0
1, 236880, Note_on_c, 0, 60, 26
1, 237000, Note_on_c, 0, 60, 0
1, 237000, Note_on_c, 0, 63, 26
1, 237100, Tempo, 588235
1, 237120, Note_on_c, 0, 63, 0
1, 237120, Note_on_c, 0, 56, 29
1, 237130, Control_c, 0, 64, 0
1, 237177, Control_c, 0, 64, 127
1, 237240, Note_on_c, 0, 56, 0
1, 237240, Note_on_c, 0, 63, 26
1, 237300, Note_on_c, 0, 75, 0
1, 237300, Note_on_c, 0, 72, 41
1, 237360, Tempo, 571429
1, 237360, Note_on_c, 0, 72, 0
1, 237360, Note_on_c, 0, 63, 0
1, 237360, Note_on_c, 0, 87, 55
1, 237360, Note_on_c, 0, 60, 26
1, 237480, Note_on_c, 0, 60, 0
1, 237480, Note_on_c, 0, 63, 26
1, 237540, Note_on_c, 0, 87, 0
1, 237540, Note_on_c, 0, 70, 38
1, 237600, Note_on_c, 0, 70, 0
1, 237600, Note_on_c, 0, 63, 0
1, 237600, Note_on_c, 0, 85, 52
1, 237600, Note_on_c, 0, 67, 29
1, 237720, Note_on_c, 0, 67, 0
1, 237720, Note_on_c, 0, 63, 26
1, 237780, Note_on_c, 0, 85, 0
1, 237780, Note_on_c, 0, 68, 38
1, 237840, Tempo, 591133
1, 237840, Note_on_c, 0, 68, 0
1, 237840, Note_on_c, 0, 63, 0
1, 237840, Note_on_c, 0, 84, 52
1, 237840, Note_on_c, 0, 68, 26
1, 237960, Note_on_c, 0, 68, 0
1, 237960, Note_on_c, 0, 63, 26
1, 238080, Tempo, 588235
1, 238080, Note_on_c, 0, 63, 0
1, 238080, Note_on_c, 0, 84, 0
1, 238080, Note_on_c, 0, 74, 44
1, 238080, Note_on_c, 0, 56, 29
1, 238090, Control_c, 0, 64, 0
1, 238120, Control_c, 0, 64, 127
1, 238200, Note_on_c, 0, 56, 0
1, 238200, Note_on_c, 0, 63, 25
1, 238320, Tempo, 568720
1, 238320, Note_on_c, 0, 63, 0
1, 238320, Note_on_c, 0, 74, 0
1, 238320, Note_on_c, 0, 77, 40
1, 238320, Note_on_c, 0, 60, 26
1, 238440, Note_on_c, 0, 60, 0
1, 238440, Note_on_c, 0, 63, 26
1, 238560, Note_on_c, 0, 63, 0
1, 238560, Note_on_c, 0, 77, 0
1, 238560, Note_on_c, 0, 75, 46
1, 238560, Note_on_c, 0, 68, 29
1, 238680, Note_on_c, 0, 68, 0
1, 238680, Note_on_c, 0, 63, 26
1, 238800, Note_on_c, 0, 63, 0
1, 238800, Note_on_c, 0, 60, 26
1, 238920, Note_on_c, 0, 60, 0
1, 238920, Note_on_c, 0, 63, 26
1, 239020, Tempo, 579710
1, 239040, Note_on_c, 0, 63, 0
1, 239040, Note_on_c, 0, 56, 29
1, 239050, Control_c, 0, 64, 0
1, 239097, Control_c, 0, 64, 127
1, 239160, Note_on_c, 0, 56, 0
1, 239160, Note_on_c, 0, 63, 26
1, 239220, Note_on_c, 0, 75, 0
1, 239220, Note_on_c, 0, 72, 41
1, 239280, Tempo, 560748
1, 239280, Note_on_c, 0, 72, 0
1, 239280, Note_on_c, 0, 63, 0
1, 239280, Note_on_c, 0, 87, 55
1, 239280, Note_on_c, 0, 60, 26
1, 239400, Note_on_c, 0, 60, 0
1, 239400, Note_on_c, 0, 63, 26
1, 239460, Note_on_c, 0, 87, 0
1, 239460, Note_on_c, 0, 70, 38
1, 239520, Note_on_c, 0, 70, 0
1, 239520, Note_on_c, 0, 63, 0
1, 239520, Note_on_c, 0, 85, 52
1, 239520, Note_on_c, 0, 67, 29
1, 239640, Note_on_c, 0, 67, 0
1, 239640, Note_on_c, 0, 63, 26
1, 239700, Note_on_c, 0, 85, 0
1, 239700, Note_on_c, 0, 68, 38
1, 239760, Tempo, 591133
1, 239760, Note_on_c, 0, 68, 0
1, 239760, Note_on_c, 0, 63, 0
1, 239760, Note_on_c, 0, 84, 52
1, 239760, Note_on_c, 0, 68, 26
1, 239880, Note_on_c, 0, 68, 0
1, 239880, Note_on_c, 0, 63, 26
1, 240000, Tempo, 588235
1, 240000, Note_on_c, 0, 63, 0
1, 240000, Note_on_c, 0, 84, 0
1, 240000, Note_on_c, 0, 69, 44
1, 240000, Note_on_c, 0, 51, 31
1, 240009, Control_c, 0, 64, 0
1, 240040, Control_c, 0, 64, 127
1, 240120, Note_on_c, 0, 51, 0
1, 240120, Note_on_c, 0, 63, 26
1, 240240, Tempo, 568720
1, 240240, Note_on_c, 0, 63, 0
1, 240240, Note_on_c, 0, 69, 0
1, 240240, Note_on_c, 0, 72, 40
1, 240240, Note_on_c, 0, 61, 27
1, 240360, Note_on_c, 0, 61, 0
1, 240360, Note_on_c, 0, 63, 27
1, 240480, Note_on_c, 0, 63, 0
1, 240480, Note_on_c, 0, 72, 0
1, 240480, Note_on_c, 0, 70, 46
1, 240480, Note_on_c, 0, 67, 31
1, 240600, Note_on_c, 0, 67, 0
1, 240600, Note_on_c, 0, 63, 27
1, 240720, Note_on_c, 0, 63, 0
1, 240720, Note_on_c, 0, 61, 27
1, 240840, Note_on_c, 0, 61, 0
1, 240840, Note_on_c, 0, 63, 27
1, 240940, Tempo, 591133
1, 240960, Tempo, 625000
1, 240960, Note_on_c, 0, 63, 0
1, 240960, Note_on_c, 0, 51, 31
1, 240971, Control_c, 0, 64, 0
1, 241017, Control_c, 0, 64, 127
1, 241080, Note_on_c, 0, 51, 0
1, 241080, Note_on_c, 0, 63, 27
1, 241140, Note_on_c, 0, 70, 0
1, 241140, Note_on_c, 0, 63, 41
1, 241200, Tempo, 571429
1, 241200, Note_on_c, 0, 63, 0
1, 241200, Note_on_c, 0, 63, 0
1, 241200, Note_on_c, 0, 79, 55
1, 241200, Note_on_c, 0, 65, 27
1, 241320, Note_on_c, 0, 65, 0
1, 241320, Note_on_c, 0, 63, 27
1, 241380, Note_on_c, 0, 79, 0
1, 241380, Note_on_c, 0, 65, 38
1, 241440, Note_on_c, 0, 65, 0
1, 241440, Note_on_c, 0, 63, 0
1, 241440, Note_on_c, 0, 80, 52
1, 241440, Note_on_c, 0, 62, 31
1, 241560, Note_on_c, 0, 62, 0
1, 241560, Note_on_c, 0, 63, 27
1, 241620, Note_on_c, 0, 80, 0
1, 241620, Note_on_c, 0, 67, 38
1, 241680, Tempo, 591133
1, 241680, Note_on_c, 0, 67, 0
1, 241680, Note_on_c, 0, 63, 0
1, 241680, Note_on_c, 0, 82, 52
1, 241680, Note_on_c, 0, 61, 27
1, 241800, Note_on_c, 0, 61, 0
1, 241800, Note_on_c, 0, 63, 27
1, 241920, Tempo, 588235
1, 241920, Note_on_c, 0, 63, 0
1, 241920, Note_on_c, 0, 82, 0
1, 241920, Note_on_c, 0, 69, 44
1, 241920, Note_on_c, 0, 51, 31
1, 241930, Control_c, 0, 64, 0
1, 241960, Control_c, 0, 64, 127
1, 242040, Note_on_c, 0, 51, 0
1, 242040, Note_on_c, 0, 63, 26
1, 242160, Tempo, 568720
1, 242160, Note_on_c, 0, 63, 0
1, 242160, Note_on_c, 0, 69, 0
1, 242160, Note_on_c, 0, 72, 40
1, 242160, Note_on_c, 0, 61, 27
1, 242280, Note_on_c, 0, 61, 0
1, 242280, Note_on_c, 0, 63, 27
1, 242400, Note_on_c, 0, 63, 0
1, 242400, Note_on_c, 0, 72, 0
1, 242400, Note_on_c, 0, 70, 46
1, 242400, Note_on_c, 0, 67, 31
1, 242520, Note_on_c, 0, 67, 0
1, 242520, Note_on_c, 0, 63, 27
1, 242640, Note_on_c, 0, 63, 0
1, 242640, Note_on_c, 0, 61, 27
1, 242760, Note_on_c, 0, 61, 0
1, 242760, Note_on_c, 0, 63, 27
1, 242880, Tempo, 600000
1, 242880, Note_on_c, 0, 63, 0
1, 242880, Note_on_c, 0, 51, 31
1, 242890, Control_c, 0, 64, 0
1, 242937, Control_c, 0, 64, 127
1, 243000, Note_on_c, 0, 51, 0
1, 243000, Note_on_c, 0, 63, 27
1, 243060, Note_on_c, 0, 70, 0
1, 243060, Note_on_c, 0, 63, 41
1, 243120, Tempo, 591133
1, 243120, Note_on_c, 0, 63, 0
1, 243120, Note_on_c, 0, 63, 0
1, 243120, Note_on_c, 0, 79, 55
1, 243120, Note_on_c, 0, 65, 27
1, 243240, Note_on_c, 0, 65, 0
1, 243240, Note_on_c, 0, 63, 27
1, 243300, Note_on_c, 0, 79, 0
1, 243300, Note_on_c, 0, 65, 38
1, 243360, Note_on_c, 0, 65, 0
1, 243360, Note_on_c, 0, 63, 0
1, 243360, Note_on_c, 0, 80, 52
1, 243360, Note_on_c, 0, 62, 31
1, 243480, Note_on_c, 0, 62, 0
1, 243480, Note_on_c, 0, 63, 27
1, 243540, Note_on_c, 0, 80, 0
1, 243540, Note_on_c, 0, 67, 38
1, 243600, Tempo, 618557
1, 243600, Note_on_c, 0, 67, 0
1, 243600, Note_on_c, 0, 63, 0
1, 243600, Note_on_c, 0, 82, 52
1, 243600, Note_on_c, 0, 61, 27
1, 243720, Note_on_c, 0, 61, 0
1, 243720, Note_on_c, 0, 63, 27
1, 243840, Tempo, 631579
1, 243840, Note_on_c, 0, 63, 0
1, 243840, Note_on_c, 0, 82, 0
1, 243840, Note_on_c, 0, 75, 58
1, 243840, Note_on_c, 0, 63, 49
1, 243840, Control_c, 0, 64, 0
1, 243840, Note_on_c, 0, 56, 46
1, 243846, Control_c, 0, 64, 0
1, 243903, Control_c, 0, 64, 127
1, 243960, Note_on_c, 0, 56, 0
1, 243960, Note_on_c, 0, 63, 38
1, 244080, Tempo, 568720
1, 244080, Note_on_c, 0, 63, 0
1, 244080, Note_on_c, 0, 63, 0
1, 244080, Note_on_c, 0, 75, 0
1, 244080, Note_on_c, 0, 85, 54
1, 244080, Note_on_c, 0, 73, 45
1, 244080, Note_on_c, 0, 60, 38
1, 244200, Note_on_c, 0, 60, 0
1, 244200, Note_on_c, 0, 63, 38
1, 244320, Note_on_c, 0, 63, 0
1, 244320, Note_on_c, 0, 73, 0
1, 244320, Note_on_c, 0, 85, 0
1, 244320, Note_on_c, 0, 84, 58
1, 244320, Note_on_c, 0, 72, 49
1, 244320, Note_on_c, 0, 68, 46
1, 244440, Note_on_c, 0, 68, 0
1, 244440, Note_on_c, 0, 63, 38
1, 244560, Note_on_c, 0, 63, 0
1, 244560, Note_on_c, 0, 60, 38
1, 244680, Note_on_c, 0, 60, 0
1, 244680, Note_on_c, 0, 63, 38
1, 244800, Tempo, 585366
1, 244800, Note_on_c, 0, 63, 0
1, 244800, Note_on_c, 0, 48, 46
1, 244809, Control_c, 0, 64, 0
1, 244857, Control_c, 0, 64, 127
1, 244920, Note_on_c, 0, 48, 0
1, 244920, Note_on_c, 0, 60, 38
1, 245040, Tempo, 560748
1, 245040, Note_on_c, 0, 60, 0
1, 245040, Note_on_c, 0, 72, 0
1, 245040, Note_on_c, 0, 84, 0
1, 245040, Note_on_c, 0, 82, 57
1, 245040, Note_on_c, 0, 70, 47
1, 245040, Note_on_c, 0, 55, 38
1, 245160, Note_on_c, 0, 55, 0
1, 245160, Note_on_c, 0, 60, 39
1, 245280, Note_on_c, 0, 60, 0
1, 245280, Note_on_c, 0, 70, 0
1, 245280, Note_on_c, 0, 82, 0
1, 245280, Note_on_c, 0, 79, 55
1, 245280, Note_on_c, 0, 67, 46
1, 245280, Note_on_c, 0, 64, 46
1, 245400, Note_on_c, 0, 64, 0
1, 245400, Note_on_c, 0, 60, 38
1, 245520, Tempo, 591133
1, 245520, Note_on_c, 0, 60, 0
1, 245520, Note_on_c, 0, 67, 0
1, 245520, Note_on_c, 0, 79, 0
1, 245520, Note_on_c, 0, 76, 55
1, 245520, Note_on_c, 0, 64, 46
1, 245520, Note_on_c, 0, 55, 38
1, 245640, Note_on_c, 0, 55, 0
1, 245640, Note_on_c, 0, 60, 38
1, 245760, Tempo, 600000
1, 245760, Note_on_c, 0, 60, 0
1, 245760, Note_on_c, 0, 64, 0
1, 245760, Note_on_c, 0, 76, 0
1, 245760, Note_on_c, 0, 84, 58
1, 245760, Note_on_c, 0, 72, 49
1, 245760, Control_c, 0, 64, 0
1, 245760, Note_on_c, 0, 53, 46
1, 245768, Control_c, 0, 64, 0
1, 245823, Control_c, 0, 64, 127
1, 245880, Note_on_c, 0, 53, 0
1, 245880, Note_on_c, 0, 60, 38
1, 246000, Tempo, 568720
1, 246000, Note_on_c, 0, 60, 0
1, 246000, Note_on_c, 0, 72, 0
1, 246000, Note_on_c, 0, 84, 0
1, 246000, Note_on_c, 0, 94, 54
1, 246000, Note_on_c, 0, 82, 45
1, 246000, Note_on_c, 0, 56, 38
1, 246120, Note_on_c, 0, 56, 0
1, 246120, Note_on_c, 0, 60, 38
1, 246240, Note_on_c, 0, 60, 0
1, 246240, Note_on_c, 0, 82, 0
1, 246240, Note_on_c, 0, 94, 0
1, 246240, Note_on_c, 0, 92, 58
1, 246240, Note_on_c, 0, 80, 49
1, 246240, Note_on_c, 0, 65, 46
1, 246360, Note_on_c, 0, 65, 0
1, 246360, Note_on_c, 0, 60, 38
1, 246480, Note_on_c, 0, 60, 0
1, 246480, Note_on_c, 0, 56, 38
1, 246600, Note_on_c, 0, 56, 0
1, 246600, Note_on_c, 0, 60, 38
1, 246720, Tempo, 585366
1, 246720, Note_on_c, 0, 60, 0
1, 246720, Note_on_c, 0, 44, 46
1, 246727, Control_c, 0, 64, 0
1, 246777, Control_c, 0, 64, 127
1, 246840, Note_on_c, 0, 44, 0
1, 246840, Note_on_c, 0, 56, 38
1, 246960, Tempo, 560748
1, 246960, Note_on_c, 0, 56, 0
1, 246960, Note_on_c, 0, 80, 0
1, 246960, Note_on_c, 0, 92, 0
1, 246960, Note_on_c, 0, 90, 57
1, 246960, Note_on_c, 0, 78, 47
1, 246960, Note_on_c, 0, 51, 38
1, 247080, Note_on_c, 0, 51, 0
1, 247080, Note_on_c, 0, 56, 39
1, 247200, Note_on_c, 0, 56, 0
1, 247200, Note_on_c, 0, 78, 0
1, 247200, Note_on_c, 0, 90, 0
1, 247200, Note_on_c, 0, 87, 55
1, 247200, Note_on_c, 0, 75, 46
1, 247200, Note_on_c, 0, 60, 46
1, 247320, Note_on_c, 0, 60, 0
1, 247320, Note_on_c, 0, 56, 38
1, 247440, Tempo, 618557
1, 247440, Note_on_c, 0, 56, 0
1, 247440, Note_on_c, 0, 75, 0
1, 247440, Note_on_c, 0, 87, 0
1, 247440, Note_on_c, 0, 84, 55
1, 247440, Note_on_c, 0, 72, 46
1, 247440, Note_on_c, 0, 51, 38
1, 247560, Note_on_c, 0, 51, 0
1, 247560, Note_on_c, 0, 56, 38
1, 247680, Tempo, 600000
1, 247680, Note_on_c, 0, 56, 0
1, 247680, Note_on_c, 0, 72, 0
1, 247680, Note_on_c, 0, 84, 0
1, 247680, Note_on_c, 0, 80, 62
1, 247680, Note_on_c, 0, 68, 52
1, 247680, Note_on_c, 0, 49, 49
1, 247687, Control_c, 0, 64, 0
1, 247687, Control_c, 0, 64, 0
1, 247743, Control_c, 0, 64, 127
1, 247800, Note_on_c, 0, 49, 0
1, 247800, Note_on_c, 0, 56, 40
1, 247920, Tempo, 568720
1, 247920, Note_on_c, 0, 56, 0
1, 247920, Note_on_c, 0, 68, 0
1, 247920, Note_on_c, 0, 80, 0
1, 247920, Note_on_c, 0, 90, 56
1, 247920, Note_on_c, 0, 78, 47
1, 247920, Note_on_c, 0, 53, 40
1, 248040, Note_on_c, 0, 53, 0
1, 248040, Note_on_c, 0, 56, 40
1, 248160, Note_on_c, 0, 56, 0
1, 248160, Note_on_c, 0, 78, 0
1, 248160, Note_on_c, 0, 90, 0
1, 248160, Note_on_c, 0, 89, 60
1, 248160, Note_on_c, 0, 77, 50
1, 248160, Note_on_c, 0, 61, 47
1, 248280, Note_on_c, 0, 61, 0
1, 248280, Note_on_c, 0, 56, 39
1, 248400, Note_on_c, 0, 56, 0
1, 248400, Note_on_c, 0, 53, 38
1, 248520, Note_on_c, 0, 53, 0
1, 248520, Note_on_c, 0, 56, 38
1, 248640, Tempo, 585366
1, 248640, Note_on_c, 0, 56, 0
1, 248640, Note_on_c, 0, 42, 45
1, 248648, Control_c, 0, 64, 0
1, 248697, Control_c, 0, 64, 127
1, 248760, Note_on_c, 0, 42, 0
1, 248760, Note_on_c, 0, 58, 37
1, 248880, Tempo, 571429
1, 248880, Note_on_c, 0, 58, 0
1, 248880, Note_on_c, 0, 77, 0
1, 248880, Note_on_c, 0, 89, 0
1, 248880, Note_on_c, 0, 87, 54
1, 248880, Note_on_c, 0, 75, 45
1, 248880, Note_on_c, 0, 54, 37
1, 249000, Note_on_c, 0, 54, 0
1, 249000, Note_on_c, 0, 58, 37
1, 249120, Note_on_c, 0, 58, 0
1, 249120, Note_on_c, 0, 75, 0
1, 249120, Note_on_c, 0, 87, 0
1, 249120, Note_on_c, 0, 89, 51
1, 249120, Note_on_c, 0, 77, 43
1, 249120, Note_on_c, 0, 63, 43
1, 249240, Note_on_c, 0, 63, 0
1, 249240, Note_on_c, 0, 58, 36
1, 249360, Tempo, 591133
1, 249360, Note_on_c, 0, 58, 0
1, 249360, Note_on_c, 0, 77, 0
1, 249360, Note_on_c, 0, 89, 0
1, 249360, Note_on_c, 0, 90, 50
1, 249360, Note_on_c, 0, 78, 42
1, 249360, Note_on_c, 0, 54, 35
1, 249480, Note_on_c, 0, 54, 0
1, 249480, Note_on_c, 0, 58, 35
1, 249600, Tempo, 600000
1, 249600, Note_on_c, 0, 58, 0
1, 249600, Note_on_c, 0, 78, 0
1, 249600, Note_on_c, 0, 90, 0
1, 249600, Note_on_c, 0, 80, 52
1, 249600, Note_on_c, 0, 68, 44
1, 249600, Control_c, 0, 64, 0
1, 249600, Note_on_c, 0, 44, 41
1, 249609, Control_c, 0, 64, 0
1, 249663, Control_c, 0, 64, 127
1, 249720, Note_on_c, 0, 44, 0
1, 249720, Note_on_c, 0, 56, 34
1, 249840, Tempo, 568720
1, 249840, Note_on_c, 0, 56, 0
1, 249840, Note_on_c, 0, 68, 0
1, 249840, Note_on_c, 0, 80, 0
1, 249840, Note_on_c, 0, 87, 47
1, 249840, Note_on_c, 0, 75, 40
1, 249840, Note_on_c, 0, 53, 34
1, 249960, Note_on_c, 0, 53, 0
1, 249960, Note_on_c, 0, 56, 34
1, 250080, Note_on_c, 0, 56, 0
1, 250080, Note_on_c, 0, 75, 0
1, 250080, Note_on_c, 0, 87, 0
1, 250080, Note_on_c, 0, 85, 50
1, 250080, Note_on_c, 0, 73, 42
1, 250080, Note_on_c, 0, 61, 40
1, 250200, Note_on_c, 0, 61, 0
1, 250200, Note_on_c, 0, 56, 33
1, 250320, Note_on_c, 0, 56, 0
1, 250320, Note_on_c, 0, 53, 32
1, 250440, Note_on_c, 0, 53, 0
1, 250440, Note_on_c, 0, 56, 32
1, 250560, Tempo, 625000
1, 250560, Note_on_c, 0, 56, 0
1, 250560, Note_on_c, 0, 44, 38
1, 250568, Control_c, 0, 64, 0
1, 250617, Control_c, 0, 64, 127
1, 250680, Note_on_c, 0, 44, 0
1, 250680, Note_on_c, 0, 56, 31
1, 250800, Tempo, 588235
1, 250800, Note_on_c, 0, 56, 0
1, 250800, Note_on_c, 0, 73, 0
1, 250800, Note_on_c, 0, 85, 0
1, 250800, Note_on_c, 0, 84, 45
1, 250800, Note_on_c, 0, 72, 38
1, 250800, Note_on_c, 0, 54, 31
1, 250920, Note_on_c, 0, 54, 0
1, 250920, Note_on_c, 0, 56, 31
1, 251040, Note_on_c, 0, 56, 0
1, 251040, Note_on_c, 0, 72, 0
1, 251040, Note_on_c, 0, 84, 0
1, 251040, Note_on_c, 0, 85, 42
1, 251040, Note_on_c, 0, 73, 36
1, 251040, Note_on_c, 0, 63, 36
1, 251160, Note_on_c, 0, 63, 0
1, 251160, Note_on_c, 0, 56, 29
1, 251280, Tempo, 591133
1, 251280, Note_on_c, 0, 56, 0
1, 251280, Note_on_c, 0, 73, 0
1, 251280, Note_on_c, 0, 85, 0
1, 251280, Note_on_c, 0, 87, 41
1, 251280, Note_on_c, 0, 75, 35
1, 251280, Note_on_c, 0, 54, 29
1, 251400, Note_on_c, 0, 54, 0
1, 251400, Note_on_c, 0, 56, 29
1, 251520, Tempo, 396040
1, 251520, Note_on_c, 0, 56, 0
1, 251520, Note_on_c, 0, 75, 0
1, 251520, Note_on_c, 0, 87, 0
1, 251520, Note_on_c, 0, 77, 77
1, 251520, Note_on_c, 0, 80, 77
1, 251520, Note_on_c, 0, 85, 77
1, 251520, Note_on_c, 0, 89, 92
1, 251520, Control_c, 0, 91, 127
1, 251520, Text_t, "bdca426d104a26ac9dcb070447587523"
1, 251520, Note_on_c, 0, 53, 57
1, 251520, Control_c, 0, 64, 0
1, 251520, Note_on_c, 0, 49, 57
1, 251520, Note_on_c, 0, 56, 57
1, 251520, Note_on_c, 0, 61, 67
1, 251995, Note_on_c, 0, 61, 0
1, 251995, Note_on_c, 0, 77, 0
1, 251995, Note_on_c, 0, 53, 0
1, 251995, Note_on_c, 0, 80, 0
1, 251995, Note_on_c, 0, 85, 0
1, 251995, Note_on_c, 0, 89, 0
1, 251995, Note_on_c, 0, 49, 0
1, 251995, Note_on_c, 0, 56, 0
1, 252000, Tempo, 386349
1, 252000, Note_on_c, 0, 77, 73
1, 252000, Note_on_c, 0, 80, 73
1, 252000, Note_on_c, 0, 85, 73
1, 252000, Note_on_c, 0, 89, 87
1, 252000, Note_on_c, 0, 53, 51
1, 252000, Note_on_c, 0, 49, 51
1, 252000, Note_on_c, 0, 56, 51
1, 252000, Note_on_c, 0, 61, 61
1, 252120, Note_on_c, 0, 61, 0
1, 252120, Note_on_c, 0, 77, 0
1, 252120, Note_on_c, 0, 53, 0
1, 252120, Note_on_c, 0, 80, 0
1, 252120, Note_on_c, 0, 85, 0
1, 252120, Note_on_c, 0, 89, 0
1, 252120, Note_on_c, 0, 49, 0
1, 252120, Note_on_c, 0, 56, 0
1, 252240, Note_on_c, 0, 77, 73
1, 252240, Note_on_c, 0, 80, 73
1, 252240, Note_on_c, 0, 85, 73
1, 252240, Note_on_c, 0, 89, 87
1, 252240, Note_on_c, 0, 53, 51
1, 252240, Note_on_c, 0, 49, 51
1, 252240, Note_on_c, 0, 56, 51
1, 252240, Note_on_c, 0, 61, 61
1, 252360, Note_on_c, 0, 61, 0
1, 252360, Note_on_c, 0, 77, 0
1, 252360, Note_on_c, 0, 53, 0
1, 252360, Note_on_c, 0, 80, 0
1, 252360, Note_on_c, 0, 85, 0
1, 252360, Note_on_c, 0, 89, 0
1, 252360, Note_on_c, 0, 49, 0
1, 252360, Note_on_c, 0, 56, 0
1, 252480, Tempo, 396040
1, 252480, Note_on_c, 0, 77, 77
1, 252480, Note_on_c, 0, 80, 77
1, 252480, Note_on_c, 0, 85, 77
1, 252480, Note_on_c, 0, 89, 92
1, 252480, Note_on_c, 0, 53, 58
1, 252480, Note_on_c, 0, 49, 58
1, 252480, Note_on_c, 0, 56, 58
1, 252480, Note_on_c, 0, 61, 69
1, 252955, Note_on_c, 0, 61, 0
1, 252955, Note_on_c, 0, 77, 0
1, 252955, Note_on_c, 0, 53, 0
1, 252955, Note_on_c, 0, 80, 0
1, 252955, Note_on_c, 0, 85, 0
1, 252955, Note_on_c, 0, 89, 0
1, 252955, Note_on_c, 0, 49, 0
1, 252955, Note_on_c, 0, 56, 0
1, 252960, Tempo, 386349
1, 252960, Note_on_c, 0, 77, 72
1, 252960, Note_on_c, 0, 80, 72
1, 252960, Note_on_c, 0, 85, 72
1, 252960, Note_on_c, 0, 89, 86
1, 252960, Note_on_c, 0, 49, 52
1, 252960, Note_on_c, 0, 56, 52
1, 252960, Note_on_c, 0, 61, 63
1, 252966, Note_on_c, 0, 53, 52
1, 253080, Note_on_c, 0, 61, 0
1, 253080, Note_on_c, 0, 89, 0
1, 253080, Note_on_c, 0, 49, 0
1, 253080, Note_on_c, 0, 80, 0
1, 253080, Note_on_c, 0, 85, 0
1, 253080, Note_on_c, 0, 77, 0
1, 253080, Note_on_c, 0, 56, 0
1, 253086, Note_on_c, 0, 53, 0
1, 253200, Note_on_c, 0, 77, 72
1, 253200, Note_on_c, 0, 80, 72
1, 253200, Note_on_c, 0, 85, 72
1, 253200, Note_on_c, 0, 89, 86
1, 253200, Note_on_c, 0, 53, 52
1, 253200, Note_on_c, 0, 49, 52
1, 253200, Note_on_c, 0, 56, 52
1, 253200, Note_on_c, 0, 61, 63
1, 253320, Note_on_c, 0, 61, 0
1, 253320, Note_on_c, 0, 77, 0
1, 253320, Note_on_c, 0, 53, 0
1, 253320, Note_on_c, 0, 80, 0
1, 253320, Note_on_c, 0, 85, 0
1, 253320, Note_on_c, 0, 89, 0
1, 253320, Note_on_c, 0, 49, 0
1, 253320, Note_on_c, 0, 56, 0
1, 253440, Tempo, 394633
1, 253440, Note_on_c, 0, 77, 77
1, 253440, Note_on_c, 0, 80, 77
1, 253440, Note_on_c, 0, 85, 77
1, 253440, Note_on_c, 0, 89, 92
1, 253440, Note_on_c, 0, 53, 58
1, 253440, Note_on_c, 0, 49, 58
1, 253440, Note_on_c, 0, 56, 58
1, 253440, Note_on_c, 0, 61, 69
1, 253486, Control_c, 0, 64, 127
1, 253620, Note_on_c, 0, 61, 0
1, 253620, Note_on_c, 0, 77, 0
1, 253620, Note_on_c, 0, 53, 0
1, 253620, Note_on_c, 0, 80, 0
1, 253620, Note_on_c, 0, 85, 0
1, 253620, Note_on_c, 0, 89, 0
1, 253620, Note_on_c, 0, 49, 0
1, 253620, Note_on_c, 0, 56, 0
1, 253680, Tempo, 380373
1, 253680, Note_on_c, 0, 89, 70
1, 253680, Note_on_c, 0, 61, 52
1, 253800, Note_on_c, 0, 61, 0
1, 253800, Note_on_c, 0, 89, 0
1, 253800, Note_on_c, 0, 85, 72
1, 253800, Note_on_c, 0, 56, 54
1, 253920, Note_on_c, 0, 56, 0
1, 253920, Note_on_c, 0, 85, 0
1, 253920, Note_on_c, 0, 80, 73
1, 253920, Note_on_c, 0, 53, 56
1, 254040, Note_on_c, 0, 53, 0
1, 254040, Note_on_c, 0, 80, 0
1, 254040, Note_on_c, 0, 77, 75
1, 254040, Note_on_c, 0, 49, 58
1, 254160, Note_on_c, 0, 49, 0
1, 254160, Note_on_c, 0, 77, 0
1, 254160, Note_on_c, 0, 73, 77
1, 254160, Note_on_c, 0, 44, 59
1, 254280, Note_on_c, 0, 44, 0
1, 254280, Note_on_c, 0, 73, 0
1, 254280, Note_on_c, 0, 68, 78
1, 254280, Note_on_c, 0, 41, 61
1, 254400, Tempo, 380373
1, 254400, Note_on_c, 0, 41, 0
1, 254400, Note_on_c, 0, 68, 0
1, 254400, Note_on_c, 0, 65, 81
1, 254400, Note_on_c, 0, 37, 62
1, 254520, Note_on_c, 0, 37, 0
1, 254520, Note_on_c, 0, 65, 0
1, 254520, Note_on_c, 0, 61, 80
1, 254520, Note_on_c, 0, 32, 61
1, 254560, Tempo, 381631
1, 254640, Note_on_c, 0, 32, 0
1, 254640, Note_on_c, 0, 61, 0
1, 254640, Note_on_c, 0, 65, 79
1, 254640, Note_on_c, 0, 37, 60
1, 254680, Tempo, 382897
1, 254760, Note_on_c, 0, 37, 0
1, 254760, Note_on_c, 0, 65, 0
1, 254760, Note_on_c, 0, 68, 78
1, 254760, Note_on_c, 0, 41, 59
1, 254800, Tempo, 384172
1, 254880, Note_on_c, 0, 41, 0
1, 254880, Note_on_c, 0, 68, 0
1, 254880, Note_on_c, 0, 73, 78
1, 254880, Note_on_c, 0, 44, 58
1, 254960, Tempo, 385455
1, 255000, Note_on_c, 0, 44, 0
1, 255000, Note_on_c, 0, 73, 0
1, 255000, Note_on_c, 0, 77, 77
1, 255000, Note_on_c, 0, 49, 57
1, 255080, Tempo, 386747
1, 255120, Tempo, 420639
1, 255120, Note_on_c, 0, 49, 0
1, 255120, Note_on_c, 0, 77, 0
1, 255120, Note_on_c, 0, 80, 76
1, 255120, Note_on_c, 0, 53, 57
1, 255240, Tempo, 613058
1, 255240, Note_on_c, 0, 53, 0
1, 255240, Note_on_c, 0, 80, 0
1, 255240, Note_on_c, 0, 85, 75
1, 255240, Note_on_c, 0, 56, 56
1, 255360, Tempo, 396040
1, 255360, Note_on_c, 0, 56, 0
1, 255360, Note_on_c, 0, 85, 0
1, 255360, Note_on_c, 0, 77, 77
1, 255360, Note_on_c, 0, 82, 77
1, 255360, Note_on_c, 0, 85, 77
1, 255360, Note_on_c, 0, 89, 92
1, 255360, Control_c, 0, 91, 127
1, 255360, Text_t, "bdca426d104a26ac9dcb070447587523"
1, 255360, Note_on_c, 0, 53, 57
1, 255360, Control_c, 0, 64, 0
1, 255360, Note_on_c, 0, 49, 57
1, 255360, Note_on_c, 0, 46, 57
1, 255360, Note_on_c, 0, 58, 67
1, 255835, Note_on_c, 0, 58, 0
1, 255835, Note_on_c, 0, 77, 0
1, 255835, Note_on_c, 0, 53, 0
1, 255835, Note_on_c, 0, 82, 0
1, 255835, Note_on_c, 0, 85, 0
1, 255835, Note_on_c, 0, 89, 0
1, 255835, Note_on_c, 0, 49, 0
1, 255835, Note_on_c, 0, 46, 0
1, 255840, Tempo, 386349
1, 255840, Note_on_c, 0, 77, 73
1, 255840, Note_on_c, 0, 82, 73
1, 255840, Note_on_c, 0, 85, 73
1, 255840, Note_on_c, 0, 89, 87
1, 255840, Note_on_c, 0, 53, 51
1, 255840, Note_on_c, 0, 49, 51
1, 255840, Note_on_c, 0, 46, 51
1, 255840, Note_on_c, 0, 58, 61
1, 255960, Note_on_c, 0, 58, 0
1, 255960, Note_on_c, 0, 77, 0
1, 255960, Note_on_c, 0, 53, 0
1, 255960, Note_on_c, 0, 82, 0
1, 255960, Note_on_c, 0, 85, 0
1, 255960, Note_on_c, 0, 89, 0
1, 255960, Note_on_c, 0, 49, 0
1, 255960, Note_on_c, 0, 46, 0
1, 256080, Note_on_c, 0, 77, 73
1, 256080, Note_on_c, 0, 82, 73
1, 256080, Note_on_c, 0, 85, 73
1, 256080, Note_on_c, 0, 89, 87
1, 256080, Note_on_c, 0, 53, 51
1, 256080, Note_on_c, 0, 49, 51
1, 256080, Note_on_c, 0, 46, 51
1, 256080, Note_on_c, 0, 58, 61
1, 256200, Note_on_c, 0, 58, 0
1, 256200, Note_on_c, 0, 77, 0
1, 256200, Note_on_c, 0, 53, 0
1, 256200, Note_on_c, 0, 82, 0
1, 256200, Note_on_c, 0, 85, 0
1, 256200, Note_on_c, 0, 89, 0
1, 256200, Note_on_c, 0, 49, 0
1, 256200, Note_on_c, 0, 46, 0
1, 256320, Tempo, 396040
1, 256320, Note_on_c, 0, 77, 77
1, 256320, Note_on_c, 0, 82, 77
1, 256320, Note_on_c, 0, 85, 77
1, 256320, Note_on_c, 0, 89, 92
1, 256320, Note_on_c, 0, 53, 58
1, 256320, Note_on_c, 0, 49, 58
1, 256320, Note_on_c, 0, 46, 58
1, 256320, Note_on_c, 0, 58, 69
1, 256795, Note_on_c, 0, 58, 0
1, 256795, Note_on_c, 0, 77, 0
1, 256795, Note_on_c, 0, 53, 0
1, 256795, Note_on_c, 0, 82, 0
1, 256795, Note_on_c, 0, 85, 0
1, 256795, Note_on_c, 0, 89, 0
1, 256795, Note_on_c, 0, 49, 0
1, 256795, Note_on_c, 0, 46, 0
1, 256800, Tempo, 386349
1, 256800, Note_on_c, 0, 77, 72
1, 256800, Note_on_c, 0, 82, 72
1, 256800, Note_on_c, 0, 85, 72
1, 256800, Note_on_c, 0, 89, 86
1, 256800, Note_on_c, 0, 49, 52
1, 256800, Note_on_c, 0, 46, 52
1, 256800, Note_on_c, 0, 58, 63
1, 256806, Note_on_c, 0, 53, 52
1, 256920, Note_on_c, 0, 58, 0
1, 256920, Note_on_c, 0, 89, 0
1, 256920, Note_on_c, 0, 49, 0
1, 256920, Note_on_c, 0, 82, 0
1, 256920, Note_on_c, 0, 85, 0
1, 256920, Note_on_c, 0, 77, 0
1, 256920, Note_on_c, 0, 46, 0
1, 256926, Note_on_c, 0, 53, 0
1, 257040, Note_on_c, 0, 77, 72
1, 257040, Note_on_c, 0, 82, 72
1, 257040, Note_on_c, 0, 85, 72
1, 257040, Note_on_c, 0, 89, 86
1, 257040, Note_on_c, 0, 53, 52
1, 257040, Note_on_c, 0, 49, 52
1, 257040, Note_on_c, 0, 46, 52
1, 257040, Note_on_c, 0, 58, 63
1, 257160, Note_on_c, 0, 58, 0
1, 257160, Note_on_c, 0, 77, 0
1, 257160, Note_on_c, 0, 53, 0
1, 257160, Note_on_c, 0, 82, 0
1, 257160, Note_on_c, 0, 85, 0
1, 257160, Note_on_c, 0, 89, 0
1, 257160, Note_on_c, 0, 49, 0
1, 257160, Note_on_c, 0, 46, 0
1, 257280, Tempo, 394633
1, 257280, Note_on_c, 0, 77, 77
1, 257280, Note_on_c, 0, 82, 77
1, 257280, Note_on_c, 0, 85, 77
1, 257280, Note_on_c, 0, 89, 92
1, 257280, Note_on_c, 0, 53, 58
1, 257280, Note_on_c, 0, 49, 58
1, 257280, Note_on_c, 0, 46, 58
1, 257280, Note_on_c, 0, 58, 69
1, 257326, Control_c, 0, 64, 127
1, 257460, Note_on_c, 0, 58, 0
1, 257460, Note_on_c, 0, 77, 0
1, 257460, Note_on_c, 0, 53, 0
1, 257460, Note_on_c, 0, 82, 0
1, 257460, Note_on_c, 0, 85, 0
1, 257460, Note_on_c, 0, 89, 0
1, 257460, Note_on_c, 0, 49, 0
1, 257460, Note_on_c, 0, 46, 0
1, 257520, Tempo, 380373
1, 257520, Note_on_c, 0, 89, 71
1, 257520, Note_on_c, 0, 61, 53
1, 257640, Note_on_c, 0, 61, 0
1, 257640, Note_on_c, 0, 89, 0
1, 257640, Note_on_c, 0, 85, 72
1, 257640, Note_on_c, 0, 58, 55
1, 257760, Note_on_c, 0, 58, 0
1, 257760, Note_on_c, 0, 85, 0
1, 257760, Note_on_c, 0, 82, 73
1, 257760, Note_on_c, 0, 53, 57
1, 257880, Note_on_c, 0, 53, 0
1, 257880, Note_on_c, 0, 82, 0
1, 257880, Note_on_c, 0, 77, 74
1, 257880, Note_on_c, 0, 49, 58
1, 258000, Note_on_c, 0, 49, 0
1, 258000, Note_on_c, 0, 77, 0
1, 258000, Note_on_c, 0, 73, 75
1, 258000, Note_on_c, 0, 46, 60
1, 258120, Note_on_c, 0, 46, 0
1, 258120, Note_on_c, 0, 73, 0
1, 258120, Note_on_c, 0, 70, 75
1, 258120, Note_on_c, 0, 41, 62
1, 258240, Tempo, 380373
1, 258240, Note_on_c, 0, 41, 0
1, 258240, Note_on_c, 0, 70, 0
1, 258240, Note_on_c, 0, 65, 76
1, 258240, Note_on_c, 0, 37, 64
1, 258360, Note_on_c, 0, 37, 0
1, 258360, Note_on_c, 0, 65, 0
1, 258360, Note_on_c, 0, 61, 77
1, 258360, Note_on_c, 0, 34, 64
1, 258400, Tempo, 381631
1, 258480, Note_on_c, 0, 34, 0
1, 258480, Note_on_c, 0, 61, 0
1, 258480, Note_on_c, 0, 65, 76
1, 258480, Note_on_c, 0, 37, 63
1, 258520, Tempo, 382897
1, 258600, Note_on_c, 0, 37, 0
1, 258600, Note_on_c, 0, 65, 0
1, 258600, Note_on_c, 0, 70, 75
1, 258600, Note_on_c, 0, 41, 62
1, 258640, Tempo, 384172
1, 258720, Note_on_c, 0, 41, 0
1, 258720, Note_on_c, 0, 70, 0
1, 258720, Note_on_c, 0, 73, 74
1, 258720, Note_on_c, 0, 46, 61
1, 258800, Tempo, 385455
1, 258840, Note_on_c, 0, 46, 0
1, 258840, Note_on_c, 0, 73, 0
1, 258840, Note_on_c, 0, 77, 73
1, 258840, Note_on_c, 0, 49, 60
1, 258920, Tempo, 386747
1, 258960, Tempo, 425291
1, 258960, Note_on_c, 0, 49, 0
1, 258960, Note_on_c, 0, 77, 0
1, 258960, Note_on_c, 0, 82, 73
1, 258960, Note_on_c, 0, 53, 59
1, 259080, Tempo, 597193
1, 259080, Note_on_c, 0, 53, 0
1, 259080, Note_on_c, 0, 82, 0
1, 259080, Note_on_c, 0, 85, 72
1, 259080, Note_on_c, 0, 58, 60
1, 259200, Tempo, 396040
1, 259200, Note_on_c, 0, 58, 0
1, 259200, Note_on_c, 0, 85, 0
1, 259200, Note_on_c, 0, 78, 69
1, 259200, Note_on_c, 0, 82, 69
1, 259200, Note_on_c, 0, 85, 69
1, 259200, Note_on_c, 0, 90, 82
1, 259200, Control_c, 0, 91, 127
1, 259200, Text_t, "bdca426d104a26ac9dcb070447587523"
1, 259200, Note_on_c, 0, 54, 51
1, 259200, Control_c, 0, 64, 0
1, 259200, Note_on_c, 0, 58, 51
1, 259200, Note_on_c, 0, 61, 59
1, 259675, Note_on_c, 0, 61, 0
1, 259675, Note_on_c, 0, 54, 0
1, 259675, Note_on_c, 0, 82, 0
1, 259675, Note_on_c, 0, 85, 0
1, 259675, Note_on_c, 0, 78, 0
1, 259675, Note_on_c, 0, 58, 0
1, 259675, Note_on_c, 0, 90, 0
1, 259680, Tempo, 386349
1, 259680, Note_on_c, 0, 78, 66
1, 259680, Note_on_c, 0, 82, 66
1, 259680, Note_on_c, 0, 85, 66
1, 259680, Note_on_c, 0, 90, 77
1, 259680, Note_on_c, 0, 54, 46
1, 259680, Note_on_c, 0, 58, 46
1, 259680, Note_on_c, 0, 61, 55
1, 259800, Note_on_c, 0, 61, 0
1, 259800, Note_on_c, 0, 54, 0
1, 259800, Note_on_c, 0, 82, 0
1, 259800, Note_on_c, 0, 85, 0
1, 259800, Note_on_c, 0, 78, 0
1, 259800, Note_on_c, 0, 58, 0
1, 259800, Note_on_c, 0, 90, 0
1, 259920, Note_on_c, 0, 78, 66
1, 259920, Note_on_c, 0, 82, 66
1, 259920, Note_on_c, 0, 85, 66
1, 259920, Note_on_c, 0, 90, 77
1, 259920, Note_on_c, 0, 54, 46
1, 259920, Note_on_c, 0, 58, 46
1, 259920, Note_on_c, 0, 61, 55
1, 260040, Note_on_c, 0, 61, 0
1, 260040, Note_on_c, 0, 54, 0
1, 260040, Note_on_c, 0, 82, 0
1, 260040, Note_on_c, 0, 85, 0
1, 260040, Note_on_c, 0, 78, 0
1, 260040, Note_on_c, 0, 58, 0
1, 260040, Note_on_c, 0, 90, 0
1, 260160, Tempo, 396040
1, 260160, Note_on_c, 0, 78, 75
1, 260160, Note_on_c, 0, 81, 75
1, 260160, Note_on_c, 0, 86, 75
1, 260160, Note_on_c, 0, 90, 90
1, 260160, Note_on_c, 0, 50, 57
1, 260160, Note_on_c, 0, 54, 57
1, 260160, Note_on_c, 0, 57, 57
1, 260160, Note_on_c, 0, 62, 67
1, 260635, Note_on_c, 0, 62, 0
1, 260635, Note_on_c, 0, 78, 0
1, 260635, Note_on_c, 0, 50, 0
1, 260635, Note_on_c, 0, 81, 0
1, 260635, Note_on_c, 0, 86, 0
1, 260635, Note_on_c, 0, 90, 0
1, 260635, Note_on_c, 0, 54, 0
1, 260635, Note_on_c, 0, 57, 0
1, 260640, Tempo, 386349
1, 260640, Note_on_c, 0, 78, 71
1, 260640, Note_on_c, 0, 81, 71
1, 260640, Note_on_c, 0, 86, 71
1, 260640, Note_on_c, 0, 90, 84
1, 260640, Note_on_c, 0, 50, 51
1, 260640, Note_on_c, 0, 57, 51
1, 260640, Note_on_c, 0, 62, 61
1, 260646, Note_on_c, 0, 54, 51
1, 260760, Note_on_c, 0, 62, 0
1, 260760, Note_on_c, 0, 90, 0
1, 260760, Note_on_c, 0, 50, 0
1, 260760, Note_on_c, 0, 81, 0
1, 260760, Note_on_c, 0, 86, 0
1, 260760, Note_on_c, 0, 78, 0
1, 260760, Note_on_c, 0, 57, 0
1, 260766, Note_on_c, 0, 54, 0
1, 260880, Note_on_c, 0, 78, 71
1, 260880, Note_on_c, 0, 81, 71
1, 260880, Note_on_c, 0, 86, 71
1, 260880, Note_on_c, 0, 90, 84
1, 260880, Note_on_c, 0, 50, 51
1, 260880, Note_on_c, 0, 54, 51
1, 260880, Note_on_c, 0, 57, 51
1, 260880, Note_on_c, 0, 62, 61
1, 261000, Note_on_c, 0, 62, 0
1, 261000, Note_on_c, 0, 78, 0
1, 261000, Note_on_c, 0, 50, 0
1, 261000, Note_on_c, 0, 81, 0
1, 261000, Note_on_c, 0, 86, 0
1, 261000, Note_on_c, 0, 90, 0
1, 261000, Note_on_c, 0, 54, 0
1, 261000, Note_on_c, 0, 57, 0
1, 261120, Tempo, 394633
1, 261120, Note_on_c, 0, 78, 75
1, 261120, Note_on_c, 0, 80, 75
1, 261120, Note_on_c, 0, 87, 75
1, 261120, Note_on_c, 0, 90, 90
1, 261120, Note_on_c, 0, 48, 57
1, 261120, Note_on_c, 0, 51, 57
1, 261120, Note_on_c, 0, 56, 57
1, 261120, Note_on_c, 0, 60, 67
1, 261166, Control_c, 0, 64, 127
1, 261300, Note_on_c, 0, 60, 0
1, 261300, Note_on_c, 0, 78, 0
1, 261300, Note_on_c, 0, 48, 0
1, 261300, Note_on_c, 0, 80, 0
1, 261300, Note_on_c, 0, 87, 0
1, 261300, Note_on_c, 0, 90, 0
1, 261300, Note_on_c, 0, 51, 0
1, 261300, Note_on_c, 0, 56, 0
1, 261360, Tempo, 380373
1, 261360, Note_on_c, 0, 78, 60
1, 261360, Note_on_c, 0, 63, 47
1, 261480, Note_on_c, 0, 63, 0
1, 261480, Note_on_c, 0, 78, 0
1, 261480, Note_on_c, 0, 77, 62
1, 261480, Note_on_c, 0, 61, 48
1, 261600, Note_on_c, 0, 61, 0
1, 261600, Note_on_c, 0, 77, 0
1, 261600, Note_on_c, 0, 75, 63
1, 261600, Note_on_c, 0, 60, 50
1, 261720, Note_on_c, 0, 60, 0
1, 261720, Note_on_c, 0, 75, 0
1, 261720, Note_on_c, 0, 77, 64
1, 261720, Note_on_c, 0, 61, 51
1, 261840, Note_on_c, 0, 61, 0
1, 261840, Note_on_c, 0, 77, 0
1, 261840, Note_on_c, 0, 75, 66
1, 261840, Note_on_c, 0, 60, 52
1, 261960, Note_on_c, 0, 60, 0
1, 261960, Note_on_c, 0, 75, 0
1, 261960, Note_on_c, 0, 73, 67
1, 261960, Note_on_c, 0, 58, 54
1, 262080, Tempo, 380373
1, 262080, Note_on_c, 0, 58, 0
1, 262080, Note_on_c, 0, 73, 0
1, 262080, Note_on_c, 0, 72, 70
1, 262080, Control_c, 0, 64, 0
1, 262080, Note_on_c, 0, 56, 55
1, 262200, Note_on_c, 0, 56, 0
1, 262200, Note_on_c, 0, 72, 0
1, 262200, Note_on_c, 0, 73, 70
1, 262200, Note_on_c, 0, 58, 53
1, 262240, Tempo, 381631
1, 262320, Note_on_c, 0, 58, 0
1, 262320, Note_on_c, 0, 73, 0
1, 262320, Note_on_c, 0, 72, 69
1, 262320, Note_on_c, 0, 56, 52
1, 262360, Tempo, 382897
1, 262440, Note_on_c, 0, 56, 0
1, 262440, Note_on_c, 0, 72, 0
1, 262440, Note_on_c, 0, 73, 68
1, 262440, Note_on_c, 0, 58, 52
1, 262480, Tempo, 384172
1, 262560, Note_on_c, 0, 58, 0
1, 262560, Note_on_c, 0, 73, 0
1, 262560, Note_on_c, 0, 75, 67
1, 262560, Note_on_c, 0, 60, 51
1, 262640, Tempo, 385455
1, 262680, Note_on_c, 0, 60, 0
1, 262680, Note_on_c, 0, 75, 0
1, 262680, Note_on_c, 0, 77, 66
1, 262680, Note_on_c, 0, 61, 51
1, 262760, Tempo, 386747
1, 262800, Tempo, 425291
1, 262800, Note_on_c, 0, 61, 0
1, 262800, Note_on_c, 0, 77, 0
1, 262800, Note_on_c, 0, 78, 65
1, 262800, Note_on_c, 0, 63, 50
1, 262920, Tempo, 597193
1, 262920, Note_on_c, 0, 63, 0
1, 262920, Note_on_c, 0, 78, 0
1, 262920, Note_on_c, 0, 80, 64
1, 262920, Note_on_c, 0, 65, 50
1, 263040, Tempo, 396040
1, 263040, Note_on_c, 0, 65, 0
1, 263040, Note_on_c, 0, 80, 0
1, 263040, Note_on_c, 0, 78, 69
1, 263040, Note_on_c, 0, 82, 69
1, 263040, Note_on_c, 0, 85, 69
1, 263040, Note_on_c, 0, 90, 82
1, 263040, Control_c, 0, 91, 127
1, 263040, Text_t, "bdca426d104a26ac9dcb070447587523"
1, 263040, Note_on_c, 0, 54, 51
1, 263040, Control_c, 0, 64, 0
1, 263040, Note_on_c, 0, 58, 51
1, 263040, Note_on_c, 0, 61, 59
1, 263515, Note_on_c, 0, 61, 0
1, 263515, Note_on_c, 0, 54, 0
1, 263515, Note_on_c, 0, 82, 0
1, 263515, Note_on_c, 0, 85, 0
1, 263515, Note_on_c, 0, 78, 0
1, 263515, Note_on_c, 0, 58, 0
1, 263515, Note_on_c, 0, 90, 0
1, 263520, Tempo, 386349
1, 263520, Note_on_c, 0, 78, 66
1, 263520, Note_on_c, 0, 82, 66
1, 263520, Note_on_c, 0, 85, 66
1, 263520, Note_on_c, 0, 90, 77
1, 263520, Note_on_c, 0, 54, 46
1, 263520, Note_on_c, 0, 58, 46
1, 263520, Note_on_c, 0, 61, 55
1, 263640, Note_on_c, 0, 61, 0
1, 263640, Note_on_c, 0, 54, 0
1, 263640, Note_on_c, 0, 82, 0
1, 263640, Note_on_c, 0, 85, 0
1, 263640, Note_on_c, 0, 78, 0
1, 263640, Note_on_c, 0, 58, 0
1, 263640, Note_on_c, 0, 90, 0
1, 263760, Note_on_c, 0, 78, 66
1, 263760, Note_on_c, 0, 82, 66
1, 263760, Note_on_c, 0, 85, 66
1, 263760, Note_on_c, 0, 90, 77
1, 263760, Note_on_c, 0, 54, 46
1, 263760, Note_on_c, 0, 58, 46
1, 263760, Note_on_c, 0, 61, 55
1, 263880, Note_on_c, 0, 61, 0
1, 263880, Note_on_c, 0, 54, 0
1, 263880, Note_on_c, 0, 82, 0
1, 263880, Note_on_c, 0, 85, 0
1, 263880, Note_on_c, 0, 78, 0
1, 263880, Note_on_c, 0, 58, 0
1, 263880, Note_on_c, 0, 90, 0
1, 264000, Tempo, 396040
1, 264000, Note_on_c, 0, 78, 75
1, 264000, Note_on_c, 0, 81, 75
1, 264000, Note_on_c, 0, 86, 75
1, 264000, Note_on_c, 0, 90, 90
1, 264000, Note_on_c, 0, 50, 57
1, 264000, Note_on_c, 0, 54, 57
1, 264000, Note_on_c, 0, 57, 57
1, 264000, Note_on_c, 0, 62, 67
1, 264475, Note_on_c, 0, 62, 0
1, 264475, Note_on_c, 0, 78, 0
1, 264475, Note_on_c, 0, 50, 0
1, 264475, Note_on_c, 0, 81, 0
1, 264475, Note_on_c, 0, 86, 0
1, 264475, Note_on_c, 0, 90, 0
1, 264475, Note_on_c, 0, 54, 0
1, 264475, Note_on_c, 0, 57, 0
1, 264480, Tempo, 386349
1, 264480, Note_on_c, 0, 78, 71
1, 264480, Note_on_c, 0, 81, 71
1, 264480, Note_on_c, 0, 86, 71
1, 264480, Note_on_c, 0, 90, 84
1, 264480, Note_on_c, 0, 50, 51
1, 264480, Note_on_c, 0, 57, 51
1, 264480, Note_on_c, 0, 62, 61
1, 264486, Note_on_c, 0, 54, 51
1, 264600, Note_on_c, 0, 62, 0
1, 264600, Note_on_c, 0, 90, 0
1, 264600, Note_on_c, 0, 50, 0
1, 264600, Note_on_c, 0, 81, 0
1, 264600, Note_on_c, 0, 86, 0
1, 264600, Note_on_c, 0, 78, 0
1, 264600, Note_on_c, 0, 57, 0
1, 264606, Note_on_c, 0, 54, 0
1, 264720, Note_on_c, 0, 78, 71
1, 264720, Note_on_c, 0, 81, 71
1, 264720, Note_on_c, 0, 86, 71
1, 264720, Note_on_c, 0, 90, 84
1, 264720, Note_on_c, 0, 50, 51
1, 264720, Note_on_c, 0, 54, 51
1, 264720, Note_on_c, 0, 57, 51
1, 264720, Note_on_c, 0, 62, 61
1, 264840, Note_on_c, 0, 62, 0
1, 264840, Note_on_c, 0, 78, 0
1, 264840, Note_on_c, 0, 50, 0
1, 264840, Note_on_c, 0, 81, 0
1, 264840, Note_on_c, 0, 86, 0
1, 264840, Note_on_c, 0, 90, 0
1, 264840, Note_on_c, 0, 54, 0
1, 264840, Note_on_c, 0, 57, 0
1, 264960, Tempo, 394633
1, 264960, Note_on_c, 0, 78, 75
1, 264960, Note_on_c, 0, 80, 75
1, 264960, Note_on_c, 0, 87, 75
1, 264960, Note_on_c, 0, 90, 90
1, 264960, Note_on_c, 0, 48, 57
1, 264960, Note_on_c, 0, 51, 57
1, 264960, Note_on_c, 0, 56, 57
1, 264960, Note_on_c, 0, 60, 67
1, 265006, Control_c, 0, 64, 127
1, 265140, Note_on_c, 0, 60, 0
1, 265140, Note_on_c, 0, 78, 0
1, 265140, Note_on_c, 0, 48, 0
1, 265140, Note_on_c, 0, 80, 0
1, 265140, Note_on_c, 0, 87, 0
1, 265140, Note_on_c, 0, 90, 0
1, 265140, Note_on_c, 0, 51, 0
1, 265140, Note_on_c, 0, 56, 0
1, 265200, Tempo, 380373
1, 265200, Note_on_c, 0, 78, 61
1, 265200, Note_on_c, 0, 63, 47
1, 265320, Note_on_c, 0, 63, 0
1, 265320, Note_on_c, 0, 78, 0
1, 265320, Note_on_c, 0, 77, 62
1, 265320, Note_on_c, 0, 61, 48
1, 265440, Note_on_c, 0, 61, 0
1, 265440, Note_on_c, 0, 77, 0
1, 265440, Note_on_c, 0, 75, 63
1, 265440, Note_on_c, 0, 60, 50
1, 265560, Note_on_c, 0, 60, 0
1, 265560, Note_on_c, 0, 75, 0
1, 265560, Note_on_c, 0, 77, 64
1, 265560, Note_on_c, 0, 61, 51
1, 265680, Note_on_c, 0, 61, 0
1, 265680, Note_on_c, 0, 77, 0
1, 265680, Note_on_c, 0, 75, 65
1, 265680, Note_on_c, 0, 60, 51
1, 265800, Note_on_c, 0, 60, 0
1, 265800, Note_on_c, 0, 75, 0
1, 265800, Note_on_c, 0, 73, 67
1, 265800, Note_on_c, 0, 58, 53
1, 265920, Tempo, 380373
1, 265920, Note_on_c, 0, 58, 0
1, 265920, Note_on_c, 0, 73, 0
1, 265920, Note_on_c, 0, 72, 68
1, 265920, Note_on_c, 0, 56, 55
1, 265922, Control_c, 0, 64, 0
1, 266040, Note_on_c, 0, 56, 0
1, 266040, Note_on_c, 0, 72, 0
1, 266040, Note_on_c, 0, 73, 68
1, 266040, Note_on_c, 0, 58, 55
1, 266080, Tempo, 381631
1, 266160, Note_on_c, 0, 58, 0
1, 266160, Note_on_c, 0, 73, 0
1, 266160, Note_on_c, 0, 72, 68
1, 266160, Note_on_c, 0, 56, 53
1, 266200, Tempo, 382897
1, 266280, Note_on_c, 0, 56, 0
1, 266280, Note_on_c, 0, 72, 0
1, 266280, Note_on_c, 0, 73, 67
1, 266280, Note_on_c, 0, 58, 52
1, 266320, Tempo, 384172
1, 266400, Note_on_c, 0, 58, 0
1, 266400, Note_on_c, 0, 73, 0
1, 266400, Note_on_c, 0, 75, 66
1, 266400, Note_on_c, 0, 60, 50
1, 266480, Tempo, 385455
1, 266520, Note_on_c, 0, 60, 0
1, 266520, Note_on_c, 0, 75, 0
1, 266520, Note_on_c, 0, 77, 66
1, 266520, Note_on_c, 0, 61, 49
1, 266600, Tempo, 386747
1, 266640, Tempo, 425291
1, 266640, Note_on_c, 0, 61, 0
1, 266640, Note_on_c, 0, 77, 0
1, 266640, Note_on_c, 0, 78, 65
1, 266640, Note_on_c, 0, 63, 48
1, 266760, Tempo, 597193
1, 266760, Note_on_c, 0, 63, 0
1, 266760, Note_on_c, 0, 78, 0
1, 266760, Note_on_c, 0, 80, 65
1, 266760, Note_on_c, 0, 65, 47
1, 266880, Tempo, 396040
1, 266880, Note_on_c, 0, 65, 0
1, 266880, Note_on_c, 0, 80, 0
1, 266880, Note_on_c, 0, 69, 68
1, 266880, Note_on_c, 0, 73, 68
1, 266880, Note_on_c, 0, 78, 68
1, 266880, Note_on_c, 0, 81, 80
1, 266880, Control_c, 0, 91, 127
1, 266880, Text_t, "bdca426d104a26ac9dcb070447587523"
1, 266880, Note_on_c, 0, 54, 55
1, 266880, Note_on_c, 0, 57, 55
1, 266880, Control_c, 0, 64, 0
1, 266880, Note_on_c, 0, 61, 55
1, 266880, Note_on_c, 0, 66, 66
1, 267355, Note_on_c, 0, 66, 0
1, 267355, Note_on_c, 0, 69, 0
1, 267355, Note_on_c, 0, 54, 0
1, 267355, Note_on_c, 0, 73, 0
1, 267355, Note_on_c, 0, 78, 0
1, 267355, Note_on_c, 0, 81, 0
1, 267355, Note_on_c, 0, 57, 0
1, 267355, Note_on_c, 0, 61, 0
1, 267360, Tempo, 386349
1, 267360, Note_on_c, 0, 69, 63
1, 267360, Note_on_c, 0, 73, 63
1, 267360, Note_on_c, 0, 78, 63
1, 267360, Note_on_c, 0, 81, 74
1, 267360, Note_on_c, 0, 54, 38
1, 267360, Note_on_c, 0, 57, 38
1, 267360, Note_on_c, 0, 61, 38
1, 267360, Note_on_c, 0, 66, 55
1, 267480, Note_on_c, 0, 66, 0
1, 267480, Note_on_c, 0, 69, 0
1, 267480, Note_on_c, 0, 54, 0
1, 267480, Note_on_c, 0, 73, 0
1, 267480, Note_on_c, 0, 78, 0
1, 267480, Note_on_c, 0, 81, 0
1, 267480, Note_on_c, 0, 57, 0
1, 267480, Note_on_c, 0, 61, 0
1, 267600, Note_on_c, 0, 69, 63
1, 267600, Note_on_c, 0, 78, 63
1, 267600, Note_on_c, 0, 73, 63
1, 267600, Note_on_c, 0, 81, 74
1, 267600, Note_on_c, 0, 54, 46
1, 267600, Note_on_c, 0, 57, 46
1, 267600, Note_on_c, 0, 61, 46
1, 267600, Note_on_c, 0, 66, 54
1, 267720, Note_on_c, 0, 66, 0
1, 267720, Note_on_c, 0, 69, 0
1, 267720, Note_on_c, 0, 54, 0
1, 267720, Note_on_c, 0, 78, 0
1, 267720, Note_on_c, 0, 73, 0
1, 267720, Note_on_c, 0, 81, 0
1, 267720, Note_on_c, 0, 57, 0
1, 267720, Note_on_c, 0, 61, 0
1, 267840, Tempo, 396040
1, 267840, Note_on_c, 0, 74, 69
1, 267840, Note_on_c, 0, 78, 69
1, 267840, Note_on_c, 0, 81, 69
1, 267840, Note_on_c, 0, 86, 81
1, 267840, Note_on_c, 0, 50, 51
1, 267840, Note_on_c, 0, 54, 51
1, 267840, Note_on_c, 0, 57, 51
1, 267840, Note_on_c, 0, 62, 60
1, 268315, Note_on_c, 0, 62, 0
1, 268315, Note_on_c, 0, 74, 0
1, 268315, Note_on_c, 0, 50, 0
1, 268315, Note_on_c, 0, 78, 0
1, 268315, Note_on_c, 0, 81, 0
1, 268315, Note_on_c, 0, 86, 0
1, 268315, Note_on_c, 0, 54, 0
1, 268315, Note_on_c, 0, 57, 0
1, 268320, Tempo, 386349
1, 268320, Note_on_c, 0, 74, 65
1, 268320, Note_on_c, 0, 78, 65
1, 268320, Note_on_c, 0, 81, 65
1, 268320, Note_on_c, 0, 86, 76
1, 268320, Note_on_c, 0, 54, 47
1, 268320, Note_on_c, 0, 50, 47
1, 268320, Note_on_c, 0, 57, 47
1, 268320, Note_on_c, 0, 62, 56
1, 268440, Note_on_c, 0, 62, 0
1, 268440, Note_on_c, 0, 74, 0
1, 268440, Note_on_c, 0, 54, 0
1, 268440, Note_on_c, 0, 78, 0
1, 268440, Note_on_c, 0, 81, 0
1, 268440, Note_on_c, 0, 86, 0
1, 268440, Note_on_c, 0, 50, 0
1, 268440, Note_on_c, 0, 57, 0
1, 268560, Note_on_c, 0, 74, 65
1, 268560, Note_on_c, 0, 78, 65
1, 268560, Note_on_c, 0, 81, 65
1, 268560, Note_on_c, 0, 86, 77
1, 268560, Note_on_c, 0, 50, 48
1, 268560, Note_on_c, 0, 54, 48
1, 268560, Note_on_c, 0, 57, 48
1, 268560, Note_on_c, 0, 62, 57
1, 268680, Note_on_c, 0, 62, 0
1, 268680, Note_on_c, 0, 74, 0
1, 268680, Note_on_c, 0, 50, 0
1, 268680, Note_on_c, 0, 78, 0
1, 268680, Note_on_c, 0, 81, 0
1, 268680, Note_on_c, 0, 86, 0
1, 268680, Note_on_c, 0, 54, 0
1, 268680, Note_on_c, 0, 57, 0
1, 268800, Tempo, 396040
1, 268800, Note_on_c, 0, 71, 58
1, 268800, Note_on_c, 0, 79, 58
1, 268800, Note_on_c, 0, 83, 82
1, 268800, Control_c, 0, 91, 127
1, 268800, Text_t, "bdca426d104a26ac9dcb070447587523"
1, 268800, Note_on_c, 0, 52, 54
1, 268800, Note_on_c, 0, 55, 54
1, 268800, Control_c, 0, 64, 0
1, 268800, Note_on_c, 0, 59, 54
1, 268800, Note_on_c, 0, 64, 65
1, 269280, Tempo, 386349
1, 269280, Note_on_c, 0, 64, 0
1, 269280, Note_on_c, 0, 55, 0
1, 269280, Note_on_c, 0, 79, 0
1, 269280, Note_on_c, 0, 83, 0
1, 269280, Note_on_c, 0, 71, 0
1, 269280, Note_on_c, 0, 59, 0
1, 269280, Note_on_c, 0, 52, 0
1, 269280, Note_on_c, 0, 72, 64
1, 269280, Note_on_c, 0, 76, 64
1, 269280, Note_on_c, 0, 81, 64
1, 269280, Note_on_c, 0, 84, 75
1, 269280, Note_on_c, 0, 48, 47
1, 269280, Note_on_c, 0, 52, 47
1, 269280, Note_on_c, 0, 57, 47
1, 269280, Note_on_c, 0, 60, 56
1, 269760, Tempo, 396040
1, 269760, Note_on_c, 0, 60, 0
1, 269760, Note_on_c, 0, 72, 0
1, 269760, Note_on_c, 0, 48, 0
1, 269760, Note_on_c, 0, 76, 0
1, 269760, Note_on_c, 0, 81, 0
1, 269760, Note_on_c, 0, 84, 0
1, 269760, Note_on_c, 0, 52, 0
1, 269760, Note_on_c, 0, 57, 0
1, 269760, Note_on_c, 0, 69, 68
1, 269760, Note_on_c, 0, 74, 68
1, 269760, Note_on_c, 0, 79, 68
1, 269760, Note_on_c, 0, 81, 80
1, 269760, Note_on_c, 0, 50, 53
1, 269760, Note_on_c, 0, 57, 53
1, 269760, Note_on_c, 0, 62, 63
1, 270240, Tempo, 392157
1, 270240, Note_on_c, 0, 62, 0
1, 270240, Note_on_c, 0, 50, 0
1, 270240, Note_on_c, 0, 74, 0
1, 270240, Note_on_c, 0, 79, 0
1, 270240, Note_on_c, 0, 69, 0
1, 270240, Note_on_c, 0, 57, 0
1, 270240, Note_on_c, 0, 81, 0
1, 270240, Note_on_c, 0, 74, 70
1, 270240, Note_on_c, 0, 78, 70
1, 270240, Note_on_c, 0, 81, 70
1, 270240, Note_on_c, 0, 86, 82
1, 270240, Note_on_c, 0, 38, 51
1, 270240, Note_on_c, 0, 50, 61
1, 270720, Tempo, 409556
1, 270720, Note_on_c, 0, 50, 0
1, 270720, Note_on_c, 0, 78, 0
1, 270720, Note_on_c, 0, 81, 0
1, 270720, Note_on_c, 0, 74, 0
1, 270720, Note_on_c, 0, 38, 0
1, 270720, Note_on_c, 0, 86, 0
1, 270720, Note_on_c, 0, 71, 69
1, 270720, Note_on_c, 0, 79, 69
1, 270720, Note_on_c, 0, 83, 81
1, 270720, Control_c, 0, 91, 127
1, 270720, Text_t, "bdca426d104a26ac9dcb070447587523"
1, 270720, Note_on_c, 0, 40, 52
1, 270720, Control_c, 0, 64, 0
1, 270720, Note_on_c, 0, 52, 61
1, 271200, Tempo, 396040
1, 271200, Note_on_c, 0, 52, 0
1, 271200, Note_on_c, 0, 83, 0
1, 271200, Note_on_c, 0, 71, 0
1, 271200, Note_on_c, 0, 79, 0
1, 271200, Note_on_c, 0, 40, 0
1, 271200, Note_on_c, 0, 72, 65
1, 271200, Note_on_c, 0, 76, 65
1, 271200, Note_on_c, 0, 81, 77
1, 271200, Note_on_c, 0, 84, 77
1, 271200, Note_on_c, 0, 48, 47
1, 271200, Note_on_c, 0, 52, 47
1, 271200, Note_on_c, 0, 57, 47
1, 271200, Note_on_c, 0, 60, 55
1, 271680, Tempo, 410959
1, 271680, Note_on_c, 0, 60, 0
1, 271680, Note_on_c, 0, 72, 0
1, 271680, Note_on_c, 0, 48, 0
1, 271680, Note_on_c, 0, 76, 0
1, 271680, Note_on_c, 0, 81, 0
1, 271680, Note_on_c, 0, 84, 0
1, 271680, Note_on_c, 0, 52, 0
1, 271680, Note_on_c, 0, 57, 0
1, 271680, Note_on_c, 0, 69, 72
1, 271680, Note_on_c, 0, 74, 72
1, 271680, Note_on_c, 0, 79, 72
1, 271680, Note_on_c, 0, 81, 85
1, 271680, Note_on_c, 0, 50, 54
1, 271680, Note_on_c, 0, 57, 54
1, 271680, Note_on_c, 0, 62, 65
1, 272160, Tempo, 421053
1, 272160, Note_on_c, 0, 62, 0
1, 272160, Note_on_c, 0, 50, 0
1, 272160, Note_on_c, 0, 74, 0
1, 272160, Note_on_c, 0, 79, 0
1, 272160, Note_on_c, 0, 69, 0
1, 272160, Note_on_c, 0, 57, 0
1, 272160, Note_on_c, 0, 81, 0
1, 272160, Note_on_c, 0, 74, 75
1, 272160, Note_on_c, 0, 78, 75
1, 272160, Note_on_c, 0, 81, 75
1, 272160, Note_on_c, 0, 86, 88
1, 272160, Note_on_c, 0, 38, 57
1, 272160, Note_on_c, 0, 50, 68
1, 272640, Tempo, 406780
1, 272640, Note_on_c, 0, 50, 0
1, 272640, Note_on_c, 0, 78, 0
1, 272640, Note_on_c, 0, 81, 0
1, 272640, Note_on_c, 0, 74, 0
1, 272640, Note_on_c, 0, 38, 0
1, 272640, Note_on_c, 0, 86, 0
1, 272640, Note_on_c, 0, 67, 74
1, 272640, Note_on_c, 0, 71, 74
1, 272640, Note_on_c, 0, 79, 88
1, 272640, Note_on_c, 0, 43, 61
1, 272674, Control_c, 0, 64, 127
1, 272760, Note_on_c, 0, 43, 0
1, 272760, Note_on_c, 0, 45, 57
1, 272880, Note_on_c, 0, 45, 0
1, 272880, Note_on_c, 0, 43, 57
1, 273000, Note_on_c, 0, 43, 0
1, 273000, Note_on_c, 0, 45, 57
1, 273115, Note_on_c, 0, 67, 0
1, 273115, Note_on_c, 0, 79, 0
1, 273115, Note_on_c, 0, 71, 0
1, 273120, Tempo, 396040
1, 273120, Note_on_c, 0, 45, 0
1, 273120, Note_on_c, 0, 67, 67
1, 273120, Note_on_c, 0, 71, 67
1, 273120, Note_on_c, 0, 79, 80
1, 273120, Note_on_c, 0, 47, 61
1, 273143, Control_c, 0, 64, 0
1, 273240, Note_on_c, 0, 47, 0
1, 273240, Note_on_c, 0, 67, 0
1, 273240, Note_on_c, 0, 71, 0
1, 273240, Note_on_c, 0, 79, 0
1, 273240, Note_on_c, 0, 48, 57
1, 273360, Note_on_c, 0, 48, 0
1, 273360, Note_on_c, 0, 67, 67
1, 273360, Note_on_c, 0, 71, 67
1, 273360, Note_on_c, 0, 79, 80
1, 273360, Note_on_c, 0, 47, 57
1, 273480, Note_on_c, 0, 47, 0
1, 273480, Note_on_c, 0, 67, 0
1, 273480, Note_on_c, 0, 71, 0
1, 273480, Note_on_c, 0, 79, 0
1, 273480, Note_on_c, 0, 48, 57
1, 273600, Tempo, 404040
1, 273600, Note_on_c, 0, 48, 0
1, 273600, Note_on_c, 0, 67, 72
1, 273600, Note_on_c, 0, 71, 72
1, 273600, Note_on_c, 0, 79, 86
1, 273600, Note_on_c, 0, 50, 63
1, 273691, Control_c, 0, 64, 127
1, 273720, Note_on_c, 0, 50, 0
1, 273720, Note_on_c, 0, 51, 57
1, 273840, Note_on_c, 0, 51, 0
1, 273840, Note_on_c, 0, 50, 57
1, 273960, Note_on_c, 0, 50, 0
1, 273960, Note_on_c, 0, 51, 57
1, 274075, Note_on_c, 0, 67, 0
1, 274075, Note_on_c, 0, 79, 0
1, 274075, Note_on_c, 0, 71, 0
1, 274080, Tempo, 394737
1, 274080, Note_on_c, 0, 51, 0
1, 274080, Note_on_c, 0, 67, 67
1, 274080, Note_on_c, 0, 71, 67
1, 274080, Note_on_c, 0, 79, 80
1, 274080, Note_on_c, 0, 53, 61
1, 274099, Control_c, 0, 64, 0
1, 274200, Note_on_c, 0, 53, 0
1, 274200, Note_on_c, 0, 67, 0
1, 274200, Note_on_c, 0, 71, 0
1, 274200, Note_on_c, 0, 79, 0
1, 274200, Note_on_c, 0, 55, 57
1, 274320, Note_on_c, 0, 55, 0
1, 274320, Note_on_c, 0, 67, 67
1, 274320, Note_on_c, 0, 71, 67
1, 274320, Note_on_c, 0, 79, 80
1, 274320, Note_on_c, 0, 53, 57
1, 274440, Note_on_c, 0, 53, 0
1, 274440, Note_on_c, 0, 67, 0
1, 274440, Note_on_c, 0, 71, 0
1, 274440, Note_on_c, 0, 79, 0
1, 274440, Note_on_c, 0, 55, 57
1, 274560, Tempo, 408163
1, 274560, Note_on_c, 0, 55, 0
1, 274560, Note_on_c, 0, 67, 73
1, 274560, Note_on_c, 0, 72, 73
1, 274560, Note_on_c, 0, 79, 87
1, 274560, Note_on_c, 0, 44, 67
1, 274560, Note_on_c, 0, 56, 67
1, 274666, Control_c, 0, 64, 127
1, 275040, Tempo, 418118
1, 275040, Note_on_c, 0, 79, 0
1, 275040, Note_on_c, 0, 67, 0
1, 275040, Note_on_c, 0, 72, 0
1, 275040, Note_on_c, 0, 65, 67
1, 275040, Note_on_c, 0, 72, 67
1, 275040, Note_on_c, 0, 77, 80
1, 275520, Tempo, 408163
1, 275520, Note_on_c, 0, 77, 0
1, 275520, Note_on_c, 0, 65, 0
1, 275520, Note_on_c, 0, 56, 0
1, 275520, Note_on_c, 0, 44, 0
1, 275520, Note_on_c, 0, 72, 0
1, 275520, Note_on_c, 0, 77, 70
1, 275520, Note_on_c, 0, 84, 70
1, 275520, Note_on_c, 0, 89, 84
1, 275520, Note_on_c, 0, 32, 66
1, 275520, Note_on_c, 0, 44, 66
1, 275534, Control_c, 0, 64, 0
1, 275612, Control_c, 0, 64, 127
1, 275760, Tempo, 392157
1, 275760, Note_on_c, 0, 89, 0
1, 275760, Note_on_c, 0, 77, 0
1, 275760, Note_on_c, 0, 84, 0
1, 275760, Note_on_c, 0, 65, 58
1, 275760, Note_on_c, 0, 72, 58
1, 275760, Note_on_c, 0, 77, 70
1, 275874, Note_on_c, 0, 77, 0
1, 275874, Note_on_c, 0, 65, 0
1, 275874, Note_on_c, 0, 72, 0
1, 275880, Note_on_c, 0, 65, 58
1, 275880, Note_on_c, 0, 72, 58
1, 275880, Note_on_c, 0, 77, 70
1, 275994, Note_on_c, 0, 77, 0
1, 275994, Note_on_c, 0, 65, 0
1, 275994, Note_on_c, 0, 72, 0
1, 276000, Tempo, 412371
1, 276000, Note_on_c, 0, 65, 65
1, 276000, Note_on_c, 0, 72, 65
1, 276000, Note_on_c, 0, 77, 77
1, 276228, Note_on_c, 0, 77, 0
1, 276228, Note_on_c, 0, 65, 0
1, 276228, Note_on_c, 0, 72, 0
1, 276240, Note_on_c, 0, 65, 64
1, 276240, Note_on_c, 0, 72, 64
1, 276240, Note_on_c, 0, 77, 75
1, 276468, Note_on_c, 0, 77, 0
1, 276468, Note_on_c, 0, 65, 0
1, 276468, Note_on_c, 0, 72, 0
1, 276480, Tempo, 406780
1, 276480, Note_on_c, 0, 32, 0
1, 276480, Note_on_c, 0, 44, 0
1, 276480, Note_on_c, 0, 68, 74
1, 276480, Note_on_c, 0, 72, 74
1, 276480, Note_on_c, 0, 77, 88
1, 276480, Control_c, 0, 64, 0
1, 276480, Note_on_c, 0, 41, 61
1, 276560, Control_c, 0, 64, 127
1, 276600, Note_on_c, 0, 41, 0
1, 276600, Note_on_c, 0, 43, 57
1, 276720, Note_on_c, 0, 43, 0
1, 276720, Note_on_c, 0, 41, 57
1, 276840, Note_on_c, 0, 41, 0
1, 276840, Note_on_c, 0, 43, 57
1, 276955, Note_on_c, 0, 68, 0
1, 276955, Note_on_c, 0, 77, 0
1, 276955, Note_on_c, 0, 72, 0
1, 276960, Tempo, 396040
1, 276960, Note_on_c, 0, 43, 0
1, 276960, Note_on_c, 0, 68, 67
1, 276960, Note_on_c, 0, 72, 67
1, 276960, Note_on_c, 0, 77, 80
1, 276960, Note_on_c, 0, 44, 61
1, 276983, Control_c, 0, 64, 0
1, 277080, Note_on_c, 0, 44, 0
1, 277080, Note_on_c, 0, 68, 0
1, 277080, Note_on_c, 0, 72, 0
1, 277080, Note_on_c, 0, 77, 0
1, 277080, Note_on_c, 0, 46, 57
1, 277200, Note_on_c, 0, 46, 0
1, 277200, Note_on_c, 0, 68, 67
1, 277200, Note_on_c, 0, 72, 67
1, 277200, Note_on_c, 0, 77, 80
1, 277200, Note_on_c, 0, 44, 57
1, 277320, Note_on_c, 0, 44, 0
1, 277320, Note_on_c, 0, 68, 0
1, 277320, Note_on_c, 0, 72, 0
1, 277320, Note_on_c, 0, 77, 0
1, 277320, Note_on_c, 0, 46, 57
1, 277440, Tempo, 404040
1, 277440, Note_on_c, 0, 46, 0
1, 277440, Note_on_c, 0, 68, 72
1, 277440, Note_on_c, 0, 72, 72
1, 277440, Note_on_c, 0, 77, 86
1, 277440, Note_on_c, 0, 48, 63
1, 277531, Control_c, 0, 64, 127
1, 277560, Note_on_c, 0, 48, 0
1, 277560, Note_on_c, 0, 50, 57
1, 277680, Note_on_c, 0, 50, 0
1, 277680, Note_on_c, 0, 48, 57
1, 277800, Note_on_c, 0, 48, 0
1, 277800, Note_on_c, 0, 50, 57
1, 277915, Note_on_c, 0, 68, 0
1, 277915, Note_on_c, 0, 77, 0
1, 277915, Note_on_c, 0, 72, 0
1, 277920, Tempo, 394737
1, 277920, Note_on_c, 0, 50, 0
1, 277920, Note_on_c, 0, 68, 67
1, 277920, Note_on_c, 0, 72, 67
1, 277920, Note_on_c, 0, 77, 80
1, 277920, Note_on_c, 0, 51, 61
1, 277934, Control_c, 0, 64, 0
1, 278040, Note_on_c, 0, 51, 0
1, 278040, Note_on_c, 0, 68, 0
1, 278040, Note_on_c, 0, 72, 0
1, 278040, Note_on_c, 0, 77, 0
1, 278040, Note_on_c, 0, 53, 57
1, 278160, Note_on_c, 0, 53, 0
1, 278160, Note_on_c, 0, 68, 67
1, 278160, Note_on_c, 0, 72, 67
1, 278160, Note_on_c, 0, 77, 80
1, 278160, Note_on_c, 0, 51, 57
1, 278280, Note_on_c, 0, 51, 0
1, 278280, Note_on_c, 0, 68, 0
1, 278280, Note_on_c, 0, 72, 0
1, 278280, Note_on_c, 0, 77, 0
1, 278280, Note_on_c, 0, 53, 57
1, 278400, Tempo, 408163
1, 278400, Note_on_c, 0, 53, 0
1, 278400, Note_on_c, 0, 67, 73
1, 278400, Note_on_c, 0, 70, 73
1, 278400, Note_on_c, 0, 77, 87
1, 278400, Note_on_c, 0, 43, 67
1, 278400, Note_on_c, 0, 55, 67
1, 278506, Control_c, 0, 64, 127
1, 278880, Tempo, 397351
1, 278880, Note_on_c, 0, 77, 0
1, 278880, Note_on_c, 0, 67, 0
1, 278880, Note_on_c, 0, 70, 0
1, 278880, Note_on_c, 0, 67, 67
1, 278880, Note_on_c, 0, 70, 67
1, 278880, Note_on_c, 0, 75, 80
1, 279360, Tempo, 408163
1, 279360, Note_on_c, 0, 75, 0
1, 279360, Note_on_c, 0, 67, 0
1, 279360, Note_on_c, 0, 55, 0
1, 279360, Note_on_c, 0, 43, 0
1, 279360, Note_on_c, 0, 70, 0
1, 279360, Note_on_c, 0, 75, 73
1, 279360, Note_on_c, 0, 82, 73
1, 279360, Note_on_c, 0, 87, 88
1, 279360, Note_on_c, 0, 31, 66
1, 279360, Note_on_c, 0, 43, 66
1, 279370, Control_c, 0, 64, 0
1, 279452, Control_c, 0, 64, 127
1, 279600, Tempo, 392157
1, 279600, Note_on_c, 0, 87, 0
1, 279600, Note_on_c, 0, 75, 0
1, 279600, Note_on_c, 0, 82, 0
1, 279600, Note_on_c, 0, 63, 58
1, 279600, Note_on_c, 0, 70, 58
1, 279600, Note_on_c, 0, 75, 70
1, 279714, Note_on_c, 0, 75, 0
1, 279714, Note_on_c, 0, 63, 0
1, 279714, Note_on_c, 0, 70, 0
1, 279720, Note_on_c, 0, 63, 58
1, 279720, Note_on_c, 0, 70, 58
1, 279720, Note_on_c, 0, 75, 70
1, 279834, Note_on_c, 0, 75, 0
1, 279834, Note_on_c, 0, 63, 0
1, 279834, Note_on_c, 0, 70, 0
1, 279840, Tempo, 412371
1, 279840, Note_on_c, 0, 63, 65
1, 279840, Note_on_c, 0, 70, 65
1, 279840, Note_on_c, 0, 75, 77
1, 280068, Note_on_c, 0, 75, 0
1, 280068, Note_on_c, 0, 63, 0
1, 280068, Note_on_c, 0, 70, 0
1, 280080, Note_on_c, 0, 63, 64
1, 280080, Note_on_c, 0, 70, 64
1, 280080, Note_on_c, 0, 75, 75
1, 280308, Note_on_c, 0, 75, 0
1, 280308, Note_on_c, 0, 63, 0
1, 280308, Note_on_c, 0, 70, 0
1, 280320, Tempo, 406780
1, 280320, Note_on_c, 0, 31, 0
1, 280320, Note_on_c, 0, 43, 0
1, 280320, Note_on_c, 0, 67, 74
1, 280320, Note_on_c, 0, 70, 74
1, 280320, Note_on_c, 0, 75, 88
1, 280320, Control_c, 0, 64, 0
1, 280320, Note_on_c, 0, 39, 61
1, 280400, Control_c, 0, 64, 127
1, 280440, Note_on_c, 0, 39, 0
1, 280440, Note_on_c, 0, 41, 57
1, 280560, Note_on_c, 0, 41, 0
1, 280560, Note_on_c, 0, 39, 57
1, 280680, Note_on_c, 0, 39, 0
1, 280680, Note_on_c, 0, 41, 57
1, 280800, Tempo, 396040
1, 280800, Note_on_c, 0, 41, 0
1, 280800, Note_on_c, 0, 75, 0
1, 280800, Note_on_c, 0, 70, 0
1, 280800, Note_on_c, 0, 67, 0
1, 280800, Note_on_c, 0, 67, 67
1, 280800, Note_on_c, 0, 70, 67
1, 280800, Note_on_c, 0, 75, 80
1, 280800, Note_on_c, 0, 43, 61
1, 280823, Control_c, 0, 64, 0
1, 280920, Note_on_c, 0, 43, 0
1, 280920, Note_on_c, 0, 67, 0
1, 280920, Note_on_c, 0, 70, 0
1, 280920, Note_on_c, 0, 75, 0
1, 280920, Note_on_c, 0, 44, 57
1, 281040, Note_on_c, 0, 44, 0
1, 281040, Note_on_c, 0, 67, 67
1, 281040, Note_on_c, 0, 70, 67
1, 281040, Note_on_c, 0, 75, 80
1, 281040, Note_on_c, 0, 43, 57
1, 281160, Note_on_c, 0, 43, 0
1, 281160, Note_on_c, 0, 67, 0
1, 281160, Note_on_c, 0, 70, 0
1, 281160, Note_on_c, 0, 75, 0
1, 281160, Note_on_c, 0, 44, 57
1, 281280, Tempo, 404040
1, 281280, Note_on_c, 0, 44, 0
1, 281280, Note_on_c, 0, 67, 72
1, 281280, Note_on_c, 0, 70, 72
1, 281280, Note_on_c, 0, 75, 86
1, 281280, Note_on_c, 0, 46, 63
1, 281371, Control_c, 0, 64, 127
1, 281400, Note_on_c, 0, 46, 0
1, 281400, Note_on_c, 0, 48, 57
1, 281520, Note_on_c, 0, 48, 0
1, 281520, Note_on_c, 0, 46, 57
1, 281640, Note_on_c, 0, 46, 0
1, 281640, Note_on_c, 0, 48, 57
1, 281760, Tempo, 394737
1, 281760, Note_on_c, 0, 48, 0
1, 281760, Note_on_c, 0, 75, 0
1, 281760, Note_on_c, 0, 70, 0
1, 281760, Note_on_c, 0, 67, 0
1, 281760, Note_on_c, 0, 67, 67
1, 281760, Note_on_c, 0, 70, 67
1, 281760, Note_on_c, 0, 75, 80
1, 281760, Note_on_c, 0, 50, 61
1, 281794, Control_c, 0, 64, 0
1, 281880, Note_on_c, 0, 50, 0
1, 281880, Note_on_c, 0, 67, 0
1, 281880, Note_on_c, 0, 70, 0
1, 281880, Note_on_c, 0, 75, 0
1, 281880, Note_on_c, 0, 51, 57
1, 282000, Note_on_c, 0, 51, 0
1, 282000, Note_on_c, 0, 67, 67
1, 282000, Note_on_c, 0, 70, 67
1, 282000, Note_on_c, 0, 75, 80
1, 282000, Note_on_c, 0, 50, 57
1, 282120, Note_on_c, 0, 50, 0
1, 282120, Note_on_c, 0, 67, 0
1, 282120, Note_on_c, 0, 70, 0
1, 282120, Note_on_c, 0, 75, 0
1, 282120, Note_on_c, 0, 51, 57
1, 282240, Tempo, 408163
1, 282240, Note_on_c, 0, 51, 0
1, 282240, Note_on_c, 0, 65, 73
1, 282240, Note_on_c, 0, 68, 73
1, 282240, Note_on_c, 0, 75, 87
1, 282240, Note_on_c, 0, 41, 67
1, 282240, Note_on_c, 0, 53, 67
1, 282346, Control_c, 0, 64, 127
1, 282720, Tempo, 418118
1, 282720, Note_on_c, 0, 75, 0
1, 282720, Note_on_c, 0, 65, 0
1, 282720, Note_on_c, 0, 68, 0
1, 282720, Note_on_c, 0, 65, 67
1, 282720, Note_on_c, 0, 68, 67
1, 282720, Note_on_c, 0, 73, 80
1, 283200, Tempo, 408163
1, 283200, Note_on_c, 0, 73, 0
1, 283200, Note_on_c, 0, 65, 0
1, 283200, Note_on_c, 0, 53, 0
1, 283200, Note_on_c, 0, 41, 0
1, 283200, Note_on_c, 0, 68, 0
1, 283200, Note_on_c, 0, 73, 73
1, 283200, Note_on_c, 0, 80, 73
1, 283200, Note_on_c, 0, 85, 88
1, 283200, Note_on_c, 0, 29, 66
1, 283200, Note_on_c, 0, 41, 66
1, 283211, Control_c, 0, 64, 0
1, 283292, Control_c, 0, 64, 127
1, 283428, Note_on_c, 0, 85, 0
1, 283428, Note_on_c, 0, 73, 0
1, 283428, Note_on_c, 0, 80, 0
1, 283440, Tempo, 392157
1, 283440, Note_on_c, 0, 61, 58
1, 283440, Note_on_c, 0, 68, 58
1, 283440, Note_on_c, 0, 73, 70
1, 283554, Note_on_c, 0, 73, 0
1, 283554, Note_on_c, 0, 61, 0
1, 283554, Note_on_c, 0, 68, 0
1, 283560, Note_on_c, 0, 61, 58
1, 283560, Note_on_c, 0, 68, 58
1, 283560, Note_on_c, 0, 73, 70
1, 283674, Note_on_c, 0, 73, 0
1, 283674, Note_on_c, 0, 61, 0
1, 283674, Note_on_c, 0, 68, 0
1, 283680, Tempo, 412371
1, 283680, Note_on_c, 0, 61, 65
1, 283680, Note_on_c, 0, 68, 65
1, 283680, Note_on_c, 0, 73, 77
1, 283908, Note_on_c, 0, 73, 0
1, 283908, Note_on_c, 0, 61, 0
1, 283908, Note_on_c, 0, 68, 0
1, 283920, Note_on_c, 0, 61, 64
1, 283920, Note_on_c, 0, 68, 64
1, 283920, Note_on_c, 0, 73, 75
1, 284148, Note_on_c, 0, 73, 0
1, 284148, Note_on_c, 0, 61, 0
1, 284148, Note_on_c, 0, 68, 0
1, 284160, Tempo, 408163
1, 284160, Note_on_c, 0, 29, 0
1, 284160, Note_on_c, 0, 41, 0
1, 284160, Note_on_c, 0, 61, 73
1, 284160, Note_on_c, 0, 67, 73
1, 284160, Note_on_c, 0, 73, 87
1, 284160, Control_c, 0, 64, 0
1, 284160, Note_on_c, 0, 39, 67
1, 284160, Note_on_c, 0, 51, 67
1, 284266, Control_c, 0, 64, 127
1, 284640, Tempo, 404040
1, 284640, Note_on_c, 0, 73, 0
1, 284640, Note_on_c, 0, 61, 0
1, 284640, Note_on_c, 0, 67, 0
1, 284640, Note_on_c, 0, 60, 67
1, 284640, Note_on_c, 0, 67, 67
1, 284640, Note_on_c, 0, 72, 80
1, 285120, Tempo, 408163
1, 285120, Note_on_c, 0, 72, 0
1, 285120, Note_on_c, 0, 60, 0
1, 285120, Note_on_c, 0, 51, 0
1, 285120, Note_on_c, 0, 39, 0
1, 285120, Note_on_c, 0, 67, 0
1, 285120, Note_on_c, 0, 72, 73
1, 285120, Note_on_c, 0, 79, 73
1, 285120, Note_on_c, 0, 84, 88
1, 285120, Note_on_c, 0, 27, 66
1, 285120, Note_on_c, 0, 39, 66
1, 285134, Control_c, 0, 64, 0
1, 285212, Control_c, 0, 64, 127
1, 285348, Note_on_c, 0, 84, 0
1, 285348, Note_on_c, 0, 72, 0
1, 285348, Note_on_c, 0, 79, 0
1, 285360, Tempo, 392157
1, 285360, Note_on_c, 0, 60, 58
1, 285360, Note_on_c, 0, 67, 58
1, 285360, Note_on_c, 0, 72, 70
1, 285474, Note_on_c, 0, 72, 0
1, 285474, Note_on_c, 0, 60, 0
1, 285474, Note_on_c, 0, 67, 0
1, 285480, Note_on_c, 0, 60, 58
1, 285480, Note_on_c, 0, 67, 58
1, 285480, Note_on_c, 0, 72, 70
1, 285594, Note_on_c, 0, 72, 0
1, 285594, Note_on_c, 0, 60, 0
1, 285594, Note_on_c, 0, 67, 0
1, 285600, Tempo, 412371
1, 285600, Note_on_c, 0, 60, 65
1, 285600, Note_on_c, 0, 67, 65
1, 285600, Note_on_c, 0, 72, 77
1, 285828, Note_on_c, 0, 72, 0
1, 285828, Note_on_c, 0, 60, 0
1, 285828, Note_on_c, 0, 67, 0
1, 285840, Note_on_c, 0, 60, 64
1, 285840, Note_on_c, 0, 67, 64
1, 285840, Note_on_c, 0, 72, 75
1, 286068, Note_on_c, 0, 72, 0
1, 286068, Note_on_c, 0, 60, 0
1, 286068, Note_on_c, 0, 67, 0
1, 286080, Tempo, 397351
1, 286080, Note_on_c, 0, 27, 0
1, 286080, Note_on_c, 0, 39, 0
1, 286080, Note_on_c, 0, 60, 73
1, 286080, Note_on_c, 0, 65, 73
1, 286080, Note_on_c, 0, 72, 87
1, 286080, Control_c, 0, 64, 0
1, 286080, Note_on_c, 0, 49, 67
1, 286080, Note_on_c, 0, 61, 67
1, 286440, Note_on_c, 0, 61, 0
1, 286440, Note_on_c, 0, 49, 0
1, 286440, Note_on_c, 0, 37, 60
1, 286440, Note_on_c, 0, 49, 60
1, 286554, Note_on_c, 0, 49, 0
1, 286554, Note_on_c, 0, 37, 0
1, 286560, Tempo, 418118
1, 286560, Note_on_c, 0, 72, 0
1, 286560, Note_on_c, 0, 65, 0
1, 286560, Note_on_c, 0, 60, 0
1, 286560, Note_on_c, 0, 58, 67
1, 286560, Note_on_c, 0, 65, 67
1, 286560, Note_on_c, 0, 70, 80
1, 286560, Note_on_c, 0, 37, 67
1, 286560, Note_on_c, 0, 49, 67
1, 287040, Tempo, 398671
1, 287040, Note_on_c, 0, 49, 0
1, 287040, Note_on_c, 0, 70, 0
1, 287040, Note_on_c, 0, 58, 0
1, 287040, Note_on_c, 0, 65, 0
1, 287040, Note_on_c, 0, 37, 0
1, 287040, Note_on_c, 0, 70, 76
1, 287040, Note_on_c, 0, 75, 76
1, 287040, Note_on_c, 0, 82, 90
1, 287040, Note_on_c, 0, 48, 70
1, 287040, Note_on_c, 0, 60, 70
1, 287400, Note_on_c, 0, 60, 0
1, 287400, Note_on_c, 0, 48, 0
1, 287400, Note_on_c, 0, 36, 63
1, 287400, Note_on_c, 0, 48, 63
1, 287514, Note_on_c, 0, 48, 0
1, 287514, Note_on_c, 0, 36, 0
1, 287520, Tempo, 418118
1, 287520, Note_on_c, 0, 82, 0
1, 287520, Note_on_c, 0, 75, 0
1, 287520, Note_on_c, 0, 70, 0
1, 287520, Note_on_c, 0, 68, 70
1, 287520, Note_on_c, 0, 75, 70
1, 287520, Note_on_c, 0, 80, 84
1, 287520, Note_on_c, 0, 36, 70
1, 287520, Note_on_c, 0, 48, 70
1, 288000, Tempo, 408163
1, 288000, Note_on_c, 0, 48, 0
1, 288000, Note_on_c, 0, 80, 0
1, 288000, Note_on_c, 0, 68, 0
1, 288000, Note_on_c, 0, 75, 0
1, 288000, Note_on_c, 0, 36, 0
1, 288000, Note_on_c, 0, 56, 76
1, 288000, Note_on_c, 0, 62, 76
1, 288000, Note_on_c, 0, 68, 90
1, 288000, Note_on_c, 0, 46, 70
1, 288000, Note_on_c, 0, 58, 70
1, 288360, Note_on_c, 0, 58, 0
1, 288360, Note_on_c, 0, 46, 0
1, 288360, Note_on_c, 0, 34, 63
1, 288360, Note_on_c, 0, 46, 63
1, 288474, Note_on_c, 0, 46, 0
1, 288474, Note_on_c, 0, 34, 0
1, 288480, Tempo, 434783
1, 288480, Note_on_c, 0, 68, 0
1, 288480, Note_on_c, 0, 62, 0
1, 288480, Note_on_c, 0, 56, 0
1, 288480, Note_on_c, 0, 55, 70
1, 288480, Note_on_c, 0, 62, 70
1, 288480, Note_on_c, 0, 67, 84
1, 288480, Note_on_c, 0, 34, 70
1, 288480, Note_on_c, 0, 46, 70
1, 288960, Tempo, 415225
1, 288960, Note_on_c, 0, 46, 0
1, 288960, Note_on_c, 0, 67, 0
1, 288960, Note_on_c, 0, 55, 0
1, 288960, Note_on_c, 0, 62, 0
1, 288960, Note_on_c, 0, 34, 0
1, 288960, Note_on_c, 0, 67, 80
1, 288960, Note_on_c, 0, 72, 80
1, 288960, Note_on_c, 0, 79, 94
1, 288960, Note_on_c, 0, 44, 73
1, 288960, Note_on_c, 0, 56, 73
1, 289320, Note_on_c, 0, 56, 0
1, 289320, Note_on_c, 0, 44, 0
1, 289320, Note_on_c, 0, 32, 65
1, 289320, Note_on_c, 0, 44, 65
1, 289434, Note_on_c, 0, 44, 0
1, 289434, Note_on_c, 0, 32, 0
1, 289440, Tempo, 430108
1, 289440, Note_on_c, 0, 79, 0
1, 289440, Note_on_c, 0, 72, 0
1, 289440, Note_on_c, 0, 67, 0
1, 289440, Note_on_c, 0, 66, 73
1, 289440, Note_on_c, 0, 72, 73
1, 289440, Note_on_c, 0, 78, 87
1, 289440, Note_on_c, 0, 32, 73
1, 289440, Note_on_c, 0, 44, 73
1, 289920, Tempo, 444444
1, 289920, Note_on_c, 0, 44, 0
1, 289920, Note_on_c, 0, 78, 0
1, 289920, Note_on_c, 0, 66, 0
1, 289920, Note_on_c, 0, 72, 0
1, 289920, Note_on_c, 0, 32, 0
1, 289920, Note_on_c, 0, 67, 73
1, 289920, Note_on_c, 0, 79, 73
1, 289920, Note_on_c, 0, 31, 75
1, 289920, Note_on_c, 0, 43, 75
1, 290000, Tempo, 442804
1, 290040, Note_on_c, 0, 79, 0
1, 290040, Note_on_c, 0, 67, 0
1, 290040, Note_on_c, 0, 81, 74
1, 290080, Tempo, 441176
1, 290160, Tempo, 439560
1, 290160, Note_on_c, 0, 81, 0
1, 290160, Note_on_c, 0, 79, 75
1, 290240, Tempo, 437956
1, 290280, Note_on_c, 0, 79, 0
1, 290280, Note_on_c, 0, 81, 76
1, 290320, Tempo, 436364
1, 290400, Tempo, 434783
1, 290400, Note_on_c, 0, 81, 0
1, 290400, Note_on_c, 0, 31, 0
1, 290400, Note_on_c, 0, 43, 0
1, 290400, Note_on_c, 0, 83, 77
1, 290400, Note_on_c, 0, 67, 70
1, 290400, Note_on_c, 0, 55, 70
1, 290480, Tempo, 433213
1, 290520, Note_on_c, 0, 55, 0
1, 290520, Note_on_c, 0, 67, 0
1, 290520, Note_on_c, 0, 83, 0
1, 290520, Note_on_c, 0, 84, 78
1, 290560, Tempo, 431655
1, 290640, Tempo, 430108
1, 290640, Note_on_c, 0, 84, 0
1, 290640, Note_on_c, 0, 83, 79
1, 290640, Note_on_c, 0, 55, 70
1, 290640, Note_on_c, 0, 67, 70
1, 290720, Tempo, 428571
1, 290760, Note_on_c, 0, 67, 0
1, 290760, Note_on_c, 0, 55, 0
1, 290760, Note_on_c, 0, 83, 0
1, 290760, Note_on_c, 0, 84, 80
1, 290800, Tempo, 427046
1, 290880, Note_on_c, 0, 84, 0
1, 290880, Note_on_c, 0, 86, 81
1, 290880, Note_on_c, 0, 67, 73
1, 290880, Note_on_c, 0, 55, 73
1, 291000, Note_on_c, 0, 86, 0
1, 291000, Note_on_c, 0, 87, 82
1, 291120, Note_on_c, 0, 87, 0
1, 291120, Note_on_c, 0, 86, 84
1, 291240, Note_on_c, 0, 86, 0
1, 291240, Note_on_c, 0, 87, 85
1, 291355, Note_on_c, 0, 55, 0
1, 291355, Note_on_c, 0, 67, 0
1, 291360, Note_on_c, 0, 87, 0
1, 291360, Note_on_c, 0, 89, 86
1, 291360, Note_on_c, 0, 67, 70
1, 291360, Note_on_c, 0, 55, 70
1, 291480, Note_on_c, 0, 55, 0
1, 291480, Note_on_c, 0, 67, 0
1, 291480, Note_on_c, 0, 89, 0
1, 291480, Note_on_c, 0, 91, 87
1, 291600, Note_on_c, 0, 91, 0
1, 291600, Note_on_c, 0, 89, 88
1, 291600, Note_on_c, 0, 67, 70
1, 291600, Note_on_c, 0, 55, 70
1, 291720, Note_on_c, 0, 89, 0
1, 291720, Note_on_c, 0, 91, 89
1, 291840, Tempo, 425532
1, 291840, Note_on_c, 0, 91, 0
1, 291840, Note_on_c, 0, 80, 90
1, 291840, Note_on_c, 0, 92, 90
1, 292080, Tempo, 416667
1, 292080, Note_on_c, 0, 55, 0
1, 292080, Note_on_c, 0, 67, 0
1, 292080, Note_on_c, 0, 53, 70
1, 292080, Note_on_c, 0, 65, 70
1, 292170, Note_on_c, 0, 65, 0
1, 292170, Note_on_c, 0, 53, 0
1, 292200, Note_on_c, 0, 52, 70
1, 292200, Note_on_c, 0, 64, 70
1, 292290, Note_on_c, 0, 64, 0
1, 292290, Note_on_c, 0, 52, 0
1, 292320, Note_on_c, 0, 53, 73
1, 292320, Note_on_c, 0, 65, 73
1, 292440, Note_on_c, 0, 65, 0
1, 292440, Note_on_c, 0, 53, 0
1, 292560, Note_on_c, 0, 41, 67
1, 292560, Note_on_c, 0, 53, 67
1, 292680, Tempo, 447761
1, 292740, Note_on_c, 0, 53, 0
1, 292740, Note_on_c, 0, 41, 0
1, 292800, Tempo, 441176
1, 292800, Note_on_c, 0, 80, 0
1, 292800, Note_on_c, 0, 92, 0
1, 292800, Note_on_c, 0, 68, 77
1, 292800, Note_on_c, 0, 80, 77
1, 292800, Note_on_c, 0, 44, 68
1, 292800, Note_on_c, 0, 56, 68
1, 292920, Tempo, 416667
1, 292980, Note_on_c, 0, 56, 0
1, 292980, Note_on_c, 0, 44, 0
1, 293040, Note_on_c, 0, 48, 68
1, 293040, Note_on_c, 0, 60, 68
1, 293220, Note_on_c, 0, 60, 0
1, 293220, Note_on_c, 0, 48, 0
1, 293280, Note_on_c, 0, 50, 68
1, 293280, Note_on_c, 0, 62, 68
1, 293460, Note_on_c, 0, 62, 0
1, 293460, Note_on_c, 0, 50, 0
1, 293520, Note_on_c, 0, 52, 68
1, 293520, Note_on_c, 0, 64, 68
1, 293700, Note_on_c, 0, 64, 0
1, 293700, Note_on_c, 0, 52, 0
1, 293760, Tempo, 444444
1, 293760, Note_on_c, 0, 80, 0
1, 293760, Note_on_c, 0, 68, 0
1, 293760, Note_on_c, 0, 77, 73
1, 293760, Note_on_c, 0, 53, 75
1, 293760, Note_on_c, 0, 65, 75
1, 293840, Tempo, 442804
1, 293880, Note_on_c, 0, 77, 0
1, 293880, Note_on_c, 0, 79, 74
1, 293920, Tempo, 441176
1, 294000, Tempo, 439560
1, 294000, Note_on_c, 0, 79, 0
1, 294000, Note_on_c, 0, 77, 75
1, 294080, Tempo, 437956
1, 294120, Note_on_c, 0, 77, 0
1, 294120, Note_on_c, 0, 79, 76
1, 294160, Tempo, 436364
1, 294235, Note_on_c, 0, 65, 0
1, 294235, Note_on_c, 0, 53, 0
1, 294240, Tempo, 434783
1, 294240, Note_on_c, 0, 79, 0
1, 294240, Note_on_c, 0, 80, 77
1, 294240, Note_on_c, 0, 65, 70
1, 294240, Note_on_c, 0, 53, 70
1, 294320, Tempo, 433213
1, 294360, Note_on_c, 0, 53, 0
1, 294360, Note_on_c, 0, 65, 0
1, 294360, Note_on_c, 0, 80, 0
1, 294360, Note_on_c, 0, 82, 78
1, 294400, Tempo, 431655
1, 294480, Tempo, 430108
1, 294480, Note_on_c, 0, 82, 0
1, 294480, Note_on_c, 0, 80, 79
1, 294480, Note_on_c, 0, 53, 70
1, 294480, Note_on_c, 0, 65, 70
1, 294560, Tempo, 428571
1, 294600, Note_on_c, 0, 65, 0
1, 294600, Note_on_c, 0, 53, 0
1, 294600, Note_on_c, 0, 80, 0
1, 294600, Note_on_c, 0, 82, 80
1, 294640, Tempo, 427046
1, 294720, Note_on_c, 0, 82, 0
1, 294720, Note_on_c, 0, 84, 81
1, 294720, Note_on_c, 0, 65, 73
1, 294720, Note_on_c, 0, 53, 73
1, 294840, Note_on_c, 0, 84, 0
1, 294840, Note_on_c, 0, 86, 82
1, 294960, Note_on_c, 0, 86, 0
1, 294960, Note_on_c, 0, 84, 84
1, 295080, Note_on_c, 0, 84, 0
1, 295080, Note_on_c, 0, 86, 85
1, 295195, Note_on_c, 0, 53, 0
1, 295195, Note_on_c, 0, 65, 0
1, 295200, Note_on_c, 0, 86, 0
1, 295200, Note_on_c, 0, 87, 86
1, 295200, Note_on_c, 0, 65, 70
1, 295200, Note_on_c, 0, 53, 70
1, 295320, Note_on_c, 0, 53, 0
1, 295320, Note_on_c, 0, 65, 0
1, 295320, Note_on_c, 0, 87, 0
1, 295320, Note_on_c, 0, 89, 87
1, 295440, Note_on_c, 0, 89, 0
1, 295440, Note_on_c, 0, 87, 88
1, 295440, Note_on_c, 0, 65, 70
1, 295440, Note_on_c, 0, 53, 70
1, 295560, Note_on_c, 0, 87, 0
1, 295560, Note_on_c, 0, 89, 89
1, 295680, Tempo, 425532
1, 295680, Note_on_c, 0, 89, 0
1, 295680, Note_on_c, 0, 79, 90
1, 295680, Note_on_c, 0, 91, 90
1, 295920, Tempo, 416667
1, 295920, Note_on_c, 0, 53, 0
1, 295920, Note_on_c, 0, 65, 0
1, 295920, Note_on_c, 0, 51, 70
1, 295920, Note_on_c, 0, 63, 70
1, 296010, Note_on_c, 0, 63, 0
1, 296010, Note_on_c, 0, 51, 0
1, 296040, Note_on_c, 0, 50, 70
1, 296040, Note_on_c, 0, 62, 70
1, 296130, Note_on_c, 0, 62, 0
1, 296130, Note_on_c, 0, 50, 0
1, 296160, Note_on_c, 0, 51, 73
1, 296160, Note_on_c, 0, 63, 73
1, 296280, Note_on_c, 0, 63, 0
1, 296280, Note_on_c, 0, 51, 0
1, 296400, Note_on_c, 0, 39, 67
1, 296400, Note_on_c, 0, 51, 67
1, 296520, Tempo, 447761
1, 296580, Note_on_c, 0, 51, 0
1, 296580, Note_on_c, 0, 39, 0
1, 296640, Tempo, 441176
1, 296640, Note_on_c, 0, 79, 0
1, 296640, Note_on_c, 0, 91, 0
1, 296640, Note_on_c, 0, 67, 77
1, 296640, Note_on_c, 0, 79, 77
1, 296640, Note_on_c, 0, 43, 68
1, 296640, Note_on_c, 0, 55, 68
1, 296760, Tempo, 416667
1, 296820, Note_on_c, 0, 55, 0
1, 296820, Note_on_c, 0, 43, 0
1, 296880, Note_on_c, 0, 46, 68
1, 296880, Note_on_c, 0, 58, 68
1, 297060, Note_on_c, 0, 58, 0
1, 297060, Note_on_c, 0, 46, 0
1, 297120, Note_on_c, 0, 48, 68
1, 297120, Note_on_c, 0, 60, 68
1, 297300, Note_on_c, 0, 60, 0
1, 297300, Note_on_c, 0, 48, 0
1, 297360, Note_on_c, 0, 50, 68
1, 297360, Note_on_c, 0, 62, 68
1, 297540, Note_on_c, 0, 62, 0
1, 297540, Note_on_c, 0, 50, 0
1, 297600, Tempo, 444444
1, 297600, Note_on_c, 0, 79, 0
1, 297600, Note_on_c, 0, 67, 0
1, 297600, Note_on_c, 0, 75, 73
1, 297600, Note_on_c, 0, 51, 75
1, 297600, Note_on_c, 0, 63, 75
1, 297680, Tempo, 442804
1, 297720, Note_on_c, 0, 75, 0
1, 297720, Note_on_c, 0, 77, 74
1, 297760, Tempo, 441176
1, 297840, Tempo, 439560
1, 297840, Note_on_c, 0, 77, 0
1, 297840, Note_on_c, 0, 75, 75
1, 297920, Tempo, 437956
1, 297960, Note_on_c, 0, 75, 0
1, 297960, Note_on_c, 0, 77, 76
1, 298000, Tempo, 436364
1, 298075, Note_on_c, 0, 63, 0
1, 298075, Note_on_c, 0, 51, 0
1, 298080, Tempo, 434783
1, 298080, Note_on_c, 0, 77, 0
1, 298080, Note_on_c, 0, 79, 77
1, 298080, Note_on_c, 0, 63, 70
1, 298080, Note_on_c, 0, 51, 70
1, 298160, Tempo, 433213
1, 298200, Note_on_c, 0, 51, 0
1, 298200, Note_on_c, 0, 63, 0
1, 298200, Note_on_c, 0, 79, 0
1, 298200, Note_on_c, 0, 80, 78
1, 298240, Tempo, 431655
1, 298320, Tempo, 430108
1, 298320, Note_on_c, 0, 80, 0
1, 298320, Note_on_c, 0, 79, 79
1, 298320, Note_on_c, 0, 51, 70
1, 298320, Note_on_c, 0, 63, 70
1, 298400, Tempo, 428571
1, 298440, Note_on_c, 0, 63, 0
1, 298440, Note_on_c, 0, 51, 0
1, 298440, Note_on_c, 0, 79, 0
1, 298440, Note_on_c, 0, 80, 80
1, 298480, Tempo, 427046
1, 298560, Note_on_c, 0, 80, 0
1, 298560, Note_on_c, 0, 82, 81
1, 298560, Note_on_c, 0, 63, 73
1, 298560, Note_on_c, 0, 51, 73
1, 298680, Note_on_c, 0, 82, 0
1, 298680, Note_on_c, 0, 84, 82
1, 298800, Note_on_c, 0, 84, 0
1, 298800, Note_on_c, 0, 82, 84
1, 298920, Note_on_c, 0, 82, 0
1, 298920, Note_on_c, 0, 84, 85
1, 299035, Note_on_c, 0, 51, 0
1, 299035, Note_on_c, 0, 63, 0
1, 299040, Note_on_c, 0, 84, 0
1, 299040, Note_on_c, 0, 86, 86
1, 299040, Note_on_c, 0, 63, 70
1, 299040, Note_on_c, 0, 51, 70
1, 299160, Note_on_c, 0, 51, 0
1, 299160, Note_on_c, 0, 63, 0
1, 299160, Note_on_c, 0, 86, 0
1, 299160, Note_on_c, 0, 87, 87
1, 299280, Note_on_c, 0, 87, 0
1, 299280, Note_on_c, 0, 86, 88
1, 299280, Note_on_c, 0, 63, 70
1, 299280, Note_on_c, 0, 51, 70
1, 299400, Note_on_c, 0, 86, 0
1, 299400, Note_on_c, 0, 87, 89
1, 299520, Tempo, 425532
1, 299520, Note_on_c, 0, 87, 0
1, 299520, Note_on_c, 0, 77, 90
1, 299520, Note_on_c, 0, 89, 90
1, 299760, Tempo, 416667
1, 299760, Note_on_c, 0, 51, 0
1, 299760, Note_on_c, 0, 63, 0
1, 299760, Note_on_c, 0, 49, 70
1, 299760, Note_on_c, 0, 61, 70
1, 299850, Note_on_c, 0, 61, 0
1, 299850, Note_on_c, 0, 49, 0
1, 299880, Note_on_c, 0, 48, 70
1, 299880, Note_on_c, 0, 60, 70
1, 299970, Note_on_c, 0, 60, 0
1, 299970, Note_on_c, 0, 48, 0
1, 300000, Note_on_c, 0, 49, 73
1, 300000, Note_on_c, 0, 61, 73
1, 300120, Note_on_c, 0, 61, 0
1, 300120, Note_on_c, 0, 49, 0
1, 300240, Note_on_c, 0, 49, 67
1, 300240, Note_on_c, 0, 61, 67
1, 300360, Tempo, 447761
1, 300420, Note_on_c, 0, 61, 0
1, 300420, Note_on_c, 0, 49, 0
1, 300480, Tempo, 441176
1, 300480, Note_on_c, 0, 77, 0
1, 300480, Note_on_c, 0, 89, 0
1, 300480, Note_on_c, 0, 65, 77
1, 300480, Note_on_c, 0, 77, 77
1, 300480, Note_on_c, 0, 44, 68
1, 300480, Note_on_c, 0, 56, 68
1, 300600, Tempo, 416667
1, 300660, Note_on_c, 0, 56, 0
1, 300660, Note_on_c, 0, 44, 0
1, 300720, Note_on_c, 0, 41, 68
1, 300720, Note_on_c, 0, 53, 68
1, 300900, Note_on_c, 0, 53, 0
1, 300900, Note_on_c, 0, 41, 0
1, 300960, Note_on_c, 0, 44, 68
1, 300960, Note_on_c, 0, 56, 68
1, 301140, Note_on_c, 0, 56, 0
1, 301140, Note_on_c, 0, 44, 0
1, 301200, Note_on_c, 0, 49, 68
1, 301200, Note_on_c, 0, 61, 68
1, 301440, Tempo, 425532
1, 301440, Note_on_c, 0, 77, 0
1, 301440, Note_on_c, 0, 65, 0
1, 301440, Note_on_c, 0, 75, 90
1, 301440, Note_on_c, 0, 87, 90
1, 301680, Tempo, 416667
1, 301680, Note_on_c, 0, 49, 0
1, 301680, Note_on_c, 0, 61, 0
1, 301680, Note_on_c, 0, 48, 70
1, 301680, Note_on_c, 0, 60, 70
1, 301770, Note_on_c, 0, 60, 0
1, 301770, Note_on_c, 0, 48, 0
1, 301800, Note_on_c, 0, 47, 70
1, 301800, Note_on_c, 0, 59, 70
1, 301890, Note_on_c, 0, 59, 0
1, 301890, Note_on_c, 0, 47, 0
1, 301920, Note_on_c, 0, 48, 73
1, 301920, Note_on_c, 0, 60, 73
1, 302040, Note_on_c, 0, 60, 0
1, 302040, Note_on_c, 0, 48, 0
1, 302160, Note_on_c, 0, 48, 67
1, 302160, Note_on_c, 0, 60, 67
1, 302280, Tempo, 447761
1, 302340, Note_on_c, 0, 60, 0
1, 302340, Note_on_c, 0, 48, 0
1, 302400, Tempo, 441176
1, 302400, Note_on_c, 0, 75, 0
1, 302400, Note_on_c, 0, 87, 0
1, 302400, Note_on_c, 0, 63, 77
1, 302400, Note_on_c, 0, 75, 77
1, 302400, Note_on_c, 0, 43, 68
1, 302400, Note_on_c, 0, 55, 68
1, 302520, Tempo, 416667
1, 302580, Note_on_c, 0, 55, 0
1, 302580, Note_on_c, 0, 43, 0
1, 302640, Note_on_c, 0, 39, 68
1, 302640, Note_on_c, 0, 51, 68
1, 302820, Note_on_c, 0, 51, 0
1, 302820, Note_on_c, 0, 39, 0
1, 302880, Note_on_c, 0, 43, 68
1, 302880, Note_on_c, 0, 55, 68
1, 303060, Note_on_c, 0, 55, 0
1, 303060, Note_on_c, 0, 43, 0
1, 303120, Note_on_c, 0, 48, 68
1, 303120, Note_on_c, 0, 60, 68
1, 303360, Tempo, 415225
1, 303360, Note_on_c, 0, 75, 0
1, 303360, Note_on_c, 0, 63, 0
1, 303360, Note_on_c, 0, 73, 76
1, 303360, Note_on_c, 0, 85, 90
1, 303600, Tempo, 416667
1, 303600, Note_on_c, 0, 48, 0
1, 303600, Note_on_c, 0, 60, 0
1, 303600, Note_on_c, 0, 46, 52
1, 303600, Note_on_c, 0, 58, 61
1, 303690, Note_on_c, 0, 58, 0
1, 303690, Note_on_c, 0, 46, 0
1, 303720, Note_on_c, 0, 73, 0
1, 303720, Note_on_c, 0, 85, 0
1, 303720, Note_on_c, 0, 61, 67
1, 303720, Note_on_c, 0, 73, 79
1, 303720, Note_on_c, 0, 45, 53
1, 303720, Note_on_c, 0, 57, 63
1, 303810, Note_on_c, 0, 57, 0
1, 303810, Note_on_c, 0, 45, 0
1, 303834, Note_on_c, 0, 73, 0
1, 303834, Note_on_c, 0, 61, 0
1, 303840, Note_on_c, 0, 61, 67
1, 303840, Note_on_c, 0, 73, 79
1, 303840, Note_on_c, 0, 46, 58
1, 303840, Note_on_c, 0, 58, 69
1, 303960, Note_on_c, 0, 58, 0
1, 303960, Note_on_c, 0, 46, 0
1, 304080, Note_on_c, 0, 34, 51
1, 304080, Note_on_c, 0, 46, 60
1, 304200, Tempo, 447761
1, 304260, Note_on_c, 0, 46, 0
1, 304260, Note_on_c, 0, 34, 0
1, 304320, Tempo, 415225
1, 304320, Note_on_c, 0, 73, 0
1, 304320, Note_on_c, 0, 61, 0
1, 304320, Note_on_c, 0, 72, 76
1, 304320, Note_on_c, 0, 84, 90
1, 304320, Note_on_c, 0, 46, 68
1, 304320, Note_on_c, 0, 58, 68
1, 304440, Note_on_c, 0, 58, 0
1, 304440, Note_on_c, 0, 46, 0
1, 304560, Tempo, 416667
1, 304560, Note_on_c, 0, 44, 52
1, 304560, Note_on_c, 0, 56, 61
1, 304650, Note_on_c, 0, 56, 0
1, 304650, Note_on_c, 0, 44, 0
1, 304680, Note_on_c, 0, 84, 0
1, 304680, Note_on_c, 0, 72, 0
1, 304680, Note_on_c, 0, 60, 67
1, 304680, Note_on_c, 0, 72, 79
1, 304680, Note_on_c, 0, 43, 53
1, 304680, Note_on_c, 0, 55, 63
1, 304770, Note_on_c, 0, 55, 0
1, 304770, Note_on_c, 0, 43, 0
1, 304794, Note_on_c, 0, 72, 0
1, 304794, Note_on_c, 0, 60, 0
1, 304800, Note_on_c, 0, 60, 67
1, 304800, Note_on_c, 0, 72, 79
1, 304800, Note_on_c, 0, 44, 58
1, 304800, Note_on_c, 0, 56, 69
1, 304920, Note_on_c, 0, 56, 0
1, 304920, Note_on_c, 0, 44, 0
1, 305040, Note_on_c, 0, 32, 51
1, 305040, Note_on_c, 0, 44, 60
1, 305160, Tempo, 447761
1, 305220, Note_on_c, 0, 44, 0
1, 305220, Note_on_c, 0, 32, 0
1, 305280, Tempo, 416667
1, 305280, Note_on_c, 0, 72, 0
1, 305280, Note_on_c, 0, 60, 0
1, 305280, Note_on_c, 0, 70, 76
1, 305280, Note_on_c, 0, 82, 90
1, 305280, Note_on_c, 0, 44, 68
1, 305280, Note_on_c, 0, 56, 68
1, 305400, Note_on_c, 0, 56, 0
1, 305400, Note_on_c, 0, 44, 0
1, 305520, Tempo, 416667
1, 305520, Note_on_c, 0, 43, 52
1, 305520, Note_on_c, 0, 55, 61
1, 305610, Note_on_c, 0, 55, 0
1, 305610, Note_on_c, 0, 43, 0
1, 305640, Note_on_c, 0, 82, 0
1, 305640, Note_on_c, 0, 70, 0
1, 305640, Note_on_c, 0, 58, 67
1, 305640, Note_on_c, 0, 70, 79
1, 305640, Note_on_c, 0, 42, 53
1, 305640, Note_on_c, 0, 54, 63
1, 305730, Note_on_c, 0, 54, 0
1, 305730, Note_on_c, 0, 42, 0
1, 305754, Note_on_c, 0, 70, 0
1, 305754, Note_on_c, 0, 58, 0
1, 305760, Note_on_c, 0, 58, 67
1, 305760, Note_on_c, 0, 70, 79
1, 305760, Note_on_c, 0, 43, 58
1, 305760, Note_on_c, 0, 55, 69
1, 305880, Note_on_c, 0, 55, 0
1, 305880, Note_on_c, 0, 43, 0
1, 306000, Note_on_c, 0, 31, 51
1, 306000, Note_on_c, 0, 43, 60
1, 306120, Tempo, 447761
1, 306180, Note_on_c, 0, 43, 0
1, 306180, Note_on_c, 0, 31, 0
1, 306240, Tempo, 431655
1, 306240, Note_on_c, 0, 70, 0
1, 306240, Note_on_c, 0, 58, 0
1, 306240, Note_on_c, 0, 75, 76
1, 306240, Note_on_c, 0, 72, 76
1, 306240, Note_on_c, 0, 68, 76
1, 306240, Note_on_c, 0, 80, 90
1, 306240, Note_on_c, 0, 43, 68
1, 306240, Note_on_c, 0, 55, 68
1, 306360, Note_on_c, 0, 55, 0
1, 306360, Note_on_c, 0, 43, 0
1, 306480, Note_on_c, 0, 41, 52
1, 306480, Note_on_c, 0, 53, 61
1, 306570, Note_on_c, 0, 53, 0
1, 306570, Note_on_c, 0, 41, 0
1, 306597, Note_on_c, 0, 80, 0
1, 306597, Note_on_c, 0, 75, 0
1, 306597, Note_on_c, 0, 72, 0
1, 306597, Note_on_c, 0, 68, 0
1, 306600, Note_on_c, 0, 63, 67
1, 306600, Note_on_c, 0, 60, 67
1, 306600, Note_on_c, 0, 56, 67
1, 306600, Note_on_c, 0, 68, 79
1, 306600, Note_on_c, 0, 40, 53
1, 306600, Note_on_c, 0, 52, 63
1, 306690, Note_on_c, 0, 52, 0
1, 306690, Note_on_c, 0, 40, 0
1, 306714, Note_on_c, 0, 56, 0
1, 306714, Note_on_c, 0, 63, 0
1, 306714, Note_on_c, 0, 60, 0
1, 306714, Note_on_c, 0, 68, 0
1, 306720, Tempo, 439560
1, 306720, Note_on_c, 0, 63, 67
1, 306720, Note_on_c, 0, 60, 67
1, 306720, Note_on_c, 0, 56, 67
1, 306720, Note_on_c, 0, 68, 79
1, 306720, Note_on_c, 0, 41, 58
1, 306720, Note_on_c, 0, 53, 69
1, 306840, Note_on_c, 0, 53, 0
1, 306840, Note_on_c, 0, 41, 0
1, 306960, Tempo, 452830
1, 306960, Note_on_c, 0, 42, 64
1, 306960, Note_on_c, 0, 54, 68
1, 307080, Note_on_c, 0, 54, 0
1, 307080, Note_on_c, 0, 42, 0
1, 307200, Note_on_c, 0, 68, 0
1, 307200, Note_on_c, 0, 63, 0
1, 307200, Note_on_c, 0, 60, 0
1, 307200, Note_on_c, 0, 56, 0
1, 307200, Note_on_c, 0, 59, 73
1, 307200, Note_on_c, 0, 62, 73
1, 307200, Note_on_c, 0, 67, 87
1, 307200, Note_on_c, 0, 43, 58
1, 307200, Note_on_c, 0, 47, 58
1, 307200, Note_on_c, 0, 50, 58
1, 307200, Note_on_c, 0, 55, 69
1, 307640, Tempo, 441176
1, 307675, Note_on_c, 0, 55, 0
1, 307675, Note_on_c, 0, 47, 0
1, 307675, Note_on_c, 0, 43, 0
1, 307675, Note_on_c, 0, 50, 0
1, 307680, Note_on_c, 0, 59, 0
1, 307680, Note_on_c, 0, 67, 0
1, 307680, Note_on_c, 0, 62, 0
1, 307680, Note_on_c, 0, 62, 66
1, 307680, Note_on_c, 0, 74, 78
1, 307680, Note_on_c, 0, 43, 55
1, 307680, Note_on_c, 0, 47, 55
1, 307680, Note_on_c, 0, 50, 55
1, 307680, Note_on_c, 0, 55, 66
1, 307714, Control_c, 0, 64, 127
1, 307720, Tempo, 439560
1, 307760, Tempo, 437956
1, 307770, Note_on_c, 0, 74, 0
1, 307770, Note_on_c, 0, 62, 0
1, 307800, Tempo, 436364
1, 307800, Note_on_c, 0, 63, 68
1, 307800, Note_on_c, 0, 75, 80
1, 307880, Tempo, 434783
1, 307890, Note_on_c, 0, 75, 0
1, 307890, Note_on_c, 0, 63, 0
1, 307908, Note_on_c, 0, 43, 0
1, 307908, Note_on_c, 0, 47, 0
1, 307908, Note_on_c, 0, 55, 0
1, 307908, Note_on_c, 0, 50, 0
1, 307920, Tempo, 433213
1, 307920, Note_on_c, 0, 65, 70
1, 307920, Note_on_c, 0, 77, 82
1, 307920, Note_on_c, 0, 43, 55
1, 307920, Note_on_c, 0, 47, 55
1, 307920, Note_on_c, 0, 50, 55
1, 307920, Note_on_c, 0, 55, 66
1, 307930, Control_c, 0, 64, 0
1, 307960, Tempo, 431655
1, 307971, Control_c, 0, 64, 127
1, 308010, Note_on_c, 0, 77, 0
1, 308010, Note_on_c, 0, 65, 0
1, 308040, Tempo, 430108
1, 308040, Note_on_c, 0, 67, 72
1, 308040, Note_on_c, 0, 79, 86
1, 308080, Tempo, 428571
1, 308120, Tempo, 427046
1, 308130, Note_on_c, 0, 79, 0
1, 308130, Note_on_c, 0, 67, 0
1, 308148, Note_on_c, 0, 43, 0
1, 308148, Note_on_c, 0, 47, 0
1, 308148, Note_on_c, 0, 55, 0
1, 308148, Note_on_c, 0, 50, 0
1, 308160, Tempo, 441176
1, 308160, Note_on_c, 0, 68, 74
1, 308160, Note_on_c, 0, 80, 88
1, 308160, Note_on_c, 0, 36, 58
1, 308160, Note_on_c, 0, 39, 58
1, 308160, Note_on_c, 0, 44, 58
1, 308160, Note_on_c, 0, 48, 69
1, 308169, Control_c, 0, 64, 0
1, 308635, Note_on_c, 0, 48, 0
1, 308635, Note_on_c, 0, 80, 0
1, 308635, Note_on_c, 0, 36, 0
1, 308635, Note_on_c, 0, 68, 0
1, 308635, Note_on_c, 0, 44, 0
1, 308635, Note_on_c, 0, 39, 0
1, 308640, Tempo, 446097
1, 308640, Note_on_c, 0, 72, 68
1, 308640, Note_on_c, 0, 75, 68
1, 308640, Note_on_c, 0, 80, 80
1, 308640, Note_on_c, 0, 36, 57
1, 308640, Note_on_c, 0, 48, 68
1, 308720, Tempo, 444444
1, 308730, Note_on_c, 0, 48, 0
1, 308730, Note_on_c, 0, 36, 0
1, 308760, Note_on_c, 0, 38, 60
1, 308760, Note_on_c, 0, 50, 72
1, 308800, Tempo, 442804
1, 308850, Note_on_c, 0, 50, 0
1, 308850, Note_on_c, 0, 38, 0
1, 308880, Tempo, 441176
1, 308880, Note_on_c, 0, 80, 0
1, 308880, Note_on_c, 0, 75, 0
1, 308880, Note_on_c, 0, 72, 0
1, 308880, Note_on_c, 0, 72, 66
1, 308880, Note_on_c, 0, 75, 66
1, 308880, Note_on_c, 0, 80, 78
1, 308880, Note_on_c, 0, 39, 63
1, 308880, Note_on_c, 0, 51, 75
1, 308960, Tempo, 439560
1, 308970, Note_on_c, 0, 51, 0
1, 308970, Note_on_c, 0, 39, 0
1, 309000, Tempo, 474308
1, 309000, Note_on_c, 0, 41, 67
1, 309000, Note_on_c, 0, 53, 78
1, 309090, Note_on_c, 0, 53, 0
1, 309090, Note_on_c, 0, 41, 0
1, 309120, Tempo, 454545
1, 309120, Note_on_c, 0, 80, 0
1, 309120, Note_on_c, 0, 75, 0
1, 309120, Note_on_c, 0, 72, 0
1, 309120, Note_on_c, 0, 71, 73
1, 309120, Note_on_c, 0, 74, 73
1, 309120, Note_on_c, 0, 79, 87
1, 309120, Note_on_c, 0, 43, 58
1, 309120, Note_on_c, 0, 55, 69
1, 309560, Tempo, 441176
1, 309595, Note_on_c, 0, 55, 0
1, 309595, Note_on_c, 0, 79, 0
1, 309595, Note_on_c, 0, 71, 0
1, 309595, Note_on_c, 0, 74, 0
1, 309595, Note_on_c, 0, 43, 0
1, 309600, Note_on_c, 0, 74, 66
1, 309600, Note_on_c, 0, 86, 78
1, 309600, Note_on_c, 0, 55, 55
1, 309600, Note_on_c, 0, 59, 55
1, 309600, Note_on_c, 0, 62, 55
1, 309600, Note_on_c, 0, 67, 66
1, 309629, Control_c, 0, 64, 127
1, 309640, Tempo, 439560
1, 309680, Tempo, 437956
1, 309690, Note_on_c, 0, 86, 0
1, 309690, Note_on_c, 0, 74, 0
1, 309720, Tempo, 436364
1, 309720, Note_on_c, 0, 75, 68
1, 309720, Note_on_c, 0, 87, 80
1, 309800, Tempo, 434783
1, 309810, Note_on_c, 0, 87, 0
1, 309810, Note_on_c, 0, 75, 0
1, 309828, Note_on_c, 0, 55, 0
1, 309828, Note_on_c, 0, 59, 0
1, 309828, Note_on_c, 0, 67, 0
1, 309828, Note_on_c, 0, 62, 0
1, 309840, Tempo, 433213
1, 309840, Note_on_c, 0, 77, 70
1, 309840, Note_on_c, 0, 89, 82
1, 309840, Note_on_c, 0, 55, 55
1, 309840, Note_on_c, 0, 59, 55
1, 309840, Note_on_c, 0, 62, 55
1, 309840, Note_on_c, 0, 67, 66
1, 309850, Control_c, 0, 64, 0
1, 309880, Tempo, 431655
1, 309903, Control_c, 0, 64, 127
1, 309930, Note_on_c, 0, 89, 0
1, 309930, Note_on_c, 0, 77, 0
1, 309960, Tempo, 430108
1, 309960, Note_on_c, 0, 79, 72
1, 309960, Note_on_c, 0, 91, 86
1, 310000, Tempo, 428571
1, 310040, Tempo, 427046
1, 310050, Note_on_c, 0, 91, 0
1, 310050, Note_on_c, 0, 79, 0
1, 310068, Note_on_c, 0, 55, 0
1, 310068, Note_on_c, 0, 59, 0
1, 310068, Note_on_c, 0, 67, 0
1, 310068, Note_on_c, 0, 62, 0
1, 310080, Tempo, 441176
1, 310080, Note_on_c, 0, 80, 74
1, 310080, Note_on_c, 0, 92, 88
1, 310080, Note_on_c, 0, 48, 58
1, 310080, Note_on_c, 0, 51, 58
1, 310080, Note_on_c, 0, 56, 58
1, 310080, Note_on_c, 0, 60, 69
1, 310090, Control_c, 0, 64, 0
1, 310560, Tempo, 446097
1, 310560, Note_on_c, 0, 60, 0
1, 310560, Note_on_c, 0, 92, 0
1, 310560, Note_on_c, 0, 48, 0
1, 310560, Note_on_c, 0, 80, 0
1, 310560, Note_on_c, 0, 56, 0
1, 310560, Note_on_c, 0, 51, 0
1, 310560, Note_on_c, 0, 84, 68
1, 310560, Note_on_c, 0, 87, 68
1, 310560, Note_on_c, 0, 92, 80
1, 310560, Note_on_c, 0, 48, 57
1, 310560, Note_on_c, 0, 60, 68
1, 310640, Tempo, 444444
1, 310650, Note_on_c, 0, 60, 0
1, 310650, Note_on_c, 0, 48, 0
1, 310680, Note_on_c, 0, 50, 60
1, 310680, Note_on_c, 0, 62, 72
1, 310720, Tempo, 442804
1, 310770, Note_on_c, 0, 62, 0
1, 310770, Note_on_c, 0, 50, 0
1, 310800, Tempo, 441176
1, 310800, Note_on_c, 0, 92, 0
1, 310800, Note_on_c, 0, 87, 0
1, 310800, Note_on_c, 0, 84, 0
1, 310800, Note_on_c, 0, 84, 66
1, 310800, Note_on_c, 0, 87, 66
1, 310800, Note_on_c, 0, 92, 78
1, 310800, Note_on_c, 0, 51, 63
1, 310800, Note_on_c, 0, 63, 75
1, 310880, Tempo, 439560
1, 310890, Note_on_c, 0, 63, 0
1, 310890, Note_on_c, 0, 51, 0
1, 310920, Tempo, 472441
1, 310920, Note_on_c, 0, 53, 67
1, 310920, Note_on_c, 0, 65, 78
1, 311010, Note_on_c, 0, 65, 0
1, 311010, Note_on_c, 0, 53, 0
1, 311020, Tempo, 456274
1, 311040, Note_on_c, 0, 92, 0
1, 311040, Note_on_c, 0, 87, 0
1, 311040, Note_on_c, 0, 84, 0
1, 311040, Note_on_c, 0, 74, 66
1, 311040, Note_on_c, 0, 86, 78
1, 311040, Note_on_c, 0, 55, 55
1, 311040, Note_on_c, 0, 59, 55
1, 311040, Note_on_c, 0, 62, 55
1, 311040, Note_on_c, 0, 67, 66
1, 311069, Control_c, 0, 64, 127
1, 311080, Tempo, 454545
1, 311120, Tempo, 452830
1, 311130, Note_on_c, 0, 86, 0
1, 311130, Note_on_c, 0, 74, 0
1, 311160, Tempo, 451128
1, 311160, Note_on_c, 0, 75, 68
1, 311160, Note_on_c, 0, 87, 80
1, 311200, Tempo, 449438
1, 311240, Tempo, 447761
1, 311250, Note_on_c, 0, 87, 0
1, 311250, Note_on_c, 0, 75, 0
1, 311280, Note_on_c, 0, 77, 70
1, 311280, Note_on_c, 0, 89, 82
1, 311300, Tempo, 446097
1, 311340, Tempo, 444444
1, 311370, Note_on_c, 0, 89, 0
1, 311370, Note_on_c, 0, 77, 0
1, 311380, Tempo, 442804
1, 311400, Tempo, 491803
1, 311400, Note_on_c, 0, 79, 72
1, 311400, Note_on_c, 0, 91, 86
1, 311490, Note_on_c, 0, 91, 0
1, 311490, Note_on_c, 0, 79, 0
1, 311520, Tempo, 456274
1, 311520, Note_on_c, 0, 55, 0
1, 311520, Note_on_c, 0, 59, 0
1, 311520, Note_on_c, 0, 67, 0
1, 311520, Note_on_c, 0, 62, 0
1, 311520, Note_on_c, 0, 87, 74
1, 311520, Note_on_c, 0, 84, 74
1, 311520, Note_on_c, 0, 80, 74
1, 311520, Note_on_c, 0, 92, 88
1, 311520, Note_on_c, 0, 48, 57
1, 311520, Note_on_c, 0, 60, 68
1, 311540, Control_c, 0, 64, 0
1, 311580, Tempo, 454545
1, 311610, Note_on_c, 0, 60, 0
1, 311610, Note_on_c, 0, 48, 0
1, 311620, Tempo, 452830
1, 311640, Note_on_c, 0, 50, 60
1, 311640, Note_on_c, 0, 62, 72
1, 311680, Tempo, 451128
1, 311720, Tempo, 449438
1, 311730, Note_on_c, 0, 62, 0
1, 311730, Note_on_c, 0, 50, 0
1, 311760, Tempo, 447761
1, 311760, Note_on_c, 0, 51, 63
1, 311760, Note_on_c, 0, 63, 75
1, 311820, Tempo, 446097
1, 311850, Note_on_c, 0, 63, 0
1, 311850, Note_on_c, 0, 51, 0
1, 311860, Tempo, 444444
1, 311880, Tempo, 485830
1, 311880, Note_on_c, 0, 53, 67
1, 311880, Note_on_c, 0, 65, 78
1, 311970, Note_on_c, 0, 65, 0
1, 311970, Note_on_c, 0, 53, 0
1, 312000, Tempo, 454545
1, 312000, Note_on_c, 0, 92, 0
1, 312000, Note_on_c, 0, 87, 0
1, 312000, Note_on_c, 0, 84, 0
1, 312000, Note_on_c, 0, 80, 0
1, 312000, Note_on_c, 0, 74, 66
1, 312000, Note_on_c, 0, 86, 78
1, 312000, Note_on_c, 0, 55, 55
1, 312000, Note_on_c, 0, 59, 55
1, 312000, Note_on_c, 0, 62, 55
1, 312000, Note_on_c, 0, 67, 66
1, 312020, Control_c, 0, 64, 127
1, 312040, Tempo, 452830
1, 312080, Tempo, 451128
1, 312090, Note_on_c, 0, 86, 0
1, 312090, Note_on_c, 0, 74, 0
1, 312120, Tempo, 449438
1, 312120, Note_on_c, 0, 75, 68
1, 312120, Note_on_c, 0, 87, 80
1, 312160, Tempo, 447761
1, 312200, Tempo, 446097
1, 312210, Note_on_c, 0, 87, 0
1, 312210, Note_on_c, 0, 75, 0
1, 312240, Tempo, 444444
1, 312240, Note_on_c, 0, 77, 70
1, 312240, Note_on_c, 0, 89, 82
1, 312280, Tempo, 442804
1, 312320, Tempo, 441176
1, 312330, Note_on_c, 0, 89, 0
1, 312330, Note_on_c, 0, 77, 0
1, 312360, Tempo, 483871
1, 312360, Note_on_c, 0, 79, 72
1, 312360, Note_on_c, 0, 91, 86
1, 312450, Note_on_c, 0, 91, 0
1, 312450, Note_on_c, 0, 79, 0
1, 312480, Tempo, 452830
1, 312480, Note_on_c, 0, 55, 0
1, 312480, Note_on_c, 0, 59, 0
1, 312480, Note_on_c, 0, 67, 0
1, 312480, Note_on_c, 0, 62, 0
1, 312480, Note_on_c, 0, 87, 74
1, 312480, Note_on_c, 0, 84, 74
1, 312480, Note_on_c, 0, 80, 74
1, 312480, Note_on_c, 0, 92, 88
1, 312480, Note_on_c, 0, 48, 57
1, 312480, Note_on_c, 0, 60, 68
1, 312490, Control_c, 0, 64, 0
1, 312540, Tempo, 451128
1, 312570, Note_on_c, 0, 60, 0
1, 312570, Note_on_c, 0, 48, 0
1, 312600, Tempo, 449438
1, 312600, Note_on_c, 0, 50, 60
1, 312600, Note_on_c, 0, 62, 72
1, 312640, Tempo, 447761
1, 312690, Note_on_c, 0, 62, 0
1, 312690, Note_on_c, 0, 50, 0
1, 312700, Tempo, 446097
1, 312720, Note_on_c, 0, 51, 63
1, 312720, Note_on_c, 0, 63, 75
1, 312740, Tempo, 444444
1, 312800, Tempo, 442804
1, 312810, Note_on_c, 0, 63, 0
1, 312810, Note_on_c, 0, 51, 0
1, 312840, Tempo, 487805
1, 312840, Note_on_c, 0, 53, 67
1, 312840, Note_on_c, 0, 65, 78
1, 312930, Note_on_c, 0, 65, 0
1, 312930, Note_on_c, 0, 53, 0
1, 312960, Tempo, 458015
1, 312960, Note_on_c, 0, 92, 0
1, 312960, Note_on_c, 0, 87, 0
1, 312960, Note_on_c, 0, 84, 0
1, 312960, Note_on_c, 0, 80, 0
1, 312960, Note_on_c, 0, 74, 78
1, 312960, Note_on_c, 0, 55, 55
1, 312960, Note_on_c, 0, 59, 55
1, 312960, Note_on_c, 0, 62, 55
1, 312960, Note_on_c, 0, 67, 66
1, 312994, Control_c, 0, 64, 127
1, 313012, Tempo, 456274
1, 313040, Tempo, 452830
1, 313050, Note_on_c, 0, 74, 0
1, 313080, Tempo, 451128
1, 313080, Note_on_c, 0, 75, 80
1, 313120, Tempo, 449438
1, 313160, Tempo, 447761
1, 313170, Note_on_c, 0, 75, 0
1, 313200, Note_on_c, 0, 77, 82
1, 313220, Tempo, 446097
1, 313260, Tempo, 444444
1, 313290, Note_on_c, 0, 77, 0
1, 313300, Tempo, 442804
1, 313320, Tempo, 491803
1, 313320, Note_on_c, 0, 79, 87
1, 313410, Note_on_c, 0, 79, 0
1, 313440, Tempo, 483871
1, 313440, Note_on_c, 0, 67, 0
1, 313440, Note_on_c, 0, 55, 0
1, 313440, Note_on_c, 0, 59, 0
1, 313440, Note_on_c, 0, 62, 0
1, 313440, Note_on_c, 0, 75, 76
1, 313440, Note_on_c, 0, 72, 76
1, 313440, Note_on_c, 0, 68, 76
1, 313440, Note_on_c, 0, 80, 90
1, 313440, Note_on_c, 0, 36, 58
1, 313440, Note_on_c, 0, 48, 69
1, 313449, Control_c, 0, 64, 0
1, 313480, Tempo, 481928
1, 313504, Tempo, 480000
1, 313530, Note_on_c, 0, 48, 0
1, 313530, Note_on_c, 0, 36, 0
1, 313544, Tempo, 478088
1, 313560, Note_on_c, 0, 38, 63
1, 313560, Note_on_c, 0, 50, 74
1, 313572, Tempo, 476190
1, 313600, Tempo, 474308
1, 313640, Tempo, 472441
1, 313650, Note_on_c, 0, 50, 0
1, 313650, Note_on_c, 0, 38, 0
1, 313664, Tempo, 470588
1, 313680, Note_on_c, 0, 39, 66
1, 313680, Note_on_c, 0, 51, 78
1, 313692, Tempo, 468750
1, 313732, Tempo, 466926
1, 313760, Tempo, 465116
1, 313770, Note_on_c, 0, 51, 0
1, 313770, Note_on_c, 0, 39, 0
1, 313784, Tempo, 463320
1, 313800, Tempo, 552995
1, 313800, Note_on_c, 0, 41, 70
1, 313800, Note_on_c, 0, 53, 82
1, 313890, Note_on_c, 0, 53, 0
1, 313890, Note_on_c, 0, 41, 0
1, 313920, Tempo, 512821
1, 313920, Note_on_c, 0, 80, 0
1, 313920, Note_on_c, 0, 75, 0
1, 313920, Note_on_c, 0, 72, 0
1, 313920, Note_on_c, 0, 68, 0
1, 313920, Note_on_c, 0, 62, 70
1, 313920, Note_on_c, 0, 74, 84
1, 313920, Note_on_c, 0, 43, 58
1, 313920, Note_on_c, 0, 47, 58
1, 313920, Note_on_c, 0, 50, 58
1, 313920, Note_on_c, 0, 55, 70
1, 313960, Tempo, 510638
1, 313984, Tempo, 508475
1, 314010, Note_on_c, 0, 74, 0
1, 314010, Note_on_c, 0, 62, 0
1, 314012, Tempo, 506329
1, 314017, Control_c, 0, 64, 127
1, 314040, Tempo, 504202
1, 314040, Note_on_c, 0, 63, 73
1, 314040, Note_on_c, 0, 75, 87
1, 314080, Tempo, 502092
1, 314104, Tempo, 500000
1, 314130, Note_on_c, 0, 75, 0
1, 314130, Note_on_c, 0, 63, 0
1, 314132, Tempo, 497925
1, 314160, Tempo, 495868
1, 314160, Note_on_c, 0, 65, 76
1, 314160, Note_on_c, 0, 77, 90
1, 314200, Tempo, 493827
1, 314224, Tempo, 491803
1, 314250, Note_on_c, 0, 77, 0
1, 314250, Note_on_c, 0, 65, 0
1, 314252, Tempo, 489796
1, 314280, Tempo, 563380
1, 314280, Note_on_c, 0, 67, 78
1, 314280, Note_on_c, 0, 79, 94
1, 314370, Note_on_c, 0, 79, 0
1, 314370, Note_on_c, 0, 67, 0
1, 314400, Tempo, 517241
1, 314400, Note_on_c, 0, 43, 0
1, 314400, Note_on_c, 0, 47, 0
1, 314400, Note_on_c, 0, 55, 0
1, 314400, Note_on_c, 0, 50, 0
1, 314400, Note_on_c, 0, 75, 81
1, 314400, Note_on_c, 0, 72, 81
1, 314400, Note_on_c, 0, 68, 81
1, 314400, Note_on_c, 0, 80, 97
1, 314400, Note_on_c, 0, 36, 64
1, 314400, Note_on_c, 0, 48, 75
1, 314410, Control_c, 0, 64, 0
1, 314412, Tempo, 515021
1, 314440, Tempo, 517241
1, 314452, Tempo, 519481
1, 314469, Control_c, 0, 64, 127
1, 314480, Tempo, 521739
1, 314490, Note_on_c, 0, 48, 0
1, 314490, Note_on_c, 0, 36, 0
1, 314492, Tempo, 524017
1, 314520, Tempo, 526316
1, 314520, Note_on_c, 0, 38, 67
1, 314520, Note_on_c, 0, 50, 80
1, 314532, Tempo, 528634
1, 314560, Tempo, 530973
1, 314572, Tempo, 533333
1, 314600, Tempo, 535714
1, 314610, Note_on_c, 0, 50, 0
1, 314610, Note_on_c, 0, 38, 0
1, 314612, Tempo, 538117
1, 314640, Tempo, 540541
1, 314640, Note_on_c, 0, 39, 70
1, 314640, Note_on_c, 0, 51, 85
1, 314652, Tempo, 542986
1, 314680, Tempo, 545455
1, 314692, Tempo, 547945
1, 314720, Tempo, 550459
1, 314730, Note_on_c, 0, 51, 0
1, 314730, Note_on_c, 0, 39, 0
1, 314732, Tempo, 552995
1, 314760, Tempo, 677966
1, 314760, Note_on_c, 0, 41, 75
1, 314760, Note_on_c, 0, 53, 89
1, 314850, Note_on_c, 0, 53, 0
1, 314850, Note_on_c, 0, 41, 0
1, 314880, Tempo, 480000
1, 314880, Note_on_c, 0, 80, 0
1, 314880, Note_on_c, 0, 75, 0
1, 314880, Note_on_c, 0, 72, 0
1, 314880, Note_on_c, 0, 68, 0
1, 314880, Note_on_c, 0, 67, 76
1, 314880, Note_on_c, 0, 71, 76
1, 314880, Note_on_c, 0, 74, 85
1, 314880, Note_on_c, 0, 79, 100
1, 314880, Control_c, 0, 64, 0
1, 314880, Note_on_c, 0, 43, 56
1, 314880, Note_on_c, 0, 47, 56
1, 314880, Note_on_c, 0, 50, 63
1, 314880, Note_on_c, 0, 55, 75
1, 315355, Note_on_c, 0, 55, 0
1, 315355, Note_on_c, 0, 67, 0
1, 315355, Note_on_c, 0, 43, 0
1, 315355, Note_on_c, 0, 71, 0
1, 315355, Note_on_c, 0, 74, 0
1, 315355, Note_on_c, 0, 79, 0
1, 315355, Note_on_c, 0, 47, 0
1, 315355, Note_on_c, 0, 50, 0
1, 315360, Tempo, 472441
1, 315360, Note_on_c, 0, 67, 50
1, 315480, Note_on_c, 0, 67, 0
1, 315600, Tempo, 489796
1, 315600, Note_on_c, 0, 67, 51
1, 315720, Note_on_c, 0, 67, 0
1, 315840, Tempo, 480000
1, 315840, Note_on_c, 0, 67, 53
1, 316315, Note_on_c, 0, 67, 0
1, 316320, Tempo, 476190
1, 316320, Note_on_c, 0, 67, 50
1, 316440, Note_on_c, 0, 67, 0
1, 316560, Tempo, 487805
1, 316560, Note_on_c, 0, 67, 50
1, 316680, Note_on_c, 0, 67, 0
1, 316800, Tempo, 480000
1, 316800, Note_on_c, 0, 67, 53
1, 317275, Note_on_c, 0, 67, 0
1, 317280, Tempo, 474308
1, 317280, Note_on_c, 0, 67, 50
1, 317400, Note_on_c, 0, 67, 0
1, 317520, Tempo, 485830
1, 317520, Note_on_c, 0, 67, 50
1, 317640, Note_on_c, 0, 67, 0
1, 317760, Tempo, 480000
1, 317760, Note_on_c, 0, 67, 53
1, 318235, Note_on_c, 0, 67, 0
1, 318240, Tempo, 476190
1, 318240, Note_on_c, 0, 67, 49
1, 318360, Note_on_c, 0, 67, 0
1, 318480, Tempo, 483871
1, 318480, Note_on_c, 0, 67, 49
1, 318600, Note_on_c, 0, 67, 0
1, 318720, Tempo, 480000
1, 318720, Note_on_c, 0, 68, 76
1, 318720, Note_on_c, 0, 71, 76
1, 318720, Note_on_c, 0, 74, 85
1, 318720, Note_on_c, 0, 80, 100
1, 318720, Note_on_c, 0, 41, 56
1, 318720, Note_on_c, 0, 47, 56
1, 318720, Note_on_c, 0, 50, 63
1, 318720, Note_on_c, 0, 53, 75
1, 319195, Note_on_c, 0, 53, 0
1, 319195, Note_on_c, 0, 68, 0
1, 319195, Note_on_c, 0, 41, 0
1, 319195, Note_on_c, 0, 71, 0
1, 319195, Note_on_c, 0, 74, 0
1, 319195, Note_on_c, 0, 80, 0
1, 319195, Note_on_c, 0, 47, 0
1, 319195, Note_on_c, 0, 50, 0
1, 319200, Note_on_c, 0, 68, 51
1, 319240, Tempo, 474308
1, 319320, Note_on_c, 0, 68, 0
1, 319440, Tempo, 483871
1, 319440, Note_on_c, 0, 68, 52
1, 319560, Note_on_c, 0, 68, 0
1, 319680, Tempo, 480000
1, 319680, Note_on_c, 0, 68, 53
1, 320155, Note_on_c, 0, 68, 0
1, 320160, Tempo, 458015
1, 320160, Note_on_c, 0, 68, 41
1, 320160, Note_on_c, 0, 71, 49
1, 320220, Note_on_c, 0, 71, 0
1, 320220, Note_on_c, 0, 68, 0
1, 320400, Tempo, 517241
1, 320400, Note_on_c, 0, 68, 42
1, 320400, Note_on_c, 0, 71, 50
1, 320460, Note_on_c, 0, 71, 0
1, 320460, Note_on_c, 0, 68, 0
1, 320640, Tempo, 480000
1, 320640, Note_on_c, 0, 68, 45
1, 320640, Note_on_c, 0, 71, 53
1, 321115, Note_on_c, 0, 71, 0
1, 321115, Note_on_c, 0, 68, 0
1, 321120, Tempo, 465116
1, 321120, Note_on_c, 0, 68, 40
1, 321120, Note_on_c, 0, 71, 48
1, 321180, Note_on_c, 0, 71, 0
1, 321180, Note_on_c, 0, 68, 0
1, 321360, Tempo, 508475
1, 321360, Note_on_c, 0, 68, 40
1, 321360, Note_on_c, 0, 71, 48
1, 321420, Note_on_c, 0, 71, 0
1, 321420, Note_on_c, 0, 68, 0
1, 321600, Tempo, 480000
1, 321600, Note_on_c, 0, 68, 45
1, 321600, Note_on_c, 0, 71, 53
1, 322075, Note_on_c, 0, 71, 0
1, 322075, Note_on_c, 0, 68, 0
1, 322080, Tempo, 461538
1, 322080, Note_on_c, 0, 68, 40
1, 322080, Note_on_c, 0, 71, 48
1, 322140, Note_on_c, 0, 71, 0
1, 322140, Note_on_c, 0, 68, 0
1, 322320, Tempo, 512821
1, 322320, Note_on_c, 0, 68, 40
1, 322320, Note_on_c, 0, 71, 48
1, 322380, Note_on_c, 0, 71, 0
1, 322380, Note_on_c, 0, 68, 0
1, 322560, Tempo, 480000
1, 322560, Note_on_c, 0, 68, 76
1, 322560, Note_on_c, 0, 71, 76
1, 322560, Note_on_c, 0, 73, 85
1, 322560, Note_on_c, 0, 80, 100
1, 322560, Note_on_c, 0, 41, 56
1, 322560, Note_on_c, 0, 47, 56
1, 322560, Note_on_c, 0, 49, 63
1, 322560, Note_on_c, 0, 53, 75
1, 323035, Note_on_c, 0, 53, 0
1, 323035, Note_on_c, 0, 68, 0
1, 323035, Note_on_c, 0, 41, 0
1, 323035, Note_on_c, 0, 71, 0
1, 323035, Note_on_c, 0, 73, 0
1, 323035, Note_on_c, 0, 80, 0
1, 323035, Note_on_c, 0, 47, 0
1, 323035, Note_on_c, 0, 49, 0
1, 323040, Tempo, 465116
1, 323040, Note_on_c, 0, 68, 41
1, 323040, Note_on_c, 0, 71, 49
1, 323100, Note_on_c, 0, 71, 0
1, 323100, Note_on_c, 0, 68, 0
1, 323280, Tempo, 519481
1, 323280, Note_on_c, 0, 68, 41
1, 323280, Note_on_c, 0, 71, 49
1, 323340, Note_on_c, 0, 71, 0
1, 323340, Note_on_c, 0, 68, 0
1, 323520, Tempo, 480000
1, 323520, Note_on_c, 0, 68, 45
1, 323520, Note_on_c, 0, 71, 45
1, 323520, Note_on_c, 0, 73, 53
1, 323995, Note_on_c, 0, 73, 0
1, 323995, Note_on_c, 0, 71, 0
1, 323995, Note_on_c, 0, 68, 0
1, 324000, Tempo, 466926
1, 324000, Note_on_c, 0, 68, 40
1, 324000, Note_on_c, 0, 71, 40
1, 324000, Note_on_c, 0, 73, 48
1, 324060, Note_on_c, 0, 73, 0
1, 324060, Note_on_c, 0, 71, 0
1, 324060, Note_on_c, 0, 68, 0
1, 324240, Tempo, 500000
1, 324240, Note_on_c, 0, 68, 40
1, 324240, Note_on_c, 0, 71, 40
1, 324240, Note_on_c, 0, 73, 48
1, 324300, Note_on_c, 0, 73, 0
1, 324300, Note_on_c, 0, 71, 0
1, 324300, Note_on_c, 0, 68, 0
1, 324480, Tempo, 480000
1, 324480, Note_on_c, 0, 68, 76
1, 324480, Note_on_c, 0, 71, 76
1, 324480, Note_on_c, 0, 74, 85
1, 324480, Note_on_c, 0, 80, 100
1, 324480, Note_on_c, 0, 42, 56
1, 324480, Note_on_c, 0, 47, 56
1, 324480, Note_on_c, 0, 50, 63
1, 324480, Note_on_c, 0, 54, 75
1, 324955, Note_on_c, 0, 54, 0
1, 324955, Note_on_c, 0, 68, 0
1, 324955, Note_on_c, 0, 42, 0
1, 324955, Note_on_c, 0, 71, 0
1, 324955, Note_on_c, 0, 74, 0
1, 324955, Note_on_c, 0, 80, 0
1, 324955, Note_on_c, 0, 47, 0
1, 324955, Note_on_c, 0, 50, 0
1, 324960, Tempo, 465116
1, 324960, Note_on_c, 0, 68, 41
1, 324960, Note_on_c, 0, 71, 49
1, 325020, Note_on_c, 0, 71, 0
1, 325020, Note_on_c, 0, 68, 0
1, 325200, Tempo, 508475
1, 325200, Note_on_c, 0, 68, 41
1, 325200, Note_on_c, 0, 71, 49
1, 325260, Note_on_c, 0, 71, 0
1, 325260, Note_on_c, 0, 68, 0
1, 325440, Tempo, 480000
1, 325440, Note_on_c, 0, 68, 45
1, 325440, Note_on_c, 0, 71, 45
1, 325440, Note_on_c, 0, 74, 53
1, 325915, Note_on_c, 0, 74, 0
1, 325915, Note_on_c, 0, 71, 0
1, 325915, Note_on_c, 0, 68, 0
1, 325920, Tempo, 466926
1, 325920, Note_on_c, 0, 68, 41
1, 325920, Note_on_c, 0, 71, 41
1, 325920, Note_on_c, 0, 74, 49
1, 325980, Note_on_c, 0, 74, 0
1, 325980, Note_on_c, 0, 71, 0
1, 325980, Note_on_c, 0, 68, 0
1, 326160, Tempo, 493827
1, 326160, Note_on_c, 0, 68, 41
1, 326160, Note_on_c, 0, 71, 41
1, 326160, Note_on_c, 0, 74, 49
1, 326220, Note_on_c, 0, 74, 0
1, 326220, Note_on_c, 0, 71, 0
1, 326220, Note_on_c, 0, 68, 0
1, 326400, Tempo, 480000
1, 326400, Note_on_c, 0, 68, 76
1, 326400, Note_on_c, 0, 71, 76
1, 326400, Note_on_c, 0, 73, 85
1, 326400, Note_on_c, 0, 80, 100
1, 326400, Note_on_c, 0, 41, 56
1, 326400, Note_on_c, 0, 44, 56
1, 326400, Note_on_c, 0, 49, 63
1, 326400, Note_on_c, 0, 53, 75
1, 326875, Note_on_c, 0, 53, 0
1, 326875, Note_on_c, 0, 68, 0
1, 326875, Note_on_c, 0, 41, 0
1, 326875, Note_on_c, 0, 71, 0
1, 326875, Note_on_c, 0, 73, 0
1, 326875, Note_on_c, 0, 80, 0
1, 326875, Note_on_c, 0, 44, 0
1, 326875, Note_on_c, 0, 49, 0
1, 326880, Tempo, 468750
1, 326880, Note_on_c, 0, 68, 35
1, 326880, Note_on_c, 0, 71, 42
1, 326940, Note_on_c, 0, 71, 0
1, 326940, Note_on_c, 0, 68, 0
1, 327120, Tempo, 504202
1, 327120, Note_on_c, 0, 68, 35
1, 327120, Note_on_c, 0, 71, 42
1, 327180, Note_on_c, 0, 71, 0
1, 327180, Note_on_c, 0, 68, 0
1, 327360, Tempo, 480000
1, 327360, Note_on_c, 0, 68, 39
1, 327360, Note_on_c, 0, 71, 39
1, 327360, Note_on_c, 0, 73, 47
1, 327835, Note_on_c, 0, 73, 0
1, 327835, Note_on_c, 0, 71, 0
1, 327835, Note_on_c, 0, 68, 0
1, 327840, Tempo, 468750
1, 327840, Note_on_c, 0, 68, 35
1, 327840, Note_on_c, 0, 71, 35
1, 327840, Note_on_c, 0, 73, 42
1, 327900, Note_on_c, 0, 73, 0
1, 327900, Note_on_c, 0, 71, 0
1, 327900, Note_on_c, 0, 68, 0
1, 328080, Tempo, 502092
1, 328080, Note_on_c, 0, 68, 35
1, 328080, Note_on_c, 0, 71, 35
1, 328080, Note_on_c, 0, 73, 42
1, 328140, Note_on_c, 0, 73, 0
1, 328140, Note_on_c, 0, 71, 0
1, 328140, Note_on_c, 0, 68, 0
1, 328320, Tempo, 480000
1, 328320, Note_on_c, 0, 68, 76
1, 328320, Note_on_c, 0, 71, 76
1, 328320, Note_on_c, 0, 74, 85
1, 328320, Note_on_c, 0, 80, 100
1, 328320, Note_on_c, 0, 42, 56
1, 328320, Note_on_c, 0, 47, 56
1, 328320, Note_on_c, 0, 50, 63
1, 328320, Note_on_c, 0, 54, 75
1, 328795, Note_on_c, 0, 54, 0
1, 328795, Note_on_c, 0, 68, 0
1, 328795, Note_on_c, 0, 42, 0
1, 328795, Note_on_c, 0, 71, 0
1, 328795, Note_on_c, 0, 74, 0
1, 328795, Note_on_c, 0, 80, 0
1, 328795, Note_on_c, 0, 47, 0
1, 328795, Note_on_c, 0, 50, 0
1, 328800, Tempo, 468750
1, 328800, Note_on_c, 0, 68, 40
1, 328800, Note_on_c, 0, 71, 40
1, 328860, Note_on_c, 0, 71, 0
1, 328860, Note_on_c, 0, 68, 0
1, 329040, Tempo, 497925
1, 329040, Note_on_c, 0, 68, 40
1, 329040, Note_on_c, 0, 71, 40
1, 329100, Note_on_c, 0, 71, 0
1, 329100, Note_on_c, 0, 68, 0
1, 329280, Tempo, 480000
1, 329280, Note_on_c, 0, 68, 39
1, 329280, Note_on_c, 0, 71, 39
1, 329280, Note_on_c, 0, 74, 46
1, 329755, Note_on_c, 0, 74, 0
1, 329755, Note_on_c, 0, 71, 0
1, 329755, Note_on_c, 0, 68, 0
1, 329760, Tempo, 470588
1, 329760, Note_on_c, 0, 68, 34
1, 329760, Note_on_c, 0, 71, 34
1, 329760, Note_on_c, 0, 74, 40
1, 329820, Note_on_c, 0, 74, 0
1, 329820, Note_on_c, 0, 71, 0
1, 329820, Note_on_c, 0, 68, 0
1, 330000, Tempo, 497925
1, 330000, Note_on_c, 0, 68, 34
1, 330000, Note_on_c, 0, 71, 34
1, 330000, Note_on_c, 0, 74, 41
1, 330060, Note_on_c, 0, 74, 0
1, 330060, Note_on_c, 0, 71, 0
1, 330060, Note_on_c, 0, 68, 0
1, 330240, Tempo, 480000
1, 330240, Note_on_c, 0, 68, 76
1, 330240, Note_on_c, 0, 71, 76
1, 330240, Note_on_c, 0, 74, 85
1, 330240, Note_on_c, 0, 80, 100
1, 330240, Note_on_c, 0, 41, 56
1, 330240, Note_on_c, 0, 47, 56
1, 330240, Note_on_c, 0, 50, 63
1, 330240, Note_on_c, 0, 53, 75
1, 330715, Note_on_c, 0, 53, 0
1, 330715, Note_on_c, 0, 68, 0
1, 330715, Note_on_c, 0, 41, 0
1, 330715, Note_on_c, 0, 71, 0
1, 330715, Note_on_c, 0, 74, 0
1, 330715, Note_on_c, 0, 80, 0
1, 330715, Note_on_c, 0, 47, 0
1, 330715, Note_on_c, 0, 50, 0
1, 330720, Tempo, 468750
1, 330720, Note_on_c, 0, 71, 48
1, 330720, Note_on_c, 0, 74, 48
1, 330780, Note_on_c, 0, 74, 0
1, 330780, Note_on_c, 0, 71, 0
1, 330960, Tempo, 497925
1, 330960, Note_on_c, 0, 71, 48
1, 330960, Note_on_c, 0, 74, 48
1, 331020, Note_on_c, 0, 74, 0
1, 331020, Note_on_c, 0, 71, 0
1, 331200, Tempo, 480000
1, 331200, Note_on_c, 0, 68, 76
1, 331200, Note_on_c, 0, 71, 76
1, 331200, Note_on_c, 0, 73, 85
1, 331200, Note_on_c, 0, 80, 100
1, 331200, Note_on_c, 0, 29, 56
1, 331200, Note_on_c, 0, 41, 75
1, 331675, Note_on_c, 0, 41, 0
1, 331675, Note_on_c, 0, 71, 0
1, 331675, Note_on_c, 0, 73, 0
1, 331675, Note_on_c, 0, 68, 0
1, 331675, Note_on_c, 0, 29, 0
1, 331675, Note_on_c, 0, 80, 0
1, 331680, Tempo, 468750
1, 331680, Note_on_c, 0, 71, 48
1, 331680, Note_on_c, 0, 73, 48
1, 331740, Note_on_c, 0, 73, 0
1, 331740, Note_on_c, 0, 71, 0
1, 331920, Tempo, 497925
1, 331920, Note_on_c, 0, 71, 48
1, 331920, Note_on_c, 0, 73, 48
1, 331980, Note_on_c, 0, 73, 0
1, 331980, Note_on_c, 0, 71, 0
1, 332160, Tempo, 480000
1, 332160, Note_on_c, 0, 68, 71
1, 332160, Note_on_c, 0, 71, 71
1, 332160, Note_on_c, 0, 73, 71
1, 332160, Note_on_c, 0, 80, 85
1, 332160, Note_on_c, 0, 30, 53
1, 332160, Note_on_c, 0, 42, 64
1, 332635, Note_on_c, 0, 42, 0
1, 332635, Note_on_c, 0, 71, 0
1, 332635, Note_on_c, 0, 73, 0
1, 332635, Note_on_c, 0, 68, 0
1, 332635, Note_on_c, 0, 30, 0
1, 332635, Note_on_c, 0, 80, 0
1, 332640, Tempo, 468750
1, 332640, Note_on_c, 0, 71, 48
1, 332640, Note_on_c, 0, 73, 48
1, 332700, Note_on_c, 0, 73, 0
1, 332700, Note_on_c, 0, 71, 0
1, 332880, Tempo, 497925
1, 332880, Note_on_c, 0, 71, 48
1, 332880, Note_on_c, 0, 73, 48
1, 332940, Note_on_c, 0, 73, 0
1, 332940, Note_on_c, 0, 71, 0
1, 333120, Tempo, 480000
1, 333120, Note_on_c, 0, 66, 65
1, 333120, Note_on_c, 0, 69, 65
1, 333120, Note_on_c, 0, 73, 65
1, 333120, Note_on_c, 0, 78, 78
1, 333120, Note_on_c, 0, 33, 49
1, 333120, Note_on_c, 0, 45, 59
1, 333595, Note_on_c, 0, 45, 0
1, 333595, Note_on_c, 0, 69, 0
1, 333595, Note_on_c, 0, 73, 0
1, 333595, Note_on_c, 0, 66, 0
1, 333595, Note_on_c, 0, 33, 0
1, 333595, Note_on_c, 0, 78, 0
1, 333600, Tempo, 468750
1, 333600, Note_on_c, 0, 69, 48
1, 333600, Note_on_c, 0, 73, 48
1, 333660, Note_on_c, 0, 73, 0
1, 333660, Note_on_c, 0, 69, 0
1, 333840, Tempo, 497925
1, 333840, Note_on_c, 0, 69, 48
1, 333840, Note_on_c, 0, 73, 48
1, 333900, Note_on_c, 0, 73, 0
1, 333900, Note_on_c, 0, 69, 0
1, 334080, Tempo, 489796
1, 334080, Note_on_c, 0, 66, 63
1, 334080, Note_on_c, 0, 68, 63
1, 334080, Note_on_c, 0, 73, 63
1, 334080, Note_on_c, 0, 78, 76
1, 334080, Note_on_c, 0, 37, 47
1, 334080, Note_on_c, 0, 49, 57
1, 334555, Note_on_c, 0, 49, 0
1, 334555, Note_on_c, 0, 68, 0
1, 334555, Note_on_c, 0, 73, 0
1, 334555, Note_on_c, 0, 66, 0
1, 334555, Note_on_c, 0, 37, 0
1, 334555, Note_on_c, 0, 78, 0
1, 334560, Tempo, 478088
1, 334560, Note_on_c, 0, 66, 48
1, 334560, Note_on_c, 0, 68, 48
1, 334620, Note_on_c, 0, 68, 0
1, 334620, Note_on_c, 0, 66, 0
1, 334800, Tempo, 519481
1, 334800, Note_on_c, 0, 66, 48
1, 334800, Note_on_c, 0, 68, 48
1, 334860, Note_on_c, 0, 68, 0
1, 334860, Note_on_c, 0, 66, 0
1, 335040, Tempo, 491803
1, 335040, Note_on_c, 0, 64, 61
1, 335040, Note_on_c, 0, 68, 61
1, 335040, Note_on_c, 0, 73, 61
1, 335040, Note_on_c, 0, 76, 73
1, 335040, Note_on_c, 0, 40, 46
1, 335040, Note_on_c, 0, 52, 55
1, 335515, Note_on_c, 0, 52, 0
1, 335515, Note_on_c, 0, 68, 0
1, 335515, Note_on_c, 0, 73, 0
1, 335515, Note_on_c, 0, 64, 0
1, 335515, Note_on_c, 0, 40, 0
1, 335515, Note_on_c, 0, 76, 0
1, 335520, Tempo, 481928
1, 335520, Note_on_c, 0, 64, 48
1, 335520, Note_on_c, 0, 68, 48
1, 335580, Note_on_c, 0, 68, 0
1, 335580, Note_on_c, 0, 64, 0
1, 335760, Tempo, 526316
1, 335760, Note_on_c, 0, 64, 48
1, 335760, Note_on_c, 0, 68, 48
1, 335820, Note_on_c, 0, 68, 0
1, 335820, Note_on_c, 0, 64, 0
1, 336000, Tempo, 500000
1, 336000, Note_on_c, 0, 63, 59
1, 336000, Note_on_c, 0, 68, 59
1, 336000, Note_on_c, 0, 72, 59
1, 336000, Note_on_c, 0, 75, 71
1, 336000, Note_on_c, 0, 44, 44
1, 336000, Note_on_c, 0, 56, 53
1, 336475, Note_on_c, 0, 56, 0
1, 336475, Note_on_c, 0, 68, 0
1, 336475, Note_on_c, 0, 72, 0
1, 336475, Note_on_c, 0, 63, 0
1, 336475, Note_on_c, 0, 44, 0
1, 336475, Note_on_c, 0, 75, 0
1, 336480, Tempo, 489796
1, 336480, Note_on_c, 0, 63, 48
1, 336480, Note_on_c, 0, 72, 48
1, 336540, Note_on_c, 0, 72, 0
1, 336540, Note_on_c, 0, 63, 0
1, 336720, Tempo, 533333
1, 336720, Note_on_c, 0, 63, 48
1, 336720, Note_on_c, 0, 72, 48
1, 336780, Note_on_c, 0, 72, 0
1, 336780, Note_on_c, 0, 63, 0
1, 336960, Tempo, 512821
1, 336960, Note_on_c, 0, 63, 62
1, 336960, Note_on_c, 0, 67, 62
1, 336960, Note_on_c, 0, 73, 62
1, 336960, Note_on_c, 0, 75, 74
1, 336960, Note_on_c, 0, 45, 47
1, 336960, Note_on_c, 0, 57, 56
1, 337435, Note_on_c, 0, 57, 0
1, 337435, Note_on_c, 0, 67, 0
1, 337435, Note_on_c, 0, 73, 0
1, 337435, Note_on_c, 0, 63, 0
1, 337435, Note_on_c, 0, 45, 0
1, 337435, Note_on_c, 0, 75, 0
1, 337440, Tempo, 489796
1, 337440, Note_on_c, 0, 63, 48
1, 337440, Note_on_c, 0, 73, 48
1, 337500, Note_on_c, 0, 73, 0
1, 337500, Note_on_c, 0, 63, 0
1, 337680, Tempo, 533333
1, 337680, Note_on_c, 0, 63, 48
1, 337680, Note_on_c, 0, 73, 48
1, 337740, Note_on_c, 0, 73, 0
1, 337740, Note_on_c, 0, 63, 0
1, 337920, Tempo, 519481
1, 337920, Note_on_c, 0, 63, 59
1, 337920, Note_on_c, 0, 68, 59
1, 337920, Note_on_c, 0, 72, 59
1, 337920, Note_on_c, 0, 75, 71
1, 337920, Note_on_c, 0, 44, 44
1, 337920, Note_on_c, 0, 56, 53
1, 338395, Note_on_c, 0, 56, 0
1, 338395, Note_on_c, 0, 68, 0
1, 338395, Note_on_c, 0, 72, 0
1, 338395, Note_on_c, 0, 63, 0
1, 338395, Note_on_c, 0, 44, 0
1, 338395, Note_on_c, 0, 75, 0
1, 338400, Tempo, 502092
1, 338400, Note_on_c, 0, 60, 32
1, 338400, Note_on_c, 0, 63, 38
1, 338460, Note_on_c, 0, 63, 0
1, 338460, Note_on_c, 0, 60, 0
1, 338640, Tempo, 528634
1, 338640, Note_on_c, 0, 60, 31
1, 338640, Note_on_c, 0, 63, 37
1, 338700, Note_on_c, 0, 63, 0
1, 338700, Note_on_c, 0, 60, 0
1, 338880, Tempo, 517241
1, 338880, Note_on_c, 0, 60, 38
1, 338880, Note_on_c, 0, 63, 45
1, 339355, Note_on_c, 0, 63, 0
1, 339355, Note_on_c, 0, 60, 0
1, 339360, Tempo, 515021
1, 339360, Note_on_c, 0, 60, 31
1, 339360, Note_on_c, 0, 63, 37
1, 339360, Note_on_c, 0, 32, 32
1, 339400, Tempo, 519481
1, 339420, Note_on_c, 0, 63, 0
1, 339420, Note_on_c, 0, 60, 0
1, 339440, Tempo, 524017
1, 339480, Tempo, 528634
1, 339480, Note_on_c, 0, 32, 0
1, 339480, Note_on_c, 0, 36, 35
1, 339520, Tempo, 533333
1, 339560, Tempo, 538117
1, 339600, Tempo, 542986
1, 339600, Note_on_c, 0, 36, 0
1, 339600, Note_on_c, 0, 60, 31
1, 339600, Note_on_c, 0, 63, 37
1, 339600, Note_on_c, 0, 39, 38
1, 339640, Tempo, 547945
1, 339660, Note_on_c, 0, 63, 0
1, 339660, Note_on_c, 0, 60, 0
1, 339680, Tempo, 552995
1, 339720, Tempo, 560748
1, 339720, Note_on_c, 0, 39, 0
1, 339720, Note_on_c, 0, 44, 41
1, 339840, Tempo, 521739
1, 339840, Note_on_c, 0, 44, 0
1, 339840, Note_on_c, 0, 61, 38
1, 339840, Note_on_c, 0, 63, 45
1, 339840, Note_on_c, 0, 45, 44
1, 340080, Note_on_c, 0, 45, 0
1, 340315, Note_on_c, 0, 63, 0
1, 340315, Note_on_c, 0, 61, 0
1, 340320, Tempo, 502092
1, 340320, Note_on_c, 0, 61, 28
1, 340320, Note_on_c, 0, 63, 34
1, 340380, Note_on_c, 0, 63, 0
1, 340380, Note_on_c, 0, 61, 0
1, 340560, Tempo, 526316
1, 340560, Note_on_c, 0, 61, 28
1, 340560, Note_on_c, 0, 63, 33
1, 340620, Note_on_c, 0, 63, 0
1, 340620, Note_on_c, 0, 61, 0
1, 340800, Tempo, 517241
1, 340800, Note_on_c, 0, 61, 33
1, 340800, Note_on_c, 0, 63, 39
1, 341275, Note_on_c, 0, 63, 0
1, 341275, Note_on_c, 0, 61, 0
1, 341280, Tempo, 517241
1, 341280, Note_on_c, 0, 61, 28
1, 341280, Note_on_c, 0, 63, 33
1, 341280, Note_on_c, 0, 31, 27
1, 341320, Tempo, 519481
1, 341340, Note_on_c, 0, 63, 0
1, 341340, Note_on_c, 0, 61, 0
1, 341360, Tempo, 524017
1, 341400, Tempo, 528634
1, 341400, Note_on_c, 0, 31, 0
1, 341400, Note_on_c, 0, 34, 29
1, 341440, Tempo, 530973
1, 341480, Tempo, 535714
1, 341520, Tempo, 540541
1, 341520, Note_on_c, 0, 34, 0
1, 341520, Note_on_c, 0, 61, 27
1, 341520, Note_on_c, 0, 63, 33
1, 341520, Note_on_c, 0, 39, 31
1, 341560, Tempo, 542986
1, 341580, Note_on_c, 0, 63, 0
1, 341580, Note_on_c, 0, 61, 0
1, 341600, Tempo, 547945
1, 341640, Tempo, 552995
1, 341640, Note_on_c, 0, 39, 0
1, 341640, Note_on_c, 0, 43, 34
1, 341760, Tempo, 521739
1, 341760, Note_on_c, 0, 43, 0
1, 341760, Note_on_c, 0, 60, 28
1, 341760, Note_on_c, 0, 63, 34
1, 341760, Note_on_c, 0, 44, 33
1, 342000, Note_on_c, 0, 44, 0
1, 342235, Note_on_c, 0, 63, 0
1, 342235, Note_on_c, 0, 60, 0
1, 342240, Tempo, 502092
1, 342240, Note_on_c, 0, 60, 24
1, 342240, Note_on_c, 0, 63, 28
1, 342300, Note_on_c, 0, 63, 0
1, 342300, Note_on_c, 0, 60, 0
1, 342480, Tempo, 528634
1, 342480, Note_on_c, 0, 60, 23
1, 342480, Note_on_c, 0, 63, 27
1, 342540, Note_on_c, 0, 63, 0
1, 342540, Note_on_c, 0, 60, 0
1, 342720, Tempo, 517241
1, 342720, Note_on_c, 0, 60, 28
1, 342720, Note_on_c, 0, 63, 34
1, 343195, Note_on_c, 0, 63, 0
1, 343195, Note_on_c, 0, 60, 0
1, 343200, Tempo, 515021
1, 343200, Note_on_c, 0, 60, 23
1, 343200, Note_on_c, 0, 63, 27
1, 343200, Note_on_c, 0, 32, 24
1, 343240, Tempo, 519481
1, 343260, Note_on_c, 0, 63, 0
1, 343260, Note_on_c, 0, 60, 0
1, 343280, Tempo, 524017
1, 343320, Tempo, 528634
1, 343320, Note_on_c, 0, 32, 0
1, 343320, Note_on_c, 0, 36, 26
1, 343360, Tempo, 533333
1, 343400, Tempo, 538117
1, 343440, Tempo, 542986
1, 343440, Note_on_c, 0, 36, 0
1, 343440, Note_on_c, 0, 60, 23
1, 343440, Note_on_c, 0, 63, 27
1, 343440, Note_on_c, 0, 39, 28
1, 343480, Tempo, 547945
1, 343500, Note_on_c, 0, 63, 0
1, 343500, Note_on_c, 0, 60, 0
1, 343520, Tempo, 552995
1, 343560, Tempo, 560748
1, 343560, Note_on_c, 0, 39, 0
1, 343560, Note_on_c, 0, 44, 30
1, 343680, Tempo, 521739
1, 343680, Note_on_c, 0, 44, 0
1, 343680, Note_on_c, 0, 61, 28
1, 343680, Note_on_c, 0, 63, 34
1, 343680, Note_on_c, 0, 45, 33
1, 343918, Note_on_c, 0, 45, 0
1, 344155, Note_on_c, 0, 63, 0
1, 344155, Note_on_c, 0, 61, 0
1, 344160, Tempo, 502092
1, 344160, Note_on_c, 0, 61, 22
1, 344160, Note_on_c, 0, 63, 27
1, 344220, Note_on_c, 0, 63, 0
1, 344220, Note_on_c, 0, 61, 0
1, 344400, Tempo, 526316
1, 344400, Note_on_c, 0, 61, 22
1, 344400, Note_on_c, 0, 63, 27
1, 344460, Note_on_c, 0, 63, 0
1, 344460, Note_on_c, 0, 61, 0
1, 344640, Tempo, 517241
1, 344640, Note_on_c, 0, 61, 27
1, 344640, Note_on_c, 0, 63, 32
1, 345115, Note_on_c, 0, 63, 0
1, 345115, Note_on_c, 0, 61, 0
1, 345120, Tempo, 517241
1, 345120, Note_on_c, 0, 61, 24
1, 345120, Note_on_c, 0, 63, 28
1, 345120, Note_on_c, 0, 31, 24
1, 345160, Tempo, 519481
1, 345180, Note_on_c, 0, 63, 0
1, 345180, Note_on_c, 0, 61, 0
1, 345200, Tempo, 524017
1, 345240, Tempo, 528634
1, 345240, Note_on_c, 0, 31, 0
1, 345240, Note_on_c, 0, 34, 26
1, 345280, Tempo, 530973
1, 345320, Tempo, 535714
1, 345360, Tempo, 540541
1, 345360, Note_on_c, 0, 34, 0
1, 345360, Note_on_c, 0, 61, 24
1, 345360, Note_on_c, 0, 63, 28
1, 345360, Note_on_c, 0, 39, 27
1, 345400, Tempo, 542986
1, 345420, Note_on_c, 0, 63, 0
1, 345420, Note_on_c, 0, 61, 0
1, 345440, Tempo, 547945
1, 345480, Tempo, 552995
1, 345480, Note_on_c, 0, 39, 0
1, 345480, Note_on_c, 0, 43, 30
1, 345600, Tempo, 558140
1, 345600, Note_on_c, 0, 43, 0
1, 345600, Note_on_c, 0, 60, 28
1, 345600, Note_on_c, 0, 63, 34
1, 345600, Note_on_c, 0, 44, 33
1, 345838, Note_on_c, 0, 44, 0
1, 346063, Control_c, 0, 64, 127
1, 346075, Note_on_c, 0, 63, 0
1, 346075, Note_on_c, 0, 60, 0
1, 346080, Tempo, 542986
1, 346080, Note_on_c, 0, 56, 23
1, 346080, Note_on_c, 0, 68, 28
1, 346200, Note_on_c, 0, 68, 0
1, 346200, Note_on_c, 0, 56, 0
1, 346320, Tempo, 568720
1, 346320, Note_on_c, 0, 56, 23
1, 346320, Note_on_c, 0, 68, 28
1, 346440, Note_on_c, 0, 68, 0
1, 346440, Note_on_c, 0, 56, 0
1, 346560, Tempo, 555556
1, 346560, Note_on_c, 0, 56, 26
1, 346560, Note_on_c, 0, 68, 31
1, 347040, Tempo, 542986
1, 347040, Note_on_c, 0, 68, 0
1, 347040, Note_on_c, 0, 56, 0
1, 347040, Note_on_c, 0, 44, 23
1, 347040, Note_on_c, 0, 48, 28
1, 347160, Note_on_c, 0, 48, 0
1, 347160, Note_on_c, 0, 44, 0
1, 347280, Tempo, 574163
1, 347280, Note_on_c, 0, 44, 23
1, 347280, Note_on_c, 0, 48, 28
1, 347400, Note_on_c, 0, 48, 0
1, 347400, Note_on_c, 0, 44, 0
1, 347520, Tempo, 555556
1, 347520, Note_on_c, 0, 44, 28
1, 347520, Note_on_c, 0, 48, 33
1, 348000, Tempo, 547945
1, 348000, Note_on_c, 0, 48, 0
1, 348000, Note_on_c, 0, 44, 0
1, 348000, Note_on_c, 0, 56, 23
1, 348000, Note_on_c, 0, 68, 28
1, 348120, Note_on_c, 0, 68, 0
1, 348120, Note_on_c, 0, 56, 0
1, 348240, Tempo, 574163
1, 348240, Note_on_c, 0, 56, 23
1, 348240, Note_on_c, 0, 68, 28
1, 348360, Note_on_c, 0, 68, 0
1, 348360, Note_on_c, 0, 56, 0
1, 348480, Tempo, 555556
1, 348480, Note_on_c, 0, 56, 26
1, 348480, Note_on_c, 0, 68, 31
1, 348960, Tempo, 547945
1, 348960, Note_on_c, 0, 68, 0
1, 348960, Note_on_c, 0, 56, 0
1, 348960, Note_on_c, 0, 44, 23
1, 348960, Note_on_c, 0, 48, 28
1, 349080, Note_on_c, 0, 48, 0
1, 349080, Note_on_c, 0, 44, 0
1, 349200, Tempo, 576923
1, 349200, Note_on_c, 0, 44, 23
1, 349200, Note_on_c, 0, 48, 28
1, 349320, Note_on_c, 0, 48, 0
1, 349320, Note_on_c, 0, 44, 0
1, 349440, Tempo, 560748
1, 349440, Note_on_c, 0, 44, 28
1, 349440, Note_on_c, 0, 48, 33
1, 349920, Tempo, 550459
1, 349920, Note_on_c, 0, 48, 0
1, 349920, Note_on_c, 0, 44, 0
1, 349920, Note_on_c, 0, 56, 23
1, 349920, Note_on_c, 0, 68, 28
1, 350040, Note_on_c, 0, 68, 0
1, 350040, Note_on_c, 0, 56, 0
1, 350160, Tempo, 576923
1, 350160, Note_on_c, 0, 56, 23
1, 350160, Note_on_c, 0, 68, 28
1, 350280, Note_on_c, 0, 68, 0
1, 350280, Note_on_c, 0, 56, 0
1, 350400, Tempo, 552995
1, 350400, Note_on_c, 0, 56, 26
1, 350400, Note_on_c, 0, 68, 31
1, 350640, Tempo, 618557
1, 350880, Tempo, 579710
1, 350880, Note_on_c, 0, 68, 0
1, 350880, Note_on_c, 0, 56, 0
1, 350880, Note_on_c, 0, 45, 23
1, 350880, Note_on_c, 0, 49, 28
1, 350891, Control_c, 0, 64, 0
1, 350949, Control_c, 0, 64, 127
1, 351000, Note_on_c, 0, 49, 0
1, 351000, Note_on_c, 0, 45, 0
1, 351120, Tempo, 631579
1, 351120, Note_on_c, 0, 45, 23
1, 351120, Note_on_c, 0, 49, 28
1, 351240, Note_on_c, 0, 49, 0
1, 351240, Note_on_c, 0, 45, 0
1, 351360, Tempo, 591133
1, 351360, Note_on_c, 0, 45, 28
1, 351360, Note_on_c, 0, 49, 33
1, 351840, Tempo, 568720
1, 351840, Note_on_c, 0, 49, 0
1, 351840, Note_on_c, 0, 45, 0
1, 351840, Note_on_c, 0, 56, 23
1, 351840, Note_on_c, 0, 68, 28
1, 351849, Control_c, 0, 64, 0
1, 351903, Control_c, 0, 64, 127
1, 351960, Note_on_c, 0, 68, 0
1, 351960, Note_on_c, 0, 56, 0
1, 352080, Tempo, 625000
1, 352080, Note_on_c, 0, 56, 23
1, 352080, Note_on_c, 0, 68, 28
1, 352200, Note_on_c, 0, 68, 0
1, 352200, Note_on_c, 0, 56, 0
1, 352320, Tempo, 591133
1, 352320, Note_on_c, 0, 56, 26
1, 352320, Note_on_c, 0, 68, 31
1, 352800, Tempo, 582524
1, 352800, Note_on_c, 0, 68, 0
1, 352800, Note_on_c, 0, 56, 0
1, 352800, Note_on_c, 0, 45, 23
1, 352800, Note_on_c, 0, 49, 28
1, 352920, Note_on_c, 0, 49, 0
1, 352920, Note_on_c, 0, 45, 0
1, 353040, Tempo, 659341
1, 353040, Note_on_c, 0, 45, 23
1, 353040, Note_on_c, 0, 49, 28
1, 353160, Note_on_c, 0, 49, 0
1, 353160, Note_on_c, 0, 45, 0
1, 353280, Tempo, 625000
1, 353280, Note_on_c, 0, 48, 28
1, 353280, Note_on_c, 0, 51, 33
1, 353293, Control_c, 0, 64, 0
1, 353361, Control_c, 0, 64, 127
1, 353760, Tempo, 603015
1, 353760, Note_on_c, 0, 51, 0
1, 353760, Note_on_c, 0, 48, 0
1, 353760, Note_on_c, 0, 66, 23
1, 353760, Note_on_c, 0, 56, 23
1, 353760, Note_on_c, 0, 68, 28
1, 353880, Note_on_c, 0, 68, 0
1, 353880, Note_on_c, 0, 56, 0
1, 353880, Note_on_c, 0, 66, 0
1, 354000, Tempo, 652174
1, 354000, Note_on_c, 0, 66, 23
1, 354000, Note_on_c, 0, 56, 23
1, 354000, Note_on_c, 0, 68, 28
1, 354120, Note_on_c, 0, 68, 0
1, 354120, Note_on_c, 0, 56, 0
1, 354120, Note_on_c, 0, 66, 0
1, 354240, Tempo, 628272
1, 354240, Note_on_c, 0, 66, 26
1, 354240, Note_on_c, 0, 56, 26
1, 354240, Note_on_c, 0, 68, 31
1, 354720, Tempo, 609137
1, 354720, Note_on_c, 0, 68, 0
1, 354720, Note_on_c, 0, 56, 0
1, 354720, Note_on_c, 0, 66, 0
1, 354720, Note_on_c, 0, 48, 23
1, 354720, Note_on_c, 0, 51, 28
1, 354840, Note_on_c, 0, 51, 0
1, 354840, Note_on_c, 0, 48, 0
1, 354960, Tempo, 655738
1, 354960, Note_on_c, 0, 48, 23
1, 354960, Note_on_c, 0, 51, 28
1, 355080, Note_on_c, 0, 51, 0
1, 355080, Note_on_c, 0, 48, 0
1, 355200, Tempo, 628272
1, 355200, Note_on_c, 0, 48, 28
1, 355200, Note_on_c, 0, 51, 33
1, 355680, Tempo, 612245
1, 355680, Note_on_c, 0, 51, 0
1, 355680, Note_on_c, 0, 48, 0
1, 355680, Note_on_c, 0, 66, 23
1, 355680, Note_on_c, 0, 56, 23
1, 355680, Note_on_c, 0, 68, 28
1, 355800, Note_on_c, 0, 68, 0
1, 355800, Note_on_c, 0, 56, 0
1, 355800, Note_on_c, 0, 66, 0
1, 355920, Tempo, 670391
1, 355920, Note_on_c, 0, 66, 23
1, 355920, Note_on_c, 0, 56, 23
1, 355920, Note_on_c, 0, 68, 28
1, 356040, Note_on_c, 0, 68, 0
1, 356040, Note_on_c, 0, 56, 0
1, 356040, Note_on_c, 0, 66, 0
1, 356160, Tempo, 648649
1, 356160, Note_on_c, 0, 48, 28
1, 356160, Note_on_c, 0, 51, 33
1, 356640, Tempo, 631579
1, 356640, Note_on_c, 0, 51, 0
1, 356640, Note_on_c, 0, 48, 0
1, 356640, Note_on_c, 0, 66, 23
1, 356640, Note_on_c, 0, 56, 23
1, 356640, Note_on_c, 0, 68, 28
1, 356760, Note_on_c, 0, 68, 0
1, 356760, Note_on_c, 0, 56, 0
1, 356760, Note_on_c, 0, 66, 0
1, 356880, Tempo, 705882
1, 356880, Note_on_c, 0, 66, 23
1, 356880, Note_on_c, 0, 56, 23
1, 356880, Note_on_c, 0, 68, 28
1, 357000, Note_on_c, 0, 68, 0
1, 357000, Note_on_c, 0, 56, 0
1, 357000, Note_on_c, 0, 66, 0
1, 357120, Tempo, 666667
1, 357120, Control_c, 0, 64, 0
1, 357120, Note_on_c, 0, 48, 28
1, 357120, Note_on_c, 0, 51, 33
1, 357300, Control_c, 0, 64, 127
1, 357600, Note_on_c, 0, 51, 0
1, 357600, Note_on_c, 0, 48, 0
1, 357600, Note_on_c, 0, 66, 22
1, 357600, Note_on_c, 0, 56, 22
1, 357600, Note_on_c, 0, 68, 27
1, 358080, Note_on_c, 0, 68, 0
1, 358080, Note_on_c, 0, 56, 0
1, 358080, Note_on_c, 0, 66, 0
1, 358080, Note_on_c, 0, 48, 27
1, 358080, Note_on_c, 0, 51, 32
1, 358560, Tempo, 731707
1, 358560, Note_on_c, 0, 51, 0
1, 358560, Note_on_c, 0, 48, 0
1, 358560, Note_on_c, 0, 66, 21
1, 358560, Note_on_c, 0, 56, 21
1, 358560, Note_on_c, 0, 68, 26
1, 359040, Tempo, 784314
1, 359040, Note_on_c, 0, 68, 0
1, 359040, Note_on_c, 0, 56, 0
1, 359040, Note_on_c, 0, 66, 0
1, 359040, Note_on_c, 0, 48, 26
1, 359040, Note_on_c, 0, 51, 30
1, 359047, Control_c, 0, 64, 0
1, 359239, Control_c, 0, 64, 127
1, 359520, Tempo, 827586
1, 359520, Note_on_c, 0, 51, 0
1, 359520, Note_on_c, 0, 48, 0
1, 359520, Note_on_c, 0, 66, 20
1, 359520, Note_on_c, 0, 57, 20
1, 359520, Note_on_c, 0, 69, 25
1, 360000, Tempo, 960000
1, 360000, Note_on_c, 0, 69, 0
1, 360000, Note_on_c, 0, 57, 0
1, 360000, Note_on_c, 0, 66, 0
1, 360000, Note_on_c, 0, 48, 25
1, 360000, Note_on_c, 0, 51, 29
1, 360010, Control_c, 0, 64, 0
1, 360215, Control_c, 0, 64, 127
1, 360480, Tempo, 2000000
1, 360480, Note_on_c, 0, 51, 0
1, 360480, Note_on_c, 0, 48, 0
1, 360480, Note_on_c, 0, 66, 20
1, 360480, Note_on_c, 0, 56, 20
1, 360480, Note_on_c, 0, 68, 24
1, 360960, Tempo, 960000
1, 360960, Note_on_c, 0, 68, 0
1, 360960, Note_on_c, 0, 56, 0
1, 360960, Note_on_c, 0, 66, 0
1, 360960, Control_c, 0, 64, 0
1, 362880, Tempo, 666667
1, 362880, End_track
0, 0, End_of_file
