0, 0, Header, 0, 1, 480
1, 0, Start_track
1, 0, Title_t, "Sonate D960, 2. Satz"
1, 0, Copyright_t, "Copyright © 2002 by Bernd Krueger"
1, 0, Text_t, "Franz Schubert"
1, 0, Text_t, "Andante sostenuto"
1, 0, Text_t, "Fertiggestellt am 9.6.2002\012"
1, 0, Text_t, "Update am 13.7.2002\012"
1, 0, Text_t, "Normierung: 23.12.2002\012"
1, 0, Text_t, "Update am 24.3.2014\012"
1, 0, Text_t, "Dauer: 8:36 Minuten\012"
1, 0, SMPTE_offset, 96, 0, 3, 0, 0
1, 0, Time_signature, 3, 2, 24, 8
1, 0, Key_signature, 4, "major"
1, 0, Tempo, 1232792
1, 0, Program_c, 0, 1
1, 0, Control_c, 0, 7, 100
1, 0, Control_c, 0, 10, 64
1, 0, Control_c, 0, 91, 127
1, 0, Note_on_c, 0, 64, 33
1, 0, Note_on_c, 0, 68, 39
1, 0, Control_c, 0, 91, 127
1, 0, Text_t, "bdca426d104a26ac9dcb070447587523"
1, 0, Program_c, 0, 1
1, 0, Control_c, 0, 7, 100
1, 0, Control_c, 0, 10, 64
1, 0, Note_on_c, 0, 37, 26
1, 14, Control_c, 0, 64, 127
1, 240, Note_on_c, 0, 37, 0
1, 420, Note_on_c, 0, 49, 22
1, 480, Note_on_c, 0, 49, 0
1, 480, Note_on_c, 0, 61, 27
1, 720, Tempo, 1290045
1, 720, Note_on_c, 0, 61, 0
1, 720, Note_on_c, 0, 73, 26
1, 960, Note_on_c, 0, 73, 0
1, 960, Note_on_c, 0, 68, 0
1, 960, Note_on_c, 0, 64, 0
1, 960, Note_on_c, 0, 64, 29
1, 960, Note_on_c, 0, 68, 34
1, 984, Control_c, 0, 64, 0
1, 1016, Control_c, 0, 64, 127
1, 1320, Note_on_c, 0, 68, 0
1, 1320, Note_on_c, 0, 64, 0
1, 1320, Note_on_c, 0, 66, 34
1, 1320, Note_on_c, 0, 63, 28
1, 1440, Tempo, 1232792
1, 1440, Note_on_c, 0, 63, 0
1, 1440, Note_on_c, 0, 66, 0
1, 1440, Note_on_c, 0, 63, 34
1, 1440, Note_on_c, 0, 66, 41
1, 1440, Note_on_c, 0, 37, 26
1, 1468, Control_c, 0, 64, 0
1, 1514, Control_c, 0, 64, 127
1, 1680, Note_on_c, 0, 37, 0
1, 1860, Note_on_c, 0, 49, 22
1, 1920, Note_on_c, 0, 49, 0
1, 1920, Note_on_c, 0, 61, 27
1, 2160, Tempo, 1278500
1, 2160, Note_on_c, 0, 61, 0
1, 2160, Note_on_c, 0, 73, 26
1, 2400, Note_on_c, 0, 73, 0
1, 2400, Note_on_c, 0, 66, 0
1, 2400, Note_on_c, 0, 63, 0
1, 2400, Note_on_c, 0, 66, 37
1, 2400, Note_on_c, 0, 63, 31
1, 2414, Control_c, 0, 64, 0
1, 2471, Control_c, 0, 64, 127
1, 2880, Tempo, 1232792
1, 2880, Note_on_c, 0, 63, 0
1, 2880, Note_on_c, 0, 66, 0
1, 2880, Note_on_c, 0, 69, 41
1, 2880, Note_on_c, 0, 66, 34
1, 2880, Note_on_c, 0, 37, 26
1, 2908, Control_c, 0, 64, 0
1, 2954, Control_c, 0, 64, 127
1, 3120, Note_on_c, 0, 37, 0
1, 3300, Note_on_c, 0, 49, 22
1, 3360, Note_on_c, 0, 49, 0
1, 3360, Note_on_c, 0, 61, 27
1, 3600, Tempo, 1278500
1, 3600, Note_on_c, 0, 61, 0
1, 3600, Note_on_c, 0, 73, 28
1, 3840, Note_on_c, 0, 73, 0
1, 3840, Note_on_c, 0, 66, 0
1, 3840, Note_on_c, 0, 69, 0
1, 3840, Note_on_c, 0, 66, 28
1, 3840, Note_on_c, 0, 69, 33
1, 3854, Control_c, 0, 64, 0
1, 3896, Control_c, 0, 64, 127
1, 4080, Note_on_c, 0, 69, 0
1, 4080, Note_on_c, 0, 66, 0
1, 4080, Note_on_c, 0, 68, 30
1, 4080, Note_on_c, 0, 64, 25
1, 4200, Note_on_c, 0, 64, 0
1, 4200, Note_on_c, 0, 68, 0
1, 4200, Note_on_c, 0, 63, 23
1, 4200, Note_on_c, 0, 66, 28
1, 4320, Tempo, 1232792
1, 4320, Note_on_c, 0, 66, 0
1, 4320, Note_on_c, 0, 63, 0
1, 4320, Note_on_c, 0, 68, 39
1, 4320, Note_on_c, 0, 64, 33
1, 4320, Control_c, 0, 64, 0
1, 4320, Note_on_c, 0, 37, 26
1, 4373, Control_c, 0, 64, 127
1, 4560, Note_on_c, 0, 37, 0
1, 4740, Note_on_c, 0, 49, 22
1, 4800, Note_on_c, 0, 49, 0
1, 4800, Note_on_c, 0, 61, 27
1, 5040, Tempo, 1278500
1, 5040, Note_on_c, 0, 61, 0
1, 5040, Note_on_c, 0, 73, 28
1, 5280, Note_on_c, 0, 73, 0
1, 5280, Note_on_c, 0, 64, 0
1, 5280, Note_on_c, 0, 68, 0
1, 5280, Note_on_c, 0, 64, 29
1, 5280, Note_on_c, 0, 68, 34
1, 5308, Control_c, 0, 64, 0
1, 5336, Control_c, 0, 64, 127
1, 5760, Tempo, 1232792
1, 5760, Note_on_c, 0, 68, 0
1, 5760, Note_on_c, 0, 64, 0
1, 5760, Note_on_c, 0, 65, 34
1, 5760, Note_on_c, 0, 71, 41
1, 5760, Note_on_c, 0, 37, 26
1, 5788, Control_c, 0, 64, 0
1, 5834, Control_c, 0, 64, 127
1, 6000, Note_on_c, 0, 37, 0
1, 6180, Note_on_c, 0, 49, 22
1, 6240, Note_on_c, 0, 49, 0
1, 6240, Note_on_c, 0, 61, 27
1, 6480, Tempo, 1278500
1, 6480, Note_on_c, 0, 61, 0
1, 6480, Note_on_c, 0, 73, 34
1, 6720, Tempo, 1223990
1, 6720, Note_on_c, 0, 73, 0
1, 6720, Note_on_c, 0, 71, 0
1, 6720, Note_on_c, 0, 65, 0
1, 6720, Note_on_c, 0, 65, 28
1, 6720, Note_on_c, 0, 71, 33
1, 6734, Control_c, 0, 64, 0
1, 6776, Control_c, 0, 64, 127
1, 6840, Note_on_c, 0, 65, 0
1, 6840, Note_on_c, 0, 68, 28
1, 6960, Note_on_c, 0, 68, 0
1, 6960, Note_on_c, 0, 71, 0
1, 6960, Note_on_c, 0, 69, 30
1, 6960, Note_on_c, 0, 66, 25
1, 7080, Tempo, 1313198
1, 7080, Note_on_c, 0, 66, 0
1, 7080, Note_on_c, 0, 69, 0
1, 7080, Note_on_c, 0, 68, 28
1, 7080, Note_on_c, 0, 65, 23
1, 7200, Tempo, 1232792
1, 7200, Note_on_c, 0, 65, 0
1, 7200, Note_on_c, 0, 68, 0
1, 7200, Note_on_c, 0, 66, 34
1, 7200, Note_on_c, 0, 69, 41
1, 7200, Note_on_c, 0, 37, 26
1, 7228, Control_c, 0, 64, 0
1, 7274, Control_c, 0, 64, 127
1, 7440, Note_on_c, 0, 37, 0
1, 7620, Note_on_c, 0, 49, 22
1, 7680, Note_on_c, 0, 49, 0
1, 7680, Note_on_c, 0, 61, 27
1, 7920, Tempo, 1278500
1, 7920, Note_on_c, 0, 61, 0
1, 7920, Note_on_c, 0, 69, 0
1, 7920, Note_on_c, 0, 66, 0
1, 7920, Note_on_c, 0, 73, 34
1, 7920, Note_on_c, 0, 66, 23
1, 7920, Note_on_c, 0, 69, 28
1, 8148, Note_on_c, 0, 69, 0
1, 8148, Note_on_c, 0, 66, 0
1, 8148, Note_on_c, 0, 73, 0
1, 8160, Note_on_c, 0, 66, 34
1, 8160, Note_on_c, 0, 69, 40
1, 8174, Control_c, 0, 64, 0
1, 8216, Control_c, 0, 64, 127
1, 8388, Note_on_c, 0, 69, 0
1, 8388, Note_on_c, 0, 66, 0
1, 8400, Tempo, 1353485
1, 8400, Note_on_c, 0, 69, 41
1, 8400, Note_on_c, 0, 66, 34
1, 8628, Note_on_c, 0, 66, 0
1, 8628, Note_on_c, 0, 69, 0
1, 8640, Tempo, 1232792
1, 8640, Note_on_c, 0, 73, 49
1, 8640, Note_on_c, 0, 69, 41
1, 8640, Note_on_c, 0, 37, 31
1, 8668, Control_c, 0, 64, 0
1, 8714, Control_c, 0, 64, 127
1, 8880, Note_on_c, 0, 37, 0
1, 9060, Note_on_c, 0, 49, 25
1, 9120, Note_on_c, 0, 49, 0
1, 9120, Note_on_c, 0, 61, 30
1, 9360, Note_on_c, 0, 61, 0
1, 9360, Note_on_c, 0, 73, 38
1, 9400, Tempo, 1266892
1, 9600, Note_on_c, 0, 73, 0
1, 9600, Note_on_c, 0, 69, 0
1, 9600, Note_on_c, 0, 73, 0
1, 9600, Note_on_c, 0, 69, 33
1, 9600, Note_on_c, 0, 73, 39
1, 9614, Control_c, 0, 64, 0
1, 9656, Control_c, 0, 64, 127
1, 9960, Tempo, 1394700
1, 9960, Note_on_c, 0, 73, 0
1, 9960, Note_on_c, 0, 69, 0
1, 9960, Note_on_c, 0, 69, 28
1, 9960, Note_on_c, 0, 66, 23
1, 10080, Tempo, 1232792
1, 10080, Note_on_c, 0, 66, 0
1, 10080, Note_on_c, 0, 69, 0
1, 10080, Note_on_c, 0, 64, 30
1, 10080, Note_on_c, 0, 68, 37
1, 10080, Note_on_c, 0, 37, 26
1, 10108, Control_c, 0, 64, 0
1, 10154, Control_c, 0, 64, 127
1, 10320, Note_on_c, 0, 37, 0
1, 10500, Note_on_c, 0, 49, 22
1, 10560, Note_on_c, 0, 49, 0
1, 10560, Note_on_c, 0, 61, 27
1, 10800, Tempo, 1278500
1, 10800, Note_on_c, 0, 61, 0
1, 10800, Note_on_c, 0, 73, 28
1, 11040, Note_on_c, 0, 73, 0
1, 11054, Control_c, 0, 64, 0
1, 11096, Control_c, 0, 64, 127
1, 11280, Note_on_c, 0, 68, 0
1, 11280, Note_on_c, 0, 64, 0
1, 11280, Note_on_c, 0, 64, 34
1, 11280, Note_on_c, 0, 68, 41
1, 11520, Tempo, 1232792
1, 11520, Note_on_c, 0, 68, 0
1, 11520, Note_on_c, 0, 64, 0
1, 11520, Note_on_c, 0, 64, 42
1, 11520, Note_on_c, 0, 69, 42
1, 11520, Note_on_c, 0, 73, 50
1, 11520, Note_on_c, 0, 32, 28
1, 11520, Note_on_c, 0, 44, 34
1, 11548, Control_c, 0, 64, 0
1, 11594, Control_c, 0, 64, 127
1, 11760, Note_on_c, 0, 44, 0
1, 11760, Note_on_c, 0, 32, 0
1, 11880, Note_on_c, 0, 64, 0
1, 11880, Note_on_c, 0, 69, 0
1, 11880, Note_on_c, 0, 73, 0
1, 11880, Note_on_c, 0, 72, 44
1, 11880, Note_on_c, 0, 63, 37
1, 11880, Note_on_c, 0, 68, 37
1, 11940, Note_on_c, 0, 44, 36
1, 12000, Tempo, 1200720
1, 12000, Note_on_c, 0, 44, 0
1, 12000, Note_on_c, 0, 72, 0
1, 12000, Note_on_c, 0, 63, 0
1, 12000, Note_on_c, 0, 68, 0
1, 12000, Note_on_c, 0, 63, 42
1, 12000, Note_on_c, 0, 68, 42
1, 12000, Note_on_c, 0, 72, 49
1, 12000, Note_on_c, 0, 56, 41
1, 12018, Control_c, 0, 64, 0
1, 12071, Control_c, 0, 64, 127
1, 12240, Tempo, 1266892
1, 12240, Note_on_c, 0, 56, 0
1, 12240, Note_on_c, 0, 80, 43
1, 12480, Note_on_c, 0, 80, 0
1, 12720, Note_on_c, 0, 72, 0
1, 12720, Note_on_c, 0, 68, 0
1, 12720, Note_on_c, 0, 63, 0
1, 12720, Note_on_c, 0, 72, 55
1, 12720, Note_on_c, 0, 68, 45
1, 12960, Tempo, 1232792
1, 12960, Note_on_c, 0, 68, 0
1, 12960, Note_on_c, 0, 72, 0
1, 12960, Note_on_c, 0, 67, 51
1, 12960, Note_on_c, 0, 73, 51
1, 12960, Note_on_c, 0, 76, 60
1, 12960, Note_on_c, 0, 32, 35
1, 12960, Note_on_c, 0, 44, 41
1, 12988, Control_c, 0, 64, 0
1, 13034, Control_c, 0, 64, 127
1, 13200, Note_on_c, 0, 44, 0
1, 13200, Note_on_c, 0, 32, 0
1, 13320, Note_on_c, 0, 67, 0
1, 13320, Note_on_c, 0, 73, 0
1, 13320, Note_on_c, 0, 76, 0
1, 13320, Note_on_c, 0, 72, 45
1, 13320, Note_on_c, 0, 68, 45
1, 13320, Note_on_c, 0, 75, 53
1, 13380, Note_on_c, 0, 44, 43
1, 13440, Tempo, 1189296
1, 13440, Note_on_c, 0, 44, 0
1, 13440, Note_on_c, 0, 72, 0
1, 13440, Note_on_c, 0, 68, 0
1, 13440, Note_on_c, 0, 75, 0
1, 13440, Note_on_c, 0, 68, 50
1, 13440, Note_on_c, 0, 75, 60
1, 13440, Note_on_c, 0, 72, 50
1, 13440, Control_c, 0, 64, 0
1, 13440, Note_on_c, 0, 56, 50
1, 13476, Control_c, 0, 64, 127
1, 13680, Tempo, 1278500
1, 13680, Note_on_c, 0, 56, 0
1, 13680, Note_on_c, 0, 80, 53
1, 13920, Note_on_c, 0, 80, 0
1, 14160, Tempo, 1314924
1, 14160, Note_on_c, 0, 72, 0
1, 14160, Note_on_c, 0, 75, 0
1, 14160, Note_on_c, 0, 68, 0
1, 14160, Note_on_c, 0, 68, 52
1, 14160, Note_on_c, 0, 72, 52
1, 14160, Note_on_c, 0, 75, 63
1, 14400, Tempo, 1232792
1, 14400, Note_on_c, 0, 75, 0
1, 14400, Note_on_c, 0, 72, 0
1, 14400, Note_on_c, 0, 68, 0
1, 14400, Note_on_c, 0, 80, 69
1, 14400, Note_on_c, 0, 68, 58
1, 14400, Note_on_c, 0, 76, 58
1, 14400, Note_on_c, 0, 44, 47
1, 14400, Note_on_c, 0, 32, 39
1, 14428, Control_c, 0, 64, 0
1, 14474, Control_c, 0, 64, 127
1, 14640, Note_on_c, 0, 32, 0
1, 14640, Note_on_c, 0, 44, 0
1, 14760, Note_on_c, 0, 80, 0
1, 14760, Note_on_c, 0, 68, 0
1, 14760, Note_on_c, 0, 76, 0
1, 14760, Note_on_c, 0, 69, 52
1, 14760, Note_on_c, 0, 75, 52
1, 14760, Note_on_c, 0, 78, 61
1, 14820, Note_on_c, 0, 44, 49
1, 14877, Control_c, 0, 64, 0
1, 14880, Note_on_c, 0, 44, 0
1, 14880, Note_on_c, 0, 69, 0
1, 14880, Note_on_c, 0, 75, 0
1, 14880, Note_on_c, 0, 78, 0
1, 14880, Note_on_c, 0, 78, 69
1, 14880, Note_on_c, 0, 75, 58
1, 14880, Note_on_c, 0, 69, 58
1, 14880, Note_on_c, 0, 56, 57
1, 14916, Control_c, 0, 64, 127
1, 15120, Tempo, 1278500
1, 15120, Note_on_c, 0, 56, 0
1, 15120, Note_on_c, 0, 80, 61
1, 15360, Note_on_c, 0, 80, 0
1, 15600, Tempo, 1394700
1, 15600, Note_on_c, 0, 69, 0
1, 15600, Note_on_c, 0, 75, 0
1, 15600, Note_on_c, 0, 78, 0
1, 15600, Note_on_c, 0, 69, 60
1, 15600, Note_on_c, 0, 78, 73
1, 15600, Note_on_c, 0, 75, 60
1, 15840, Tempo, 1232792
1, 15840, Note_on_c, 0, 75, 0
1, 15840, Note_on_c, 0, 78, 0
1, 15840, Note_on_c, 0, 69, 0
1, 15840, Note_on_c, 0, 73, 68
1, 15840, Note_on_c, 0, 76, 68
1, 15840, Note_on_c, 0, 81, 80
1, 15840, Note_on_c, 0, 44, 55
1, 15840, Note_on_c, 0, 32, 46
1, 15868, Control_c, 0, 64, 0
1, 15914, Control_c, 0, 64, 127
1, 16080, Note_on_c, 0, 32, 0
1, 16080, Note_on_c, 0, 44, 0
1, 16200, Note_on_c, 0, 73, 0
1, 16200, Note_on_c, 0, 76, 0
1, 16200, Note_on_c, 0, 81, 0
1, 16200, Note_on_c, 0, 80, 68
1, 16200, Note_on_c, 0, 75, 58
1, 16200, Note_on_c, 0, 72, 58
1, 16260, Note_on_c, 0, 44, 50
1, 16320, Note_on_c, 0, 44, 0
1, 16320, Note_on_c, 0, 80, 0
1, 16320, Note_on_c, 0, 75, 0
1, 16320, Note_on_c, 0, 72, 0
1, 16320, Note_on_c, 0, 72, 65
1, 16320, Note_on_c, 0, 75, 65
1, 16320, Note_on_c, 0, 80, 77
1, 16320, Note_on_c, 0, 56, 58
1, 16327, Control_c, 0, 64, 0
1, 16387, Control_c, 0, 64, 127
1, 16560, Tempo, 1266892
1, 16560, Note_on_c, 0, 56, 0
1, 16560, Note_on_c, 0, 68, 56
1, 16800, Note_on_c, 0, 68, 0
1, 17280, Note_on_c, 0, 32, 33
1, 17280, Note_on_c, 0, 44, 40
1, 17320, Tempo, 1244039
1, 17520, Note_on_c, 0, 44, 0
1, 17520, Note_on_c, 0, 32, 0
1, 17700, Note_on_c, 0, 44, 34
1, 17760, Note_on_c, 0, 44, 0
1, 17760, Note_on_c, 0, 56, 39
1, 18000, Tempo, 1290045
1, 18000, Note_on_c, 0, 56, 0
1, 18000, Note_on_c, 0, 68, 35
1, 18240, Note_on_c, 0, 68, 0
1, 18480, Tempo, 1327140
1, 18720, Tempo, 1232792
1, 18720, Note_on_c, 0, 80, 0
1, 18720, Note_on_c, 0, 75, 0
1, 18720, Note_on_c, 0, 72, 0
1, 18720, Note_on_c, 0, 76, 34
1, 18720, Note_on_c, 0, 80, 41
1, 18720, Note_on_c, 0, 71, 34
1, 18720, Note_on_c, 0, 68, 34
1, 18720, Note_on_c, 0, 32, 22
1, 18720, Note_on_c, 0, 44, 26
1, 18720, Control_c, 0, 64, 0
1, 18794, Control_c, 0, 64, 127
1, 18960, Note_on_c, 0, 44, 0
1, 18960, Note_on_c, 0, 32, 0
1, 19140, Note_on_c, 0, 47, 22
1, 19200, Note_on_c, 0, 47, 0
1, 19200, Note_on_c, 0, 59, 27
1, 19440, Tempo, 1278500
1, 19440, Note_on_c, 0, 59, 0
1, 19440, Note_on_c, 0, 88, 35
1, 19680, Note_on_c, 0, 88, 0
1, 19694, Control_c, 0, 64, 0
1, 19736, Control_c, 0, 64, 127
1, 19920, Note_on_c, 0, 68, 0
1, 19920, Note_on_c, 0, 76, 0
1, 19920, Note_on_c, 0, 80, 0
1, 19920, Note_on_c, 0, 71, 0
1, 19920, Note_on_c, 0, 76, 37
1, 19920, Note_on_c, 0, 71, 30
1, 19920, Note_on_c, 0, 64, 30
1, 20160, Tempo, 1232792
1, 20160, Note_on_c, 0, 64, 0
1, 20160, Note_on_c, 0, 71, 0
1, 20160, Note_on_c, 0, 76, 0
1, 20160, Note_on_c, 0, 64, 34
1, 20160, Note_on_c, 0, 69, 34
1, 20160, Note_on_c, 0, 75, 41
1, 20160, Control_c, 0, 64, 0
1, 20160, Note_on_c, 0, 45, 26
1, 20160, Note_on_c, 0, 33, 22
1, 20234, Control_c, 0, 64, 127
1, 20400, Note_on_c, 0, 33, 0
1, 20400, Note_on_c, 0, 45, 0
1, 20520, Note_on_c, 0, 75, 0
1, 20520, Note_on_c, 0, 73, 41
1, 20580, Note_on_c, 0, 49, 22
1, 20640, Note_on_c, 0, 49, 0
1, 20640, Note_on_c, 0, 64, 0
1, 20640, Note_on_c, 0, 69, 0
1, 20640, Note_on_c, 0, 73, 0
1, 20640, Note_on_c, 0, 69, 34
1, 20640, Note_on_c, 0, 64, 34
1, 20640, Note_on_c, 0, 73, 41
1, 20640, Note_on_c, 0, 61, 27
1, 20647, Control_c, 0, 64, 0
1, 20690, Control_c, 0, 64, 127
1, 20880, Tempo, 1278500
1, 20880, Note_on_c, 0, 61, 0
1, 20880, Note_on_c, 0, 85, 34
1, 21120, Note_on_c, 0, 85, 0
1, 21360, Note_on_c, 0, 73, 0
1, 21360, Note_on_c, 0, 64, 0
1, 21360, Note_on_c, 0, 69, 0
1, 21360, Note_on_c, 0, 73, 37
1, 21360, Note_on_c, 0, 69, 30
1, 21360, Note_on_c, 0, 64, 30
1, 21600, Tempo, 1232792
1, 21600, Note_on_c, 0, 64, 0
1, 21600, Note_on_c, 0, 69, 0
1, 21600, Note_on_c, 0, 73, 0
1, 21600, Note_on_c, 0, 64, 34
1, 21600, Note_on_c, 0, 66, 34
1, 21600, Note_on_c, 0, 73, 41
1, 21600, Note_on_c, 0, 47, 26
1, 21600, Note_on_c, 0, 35, 22
1, 21602, Control_c, 0, 64, 0
1, 21674, Control_c, 0, 64, 127
1, 21840, Note_on_c, 0, 35, 0
1, 21840, Note_on_c, 0, 47, 0
1, 21960, Note_on_c, 0, 73, 0
1, 21960, Note_on_c, 0, 64, 0
1, 21960, Note_on_c, 0, 71, 41
1, 21960, Note_on_c, 0, 63, 38
1, 22020, Note_on_c, 0, 47, 22
1, 22080, Note_on_c, 0, 47, 0
1, 22080, Note_on_c, 0, 66, 0
1, 22080, Note_on_c, 0, 71, 0
1, 22080, Note_on_c, 0, 63, 0
1, 22080, Note_on_c, 0, 63, 34
1, 22080, Note_on_c, 0, 66, 34
1, 22080, Note_on_c, 0, 71, 41
1, 22080, Note_on_c, 0, 59, 27
1, 22094, Control_c, 0, 64, 0
1, 22130, Control_c, 0, 64, 127
1, 22320, Tempo, 1278500
1, 22320, Note_on_c, 0, 59, 0
1, 22320, Note_on_c, 0, 83, 30
1, 22560, Note_on_c, 0, 83, 0
1, 22800, Note_on_c, 0, 71, 0
1, 22800, Note_on_c, 0, 66, 0
1, 22800, Note_on_c, 0, 63, 0
1, 22800, Note_on_c, 0, 69, 34
1, 22800, Note_on_c, 0, 64, 28
1, 22800, Note_on_c, 0, 61, 28
1, 22818, Control_c, 0, 64, 0
1, 23040, Tempo, 1232792
1, 23040, Note_on_c, 0, 61, 0
1, 23040, Note_on_c, 0, 64, 0
1, 23040, Note_on_c, 0, 69, 0
1, 23040, Note_on_c, 0, 59, 28
1, 23040, Note_on_c, 0, 64, 28
1, 23040, Note_on_c, 0, 68, 34
1, 23040, Note_on_c, 0, 40, 26
1, 23075, Control_c, 0, 64, 127
1, 23280, Tempo, 1278500
1, 23280, Note_on_c, 0, 40, 0
1, 23460, Note_on_c, 0, 47, 22
1, 23520, Note_on_c, 0, 47, 0
1, 23520, Note_on_c, 0, 68, 0
1, 23520, Note_on_c, 0, 64, 0
1, 23520, Note_on_c, 0, 59, 0
1, 23520, Note_on_c, 0, 59, 25
1, 23520, Note_on_c, 0, 56, 25
1, 23520, Note_on_c, 0, 64, 30
1, 23520, Note_on_c, 0, 52, 27
1, 23760, Note_on_c, 0, 52, 0
1, 23760, Note_on_c, 0, 76, 27
1, 24000, Note_on_c, 0, 76, 0
1, 24480, Tempo, 1232792
1, 24480, Note_on_c, 0, 64, 0
1, 24480, Note_on_c, 0, 56, 0
1, 24480, Note_on_c, 0, 59, 0
1, 24480, Note_on_c, 0, 68, 39
1, 24480, Note_on_c, 0, 64, 33
1, 24480, Note_on_c, 0, 40, 26
1, 24484, Control_c, 0, 64, 0
1, 24551, Control_c, 0, 64, 127
1, 24720, Note_on_c, 0, 40, 0
1, 24900, Note_on_c, 0, 47, 22
1, 24960, Note_on_c, 0, 47, 0
1, 24960, Note_on_c, 0, 59, 27
1, 25200, Tempo, 1290045
1, 25200, Note_on_c, 0, 59, 0
1, 25200, Note_on_c, 0, 71, 27
1, 25440, Note_on_c, 0, 71, 0
1, 25440, Note_on_c, 0, 64, 0
1, 25440, Note_on_c, 0, 68, 0
1, 25440, Note_on_c, 0, 64, 29
1, 25440, Note_on_c, 0, 68, 34
1, 25468, Control_c, 0, 64, 0
1, 25496, Control_c, 0, 64, 127
1, 25800, Note_on_c, 0, 68, 0
1, 25800, Note_on_c, 0, 64, 0
1, 25800, Note_on_c, 0, 63, 28
1, 25800, Note_on_c, 0, 66, 34
1, 25920, Tempo, 1232792
1, 25920, Note_on_c, 0, 66, 0
1, 25920, Note_on_c, 0, 63, 0
1, 25920, Note_on_c, 0, 66, 41
1, 25920, Note_on_c, 0, 63, 34
1, 25920, Note_on_c, 0, 40, 26
1, 25948, Control_c, 0, 64, 0
1, 25994, Control_c, 0, 64, 127
1, 26160, Note_on_c, 0, 40, 0
1, 26340, Note_on_c, 0, 47, 22
1, 26400, Note_on_c, 0, 47, 0
1, 26400, Note_on_c, 0, 59, 27
1, 26640, Tempo, 1278500
1, 26640, Note_on_c, 0, 59, 0
1, 26640, Note_on_c, 0, 71, 27
1, 26880, Note_on_c, 0, 71, 0
1, 26880, Note_on_c, 0, 63, 0
1, 26880, Note_on_c, 0, 66, 0
1, 26880, Note_on_c, 0, 63, 31
1, 26880, Note_on_c, 0, 66, 37
1, 26894, Control_c, 0, 64, 0
1, 26951, Control_c, 0, 64, 127
1, 27360, Tempo, 1232792
1, 27360, Note_on_c, 0, 66, 0
1, 27360, Note_on_c, 0, 63, 0
1, 27360, Note_on_c, 0, 61, 34
1, 27360, Note_on_c, 0, 69, 41
1, 27360, Note_on_c, 0, 40, 26
1, 27388, Control_c, 0, 64, 0
1, 27434, Control_c, 0, 64, 127
1, 27600, Note_on_c, 0, 40, 0
1, 27780, Note_on_c, 0, 47, 22
1, 27840, Note_on_c, 0, 47, 0
1, 27840, Note_on_c, 0, 59, 27
1, 28080, Tempo, 1278500
1, 28080, Note_on_c, 0, 59, 0
1, 28080, Note_on_c, 0, 71, 27
1, 28320, Tempo, 1236094
1, 28320, Note_on_c, 0, 71, 0
1, 28320, Note_on_c, 0, 69, 0
1, 28320, Note_on_c, 0, 61, 0
1, 28320, Note_on_c, 0, 63, 28
1, 28320, Note_on_c, 0, 69, 33
1, 28334, Control_c, 0, 64, 0
1, 28376, Control_c, 0, 64, 127
1, 28440, Note_on_c, 0, 63, 0
1, 28440, Note_on_c, 0, 66, 24
1, 28560, Tempo, 1273615
1, 28560, Note_on_c, 0, 66, 0
1, 28560, Note_on_c, 0, 69, 0
1, 28560, Note_on_c, 0, 68, 30
1, 28560, Note_on_c, 0, 64, 25
1, 28680, Tempo, 1385361
1, 28680, Note_on_c, 0, 64, 0
1, 28680, Note_on_c, 0, 68, 0
1, 28680, Note_on_c, 0, 63, 23
1, 28680, Note_on_c, 0, 66, 28
1, 28800, Tempo, 1232792
1, 28800, Note_on_c, 0, 66, 0
1, 28800, Note_on_c, 0, 63, 0
1, 28800, Note_on_c, 0, 68, 39
1, 28800, Note_on_c, 0, 64, 33
1, 28800, Control_c, 0, 64, 0
1, 28800, Note_on_c, 0, 40, 26
1, 28853, Control_c, 0, 64, 127
1, 29040, Note_on_c, 0, 40, 0
1, 29220, Note_on_c, 0, 47, 22
1, 29280, Note_on_c, 0, 47, 0
1, 29280, Note_on_c, 0, 59, 27
1, 29520, Tempo, 1278500
1, 29520, Note_on_c, 0, 59, 0
1, 29520, Note_on_c, 0, 71, 26
1, 29760, Note_on_c, 0, 71, 0
1, 29760, Note_on_c, 0, 64, 0
1, 29760, Note_on_c, 0, 68, 0
1, 29760, Note_on_c, 0, 64, 32
1, 29760, Note_on_c, 0, 68, 38
1, 29788, Control_c, 0, 64, 0
1, 29816, Control_c, 0, 64, 127
1, 30240, Tempo, 1232792
1, 30240, Note_on_c, 0, 68, 0
1, 30240, Note_on_c, 0, 64, 0
1, 30240, Note_on_c, 0, 62, 42
1, 30240, Note_on_c, 0, 71, 50
1, 30240, Note_on_c, 0, 68, 42
1, 30240, Note_on_c, 0, 40, 31
1, 30268, Control_c, 0, 64, 0
1, 30314, Control_c, 0, 64, 127
1, 30480, Note_on_c, 0, 40, 0
1, 30660, Note_on_c, 0, 52, 30
1, 30720, Note_on_c, 0, 52, 0
1, 30720, Note_on_c, 0, 64, 36
1, 30960, Tempo, 1278500
1, 30960, Note_on_c, 0, 64, 0
1, 30960, Note_on_c, 0, 76, 42
1, 31200, Tempo, 1302366
1, 31200, Note_on_c, 0, 76, 0
1, 31200, Note_on_c, 0, 68, 0
1, 31200, Note_on_c, 0, 71, 0
1, 31200, Note_on_c, 0, 62, 0
1, 31200, Note_on_c, 0, 62, 33
1, 31200, Note_on_c, 0, 68, 33
1, 31200, Note_on_c, 0, 71, 39
1, 31214, Control_c, 0, 64, 0
1, 31256, Control_c, 0, 64, 127
1, 31560, Note_on_c, 0, 71, 0
1, 31560, Note_on_c, 0, 68, 0
1, 31560, Note_on_c, 0, 62, 0
1, 31560, Note_on_c, 0, 61, 28
1, 31560, Note_on_c, 0, 69, 35
1, 31680, Tempo, 1232792
1, 31680, Note_on_c, 0, 69, 0
1, 31680, Note_on_c, 0, 61, 0
1, 31680, Note_on_c, 0, 69, 50
1, 31680, Note_on_c, 0, 61, 42
1, 31680, Note_on_c, 0, 40, 31
1, 31708, Control_c, 0, 64, 0
1, 31754, Control_c, 0, 64, 127
1, 31920, Note_on_c, 0, 40, 0
1, 32100, Note_on_c, 0, 52, 30
1, 32160, Note_on_c, 0, 52, 0
1, 32160, Note_on_c, 0, 64, 36
1, 32400, Tempo, 1278500
1, 32400, Note_on_c, 0, 64, 0
1, 32400, Note_on_c, 0, 61, 0
1, 32400, Note_on_c, 0, 69, 0
1, 32400, Note_on_c, 0, 61, 28
1, 32400, Note_on_c, 0, 69, 35
1, 32400, Note_on_c, 0, 76, 42
1, 32640, Note_on_c, 0, 76, 0
1, 32640, Note_on_c, 0, 69, 0
1, 32640, Note_on_c, 0, 61, 0
1, 32640, Note_on_c, 0, 69, 49
1, 32640, Note_on_c, 0, 61, 41
1, 32654, Control_c, 0, 64, 0
1, 32696, Control_c, 0, 64, 127
1, 32880, Tempo, 1353485
1, 32880, Note_on_c, 0, 61, 0
1, 32880, Note_on_c, 0, 69, 0
1, 32880, Note_on_c, 0, 61, 41
1, 32880, Note_on_c, 0, 69, 50
1, 33120, Tempo, 1232792
1, 33120, Note_on_c, 0, 69, 0
1, 33120, Note_on_c, 0, 61, 0
1, 33120, Note_on_c, 0, 73, 59
1, 33120, Note_on_c, 0, 69, 50
1, 33120, Note_on_c, 0, 63, 50
1, 33120, Note_on_c, 0, 40, 37
1, 33148, Control_c, 0, 64, 0
1, 33194, Control_c, 0, 64, 127
1, 33360, Note_on_c, 0, 40, 0
1, 33540, Note_on_c, 0, 52, 33
1, 33600, Note_on_c, 0, 52, 0
1, 33600, Note_on_c, 0, 64, 40
1, 33840, Note_on_c, 0, 64, 0
1, 33840, Note_on_c, 0, 76, 43
1, 33880, Tempo, 1266892
1, 34080, Note_on_c, 0, 76, 0
1, 34080, Note_on_c, 0, 63, 0
1, 34080, Note_on_c, 0, 69, 0
1, 34080, Note_on_c, 0, 73, 0
1, 34080, Note_on_c, 0, 63, 36
1, 34080, Note_on_c, 0, 69, 36
1, 34080, Note_on_c, 0, 73, 44
1, 34094, Control_c, 0, 64, 0
1, 34136, Control_c, 0, 64, 127
1, 34440, Tempo, 1394700
1, 34440, Note_on_c, 0, 73, 0
1, 34440, Note_on_c, 0, 69, 0
1, 34440, Note_on_c, 0, 63, 0
1, 34440, Note_on_c, 0, 68, 28
1, 34440, Note_on_c, 0, 64, 28
1, 34440, Note_on_c, 0, 71, 34
1, 34554, Note_on_c, 0, 71, 0
1, 34554, Note_on_c, 0, 64, 0
1, 34554, Note_on_c, 0, 68, 0
1, 34560, Tempo, 1232792
1, 34560, Note_on_c, 0, 68, 41
1, 34560, Note_on_c, 0, 71, 49
1, 34560, Note_on_c, 0, 64, 41
1, 34560, Note_on_c, 0, 40, 31
1, 34588, Control_c, 0, 64, 0
1, 34634, Control_c, 0, 64, 127
1, 34800, Note_on_c, 0, 40, 0
1, 34980, Note_on_c, 0, 52, 30
1, 35040, Note_on_c, 0, 52, 0
1, 35040, Note_on_c, 0, 64, 36
1, 35280, Tempo, 1278500
1, 35280, Note_on_c, 0, 64, 0
1, 35280, Note_on_c, 0, 76, 34
1, 35520, Note_on_c, 0, 76, 0
1, 35534, Control_c, 0, 64, 0
1, 35576, Control_c, 0, 64, 127
1, 35760, Note_on_c, 0, 64, 0
1, 35760, Note_on_c, 0, 71, 0
1, 35760, Note_on_c, 0, 68, 0
1, 35760, Note_on_c, 0, 68, 42
1, 35760, Note_on_c, 0, 64, 42
1, 35760, Note_on_c, 0, 71, 51
1, 36000, Tempo, 1232792
1, 36000, Note_on_c, 0, 71, 0
1, 36000, Note_on_c, 0, 64, 0
1, 36000, Note_on_c, 0, 68, 0
1, 36000, Note_on_c, 0, 76, 61
1, 36000, Note_on_c, 0, 68, 52
1, 36000, Note_on_c, 0, 71, 52
1, 36000, Note_on_c, 0, 35, 35
1, 36000, Note_on_c, 0, 47, 42
1, 36028, Control_c, 0, 64, 0
1, 36074, Control_c, 0, 64, 127
1, 36240, Note_on_c, 0, 47, 0
1, 36240, Note_on_c, 0, 35, 0
1, 36360, Note_on_c, 0, 76, 0
1, 36360, Note_on_c, 0, 68, 0
1, 36360, Note_on_c, 0, 71, 0
1, 36360, Note_on_c, 0, 66, 46
1, 36360, Note_on_c, 0, 71, 46
1, 36360, Note_on_c, 0, 75, 54
1, 36420, Note_on_c, 0, 47, 44
1, 36480, Note_on_c, 0, 47, 0
1, 36480, Note_on_c, 0, 66, 0
1, 36480, Note_on_c, 0, 71, 0
1, 36480, Note_on_c, 0, 75, 0
1, 36480, Note_on_c, 0, 75, 61
1, 36480, Note_on_c, 0, 71, 51
1, 36480, Note_on_c, 0, 66, 51
1, 36480, Note_on_c, 0, 59, 50
1, 36487, Control_c, 0, 64, 0
1, 36530, Control_c, 0, 64, 127
1, 36720, Tempo, 1266892
1, 36720, Note_on_c, 0, 59, 0
1, 36720, Note_on_c, 0, 83, 53
1, 36960, Note_on_c, 0, 83, 0
1, 37200, Note_on_c, 0, 66, 0
1, 37200, Note_on_c, 0, 71, 0
1, 37200, Note_on_c, 0, 75, 0
1, 37200, Note_on_c, 0, 66, 54
1, 37200, Note_on_c, 0, 75, 66
1, 37200, Note_on_c, 0, 71, 54
1, 37440, Tempo, 1232792
1, 37440, Note_on_c, 0, 71, 0
1, 37440, Note_on_c, 0, 75, 0
1, 37440, Note_on_c, 0, 66, 0
1, 37440, Note_on_c, 0, 71, 60
1, 37440, Note_on_c, 0, 76, 60
1, 37440, Note_on_c, 0, 80, 71
1, 37440, Note_on_c, 0, 35, 41
1, 37440, Note_on_c, 0, 47, 49
1, 37468, Control_c, 0, 64, 0
1, 37514, Control_c, 0, 64, 127
1, 37680, Note_on_c, 0, 47, 0
1, 37680, Note_on_c, 0, 35, 0
1, 37800, Note_on_c, 0, 80, 0
1, 37800, Note_on_c, 0, 76, 0
1, 37800, Note_on_c, 0, 78, 63
1, 37800, Note_on_c, 0, 75, 54
1, 37860, Note_on_c, 0, 47, 51
1, 37914, Note_on_c, 0, 75, 0
1, 37914, Note_on_c, 0, 78, 0
1, 37920, Note_on_c, 0, 71, 0
1, 37920, Note_on_c, 0, 47, 0
1, 37920, Note_on_c, 0, 75, 60
1, 37920, Note_on_c, 0, 71, 60
1, 37920, Note_on_c, 0, 78, 71
1, 37920, Note_on_c, 0, 59, 59
1, 37927, Control_c, 0, 64, 0
1, 37973, Control_c, 0, 64, 127
1, 38160, Tempo, 1278500
1, 38160, Note_on_c, 0, 59, 0
1, 38160, Note_on_c, 0, 83, 62
1, 38400, Note_on_c, 0, 83, 0
1, 38640, Tempo, 1314924
1, 38640, Note_on_c, 0, 78, 0
1, 38640, Note_on_c, 0, 71, 0
1, 38640, Note_on_c, 0, 75, 0
1, 38640, Note_on_c, 0, 80, 74
1, 38640, Note_on_c, 0, 71, 61
1, 38640, Note_on_c, 0, 76, 61
1, 38880, Tempo, 1232792
1, 38880, Note_on_c, 0, 76, 0
1, 38880, Note_on_c, 0, 71, 0
1, 38880, Note_on_c, 0, 80, 0
1, 38880, Note_on_c, 0, 76, 68
1, 38880, Note_on_c, 0, 80, 68
1, 38880, Note_on_c, 0, 85, 80
1, 38880, Note_on_c, 0, 35, 46
1, 38880, Note_on_c, 0, 47, 55
1, 38908, Control_c, 0, 64, 0
1, 38954, Control_c, 0, 64, 127
1, 39120, Note_on_c, 0, 47, 0
1, 39120, Note_on_c, 0, 35, 0
1, 39240, Note_on_c, 0, 76, 0
1, 39240, Note_on_c, 0, 80, 0
1, 39240, Note_on_c, 0, 85, 0
1, 39240, Note_on_c, 0, 83, 70
1, 39240, Note_on_c, 0, 78, 60
1, 39240, Note_on_c, 0, 75, 60
1, 39300, Note_on_c, 0, 47, 52
1, 39354, Note_on_c, 0, 75, 0
1, 39354, Note_on_c, 0, 83, 0
1, 39354, Note_on_c, 0, 78, 0
1, 39360, Note_on_c, 0, 47, 0
1, 39360, Note_on_c, 0, 75, 67
1, 39360, Note_on_c, 0, 78, 67
1, 39360, Note_on_c, 0, 83, 79
1, 39360, Note_on_c, 0, 59, 60
1, 39369, Control_c, 0, 64, 0
1, 39427, Control_c, 0, 64, 127
1, 39600, Tempo, 1266892
1, 39600, Note_on_c, 0, 59, 0
1, 39600, Note_on_c, 0, 71, 59
1, 39840, Note_on_c, 0, 71, 0
1, 40320, Note_on_c, 0, 35, 36
1, 40360, Tempo, 1244039
1, 40560, Note_on_c, 0, 35, 0
1, 40740, Note_on_c, 0, 47, 39
1, 40800, Note_on_c, 0, 47, 0
1, 40800, Note_on_c, 0, 59, 44
1, 41040, Tempo, 1290045
1, 41040, Note_on_c, 0, 59, 0
1, 41040, Note_on_c, 0, 71, 37
1, 41280, Note_on_c, 0, 71, 0
1, 41520, Note_on_c, 0, 83, 0
1, 41520, Note_on_c, 0, 81, 41
1, 41760, Tempo, 1232792
1, 41760, Note_on_c, 0, 81, 0
1, 41760, Note_on_c, 0, 78, 0
1, 41760, Note_on_c, 0, 75, 0
1, 41760, Note_on_c, 0, 68, 34
1, 41760, Note_on_c, 0, 80, 41
1, 41760, Note_on_c, 0, 76, 34
1, 41760, Note_on_c, 0, 37, 26
1, 41760, Control_c, 0, 64, 0
1, 41834, Control_c, 0, 64, 127
1, 42000, Note_on_c, 0, 37, 0
1, 42180, Note_on_c, 0, 49, 25
1, 42240, Note_on_c, 0, 49, 0
1, 42240, Note_on_c, 0, 61, 30
1, 42480, Tempo, 1278500
1, 42480, Note_on_c, 0, 61, 0
1, 42480, Note_on_c, 0, 73, 32
1, 42720, Note_on_c, 0, 73, 0
1, 42960, Note_on_c, 0, 76, 0
1, 42960, Note_on_c, 0, 80, 0
1, 42960, Note_on_c, 0, 68, 0
1, 42960, Note_on_c, 0, 64, 30
1, 42960, Note_on_c, 0, 68, 30
1, 42960, Note_on_c, 0, 76, 37
1, 43200, Tempo, 1189296
1, 43200, Note_on_c, 0, 76, 0
1, 43200, Note_on_c, 0, 68, 0
1, 43200, Note_on_c, 0, 64, 0
1, 43200, Note_on_c, 0, 75, 41
1, 43200, Note_on_c, 0, 66, 34
1, 43200, Note_on_c, 0, 69, 34
1, 43200, Note_on_c, 0, 42, 22
1, 43200, Note_on_c, 0, 30, 19
1, 43204, Control_c, 0, 64, 0
1, 43274, Control_c, 0, 64, 127
1, 43440, Note_on_c, 0, 30, 0
1, 43440, Note_on_c, 0, 42, 0
1, 43560, Tempo, 1223990
1, 43560, Note_on_c, 0, 75, 0
1, 43560, Note_on_c, 0, 73, 41
1, 43620, Note_on_c, 0, 42, 25
1, 43680, Note_on_c, 0, 42, 0
1, 43680, Note_on_c, 0, 66, 0
1, 43680, Note_on_c, 0, 69, 0
1, 43680, Note_on_c, 0, 73, 0
1, 43680, Note_on_c, 0, 66, 34
1, 43680, Note_on_c, 0, 73, 41
1, 43680, Note_on_c, 0, 69, 34
1, 43680, Note_on_c, 0, 54, 30
1, 43920, Tempo, 1278500
1, 43920, Note_on_c, 0, 54, 0
1, 43920, Note_on_c, 0, 81, 30
1, 44160, Note_on_c, 0, 81, 0
1, 44400, Note_on_c, 0, 69, 0
1, 44400, Note_on_c, 0, 73, 0
1, 44400, Note_on_c, 0, 66, 0
1, 44400, Note_on_c, 0, 63, 30
1, 44400, Note_on_c, 0, 69, 30
1, 44400, Note_on_c, 0, 73, 37
1, 44640, Tempo, 1232792
1, 44640, Note_on_c, 0, 73, 0
1, 44640, Note_on_c, 0, 69, 0
1, 44640, Note_on_c, 0, 63, 0
1, 44640, Note_on_c, 0, 73, 41
1, 44640, Note_on_c, 0, 64, 34
1, 44640, Note_on_c, 0, 68, 34
1, 44640, Note_on_c, 0, 32, 22
1, 44640, Note_on_c, 0, 44, 26
1, 44647, Control_c, 0, 64, 0
1, 44714, Control_c, 0, 64, 127
1, 44880, Note_on_c, 0, 44, 0
1, 44880, Note_on_c, 0, 32, 0
1, 45060, Note_on_c, 0, 44, 22
1, 45120, Note_on_c, 0, 44, 0
1, 45120, Note_on_c, 0, 73, 0
1, 45120, Note_on_c, 0, 71, 41
1, 45120, Note_on_c, 0, 56, 27
1, 45360, Tempo, 1146132
1, 45360, Note_on_c, 0, 56, 0
1, 45360, Note_on_c, 0, 80, 32
1, 45600, Tempo, 1236094
1, 45600, Note_on_c, 0, 80, 0
1, 45600, Note_on_c, 0, 64, 0
1, 45600, Note_on_c, 0, 60, 27
1, 45614, Control_c, 0, 64, 0
1, 45656, Control_c, 0, 64, 127
1, 45840, Tempo, 1273615
1, 45840, Note_on_c, 0, 71, 0
1, 45840, Note_on_c, 0, 68, 0
1, 45840, Note_on_c, 0, 66, 28
1, 45840, Note_on_c, 0, 69, 34
1, 46080, Tempo, 1232792
1, 46080, Note_on_c, 0, 69, 0
1, 46080, Note_on_c, 0, 66, 0
1, 46080, Note_on_c, 0, 60, 0
1, 46080, Note_on_c, 0, 61, 28
1, 46080, Note_on_c, 0, 64, 28
1, 46080, Note_on_c, 0, 68, 34
1, 46080, Note_on_c, 0, 37, 26
1, 46080, Control_c, 0, 64, 0
1, 46115, Control_c, 0, 64, 127
1, 46320, Tempo, 1278500
1, 46320, Note_on_c, 0, 37, 0
1, 46500, Note_on_c, 0, 37, 22
1, 46560, Note_on_c, 0, 37, 0
1, 46560, Note_on_c, 0, 68, 0
1, 46560, Note_on_c, 0, 64, 0
1, 46560, Note_on_c, 0, 61, 0
1, 46560, Note_on_c, 0, 64, 30
1, 46560, Note_on_c, 0, 56, 25
1, 46560, Note_on_c, 0, 61, 25
1, 46560, Note_on_c, 0, 49, 27
1, 46800, Note_on_c, 0, 49, 0
1, 46800, Note_on_c, 0, 73, 27
1, 47040, Tempo, 1200720
1, 47040, Note_on_c, 0, 73, 0
1, 47280, Tempo, 1273615
1, 47280, Note_on_c, 0, 61, 0
1, 47280, Note_on_c, 0, 56, 0
1, 47280, Note_on_c, 0, 64, 0
1, 47280, Note_on_c, 0, 56, 25
1, 47280, Note_on_c, 0, 64, 30
1, 47280, Note_on_c, 0, 61, 25
1, 47520, Tempo, 1232792
1, 47520, Note_on_c, 0, 61, 0
1, 47520, Note_on_c, 0, 64, 0
1, 47520, Note_on_c, 0, 56, 0
1, 47520, Note_on_c, 0, 61, 28
1, 47520, Note_on_c, 0, 55, 28
1, 47520, Note_on_c, 0, 64, 34
1, 47520, Note_on_c, 0, 33, 26
1, 47520, Note_on_c, 0, 45, 26
1, 47520, Control_c, 0, 64, 0
1, 47555, Control_c, 0, 64, 127
1, 47760, Tempo, 1278500
1, 47760, Note_on_c, 0, 45, 0
1, 47760, Note_on_c, 0, 33, 0
1, 47880, Note_on_c, 0, 64, 0
1, 47880, Note_on_c, 0, 63, 34
1, 48000, Note_on_c, 0, 63, 0
1, 48000, Note_on_c, 0, 55, 0
1, 48000, Note_on_c, 0, 61, 0
1, 48000, Note_on_c, 0, 61, 25
1, 48000, Note_on_c, 0, 63, 30
1, 48000, Note_on_c, 0, 55, 25
1, 48000, Note_on_c, 0, 69, 29
1, 48240, Note_on_c, 0, 69, 0
1, 48240, Note_on_c, 0, 81, 27
1, 48480, Tempo, 1200720
1, 48480, Note_on_c, 0, 81, 0
1, 48720, Tempo, 1260769
1, 48720, Note_on_c, 0, 55, 0
1, 48720, Note_on_c, 0, 63, 0
1, 48720, Note_on_c, 0, 61, 0
1, 48720, Note_on_c, 0, 63, 33
1, 48720, Note_on_c, 0, 61, 28
1, 48720, Note_on_c, 0, 55, 28
1, 48960, Tempo, 1232792
1, 48960, Note_on_c, 0, 55, 0
1, 48960, Note_on_c, 0, 61, 0
1, 48960, Note_on_c, 0, 63, 0
1, 48960, Note_on_c, 0, 54, 31
1, 48960, Note_on_c, 0, 61, 31
1, 48960, Note_on_c, 0, 64, 37
1, 48960, Note_on_c, 0, 33, 26
1, 48960, Note_on_c, 0, 45, 26
1, 48960, Control_c, 0, 64, 0
1, 49022, Control_c, 0, 64, 127
1, 49200, Tempo, 1278500
1, 49200, Note_on_c, 0, 45, 0
1, 49200, Note_on_c, 0, 33, 0
1, 49320, Note_on_c, 0, 64, 0
1, 49320, Note_on_c, 0, 63, 34
1, 49440, Note_on_c, 0, 63, 0
1, 49440, Note_on_c, 0, 61, 0
1, 49440, Note_on_c, 0, 54, 0
1, 49440, Note_on_c, 0, 54, 25
1, 49440, Note_on_c, 0, 63, 30
1, 49440, Note_on_c, 0, 61, 25
1, 49440, Note_on_c, 0, 69, 29
1, 49680, Note_on_c, 0, 69, 0
1, 49680, Note_on_c, 0, 81, 27
1, 49920, Note_on_c, 0, 81, 0
1, 50160, Note_on_c, 0, 61, 0
1, 50160, Note_on_c, 0, 63, 0
1, 50160, Note_on_c, 0, 54, 0
1, 50160, Note_on_c, 0, 63, 30
1, 50160, Note_on_c, 0, 61, 25
1, 50160, Note_on_c, 0, 54, 25
1, 50400, Tempo, 1232792
1, 50400, Note_on_c, 0, 54, 0
1, 50400, Note_on_c, 0, 61, 0
1, 50400, Note_on_c, 0, 63, 0
1, 50400, Note_on_c, 0, 54, 28
1, 50400, Note_on_c, 0, 60, 28
1, 50400, Note_on_c, 0, 63, 34
1, 50400, Control_c, 0, 64, 0
1, 50400, Note_on_c, 0, 44, 26
1, 50400, Note_on_c, 0, 32, 26
1, 50460, Control_c, 0, 64, 127
1, 50640, Tempo, 1278500
1, 50640, Note_on_c, 0, 32, 0
1, 50640, Note_on_c, 0, 44, 0
1, 50880, Tempo, 1200720
1, 50880, Note_on_c, 0, 68, 29
1, 51120, Tempo, 1236094
1, 51120, Note_on_c, 0, 68, 0
1, 51120, Note_on_c, 0, 63, 0
1, 51120, Note_on_c, 0, 60, 0
1, 51120, Note_on_c, 0, 54, 0
1, 51120, Note_on_c, 0, 64, 29
1, 51120, Note_on_c, 0, 80, 29
1, 51240, Note_on_c, 0, 64, 0
1, 51240, Note_on_c, 0, 66, 29
1, 51360, Tempo, 1273615
1, 51360, Note_on_c, 0, 66, 0
1, 51360, Note_on_c, 0, 80, 0
1, 51360, Note_on_c, 0, 68, 29
1, 51600, Note_on_c, 0, 68, 0
1, 51600, Note_on_c, 0, 63, 30
1, 51600, Note_on_c, 0, 60, 25
1, 51600, Note_on_c, 0, 57, 25
1, 51840, Tempo, 1232792
1, 51840, Note_on_c, 0, 57, 0
1, 51840, Note_on_c, 0, 60, 0
1, 51840, Note_on_c, 0, 63, 0
1, 51840, Note_on_c, 0, 56, 28
1, 51840, Note_on_c, 0, 61, 28
1, 51840, Note_on_c, 0, 64, 34
1, 51840, Note_on_c, 0, 37, 26
1, 51846, Control_c, 0, 64, 0
1, 51981, Control_c, 0, 64, 127
1, 52080, Tempo, 1278500
1, 52080, Note_on_c, 0, 37, 0
1, 52320, Note_on_c, 0, 49, 27
1, 52560, Note_on_c, 0, 49, 0
1, 52560, Note_on_c, 0, 73, 28
1, 52800, Note_on_c, 0, 73, 0
1, 53040, Note_on_c, 0, 56, 0
1, 53040, Note_on_c, 0, 61, 0
1, 53040, Note_on_c, 0, 64, 0
1, 53040, Note_on_c, 0, 56, 25
1, 53040, Note_on_c, 0, 61, 25
1, 53040, Note_on_c, 0, 64, 30
1, 53280, Tempo, 1232792
1, 53280, Note_on_c, 0, 64, 0
1, 53280, Note_on_c, 0, 61, 0
1, 53280, Note_on_c, 0, 56, 0
1, 53280, Note_on_c, 0, 64, 30
1, 53280, Note_on_c, 0, 61, 25
1, 53280, Note_on_c, 0, 55, 25
1, 53280, Control_c, 0, 64, 0
1, 53280, Note_on_c, 0, 33, 23
1, 53315, Control_c, 0, 64, 127
1, 53520, Tempo, 1278500
1, 53520, Note_on_c, 0, 33, 0
1, 53640, Note_on_c, 0, 64, 0
1, 53640, Note_on_c, 0, 63, 30
1, 53760, Note_on_c, 0, 63, 0
1, 53760, Note_on_c, 0, 55, 0
1, 53760, Note_on_c, 0, 61, 0
1, 53760, Note_on_c, 0, 55, 22
1, 53760, Note_on_c, 0, 61, 22
1, 53760, Note_on_c, 0, 63, 27
1, 53760, Note_on_c, 0, 45, 26
1, 54000, Note_on_c, 0, 45, 0
1, 54000, Note_on_c, 0, 69, 26
1, 54240, Note_on_c, 0, 69, 0
1, 54480, Note_on_c, 0, 63, 0
1, 54480, Note_on_c, 0, 61, 0
1, 54480, Note_on_c, 0, 55, 0
1, 54480, Note_on_c, 0, 55, 25
1, 54480, Note_on_c, 0, 61, 25
1, 54480, Note_on_c, 0, 63, 29
1, 54720, Tempo, 1232792
1, 54720, Note_on_c, 0, 63, 0
1, 54720, Note_on_c, 0, 61, 0
1, 54720, Note_on_c, 0, 55, 0
1, 54720, Note_on_c, 0, 64, 33
1, 54720, Note_on_c, 0, 61, 27
1, 54720, Note_on_c, 0, 54, 27
1, 54720, Control_c, 0, 64, 0
1, 54720, Note_on_c, 0, 33, 23
1, 54755, Control_c, 0, 64, 127
1, 54960, Tempo, 1278500
1, 54960, Note_on_c, 0, 33, 0
1, 55080, Note_on_c, 0, 64, 0
1, 55080, Note_on_c, 0, 63, 30
1, 55200, Note_on_c, 0, 63, 0
1, 55200, Note_on_c, 0, 54, 0
1, 55200, Note_on_c, 0, 61, 0
1, 55200, Note_on_c, 0, 54, 22
1, 55200, Note_on_c, 0, 61, 22
1, 55200, Note_on_c, 0, 63, 27
1, 55200, Note_on_c, 0, 45, 26
1, 55440, Note_on_c, 0, 45, 0
1, 55440, Note_on_c, 0, 69, 26
1, 55680, Note_on_c, 0, 69, 0
1, 55920, Note_on_c, 0, 63, 0
1, 55920, Note_on_c, 0, 61, 0
1, 55920, Note_on_c, 0, 54, 0
1, 55920, Note_on_c, 0, 54, 22
1, 55920, Note_on_c, 0, 61, 22
1, 55920, Note_on_c, 0, 63, 27
1, 56160, Tempo, 1232792
1, 56160, Note_on_c, 0, 63, 0
1, 56160, Note_on_c, 0, 61, 0
1, 56160, Note_on_c, 0, 54, 0
1, 56160, Note_on_c, 0, 63, 25
1, 56160, Note_on_c, 0, 60, 20
1, 56160, Note_on_c, 0, 54, 20
1, 56160, Control_c, 0, 64, 0
1, 56160, Note_on_c, 0, 32, 19
1, 56195, Control_c, 0, 64, 127
1, 56400, Tempo, 1278500
1, 56400, Note_on_c, 0, 32, 0
1, 56640, Tempo, 1236094
1, 56640, Note_on_c, 0, 44, 21
1, 56880, Note_on_c, 0, 44, 0
1, 56880, Note_on_c, 0, 54, 0
1, 56880, Note_on_c, 0, 60, 0
1, 56880, Note_on_c, 0, 63, 0
1, 56880, Note_on_c, 0, 64, 21
1, 56880, Note_on_c, 0, 56, 21
1, 57000, Note_on_c, 0, 64, 0
1, 57000, Note_on_c, 0, 66, 21
1, 57120, Tempo, 1273615
1, 57120, Note_on_c, 0, 66, 0
1, 57120, Note_on_c, 0, 56, 0
1, 57120, Note_on_c, 0, 68, 21
1, 57360, Note_on_c, 0, 68, 0
1, 57360, Note_on_c, 0, 60, 22
1, 57360, Note_on_c, 0, 54, 18
1, 57360, Note_on_c, 0, 57, 18
1, 57600, Tempo, 1232792
1, 57600, Note_on_c, 0, 57, 0
1, 57600, Note_on_c, 0, 54, 0
1, 57600, Note_on_c, 0, 60, 0
1, 57600, Note_on_c, 0, 61, 27
1, 57600, Note_on_c, 0, 52, 22
1, 57600, Note_on_c, 0, 56, 22
1, 57600, Note_on_c, 0, 37, 23
1, 57608, Control_c, 0, 64, 0
1, 57798, Control_c, 0, 64, 127
1, 57840, Tempo, 1278500
1, 57840, Note_on_c, 0, 37, 0
1, 58080, Note_on_c, 0, 49, 24
1, 58320, Note_on_c, 0, 49, 0
1, 58320, Note_on_c, 0, 73, 26
1, 58560, Note_on_c, 0, 73, 0
1, 59040, Note_on_c, 0, 37, 23
1, 59280, Note_on_c, 0, 37, 0
1, 59520, Note_on_c, 0, 49, 24
1, 59760, Note_on_c, 0, 49, 0
1, 59760, Note_on_c, 0, 73, 26
1, 60000, Tempo, 1449275
1, 60000, Note_on_c, 0, 73, 0
1, 60240, Tempo, 1385361
1, 60254, Note_on_c, 0, 32, 37
1, 60254, Control_c, 0, 64, 0
1, 60480, Key_signature, 3, "major"
1, 60480, Tempo, 1171875
1, 60480, Note_on_c, 0, 56, 0
1, 60480, Note_on_c, 0, 61, 0
1, 60480, Note_on_c, 0, 52, 0
1, 60480, Note_on_c, 0, 49, 38
1, 60480, Note_on_c, 0, 52, 38
1, 60480, Note_on_c, 0, 57, 45
1, 60480, Note_on_c, 0, 33, 34
1, 60491, Control_c, 0, 64, 127
1, 60494, Note_on_c, 0, 32, 0
1, 60600, Note_on_c, 0, 33, 0
1, 60600, Note_on_c, 0, 45, 28
1, 60639, Control_c, 0, 64, 0
1, 60660, Note_on_c, 0, 45, 0
1, 60720, Note_on_c, 0, 45, 28
1, 60780, Note_on_c, 0, 45, 0
1, 60840, Note_on_c, 0, 45, 28
1, 60900, Note_on_c, 0, 45, 0
1, 60960, Tempo, 1107420
1, 60960, Note_on_c, 0, 57, 0
1, 60960, Note_on_c, 0, 52, 0
1, 60960, Note_on_c, 0, 49, 0
1, 60960, Note_on_c, 0, 49, 38
1, 60960, Note_on_c, 0, 57, 46
1, 60960, Note_on_c, 0, 33, 33
1, 61006, Control_c, 0, 64, 127
1, 61080, Note_on_c, 0, 33, 0
1, 61080, Note_on_c, 0, 45, 28
1, 61094, Control_c, 0, 64, 0
1, 61140, Note_on_c, 0, 45, 0
1, 61200, Note_on_c, 0, 45, 28
1, 61260, Note_on_c, 0, 45, 0
1, 61320, Note_on_c, 0, 45, 28
1, 61380, Note_on_c, 0, 45, 0
1, 61440, Tempo, 1138520
1, 61440, Note_on_c, 0, 57, 0
1, 61440, Note_on_c, 0, 49, 0
1, 61440, Note_on_c, 0, 50, 38
1, 61440, Note_on_c, 0, 57, 38
1, 61440, Note_on_c, 0, 59, 45
1, 61440, Note_on_c, 0, 33, 32
1, 61479, Control_c, 0, 64, 127
1, 61560, Note_on_c, 0, 33, 0
1, 61560, Note_on_c, 0, 45, 28
1, 61581, Control_c, 0, 64, 0
1, 61620, Note_on_c, 0, 45, 0
1, 61680, Note_on_c, 0, 45, 28
1, 61740, Note_on_c, 0, 45, 0
1, 61800, Note_on_c, 0, 45, 28
1, 61860, Note_on_c, 0, 45, 0
1, 61920, Note_on_c, 0, 59, 0
1, 61920, Note_on_c, 0, 57, 0
1, 61920, Note_on_c, 0, 50, 0
1, 61920, Note_on_c, 0, 52, 38
1, 61920, Note_on_c, 0, 61, 46
1, 61920, Note_on_c, 0, 57, 38
1, 61920, Note_on_c, 0, 33, 34
1, 61977, Control_c, 0, 64, 127
1, 62040, Note_on_c, 0, 33, 0
1, 62040, Note_on_c, 0, 45, 29
1, 62086, Control_c, 0, 64, 0
1, 62100, Note_on_c, 0, 45, 0
1, 62160, Note_on_c, 0, 45, 29
1, 62220, Note_on_c, 0, 45, 0
1, 62280, Note_on_c, 0, 57, 0
1, 62280, Note_on_c, 0, 50, 36
1, 62280, Note_on_c, 0, 57, 36
1, 62280, Note_on_c, 0, 59, 42
1, 62280, Note_on_c, 0, 45, 29
1, 62290, Note_on_c, 0, 61, 0
1, 62290, Note_on_c, 0, 52, 0
1, 62340, Note_on_c, 0, 45, 0
1, 62400, Tempo, 1107420
1, 62400, Note_on_c, 0, 57, 0
1, 62400, Note_on_c, 0, 49, 36
1, 62400, Note_on_c, 0, 57, 42
1, 62400, Note_on_c, 0, 45, 29
1, 62410, Note_on_c, 0, 59, 0
1, 62410, Note_on_c, 0, 50, 0
1, 62460, Note_on_c, 0, 45, 0
1, 62520, Note_on_c, 0, 45, 29
1, 62580, Note_on_c, 0, 45, 0
1, 62640, Note_on_c, 0, 45, 29
1, 62700, Note_on_c, 0, 45, 0
1, 62760, Note_on_c, 0, 45, 29
1, 62820, Note_on_c, 0, 45, 0
1, 62880, Note_on_c, 0, 33, 34
1, 62908, Control_c, 0, 64, 127
1, 63000, Note_on_c, 0, 33, 0
1, 63000, Note_on_c, 0, 45, 26
1, 63021, Control_c, 0, 64, 0
1, 63060, Note_on_c, 0, 45, 0
1, 63120, Tempo, 1250000
1, 63120, Note_on_c, 0, 49, 0
1, 63120, Note_on_c, 0, 57, 0
1, 63120, Note_on_c, 0, 52, 38
1, 63120, Note_on_c, 0, 57, 38
1, 63120, Note_on_c, 0, 61, 46
1, 63120, Note_on_c, 0, 45, 29
1, 63180, Note_on_c, 0, 45, 0
1, 63240, Note_on_c, 0, 45, 31
1, 63300, Note_on_c, 0, 45, 0
1, 63360, Tempo, 1107420
1, 63360, Note_on_c, 0, 61, 0
1, 63360, Note_on_c, 0, 57, 0
1, 63360, Note_on_c, 0, 52, 0
1, 63360, Note_on_c, 0, 54, 40
1, 63360, Note_on_c, 0, 57, 40
1, 63360, Note_on_c, 0, 62, 48
1, 63360, Note_on_c, 0, 33, 34
1, 63438, Control_c, 0, 64, 127
1, 63480, Note_on_c, 0, 33, 0
1, 63480, Note_on_c, 0, 45, 31
1, 63540, Note_on_c, 0, 45, 0
1, 63558, Control_c, 0, 64, 0
1, 63600, Note_on_c, 0, 45, 31
1, 63660, Note_on_c, 0, 45, 0
1, 63720, Note_on_c, 0, 57, 0
1, 63720, Note_on_c, 0, 52, 38
1, 63720, Note_on_c, 0, 57, 38
1, 63720, Note_on_c, 0, 61, 45
1, 63720, Note_on_c, 0, 45, 31
1, 63730, Note_on_c, 0, 62, 0
1, 63730, Note_on_c, 0, 54, 0
1, 63780, Note_on_c, 0, 45, 0
1, 63840, Tempo, 1077780
1, 63840, Note_on_c, 0, 57, 0
1, 63840, Note_on_c, 0, 50, 39
1, 63840, Note_on_c, 0, 57, 39
1, 63840, Note_on_c, 0, 59, 47
1, 63840, Note_on_c, 0, 45, 31
1, 63850, Note_on_c, 0, 61, 0
1, 63850, Note_on_c, 0, 52, 0
1, 63900, Note_on_c, 0, 45, 0
1, 63960, Note_on_c, 0, 45, 30
1, 64020, Note_on_c, 0, 45, 0
1, 64080, Note_on_c, 0, 50, 0
1, 64080, Note_on_c, 0, 59, 0
1, 64080, Note_on_c, 0, 57, 0
1, 64080, Note_on_c, 0, 54, 38
1, 64080, Note_on_c, 0, 57, 38
1, 64080, Note_on_c, 0, 62, 45
1, 64080, Note_on_c, 0, 33, 31
1, 64172, Control_c, 0, 64, 127
1, 64200, Note_on_c, 0, 33, 0
1, 64200, Note_on_c, 0, 45, 31
1, 64320, Tempo, 1128032
1, 64320, Note_on_c, 0, 45, 0
1, 64320, Note_on_c, 0, 62, 0
1, 64320, Note_on_c, 0, 57, 0
1, 64320, Note_on_c, 0, 54, 0
1, 64320, Note_on_c, 0, 52, 38
1, 64320, Note_on_c, 0, 57, 38
1, 64320, Note_on_c, 0, 61, 45
1, 64320, Note_on_c, 0, 33, 31
1, 64335, Control_c, 0, 64, 0
1, 64412, Control_c, 0, 64, 127
1, 64440, Note_on_c, 0, 33, 0
1, 64440, Note_on_c, 0, 45, 31
1, 64560, Note_on_c, 0, 45, 0
1, 64560, Note_on_c, 0, 61, 0
1, 64560, Note_on_c, 0, 57, 0
1, 64560, Note_on_c, 0, 52, 0
1, 64560, Note_on_c, 0, 49, 38
1, 64560, Note_on_c, 0, 52, 38
1, 64560, Note_on_c, 0, 57, 45
1, 64560, Note_on_c, 0, 37, 31
1, 64680, Note_on_c, 0, 37, 0
1, 64680, Note_on_c, 0, 49, 31
1, 64800, Note_on_c, 0, 49, 0
1, 64800, Note_on_c, 0, 57, 0
1, 64800, Note_on_c, 0, 52, 0
1, 64800, Note_on_c, 0, 49, 0
1, 64800, Note_on_c, 0, 47, 39
1, 64800, Note_on_c, 0, 52, 39
1, 64800, Note_on_c, 0, 56, 47
1, 64800, Control_c, 0, 64, 0
1, 64800, Note_on_c, 0, 40, 34
1, 64856, Control_c, 0, 64, 127
1, 64920, Note_on_c, 0, 40, 0
1, 64920, Note_on_c, 0, 40, 33
1, 65040, Note_on_c, 0, 40, 0
1, 65040, Note_on_c, 0, 40, 36
1, 65160, Note_on_c, 0, 40, 0
1, 65160, Note_on_c, 0, 40, 39
1, 65280, Tempo, 1097293
1, 65280, Note_on_c, 0, 40, 0
1, 65280, Note_on_c, 0, 40, 37
1, 65294, Control_c, 0, 64, 0
1, 65340, Note_on_c, 0, 40, 0
1, 65400, Note_on_c, 0, 40, 35
1, 65460, Note_on_c, 0, 40, 0
1, 65520, Note_on_c, 0, 56, 0
1, 65520, Note_on_c, 0, 52, 0
1, 65520, Note_on_c, 0, 47, 0
1, 65520, Note_on_c, 0, 47, 38
1, 65520, Note_on_c, 0, 54, 38
1, 65520, Note_on_c, 0, 56, 46
1, 65520, Note_on_c, 0, 38, 33
1, 65580, Note_on_c, 0, 38, 0
1, 65600, Tempo, 1097293
1, 65640, Note_on_c, 0, 38, 31
1, 65700, Note_on_c, 0, 38, 0
1, 65760, Tempo, 1107420
1, 65760, Note_on_c, 0, 56, 0
1, 65760, Note_on_c, 0, 54, 0
1, 65760, Note_on_c, 0, 47, 0
1, 65760, Note_on_c, 0, 49, 41
1, 65760, Note_on_c, 0, 52, 41
1, 65760, Note_on_c, 0, 56, 49
1, 65760, Note_on_c, 0, 37, 30
1, 65820, Note_on_c, 0, 37, 0
1, 65880, Tempo, 1117527
1, 65880, Note_on_c, 0, 37, 30
1, 65940, Note_on_c, 0, 37, 0
1, 66000, Tempo, 1128032
1, 66000, Note_on_c, 0, 56, 0
1, 66000, Note_on_c, 0, 52, 0
1, 66000, Note_on_c, 0, 49, 0
1, 66000, Note_on_c, 0, 50, 41
1, 66000, Note_on_c, 0, 52, 41
1, 66000, Note_on_c, 0, 56, 49
1, 66000, Note_on_c, 0, 35, 29
1, 66060, Note_on_c, 0, 35, 0
1, 66120, Tempo, 1138520
1, 66120, Note_on_c, 0, 35, 29
1, 66180, Note_on_c, 0, 35, 0
1, 66240, Tempo, 1171875
1, 66240, Note_on_c, 0, 56, 0
1, 66240, Note_on_c, 0, 52, 0
1, 66240, Note_on_c, 0, 50, 0
1, 66240, Note_on_c, 0, 49, 38
1, 66240, Note_on_c, 0, 52, 38
1, 66240, Note_on_c, 0, 57, 45
1, 66240, Note_on_c, 0, 33, 34
1, 66318, Control_c, 0, 64, 127
1, 66360, Note_on_c, 0, 33, 0
1, 66360, Note_on_c, 0, 45, 28
1, 66420, Note_on_c, 0, 45, 0
1, 66480, Control_c, 0, 64, 0
1, 66480, Note_on_c, 0, 45, 28
1, 66540, Note_on_c, 0, 45, 0
1, 66600, Note_on_c, 0, 45, 28
1, 66660, Note_on_c, 0, 45, 0
1, 66720, Tempo, 1107420
1, 66720, Note_on_c, 0, 57, 0
1, 66720, Note_on_c, 0, 52, 0
1, 66720, Note_on_c, 0, 49, 0
1, 66720, Note_on_c, 0, 49, 38
1, 66720, Note_on_c, 0, 57, 46
1, 66720, Note_on_c, 0, 33, 33
1, 66773, Control_c, 0, 64, 127
1, 66840, Note_on_c, 0, 33, 0
1, 66840, Note_on_c, 0, 45, 28
1, 66893, Control_c, 0, 64, 0
1, 66900, Note_on_c, 0, 45, 0
1, 66960, Note_on_c, 0, 45, 28
1, 67020, Note_on_c, 0, 45, 0
1, 67080, Note_on_c, 0, 45, 28
1, 67140, Note_on_c, 0, 45, 0
1, 67200, Tempo, 1138520
1, 67200, Note_on_c, 0, 57, 0
1, 67200, Note_on_c, 0, 49, 0
1, 67200, Note_on_c, 0, 50, 38
1, 67200, Note_on_c, 0, 57, 38
1, 67200, Note_on_c, 0, 59, 45
1, 67200, Note_on_c, 0, 33, 32
1, 67232, Control_c, 0, 64, 127
1, 67320, Note_on_c, 0, 33, 0
1, 67320, Note_on_c, 0, 45, 28
1, 67341, Control_c, 0, 64, 0
1, 67380, Note_on_c, 0, 45, 0
1, 67440, Note_on_c, 0, 45, 28
1, 67500, Note_on_c, 0, 45, 0
1, 67560, Note_on_c, 0, 45, 28
1, 67620, Note_on_c, 0, 45, 0
1, 67680, Note_on_c, 0, 59, 0
1, 67680, Note_on_c, 0, 57, 0
1, 67680, Note_on_c, 0, 50, 0
1, 67680, Note_on_c, 0, 52, 38
1, 67680, Note_on_c, 0, 61, 46
1, 67680, Note_on_c, 0, 57, 38
1, 67680, Note_on_c, 0, 33, 34
1, 67737, Control_c, 0, 64, 127
1, 67800, Note_on_c, 0, 33, 0
1, 67800, Note_on_c, 0, 45, 29
1, 67853, Control_c, 0, 64, 0
1, 67860, Note_on_c, 0, 45, 0
1, 67920, Note_on_c, 0, 45, 29
1, 67980, Note_on_c, 0, 45, 0
1, 68040, Note_on_c, 0, 57, 0
1, 68040, Note_on_c, 0, 50, 36
1, 68040, Note_on_c, 0, 57, 36
1, 68040, Note_on_c, 0, 59, 42
1, 68040, Note_on_c, 0, 45, 29
1, 68050, Note_on_c, 0, 61, 0
1, 68050, Note_on_c, 0, 52, 0
1, 68100, Note_on_c, 0, 45, 0
1, 68160, Tempo, 1107420
1, 68160, Note_on_c, 0, 57, 0
1, 68160, Note_on_c, 0, 49, 32
1, 68160, Note_on_c, 0, 57, 37
1, 68160, Note_on_c, 0, 45, 29
1, 68170, Note_on_c, 0, 59, 0
1, 68170, Note_on_c, 0, 50, 0
1, 68220, Note_on_c, 0, 45, 0
1, 68280, Note_on_c, 0, 45, 29
1, 68340, Note_on_c, 0, 45, 0
1, 68400, Note_on_c, 0, 33, 29
1, 68460, Note_on_c, 0, 33, 0
1, 68520, Note_on_c, 0, 45, 30
1, 68580, Note_on_c, 0, 45, 0
1, 68640, Note_on_c, 0, 31, 42
1, 68663, Control_c, 0, 64, 127
1, 68760, Note_on_c, 0, 31, 0
1, 68760, Note_on_c, 0, 43, 36
1, 68880, Tempo, 1237113
1, 68880, Note_on_c, 0, 43, 0
1, 68880, Note_on_c, 0, 49, 0
1, 68880, Note_on_c, 0, 57, 0
1, 68880, Note_on_c, 0, 54, 41
1, 68880, Note_on_c, 0, 52, 41
1, 68880, Note_on_c, 0, 58, 41
1, 68880, Note_on_c, 0, 61, 50
1, 68880, Note_on_c, 0, 28, 39
1, 68895, Control_c, 0, 64, 0
1, 68926, Control_c, 0, 64, 127
1, 68970, Note_on_c, 0, 28, 0
1, 69000, Note_on_c, 0, 42, 43
1, 69090, Note_on_c, 0, 42, 0
1, 69120, Tempo, 1107420
1, 69120, Note_on_c, 0, 61, 0
1, 69120, Note_on_c, 0, 54, 0
1, 69120, Note_on_c, 0, 52, 0
1, 69120, Note_on_c, 0, 58, 0
1, 69120, Note_on_c, 0, 50, 45
1, 69120, Note_on_c, 0, 54, 45
1, 69120, Note_on_c, 0, 59, 45
1, 69120, Note_on_c, 0, 62, 53
1, 69120, Control_c, 0, 64, 0
1, 69120, Note_on_c, 0, 35, 47
1, 69198, Control_c, 0, 64, 127
1, 69240, Note_on_c, 0, 35, 0
1, 69240, Note_on_c, 0, 47, 36
1, 69298, Control_c, 0, 64, 0
1, 69360, Note_on_c, 0, 47, 0
1, 69360, Note_on_c, 0, 47, 34
1, 69480, Note_on_c, 0, 47, 0
1, 69480, Note_on_c, 0, 54, 0
1, 69480, Note_on_c, 0, 54, 38
1, 69480, Note_on_c, 0, 52, 38
1, 69480, Note_on_c, 0, 58, 38
1, 69480, Note_on_c, 0, 61, 44
1, 69480, Note_on_c, 0, 49, 32
1, 69490, Note_on_c, 0, 50, 0
1, 69490, Note_on_c, 0, 62, 0
1, 69490, Note_on_c, 0, 59, 0
1, 69600, Tempo, 1077780
1, 69600, Note_on_c, 0, 49, 0
1, 69600, Note_on_c, 0, 58, 0
1, 69600, Note_on_c, 0, 50, 39
1, 69600, Note_on_c, 0, 57, 39
1, 69600, Note_on_c, 0, 59, 47
1, 69600, Note_on_c, 0, 50, 31
1, 69610, Note_on_c, 0, 54, 0
1, 69610, Note_on_c, 0, 61, 0
1, 69610, Note_on_c, 0, 52, 0
1, 69664, Control_c, 0, 64, 127
1, 69720, Note_on_c, 0, 50, 0
1, 69720, Note_on_c, 0, 47, 30
1, 69840, Note_on_c, 0, 47, 0
1, 69840, Note_on_c, 0, 57, 0
1, 69840, Note_on_c, 0, 59, 0
1, 69840, Note_on_c, 0, 50, 0
1, 69840, Note_on_c, 0, 50, 41
1, 69840, Note_on_c, 0, 54, 41
1, 69840, Note_on_c, 0, 62, 49
1, 69840, Note_on_c, 0, 35, 34
1, 69856, Control_c, 0, 64, 0
1, 69932, Control_c, 0, 64, 127
1, 69960, Note_on_c, 0, 35, 0
1, 69960, Note_on_c, 0, 54, 0
1, 69960, Note_on_c, 0, 56, 40
1, 69960, Note_on_c, 0, 47, 33
1, 70080, Tempo, 1171875
1, 70080, Note_on_c, 0, 47, 0
1, 70080, Note_on_c, 0, 50, 0
1, 70080, Note_on_c, 0, 62, 0
1, 70080, Note_on_c, 0, 56, 0
1, 70080, Note_on_c, 0, 52, 39
1, 70080, Note_on_c, 0, 57, 39
1, 70080, Note_on_c, 0, 61, 46
1, 70080, Note_on_c, 0, 37, 32
1, 70095, Control_c, 0, 64, 0
1, 70172, Control_c, 0, 64, 127
1, 70200, Note_on_c, 0, 37, 0
1, 70200, Note_on_c, 0, 49, 31
1, 70320, Note_on_c, 0, 49, 0
1, 70320, Note_on_c, 0, 61, 0
1, 70320, Note_on_c, 0, 57, 0
1, 70320, Note_on_c, 0, 52, 0
1, 70320, Note_on_c, 0, 50, 38
1, 70320, Note_on_c, 0, 52, 38
1, 70320, Note_on_c, 0, 56, 38
1, 70320, Note_on_c, 0, 59, 45
1, 70320, Note_on_c, 0, 40, 31
1, 70360, Tempo, 1244555
1, 70440, Note_on_c, 0, 40, 0
1, 70440, Note_on_c, 0, 52, 31
1, 70560, Tempo, 1128032
1, 70560, Note_on_c, 0, 52, 0
1, 70560, Note_on_c, 0, 59, 0
1, 70560, Note_on_c, 0, 50, 0
1, 70560, Note_on_c, 0, 52, 0
1, 70560, Note_on_c, 0, 56, 0
1, 70560, Note_on_c, 0, 50, 39
1, 70560, Note_on_c, 0, 52, 39
1, 70560, Note_on_c, 0, 56, 39
1, 70560, Note_on_c, 0, 59, 47
1, 70560, Control_c, 0, 64, 0
1, 70616, Control_c, 0, 64, 127
1, 70680, Note_on_c, 0, 40, 29
1, 70800, Note_on_c, 0, 40, 0
1, 70800, Note_on_c, 0, 44, 31
1, 70920, Note_on_c, 0, 44, 0
1, 70920, Note_on_c, 0, 40, 33
1, 71040, Tempo, 1097293
1, 71040, Note_on_c, 0, 40, 0
1, 71040, Note_on_c, 0, 56, 0
1, 71040, Note_on_c, 0, 59, 0
1, 71040, Note_on_c, 0, 50, 0
1, 71040, Note_on_c, 0, 49, 39
1, 71040, Note_on_c, 0, 57, 47
1, 71040, Control_c, 0, 64, 0
1, 71040, Note_on_c, 0, 45, 35
1, 71130, Note_on_c, 0, 45, 0
1, 71160, Note_on_c, 0, 37, 32
1, 71220, Note_on_c, 0, 37, 0
1, 71280, Note_on_c, 0, 52, 0
1, 71280, Note_on_c, 0, 38, 32
1, 71340, Note_on_c, 0, 38, 0
1, 71360, Tempo, 1097293
1, 71400, Note_on_c, 0, 40, 32
1, 71460, Note_on_c, 0, 40, 0
1, 71520, Tempo, 1107420
1, 71520, Note_on_c, 0, 57, 0
1, 71520, Note_on_c, 0, 49, 0
1, 71520, Note_on_c, 0, 42, 32
1, 71580, Note_on_c, 0, 42, 0
1, 71640, Tempo, 1117527
1, 71640, Note_on_c, 0, 40, 32
1, 71700, Note_on_c, 0, 40, 0
1, 71760, Tempo, 1128032
1, 71760, Note_on_c, 0, 42, 31
1, 71820, Note_on_c, 0, 42, 0
1, 71880, Tempo, 1138520
1, 71880, Note_on_c, 0, 44, 31
1, 71940, Note_on_c, 0, 44, 0
1, 72000, Tempo, 1107420
1, 72000, Note_on_c, 0, 69, 62
1, 72000, Note_on_c, 0, 45, 36
1, 72039, Control_c, 0, 64, 127
1, 72080, Note_on_c, 0, 64, 31
1, 72120, Tempo, 1097293
1, 72120, Note_on_c, 0, 45, 0
1, 72160, Note_on_c, 0, 64, 0
1, 72160, Note_on_c, 0, 61, 31
1, 72240, Tempo, 1087350
1, 72240, Note_on_c, 0, 61, 0
1, 72240, Note_on_c, 0, 64, 31
1, 72240, Note_on_c, 0, 49, 23
1, 72240, Note_on_c, 0, 52, 27
1, 72320, Note_on_c, 0, 64, 0
1, 72320, Note_on_c, 0, 61, 31
1, 72360, Tempo, 1077780
1, 72360, Note_on_c, 0, 52, 0
1, 72360, Note_on_c, 0, 49, 0
1, 72400, Note_on_c, 0, 61, 0
1, 72400, Note_on_c, 0, 57, 31
1, 72440, Tempo, 1068186
1, 72480, Note_on_c, 0, 57, 0
1, 72480, Note_on_c, 0, 69, 0
1, 72480, Note_on_c, 0, 69, 63
1, 72480, Note_on_c, 0, 45, 36
1, 72560, Tempo, 1077780
1, 72560, Note_on_c, 0, 64, 31
1, 72600, Note_on_c, 0, 45, 0
1, 72640, Note_on_c, 0, 64, 0
1, 72640, Note_on_c, 0, 61, 31
1, 72680, Tempo, 1087350
1, 72720, Note_on_c, 0, 61, 0
1, 72720, Note_on_c, 0, 64, 31
1, 72720, Note_on_c, 0, 49, 24
1, 72720, Note_on_c, 0, 52, 28
1, 72760, Tempo, 1097293
1, 72800, Note_on_c, 0, 64, 0
1, 72800, Note_on_c, 0, 61, 31
1, 72840, Note_on_c, 0, 52, 0
1, 72840, Note_on_c, 0, 49, 0
1, 72880, Tempo, 1107420
1, 72880, Note_on_c, 0, 61, 0
1, 72880, Note_on_c, 0, 57, 31
1, 72960, Tempo, 1117527
1, 72960, Note_on_c, 0, 57, 0
1, 72960, Note_on_c, 0, 69, 0
1, 72960, Note_on_c, 0, 71, 62
1, 72960, Note_on_c, 0, 45, 36
1, 72982, Control_c, 0, 64, 0
1, 73040, Note_on_c, 0, 68, 31
1, 73059, Control_c, 0, 64, 127
1, 73080, Note_on_c, 0, 45, 0
1, 73120, Note_on_c, 0, 68, 0
1, 73120, Note_on_c, 0, 64, 32
1, 73200, Note_on_c, 0, 64, 0
1, 73200, Note_on_c, 0, 68, 32
1, 73200, Note_on_c, 0, 50, 25
1, 73200, Note_on_c, 0, 52, 29
1, 73280, Note_on_c, 0, 68, 0
1, 73280, Note_on_c, 0, 64, 32
1, 73320, Note_on_c, 0, 52, 0
1, 73320, Note_on_c, 0, 50, 0
1, 73360, Note_on_c, 0, 64, 0
1, 73360, Note_on_c, 0, 59, 32
1, 73400, Tempo, 1117527
1, 73440, Note_on_c, 0, 59, 0
1, 73440, Note_on_c, 0, 71, 0
1, 73440, Note_on_c, 0, 73, 63
1, 73440, Note_on_c, 0, 45, 36
1, 73440, Control_c, 0, 64, 0
1, 73497, Control_c, 0, 64, 127
1, 73520, Note_on_c, 0, 69, 32
1, 73560, Note_on_c, 0, 45, 0
1, 73600, Tempo, 1107420
1, 73600, Note_on_c, 0, 69, 0
1, 73600, Note_on_c, 0, 64, 32
1, 73680, Note_on_c, 0, 64, 0
1, 73680, Note_on_c, 0, 69, 32
1, 73680, Note_on_c, 0, 52, 30
1, 73760, Note_on_c, 0, 69, 0
1, 73760, Note_on_c, 0, 64, 32
1, 73800, Tempo, 1097293
1, 73800, Note_on_c, 0, 52, 0
1, 73840, Note_on_c, 0, 64, 0
1, 73840, Note_on_c, 0, 62, 32
1, 73860, Note_on_c, 0, 73, 0
1, 73860, Note_on_c, 0, 71, 59
1, 73920, Note_on_c, 0, 71, 0
1, 73920, Note_on_c, 0, 62, 0
1, 73920, Note_on_c, 0, 69, 59
1, 73920, Note_on_c, 0, 45, 36
1, 73942, Control_c, 0, 64, 0
1, 74000, Tempo, 1087350
1, 74000, Note_on_c, 0, 64, 31
1, 74034, Control_c, 0, 64, 127
1, 74040, Note_on_c, 0, 45, 0
1, 74080, Note_on_c, 0, 64, 0
1, 74080, Note_on_c, 0, 61, 31
1, 74160, Note_on_c, 0, 61, 0
1, 74160, Note_on_c, 0, 64, 31
1, 74160, Note_on_c, 0, 52, 29
1, 74160, Note_on_c, 0, 49, 25
1, 74200, Tempo, 1077780
1, 74240, Note_on_c, 0, 64, 0
1, 74240, Note_on_c, 0, 61, 31
1, 74280, Note_on_c, 0, 49, 0
1, 74280, Note_on_c, 0, 52, 0
1, 74320, Note_on_c, 0, 61, 0
1, 74320, Note_on_c, 0, 57, 31
1, 74400, Tempo, 1068186
1, 74400, Note_on_c, 0, 57, 0
1, 74400, Note_on_c, 0, 45, 36
1, 74480, Note_on_c, 0, 61, 32
1, 74520, Note_on_c, 0, 45, 0
1, 74560, Tempo, 1077780
1, 74560, Note_on_c, 0, 61, 0
1, 74560, Note_on_c, 0, 64, 32
1, 74640, Note_on_c, 0, 64, 0
1, 74640, Note_on_c, 0, 69, 0
1, 74640, Note_on_c, 0, 61, 32
1, 74640, Note_on_c, 0, 73, 63
1, 74640, Note_on_c, 0, 52, 29
1, 74640, Note_on_c, 0, 57, 29
1, 74720, Tempo, 1087350
1, 74720, Note_on_c, 0, 61, 0
1, 74720, Note_on_c, 0, 64, 32
1, 74760, Note_on_c, 0, 57, 0
1, 74760, Note_on_c, 0, 52, 0
1, 74800, Note_on_c, 0, 64, 0
1, 74800, Note_on_c, 0, 69, 32
1, 74880, Tempo, 1097293
1, 74880, Note_on_c, 0, 69, 0
1, 74880, Note_on_c, 0, 73, 0
1, 74880, Note_on_c, 0, 74, 67
1, 74880, Note_on_c, 0, 45, 36
1, 74880, Control_c, 0, 64, 0
1, 74958, Control_c, 0, 64, 127
1, 74960, Tempo, 1107420
1, 74960, Note_on_c, 0, 69, 34
1, 75000, Note_on_c, 0, 45, 0
1, 75040, Note_on_c, 0, 69, 0
1, 75040, Note_on_c, 0, 66, 34
1, 75080, Tempo, 1097293
1, 75120, Note_on_c, 0, 66, 0
1, 75120, Note_on_c, 0, 69, 34
1, 75120, Note_on_c, 0, 57, 28
1, 75120, Note_on_c, 0, 54, 24
1, 75200, Tempo, 1087350
1, 75200, Note_on_c, 0, 69, 0
1, 75200, Note_on_c, 0, 66, 34
1, 75240, Note_on_c, 0, 54, 0
1, 75240, Note_on_c, 0, 57, 0
1, 75280, Note_on_c, 0, 66, 0
1, 75280, Note_on_c, 0, 64, 32
1, 75300, Note_on_c, 0, 74, 0
1, 75300, Note_on_c, 0, 73, 62
1, 75320, Tempo, 1077780
1, 75360, Note_on_c, 0, 73, 0
1, 75360, Note_on_c, 0, 64, 0
1, 75360, Note_on_c, 0, 71, 66
1, 75360, Note_on_c, 0, 45, 36
1, 75367, Control_c, 0, 64, 0
1, 75400, Tempo, 1068186
1, 75424, Control_c, 0, 64, 127
1, 75440, Note_on_c, 0, 62, 32
1, 75480, Note_on_c, 0, 45, 0
1, 75520, Tempo, 1077780
1, 75520, Note_on_c, 0, 62, 0
1, 75520, Note_on_c, 0, 69, 32
1, 75600, Note_on_c, 0, 69, 0
1, 75600, Note_on_c, 0, 71, 0
1, 75600, Note_on_c, 0, 74, 62
1, 75600, Note_on_c, 0, 54, 27
1, 75600, Note_on_c, 0, 57, 32
1, 75615, Control_c, 0, 64, 0
1, 75640, Tempo, 1087350
1, 75680, Note_on_c, 0, 66, 30
1, 75692, Control_c, 0, 64, 127
1, 75760, Tempo, 1097293
1, 75760, Note_on_c, 0, 66, 0
1, 75760, Note_on_c, 0, 69, 30
1, 75840, Tempo, 1107420
1, 75840, Note_on_c, 0, 69, 0
1, 75840, Note_on_c, 0, 57, 0
1, 75840, Note_on_c, 0, 54, 0
1, 75840, Note_on_c, 0, 74, 0
1, 75840, Note_on_c, 0, 73, 62
1, 75840, Note_on_c, 0, 52, 27
1, 75840, Note_on_c, 0, 57, 32
1, 75855, Control_c, 0, 64, 0
1, 75920, Note_on_c, 0, 69, 32
1, 75932, Control_c, 0, 64, 127
1, 76000, Note_on_c, 0, 69, 0
1, 76000, Note_on_c, 0, 64, 32
1, 76080, Note_on_c, 0, 64, 0
1, 76080, Note_on_c, 0, 57, 0
1, 76080, Note_on_c, 0, 52, 0
1, 76080, Note_on_c, 0, 73, 0
1, 76080, Note_on_c, 0, 69, 62
1, 76080, Note_on_c, 0, 49, 28
1, 76080, Note_on_c, 0, 57, 33
1, 76160, Note_on_c, 0, 64, 32
1, 76240, Note_on_c, 0, 64, 0
1, 76240, Note_on_c, 0, 61, 32
1, 76320, Note_on_c, 0, 61, 0
1, 76320, Note_on_c, 0, 57, 0
1, 76320, Note_on_c, 0, 49, 0
1, 76320, Note_on_c, 0, 69, 0
1, 76320, Note_on_c, 0, 68, 66
1, 76320, Note_on_c, 0, 40, 36
1, 76320, Control_c, 0, 64, 0
1, 76376, Control_c, 0, 64, 127
1, 76400, Note_on_c, 0, 64, 31
1, 76440, Note_on_c, 0, 40, 0
1, 76480, Note_on_c, 0, 64, 0
1, 76480, Note_on_c, 0, 59, 31
1, 76560, Note_on_c, 0, 59, 0
1, 76560, Note_on_c, 0, 64, 31
1, 76560, Note_on_c, 0, 52, 33
1, 76640, Note_on_c, 0, 64, 0
1, 76640, Note_on_c, 0, 59, 31
1, 76680, Note_on_c, 0, 52, 0
1, 76720, Note_on_c, 0, 59, 0
1, 76720, Note_on_c, 0, 56, 31
1, 76800, Tempo, 1097293
1, 76800, Note_on_c, 0, 56, 0
1, 76800, Note_on_c, 0, 64, 31
1, 76800, Note_on_c, 0, 40, 33
1, 76880, Note_on_c, 0, 64, 0
1, 76880, Note_on_c, 0, 59, 31
1, 76920, Note_on_c, 0, 40, 0
1, 76960, Note_on_c, 0, 59, 0
1, 76960, Note_on_c, 0, 56, 31
1, 77026, Control_c, 0, 64, 0
1, 77040, Note_on_c, 0, 56, 0
1, 77040, Note_on_c, 0, 68, 0
1, 77040, Note_on_c, 0, 68, 63
1, 77040, Note_on_c, 0, 50, 27
1, 77040, Note_on_c, 0, 52, 32
1, 77054, Control_c, 0, 64, 127
1, 77120, Tempo, 1097293
1, 77120, Note_on_c, 0, 66, 32
1, 77200, Note_on_c, 0, 66, 0
1, 77200, Note_on_c, 0, 59, 32
1, 77220, Note_on_c, 0, 52, 0
1, 77220, Note_on_c, 0, 50, 0
1, 77280, Tempo, 1107420
1, 77280, Note_on_c, 0, 68, 0
1, 77280, Note_on_c, 0, 59, 0
1, 77280, Note_on_c, 0, 68, 68
1, 77280, Note_on_c, 0, 49, 30
1, 77280, Note_on_c, 0, 52, 36
1, 77287, Control_c, 0, 64, 0
1, 77315, Control_c, 0, 64, 127
1, 77360, Note_on_c, 0, 64, 34
1, 77400, Tempo, 1117527
1, 77440, Note_on_c, 0, 64, 0
1, 77440, Note_on_c, 0, 61, 34
1, 77460, Note_on_c, 0, 52, 0
1, 77460, Note_on_c, 0, 49, 0
1, 77520, Tempo, 1128032
1, 77520, Note_on_c, 0, 68, 0
1, 77520, Note_on_c, 0, 61, 0
1, 77520, Note_on_c, 0, 68, 68
1, 77520, Note_on_c, 0, 47, 28
1, 77520, Note_on_c, 0, 52, 33
1, 77552, Control_c, 0, 64, 0
1, 77573, Control_c, 0, 64, 127
1, 77600, Note_on_c, 0, 64, 32
1, 77640, Tempo, 1138520
1, 77680, Note_on_c, 0, 64, 0
1, 77680, Note_on_c, 0, 62, 32
1, 77700, Note_on_c, 0, 52, 0
1, 77700, Note_on_c, 0, 47, 0
1, 77760, Tempo, 1107420
1, 77760, Note_on_c, 0, 68, 0
1, 77760, Note_on_c, 0, 62, 0
1, 77760, Note_on_c, 0, 69, 62
1, 77760, Note_on_c, 0, 45, 36
1, 77767, Control_c, 0, 64, 0
1, 77820, Control_c, 0, 64, 127
1, 77840, Note_on_c, 0, 64, 31
1, 77880, Tempo, 1097293
1, 77880, Note_on_c, 0, 45, 0
1, 77920, Note_on_c, 0, 64, 0
1, 77920, Note_on_c, 0, 61, 31
1, 78000, Tempo, 1087350
1, 78000, Note_on_c, 0, 61, 0
1, 78000, Note_on_c, 0, 64, 31
1, 78000, Note_on_c, 0, 49, 23
1, 78000, Note_on_c, 0, 52, 27
1, 78080, Note_on_c, 0, 64, 0
1, 78080, Note_on_c, 0, 61, 31
1, 78120, Tempo, 1077780
1, 78120, Note_on_c, 0, 52, 0
1, 78120, Note_on_c, 0, 49, 0
1, 78160, Note_on_c, 0, 61, 0
1, 78160, Note_on_c, 0, 57, 31
1, 78200, Tempo, 1068186
1, 78240, Note_on_c, 0, 57, 0
1, 78240, Note_on_c, 0, 69, 0
1, 78240, Note_on_c, 0, 69, 63
1, 78240, Note_on_c, 0, 45, 36
1, 78320, Tempo, 1077780
1, 78320, Note_on_c, 0, 64, 31
1, 78360, Note_on_c, 0, 45, 0
1, 78400, Note_on_c, 0, 64, 0
1, 78400, Note_on_c, 0, 61, 31
1, 78440, Tempo, 1087350
1, 78480, Note_on_c, 0, 61, 0
1, 78480, Note_on_c, 0, 64, 31
1, 78480, Note_on_c, 0, 49, 24
1, 78480, Note_on_c, 0, 52, 28
1, 78520, Tempo, 1097293
1, 78560, Note_on_c, 0, 64, 0
1, 78560, Note_on_c, 0, 61, 31
1, 78600, Note_on_c, 0, 52, 0
1, 78600, Note_on_c, 0, 49, 0
1, 78640, Tempo, 1107420
1, 78640, Note_on_c, 0, 61, 0
1, 78640, Note_on_c, 0, 57, 31
1, 78720, Tempo, 1117527
1, 78720, Note_on_c, 0, 57, 0
1, 78720, Note_on_c, 0, 69, 0
1, 78720, Note_on_c, 0, 71, 62
1, 78720, Note_on_c, 0, 45, 36
1, 78742, Control_c, 0, 64, 0
1, 78800, Note_on_c, 0, 68, 31
1, 78819, Control_c, 0, 64, 127
1, 78840, Note_on_c, 0, 45, 0
1, 78880, Note_on_c, 0, 68, 0
1, 78880, Note_on_c, 0, 64, 32
1, 78960, Note_on_c, 0, 64, 0
1, 78960, Note_on_c, 0, 68, 32
1, 78960, Note_on_c, 0, 50, 25
1, 78960, Note_on_c, 0, 52, 29
1, 79040, Note_on_c, 0, 68, 0
1, 79040, Note_on_c, 0, 64, 32
1, 79080, Note_on_c, 0, 52, 0
1, 79080, Note_on_c, 0, 50, 0
1, 79120, Note_on_c, 0, 64, 0
1, 79120, Note_on_c, 0, 59, 32
1, 79160, Tempo, 1117527
1, 79200, Note_on_c, 0, 59, 0
1, 79200, Note_on_c, 0, 71, 0
1, 79200, Note_on_c, 0, 73, 63
1, 79200, Note_on_c, 0, 45, 36
1, 79200, Control_c, 0, 64, 0
1, 79257, Control_c, 0, 64, 127
1, 79280, Note_on_c, 0, 69, 32
1, 79320, Note_on_c, 0, 45, 0
1, 79360, Tempo, 1107420
1, 79360, Note_on_c, 0, 69, 0
1, 79360, Note_on_c, 0, 64, 32
1, 79440, Note_on_c, 0, 64, 0
1, 79440, Note_on_c, 0, 69, 32
1, 79440, Note_on_c, 0, 52, 30
1, 79520, Note_on_c, 0, 69, 0
1, 79520, Note_on_c, 0, 64, 32
1, 79560, Tempo, 1097293
1, 79560, Note_on_c, 0, 52, 0
1, 79600, Note_on_c, 0, 64, 0
1, 79600, Note_on_c, 0, 62, 32
1, 79620, Note_on_c, 0, 73, 0
1, 79620, Note_on_c, 0, 71, 59
1, 79680, Note_on_c, 0, 71, 0
1, 79680, Note_on_c, 0, 62, 0
1, 79680, Note_on_c, 0, 69, 59
1, 79680, Note_on_c, 0, 45, 36
1, 79704, Control_c, 0, 64, 0
1, 79760, Tempo, 1087350
1, 79760, Note_on_c, 0, 64, 31
1, 79794, Control_c, 0, 64, 127
1, 79800, Note_on_c, 0, 45, 0
1, 79840, Note_on_c, 0, 64, 0
1, 79840, Note_on_c, 0, 61, 31
1, 79920, Note_on_c, 0, 61, 0
1, 79920, Note_on_c, 0, 64, 31
1, 79920, Note_on_c, 0, 45, 26
1, 79920, Note_on_c, 0, 52, 30
1, 79920, Note_on_c, 0, 49, 26
1, 79960, Tempo, 1077780
1, 80000, Note_on_c, 0, 64, 0
1, 80000, Note_on_c, 0, 61, 31
1, 80040, Note_on_c, 0, 52, 0
1, 80040, Note_on_c, 0, 49, 0
1, 80040, Note_on_c, 0, 45, 0
1, 80080, Note_on_c, 0, 61, 0
1, 80080, Note_on_c, 0, 57, 31
1, 80160, Tempo, 1068186
1, 80160, Note_on_c, 0, 57, 0
1, 80160, Note_on_c, 0, 43, 27
1, 80160, Note_on_c, 0, 49, 27
1, 80160, Note_on_c, 0, 52, 31
1, 80240, Note_on_c, 0, 61, 32
1, 80280, Note_on_c, 0, 52, 0
1, 80280, Note_on_c, 0, 49, 0
1, 80280, Note_on_c, 0, 43, 0
1, 80320, Tempo, 1077780
1, 80320, Note_on_c, 0, 61, 0
1, 80320, Note_on_c, 0, 64, 32
1, 80400, Note_on_c, 0, 64, 0
1, 80400, Note_on_c, 0, 69, 0
1, 80400, Note_on_c, 0, 70, 32
1, 80400, Note_on_c, 0, 73, 63
1, 80400, Note_on_c, 0, 42, 32
1, 80400, Note_on_c, 0, 49, 32
1, 80400, Note_on_c, 0, 54, 32
1, 80480, Tempo, 1087350
1, 80480, Note_on_c, 0, 70, 0
1, 80480, Note_on_c, 0, 66, 32
1, 80520, Note_on_c, 0, 49, 0
1, 80520, Note_on_c, 0, 54, 0
1, 80520, Note_on_c, 0, 42, 0
1, 80560, Note_on_c, 0, 66, 0
1, 80560, Note_on_c, 0, 64, 32
1, 80640, Tempo, 1097293
1, 80640, Note_on_c, 0, 64, 0
1, 80640, Note_on_c, 0, 73, 0
1, 80640, Note_on_c, 0, 74, 67
1, 80640, Note_on_c, 0, 47, 40
1, 80640, Control_c, 0, 64, 0
1, 80718, Control_c, 0, 64, 127
1, 80720, Tempo, 1107420
1, 80720, Note_on_c, 0, 71, 34
1, 80760, Note_on_c, 0, 47, 0
1, 80800, Note_on_c, 0, 71, 0
1, 80800, Note_on_c, 0, 66, 34
1, 80840, Tempo, 1097293
1, 80880, Note_on_c, 0, 66, 0
1, 80880, Note_on_c, 0, 71, 34
1, 80880, Note_on_c, 0, 54, 28
1, 80960, Tempo, 1087350
1, 80960, Note_on_c, 0, 71, 0
1, 80960, Note_on_c, 0, 66, 34
1, 81040, Note_on_c, 0, 66, 0
1, 81040, Note_on_c, 0, 64, 32
1, 81060, Note_on_c, 0, 54, 0
1, 81060, Note_on_c, 0, 74, 0
1, 81060, Note_on_c, 0, 73, 62
1, 81060, Note_on_c, 0, 58, 28
1, 81080, Tempo, 1077780
1, 81120, Note_on_c, 0, 58, 0
1, 81120, Note_on_c, 0, 73, 0
1, 81120, Note_on_c, 0, 64, 0
1, 81120, Note_on_c, 0, 71, 66
1, 81120, Note_on_c, 0, 59, 36
1, 81127, Control_c, 0, 64, 0
1, 81160, Tempo, 1068186
1, 81184, Control_c, 0, 64, 127
1, 81200, Note_on_c, 0, 62, 32
1, 81280, Note_on_c, 0, 62, 0
1, 81280, Note_on_c, 0, 66, 32
1, 81360, Note_on_c, 0, 66, 0
1, 81360, Note_on_c, 0, 59, 0
1, 81360, Note_on_c, 0, 71, 0
1, 81360, Note_on_c, 0, 74, 62
1, 81360, Note_on_c, 0, 47, 27
1, 81360, Note_on_c, 0, 54, 32
1, 81375, Control_c, 0, 64, 0
1, 81440, Note_on_c, 0, 66, 30
1, 81452, Control_c, 0, 64, 127
1, 81520, Note_on_c, 0, 66, 0
1, 81520, Note_on_c, 0, 68, 30
1, 81540, Note_on_c, 0, 54, 0
1, 81540, Note_on_c, 0, 56, 32
1, 81600, Tempo, 1077780
1, 81600, Note_on_c, 0, 56, 0
1, 81600, Note_on_c, 0, 68, 0
1, 81600, Note_on_c, 0, 47, 0
1, 81600, Note_on_c, 0, 74, 0
1, 81600, Note_on_c, 0, 73, 62
1, 81600, Note_on_c, 0, 49, 27
1, 81600, Note_on_c, 0, 57, 32
1, 81615, Control_c, 0, 64, 0
1, 81680, Note_on_c, 0, 69, 32
1, 81692, Control_c, 0, 64, 127
1, 81760, Note_on_c, 0, 69, 0
1, 81760, Note_on_c, 0, 64, 32
1, 81840, Tempo, 1107420
1, 81840, Note_on_c, 0, 64, 0
1, 81840, Note_on_c, 0, 57, 0
1, 81840, Note_on_c, 0, 49, 0
1, 81840, Note_on_c, 0, 73, 0
1, 81840, Note_on_c, 0, 71, 62
1, 81840, Note_on_c, 0, 52, 28
1, 81840, Note_on_c, 0, 56, 33
1, 81920, Note_on_c, 0, 64, 32
1, 82000, Note_on_c, 0, 64, 0
1, 82020, Note_on_c, 0, 62, 32
1, 82080, Note_on_c, 0, 71, 0
1, 82080, Note_on_c, 0, 56, 0
1, 82080, Note_on_c, 0, 52, 0
1, 82080, Note_on_c, 0, 71, 66
1, 82080, Note_on_c, 0, 45, 36
1, 82080, Control_c, 0, 64, 0
1, 82100, Note_on_c, 0, 62, 0
1, 82136, Control_c, 0, 64, 127
1, 82160, Note_on_c, 0, 68, 31
1, 82200, Note_on_c, 0, 45, 0
1, 82240, Note_on_c, 0, 68, 0
1, 82240, Note_on_c, 0, 64, 31
1, 82320, Note_on_c, 0, 64, 0
1, 82320, Note_on_c, 0, 68, 31
1, 82320, Note_on_c, 0, 52, 33
1, 82320, Note_on_c, 0, 56, 33
1, 82400, Note_on_c, 0, 68, 0
1, 82400, Note_on_c, 0, 64, 31
1, 82440, Note_on_c, 0, 56, 0
1, 82440, Note_on_c, 0, 52, 0
1, 82480, Note_on_c, 0, 64, 0
1, 82480, Note_on_c, 0, 62, 31
1, 82560, Tempo, 1097293
1, 82560, Note_on_c, 0, 62, 0
1, 82560, Note_on_c, 0, 71, 0
1, 82560, Note_on_c, 0, 69, 66
1, 82560, Note_on_c, 0, 61, 31
1, 82560, Note_on_c, 0, 52, 28
1, 82560, Note_on_c, 0, 57, 33
1, 82560, Note_on_c, 0, 45, 31
1, 82650, Note_on_c, 0, 45, 0
1, 82669, Control_c, 0, 64, 0
1, 82680, Note_on_c, 0, 52, 0
1, 82680, Note_on_c, 0, 57, 0
1, 82680, Note_on_c, 0, 45, 38
1, 82740, Note_on_c, 0, 45, 0
1, 82800, Note_on_c, 0, 61, 0
1, 82800, Note_on_c, 0, 69, 0
1, 82800, Note_on_c, 0, 47, 37
1, 82860, Note_on_c, 0, 47, 0
1, 82880, Tempo, 1097293
1, 82920, Note_on_c, 0, 49, 35
1, 82980, Note_on_c, 0, 49, 0
1, 83040, Tempo, 1107420
1, 83040, Note_on_c, 0, 47, 34
1, 83100, Note_on_c, 0, 47, 0
1, 83160, Tempo, 1117527
1, 83160, Note_on_c, 0, 45, 32
1, 83220, Note_on_c, 0, 45, 0
1, 83280, Tempo, 1128032
1, 83280, Note_on_c, 0, 44, 31
1, 83340, Note_on_c, 0, 44, 0
1, 83400, Tempo, 1138520
1, 83400, Note_on_c, 0, 42, 31
1, 83460, Note_on_c, 0, 42, 0
1, 83520, Tempo, 1128032
1, 83520, Note_on_c, 0, 56, 38
1, 83520, Note_on_c, 0, 59, 45
1, 83520, Note_on_c, 0, 40, 34
1, 83598, Control_c, 0, 64, 127
1, 83640, Note_on_c, 0, 40, 0
1, 83640, Note_on_c, 0, 52, 28
1, 83693, Control_c, 0, 64, 0
1, 83700, Note_on_c, 0, 52, 0
1, 83760, Note_on_c, 0, 52, 28
1, 83820, Note_on_c, 0, 52, 0
1, 83880, Note_on_c, 0, 52, 28
1, 83940, Note_on_c, 0, 52, 0
1, 84000, Tempo, 1097293
1, 84000, Note_on_c, 0, 59, 0
1, 84000, Note_on_c, 0, 56, 0
1, 84000, Note_on_c, 0, 56, 38
1, 84000, Note_on_c, 0, 59, 46
1, 84000, Note_on_c, 0, 40, 33
1, 84025, Control_c, 0, 64, 127
1, 84120, Note_on_c, 0, 40, 0
1, 84120, Note_on_c, 0, 52, 28
1, 84162, Control_c, 0, 64, 0
1, 84180, Note_on_c, 0, 52, 0
1, 84240, Note_on_c, 0, 52, 28
1, 84300, Note_on_c, 0, 52, 0
1, 84360, Note_on_c, 0, 52, 28
1, 84420, Note_on_c, 0, 52, 0
1, 84480, Tempo, 1138520
1, 84480, Note_on_c, 0, 59, 0
1, 84480, Note_on_c, 0, 56, 0
1, 84480, Note_on_c, 0, 52, 38
1, 84480, Note_on_c, 0, 58, 38
1, 84480, Note_on_c, 0, 61, 45
1, 84480, Note_on_c, 0, 37, 32
1, 84522, Control_c, 0, 64, 127
1, 84600, Note_on_c, 0, 37, 0
1, 84600, Note_on_c, 0, 49, 28
1, 84635, Control_c, 0, 64, 0
1, 84660, Note_on_c, 0, 49, 0
1, 84720, Note_on_c, 0, 49, 28
1, 84780, Note_on_c, 0, 49, 0
1, 84840, Note_on_c, 0, 49, 28
1, 84900, Note_on_c, 0, 49, 0
1, 84960, Note_on_c, 0, 61, 0
1, 84960, Note_on_c, 0, 58, 0
1, 84960, Note_on_c, 0, 52, 0
1, 84960, Note_on_c, 0, 54, 38
1, 84960, Note_on_c, 0, 62, 46
1, 84960, Note_on_c, 0, 59, 38
1, 84960, Note_on_c, 0, 35, 34
1, 84978, Control_c, 0, 64, 127
1, 85080, Note_on_c, 0, 35, 0
1, 85080, Note_on_c, 0, 47, 29
1, 85140, Note_on_c, 0, 47, 0
1, 85147, Control_c, 0, 64, 0
1, 85200, Note_on_c, 0, 47, 29
1, 85260, Note_on_c, 0, 47, 0
1, 85320, Note_on_c, 0, 61, 36
1, 85320, Note_on_c, 0, 64, 42
1, 85320, Note_on_c, 0, 47, 29
1, 85330, Note_on_c, 0, 59, 0
1, 85330, Note_on_c, 0, 62, 0
1, 85380, Note_on_c, 0, 47, 0
1, 85440, Tempo, 1107420
1, 85440, Note_on_c, 0, 62, 36
1, 85440, Note_on_c, 0, 66, 42
1, 85440, Note_on_c, 0, 35, 29
1, 85450, Note_on_c, 0, 64, 0
1, 85450, Note_on_c, 0, 61, 0
1, 85493, Control_c, 0, 64, 127
1, 85530, Note_on_c, 0, 35, 0
1, 85560, Note_on_c, 0, 47, 29
1, 85620, Note_on_c, 0, 47, 0
1, 85627, Control_c, 0, 64, 0
1, 85680, Note_on_c, 0, 47, 29
1, 85740, Note_on_c, 0, 47, 0
1, 85800, Note_on_c, 0, 47, 29
1, 85860, Note_on_c, 0, 47, 0
1, 85920, Tempo, 1058761
1, 85920, Note_on_c, 0, 54, 0
1, 85920, Note_on_c, 0, 54, 38
1, 85920, Note_on_c, 0, 35, 34
1, 85943, Control_c, 0, 64, 127
1, 86040, Note_on_c, 0, 35, 0
1, 86040, Note_on_c, 0, 47, 32
1, 86160, Tempo, 1153846
1, 86160, Note_on_c, 0, 47, 0
1, 86160, Note_on_c, 0, 54, 0
1, 86160, Note_on_c, 0, 66, 0
1, 86160, Note_on_c, 0, 62, 0
1, 86160, Note_on_c, 0, 56, 45
1, 86160, Note_on_c, 0, 62, 45
1, 86160, Note_on_c, 0, 66, 54
1, 86160, Note_on_c, 0, 35, 35
1, 86189, Control_c, 0, 64, 0
1, 86206, Control_c, 0, 64, 127
1, 86250, Note_on_c, 0, 35, 0
1, 86280, Note_on_c, 0, 47, 39
1, 86370, Note_on_c, 0, 47, 0
1, 86400, Tempo, 1107420
1, 86400, Note_on_c, 0, 66, 0
1, 86400, Note_on_c, 0, 62, 0
1, 86400, Note_on_c, 0, 56, 0
1, 86400, Note_on_c, 0, 57, 49
1, 86400, Note_on_c, 0, 62, 49
1, 86400, Note_on_c, 0, 66, 58
1, 86400, Control_c, 0, 64, 0
1, 86400, Note_on_c, 0, 33, 42
1, 86478, Control_c, 0, 64, 127
1, 86520, Note_on_c, 0, 33, 0
1, 86520, Note_on_c, 0, 45, 38
1, 86640, Note_on_c, 0, 45, 0
1, 86640, Note_on_c, 0, 45, 40
1, 86760, Note_on_c, 0, 45, 0
1, 86760, Note_on_c, 0, 57, 0
1, 86760, Note_on_c, 0, 62, 0
1, 86760, Note_on_c, 0, 66, 0
1, 86760, Note_on_c, 0, 59, 48
1, 86760, Note_on_c, 0, 62, 48
1, 86760, Note_on_c, 0, 67, 58
1, 86760, Note_on_c, 0, 43, 41
1, 86880, Tempo, 1077780
1, 86880, Note_on_c, 0, 43, 0
1, 86880, Note_on_c, 0, 59, 0
1, 86880, Note_on_c, 0, 62, 0
1, 86880, Note_on_c, 0, 67, 0
1, 86880, Note_on_c, 0, 57, 50
1, 86880, Note_on_c, 0, 62, 50
1, 86880, Note_on_c, 0, 69, 60
1, 86880, Note_on_c, 0, 30, 43
1, 86903, Control_c, 0, 64, 0
1, 86944, Control_c, 0, 64, 127
1, 87000, Note_on_c, 0, 30, 0
1, 87000, Note_on_c, 0, 42, 37
1, 87120, Note_on_c, 0, 42, 0
1, 87120, Note_on_c, 0, 69, 0
1, 87120, Note_on_c, 0, 62, 0
1, 87120, Note_on_c, 0, 57, 0
1, 87120, Note_on_c, 0, 59, 48
1, 87120, Note_on_c, 0, 62, 48
1, 87120, Note_on_c, 0, 67, 57
1, 87120, Note_on_c, 0, 31, 39
1, 87136, Control_c, 0, 64, 0
1, 87212, Control_c, 0, 64, 127
1, 87240, Note_on_c, 0, 31, 0
1, 87240, Note_on_c, 0, 43, 37
1, 87360, Tempo, 1171875
1, 87360, Note_on_c, 0, 43, 0
1, 87360, Note_on_c, 0, 67, 0
1, 87360, Note_on_c, 0, 62, 0
1, 87360, Note_on_c, 0, 59, 0
1, 87360, Note_on_c, 0, 57, 46
1, 87360, Note_on_c, 0, 62, 46
1, 87360, Note_on_c, 0, 66, 55
1, 87360, Note_on_c, 0, 33, 37
1, 87375, Control_c, 0, 64, 0
1, 87452, Control_c, 0, 64, 127
1, 87480, Note_on_c, 0, 33, 0
1, 87480, Note_on_c, 0, 45, 36
1, 87600, Note_on_c, 0, 45, 0
1, 87600, Note_on_c, 0, 66, 0
1, 87600, Note_on_c, 0, 62, 0
1, 87600, Note_on_c, 0, 57, 0
1, 87600, Note_on_c, 0, 55, 44
1, 87600, Note_on_c, 0, 57, 44
1, 87600, Note_on_c, 0, 61, 44
1, 87600, Note_on_c, 0, 64, 51
1, 87600, Note_on_c, 0, 33, 35
1, 87640, Tempo, 1244555
1, 87720, Note_on_c, 0, 33, 0
1, 87720, Note_on_c, 0, 45, 34
1, 87840, Tempo, 1128032
1, 87840, Note_on_c, 0, 45, 0
1, 87840, Note_on_c, 0, 64, 0
1, 87840, Note_on_c, 0, 55, 0
1, 87840, Note_on_c, 0, 57, 0
1, 87840, Note_on_c, 0, 61, 0
1, 87840, Note_on_c, 0, 55, 39
1, 87840, Note_on_c, 0, 57, 39
1, 87840, Note_on_c, 0, 61, 39
1, 87840, Note_on_c, 0, 64, 47
1, 87840, Note_on_c, 0, 33, 31
1, 87840, Control_c, 0, 64, 0
1, 87896, Control_c, 0, 64, 127
1, 87960, Note_on_c, 0, 33, 0
1, 87960, Note_on_c, 0, 45, 29
1, 88080, Note_on_c, 0, 45, 0
1, 88080, Note_on_c, 0, 49, 31
1, 88200, Note_on_c, 0, 49, 0
1, 88200, Note_on_c, 0, 45, 33
1, 88320, Tempo, 1087350
1, 88320, Note_on_c, 0, 45, 0
1, 88320, Note_on_c, 0, 64, 0
1, 88320, Note_on_c, 0, 55, 0
1, 88320, Note_on_c, 0, 57, 0
1, 88320, Note_on_c, 0, 61, 0
1, 88320, Note_on_c, 0, 54, 39
1, 88320, Note_on_c, 0, 57, 39
1, 88320, Note_on_c, 0, 62, 47
1, 88320, Control_c, 0, 64, 0
1, 88320, Note_on_c, 0, 38, 35
1, 88410, Note_on_c, 0, 38, 0
1, 88440, Tempo, 1097293
1, 88440, Note_on_c, 0, 50, 29
1, 88500, Note_on_c, 0, 50, 0
1, 88560, Tempo, 1107420
1, 88560, Note_on_c, 0, 50, 28
1, 88620, Note_on_c, 0, 50, 0
1, 88680, Tempo, 1117527
1, 88680, Note_on_c, 0, 50, 28
1, 88740, Note_on_c, 0, 50, 0
1, 88760, Tempo, 1128032
1, 88800, Tempo, 1097293
1, 88800, Note_on_c, 0, 50, 27
1, 88840, Tempo, 1117527
1, 88860, Note_on_c, 0, 50, 0
1, 88880, Tempo, 1138520
1, 88920, Tempo, 1160766
1, 88920, Note_on_c, 0, 50, 26
1, 88960, Tempo, 1183432
1, 88980, Note_on_c, 0, 50, 0
1, 89000, Tempo, 1207001
1, 89040, Tempo, 1231527
1, 89040, Note_on_c, 0, 50, 25
1, 89080, Tempo, 1257334
1, 89100, Note_on_c, 0, 50, 0
1, 89120, Tempo, 1283972
1, 89160, Tempo, 1326260
1, 89160, Note_on_c, 0, 50, 24
1, 89250, Note_on_c, 0, 50, 0
1, 89280, Tempo, 1128032
1, 89280, Note_on_c, 0, 62, 0
1, 89280, Note_on_c, 0, 57, 0
1, 89280, Note_on_c, 0, 54, 0
1, 89280, Note_on_c, 0, 53, 28
1, 89280, Note_on_c, 0, 58, 34
1, 89280, Note_on_c, 0, 38, 25
1, 89291, Control_c, 0, 64, 127
1, 89400, Note_on_c, 0, 38, 0
1, 89400, Note_on_c, 0, 50, 21
1, 89425, Control_c, 0, 64, 0
1, 89460, Note_on_c, 0, 50, 0
1, 89520, Note_on_c, 0, 50, 21
1, 89580, Note_on_c, 0, 50, 0
1, 89640, Note_on_c, 0, 50, 21
1, 89700, Note_on_c, 0, 50, 0
1, 89760, Tempo, 1097293
1, 89760, Note_on_c, 0, 58, 0
1, 89760, Note_on_c, 0, 53, 0
1, 89760, Note_on_c, 0, 53, 28
1, 89760, Note_on_c, 0, 58, 34
1, 89760, Note_on_c, 0, 38, 24
1, 89788, Control_c, 0, 64, 127
1, 89880, Note_on_c, 0, 38, 0
1, 89880, Note_on_c, 0, 50, 21
1, 89922, Control_c, 0, 64, 0
1, 89940, Note_on_c, 0, 50, 0
1, 90000, Note_on_c, 0, 50, 21
1, 90060, Note_on_c, 0, 50, 0
1, 90120, Note_on_c, 0, 50, 21
1, 90180, Note_on_c, 0, 50, 0
1, 90240, Tempo, 1138520
1, 90240, Note_on_c, 0, 58, 0
1, 90240, Note_on_c, 0, 53, 0
1, 90240, Note_on_c, 0, 53, 28
1, 90240, Note_on_c, 0, 58, 34
1, 90240, Note_on_c, 0, 38, 23
1, 90272, Control_c, 0, 64, 127
1, 90360, Note_on_c, 0, 38, 0
1, 90360, Note_on_c, 0, 50, 21
1, 90409, Control_c, 0, 64, 0
1, 90420, Note_on_c, 0, 50, 0
1, 90480, Note_on_c, 0, 50, 21
1, 90540, Note_on_c, 0, 50, 0
1, 90600, Note_on_c, 0, 50, 21
1, 90660, Note_on_c, 0, 50, 0
1, 90720, Note_on_c, 0, 58, 0
1, 90720, Note_on_c, 0, 53, 0
1, 90720, Note_on_c, 0, 58, 34
1, 90720, Note_on_c, 0, 55, 28
1, 90720, Note_on_c, 0, 39, 25
1, 90726, Control_c, 0, 64, 127
1, 90840, Note_on_c, 0, 39, 0
1, 90840, Note_on_c, 0, 51, 22
1, 90857, Control_c, 0, 64, 0
1, 90900, Note_on_c, 0, 51, 0
1, 90960, Note_on_c, 0, 51, 22
1, 91020, Note_on_c, 0, 51, 0
1, 91080, Tempo, 1165049
1, 91080, Note_on_c, 0, 55, 0
1, 91080, Note_on_c, 0, 58, 0
1, 91080, Note_on_c, 0, 57, 27
1, 91080, Note_on_c, 0, 51, 22
1, 91110, Note_on_c, 0, 58, 27
1, 91120, Note_on_c, 0, 57, 0
1, 91140, Note_on_c, 0, 51, 0
1, 91140, Note_on_c, 0, 60, 27
1, 91150, Note_on_c, 0, 58, 0
1, 91170, Note_on_c, 0, 58, 27
1, 91180, Note_on_c, 0, 60, 0
1, 91200, Tempo, 1149646
1, 91200, Note_on_c, 0, 55, 31
1, 91200, Note_on_c, 0, 39, 22
1, 91210, Note_on_c, 0, 58, 0
1, 91290, Note_on_c, 0, 39, 0
1, 91320, Note_on_c, 0, 51, 22
1, 91410, Note_on_c, 0, 51, 0
1, 91440, Tempo, 1107420
1, 91440, Note_on_c, 0, 55, 0
1, 91440, Note_on_c, 0, 55, 28
1, 91440, Note_on_c, 0, 63, 28
1, 91440, Note_on_c, 0, 67, 34
1, 91440, Note_on_c, 0, 36, 22
1, 91450, Control_c, 0, 64, 127
1, 91530, Note_on_c, 0, 36, 0
1, 91560, Note_on_c, 0, 48, 22
1, 91650, Note_on_c, 0, 48, 0
1, 91680, Tempo, 1087350
1, 91680, Note_on_c, 0, 67, 0
1, 91680, Note_on_c, 0, 63, 0
1, 91680, Note_on_c, 0, 55, 0
1, 91680, Note_on_c, 0, 55, 28
1, 91680, Note_on_c, 0, 59, 28
1, 91680, Note_on_c, 0, 65, 34
1, 91680, Note_on_c, 0, 38, 25
1, 91693, Control_c, 0, 64, 0
1, 91726, Control_c, 0, 64, 127
1, 91800, Note_on_c, 0, 38, 0
1, 91800, Note_on_c, 0, 50, 19
1, 91920, Tempo, 1107420
1, 91920, Note_on_c, 0, 50, 0
1, 91920, Note_on_c, 0, 65, 0
1, 91920, Note_on_c, 0, 59, 0
1, 91920, Note_on_c, 0, 55, 0
1, 91920, Note_on_c, 0, 55, 23
1, 91920, Note_on_c, 0, 60, 23
1, 91920, Note_on_c, 0, 63, 34
1, 91920, Note_on_c, 0, 39, 22
1, 91939, Control_c, 0, 64, 0
1, 91966, Control_c, 0, 64, 127
1, 92010, Note_on_c, 0, 39, 0
1, 92040, Note_on_c, 0, 51, 22
1, 92130, Note_on_c, 0, 51, 0
1, 92160, Tempo, 1107420
1, 92160, Note_on_c, 0, 63, 0
1, 92160, Note_on_c, 0, 60, 0
1, 92160, Note_on_c, 0, 55, 0
1, 92160, Note_on_c, 0, 53, 30
1, 92160, Note_on_c, 0, 58, 30
1, 92160, Note_on_c, 0, 62, 37
1, 92160, Control_c, 0, 64, 0
1, 92160, Note_on_c, 0, 29, 26
1, 92200, Control_c, 0, 64, 127
1, 92280, Note_on_c, 0, 29, 0
1, 92280, Note_on_c, 0, 41, 22
1, 92297, Control_c, 0, 64, 0
1, 92340, Note_on_c, 0, 41, 0
1, 92400, Note_on_c, 0, 41, 22
1, 92460, Note_on_c, 0, 41, 0
1, 92520, Note_on_c, 0, 41, 22
1, 92580, Note_on_c, 0, 41, 0
1, 92640, Tempo, 1077780
1, 92640, Note_on_c, 0, 29, 22
1, 92671, Control_c, 0, 64, 127
1, 92760, Note_on_c, 0, 29, 0
1, 92760, Note_on_c, 0, 41, 22
1, 92783, Control_c, 0, 64, 0
1, 92820, Note_on_c, 0, 41, 0
1, 92880, Tempo, 1097293
1, 92880, Note_on_c, 0, 41, 22
1, 92940, Note_on_c, 0, 41, 0
1, 93000, Note_on_c, 0, 41, 22
1, 93060, Note_on_c, 0, 41, 0
1, 93120, Tempo, 1128032
1, 93120, Note_on_c, 0, 62, 0
1, 93120, Note_on_c, 0, 58, 0
1, 93120, Note_on_c, 0, 53, 0
1, 93120, Note_on_c, 0, 51, 30
1, 93120, Note_on_c, 0, 57, 30
1, 93120, Note_on_c, 0, 63, 36
1, 93120, Note_on_c, 0, 29, 22
1, 93160, Control_c, 0, 64, 127
1, 93240, Note_on_c, 0, 29, 0
1, 93240, Note_on_c, 0, 41, 22
1, 93280, Control_c, 0, 64, 0
1, 93300, Note_on_c, 0, 41, 0
1, 93360, Tempo, 1171875
1, 93360, Note_on_c, 0, 41, 22
1, 93420, Note_on_c, 0, 41, 0
1, 93480, Note_on_c, 0, 60, 34
1, 93480, Note_on_c, 0, 41, 22
1, 93490, Note_on_c, 0, 63, 0
1, 93540, Note_on_c, 0, 41, 0
1, 93600, Tempo, 1128032
1, 93600, Note_on_c, 0, 51, 0
1, 93600, Note_on_c, 0, 57, 0
1, 93600, Note_on_c, 0, 50, 29
1, 93600, Note_on_c, 0, 56, 29
1, 93600, Note_on_c, 0, 59, 35
1, 93600, Note_on_c, 0, 29, 26
1, 93610, Note_on_c, 0, 60, 0
1, 93720, Note_on_c, 0, 29, 0
1, 93720, Note_on_c, 0, 41, 23
1, 93780, Note_on_c, 0, 41, 0
1, 93840, Note_on_c, 0, 41, 23
1, 93900, Note_on_c, 0, 41, 0
1, 93960, Note_on_c, 0, 41, 24
1, 94020, Note_on_c, 0, 41, 0
1, 94080, Tempo, 1097293
1, 94080, Note_on_c, 0, 29, 24
1, 94200, Note_on_c, 0, 29, 0
1, 94200, Note_on_c, 0, 41, 23
1, 94260, Note_on_c, 0, 41, 0
1, 94320, Note_on_c, 0, 41, 23
1, 94380, Note_on_c, 0, 41, 0
1, 94400, Tempo, 1097293
1, 94440, Note_on_c, 0, 41, 23
1, 94500, Note_on_c, 0, 41, 0
1, 94560, Tempo, 1107420
1, 94560, Note_on_c, 0, 29, 24
1, 94680, Tempo, 1117527
1, 94680, Note_on_c, 0, 29, 0
1, 94680, Note_on_c, 0, 41, 23
1, 94740, Note_on_c, 0, 41, 0
1, 94800, Tempo, 1128032
1, 94800, Note_on_c, 0, 41, 23
1, 94860, Note_on_c, 0, 41, 0
1, 94920, Tempo, 1138520
1, 94920, Note_on_c, 0, 41, 22
1, 94980, Note_on_c, 0, 41, 0
1, 95040, Tempo, 1107420
1, 95040, Note_on_c, 0, 59, 0
1, 95040, Note_on_c, 0, 56, 0
1, 95040, Note_on_c, 0, 50, 0
1, 95040, Note_on_c, 0, 50, 36
1, 95040, Note_on_c, 0, 56, 36
1, 95040, Note_on_c, 0, 59, 44
1, 95040, Control_c, 0, 64, 0
1, 95040, Note_on_c, 0, 40, 31
1, 95089, Control_c, 0, 64, 127
1, 95160, Note_on_c, 0, 40, 0
1, 95160, Note_on_c, 0, 52, 28
1, 95220, Note_on_c, 0, 52, 0
1, 95234, Control_c, 0, 64, 0
1, 95280, Note_on_c, 0, 52, 28
1, 95340, Note_on_c, 0, 52, 0
1, 95400, Note_on_c, 0, 52, 29
1, 95460, Note_on_c, 0, 52, 0
1, 95520, Tempo, 1077780
1, 95520, Note_on_c, 0, 40, 29
1, 95541, Control_c, 0, 64, 127
1, 95640, Note_on_c, 0, 40, 0
1, 95640, Note_on_c, 0, 52, 29
1, 95654, Control_c, 0, 64, 0
1, 95700, Note_on_c, 0, 52, 0
1, 95760, Tempo, 1117527
1, 95760, Note_on_c, 0, 59, 0
1, 95760, Note_on_c, 0, 61, 46
1, 95760, Note_on_c, 0, 52, 31
1, 95820, Note_on_c, 0, 52, 0
1, 95880, Note_on_c, 0, 62, 46
1, 95880, Note_on_c, 0, 52, 30
1, 95890, Note_on_c, 0, 61, 0
1, 95940, Note_on_c, 0, 52, 0
1, 96000, Tempo, 1207001
1, 96000, Note_on_c, 0, 50, 0
1, 96000, Note_on_c, 0, 56, 0
1, 96000, Note_on_c, 0, 64, 45
1, 96000, Note_on_c, 0, 40, 30
1, 96010, Note_on_c, 0, 62, 0
1, 96092, Control_c, 0, 64, 127
1, 96120, Note_on_c, 0, 40, 0
1, 96120, Note_on_c, 0, 52, 29
1, 96240, Tempo, 1283972
1, 96240, Note_on_c, 0, 52, 0
1, 96240, Note_on_c, 0, 64, 0
1, 96240, Note_on_c, 0, 50, 44
1, 96240, Note_on_c, 0, 52, 44
1, 96240, Note_on_c, 0, 56, 44
1, 96240, Note_on_c, 0, 40, 30
1, 96360, Note_on_c, 0, 40, 0
1, 96360, Note_on_c, 0, 40, 29
1, 96480, Tempo, 1171875
1, 96480, Note_on_c, 0, 40, 0
1, 96480, Note_on_c, 0, 56, 0
1, 96480, Note_on_c, 0, 52, 0
1, 96480, Note_on_c, 0, 50, 0
1, 96480, Note_on_c, 0, 49, 38
1, 96480, Note_on_c, 0, 52, 38
1, 96480, Note_on_c, 0, 57, 45
1, 96480, Control_c, 0, 64, 0
1, 96480, Note_on_c, 0, 33, 34
1, 96558, Control_c, 0, 64, 127
1, 96600, Note_on_c, 0, 33, 0
1, 96600, Note_on_c, 0, 45, 28
1, 96660, Note_on_c, 0, 45, 0
1, 96720, Note_on_c, 0, 45, 28
1, 96727, Control_c, 0, 64, 0
1, 96780, Note_on_c, 0, 45, 0
1, 96840, Note_on_c, 0, 45, 28
1, 96900, Note_on_c, 0, 45, 0
1, 96960, Tempo, 1107420
1, 96960, Note_on_c, 0, 57, 0
1, 96960, Note_on_c, 0, 52, 0
1, 96960, Note_on_c, 0, 49, 0
1, 96960, Note_on_c, 0, 49, 38
1, 96960, Note_on_c, 0, 57, 46
1, 96960, Note_on_c, 0, 33, 33
1, 97013, Control_c, 0, 64, 127
1, 97080, Note_on_c, 0, 33, 0
1, 97080, Note_on_c, 0, 45, 28
1, 97122, Control_c, 0, 64, 0
1, 97140, Note_on_c, 0, 45, 0
1, 97200, Note_on_c, 0, 45, 28
1, 97260, Note_on_c, 0, 45, 0
1, 97320, Note_on_c, 0, 45, 28
1, 97380, Note_on_c, 0, 45, 0
1, 97440, Tempo, 1138520
1, 97440, Note_on_c, 0, 57, 0
1, 97440, Note_on_c, 0, 49, 0
1, 97440, Note_on_c, 0, 50, 38
1, 97440, Note_on_c, 0, 57, 38
1, 97440, Note_on_c, 0, 59, 45
1, 97440, Note_on_c, 0, 33, 32
1, 97479, Control_c, 0, 64, 127
1, 97560, Note_on_c, 0, 33, 0
1, 97560, Note_on_c, 0, 45, 28
1, 97606, Control_c, 0, 64, 0
1, 97620, Note_on_c, 0, 45, 0
1, 97680, Note_on_c, 0, 45, 28
1, 97740, Note_on_c, 0, 45, 0
1, 97800, Note_on_c, 0, 45, 28
1, 97860, Note_on_c, 0, 45, 0
1, 97920, Note_on_c, 0, 59, 0
1, 97920, Note_on_c, 0, 57, 0
1, 97920, Note_on_c, 0, 50, 0
1, 97920, Note_on_c, 0, 52, 38
1, 97920, Note_on_c, 0, 61, 46
1, 97920, Note_on_c, 0, 57, 38
1, 97920, Note_on_c, 0, 33, 34
1, 97977, Control_c, 0, 64, 127
1, 98040, Note_on_c, 0, 33, 0
1, 98040, Note_on_c, 0, 45, 29
1, 98100, Note_on_c, 0, 45, 0
1, 98100, Control_c, 0, 64, 0
1, 98160, Note_on_c, 0, 45, 29
1, 98220, Note_on_c, 0, 45, 0
1, 98280, Note_on_c, 0, 57, 0
1, 98280, Note_on_c, 0, 50, 36
1, 98280, Note_on_c, 0, 57, 36
1, 98280, Note_on_c, 0, 59, 42
1, 98280, Note_on_c, 0, 45, 29
1, 98290, Note_on_c, 0, 61, 0
1, 98290, Note_on_c, 0, 52, 0
1, 98340, Note_on_c, 0, 45, 0
1, 98400, Tempo, 1107420
1, 98400, Note_on_c, 0, 57, 0
1, 98400, Note_on_c, 0, 49, 36
1, 98400, Note_on_c, 0, 57, 42
1, 98400, Note_on_c, 0, 45, 29
1, 98410, Note_on_c, 0, 59, 0
1, 98410, Note_on_c, 0, 50, 0
1, 98460, Note_on_c, 0, 45, 0
1, 98520, Note_on_c, 0, 45, 29
1, 98580, Note_on_c, 0, 45, 0
1, 98640, Note_on_c, 0, 45, 29
1, 98700, Note_on_c, 0, 45, 0
1, 98760, Note_on_c, 0, 45, 29
1, 98820, Note_on_c, 0, 45, 0
1, 98880, Note_on_c, 0, 45, 37
1, 98940, Note_on_c, 0, 45, 0
1, 99000, Note_on_c, 0, 45, 28
1, 99060, Note_on_c, 0, 45, 0
1, 99120, Tempo, 1149646
1, 99120, Note_on_c, 0, 49, 0
1, 99120, Note_on_c, 0, 57, 0
1, 99120, Note_on_c, 0, 52, 41
1, 99120, Note_on_c, 0, 57, 41
1, 99120, Note_on_c, 0, 61, 50
1, 99120, Note_on_c, 0, 45, 31
1, 99180, Note_on_c, 0, 45, 0
1, 99240, Note_on_c, 0, 45, 34
1, 99300, Note_on_c, 0, 45, 0
1, 99360, Tempo, 1107420
1, 99360, Note_on_c, 0, 61, 0
1, 99360, Note_on_c, 0, 57, 0
1, 99360, Note_on_c, 0, 52, 0
1, 99360, Note_on_c, 0, 53, 44
1, 99360, Note_on_c, 0, 57, 44
1, 99360, Note_on_c, 0, 62, 52
1, 99360, Note_on_c, 0, 33, 37
1, 99385, Control_c, 0, 64, 127
1, 99480, Note_on_c, 0, 33, 0
1, 99480, Note_on_c, 0, 45, 34
1, 99529, Control_c, 0, 64, 0
1, 99540, Note_on_c, 0, 45, 0
1, 99600, Note_on_c, 0, 45, 34
1, 99660, Note_on_c, 0, 45, 0
1, 99720, Note_on_c, 0, 57, 0
1, 99720, Note_on_c, 0, 52, 41
1, 99720, Note_on_c, 0, 57, 41
1, 99720, Note_on_c, 0, 61, 49
1, 99720, Note_on_c, 0, 45, 34
1, 99730, Note_on_c, 0, 62, 0
1, 99730, Note_on_c, 0, 53, 0
1, 99780, Note_on_c, 0, 45, 0
1, 99840, Tempo, 1077780
1, 99840, Note_on_c, 0, 57, 0
1, 99840, Note_on_c, 0, 50, 42
1, 99840, Note_on_c, 0, 57, 42
1, 99840, Note_on_c, 0, 59, 51
1, 99840, Note_on_c, 0, 33, 34
1, 99850, Note_on_c, 0, 61, 0
1, 99850, Note_on_c, 0, 52, 0
1, 99900, Note_on_c, 0, 33, 0
1, 99960, Note_on_c, 0, 45, 33
1, 100020, Note_on_c, 0, 45, 0
1, 100080, Note_on_c, 0, 50, 0
1, 100080, Note_on_c, 0, 59, 0
1, 100080, Note_on_c, 0, 57, 0
1, 100080, Note_on_c, 0, 53, 41
1, 100080, Note_on_c, 0, 57, 41
1, 100080, Note_on_c, 0, 62, 49
1, 100080, Note_on_c, 0, 45, 34
1, 100140, Note_on_c, 0, 45, 0
1, 100200, Note_on_c, 0, 45, 34
1, 100260, Note_on_c, 0, 45, 0
1, 100320, Tempo, 1128032
1, 100320, Note_on_c, 0, 62, 0
1, 100320, Note_on_c, 0, 57, 0
1, 100320, Note_on_c, 0, 53, 0
1, 100320, Note_on_c, 0, 52, 41
1, 100320, Note_on_c, 0, 57, 41
1, 100320, Note_on_c, 0, 61, 49
1, 100320, Note_on_c, 0, 33, 34
1, 100412, Control_c, 0, 64, 127
1, 100440, Note_on_c, 0, 33, 0
1, 100440, Note_on_c, 0, 45, 34
1, 100560, Note_on_c, 0, 45, 0
1, 100560, Note_on_c, 0, 61, 0
1, 100560, Note_on_c, 0, 57, 0
1, 100560, Note_on_c, 0, 52, 0
1, 100560, Note_on_c, 0, 49, 41
1, 100560, Note_on_c, 0, 52, 41
1, 100560, Note_on_c, 0, 57, 49
1, 100560, Note_on_c, 0, 37, 34
1, 100680, Note_on_c, 0, 37, 0
1, 100680, Note_on_c, 0, 49, 34
1, 100800, Tempo, 1087350
1, 100800, Note_on_c, 0, 49, 0
1, 100800, Note_on_c, 0, 57, 0
1, 100800, Note_on_c, 0, 52, 0
1, 100800, Note_on_c, 0, 49, 0
1, 100800, Note_on_c, 0, 47, 42
1, 100800, Note_on_c, 0, 52, 42
1, 100800, Note_on_c, 0, 56, 51
1, 100800, Control_c, 0, 64, 0
1, 100800, Note_on_c, 0, 28, 37
1, 100856, Control_c, 0, 64, 127
1, 100920, Note_on_c, 0, 28, 0
1, 100920, Note_on_c, 0, 40, 31
1, 101040, Note_on_c, 0, 40, 0
1, 101040, Note_on_c, 0, 40, 34
1, 101160, Note_on_c, 0, 40, 0
1, 101160, Note_on_c, 0, 40, 36
1, 101280, Tempo, 1097293
1, 101280, Note_on_c, 0, 40, 0
1, 101280, Note_on_c, 0, 40, 40
1, 101289, Control_c, 0, 64, 0
1, 101340, Note_on_c, 0, 40, 0
1, 101400, Note_on_c, 0, 40, 41
1, 101460, Note_on_c, 0, 40, 0
1, 101520, Note_on_c, 0, 56, 0
1, 101520, Note_on_c, 0, 52, 0
1, 101520, Note_on_c, 0, 47, 0
1, 101520, Note_on_c, 0, 47, 49
1, 101520, Note_on_c, 0, 53, 49
1, 101520, Note_on_c, 0, 56, 60
1, 101520, Note_on_c, 0, 38, 46
1, 101580, Note_on_c, 0, 38, 0
1, 101600, Tempo, 1097293
1, 101640, Note_on_c, 0, 38, 47
1, 101700, Note_on_c, 0, 38, 0
1, 101760, Tempo, 1107420
1, 101760, Note_on_c, 0, 56, 0
1, 101760, Note_on_c, 0, 53, 0
1, 101760, Note_on_c, 0, 47, 0
1, 101760, Note_on_c, 0, 48, 56
1, 101760, Note_on_c, 0, 52, 56
1, 101760, Note_on_c, 0, 56, 66
1, 101760, Note_on_c, 0, 36, 48
1, 101820, Note_on_c, 0, 36, 0
1, 101880, Tempo, 1117527
1, 101880, Note_on_c, 0, 36, 49
1, 101940, Note_on_c, 0, 36, 0
1, 102000, Tempo, 1128032
1, 102000, Note_on_c, 0, 56, 0
1, 102000, Note_on_c, 0, 52, 0
1, 102000, Note_on_c, 0, 48, 0
1, 102000, Note_on_c, 0, 50, 59
1, 102000, Note_on_c, 0, 52, 59
1, 102000, Note_on_c, 0, 56, 69
1, 102000, Note_on_c, 0, 35, 51
1, 102060, Note_on_c, 0, 35, 0
1, 102120, Tempo, 1138520
1, 102120, Note_on_c, 0, 35, 53
1, 102180, Note_on_c, 0, 35, 0
1, 102240, Tempo, 1171875
1, 102240, Note_on_c, 0, 56, 0
1, 102240, Note_on_c, 0, 52, 0
1, 102240, Note_on_c, 0, 50, 0
1, 102240, Note_on_c, 0, 48, 63
1, 102240, Note_on_c, 0, 52, 63
1, 102240, Note_on_c, 0, 57, 76
1, 102240, Note_on_c, 0, 33, 57
1, 102254, Control_c, 0, 64, 127
1, 102360, Note_on_c, 0, 33, 0
1, 102360, Note_on_c, 0, 45, 46
1, 102380, Control_c, 0, 64, 0
1, 102420, Note_on_c, 0, 45, 0
1, 102480, Note_on_c, 0, 45, 46
1, 102540, Note_on_c, 0, 45, 0
1, 102600, Note_on_c, 0, 45, 46
1, 102660, Note_on_c, 0, 45, 0
1, 102720, Tempo, 1107420
1, 102720, Note_on_c, 0, 57, 0
1, 102720, Note_on_c, 0, 52, 0
1, 102720, Note_on_c, 0, 48, 0
1, 102720, Note_on_c, 0, 52, 63
1, 102720, Note_on_c, 0, 48, 63
1, 102720, Note_on_c, 0, 57, 77
1, 102720, Note_on_c, 0, 33, 57
1, 102746, Control_c, 0, 64, 127
1, 102840, Note_on_c, 0, 33, 0
1, 102840, Note_on_c, 0, 45, 46
1, 102866, Control_c, 0, 64, 0
1, 102900, Note_on_c, 0, 45, 0
1, 102960, Note_on_c, 0, 45, 47
1, 103020, Note_on_c, 0, 45, 0
1, 103080, Note_on_c, 0, 45, 47
1, 103140, Note_on_c, 0, 45, 0
1, 103200, Tempo, 1138520
1, 103200, Note_on_c, 0, 57, 0
1, 103200, Note_on_c, 0, 48, 0
1, 103200, Note_on_c, 0, 52, 0
1, 103200, Note_on_c, 0, 50, 66
1, 103200, Note_on_c, 0, 53, 66
1, 103200, Note_on_c, 0, 59, 79
1, 103200, Note_on_c, 0, 31, 55
1, 103223, Control_c, 0, 64, 127
1, 103320, Note_on_c, 0, 31, 0
1, 103320, Note_on_c, 0, 43, 47
1, 103343, Control_c, 0, 64, 0
1, 103380, Note_on_c, 0, 43, 0
1, 103440, Note_on_c, 0, 43, 48
1, 103500, Note_on_c, 0, 43, 0
1, 103560, Note_on_c, 0, 43, 48
1, 103620, Note_on_c, 0, 43, 0
1, 103680, Note_on_c, 0, 59, 0
1, 103680, Note_on_c, 0, 53, 0
1, 103680, Note_on_c, 0, 50, 0
1, 103680, Note_on_c, 0, 52, 69
1, 103680, Note_on_c, 0, 60, 84
1, 103680, Note_on_c, 0, 55, 69
1, 103680, Note_on_c, 0, 36, 60
1, 103686, Control_c, 0, 64, 127
1, 103800, Note_on_c, 0, 36, 0
1, 103800, Note_on_c, 0, 48, 49
1, 103809, Control_c, 0, 64, 0
1, 103860, Note_on_c, 0, 48, 0
1, 103920, Note_on_c, 0, 48, 50
1, 103980, Note_on_c, 0, 48, 0
1, 104040, Note_on_c, 0, 53, 66
1, 104040, Note_on_c, 0, 57, 66
1, 104040, Note_on_c, 0, 48, 50
1, 104050, Note_on_c, 0, 55, 0
1, 104050, Note_on_c, 0, 52, 0
1, 104100, Note_on_c, 0, 48, 0
1, 104160, Tempo, 1107420
1, 104160, Note_on_c, 0, 60, 0
1, 104160, Note_on_c, 0, 55, 66
1, 104160, Note_on_c, 0, 52, 66
1, 104160, Note_on_c, 0, 60, 77
1, 104160, Note_on_c, 0, 36, 50
1, 104170, Note_on_c, 0, 57, 0
1, 104170, Note_on_c, 0, 53, 0
1, 104200, Control_c, 0, 64, 127
1, 104250, Note_on_c, 0, 36, 0
1, 104280, Note_on_c, 0, 48, 50
1, 104340, Note_on_c, 0, 48, 0
1, 104340, Control_c, 0, 64, 0
1, 104400, Note_on_c, 0, 48, 51
1, 104460, Note_on_c, 0, 48, 0
1, 104520, Note_on_c, 0, 48, 51
1, 104580, Note_on_c, 0, 48, 0
1, 104640, Note_on_c, 0, 36, 57
1, 104663, Control_c, 0, 64, 127
1, 104760, Note_on_c, 0, 36, 0
1, 104760, Note_on_c, 0, 48, 51
1, 104880, Note_on_c, 0, 48, 0
1, 104880, Note_on_c, 0, 55, 0
1, 104880, Note_on_c, 0, 60, 0
1, 104880, Note_on_c, 0, 52, 0
1, 104880, Note_on_c, 0, 57, 66
1, 104880, Note_on_c, 0, 62, 80
1, 104880, Note_on_c, 0, 41, 54
1, 104899, Control_c, 0, 64, 0
1, 104920, Tempo, 1276596
1, 104926, Control_c, 0, 64, 127
1, 104970, Note_on_c, 0, 41, 0
1, 105000, Note_on_c, 0, 53, 57
1, 105090, Note_on_c, 0, 53, 0
1, 105120, Tempo, 1107420
1, 105120, Note_on_c, 0, 62, 0
1, 105120, Note_on_c, 0, 57, 0
1, 105120, Note_on_c, 0, 56, 71
1, 105120, Note_on_c, 0, 59, 71
1, 105120, Note_on_c, 0, 64, 85
1, 105120, Control_c, 0, 64, 0
1, 105120, Note_on_c, 0, 40, 60
1, 105152, Control_c, 0, 64, 127
1, 105240, Note_on_c, 0, 40, 0
1, 105240, Note_on_c, 0, 52, 50
1, 105296, Control_c, 0, 64, 0
1, 105300, Note_on_c, 0, 52, 0
1, 105360, Note_on_c, 0, 52, 50
1, 105420, Note_on_c, 0, 52, 0
1, 105480, Note_on_c, 0, 62, 59
1, 105480, Note_on_c, 0, 52, 48
1, 105490, Note_on_c, 0, 64, 0
1, 105540, Note_on_c, 0, 52, 0
1, 105600, Tempo, 1031637
1, 105600, Note_on_c, 0, 56, 0
1, 105600, Note_on_c, 0, 59, 0
1, 105600, Note_on_c, 0, 57, 52
1, 105600, Note_on_c, 0, 61, 63
1, 105600, Note_on_c, 0, 42, 41
1, 105610, Note_on_c, 0, 62, 0
1, 105664, Control_c, 0, 64, 127
1, 105720, Note_on_c, 0, 42, 0
1, 105720, Note_on_c, 0, 54, 39
1, 105840, Tempo, 1077780
1, 105840, Note_on_c, 0, 54, 0
1, 105840, Note_on_c, 0, 61, 0
1, 105840, Note_on_c, 0, 57, 0
1, 105840, Note_on_c, 0, 54, 35
1, 105840, Note_on_c, 0, 57, 35
1, 105840, Note_on_c, 0, 64, 41
1, 105840, Note_on_c, 0, 38, 34
1, 105856, Control_c, 0, 64, 0
1, 105932, Control_c, 0, 64, 127
1, 105960, Tempo, 1128032
1, 105960, Note_on_c, 0, 38, 0
1, 105960, Note_on_c, 0, 54, 0
1, 105960, Note_on_c, 0, 57, 0
1, 105960, Note_on_c, 0, 64, 0
1, 105960, Note_on_c, 0, 62, 41
1, 105960, Note_on_c, 0, 50, 34
1, 106080, Tempo, 1171875
1, 106080, Note_on_c, 0, 50, 0
1, 106080, Note_on_c, 0, 62, 0
1, 106080, Note_on_c, 0, 52, 41
1, 106080, Note_on_c, 0, 57, 41
1, 106080, Note_on_c, 0, 61, 49
1, 106080, Note_on_c, 0, 40, 34
1, 106115, Control_c, 0, 64, 0
1, 106172, Control_c, 0, 64, 127
1, 106200, Note_on_c, 0, 40, 0
1, 106200, Note_on_c, 0, 52, 34
1, 106320, Note_on_c, 0, 52, 0
1, 106320, Note_on_c, 0, 61, 0
1, 106320, Note_on_c, 0, 57, 0
1, 106320, Note_on_c, 0, 52, 0
1, 106320, Note_on_c, 0, 50, 38
1, 106320, Note_on_c, 0, 52, 38
1, 106320, Note_on_c, 0, 56, 38
1, 106320, Note_on_c, 0, 59, 45
1, 106320, Note_on_c, 0, 40, 31
1, 106360, Tempo, 1244555
1, 106440, Note_on_c, 0, 40, 0
1, 106440, Note_on_c, 0, 52, 31
1, 106560, Tempo, 1128032
1, 106560, Note_on_c, 0, 52, 0
1, 106560, Note_on_c, 0, 59, 0
1, 106560, Note_on_c, 0, 50, 0
1, 106560, Note_on_c, 0, 52, 0
1, 106560, Note_on_c, 0, 56, 0
1, 106560, Note_on_c, 0, 50, 39
1, 106560, Note_on_c, 0, 52, 39
1, 106560, Note_on_c, 0, 56, 39
1, 106560, Note_on_c, 0, 59, 47
1, 106560, Control_c, 0, 64, 0
1, 106616, Control_c, 0, 64, 127
1, 106680, Note_on_c, 0, 40, 29
1, 106800, Note_on_c, 0, 40, 0
1, 106800, Note_on_c, 0, 44, 31
1, 106920, Note_on_c, 0, 44, 0
1, 106920, Note_on_c, 0, 40, 33
1, 107040, Tempo, 1097293
1, 107040, Note_on_c, 0, 40, 0
1, 107040, Note_on_c, 0, 56, 0
1, 107040, Note_on_c, 0, 59, 0
1, 107040, Note_on_c, 0, 50, 0
1, 107040, Note_on_c, 0, 49, 39
1, 107040, Note_on_c, 0, 57, 47
1, 107040, Control_c, 0, 64, 0
1, 107040, Note_on_c, 0, 45, 35
1, 107130, Note_on_c, 0, 45, 0
1, 107160, Note_on_c, 0, 45, 32
1, 107220, Note_on_c, 0, 45, 0
1, 107280, Note_on_c, 0, 52, 0
1, 107280, Note_on_c, 0, 47, 32
1, 107340, Note_on_c, 0, 47, 0
1, 107360, Tempo, 1097293
1, 107400, Note_on_c, 0, 49, 32
1, 107460, Note_on_c, 0, 49, 0
1, 107520, Tempo, 1107420
1, 107520, Note_on_c, 0, 57, 0
1, 107520, Note_on_c, 0, 49, 0
1, 107520, Note_on_c, 0, 47, 32
1, 107580, Note_on_c, 0, 47, 0
1, 107640, Tempo, 1117527
1, 107640, Note_on_c, 0, 45, 32
1, 107700, Note_on_c, 0, 45, 0
1, 107760, Tempo, 1128032
1, 107760, Note_on_c, 0, 44, 31
1, 107820, Note_on_c, 0, 44, 0
1, 107880, Tempo, 1138520
1, 107880, Note_on_c, 0, 42, 31
1, 107940, Note_on_c, 0, 42, 0
1, 108000, Tempo, 1107420
1, 108000, Note_on_c, 0, 71, 62
1, 108000, Note_on_c, 0, 40, 36
1, 108004, Control_c, 0, 64, 127
1, 108080, Note_on_c, 0, 68, 31
1, 108120, Tempo, 1097293
1, 108120, Note_on_c, 0, 40, 0
1, 108160, Note_on_c, 0, 68, 0
1, 108160, Note_on_c, 0, 64, 31
1, 108240, Tempo, 1087350
1, 108240, Note_on_c, 0, 64, 0
1, 108240, Note_on_c, 0, 68, 31
1, 108240, Note_on_c, 0, 52, 23
1, 108240, Note_on_c, 0, 56, 27
1, 108320, Note_on_c, 0, 68, 0
1, 108320, Note_on_c, 0, 64, 31
1, 108360, Tempo, 1077780
1, 108360, Note_on_c, 0, 56, 0
1, 108360, Note_on_c, 0, 52, 0
1, 108400, Note_on_c, 0, 64, 0
1, 108400, Note_on_c, 0, 59, 31
1, 108440, Tempo, 1068186
1, 108480, Note_on_c, 0, 59, 0
1, 108480, Note_on_c, 0, 71, 0
1, 108480, Note_on_c, 0, 71, 63
1, 108480, Note_on_c, 0, 40, 36
1, 108560, Tempo, 1077780
1, 108560, Note_on_c, 0, 68, 31
1, 108600, Note_on_c, 0, 40, 0
1, 108640, Note_on_c, 0, 68, 0
1, 108640, Note_on_c, 0, 64, 31
1, 108680, Tempo, 1087350
1, 108720, Note_on_c, 0, 64, 0
1, 108720, Note_on_c, 0, 68, 31
1, 108720, Note_on_c, 0, 52, 24
1, 108720, Note_on_c, 0, 56, 28
1, 108760, Tempo, 1097293
1, 108800, Note_on_c, 0, 68, 0
1, 108800, Note_on_c, 0, 64, 31
1, 108840, Note_on_c, 0, 56, 0
1, 108840, Note_on_c, 0, 52, 0
1, 108880, Tempo, 1107420
1, 108880, Note_on_c, 0, 64, 0
1, 108880, Note_on_c, 0, 59, 31
1, 108960, Tempo, 1117527
1, 108960, Note_on_c, 0, 59, 0
1, 108960, Note_on_c, 0, 71, 0
1, 108960, Note_on_c, 0, 73, 62
1, 108960, Note_on_c, 0, 49, 36
1, 108982, Control_c, 0, 64, 0
1, 109040, Note_on_c, 0, 70, 31
1, 109059, Control_c, 0, 64, 127
1, 109080, Note_on_c, 0, 49, 0
1, 109120, Note_on_c, 0, 70, 0
1, 109120, Note_on_c, 0, 66, 32
1, 109200, Note_on_c, 0, 66, 0
1, 109200, Note_on_c, 0, 70, 32
1, 109200, Note_on_c, 0, 54, 25
1, 109200, Note_on_c, 0, 58, 29
1, 109280, Note_on_c, 0, 70, 0
1, 109280, Note_on_c, 0, 66, 32
1, 109320, Note_on_c, 0, 58, 0
1, 109320, Note_on_c, 0, 54, 0
1, 109360, Note_on_c, 0, 66, 0
1, 109360, Note_on_c, 0, 64, 32
1, 109400, Tempo, 1117527
1, 109440, Note_on_c, 0, 64, 0
1, 109440, Note_on_c, 0, 73, 0
1, 109440, Note_on_c, 0, 74, 63
1, 109440, Note_on_c, 0, 47, 36
1, 109440, Control_c, 0, 64, 0
1, 109497, Control_c, 0, 64, 127
1, 109520, Note_on_c, 0, 71, 32
1, 109560, Note_on_c, 0, 47, 0
1, 109600, Tempo, 1107420
1, 109600, Note_on_c, 0, 71, 0
1, 109600, Note_on_c, 0, 66, 32
1, 109680, Note_on_c, 0, 66, 0
1, 109680, Note_on_c, 0, 71, 32
1, 109680, Note_on_c, 0, 54, 25
1, 109680, Note_on_c, 0, 59, 30
1, 109760, Note_on_c, 0, 71, 0
1, 109760, Note_on_c, 0, 66, 32
1, 109800, Tempo, 1097293
1, 109800, Note_on_c, 0, 59, 0
1, 109800, Note_on_c, 0, 54, 0
1, 109840, Note_on_c, 0, 66, 0
1, 109840, Note_on_c, 0, 73, 25
1, 109860, Note_on_c, 0, 74, 0
1, 109860, Note_on_c, 0, 76, 56
1, 109920, Note_on_c, 0, 76, 0
1, 109920, Note_on_c, 0, 73, 0
1, 109920, Note_on_c, 0, 78, 59
1, 109920, Note_on_c, 0, 47, 36
1, 109944, Control_c, 0, 64, 0
1, 110000, Tempo, 1087350
1, 110000, Note_on_c, 0, 74, 31
1, 110034, Control_c, 0, 64, 127
1, 110040, Note_on_c, 0, 47, 0
1, 110080, Note_on_c, 0, 74, 0
1, 110080, Note_on_c, 0, 71, 31
1, 110160, Note_on_c, 0, 71, 0
1, 110160, Note_on_c, 0, 74, 31
1, 110160, Note_on_c, 0, 59, 29
1, 110160, Note_on_c, 0, 54, 25
1, 110200, Tempo, 1077780
1, 110240, Note_on_c, 0, 74, 0
1, 110240, Note_on_c, 0, 71, 31
1, 110280, Note_on_c, 0, 54, 0
1, 110280, Note_on_c, 0, 59, 0
1, 110320, Note_on_c, 0, 71, 0
1, 110320, Note_on_c, 0, 66, 31
1, 110400, Tempo, 1068186
1, 110400, Note_on_c, 0, 66, 0
1, 110400, Note_on_c, 0, 47, 36
1, 110407, Control_c, 0, 64, 0
1, 110480, Note_on_c, 0, 74, 32
1, 110481, Control_c, 0, 64, 127
1, 110520, Note_on_c, 0, 47, 0
1, 110560, Tempo, 1077780
1, 110560, Note_on_c, 0, 74, 0
1, 110560, Note_on_c, 0, 71, 32
1, 110640, Note_on_c, 0, 71, 0
1, 110640, Note_on_c, 0, 78, 0
1, 110640, Note_on_c, 0, 74, 32
1, 110640, Note_on_c, 0, 78, 63
1, 110640, Note_on_c, 0, 62, 29
1, 110640, Note_on_c, 0, 56, 25
1, 110640, Note_on_c, 0, 59, 25
1, 110720, Tempo, 1087350
1, 110720, Note_on_c, 0, 74, 0
1, 110720, Note_on_c, 0, 71, 32
1, 110760, Note_on_c, 0, 56, 0
1, 110760, Note_on_c, 0, 59, 0
1, 110760, Note_on_c, 0, 62, 0
1, 110800, Note_on_c, 0, 71, 0
1, 110800, Note_on_c, 0, 68, 32
1, 110880, Tempo, 1097293
1, 110880, Note_on_c, 0, 68, 0
1, 110880, Note_on_c, 0, 78, 0
1, 110880, Note_on_c, 0, 78, 67
1, 110880, Note_on_c, 0, 45, 36
1, 110880, Control_c, 0, 64, 0
1, 110958, Control_c, 0, 64, 127
1, 110960, Tempo, 1107420
1, 110960, Note_on_c, 0, 74, 34
1, 111000, Note_on_c, 0, 45, 0
1, 111040, Note_on_c, 0, 74, 0
1, 111040, Note_on_c, 0, 69, 34
1, 111080, Tempo, 1097293
1, 111120, Note_on_c, 0, 69, 0
1, 111120, Note_on_c, 0, 74, 34
1, 111120, Note_on_c, 0, 62, 28
1, 111120, Note_on_c, 0, 57, 24
1, 111200, Tempo, 1087350
1, 111200, Note_on_c, 0, 74, 0
1, 111200, Note_on_c, 0, 69, 34
1, 111280, Note_on_c, 0, 69, 0
1, 111280, Note_on_c, 0, 71, 32
1, 111300, Note_on_c, 0, 57, 0
1, 111300, Note_on_c, 0, 78, 0
1, 111300, Note_on_c, 0, 79, 62
1, 111300, Note_on_c, 0, 55, 24
1, 111320, Tempo, 1077780
1, 111360, Note_on_c, 0, 55, 0
1, 111360, Note_on_c, 0, 71, 0
1, 111360, Note_on_c, 0, 62, 0
1, 111360, Note_on_c, 0, 79, 0
1, 111360, Note_on_c, 0, 81, 66
1, 111360, Note_on_c, 0, 54, 27
1, 111360, Note_on_c, 0, 62, 36
1, 111367, Control_c, 0, 64, 0
1, 111400, Tempo, 1068186
1, 111424, Control_c, 0, 64, 127
1, 111440, Note_on_c, 0, 69, 32
1, 111520, Tempo, 1077780
1, 111520, Note_on_c, 0, 69, 0
1, 111520, Note_on_c, 0, 74, 32
1, 111600, Note_on_c, 0, 74, 0
1, 111600, Note_on_c, 0, 62, 0
1, 111600, Note_on_c, 0, 54, 0
1, 111600, Note_on_c, 0, 81, 0
1, 111600, Note_on_c, 0, 79, 62
1, 111600, Note_on_c, 0, 55, 27
1, 111600, Note_on_c, 0, 62, 32
1, 111615, Control_c, 0, 64, 0
1, 111640, Tempo, 1087350
1, 111680, Note_on_c, 0, 71, 30
1, 111692, Control_c, 0, 64, 127
1, 111760, Tempo, 1097293
1, 111760, Note_on_c, 0, 71, 0
1, 111760, Note_on_c, 0, 74, 30
1, 111840, Tempo, 1107420
1, 111840, Note_on_c, 0, 74, 0
1, 111840, Note_on_c, 0, 62, 0
1, 111840, Note_on_c, 0, 55, 0
1, 111840, Note_on_c, 0, 79, 0
1, 111840, Note_on_c, 0, 78, 62
1, 111840, Note_on_c, 0, 57, 27
1, 111840, Note_on_c, 0, 62, 32
1, 111855, Control_c, 0, 64, 0
1, 111920, Note_on_c, 0, 69, 32
1, 111932, Control_c, 0, 64, 127
1, 112000, Note_on_c, 0, 69, 0
1, 112000, Note_on_c, 0, 74, 32
1, 112080, Note_on_c, 0, 74, 0
1, 112080, Note_on_c, 0, 62, 0
1, 112080, Note_on_c, 0, 57, 0
1, 112080, Note_on_c, 0, 78, 0
1, 112080, Note_on_c, 0, 76, 62
1, 112080, Note_on_c, 0, 57, 28
1, 112080, Note_on_c, 0, 61, 33
1, 112160, Note_on_c, 0, 67, 32
1, 112240, Note_on_c, 0, 67, 0
1, 112240, Note_on_c, 0, 69, 32
1, 112320, Note_on_c, 0, 69, 0
1, 112320, Note_on_c, 0, 61, 0
1, 112320, Note_on_c, 0, 57, 0
1, 112320, Note_on_c, 0, 76, 0
1, 112320, Note_on_c, 0, 76, 66
1, 112320, Note_on_c, 0, 50, 36
1, 112320, Control_c, 0, 64, 0
1, 112376, Control_c, 0, 64, 127
1, 112400, Note_on_c, 0, 73, 31
1, 112440, Note_on_c, 0, 50, 0
1, 112480, Note_on_c, 0, 73, 0
1, 112480, Note_on_c, 0, 69, 31
1, 112560, Note_on_c, 0, 69, 0
1, 112560, Note_on_c, 0, 73, 31
1, 112560, Note_on_c, 0, 57, 27
1, 112560, Note_on_c, 0, 61, 33
1, 112640, Note_on_c, 0, 73, 0
1, 112640, Note_on_c, 0, 69, 31
1, 112680, Note_on_c, 0, 61, 0
1, 112680, Note_on_c, 0, 57, 0
1, 112720, Note_on_c, 0, 69, 0
1, 112720, Note_on_c, 0, 67, 31
1, 112800, Tempo, 1138520
1, 112800, Note_on_c, 0, 67, 0
1, 112800, Note_on_c, 0, 76, 0
1, 112800, Note_on_c, 0, 74, 66
1, 112800, Note_on_c, 0, 50, 33
1, 112809, Control_c, 0, 64, 0
1, 112849, Control_c, 0, 64, 127
1, 112880, Note_on_c, 0, 69, 31
1, 112920, Note_on_c, 0, 50, 0
1, 112960, Note_on_c, 0, 69, 0
1, 112960, Note_on_c, 0, 66, 31
1, 113040, Note_on_c, 0, 66, 0
1, 113040, Note_on_c, 0, 69, 34
1, 113040, Note_on_c, 0, 57, 27
1, 113040, Note_on_c, 0, 62, 32
1, 113120, Tempo, 1097293
1, 113120, Note_on_c, 0, 69, 0
1, 113120, Note_on_c, 0, 66, 32
1, 113200, Note_on_c, 0, 66, 0
1, 113200, Note_on_c, 0, 62, 32
1, 113220, Note_on_c, 0, 62, 0
1, 113220, Note_on_c, 0, 57, 0
1, 113240, Tempo, 1097293
1, 113280, Tempo, 1107420
1, 113280, Note_on_c, 0, 62, 0
1, 113280, Note_on_c, 0, 50, 36
1, 113320, Tempo, 1117527
1, 113360, Tempo, 1138520
1, 113360, Note_on_c, 0, 66, 33
1, 113400, Tempo, 1149646
1, 113440, Tempo, 1160766
1, 113440, Note_on_c, 0, 66, 0
1, 113440, Note_on_c, 0, 62, 32
1, 113460, Note_on_c, 0, 50, 0
1, 113480, Tempo, 1183432
1, 113520, Tempo, 1194981
1, 113520, Note_on_c, 0, 62, 0
1, 113520, Note_on_c, 0, 69, 32
1, 113520, Note_on_c, 0, 54, 26
1, 113520, Note_on_c, 0, 57, 30
1, 113560, Tempo, 1207001
1, 113600, Tempo, 1231527
1, 113600, Note_on_c, 0, 69, 0
1, 113600, Note_on_c, 0, 66, 28
1, 113640, Tempo, 1244555
1, 113680, Tempo, 1257334
1, 113680, Note_on_c, 0, 66, 0
1, 113680, Note_on_c, 0, 62, 27
1, 113700, Note_on_c, 0, 57, 0
1, 113700, Note_on_c, 0, 54, 0
1, 113720, Tempo, 1283972
1, 113760, Tempo, 1107420
1, 113760, Note_on_c, 0, 74, 0
1, 113760, Note_on_c, 0, 62, 0
1, 113760, Note_on_c, 0, 70, 44
1, 113760, Note_on_c, 0, 38, 25
1, 113771, Control_c, 0, 64, 0
1, 113811, Control_c, 0, 64, 127
1, 113840, Note_on_c, 0, 65, 24
1, 113880, Tempo, 1097293
1, 113880, Note_on_c, 0, 38, 0
1, 113920, Note_on_c, 0, 65, 0
1, 113920, Note_on_c, 0, 62, 24
1, 114000, Tempo, 1087350
1, 114000, Note_on_c, 0, 62, 0
1, 114000, Note_on_c, 0, 65, 24
1, 114000, Note_on_c, 0, 50, 16
1, 114000, Note_on_c, 0, 53, 18
1, 114080, Note_on_c, 0, 65, 0
1, 114080, Note_on_c, 0, 62, 24
1, 114120, Tempo, 1077780
1, 114120, Note_on_c, 0, 53, 0
1, 114120, Note_on_c, 0, 50, 0
1, 114160, Note_on_c, 0, 62, 0
1, 114160, Note_on_c, 0, 58, 24
1, 114200, Tempo, 1068186
1, 114240, Note_on_c, 0, 58, 0
1, 114240, Note_on_c, 0, 70, 0
1, 114240, Note_on_c, 0, 70, 45
1, 114240, Note_on_c, 0, 38, 25
1, 114320, Tempo, 1077780
1, 114320, Note_on_c, 0, 65, 24
1, 114360, Note_on_c, 0, 38, 0
1, 114400, Note_on_c, 0, 65, 0
1, 114400, Note_on_c, 0, 62, 24
1, 114440, Tempo, 1087350
1, 114480, Note_on_c, 0, 62, 0
1, 114480, Note_on_c, 0, 65, 24
1, 114480, Note_on_c, 0, 50, 17
1, 114480, Note_on_c, 0, 53, 19
1, 114520, Tempo, 1097293
1, 114560, Note_on_c, 0, 65, 0
1, 114560, Note_on_c, 0, 62, 24
1, 114600, Note_on_c, 0, 53, 0
1, 114600, Note_on_c, 0, 50, 0
1, 114640, Tempo, 1107420
1, 114640, Note_on_c, 0, 62, 0
1, 114640, Note_on_c, 0, 58, 24
1, 114720, Tempo, 1117527
1, 114720, Note_on_c, 0, 58, 0
1, 114720, Note_on_c, 0, 70, 0
1, 114720, Note_on_c, 0, 70, 44
1, 114720, Note_on_c, 0, 38, 25
1, 114800, Note_on_c, 0, 65, 24
1, 114840, Note_on_c, 0, 38, 0
1, 114880, Note_on_c, 0, 65, 0
1, 114880, Note_on_c, 0, 62, 25
1, 114960, Note_on_c, 0, 62, 0
1, 114960, Note_on_c, 0, 65, 25
1, 114960, Note_on_c, 0, 50, 17
1, 114960, Note_on_c, 0, 53, 20
1, 115040, Note_on_c, 0, 65, 0
1, 115040, Note_on_c, 0, 62, 25
1, 115080, Note_on_c, 0, 53, 0
1, 115080, Note_on_c, 0, 50, 0
1, 115120, Note_on_c, 0, 62, 0
1, 115120, Note_on_c, 0, 58, 25
1, 115160, Tempo, 1117527
1, 115200, Note_on_c, 0, 58, 0
1, 115200, Note_on_c, 0, 70, 0
1, 115200, Note_on_c, 0, 70, 45
1, 115200, Note_on_c, 0, 39, 25
1, 115200, Control_c, 0, 64, 0
1, 115257, Control_c, 0, 64, 127
1, 115280, Note_on_c, 0, 67, 25
1, 115320, Note_on_c, 0, 39, 0
1, 115360, Tempo, 1107420
1, 115360, Note_on_c, 0, 67, 0
1, 115360, Note_on_c, 0, 63, 25
1, 115440, Note_on_c, 0, 63, 0
1, 115440, Note_on_c, 0, 67, 25
1, 115440, Note_on_c, 0, 51, 17
1, 115440, Note_on_c, 0, 55, 21
1, 115520, Note_on_c, 0, 67, 0
1, 115520, Note_on_c, 0, 63, 25
1, 115560, Tempo, 1097293
1, 115560, Note_on_c, 0, 55, 0
1, 115560, Note_on_c, 0, 51, 0
1, 115600, Note_on_c, 0, 63, 0
1, 115600, Note_on_c, 0, 58, 25
1, 115680, Note_on_c, 0, 58, 0
1, 115680, Note_on_c, 0, 70, 0
1, 115680, Note_on_c, 0, 67, 39
1, 115680, Note_on_c, 0, 39, 25
1, 115704, Control_c, 0, 64, 0
1, 115760, Tempo, 1087350
1, 115760, Note_on_c, 0, 63, 24
1, 115794, Control_c, 0, 64, 127
1, 115840, Note_on_c, 0, 63, 0
1, 115840, Note_on_c, 0, 58, 24
1, 115920, Note_on_c, 0, 58, 0
1, 115920, Note_on_c, 0, 39, 0
1, 115920, Note_on_c, 0, 67, 0
1, 115920, Note_on_c, 0, 79, 42
1, 115920, Note_on_c, 0, 51, 17
1, 115920, Note_on_c, 0, 55, 17
1, 115920, Note_on_c, 0, 58, 20
1, 115926, Control_c, 0, 64, 0
1, 115960, Tempo, 1077780
1, 115969, Control_c, 0, 64, 127
1, 116000, Note_on_c, 0, 75, 24
1, 116080, Note_on_c, 0, 75, 0
1, 116080, Note_on_c, 0, 67, 24
1, 116160, Tempo, 1068186
1, 116160, Note_on_c, 0, 67, 0
1, 116160, Note_on_c, 0, 58, 0
1, 116160, Note_on_c, 0, 79, 0
1, 116160, Note_on_c, 0, 51, 0
1, 116160, Note_on_c, 0, 55, 0
1, 116160, Note_on_c, 0, 77, 42
1, 116160, Note_on_c, 0, 50, 17
1, 116160, Note_on_c, 0, 55, 17
1, 116160, Note_on_c, 0, 59, 20
1, 116166, Control_c, 0, 64, 0
1, 116212, Control_c, 0, 64, 127
1, 116240, Note_on_c, 0, 71, 25
1, 116320, Tempo, 1077780
1, 116320, Note_on_c, 0, 71, 0
1, 116320, Note_on_c, 0, 67, 25
1, 116400, Note_on_c, 0, 67, 0
1, 116400, Note_on_c, 0, 59, 0
1, 116400, Note_on_c, 0, 77, 0
1, 116400, Note_on_c, 0, 50, 0
1, 116400, Note_on_c, 0, 55, 0
1, 116400, Note_on_c, 0, 75, 45
1, 116400, Note_on_c, 0, 48, 17
1, 116400, Note_on_c, 0, 55, 17
1, 116400, Note_on_c, 0, 60, 20
1, 116413, Control_c, 0, 64, 0
1, 116437, Control_c, 0, 64, 127
1, 116480, Tempo, 1087350
1, 116480, Note_on_c, 0, 72, 25
1, 116560, Note_on_c, 0, 72, 0
1, 116560, Note_on_c, 0, 67, 25
1, 116640, Tempo, 1097293
1, 116640, Note_on_c, 0, 67, 0
1, 116640, Note_on_c, 0, 60, 0
1, 116640, Note_on_c, 0, 75, 0
1, 116640, Note_on_c, 0, 48, 0
1, 116640, Note_on_c, 0, 55, 0
1, 116640, Note_on_c, 0, 74, 45
1, 116640, Note_on_c, 0, 41, 25
1, 116640, Control_c, 0, 64, 0
1, 116718, Control_c, 0, 64, 127
1, 116720, Tempo, 1107420
1, 116720, Note_on_c, 0, 70, 27
1, 116760, Note_on_c, 0, 41, 0
1, 116800, Note_on_c, 0, 70, 0
1, 116800, Note_on_c, 0, 65, 27
1, 116840, Tempo, 1097293
1, 116880, Note_on_c, 0, 65, 0
1, 116880, Note_on_c, 0, 70, 27
1, 116880, Note_on_c, 0, 58, 19
1, 116880, Note_on_c, 0, 53, 17
1, 116960, Tempo, 1087350
1, 116960, Note_on_c, 0, 70, 0
1, 116960, Note_on_c, 0, 65, 27
1, 117000, Note_on_c, 0, 53, 0
1, 117000, Note_on_c, 0, 58, 0
1, 117040, Note_on_c, 0, 65, 0
1, 117040, Note_on_c, 0, 62, 25
1, 117080, Tempo, 1077780
1, 117120, Note_on_c, 0, 62, 0
1, 117120, Note_on_c, 0, 41, 25
1, 117160, Tempo, 1068186
1, 117200, Note_on_c, 0, 70, 27
1, 117240, Note_on_c, 0, 41, 0
1, 117280, Tempo, 1077780
1, 117280, Note_on_c, 0, 70, 0
1, 117280, Note_on_c, 0, 65, 27
1, 117360, Note_on_c, 0, 65, 0
1, 117360, Note_on_c, 0, 70, 27
1, 117360, Note_on_c, 0, 53, 17
1, 117360, Note_on_c, 0, 58, 19
1, 117400, Tempo, 1087350
1, 117440, Note_on_c, 0, 70, 0
1, 117440, Note_on_c, 0, 65, 25
1, 117480, Note_on_c, 0, 58, 0
1, 117480, Note_on_c, 0, 53, 0
1, 117520, Tempo, 1097293
1, 117520, Note_on_c, 0, 65, 0
1, 117520, Note_on_c, 0, 62, 25
1, 117600, Tempo, 1107420
1, 117600, Note_on_c, 0, 62, 0
1, 117600, Note_on_c, 0, 74, 0
1, 117600, Note_on_c, 0, 75, 44
1, 117600, Note_on_c, 0, 41, 25
1, 117635, Control_c, 0, 64, 0
1, 117680, Note_on_c, 0, 72, 25
1, 117692, Control_c, 0, 64, 127
1, 117720, Note_on_c, 0, 41, 0
1, 117760, Note_on_c, 0, 72, 0
1, 117760, Note_on_c, 0, 69, 25
1, 117840, Note_on_c, 0, 69, 0
1, 117840, Note_on_c, 0, 72, 27
1, 117840, Note_on_c, 0, 53, 17
1, 117840, Note_on_c, 0, 57, 19
1, 117920, Note_on_c, 0, 69, 25
1, 117960, Note_on_c, 0, 57, 0
1, 117960, Note_on_c, 0, 53, 0
1, 118000, Note_on_c, 0, 69, 0
1, 118000, Note_on_c, 0, 63, 25
1, 118020, Note_on_c, 0, 75, 0
1, 118020, Note_on_c, 0, 72, 39
1, 118080, Note_on_c, 0, 72, 0
1, 118080, Note_on_c, 0, 63, 0
1, 118080, Note_on_c, 0, 72, 0
1, 118080, Note_on_c, 0, 71, 43
1, 118080, Note_on_c, 0, 41, 25
1, 118080, Control_c, 0, 64, 0
1, 118136, Control_c, 0, 64, 127
1, 118160, Note_on_c, 0, 68, 24
1, 118200, Note_on_c, 0, 41, 0
1, 118240, Note_on_c, 0, 68, 0
1, 118240, Note_on_c, 0, 62, 24
1, 118320, Note_on_c, 0, 62, 0
1, 118320, Note_on_c, 0, 68, 24
1, 118320, Note_on_c, 0, 53, 23
1, 118400, Note_on_c, 0, 68, 0
1, 118400, Note_on_c, 0, 62, 24
1, 118440, Note_on_c, 0, 53, 0
1, 118480, Note_on_c, 0, 62, 0
1, 118480, Note_on_c, 0, 59, 24
1, 118560, Tempo, 1097293
1, 118560, Note_on_c, 0, 59, 0
1, 118560, Note_on_c, 0, 41, 23
1, 118640, Note_on_c, 0, 68, 24
1, 118680, Note_on_c, 0, 41, 0
1, 118720, Note_on_c, 0, 68, 0
1, 118720, Note_on_c, 0, 62, 24
1, 118800, Note_on_c, 0, 62, 0
1, 118800, Note_on_c, 0, 68, 27
1, 118800, Note_on_c, 0, 53, 22
1, 118880, Tempo, 1097293
1, 118880, Note_on_c, 0, 68, 0
1, 118880, Note_on_c, 0, 62, 25
1, 118960, Note_on_c, 0, 62, 0
1, 118960, Note_on_c, 0, 59, 25
1, 118980, Note_on_c, 0, 53, 0
1, 119040, Tempo, 1107420
1, 119040, Note_on_c, 0, 59, 0
1, 119040, Note_on_c, 0, 41, 25
1, 119120, Note_on_c, 0, 68, 27
1, 119160, Tempo, 1117527
1, 119200, Note_on_c, 0, 68, 0
1, 119200, Note_on_c, 0, 62, 27
1, 119220, Note_on_c, 0, 41, 0
1, 119280, Tempo, 1128032
1, 119280, Note_on_c, 0, 62, 0
1, 119280, Note_on_c, 0, 68, 28
1, 119280, Note_on_c, 0, 53, 23
1, 119360, Note_on_c, 0, 68, 0
1, 119360, Note_on_c, 0, 62, 25
1, 119400, Tempo, 1138520
1, 119440, Note_on_c, 0, 62, 0
1, 119440, Note_on_c, 0, 59, 25
1, 119460, Note_on_c, 0, 53, 0
1, 119520, Tempo, 1107420
1, 119520, Note_on_c, 0, 59, 0
1, 119520, Note_on_c, 0, 71, 0
1, 119520, Note_on_c, 0, 71, 42
1, 119520, Note_on_c, 0, 41, 25
1, 119520, Control_c, 0, 64, 0
1, 119576, Control_c, 0, 64, 127
1, 119600, Note_on_c, 0, 68, 24
1, 119640, Note_on_c, 0, 41, 0
1, 119680, Note_on_c, 0, 68, 0
1, 119680, Note_on_c, 0, 61, 24
1, 119760, Note_on_c, 0, 61, 0
1, 119760, Note_on_c, 0, 68, 24
1, 119760, Note_on_c, 0, 53, 23
1, 119840, Note_on_c, 0, 68, 0
1, 119840, Note_on_c, 0, 61, 24
1, 119880, Note_on_c, 0, 53, 0
1, 119920, Note_on_c, 0, 61, 0
1, 119920, Note_on_c, 0, 59, 24
1, 120000, Tempo, 1097293
1, 120000, Note_on_c, 0, 59, 0
1, 120000, Note_on_c, 0, 41, 23
1, 120080, Note_on_c, 0, 68, 24
1, 120120, Note_on_c, 0, 41, 0
1, 120160, Note_on_c, 0, 68, 0
1, 120160, Note_on_c, 0, 61, 24
1, 120240, Note_on_c, 0, 61, 0
1, 120240, Note_on_c, 0, 68, 27
1, 120240, Note_on_c, 0, 53, 22
1, 120320, Tempo, 1097293
1, 120320, Note_on_c, 0, 68, 0
1, 120320, Note_on_c, 0, 61, 25
1, 120400, Note_on_c, 0, 61, 0
1, 120400, Note_on_c, 0, 59, 25
1, 120420, Note_on_c, 0, 53, 0
1, 120480, Tempo, 1107420
1, 120480, Note_on_c, 0, 59, 0
1, 120480, Note_on_c, 0, 71, 0
1, 120480, Note_on_c, 0, 71, 43
1, 120480, Note_on_c, 0, 41, 25
1, 120494, Control_c, 0, 64, 0
1, 120560, Note_on_c, 0, 68, 27
1, 120576, Control_c, 0, 64, 127
1, 120600, Tempo, 1117527
1, 120640, Note_on_c, 0, 68, 0
1, 120640, Note_on_c, 0, 62, 27
1, 120660, Note_on_c, 0, 41, 0
1, 120720, Tempo, 1128032
1, 120720, Note_on_c, 0, 62, 0
1, 120720, Note_on_c, 0, 68, 28
1, 120720, Note_on_c, 0, 53, 24
1, 120800, Note_on_c, 0, 68, 0
1, 120800, Note_on_c, 0, 62, 26
1, 120840, Tempo, 1138520
1, 120880, Note_on_c, 0, 62, 0
1, 120880, Note_on_c, 0, 59, 27
1, 120900, Note_on_c, 0, 53, 0
1, 120960, Tempo, 1107420
1, 120960, Note_on_c, 0, 59, 0
1, 120960, Note_on_c, 0, 71, 0
1, 120960, Note_on_c, 0, 71, 44
1, 120960, Note_on_c, 0, 42, 28
1, 120960, Control_c, 0, 64, 0
1, 121016, Control_c, 0, 64, 127
1, 121040, Note_on_c, 0, 66, 26
1, 121080, Note_on_c, 0, 42, 0
1, 121120, Note_on_c, 0, 66, 0
1, 121120, Note_on_c, 0, 62, 26
1, 121200, Note_on_c, 0, 62, 0
1, 121200, Note_on_c, 0, 66, 25
1, 121200, Note_on_c, 0, 54, 24
1, 121280, Note_on_c, 0, 66, 0
1, 121280, Note_on_c, 0, 62, 25
1, 121320, Note_on_c, 0, 54, 0
1, 121360, Note_on_c, 0, 62, 0
1, 121360, Note_on_c, 0, 61, 24
1, 121380, Note_on_c, 0, 71, 0
1, 121380, Note_on_c, 0, 69, 41
1, 121430, Note_on_c, 0, 69, 0
1, 121440, Tempo, 1097293
1, 121440, Note_on_c, 0, 61, 0
1, 121440, Note_on_c, 0, 69, 42
1, 121440, Note_on_c, 0, 42, 23
1, 121520, Note_on_c, 0, 66, 24
1, 121560, Note_on_c, 0, 42, 0
1, 121600, Note_on_c, 0, 66, 0
1, 121600, Note_on_c, 0, 61, 24
1, 121680, Note_on_c, 0, 61, 0
1, 121680, Note_on_c, 0, 66, 27
1, 121680, Note_on_c, 0, 54, 22
1, 121760, Tempo, 1097293
1, 121760, Note_on_c, 0, 66, 0
1, 121760, Note_on_c, 0, 61, 25
1, 121840, Note_on_c, 0, 61, 0
1, 121840, Note_on_c, 0, 57, 25
1, 121860, Note_on_c, 0, 54, 0
1, 121920, Tempo, 1107420
1, 121920, Note_on_c, 0, 57, 0
1, 121920, Note_on_c, 0, 42, 25
1, 122000, Note_on_c, 0, 66, 27
1, 122040, Tempo, 1117527
1, 122080, Note_on_c, 0, 66, 0
1, 122080, Note_on_c, 0, 61, 27
1, 122100, Note_on_c, 0, 42, 0
1, 122160, Tempo, 1128032
1, 122160, Note_on_c, 0, 61, 0
1, 122160, Note_on_c, 0, 66, 28
1, 122160, Note_on_c, 0, 54, 23
1, 122240, Note_on_c, 0, 66, 0
1, 122240, Note_on_c, 0, 61, 25
1, 122280, Tempo, 1138520
1, 122320, Note_on_c, 0, 61, 0
1, 122320, Note_on_c, 0, 57, 25
1, 122340, Note_on_c, 0, 54, 0
1, 122400, Tempo, 1107420
1, 122400, Note_on_c, 0, 57, 0
1, 122400, Note_on_c, 0, 69, 0
1, 122400, Note_on_c, 0, 69, 43
1, 122400, Note_on_c, 0, 30, 25
1, 122400, Control_c, 0, 64, 0
1, 122456, Control_c, 0, 64, 127
1, 122480, Note_on_c, 0, 66, 24
1, 122520, Note_on_c, 0, 30, 0
1, 122560, Note_on_c, 0, 66, 0
1, 122560, Note_on_c, 0, 61, 24
1, 122640, Note_on_c, 0, 61, 0
1, 122640, Note_on_c, 0, 66, 24
1, 122640, Note_on_c, 0, 42, 23
1, 122720, Note_on_c, 0, 66, 0
1, 122720, Note_on_c, 0, 61, 24
1, 122760, Note_on_c, 0, 42, 0
1, 122800, Note_on_c, 0, 61, 0
1, 122800, Note_on_c, 0, 57, 24
1, 122880, Tempo, 1097293
1, 122880, Note_on_c, 0, 57, 0
1, 122880, Note_on_c, 0, 30, 23
1, 122960, Note_on_c, 0, 66, 24
1, 123000, Note_on_c, 0, 30, 0
1, 123040, Note_on_c, 0, 66, 0
1, 123040, Note_on_c, 0, 61, 24
1, 123120, Note_on_c, 0, 61, 0
1, 123120, Note_on_c, 0, 66, 27
1, 123120, Note_on_c, 0, 42, 22
1, 123200, Tempo, 1097293
1, 123200, Note_on_c, 0, 66, 0
1, 123200, Note_on_c, 0, 61, 25
1, 123280, Note_on_c, 0, 61, 0
1, 123280, Note_on_c, 0, 57, 25
1, 123300, Note_on_c, 0, 42, 0
1, 123360, Tempo, 1107420
1, 123360, Note_on_c, 0, 57, 0
1, 123360, Note_on_c, 0, 69, 0
1, 123360, Note_on_c, 0, 69, 41
1, 123360, Note_on_c, 0, 30, 25
1, 123374, Control_c, 0, 64, 0
1, 123440, Note_on_c, 0, 66, 27
1, 123456, Control_c, 0, 64, 127
1, 123480, Tempo, 1117527
1, 123520, Note_on_c, 0, 66, 0
1, 123520, Note_on_c, 0, 62, 27
1, 123540, Note_on_c, 0, 30, 0
1, 123600, Tempo, 1128032
1, 123600, Note_on_c, 0, 62, 0
1, 123600, Note_on_c, 0, 66, 28
1, 123600, Note_on_c, 0, 42, 24
1, 123680, Note_on_c, 0, 66, 0
1, 123680, Note_on_c, 0, 62, 26
1, 123720, Tempo, 1138520
1, 123760, Note_on_c, 0, 62, 0
1, 123760, Note_on_c, 0, 57, 27
1, 123780, Note_on_c, 0, 42, 0
1, 123840, Tempo, 1107420
1, 123840, Note_on_c, 0, 57, 0
1, 123840, Note_on_c, 0, 69, 0
1, 123840, Note_on_c, 0, 69, 45
1, 123840, Note_on_c, 0, 32, 28
1, 123840, Control_c, 0, 64, 0
1, 123896, Control_c, 0, 64, 127
1, 123920, Note_on_c, 0, 66, 26
1, 123960, Note_on_c, 0, 32, 0
1, 124000, Note_on_c, 0, 66, 0
1, 124000, Note_on_c, 0, 61, 26
1, 124080, Note_on_c, 0, 61, 0
1, 124080, Note_on_c, 0, 66, 25
1, 124080, Note_on_c, 0, 44, 24
1, 124160, Note_on_c, 0, 66, 0
1, 124160, Note_on_c, 0, 61, 25
1, 124200, Note_on_c, 0, 44, 0
1, 124240, Note_on_c, 0, 61, 0
1, 124240, Note_on_c, 0, 64, 24
1, 124260, Note_on_c, 0, 69, 0
1, 124260, Note_on_c, 0, 68, 43
1, 124313, Note_on_c, 0, 68, 0
1, 124320, Tempo, 1097293
1, 124320, Note_on_c, 0, 64, 0
1, 124320, Note_on_c, 0, 68, 41
1, 124320, Note_on_c, 0, 32, 23
1, 124400, Note_on_c, 0, 64, 24
1, 124440, Note_on_c, 0, 32, 0
1, 124480, Note_on_c, 0, 64, 0
1, 124480, Note_on_c, 0, 61, 24
1, 124560, Note_on_c, 0, 61, 0
1, 124560, Note_on_c, 0, 64, 27
1, 124560, Note_on_c, 0, 44, 22
1, 124640, Tempo, 1097293
1, 124640, Note_on_c, 0, 64, 0
1, 124640, Note_on_c, 0, 61, 25
1, 124720, Note_on_c, 0, 61, 0
1, 124720, Note_on_c, 0, 56, 25
1, 124740, Note_on_c, 0, 44, 0
1, 124800, Tempo, 1107420
1, 124800, Note_on_c, 0, 56, 0
1, 124800, Note_on_c, 0, 32, 25
1, 124880, Note_on_c, 0, 64, 27
1, 124920, Tempo, 1117527
1, 124960, Note_on_c, 0, 64, 0
1, 124960, Note_on_c, 0, 61, 27
1, 124980, Note_on_c, 0, 32, 0
1, 125040, Tempo, 1128032
1, 125040, Note_on_c, 0, 61, 0
1, 125040, Note_on_c, 0, 64, 28
1, 125040, Note_on_c, 0, 44, 23
1, 125120, Note_on_c, 0, 64, 0
1, 125120, Note_on_c, 0, 61, 25
1, 125160, Tempo, 1138520
1, 125200, Note_on_c, 0, 61, 0
1, 125200, Note_on_c, 0, 56, 25
1, 125220, Note_on_c, 0, 44, 0
1, 125280, Tempo, 1171875
1, 125280, Note_on_c, 0, 56, 0
1, 125280, Note_on_c, 0, 68, 0
1, 125280, Note_on_c, 0, 68, 40
1, 125280, Note_on_c, 0, 32, 25
1, 125280, Control_c, 0, 64, 0
1, 125336, Control_c, 0, 64, 127
1, 125360, Note_on_c, 0, 63, 23
1, 125400, Note_on_c, 0, 32, 0
1, 125440, Note_on_c, 0, 63, 0
1, 125440, Note_on_c, 0, 61, 23
1, 125520, Note_on_c, 0, 61, 0
1, 125520, Note_on_c, 0, 63, 23
1, 125520, Note_on_c, 0, 44, 22
1, 125600, Note_on_c, 0, 63, 0
1, 125600, Note_on_c, 0, 61, 22
1, 125640, Note_on_c, 0, 44, 0
1, 125680, Note_on_c, 0, 61, 0
1, 125680, Note_on_c, 0, 56, 22
1, 125760, Tempo, 1149646
1, 125760, Note_on_c, 0, 56, 0
1, 125760, Note_on_c, 0, 32, 22
1, 125840, Tempo, 1160766
1, 125840, Note_on_c, 0, 63, 22
1, 125880, Tempo, 1171875
1, 125880, Note_on_c, 0, 32, 0
1, 125920, Tempo, 1183432
1, 125920, Note_on_c, 0, 63, 0
1, 125920, Note_on_c, 0, 61, 22
1, 126000, Tempo, 1194981
1, 126000, Note_on_c, 0, 61, 0
1, 126000, Note_on_c, 0, 63, 23
1, 126000, Note_on_c, 0, 44, 20
1, 126040, Tempo, 1207001
1, 126080, Tempo, 1219264
1, 126080, Note_on_c, 0, 63, 0
1, 126080, Note_on_c, 0, 61, 22
1, 126160, Tempo, 1231527
1, 126160, Note_on_c, 0, 61, 0
1, 126160, Note_on_c, 0, 56, 22
1, 126180, Note_on_c, 0, 44, 0
1, 126200, Tempo, 1244555
1, 126240, Tempo, 1244555
1, 126240, Note_on_c, 0, 56, 0
1, 126240, Note_on_c, 0, 68, 0
1, 126240, Note_on_c, 0, 68, 37
1, 126240, Note_on_c, 0, 32, 22
1, 126249, Control_c, 0, 64, 0
1, 126280, Tempo, 1257334
1, 126306, Control_c, 0, 64, 127
1, 126320, Tempo, 1283972
1, 126320, Note_on_c, 0, 63, 22
1, 126360, Tempo, 1297859
1, 126400, Tempo, 1326260
1, 126400, Note_on_c, 0, 63, 0
1, 126400, Note_on_c, 0, 60, 22
1, 126420, Note_on_c, 0, 32, 0
1, 126440, Tempo, 1355932
1, 126480, Tempo, 1371742
1, 126480, Note_on_c, 0, 60, 0
1, 126480, Note_on_c, 0, 63, 23
1, 126480, Note_on_c, 0, 44, 20
1, 126520, Tempo, 1403509
1, 126560, Tempo, 1436782
1, 126560, Note_on_c, 0, 63, 0
1, 126560, Note_on_c, 0, 60, 21
1, 126600, Tempo, 1454193
1, 126640, Tempo, 1489943
1, 126640, Note_on_c, 0, 60, 0
1, 126640, Note_on_c, 0, 56, 22
1, 126660, Note_on_c, 0, 44, 0
1, 126680, Tempo, 1527884
1, 126720, Tempo, 1297859
1, 126720, Note_on_c, 0, 56, 0
1, 126720, Note_on_c, 0, 68, 0
1, 126720, Control_c, 0, 64, 0
1, 128160, Key_signature, 4, "major"
1, 128160, Tempo, 1286449
1, 128160, Note_on_c, 0, 64, 33
1, 128160, Note_on_c, 0, 68, 39
1, 128160, Note_on_c, 0, 37, 26
1, 128174, Control_c, 0, 64, 127
1, 128280, Note_on_c, 0, 37, 0
1, 128400, Tempo, 1212366
1, 128400, Note_on_c, 0, 49, 22
1, 128640, Note_on_c, 0, 49, 0
1, 128640, Note_on_c, 0, 61, 27
1, 128880, Tempo, 1290045
1, 128880, Note_on_c, 0, 61, 0
1, 128880, Note_on_c, 0, 73, 26
1, 129120, Tempo, 1273615
1, 129120, Note_on_c, 0, 73, 0
1, 129120, Note_on_c, 0, 68, 0
1, 129120, Note_on_c, 0, 64, 0
1, 129120, Note_on_c, 0, 64, 29
1, 129120, Note_on_c, 0, 68, 34
1, 129148, Control_c, 0, 64, 0
1, 129200, Tempo, 1286449
1, 129240, Tempo, 1299827
1, 129240, Note_on_c, 0, 37, 25
1, 129280, Tempo, 1313198
1, 129300, Note_on_c, 0, 37, 0
1, 129320, Tempo, 1327140
1, 129360, Tempo, 1341082
1, 129360, Note_on_c, 0, 37, 25
1, 129400, Tempo, 1355626
1, 129420, Note_on_c, 0, 37, 0
1, 129440, Tempo, 1370489
1, 129480, Tempo, 1385361
1, 129480, Note_on_c, 0, 36, 25
1, 129520, Tempo, 1400887
1, 129540, Note_on_c, 0, 36, 0
1, 129540, Note_on_c, 0, 68, 0
1, 129540, Note_on_c, 0, 64, 0
1, 129540, Note_on_c, 0, 63, 25
1, 129540, Note_on_c, 0, 66, 30
1, 129597, Note_on_c, 0, 66, 0
1, 129597, Note_on_c, 0, 63, 0
1, 129600, Tempo, 1286449
1, 129600, Note_on_c, 0, 63, 30
1, 129600, Note_on_c, 0, 66, 37
1, 129600, Note_on_c, 0, 37, 26
1, 129646, Control_c, 0, 64, 127
1, 129720, Note_on_c, 0, 37, 0
1, 129840, Tempo, 1223990
1, 129840, Note_on_c, 0, 49, 22
1, 130080, Note_on_c, 0, 49, 0
1, 130080, Note_on_c, 0, 61, 27
1, 130320, Tempo, 1278500
1, 130320, Note_on_c, 0, 61, 0
1, 130320, Note_on_c, 0, 73, 28
1, 130560, Tempo, 1273615
1, 130560, Note_on_c, 0, 73, 0
1, 130560, Note_on_c, 0, 66, 0
1, 130560, Note_on_c, 0, 63, 0
1, 130560, Note_on_c, 0, 63, 31
1, 130560, Note_on_c, 0, 66, 37
1, 130574, Control_c, 0, 64, 0
1, 130640, Tempo, 1286449
1, 130680, Note_on_c, 0, 37, 26
1, 130720, Tempo, 1299827
1, 130740, Note_on_c, 0, 37, 0
1, 130760, Tempo, 1313198
1, 130800, Note_on_c, 0, 37, 26
1, 130840, Tempo, 1327140
1, 130860, Note_on_c, 0, 37, 0
1, 130880, Tempo, 1341082
1, 130920, Note_on_c, 0, 36, 27
1, 130960, Tempo, 1355626
1, 130980, Note_on_c, 0, 36, 0
1, 131000, Tempo, 1370489
1, 131040, Tempo, 1313198
1, 131040, Note_on_c, 0, 66, 0
1, 131040, Note_on_c, 0, 63, 0
1, 131040, Note_on_c, 0, 66, 34
1, 131040, Note_on_c, 0, 69, 41
1, 131040, Note_on_c, 0, 37, 26
1, 131071, Control_c, 0, 64, 127
1, 131160, Note_on_c, 0, 37, 0
1, 131280, Tempo, 1223990
1, 131280, Note_on_c, 0, 49, 22
1, 131520, Note_on_c, 0, 49, 0
1, 131520, Note_on_c, 0, 61, 27
1, 131760, Tempo, 1278500
1, 131760, Note_on_c, 0, 61, 0
1, 131760, Note_on_c, 0, 73, 28
1, 132000, Tempo, 1260769
1, 132000, Note_on_c, 0, 73, 0
1, 132000, Note_on_c, 0, 69, 0
1, 132000, Note_on_c, 0, 66, 0
1, 132000, Note_on_c, 0, 66, 28
1, 132000, Note_on_c, 0, 69, 33
1, 132014, Control_c, 0, 64, 0
1, 132080, Tempo, 1273615
1, 132120, Tempo, 1286449
1, 132120, Note_on_c, 0, 37, 27
1, 132160, Tempo, 1299827
1, 132180, Note_on_c, 0, 37, 0
1, 132200, Tempo, 1313198
1, 132240, Note_on_c, 0, 69, 0
1, 132240, Note_on_c, 0, 66, 0
1, 132240, Note_on_c, 0, 64, 25
1, 132240, Note_on_c, 0, 68, 30
1, 132240, Note_on_c, 0, 37, 26
1, 132280, Tempo, 1327140
1, 132300, Note_on_c, 0, 37, 0
1, 132320, Tempo, 1341082
1, 132360, Tempo, 1355626
1, 132360, Note_on_c, 0, 68, 0
1, 132360, Note_on_c, 0, 64, 0
1, 132360, Note_on_c, 0, 63, 23
1, 132360, Note_on_c, 0, 66, 28
1, 132360, Note_on_c, 0, 36, 26
1, 132400, Tempo, 1370489
1, 132420, Note_on_c, 0, 36, 0
1, 132440, Tempo, 1313198
1, 132480, Tempo, 1299827
1, 132480, Note_on_c, 0, 66, 0
1, 132480, Note_on_c, 0, 63, 0
1, 132480, Note_on_c, 0, 64, 33
1, 132480, Note_on_c, 0, 68, 39
1, 132480, Note_on_c, 0, 37, 26
1, 132511, Control_c, 0, 64, 127
1, 132600, Note_on_c, 0, 37, 0
1, 132720, Tempo, 1223990
1, 132720, Note_on_c, 0, 49, 22
1, 132960, Note_on_c, 0, 49, 0
1, 132960, Note_on_c, 0, 61, 27
1, 133200, Tempo, 1278500
1, 133200, Note_on_c, 0, 61, 0
1, 133200, Note_on_c, 0, 73, 27
1, 133440, Tempo, 1286449
1, 133440, Note_on_c, 0, 73, 0
1, 133440, Note_on_c, 0, 68, 0
1, 133440, Note_on_c, 0, 64, 0
1, 133440, Note_on_c, 0, 64, 29
1, 133440, Note_on_c, 0, 68, 34
1, 133468, Control_c, 0, 64, 0
1, 133520, Tempo, 1299827
1, 133560, Note_on_c, 0, 37, 28
1, 133600, Tempo, 1313198
1, 133620, Note_on_c, 0, 37, 0
1, 133640, Tempo, 1327140
1, 133680, Note_on_c, 0, 37, 27
1, 133720, Tempo, 1341082
1, 133740, Note_on_c, 0, 37, 0
1, 133760, Tempo, 1355626
1, 133800, Note_on_c, 0, 36, 26
1, 133840, Tempo, 1370489
1, 133860, Note_on_c, 0, 36, 0
1, 133880, Tempo, 1385361
1, 133920, Tempo, 1313198
1, 133920, Note_on_c, 0, 68, 0
1, 133920, Note_on_c, 0, 64, 0
1, 133920, Note_on_c, 0, 65, 34
1, 133920, Note_on_c, 0, 71, 41
1, 133920, Note_on_c, 0, 37, 26
1, 133960, Control_c, 0, 64, 127
1, 134040, Note_on_c, 0, 37, 0
1, 134160, Note_on_c, 0, 49, 22
1, 134200, Tempo, 1223990
1, 134400, Note_on_c, 0, 49, 0
1, 134400, Note_on_c, 0, 61, 27
1, 134640, Tempo, 1278500
1, 134640, Note_on_c, 0, 61, 0
1, 134640, Note_on_c, 0, 73, 31
1, 134880, Tempo, 1299827
1, 134880, Note_on_c, 0, 73, 0
1, 134880, Note_on_c, 0, 71, 0
1, 134880, Note_on_c, 0, 65, 0
1, 134880, Note_on_c, 0, 65, 28
1, 134880, Note_on_c, 0, 71, 33
1, 134894, Control_c, 0, 64, 0
1, 134960, Tempo, 1313198
1, 135000, Note_on_c, 0, 65, 0
1, 135000, Note_on_c, 0, 68, 28
1, 135000, Note_on_c, 0, 37, 25
1, 135040, Tempo, 1327140
1, 135060, Note_on_c, 0, 37, 0
1, 135080, Tempo, 1341082
1, 135120, Note_on_c, 0, 68, 0
1, 135120, Note_on_c, 0, 71, 0
1, 135120, Note_on_c, 0, 66, 25
1, 135120, Note_on_c, 0, 69, 30
1, 135120, Note_on_c, 0, 37, 25
1, 135160, Tempo, 1355626
1, 135180, Note_on_c, 0, 37, 0
1, 135200, Tempo, 1370489
1, 135240, Note_on_c, 0, 69, 0
1, 135240, Note_on_c, 0, 66, 0
1, 135240, Note_on_c, 0, 65, 23
1, 135240, Note_on_c, 0, 68, 28
1, 135240, Note_on_c, 0, 36, 26
1, 135280, Tempo, 1385361
1, 135300, Note_on_c, 0, 36, 0
1, 135320, Tempo, 1400887
1, 135360, Tempo, 1313198
1, 135360, Note_on_c, 0, 68, 0
1, 135360, Note_on_c, 0, 65, 0
1, 135360, Note_on_c, 0, 66, 34
1, 135360, Note_on_c, 0, 69, 41
1, 135360, Note_on_c, 0, 37, 26
1, 135394, Control_c, 0, 64, 127
1, 135480, Note_on_c, 0, 37, 0
1, 135600, Note_on_c, 0, 49, 22
1, 135640, Tempo, 1223990
1, 135840, Note_on_c, 0, 49, 0
1, 135840, Note_on_c, 0, 61, 27
1, 136080, Tempo, 1278500
1, 136080, Note_on_c, 0, 61, 0
1, 136080, Note_on_c, 0, 69, 0
1, 136080, Note_on_c, 0, 66, 0
1, 136080, Note_on_c, 0, 66, 23
1, 136080, Note_on_c, 0, 69, 28
1, 136080, Note_on_c, 0, 73, 34
1, 136308, Note_on_c, 0, 73, 0
1, 136308, Note_on_c, 0, 69, 0
1, 136308, Note_on_c, 0, 66, 0
1, 136320, Tempo, 1313198
1, 136320, Note_on_c, 0, 66, 34
1, 136320, Note_on_c, 0, 69, 40
1, 136334, Control_c, 0, 64, 0
1, 136440, Note_on_c, 0, 37, 26
1, 136500, Note_on_c, 0, 37, 0
1, 136548, Note_on_c, 0, 69, 0
1, 136548, Note_on_c, 0, 66, 0
1, 136560, Tempo, 1416431
1, 136560, Note_on_c, 0, 66, 34
1, 136560, Note_on_c, 0, 69, 41
1, 136560, Note_on_c, 0, 37, 26
1, 136620, Note_on_c, 0, 37, 0
1, 136680, Note_on_c, 0, 36, 27
1, 136740, Note_on_c, 0, 36, 0
1, 136788, Note_on_c, 0, 69, 0
1, 136788, Note_on_c, 0, 66, 0
1, 136800, Tempo, 1327140
1, 136800, Note_on_c, 0, 69, 41
1, 136800, Note_on_c, 0, 73, 49
1, 136800, Note_on_c, 0, 37, 31
1, 136826, Control_c, 0, 64, 127
1, 136920, Note_on_c, 0, 37, 0
1, 137040, Tempo, 1223990
1, 137040, Note_on_c, 0, 49, 25
1, 137280, Tempo, 1212366
1, 137280, Note_on_c, 0, 49, 0
1, 137280, Note_on_c, 0, 61, 30
1, 137520, Tempo, 1341082
1, 137520, Note_on_c, 0, 61, 0
1, 137520, Note_on_c, 0, 73, 38
1, 137560, Tempo, 1370489
1, 137760, Tempo, 1260769
1, 137760, Note_on_c, 0, 73, 0
1, 137760, Note_on_c, 0, 73, 0
1, 137760, Note_on_c, 0, 69, 0
1, 137760, Note_on_c, 0, 69, 33
1, 137760, Note_on_c, 0, 73, 39
1, 137774, Control_c, 0, 64, 0
1, 137800, Tempo, 1273615
1, 137840, Tempo, 1286449
1, 137880, Tempo, 1299827
1, 137880, Note_on_c, 0, 37, 26
1, 137920, Tempo, 1313198
1, 137940, Note_on_c, 0, 37, 0
1, 137960, Tempo, 1327140
1, 138000, Tempo, 1341082
1, 138000, Note_on_c, 0, 37, 26
1, 138040, Tempo, 1355626
1, 138060, Note_on_c, 0, 37, 0
1, 138080, Tempo, 1370489
1, 138120, Tempo, 1385361
1, 138120, Note_on_c, 0, 73, 0
1, 138120, Note_on_c, 0, 69, 0
1, 138120, Note_on_c, 0, 66, 23
1, 138120, Note_on_c, 0, 69, 28
1, 138120, Note_on_c, 0, 36, 26
1, 138160, Tempo, 1400887
1, 138180, Note_on_c, 0, 36, 0
1, 138200, Tempo, 1432665
1, 138240, Tempo, 1327140
1, 138240, Note_on_c, 0, 69, 0
1, 138240, Note_on_c, 0, 66, 0
1, 138240, Note_on_c, 0, 64, 30
1, 138240, Note_on_c, 0, 68, 37
1, 138240, Note_on_c, 0, 37, 26
1, 138282, Control_c, 0, 64, 127
1, 138360, Note_on_c, 0, 37, 0
1, 138480, Tempo, 1223990
1, 138480, Note_on_c, 0, 49, 22
1, 138720, Note_on_c, 0, 49, 0
1, 138720, Note_on_c, 0, 61, 27
1, 138960, Tempo, 1278500
1, 138960, Note_on_c, 0, 61, 0
1, 138960, Note_on_c, 0, 73, 28
1, 139200, Tempo, 1286449
1, 139200, Note_on_c, 0, 73, 0
1, 139214, Control_c, 0, 64, 0
1, 139280, Tempo, 1299827
1, 139320, Tempo, 1313198
1, 139320, Note_on_c, 0, 37, 27
1, 139380, Note_on_c, 0, 37, 0
1, 139400, Tempo, 1327140
1, 139440, Tempo, 1341082
1, 139440, Note_on_c, 0, 68, 0
1, 139440, Note_on_c, 0, 64, 0
1, 139440, Note_on_c, 0, 64, 34
1, 139440, Note_on_c, 0, 68, 41
1, 139440, Note_on_c, 0, 37, 27
1, 139480, Tempo, 1355626
1, 139500, Note_on_c, 0, 37, 0
1, 139560, Tempo, 1370489
1, 139560, Note_on_c, 0, 40, 27
1, 139600, Tempo, 1385361
1, 139620, Note_on_c, 0, 40, 0
1, 139640, Tempo, 1400887
1, 139680, Tempo, 1200720
1, 139680, Note_on_c, 0, 68, 0
1, 139680, Note_on_c, 0, 64, 0
1, 139680, Note_on_c, 0, 64, 42
1, 139680, Note_on_c, 0, 69, 42
1, 139680, Note_on_c, 0, 73, 50
1, 139680, Note_on_c, 0, 32, 28
1, 139703, Control_c, 0, 64, 127
1, 139800, Note_on_c, 0, 32, 0
1, 139920, Tempo, 1223990
1, 139920, Note_on_c, 0, 44, 35
1, 140040, Note_on_c, 0, 64, 0
1, 140040, Note_on_c, 0, 73, 0
1, 140040, Note_on_c, 0, 69, 0
1, 140040, Note_on_c, 0, 63, 37
1, 140040, Note_on_c, 0, 68, 37
1, 140040, Note_on_c, 0, 72, 44
1, 140154, Note_on_c, 0, 72, 0
1, 140154, Note_on_c, 0, 68, 0
1, 140154, Note_on_c, 0, 63, 0
1, 140160, Note_on_c, 0, 44, 0
1, 140160, Note_on_c, 0, 63, 42
1, 140160, Note_on_c, 0, 68, 42
1, 140160, Note_on_c, 0, 72, 49
1, 140160, Control_c, 0, 64, 0
1, 140160, Note_on_c, 0, 56, 41
1, 140232, Control_c, 0, 64, 127
1, 140400, Tempo, 1266892
1, 140400, Note_on_c, 0, 56, 0
1, 140400, Note_on_c, 0, 80, 43
1, 140640, Tempo, 1273615
1, 140640, Note_on_c, 0, 80, 0
1, 140654, Control_c, 0, 64, 0
1, 140696, Control_c, 0, 64, 127
1, 140760, Tempo, 1286449
1, 140760, Note_on_c, 0, 32, 31
1, 140820, Note_on_c, 0, 32, 0
1, 140880, Tempo, 1299827
1, 140880, Note_on_c, 0, 63, 0
1, 140880, Note_on_c, 0, 68, 0
1, 140880, Note_on_c, 0, 72, 0
1, 140880, Note_on_c, 0, 68, 45
1, 140880, Note_on_c, 0, 72, 55
1, 140880, Note_on_c, 0, 32, 32
1, 140940, Note_on_c, 0, 32, 0
1, 141000, Tempo, 1313198
1, 141000, Note_on_c, 0, 31, 32
1, 141060, Note_on_c, 0, 31, 0
1, 141080, Tempo, 1327140
1, 141120, Tempo, 1189296
1, 141120, Note_on_c, 0, 72, 0
1, 141120, Note_on_c, 0, 68, 0
1, 141120, Note_on_c, 0, 67, 51
1, 141120, Note_on_c, 0, 73, 51
1, 141120, Note_on_c, 0, 76, 60
1, 141120, Note_on_c, 0, 32, 35
1, 141148, Control_c, 0, 64, 0
1, 141154, Control_c, 0, 64, 127
1, 141240, Note_on_c, 0, 32, 0
1, 141360, Tempo, 1223990
1, 141360, Note_on_c, 0, 44, 43
1, 141480, Note_on_c, 0, 67, 0
1, 141480, Note_on_c, 0, 76, 0
1, 141480, Note_on_c, 0, 73, 0
1, 141480, Note_on_c, 0, 68, 45
1, 141480, Note_on_c, 0, 72, 45
1, 141480, Note_on_c, 0, 75, 53
1, 141594, Note_on_c, 0, 75, 0
1, 141594, Note_on_c, 0, 72, 0
1, 141594, Note_on_c, 0, 68, 0
1, 141600, Note_on_c, 0, 44, 0
1, 141600, Note_on_c, 0, 68, 50
1, 141600, Note_on_c, 0, 72, 50
1, 141600, Note_on_c, 0, 75, 60
1, 141600, Note_on_c, 0, 56, 50
1, 141606, Control_c, 0, 64, 0
1, 141657, Control_c, 0, 64, 127
1, 141840, Tempo, 1278500
1, 141840, Note_on_c, 0, 56, 0
1, 141840, Note_on_c, 0, 80, 53
1, 142080, Note_on_c, 0, 80, 0
1, 142094, Control_c, 0, 64, 0
1, 142136, Control_c, 0, 64, 127
1, 142200, Note_on_c, 0, 32, 35
1, 142260, Note_on_c, 0, 32, 0
1, 142320, Tempo, 1314924
1, 142320, Note_on_c, 0, 68, 0
1, 142320, Note_on_c, 0, 72, 0
1, 142320, Note_on_c, 0, 75, 0
1, 142320, Note_on_c, 0, 68, 52
1, 142320, Note_on_c, 0, 72, 52
1, 142320, Note_on_c, 0, 75, 63
1, 142320, Note_on_c, 0, 32, 35
1, 142380, Note_on_c, 0, 32, 0
1, 142440, Note_on_c, 0, 31, 35
1, 142500, Note_on_c, 0, 31, 0
1, 142560, Tempo, 1232792
1, 142560, Note_on_c, 0, 75, 0
1, 142560, Note_on_c, 0, 72, 0
1, 142560, Note_on_c, 0, 68, 0
1, 142560, Note_on_c, 0, 68, 58
1, 142560, Note_on_c, 0, 76, 58
1, 142560, Note_on_c, 0, 80, 69
1, 142560, Note_on_c, 0, 32, 39
1, 142588, Control_c, 0, 64, 0
1, 142594, Control_c, 0, 64, 127
1, 142680, Note_on_c, 0, 32, 0
1, 142800, Note_on_c, 0, 44, 49
1, 142920, Note_on_c, 0, 68, 0
1, 142920, Note_on_c, 0, 80, 0
1, 142920, Note_on_c, 0, 76, 0
1, 142920, Note_on_c, 0, 69, 52
1, 142920, Note_on_c, 0, 75, 52
1, 142920, Note_on_c, 0, 78, 61
1, 143034, Note_on_c, 0, 78, 0
1, 143034, Note_on_c, 0, 75, 0
1, 143034, Note_on_c, 0, 69, 0
1, 143040, Note_on_c, 0, 44, 0
1, 143040, Note_on_c, 0, 69, 58
1, 143040, Note_on_c, 0, 75, 58
1, 143040, Note_on_c, 0, 78, 69
1, 143040, Note_on_c, 0, 56, 57
1, 143047, Control_c, 0, 64, 0
1, 143092, Control_c, 0, 64, 127
1, 143280, Tempo, 1278500
1, 143280, Note_on_c, 0, 56, 0
1, 143280, Note_on_c, 0, 80, 61
1, 143520, Note_on_c, 0, 80, 0
1, 143534, Control_c, 0, 64, 0
1, 143576, Control_c, 0, 64, 127
1, 143640, Note_on_c, 0, 32, 42
1, 143700, Note_on_c, 0, 32, 0
1, 143760, Tempo, 1363636
1, 143760, Note_on_c, 0, 69, 0
1, 143760, Note_on_c, 0, 75, 0
1, 143760, Note_on_c, 0, 78, 0
1, 143760, Note_on_c, 0, 69, 60
1, 143760, Note_on_c, 0, 75, 60
1, 143760, Note_on_c, 0, 78, 73
1, 143760, Note_on_c, 0, 32, 42
1, 143800, Tempo, 1428571
1, 143820, Note_on_c, 0, 32, 0
1, 143840, Tempo, 1500000
1, 143880, Tempo, 1600000
1, 143880, Note_on_c, 0, 31, 42
1, 143940, Note_on_c, 0, 31, 0
1, 144000, Tempo, 1232792
1, 144000, Note_on_c, 0, 78, 0
1, 144000, Note_on_c, 0, 75, 0
1, 144000, Note_on_c, 0, 69, 0
1, 144000, Note_on_c, 0, 73, 68
1, 144000, Note_on_c, 0, 76, 68
1, 144000, Note_on_c, 0, 81, 80
1, 144000, Control_c, 0, 64, 0
1, 144000, Note_on_c, 0, 32, 46
1, 144031, Control_c, 0, 64, 127
1, 144120, Note_on_c, 0, 32, 0
1, 144240, Note_on_c, 0, 44, 52
1, 144360, Note_on_c, 0, 73, 0
1, 144360, Note_on_c, 0, 81, 0
1, 144360, Note_on_c, 0, 76, 0
1, 144360, Note_on_c, 0, 72, 60
1, 144360, Note_on_c, 0, 75, 60
1, 144360, Note_on_c, 0, 80, 70
1, 144474, Note_on_c, 0, 80, 0
1, 144474, Note_on_c, 0, 75, 0
1, 144474, Note_on_c, 0, 72, 0
1, 144480, Note_on_c, 0, 44, 0
1, 144480, Note_on_c, 0, 72, 67
1, 144480, Note_on_c, 0, 75, 67
1, 144480, Note_on_c, 0, 80, 79
1, 144480, Note_on_c, 0, 56, 60
1, 144495, Control_c, 0, 64, 0
1, 144546, Control_c, 0, 64, 127
1, 144720, Tempo, 1266892
1, 144720, Note_on_c, 0, 56, 0
1, 144720, Note_on_c, 0, 68, 59
1, 144840, Note_on_c, 0, 68, 0
1, 144960, Tempo, 1299827
1, 145080, Note_on_c, 0, 32, 36
1, 145091, Control_c, 0, 64, 0
1, 145109, Control_c, 0, 64, 127
1, 145140, Note_on_c, 0, 32, 0
1, 145200, Note_on_c, 0, 32, 36
1, 145260, Note_on_c, 0, 32, 0
1, 145320, Note_on_c, 0, 31, 36
1, 145380, Note_on_c, 0, 31, 0
1, 145440, Control_c, 0, 64, 0
1, 145440, Note_on_c, 0, 32, 36
1, 145480, Tempo, 1244039
1, 145539, Control_c, 0, 64, 127
1, 145560, Note_on_c, 0, 32, 0
1, 145680, Note_on_c, 0, 44, 38
1, 145920, Note_on_c, 0, 44, 0
1, 145920, Note_on_c, 0, 56, 41
1, 146160, Tempo, 1290045
1, 146160, Note_on_c, 0, 56, 0
1, 146160, Note_on_c, 0, 68, 38
1, 146280, Note_on_c, 0, 68, 0
1, 146400, Tempo, 1341082
1, 146880, Tempo, 1232792
1, 146880, Note_on_c, 0, 72, 0
1, 146880, Note_on_c, 0, 75, 0
1, 146880, Note_on_c, 0, 80, 0
1, 146880, Note_on_c, 0, 72, 34
1, 146880, Note_on_c, 0, 76, 34
1, 146880, Note_on_c, 0, 79, 41
1, 146880, Control_c, 0, 64, 0
1, 146880, Note_on_c, 0, 36, 26
1, 146954, Control_c, 0, 64, 127
1, 147120, Note_on_c, 0, 36, 0
1, 147120, Note_on_c, 0, 48, 22
1, 147360, Note_on_c, 0, 48, 0
1, 147360, Note_on_c, 0, 60, 24
1, 147600, Tempo, 1278500
1, 147600, Note_on_c, 0, 60, 0
1, 147600, Note_on_c, 0, 64, 25
1, 147720, Note_on_c, 0, 64, 0
1, 147840, Tempo, 1327140
1, 147854, Control_c, 0, 64, 0
1, 147960, Tempo, 1341082
1, 147960, Note_on_c, 0, 36, 25
1, 148020, Note_on_c, 0, 36, 0
1, 148040, Tempo, 1355626
1, 148080, Note_on_c, 0, 72, 0
1, 148080, Note_on_c, 0, 76, 0
1, 148080, Note_on_c, 0, 79, 0
1, 148080, Note_on_c, 0, 72, 30
1, 148080, Note_on_c, 0, 79, 30
1, 148080, Note_on_c, 0, 84, 37
1, 148080, Note_on_c, 0, 38, 25
1, 148120, Tempo, 1370489
1, 148140, Note_on_c, 0, 38, 0
1, 148200, Tempo, 1385361
1, 148200, Note_on_c, 0, 40, 25
1, 148260, Note_on_c, 0, 40, 0
1, 148280, Tempo, 1400887
1, 148320, Tempo, 1232792
1, 148320, Note_on_c, 0, 84, 0
1, 148320, Note_on_c, 0, 79, 0
1, 148320, Note_on_c, 0, 72, 0
1, 148320, Note_on_c, 0, 72, 34
1, 148320, Note_on_c, 0, 77, 34
1, 148320, Note_on_c, 0, 83, 41
1, 148320, Note_on_c, 0, 29, 26
1, 148394, Control_c, 0, 64, 127
1, 148560, Note_on_c, 0, 29, 0
1, 148560, Note_on_c, 0, 41, 22
1, 148680, Note_on_c, 0, 83, 0
1, 148680, Note_on_c, 0, 81, 41
1, 148794, Note_on_c, 0, 81, 0
1, 148800, Note_on_c, 0, 41, 0
1, 148800, Note_on_c, 0, 77, 0
1, 148800, Note_on_c, 0, 72, 0
1, 148800, Note_on_c, 0, 72, 34
1, 148800, Note_on_c, 0, 77, 34
1, 148800, Note_on_c, 0, 81, 41
1, 148800, Note_on_c, 0, 53, 26
1, 149040, Tempo, 1278500
1, 149040, Note_on_c, 0, 53, 0
1, 149040, Note_on_c, 0, 65, 25
1, 149160, Note_on_c, 0, 65, 0
1, 149280, Tempo, 1260769
1, 149294, Control_c, 0, 64, 0
1, 149360, Tempo, 1273615
1, 149400, Tempo, 1286449
1, 149400, Note_on_c, 0, 38, 25
1, 149460, Note_on_c, 0, 38, 0
1, 149480, Tempo, 1299827
1, 149520, Tempo, 1313198
1, 149520, Note_on_c, 0, 72, 0
1, 149520, Note_on_c, 0, 77, 0
1, 149520, Note_on_c, 0, 81, 0
1, 149520, Note_on_c, 0, 81, 36
1, 149520, Note_on_c, 0, 72, 30
1, 149520, Note_on_c, 0, 76, 30
1, 149520, Note_on_c, 0, 40, 25
1, 149580, Note_on_c, 0, 40, 0
1, 149600, Tempo, 1327140
1, 149640, Tempo, 1341082
1, 149640, Note_on_c, 0, 41, 25
1, 149680, Tempo, 1355626
1, 149700, Note_on_c, 0, 41, 0
1, 149720, Tempo, 1400887
1, 149760, Tempo, 1232792
1, 149760, Note_on_c, 0, 76, 0
1, 149760, Note_on_c, 0, 72, 0
1, 149760, Note_on_c, 0, 81, 0
1, 149760, Note_on_c, 0, 72, 34
1, 149760, Note_on_c, 0, 74, 34
1, 149760, Note_on_c, 0, 81, 41
1, 149760, Note_on_c, 0, 31, 26
1, 149834, Control_c, 0, 64, 127
1, 150000, Note_on_c, 0, 31, 0
1, 150000, Note_on_c, 0, 43, 22
1, 150120, Note_on_c, 0, 81, 0
1, 150120, Note_on_c, 0, 72, 0
1, 150120, Note_on_c, 0, 71, 38
1, 150120, Note_on_c, 0, 79, 41
1, 150234, Note_on_c, 0, 79, 0
1, 150234, Note_on_c, 0, 71, 0
1, 150240, Note_on_c, 0, 74, 0
1, 150240, Note_on_c, 0, 43, 0
1, 150240, Note_on_c, 0, 71, 34
1, 150240, Note_on_c, 0, 74, 34
1, 150240, Note_on_c, 0, 79, 41
1, 150240, Note_on_c, 0, 55, 27
1, 150480, Tempo, 1278500
1, 150480, Note_on_c, 0, 55, 0
1, 150480, Note_on_c, 0, 67, 28
1, 150600, Note_on_c, 0, 67, 0
1, 150720, Tempo, 1273615
1, 150734, Control_c, 0, 64, 0
1, 150800, Tempo, 1286449
1, 150840, Note_on_c, 0, 31, 25
1, 150880, Tempo, 1299827
1, 150900, Note_on_c, 0, 31, 0
1, 150920, Tempo, 1313198
1, 150960, Note_on_c, 0, 71, 0
1, 150960, Note_on_c, 0, 74, 0
1, 150960, Note_on_c, 0, 79, 0
1, 150960, Note_on_c, 0, 69, 28
1, 150960, Note_on_c, 0, 72, 28
1, 150960, Note_on_c, 0, 77, 34
1, 150960, Note_on_c, 0, 33, 25
1, 151000, Tempo, 1327140
1, 151020, Note_on_c, 0, 33, 0
1, 151040, Tempo, 1341082
1, 151080, Note_on_c, 0, 35, 25
1, 151120, Tempo, 1355626
1, 151140, Note_on_c, 0, 35, 0
1, 151160, Tempo, 1370489
1, 151200, Tempo, 1232792
1, 151200, Note_on_c, 0, 77, 0
1, 151200, Note_on_c, 0, 72, 0
1, 151200, Note_on_c, 0, 69, 0
1, 151200, Note_on_c, 0, 67, 28
1, 151200, Note_on_c, 0, 72, 28
1, 151200, Note_on_c, 0, 76, 34
1, 151200, Note_on_c, 0, 36, 26
1, 151235, Control_c, 0, 64, 127
1, 151440, Tempo, 1278500
1, 151440, Note_on_c, 0, 36, 0
1, 151440, Note_on_c, 0, 48, 22
1, 151680, Note_on_c, 0, 48, 0
1, 151680, Note_on_c, 0, 76, 0
1, 151680, Note_on_c, 0, 72, 0
1, 151680, Note_on_c, 0, 67, 0
1, 151680, Note_on_c, 0, 64, 25
1, 151680, Note_on_c, 0, 67, 25
1, 151680, Note_on_c, 0, 72, 30
1, 151680, Note_on_c, 0, 60, 27
1, 151920, Note_on_c, 0, 60, 0
1, 151920, Note_on_c, 0, 84, 29
1, 152040, Note_on_c, 0, 84, 0
1, 152160, Tempo, 1286449
1, 152197, Control_c, 0, 64, 0
1, 152280, Note_on_c, 0, 36, 25
1, 152320, Tempo, 1299827
1, 152340, Note_on_c, 0, 36, 0
1, 152400, Note_on_c, 0, 36, 25
1, 152460, Note_on_c, 0, 36, 0
1, 152480, Tempo, 1313198
1, 152520, Note_on_c, 0, 38, 25
1, 152580, Note_on_c, 0, 38, 0
1, 152600, Tempo, 1327140
1, 152640, Tempo, 1232792
1, 152640, Note_on_c, 0, 64, 0
1, 152640, Note_on_c, 0, 67, 0
1, 152640, Note_on_c, 0, 72, 0
1, 152640, Note_on_c, 0, 60, 33
1, 152640, Note_on_c, 0, 64, 39
1, 152640, Note_on_c, 0, 36, 26
1, 152711, Control_c, 0, 64, 127
1, 152880, Note_on_c, 0, 36, 0
1, 152880, Note_on_c, 0, 55, 22
1, 153120, Note_on_c, 0, 55, 0
1, 153120, Note_on_c, 0, 67, 27
1, 153360, Tempo, 1313198
1, 153360, Note_on_c, 0, 67, 0
1, 153360, Note_on_c, 0, 79, 28
1, 153480, Note_on_c, 0, 79, 0
1, 153600, Tempo, 1299827
1, 153600, Note_on_c, 0, 64, 0
1, 153600, Note_on_c, 0, 60, 0
1, 153600, Note_on_c, 0, 60, 29
1, 153600, Note_on_c, 0, 64, 34
1, 153628, Control_c, 0, 64, 0
1, 153720, Tempo, 1313198
1, 153720, Note_on_c, 0, 36, 25
1, 153780, Note_on_c, 0, 36, 0
1, 153840, Tempo, 1327140
1, 153840, Note_on_c, 0, 36, 25
1, 153900, Note_on_c, 0, 36, 0
1, 153960, Tempo, 1341082
1, 153960, Note_on_c, 0, 64, 0
1, 153960, Note_on_c, 0, 60, 0
1, 153960, Note_on_c, 0, 59, 28
1, 153960, Note_on_c, 0, 62, 34
1, 153960, Note_on_c, 0, 38, 25
1, 154020, Note_on_c, 0, 38, 0
1, 154040, Tempo, 1355626
1, 154074, Note_on_c, 0, 62, 0
1, 154074, Note_on_c, 0, 59, 0
1, 154080, Tempo, 1232792
1, 154080, Note_on_c, 0, 59, 34
1, 154080, Note_on_c, 0, 62, 41
1, 154080, Note_on_c, 0, 36, 26
1, 154154, Control_c, 0, 64, 127
1, 154320, Note_on_c, 0, 36, 0
1, 154320, Note_on_c, 0, 55, 22
1, 154560, Note_on_c, 0, 55, 0
1, 154560, Note_on_c, 0, 67, 27
1, 154800, Tempo, 1299827
1, 154800, Note_on_c, 0, 67, 0
1, 154800, Note_on_c, 0, 79, 28
1, 154920, Note_on_c, 0, 79, 0
1, 155040, Tempo, 1286449
1, 155040, Note_on_c, 0, 62, 0
1, 155040, Note_on_c, 0, 59, 0
1, 155040, Note_on_c, 0, 59, 31
1, 155040, Note_on_c, 0, 62, 37
1, 155054, Control_c, 0, 64, 0
1, 155120, Tempo, 1299827
1, 155160, Note_on_c, 0, 36, 25
1, 155200, Tempo, 1313198
1, 155220, Note_on_c, 0, 36, 0
1, 155280, Tempo, 1327140
1, 155280, Note_on_c, 0, 36, 25
1, 155340, Note_on_c, 0, 36, 0
1, 155360, Tempo, 1341082
1, 155400, Note_on_c, 0, 38, 25
1, 155440, Tempo, 1355626
1, 155460, Note_on_c, 0, 38, 0
1, 155480, Tempo, 1370489
1, 155520, Tempo, 1232792
1, 155520, Note_on_c, 0, 62, 0
1, 155520, Note_on_c, 0, 59, 0
1, 155520, Note_on_c, 0, 57, 34
1, 155520, Note_on_c, 0, 65, 41
1, 155520, Note_on_c, 0, 36, 26
1, 155594, Control_c, 0, 64, 127
1, 155760, Note_on_c, 0, 36, 0
1, 155760, Note_on_c, 0, 55, 22
1, 156000, Note_on_c, 0, 55, 0
1, 156000, Note_on_c, 0, 67, 27
1, 156240, Tempo, 1278500
1, 156240, Note_on_c, 0, 67, 0
1, 156240, Note_on_c, 0, 79, 28
1, 156360, Note_on_c, 0, 79, 0
1, 156480, Tempo, 1286449
1, 156480, Note_on_c, 0, 65, 0
1, 156480, Note_on_c, 0, 57, 0
1, 156480, Note_on_c, 0, 59, 28
1, 156480, Note_on_c, 0, 65, 33
1, 156494, Control_c, 0, 64, 0
1, 156600, Tempo, 1299827
1, 156600, Note_on_c, 0, 59, 0
1, 156600, Note_on_c, 0, 62, 24
1, 156600, Note_on_c, 0, 36, 25
1, 156660, Note_on_c, 0, 36, 0
1, 156680, Tempo, 1313198
1, 156720, Note_on_c, 0, 62, 0
1, 156720, Note_on_c, 0, 65, 0
1, 156720, Note_on_c, 0, 60, 25
1, 156720, Note_on_c, 0, 64, 30
1, 156720, Note_on_c, 0, 36, 25
1, 156760, Tempo, 1327140
1, 156780, Note_on_c, 0, 36, 0
1, 156840, Tempo, 1341082
1, 156840, Note_on_c, 0, 64, 0
1, 156840, Note_on_c, 0, 60, 0
1, 156840, Note_on_c, 0, 59, 23
1, 156840, Note_on_c, 0, 62, 28
1, 156840, Note_on_c, 0, 38, 25
1, 156900, Note_on_c, 0, 38, 0
1, 156920, Tempo, 1355626
1, 156960, Tempo, 1232792
1, 156960, Note_on_c, 0, 62, 0
1, 156960, Note_on_c, 0, 59, 0
1, 156960, Note_on_c, 0, 60, 33
1, 156960, Note_on_c, 0, 64, 39
1, 156960, Note_on_c, 0, 36, 26
1, 157013, Control_c, 0, 64, 127
1, 157200, Note_on_c, 0, 36, 0
1, 157200, Note_on_c, 0, 55, 22
1, 157440, Note_on_c, 0, 55, 0
1, 157440, Note_on_c, 0, 67, 27
1, 157680, Tempo, 1278500
1, 157680, Note_on_c, 0, 67, 0
1, 157680, Note_on_c, 0, 64, 0
1, 157680, Note_on_c, 0, 60, 0
1, 157680, Note_on_c, 0, 60, 29
1, 157680, Note_on_c, 0, 64, 35
1, 157680, Note_on_c, 0, 79, 29
1, 157800, Note_on_c, 0, 79, 0
1, 157800, Note_on_c, 0, 64, 0
1, 157800, Note_on_c, 0, 60, 0
1, 157920, Tempo, 1286449
1, 157920, Note_on_c, 0, 59, 29
1, 157920, Note_on_c, 0, 64, 35
1, 157948, Control_c, 0, 64, 0
1, 158040, Tempo, 1299827
1, 158040, Note_on_c, 0, 64, 0
1, 158040, Note_on_c, 0, 59, 0
1, 158040, Note_on_c, 0, 36, 25
1, 158100, Note_on_c, 0, 36, 0
1, 158160, Tempo, 1313198
1, 158160, Note_on_c, 0, 58, 29
1, 158160, Note_on_c, 0, 66, 35
1, 158160, Note_on_c, 0, 36, 25
1, 158220, Note_on_c, 0, 36, 0
1, 158280, Tempo, 1327140
1, 158280, Note_on_c, 0, 66, 0
1, 158280, Note_on_c, 0, 58, 0
1, 158280, Note_on_c, 0, 38, 25
1, 158340, Note_on_c, 0, 38, 0
1, 158360, Tempo, 1341082
1, 158400, Tempo, 1299827
1, 158400, Note_on_c, 0, 59, 33
1, 158400, Note_on_c, 0, 68, 39
1, 158400, Note_on_c, 0, 35, 26
1, 158471, Control_c, 0, 64, 127
1, 158640, Note_on_c, 0, 35, 0
1, 158640, Note_on_c, 0, 59, 0
1, 158640, Note_on_c, 0, 64, 33
1, 158640, Note_on_c, 0, 47, 22
1, 158680, Tempo, 1212366
1, 158880, Note_on_c, 0, 47, 0
1, 158880, Note_on_c, 0, 59, 27
1, 159120, Tempo, 1290045
1, 159120, Note_on_c, 0, 59, 0
1, 159120, Note_on_c, 0, 71, 27
1, 159240, Note_on_c, 0, 71, 0
1, 159360, Tempo, 1299827
1, 159360, Note_on_c, 0, 64, 0
1, 159360, Note_on_c, 0, 68, 0
1, 159360, Note_on_c, 0, 64, 29
1, 159360, Note_on_c, 0, 68, 34
1, 159388, Control_c, 0, 64, 0
1, 159480, Tempo, 1313198
1, 159480, Note_on_c, 0, 35, 25
1, 159540, Note_on_c, 0, 35, 0
1, 159600, Tempo, 1327140
1, 159600, Note_on_c, 0, 35, 25
1, 159660, Note_on_c, 0, 35, 0
1, 159720, Tempo, 1341082
1, 159720, Note_on_c, 0, 68, 0
1, 159720, Note_on_c, 0, 64, 0
1, 159720, Note_on_c, 0, 63, 28
1, 159720, Note_on_c, 0, 66, 34
1, 159720, Note_on_c, 0, 37, 25
1, 159780, Note_on_c, 0, 37, 0
1, 159800, Tempo, 1355626
1, 159834, Note_on_c, 0, 66, 0
1, 159834, Note_on_c, 0, 63, 0
1, 159840, Tempo, 1232792
1, 159840, Note_on_c, 0, 63, 34
1, 159840, Note_on_c, 0, 66, 41
1, 159840, Note_on_c, 0, 35, 26
1, 159875, Control_c, 0, 64, 127
1, 159960, Note_on_c, 0, 35, 0
1, 160080, Note_on_c, 0, 47, 22
1, 160320, Note_on_c, 0, 47, 0
1, 160320, Note_on_c, 0, 59, 27
1, 160560, Tempo, 1278500
1, 160560, Note_on_c, 0, 59, 0
1, 160560, Note_on_c, 0, 71, 27
1, 160680, Note_on_c, 0, 71, 0
1, 160800, Tempo, 1286449
1, 160800, Note_on_c, 0, 66, 0
1, 160800, Note_on_c, 0, 63, 0
1, 160800, Note_on_c, 0, 63, 31
1, 160800, Note_on_c, 0, 66, 37
1, 160814, Control_c, 0, 64, 0
1, 160880, Tempo, 1299827
1, 160920, Note_on_c, 0, 35, 25
1, 160960, Tempo, 1313198
1, 160980, Note_on_c, 0, 35, 0
1, 161040, Tempo, 1327140
1, 161040, Note_on_c, 0, 35, 25
1, 161100, Note_on_c, 0, 35, 0
1, 161120, Tempo, 1341082
1, 161160, Note_on_c, 0, 37, 25
1, 161200, Tempo, 1355626
1, 161220, Note_on_c, 0, 37, 0
1, 161240, Tempo, 1370489
1, 161280, Tempo, 1232792
1, 161280, Note_on_c, 0, 66, 0
1, 161280, Note_on_c, 0, 63, 0
1, 161280, Note_on_c, 0, 61, 34
1, 161280, Note_on_c, 0, 69, 41
1, 161280, Note_on_c, 0, 35, 26
1, 161354, Control_c, 0, 64, 127
1, 161400, Note_on_c, 0, 35, 0
1, 161520, Note_on_c, 0, 47, 22
1, 161760, Note_on_c, 0, 47, 0
1, 161760, Note_on_c, 0, 59, 27
1, 162000, Tempo, 1278500
1, 162000, Note_on_c, 0, 59, 0
1, 162000, Note_on_c, 0, 71, 28
1, 162120, Note_on_c, 0, 71, 0
1, 162240, Note_on_c, 0, 69, 0
1, 162240, Note_on_c, 0, 61, 0
1, 162240, Note_on_c, 0, 63, 28
1, 162240, Note_on_c, 0, 69, 33
1, 162254, Control_c, 0, 64, 0
1, 162280, Tempo, 1273615
1, 162360, Note_on_c, 0, 63, 0
1, 162360, Note_on_c, 0, 66, 24
1, 162360, Note_on_c, 0, 35, 25
1, 162400, Tempo, 1286449
1, 162420, Note_on_c, 0, 35, 0
1, 162480, Tempo, 1299827
1, 162480, Note_on_c, 0, 66, 0
1, 162480, Note_on_c, 0, 69, 0
1, 162480, Note_on_c, 0, 64, 25
1, 162480, Note_on_c, 0, 68, 30
1, 162480, Note_on_c, 0, 35, 25
1, 162540, Note_on_c, 0, 35, 0
1, 162600, Tempo, 1313198
1, 162600, Note_on_c, 0, 68, 0
1, 162600, Note_on_c, 0, 64, 0
1, 162600, Note_on_c, 0, 63, 23
1, 162600, Note_on_c, 0, 66, 28
1, 162600, Note_on_c, 0, 37, 25
1, 162660, Note_on_c, 0, 37, 0
1, 162680, Tempo, 1327140
1, 162720, Tempo, 1232792
1, 162720, Note_on_c, 0, 66, 0
1, 162720, Note_on_c, 0, 63, 0
1, 162720, Note_on_c, 0, 64, 33
1, 162720, Note_on_c, 0, 68, 39
1, 162720, Note_on_c, 0, 35, 26
1, 162773, Control_c, 0, 64, 127
1, 162840, Note_on_c, 0, 35, 0
1, 162960, Note_on_c, 0, 47, 22
1, 163200, Note_on_c, 0, 47, 0
1, 163200, Note_on_c, 0, 59, 27
1, 163440, Tempo, 1278500
1, 163440, Note_on_c, 0, 59, 0
1, 163440, Note_on_c, 0, 71, 28
1, 163560, Note_on_c, 0, 71, 0
1, 163708, Control_c, 0, 64, 0
1, 163800, Note_on_c, 0, 35, 26
1, 163860, Note_on_c, 0, 35, 0
1, 163920, Note_on_c, 0, 68, 0
1, 163920, Note_on_c, 0, 64, 0
1, 163920, Note_on_c, 0, 68, 30
1, 163920, Note_on_c, 0, 71, 37
1, 163920, Note_on_c, 0, 35, 26
1, 163980, Note_on_c, 0, 35, 0
1, 164040, Note_on_c, 0, 37, 26
1, 164100, Note_on_c, 0, 37, 0
1, 164160, Tempo, 1232792
1, 164160, Note_on_c, 0, 71, 0
1, 164160, Note_on_c, 0, 68, 0
1, 164160, Note_on_c, 0, 68, 44
1, 164160, Note_on_c, 0, 71, 44
1, 164160, Note_on_c, 0, 76, 51
1, 164160, Note_on_c, 0, 35, 29
1, 164188, Control_c, 0, 64, 0
1, 164234, Control_c, 0, 64, 127
1, 164280, Note_on_c, 0, 35, 0
1, 164400, Note_on_c, 0, 47, 37
1, 164520, Note_on_c, 0, 68, 0
1, 164520, Note_on_c, 0, 76, 0
1, 164520, Note_on_c, 0, 71, 0
1, 164520, Note_on_c, 0, 66, 39
1, 164520, Note_on_c, 0, 71, 39
1, 164520, Note_on_c, 0, 75, 47
1, 164634, Note_on_c, 0, 75, 0
1, 164634, Note_on_c, 0, 71, 0
1, 164634, Note_on_c, 0, 66, 0
1, 164640, Note_on_c, 0, 47, 0
1, 164640, Note_on_c, 0, 66, 44
1, 164640, Note_on_c, 0, 71, 44
1, 164640, Note_on_c, 0, 75, 53
1, 164640, Note_on_c, 0, 59, 43
1, 164880, Tempo, 1266892
1, 164880, Note_on_c, 0, 59, 0
1, 164880, Note_on_c, 0, 83, 46
1, 165120, Tempo, 1260769
1, 165120, Note_on_c, 0, 83, 0
1, 165134, Control_c, 0, 64, 0
1, 165200, Tempo, 1273615
1, 165240, Note_on_c, 0, 35, 32
1, 165280, Tempo, 1286449
1, 165300, Note_on_c, 0, 35, 0
1, 165360, Tempo, 1299827
1, 165360, Note_on_c, 0, 66, 0
1, 165360, Note_on_c, 0, 71, 0
1, 165360, Note_on_c, 0, 75, 0
1, 165360, Note_on_c, 0, 66, 49
1, 165360, Note_on_c, 0, 71, 49
1, 165360, Note_on_c, 0, 75, 60
1, 165360, Note_on_c, 0, 35, 33
1, 165420, Note_on_c, 0, 35, 0
1, 165440, Tempo, 1313198
1, 165480, Note_on_c, 0, 37, 33
1, 165520, Tempo, 1327140
1, 165540, Note_on_c, 0, 37, 0
1, 165560, Tempo, 1341082
1, 165600, Tempo, 1232792
1, 165600, Note_on_c, 0, 75, 0
1, 165600, Note_on_c, 0, 71, 0
1, 165600, Note_on_c, 0, 66, 0
1, 165600, Note_on_c, 0, 71, 55
1, 165600, Note_on_c, 0, 76, 55
1, 165600, Note_on_c, 0, 80, 65
1, 165600, Note_on_c, 0, 35, 37
1, 165674, Control_c, 0, 64, 127
1, 165720, Note_on_c, 0, 35, 0
1, 165840, Note_on_c, 0, 47, 47
1, 165960, Note_on_c, 0, 80, 0
1, 165960, Note_on_c, 0, 76, 0
1, 165960, Note_on_c, 0, 75, 50
1, 165960, Note_on_c, 0, 78, 59
1, 166074, Note_on_c, 0, 78, 0
1, 166074, Note_on_c, 0, 75, 0
1, 166080, Note_on_c, 0, 71, 0
1, 166080, Note_on_c, 0, 47, 0
1, 166080, Note_on_c, 0, 71, 57
1, 166080, Note_on_c, 0, 75, 57
1, 166080, Note_on_c, 0, 78, 67
1, 166080, Note_on_c, 0, 59, 56
1, 166320, Tempo, 1278500
1, 166320, Note_on_c, 0, 59, 0
1, 166320, Note_on_c, 0, 83, 60
1, 166560, Note_on_c, 0, 83, 0
1, 166574, Control_c, 0, 64, 0
1, 166680, Note_on_c, 0, 35, 40
1, 166740, Note_on_c, 0, 35, 0
1, 166800, Tempo, 1348315
1, 166800, Note_on_c, 0, 71, 0
1, 166800, Note_on_c, 0, 75, 0
1, 166800, Note_on_c, 0, 78, 0
1, 166800, Note_on_c, 0, 71, 59
1, 166800, Note_on_c, 0, 76, 59
1, 166800, Note_on_c, 0, 80, 72
1, 166800, Note_on_c, 0, 35, 41
1, 166860, Note_on_c, 0, 35, 0
1, 166920, Note_on_c, 0, 37, 43
1, 166980, Note_on_c, 0, 37, 0
1, 167040, Tempo, 1232792
1, 167040, Note_on_c, 0, 80, 0
1, 167040, Note_on_c, 0, 76, 0
1, 167040, Note_on_c, 0, 71, 0
1, 167040, Note_on_c, 0, 76, 68
1, 167040, Note_on_c, 0, 80, 68
1, 167040, Note_on_c, 0, 85, 80
1, 167040, Note_on_c, 0, 35, 46
1, 167075, Control_c, 0, 64, 127
1, 167160, Note_on_c, 0, 35, 0
1, 167280, Note_on_c, 0, 47, 52
1, 167400, Note_on_c, 0, 76, 0
1, 167400, Note_on_c, 0, 85, 0
1, 167400, Note_on_c, 0, 80, 0
1, 167400, Note_on_c, 0, 75, 60
1, 167400, Note_on_c, 0, 78, 60
1, 167400, Note_on_c, 0, 83, 70
1, 167514, Note_on_c, 0, 83, 0
1, 167514, Note_on_c, 0, 78, 0
1, 167514, Note_on_c, 0, 75, 0
1, 167520, Note_on_c, 0, 47, 0
1, 167520, Note_on_c, 0, 75, 67
1, 167520, Note_on_c, 0, 78, 67
1, 167520, Note_on_c, 0, 83, 79
1, 167520, Note_on_c, 0, 59, 60
1, 167760, Tempo, 1266892
1, 167760, Note_on_c, 0, 59, 0
1, 167760, Note_on_c, 0, 71, 59
1, 168000, Tempo, 1286449
1, 168000, Note_on_c, 0, 71, 0
1, 168109, Control_c, 0, 64, 0
1, 168120, Note_on_c, 0, 35, 33
1, 168160, Tempo, 1299827
1, 168180, Note_on_c, 0, 35, 0
1, 168240, Note_on_c, 0, 35, 32
1, 168300, Note_on_c, 0, 35, 0
1, 168320, Tempo, 1313198
1, 168360, Note_on_c, 0, 37, 33
1, 168420, Note_on_c, 0, 37, 0
1, 168440, Tempo, 1327140
1, 168480, Note_on_c, 0, 35, 34
1, 168520, Tempo, 1244039
1, 168544, Control_c, 0, 64, 127
1, 168600, Note_on_c, 0, 35, 0
1, 168720, Note_on_c, 0, 47, 30
1, 168960, Note_on_c, 0, 47, 0
1, 168960, Note_on_c, 0, 59, 31
1, 169200, Tempo, 1290045
1, 169200, Note_on_c, 0, 59, 0
1, 169200, Note_on_c, 0, 71, 33
1, 169440, Note_on_c, 0, 71, 0
1, 169680, Note_on_c, 0, 83, 0
1, 169680, Note_on_c, 0, 81, 42
1, 169751, Control_c, 0, 64, 0
1, 169920, Tempo, 1232792
1, 169920, Note_on_c, 0, 81, 0
1, 169920, Note_on_c, 0, 78, 0
1, 169920, Note_on_c, 0, 75, 0
1, 169920, Note_on_c, 0, 68, 34
1, 169920, Note_on_c, 0, 76, 34
1, 169920, Note_on_c, 0, 80, 41
1, 169920, Note_on_c, 0, 37, 26
1, 169959, Control_c, 0, 64, 127
1, 170040, Note_on_c, 0, 37, 0
1, 170160, Note_on_c, 0, 49, 22
1, 170400, Note_on_c, 0, 49, 0
1, 170400, Note_on_c, 0, 61, 26
1, 170640, Tempo, 1278500
1, 170640, Note_on_c, 0, 61, 0
1, 170640, Note_on_c, 0, 73, 31
1, 170880, Tempo, 1299827
1, 170880, Note_on_c, 0, 73, 0
1, 170894, Control_c, 0, 64, 0
1, 171000, Note_on_c, 0, 37, 25
1, 171040, Tempo, 1313198
1, 171060, Note_on_c, 0, 37, 0
1, 171120, Note_on_c, 0, 68, 0
1, 171120, Note_on_c, 0, 76, 0
1, 171120, Note_on_c, 0, 80, 0
1, 171120, Note_on_c, 0, 68, 30
1, 171120, Note_on_c, 0, 73, 30
1, 171120, Note_on_c, 0, 76, 37
1, 171120, Note_on_c, 0, 39, 25
1, 171180, Note_on_c, 0, 39, 0
1, 171200, Tempo, 1327140
1, 171240, Note_on_c, 0, 40, 25
1, 171300, Note_on_c, 0, 40, 0
1, 171320, Tempo, 1341082
1, 171360, Tempo, 1232792
1, 171360, Note_on_c, 0, 76, 0
1, 171360, Note_on_c, 0, 73, 0
1, 171360, Note_on_c, 0, 68, 0
1, 171360, Note_on_c, 0, 66, 34
1, 171360, Note_on_c, 0, 69, 34
1, 171360, Note_on_c, 0, 75, 41
1, 171360, Note_on_c, 0, 30, 24
1, 171400, Control_c, 0, 64, 127
1, 171480, Note_on_c, 0, 30, 0
1, 171600, Note_on_c, 0, 42, 24
1, 171720, Note_on_c, 0, 75, 0
1, 171720, Note_on_c, 0, 73, 41
1, 171840, Note_on_c, 0, 73, 0
1, 171840, Note_on_c, 0, 42, 0
1, 171840, Note_on_c, 0, 69, 0
1, 171840, Note_on_c, 0, 66, 0
1, 171840, Note_on_c, 0, 66, 34
1, 171840, Note_on_c, 0, 69, 34
1, 171840, Note_on_c, 0, 73, 41
1, 171840, Note_on_c, 0, 54, 27
1, 172076, Note_on_c, 0, 66, 0
1, 172077, Note_on_c, 0, 66, 30
1, 172080, Tempo, 1278500
1, 172080, Note_on_c, 0, 54, 0
1, 172317, Note_on_c, 0, 66, 0
1, 172320, Tempo, 1299827
1, 172334, Control_c, 0, 64, 0
1, 172440, Note_on_c, 0, 30, 25
1, 172480, Tempo, 1313198
1, 172500, Note_on_c, 0, 30, 0
1, 172560, Note_on_c, 0, 73, 0
1, 172560, Note_on_c, 0, 69, 0
1, 172560, Note_on_c, 0, 63, 30
1, 172560, Note_on_c, 0, 69, 30
1, 172560, Note_on_c, 0, 73, 37
1, 172560, Note_on_c, 0, 29, 25
1, 172620, Note_on_c, 0, 29, 0
1, 172640, Tempo, 1327140
1, 172680, Note_on_c, 0, 30, 25
1, 172740, Note_on_c, 0, 30, 0
1, 172760, Tempo, 1341082
1, 172800, Tempo, 1232792
1, 172800, Note_on_c, 0, 73, 0
1, 172800, Note_on_c, 0, 69, 0
1, 172800, Note_on_c, 0, 63, 0
1, 172800, Note_on_c, 0, 64, 34
1, 172800, Note_on_c, 0, 68, 34
1, 172800, Note_on_c, 0, 73, 41
1, 172800, Note_on_c, 0, 32, 24
1, 172863, Control_c, 0, 64, 127
1, 172920, Note_on_c, 0, 32, 0
1, 173040, Note_on_c, 0, 44, 22
1, 173280, Note_on_c, 0, 44, 0
1, 173280, Note_on_c, 0, 73, 0
1, 173280, Note_on_c, 0, 71, 41
1, 173280, Note_on_c, 0, 56, 27
1, 173520, Tempo, 1146132
1, 173520, Note_on_c, 0, 56, 0
1, 173520, Note_on_c, 0, 80, 29
1, 173760, Tempo, 1299827
1, 173760, Note_on_c, 0, 80, 0
1, 173760, Note_on_c, 0, 64, 0
1, 173760, Note_on_c, 0, 60, 25
1, 173774, Control_c, 0, 64, 0
1, 173880, Note_on_c, 0, 32, 25
1, 173940, Note_on_c, 0, 32, 0
1, 174000, Tempo, 1355626
1, 174000, Note_on_c, 0, 68, 0
1, 174000, Note_on_c, 0, 71, 0
1, 174000, Note_on_c, 0, 66, 28
1, 174000, Note_on_c, 0, 69, 34
1, 174000, Note_on_c, 0, 31, 25
1, 174060, Note_on_c, 0, 31, 0
1, 174120, Note_on_c, 0, 32, 25
1, 174180, Note_on_c, 0, 32, 0
1, 174240, Tempo, 1232792
1, 174240, Note_on_c, 0, 69, 0
1, 174240, Note_on_c, 0, 66, 0
1, 174240, Note_on_c, 0, 60, 0
1, 174240, Note_on_c, 0, 61, 28
1, 174240, Note_on_c, 0, 64, 28
1, 174240, Note_on_c, 0, 68, 34
1, 174240, Note_on_c, 0, 37, 26
1, 174275, Control_c, 0, 64, 127
1, 174360, Note_on_c, 0, 37, 0
1, 174480, Tempo, 1278500
1, 174480, Note_on_c, 0, 44, 22
1, 174720, Note_on_c, 0, 44, 0
1, 174720, Note_on_c, 0, 68, 0
1, 174720, Note_on_c, 0, 64, 0
1, 174720, Note_on_c, 0, 61, 0
1, 174720, Note_on_c, 0, 56, 25
1, 174720, Note_on_c, 0, 61, 25
1, 174720, Note_on_c, 0, 64, 30
1, 174720, Note_on_c, 0, 49, 27
1, 174960, Note_on_c, 0, 49, 0
1, 174960, Note_on_c, 0, 73, 29
1, 175200, Tempo, 1299827
1, 175200, Note_on_c, 0, 73, 0
1, 175280, Tempo, 1313198
1, 175320, Tempo, 1327140
1, 175320, Control_c, 0, 64, 0
1, 175320, Note_on_c, 0, 37, 25
1, 175360, Tempo, 1341082
1, 175380, Note_on_c, 0, 37, 0
1, 175400, Tempo, 1355626
1, 175440, Note_on_c, 0, 56, 0
1, 175440, Note_on_c, 0, 61, 0
1, 175440, Note_on_c, 0, 64, 0
1, 175440, Note_on_c, 0, 37, 25
1, 175480, Tempo, 1370489
1, 175500, Note_on_c, 0, 37, 0
1, 175520, Tempo, 1385361
1, 175560, Tempo, 1400887
1, 175560, Note_on_c, 0, 36, 25
1, 175600, Tempo, 1416431
1, 175620, Note_on_c, 0, 36, 0
1, 175640, Tempo, 1432665
1, 175680, Key_signature, 7, "major"
1, 175680, Tempo, 1273615
1, 175680, Note_on_c, 0, 61, 27
1, 175680, Note_on_c, 0, 65, 27
1, 175680, Note_on_c, 0, 68, 33
1, 175680, Note_on_c, 0, 37, 20
1, 175754, Control_c, 0, 64, 127
1, 175920, Tempo, 1223990
1, 175920, Note_on_c, 0, 37, 0
1, 175920, Note_on_c, 0, 49, 20
1, 176160, Note_on_c, 0, 49, 0
1, 176160, Note_on_c, 0, 61, 23
1, 176400, Tempo, 1278500
1, 176400, Note_on_c, 0, 61, 0
1, 176400, Note_on_c, 0, 73, 28
1, 176640, Tempo, 1327140
1, 176640, Note_on_c, 0, 73, 0
1, 176654, Control_c, 0, 64, 0
1, 176760, Tempo, 1341082
1, 176760, Note_on_c, 0, 37, 20
1, 176820, Note_on_c, 0, 37, 0
1, 176840, Tempo, 1355626
1, 176880, Note_on_c, 0, 61, 0
1, 176880, Note_on_c, 0, 65, 0
1, 176880, Note_on_c, 0, 68, 0
1, 176880, Note_on_c, 0, 61, 23
1, 176880, Note_on_c, 0, 68, 23
1, 176880, Note_on_c, 0, 73, 29
1, 176880, Note_on_c, 0, 39, 20
1, 176920, Tempo, 1370489
1, 176940, Note_on_c, 0, 39, 0
1, 177000, Tempo, 1385361
1, 177000, Note_on_c, 0, 41, 20
1, 177060, Note_on_c, 0, 41, 0
1, 177080, Tempo, 1400887
1, 177120, Tempo, 1232792
1, 177120, Note_on_c, 0, 73, 0
1, 177120, Note_on_c, 0, 68, 0
1, 177120, Note_on_c, 0, 61, 0
1, 177120, Note_on_c, 0, 61, 27
1, 177120, Note_on_c, 0, 66, 27
1, 177120, Note_on_c, 0, 72, 33
1, 177120, Note_on_c, 0, 30, 19
1, 177194, Control_c, 0, 64, 127
1, 177360, Note_on_c, 0, 30, 0
1, 177360, Note_on_c, 0, 42, 20
1, 177600, Note_on_c, 0, 42, 0
1, 177600, Note_on_c, 0, 72, 0
1, 177600, Note_on_c, 0, 70, 33
1, 177600, Note_on_c, 0, 54, 23
1, 177840, Tempo, 1278500
1, 177840, Note_on_c, 0, 54, 0
1, 177840, Note_on_c, 0, 82, 27
1, 178080, Tempo, 1327140
1, 178080, Note_on_c, 0, 82, 0
1, 178080, Note_on_c, 0, 66, 0
1, 178080, Note_on_c, 0, 61, 0
1, 178094, Control_c, 0, 64, 0
1, 178200, Tempo, 1341082
1, 178200, Note_on_c, 0, 39, 20
1, 178260, Note_on_c, 0, 39, 0
1, 178280, Tempo, 1355626
1, 178320, Note_on_c, 0, 70, 0
1, 178320, Note_on_c, 0, 61, 23
1, 178320, Note_on_c, 0, 65, 23
1, 178320, Note_on_c, 0, 70, 29
1, 178320, Note_on_c, 0, 41, 20
1, 178360, Tempo, 1370489
1, 178380, Note_on_c, 0, 41, 0
1, 178440, Tempo, 1385361
1, 178440, Note_on_c, 0, 42, 20
1, 178500, Note_on_c, 0, 42, 0
1, 178520, Tempo, 1400887
1, 178560, Tempo, 1232792
1, 178560, Note_on_c, 0, 70, 0
1, 178560, Note_on_c, 0, 65, 0
1, 178560, Note_on_c, 0, 61, 0
1, 178560, Note_on_c, 0, 61, 27
1, 178560, Note_on_c, 0, 63, 27
1, 178560, Note_on_c, 0, 70, 33
1, 178560, Note_on_c, 0, 32, 19
1, 178634, Control_c, 0, 64, 127
1, 178800, Note_on_c, 0, 32, 0
1, 178800, Note_on_c, 0, 44, 17
1, 179040, Note_on_c, 0, 44, 0
1, 179040, Note_on_c, 0, 70, 0
1, 179040, Note_on_c, 0, 63, 0
1, 179040, Note_on_c, 0, 61, 0
1, 179040, Note_on_c, 0, 60, 22
1, 179040, Note_on_c, 0, 63, 24
1, 179040, Note_on_c, 0, 68, 30
1, 179040, Note_on_c, 0, 56, 21
1, 179280, Tempo, 1146132
1, 179280, Note_on_c, 0, 56, 0
1, 179280, Note_on_c, 0, 80, 24
1, 179520, Tempo, 1341082
1, 179520, Note_on_c, 0, 80, 0
1, 179534, Control_c, 0, 64, 0
1, 179640, Note_on_c, 0, 32, 20
1, 179700, Note_on_c, 0, 32, 0
1, 179760, Tempo, 1385361
1, 179760, Note_on_c, 0, 60, 0
1, 179760, Note_on_c, 0, 63, 0
1, 179760, Note_on_c, 0, 68, 0
1, 179760, Note_on_c, 0, 58, 24
1, 179760, Note_on_c, 0, 61, 24
1, 179760, Note_on_c, 0, 66, 29
1, 179760, Note_on_c, 0, 34, 22
1, 179820, Note_on_c, 0, 34, 0
1, 179880, Note_on_c, 0, 36, 22
1, 179940, Note_on_c, 0, 36, 0
1, 180000, Tempo, 1232792
1, 180000, Note_on_c, 0, 66, 0
1, 180000, Note_on_c, 0, 61, 0
1, 180000, Note_on_c, 0, 58, 0
1, 180000, Note_on_c, 0, 56, 24
1, 180000, Note_on_c, 0, 61, 24
1, 180000, Note_on_c, 0, 65, 29
1, 180000, Note_on_c, 0, 37, 22
1, 180035, Control_c, 0, 64, 127
1, 180240, Tempo, 1278500
1, 180240, Note_on_c, 0, 37, 0
1, 180240, Note_on_c, 0, 44, 19
1, 180480, Note_on_c, 0, 44, 0
1, 180480, Note_on_c, 0, 65, 0
1, 180480, Note_on_c, 0, 61, 0
1, 180480, Note_on_c, 0, 56, 0
1, 180480, Note_on_c, 0, 53, 22
1, 180480, Note_on_c, 0, 56, 22
1, 180480, Note_on_c, 0, 61, 25
1, 180480, Note_on_c, 0, 49, 22
1, 180720, Note_on_c, 0, 49, 0
1, 180720, Note_on_c, 0, 73, 25
1, 180960, Tempo, 1313198
1, 180960, Note_on_c, 0, 73, 0
1, 181040, Tempo, 1327140
1, 181080, Control_c, 0, 64, 0
1, 181080, Note_on_c, 0, 49, 25
1, 181120, Tempo, 1341082
1, 181140, Note_on_c, 0, 49, 0
1, 181200, Tempo, 1355626
1, 181200, Note_on_c, 0, 53, 0
1, 181200, Note_on_c, 0, 56, 0
1, 181200, Note_on_c, 0, 61, 0
1, 181200, Note_on_c, 0, 56, 24
1, 181200, Note_on_c, 0, 61, 24
1, 181200, Note_on_c, 0, 65, 29
1, 181200, Note_on_c, 0, 48, 25
1, 181260, Note_on_c, 0, 48, 0
1, 181280, Tempo, 1370489
1, 181320, Note_on_c, 0, 49, 25
1, 181360, Tempo, 1385361
1, 181380, Note_on_c, 0, 49, 0
1, 181400, Tempo, 1400887
1, 181440, Tempo, 1232792
1, 181440, Note_on_c, 0, 65, 0
1, 181440, Note_on_c, 0, 61, 0
1, 181440, Note_on_c, 0, 56, 0
1, 181440, Note_on_c, 0, 55, 28
1, 181440, Note_on_c, 0, 61, 28
1, 181440, Note_on_c, 0, 65, 34
1, 181440, Control_c, 0, 64, 0
1, 181440, Note_on_c, 0, 46, 26
1, 181475, Control_c, 0, 64, 127
1, 181680, Tempo, 1278500
1, 181680, Note_on_c, 0, 46, 0
1, 181680, Note_on_c, 0, 70, 29
1, 181800, Note_on_c, 0, 70, 0
1, 181800, Note_on_c, 0, 65, 0
1, 181800, Note_on_c, 0, 63, 34
1, 181920, Note_on_c, 0, 63, 0
1, 181920, Note_on_c, 0, 61, 0
1, 181920, Note_on_c, 0, 55, 0
1, 181920, Note_on_c, 0, 82, 29
1, 181920, Note_on_c, 0, 55, 25
1, 181920, Note_on_c, 0, 61, 25
1, 181920, Note_on_c, 0, 63, 30
1, 182160, Note_on_c, 0, 82, 0
1, 182360, Tempo, 1286449
1, 182440, Tempo, 1299827
1, 182502, Control_c, 0, 64, 0
1, 182520, Tempo, 1313198
1, 182520, Note_on_c, 0, 46, 25
1, 182580, Note_on_c, 0, 46, 0
1, 182600, Tempo, 1327140
1, 182640, Note_on_c, 0, 63, 0
1, 182640, Note_on_c, 0, 61, 0
1, 182640, Note_on_c, 0, 55, 0
1, 182640, Note_on_c, 0, 55, 28
1, 182640, Note_on_c, 0, 61, 28
1, 182640, Note_on_c, 0, 63, 33
1, 182640, Note_on_c, 0, 46, 25
1, 182680, Tempo, 1341082
1, 182700, Note_on_c, 0, 46, 0
1, 182760, Tempo, 1355626
1, 182760, Note_on_c, 0, 49, 25
1, 182820, Note_on_c, 0, 49, 0
1, 182840, Tempo, 1370489
1, 182880, Tempo, 1232792
1, 182880, Note_on_c, 0, 63, 0
1, 182880, Note_on_c, 0, 61, 0
1, 182880, Note_on_c, 0, 55, 0
1, 182880, Note_on_c, 0, 54, 31
1, 182880, Note_on_c, 0, 61, 31
1, 182880, Note_on_c, 0, 64, 37
1, 182880, Note_on_c, 0, 45, 26
1, 182915, Control_c, 0, 64, 127
1, 183120, Tempo, 1278500
1, 183120, Note_on_c, 0, 45, 0
1, 183120, Note_on_c, 0, 69, 29
1, 183240, Note_on_c, 0, 69, 0
1, 183240, Note_on_c, 0, 64, 0
1, 183240, Note_on_c, 0, 63, 34
1, 183360, Note_on_c, 0, 63, 0
1, 183360, Note_on_c, 0, 61, 0
1, 183360, Note_on_c, 0, 54, 0
1, 183360, Note_on_c, 0, 81, 29
1, 183360, Note_on_c, 0, 54, 25
1, 183360, Note_on_c, 0, 61, 25
1, 183360, Note_on_c, 0, 63, 30
1, 183600, Note_on_c, 0, 81, 0
1, 183840, Tempo, 1273615
1, 183920, Tempo, 1286449
1, 183956, Control_c, 0, 64, 0
1, 183960, Note_on_c, 0, 45, 25
1, 184000, Tempo, 1299827
1, 184020, Note_on_c, 0, 45, 0
1, 184040, Tempo, 1313198
1, 184080, Note_on_c, 0, 63, 0
1, 184080, Note_on_c, 0, 61, 0
1, 184080, Note_on_c, 0, 54, 0
1, 184080, Note_on_c, 0, 54, 25
1, 184080, Note_on_c, 0, 61, 25
1, 184080, Note_on_c, 0, 63, 30
1, 184080, Note_on_c, 0, 45, 25
1, 184120, Tempo, 1327140
1, 184140, Note_on_c, 0, 45, 0
1, 184160, Tempo, 1341082
1, 184200, Note_on_c, 0, 49, 25
1, 184240, Tempo, 1355626
1, 184260, Note_on_c, 0, 49, 0
1, 184280, Tempo, 1370489
1, 184320, Tempo, 1232792
1, 184320, Note_on_c, 0, 63, 0
1, 184320, Note_on_c, 0, 61, 0
1, 184320, Note_on_c, 0, 54, 0
1, 184320, Note_on_c, 0, 54, 28
1, 184320, Note_on_c, 0, 60, 28
1, 184320, Note_on_c, 0, 63, 34
1, 184320, Note_on_c, 0, 44, 26
1, 184355, Control_c, 0, 64, 127
1, 184560, Tempo, 1278500
1, 184560, Note_on_c, 0, 44, 0
1, 184560, Note_on_c, 0, 68, 27
1, 184680, Note_on_c, 0, 68, 0
1, 184800, Note_on_c, 0, 80, 28
1, 185040, Note_on_c, 0, 80, 0
1, 185040, Note_on_c, 0, 54, 0
1, 185040, Note_on_c, 0, 60, 0
1, 185040, Note_on_c, 0, 63, 0
1, 185040, Note_on_c, 0, 65, 29
1, 185160, Note_on_c, 0, 65, 0
1, 185160, Note_on_c, 0, 66, 29
1, 185280, Tempo, 1299827
1, 185280, Note_on_c, 0, 66, 0
1, 185280, Note_on_c, 0, 68, 29
1, 185377, Control_c, 0, 64, 0
1, 185400, Tempo, 1313198
1, 185400, Note_on_c, 0, 44, 25
1, 185460, Note_on_c, 0, 44, 0
1, 185520, Tempo, 1327140
1, 185520, Note_on_c, 0, 68, 0
1, 185520, Note_on_c, 0, 56, 25
1, 185520, Note_on_c, 0, 60, 25
1, 185520, Note_on_c, 0, 64, 30
1, 185520, Note_on_c, 0, 43, 25
1, 185580, Note_on_c, 0, 43, 0
1, 185640, Tempo, 1341082
1, 185640, Note_on_c, 0, 44, 25
1, 185700, Note_on_c, 0, 44, 0
1, 185720, Tempo, 1355626
1, 185760, Tempo, 1232792
1, 185760, Note_on_c, 0, 64, 0
1, 185760, Note_on_c, 0, 60, 0
1, 185760, Note_on_c, 0, 56, 0
1, 185760, Note_on_c, 0, 56, 28
1, 185760, Note_on_c, 0, 61, 28
1, 185760, Note_on_c, 0, 65, 34
1, 185760, Note_on_c, 0, 37, 26
1, 185795, Control_c, 0, 64, 127
1, 186000, Tempo, 1278500
1, 186000, Note_on_c, 0, 37, 0
1, 186000, Note_on_c, 0, 49, 27
1, 186120, Note_on_c, 0, 49, 0
1, 186240, Note_on_c, 0, 73, 29
1, 186720, Tempo, 1286449
1, 186720, Note_on_c, 0, 73, 0
1, 186808, Control_c, 0, 64, 0
1, 186840, Tempo, 1299827
1, 186840, Note_on_c, 0, 37, 22
1, 186900, Note_on_c, 0, 37, 0
1, 186920, Tempo, 1313198
1, 186960, Note_on_c, 0, 65, 0
1, 186960, Note_on_c, 0, 61, 0
1, 186960, Note_on_c, 0, 56, 0
1, 186960, Note_on_c, 0, 56, 25
1, 186960, Note_on_c, 0, 61, 25
1, 186960, Note_on_c, 0, 65, 30
1, 186960, Note_on_c, 0, 36, 22
1, 187000, Tempo, 1327140
1, 187020, Note_on_c, 0, 36, 0
1, 187080, Tempo, 1341082
1, 187080, Note_on_c, 0, 37, 22
1, 187140, Note_on_c, 0, 37, 0
1, 187160, Tempo, 1355626
1, 187200, Tempo, 1232792
1, 187200, Note_on_c, 0, 65, 0
1, 187200, Note_on_c, 0, 61, 0
1, 187200, Note_on_c, 0, 56, 0
1, 187200, Note_on_c, 0, 55, 23
1, 187200, Note_on_c, 0, 61, 23
1, 187200, Note_on_c, 0, 65, 28
1, 187200, Control_c, 0, 64, 0
1, 187200, Note_on_c, 0, 34, 22
1, 187235, Control_c, 0, 64, 127
1, 187320, Note_on_c, 0, 34, 0
1, 187440, Tempo, 1278500
1, 187440, Note_on_c, 0, 46, 24
1, 187560, Note_on_c, 0, 46, 0
1, 187560, Note_on_c, 0, 65, 0
1, 187560, Note_on_c, 0, 63, 28
1, 187680, Note_on_c, 0, 63, 0
1, 187680, Note_on_c, 0, 61, 0
1, 187680, Note_on_c, 0, 55, 0
1, 187680, Note_on_c, 0, 70, 24
1, 187680, Note_on_c, 0, 55, 21
1, 187680, Note_on_c, 0, 61, 21
1, 187680, Note_on_c, 0, 63, 25
1, 188160, Tempo, 1313198
1, 188160, Note_on_c, 0, 70, 0
1, 188262, Control_c, 0, 64, 0
1, 188280, Tempo, 1327140
1, 188280, Note_on_c, 0, 34, 21
1, 188340, Note_on_c, 0, 34, 0
1, 188360, Tempo, 1341082
1, 188400, Note_on_c, 0, 63, 0
1, 188400, Note_on_c, 0, 61, 0
1, 188400, Note_on_c, 0, 55, 0
1, 188400, Note_on_c, 0, 55, 23
1, 188400, Note_on_c, 0, 61, 23
1, 188400, Note_on_c, 0, 63, 28
1, 188400, Note_on_c, 0, 34, 21
1, 188440, Tempo, 1355626
1, 188460, Note_on_c, 0, 34, 0
1, 188520, Tempo, 1370489
1, 188520, Note_on_c, 0, 37, 21
1, 188580, Note_on_c, 0, 37, 0
1, 188600, Tempo, 1385361
1, 188640, Tempo, 1232792
1, 188640, Note_on_c, 0, 63, 0
1, 188640, Note_on_c, 0, 61, 0
1, 188640, Note_on_c, 0, 55, 0
1, 188640, Note_on_c, 0, 54, 26
1, 188640, Note_on_c, 0, 61, 26
1, 188640, Note_on_c, 0, 64, 31
1, 188640, Note_on_c, 0, 33, 22
1, 188675, Control_c, 0, 64, 127
1, 188760, Note_on_c, 0, 33, 0
1, 188880, Tempo, 1278500
1, 188880, Note_on_c, 0, 45, 24
1, 189000, Note_on_c, 0, 45, 0
1, 189000, Note_on_c, 0, 64, 0
1, 189000, Note_on_c, 0, 63, 28
1, 189120, Note_on_c, 0, 63, 0
1, 189120, Note_on_c, 0, 61, 0
1, 189120, Note_on_c, 0, 54, 0
1, 189120, Note_on_c, 0, 69, 24
1, 189120, Note_on_c, 0, 54, 21
1, 189120, Note_on_c, 0, 61, 21
1, 189120, Note_on_c, 0, 63, 25
1, 189360, Note_on_c, 0, 69, 0
1, 189600, Tempo, 1299827
1, 189716, Control_c, 0, 64, 0
1, 189720, Tempo, 1313198
1, 189720, Note_on_c, 0, 33, 21
1, 189780, Note_on_c, 0, 33, 0
1, 189840, Tempo, 1327140
1, 189840, Note_on_c, 0, 63, 0
1, 189840, Note_on_c, 0, 61, 0
1, 189840, Note_on_c, 0, 54, 0
1, 189840, Note_on_c, 0, 54, 21
1, 189840, Note_on_c, 0, 61, 21
1, 189840, Note_on_c, 0, 63, 25
1, 189840, Note_on_c, 0, 33, 21
1, 189900, Note_on_c, 0, 33, 0
1, 189960, Tempo, 1341082
1, 189960, Note_on_c, 0, 35, 21
1, 190020, Note_on_c, 0, 35, 0
1, 190040, Tempo, 1355626
1, 190080, Tempo, 1232792
1, 190080, Note_on_c, 0, 63, 0
1, 190080, Note_on_c, 0, 61, 0
1, 190080, Note_on_c, 0, 54, 0
1, 190080, Note_on_c, 0, 54, 23
1, 190080, Note_on_c, 0, 60, 23
1, 190080, Note_on_c, 0, 63, 28
1, 190080, Note_on_c, 0, 32, 22
1, 190115, Control_c, 0, 64, 127
1, 190200, Note_on_c, 0, 32, 0
1, 190320, Tempo, 1278500
1, 190320, Note_on_c, 0, 44, 24
1, 190440, Note_on_c, 0, 44, 0
1, 190560, Note_on_c, 0, 56, 24
1, 190800, Note_on_c, 0, 63, 0
1, 190800, Note_on_c, 0, 54, 0
1, 190800, Note_on_c, 0, 60, 0
1, 190800, Note_on_c, 0, 65, 24
1, 190920, Note_on_c, 0, 65, 0
1, 190920, Note_on_c, 0, 66, 24
1, 191040, Tempo, 1313198
1, 191040, Note_on_c, 0, 66, 0
1, 191040, Note_on_c, 0, 56, 0
1, 191040, Note_on_c, 0, 68, 24
1, 191137, Control_c, 0, 64, 0
1, 191160, Tempo, 1327140
1, 191160, Note_on_c, 0, 32, 21
1, 191220, Note_on_c, 0, 32, 0
1, 191280, Tempo, 1341082
1, 191280, Note_on_c, 0, 68, 0
1, 191280, Note_on_c, 0, 54, 21
1, 191280, Note_on_c, 0, 57, 21
1, 191280, Note_on_c, 0, 60, 25
1, 191280, Note_on_c, 0, 31, 21
1, 191340, Note_on_c, 0, 31, 0
1, 191400, Tempo, 1355626
1, 191400, Note_on_c, 0, 32, 21
1, 191460, Note_on_c, 0, 32, 0
1, 191480, Tempo, 1370489
1, 191520, Tempo, 1232792
1, 191520, Note_on_c, 0, 60, 0
1, 191520, Note_on_c, 0, 57, 0
1, 191520, Note_on_c, 0, 54, 0
1, 191520, Note_on_c, 0, 61, 25
1, 191520, Note_on_c, 0, 56, 21
1, 191520, Note_on_c, 0, 53, 21
1, 191520, Note_on_c, 0, 37, 22
1, 191555, Control_c, 0, 64, 127
1, 191640, Note_on_c, 0, 37, 0
1, 191760, Tempo, 1278500
1, 191760, Note_on_c, 0, 49, 22
1, 191880, Note_on_c, 0, 49, 0
1, 192000, Tempo, 1327140
1, 192000, Note_on_c, 0, 73, 24
1, 192480, Tempo, 1341082
1, 192480, Note_on_c, 0, 73, 0
1, 192560, Tempo, 1355626
1, 192568, Control_c, 0, 64, 0
1, 192600, Note_on_c, 0, 37, 21
1, 192640, Tempo, 1370489
1, 192660, Note_on_c, 0, 37, 0
1, 192680, Tempo, 1385361
1, 192720, Note_on_c, 0, 53, 0
1, 192720, Note_on_c, 0, 56, 0
1, 192720, Note_on_c, 0, 61, 0
1, 192720, Note_on_c, 0, 37, 21
1, 192760, Tempo, 1400887
1, 192780, Note_on_c, 0, 37, 0
1, 192840, Tempo, 1416431
1, 192840, Note_on_c, 0, 36, 21
1, 192880, Tempo, 1432665
1, 192900, Note_on_c, 0, 36, 0
1, 192920, Tempo, 1341082
1, 192960, Tempo, 1232792
1, 192960, Note_on_c, 0, 61, 25
1, 192960, Note_on_c, 0, 58, 21
1, 192960, Note_on_c, 0, 54, 21
1, 192960, Note_on_c, 0, 37, 22
1, 192995, Control_c, 0, 64, 127
1, 193080, Note_on_c, 0, 37, 0
1, 193200, Tempo, 1327140
1, 193200, Note_on_c, 0, 49, 22
1, 193320, Note_on_c, 0, 49, 0
1, 193440, Note_on_c, 0, 73, 24
1, 193920, Tempo, 1327140
1, 193920, Note_on_c, 0, 73, 0
1, 194000, Tempo, 1341082
1, 194008, Control_c, 0, 64, 0
1, 194040, Tempo, 1355626
1, 194040, Note_on_c, 0, 37, 21
1, 194100, Note_on_c, 0, 37, 0
1, 194120, Tempo, 1370489
1, 194160, Tempo, 1385361
1, 194160, Note_on_c, 0, 54, 0
1, 194160, Note_on_c, 0, 58, 0
1, 194160, Note_on_c, 0, 61, 0
1, 194160, Note_on_c, 0, 37, 21
1, 194200, Tempo, 1400887
1, 194220, Note_on_c, 0, 37, 0
1, 194280, Tempo, 1416431
1, 194280, Note_on_c, 0, 36, 21
1, 194320, Tempo, 1432665
1, 194340, Note_on_c, 0, 36, 0
1, 194360, Tempo, 1449275
1, 194400, Tempo, 1286449
1, 194400, Note_on_c, 0, 61, 25
1, 194400, Note_on_c, 0, 54, 21
1, 194400, Note_on_c, 0, 51, 21
1, 194400, Note_on_c, 0, 37, 22
1, 194435, Control_c, 0, 64, 127
1, 194520, Note_on_c, 0, 37, 0
1, 194640, Tempo, 1370489
1, 194640, Note_on_c, 0, 49, 22
1, 194760, Note_on_c, 0, 49, 0
1, 194880, Note_on_c, 0, 73, 24
1, 195320, Tempo, 1370489
1, 195360, Tempo, 1385361
1, 195360, Note_on_c, 0, 73, 0
1, 195400, Tempo, 1400887
1, 195440, Tempo, 1416431
1, 195448, Control_c, 0, 64, 0
1, 195480, Tempo, 1449275
1, 195480, Note_on_c, 0, 37, 21
1, 195520, Tempo, 1465917
1, 195540, Note_on_c, 0, 37, 0
1, 195560, Tempo, 1500750
1, 195600, Tempo, 1518987
1, 195600, Note_on_c, 0, 51, 0
1, 195600, Note_on_c, 0, 54, 0
1, 195600, Note_on_c, 0, 61, 0
1, 195600, Note_on_c, 0, 37, 21
1, 195640, Tempo, 1556420
1, 195660, Note_on_c, 0, 37, 0
1, 195680, Tempo, 1576044
1, 195720, Tempo, 1616379
1, 195720, Note_on_c, 0, 36, 21
1, 195760, Tempo, 1637555
1, 195780, Note_on_c, 0, 36, 0
1, 195800, Tempo, 1681143
1, 195840, Tempo, 1576044
1, 195840, Note_on_c, 0, 37, 22
1, 195840, Note_on_c, 0, 53, 21
1, 195840, Note_on_c, 0, 56, 21
1, 195840, Note_on_c, 0, 61, 25
1, 195882, Control_c, 0, 64, 127
1, 196080, Note_on_c, 0, 37, 0
1, 196080, Note_on_c, 0, 68, 22
1, 196140, Note_on_c, 0, 68, 0
1, 196320, Note_on_c, 0, 61, 0
1, 196320, Note_on_c, 0, 56, 0
1, 196320, Note_on_c, 0, 53, 0
1, 196320, Note_on_c, 0, 73, 23
1, 196320, Note_on_c, 0, 53, 18
1, 196320, Note_on_c, 0, 56, 18
1, 196320, Note_on_c, 0, 61, 22
1, 196380, Note_on_c, 0, 73, 0
1, 196560, Note_on_c, 0, 80, 23
1, 196620, Note_on_c, 0, 80, 0
1, 196800, Tempo, 1658833
1, 196800, Note_on_c, 0, 61, 0
1, 196800, Note_on_c, 0, 56, 0
1, 196800, Note_on_c, 0, 53, 0
1, 196800, Note_on_c, 0, 85, 23
1, 196800, Note_on_c, 0, 53, 18
1, 196800, Note_on_c, 0, 56, 18
1, 196800, Note_on_c, 0, 61, 22
1, 196860, Note_on_c, 0, 85, 0
1, 197040, Tempo, 1827040
1, 197040, Note_on_c, 0, 32, 18
1, 197100, Note_on_c, 0, 32, 0
1, 197280, Note_on_c, 0, 61, 0
1, 197280, Note_on_c, 0, 56, 0
1, 197280, Note_on_c, 0, 53, 0
1, 197280, Note_on_c, 0, 37, 19
1, 197280, Note_on_c, 0, 53, 18
1, 197280, Note_on_c, 0, 56, 18
1, 197280, Note_on_c, 0, 61, 22
1, 198720, Note_on_c, 0, 61, 0
1, 198720, Note_on_c, 0, 37, 0
1, 198720, Note_on_c, 0, 53, 0
1, 198720, Note_on_c, 0, 56, 0
1, 199893, Control_c, 0, 64, 0
1, 199895, Tempo, 1739130
1, 200160, Tempo, 1173479
1, 200160, End_track
0, 0, End_of_file
