0, 0, Header, 0, 1, 480
1, 0, Start_track
1, 0, Title_t, "Impromptu D 935 Nr. 4"
1, 0, Copyright_t, "Copyright © 2007 by Bernd Krueger"
1, 0, Text_t, "Franz Schubert"
1, 0, Text_t, "Allegro moderato"
1, 0, Text_t, "Erstellt: 1.12.2007\012"
1, 0, Text_t, "Update: 22.3.2014\012"
1, 0, Text_t, "Dauer: 5:35 Minuten\012"
1, 0, Time_signature, 3, 3, 12, 8
1, 0, Key_signature, -4, "major"
1, 0, Tempo, 452148
1, 0, Program_c, 0, 0
1, 0, Note_on_c, 0, 73, 40
1, 0, Program_c, 0, 0
1, 0, Note_on_c, 0, 53, 35
1, 0, Program_c, 0, 0
1, 60, Note_on_c, 0, 53, 0
1, 60, Note_on_c, 0, 73, 0
1, 60, Note_on_c, 0, 72, 51
1, 120, Note_on_c, 0, 72, 0
1, 180, Tempo, 509165
1, 240, Tempo, 441144
1, 240, Note_on_c, 0, 72, 45
1, 240, Note_on_c, 0, 56, 25
1, 240, Note_on_c, 0, 60, 25
1, 240, Note_on_c, 0, 65, 30
1, 300, Note_on_c, 0, 65, 0
1, 300, Note_on_c, 0, 60, 0
1, 300, Note_on_c, 0, 56, 0
1, 360, Note_on_c, 0, 72, 0
1, 360, Note_on_c, 0, 73, 39
1, 480, Tempo, 450281
1, 480, Note_on_c, 0, 73, 0
1, 480, Note_on_c, 0, 72, 46
1, 480, Note_on_c, 0, 53, 30
1, 540, Note_on_c, 0, 53, 0
1, 540, Note_on_c, 0, 72, 0
1, 660, Tempo, 471735
1, 720, Tempo, 450281
1, 720, Note_on_c, 0, 73, 40
1, 720, Note_on_c, 0, 60, 29
1, 720, Note_on_c, 0, 56, 29
1, 720, Note_on_c, 0, 65, 35
1, 780, Note_on_c, 0, 65, 0
1, 780, Note_on_c, 0, 73, 0
1, 780, Note_on_c, 0, 60, 0
1, 780, Note_on_c, 0, 56, 0
1, 780, Note_on_c, 0, 72, 49
1, 840, Note_on_c, 0, 72, 0
1, 960, Tempo, 441144
1, 960, Note_on_c, 0, 72, 44
1, 960, Note_on_c, 0, 53, 31
1, 1020, Note_on_c, 0, 53, 0
1, 1080, Note_on_c, 0, 72, 0
1, 1080, Note_on_c, 0, 73, 36
1, 1200, Note_on_c, 0, 73, 0
1, 1200, Note_on_c, 0, 72, 42
1, 1200, Note_on_c, 0, 56, 26
1, 1200, Note_on_c, 0, 65, 31
1, 1200, Note_on_c, 0, 60, 26
1, 1260, Note_on_c, 0, 60, 0
1, 1260, Note_on_c, 0, 72, 0
1, 1260, Note_on_c, 0, 56, 0
1, 1260, Note_on_c, 0, 65, 0
1, 1380, Tempo, 516440
1, 1440, Tempo, 424899
1, 1440, Note_on_c, 0, 72, 40
1, 1440, Note_on_c, 0, 53, 35
1, 1500, Note_on_c, 0, 53, 0
1, 1500, Note_on_c, 0, 72, 0
1, 1500, Note_on_c, 0, 71, 52
1, 1560, Note_on_c, 0, 71, 0
1, 1680, Tempo, 444741
1, 1680, Note_on_c, 0, 71, 47
1, 1680, Note_on_c, 0, 62, 31
1, 1680, Note_on_c, 0, 59, 26
1, 1680, Note_on_c, 0, 56, 26
1, 1740, Note_on_c, 0, 56, 0
1, 1740, Note_on_c, 0, 59, 0
1, 1740, Note_on_c, 0, 62, 0
1, 1800, Note_on_c, 0, 71, 0
1, 1800, Note_on_c, 0, 74, 40
1, 1920, Tempo, 450281
1, 1920, Note_on_c, 0, 74, 0
1, 1920, Note_on_c, 0, 72, 45
1, 1920, Note_on_c, 0, 53, 31
1, 1980, Note_on_c, 0, 53, 0
1, 2040, Note_on_c, 0, 72, 0
1, 2040, Note_on_c, 0, 71, 36
1, 2100, Tempo, 486421
1, 2160, Tempo, 511553
1, 2160, Note_on_c, 0, 71, 0
1, 2160, Note_on_c, 0, 72, 46
1, 2160, Note_on_c, 0, 48, 35
1, 2220, Note_on_c, 0, 48, 0
1, 2220, Note_on_c, 0, 72, 0
1, 2400, Tempo, 446561
1, 2400, Note_on_c, 0, 67, 39
1, 2400, Note_on_c, 0, 60, 32
1, 2400, Note_on_c, 0, 55, 27
1, 2400, Note_on_c, 0, 52, 27
1, 2460, Note_on_c, 0, 52, 0
1, 2460, Note_on_c, 0, 55, 0
1, 2460, Note_on_c, 0, 60, 0
1, 2640, Note_on_c, 0, 48, 32
1, 2700, Note_on_c, 0, 48, 0
1, 2760, Tempo, 485830
1, 2880, Tempo, 442968
1, 2880, Note_on_c, 0, 67, 0
1, 2880, Note_on_c, 0, 72, 46
1, 2880, Note_on_c, 0, 60, 35
1, 2880, Note_on_c, 0, 52, 29
1, 2880, Note_on_c, 0, 55, 29
1, 2940, Note_on_c, 0, 55, 0
1, 2940, Note_on_c, 0, 72, 0
1, 2940, Note_on_c, 0, 60, 0
1, 2940, Note_on_c, 0, 52, 0
1, 3120, Note_on_c, 0, 67, 39
1, 3120, Note_on_c, 0, 48, 31
1, 3180, Note_on_c, 0, 48, 0
1, 3180, Note_on_c, 0, 67, 0
1, 3360, Note_on_c, 0, 72, 46
1, 3360, Note_on_c, 0, 52, 26
1, 3360, Note_on_c, 0, 60, 31
1, 3360, Note_on_c, 0, 55, 26
1, 3420, Note_on_c, 0, 55, 0
1, 3420, Note_on_c, 0, 72, 0
1, 3420, Note_on_c, 0, 52, 0
1, 3420, Note_on_c, 0, 60, 0
1, 3600, Note_on_c, 0, 70, 46
1, 3600, Note_on_c, 0, 49, 35
1, 3660, Note_on_c, 0, 49, 0
1, 3840, Tempo, 434122
1, 3840, Note_on_c, 0, 70, 0
1, 3840, Note_on_c, 0, 68, 39
1, 3840, Note_on_c, 0, 61, 31
1, 3840, Note_on_c, 0, 53, 26
1, 3879, Control_c, 0, 64, 127
1, 3900, Note_on_c, 0, 53, 0
1, 3900, Note_on_c, 0, 61, 0
1, 3960, Note_on_c, 0, 68, 0
1, 3960, Note_on_c, 0, 67, 39
1, 4080, Note_on_c, 0, 67, 0
1, 4080, Note_on_c, 0, 65, 43
1, 4080, Note_on_c, 0, 49, 31
1, 4140, Note_on_c, 0, 49, 0
1, 4200, Tempo, 465658
1, 4320, Tempo, 442968
1, 4320, Note_on_c, 0, 65, 0
1, 4320, Note_on_c, 0, 67, 46
1, 4320, Note_on_c, 0, 46, 35
1, 4320, Control_c, 0, 64, 0
1, 4417, Control_c, 0, 64, 127
1, 4440, Note_on_c, 0, 67, 0
1, 4440, Note_on_c, 0, 70, 38
1, 4560, Note_on_c, 0, 70, 0
1, 4560, Note_on_c, 0, 46, 0
1, 4560, Note_on_c, 0, 67, 46
1, 4560, Note_on_c, 0, 58, 33
1, 4560, Note_on_c, 0, 55, 28
1, 4680, Note_on_c, 0, 67, 0
1, 4680, Note_on_c, 0, 70, 40
1, 4800, Tempo, 432401
1, 4800, Note_on_c, 0, 70, 0
1, 4800, Note_on_c, 0, 55, 0
1, 4800, Note_on_c, 0, 58, 0
1, 4800, Note_on_c, 0, 64, 46
1, 4800, Note_on_c, 0, 48, 28
1, 4800, Note_on_c, 0, 58, 33
1, 4800, Note_on_c, 0, 55, 28
1, 4920, Tempo, 452148
1, 4920, Note_on_c, 0, 55, 0
1, 4920, Note_on_c, 0, 64, 0
1, 4920, Note_on_c, 0, 48, 0
1, 4920, Note_on_c, 0, 58, 0
1, 4920, Note_on_c, 0, 67, 40
1, 5040, Tempo, 434122
1, 5040, Note_on_c, 0, 67, 0
1, 5040, Note_on_c, 0, 65, 46
1, 5040, Note_on_c, 0, 53, 34
1, 5040, Note_on_c, 0, 56, 40
1, 5054, Control_c, 0, 64, 0
1, 5126, Tempo, 434122
1, 5160, Note_on_c, 0, 65, 0
1, 5160, Note_on_c, 0, 68, 37
1, 5188, Control_c, 0, 64, 127
1, 5194, Tempo, 432401
1, 5251, Tempo, 430694
1, 5280, Note_on_c, 0, 68, 0
1, 5280, Note_on_c, 0, 72, 42
1, 5318, Tempo, 429000
1, 5376, Tempo, 427290
1, 5400, Note_on_c, 0, 72, 0
1, 5400, Note_on_c, 0, 77, 47
1, 5434, Tempo, 425622
1, 5501, Tempo, 423998
1, 5520, Note_on_c, 0, 77, 0
1, 5520, Note_on_c, 0, 56, 0
1, 5520, Note_on_c, 0, 53, 0
1, 5520, Note_on_c, 0, 80, 52
1, 5558, Tempo, 422357
1, 5616, Tempo, 420698
1, 5640, Note_on_c, 0, 80, 0
1, 5640, Note_on_c, 0, 82, 57
1, 5654, Tempo, 441144
1, 5760, Tempo, 452148
1, 5760, Note_on_c, 0, 82, 0
1, 5760, Note_on_c, 0, 84, 65
1, 5760, Note_on_c, 0, 53, 35
1, 5760, Control_c, 0, 64, 0
1, 5820, Note_on_c, 0, 53, 0
1, 5820, Note_on_c, 0, 84, 0
1, 5940, Tempo, 502134
1, 6000, Tempo, 441144
1, 6000, Note_on_c, 0, 84, 54
1, 6000, Note_on_c, 0, 60, 25
1, 6000, Note_on_c, 0, 65, 30
1, 6000, Note_on_c, 0, 56, 25
1, 6060, Note_on_c, 0, 56, 0
1, 6060, Note_on_c, 0, 65, 0
1, 6060, Note_on_c, 0, 60, 0
1, 6120, Note_on_c, 0, 84, 0
1, 6120, Note_on_c, 0, 85, 46
1, 6240, Tempo, 448397
1, 6240, Note_on_c, 0, 85, 0
1, 6240, Note_on_c, 0, 84, 55
1, 6240, Note_on_c, 0, 53, 30
1, 6300, Note_on_c, 0, 53, 0
1, 6300, Note_on_c, 0, 84, 0
1, 6360, Tempo, 474308
1, 6420, Tempo, 465658
1, 6480, Tempo, 434122
1, 6480, Note_on_c, 0, 85, 48
1, 6480, Note_on_c, 0, 60, 29
1, 6480, Note_on_c, 0, 65, 35
1, 6480, Note_on_c, 0, 56, 29
1, 6540, Note_on_c, 0, 56, 0
1, 6540, Note_on_c, 0, 85, 0
1, 6540, Note_on_c, 0, 60, 0
1, 6540, Note_on_c, 0, 65, 0
1, 6540, Note_on_c, 0, 84, 64
1, 6600, Note_on_c, 0, 84, 0
1, 6720, Tempo, 442968
1, 6720, Note_on_c, 0, 84, 52
1, 6720, Note_on_c, 0, 53, 31
1, 6780, Note_on_c, 0, 53, 0
1, 6840, Note_on_c, 0, 84, 0
1, 6840, Note_on_c, 0, 85, 43
1, 6960, Note_on_c, 0, 85, 0
1, 6960, Note_on_c, 0, 84, 50
1, 6960, Note_on_c, 0, 56, 26
1, 6960, Note_on_c, 0, 65, 31
1, 6960, Note_on_c, 0, 60, 26
1, 7020, Note_on_c, 0, 60, 0
1, 7020, Note_on_c, 0, 84, 0
1, 7020, Note_on_c, 0, 56, 0
1, 7020, Note_on_c, 0, 65, 0
1, 7140, Tempo, 504202
1, 7200, Tempo, 450281
1, 7200, Note_on_c, 0, 84, 61
1, 7200, Note_on_c, 0, 53, 35
1, 7237, Control_c, 0, 64, 127
1, 7260, Note_on_c, 0, 53, 0
1, 7320, Tempo, 444741
1, 7320, Note_on_c, 0, 84, 0
1, 7320, Note_on_c, 0, 83, 48
1, 7440, Tempo, 437605
1, 7440, Note_on_c, 0, 83, 0
1, 7440, Note_on_c, 0, 89, 56
1, 7440, Note_on_c, 0, 56, 26
1, 7440, Note_on_c, 0, 59, 26
1, 7440, Note_on_c, 0, 62, 31
1, 7500, Note_on_c, 0, 62, 0
1, 7500, Note_on_c, 0, 59, 0
1, 7500, Note_on_c, 0, 56, 0
1, 7560, Note_on_c, 0, 89, 0
1, 7560, Note_on_c, 0, 83, 48
1, 7680, Note_on_c, 0, 83, 0
1, 7680, Note_on_c, 0, 89, 54
1, 7680, Note_on_c, 0, 53, 31
1, 7740, Note_on_c, 0, 53, 0
1, 7800, Note_on_c, 0, 89, 0
1, 7800, Note_on_c, 0, 83, 43
1, 7860, Tempo, 486421
1, 7920, Tempo, 511553
1, 7920, Note_on_c, 0, 83, 0
1, 7920, Note_on_c, 0, 84, 55
1, 7920, Note_on_c, 0, 48, 35
1, 7920, Control_c, 0, 64, 0
1, 7980, Note_on_c, 0, 48, 0
1, 7980, Note_on_c, 0, 84, 0
1, 8160, Tempo, 446561
1, 8160, Note_on_c, 0, 79, 46
1, 8160, Note_on_c, 0, 52, 27
1, 8160, Note_on_c, 0, 55, 27
1, 8160, Note_on_c, 0, 60, 32
1, 8220, Note_on_c, 0, 60, 0
1, 8220, Note_on_c, 0, 55, 0
1, 8220, Note_on_c, 0, 52, 0
1, 8400, Note_on_c, 0, 48, 32
1, 8460, Note_on_c, 0, 48, 0
1, 8520, Tempo, 493056
1, 8640, Tempo, 442968
1, 8640, Note_on_c, 0, 79, 0
1, 8640, Note_on_c, 0, 84, 57
1, 8640, Note_on_c, 0, 60, 35
1, 8640, Note_on_c, 0, 55, 29
1, 8640, Note_on_c, 0, 52, 29
1, 8700, Note_on_c, 0, 52, 0
1, 8700, Note_on_c, 0, 84, 0
1, 8700, Note_on_c, 0, 60, 0
1, 8700, Note_on_c, 0, 55, 0
1, 8880, Note_on_c, 0, 79, 46
1, 8880, Note_on_c, 0, 48, 31
1, 8940, Note_on_c, 0, 48, 0
1, 8940, Note_on_c, 0, 79, 0
1, 9120, Note_on_c, 0, 84, 55
1, 9120, Note_on_c, 0, 52, 26
1, 9120, Note_on_c, 0, 60, 31
1, 9120, Note_on_c, 0, 55, 26
1, 9180, Note_on_c, 0, 55, 0
1, 9180, Note_on_c, 0, 84, 0
1, 9180, Note_on_c, 0, 52, 0
1, 9180, Note_on_c, 0, 60, 0
1, 9360, Note_on_c, 0, 82, 55
1, 9360, Note_on_c, 0, 49, 35
1, 9420, Note_on_c, 0, 49, 0
1, 9600, Tempo, 434122
1, 9600, Note_on_c, 0, 82, 0
1, 9600, Note_on_c, 0, 80, 46
1, 9600, Note_on_c, 0, 61, 31
1, 9600, Note_on_c, 0, 53, 26
1, 9639, Control_c, 0, 64, 127
1, 9660, Note_on_c, 0, 53, 0
1, 9660, Note_on_c, 0, 61, 0
1, 9720, Note_on_c, 0, 80, 0
1, 9720, Note_on_c, 0, 79, 46
1, 9840, Note_on_c, 0, 79, 0
1, 9840, Note_on_c, 0, 77, 51
1, 9840, Note_on_c, 0, 49, 31
1, 9900, Note_on_c, 0, 49, 0
1, 9960, Tempo, 453995
1, 10080, Tempo, 442968
1, 10080, Note_on_c, 0, 77, 0
1, 10080, Note_on_c, 0, 79, 55
1, 10080, Note_on_c, 0, 46, 35
1, 10080, Control_c, 0, 64, 0
1, 10177, Control_c, 0, 64, 127
1, 10200, Note_on_c, 0, 79, 0
1, 10200, Note_on_c, 0, 82, 45
1, 10320, Tempo, 437605
1, 10320, Note_on_c, 0, 82, 0
1, 10320, Note_on_c, 0, 46, 0
1, 10320, Note_on_c, 0, 79, 55
1, 10320, Note_on_c, 0, 55, 28
1, 10320, Note_on_c, 0, 58, 33
1, 10440, Note_on_c, 0, 79, 0
1, 10440, Note_on_c, 0, 82, 48
1, 10560, Tempo, 432401
1, 10560, Note_on_c, 0, 82, 0
1, 10560, Note_on_c, 0, 58, 0
1, 10560, Note_on_c, 0, 55, 0
1, 10560, Note_on_c, 0, 76, 55
1, 10560, Note_on_c, 0, 58, 33
1, 10560, Note_on_c, 0, 48, 28
1, 10560, Note_on_c, 0, 55, 28
1, 10680, Tempo, 452148
1, 10680, Note_on_c, 0, 76, 0
1, 10680, Note_on_c, 0, 79, 48
1, 10800, Tempo, 434122
1, 10800, Note_on_c, 0, 79, 0
1, 10800, Note_on_c, 0, 55, 0
1, 10800, Note_on_c, 0, 48, 0
1, 10800, Note_on_c, 0, 58, 0
1, 10800, Note_on_c, 0, 77, 55
1, 10800, Note_on_c, 0, 56, 40
1, 10800, Note_on_c, 0, 53, 34
1, 10811, Control_c, 0, 64, 0
1, 11040, Note_on_c, 0, 53, 0
1, 11040, Note_on_c, 0, 56, 0
1, 11040, Note_on_c, 0, 77, 0
1, 11040, Note_on_c, 0, 65, 68
1, 11112, Control_c, 0, 64, 127
1, 11160, Note_on_c, 0, 65, 0
1, 11160, Note_on_c, 0, 67, 69
1, 11280, Note_on_c, 0, 67, 0
1, 11280, Note_on_c, 0, 68, 71
1, 11400, Tempo, 452830
1, 11400, Note_on_c, 0, 68, 0
1, 11400, Note_on_c, 0, 70, 73
1, 11520, Tempo, 410369
1, 11520, Note_on_c, 0, 70, 0
1, 11520, Note_on_c, 0, 72, 74
1, 11520, Note_on_c, 0, 36, 60
1, 11520, Control_c, 0, 64, 0
1, 11580, Note_on_c, 0, 36, 0
1, 11580, Note_on_c, 0, 72, 0
1, 11640, Tempo, 423400
1, 11760, Note_on_c, 0, 60, 68
1, 11760, Note_on_c, 0, 48, 55
1, 11820, Note_on_c, 0, 48, 0
1, 11820, Note_on_c, 0, 60, 0
1, 11880, Tempo, 441144
1, 12000, Tempo, 411777
1, 12000, Note_on_c, 0, 72, 75
1, 12000, Note_on_c, 0, 36, 60
1, 12060, Note_on_c, 0, 36, 0
1, 12060, Note_on_c, 0, 72, 0
1, 12120, Tempo, 421911
1, 12240, Note_on_c, 0, 60, 60
1, 12240, Note_on_c, 0, 48, 53
1, 12300, Note_on_c, 0, 48, 0
1, 12300, Note_on_c, 0, 60, 0
1, 12360, Tempo, 437605
1, 12480, Tempo, 423998
1, 12480, Note_on_c, 0, 72, 74
1, 12480, Note_on_c, 0, 36, 60
1, 12540, Note_on_c, 0, 36, 0
1, 12540, Note_on_c, 0, 72, 0
1, 12720, Note_on_c, 0, 60, 60
1, 12720, Note_on_c, 0, 48, 52
1, 12780, Note_on_c, 0, 48, 0
1, 12780, Note_on_c, 0, 60, 0
1, 12840, Tempo, 441144
1, 12960, Tempo, 434122
1, 12960, Note_on_c, 0, 70, 59
1, 12960, Note_on_c, 0, 67, 59
1, 12960, Note_on_c, 0, 36, 49
1, 13020, Note_on_c, 0, 36, 0
1, 13020, Note_on_c, 0, 67, 0
1, 13020, Note_on_c, 0, 70, 0
1, 13200, Tempo, 423998
1, 13200, Note_on_c, 0, 65, 46
1, 13200, Note_on_c, 0, 68, 46
1, 13200, Note_on_c, 0, 48, 43
1, 13257, Control_c, 0, 64, 127
1, 13260, Note_on_c, 0, 48, 0
1, 13320, Note_on_c, 0, 68, 0
1, 13320, Note_on_c, 0, 65, 0
1, 13320, Note_on_c, 0, 64, 46
1, 13320, Note_on_c, 0, 67, 46
1, 13440, Note_on_c, 0, 67, 0
1, 13440, Note_on_c, 0, 64, 0
1, 13440, Note_on_c, 0, 68, 46
1, 13440, Note_on_c, 0, 65, 46
1, 13440, Note_on_c, 0, 36, 43
1, 13500, Note_on_c, 0, 36, 0
1, 13560, Note_on_c, 0, 65, 0
1, 13560, Note_on_c, 0, 68, 0
1, 13560, Note_on_c, 0, 70, 46
1, 13560, Note_on_c, 0, 67, 46
1, 13680, Tempo, 427290
1, 13680, Note_on_c, 0, 67, 0
1, 13680, Note_on_c, 0, 70, 0
1, 13680, Note_on_c, 0, 67, 52
1, 13680, Note_on_c, 0, 64, 52
1, 13680, Note_on_c, 0, 48, 43
1, 13701, Control_c, 0, 64, 0
1, 13740, Note_on_c, 0, 48, 0
1, 13920, Tempo, 437605
1, 13920, Note_on_c, 0, 36, 41
1, 13980, Note_on_c, 0, 36, 0
1, 14160, Note_on_c, 0, 48, 43
1, 14220, Note_on_c, 0, 48, 0
1, 14400, Tempo, 407581
1, 14400, Note_on_c, 0, 64, 0
1, 14400, Note_on_c, 0, 67, 0
1, 14400, Note_on_c, 0, 72, 74
1, 14400, Note_on_c, 0, 36, 60
1, 14400, Control_c, 0, 64, 0
1, 14460, Note_on_c, 0, 36, 0
1, 14460, Note_on_c, 0, 72, 0
1, 14520, Tempo, 420433
1, 14580, Tempo, 421911
1, 14640, Note_on_c, 0, 60, 68
1, 14640, Note_on_c, 0, 48, 55
1, 14700, Note_on_c, 0, 48, 0
1, 14700, Note_on_c, 0, 60, 0
1, 14760, Tempo, 465116
1, 14880, Tempo, 423998
1, 14880, Note_on_c, 0, 72, 75
1, 14880, Note_on_c, 0, 36, 60
1, 15120, Note_on_c, 0, 36, 0
1, 15120, Note_on_c, 0, 72, 0
1, 15120, Note_on_c, 0, 73, 77
1, 15120, Note_on_c, 0, 37, 60
1, 15240, Tempo, 437605
1, 15360, Tempo, 423998
1, 15360, Note_on_c, 0, 37, 0
1, 15360, Note_on_c, 0, 73, 0
1, 15360, Note_on_c, 0, 61, 62
1, 15360, Note_on_c, 0, 49, 49
1, 15420, Note_on_c, 0, 49, 0
1, 15420, Note_on_c, 0, 61, 0
1, 15600, Note_on_c, 0, 73, 74
1, 15600, Note_on_c, 0, 37, 57
1, 15660, Note_on_c, 0, 37, 0
1, 15660, Note_on_c, 0, 73, 0
1, 15720, Tempo, 441144
1, 15840, Tempo, 434122
1, 15840, Note_on_c, 0, 68, 52
1, 15840, Note_on_c, 0, 72, 52
1, 15840, Note_on_c, 0, 36, 49
1, 15900, Note_on_c, 0, 36, 0
1, 15960, Note_on_c, 0, 72, 0
1, 15960, Note_on_c, 0, 68, 0
1, 15960, Note_on_c, 0, 70, 46
1, 15960, Note_on_c, 0, 67, 46
1, 16080, Tempo, 423998
1, 16080, Note_on_c, 0, 67, 0
1, 16080, Note_on_c, 0, 70, 0
1, 16080, Note_on_c, 0, 68, 44
1, 16080, Note_on_c, 0, 65, 44
1, 16080, Note_on_c, 0, 48, 43
1, 16137, Control_c, 0, 64, 127
1, 16140, Note_on_c, 0, 48, 0
1, 16200, Note_on_c, 0, 65, 0
1, 16200, Note_on_c, 0, 68, 0
1, 16200, Note_on_c, 0, 67, 42
1, 16200, Note_on_c, 0, 70, 42
1, 16320, Note_on_c, 0, 70, 0
1, 16320, Note_on_c, 0, 67, 0
1, 16320, Note_on_c, 0, 68, 40
1, 16320, Note_on_c, 0, 65, 40
1, 16320, Note_on_c, 0, 36, 43
1, 16380, Note_on_c, 0, 36, 0
1, 16440, Note_on_c, 0, 65, 0
1, 16440, Note_on_c, 0, 68, 0
1, 16440, Note_on_c, 0, 64, 38
1, 16440, Note_on_c, 0, 67, 38
1, 16560, Tempo, 427290
1, 16560, Note_on_c, 0, 67, 0
1, 16560, Note_on_c, 0, 64, 0
1, 16560, Note_on_c, 0, 65, 49
1, 16560, Note_on_c, 0, 41, 43
1, 16581, Control_c, 0, 64, 0
1, 16800, Tempo, 434122
1, 16800, Note_on_c, 0, 41, 0
1, 16800, Note_on_c, 0, 65, 0
1, 16800, Note_on_c, 0, 77, 74
1, 16872, Control_c, 0, 64, 127
1, 16920, Note_on_c, 0, 77, 0
1, 16920, Note_on_c, 0, 79, 75
1, 17040, Note_on_c, 0, 79, 0
1, 17040, Note_on_c, 0, 80, 78
1, 17160, Note_on_c, 0, 80, 0
1, 17160, Note_on_c, 0, 82, 80
1, 17280, Tempo, 408970
1, 17280, Note_on_c, 0, 82, 0
1, 17280, Note_on_c, 0, 84, 81
1, 17280, Note_on_c, 0, 48, 60
1, 17280, Control_c, 0, 64, 0
1, 17340, Note_on_c, 0, 48, 0
1, 17340, Note_on_c, 0, 84, 0
1, 17400, Tempo, 423400
1, 17520, Note_on_c, 0, 72, 74
1, 17520, Note_on_c, 0, 60, 55
1, 17580, Note_on_c, 0, 60, 0
1, 17580, Note_on_c, 0, 72, 0
1, 17640, Tempo, 441144
1, 17760, Tempo, 414622
1, 17760, Note_on_c, 0, 84, 82
1, 17760, Note_on_c, 0, 48, 60
1, 17820, Note_on_c, 0, 48, 0
1, 17820, Note_on_c, 0, 84, 0
1, 17880, Tempo, 420433
1, 17940, Tempo, 423400
1, 18000, Note_on_c, 0, 72, 66
1, 18000, Note_on_c, 0, 60, 53
1, 18060, Note_on_c, 0, 60, 0
1, 18060, Note_on_c, 0, 72, 0
1, 18120, Tempo, 437605
1, 18240, Tempo, 423998
1, 18240, Note_on_c, 0, 84, 81
1, 18240, Note_on_c, 0, 48, 60
1, 18300, Note_on_c, 0, 48, 0
1, 18300, Note_on_c, 0, 84, 0
1, 18480, Note_on_c, 0, 72, 66
1, 18480, Note_on_c, 0, 60, 52
1, 18540, Note_on_c, 0, 60, 0
1, 18540, Note_on_c, 0, 72, 0
1, 18600, Tempo, 441144
1, 18720, Tempo, 434122
1, 18720, Note_on_c, 0, 82, 64
1, 18720, Note_on_c, 0, 79, 64
1, 18720, Note_on_c, 0, 47, 49
1, 18780, Note_on_c, 0, 47, 0
1, 18780, Note_on_c, 0, 79, 0
1, 18780, Note_on_c, 0, 82, 0
1, 18960, Tempo, 423998
1, 18960, Note_on_c, 0, 80, 50
1, 18960, Note_on_c, 0, 77, 50
1, 18960, Note_on_c, 0, 59, 43
1, 19017, Control_c, 0, 64, 127
1, 19020, Note_on_c, 0, 59, 0
1, 19080, Note_on_c, 0, 77, 0
1, 19080, Note_on_c, 0, 80, 0
1, 19080, Note_on_c, 0, 79, 50
1, 19080, Note_on_c, 0, 76, 50
1, 19200, Note_on_c, 0, 76, 0
1, 19200, Note_on_c, 0, 79, 0
1, 19200, Note_on_c, 0, 80, 50
1, 19200, Note_on_c, 0, 77, 50
1, 19200, Note_on_c, 0, 47, 43
1, 19260, Note_on_c, 0, 47, 0
1, 19320, Note_on_c, 0, 77, 0
1, 19320, Note_on_c, 0, 80, 0
1, 19320, Note_on_c, 0, 82, 50
1, 19320, Note_on_c, 0, 79, 50
1, 19440, Tempo, 427290
1, 19440, Note_on_c, 0, 79, 0
1, 19440, Note_on_c, 0, 82, 0
1, 19440, Note_on_c, 0, 79, 57
1, 19440, Note_on_c, 0, 76, 57
1, 19440, Note_on_c, 0, 60, 43
1, 19461, Control_c, 0, 64, 0
1, 19500, Note_on_c, 0, 60, 0
1, 19680, Tempo, 437605
1, 19680, Note_on_c, 0, 48, 41
1, 19740, Note_on_c, 0, 48, 0
1, 19920, Note_on_c, 0, 60, 43
1, 19980, Note_on_c, 0, 60, 0
1, 20160, Tempo, 413195
1, 20160, Note_on_c, 0, 76, 0
1, 20160, Note_on_c, 0, 79, 0
1, 20160, Note_on_c, 0, 84, 81
1, 20160, Note_on_c, 0, 48, 60
1, 20160, Control_c, 0, 64, 0
1, 20220, Note_on_c, 0, 48, 0
1, 20220, Note_on_c, 0, 84, 0
1, 20280, Tempo, 423400
1, 20400, Note_on_c, 0, 72, 74
1, 20400, Note_on_c, 0, 60, 55
1, 20460, Note_on_c, 0, 60, 0
1, 20460, Note_on_c, 0, 72, 0
1, 20520, Tempo, 441144
1, 20640, Tempo, 423998
1, 20640, Note_on_c, 0, 84, 82
1, 20640, Note_on_c, 0, 48, 60
1, 20880, Tempo, 413195
1, 20880, Note_on_c, 0, 48, 0
1, 20880, Note_on_c, 0, 84, 0
1, 20880, Note_on_c, 0, 85, 84
1, 20880, Note_on_c, 0, 49, 60
1, 21000, Tempo, 437605
1, 21120, Tempo, 423998
1, 21120, Note_on_c, 0, 49, 0
1, 21120, Note_on_c, 0, 85, 0
1, 21120, Note_on_c, 0, 73, 68
1, 21120, Note_on_c, 0, 61, 49
1, 21180, Note_on_c, 0, 61, 0
1, 21180, Note_on_c, 0, 73, 0
1, 21360, Note_on_c, 0, 85, 81
1, 21360, Note_on_c, 0, 49, 57
1, 21420, Note_on_c, 0, 49, 0
1, 21420, Note_on_c, 0, 85, 0
1, 21480, Tempo, 441144
1, 21600, Tempo, 434122
1, 21600, Note_on_c, 0, 73, 52
1, 21600, Note_on_c, 0, 70, 52
1, 21600, Note_on_c, 0, 49, 49
1, 21646, Control_c, 0, 64, 127
1, 21660, Note_on_c, 0, 49, 0
1, 21720, Note_on_c, 0, 70, 0
1, 21720, Note_on_c, 0, 73, 0
1, 21720, Note_on_c, 0, 71, 46
1, 21720, Note_on_c, 0, 68, 46
1, 21840, Tempo, 423998
1, 21840, Note_on_c, 0, 68, 0
1, 21840, Note_on_c, 0, 71, 0
1, 21840, Note_on_c, 0, 70, 44
1, 21840, Note_on_c, 0, 66, 44
1, 21840, Note_on_c, 0, 61, 43
1, 21868, Control_c, 0, 64, 0
1, 21900, Note_on_c, 0, 61, 0
1, 21907, Control_c, 0, 64, 127
1, 21960, Note_on_c, 0, 66, 0
1, 21960, Note_on_c, 0, 70, 0
1, 21960, Note_on_c, 0, 68, 42
1, 21960, Note_on_c, 0, 71, 42
1, 22080, Note_on_c, 0, 71, 0
1, 22080, Note_on_c, 0, 68, 0
1, 22080, Note_on_c, 0, 70, 40
1, 22080, Note_on_c, 0, 66, 40
1, 22080, Note_on_c, 0, 49, 43
1, 22140, Note_on_c, 0, 49, 0
1, 22200, Note_on_c, 0, 66, 0
1, 22200, Note_on_c, 0, 70, 0
1, 22200, Note_on_c, 0, 65, 38
1, 22200, Note_on_c, 0, 68, 38
1, 22320, Tempo, 427290
1, 22320, Note_on_c, 0, 68, 0
1, 22320, Note_on_c, 0, 65, 0
1, 22320, Note_on_c, 0, 66, 46
1, 22320, Note_on_c, 0, 70, 46
1, 22320, Note_on_c, 0, 61, 43
1, 22320, Control_c, 0, 64, 0
1, 22440, Note_on_c, 0, 61, 0
1, 22440, Note_on_c, 0, 70, 0
1, 22440, Note_on_c, 0, 66, 0
1, 22560, Tempo, 437605
1, 22560, Note_on_c, 0, 70, 38
1, 22560, Note_on_c, 0, 66, 38
1, 22560, Note_on_c, 0, 49, 43
1, 22680, Note_on_c, 0, 49, 0
1, 22680, Note_on_c, 0, 66, 0
1, 22680, Note_on_c, 0, 70, 0
1, 22800, Note_on_c, 0, 70, 38
1, 22800, Note_on_c, 0, 66, 38
1, 22800, Note_on_c, 0, 61, 43
1, 22920, Note_on_c, 0, 61, 0
1, 22920, Note_on_c, 0, 66, 0
1, 22920, Note_on_c, 0, 70, 0
1, 23040, Tempo, 434122
1, 23040, Note_on_c, 0, 71, 50
1, 23040, Note_on_c, 0, 65, 42
1, 23040, Note_on_c, 0, 68, 50
1, 23040, Note_on_c, 0, 49, 43
1, 23040, Control_c, 0, 64, 127
1, 23160, Note_on_c, 0, 49, 0
1, 23160, Note_on_c, 0, 71, 0
1, 23160, Note_on_c, 0, 65, 0
1, 23160, Note_on_c, 0, 68, 0
1, 23280, Note_on_c, 0, 68, 51
1, 23280, Note_on_c, 0, 65, 43
1, 23280, Note_on_c, 0, 71, 51
1, 23280, Note_on_c, 0, 61, 43
1, 23400, Note_on_c, 0, 61, 0
1, 23400, Note_on_c, 0, 68, 0
1, 23400, Note_on_c, 0, 65, 0
1, 23400, Note_on_c, 0, 71, 0
1, 23520, Note_on_c, 0, 68, 56
1, 23520, Note_on_c, 0, 71, 56
1, 23520, Note_on_c, 0, 65, 47
1, 23520, Note_on_c, 0, 49, 44
1, 23640, Note_on_c, 0, 49, 0
1, 23640, Note_on_c, 0, 68, 0
1, 23640, Note_on_c, 0, 71, 0
1, 23640, Note_on_c, 0, 65, 0
1, 23760, Tempo, 429000
1, 23760, Note_on_c, 0, 80, 59
1, 23760, Note_on_c, 0, 83, 59
1, 23760, Note_on_c, 0, 77, 50
1, 23760, Note_on_c, 0, 61, 45
1, 23760, Control_c, 0, 64, 0
1, 23851, Control_c, 0, 64, 127
1, 23880, Note_on_c, 0, 61, 0
1, 23880, Note_on_c, 0, 80, 0
1, 23880, Note_on_c, 0, 83, 0
1, 23880, Note_on_c, 0, 77, 0
1, 24000, Note_on_c, 0, 77, 54
1, 24000, Note_on_c, 0, 80, 64
1, 24000, Note_on_c, 0, 83, 64
1, 24000, Note_on_c, 0, 49, 50
1, 24120, Note_on_c, 0, 49, 0
1, 24120, Note_on_c, 0, 77, 0
1, 24120, Note_on_c, 0, 80, 0
1, 24120, Note_on_c, 0, 83, 0
1, 24240, Note_on_c, 0, 83, 70
1, 24240, Note_on_c, 0, 80, 70
1, 24240, Note_on_c, 0, 77, 59
1, 24240, Note_on_c, 0, 61, 51
1, 24360, Tempo, 448397
1, 24360, Note_on_c, 0, 61, 0
1, 24360, Note_on_c, 0, 83, 0
1, 24360, Note_on_c, 0, 80, 0
1, 24360, Note_on_c, 0, 77, 0
1, 24480, Tempo, 429000
1, 24480, Note_on_c, 0, 92, 62
1, 24480, Note_on_c, 0, 96, 74
1, 24480, Note_on_c, 0, 48, 51
1, 24497, Control_c, 0, 64, 0
1, 24577, Control_c, 0, 64, 127
1, 24600, Note_on_c, 0, 48, 0
1, 24600, Note_on_c, 0, 96, 0
1, 24600, Note_on_c, 0, 92, 0
1, 24600, Note_on_c, 0, 94, 66
1, 24600, Note_on_c, 0, 91, 56
1, 24720, Note_on_c, 0, 91, 0
1, 24720, Note_on_c, 0, 94, 0
1, 24720, Note_on_c, 0, 92, 73
1, 24720, Note_on_c, 0, 89, 61
1, 24720, Note_on_c, 0, 60, 53
1, 24840, Note_on_c, 0, 60, 0
1, 24840, Note_on_c, 0, 89, 0
1, 24840, Note_on_c, 0, 92, 0
1, 24840, Note_on_c, 0, 91, 55
1, 24840, Note_on_c, 0, 94, 64
1, 24960, Note_on_c, 0, 94, 0
1, 24960, Note_on_c, 0, 91, 0
1, 24960, Note_on_c, 0, 92, 73
1, 24960, Note_on_c, 0, 89, 61
1, 24960, Note_on_c, 0, 48, 57
1, 25080, Tempo, 457841
1, 25080, Note_on_c, 0, 48, 0
1, 25080, Note_on_c, 0, 89, 0
1, 25080, Note_on_c, 0, 92, 0
1, 25080, Note_on_c, 0, 91, 64
1, 25080, Note_on_c, 0, 88, 55
1, 25200, Tempo, 504202
1, 25200, Note_on_c, 0, 88, 0
1, 25200, Note_on_c, 0, 91, 0
1, 25200, Note_on_c, 0, 89, 73
1, 25200, Note_on_c, 0, 53, 60
1, 25207, Control_c, 0, 64, 0
1, 25320, Note_on_c, 0, 53, 0
1, 25320, Note_on_c, 0, 89, 0
1, 25440, Tempo, 434122
1, 25440, Note_on_c, 0, 65, 68
1, 25512, Control_c, 0, 64, 127
1, 25560, Note_on_c, 0, 65, 0
1, 25560, Note_on_c, 0, 67, 69
1, 25680, Note_on_c, 0, 67, 0
1, 25680, Note_on_c, 0, 68, 71
1, 25800, Note_on_c, 0, 68, 0
1, 25800, Note_on_c, 0, 70, 73
1, 25920, Tempo, 408970
1, 25920, Note_on_c, 0, 70, 0
1, 25920, Note_on_c, 0, 72, 74
1, 25920, Note_on_c, 0, 36, 60
1, 25920, Control_c, 0, 64, 0
1, 25980, Note_on_c, 0, 36, 0
1, 25980, Note_on_c, 0, 72, 0
1, 26040, Tempo, 420433
1, 26160, Note_on_c, 0, 60, 68
1, 26160, Note_on_c, 0, 48, 55
1, 26220, Note_on_c, 0, 48, 0
1, 26220, Note_on_c, 0, 60, 0
1, 26280, Tempo, 441144
1, 26400, Tempo, 413195
1, 26400, Note_on_c, 0, 72, 75
1, 26400, Note_on_c, 0, 36, 60
1, 26460, Note_on_c, 0, 36, 0
1, 26460, Note_on_c, 0, 72, 0
1, 26520, Tempo, 421911
1, 26640, Note_on_c, 0, 60, 60
1, 26640, Note_on_c, 0, 48, 53
1, 26700, Note_on_c, 0, 48, 0
1, 26700, Note_on_c, 0, 60, 0
1, 26760, Tempo, 437605
1, 26880, Tempo, 423998
1, 26880, Note_on_c, 0, 72, 74
1, 26880, Note_on_c, 0, 36, 60
1, 26940, Note_on_c, 0, 36, 0
1, 26940, Note_on_c, 0, 72, 0
1, 27120, Note_on_c, 0, 60, 60
1, 27120, Note_on_c, 0, 48, 52
1, 27180, Note_on_c, 0, 48, 0
1, 27180, Note_on_c, 0, 60, 0
1, 27240, Tempo, 452830
1, 27360, Tempo, 434122
1, 27360, Note_on_c, 0, 67, 59
1, 27360, Note_on_c, 0, 70, 59
1, 27360, Note_on_c, 0, 36, 49
1, 27420, Note_on_c, 0, 36, 0
1, 27420, Note_on_c, 0, 70, 0
1, 27420, Note_on_c, 0, 67, 0
1, 27600, Tempo, 423998
1, 27600, Note_on_c, 0, 65, 46
1, 27600, Note_on_c, 0, 68, 46
1, 27600, Note_on_c, 0, 48, 43
1, 27657, Control_c, 0, 64, 127
1, 27660, Note_on_c, 0, 48, 0
1, 27720, Note_on_c, 0, 68, 0
1, 27720, Note_on_c, 0, 65, 0
1, 27720, Note_on_c, 0, 67, 46
1, 27720, Note_on_c, 0, 64, 46
1, 27840, Note_on_c, 0, 64, 0
1, 27840, Note_on_c, 0, 67, 0
1, 27840, Note_on_c, 0, 68, 46
1, 27840, Note_on_c, 0, 65, 46
1, 27840, Note_on_c, 0, 36, 43
1, 27900, Note_on_c, 0, 36, 0
1, 27960, Note_on_c, 0, 65, 0
1, 27960, Note_on_c, 0, 68, 0
1, 27960, Note_on_c, 0, 67, 46
1, 27960, Note_on_c, 0, 70, 46
1, 28080, Tempo, 427290
1, 28080, Note_on_c, 0, 70, 0
1, 28080, Note_on_c, 0, 67, 0
1, 28080, Note_on_c, 0, 64, 52
1, 28080, Note_on_c, 0, 67, 52
1, 28080, Note_on_c, 0, 48, 43
1, 28101, Control_c, 0, 64, 0
1, 28140, Note_on_c, 0, 48, 0
1, 28320, Tempo, 437605
1, 28320, Note_on_c, 0, 36, 41
1, 28380, Note_on_c, 0, 36, 0
1, 28560, Note_on_c, 0, 48, 43
1, 28620, Note_on_c, 0, 48, 0
1, 28800, Tempo, 413195
1, 28800, Note_on_c, 0, 67, 0
1, 28800, Note_on_c, 0, 64, 0
1, 28800, Note_on_c, 0, 72, 74
1, 28800, Note_on_c, 0, 36, 60
1, 28800, Control_c, 0, 64, 0
1, 28860, Note_on_c, 0, 36, 0
1, 28860, Note_on_c, 0, 72, 0
1, 28920, Tempo, 423400
1, 29040, Note_on_c, 0, 60, 68
1, 29040, Note_on_c, 0, 48, 55
1, 29100, Note_on_c, 0, 48, 0
1, 29100, Note_on_c, 0, 60, 0
1, 29160, Tempo, 449438
1, 29280, Tempo, 423998
1, 29280, Note_on_c, 0, 72, 75
1, 29280, Note_on_c, 0, 36, 60
1, 29520, Note_on_c, 0, 36, 0
1, 29520, Note_on_c, 0, 72, 0
1, 29520, Note_on_c, 0, 73, 77
1, 29520, Note_on_c, 0, 37, 60
1, 29640, Tempo, 437605
1, 29760, Tempo, 423998
1, 29760, Note_on_c, 0, 37, 0
1, 29760, Note_on_c, 0, 73, 0
1, 29760, Note_on_c, 0, 61, 62
1, 29760, Note_on_c, 0, 49, 49
1, 29820, Note_on_c, 0, 49, 0
1, 29820, Note_on_c, 0, 61, 0
1, 30000, Note_on_c, 0, 73, 74
1, 30000, Note_on_c, 0, 37, 57
1, 30060, Note_on_c, 0, 37, 0
1, 30060, Note_on_c, 0, 73, 0
1, 30120, Tempo, 441144
1, 30240, Tempo, 434122
1, 30240, Note_on_c, 0, 68, 52
1, 30240, Note_on_c, 0, 72, 52
1, 30240, Note_on_c, 0, 36, 49
1, 30300, Note_on_c, 0, 36, 0
1, 30360, Note_on_c, 0, 72, 0
1, 30360, Note_on_c, 0, 68, 0
1, 30360, Note_on_c, 0, 70, 46
1, 30360, Note_on_c, 0, 67, 46
1, 30480, Tempo, 423998
1, 30480, Note_on_c, 0, 67, 0
1, 30480, Note_on_c, 0, 70, 0
1, 30480, Note_on_c, 0, 68, 44
1, 30480, Note_on_c, 0, 65, 44
1, 30480, Note_on_c, 0, 48, 43
1, 30537, Control_c, 0, 64, 127
1, 30540, Note_on_c, 0, 48, 0
1, 30600, Note_on_c, 0, 65, 0
1, 30600, Note_on_c, 0, 68, 0
1, 30600, Note_on_c, 0, 67, 42
1, 30600, Note_on_c, 0, 70, 42
1, 30720, Note_on_c, 0, 70, 0
1, 30720, Note_on_c, 0, 67, 0
1, 30720, Note_on_c, 0, 65, 40
1, 30720, Note_on_c, 0, 68, 40
1, 30720, Note_on_c, 0, 36, 43
1, 30780, Note_on_c, 0, 36, 0
1, 30840, Note_on_c, 0, 68, 0
1, 30840, Note_on_c, 0, 65, 0
1, 30840, Note_on_c, 0, 67, 38
1, 30840, Note_on_c, 0, 64, 38
1, 30960, Tempo, 427290
1, 30960, Note_on_c, 0, 64, 0
1, 30960, Note_on_c, 0, 67, 0
1, 30960, Note_on_c, 0, 65, 49
1, 30960, Note_on_c, 0, 41, 43
1, 30981, Control_c, 0, 64, 0
1, 31080, Tempo, 456274
1, 31200, Tempo, 434122
1, 31200, Note_on_c, 0, 41, 0
1, 31200, Note_on_c, 0, 65, 0
1, 31200, Note_on_c, 0, 77, 74
1, 31272, Control_c, 0, 64, 127
1, 31320, Note_on_c, 0, 77, 0
1, 31320, Note_on_c, 0, 79, 75
1, 31440, Note_on_c, 0, 79, 0
1, 31440, Note_on_c, 0, 80, 78
1, 31560, Note_on_c, 0, 80, 0
1, 31560, Note_on_c, 0, 82, 80
1, 31680, Tempo, 413195
1, 31680, Note_on_c, 0, 82, 0
1, 31680, Note_on_c, 0, 84, 81
1, 31680, Note_on_c, 0, 48, 60
1, 31680, Control_c, 0, 64, 0
1, 31740, Note_on_c, 0, 48, 0
1, 31740, Note_on_c, 0, 84, 0
1, 31800, Tempo, 423400
1, 31920, Note_on_c, 0, 72, 74
1, 31920, Note_on_c, 0, 60, 55
1, 31980, Note_on_c, 0, 60, 0
1, 31980, Note_on_c, 0, 72, 0
1, 32040, Tempo, 441144
1, 32160, Tempo, 416060
1, 32160, Note_on_c, 0, 84, 82
1, 32160, Note_on_c, 0, 48, 60
1, 32220, Note_on_c, 0, 48, 0
1, 32220, Note_on_c, 0, 84, 0
1, 32280, Tempo, 423400
1, 32400, Note_on_c, 0, 72, 66
1, 32400, Note_on_c, 0, 60, 53
1, 32460, Note_on_c, 0, 60, 0
1, 32460, Note_on_c, 0, 72, 0
1, 32520, Tempo, 437605
1, 32640, Tempo, 423998
1, 32640, Note_on_c, 0, 84, 81
1, 32640, Note_on_c, 0, 48, 60
1, 32700, Note_on_c, 0, 48, 0
1, 32700, Note_on_c, 0, 84, 0
1, 32880, Note_on_c, 0, 72, 66
1, 32880, Note_on_c, 0, 60, 52
1, 32940, Note_on_c, 0, 60, 0
1, 32940, Note_on_c, 0, 72, 0
1, 33000, Tempo, 441144
1, 33120, Tempo, 434122
1, 33120, Note_on_c, 0, 82, 64
1, 33120, Note_on_c, 0, 79, 64
1, 33120, Note_on_c, 0, 47, 49
1, 33180, Note_on_c, 0, 47, 0
1, 33180, Note_on_c, 0, 79, 0
1, 33180, Note_on_c, 0, 82, 0
1, 33360, Tempo, 423998
1, 33360, Note_on_c, 0, 77, 50
1, 33360, Note_on_c, 0, 80, 50
1, 33360, Note_on_c, 0, 59, 43
1, 33417, Control_c, 0, 64, 127
1, 33420, Note_on_c, 0, 59, 0
1, 33480, Note_on_c, 0, 80, 0
1, 33480, Note_on_c, 0, 77, 0
1, 33480, Note_on_c, 0, 79, 50
1, 33480, Note_on_c, 0, 76, 50
1, 33600, Note_on_c, 0, 76, 0
1, 33600, Note_on_c, 0, 79, 0
1, 33600, Note_on_c, 0, 77, 50
1, 33600, Note_on_c, 0, 80, 50
1, 33600, Note_on_c, 0, 47, 43
1, 33660, Note_on_c, 0, 47, 0
1, 33720, Note_on_c, 0, 80, 0
1, 33720, Note_on_c, 0, 77, 0
1, 33720, Note_on_c, 0, 79, 50
1, 33720, Note_on_c, 0, 82, 50
1, 33840, Tempo, 427290
1, 33840, Note_on_c, 0, 82, 0
1, 33840, Note_on_c, 0, 79, 0
1, 33840, Note_on_c, 0, 79, 57
1, 33840, Note_on_c, 0, 76, 57
1, 33840, Note_on_c, 0, 60, 43
1, 33861, Control_c, 0, 64, 0
1, 33900, Note_on_c, 0, 60, 0
1, 34080, Tempo, 437605
1, 34080, Note_on_c, 0, 48, 41
1, 34140, Note_on_c, 0, 48, 0
1, 34320, Note_on_c, 0, 60, 43
1, 34380, Note_on_c, 0, 60, 0
1, 34440, Tempo, 449438
1, 34560, Tempo, 413195
1, 34560, Note_on_c, 0, 76, 0
1, 34560, Note_on_c, 0, 79, 0
1, 34560, Note_on_c, 0, 84, 81
1, 34560, Note_on_c, 0, 48, 60
1, 34560, Control_c, 0, 64, 0
1, 34620, Note_on_c, 0, 48, 0
1, 34620, Note_on_c, 0, 84, 0
1, 34680, Tempo, 424899
1, 34800, Note_on_c, 0, 72, 74
1, 34800, Note_on_c, 0, 60, 55
1, 34860, Note_on_c, 0, 60, 0
1, 34860, Note_on_c, 0, 72, 0
1, 34920, Tempo, 441144
1, 35040, Tempo, 423998
1, 35040, Note_on_c, 0, 84, 82
1, 35040, Note_on_c, 0, 48, 60
1, 35280, Note_on_c, 0, 48, 0
1, 35280, Note_on_c, 0, 84, 0
1, 35280, Note_on_c, 0, 85, 84
1, 35280, Note_on_c, 0, 49, 60
1, 35400, Tempo, 437605
1, 35520, Tempo, 423998
1, 35520, Note_on_c, 0, 49, 0
1, 35520, Note_on_c, 0, 85, 0
1, 35520, Note_on_c, 0, 73, 68
1, 35520, Note_on_c, 0, 61, 49
1, 35580, Note_on_c, 0, 61, 0
1, 35580, Note_on_c, 0, 73, 0
1, 35760, Note_on_c, 0, 85, 81
1, 35760, Note_on_c, 0, 49, 57
1, 35820, Note_on_c, 0, 49, 0
1, 35820, Note_on_c, 0, 85, 0
1, 35880, Tempo, 441144
1, 36000, Tempo, 434122
1, 36000, Note_on_c, 0, 73, 52
1, 36000, Note_on_c, 0, 70, 52
1, 36000, Note_on_c, 0, 49, 49
1, 36046, Control_c, 0, 64, 127
1, 36060, Note_on_c, 0, 49, 0
1, 36120, Note_on_c, 0, 70, 0
1, 36120, Note_on_c, 0, 73, 0
1, 36120, Note_on_c, 0, 68, 46
1, 36120, Note_on_c, 0, 71, 46
1, 36240, Tempo, 423998
1, 36240, Note_on_c, 0, 71, 0
1, 36240, Note_on_c, 0, 68, 0
1, 36240, Note_on_c, 0, 66, 44
1, 36240, Note_on_c, 0, 70, 44
1, 36240, Note_on_c, 0, 61, 43
1, 36268, Control_c, 0, 64, 0
1, 36300, Note_on_c, 0, 61, 0
1, 36307, Control_c, 0, 64, 127
1, 36360, Note_on_c, 0, 70, 0
1, 36360, Note_on_c, 0, 66, 0
1, 36360, Note_on_c, 0, 68, 42
1, 36360, Note_on_c, 0, 71, 42
1, 36480, Note_on_c, 0, 71, 0
1, 36480, Note_on_c, 0, 68, 0
1, 36480, Note_on_c, 0, 66, 40
1, 36480, Note_on_c, 0, 70, 40
1, 36480, Note_on_c, 0, 49, 43
1, 36540, Note_on_c, 0, 49, 0
1, 36600, Note_on_c, 0, 70, 0
1, 36600, Note_on_c, 0, 66, 0
1, 36600, Note_on_c, 0, 68, 38
1, 36600, Note_on_c, 0, 65, 38
1, 36720, Tempo, 427290
1, 36720, Note_on_c, 0, 65, 0
1, 36720, Note_on_c, 0, 68, 0
1, 36720, Note_on_c, 0, 66, 46
1, 36720, Note_on_c, 0, 70, 46
1, 36720, Note_on_c, 0, 61, 43
1, 36720, Control_c, 0, 64, 0
1, 36840, Note_on_c, 0, 61, 0
1, 36840, Note_on_c, 0, 70, 0
1, 36840, Note_on_c, 0, 66, 0
1, 36960, Tempo, 437605
1, 36960, Note_on_c, 0, 66, 38
1, 36960, Note_on_c, 0, 70, 38
1, 36960, Note_on_c, 0, 49, 43
1, 37080, Note_on_c, 0, 49, 0
1, 37080, Note_on_c, 0, 70, 0
1, 37080, Note_on_c, 0, 66, 0
1, 37200, Note_on_c, 0, 70, 38
1, 37200, Note_on_c, 0, 66, 38
1, 37200, Note_on_c, 0, 61, 43
1, 37320, Note_on_c, 0, 61, 0
1, 37320, Note_on_c, 0, 66, 0
1, 37320, Note_on_c, 0, 70, 0
1, 37440, Tempo, 434122
1, 37440, Note_on_c, 0, 71, 50
1, 37440, Note_on_c, 0, 68, 50
1, 37440, Note_on_c, 0, 65, 42
1, 37440, Note_on_c, 0, 49, 43
1, 37440, Control_c, 0, 64, 127
1, 37560, Note_on_c, 0, 49, 0
1, 37560, Note_on_c, 0, 71, 0
1, 37560, Note_on_c, 0, 68, 0
1, 37560, Note_on_c, 0, 65, 0
1, 37680, Note_on_c, 0, 68, 51
1, 37680, Note_on_c, 0, 71, 51
1, 37680, Note_on_c, 0, 65, 43
1, 37680, Note_on_c, 0, 61, 43
1, 37800, Note_on_c, 0, 61, 0
1, 37800, Note_on_c, 0, 68, 0
1, 37800, Note_on_c, 0, 71, 0
1, 37800, Note_on_c, 0, 65, 0
1, 37920, Note_on_c, 0, 68, 56
1, 37920, Note_on_c, 0, 71, 56
1, 37920, Note_on_c, 0, 65, 47
1, 37920, Note_on_c, 0, 49, 44
1, 38040, Note_on_c, 0, 49, 0
1, 38040, Note_on_c, 0, 68, 0
1, 38040, Note_on_c, 0, 71, 0
1, 38040, Note_on_c, 0, 65, 0
1, 38160, Tempo, 429000
1, 38160, Note_on_c, 0, 83, 59
1, 38160, Note_on_c, 0, 80, 59
1, 38160, Note_on_c, 0, 77, 50
1, 38160, Note_on_c, 0, 61, 45
1, 38160, Control_c, 0, 64, 0
1, 38251, Control_c, 0, 64, 127
1, 38280, Note_on_c, 0, 61, 0
1, 38280, Note_on_c, 0, 83, 0
1, 38280, Note_on_c, 0, 80, 0
1, 38280, Note_on_c, 0, 77, 0
1, 38400, Note_on_c, 0, 83, 64
1, 38400, Note_on_c, 0, 80, 64
1, 38400, Note_on_c, 0, 77, 54
1, 38400, Note_on_c, 0, 49, 50
1, 38520, Note_on_c, 0, 49, 0
1, 38520, Note_on_c, 0, 83, 0
1, 38520, Note_on_c, 0, 80, 0
1, 38520, Note_on_c, 0, 77, 0
1, 38640, Note_on_c, 0, 77, 59
1, 38640, Note_on_c, 0, 80, 70
1, 38640, Note_on_c, 0, 83, 70
1, 38640, Note_on_c, 0, 61, 51
1, 38760, Tempo, 448397
1, 38760, Note_on_c, 0, 61, 0
1, 38760, Note_on_c, 0, 77, 0
1, 38760, Note_on_c, 0, 80, 0
1, 38760, Note_on_c, 0, 83, 0
1, 38880, Tempo, 420433
1, 38880, Note_on_c, 0, 96, 74
1, 38880, Note_on_c, 0, 92, 62
1, 38880, Note_on_c, 0, 48, 51
1, 38897, Control_c, 0, 64, 0
1, 38977, Control_c, 0, 64, 127
1, 39000, Note_on_c, 0, 48, 0
1, 39000, Note_on_c, 0, 92, 0
1, 39000, Note_on_c, 0, 96, 0
1, 39000, Note_on_c, 0, 94, 66
1, 39000, Note_on_c, 0, 91, 56
1, 39120, Tempo, 426409
1, 39120, Note_on_c, 0, 91, 0
1, 39120, Note_on_c, 0, 94, 0
1, 39120, Note_on_c, 0, 92, 73
1, 39120, Note_on_c, 0, 89, 61
1, 39120, Note_on_c, 0, 60, 53
1, 39240, Note_on_c, 0, 60, 0
1, 39240, Note_on_c, 0, 89, 0
1, 39240, Note_on_c, 0, 92, 0
1, 39240, Note_on_c, 0, 91, 55
1, 39240, Note_on_c, 0, 94, 64
1, 39360, Note_on_c, 0, 94, 0
1, 39360, Note_on_c, 0, 91, 0
1, 39360, Note_on_c, 0, 89, 61
1, 39360, Note_on_c, 0, 92, 73
1, 39360, Note_on_c, 0, 48, 57
1, 39480, Tempo, 457841
1, 39480, Note_on_c, 0, 48, 0
1, 39480, Note_on_c, 0, 92, 0
1, 39480, Note_on_c, 0, 89, 0
1, 39480, Note_on_c, 0, 91, 64
1, 39480, Note_on_c, 0, 88, 55
1, 39600, Tempo, 434122
1, 39600, Note_on_c, 0, 88, 0
1, 39600, Note_on_c, 0, 91, 0
1, 39600, Note_on_c, 0, 89, 73
1, 39600, Note_on_c, 0, 53, 60
1, 39607, Control_c, 0, 64, 0
1, 39720, Note_on_c, 0, 53, 0
1, 39720, Note_on_c, 0, 89, 0
1, 39833, Control_c, 0, 64, 127
1, 39840, Tempo, 435856
1, 39840, Note_on_c, 0, 91, 73
1, 39840, Note_on_c, 0, 61, 51
1, 39840, Note_on_c, 0, 53, 51
1, 39840, Note_on_c, 0, 58, 51
1, 39840, Note_on_c, 0, 64, 61
1, 39844, Tempo, 434122
1, 39850, Tempo, 427290
1, 39886, Tempo, 429000
1, 39892, Tempo, 430694
1, 39898, Tempo, 441144
1, 39900, Note_on_c, 0, 91, 0
1, 39900, Note_on_c, 0, 92, 67
1, 39923, Tempo, 430694
1, 39929, Tempo, 429000
1, 39941, Tempo, 427290
1, 39953, Tempo, 425622
1, 39960, Note_on_c, 0, 92, 0
1, 39960, Note_on_c, 0, 91, 58
1, 39971, Tempo, 427290
1, 39977, Tempo, 429000
1, 39983, Tempo, 430694
1, 39995, Tempo, 432401
1, 40020, Tempo, 425622
1, 40020, Note_on_c, 0, 91, 0
1, 40020, Note_on_c, 0, 92, 54
1, 40032, Tempo, 427290
1, 40038, Tempo, 429000
1, 40044, Tempo, 432401
1, 40080, Note_on_c, 0, 92, 0
1, 40080, Note_on_c, 0, 91, 58
1, 40081, Tempo, 430694
1, 40140, Tempo, 434122
1, 40140, Note_on_c, 0, 91, 0
1, 40140, Note_on_c, 0, 92, 52
1, 40178, Tempo, 432401
1, 40200, Note_on_c, 0, 92, 0
1, 40200, Note_on_c, 0, 91, 58
1, 40216, Tempo, 430694
1, 40255, Tempo, 429000
1, 40260, Note_on_c, 0, 91, 0
1, 40260, Note_on_c, 0, 92, 52
1, 40293, Tempo, 427290
1, 40311, Tempo, 427290
1, 40320, Note_on_c, 0, 92, 0
1, 40320, Note_on_c, 0, 91, 58
1, 40366, Tempo, 425622
1, 40380, Note_on_c, 0, 91, 0
1, 40380, Note_on_c, 0, 92, 52
1, 40421, Tempo, 423998
1, 40440, Note_on_c, 0, 92, 0
1, 40440, Note_on_c, 0, 91, 58
1, 40475, Tempo, 422357
1, 40520, Note_on_c, 0, 91, 0
1, 40520, Note_on_c, 0, 92, 54
1, 40530, Tempo, 420698
1, 40533, Tempo, 423998
1, 40581, Tempo, 425622
1, 40600, Note_on_c, 0, 92, 0
1, 40600, Note_on_c, 0, 91, 58
1, 40620, Tempo, 427290
1, 40658, Tempo, 429000
1, 40680, Note_on_c, 0, 91, 0
1, 40680, Note_on_c, 0, 90, 54
1, 40706, Tempo, 430694
1, 40740, Note_on_c, 0, 90, 0
1, 40740, Note_on_c, 0, 91, 56
1, 40744, Tempo, 432401
1, 40783, Tempo, 434122
1, 40800, Tempo, 432401
1, 40800, Note_on_c, 0, 91, 0
1, 40800, Note_on_c, 0, 92, 69
1, 40812, Control_c, 0, 64, 0
1, 40875, Control_c, 0, 64, 127
1, 40920, Note_on_c, 0, 92, 0
1, 40920, Note_on_c, 0, 91, 61
1, 41040, Note_on_c, 0, 91, 0
1, 41040, Note_on_c, 0, 58, 0
1, 41040, Note_on_c, 0, 61, 0
1, 41040, Note_on_c, 0, 53, 0
1, 41040, Note_on_c, 0, 64, 0
1, 41040, Note_on_c, 0, 89, 81
1, 41040, Note_on_c, 0, 60, 52
1, 41040, Note_on_c, 0, 53, 52
1, 41040, Note_on_c, 0, 65, 62
1, 41040, Note_on_c, 0, 56, 52
1, 41067, Control_c, 0, 64, 0
1, 41160, Note_on_c, 0, 56, 0
1, 41160, Note_on_c, 0, 53, 0
1, 41160, Note_on_c, 0, 89, 0
1, 41160, Note_on_c, 0, 60, 0
1, 41160, Note_on_c, 0, 65, 0
1, 41280, Tempo, 435856
1, 41280, Note_on_c, 0, 79, 73
1, 41280, Note_on_c, 0, 53, 51
1, 41280, Note_on_c, 0, 64, 61
1, 41280, Note_on_c, 0, 61, 51
1, 41280, Note_on_c, 0, 58, 51
1, 41284, Tempo, 434122
1, 41285, Tempo, 439560
1, 41293, Tempo, 437956
1, 41323, Control_c, 0, 64, 127
1, 41331, Tempo, 439560
1, 41340, Note_on_c, 0, 79, 0
1, 41340, Note_on_c, 0, 80, 67
1, 41346, Tempo, 442804
1, 41361, Tempo, 444444
1, 41377, Tempo, 436364
1, 41400, Note_on_c, 0, 80, 0
1, 41400, Note_on_c, 0, 79, 58
1, 41430, Tempo, 439560
1, 41445, Tempo, 442804
1, 41460, Tempo, 434783
1, 41460, Note_on_c, 0, 79, 0
1, 41460, Note_on_c, 0, 80, 54
1, 41520, Note_on_c, 0, 80, 0
1, 41520, Note_on_c, 0, 79, 58
1, 41559, Tempo, 441176
1, 41567, Tempo, 442804
1, 41575, Tempo, 441176
1, 41580, Note_on_c, 0, 79, 0
1, 41580, Note_on_c, 0, 80, 52
1, 41613, Tempo, 439560
1, 41640, Note_on_c, 0, 80, 0
1, 41640, Note_on_c, 0, 79, 58
1, 41643, Tempo, 437956
1, 41681, Tempo, 436364
1, 41700, Note_on_c, 0, 79, 0
1, 41700, Note_on_c, 0, 80, 52
1, 41712, Tempo, 434783
1, 41742, Tempo, 433213
1, 41760, Note_on_c, 0, 80, 0
1, 41760, Note_on_c, 0, 79, 58
1, 41780, Tempo, 431655
1, 41811, Tempo, 430108
1, 41820, Note_on_c, 0, 79, 0
1, 41820, Note_on_c, 0, 80, 52
1, 41841, Tempo, 428571
1, 41879, Tempo, 427046
1, 41880, Note_on_c, 0, 80, 0
1, 41880, Note_on_c, 0, 79, 58
1, 41910, Tempo, 425532
1, 41933, Tempo, 424028
1, 41960, Note_on_c, 0, 79, 0
1, 41960, Note_on_c, 0, 80, 54
1, 41963, Tempo, 425532
1, 41986, Tempo, 427046
1, 42017, Tempo, 428571
1, 42039, Tempo, 430108
1, 42040, Note_on_c, 0, 80, 0
1, 42040, Note_on_c, 0, 79, 58
1, 42062, Tempo, 431655
1, 42093, Tempo, 433213
1, 42116, Tempo, 434783
1, 42120, Note_on_c, 0, 79, 0
1, 42120, Note_on_c, 0, 78, 54
1, 42138, Tempo, 436364
1, 42169, Tempo, 437956
1, 42180, Note_on_c, 0, 78, 0
1, 42180, Note_on_c, 0, 79, 56
1, 42192, Tempo, 439560
1, 42215, Tempo, 441176
1, 42223, Tempo, 434122
1, 42240, Tempo, 432401
1, 42240, Note_on_c, 0, 79, 0
1, 42240, Note_on_c, 0, 80, 69
1, 42252, Control_c, 0, 64, 0
1, 42315, Control_c, 0, 64, 127
1, 42360, Note_on_c, 0, 80, 0
1, 42360, Note_on_c, 0, 79, 63
1, 42480, Note_on_c, 0, 79, 0
1, 42480, Note_on_c, 0, 61, 0
1, 42480, Note_on_c, 0, 53, 0
1, 42480, Note_on_c, 0, 64, 0
1, 42480, Note_on_c, 0, 58, 0
1, 42480, Note_on_c, 0, 77, 81
1, 42480, Note_on_c, 0, 53, 52
1, 42480, Note_on_c, 0, 60, 52
1, 42480, Note_on_c, 0, 65, 62
1, 42480, Note_on_c, 0, 56, 52
1, 42507, Control_c, 0, 64, 0
1, 42600, Note_on_c, 0, 56, 0
1, 42600, Note_on_c, 0, 60, 0
1, 42600, Note_on_c, 0, 77, 0
1, 42600, Note_on_c, 0, 53, 0
1, 42600, Note_on_c, 0, 65, 0
1, 42720, Tempo, 435856
1, 42720, Note_on_c, 0, 91, 73
1, 42720, Note_on_c, 0, 61, 51
1, 42720, Note_on_c, 0, 58, 51
1, 42720, Note_on_c, 0, 64, 61
1, 42720, Note_on_c, 0, 53, 51
1, 42724, Tempo, 434122
1, 42730, Tempo, 427290
1, 42766, Tempo, 429000
1, 42772, Tempo, 430694
1, 42778, Tempo, 441144
1, 42780, Note_on_c, 0, 91, 0
1, 42780, Note_on_c, 0, 92, 67
1, 42803, Tempo, 430694
1, 42809, Tempo, 429000
1, 42821, Tempo, 427290
1, 42833, Tempo, 425622
1, 42840, Note_on_c, 0, 92, 0
1, 42840, Note_on_c, 0, 91, 58
1, 42851, Tempo, 427290
1, 42857, Tempo, 429000
1, 42863, Tempo, 430694
1, 42875, Tempo, 432401
1, 42900, Tempo, 425622
1, 42900, Note_on_c, 0, 91, 0
1, 42900, Note_on_c, 0, 92, 54
1, 42912, Tempo, 427290
1, 42918, Tempo, 429000
1, 42924, Tempo, 432401
1, 42960, Note_on_c, 0, 92, 0
1, 42960, Note_on_c, 0, 91, 58
1, 42961, Tempo, 430694
1, 43020, Tempo, 434122
1, 43020, Note_on_c, 0, 91, 0
1, 43020, Note_on_c, 0, 92, 52
1, 43058, Tempo, 432401
1, 43080, Note_on_c, 0, 92, 0
1, 43080, Note_on_c, 0, 91, 58
1, 43096, Tempo, 430694
1, 43135, Tempo, 429000
1, 43140, Note_on_c, 0, 91, 0
1, 43140, Note_on_c, 0, 92, 52
1, 43172, Tempo, 437605
1, 43188, Tempo, 448397
1, 43197, Tempo, 451128
1, 43200, Note_on_c, 0, 92, 0
1, 43200, Note_on_c, 0, 90, 58
1, 43228, Tempo, 449438
1, 43258, Tempo, 447761
1, 43260, Note_on_c, 0, 90, 0
1, 43260, Note_on_c, 0, 91, 53
1, 43281, Tempo, 446097
1, 43312, Tempo, 444444
1, 43320, Note_on_c, 0, 91, 0
1, 43320, Note_on_c, 0, 92, 54
1, 43335, Tempo, 442804
1, 43365, Tempo, 441176
1, 43380, Note_on_c, 0, 92, 0
1, 43380, Note_on_c, 0, 94, 56
1, 43388, Tempo, 439560
1, 43418, Tempo, 437956
1, 43434, Tempo, 434783
1, 43440, Note_on_c, 0, 94, 0
1, 43440, Note_on_c, 0, 96, 57
1, 43472, Tempo, 436364
1, 43500, Note_on_c, 0, 96, 0
1, 43500, Note_on_c, 0, 97, 58
1, 43502, Tempo, 437956
1, 43533, Tempo, 439560
1, 43560, Note_on_c, 0, 97, 0
1, 43560, Note_on_c, 0, 100, 60
1, 43563, Tempo, 441176
1, 43594, Tempo, 442804
1, 43620, Note_on_c, 0, 100, 0
1, 43620, Note_on_c, 0, 101, 62
1, 43624, Tempo, 444444
1, 43655, Tempo, 446097
1, 43680, Note_on_c, 0, 101, 0
1, 43680, Note_on_c, 0, 100, 63
1, 43693, Tempo, 447761
1, 43720, Note_on_c, 0, 100, 0
1, 43720, Note_on_c, 0, 97, 62
1, 43723, Tempo, 449438
1, 43754, Tempo, 451128
1, 43760, Note_on_c, 0, 97, 0
1, 43761, Note_on_c, 0, 96, 61
1, 43784, Tempo, 452830
1, 43801, Note_on_c, 0, 96, 0
1, 43801, Note_on_c, 0, 94, 61
1, 43815, Tempo, 454545
1, 43840, Note_on_c, 0, 92, 60
1, 43841, Note_on_c, 0, 94, 0
1, 43845, Tempo, 456274
1, 43876, Tempo, 458015
1, 43880, Note_on_c, 0, 92, 0
1, 43880, Note_on_c, 0, 91, 59
1, 43906, Tempo, 458015
1, 43920, Note_on_c, 0, 91, 0
1, 43920, Note_on_c, 0, 64, 0
1, 43920, Note_on_c, 0, 61, 0
1, 43920, Note_on_c, 0, 58, 0
1, 43920, Note_on_c, 0, 53, 0
1, 43920, Note_on_c, 0, 89, 81
1, 43920, Note_on_c, 0, 56, 52
1, 43920, Note_on_c, 0, 53, 52
1, 43920, Note_on_c, 0, 60, 52
1, 43920, Note_on_c, 0, 65, 62
1, 43947, Control_c, 0, 64, 0
1, 44040, Note_on_c, 0, 65, 0
1, 44040, Note_on_c, 0, 53, 0
1, 44040, Note_on_c, 0, 89, 0
1, 44040, Note_on_c, 0, 56, 0
1, 44040, Note_on_c, 0, 60, 0
1, 44160, Tempo, 435856
1, 44160, Note_on_c, 0, 79, 73
1, 44160, Note_on_c, 0, 53, 51
1, 44160, Note_on_c, 0, 58, 51
1, 44160, Note_on_c, 0, 61, 51
1, 44160, Note_on_c, 0, 64, 61
1, 44164, Tempo, 434122
1, 44170, Tempo, 427290
1, 44206, Tempo, 429000
1, 44212, Tempo, 430694
1, 44218, Tempo, 441144
1, 44220, Note_on_c, 0, 79, 0
1, 44220, Note_on_c, 0, 80, 53
1, 44220, Control_c, 0, 64, 127
1, 44243, Tempo, 430694
1, 44249, Tempo, 429000
1, 44261, Tempo, 427290
1, 44273, Tempo, 425622
1, 44280, Note_on_c, 0, 80, 0
1, 44280, Note_on_c, 0, 79, 58
1, 44291, Tempo, 427290
1, 44297, Tempo, 429000
1, 44303, Tempo, 430694
1, 44315, Tempo, 432401
1, 44340, Tempo, 425622
1, 44340, Note_on_c, 0, 79, 0
1, 44340, Note_on_c, 0, 80, 54
1, 44352, Tempo, 427290
1, 44358, Tempo, 429000
1, 44364, Tempo, 432401
1, 44400, Note_on_c, 0, 80, 0
1, 44400, Note_on_c, 0, 79, 58
1, 44401, Tempo, 430694
1, 44460, Tempo, 434122
1, 44460, Note_on_c, 0, 79, 0
1, 44460, Note_on_c, 0, 80, 52
1, 44492, Tempo, 439367
1, 44520, Note_on_c, 0, 80, 0
1, 44520, Note_on_c, 0, 79, 58
1, 44540, Tempo, 437605
1, 44580, Note_on_c, 0, 79, 0
1, 44580, Note_on_c, 0, 80, 52
1, 44588, Tempo, 435856
1, 44624, Tempo, 434122
1, 44628, Tempo, 455927
1, 44640, Note_on_c, 0, 80, 0
1, 44640, Note_on_c, 0, 78, 58
1, 44654, Tempo, 463320
1, 44682, Tempo, 461538
1, 44688, Note_on_c, 0, 78, 0
1, 44688, Note_on_c, 0, 79, 53
1, 44702, Tempo, 459770
1, 44721, Tempo, 458015
1, 44736, Note_on_c, 0, 79, 0
1, 44736, Note_on_c, 0, 80, 54
1, 44740, Tempo, 456274
1, 44759, Tempo, 454545
1, 44778, Tempo, 452830
1, 44784, Note_on_c, 0, 80, 0
1, 44784, Note_on_c, 0, 82, 56
1, 44798, Tempo, 451128
1, 44817, Tempo, 449438
1, 44832, Note_on_c, 0, 82, 0
1, 44832, Note_on_c, 0, 84, 57
1, 44836, Tempo, 447761
1, 44855, Tempo, 446097
1, 44856, Tempo, 442968
1, 44868, Tempo, 441144
1, 44880, Note_on_c, 0, 84, 0
1, 44880, Note_on_c, 0, 85, 58
1, 44884, Tempo, 442804
1, 44928, Note_on_c, 0, 85, 0
1, 44928, Note_on_c, 0, 88, 60
1, 44976, Note_on_c, 0, 88, 0
1, 44976, Note_on_c, 0, 89, 62
1, 45024, Note_on_c, 0, 89, 0
1, 45024, Note_on_c, 0, 91, 62
1, 45072, Note_on_c, 0, 91, 0
1, 45072, Note_on_c, 0, 89, 62
1, 45120, Note_on_c, 0, 89, 0
1, 45120, Note_on_c, 0, 88, 63
1, 45153, Note_on_c, 0, 88, 0
1, 45153, Note_on_c, 0, 85, 63
1, 45186, Note_on_c, 0, 85, 0
1, 45186, Note_on_c, 0, 84, 62
1, 45219, Note_on_c, 0, 84, 0
1, 45219, Note_on_c, 0, 82, 61
1, 45252, Note_on_c, 0, 82, 0
1, 45252, Note_on_c, 0, 80, 61
1, 45285, Note_on_c, 0, 80, 0
1, 45285, Note_on_c, 0, 79, 60
1, 45318, Note_on_c, 0, 79, 0
1, 45318, Note_on_c, 0, 77, 59
1, 45348, Tempo, 439367
1, 45360, Note_on_c, 0, 77, 0
1, 45360, Note_on_c, 0, 76, 58
1, 45364, Tempo, 441176
1, 45365, Control_c, 0, 64, 0
1, 45399, Control_c, 0, 64, 127
1, 45402, Tempo, 442804
1, 45420, Note_on_c, 0, 76, 0
1, 45420, Note_on_c, 0, 73, 55
1, 45441, Tempo, 444444
1, 45479, Tempo, 446097
1, 45480, Note_on_c, 0, 73, 0
1, 45480, Note_on_c, 0, 72, 53
1, 45518, Tempo, 447761
1, 45540, Note_on_c, 0, 72, 0
1, 45540, Note_on_c, 0, 70, 51
1, 45556, Tempo, 449438
1, 45594, Tempo, 451128
1, 45600, Note_on_c, 0, 70, 0
1, 45600, Note_on_c, 0, 68, 49
1, 45623, Tempo, 452830
1, 45660, Note_on_c, 0, 68, 0
1, 45660, Note_on_c, 0, 67, 47
1, 45662, Tempo, 454545
1, 45700, Tempo, 456274
1, 45720, Note_on_c, 0, 67, 0
1, 45720, Note_on_c, 0, 66, 45
1, 45738, Tempo, 458015
1, 45777, Tempo, 459770
1, 45780, Note_on_c, 0, 66, 0
1, 45780, Note_on_c, 0, 67, 42
1, 45815, Tempo, 461538
1, 45840, Note_on_c, 0, 67, 0
1, 45840, Note_on_c, 0, 68, 40
1, 45844, Tempo, 463320
1, 45880, Tempo, 463679
1, 45880, Note_on_c, 0, 68, 0
1, 45880, Note_on_c, 0, 69, 40
1, 45920, Note_on_c, 0, 69, 0
1, 45920, Note_on_c, 0, 70, 39
1, 45928, Tempo, 465658
1, 45960, Note_on_c, 0, 70, 0
1, 45960, Note_on_c, 0, 71, 39
1, 45976, Tempo, 467654
1, 46000, Note_on_c, 0, 71, 0
1, 46000, Note_on_c, 0, 72, 37
1, 46024, Tempo, 469667
1, 46040, Note_on_c, 0, 72, 0
1, 46040, Note_on_c, 0, 73, 37
1, 46060, Tempo, 471735
1, 46080, Tempo, 452148
1, 46080, Note_on_c, 0, 73, 0
1, 46080, Note_on_c, 0, 61, 0
1, 46080, Note_on_c, 0, 53, 0
1, 46080, Note_on_c, 0, 58, 0
1, 46080, Note_on_c, 0, 64, 0
1, 46080, Note_on_c, 0, 72, 56
1, 46080, Note_on_c, 0, 53, 35
1, 46080, Control_c, 0, 64, 0
1, 46140, Note_on_c, 0, 53, 0
1, 46140, Note_on_c, 0, 72, 0
1, 46260, Tempo, 509165
1, 46320, Tempo, 441144
1, 46320, Note_on_c, 0, 72, 45
1, 46320, Note_on_c, 0, 56, 25
1, 46320, Note_on_c, 0, 65, 30
1, 46320, Note_on_c, 0, 60, 25
1, 46380, Note_on_c, 0, 60, 0
1, 46380, Note_on_c, 0, 65, 0
1, 46380, Note_on_c, 0, 56, 0
1, 46440, Note_on_c, 0, 72, 0
1, 46440, Note_on_c, 0, 73, 39
1, 46560, Tempo, 450281
1, 46560, Note_on_c, 0, 73, 0
1, 46560, Note_on_c, 0, 72, 46
1, 46560, Note_on_c, 0, 53, 30
1, 46620, Note_on_c, 0, 53, 0
1, 46620, Note_on_c, 0, 72, 0
1, 46740, Tempo, 471735
1, 46800, Tempo, 450281
1, 46800, Note_on_c, 0, 73, 40
1, 46800, Note_on_c, 0, 56, 29
1, 46800, Note_on_c, 0, 60, 29
1, 46800, Note_on_c, 0, 65, 35
1, 46860, Note_on_c, 0, 65, 0
1, 46860, Note_on_c, 0, 73, 0
1, 46860, Note_on_c, 0, 56, 0
1, 46860, Note_on_c, 0, 60, 0
1, 46860, Note_on_c, 0, 72, 49
1, 46920, Note_on_c, 0, 72, 0
1, 47040, Tempo, 441144
1, 47040, Note_on_c, 0, 72, 44
1, 47040, Note_on_c, 0, 53, 31
1, 47100, Note_on_c, 0, 53, 0
1, 47160, Note_on_c, 0, 72, 0
1, 47160, Note_on_c, 0, 73, 36
1, 47280, Note_on_c, 0, 73, 0
1, 47280, Note_on_c, 0, 72, 42
1, 47280, Note_on_c, 0, 56, 26
1, 47280, Note_on_c, 0, 65, 31
1, 47280, Note_on_c, 0, 60, 26
1, 47340, Note_on_c, 0, 60, 0
1, 47340, Note_on_c, 0, 72, 0
1, 47340, Note_on_c, 0, 56, 0
1, 47340, Note_on_c, 0, 65, 0
1, 47460, Tempo, 516440
1, 47520, Tempo, 450281
1, 47520, Note_on_c, 0, 72, 40
1, 47520, Note_on_c, 0, 53, 35
1, 47580, Note_on_c, 0, 53, 0
1, 47640, Tempo, 443754
1, 47640, Note_on_c, 0, 72, 0
1, 47640, Note_on_c, 0, 71, 52
1, 47700, Note_on_c, 0, 71, 0
1, 47760, Tempo, 434122
1, 47760, Note_on_c, 0, 71, 47
1, 47760, Note_on_c, 0, 62, 31
1, 47760, Note_on_c, 0, 56, 26
1, 47760, Note_on_c, 0, 59, 26
1, 47820, Note_on_c, 0, 59, 0
1, 47820, Note_on_c, 0, 56, 0
1, 47820, Note_on_c, 0, 62, 0
1, 47880, Note_on_c, 0, 71, 0
1, 47880, Note_on_c, 0, 74, 40
1, 48000, Tempo, 450281
1, 48000, Note_on_c, 0, 74, 0
1, 48000, Note_on_c, 0, 72, 45
1, 48000, Note_on_c, 0, 53, 31
1, 48060, Note_on_c, 0, 53, 0
1, 48120, Note_on_c, 0, 72, 0
1, 48120, Note_on_c, 0, 71, 36
1, 48180, Tempo, 486421
1, 48240, Tempo, 511553
1, 48240, Note_on_c, 0, 71, 0
1, 48240, Note_on_c, 0, 72, 46
1, 48240, Note_on_c, 0, 48, 35
1, 48300, Note_on_c, 0, 48, 0
1, 48300, Note_on_c, 0, 72, 0
1, 48480, Tempo, 446561
1, 48480, Note_on_c, 0, 67, 39
1, 48480, Note_on_c, 0, 52, 27
1, 48480, Note_on_c, 0, 60, 32
1, 48480, Note_on_c, 0, 55, 27
1, 48540, Note_on_c, 0, 55, 0
1, 48540, Note_on_c, 0, 60, 0
1, 48540, Note_on_c, 0, 52, 0
1, 48720, Note_on_c, 0, 48, 32
1, 48780, Note_on_c, 0, 48, 0
1, 48840, Tempo, 483871
1, 48960, Tempo, 442968
1, 48960, Note_on_c, 0, 67, 0
1, 48960, Note_on_c, 0, 72, 46
1, 48960, Note_on_c, 0, 52, 29
1, 48960, Note_on_c, 0, 60, 35
1, 48960, Note_on_c, 0, 55, 29
1, 49020, Note_on_c, 0, 55, 0
1, 49020, Note_on_c, 0, 72, 0
1, 49020, Note_on_c, 0, 52, 0
1, 49020, Note_on_c, 0, 60, 0
1, 49200, Note_on_c, 0, 67, 39
1, 49200, Note_on_c, 0, 48, 31
1, 49260, Note_on_c, 0, 48, 0
1, 49260, Note_on_c, 0, 67, 0
1, 49440, Note_on_c, 0, 72, 46
1, 49440, Note_on_c, 0, 52, 26
1, 49440, Note_on_c, 0, 55, 26
1, 49440, Note_on_c, 0, 60, 31
1, 49500, Note_on_c, 0, 60, 0
1, 49500, Note_on_c, 0, 72, 0
1, 49500, Note_on_c, 0, 52, 0
1, 49500, Note_on_c, 0, 55, 0
1, 49680, Note_on_c, 0, 70, 46
1, 49680, Note_on_c, 0, 49, 35
1, 49740, Note_on_c, 0, 49, 0
1, 49920, Tempo, 434122
1, 49920, Note_on_c, 0, 70, 0
1, 49920, Note_on_c, 0, 68, 39
1, 49920, Note_on_c, 0, 53, 26
1, 49920, Note_on_c, 0, 61, 31
1, 49959, Control_c, 0, 64, 127
1, 49980, Note_on_c, 0, 61, 0
1, 49980, Note_on_c, 0, 53, 0
1, 50040, Note_on_c, 0, 68, 0
1, 50040, Note_on_c, 0, 67, 39
1, 50160, Note_on_c, 0, 67, 0
1, 50160, Note_on_c, 0, 65, 43
1, 50160, Note_on_c, 0, 49, 31
1, 50220, Note_on_c, 0, 49, 0
1, 50280, Tempo, 472441
1, 50400, Tempo, 442968
1, 50400, Note_on_c, 0, 65, 0
1, 50400, Note_on_c, 0, 67, 46
1, 50400, Note_on_c, 0, 46, 35
1, 50400, Control_c, 0, 64, 0
1, 50497, Control_c, 0, 64, 127
1, 50520, Note_on_c, 0, 67, 0
1, 50520, Note_on_c, 0, 70, 38
1, 50640, Note_on_c, 0, 70, 0
1, 50640, Note_on_c, 0, 46, 0
1, 50640, Note_on_c, 0, 67, 46
1, 50640, Note_on_c, 0, 58, 33
1, 50640, Note_on_c, 0, 55, 28
1, 50760, Note_on_c, 0, 67, 0
1, 50760, Note_on_c, 0, 70, 40
1, 50880, Tempo, 432401
1, 50880, Note_on_c, 0, 70, 0
1, 50880, Note_on_c, 0, 55, 0
1, 50880, Note_on_c, 0, 58, 0
1, 50880, Note_on_c, 0, 64, 46
1, 50880, Note_on_c, 0, 48, 28
1, 50880, Note_on_c, 0, 55, 28
1, 50880, Note_on_c, 0, 58, 33
1, 51000, Tempo, 452148
1, 51000, Note_on_c, 0, 58, 0
1, 51000, Note_on_c, 0, 64, 0
1, 51000, Note_on_c, 0, 48, 0
1, 51000, Note_on_c, 0, 55, 0
1, 51000, Note_on_c, 0, 67, 40
1, 51120, Tempo, 434122
1, 51120, Note_on_c, 0, 67, 0
1, 51120, Note_on_c, 0, 65, 46
1, 51120, Note_on_c, 0, 53, 34
1, 51120, Note_on_c, 0, 56, 40
1, 51134, Control_c, 0, 64, 0
1, 51206, Tempo, 434122
1, 51240, Note_on_c, 0, 65, 0
1, 51240, Note_on_c, 0, 68, 37
1, 51268, Control_c, 0, 64, 127
1, 51274, Tempo, 432401
1, 51331, Tempo, 430694
1, 51360, Note_on_c, 0, 68, 0
1, 51360, Note_on_c, 0, 72, 42
1, 51398, Tempo, 429000
1, 51456, Tempo, 427290
1, 51480, Note_on_c, 0, 72, 0
1, 51480, Note_on_c, 0, 77, 47
1, 51514, Tempo, 425622
1, 51581, Tempo, 423998
1, 51600, Note_on_c, 0, 77, 0
1, 51600, Note_on_c, 0, 56, 0
1, 51600, Note_on_c, 0, 53, 0
1, 51600, Note_on_c, 0, 80, 52
1, 51638, Tempo, 422357
1, 51696, Tempo, 420698
1, 51720, Note_on_c, 0, 80, 0
1, 51720, Note_on_c, 0, 82, 57
1, 51734, Tempo, 441144
1, 51840, Tempo, 452148
1, 51840, Note_on_c, 0, 82, 0
1, 51840, Note_on_c, 0, 84, 65
1, 51840, Note_on_c, 0, 53, 35
1, 51840, Control_c, 0, 64, 0
1, 51900, Note_on_c, 0, 53, 0
1, 51900, Note_on_c, 0, 84, 0
1, 52020, Tempo, 502134
1, 52080, Tempo, 441144
1, 52080, Note_on_c, 0, 84, 54
1, 52080, Note_on_c, 0, 60, 25
1, 52080, Note_on_c, 0, 65, 30
1, 52080, Note_on_c, 0, 56, 25
1, 52140, Note_on_c, 0, 56, 0
1, 52140, Note_on_c, 0, 65, 0
1, 52140, Note_on_c, 0, 60, 0
1, 52200, Note_on_c, 0, 84, 0
1, 52200, Note_on_c, 0, 85, 46
1, 52320, Tempo, 448397
1, 52320, Note_on_c, 0, 85, 0
1, 52320, Note_on_c, 0, 84, 55
1, 52320, Note_on_c, 0, 53, 30
1, 52380, Note_on_c, 0, 53, 0
1, 52380, Note_on_c, 0, 84, 0
1, 52500, Tempo, 483871
1, 52560, Tempo, 450281
1, 52560, Note_on_c, 0, 85, 48
1, 52560, Note_on_c, 0, 60, 29
1, 52560, Note_on_c, 0, 65, 35
1, 52560, Note_on_c, 0, 56, 29
1, 52620, Note_on_c, 0, 56, 0
1, 52620, Note_on_c, 0, 85, 0
1, 52620, Note_on_c, 0, 60, 0
1, 52620, Note_on_c, 0, 65, 0
1, 52620, Note_on_c, 0, 84, 64
1, 52680, Note_on_c, 0, 84, 0
1, 52800, Tempo, 442968
1, 52800, Note_on_c, 0, 84, 52
1, 52800, Note_on_c, 0, 53, 31
1, 52860, Note_on_c, 0, 53, 0
1, 52920, Note_on_c, 0, 84, 0
1, 52920, Note_on_c, 0, 85, 43
1, 53040, Note_on_c, 0, 85, 0
1, 53040, Note_on_c, 0, 84, 50
1, 53040, Note_on_c, 0, 60, 26
1, 53040, Note_on_c, 0, 65, 31
1, 53040, Note_on_c, 0, 56, 26
1, 53100, Note_on_c, 0, 56, 0
1, 53100, Note_on_c, 0, 84, 0
1, 53100, Note_on_c, 0, 60, 0
1, 53100, Note_on_c, 0, 65, 0
1, 53220, Tempo, 482160
1, 53280, Tempo, 450281
1, 53280, Note_on_c, 0, 84, 61
1, 53280, Note_on_c, 0, 53, 35
1, 53317, Control_c, 0, 64, 127
1, 53340, Note_on_c, 0, 53, 0
1, 53400, Tempo, 444741
1, 53400, Note_on_c, 0, 84, 0
1, 53400, Note_on_c, 0, 83, 48
1, 53520, Tempo, 437605
1, 53520, Note_on_c, 0, 83, 0
1, 53520, Note_on_c, 0, 89, 56
1, 53520, Note_on_c, 0, 56, 26
1, 53520, Note_on_c, 0, 59, 26
1, 53520, Note_on_c, 0, 62, 31
1, 53580, Note_on_c, 0, 62, 0
1, 53580, Note_on_c, 0, 59, 0
1, 53580, Note_on_c, 0, 56, 0
1, 53640, Note_on_c, 0, 89, 0
1, 53640, Note_on_c, 0, 83, 48
1, 53760, Note_on_c, 0, 83, 0
1, 53760, Note_on_c, 0, 89, 54
1, 53760, Note_on_c, 0, 53, 31
1, 53820, Note_on_c, 0, 53, 0
1, 53880, Note_on_c, 0, 89, 0
1, 53880, Note_on_c, 0, 83, 43
1, 53940, Tempo, 486421
1, 54000, Tempo, 511553
1, 54000, Note_on_c, 0, 83, 0
1, 54000, Note_on_c, 0, 84, 55
1, 54000, Note_on_c, 0, 48, 35
1, 54000, Control_c, 0, 64, 0
1, 54060, Note_on_c, 0, 48, 0
1, 54060, Note_on_c, 0, 84, 0
1, 54240, Tempo, 446561
1, 54240, Note_on_c, 0, 79, 46
1, 54240, Note_on_c, 0, 60, 32
1, 54240, Note_on_c, 0, 52, 27
1, 54240, Note_on_c, 0, 55, 27
1, 54300, Note_on_c, 0, 55, 0
1, 54300, Note_on_c, 0, 52, 0
1, 54300, Note_on_c, 0, 60, 0
1, 54480, Note_on_c, 0, 48, 32
1, 54540, Note_on_c, 0, 48, 0
1, 54600, Tempo, 493056
1, 54720, Tempo, 442968
1, 54720, Note_on_c, 0, 79, 0
1, 54720, Note_on_c, 0, 84, 57
1, 54720, Note_on_c, 0, 55, 29
1, 54720, Note_on_c, 0, 60, 35
1, 54720, Note_on_c, 0, 52, 29
1, 54780, Note_on_c, 0, 52, 0
1, 54780, Note_on_c, 0, 84, 0
1, 54780, Note_on_c, 0, 55, 0
1, 54780, Note_on_c, 0, 60, 0
1, 54960, Note_on_c, 0, 79, 46
1, 54960, Note_on_c, 0, 48, 31
1, 55020, Note_on_c, 0, 48, 0
1, 55020, Note_on_c, 0, 79, 0
1, 55200, Note_on_c, 0, 84, 55
1, 55200, Note_on_c, 0, 60, 31
1, 55200, Note_on_c, 0, 52, 26
1, 55200, Note_on_c, 0, 55, 26
1, 55260, Note_on_c, 0, 55, 0
1, 55260, Note_on_c, 0, 84, 0
1, 55260, Note_on_c, 0, 60, 0
1, 55260, Note_on_c, 0, 52, 0
1, 55440, Note_on_c, 0, 82, 62
1, 55440, Note_on_c, 0, 49, 35
1, 55500, Note_on_c, 0, 49, 0
1, 55680, Tempo, 434122
1, 55680, Note_on_c, 0, 82, 0
1, 55680, Note_on_c, 0, 80, 49
1, 55680, Note_on_c, 0, 61, 31
1, 55680, Note_on_c, 0, 53, 26
1, 55719, Control_c, 0, 64, 127
1, 55740, Note_on_c, 0, 53, 0
1, 55740, Note_on_c, 0, 61, 0
1, 55800, Note_on_c, 0, 80, 0
1, 55800, Note_on_c, 0, 79, 49
1, 55920, Note_on_c, 0, 79, 0
1, 55920, Note_on_c, 0, 77, 57
1, 55920, Note_on_c, 0, 49, 31
1, 55980, Note_on_c, 0, 49, 0
1, 56040, Tempo, 453995
1, 56160, Tempo, 442968
1, 56160, Note_on_c, 0, 77, 0
1, 56160, Note_on_c, 0, 82, 61
1, 56160, Note_on_c, 0, 50, 35
1, 56160, Control_c, 0, 64, 0
1, 56220, Note_on_c, 0, 50, 0
1, 56220, Note_on_c, 0, 82, 0
1, 56400, Note_on_c, 0, 77, 48
1, 56400, Note_on_c, 0, 62, 31
1, 56400, Note_on_c, 0, 58, 31
1, 56460, Note_on_c, 0, 58, 0
1, 56460, Note_on_c, 0, 62, 0
1, 56460, Note_on_c, 0, 77, 0
1, 56640, Note_on_c, 0, 82, 57
1, 56640, Note_on_c, 0, 50, 31
1, 56700, Note_on_c, 0, 50, 0
1, 56700, Note_on_c, 0, 82, 0
1, 56880, Note_on_c, 0, 80, 63
1, 56880, Note_on_c, 0, 51, 39
1, 56940, Note_on_c, 0, 51, 0
1, 57120, Tempo, 434122
1, 57120, Note_on_c, 0, 80, 0
1, 57120, Note_on_c, 0, 79, 50
1, 57120, Note_on_c, 0, 63, 33
1, 57120, Note_on_c, 0, 58, 33
1, 57159, Control_c, 0, 64, 127
1, 57180, Note_on_c, 0, 58, 0
1, 57180, Note_on_c, 0, 63, 0
1, 57240, Note_on_c, 0, 79, 0
1, 57240, Note_on_c, 0, 77, 50
1, 57360, Note_on_c, 0, 77, 0
1, 57360, Note_on_c, 0, 75, 55
1, 57360, Note_on_c, 0, 51, 33
1, 57420, Note_on_c, 0, 51, 0
1, 57480, Tempo, 453995
1, 57600, Tempo, 421053
1, 57600, Note_on_c, 0, 75, 0
1, 57600, Note_on_c, 0, 80, 64
1, 57600, Note_on_c, 0, 48, 41
1, 57600, Control_c, 0, 64, 0
1, 57660, Note_on_c, 0, 48, 0
1, 57660, Note_on_c, 0, 80, 0
1, 57720, Tempo, 430108
1, 57840, Note_on_c, 0, 75, 49
1, 57840, Note_on_c, 0, 60, 32
1, 57900, Note_on_c, 0, 60, 0
1, 57900, Note_on_c, 0, 75, 0
1, 57960, Tempo, 441144
1, 58080, Tempo, 432401
1, 58080, Note_on_c, 0, 80, 58
1, 58080, Note_on_c, 0, 48, 31
1, 58140, Note_on_c, 0, 48, 0
1, 58140, Note_on_c, 0, 80, 0
1, 58320, Tempo, 422535
1, 58320, Note_on_c, 0, 81, 63
1, 58320, Note_on_c, 0, 47, 40
1, 58380, Note_on_c, 0, 47, 0
1, 58380, Note_on_c, 0, 81, 0
1, 58440, Tempo, 430108
1, 58560, Note_on_c, 0, 75, 53
1, 58560, Note_on_c, 0, 59, 36
1, 58620, Note_on_c, 0, 59, 0
1, 58620, Note_on_c, 0, 75, 0
1, 58680, Tempo, 444741
1, 58800, Tempo, 430694
1, 58800, Note_on_c, 0, 81, 61
1, 58800, Note_on_c, 0, 47, 36
1, 58860, Note_on_c, 0, 47, 0
1, 58860, Note_on_c, 0, 81, 0
1, 59040, Tempo, 429000
1, 59040, Note_on_c, 0, 82, 75
1, 59040, Note_on_c, 0, 46, 51
1, 59089, Control_c, 0, 64, 127
1, 59100, Note_on_c, 0, 46, 0
1, 59100, Note_on_c, 0, 82, 0
1, 59160, Tempo, 442968
1, 59280, Tempo, 430694
1, 59280, Note_on_c, 0, 74, 69
1, 59280, Note_on_c, 0, 77, 69
1, 59280, Note_on_c, 0, 58, 36
1, 59280, Note_on_c, 0, 53, 36
1, 59280, Note_on_c, 0, 62, 43
1, 59340, Note_on_c, 0, 62, 0
1, 59340, Note_on_c, 0, 58, 0
1, 59340, Note_on_c, 0, 74, 0
1, 59340, Note_on_c, 0, 77, 0
1, 59340, Note_on_c, 0, 53, 0
1, 59346, Control_c, 0, 64, 0
1, 59400, Tempo, 444741
1, 59520, Tempo, 420433
1, 59520, Note_on_c, 0, 86, 80
1, 59520, Note_on_c, 0, 46, 57
1, 59575, Control_c, 0, 64, 127
1, 59580, Note_on_c, 0, 46, 0
1, 59580, Note_on_c, 0, 86, 0
1, 59640, Tempo, 441144
1, 59760, Tempo, 417507
1, 59760, Note_on_c, 0, 82, 71
1, 59760, Note_on_c, 0, 77, 71
1, 59760, Note_on_c, 0, 58, 39
1, 59760, Note_on_c, 0, 53, 39
1, 59760, Note_on_c, 0, 62, 46
1, 59820, Note_on_c, 0, 62, 0
1, 59820, Note_on_c, 0, 58, 0
1, 59820, Note_on_c, 0, 82, 0
1, 59820, Note_on_c, 0, 77, 0
1, 59820, Note_on_c, 0, 53, 0
1, 59840, Control_c, 0, 64, 0
1, 59880, Tempo, 437605
1, 60000, Tempo, 414622
1, 60000, Note_on_c, 0, 89, 83
1, 60000, Note_on_c, 0, 46, 55
1, 60037, Control_c, 0, 64, 127
1, 60060, Note_on_c, 0, 46, 0
1, 60060, Note_on_c, 0, 89, 0
1, 60120, Tempo, 432401
1, 60240, Tempo, 410369
1, 60240, Note_on_c, 0, 82, 73
1, 60240, Note_on_c, 0, 86, 73
1, 60240, Note_on_c, 0, 53, 40
1, 60240, Note_on_c, 0, 62, 48
1, 60240, Note_on_c, 0, 58, 40
1, 60300, Note_on_c, 0, 58, 0
1, 60300, Note_on_c, 0, 53, 0
1, 60300, Note_on_c, 0, 82, 0
1, 60300, Note_on_c, 0, 86, 0
1, 60300, Note_on_c, 0, 62, 0
1, 60326, Control_c, 0, 64, 0
1, 60360, Tempo, 439367
1, 60480, Tempo, 419082
1, 60480, Note_on_c, 0, 92, 78
1, 60480, Note_on_c, 0, 46, 61
1, 60488, Control_c, 0, 64, 127
1, 60540, Note_on_c, 0, 46, 0
1, 60600, Note_on_c, 0, 92, 0
1, 60600, Note_on_c, 0, 90, 66
1, 60720, Note_on_c, 0, 90, 0
1, 60720, Note_on_c, 0, 89, 77
1, 60720, Note_on_c, 0, 57, 39
1, 60720, Note_on_c, 0, 63, 47
1, 60720, Note_on_c, 0, 54, 39
1, 60780, Note_on_c, 0, 54, 0
1, 60780, Note_on_c, 0, 63, 0
1, 60780, Note_on_c, 0, 57, 0
1, 60840, Note_on_c, 0, 89, 0
1, 60840, Note_on_c, 0, 90, 62
1, 60960, Note_on_c, 0, 90, 0
1, 60960, Note_on_c, 0, 87, 71
1, 60960, Note_on_c, 0, 46, 60
1, 60974, Control_c, 0, 64, 0
1, 61020, Note_on_c, 0, 46, 0
1, 61080, Note_on_c, 0, 87, 0
1, 61200, Tempo, 419082
1, 61200, Note_on_c, 0, 84, 66
1, 61200, Note_on_c, 0, 63, 57
1, 61200, Note_on_c, 0, 54, 48
1, 61200, Note_on_c, 0, 57, 48
1, 61260, Note_on_c, 0, 57, 0
1, 61260, Note_on_c, 0, 54, 0
1, 61260, Note_on_c, 0, 63, 0
1, 61320, Note_on_c, 0, 84, 0
1, 61440, Tempo, 421911
1, 61440, Note_on_c, 0, 81, 61
1, 61440, Note_on_c, 0, 46, 46
1, 61500, Note_on_c, 0, 46, 0
1, 61560, Note_on_c, 0, 81, 0
1, 61680, Note_on_c, 0, 78, 52
1, 61680, Note_on_c, 0, 57, 38
1, 61680, Note_on_c, 0, 63, 45
1, 61680, Note_on_c, 0, 54, 38
1, 61740, Note_on_c, 0, 54, 0
1, 61740, Note_on_c, 0, 63, 0
1, 61740, Note_on_c, 0, 57, 0
1, 61800, Note_on_c, 0, 78, 0
1, 61920, Tempo, 429000
1, 61920, Note_on_c, 0, 82, 75
1, 61920, Note_on_c, 0, 46, 51
1, 61969, Control_c, 0, 64, 127
1, 61980, Note_on_c, 0, 46, 0
1, 61980, Note_on_c, 0, 82, 0
1, 62040, Tempo, 442968
1, 62160, Tempo, 430694
1, 62160, Note_on_c, 0, 77, 69
1, 62160, Note_on_c, 0, 74, 69
1, 62160, Note_on_c, 0, 58, 36
1, 62160, Note_on_c, 0, 62, 43
1, 62160, Note_on_c, 0, 53, 36
1, 62220, Note_on_c, 0, 53, 0
1, 62220, Note_on_c, 0, 58, 0
1, 62220, Note_on_c, 0, 77, 0
1, 62220, Note_on_c, 0, 74, 0
1, 62220, Note_on_c, 0, 62, 0
1, 62226, Control_c, 0, 64, 0
1, 62280, Tempo, 444741
1, 62400, Tempo, 424899
1, 62400, Note_on_c, 0, 86, 80
1, 62400, Note_on_c, 0, 46, 57
1, 62455, Control_c, 0, 64, 127
1, 62460, Note_on_c, 0, 46, 0
1, 62460, Note_on_c, 0, 86, 0
1, 62520, Tempo, 441144
1, 62640, Tempo, 417507
1, 62640, Note_on_c, 0, 77, 71
1, 62640, Note_on_c, 0, 82, 71
1, 62640, Note_on_c, 0, 53, 39
1, 62640, Note_on_c, 0, 62, 46
1, 62640, Note_on_c, 0, 58, 39
1, 62700, Note_on_c, 0, 58, 0
1, 62700, Note_on_c, 0, 53, 0
1, 62700, Note_on_c, 0, 77, 0
1, 62700, Note_on_c, 0, 82, 0
1, 62700, Note_on_c, 0, 62, 0
1, 62720, Control_c, 0, 64, 0
1, 62760, Tempo, 437605
1, 62880, Tempo, 413195
1, 62880, Note_on_c, 0, 89, 83
1, 62880, Note_on_c, 0, 46, 55
1, 62917, Control_c, 0, 64, 127
1, 62940, Note_on_c, 0, 46, 0
1, 62940, Note_on_c, 0, 89, 0
1, 63000, Tempo, 432401
1, 63120, Tempo, 407581
1, 63120, Note_on_c, 0, 86, 73
1, 63120, Note_on_c, 0, 82, 73
1, 63120, Note_on_c, 0, 62, 48
1, 63120, Note_on_c, 0, 53, 40
1, 63120, Note_on_c, 0, 58, 40
1, 63180, Note_on_c, 0, 58, 0
1, 63180, Note_on_c, 0, 62, 0
1, 63180, Note_on_c, 0, 86, 0
1, 63180, Note_on_c, 0, 82, 0
1, 63180, Note_on_c, 0, 53, 0
1, 63206, Control_c, 0, 64, 0
1, 63240, Tempo, 439367
1, 63360, Tempo, 415225
1, 63360, Note_on_c, 0, 92, 78
1, 63360, Note_on_c, 0, 46, 61
1, 63368, Control_c, 0, 64, 127
1, 63420, Note_on_c, 0, 46, 0
1, 63480, Note_on_c, 0, 92, 0
1, 63480, Note_on_c, 0, 90, 66
1, 63600, Note_on_c, 0, 90, 0
1, 63600, Note_on_c, 0, 89, 77
1, 63600, Note_on_c, 0, 63, 47
1, 63600, Note_on_c, 0, 54, 39
1, 63600, Note_on_c, 0, 57, 39
1, 63660, Note_on_c, 0, 57, 0
1, 63660, Note_on_c, 0, 54, 0
1, 63660, Note_on_c, 0, 63, 0
1, 63720, Note_on_c, 0, 89, 0
1, 63720, Note_on_c, 0, 90, 62
1, 63840, Tempo, 421053
1, 63840, Note_on_c, 0, 90, 0
1, 63840, Note_on_c, 0, 87, 69
1, 63840, Note_on_c, 0, 46, 60
1, 63854, Control_c, 0, 64, 0
1, 63900, Note_on_c, 0, 46, 0
1, 63960, Note_on_c, 0, 87, 0
1, 64080, Tempo, 416667
1, 64080, Note_on_c, 0, 84, 66
1, 64080, Note_on_c, 0, 57, 48
1, 64080, Note_on_c, 0, 54, 48
1, 64080, Note_on_c, 0, 63, 57
1, 64140, Note_on_c, 0, 63, 0
1, 64140, Note_on_c, 0, 54, 0
1, 64140, Note_on_c, 0, 57, 0
1, 64200, Note_on_c, 0, 84, 0
1, 64320, Note_on_c, 0, 81, 61
1, 64320, Note_on_c, 0, 46, 46
1, 64380, Note_on_c, 0, 46, 0
1, 64440, Note_on_c, 0, 81, 0
1, 64560, Tempo, 421053
1, 64560, Note_on_c, 0, 78, 52
1, 64560, Note_on_c, 0, 54, 38
1, 64560, Note_on_c, 0, 63, 45
1, 64560, Note_on_c, 0, 57, 38
1, 64620, Note_on_c, 0, 57, 0
1, 64620, Note_on_c, 0, 63, 0
1, 64620, Note_on_c, 0, 54, 0
1, 64680, Note_on_c, 0, 78, 0
1, 64800, Tempo, 429000
1, 64800, Note_on_c, 0, 82, 75
1, 64800, Note_on_c, 0, 46, 51
1, 64849, Control_c, 0, 64, 127
1, 64860, Note_on_c, 0, 46, 0
1, 64860, Note_on_c, 0, 82, 0
1, 64920, Tempo, 442968
1, 65040, Tempo, 430694
1, 65040, Note_on_c, 0, 77, 69
1, 65040, Note_on_c, 0, 74, 69
1, 65040, Note_on_c, 0, 58, 36
1, 65040, Note_on_c, 0, 62, 43
1, 65040, Note_on_c, 0, 53, 36
1, 65100, Note_on_c, 0, 53, 0
1, 65100, Note_on_c, 0, 58, 0
1, 65100, Note_on_c, 0, 77, 0
1, 65100, Note_on_c, 0, 74, 0
1, 65100, Note_on_c, 0, 62, 0
1, 65106, Control_c, 0, 64, 0
1, 65160, Tempo, 444741
1, 65280, Tempo, 430694
1, 65280, Note_on_c, 0, 83, 77
1, 65280, Note_on_c, 0, 44, 57
1, 65335, Control_c, 0, 64, 127
1, 65340, Note_on_c, 0, 44, 0
1, 65340, Note_on_c, 0, 83, 0
1, 65400, Tempo, 441144
1, 65520, Tempo, 423998
1, 65520, Note_on_c, 0, 74, 71
1, 65520, Note_on_c, 0, 77, 71
1, 65520, Note_on_c, 0, 56, 46
1, 65580, Note_on_c, 0, 56, 0
1, 65580, Note_on_c, 0, 77, 0
1, 65580, Note_on_c, 0, 74, 0
1, 65600, Control_c, 0, 64, 0
1, 65640, Tempo, 437605
1, 65760, Tempo, 422357
1, 65760, Note_on_c, 0, 86, 83
1, 65760, Note_on_c, 0, 43, 55
1, 65797, Control_c, 0, 64, 127
1, 65820, Note_on_c, 0, 43, 0
1, 65820, Note_on_c, 0, 86, 0
1, 65880, Tempo, 432401
1, 66000, Tempo, 415887
1, 66000, Note_on_c, 0, 83, 73
1, 66000, Note_on_c, 0, 77, 73
1, 66000, Note_on_c, 0, 55, 48
1, 66060, Note_on_c, 0, 55, 0
1, 66060, Note_on_c, 0, 77, 0
1, 66060, Note_on_c, 0, 83, 0
1, 66086, Control_c, 0, 64, 0
1, 66120, Tempo, 439367
1, 66240, Tempo, 429000
1, 66240, Note_on_c, 0, 84, 75
1, 66240, Note_on_c, 0, 48, 51
1, 66289, Control_c, 0, 64, 127
1, 66300, Note_on_c, 0, 48, 0
1, 66300, Note_on_c, 0, 84, 0
1, 66360, Tempo, 442968
1, 66480, Tempo, 430694
1, 66480, Note_on_c, 0, 76, 69
1, 66480, Note_on_c, 0, 79, 69
1, 66480, Note_on_c, 0, 60, 43
1, 66540, Note_on_c, 0, 60, 0
1, 66540, Note_on_c, 0, 79, 0
1, 66540, Note_on_c, 0, 76, 0
1, 66546, Control_c, 0, 64, 0
1, 66600, Tempo, 444741
1, 66720, Tempo, 430694
1, 66720, Note_on_c, 0, 88, 77
1, 66720, Note_on_c, 0, 46, 57
1, 66775, Control_c, 0, 64, 127
1, 66780, Note_on_c, 0, 46, 0
1, 66780, Note_on_c, 0, 88, 0
1, 66840, Tempo, 441144
1, 66960, Tempo, 423998
1, 66960, Note_on_c, 0, 79, 71
1, 66960, Note_on_c, 0, 85, 71
1, 66960, Note_on_c, 0, 58, 46
1, 67020, Note_on_c, 0, 58, 0
1, 67020, Note_on_c, 0, 85, 0
1, 67020, Note_on_c, 0, 79, 0
1, 67040, Control_c, 0, 64, 0
1, 67080, Tempo, 437605
1, 67200, Tempo, 422357
1, 67200, Note_on_c, 0, 91, 83
1, 67200, Note_on_c, 0, 43, 55
1, 67237, Control_c, 0, 64, 127
1, 67260, Note_on_c, 0, 43, 0
1, 67260, Note_on_c, 0, 91, 0
1, 67320, Tempo, 432401
1, 67440, Tempo, 415887
1, 67440, Note_on_c, 0, 85, 73
1, 67440, Note_on_c, 0, 82, 73
1, 67440, Note_on_c, 0, 88, 73
1, 67440, Note_on_c, 0, 55, 48
1, 67500, Note_on_c, 0, 55, 0
1, 67500, Note_on_c, 0, 85, 0
1, 67500, Note_on_c, 0, 82, 0
1, 67500, Note_on_c, 0, 88, 0
1, 67526, Control_c, 0, 64, 0
1, 67560, Tempo, 439367
1, 67680, Tempo, 429000
1, 67680, Note_on_c, 0, 89, 75
1, 67680, Note_on_c, 0, 44, 57
1, 67729, Control_c, 0, 64, 127
1, 67740, Note_on_c, 0, 44, 0
1, 67740, Note_on_c, 0, 89, 0
1, 67800, Tempo, 442968
1, 67920, Tempo, 430694
1, 67920, Note_on_c, 0, 77, 69
1, 67920, Note_on_c, 0, 84, 69
1, 67920, Note_on_c, 0, 56, 49
1, 67980, Note_on_c, 0, 56, 0
1, 67980, Note_on_c, 0, 84, 0
1, 67980, Note_on_c, 0, 77, 0
1, 67986, Control_c, 0, 64, 0
1, 68040, Tempo, 444741
1, 68160, Tempo, 430694
1, 68160, Note_on_c, 0, 94, 77
1, 68160, Note_on_c, 0, 34, 57
1, 68215, Control_c, 0, 64, 127
1, 68220, Note_on_c, 0, 34, 0
1, 68220, Note_on_c, 0, 94, 0
1, 68280, Tempo, 441144
1, 68400, Tempo, 423998
1, 68400, Note_on_c, 0, 82, 71
1, 68400, Note_on_c, 0, 46, 46
1, 68460, Note_on_c, 0, 46, 0
1, 68460, Note_on_c, 0, 82, 0
1, 68480, Control_c, 0, 64, 0
1, 68520, Tempo, 437605
1, 68640, Tempo, 422357
1, 68640, Note_on_c, 0, 96, 83
1, 68640, Note_on_c, 0, 36, 64
1, 68677, Control_c, 0, 64, 127
1, 68700, Note_on_c, 0, 36, 0
1, 68700, Note_on_c, 0, 96, 0
1, 68760, Tempo, 432401
1, 68880, Tempo, 415887
1, 68880, Note_on_c, 0, 84, 73
1, 68880, Note_on_c, 0, 48, 58
1, 68940, Note_on_c, 0, 48, 0
1, 68940, Note_on_c, 0, 84, 0
1, 68966, Control_c, 0, 64, 0
1, 69000, Tempo, 439367
1, 69115, Tempo, 437956
1, 69120, Tempo, 434122
1, 69120, Note_on_c, 0, 101, 87
1, 69120, Note_on_c, 0, 89, 73
1, 69120, Note_on_c, 0, 29, 60
1, 69120, Note_on_c, 0, 41, 65
1, 69124, Tempo, 436364
1, 69127, Control_c, 0, 64, 0
1, 69240, Note_on_c, 0, 41, 0
1, 69240, Note_on_c, 0, 101, 0
1, 69240, Note_on_c, 0, 89, 0
1, 69240, Note_on_c, 0, 29, 0
1, 69353, Control_c, 0, 64, 127
1, 69360, Tempo, 435856
1, 69360, Note_on_c, 0, 91, 73
1, 69360, Note_on_c, 0, 61, 51
1, 69360, Note_on_c, 0, 58, 51
1, 69360, Note_on_c, 0, 53, 51
1, 69360, Note_on_c, 0, 64, 61
1, 69364, Tempo, 434122
1, 69370, Tempo, 427290
1, 69374, Tempo, 434783
1, 69412, Tempo, 433213
1, 69420, Note_on_c, 0, 91, 0
1, 69420, Note_on_c, 0, 92, 67
1, 69422, Tempo, 431655
1, 69460, Tempo, 436364
1, 69470, Tempo, 434783
1, 69480, Tempo, 433213
1, 69480, Note_on_c, 0, 92, 0
1, 69480, Note_on_c, 0, 91, 58
1, 69489, Tempo, 431655
1, 69499, Tempo, 430108
1, 69508, Tempo, 428571
1, 69518, Tempo, 434783
1, 69528, Tempo, 437956
1, 69540, Note_on_c, 0, 91, 0
1, 69540, Note_on_c, 0, 92, 54
1, 69547, Tempo, 430108
1, 69566, Tempo, 428571
1, 69576, Tempo, 434783
1, 69585, Tempo, 437956
1, 69600, Note_on_c, 0, 92, 0
1, 69600, Note_on_c, 0, 91, 58
1, 69633, Tempo, 436364
1, 69660, Note_on_c, 0, 91, 0
1, 69660, Note_on_c, 0, 92, 52
1, 69681, Tempo, 434783
1, 69720, Note_on_c, 0, 92, 0
1, 69720, Note_on_c, 0, 91, 58
1, 69729, Tempo, 433213
1, 69777, Tempo, 431655
1, 69780, Note_on_c, 0, 91, 0
1, 69780, Note_on_c, 0, 92, 52
1, 69825, Tempo, 430108
1, 69840, Note_on_c, 0, 92, 0
1, 69840, Note_on_c, 0, 91, 58
1, 69873, Tempo, 428571
1, 69900, Note_on_c, 0, 91, 0
1, 69900, Note_on_c, 0, 92, 52
1, 69921, Tempo, 427046
1, 69960, Note_on_c, 0, 92, 0
1, 69960, Note_on_c, 0, 91, 58
1, 69969, Tempo, 425532
1, 70008, Tempo, 422535
1, 70040, Note_on_c, 0, 91, 0
1, 70040, Note_on_c, 0, 92, 54
1, 70046, Tempo, 424028
1, 70075, Tempo, 425532
1, 70104, Tempo, 427046
1, 70120, Note_on_c, 0, 92, 0
1, 70120, Note_on_c, 0, 91, 58
1, 70132, Tempo, 428571
1, 70161, Tempo, 430108
1, 70200, Tempo, 431655
1, 70200, Note_on_c, 0, 91, 0
1, 70200, Note_on_c, 0, 90, 54
1, 70228, Tempo, 433213
1, 70257, Tempo, 434783
1, 70260, Note_on_c, 0, 90, 0
1, 70260, Note_on_c, 0, 91, 56
1, 70286, Tempo, 436364
1, 70315, Tempo, 437956
1, 70320, Tempo, 432401
1, 70320, Note_on_c, 0, 91, 0
1, 70320, Note_on_c, 0, 92, 64
1, 70332, Control_c, 0, 64, 0
1, 70395, Control_c, 0, 64, 127
1, 70440, Note_on_c, 0, 92, 0
1, 70440, Note_on_c, 0, 91, 58
1, 70560, Note_on_c, 0, 91, 0
1, 70560, Note_on_c, 0, 53, 0
1, 70560, Note_on_c, 0, 61, 0
1, 70560, Note_on_c, 0, 58, 0
1, 70560, Note_on_c, 0, 64, 0
1, 70560, Note_on_c, 0, 89, 81
1, 70560, Note_on_c, 0, 53, 52
1, 70560, Note_on_c, 0, 60, 52
1, 70560, Note_on_c, 0, 65, 62
1, 70560, Note_on_c, 0, 56, 52
1, 70587, Control_c, 0, 64, 0
1, 70680, Note_on_c, 0, 56, 0
1, 70680, Note_on_c, 0, 60, 0
1, 70680, Note_on_c, 0, 89, 0
1, 70680, Note_on_c, 0, 53, 0
1, 70680, Note_on_c, 0, 65, 0
1, 70795, Tempo, 441176
1, 70800, Note_on_c, 0, 79, 73
1, 70800, Note_on_c, 0, 61, 51
1, 70800, Note_on_c, 0, 64, 61
1, 70800, Note_on_c, 0, 58, 51
1, 70800, Note_on_c, 0, 53, 51
1, 70804, Tempo, 439560
1, 70814, Tempo, 436364
1, 70824, Tempo, 434783
1, 70833, Tempo, 433213
1, 70843, Control_c, 0, 64, 127
1, 70860, Note_on_c, 0, 79, 0
1, 70860, Note_on_c, 0, 80, 67
1, 70872, Tempo, 441176
1, 70881, Tempo, 439560
1, 70891, Tempo, 436364
1, 70910, Tempo, 434783
1, 70920, Note_on_c, 0, 80, 0
1, 70920, Note_on_c, 0, 79, 58
1, 70939, Tempo, 436364
1, 70948, Tempo, 434783
1, 70980, Note_on_c, 0, 79, 0
1, 70980, Note_on_c, 0, 80, 54
1, 71006, Tempo, 437956
1, 71016, Tempo, 442804
1, 71025, Tempo, 436364
1, 71040, Note_on_c, 0, 80, 0
1, 71040, Note_on_c, 0, 79, 58
1, 71044, Tempo, 434783
1, 71064, Tempo, 436364
1, 71073, Tempo, 437956
1, 71100, Tempo, 434122
1, 71100, Note_on_c, 0, 79, 0
1, 71100, Note_on_c, 0, 80, 52
1, 71112, Tempo, 441176
1, 71140, Tempo, 439560
1, 71160, Note_on_c, 0, 80, 0
1, 71160, Note_on_c, 0, 79, 58
1, 71169, Tempo, 437956
1, 71188, Tempo, 436364
1, 71217, Tempo, 434783
1, 71220, Note_on_c, 0, 79, 0
1, 71220, Note_on_c, 0, 80, 52
1, 71236, Tempo, 433213
1, 71265, Tempo, 431655
1, 71280, Note_on_c, 0, 80, 0
1, 71280, Note_on_c, 0, 79, 58
1, 71284, Tempo, 430108
1, 71313, Tempo, 428571
1, 71340, Note_on_c, 0, 79, 0
1, 71340, Note_on_c, 0, 80, 52
1, 71342, Tempo, 427046
1, 71361, Tempo, 425532
1, 71390, Tempo, 424028
1, 71400, Note_on_c, 0, 80, 0
1, 71400, Note_on_c, 0, 79, 58
1, 71409, Tempo, 422535
1, 71438, Tempo, 421053
1, 71457, Tempo, 418118
1, 71480, Note_on_c, 0, 79, 0
1, 71480, Note_on_c, 0, 80, 54
1, 71486, Tempo, 419580
1, 71515, Tempo, 421053
1, 71534, Tempo, 422535
1, 71560, Note_on_c, 0, 80, 0
1, 71560, Note_on_c, 0, 79, 58
1, 71563, Tempo, 424028
1, 71582, Tempo, 425532
1, 71611, Tempo, 427046
1, 71640, Tempo, 428571
1, 71640, Note_on_c, 0, 79, 0
1, 71640, Note_on_c, 0, 78, 54
1, 71659, Tempo, 430108
1, 71688, Tempo, 431655
1, 71700, Note_on_c, 0, 78, 0
1, 71700, Note_on_c, 0, 79, 56
1, 71707, Tempo, 433213
1, 71736, Tempo, 434783
1, 71755, Tempo, 436364
1, 71760, Tempo, 432401
1, 71760, Note_on_c, 0, 79, 0
1, 71760, Note_on_c, 0, 80, 64
1, 71772, Control_c, 0, 64, 0
1, 71835, Control_c, 0, 64, 127
1, 71880, Note_on_c, 0, 80, 0
1, 71880, Note_on_c, 0, 79, 58
1, 72000, Note_on_c, 0, 79, 0
1, 72000, Note_on_c, 0, 58, 0
1, 72000, Note_on_c, 0, 61, 0
1, 72000, Note_on_c, 0, 64, 0
1, 72000, Note_on_c, 0, 53, 0
1, 72000, Note_on_c, 0, 77, 81
1, 72000, Note_on_c, 0, 56, 52
1, 72000, Note_on_c, 0, 60, 52
1, 72000, Note_on_c, 0, 53, 52
1, 72000, Note_on_c, 0, 65, 62
1, 72027, Control_c, 0, 64, 0
1, 72120, Note_on_c, 0, 65, 0
1, 72120, Note_on_c, 0, 60, 0
1, 72120, Note_on_c, 0, 77, 0
1, 72120, Note_on_c, 0, 56, 0
1, 72120, Note_on_c, 0, 53, 0
1, 72240, Tempo, 435856
1, 72240, Note_on_c, 0, 91, 73
1, 72240, Note_on_c, 0, 58, 51
1, 72240, Note_on_c, 0, 61, 51
1, 72240, Note_on_c, 0, 64, 61
1, 72240, Note_on_c, 0, 53, 51
1, 72244, Tempo, 434122
1, 72244, Tempo, 436364
1, 72264, Tempo, 433213
1, 72283, Tempo, 431655
1, 72300, Note_on_c, 0, 91, 0
1, 72300, Note_on_c, 0, 92, 67
1, 72312, Tempo, 433213
1, 72340, Tempo, 436364
1, 72360, Tempo, 439560
1, 72360, Note_on_c, 0, 92, 0
1, 72360, Note_on_c, 0, 91, 58
1, 72379, Tempo, 433213
1, 72388, Tempo, 431655
1, 72408, Tempo, 430108
1, 72420, Note_on_c, 0, 91, 0
1, 72420, Note_on_c, 0, 92, 54
1, 72456, Tempo, 431655
1, 72465, Tempo, 433213
1, 72475, Tempo, 434783
1, 72480, Note_on_c, 0, 92, 0
1, 72480, Note_on_c, 0, 91, 58
1, 72484, Tempo, 436364
1, 72523, Tempo, 434783
1, 72532, Tempo, 431655
1, 72540, Note_on_c, 0, 91, 0
1, 72540, Note_on_c, 0, 92, 52
1, 72542, Tempo, 433213
1, 72578, Tempo, 432401
1, 72600, Note_on_c, 0, 92, 0
1, 72600, Note_on_c, 0, 91, 58
1, 72616, Tempo, 430694
1, 72655, Tempo, 429000
1, 72660, Note_on_c, 0, 91, 0
1, 72660, Note_on_c, 0, 92, 52
1, 72692, Tempo, 437605
1, 72720, Tempo, 459770
1, 72720, Note_on_c, 0, 92, 0
1, 72720, Note_on_c, 0, 90, 58
1, 72744, Tempo, 457841
1, 72768, Tempo, 455927
1, 72780, Note_on_c, 0, 90, 0
1, 72780, Note_on_c, 0, 91, 53
1, 72792, Tempo, 453995
1, 72816, Tempo, 452148
1, 72840, Tempo, 450281
1, 72840, Note_on_c, 0, 91, 0
1, 72840, Note_on_c, 0, 92, 54
1, 72852, Tempo, 448397
1, 72876, Tempo, 446561
1, 72900, Tempo, 444741
1, 72900, Note_on_c, 0, 92, 0
1, 72900, Note_on_c, 0, 94, 56
1, 72924, Tempo, 442968
1, 72948, Tempo, 441144
1, 72960, Tempo, 439367
1, 72960, Note_on_c, 0, 94, 0
1, 72960, Note_on_c, 0, 96, 57
1, 73020, Tempo, 441144
1, 73020, Note_on_c, 0, 96, 0
1, 73020, Note_on_c, 0, 97, 58
1, 73080, Tempo, 442968
1, 73080, Note_on_c, 0, 97, 0
1, 73080, Note_on_c, 0, 100, 60
1, 73140, Tempo, 444741
1, 73140, Note_on_c, 0, 100, 0
1, 73140, Note_on_c, 0, 101, 62
1, 73188, Tempo, 446561
1, 73200, Note_on_c, 0, 101, 0
1, 73200, Note_on_c, 0, 100, 63
1, 73240, Note_on_c, 0, 100, 0
1, 73240, Note_on_c, 0, 97, 62
1, 73248, Tempo, 448397
1, 73280, Note_on_c, 0, 97, 0
1, 73281, Note_on_c, 0, 96, 61
1, 73308, Tempo, 450281
1, 73321, Note_on_c, 0, 96, 0
1, 73321, Note_on_c, 0, 94, 61
1, 73360, Note_on_c, 0, 92, 60
1, 73361, Note_on_c, 0, 94, 0
1, 73368, Tempo, 452148
1, 73400, Note_on_c, 0, 92, 0
1, 73400, Note_on_c, 0, 91, 59
1, 73416, Tempo, 453995
1, 73440, Note_on_c, 0, 91, 0
1, 73440, Note_on_c, 0, 64, 0
1, 73440, Note_on_c, 0, 58, 0
1, 73440, Note_on_c, 0, 61, 0
1, 73440, Note_on_c, 0, 53, 0
1, 73440, Note_on_c, 0, 89, 81
1, 73440, Note_on_c, 0, 56, 52
1, 73440, Note_on_c, 0, 60, 52
1, 73440, Note_on_c, 0, 65, 62
1, 73440, Note_on_c, 0, 53, 52
1, 73467, Control_c, 0, 64, 0
1, 73476, Tempo, 455927
1, 73536, Tempo, 457841
1, 73560, Note_on_c, 0, 53, 0
1, 73560, Note_on_c, 0, 60, 0
1, 73560, Note_on_c, 0, 89, 0
1, 73560, Note_on_c, 0, 56, 0
1, 73560, Note_on_c, 0, 65, 0
1, 73596, Tempo, 459770
1, 73644, Tempo, 461716
1, 73680, Tempo, 435856
1, 73680, Note_on_c, 0, 79, 73
1, 73680, Note_on_c, 0, 64, 61
1, 73680, Note_on_c, 0, 53, 51
1, 73680, Note_on_c, 0, 61, 51
1, 73680, Note_on_c, 0, 58, 51
1, 73684, Tempo, 434122
1, 73690, Tempo, 427290
1, 73726, Tempo, 429000
1, 73732, Tempo, 430694
1, 73738, Tempo, 441144
1, 73740, Note_on_c, 0, 79, 0
1, 73740, Note_on_c, 0, 80, 67
1, 73740, Control_c, 0, 64, 127
1, 73763, Tempo, 430694
1, 73769, Tempo, 429000
1, 73781, Tempo, 427290
1, 73793, Tempo, 425622
1, 73800, Note_on_c, 0, 80, 0
1, 73800, Note_on_c, 0, 79, 58
1, 73811, Tempo, 427290
1, 73817, Tempo, 429000
1, 73823, Tempo, 430694
1, 73835, Tempo, 432401
1, 73860, Tempo, 425622
1, 73860, Note_on_c, 0, 79, 0
1, 73860, Note_on_c, 0, 80, 54
1, 73872, Tempo, 427290
1, 73878, Tempo, 429000
1, 73884, Tempo, 432401
1, 73920, Note_on_c, 0, 80, 0
1, 73920, Note_on_c, 0, 79, 58
1, 73921, Tempo, 430694
1, 73980, Tempo, 434122
1, 73980, Note_on_c, 0, 79, 0
1, 73980, Note_on_c, 0, 80, 52
1, 74012, Tempo, 439367
1, 74040, Note_on_c, 0, 80, 0
1, 74040, Note_on_c, 0, 79, 58
1, 74060, Tempo, 437605
1, 74100, Note_on_c, 0, 79, 0
1, 74100, Note_on_c, 0, 80, 52
1, 74108, Tempo, 435856
1, 74144, Tempo, 434122
1, 74148, Tempo, 465658
1, 74160, Tempo, 473747
1, 74160, Note_on_c, 0, 80, 0
1, 74160, Note_on_c, 0, 78, 58
1, 74164, Tempo, 476190
1, 74185, Control_c, 0, 64, 0
1, 74193, Tempo, 474308
1, 74208, Note_on_c, 0, 78, 0
1, 74208, Note_on_c, 0, 79, 53
1, 74209, Control_c, 0, 64, 127
1, 74212, Tempo, 472441
1, 74232, Tempo, 470588
1, 74251, Tempo, 468750
1, 74256, Note_on_c, 0, 79, 0
1, 74256, Note_on_c, 0, 80, 54
1, 74270, Tempo, 466926
1, 74289, Tempo, 465116
1, 74304, Note_on_c, 0, 80, 0
1, 74304, Note_on_c, 0, 82, 56
1, 74308, Tempo, 463320
1, 74328, Tempo, 461538
1, 74347, Tempo, 459770
1, 74352, Note_on_c, 0, 82, 0
1, 74352, Note_on_c, 0, 84, 57
1, 74366, Tempo, 458015
1, 74385, Tempo, 456274
1, 74400, Note_on_c, 0, 84, 0
1, 74400, Note_on_c, 0, 86, 58
1, 74404, Tempo, 454545
1, 74414, Tempo, 458015
1, 74448, Note_on_c, 0, 86, 0
1, 74448, Note_on_c, 0, 88, 60
1, 74496, Note_on_c, 0, 88, 0
1, 74496, Note_on_c, 0, 89, 62
1, 74544, Note_on_c, 0, 89, 0
1, 74544, Note_on_c, 0, 91, 62
1, 74592, Note_on_c, 0, 91, 0
1, 74592, Note_on_c, 0, 89, 62
1, 74627, Tempo, 576535
1, 74640, Note_on_c, 0, 89, 0
1, 74640, Note_on_c, 0, 88, 60
1, 74651, Tempo, 579598
1, 74657, Note_on_c, 0, 88, 0
1, 74657, Note_on_c, 0, 86, 59
1, 74674, Note_on_c, 0, 84, 57
1, 74674, Note_on_c, 0, 86, 0
1, 74675, Tempo, 582694
1, 74691, Note_on_c, 0, 84, 0
1, 74691, Note_on_c, 0, 82, 56
1, 74699, Tempo, 585823
1, 74707, Note_on_c, 0, 80, 55
1, 74708, Note_on_c, 0, 82, 0
1, 74723, Tempo, 589044
1, 74724, Note_on_c, 0, 80, 0
1, 74724, Note_on_c, 0, 79, 53
1, 74735, Tempo, 592183
1, 74736, Tempo, 561640
1, 74741, Note_on_c, 0, 79, 0
1, 74741, Note_on_c, 0, 77, 51
1, 74747, Tempo, 595415
1, 74758, Note_on_c, 0, 76, 50
1, 74758, Note_on_c, 0, 77, 0
1, 74759, Tempo, 598743
1, 74771, Tempo, 605388
1, 74775, Note_on_c, 0, 76, 0
1, 74775, Note_on_c, 0, 73, 48
1, 74783, Tempo, 612182
1, 74791, Note_on_c, 0, 72, 47
1, 74792, Note_on_c, 0, 73, 0
1, 74795, Tempo, 619131
1, 74807, Tempo, 626239
1, 74813, Note_on_c, 0, 72, 0
1, 74813, Note_on_c, 0, 70, 46
1, 74819, Tempo, 629855
1, 74831, Tempo, 637213
1, 74835, Note_on_c, 0, 70, 0
1, 74835, Note_on_c, 0, 68, 44
1, 74843, Tempo, 644815
1, 74855, Tempo, 652458
1, 74857, Note_on_c, 0, 68, 0
1, 74857, Note_on_c, 0, 67, 42
1, 74867, Tempo, 660429
1, 74880, Tempo, 579598
1, 74880, Tempo, 511553
1, 74880, Note_on_c, 0, 67, 0
1, 74880, Note_on_c, 0, 61, 0
1, 74880, Note_on_c, 0, 64, 0
1, 74880, Note_on_c, 0, 53, 0
1, 74880, Note_on_c, 0, 58, 0
1, 74880, Note_on_c, 0, 65, 70
1, 74880, Note_on_c, 0, 53, 67
1, 74880, Note_on_c, 0, 56, 67
1, 74880, Note_on_c, 0, 60, 79
1, 74894, Control_c, 0, 64, 0
1, 75014, Control_c, 0, 64, 127
1, 75120, Note_on_c, 0, 60, 0
1, 75120, Note_on_c, 0, 65, 0
1, 75120, Note_on_c, 0, 53, 0
1, 75120, Note_on_c, 0, 56, 0
1, 75187, Control_c, 0, 64, 0
1, 75600, Tempo, 854579
1, 75600, Note_on_c, 0, 73, 67
1, 75600, Note_on_c, 0, 70, 67
1, 75600, Note_on_c, 0, 75, 67
1, 75600, Note_on_c, 0, 67, 67
1, 75600, Note_on_c, 0, 79, 79
1, 75600, Note_on_c, 0, 51, 67
1, 75600, Note_on_c, 0, 63, 79
1, 75600, Note_on_c, 0, 58, 67
1, 75600, Note_on_c, 0, 61, 67
1, 75638, Control_c, 0, 64, 127
1, 75840, Note_on_c, 0, 61, 0
1, 75840, Note_on_c, 0, 67, 0
1, 75840, Note_on_c, 0, 73, 0
1, 75840, Note_on_c, 0, 79, 0
1, 75840, Note_on_c, 0, 70, 0
1, 75840, Note_on_c, 0, 75, 0
1, 75840, Note_on_c, 0, 63, 0
1, 75840, Note_on_c, 0, 51, 0
1, 75840, Note_on_c, 0, 58, 0
1, 75891, Control_c, 0, 64, 0
1, 76309, Tempo, 426409
1, 76312, Tempo, 423400
1, 76320, Marker_t, "Part2"
1, 76320, Note_on_c, 0, 80, 40
1, 76320, Note_on_c, 0, 60, 32
1, 76320, Note_on_c, 0, 56, 27
1, 76320, Note_on_c, 0, 63, 32
1, 76363, Control_c, 0, 64, 127
1, 76372, Tempo, 421911
1, 76432, Tempo, 420433
1, 76440, Note_on_c, 0, 80, 0
1, 76440, Note_on_c, 0, 82, 39
1, 76492, Tempo, 418965
1, 76536, Note_on_c, 0, 60, 0
1, 76536, Note_on_c, 0, 63, 0
1, 76536, Note_on_c, 0, 56, 0
1, 76552, Tempo, 417507
1, 76560, Note_on_c, 0, 82, 0
1, 76560, Note_on_c, 0, 84, 41
1, 76560, Note_on_c, 0, 63, 29
1, 76560, Note_on_c, 0, 56, 24
1, 76560, Note_on_c, 0, 60, 29
1, 76612, Tempo, 416060
1, 76672, Tempo, 414622
1, 76680, Note_on_c, 0, 84, 0
1, 76680, Note_on_c, 0, 85, 43
1, 76732, Tempo, 413195
1, 76776, Note_on_c, 0, 63, 0
1, 76776, Note_on_c, 0, 60, 0
1, 76776, Note_on_c, 0, 56, 0
1, 76792, Tempo, 411777
1, 76800, Note_on_c, 0, 85, 0
1, 76800, Note_on_c, 0, 87, 46
1, 76800, Note_on_c, 0, 63, 29
1, 76800, Note_on_c, 0, 56, 24
1, 76800, Note_on_c, 0, 60, 29
1, 76852, Tempo, 410369
1, 76912, Tempo, 408970
1, 76920, Note_on_c, 0, 87, 0
1, 76920, Note_on_c, 0, 85, 46
1, 76936, Tempo, 407581
1, 77020, Tempo, 408970
1, 77040, Note_on_c, 0, 85, 0
1, 77040, Note_on_c, 0, 84, 46
1, 77047, Control_c, 0, 64, 0
1, 77092, Tempo, 410369
1, 77111, Control_c, 0, 64, 127
1, 77160, Note_on_c, 0, 84, 0
1, 77160, Note_on_c, 0, 82, 45
1, 77164, Tempo, 411777
1, 77236, Tempo, 413195
1, 77280, Note_on_c, 0, 82, 0
1, 77280, Note_on_c, 0, 80, 44
1, 77308, Tempo, 414622
1, 77392, Tempo, 416060
1, 77400, Note_on_c, 0, 80, 0
1, 77400, Note_on_c, 0, 79, 43
1, 77464, Tempo, 417507
1, 77520, Note_on_c, 0, 79, 0
1, 77520, Note_on_c, 0, 77, 42
1, 77536, Tempo, 418965
1, 77608, Tempo, 420433
1, 77640, Note_on_c, 0, 77, 0
1, 77640, Note_on_c, 0, 75, 41
1, 77680, Tempo, 421911
1, 77752, Tempo, 423400
1, 77760, Note_on_c, 0, 75, 0
1, 77760, Note_on_c, 0, 60, 0
1, 77760, Note_on_c, 0, 63, 0
1, 77760, Note_on_c, 0, 73, 41
1, 77760, Note_on_c, 0, 65, 31
1, 77760, Note_on_c, 0, 61, 26
1, 77760, Control_c, 0, 64, 0
1, 77836, Tempo, 424899
1, 77859, Control_c, 0, 64, 127
1, 77880, Note_on_c, 0, 73, 0
1, 77880, Note_on_c, 0, 72, 39
1, 77908, Tempo, 426409
1, 77980, Tempo, 427930
1, 78000, Note_on_c, 0, 72, 0
1, 78000, Note_on_c, 0, 70, 38
1, 78052, Tempo, 429461
1, 78120, Note_on_c, 0, 70, 0
1, 78120, Note_on_c, 0, 68, 38
1, 78124, Tempo, 431004
1, 78196, Tempo, 432557
1, 78217, Tempo, 431004
1, 78232, Tempo, 429461
1, 78240, Note_on_c, 0, 68, 0
1, 78240, Note_on_c, 0, 67, 36
1, 78360, Note_on_c, 0, 67, 0
1, 78360, Note_on_c, 0, 68, 35
1, 78460, Tempo, 429461
1, 78480, Note_on_c, 0, 68, 0
1, 78480, Note_on_c, 0, 70, 33
1, 78480, Control_c, 0, 64, 0
1, 78556, Tempo, 427930
1, 78565, Control_c, 0, 64, 127
1, 78600, Note_on_c, 0, 70, 0
1, 78600, Note_on_c, 0, 72, 33
1, 78640, Tempo, 426409
1, 78720, Note_on_c, 0, 72, 0
1, 78720, Note_on_c, 0, 73, 34
1, 78736, Tempo, 424899
1, 78820, Tempo, 423400
1, 78840, Note_on_c, 0, 73, 0
1, 78840, Note_on_c, 0, 75, 36
1, 78916, Tempo, 421911
1, 78960, Note_on_c, 0, 75, 0
1, 78960, Note_on_c, 0, 77, 37
1, 79000, Tempo, 420433
1, 79080, Note_on_c, 0, 77, 0
1, 79080, Note_on_c, 0, 79, 39
1, 79096, Tempo, 418965
1, 79180, Tempo, 418965
1, 79200, Note_on_c, 0, 79, 0
1, 79200, Note_on_c, 0, 61, 0
1, 79200, Note_on_c, 0, 65, 0
1, 79200, Note_on_c, 0, 56, 0
1, 79200, Note_on_c, 0, 80, 40
1, 79200, Note_on_c, 0, 56, 27
1, 79200, Note_on_c, 0, 63, 32
1, 79200, Note_on_c, 0, 60, 27
1, 79214, Control_c, 0, 64, 0
1, 79252, Tempo, 417507
1, 79299, Control_c, 0, 64, 127
1, 79320, Note_on_c, 0, 80, 0
1, 79320, Note_on_c, 0, 82, 39
1, 79348, Tempo, 416060
1, 79416, Note_on_c, 0, 56, 0
1, 79416, Note_on_c, 0, 60, 0
1, 79416, Note_on_c, 0, 63, 0
1, 79432, Tempo, 414622
1, 79440, Note_on_c, 0, 82, 0
1, 79440, Note_on_c, 0, 84, 41
1, 79440, Note_on_c, 0, 60, 24
1, 79440, Note_on_c, 0, 56, 24
1, 79440, Note_on_c, 0, 63, 29
1, 79516, Tempo, 413195
1, 79560, Note_on_c, 0, 84, 0
1, 79560, Note_on_c, 0, 85, 43
1, 79600, Tempo, 411777
1, 79656, Note_on_c, 0, 60, 0
1, 79656, Note_on_c, 0, 63, 0
1, 79656, Note_on_c, 0, 56, 0
1, 79673, Note_on_c, 0, 89, 46
1, 79680, Note_on_c, 0, 85, 0
1, 79680, Note_on_c, 0, 63, 29
1, 79680, Note_on_c, 0, 60, 24
1, 79680, Note_on_c, 0, 56, 24
1, 79684, Tempo, 410369
1, 79768, Tempo, 408970
1, 79793, Note_on_c, 0, 89, 0
1, 79800, Note_on_c, 0, 87, 46
1, 79852, Tempo, 407581
1, 79920, Note_on_c, 0, 87, 0
1, 79920, Note_on_c, 0, 85, 46
1, 79927, Control_c, 0, 64, 0
1, 79936, Tempo, 404831
1, 79991, Control_c, 0, 64, 127
1, 79996, Tempo, 406201
1, 80040, Note_on_c, 0, 85, 0
1, 80040, Note_on_c, 0, 84, 45
1, 80056, Tempo, 407581
1, 80116, Tempo, 408970
1, 80160, Note_on_c, 0, 84, 0
1, 80160, Note_on_c, 0, 82, 44
1, 80164, Tempo, 410369
1, 80224, Tempo, 411777
1, 80280, Note_on_c, 0, 82, 0
1, 80280, Note_on_c, 0, 80, 43
1, 80284, Tempo, 413195
1, 80332, Tempo, 414622
1, 80392, Tempo, 416060
1, 80400, Note_on_c, 0, 80, 0
1, 80400, Note_on_c, 0, 79, 42
1, 80452, Tempo, 417507
1, 80500, Tempo, 418965
1, 80520, Tempo, 453823
1, 80520, Note_on_c, 0, 79, 0
1, 80520, Note_on_c, 0, 77, 41
1, 80620, Tempo, 414622
1, 80640, Note_on_c, 0, 77, 0
1, 80640, Note_on_c, 0, 60, 0
1, 80640, Note_on_c, 0, 75, 41
1, 80640, Note_on_c, 0, 61, 31
1, 80640, Control_c, 0, 64, 0
1, 80739, Control_c, 0, 64, 127
1, 80760, Note_on_c, 0, 75, 0
1, 80760, Note_on_c, 0, 77, 33
1, 80880, Note_on_c, 0, 77, 0
1, 80880, Note_on_c, 0, 61, 0
1, 80880, Note_on_c, 0, 73, 38
1, 80880, Note_on_c, 0, 58, 30
1, 80882, Control_c, 0, 64, 0
1, 80972, Control_c, 0, 64, 127
1, 81000, Note_on_c, 0, 73, 0
1, 81000, Note_on_c, 0, 75, 32
1, 81120, Note_on_c, 0, 75, 0
1, 81120, Note_on_c, 0, 58, 0
1, 81120, Note_on_c, 0, 72, 36
1, 81120, Note_on_c, 0, 60, 30
1, 81136, Control_c, 0, 64, 0
1, 81219, Control_c, 0, 64, 127
1, 81240, Note_on_c, 0, 72, 0
1, 81240, Note_on_c, 0, 75, 29
1, 81360, Note_on_c, 0, 75, 0
1, 81360, Note_on_c, 0, 60, 0
1, 81360, Note_on_c, 0, 70, 33
1, 81360, Note_on_c, 0, 61, 31
1, 81360, Control_c, 0, 64, 0
1, 81445, Control_c, 0, 64, 127
1, 81472, Tempo, 413195
1, 81480, Note_on_c, 0, 70, 0
1, 81480, Note_on_c, 0, 75, 30
1, 81496, Tempo, 414622
1, 81568, Tempo, 414622
1, 81600, Note_on_c, 0, 75, 0
1, 81600, Note_on_c, 0, 61, 0
1, 81600, Note_on_c, 0, 68, 38
1, 81600, Note_on_c, 0, 60, 28
1, 81619, Control_c, 0, 64, 0
1, 81652, Tempo, 416060
1, 81699, Control_c, 0, 64, 127
1, 81720, Note_on_c, 0, 68, 0
1, 81720, Note_on_c, 0, 75, 31
1, 81724, Tempo, 417507
1, 81808, Tempo, 418965
1, 81840, Note_on_c, 0, 75, 0
1, 81840, Note_on_c, 0, 60, 0
1, 81840, Note_on_c, 0, 67, 40
1, 81840, Note_on_c, 0, 58, 31
1, 81849, Control_c, 0, 64, 0
1, 81880, Tempo, 420433
1, 81932, Control_c, 0, 64, 127
1, 81960, Note_on_c, 0, 67, 0
1, 81960, Note_on_c, 0, 75, 33
1, 81964, Tempo, 421911
1, 82036, Tempo, 423400
1, 82069, Tempo, 420433
1, 82080, Tempo, 423400
1, 82080, Note_on_c, 0, 75, 0
1, 82080, Note_on_c, 0, 58, 0
1, 82080, Note_on_c, 0, 63, 0
1, 82080, Note_on_c, 0, 56, 0
1, 82080, Note_on_c, 0, 80, 40
1, 82080, Note_on_c, 0, 59, 27
1, 82080, Note_on_c, 0, 56, 27
1, 82080, Note_on_c, 0, 63, 32
1, 82083, Control_c, 0, 64, 0
1, 82132, Tempo, 421911
1, 82165, Control_c, 0, 64, 127
1, 82192, Tempo, 420433
1, 82200, Note_on_c, 0, 80, 0
1, 82200, Note_on_c, 0, 82, 39
1, 82252, Tempo, 418965
1, 82296, Note_on_c, 0, 59, 0
1, 82296, Note_on_c, 0, 63, 0
1, 82296, Note_on_c, 0, 56, 0
1, 82312, Tempo, 417507
1, 82320, Note_on_c, 0, 82, 0
1, 82320, Note_on_c, 0, 83, 41
1, 82320, Note_on_c, 0, 63, 29
1, 82320, Note_on_c, 0, 59, 24
1, 82320, Note_on_c, 0, 56, 24
1, 82372, Tempo, 416060
1, 82432, Tempo, 414622
1, 82440, Note_on_c, 0, 83, 0
1, 82440, Note_on_c, 0, 85, 43
1, 82492, Tempo, 413195
1, 82536, Note_on_c, 0, 63, 0
1, 82536, Note_on_c, 0, 56, 0
1, 82536, Note_on_c, 0, 59, 0
1, 82552, Tempo, 411777
1, 82560, Note_on_c, 0, 85, 0
1, 82560, Note_on_c, 0, 87, 46
1, 82560, Note_on_c, 0, 59, 24
1, 82560, Note_on_c, 0, 56, 24
1, 82560, Note_on_c, 0, 63, 29
1, 82612, Tempo, 410369
1, 82672, Tempo, 408970
1, 82680, Note_on_c, 0, 87, 0
1, 82680, Note_on_c, 0, 85, 46
1, 82696, Tempo, 407581
1, 82780, Tempo, 408970
1, 82800, Note_on_c, 0, 85, 0
1, 82800, Note_on_c, 0, 83, 46
1, 82807, Control_c, 0, 64, 0
1, 82852, Tempo, 410369
1, 82863, Control_c, 0, 64, 127
1, 82920, Note_on_c, 0, 83, 0
1, 82920, Note_on_c, 0, 82, 45
1, 82924, Tempo, 411777
1, 82996, Tempo, 413195
1, 83040, Note_on_c, 0, 82, 0
1, 83040, Note_on_c, 0, 80, 44
1, 83068, Tempo, 414622
1, 83152, Tempo, 416060
1, 83160, Note_on_c, 0, 80, 0
1, 83160, Note_on_c, 0, 78, 43
1, 83224, Tempo, 417507
1, 83280, Note_on_c, 0, 78, 0
1, 83280, Note_on_c, 0, 76, 42
1, 83296, Tempo, 418965
1, 83368, Tempo, 420433
1, 83400, Note_on_c, 0, 76, 0
1, 83400, Note_on_c, 0, 75, 41
1, 83440, Tempo, 421911
1, 83512, Tempo, 423400
1, 83520, Note_on_c, 0, 75, 0
1, 83520, Note_on_c, 0, 63, 0
1, 83520, Note_on_c, 0, 59, 0
1, 83520, Note_on_c, 0, 73, 41
1, 83520, Note_on_c, 0, 61, 26
1, 83520, Note_on_c, 0, 64, 31
1, 83520, Control_c, 0, 64, 0
1, 83596, Tempo, 424899
1, 83619, Control_c, 0, 64, 127
1, 83640, Note_on_c, 0, 73, 0
1, 83640, Note_on_c, 0, 71, 39
1, 83668, Tempo, 426409
1, 83740, Tempo, 427930
1, 83760, Note_on_c, 0, 71, 0
1, 83760, Note_on_c, 0, 70, 38
1, 83812, Tempo, 429461
1, 83880, Note_on_c, 0, 70, 0
1, 83880, Note_on_c, 0, 68, 38
1, 83884, Tempo, 431004
1, 83956, Tempo, 432557
1, 83977, Tempo, 431004
1, 83992, Tempo, 429461
1, 84000, Note_on_c, 0, 68, 0
1, 84000, Note_on_c, 0, 67, 36
1, 84120, Note_on_c, 0, 67, 0
1, 84120, Note_on_c, 0, 68, 35
1, 84220, Tempo, 429461
1, 84240, Note_on_c, 0, 68, 0
1, 84240, Note_on_c, 0, 70, 33
1, 84240, Control_c, 0, 64, 0
1, 84316, Tempo, 427930
1, 84325, Control_c, 0, 64, 127
1, 84360, Note_on_c, 0, 70, 0
1, 84360, Note_on_c, 0, 71, 33
1, 84400, Tempo, 426409
1, 84480, Note_on_c, 0, 71, 0
1, 84480, Note_on_c, 0, 73, 34
1, 84496, Tempo, 424899
1, 84580, Tempo, 423400
1, 84600, Note_on_c, 0, 73, 0
1, 84600, Note_on_c, 0, 75, 36
1, 84676, Tempo, 421911
1, 84720, Note_on_c, 0, 75, 0
1, 84720, Note_on_c, 0, 76, 37
1, 84760, Tempo, 420433
1, 84840, Note_on_c, 0, 76, 0
1, 84840, Note_on_c, 0, 79, 39
1, 84856, Tempo, 418965
1, 84940, Tempo, 418965
1, 84960, Note_on_c, 0, 79, 0
1, 84960, Note_on_c, 0, 64, 0
1, 84960, Note_on_c, 0, 61, 0
1, 84960, Note_on_c, 0, 56, 0
1, 84960, Note_on_c, 0, 80, 40
1, 84960, Note_on_c, 0, 59, 27
1, 84960, Note_on_c, 0, 63, 32
1, 84960, Note_on_c, 0, 56, 27
1, 84974, Control_c, 0, 64, 0
1, 85012, Tempo, 417507
1, 85059, Control_c, 0, 64, 127
1, 85080, Note_on_c, 0, 80, 0
1, 85080, Note_on_c, 0, 82, 39
1, 85108, Tempo, 416060
1, 85176, Note_on_c, 0, 59, 0
1, 85176, Note_on_c, 0, 56, 0
1, 85176, Note_on_c, 0, 63, 0
1, 85192, Tempo, 414622
1, 85200, Note_on_c, 0, 82, 0
1, 85200, Note_on_c, 0, 83, 41
1, 85200, Note_on_c, 0, 59, 24
1, 85200, Note_on_c, 0, 63, 29
1, 85200, Note_on_c, 0, 56, 24
1, 85276, Tempo, 413195
1, 85320, Note_on_c, 0, 83, 0
1, 85320, Note_on_c, 0, 85, 43
1, 85360, Tempo, 411777
1, 85416, Note_on_c, 0, 59, 0
1, 85416, Note_on_c, 0, 56, 0
1, 85416, Note_on_c, 0, 63, 0
1, 85440, Note_on_c, 0, 85, 0
1, 85440, Note_on_c, 0, 88, 46
1, 85440, Note_on_c, 0, 59, 24
1, 85440, Note_on_c, 0, 56, 24
1, 85440, Note_on_c, 0, 63, 29
1, 85444, Tempo, 410369
1, 85528, Tempo, 408970
1, 85560, Note_on_c, 0, 88, 0
1, 85560, Note_on_c, 0, 87, 46
1, 85612, Tempo, 407581
1, 85680, Note_on_c, 0, 87, 0
1, 85680, Note_on_c, 0, 85, 46
1, 85687, Control_c, 0, 64, 0
1, 85696, Tempo, 404831
1, 85751, Control_c, 0, 64, 127
1, 85756, Tempo, 406201
1, 85800, Note_on_c, 0, 85, 0
1, 85800, Note_on_c, 0, 83, 45
1, 85816, Tempo, 407581
1, 85876, Tempo, 408970
1, 85920, Note_on_c, 0, 83, 0
1, 85920, Note_on_c, 0, 82, 44
1, 85924, Tempo, 410369
1, 85984, Tempo, 411777
1, 86040, Note_on_c, 0, 82, 0
1, 86040, Note_on_c, 0, 80, 43
1, 86044, Tempo, 413195
1, 86092, Tempo, 414622
1, 86152, Tempo, 416060
1, 86160, Note_on_c, 0, 80, 0
1, 86160, Note_on_c, 0, 78, 42
1, 86212, Tempo, 417507
1, 86260, Tempo, 418965
1, 86280, Tempo, 453823
1, 86280, Note_on_c, 0, 78, 0
1, 86280, Note_on_c, 0, 76, 41
1, 86380, Tempo, 414622
1, 86400, Note_on_c, 0, 76, 0
1, 86400, Note_on_c, 0, 59, 0
1, 86400, Note_on_c, 0, 75, 46
1, 86400, Note_on_c, 0, 61, 31
1, 86400, Control_c, 0, 64, 0
1, 86499, Control_c, 0, 64, 127
1, 86640, Note_on_c, 0, 61, 0
1, 86640, Note_on_c, 0, 75, 0
1, 86640, Note_on_c, 0, 73, 38
1, 86640, Note_on_c, 0, 58, 30
1, 86652, Control_c, 0, 64, 0
1, 86709, Control_c, 0, 64, 127
1, 86760, Note_on_c, 0, 73, 0
1, 86760, Note_on_c, 0, 75, 32
1, 86880, Note_on_c, 0, 75, 0
1, 86880, Note_on_c, 0, 58, 0
1, 86880, Note_on_c, 0, 71, 36
1, 86880, Note_on_c, 0, 59, 30
1, 86886, Control_c, 0, 64, 0
1, 86937, Control_c, 0, 64, 127
1, 87000, Note_on_c, 0, 71, 0
1, 87000, Note_on_c, 0, 75, 29
1, 87120, Note_on_c, 0, 75, 0
1, 87120, Note_on_c, 0, 59, 0
1, 87120, Note_on_c, 0, 70, 33
1, 87120, Note_on_c, 0, 61, 31
1, 87120, Control_c, 0, 64, 0
1, 87205, Control_c, 0, 64, 127
1, 87232, Tempo, 413195
1, 87240, Note_on_c, 0, 70, 0
1, 87240, Note_on_c, 0, 75, 30
1, 87256, Tempo, 414622
1, 87328, Tempo, 414622
1, 87360, Note_on_c, 0, 75, 0
1, 87360, Note_on_c, 0, 61, 0
1, 87360, Note_on_c, 0, 68, 38
1, 87360, Note_on_c, 0, 59, 28
1, 87367, Control_c, 0, 64, 0
1, 87412, Tempo, 416060
1, 87445, Control_c, 0, 64, 127
1, 87480, Note_on_c, 0, 68, 0
1, 87480, Note_on_c, 0, 75, 31
1, 87484, Tempo, 417507
1, 87568, Tempo, 418965
1, 87600, Note_on_c, 0, 75, 0
1, 87600, Note_on_c, 0, 59, 0
1, 87600, Note_on_c, 0, 67, 40
1, 87600, Note_on_c, 0, 58, 31
1, 87640, Tempo, 420433
1, 87720, Note_on_c, 0, 58, 0
1, 87720, Note_on_c, 0, 67, 0
1, 87720, Control_c, 0, 64, 0
1, 87724, Tempo, 421911
1, 87796, Tempo, 423400
1, 87829, Tempo, 420433
1, 87840, Tempo, 423400
1, 87840, Note_on_c, 0, 56, 0
1, 87840, Note_on_c, 0, 63, 0
1, 87840, Note_on_c, 0, 80, 46
1, 87840, Note_on_c, 0, 60, 27
1, 87840, Note_on_c, 0, 56, 27
1, 87840, Note_on_c, 0, 63, 32
1, 87876, Control_c, 0, 64, 127
1, 87892, Tempo, 421911
1, 87952, Tempo, 420433
1, 87960, Note_on_c, 0, 80, 0
1, 87960, Note_on_c, 0, 82, 44
1, 88012, Tempo, 418965
1, 88056, Note_on_c, 0, 60, 0
1, 88056, Note_on_c, 0, 63, 0
1, 88056, Note_on_c, 0, 56, 0
1, 88072, Tempo, 417507
1, 88080, Note_on_c, 0, 82, 0
1, 88080, Note_on_c, 0, 84, 47
1, 88080, Note_on_c, 0, 56, 24
1, 88080, Note_on_c, 0, 60, 24
1, 88080, Note_on_c, 0, 63, 29
1, 88132, Tempo, 416060
1, 88192, Tempo, 414622
1, 88200, Note_on_c, 0, 84, 0
1, 88200, Note_on_c, 0, 85, 49
1, 88252, Tempo, 413195
1, 88296, Note_on_c, 0, 56, 0
1, 88296, Note_on_c, 0, 63, 0
1, 88296, Note_on_c, 0, 60, 0
1, 88312, Tempo, 411777
1, 88320, Note_on_c, 0, 85, 0
1, 88320, Note_on_c, 0, 87, 52
1, 88320, Note_on_c, 0, 60, 24
1, 88320, Note_on_c, 0, 56, 24
1, 88320, Note_on_c, 0, 63, 29
1, 88372, Tempo, 410369
1, 88432, Tempo, 408970
1, 88440, Note_on_c, 0, 87, 0
1, 88440, Note_on_c, 0, 85, 52
1, 88456, Tempo, 407581
1, 88540, Tempo, 408970
1, 88560, Note_on_c, 0, 85, 0
1, 88560, Note_on_c, 0, 84, 52
1, 88567, Control_c, 0, 64, 0
1, 88612, Tempo, 410369
1, 88631, Control_c, 0, 64, 127
1, 88680, Note_on_c, 0, 84, 0
1, 88680, Note_on_c, 0, 82, 51
1, 88684, Tempo, 411777
1, 88756, Tempo, 413195
1, 88800, Note_on_c, 0, 82, 0
1, 88800, Note_on_c, 0, 80, 50
1, 88828, Tempo, 414622
1, 88912, Tempo, 416060
1, 88920, Note_on_c, 0, 80, 0
1, 88920, Note_on_c, 0, 79, 49
1, 88984, Tempo, 417507
1, 89040, Note_on_c, 0, 79, 0
1, 89040, Note_on_c, 0, 77, 48
1, 89056, Tempo, 418965
1, 89128, Tempo, 420433
1, 89160, Note_on_c, 0, 77, 0
1, 89160, Note_on_c, 0, 75, 47
1, 89200, Tempo, 421911
1, 89272, Tempo, 423400
1, 89280, Note_on_c, 0, 75, 0
1, 89280, Note_on_c, 0, 63, 0
1, 89280, Note_on_c, 0, 60, 0
1, 89280, Note_on_c, 0, 73, 47
1, 89280, Note_on_c, 0, 65, 31
1, 89280, Note_on_c, 0, 61, 26
1, 89280, Control_c, 0, 64, 0
1, 89356, Tempo, 424899
1, 89379, Control_c, 0, 64, 127
1, 89400, Note_on_c, 0, 73, 0
1, 89400, Note_on_c, 0, 72, 44
1, 89428, Tempo, 426409
1, 89500, Tempo, 427930
1, 89520, Note_on_c, 0, 72, 0
1, 89520, Note_on_c, 0, 70, 43
1, 89572, Tempo, 429461
1, 89640, Note_on_c, 0, 70, 0
1, 89640, Note_on_c, 0, 68, 43
1, 89644, Tempo, 431004
1, 89716, Tempo, 432557
1, 89737, Tempo, 431004
1, 89752, Tempo, 429461
1, 89760, Note_on_c, 0, 68, 0
1, 89760, Note_on_c, 0, 67, 41
1, 89880, Note_on_c, 0, 67, 0
1, 89880, Note_on_c, 0, 68, 40
1, 89980, Tempo, 429461
1, 90000, Note_on_c, 0, 68, 0
1, 90000, Note_on_c, 0, 70, 37
1, 90000, Control_c, 0, 64, 0
1, 90076, Tempo, 427930
1, 90085, Control_c, 0, 64, 127
1, 90120, Note_on_c, 0, 70, 0
1, 90120, Note_on_c, 0, 72, 37
1, 90160, Tempo, 426409
1, 90240, Note_on_c, 0, 72, 0
1, 90240, Note_on_c, 0, 73, 39
1, 90256, Tempo, 424899
1, 90340, Tempo, 423400
1, 90360, Note_on_c, 0, 73, 0
1, 90360, Note_on_c, 0, 75, 41
1, 90436, Tempo, 421911
1, 90480, Note_on_c, 0, 75, 0
1, 90480, Note_on_c, 0, 77, 42
1, 90520, Tempo, 420433
1, 90600, Note_on_c, 0, 77, 0
1, 90600, Note_on_c, 0, 79, 44
1, 90616, Tempo, 418965
1, 90700, Tempo, 418965
1, 90720, Note_on_c, 0, 79, 0
1, 90720, Note_on_c, 0, 61, 0
1, 90720, Note_on_c, 0, 65, 0
1, 90720, Note_on_c, 0, 56, 0
1, 90720, Note_on_c, 0, 80, 46
1, 90720, Note_on_c, 0, 56, 32
1, 90720, Note_on_c, 0, 60, 32
1, 90720, Note_on_c, 0, 63, 38
1, 90734, Control_c, 0, 64, 0
1, 90772, Tempo, 417507
1, 90819, Control_c, 0, 64, 127
1, 90840, Note_on_c, 0, 80, 0
1, 90840, Note_on_c, 0, 82, 47
1, 90868, Tempo, 416060
1, 90936, Note_on_c, 0, 56, 0
1, 90936, Note_on_c, 0, 63, 0
1, 90936, Note_on_c, 0, 60, 0
1, 90952, Tempo, 414622
1, 90960, Note_on_c, 0, 82, 0
1, 90960, Note_on_c, 0, 84, 49
1, 90960, Note_on_c, 0, 63, 35
1, 90960, Note_on_c, 0, 56, 29
1, 90960, Note_on_c, 0, 60, 29
1, 91036, Tempo, 413195
1, 91080, Note_on_c, 0, 84, 0
1, 91080, Note_on_c, 0, 85, 52
1, 91120, Tempo, 411777
1, 91176, Note_on_c, 0, 63, 0
1, 91176, Note_on_c, 0, 60, 0
1, 91176, Note_on_c, 0, 56, 0
1, 91200, Note_on_c, 0, 85, 0
1, 91200, Note_on_c, 0, 87, 54
1, 91200, Note_on_c, 0, 60, 30
1, 91200, Note_on_c, 0, 56, 30
1, 91200, Note_on_c, 0, 63, 36
1, 91204, Tempo, 410369
1, 91288, Tempo, 408970
1, 91320, Note_on_c, 0, 87, 0
1, 91320, Note_on_c, 0, 89, 56
1, 91366, Tempo, 406201
1, 91426, Tempo, 404831
1, 91440, Note_on_c, 0, 89, 0
1, 91440, Note_on_c, 0, 91, 59
1, 91486, Tempo, 403470
1, 91546, Tempo, 402118
1, 91560, Note_on_c, 0, 91, 0
1, 91560, Note_on_c, 0, 92, 61
1, 91606, Tempo, 400775
1, 91654, Tempo, 399441
1, 91680, Note_on_c, 0, 92, 0
1, 91680, Note_on_c, 0, 94, 63
1, 91714, Tempo, 398116
1, 91774, Tempo, 396799
1, 91800, Note_on_c, 0, 94, 0
1, 91800, Note_on_c, 0, 96, 66
1, 91834, Tempo, 395491
1, 91894, Tempo, 394192
1, 91920, Note_on_c, 0, 96, 0
1, 91920, Note_on_c, 0, 97, 68
1, 91942, Tempo, 392902
1, 92002, Tempo, 391619
1, 92040, Note_on_c, 0, 97, 0
1, 92040, Note_on_c, 0, 99, 70
1, 92062, Tempo, 390345
1, 92122, Tempo, 389080
1, 92160, Note_on_c, 0, 99, 0
1, 92160, Note_on_c, 0, 60, 0
1, 92160, Note_on_c, 0, 56, 0
1, 92160, Note_on_c, 0, 101, 73
1, 92160, Note_on_c, 0, 58, 33
1, 92160, Note_on_c, 0, 55, 33
1, 92160, Note_on_c, 0, 61, 33
1, 92163, Control_c, 0, 64, 0
1, 92170, Tempo, 387822
1, 92182, Tempo, 387822
1, 92252, Control_c, 0, 64, 127
1, 92280, Note_on_c, 0, 101, 0
1, 92280, Note_on_c, 0, 99, 73
1, 92326, Tempo, 389080
1, 92400, Note_on_c, 0, 99, 0
1, 92400, Note_on_c, 0, 97, 72
1, 92470, Tempo, 390345
1, 92520, Note_on_c, 0, 97, 0
1, 92520, Note_on_c, 0, 96, 71
1, 92614, Tempo, 391619
1, 92640, Note_on_c, 0, 96, 0
1, 92640, Note_on_c, 0, 94, 70
1, 92758, Tempo, 392902
1, 92760, Note_on_c, 0, 94, 0
1, 92760, Note_on_c, 0, 92, 69
1, 92880, Note_on_c, 0, 92, 0
1, 92880, Note_on_c, 0, 91, 68
1, 92890, Tempo, 394192
1, 92899, Tempo, 392902
1, 92935, Tempo, 394192
1, 92971, Tempo, 395491
1, 93000, Note_on_c, 0, 91, 0
1, 93000, Note_on_c, 0, 89, 67
1, 93007, Tempo, 396799
1, 93043, Tempo, 398116
1, 93079, Tempo, 399441
1, 93115, Tempo, 400775
1, 93120, Note_on_c, 0, 89, 0
1, 93120, Note_on_c, 0, 87, 66
1, 93151, Tempo, 402118
1, 93187, Tempo, 403470
1, 93223, Tempo, 404831
1, 93240, Note_on_c, 0, 87, 0
1, 93240, Note_on_c, 0, 85, 66
1, 93247, Tempo, 406201
1, 93283, Tempo, 407581
1, 93319, Tempo, 408970
1, 93355, Tempo, 410369
1, 93360, Note_on_c, 0, 85, 0
1, 93360, Note_on_c, 0, 84, 65
1, 93391, Tempo, 411777
1, 93427, Tempo, 413195
1, 93463, Tempo, 414622
1, 93480, Note_on_c, 0, 84, 0
1, 93480, Note_on_c, 0, 82, 64
1, 93499, Tempo, 416060
1, 93535, Tempo, 417507
1, 93571, Tempo, 418965
1, 93583, Tempo, 417507
1, 93600, Note_on_c, 0, 82, 0
1, 93600, Note_on_c, 0, 61, 0
1, 93600, Note_on_c, 0, 63, 0
1, 93600, Note_on_c, 0, 58, 0
1, 93600, Note_on_c, 0, 55, 0
1, 93600, Note_on_c, 0, 80, 67
1, 93600, Note_on_c, 0, 59, 40
1, 93600, Note_on_c, 0, 56, 40
1, 93600, Note_on_c, 0, 63, 48
1, 93605, Control_c, 0, 64, 0
1, 93631, Tempo, 416060
1, 93667, Tempo, 414622
1, 93692, Control_c, 0, 64, 127
1, 93703, Tempo, 413195
1, 93720, Note_on_c, 0, 80, 0
1, 93720, Note_on_c, 0, 82, 68
1, 93739, Tempo, 411777
1, 93787, Tempo, 410369
1, 93816, Note_on_c, 0, 59, 0
1, 93816, Note_on_c, 0, 63, 0
1, 93816, Note_on_c, 0, 56, 0
1, 93823, Tempo, 408970
1, 93840, Note_on_c, 0, 82, 0
1, 93840, Note_on_c, 0, 83, 69
1, 93840, Note_on_c, 0, 59, 36
1, 93840, Note_on_c, 0, 63, 43
1, 93840, Note_on_c, 0, 56, 36
1, 93859, Tempo, 407581
1, 93895, Tempo, 406201
1, 93943, Tempo, 404831
1, 93960, Note_on_c, 0, 83, 0
1, 93960, Note_on_c, 0, 85, 71
1, 93979, Tempo, 403470
1, 94015, Tempo, 402118
1, 94051, Tempo, 400775
1, 94056, Note_on_c, 0, 59, 0
1, 94056, Note_on_c, 0, 56, 0
1, 94056, Note_on_c, 0, 63, 0
1, 94080, Note_on_c, 0, 85, 0
1, 94080, Note_on_c, 0, 87, 72
1, 94080, Note_on_c, 0, 63, 43
1, 94080, Note_on_c, 0, 59, 36
1, 94080, Note_on_c, 0, 56, 36
1, 94099, Tempo, 399441
1, 94135, Tempo, 398116
1, 94171, Tempo, 396799
1, 94200, Note_on_c, 0, 87, 0
1, 94200, Note_on_c, 0, 85, 73
1, 94207, Tempo, 395491
1, 94231, Tempo, 394192
1, 94303, Tempo, 395491
1, 94320, Note_on_c, 0, 85, 0
1, 94320, Note_on_c, 0, 83, 74
1, 94327, Control_c, 0, 64, 0
1, 94375, Tempo, 396799
1, 94391, Control_c, 0, 64, 127
1, 94435, Tempo, 398116
1, 94440, Note_on_c, 0, 83, 0
1, 94440, Note_on_c, 0, 82, 73
1, 94507, Tempo, 399441
1, 94560, Note_on_c, 0, 82, 0
1, 94560, Note_on_c, 0, 80, 71
1, 94567, Tempo, 400775
1, 94639, Tempo, 402118
1, 94680, Note_on_c, 0, 80, 0
1, 94680, Note_on_c, 0, 78, 70
1, 94711, Tempo, 403470
1, 94771, Tempo, 404831
1, 94800, Note_on_c, 0, 78, 0
1, 94800, Note_on_c, 0, 76, 68
1, 94843, Tempo, 406201
1, 94903, Tempo, 407581
1, 94920, Note_on_c, 0, 76, 0
1, 94920, Note_on_c, 0, 75, 67
1, 94975, Tempo, 408970
1, 95035, Tempo, 410369
1, 95040, Note_on_c, 0, 75, 0
1, 95040, Note_on_c, 0, 63, 0
1, 95040, Note_on_c, 0, 59, 0
1, 95040, Note_on_c, 0, 73, 65
1, 95040, Note_on_c, 0, 61, 39
1, 95040, Note_on_c, 0, 64, 46
1, 95040, Control_c, 0, 64, 0
1, 95107, Tempo, 411777
1, 95139, Control_c, 0, 64, 127
1, 95160, Note_on_c, 0, 73, 0
1, 95160, Note_on_c, 0, 71, 64
1, 95179, Tempo, 413195
1, 95239, Tempo, 414622
1, 95280, Note_on_c, 0, 71, 0
1, 95280, Note_on_c, 0, 70, 62
1, 95311, Tempo, 416060
1, 95371, Tempo, 417507
1, 95400, Note_on_c, 0, 70, 0
1, 95400, Note_on_c, 0, 68, 61
1, 95443, Tempo, 418965
1, 95503, Tempo, 421911
1, 95520, Note_on_c, 0, 68, 0
1, 95520, Note_on_c, 0, 67, 59
1, 95611, Tempo, 420433
1, 95640, Note_on_c, 0, 67, 0
1, 95640, Note_on_c, 0, 68, 58
1, 95707, Tempo, 418965
1, 95760, Note_on_c, 0, 68, 0
1, 95760, Note_on_c, 0, 70, 56
1, 95760, Control_c, 0, 64, 0
1, 95803, Tempo, 417507
1, 95845, Control_c, 0, 64, 127
1, 95880, Note_on_c, 0, 70, 0
1, 95880, Note_on_c, 0, 71, 55
1, 95899, Tempo, 416060
1, 95995, Tempo, 414622
1, 96000, Note_on_c, 0, 71, 0
1, 96000, Note_on_c, 0, 73, 56
1, 96091, Tempo, 413195
1, 96120, Note_on_c, 0, 73, 0
1, 96120, Note_on_c, 0, 75, 58
1, 96199, Tempo, 411777
1, 96240, Note_on_c, 0, 75, 0
1, 96240, Note_on_c, 0, 76, 60
1, 96295, Tempo, 410369
1, 96360, Note_on_c, 0, 76, 0
1, 96360, Note_on_c, 0, 79, 62
1, 96391, Tempo, 408970
1, 96480, Note_on_c, 0, 79, 0
1, 96480, Note_on_c, 0, 64, 0
1, 96480, Note_on_c, 0, 61, 0
1, 96480, Note_on_c, 0, 56, 0
1, 96480, Note_on_c, 0, 80, 65
1, 96480, Note_on_c, 0, 59, 40
1, 96480, Note_on_c, 0, 56, 40
1, 96480, Note_on_c, 0, 63, 48
1, 96487, Tempo, 407581
1, 96494, Control_c, 0, 64, 0
1, 96579, Control_c, 0, 64, 127
1, 96583, Tempo, 406201
1, 96600, Note_on_c, 0, 80, 0
1, 96600, Note_on_c, 0, 82, 63
1, 96679, Tempo, 404831
1, 96696, Note_on_c, 0, 59, 0
1, 96696, Note_on_c, 0, 63, 0
1, 96696, Note_on_c, 0, 56, 0
1, 96720, Note_on_c, 0, 82, 0
1, 96720, Note_on_c, 0, 83, 65
1, 96720, Note_on_c, 0, 56, 36
1, 96720, Note_on_c, 0, 63, 43
1, 96720, Note_on_c, 0, 59, 36
1, 96787, Tempo, 403470
1, 96840, Note_on_c, 0, 83, 0
1, 96840, Note_on_c, 0, 85, 66
1, 96883, Tempo, 402118
1, 96936, Note_on_c, 0, 56, 0
1, 96936, Note_on_c, 0, 59, 0
1, 96936, Note_on_c, 0, 63, 0
1, 96960, Note_on_c, 0, 85, 0
1, 96960, Note_on_c, 0, 87, 67
1, 96960, Note_on_c, 0, 63, 43
1, 96960, Note_on_c, 0, 59, 36
1, 96960, Note_on_c, 0, 56, 36
1, 96979, Tempo, 400775
1, 97075, Tempo, 399441
1, 97080, Note_on_c, 0, 87, 0
1, 97080, Note_on_c, 0, 89, 68
1, 97171, Tempo, 398116
1, 97200, Note_on_c, 0, 89, 0
1, 97200, Note_on_c, 0, 91, 69
1, 97267, Tempo, 396799
1, 97320, Note_on_c, 0, 91, 0
1, 97320, Note_on_c, 0, 92, 70
1, 97375, Tempo, 395491
1, 97440, Note_on_c, 0, 92, 0
1, 97440, Note_on_c, 0, 94, 72
1, 97471, Tempo, 394192
1, 97560, Note_on_c, 0, 94, 0
1, 97560, Note_on_c, 0, 95, 73
1, 97567, Tempo, 392902
1, 97663, Tempo, 391619
1, 97680, Note_on_c, 0, 95, 0
1, 97680, Note_on_c, 0, 97, 74
1, 97759, Tempo, 390345
1, 97800, Note_on_c, 0, 97, 0
1, 97800, Note_on_c, 0, 99, 75
1, 97855, Tempo, 389080
1, 97920, Note_on_c, 0, 99, 0
1, 97920, Note_on_c, 0, 56, 0
1, 97920, Note_on_c, 0, 59, 0
1, 97920, Note_on_c, 0, 63, 0
1, 97920, Note_on_c, 0, 100, 76
1, 97920, Note_on_c, 0, 58, 36
1, 97920, Note_on_c, 0, 61, 36
1, 97920, Note_on_c, 0, 55, 36
1, 97920, Note_on_c, 0, 64, 43
1, 97923, Control_c, 0, 64, 0
1, 97951, Tempo, 387822
1, 98012, Control_c, 0, 64, 127
1, 98040, Note_on_c, 0, 100, 0
1, 98040, Note_on_c, 0, 99, 77
1, 98086, Tempo, 389080
1, 98160, Note_on_c, 0, 99, 0
1, 98160, Note_on_c, 0, 97, 72
1, 98230, Tempo, 390345
1, 98280, Note_on_c, 0, 97, 0
1, 98280, Note_on_c, 0, 95, 71
1, 98374, Tempo, 391619
1, 98400, Note_on_c, 0, 95, 0
1, 98400, Note_on_c, 0, 94, 70
1, 98518, Tempo, 392902
1, 98520, Note_on_c, 0, 94, 0
1, 98520, Note_on_c, 0, 92, 69
1, 98640, Note_on_c, 0, 92, 0
1, 98640, Note_on_c, 0, 64, 0
1, 98640, Note_on_c, 0, 91, 71
1, 98640, Note_on_c, 0, 63, 43
1, 98640, Control_c, 0, 64, 0
1, 98650, Tempo, 394192
1, 98709, Control_c, 0, 64, 127
1, 98760, Note_on_c, 0, 91, 0
1, 98760, Note_on_c, 0, 88, 68
1, 98794, Tempo, 395491
1, 98880, Note_on_c, 0, 88, 0
1, 98880, Note_on_c, 0, 87, 65
1, 98938, Tempo, 396799
1, 99000, Note_on_c, 0, 87, 0
1, 99000, Note_on_c, 0, 85, 62
1, 99082, Tempo, 398116
1, 99120, Note_on_c, 0, 85, 0
1, 99120, Note_on_c, 0, 83, 60
1, 99226, Tempo, 399441
1, 99240, Tempo, 471661
1, 99240, Note_on_c, 0, 83, 0
1, 99240, Note_on_c, 0, 82, 57
1, 99347, Tempo, 391619
1, 99360, Note_on_c, 0, 82, 0
1, 99360, Note_on_c, 0, 63, 0
1, 99360, Note_on_c, 0, 55, 0
1, 99360, Note_on_c, 0, 61, 0
1, 99360, Note_on_c, 0, 58, 0
1, 99360, Note_on_c, 0, 87, 63
1, 99360, Note_on_c, 0, 63, 41
1, 99360, Note_on_c, 0, 59, 34
1, 99360, Note_on_c, 0, 56, 34
1, 99373, Control_c, 0, 64, 0
1, 99440, Control_c, 0, 64, 127
1, 99467, Tempo, 392902
1, 99480, Note_on_c, 0, 87, 0
1, 99480, Note_on_c, 0, 85, 62
1, 99575, Tempo, 394192
1, 99600, Note_on_c, 0, 85, 0
1, 99600, Note_on_c, 0, 83, 60
1, 99695, Tempo, 395491
1, 99720, Note_on_c, 0, 83, 0
1, 99720, Note_on_c, 0, 82, 58
1, 99803, Tempo, 396799
1, 99840, Note_on_c, 0, 82, 0
1, 99840, Note_on_c, 0, 80, 57
1, 99911, Tempo, 398116
1, 99960, Note_on_c, 0, 80, 0
1, 99960, Note_on_c, 0, 78, 55
1, 100031, Tempo, 399441
1, 100080, Note_on_c, 0, 78, 0
1, 100080, Note_on_c, 0, 56, 0
1, 100080, Note_on_c, 0, 59, 0
1, 100080, Note_on_c, 0, 63, 0
1, 100080, Note_on_c, 0, 76, 53
1, 100080, Note_on_c, 0, 56, 35
1, 100080, Note_on_c, 0, 51, 29
1, 100080, Note_on_c, 0, 47, 29
1, 100139, Tempo, 400775
1, 100200, Note_on_c, 0, 76, 0
1, 100200, Note_on_c, 0, 75, 52
1, 100259, Tempo, 402118
1, 100320, Note_on_c, 0, 75, 0
1, 100320, Note_on_c, 0, 73, 50
1, 100367, Tempo, 403470
1, 100440, Note_on_c, 0, 73, 0
1, 100440, Note_on_c, 0, 71, 48
1, 100475, Tempo, 404831
1, 100560, Note_on_c, 0, 71, 0
1, 100560, Note_on_c, 0, 70, 46
1, 100595, Tempo, 406201
1, 100680, Note_on_c, 0, 70, 0
1, 100680, Note_on_c, 0, 68, 45
1, 100703, Tempo, 407581
1, 100800, Tempo, 386648
1, 100800, Note_on_c, 0, 68, 0
1, 100800, Note_on_c, 0, 47, 0
1, 100800, Note_on_c, 0, 51, 0
1, 100800, Note_on_c, 0, 56, 0
1, 100800, Note_on_c, 0, 69, 46
1, 100800, Note_on_c, 0, 49, 36
1, 100800, Control_c, 0, 64, 0
1, 100882, Control_c, 0, 64, 127
1, 100920, Note_on_c, 0, 69, 0
1, 100920, Note_on_c, 0, 73, 43
1, 101040, Note_on_c, 0, 73, 0
1, 101040, Note_on_c, 0, 69, 48
1, 101160, Tempo, 402199
1, 101160, Note_on_c, 0, 69, 0
1, 101160, Note_on_c, 0, 73, 42
1, 101280, Tempo, 549551
1, 101280, Note_on_c, 0, 73, 0
1, 101280, Note_on_c, 0, 76, 53
1, 101280, Note_on_c, 0, 61, 29
1, 101280, Note_on_c, 0, 57, 29
1, 101376, Control_c, 0, 64, 0
1, 101400, Note_on_c, 0, 57, 0
1, 101400, Note_on_c, 0, 61, 0
1, 101400, Note_on_c, 0, 76, 0
1, 101520, Tempo, 386648
1, 101520, Note_on_c, 0, 49, 0
1, 101520, Note_on_c, 0, 67, 46
1, 101520, Note_on_c, 0, 51, 36
1, 101578, Control_c, 0, 64, 127
1, 101640, Note_on_c, 0, 67, 0
1, 101640, Note_on_c, 0, 70, 43
1, 101760, Note_on_c, 0, 70, 0
1, 101760, Note_on_c, 0, 67, 48
1, 101880, Tempo, 402199
1, 101880, Note_on_c, 0, 67, 0
1, 101880, Note_on_c, 0, 70, 42
1, 102000, Tempo, 544563
1, 102000, Note_on_c, 0, 70, 0
1, 102000, Note_on_c, 0, 75, 53
1, 102000, Note_on_c, 0, 61, 29
1, 102000, Note_on_c, 0, 58, 29
1, 102085, Control_c, 0, 64, 0
1, 102120, Note_on_c, 0, 58, 0
1, 102120, Note_on_c, 0, 61, 0
1, 102120, Note_on_c, 0, 75, 0
1, 102240, Tempo, 391619
1, 102240, Note_on_c, 0, 51, 0
1, 102240, Note_on_c, 0, 99, 70
1, 102240, Note_on_c, 0, 47, 41
1, 102320, Control_c, 0, 64, 127
1, 102347, Tempo, 392902
1, 102360, Note_on_c, 0, 99, 0
1, 102360, Note_on_c, 0, 97, 69
1, 102455, Tempo, 394192
1, 102480, Note_on_c, 0, 97, 0
1, 102480, Note_on_c, 0, 95, 67
1, 102575, Tempo, 395491
1, 102600, Note_on_c, 0, 95, 0
1, 102600, Note_on_c, 0, 94, 65
1, 102683, Tempo, 396799
1, 102720, Note_on_c, 0, 94, 0
1, 102720, Note_on_c, 0, 92, 63
1, 102720, Note_on_c, 0, 51, 29
1, 102720, Note_on_c, 0, 59, 35
1, 102720, Note_on_c, 0, 56, 29
1, 102791, Tempo, 398116
1, 102840, Note_on_c, 0, 92, 0
1, 102840, Note_on_c, 0, 90, 62
1, 102911, Tempo, 399441
1, 102960, Note_on_c, 0, 90, 0
1, 102960, Note_on_c, 0, 88, 60
1, 103019, Tempo, 400775
1, 103080, Note_on_c, 0, 88, 0
1, 103080, Note_on_c, 0, 87, 58
1, 103139, Tempo, 402118
1, 103200, Note_on_c, 0, 87, 0
1, 103200, Note_on_c, 0, 85, 57
1, 103247, Tempo, 403470
1, 103320, Note_on_c, 0, 85, 0
1, 103320, Note_on_c, 0, 83, 55
1, 103355, Tempo, 404831
1, 103440, Note_on_c, 0, 83, 0
1, 103440, Note_on_c, 0, 82, 53
1, 103475, Tempo, 406201
1, 103560, Note_on_c, 0, 82, 0
1, 103560, Note_on_c, 0, 80, 52
1, 103583, Tempo, 407581
1, 103680, Tempo, 386648
1, 103680, Note_on_c, 0, 80, 0
1, 103680, Note_on_c, 0, 56, 0
1, 103680, Note_on_c, 0, 47, 0
1, 103680, Note_on_c, 0, 51, 0
1, 103680, Note_on_c, 0, 59, 0
1, 103680, Note_on_c, 0, 81, 50
1, 103680, Note_on_c, 0, 49, 36
1, 103680, Control_c, 0, 64, 0
1, 103762, Control_c, 0, 64, 127
1, 103800, Note_on_c, 0, 81, 0
1, 103800, Note_on_c, 0, 85, 45
1, 103920, Note_on_c, 0, 85, 0
1, 103920, Note_on_c, 0, 81, 52
1, 104040, Tempo, 402199
1, 104040, Note_on_c, 0, 81, 0
1, 104040, Note_on_c, 0, 85, 46
1, 104160, Tempo, 552079
1, 104160, Note_on_c, 0, 85, 0
1, 104160, Note_on_c, 0, 88, 54
1, 104160, Note_on_c, 0, 57, 24
1, 104160, Note_on_c, 0, 61, 29
1, 104271, Control_c, 0, 64, 0
1, 104280, Note_on_c, 0, 61, 0
1, 104280, Note_on_c, 0, 57, 0
1, 104280, Note_on_c, 0, 88, 0
1, 104400, Tempo, 386648
1, 104400, Note_on_c, 0, 49, 0
1, 104400, Note_on_c, 0, 79, 51
1, 104400, Note_on_c, 0, 51, 36
1, 104458, Control_c, 0, 64, 127
1, 104520, Note_on_c, 0, 79, 0
1, 104520, Note_on_c, 0, 82, 44
1, 104640, Note_on_c, 0, 82, 0
1, 104640, Note_on_c, 0, 79, 51
1, 104760, Tempo, 402199
1, 104760, Note_on_c, 0, 79, 0
1, 104760, Note_on_c, 0, 82, 45
1, 104880, Tempo, 544563
1, 104880, Note_on_c, 0, 82, 0
1, 104880, Note_on_c, 0, 87, 53
1, 104880, Note_on_c, 0, 58, 24
1, 104880, Note_on_c, 0, 61, 29
1, 104979, Control_c, 0, 64, 0
1, 105000, Note_on_c, 0, 61, 0
1, 105000, Note_on_c, 0, 58, 0
1, 105000, Note_on_c, 0, 87, 0
1, 105120, Tempo, 391619
1, 105120, Note_on_c, 0, 51, 0
1, 105120, Note_on_c, 0, 92, 70
1, 105120, Note_on_c, 0, 47, 41
1, 105200, Control_c, 0, 64, 127
1, 105227, Tempo, 392902
1, 105240, Note_on_c, 0, 92, 0
1, 105240, Note_on_c, 0, 87, 68
1, 105335, Tempo, 394192
1, 105360, Note_on_c, 0, 87, 0
1, 105360, Note_on_c, 0, 85, 66
1, 105455, Tempo, 395491
1, 105480, Note_on_c, 0, 85, 0
1, 105480, Note_on_c, 0, 83, 64
1, 105563, Tempo, 396799
1, 105600, Note_on_c, 0, 83, 0
1, 105600, Note_on_c, 0, 82, 62
1, 105600, Note_on_c, 0, 51, 29
1, 105600, Note_on_c, 0, 59, 35
1, 105600, Note_on_c, 0, 56, 29
1, 105671, Tempo, 398116
1, 105680, Note_on_c, 0, 82, 0
1, 105680, Note_on_c, 0, 80, 60
1, 105760, Note_on_c, 0, 80, 0
1, 105760, Note_on_c, 0, 78, 59
1, 105791, Tempo, 399441
1, 105840, Note_on_c, 0, 78, 0
1, 105840, Note_on_c, 0, 76, 57
1, 105899, Tempo, 400775
1, 105960, Note_on_c, 0, 76, 0
1, 105960, Note_on_c, 0, 75, 55
1, 106019, Tempo, 402118
1, 106080, Note_on_c, 0, 75, 0
1, 106080, Note_on_c, 0, 73, 53
1, 106127, Tempo, 403470
1, 106200, Note_on_c, 0, 73, 0
1, 106200, Note_on_c, 0, 71, 51
1, 106235, Tempo, 404831
1, 106320, Note_on_c, 0, 71, 0
1, 106320, Note_on_c, 0, 70, 49
1, 106355, Tempo, 406201
1, 106440, Note_on_c, 0, 70, 0
1, 106440, Note_on_c, 0, 68, 47
1, 106463, Tempo, 407581
1, 106560, Tempo, 386648
1, 106560, Note_on_c, 0, 68, 0
1, 106560, Note_on_c, 0, 59, 0
1, 106560, Note_on_c, 0, 47, 0
1, 106560, Note_on_c, 0, 51, 0
1, 106560, Note_on_c, 0, 56, 0
1, 106560, Note_on_c, 0, 69, 51
1, 106560, Note_on_c, 0, 49, 36
1, 106560, Control_c, 0, 64, 0
1, 106642, Control_c, 0, 64, 127
1, 106680, Note_on_c, 0, 69, 0
1, 106680, Note_on_c, 0, 73, 45
1, 106800, Note_on_c, 0, 73, 0
1, 106800, Note_on_c, 0, 69, 50
1, 106920, Tempo, 402199
1, 106920, Note_on_c, 0, 69, 0
1, 106920, Note_on_c, 0, 73, 45
1, 107040, Tempo, 468092
1, 107040, Note_on_c, 0, 73, 0
1, 107040, Note_on_c, 0, 76, 50
1, 107040, Note_on_c, 0, 61, 29
1, 107040, Note_on_c, 0, 57, 24
1, 107280, Tempo, 499251
1, 107280, Note_on_c, 0, 57, 0
1, 107280, Note_on_c, 0, 61, 0
1, 107280, Note_on_c, 0, 49, 0
1, 107280, Note_on_c, 0, 51, 35
1, 107284, Control_c, 0, 64, 0
1, 107440, Control_c, 0, 64, 127
1, 107520, Tempo, 570451
1, 107520, Note_on_c, 0, 76, 0
1, 107520, Note_on_c, 0, 75, 39
1, 107760, Tempo, 1271725
1, 107760, Note_on_c, 0, 75, 0
1, 107760, Note_on_c, 0, 67, 34
1, 107760, Note_on_c, 0, 58, 25
1, 107760, Note_on_c, 0, 61, 30
1, 107914, Control_c, 0, 64, 0
1, 108000, Tempo, 386648
1, 108000, Marker_t, "Con delicatezza"
1, 108000, Note_on_c, 0, 61, 0
1, 108000, Note_on_c, 0, 51, 0
1, 108000, Note_on_c, 0, 67, 0
1, 108000, Note_on_c, 0, 58, 0
1, 108000, Note_on_c, 0, 68, 42
1, 108000, Note_on_c, 0, 44, 44
1, 108082, Control_c, 0, 64, 127
1, 108120, Note_on_c, 0, 68, 0
1, 108120, Note_on_c, 0, 71, 35
1, 108240, Note_on_c, 0, 71, 0
1, 108240, Note_on_c, 0, 44, 0
1, 108240, Note_on_c, 0, 68, 42
1, 108360, Tempo, 402199
1, 108360, Note_on_c, 0, 68, 0
1, 108360, Note_on_c, 0, 71, 35
1, 108480, Tempo, 614251
1, 108480, Note_on_c, 0, 71, 0
1, 108480, Note_on_c, 0, 80, 53
1, 108480, Note_on_c, 0, 56, 24
1, 108480, Note_on_c, 0, 59, 29
1, 108583, Control_c, 0, 64, 0
1, 108600, Note_on_c, 0, 59, 0
1, 108600, Note_on_c, 0, 56, 0
1, 108600, Note_on_c, 0, 80, 0
1, 108720, Tempo, 386648
1, 108720, Note_on_c, 0, 70, 42
1, 108720, Note_on_c, 0, 44, 44
1, 108802, Control_c, 0, 64, 127
1, 108840, Note_on_c, 0, 70, 0
1, 108840, Note_on_c, 0, 73, 35
1, 108960, Note_on_c, 0, 73, 0
1, 108960, Note_on_c, 0, 44, 0
1, 108960, Note_on_c, 0, 70, 42
1, 109080, Tempo, 402199
1, 109080, Note_on_c, 0, 70, 0
1, 109080, Note_on_c, 0, 73, 35
1, 109200, Tempo, 601926
1, 109200, Note_on_c, 0, 73, 0
1, 109200, Note_on_c, 0, 82, 53
1, 109200, Note_on_c, 0, 58, 24
1, 109200, Note_on_c, 0, 61, 29
1, 109264, Control_c, 0, 64, 0
1, 109320, Note_on_c, 0, 61, 0
1, 109320, Note_on_c, 0, 58, 0
1, 109320, Note_on_c, 0, 82, 0
1, 109440, Tempo, 386648
1, 109440, Note_on_c, 0, 71, 42
1, 109440, Note_on_c, 0, 44, 44
1, 109522, Control_c, 0, 64, 127
1, 109560, Note_on_c, 0, 71, 0
1, 109560, Note_on_c, 0, 75, 35
1, 109680, Note_on_c, 0, 75, 0
1, 109680, Note_on_c, 0, 44, 0
1, 109680, Note_on_c, 0, 71, 42
1, 109800, Tempo, 402199
1, 109800, Note_on_c, 0, 71, 0
1, 109800, Note_on_c, 0, 75, 35
1, 109920, Tempo, 601926
1, 109920, Note_on_c, 0, 75, 0
1, 109920, Note_on_c, 0, 83, 53
1, 109920, Note_on_c, 0, 63, 29
1, 109920, Note_on_c, 0, 59, 24
1, 109995, Control_c, 0, 64, 0
1, 110040, Note_on_c, 0, 59, 0
1, 110040, Note_on_c, 0, 63, 0
1, 110040, Note_on_c, 0, 83, 0
1, 110160, Tempo, 428571
1, 110160, Note_on_c, 0, 70, 39
1, 110160, Note_on_c, 0, 73, 39
1, 110160, Note_on_c, 0, 82, 46
1, 110160, Note_on_c, 0, 63, 31
1, 110160, Note_on_c, 0, 58, 26
1, 110160, Note_on_c, 0, 61, 26
1, 110220, Note_on_c, 0, 61, 0
1, 110220, Note_on_c, 0, 73, 0
1, 110220, Note_on_c, 0, 82, 0
1, 110220, Note_on_c, 0, 70, 0
1, 110220, Note_on_c, 0, 58, 0
1, 110220, Note_on_c, 0, 63, 0
1, 110400, Tempo, 436364
1, 110400, Note_on_c, 0, 73, 36
1, 110400, Note_on_c, 0, 70, 36
1, 110400, Note_on_c, 0, 82, 43
1, 110400, Note_on_c, 0, 58, 24
1, 110400, Note_on_c, 0, 63, 29
1, 110400, Note_on_c, 0, 61, 24
1, 110460, Note_on_c, 0, 61, 0
1, 110460, Note_on_c, 0, 70, 0
1, 110460, Note_on_c, 0, 82, 0
1, 110460, Note_on_c, 0, 73, 0
1, 110460, Note_on_c, 0, 63, 0
1, 110460, Note_on_c, 0, 58, 0
1, 110640, Tempo, 475511
1, 110640, Note_on_c, 0, 68, 36
1, 110640, Note_on_c, 0, 71, 36
1, 110640, Note_on_c, 0, 80, 43
1, 110640, Note_on_c, 0, 59, 24
1, 110640, Note_on_c, 0, 56, 24
1, 110640, Note_on_c, 0, 63, 29
1, 110700, Note_on_c, 0, 63, 0
1, 110700, Note_on_c, 0, 71, 0
1, 110700, Note_on_c, 0, 80, 0
1, 110700, Note_on_c, 0, 68, 0
1, 110700, Note_on_c, 0, 56, 0
1, 110700, Note_on_c, 0, 59, 0
1, 110880, Tempo, 386648
1, 110880, Note_on_c, 0, 67, 42
1, 110880, Note_on_c, 0, 51, 44
1, 110962, Control_c, 0, 64, 127
1, 111000, Note_on_c, 0, 67, 0
1, 111000, Note_on_c, 0, 70, 35
1, 111120, Note_on_c, 0, 70, 0
1, 111120, Note_on_c, 0, 67, 42
1, 111240, Tempo, 402199
1, 111240, Note_on_c, 0, 67, 0
1, 111240, Note_on_c, 0, 70, 35
1, 111360, Tempo, 614251
1, 111360, Note_on_c, 0, 70, 0
1, 111360, Note_on_c, 0, 51, 0
1, 111360, Note_on_c, 0, 79, 53
1, 111360, Note_on_c, 0, 55, 24
1, 111360, Note_on_c, 0, 58, 29
1, 111466, Control_c, 0, 64, 0
1, 111480, Note_on_c, 0, 58, 0
1, 111480, Note_on_c, 0, 55, 0
1, 111480, Note_on_c, 0, 79, 0
1, 111600, Tempo, 386648
1, 111600, Note_on_c, 0, 68, 42
1, 111600, Note_on_c, 0, 51, 44
1, 111682, Control_c, 0, 64, 127
1, 111720, Note_on_c, 0, 68, 0
1, 111720, Note_on_c, 0, 71, 35
1, 111840, Note_on_c, 0, 71, 0
1, 111840, Note_on_c, 0, 68, 42
1, 111960, Tempo, 402199
1, 111960, Note_on_c, 0, 68, 0
1, 111960, Note_on_c, 0, 71, 35
1, 112080, Tempo, 570288
1, 112080, Note_on_c, 0, 71, 0
1, 112080, Note_on_c, 0, 51, 0
1, 112080, Note_on_c, 0, 80, 53
1, 112080, Note_on_c, 0, 56, 24
1, 112080, Note_on_c, 0, 59, 29
1, 112200, Note_on_c, 0, 59, 0
1, 112200, Note_on_c, 0, 56, 0
1, 112200, Note_on_c, 0, 80, 0
1, 112200, Control_c, 0, 64, 0
1, 112320, Tempo, 386648
1, 112320, Note_on_c, 0, 70, 42
1, 112320, Note_on_c, 0, 51, 44
1, 112402, Control_c, 0, 64, 127
1, 112440, Note_on_c, 0, 70, 0
1, 112440, Note_on_c, 0, 73, 35
1, 112560, Note_on_c, 0, 73, 0
1, 112560, Note_on_c, 0, 70, 42
1, 112680, Tempo, 402199
1, 112680, Note_on_c, 0, 70, 0
1, 112680, Note_on_c, 0, 73, 35
1, 112800, Tempo, 601926
1, 112800, Note_on_c, 0, 73, 0
1, 112800, Note_on_c, 0, 51, 0
1, 112800, Note_on_c, 0, 82, 53
1, 112800, Note_on_c, 0, 58, 24
1, 112800, Note_on_c, 0, 61, 29
1, 112878, Control_c, 0, 64, 0
1, 112920, Note_on_c, 0, 61, 0
1, 112920, Note_on_c, 0, 58, 0
1, 112920, Note_on_c, 0, 82, 0
1, 113040, Tempo, 427046
1, 113040, Note_on_c, 0, 71, 39
1, 113040, Note_on_c, 0, 68, 39
1, 113040, Note_on_c, 0, 80, 46
1, 113040, Note_on_c, 0, 56, 26
1, 113040, Note_on_c, 0, 51, 26
1, 113040, Note_on_c, 0, 59, 31
1, 113100, Note_on_c, 0, 59, 0
1, 113100, Note_on_c, 0, 68, 0
1, 113100, Note_on_c, 0, 80, 0
1, 113100, Note_on_c, 0, 71, 0
1, 113100, Note_on_c, 0, 51, 0
1, 113100, Note_on_c, 0, 56, 0
1, 113280, Tempo, 436364
1, 113280, Note_on_c, 0, 68, 36
1, 113280, Note_on_c, 0, 80, 43
1, 113280, Note_on_c, 0, 71, 36
1, 113280, Note_on_c, 0, 59, 29
1, 113280, Note_on_c, 0, 51, 24
1, 113280, Note_on_c, 0, 56, 24
1, 113340, Note_on_c, 0, 56, 0
1, 113340, Note_on_c, 0, 80, 0
1, 113340, Note_on_c, 0, 71, 0
1, 113340, Note_on_c, 0, 68, 0
1, 113340, Note_on_c, 0, 51, 0
1, 113340, Note_on_c, 0, 59, 0
1, 113520, Tempo, 475511
1, 113520, Note_on_c, 0, 70, 36
1, 113520, Note_on_c, 0, 79, 43
1, 113520, Note_on_c, 0, 67, 36
1, 113520, Note_on_c, 0, 51, 24
1, 113520, Note_on_c, 0, 58, 29
1, 113520, Note_on_c, 0, 55, 24
1, 113580, Note_on_c, 0, 55, 0
1, 113580, Note_on_c, 0, 79, 0
1, 113580, Note_on_c, 0, 67, 0
1, 113580, Note_on_c, 0, 70, 0
1, 113580, Note_on_c, 0, 58, 0
1, 113580, Note_on_c, 0, 51, 0
1, 113760, Tempo, 386648
1, 113760, Note_on_c, 0, 68, 46
1, 113760, Note_on_c, 0, 44, 48
1, 113842, Control_c, 0, 64, 127
1, 113880, Note_on_c, 0, 68, 0
1, 113880, Note_on_c, 0, 71, 38
1, 114000, Note_on_c, 0, 71, 0
1, 114000, Note_on_c, 0, 68, 46
1, 114120, Tempo, 402199
1, 114120, Note_on_c, 0, 68, 0
1, 114120, Note_on_c, 0, 71, 38
1, 114240, Tempo, 614251
1, 114240, Note_on_c, 0, 71, 0
1, 114240, Note_on_c, 0, 44, 0
1, 114240, Note_on_c, 0, 80, 58
1, 114240, Note_on_c, 0, 56, 26
1, 114240, Note_on_c, 0, 59, 31
1, 114360, Note_on_c, 0, 59, 0
1, 114360, Note_on_c, 0, 56, 0
1, 114360, Note_on_c, 0, 80, 0
1, 114394, Control_c, 0, 64, 0
1, 114480, Tempo, 386648
1, 114480, Note_on_c, 0, 70, 46
1, 114480, Note_on_c, 0, 44, 48
1, 114562, Control_c, 0, 64, 127
1, 114600, Note_on_c, 0, 70, 0
1, 114600, Note_on_c, 0, 73, 38
1, 114720, Note_on_c, 0, 73, 0
1, 114720, Note_on_c, 0, 70, 46
1, 114840, Tempo, 402199
1, 114840, Note_on_c, 0, 70, 0
1, 114840, Note_on_c, 0, 73, 38
1, 114960, Tempo, 601926
1, 114960, Note_on_c, 0, 73, 0
1, 114960, Note_on_c, 0, 44, 0
1, 114960, Note_on_c, 0, 82, 58
1, 114960, Note_on_c, 0, 58, 26
1, 114960, Note_on_c, 0, 61, 31
1, 115080, Note_on_c, 0, 61, 0
1, 115080, Note_on_c, 0, 58, 0
1, 115080, Note_on_c, 0, 82, 0
1, 115114, Control_c, 0, 64, 0
1, 115200, Tempo, 386648
1, 115200, Note_on_c, 0, 71, 46
1, 115200, Note_on_c, 0, 44, 48
1, 115282, Control_c, 0, 64, 127
1, 115320, Note_on_c, 0, 71, 0
1, 115320, Note_on_c, 0, 75, 38
1, 115440, Note_on_c, 0, 75, 0
1, 115440, Note_on_c, 0, 71, 46
1, 115560, Tempo, 402199
1, 115560, Note_on_c, 0, 71, 0
1, 115560, Note_on_c, 0, 75, 38
1, 115680, Tempo, 559649
1, 115680, Note_on_c, 0, 75, 0
1, 115680, Note_on_c, 0, 44, 0
1, 115680, Note_on_c, 0, 83, 58
1, 115680, Note_on_c, 0, 59, 26
1, 115680, Note_on_c, 0, 63, 31
1, 115800, Note_on_c, 0, 63, 0
1, 115800, Note_on_c, 0, 59, 0
1, 115800, Note_on_c, 0, 83, 0
1, 115834, Control_c, 0, 64, 0
1, 115920, Tempo, 431655
1, 115920, Note_on_c, 0, 76, 50
1, 115920, Note_on_c, 0, 85, 59
1, 115920, Note_on_c, 0, 73, 50
1, 115920, Note_on_c, 0, 64, 40
1, 115920, Note_on_c, 0, 54, 33
1, 115920, Note_on_c, 0, 61, 33
1, 115980, Note_on_c, 0, 61, 0
1, 115980, Note_on_c, 0, 85, 0
1, 115980, Note_on_c, 0, 73, 0
1, 115980, Note_on_c, 0, 76, 0
1, 115980, Note_on_c, 0, 54, 0
1, 115980, Note_on_c, 0, 64, 0
1, 116160, Tempo, 437956
1, 116160, Note_on_c, 0, 76, 46
1, 116160, Note_on_c, 0, 73, 46
1, 116160, Note_on_c, 0, 85, 55
1, 116160, Note_on_c, 0, 64, 37
1, 116160, Note_on_c, 0, 61, 31
1, 116160, Note_on_c, 0, 54, 31
1, 116220, Note_on_c, 0, 54, 0
1, 116220, Note_on_c, 0, 73, 0
1, 116220, Note_on_c, 0, 85, 0
1, 116220, Note_on_c, 0, 76, 0
1, 116220, Note_on_c, 0, 61, 0
1, 116220, Note_on_c, 0, 64, 0
1, 116400, Tempo, 534712
1, 116400, Note_on_c, 0, 78, 46
1, 116400, Note_on_c, 0, 75, 46
1, 116400, Note_on_c, 0, 87, 55
1, 116400, Note_on_c, 0, 54, 31
1, 116400, Note_on_c, 0, 58, 31
1, 116400, Note_on_c, 0, 66, 37
1, 116460, Note_on_c, 0, 66, 0
1, 116460, Note_on_c, 0, 75, 0
1, 116460, Note_on_c, 0, 87, 0
1, 116460, Note_on_c, 0, 78, 0
1, 116460, Note_on_c, 0, 58, 0
1, 116460, Note_on_c, 0, 54, 0
1, 116640, Tempo, 386648
1, 116640, Note_on_c, 0, 71, 46
1, 116640, Note_on_c, 0, 54, 48
1, 116722, Control_c, 0, 64, 127
1, 116760, Note_on_c, 0, 71, 0
1, 116760, Note_on_c, 0, 75, 38
1, 116880, Note_on_c, 0, 75, 0
1, 116880, Note_on_c, 0, 71, 46
1, 117000, Tempo, 402199
1, 117000, Note_on_c, 0, 71, 0
1, 117000, Note_on_c, 0, 75, 38
1, 117120, Tempo, 601926
1, 117120, Note_on_c, 0, 75, 0
1, 117120, Note_on_c, 0, 83, 58
1, 117120, Note_on_c, 0, 59, 26
1, 117120, Note_on_c, 0, 63, 31
1, 117240, Note_on_c, 0, 63, 0
1, 117240, Note_on_c, 0, 59, 0
1, 117240, Note_on_c, 0, 83, 0
1, 117274, Control_c, 0, 64, 0
1, 117360, Tempo, 430108
1, 117360, Note_on_c, 0, 54, 0
1, 117360, Note_on_c, 0, 85, 59
1, 117360, Note_on_c, 0, 73, 50
1, 117360, Note_on_c, 0, 76, 50
1, 117360, Note_on_c, 0, 64, 40
1, 117360, Note_on_c, 0, 61, 33
1, 117360, Note_on_c, 0, 54, 33
1, 117420, Note_on_c, 0, 54, 0
1, 117420, Note_on_c, 0, 73, 0
1, 117420, Note_on_c, 0, 76, 0
1, 117420, Note_on_c, 0, 85, 0
1, 117420, Note_on_c, 0, 61, 0
1, 117420, Note_on_c, 0, 64, 0
1, 117600, Tempo, 437956
1, 117600, Note_on_c, 0, 76, 46
1, 117600, Note_on_c, 0, 73, 46
1, 117600, Note_on_c, 0, 85, 55
1, 117600, Note_on_c, 0, 64, 37
1, 117600, Note_on_c, 0, 61, 31
1, 117600, Note_on_c, 0, 54, 31
1, 117660, Note_on_c, 0, 54, 0
1, 117660, Note_on_c, 0, 73, 0
1, 117660, Note_on_c, 0, 85, 0
1, 117660, Note_on_c, 0, 76, 0
1, 117660, Note_on_c, 0, 61, 0
1, 117660, Note_on_c, 0, 64, 0
1, 117840, Tempo, 475511
1, 117840, Note_on_c, 0, 75, 46
1, 117840, Note_on_c, 0, 78, 46
1, 117840, Note_on_c, 0, 87, 55
1, 117840, Note_on_c, 0, 58, 31
1, 117840, Note_on_c, 0, 54, 31
1, 117840, Note_on_c, 0, 66, 37
1, 117900, Note_on_c, 0, 66, 0
1, 117900, Note_on_c, 0, 78, 0
1, 117900, Note_on_c, 0, 87, 0
1, 117900, Note_on_c, 0, 75, 0
1, 117900, Note_on_c, 0, 54, 0
1, 117900, Note_on_c, 0, 58, 0
1, 118080, Tempo, 386648
1, 118080, Note_on_c, 0, 70, 52
1, 118080, Note_on_c, 0, 55, 69
1, 118162, Control_c, 0, 64, 127
1, 118200, Note_on_c, 0, 70, 0
1, 118200, Note_on_c, 0, 75, 43
1, 118320, Note_on_c, 0, 75, 0
1, 118320, Note_on_c, 0, 70, 52
1, 118440, Tempo, 402199
1, 118440, Note_on_c, 0, 70, 0
1, 118440, Note_on_c, 0, 75, 43
1, 118560, Tempo, 614251
1, 118560, Note_on_c, 0, 75, 0
1, 118560, Note_on_c, 0, 82, 66
1, 118560, Note_on_c, 0, 63, 35
1, 118560, Note_on_c, 0, 58, 29
1, 118723, Control_c, 0, 64, 0
1, 118740, Note_on_c, 0, 58, 0
1, 118740, Note_on_c, 0, 63, 0
1, 118740, Note_on_c, 0, 82, 0
1, 118800, Tempo, 386648
1, 118800, Note_on_c, 0, 55, 0
1, 118800, Note_on_c, 0, 71, 52
1, 118800, Note_on_c, 0, 56, 68
1, 118882, Control_c, 0, 64, 127
1, 118920, Note_on_c, 0, 71, 0
1, 118920, Note_on_c, 0, 75, 43
1, 119040, Note_on_c, 0, 75, 0
1, 119040, Note_on_c, 0, 71, 52
1, 119160, Tempo, 402199
1, 119160, Note_on_c, 0, 71, 0
1, 119160, Note_on_c, 0, 75, 43
1, 119280, Tempo, 601926
1, 119280, Note_on_c, 0, 75, 0
1, 119280, Note_on_c, 0, 83, 66
1, 119280, Note_on_c, 0, 59, 29
1, 119280, Note_on_c, 0, 63, 35
1, 119460, Note_on_c, 0, 63, 0
1, 119460, Note_on_c, 0, 59, 0
1, 119460, Note_on_c, 0, 83, 0
1, 119467, Control_c, 0, 64, 0
1, 119520, Tempo, 386648
1, 119520, Note_on_c, 0, 56, 0
1, 119520, Note_on_c, 0, 73, 52
1, 119520, Note_on_c, 0, 49, 65
1, 119602, Control_c, 0, 64, 127
1, 119640, Note_on_c, 0, 73, 0
1, 119640, Note_on_c, 0, 76, 43
1, 119760, Note_on_c, 0, 76, 0
1, 119760, Note_on_c, 0, 73, 52
1, 119880, Tempo, 402199
1, 119880, Note_on_c, 0, 73, 0
1, 119880, Note_on_c, 0, 76, 43
1, 120000, Tempo, 601926
1, 120000, Note_on_c, 0, 76, 0
1, 120000, Note_on_c, 0, 49, 0
1, 120000, Note_on_c, 0, 85, 66
1, 120000, Note_on_c, 0, 61, 29
1, 120000, Note_on_c, 0, 64, 35
1, 120156, Control_c, 0, 64, 0
1, 120180, Note_on_c, 0, 64, 0
1, 120180, Note_on_c, 0, 61, 0
1, 120180, Note_on_c, 0, 85, 0
1, 120240, Tempo, 431655
1, 120240, Note_on_c, 0, 75, 57
1, 120240, Note_on_c, 0, 83, 67
1, 120240, Note_on_c, 0, 80, 57
1, 120240, Note_on_c, 0, 71, 57
1, 120240, Note_on_c, 0, 63, 46
1, 120240, Note_on_c, 0, 59, 37
1, 120240, Note_on_c, 0, 51, 37
1, 120300, Note_on_c, 0, 51, 0
1, 120300, Note_on_c, 0, 63, 0
1, 120300, Note_on_c, 0, 83, 0
1, 120300, Note_on_c, 0, 80, 0
1, 120300, Note_on_c, 0, 75, 0
1, 120300, Note_on_c, 0, 59, 0
1, 120300, Note_on_c, 0, 71, 0
1, 120480, Tempo, 437956
1, 120480, Note_on_c, 0, 75, 52
1, 120480, Note_on_c, 0, 83, 63
1, 120480, Note_on_c, 0, 71, 52
1, 120480, Note_on_c, 0, 80, 52
1, 120480, Note_on_c, 0, 63, 42
1, 120480, Note_on_c, 0, 51, 35
1, 120480, Note_on_c, 0, 59, 35
1, 120540, Note_on_c, 0, 59, 0
1, 120540, Note_on_c, 0, 63, 0
1, 120540, Note_on_c, 0, 83, 0
1, 120540, Note_on_c, 0, 71, 0
1, 120540, Note_on_c, 0, 75, 0
1, 120540, Note_on_c, 0, 51, 0
1, 120540, Note_on_c, 0, 80, 0
1, 120720, Tempo, 475511
1, 120720, Note_on_c, 0, 70, 52
1, 120720, Note_on_c, 0, 82, 63
1, 120720, Note_on_c, 0, 75, 52
1, 120720, Note_on_c, 0, 79, 52
1, 120720, Note_on_c, 0, 51, 35
1, 120720, Note_on_c, 0, 58, 35
1, 120720, Note_on_c, 0, 63, 42
1, 120780, Note_on_c, 0, 63, 0
1, 120780, Note_on_c, 0, 51, 0
1, 120780, Note_on_c, 0, 82, 0
1, 120780, Note_on_c, 0, 75, 0
1, 120780, Note_on_c, 0, 70, 0
1, 120780, Note_on_c, 0, 58, 0
1, 120780, Note_on_c, 0, 79, 0
1, 120960, Tempo, 386648
1, 120960, Note_on_c, 0, 70, 57
1, 120960, Note_on_c, 0, 55, 69
1, 121042, Control_c, 0, 64, 127
1, 121080, Note_on_c, 0, 70, 0
1, 121080, Note_on_c, 0, 75, 47
1, 121200, Note_on_c, 0, 75, 0
1, 121200, Note_on_c, 0, 70, 57
1, 121320, Tempo, 402199
1, 121320, Note_on_c, 0, 70, 0
1, 121320, Note_on_c, 0, 75, 47
1, 121440, Tempo, 559649
1, 121440, Note_on_c, 0, 75, 0
1, 121440, Note_on_c, 0, 82, 72
1, 121440, Note_on_c, 0, 58, 29
1, 121440, Note_on_c, 0, 63, 35
1, 121588, Control_c, 0, 64, 0
1, 121620, Note_on_c, 0, 63, 0
1, 121620, Note_on_c, 0, 58, 0
1, 121620, Note_on_c, 0, 82, 0
1, 121680, Tempo, 386648
1, 121680, Note_on_c, 0, 55, 0
1, 121680, Note_on_c, 0, 71, 57
1, 121680, Note_on_c, 0, 56, 68
1, 121762, Control_c, 0, 64, 127
1, 121800, Note_on_c, 0, 71, 0
1, 121800, Note_on_c, 0, 75, 47
1, 121920, Note_on_c, 0, 75, 0
1, 121920, Note_on_c, 0, 71, 57
1, 122040, Tempo, 402199
1, 122040, Note_on_c, 0, 71, 0
1, 122040, Note_on_c, 0, 75, 47
1, 122160, Tempo, 567591
1, 122160, Note_on_c, 0, 75, 0
1, 122160, Note_on_c, 0, 83, 72
1, 122160, Note_on_c, 0, 59, 29
1, 122160, Note_on_c, 0, 63, 35
1, 122301, Control_c, 0, 64, 0
1, 122340, Note_on_c, 0, 63, 0
1, 122340, Note_on_c, 0, 59, 0
1, 122340, Note_on_c, 0, 83, 0
1, 122400, Tempo, 386648
1, 122400, Note_on_c, 0, 56, 0
1, 122400, Note_on_c, 0, 73, 57
1, 122400, Note_on_c, 0, 49, 65
1, 122482, Control_c, 0, 64, 127
1, 122520, Note_on_c, 0, 73, 0
1, 122520, Note_on_c, 0, 76, 47
1, 122640, Note_on_c, 0, 76, 0
1, 122640, Note_on_c, 0, 73, 57
1, 122760, Tempo, 402199
1, 122760, Note_on_c, 0, 73, 0
1, 122760, Note_on_c, 0, 76, 47
1, 122880, Tempo, 601926
1, 122880, Note_on_c, 0, 76, 0
1, 122880, Note_on_c, 0, 49, 0
1, 122880, Note_on_c, 0, 85, 72
1, 122880, Note_on_c, 0, 64, 35
1, 122880, Note_on_c, 0, 61, 29
1, 123046, Control_c, 0, 64, 0
1, 123060, Note_on_c, 0, 61, 0
1, 123060, Note_on_c, 0, 64, 0
1, 123060, Note_on_c, 0, 85, 0
1, 123120, Tempo, 430108
1, 123120, Note_on_c, 0, 83, 67
1, 123120, Note_on_c, 0, 80, 57
1, 123120, Note_on_c, 0, 71, 57
1, 123120, Note_on_c, 0, 75, 57
1, 123120, Note_on_c, 0, 51, 37
1, 123120, Note_on_c, 0, 63, 46
1, 123120, Note_on_c, 0, 59, 37
1, 123180, Note_on_c, 0, 59, 0
1, 123180, Note_on_c, 0, 51, 0
1, 123180, Note_on_c, 0, 80, 0
1, 123180, Note_on_c, 0, 71, 0
1, 123180, Note_on_c, 0, 83, 0
1, 123180, Note_on_c, 0, 63, 0
1, 123180, Note_on_c, 0, 75, 0
1, 123360, Tempo, 439560
1, 123360, Note_on_c, 0, 83, 63
1, 123360, Note_on_c, 0, 71, 52
1, 123360, Note_on_c, 0, 80, 52
1, 123360, Note_on_c, 0, 75, 52
1, 123360, Note_on_c, 0, 63, 42
1, 123360, Note_on_c, 0, 51, 35
1, 123360, Note_on_c, 0, 59, 35
1, 123420, Note_on_c, 0, 59, 0
1, 123420, Note_on_c, 0, 63, 0
1, 123420, Note_on_c, 0, 71, 0
1, 123420, Note_on_c, 0, 80, 0
1, 123420, Note_on_c, 0, 83, 0
1, 123420, Note_on_c, 0, 51, 0
1, 123420, Note_on_c, 0, 75, 0
1, 123600, Tempo, 475511
1, 123600, Note_on_c, 0, 79, 52
1, 123600, Note_on_c, 0, 70, 52
1, 123600, Note_on_c, 0, 82, 63
1, 123600, Note_on_c, 0, 75, 52
1, 123600, Note_on_c, 0, 51, 35
1, 123600, Note_on_c, 0, 63, 42
1, 123600, Note_on_c, 0, 58, 35
1, 123660, Note_on_c, 0, 58, 0
1, 123660, Note_on_c, 0, 51, 0
1, 123660, Note_on_c, 0, 70, 0
1, 123660, Note_on_c, 0, 82, 0
1, 123660, Note_on_c, 0, 79, 0
1, 123660, Note_on_c, 0, 63, 0
1, 123660, Note_on_c, 0, 75, 0
1, 123840, Tempo, 386648
1, 123840, Note_on_c, 0, 73, 62
1, 123840, Note_on_c, 0, 51, 75
1, 123922, Control_c, 0, 64, 127
1, 123960, Note_on_c, 0, 73, 0
1, 123960, Note_on_c, 0, 82, 51
1, 124080, Note_on_c, 0, 82, 0
1, 124080, Note_on_c, 0, 73, 62
1, 124200, Tempo, 402199
1, 124200, Note_on_c, 0, 73, 0
1, 124200, Note_on_c, 0, 82, 51
1, 124320, Tempo, 614251
1, 124320, Note_on_c, 0, 82, 0
1, 124320, Note_on_c, 0, 51, 0
1, 124320, Note_on_c, 0, 85, 79
1, 124320, Note_on_c, 0, 58, 31
1, 124320, Note_on_c, 0, 61, 38
1, 124461, Control_c, 0, 64, 0
1, 124500, Note_on_c, 0, 61, 0
1, 124500, Note_on_c, 0, 58, 0
1, 124500, Note_on_c, 0, 85, 0
1, 124560, Tempo, 386648
1, 124560, Note_on_c, 0, 75, 62
1, 124560, Note_on_c, 0, 51, 74
1, 124642, Control_c, 0, 64, 127
1, 124680, Note_on_c, 0, 75, 0
1, 124680, Note_on_c, 0, 83, 51
1, 124800, Note_on_c, 0, 83, 0
1, 124800, Note_on_c, 0, 75, 62
1, 124920, Tempo, 402199
1, 124920, Note_on_c, 0, 75, 0
1, 124920, Note_on_c, 0, 83, 51
1, 125040, Tempo, 601926
1, 125040, Note_on_c, 0, 83, 0
1, 125040, Note_on_c, 0, 51, 0
1, 125040, Note_on_c, 0, 87, 79
1, 125040, Note_on_c, 0, 63, 38
1, 125040, Note_on_c, 0, 59, 31
1, 125188, Control_c, 0, 64, 0
1, 125220, Note_on_c, 0, 59, 0
1, 125220, Note_on_c, 0, 63, 0
1, 125220, Note_on_c, 0, 87, 0
1, 125280, Tempo, 386648
1, 125280, Note_on_c, 0, 76, 62
1, 125280, Note_on_c, 0, 51, 71
1, 125362, Control_c, 0, 64, 127
1, 125400, Note_on_c, 0, 76, 0
1, 125400, Note_on_c, 0, 85, 51
1, 125520, Note_on_c, 0, 85, 0
1, 125520, Note_on_c, 0, 76, 62
1, 125640, Tempo, 402199
1, 125640, Note_on_c, 0, 76, 0
1, 125640, Note_on_c, 0, 85, 51
1, 125760, Tempo, 601926
1, 125760, Note_on_c, 0, 85, 0
1, 125760, Note_on_c, 0, 51, 0
1, 125760, Note_on_c, 0, 88, 79
1, 125760, Note_on_c, 0, 64, 38
1, 125760, Note_on_c, 0, 61, 31
1, 125898, Control_c, 0, 64, 0
1, 125940, Note_on_c, 0, 61, 0
1, 125940, Note_on_c, 0, 64, 0
1, 125940, Note_on_c, 0, 88, 0
1, 126000, Tempo, 433213
1, 126000, Note_on_c, 0, 85, 73
1, 126000, Note_on_c, 0, 82, 62
1, 126000, Note_on_c, 0, 73, 62
1, 126000, Note_on_c, 0, 51, 40
1, 126000, Note_on_c, 0, 58, 40
1, 126000, Note_on_c, 0, 61, 50
1, 126060, Note_on_c, 0, 61, 0
1, 126060, Note_on_c, 0, 82, 0
1, 126060, Note_on_c, 0, 73, 0
1, 126060, Note_on_c, 0, 85, 0
1, 126060, Note_on_c, 0, 58, 0
1, 126060, Note_on_c, 0, 51, 0
1, 126240, Tempo, 441176
1, 126240, Note_on_c, 0, 82, 57
1, 126240, Note_on_c, 0, 73, 57
1, 126240, Note_on_c, 0, 85, 69
1, 126240, Note_on_c, 0, 58, 38
1, 126240, Note_on_c, 0, 51, 38
1, 126240, Note_on_c, 0, 61, 46
1, 126300, Note_on_c, 0, 61, 0
1, 126300, Note_on_c, 0, 73, 0
1, 126300, Note_on_c, 0, 85, 0
1, 126300, Note_on_c, 0, 82, 0
1, 126300, Note_on_c, 0, 51, 0
1, 126300, Note_on_c, 0, 58, 0
1, 126480, Tempo, 475511
1, 126480, Note_on_c, 0, 70, 57
1, 126480, Note_on_c, 0, 82, 69
1, 126480, Note_on_c, 0, 79, 57
1, 126480, Note_on_c, 0, 58, 46
1, 126480, Note_on_c, 0, 55, 38
1, 126480, Note_on_c, 0, 51, 38
1, 126540, Note_on_c, 0, 51, 0
1, 126540, Note_on_c, 0, 82, 0
1, 126540, Note_on_c, 0, 79, 0
1, 126540, Note_on_c, 0, 70, 0
1, 126540, Note_on_c, 0, 55, 0
1, 126540, Note_on_c, 0, 58, 0
1, 126720, Tempo, 386648
1, 126720, Note_on_c, 0, 76, 62
1, 126720, Note_on_c, 0, 51, 71
1, 126720, Control_c, 0, 64, 0
1, 126802, Control_c, 0, 64, 127
1, 126840, Note_on_c, 0, 76, 0
1, 126840, Note_on_c, 0, 85, 51
1, 126960, Note_on_c, 0, 85, 0
1, 126960, Note_on_c, 0, 76, 62
1, 127080, Tempo, 402199
1, 127080, Note_on_c, 0, 76, 0
1, 127080, Note_on_c, 0, 85, 51
1, 127200, Tempo, 539520
1, 127200, Note_on_c, 0, 85, 0
1, 127200, Note_on_c, 0, 51, 0
1, 127200, Note_on_c, 0, 88, 79
1, 127200, Note_on_c, 0, 61, 31
1, 127200, Note_on_c, 0, 64, 38
1, 127380, Note_on_c, 0, 64, 0
1, 127380, Note_on_c, 0, 61, 0
1, 127380, Note_on_c, 0, 88, 0
1, 127440, Tempo, 433213
1, 127440, Note_on_c, 0, 73, 62
1, 127440, Note_on_c, 0, 82, 62
1, 127440, Note_on_c, 0, 85, 73
1, 127440, Note_on_c, 0, 58, 40
1, 127440, Note_on_c, 0, 51, 40
1, 127440, Note_on_c, 0, 61, 50
1, 127440, Control_c, 0, 64, 0
1, 127500, Note_on_c, 0, 61, 0
1, 127500, Note_on_c, 0, 82, 0
1, 127500, Note_on_c, 0, 85, 0
1, 127500, Note_on_c, 0, 73, 0
1, 127500, Note_on_c, 0, 51, 0
1, 127500, Note_on_c, 0, 58, 0
1, 127680, Tempo, 437956
1, 127680, Note_on_c, 0, 85, 69
1, 127680, Note_on_c, 0, 73, 57
1, 127680, Note_on_c, 0, 82, 57
1, 127680, Note_on_c, 0, 51, 38
1, 127680, Note_on_c, 0, 61, 46
1, 127680, Note_on_c, 0, 58, 38
1, 127740, Note_on_c, 0, 58, 0
1, 127740, Note_on_c, 0, 73, 0
1, 127740, Note_on_c, 0, 82, 0
1, 127740, Note_on_c, 0, 85, 0
1, 127740, Note_on_c, 0, 61, 0
1, 127740, Note_on_c, 0, 51, 0
1, 127920, Tempo, 497059
1, 127920, Note_on_c, 0, 70, 57
1, 127920, Note_on_c, 0, 79, 57
1, 127920, Note_on_c, 0, 82, 69
1, 127920, Note_on_c, 0, 51, 38
1, 127920, Note_on_c, 0, 55, 38
1, 127920, Note_on_c, 0, 58, 46
1, 127980, Note_on_c, 0, 58, 0
1, 127980, Note_on_c, 0, 79, 0
1, 127980, Note_on_c, 0, 82, 0
1, 127980, Note_on_c, 0, 70, 0
1, 127980, Note_on_c, 0, 55, 0
1, 127980, Note_on_c, 0, 51, 0
1, 128160, Tempo, 382946
1, 128160, Note_on_c, 0, 76, 62
1, 128160, Note_on_c, 0, 51, 71
1, 128160, Control_c, 0, 64, 0
1, 128242, Control_c, 0, 64, 127
1, 128280, Note_on_c, 0, 76, 0
1, 128280, Note_on_c, 0, 85, 51
1, 128400, Note_on_c, 0, 85, 0
1, 128400, Note_on_c, 0, 76, 62
1, 128520, Tempo, 402199
1, 128520, Note_on_c, 0, 76, 0
1, 128520, Note_on_c, 0, 85, 51
1, 128640, Tempo, 523195
1, 128640, Note_on_c, 0, 85, 0
1, 128640, Note_on_c, 0, 51, 0
1, 128640, Note_on_c, 0, 88, 79
1, 128640, Note_on_c, 0, 64, 38
1, 128640, Note_on_c, 0, 61, 31
1, 128820, Note_on_c, 0, 61, 0
1, 128820, Note_on_c, 0, 64, 0
1, 128820, Note_on_c, 0, 88, 0
1, 128880, Tempo, 380518
1, 128880, Note_on_c, 0, 79, 68
1, 128880, Note_on_c, 0, 51, 68
1, 128880, Control_c, 0, 64, 0
1, 128962, Control_c, 0, 64, 127
1, 129000, Note_on_c, 0, 79, 0
1, 129000, Note_on_c, 0, 88, 56
1, 129120, Note_on_c, 0, 88, 0
1, 129120, Note_on_c, 0, 79, 68
1, 129240, Tempo, 402199
1, 129240, Note_on_c, 0, 79, 0
1, 129240, Note_on_c, 0, 88, 57
1, 129360, Tempo, 509857
1, 129360, Note_on_c, 0, 88, 0
1, 129360, Note_on_c, 0, 51, 0
1, 129360, Note_on_c, 0, 91, 89
1, 129360, Note_on_c, 0, 61, 35
1, 129360, Note_on_c, 0, 64, 42
1, 129540, Note_on_c, 0, 64, 0
1, 129540, Note_on_c, 0, 61, 0
1, 129540, Note_on_c, 0, 91, 0
1, 129600, Tempo, 376932
1, 129600, Note_on_c, 0, 82, 71
1, 129600, Note_on_c, 0, 51, 72
1, 129600, Control_c, 0, 64, 0
1, 129682, Control_c, 0, 64, 127
1, 129720, Note_on_c, 0, 82, 0
1, 129720, Note_on_c, 0, 91, 58
1, 129840, Note_on_c, 0, 91, 0
1, 129840, Note_on_c, 0, 82, 71
1, 129960, Tempo, 402199
1, 129960, Note_on_c, 0, 82, 0
1, 129960, Note_on_c, 0, 91, 59
1, 130080, Tempo, 497183
1, 130080, Note_on_c, 0, 91, 0
1, 130080, Note_on_c, 0, 51, 0
1, 130080, Note_on_c, 0, 94, 93
1, 130080, Note_on_c, 0, 61, 36
1, 130080, Note_on_c, 0, 64, 44
1, 130260, Note_on_c, 0, 64, 0
1, 130260, Note_on_c, 0, 61, 0
1, 130260, Note_on_c, 0, 94, 0
1, 130320, Tempo, 375752
1, 130320, Note_on_c, 0, 85, 74
1, 130320, Note_on_c, 0, 51, 75
1, 130320, Control_c, 0, 64, 0
1, 130402, Control_c, 0, 64, 127
1, 130440, Note_on_c, 0, 85, 0
1, 130440, Note_on_c, 0, 94, 61
1, 130560, Note_on_c, 0, 94, 0
1, 130560, Note_on_c, 0, 85, 75
1, 130680, Tempo, 402199
1, 130680, Note_on_c, 0, 85, 0
1, 130680, Note_on_c, 0, 94, 62
1, 130800, Tempo, 537249
1, 130800, Note_on_c, 0, 94, 0
1, 130800, Note_on_c, 0, 51, 0
1, 130800, Note_on_c, 0, 97, 97
1, 130800, Note_on_c, 0, 64, 46
1, 130800, Note_on_c, 0, 61, 38
1, 130980, Note_on_c, 0, 61, 0
1, 130980, Note_on_c, 0, 64, 0
1, 130980, Note_on_c, 0, 97, 0
1, 131040, Tempo, 379747
1, 131040, Note_on_c, 0, 88, 77
1, 131040, Note_on_c, 0, 51, 76
1, 131040, Control_c, 0, 64, 0
1, 131122, Control_c, 0, 64, 127
1, 131160, Note_on_c, 0, 88, 0
1, 131160, Note_on_c, 0, 97, 63
1, 131280, Note_on_c, 0, 97, 0
1, 131280, Note_on_c, 0, 88, 78
1, 131400, Tempo, 422535
1, 131400, Note_on_c, 0, 88, 0
1, 131400, Note_on_c, 0, 97, 64
1, 131520, Tempo, 601926
1, 131520, Note_on_c, 0, 97, 0
1, 131520, Note_on_c, 0, 51, 0
1, 131520, Note_on_c, 0, 100, 101
1, 131520, Note_on_c, 0, 61, 39
1, 131520, Note_on_c, 0, 64, 48
1, 131700, Note_on_c, 0, 64, 0
1, 131700, Note_on_c, 0, 61, 0
1, 131700, Note_on_c, 0, 100, 0
1, 131760, Tempo, 805369
1, 131760, Control_c, 0, 64, 0
1, 132480, Key_signature, 0, "major"
1, 132480, Tempo, 386648
1, 132480, Marker_t, "Part3"
1, 132480, Note_on_c, 0, 76, 42
1, 132480, Note_on_c, 0, 52, 44
1, 132562, Control_c, 0, 64, 127
1, 132600, Note_on_c, 0, 76, 0
1, 132600, Note_on_c, 0, 85, 35
1, 132720, Note_on_c, 0, 85, 0
1, 132720, Note_on_c, 0, 76, 42
1, 132840, Tempo, 402199
1, 132840, Note_on_c, 0, 76, 0
1, 132840, Note_on_c, 0, 85, 35
1, 132960, Tempo, 614251
1, 132960, Note_on_c, 0, 85, 0
1, 132960, Note_on_c, 0, 52, 0
1, 132960, Note_on_c, 0, 88, 53
1, 132960, Note_on_c, 0, 61, 24
1, 132960, Note_on_c, 0, 64, 29
1, 133080, Note_on_c, 0, 64, 0
1, 133080, Note_on_c, 0, 61, 0
1, 133080, Note_on_c, 0, 88, 0
1, 133114, Control_c, 0, 64, 0
1, 133200, Tempo, 386648
1, 133200, Note_on_c, 0, 76, 42
1, 133200, Note_on_c, 0, 52, 44
1, 133282, Control_c, 0, 64, 127
1, 133320, Note_on_c, 0, 76, 0
1, 133320, Note_on_c, 0, 85, 35
1, 133440, Note_on_c, 0, 85, 0
1, 133440, Note_on_c, 0, 76, 42
1, 133560, Tempo, 402199
1, 133560, Note_on_c, 0, 76, 0
1, 133560, Note_on_c, 0, 85, 35
1, 133680, Tempo, 601926
1, 133680, Note_on_c, 0, 85, 0
1, 133680, Note_on_c, 0, 52, 0
1, 133680, Note_on_c, 0, 88, 53
1, 133680, Note_on_c, 0, 64, 29
1, 133680, Note_on_c, 0, 61, 24
1, 133800, Note_on_c, 0, 61, 0
1, 133800, Note_on_c, 0, 64, 0
1, 133800, Note_on_c, 0, 88, 0
1, 133834, Control_c, 0, 64, 0
1, 133920, Tempo, 386648
1, 133920, Note_on_c, 0, 76, 42
1, 133920, Note_on_c, 0, 52, 44
1, 134002, Control_c, 0, 64, 127
1, 134040, Note_on_c, 0, 76, 0
1, 134040, Note_on_c, 0, 85, 35
1, 134160, Note_on_c, 0, 85, 0
1, 134160, Note_on_c, 0, 76, 42
1, 134280, Tempo, 402199
1, 134280, Note_on_c, 0, 76, 0
1, 134280, Note_on_c, 0, 85, 35
1, 134400, Tempo, 601926
1, 134400, Note_on_c, 0, 85, 0
1, 134400, Note_on_c, 0, 52, 0
1, 134400, Note_on_c, 0, 88, 53
1, 134400, Note_on_c, 0, 64, 29
1, 134400, Note_on_c, 0, 61, 24
1, 134520, Note_on_c, 0, 61, 0
1, 134520, Note_on_c, 0, 64, 0
1, 134520, Note_on_c, 0, 88, 0
1, 134554, Control_c, 0, 64, 0
1, 134640, Tempo, 428571
1, 134640, Note_on_c, 0, 83, 39
1, 134640, Note_on_c, 0, 74, 39
1, 134640, Note_on_c, 0, 86, 46
1, 134640, Note_on_c, 0, 52, 26
1, 134640, Note_on_c, 0, 59, 26
1, 134640, Note_on_c, 0, 62, 31
1, 134700, Note_on_c, 0, 62, 0
1, 134700, Note_on_c, 0, 74, 0
1, 134700, Note_on_c, 0, 86, 0
1, 134700, Note_on_c, 0, 83, 0
1, 134700, Note_on_c, 0, 59, 0
1, 134700, Note_on_c, 0, 52, 0
1, 134880, Tempo, 436364
1, 134880, Note_on_c, 0, 83, 36
1, 134880, Note_on_c, 0, 86, 43
1, 134880, Note_on_c, 0, 74, 36
1, 134880, Note_on_c, 0, 62, 29
1, 134880, Note_on_c, 0, 52, 24
1, 134880, Note_on_c, 0, 59, 24
1, 134940, Note_on_c, 0, 59, 0
1, 134940, Note_on_c, 0, 86, 0
1, 134940, Note_on_c, 0, 74, 0
1, 134940, Note_on_c, 0, 83, 0
1, 134940, Note_on_c, 0, 52, 0
1, 134940, Note_on_c, 0, 62, 0
1, 135120, Tempo, 475511
1, 135120, Note_on_c, 0, 85, 43
1, 135120, Note_on_c, 0, 73, 36
1, 135120, Note_on_c, 0, 81, 36
1, 135120, Note_on_c, 0, 57, 24
1, 135120, Note_on_c, 0, 61, 29
1, 135120, Note_on_c, 0, 52, 24
1, 135180, Note_on_c, 0, 52, 0
1, 135180, Note_on_c, 0, 73, 0
1, 135180, Note_on_c, 0, 81, 0
1, 135180, Note_on_c, 0, 85, 0
1, 135180, Note_on_c, 0, 61, 0
1, 135180, Note_on_c, 0, 57, 0
1, 135360, Tempo, 386648
1, 135360, Note_on_c, 0, 74, 42
1, 135360, Note_on_c, 0, 52, 44
1, 135442, Control_c, 0, 64, 127
1, 135480, Note_on_c, 0, 74, 0
1, 135480, Note_on_c, 0, 83, 35
1, 135600, Note_on_c, 0, 83, 0
1, 135600, Note_on_c, 0, 74, 42
1, 135720, Tempo, 402199
1, 135720, Note_on_c, 0, 74, 0
1, 135720, Note_on_c, 0, 83, 35
1, 135840, Tempo, 614251
1, 135840, Note_on_c, 0, 83, 0
1, 135840, Note_on_c, 0, 52, 0
1, 135840, Note_on_c, 0, 86, 53
1, 135840, Note_on_c, 0, 62, 29
1, 135840, Note_on_c, 0, 59, 24
1, 135960, Note_on_c, 0, 59, 0
1, 135960, Note_on_c, 0, 62, 0
1, 135960, Note_on_c, 0, 86, 0
1, 135994, Control_c, 0, 64, 0
1, 136080, Tempo, 386648
1, 136080, Note_on_c, 0, 74, 42
1, 136080, Note_on_c, 0, 52, 44
1, 136162, Control_c, 0, 64, 127
1, 136200, Note_on_c, 0, 74, 0
1, 136200, Note_on_c, 0, 83, 35
1, 136320, Note_on_c, 0, 83, 0
1, 136320, Note_on_c, 0, 74, 42
1, 136440, Tempo, 402199
1, 136440, Note_on_c, 0, 74, 0
1, 136440, Note_on_c, 0, 83, 35
1, 136560, Tempo, 557051
1, 136560, Note_on_c, 0, 83, 0
1, 136560, Note_on_c, 0, 52, 0
1, 136560, Note_on_c, 0, 86, 53
1, 136560, Note_on_c, 0, 59, 24
1, 136560, Note_on_c, 0, 62, 29
1, 136680, Note_on_c, 0, 62, 0
1, 136680, Note_on_c, 0, 59, 0
1, 136680, Note_on_c, 0, 86, 0
1, 136714, Control_c, 0, 64, 0
1, 136800, Tempo, 386648
1, 136800, Note_on_c, 0, 74, 42
1, 136800, Note_on_c, 0, 52, 44
1, 136882, Control_c, 0, 64, 127
1, 136920, Note_on_c, 0, 74, 0
1, 136920, Note_on_c, 0, 83, 35
1, 137040, Note_on_c, 0, 83, 0
1, 137040, Note_on_c, 0, 74, 42
1, 137160, Tempo, 402199
1, 137160, Note_on_c, 0, 74, 0
1, 137160, Note_on_c, 0, 83, 35
1, 137280, Tempo, 604778
1, 137280, Note_on_c, 0, 83, 0
1, 137280, Note_on_c, 0, 52, 0
1, 137280, Note_on_c, 0, 86, 53
1, 137280, Note_on_c, 0, 62, 29
1, 137280, Note_on_c, 0, 59, 24
1, 137400, Note_on_c, 0, 59, 0
1, 137400, Note_on_c, 0, 62, 0
1, 137400, Note_on_c, 0, 86, 0
1, 137434, Control_c, 0, 64, 0
1, 137520, Tempo, 428571
1, 137520, Note_on_c, 0, 81, 39
1, 137520, Note_on_c, 0, 85, 46
1, 137520, Note_on_c, 0, 73, 39
1, 137520, Note_on_c, 0, 52, 26
1, 137520, Note_on_c, 0, 57, 26
1, 137520, Note_on_c, 0, 61, 31
1, 137580, Note_on_c, 0, 61, 0
1, 137580, Note_on_c, 0, 85, 0
1, 137580, Note_on_c, 0, 73, 0
1, 137580, Note_on_c, 0, 81, 0
1, 137580, Note_on_c, 0, 57, 0
1, 137580, Note_on_c, 0, 52, 0
1, 137760, Tempo, 436364
1, 137760, Note_on_c, 0, 73, 36
1, 137760, Note_on_c, 0, 85, 43
1, 137760, Note_on_c, 0, 81, 36
1, 137760, Note_on_c, 0, 52, 24
1, 137760, Note_on_c, 0, 57, 24
1, 137760, Note_on_c, 0, 61, 29
1, 137820, Note_on_c, 0, 61, 0
1, 137820, Note_on_c, 0, 85, 0
1, 137820, Note_on_c, 0, 81, 0
1, 137820, Note_on_c, 0, 73, 0
1, 137820, Note_on_c, 0, 57, 0
1, 137820, Note_on_c, 0, 52, 0
1, 138000, Tempo, 475511
1, 138000, Note_on_c, 0, 80, 36
1, 138000, Note_on_c, 0, 83, 43
1, 138000, Note_on_c, 0, 71, 36
1, 138000, Note_on_c, 0, 52, 24
1, 138000, Note_on_c, 0, 59, 29
1, 138000, Note_on_c, 0, 56, 24
1, 138060, Note_on_c, 0, 56, 0
1, 138060, Note_on_c, 0, 83, 0
1, 138060, Note_on_c, 0, 71, 0
1, 138060, Note_on_c, 0, 80, 0
1, 138060, Note_on_c, 0, 59, 0
1, 138060, Note_on_c, 0, 52, 0
1, 138240, Tempo, 386648
1, 138240, Note_on_c, 0, 76, 42
1, 138240, Note_on_c, 0, 52, 44
1, 138322, Control_c, 0, 64, 127
1, 138360, Note_on_c, 0, 76, 0
1, 138360, Note_on_c, 0, 85, 35
1, 138480, Note_on_c, 0, 85, 0
1, 138480, Note_on_c, 0, 76, 42
1, 138600, Tempo, 402199
1, 138600, Note_on_c, 0, 76, 0
1, 138600, Note_on_c, 0, 85, 35
1, 138720, Tempo, 614251
1, 138720, Note_on_c, 0, 85, 0
1, 138720, Note_on_c, 0, 52, 0
1, 138720, Note_on_c, 0, 88, 53
1, 138720, Note_on_c, 0, 61, 24
1, 138720, Note_on_c, 0, 64, 29
1, 138840, Note_on_c, 0, 64, 0
1, 138840, Note_on_c, 0, 61, 0
1, 138840, Note_on_c, 0, 88, 0
1, 138874, Control_c, 0, 64, 0
1, 138960, Tempo, 386648
1, 138960, Note_on_c, 0, 76, 42
1, 138960, Note_on_c, 0, 52, 44
1, 139042, Control_c, 0, 64, 127
1, 139080, Note_on_c, 0, 76, 0
1, 139080, Note_on_c, 0, 85, 35
1, 139200, Note_on_c, 0, 85, 0
1, 139200, Note_on_c, 0, 76, 42
1, 139320, Tempo, 402199
1, 139320, Note_on_c, 0, 76, 0
1, 139320, Note_on_c, 0, 85, 35
1, 139440, Tempo, 601926
1, 139440, Note_on_c, 0, 85, 0
1, 139440, Note_on_c, 0, 52, 0
1, 139440, Note_on_c, 0, 88, 53
1, 139440, Note_on_c, 0, 61, 24
1, 139440, Note_on_c, 0, 64, 29
1, 139560, Note_on_c, 0, 64, 0
1, 139560, Note_on_c, 0, 61, 0
1, 139560, Note_on_c, 0, 88, 0
1, 139594, Control_c, 0, 64, 0
1, 139680, Tempo, 386648
1, 139680, Note_on_c, 0, 76, 42
1, 139680, Note_on_c, 0, 52, 44
1, 139762, Control_c, 0, 64, 127
1, 139800, Note_on_c, 0, 76, 0
1, 139800, Note_on_c, 0, 85, 35
1, 139920, Note_on_c, 0, 85, 0
1, 139920, Note_on_c, 0, 76, 42
1, 140040, Tempo, 402199
1, 140040, Note_on_c, 0, 76, 0
1, 140040, Note_on_c, 0, 85, 35
1, 140160, Tempo, 601926
1, 140160, Note_on_c, 0, 85, 0
1, 140160, Note_on_c, 0, 52, 0
1, 140160, Note_on_c, 0, 88, 53
1, 140160, Note_on_c, 0, 64, 29
1, 140160, Note_on_c, 0, 61, 24
1, 140280, Note_on_c, 0, 61, 0
1, 140280, Note_on_c, 0, 64, 0
1, 140280, Note_on_c, 0, 88, 0
1, 140314, Control_c, 0, 64, 0
1, 140400, Tempo, 428571
1, 140400, Note_on_c, 0, 92, 60
1, 140400, Note_on_c, 0, 80, 50
1, 140400, Note_on_c, 0, 88, 50
1, 140400, Note_on_c, 0, 62, 37
1, 140400, Note_on_c, 0, 59, 30
1, 140400, Note_on_c, 0, 52, 30
1, 140460, Note_on_c, 0, 52, 0
1, 140460, Note_on_c, 0, 80, 0
1, 140460, Note_on_c, 0, 88, 0
1, 140460, Note_on_c, 0, 92, 0
1, 140460, Note_on_c, 0, 59, 0
1, 140460, Note_on_c, 0, 62, 0
1, 140640, Tempo, 436364
1, 140640, Note_on_c, 0, 80, 46
1, 140640, Note_on_c, 0, 92, 56
1, 140640, Note_on_c, 0, 88, 46
1, 140640, Note_on_c, 0, 52, 28
1, 140640, Note_on_c, 0, 62, 34
1, 140640, Note_on_c, 0, 59, 28
1, 140700, Note_on_c, 0, 59, 0
1, 140700, Note_on_c, 0, 92, 0
1, 140700, Note_on_c, 0, 88, 0
1, 140700, Note_on_c, 0, 80, 0
1, 140700, Note_on_c, 0, 62, 0
1, 140700, Note_on_c, 0, 52, 0
1, 140880, Tempo, 475511
1, 140880, Note_on_c, 0, 81, 46
1, 140880, Note_on_c, 0, 88, 46
1, 140880, Note_on_c, 0, 93, 56
1, 140880, Note_on_c, 0, 57, 28
1, 140880, Note_on_c, 0, 52, 28
1, 140880, Note_on_c, 0, 61, 34
1, 140940, Note_on_c, 0, 61, 0
1, 140940, Note_on_c, 0, 88, 0
1, 140940, Note_on_c, 0, 93, 0
1, 140940, Note_on_c, 0, 81, 0
1, 140940, Note_on_c, 0, 52, 0
1, 140940, Note_on_c, 0, 57, 0
1, 141120, Tempo, 386648
1, 141120, Note_on_c, 0, 74, 42
1, 141120, Note_on_c, 0, 52, 44
1, 141202, Control_c, 0, 64, 127
1, 141240, Note_on_c, 0, 74, 0
1, 141240, Note_on_c, 0, 83, 35
1, 141360, Note_on_c, 0, 83, 0
1, 141360, Note_on_c, 0, 74, 42
1, 141480, Tempo, 402199
1, 141480, Note_on_c, 0, 74, 0
1, 141480, Note_on_c, 0, 83, 35
1, 141600, Tempo, 614251
1, 141600, Note_on_c, 0, 83, 0
1, 141600, Note_on_c, 0, 52, 0
1, 141600, Note_on_c, 0, 86, 53
1, 141600, Note_on_c, 0, 62, 29
1, 141600, Note_on_c, 0, 59, 24
1, 141720, Note_on_c, 0, 59, 0
1, 141720, Note_on_c, 0, 62, 0
1, 141720, Note_on_c, 0, 86, 0
1, 141754, Control_c, 0, 64, 0
1, 141840, Tempo, 386648
1, 141840, Note_on_c, 0, 74, 42
1, 141840, Note_on_c, 0, 52, 44
1, 141922, Control_c, 0, 64, 127
1, 141960, Note_on_c, 0, 74, 0
1, 141960, Note_on_c, 0, 83, 35
1, 142080, Note_on_c, 0, 83, 0
1, 142080, Note_on_c, 0, 74, 42
1, 142200, Tempo, 402199
1, 142200, Note_on_c, 0, 74, 0
1, 142200, Note_on_c, 0, 83, 35
1, 142320, Tempo, 601926
1, 142320, Note_on_c, 0, 83, 0
1, 142320, Note_on_c, 0, 52, 0
1, 142320, Note_on_c, 0, 86, 53
1, 142320, Note_on_c, 0, 62, 29
1, 142320, Note_on_c, 0, 59, 24
1, 142440, Note_on_c, 0, 59, 0
1, 142440, Note_on_c, 0, 62, 0
1, 142440, Note_on_c, 0, 86, 0
1, 142474, Control_c, 0, 64, 0
1, 142560, Tempo, 386648
1, 142560, Note_on_c, 0, 74, 42
1, 142560, Note_on_c, 0, 52, 44
1, 142642, Control_c, 0, 64, 127
1, 142680, Note_on_c, 0, 74, 0
1, 142680, Note_on_c, 0, 83, 35
1, 142800, Note_on_c, 0, 83, 0
1, 142800, Note_on_c, 0, 74, 42
1, 142920, Tempo, 402199
1, 142920, Note_on_c, 0, 74, 0
1, 142920, Note_on_c, 0, 83, 35
1, 143040, Tempo, 601926
1, 143040, Note_on_c, 0, 83, 0
1, 143040, Note_on_c, 0, 52, 0
1, 143040, Note_on_c, 0, 86, 53
1, 143040, Note_on_c, 0, 59, 24
1, 143040, Note_on_c, 0, 62, 29
1, 143160, Note_on_c, 0, 62, 0
1, 143160, Note_on_c, 0, 59, 0
1, 143160, Note_on_c, 0, 86, 0
1, 143194, Control_c, 0, 64, 0
1, 143280, Tempo, 428571
1, 143280, Note_on_c, 0, 81, 50
1, 143280, Note_on_c, 0, 85, 50
1, 143280, Note_on_c, 0, 93, 60
1, 143280, Note_on_c, 0, 61, 37
1, 143280, Note_on_c, 0, 52, 30
1, 143280, Note_on_c, 0, 57, 30
1, 143340, Note_on_c, 0, 57, 0
1, 143340, Note_on_c, 0, 85, 0
1, 143340, Note_on_c, 0, 93, 0
1, 143340, Note_on_c, 0, 81, 0
1, 143340, Note_on_c, 0, 52, 0
1, 143340, Note_on_c, 0, 61, 0
1, 143520, Tempo, 436364
1, 143520, Note_on_c, 0, 81, 46
1, 143520, Note_on_c, 0, 93, 56
1, 143520, Note_on_c, 0, 85, 46
1, 143520, Note_on_c, 0, 57, 28
1, 143520, Note_on_c, 0, 61, 34
1, 143520, Note_on_c, 0, 52, 28
1, 143580, Note_on_c, 0, 52, 0
1, 143580, Note_on_c, 0, 93, 0
1, 143580, Note_on_c, 0, 85, 0
1, 143580, Note_on_c, 0, 81, 0
1, 143580, Note_on_c, 0, 61, 0
1, 143580, Note_on_c, 0, 57, 0
1, 143760, Tempo, 475511
1, 143760, Note_on_c, 0, 83, 46
1, 143760, Note_on_c, 0, 86, 46
1, 143760, Note_on_c, 0, 95, 56
1, 143760, Note_on_c, 0, 52, 28
1, 143760, Note_on_c, 0, 59, 34
1, 143760, Note_on_c, 0, 56, 28
1, 143820, Note_on_c, 0, 56, 0
1, 143820, Note_on_c, 0, 86, 0
1, 143820, Note_on_c, 0, 95, 0
1, 143820, Note_on_c, 0, 83, 0
1, 143820, Note_on_c, 0, 59, 0
1, 143820, Note_on_c, 0, 52, 0
1, 144000, Tempo, 386648
1, 144000, Note_on_c, 0, 73, 46
1, 144000, Note_on_c, 0, 52, 48
1, 144082, Control_c, 0, 64, 127
1, 144120, Note_on_c, 0, 73, 0
1, 144120, Note_on_c, 0, 81, 38
1, 144240, Note_on_c, 0, 81, 0
1, 144240, Note_on_c, 0, 73, 47
1, 144360, Tempo, 402199
1, 144360, Note_on_c, 0, 73, 0
1, 144360, Note_on_c, 0, 81, 39
1, 144480, Tempo, 515021
1, 144480, Note_on_c, 0, 81, 0
1, 144480, Note_on_c, 0, 52, 0
1, 144480, Note_on_c, 0, 85, 60
1, 144480, Note_on_c, 0, 61, 33
1, 144480, Note_on_c, 0, 57, 27
1, 144600, Note_on_c, 0, 57, 0
1, 144600, Note_on_c, 0, 61, 0
1, 144600, Note_on_c, 0, 85, 0
1, 144634, Control_c, 0, 64, 0
1, 144720, Tempo, 386648
1, 144720, Note_on_c, 0, 71, 49
1, 144720, Note_on_c, 0, 52, 51
1, 144802, Control_c, 0, 64, 127
1, 144840, Note_on_c, 0, 71, 0
1, 144840, Note_on_c, 0, 80, 41
1, 144960, Note_on_c, 0, 80, 0
1, 144960, Note_on_c, 0, 71, 50
1, 145080, Tempo, 402199
1, 145080, Note_on_c, 0, 71, 0
1, 145080, Note_on_c, 0, 80, 42
1, 145200, Tempo, 512821
1, 145200, Note_on_c, 0, 80, 0
1, 145200, Note_on_c, 0, 52, 0
1, 145200, Note_on_c, 0, 83, 64
1, 145200, Note_on_c, 0, 59, 35
1, 145200, Note_on_c, 0, 56, 29
1, 145320, Note_on_c, 0, 56, 0
1, 145320, Note_on_c, 0, 59, 0
1, 145320, Note_on_c, 0, 83, 0
1, 145354, Control_c, 0, 64, 0
1, 145440, Tempo, 386648
1, 145440, Note_on_c, 0, 73, 52
1, 145440, Note_on_c, 0, 52, 55
1, 145522, Control_c, 0, 64, 127
1, 145560, Note_on_c, 0, 73, 0
1, 145560, Note_on_c, 0, 81, 44
1, 145680, Note_on_c, 0, 81, 0
1, 145680, Note_on_c, 0, 73, 53
1, 145800, Tempo, 402199
1, 145800, Note_on_c, 0, 73, 0
1, 145800, Note_on_c, 0, 81, 44
1, 145920, Tempo, 502092
1, 145920, Note_on_c, 0, 81, 0
1, 145920, Note_on_c, 0, 52, 0
1, 145920, Note_on_c, 0, 85, 68
1, 145920, Note_on_c, 0, 61, 37
1, 145920, Note_on_c, 0, 57, 31
1, 146040, Note_on_c, 0, 57, 0
1, 146040, Note_on_c, 0, 61, 0
1, 146040, Note_on_c, 0, 85, 0
1, 146074, Control_c, 0, 64, 0
1, 146160, Tempo, 386648
1, 146160, Note_on_c, 0, 74, 55
1, 146160, Note_on_c, 0, 52, 58
1, 146242, Control_c, 0, 64, 127
1, 146280, Note_on_c, 0, 74, 0
1, 146280, Note_on_c, 0, 83, 46
1, 146400, Note_on_c, 0, 83, 0
1, 146400, Note_on_c, 0, 74, 56
1, 146520, Tempo, 402199
1, 146520, Note_on_c, 0, 74, 0
1, 146520, Note_on_c, 0, 83, 47
1, 146640, Tempo, 601926
1, 146640, Note_on_c, 0, 83, 0
1, 146640, Note_on_c, 0, 52, 0
1, 146640, Note_on_c, 0, 86, 72
1, 146640, Note_on_c, 0, 62, 39
1, 146640, Note_on_c, 0, 59, 32
1, 146760, Note_on_c, 0, 59, 0
1, 146760, Note_on_c, 0, 62, 0
1, 146760, Note_on_c, 0, 86, 0
1, 146794, Control_c, 0, 64, 0
1, 146880, Key_signature, -4, "major"
1, 146880, Tempo, 391645
1, 146880, Marker_t, "Part4"
1, 146880, Note_on_c, 0, 84, 74
1, 146880, Note_on_c, 0, 63, 67
1, 146880, Note_on_c, 0, 60, 56
1, 146880, Note_on_c, 0, 51, 56
1, 146880, Note_on_c, 0, 56, 56
1, 146923, Control_c, 0, 64, 127
1, 147000, Note_on_c, 0, 84, 0
1, 147000, Note_on_c, 0, 87, 66
1, 147096, Note_on_c, 0, 51, 0
1, 147096, Note_on_c, 0, 56, 0
1, 147096, Note_on_c, 0, 63, 0
1, 147096, Note_on_c, 0, 60, 0
1, 147120, Note_on_c, 0, 87, 0
1, 147120, Note_on_c, 0, 84, 71
1, 147120, Note_on_c, 0, 60, 34
1, 147120, Note_on_c, 0, 63, 41
1, 147120, Note_on_c, 0, 51, 34
1, 147120, Note_on_c, 0, 56, 34
1, 147240, Note_on_c, 0, 84, 0
1, 147240, Note_on_c, 0, 87, 62
1, 147336, Note_on_c, 0, 51, 0
1, 147336, Note_on_c, 0, 56, 0
1, 147336, Note_on_c, 0, 60, 0
1, 147336, Note_on_c, 0, 63, 0
1, 147346, Tempo, 385356
1, 147360, Note_on_c, 0, 87, 0
1, 147360, Note_on_c, 0, 92, 74
1, 147360, Note_on_c, 0, 63, 41
1, 147360, Note_on_c, 0, 51, 34
1, 147360, Note_on_c, 0, 60, 34
1, 147360, Note_on_c, 0, 56, 34
1, 147462, Tempo, 386598
1, 147480, Note_on_c, 0, 92, 0
1, 147480, Note_on_c, 0, 91, 65
1, 147558, Tempo, 387847
1, 147600, Note_on_c, 0, 91, 0
1, 147600, Note_on_c, 0, 89, 73
1, 147654, Tempo, 389105
1, 147720, Note_on_c, 0, 89, 0
1, 147720, Note_on_c, 0, 87, 60
1, 147750, Tempo, 390371
1, 147840, Note_on_c, 0, 87, 0
1, 147840, Note_on_c, 0, 85, 66
1, 147846, Tempo, 391645
1, 147942, Tempo, 392927
1, 147960, Note_on_c, 0, 85, 0
1, 147960, Note_on_c, 0, 84, 64
1, 148038, Tempo, 394218
1, 148080, Note_on_c, 0, 84, 0
1, 148080, Note_on_c, 0, 82, 62
1, 148134, Tempo, 395517
1, 148200, Note_on_c, 0, 82, 0
1, 148200, Note_on_c, 0, 80, 60
1, 148230, Tempo, 396825
1, 148320, Note_on_c, 0, 80, 0
1, 148320, Note_on_c, 0, 56, 0
1, 148320, Note_on_c, 0, 60, 0
1, 148320, Note_on_c, 0, 79, 58
1, 148320, Note_on_c, 0, 61, 41
1, 148320, Note_on_c, 0, 58, 34
1, 148320, Control_c, 0, 64, 0
1, 148326, Tempo, 398142
1, 148422, Tempo, 399467
1, 148440, Note_on_c, 0, 79, 0
1, 148440, Note_on_c, 0, 77, 56
1, 148447, Control_c, 0, 64, 127
1, 148518, Tempo, 400802
1, 148560, Note_on_c, 0, 77, 0
1, 148560, Note_on_c, 0, 75, 54
1, 148614, Tempo, 402145
1, 148680, Note_on_c, 0, 75, 0
1, 148680, Note_on_c, 0, 73, 52
1, 148710, Tempo, 403497
1, 148800, Note_on_c, 0, 73, 0
1, 148800, Note_on_c, 0, 72, 50
1, 148806, Tempo, 404858
1, 148920, Note_on_c, 0, 72, 0
1, 148920, Note_on_c, 0, 70, 48
1, 149040, Note_on_c, 0, 70, 0
1, 149040, Note_on_c, 0, 68, 45
1, 149160, Note_on_c, 0, 68, 0
1, 149160, Note_on_c, 0, 67, 44
1, 149170, Tempo, 406229
1, 149280, Note_on_c, 0, 67, 0
1, 149280, Note_on_c, 0, 65, 41
1, 149305, Tempo, 407609
1, 149400, Note_on_c, 0, 65, 0
1, 149400, Note_on_c, 0, 64, 39
1, 149420, Tempo, 408998
1, 149520, Tempo, 437318
1, 149520, Note_on_c, 0, 64, 0
1, 149520, Note_on_c, 0, 63, 37
1, 149535, Control_c, 0, 64, 0
1, 149740, Tempo, 418965
1, 149760, Tempo, 391645
1, 149760, Note_on_c, 0, 63, 0
1, 149760, Note_on_c, 0, 61, 0
1, 149760, Note_on_c, 0, 63, 0
1, 149760, Note_on_c, 0, 51, 0
1, 149760, Note_on_c, 0, 58, 0
1, 149760, Note_on_c, 0, 87, 74
1, 149760, Note_on_c, 0, 60, 56
1, 149760, Note_on_c, 0, 63, 67
1, 149760, Note_on_c, 0, 51, 56
1, 149760, Note_on_c, 0, 56, 56
1, 149803, Control_c, 0, 64, 127
1, 149880, Note_on_c, 0, 87, 0
1, 149880, Note_on_c, 0, 92, 66
1, 149976, Note_on_c, 0, 51, 0
1, 149976, Note_on_c, 0, 56, 0
1, 149976, Note_on_c, 0, 60, 0
1, 149976, Note_on_c, 0, 63, 0
1, 150000, Note_on_c, 0, 92, 0
1, 150000, Note_on_c, 0, 87, 71
1, 150000, Note_on_c, 0, 60, 34
1, 150000, Note_on_c, 0, 63, 41
1, 150000, Note_on_c, 0, 51, 34
1, 150000, Note_on_c, 0, 56, 34
1, 150120, Note_on_c, 0, 87, 0
1, 150120, Note_on_c, 0, 92, 62
1, 150216, Note_on_c, 0, 51, 0
1, 150216, Note_on_c, 0, 56, 0
1, 150216, Note_on_c, 0, 60, 0
1, 150216, Note_on_c, 0, 63, 0
1, 150226, Tempo, 385356
1, 150240, Note_on_c, 0, 92, 0
1, 150240, Note_on_c, 0, 96, 74
1, 150240, Note_on_c, 0, 56, 34
1, 150240, Note_on_c, 0, 63, 41
1, 150240, Note_on_c, 0, 51, 34
1, 150240, Note_on_c, 0, 60, 34
1, 150342, Tempo, 386598
1, 150360, Note_on_c, 0, 96, 0
1, 150360, Note_on_c, 0, 94, 65
1, 150438, Tempo, 387847
1, 150480, Note_on_c, 0, 94, 0
1, 150480, Note_on_c, 0, 92, 73
1, 150534, Tempo, 389105
1, 150600, Note_on_c, 0, 92, 0
1, 150600, Note_on_c, 0, 91, 60
1, 150630, Tempo, 390371
1, 150720, Note_on_c, 0, 91, 0
1, 150720, Note_on_c, 0, 89, 66
1, 150726, Tempo, 391645
1, 150822, Tempo, 392927
1, 150840, Note_on_c, 0, 89, 0
1, 150840, Note_on_c, 0, 87, 64
1, 150918, Tempo, 394218
1, 150960, Note_on_c, 0, 87, 0
1, 150960, Note_on_c, 0, 85, 62
1, 151014, Tempo, 395517
1, 151080, Note_on_c, 0, 85, 0
1, 151080, Note_on_c, 0, 84, 60
1, 151110, Tempo, 396825
1, 151200, Note_on_c, 0, 84, 0
1, 151200, Note_on_c, 0, 60, 0
1, 151200, Note_on_c, 0, 56, 0
1, 151200, Note_on_c, 0, 82, 58
1, 151200, Note_on_c, 0, 55, 34
1, 151200, Note_on_c, 0, 61, 41
1, 151200, Control_c, 0, 64, 0
1, 151206, Tempo, 398142
1, 151302, Tempo, 399467
1, 151320, Note_on_c, 0, 82, 0
1, 151320, Note_on_c, 0, 80, 56
1, 151327, Control_c, 0, 64, 127
1, 151398, Tempo, 400802
1, 151440, Note_on_c, 0, 80, 0
1, 151440, Note_on_c, 0, 79, 54
1, 151494, Tempo, 402145
1, 151560, Note_on_c, 0, 79, 0
1, 151560, Note_on_c, 0, 77, 52
1, 151590, Tempo, 403497
1, 151680, Note_on_c, 0, 77, 0
1, 151680, Note_on_c, 0, 75, 50
1, 151686, Tempo, 404858
1, 151800, Note_on_c, 0, 75, 0
1, 151800, Note_on_c, 0, 73, 48
1, 151920, Note_on_c, 0, 73, 0
1, 151920, Note_on_c, 0, 72, 45
1, 152040, Note_on_c, 0, 72, 0
1, 152040, Note_on_c, 0, 70, 44
1, 152050, Tempo, 406229
1, 152160, Note_on_c, 0, 70, 0
1, 152160, Note_on_c, 0, 68, 41
1, 152185, Tempo, 407609
1, 152280, Note_on_c, 0, 68, 0
1, 152280, Note_on_c, 0, 67, 39
1, 152300, Tempo, 408998
1, 152400, Note_on_c, 0, 67, 0
1, 152400, Note_on_c, 0, 65, 37
1, 152434, Tempo, 410397
1, 152520, Tempo, 589971
1, 152520, Note_on_c, 0, 65, 0
1, 152520, Note_on_c, 0, 63, 37
1, 152640, Tempo, 391645
1, 152640, Note_on_c, 0, 63, 0
1, 152640, Note_on_c, 0, 61, 0
1, 152640, Note_on_c, 0, 51, 0
1, 152640, Note_on_c, 0, 63, 0
1, 152640, Note_on_c, 0, 55, 0
1, 152640, Note_on_c, 0, 92, 76
1, 152640, Note_on_c, 0, 51, 56
1, 152640, Note_on_c, 0, 60, 56
1, 152640, Note_on_c, 0, 63, 67
1, 152640, Note_on_c, 0, 56, 56
1, 152647, Control_c, 0, 64, 0
1, 152683, Control_c, 0, 64, 127
1, 152760, Note_on_c, 0, 92, 0
1, 152760, Note_on_c, 0, 96, 66
1, 152856, Note_on_c, 0, 63, 0
1, 152856, Note_on_c, 0, 56, 0
1, 152856, Note_on_c, 0, 51, 0
1, 152856, Note_on_c, 0, 60, 0
1, 152880, Note_on_c, 0, 96, 0
1, 152880, Note_on_c, 0, 92, 71
1, 152880, Note_on_c, 0, 60, 34
1, 152880, Note_on_c, 0, 51, 34
1, 152880, Note_on_c, 0, 63, 41
1, 152880, Note_on_c, 0, 56, 34
1, 153000, Note_on_c, 0, 92, 0
1, 153000, Note_on_c, 0, 96, 62
1, 153096, Note_on_c, 0, 63, 0
1, 153096, Note_on_c, 0, 56, 0
1, 153096, Note_on_c, 0, 60, 0
1, 153096, Note_on_c, 0, 51, 0
1, 153106, Tempo, 385356
1, 153120, Note_on_c, 0, 96, 0
1, 153120, Note_on_c, 0, 99, 77
1, 153120, Note_on_c, 0, 51, 34
1, 153120, Note_on_c, 0, 63, 41
1, 153120, Note_on_c, 0, 56, 34
1, 153120, Note_on_c, 0, 60, 34
1, 153222, Tempo, 386598
1, 153240, Note_on_c, 0, 99, 0
1, 153240, Note_on_c, 0, 97, 69
1, 153318, Tempo, 387847
1, 153360, Note_on_c, 0, 97, 0
1, 153360, Note_on_c, 0, 96, 79
1, 153414, Tempo, 389105
1, 153480, Note_on_c, 0, 96, 0
1, 153480, Note_on_c, 0, 94, 71
1, 153510, Tempo, 390371
1, 153600, Note_on_c, 0, 94, 0
1, 153600, Note_on_c, 0, 92, 74
1, 153606, Tempo, 391645
1, 153702, Tempo, 392927
1, 153720, Note_on_c, 0, 92, 0
1, 153720, Note_on_c, 0, 91, 72
1, 153798, Tempo, 394218
1, 153840, Note_on_c, 0, 91, 0
1, 153840, Note_on_c, 0, 89, 70
1, 153894, Tempo, 395517
1, 153960, Note_on_c, 0, 89, 0
1, 153960, Note_on_c, 0, 87, 68
1, 153990, Tempo, 396825
1, 154080, Note_on_c, 0, 87, 0
1, 154080, Note_on_c, 0, 60, 0
1, 154080, Note_on_c, 0, 56, 0
1, 154080, Note_on_c, 0, 85, 65
1, 154080, Note_on_c, 0, 55, 34
1, 154080, Note_on_c, 0, 61, 41
1, 154080, Control_c, 0, 64, 0
1, 154086, Tempo, 398142
1, 154182, Tempo, 399467
1, 154200, Note_on_c, 0, 85, 0
1, 154200, Note_on_c, 0, 84, 63
1, 154207, Control_c, 0, 64, 127
1, 154278, Tempo, 400802
1, 154320, Note_on_c, 0, 84, 0
1, 154320, Note_on_c, 0, 82, 61
1, 154374, Tempo, 402145
1, 154440, Note_on_c, 0, 82, 0
1, 154440, Note_on_c, 0, 80, 59
1, 154470, Tempo, 403497
1, 154560, Note_on_c, 0, 80, 0
1, 154560, Note_on_c, 0, 79, 57
1, 154566, Tempo, 404858
1, 154680, Note_on_c, 0, 79, 0
1, 154680, Note_on_c, 0, 77, 54
1, 154800, Note_on_c, 0, 77, 0
1, 154800, Note_on_c, 0, 75, 52
1, 154880, Note_on_c, 0, 75, 0
1, 154880, Note_on_c, 0, 73, 52
1, 154930, Tempo, 406229
1, 154960, Note_on_c, 0, 73, 0
1, 154960, Note_on_c, 0, 72, 53
1, 155040, Note_on_c, 0, 72, 0
1, 155040, Note_on_c, 0, 55, 0
1, 155040, Note_on_c, 0, 51, 0
1, 155040, Note_on_c, 0, 63, 0
1, 155040, Note_on_c, 0, 61, 0
1, 155040, Note_on_c, 0, 70, 53
1, 155065, Tempo, 407609
1, 155100, Note_on_c, 0, 70, 0
1, 155100, Note_on_c, 0, 68, 54
1, 155160, Note_on_c, 0, 68, 0
1, 155160, Note_on_c, 0, 67, 55
1, 155180, Tempo, 408998
1, 155220, Note_on_c, 0, 67, 0
1, 155220, Note_on_c, 0, 65, 56
1, 155280, Note_on_c, 0, 65, 0
1, 155280, Note_on_c, 0, 63, 57
1, 155314, Tempo, 410397
1, 155340, Note_on_c, 0, 63, 0
1, 155340, Note_on_c, 0, 61, 58
1, 155400, Note_on_c, 0, 61, 0
1, 155400, Note_on_c, 0, 60, 60
1, 155430, Tempo, 411805
1, 155460, Note_on_c, 0, 60, 0
1, 155460, Note_on_c, 0, 58, 61
1, 155500, Tempo, 418965
1, 155520, Note_on_c, 0, 58, 0
1, 155520, Note_on_c, 0, 56, 70
1, 155520, Control_c, 0, 64, 0
1, 155760, Note_on_c, 0, 56, 0
1, 155760, Note_on_c, 0, 56, 70
1, 155760, Note_on_c, 0, 44, 56
1, 155880, Note_on_c, 0, 60, 62
1, 155880, Note_on_c, 0, 48, 49
1, 155892, Note_on_c, 0, 44, 0
1, 155892, Note_on_c, 0, 56, 0
1, 156000, Note_on_c, 0, 63, 70
1, 156000, Note_on_c, 0, 51, 56
1, 156012, Note_on_c, 0, 60, 0
1, 156012, Note_on_c, 0, 48, 0
1, 156027, Tempo, 413223
1, 156057, Tempo, 411805
1, 156087, Tempo, 410397
1, 156102, Tempo, 408998
1, 156120, Note_on_c, 0, 61, 68
1, 156120, Note_on_c, 0, 49, 54
1, 156132, Tempo, 407609
1, 156132, Note_on_c, 0, 63, 0
1, 156132, Note_on_c, 0, 51, 0
1, 156147, Tempo, 406229
1, 156177, Tempo, 404858
1, 156192, Tempo, 403497
1, 156222, Tempo, 402145
1, 156237, Tempo, 398142
1, 156240, Note_on_c, 0, 60, 68
1, 156240, Note_on_c, 0, 48, 54
1, 156252, Note_on_c, 0, 61, 0
1, 156252, Note_on_c, 0, 49, 0
1, 156360, Note_on_c, 0, 58, 67
1, 156360, Note_on_c, 0, 46, 53
1, 156372, Note_on_c, 0, 60, 0
1, 156372, Note_on_c, 0, 48, 0
1, 156447, Tempo, 399467
1, 156480, Note_on_c, 0, 56, 66
1, 156480, Note_on_c, 0, 44, 52
1, 156492, Note_on_c, 0, 58, 0
1, 156492, Note_on_c, 0, 46, 0
1, 156600, Note_on_c, 0, 55, 65
1, 156600, Note_on_c, 0, 43, 52
1, 156612, Note_on_c, 0, 56, 0
1, 156612, Note_on_c, 0, 44, 0
1, 156642, Tempo, 400802
1, 156720, Note_on_c, 0, 53, 64
1, 156720, Note_on_c, 0, 41, 51
1, 156732, Note_on_c, 0, 55, 0
1, 156732, Note_on_c, 0, 43, 0
1, 156840, Note_on_c, 0, 51, 63
1, 156840, Note_on_c, 0, 39, 50
1, 156852, Tempo, 402145
1, 156852, Note_on_c, 0, 53, 0
1, 156852, Note_on_c, 0, 41, 0
1, 156960, Note_on_c, 0, 49, 62
1, 156960, Note_on_c, 0, 37, 49
1, 156972, Note_on_c, 0, 51, 0
1, 156972, Note_on_c, 0, 39, 0
1, 157047, Tempo, 403497
1, 157080, Note_on_c, 0, 48, 61
1, 157080, Note_on_c, 0, 36, 48
1, 157092, Note_on_c, 0, 49, 0
1, 157092, Note_on_c, 0, 37, 0
1, 157200, Note_on_c, 0, 46, 60
1, 157200, Note_on_c, 0, 34, 48
1, 157212, Note_on_c, 0, 48, 0
1, 157212, Note_on_c, 0, 36, 0
1, 157257, Tempo, 404858
1, 157320, Note_on_c, 0, 44, 59
1, 157320, Note_on_c, 0, 32, 47
1, 157332, Note_on_c, 0, 46, 0
1, 157332, Note_on_c, 0, 34, 0
1, 157440, Note_on_c, 0, 43, 58
1, 157440, Note_on_c, 0, 31, 46
1, 157452, Tempo, 406229
1, 157452, Note_on_c, 0, 44, 0
1, 157452, Note_on_c, 0, 32, 0
1, 157467, Tempo, 407609
1, 157560, Note_on_c, 0, 44, 57
1, 157560, Note_on_c, 0, 32, 45
1, 157572, Note_on_c, 0, 43, 0
1, 157572, Note_on_c, 0, 31, 0
1, 157662, Tempo, 406229
1, 157680, Note_on_c, 0, 46, 56
1, 157680, Note_on_c, 0, 34, 44
1, 157692, Note_on_c, 0, 44, 0
1, 157692, Note_on_c, 0, 32, 0
1, 157800, Note_on_c, 0, 48, 58
1, 157800, Note_on_c, 0, 36, 46
1, 157812, Note_on_c, 0, 46, 0
1, 157812, Note_on_c, 0, 34, 0
1, 157857, Tempo, 404858
1, 157920, Note_on_c, 0, 49, 59
1, 157920, Note_on_c, 0, 37, 47
1, 157932, Note_on_c, 0, 48, 0
1, 157932, Note_on_c, 0, 36, 0
1, 158040, Note_on_c, 0, 51, 60
1, 158040, Note_on_c, 0, 39, 48
1, 158052, Tempo, 403497
1, 158052, Note_on_c, 0, 49, 0
1, 158052, Note_on_c, 0, 37, 0
1, 158160, Note_on_c, 0, 53, 61
1, 158160, Note_on_c, 0, 41, 48
1, 158172, Note_on_c, 0, 51, 0
1, 158172, Note_on_c, 0, 39, 0
1, 158247, Tempo, 402145
1, 158280, Note_on_c, 0, 55, 62
1, 158280, Note_on_c, 0, 43, 49
1, 158292, Note_on_c, 0, 53, 0
1, 158292, Note_on_c, 0, 41, 0
1, 158400, Note_on_c, 0, 56, 63
1, 158400, Note_on_c, 0, 44, 50
1, 158412, Note_on_c, 0, 55, 0
1, 158412, Note_on_c, 0, 43, 0
1, 158442, Tempo, 400802
1, 158520, Note_on_c, 0, 58, 64
1, 158520, Note_on_c, 0, 46, 51
1, 158532, Note_on_c, 0, 56, 0
1, 158532, Note_on_c, 0, 44, 0
1, 158637, Tempo, 399467
1, 158640, Note_on_c, 0, 60, 65
1, 158640, Note_on_c, 0, 48, 52
1, 158652, Note_on_c, 0, 58, 0
1, 158652, Note_on_c, 0, 46, 0
1, 158760, Note_on_c, 0, 61, 66
1, 158760, Note_on_c, 0, 49, 52
1, 158772, Note_on_c, 0, 60, 0
1, 158772, Note_on_c, 0, 48, 0
1, 158832, Tempo, 398142
1, 158880, Note_on_c, 0, 63, 67
1, 158880, Note_on_c, 0, 51, 53
1, 158892, Note_on_c, 0, 61, 0
1, 158892, Note_on_c, 0, 49, 0
1, 159000, Note_on_c, 0, 65, 68
1, 159000, Note_on_c, 0, 53, 54
1, 159012, Note_on_c, 0, 63, 0
1, 159012, Note_on_c, 0, 51, 0
1, 159027, Tempo, 396825
1, 159120, Note_on_c, 0, 67, 70
1, 159120, Note_on_c, 0, 55, 56
1, 159132, Note_on_c, 0, 65, 0
1, 159132, Note_on_c, 0, 53, 0
1, 159222, Tempo, 395517
1, 159240, Note_on_c, 0, 68, 71
1, 159240, Note_on_c, 0, 56, 56
1, 159252, Note_on_c, 0, 67, 0
1, 159252, Note_on_c, 0, 55, 0
1, 159360, Note_on_c, 0, 70, 73
1, 159360, Note_on_c, 0, 58, 58
1, 159372, Note_on_c, 0, 68, 0
1, 159372, Note_on_c, 0, 56, 0
1, 159417, Tempo, 394218
1, 159480, Note_on_c, 0, 72, 74
1, 159480, Note_on_c, 0, 60, 59
1, 159492, Note_on_c, 0, 70, 0
1, 159492, Note_on_c, 0, 58, 0
1, 159600, Note_on_c, 0, 73, 76
1, 159600, Note_on_c, 0, 61, 60
1, 159612, Tempo, 392927
1, 159612, Note_on_c, 0, 72, 0
1, 159612, Note_on_c, 0, 60, 0
1, 159720, Note_on_c, 0, 75, 78
1, 159720, Note_on_c, 0, 63, 62
1, 159732, Note_on_c, 0, 73, 0
1, 159732, Note_on_c, 0, 61, 0
1, 159792, Tempo, 391645
1, 159837, Tempo, 389105
1, 159840, Note_on_c, 0, 77, 79
1, 159840, Note_on_c, 0, 65, 63
1, 159852, Note_on_c, 0, 75, 0
1, 159852, Note_on_c, 0, 63, 0
1, 159957, Tempo, 390371
1, 159960, Note_on_c, 0, 75, 79
1, 159960, Note_on_c, 0, 63, 63
1, 159972, Note_on_c, 0, 77, 0
1, 159972, Note_on_c, 0, 65, 0
1, 160077, Tempo, 391645
1, 160080, Note_on_c, 0, 73, 77
1, 160080, Note_on_c, 0, 61, 61
1, 160092, Note_on_c, 0, 75, 0
1, 160092, Note_on_c, 0, 63, 0
1, 160197, Tempo, 392927
1, 160200, Note_on_c, 0, 72, 75
1, 160200, Note_on_c, 0, 60, 60
1, 160212, Note_on_c, 0, 73, 0
1, 160212, Note_on_c, 0, 61, 0
1, 160317, Tempo, 394218
1, 160320, Note_on_c, 0, 70, 73
1, 160320, Note_on_c, 0, 58, 58
1, 160332, Note_on_c, 0, 72, 0
1, 160332, Note_on_c, 0, 60, 0
1, 160437, Tempo, 395517
1, 160440, Note_on_c, 0, 68, 71
1, 160440, Note_on_c, 0, 56, 56
1, 160452, Note_on_c, 0, 70, 0
1, 160452, Note_on_c, 0, 58, 0
1, 160557, Tempo, 396825
1, 160560, Note_on_c, 0, 67, 69
1, 160560, Note_on_c, 0, 55, 55
1, 160572, Note_on_c, 0, 68, 0
1, 160572, Note_on_c, 0, 56, 0
1, 160677, Tempo, 398142
1, 160680, Note_on_c, 0, 65, 67
1, 160680, Note_on_c, 0, 53, 53
1, 160692, Note_on_c, 0, 67, 0
1, 160692, Note_on_c, 0, 55, 0
1, 160797, Tempo, 399467
1, 160800, Note_on_c, 0, 63, 65
1, 160800, Note_on_c, 0, 51, 52
1, 160812, Tempo, 398142
1, 160812, Note_on_c, 0, 65, 0
1, 160812, Note_on_c, 0, 53, 0
1, 160842, Tempo, 399467
1, 160872, Tempo, 400802
1, 160902, Tempo, 402145
1, 160920, Note_on_c, 0, 61, 63
1, 160920, Note_on_c, 0, 49, 50
1, 160932, Tempo, 403497
1, 160932, Note_on_c, 0, 63, 0
1, 160932, Note_on_c, 0, 51, 0
1, 160962, Tempo, 404858
1, 160992, Tempo, 406229
1, 161022, Tempo, 407609
1, 161040, Note_on_c, 0, 60, 61
1, 161040, Note_on_c, 0, 48, 48
1, 161052, Tempo, 408998
1, 161052, Note_on_c, 0, 61, 0
1, 161052, Note_on_c, 0, 49, 0
1, 161082, Tempo, 410397
1, 161112, Tempo, 411805
1, 161142, Tempo, 413223
1, 161160, Note_on_c, 0, 58, 59
1, 161160, Note_on_c, 0, 46, 47
1, 161172, Tempo, 414651
1, 161172, Note_on_c, 0, 60, 0
1, 161172, Note_on_c, 0, 48, 0
1, 161202, Tempo, 416089
1, 161232, Tempo, 417537
1, 161262, Tempo, 418994
1, 161280, Note_on_c, 0, 56, 62
1, 161280, Note_on_c, 0, 44, 49
1, 161292, Note_on_c, 0, 58, 0
1, 161292, Note_on_c, 0, 46, 0
1, 161520, Tempo, 418965
1, 161520, Note_on_c, 0, 56, 0
1, 161520, Note_on_c, 0, 44, 0
1, 161520, Note_on_c, 0, 68, 49
1, 161520, Note_on_c, 0, 56, 39
1, 161640, Note_on_c, 0, 72, 43
1, 161640, Note_on_c, 0, 60, 34
1, 161652, Note_on_c, 0, 56, 0
1, 161652, Note_on_c, 0, 68, 0
1, 161760, Note_on_c, 0, 75, 49
1, 161760, Note_on_c, 0, 63, 39
1, 161772, Note_on_c, 0, 72, 0
1, 161772, Note_on_c, 0, 60, 0
1, 161787, Tempo, 413223
1, 161817, Tempo, 411805
1, 161847, Tempo, 410397
1, 161862, Tempo, 408998
1, 161880, Note_on_c, 0, 73, 47
1, 161880, Note_on_c, 0, 61, 37
1, 161892, Tempo, 407609
1, 161892, Note_on_c, 0, 75, 0
1, 161892, Note_on_c, 0, 63, 0
1, 161907, Tempo, 406229
1, 161937, Tempo, 404858
1, 161952, Tempo, 403497
1, 161982, Tempo, 402145
1, 161997, Tempo, 398142
1, 162000, Note_on_c, 0, 72, 47
1, 162000, Note_on_c, 0, 60, 37
1, 162012, Note_on_c, 0, 73, 0
1, 162012, Note_on_c, 0, 61, 0
1, 162120, Note_on_c, 0, 70, 46
1, 162120, Note_on_c, 0, 58, 37
1, 162132, Note_on_c, 0, 72, 0
1, 162132, Note_on_c, 0, 60, 0
1, 162207, Tempo, 399467
1, 162240, Note_on_c, 0, 68, 46
1, 162240, Note_on_c, 0, 56, 36
1, 162252, Note_on_c, 0, 70, 0
1, 162252, Note_on_c, 0, 58, 0
1, 162360, Note_on_c, 0, 67, 45
1, 162360, Note_on_c, 0, 55, 36
1, 162372, Note_on_c, 0, 68, 0
1, 162372, Note_on_c, 0, 56, 0
1, 162402, Tempo, 400802
1, 162480, Note_on_c, 0, 65, 44
1, 162480, Note_on_c, 0, 53, 35
1, 162492, Note_on_c, 0, 67, 0
1, 162492, Note_on_c, 0, 55, 0
1, 162600, Note_on_c, 0, 63, 44
1, 162600, Note_on_c, 0, 51, 35
1, 162612, Tempo, 402145
1, 162612, Note_on_c, 0, 65, 0
1, 162612, Note_on_c, 0, 53, 0
1, 162720, Note_on_c, 0, 61, 43
1, 162720, Note_on_c, 0, 49, 34
1, 162732, Note_on_c, 0, 63, 0
1, 162732, Note_on_c, 0, 51, 0
1, 162807, Tempo, 403497
1, 162840, Note_on_c, 0, 60, 42
1, 162840, Note_on_c, 0, 48, 33
1, 162852, Note_on_c, 0, 61, 0
1, 162852, Note_on_c, 0, 49, 0
1, 162960, Note_on_c, 0, 58, 42
1, 162960, Note_on_c, 0, 46, 33
1, 162972, Note_on_c, 0, 60, 0
1, 162972, Note_on_c, 0, 48, 0
1, 163017, Tempo, 404858
1, 163080, Note_on_c, 0, 56, 41
1, 163080, Note_on_c, 0, 44, 32
1, 163092, Note_on_c, 0, 58, 0
1, 163092, Note_on_c, 0, 46, 0
1, 163200, Note_on_c, 0, 55, 40
1, 163200, Note_on_c, 0, 43, 32
1, 163212, Tempo, 406229
1, 163212, Note_on_c, 0, 56, 0
1, 163212, Note_on_c, 0, 44, 0
1, 163227, Tempo, 407609
1, 163320, Note_on_c, 0, 56, 39
1, 163320, Note_on_c, 0, 44, 31
1, 163332, Note_on_c, 0, 55, 0
1, 163332, Note_on_c, 0, 43, 0
1, 163422, Tempo, 406229
1, 163440, Note_on_c, 0, 58, 39
1, 163440, Note_on_c, 0, 46, 30
1, 163452, Note_on_c, 0, 56, 0
1, 163452, Note_on_c, 0, 44, 0
1, 163560, Note_on_c, 0, 60, 40
1, 163560, Note_on_c, 0, 48, 32
1, 163572, Note_on_c, 0, 58, 0
1, 163572, Note_on_c, 0, 46, 0
1, 163617, Tempo, 404858
1, 163680, Note_on_c, 0, 61, 41
1, 163680, Note_on_c, 0, 49, 32
1, 163692, Note_on_c, 0, 60, 0
1, 163692, Note_on_c, 0, 48, 0
1, 163800, Note_on_c, 0, 63, 42
1, 163800, Note_on_c, 0, 51, 33
1, 163812, Tempo, 403497
1, 163812, Note_on_c, 0, 61, 0
1, 163812, Note_on_c, 0, 49, 0
1, 163920, Note_on_c, 0, 65, 42
1, 163920, Note_on_c, 0, 53, 33
1, 163932, Note_on_c, 0, 63, 0
1, 163932, Note_on_c, 0, 51, 0
1, 164007, Tempo, 402145
1, 164040, Note_on_c, 0, 67, 43
1, 164040, Note_on_c, 0, 55, 34
1, 164052, Note_on_c, 0, 65, 0
1, 164052, Note_on_c, 0, 53, 0
1, 164160, Note_on_c, 0, 68, 44
1, 164160, Note_on_c, 0, 56, 35
1, 164172, Note_on_c, 0, 67, 0
1, 164172, Note_on_c, 0, 55, 0
1, 164202, Tempo, 400802
1, 164280, Note_on_c, 0, 70, 44
1, 164280, Note_on_c, 0, 58, 35
1, 164292, Note_on_c, 0, 68, 0
1, 164292, Note_on_c, 0, 56, 0
1, 164397, Tempo, 399467
1, 164400, Note_on_c, 0, 72, 45
1, 164400, Note_on_c, 0, 60, 36
1, 164412, Note_on_c, 0, 70, 0
1, 164412, Note_on_c, 0, 58, 0
1, 164520, Note_on_c, 0, 73, 46
1, 164520, Note_on_c, 0, 61, 36
1, 164532, Note_on_c, 0, 72, 0
1, 164532, Note_on_c, 0, 60, 0
1, 164592, Tempo, 398142
1, 164640, Note_on_c, 0, 75, 46
1, 164640, Note_on_c, 0, 63, 37
1, 164652, Note_on_c, 0, 73, 0
1, 164652, Note_on_c, 0, 61, 0
1, 164760, Note_on_c, 0, 77, 47
1, 164760, Note_on_c, 0, 65, 37
1, 164772, Note_on_c, 0, 75, 0
1, 164772, Note_on_c, 0, 63, 0
1, 164787, Tempo, 396825
1, 164880, Note_on_c, 0, 79, 49
1, 164880, Note_on_c, 0, 67, 39
1, 164892, Note_on_c, 0, 77, 0
1, 164892, Note_on_c, 0, 65, 0
1, 164982, Tempo, 395517
1, 165000, Note_on_c, 0, 80, 49
1, 165000, Note_on_c, 0, 68, 39
1, 165012, Note_on_c, 0, 79, 0
1, 165012, Note_on_c, 0, 67, 0
1, 165120, Note_on_c, 0, 82, 51
1, 165120, Note_on_c, 0, 70, 40
1, 165132, Note_on_c, 0, 80, 0
1, 165132, Note_on_c, 0, 68, 0
1, 165177, Tempo, 394218
1, 165240, Note_on_c, 0, 84, 51
1, 165240, Note_on_c, 0, 72, 41
1, 165252, Note_on_c, 0, 82, 0
1, 165252, Note_on_c, 0, 70, 0
1, 165360, Note_on_c, 0, 85, 53
1, 165360, Note_on_c, 0, 73, 42
1, 165372, Tempo, 392927
1, 165372, Note_on_c, 0, 84, 0
1, 165372, Note_on_c, 0, 72, 0
1, 165480, Note_on_c, 0, 87, 54
1, 165480, Note_on_c, 0, 75, 43
1, 165492, Note_on_c, 0, 85, 0
1, 165492, Note_on_c, 0, 73, 0
1, 165552, Tempo, 391645
1, 165597, Tempo, 389105
1, 165600, Note_on_c, 0, 89, 55
1, 165600, Note_on_c, 0, 77, 44
1, 165612, Note_on_c, 0, 87, 0
1, 165612, Note_on_c, 0, 75, 0
1, 165717, Tempo, 390371
1, 165720, Note_on_c, 0, 87, 55
1, 165720, Note_on_c, 0, 75, 44
1, 165732, Note_on_c, 0, 89, 0
1, 165732, Note_on_c, 0, 77, 0
1, 165837, Tempo, 391645
1, 165840, Note_on_c, 0, 85, 53
1, 165840, Note_on_c, 0, 73, 42
1, 165852, Note_on_c, 0, 87, 0
1, 165852, Note_on_c, 0, 75, 0
1, 165957, Tempo, 392927
1, 165960, Note_on_c, 0, 84, 52
1, 165960, Note_on_c, 0, 72, 42
1, 165972, Note_on_c, 0, 85, 0
1, 165972, Note_on_c, 0, 73, 0
1, 166077, Tempo, 394218
1, 166080, Note_on_c, 0, 82, 51
1, 166080, Note_on_c, 0, 70, 40
1, 166092, Note_on_c, 0, 84, 0
1, 166092, Note_on_c, 0, 72, 0
1, 166197, Tempo, 395517
1, 166200, Note_on_c, 0, 80, 49
1, 166200, Note_on_c, 0, 68, 39
1, 166212, Note_on_c, 0, 82, 0
1, 166212, Note_on_c, 0, 70, 0
1, 166317, Tempo, 396825
1, 166320, Note_on_c, 0, 79, 48
1, 166320, Note_on_c, 0, 67, 38
1, 166332, Note_on_c, 0, 80, 0
1, 166332, Note_on_c, 0, 68, 0
1, 166437, Tempo, 398142
1, 166440, Note_on_c, 0, 77, 46
1, 166440, Note_on_c, 0, 65, 37
1, 166452, Note_on_c, 0, 79, 0
1, 166452, Note_on_c, 0, 67, 0
1, 166557, Tempo, 399467
1, 166560, Note_on_c, 0, 75, 45
1, 166560, Note_on_c, 0, 63, 36
1, 166572, Tempo, 398142
1, 166572, Note_on_c, 0, 77, 0
1, 166572, Note_on_c, 0, 65, 0
1, 166602, Tempo, 399467
1, 166632, Tempo, 400802
1, 166662, Tempo, 402145
1, 166680, Note_on_c, 0, 73, 44
1, 166680, Note_on_c, 0, 61, 35
1, 166692, Tempo, 403497
1, 166692, Note_on_c, 0, 75, 0
1, 166692, Note_on_c, 0, 63, 0
1, 166722, Tempo, 404858
1, 166752, Tempo, 406229
1, 166782, Tempo, 407609
1, 166800, Note_on_c, 0, 72, 42
1, 166800, Note_on_c, 0, 60, 33
1, 166812, Tempo, 408998
1, 166812, Note_on_c, 0, 73, 0
1, 166812, Note_on_c, 0, 61, 0
1, 166842, Tempo, 410397
1, 166872, Tempo, 411805
1, 166902, Tempo, 413223
1, 166920, Note_on_c, 0, 70, 41
1, 166920, Note_on_c, 0, 58, 32
1, 166932, Tempo, 414651
1, 166932, Note_on_c, 0, 72, 0
1, 166932, Note_on_c, 0, 60, 0
1, 166962, Tempo, 416089
1, 166992, Tempo, 417537
1, 167022, Tempo, 418994
1, 167040, Note_on_c, 0, 68, 43
1, 167040, Note_on_c, 0, 56, 34
1, 167052, Note_on_c, 0, 70, 0
1, 167052, Note_on_c, 0, 58, 0
1, 167280, Tempo, 418965
1, 167280, Note_on_c, 0, 68, 0
1, 167280, Note_on_c, 0, 56, 0
1, 167280, Note_on_c, 0, 68, 70
1, 167280, Note_on_c, 0, 56, 56
1, 167400, Note_on_c, 0, 71, 62
1, 167400, Note_on_c, 0, 59, 49
1, 167412, Note_on_c, 0, 56, 0
1, 167412, Note_on_c, 0, 68, 0
1, 167520, Note_on_c, 0, 75, 70
1, 167520, Note_on_c, 0, 63, 56
1, 167532, Note_on_c, 0, 71, 0
1, 167532, Note_on_c, 0, 59, 0
1, 167547, Tempo, 413223
1, 167577, Tempo, 411805
1, 167607, Tempo, 410397
1, 167622, Tempo, 408998
1, 167640, Note_on_c, 0, 73, 68
1, 167640, Note_on_c, 0, 61, 54
1, 167652, Tempo, 407609
1, 167652, Note_on_c, 0, 75, 0
1, 167652, Note_on_c, 0, 63, 0
1, 167667, Tempo, 406229
1, 167697, Tempo, 404858
1, 167712, Tempo, 403497
1, 167742, Tempo, 402145
1, 167757, Tempo, 398142
1, 167760, Note_on_c, 0, 71, 68
1, 167760, Note_on_c, 0, 59, 54
1, 167772, Note_on_c, 0, 73, 0
1, 167772, Note_on_c, 0, 61, 0
1, 167880, Note_on_c, 0, 70, 67
1, 167880, Note_on_c, 0, 58, 53
1, 167892, Note_on_c, 0, 71, 0
1, 167892, Note_on_c, 0, 59, 0
1, 167967, Tempo, 399467
1, 168000, Note_on_c, 0, 68, 66
1, 168000, Note_on_c, 0, 56, 52
1, 168012, Note_on_c, 0, 70, 0
1, 168012, Note_on_c, 0, 58, 0
1, 168120, Note_on_c, 0, 66, 65
1, 168120, Note_on_c, 0, 54, 52
1, 168132, Note_on_c, 0, 68, 0
1, 168132, Note_on_c, 0, 56, 0
1, 168162, Tempo, 400802
1, 168240, Note_on_c, 0, 64, 64
1, 168240, Note_on_c, 0, 52, 51
1, 168252, Note_on_c, 0, 66, 0
1, 168252, Note_on_c, 0, 54, 0
1, 168360, Note_on_c, 0, 63, 63
1, 168360, Note_on_c, 0, 51, 50
1, 168372, Tempo, 402145
1, 168372, Note_on_c, 0, 64, 0
1, 168372, Note_on_c, 0, 52, 0
1, 168480, Note_on_c, 0, 61, 62
1, 168480, Note_on_c, 0, 49, 49
1, 168492, Note_on_c, 0, 63, 0
1, 168492, Note_on_c, 0, 51, 0
1, 168567, Tempo, 403497
1, 168600, Note_on_c, 0, 59, 61
1, 168600, Note_on_c, 0, 47, 48
1, 168612, Note_on_c, 0, 61, 0
1, 168612, Note_on_c, 0, 49, 0
1, 168720, Note_on_c, 0, 58, 60
1, 168720, Note_on_c, 0, 46, 48
1, 168732, Note_on_c, 0, 59, 0
1, 168732, Note_on_c, 0, 47, 0
1, 168777, Tempo, 404858
1, 168840, Note_on_c, 0, 56, 59
1, 168840, Note_on_c, 0, 44, 47
1, 168852, Note_on_c, 0, 58, 0
1, 168852, Note_on_c, 0, 46, 0
1, 168960, Note_on_c, 0, 55, 58
1, 168960, Note_on_c, 0, 43, 46
1, 168972, Tempo, 406229
1, 168972, Note_on_c, 0, 56, 0
1, 168972, Note_on_c, 0, 44, 0
1, 168987, Tempo, 407609
1, 169080, Note_on_c, 0, 56, 57
1, 169080, Note_on_c, 0, 44, 45
1, 169092, Note_on_c, 0, 55, 0
1, 169092, Note_on_c, 0, 43, 0
1, 169182, Tempo, 406229
1, 169200, Note_on_c, 0, 58, 56
1, 169200, Note_on_c, 0, 46, 44
1, 169212, Note_on_c, 0, 56, 0
1, 169212, Note_on_c, 0, 44, 0
1, 169320, Note_on_c, 0, 59, 58
1, 169320, Note_on_c, 0, 47, 46
1, 169332, Note_on_c, 0, 58, 0
1, 169332, Note_on_c, 0, 46, 0
1, 169377, Tempo, 404858
1, 169440, Note_on_c, 0, 61, 59
1, 169440, Note_on_c, 0, 49, 47
1, 169452, Note_on_c, 0, 59, 0
1, 169452, Note_on_c, 0, 47, 0
1, 169560, Note_on_c, 0, 63, 60
1, 169560, Note_on_c, 0, 51, 48
1, 169572, Tempo, 403497
1, 169572, Note_on_c, 0, 61, 0
1, 169572, Note_on_c, 0, 49, 0
1, 169680, Note_on_c, 0, 65, 61
1, 169680, Note_on_c, 0, 53, 48
1, 169692, Note_on_c, 0, 63, 0
1, 169692, Note_on_c, 0, 51, 0
1, 169767, Tempo, 402145
1, 169800, Note_on_c, 0, 67, 62
1, 169800, Note_on_c, 0, 55, 49
1, 169812, Note_on_c, 0, 65, 0
1, 169812, Note_on_c, 0, 53, 0
1, 169920, Note_on_c, 0, 68, 63
1, 169920, Note_on_c, 0, 56, 50
1, 169932, Note_on_c, 0, 67, 0
1, 169932, Note_on_c, 0, 55, 0
1, 169962, Tempo, 400802
1, 170040, Note_on_c, 0, 70, 65
1, 170040, Note_on_c, 0, 58, 55
1, 170052, Note_on_c, 0, 68, 0
1, 170052, Note_on_c, 0, 56, 0
1, 170157, Tempo, 399467
1, 170160, Note_on_c, 0, 71, 67
1, 170160, Note_on_c, 0, 59, 56
1, 170172, Note_on_c, 0, 70, 0
1, 170172, Note_on_c, 0, 58, 0
1, 170280, Note_on_c, 0, 73, 68
1, 170280, Note_on_c, 0, 61, 57
1, 170292, Note_on_c, 0, 71, 0
1, 170292, Note_on_c, 0, 59, 0
1, 170352, Tempo, 398142
1, 170400, Note_on_c, 0, 75, 70
1, 170400, Note_on_c, 0, 63, 59
1, 170412, Note_on_c, 0, 73, 0
1, 170412, Note_on_c, 0, 61, 0
1, 170520, Note_on_c, 0, 77, 72
1, 170520, Note_on_c, 0, 65, 60
1, 170532, Note_on_c, 0, 75, 0
1, 170532, Note_on_c, 0, 63, 0
1, 170547, Tempo, 396825
1, 170640, Note_on_c, 0, 79, 74
1, 170640, Note_on_c, 0, 67, 62
1, 170652, Note_on_c, 0, 77, 0
1, 170652, Note_on_c, 0, 65, 0
1, 170742, Tempo, 395517
1, 170760, Note_on_c, 0, 80, 76
1, 170760, Note_on_c, 0, 68, 60
1, 170772, Note_on_c, 0, 79, 0
1, 170772, Note_on_c, 0, 67, 0
1, 170880, Note_on_c, 0, 82, 78
1, 170880, Note_on_c, 0, 70, 63
1, 170892, Note_on_c, 0, 80, 0
1, 170892, Note_on_c, 0, 68, 0
1, 170937, Tempo, 394218
1, 171000, Note_on_c, 0, 83, 80
1, 171000, Note_on_c, 0, 71, 65
1, 171012, Note_on_c, 0, 82, 0
1, 171012, Note_on_c, 0, 70, 0
1, 171120, Note_on_c, 0, 85, 83
1, 171120, Note_on_c, 0, 73, 68
1, 171132, Tempo, 392927
1, 171132, Note_on_c, 0, 83, 0
1, 171132, Note_on_c, 0, 71, 0
1, 171240, Note_on_c, 0, 87, 85
1, 171240, Note_on_c, 0, 75, 71
1, 171252, Note_on_c, 0, 85, 0
1, 171252, Note_on_c, 0, 73, 0
1, 171312, Tempo, 391645
1, 171357, Tempo, 389105
1, 171360, Note_on_c, 0, 88, 90
1, 171360, Note_on_c, 0, 76, 73
1, 171372, Note_on_c, 0, 87, 0
1, 171372, Note_on_c, 0, 75, 0
1, 171477, Tempo, 390371
1, 171480, Note_on_c, 0, 86, 89
1, 171480, Note_on_c, 0, 74, 74
1, 171492, Note_on_c, 0, 88, 0
1, 171492, Note_on_c, 0, 76, 0
1, 171597, Tempo, 391645
1, 171600, Note_on_c, 0, 85, 88
1, 171600, Note_on_c, 0, 73, 73
1, 171612, Note_on_c, 0, 86, 0
1, 171612, Note_on_c, 0, 74, 0
1, 171717, Tempo, 392927
1, 171720, Note_on_c, 0, 83, 86
1, 171720, Note_on_c, 0, 71, 72
1, 171732, Note_on_c, 0, 85, 0
1, 171732, Note_on_c, 0, 73, 0
1, 171837, Tempo, 394218
1, 171840, Note_on_c, 0, 81, 85
1, 171840, Note_on_c, 0, 69, 70
1, 171852, Note_on_c, 0, 83, 0
1, 171852, Note_on_c, 0, 71, 0
1, 171957, Tempo, 395517
1, 171960, Note_on_c, 0, 80, 83
1, 171960, Note_on_c, 0, 68, 69
1, 171972, Note_on_c, 0, 81, 0
1, 171972, Note_on_c, 0, 69, 0
1, 172077, Tempo, 396825
1, 172080, Note_on_c, 0, 78, 82
1, 172080, Note_on_c, 0, 66, 68
1, 172092, Note_on_c, 0, 80, 0
1, 172092, Note_on_c, 0, 68, 0
1, 172197, Tempo, 398142
1, 172200, Note_on_c, 0, 76, 81
1, 172200, Note_on_c, 0, 64, 66
1, 172212, Note_on_c, 0, 78, 0
1, 172212, Note_on_c, 0, 66, 0
1, 172317, Tempo, 399467
1, 172320, Note_on_c, 0, 74, 79
1, 172320, Note_on_c, 0, 62, 65
1, 172332, Tempo, 398142
1, 172332, Note_on_c, 0, 76, 0
1, 172332, Note_on_c, 0, 64, 0
1, 172362, Tempo, 399467
1, 172392, Tempo, 400802
1, 172422, Tempo, 402145
1, 172440, Note_on_c, 0, 73, 78
1, 172440, Note_on_c, 0, 61, 64
1, 172452, Tempo, 403497
1, 172452, Note_on_c, 0, 74, 0
1, 172452, Note_on_c, 0, 62, 0
1, 172482, Tempo, 404858
1, 172512, Tempo, 406229
1, 172542, Tempo, 407609
1, 172560, Note_on_c, 0, 71, 76
1, 172560, Note_on_c, 0, 59, 62
1, 172572, Tempo, 408998
1, 172572, Note_on_c, 0, 73, 0
1, 172572, Note_on_c, 0, 61, 0
1, 172602, Tempo, 410397
1, 172632, Tempo, 411805
1, 172662, Tempo, 413223
1, 172680, Note_on_c, 0, 69, 75
1, 172680, Note_on_c, 0, 57, 61
1, 172692, Tempo, 414651
1, 172692, Note_on_c, 0, 71, 0
1, 172692, Note_on_c, 0, 59, 0
1, 172722, Tempo, 416089
1, 172752, Tempo, 417537
1, 172782, Tempo, 418994
1, 172800, Tempo, 396825
1, 172800, Note_on_c, 0, 68, 74
1, 172800, Note_on_c, 0, 56, 60
1, 172812, Note_on_c, 0, 69, 0
1, 172812, Note_on_c, 0, 57, 0
1, 172917, Tempo, 398142
1, 172920, Note_on_c, 0, 66, 72
1, 172920, Note_on_c, 0, 54, 58
1, 172932, Note_on_c, 0, 68, 0
1, 172932, Note_on_c, 0, 56, 0
1, 173037, Tempo, 399467
1, 173040, Note_on_c, 0, 64, 71
1, 173040, Note_on_c, 0, 52, 57
1, 173052, Tempo, 398142
1, 173052, Note_on_c, 0, 66, 0
1, 173052, Note_on_c, 0, 54, 0
1, 173082, Tempo, 399467
1, 173112, Tempo, 400802
1, 173142, Tempo, 402145
1, 173160, Note_on_c, 0, 62, 69
1, 173160, Note_on_c, 0, 50, 56
1, 173172, Tempo, 403497
1, 173172, Note_on_c, 0, 64, 0
1, 173172, Note_on_c, 0, 52, 0
1, 173202, Tempo, 404858
1, 173232, Tempo, 406229
1, 173262, Tempo, 407609
1, 173280, Note_on_c, 0, 61, 68
1, 173280, Note_on_c, 0, 49, 54
1, 173292, Tempo, 408998
1, 173292, Note_on_c, 0, 62, 0
1, 173292, Note_on_c, 0, 50, 0
1, 173322, Tempo, 410397
1, 173352, Tempo, 411805
1, 173382, Tempo, 413223
1, 173400, Note_on_c, 0, 59, 67
1, 173400, Note_on_c, 0, 47, 53
1, 173412, Tempo, 414651
1, 173412, Note_on_c, 0, 61, 0
1, 173412, Note_on_c, 0, 49, 0
1, 173442, Tempo, 416089
1, 173472, Tempo, 417537
1, 173502, Tempo, 418994
1, 173520, Tempo, 396825
1, 173520, Note_on_c, 0, 57, 69
1, 173520, Note_on_c, 0, 45, 58
1, 173532, Note_on_c, 0, 59, 0
1, 173532, Note_on_c, 0, 47, 0
1, 173637, Tempo, 398142
1, 173640, Note_on_c, 0, 56, 71
1, 173640, Note_on_c, 0, 44, 60
1, 173652, Note_on_c, 0, 57, 0
1, 173652, Note_on_c, 0, 45, 0
1, 173757, Tempo, 399467
1, 173760, Note_on_c, 0, 54, 73
1, 173760, Note_on_c, 0, 42, 62
1, 173772, Tempo, 398142
1, 173772, Note_on_c, 0, 56, 0
1, 173772, Note_on_c, 0, 44, 0
1, 173802, Tempo, 399467
1, 173832, Tempo, 400802
1, 173862, Tempo, 402145
1, 173880, Note_on_c, 0, 52, 75
1, 173880, Note_on_c, 0, 40, 64
1, 173892, Tempo, 403497
1, 173892, Note_on_c, 0, 54, 0
1, 173892, Note_on_c, 0, 42, 0
1, 173922, Tempo, 404858
1, 173952, Tempo, 406229
1, 173982, Tempo, 407609
1, 174000, Note_on_c, 0, 50, 77
1, 174000, Note_on_c, 0, 38, 66
1, 174012, Tempo, 408998
1, 174012, Note_on_c, 0, 52, 0
1, 174012, Note_on_c, 0, 40, 0
1, 174042, Tempo, 410397
1, 174072, Tempo, 411805
1, 174081, Note_on_c, 0, 49, 78
1, 174081, Note_on_c, 0, 37, 67
1, 174089, Note_on_c, 0, 50, 0
1, 174089, Note_on_c, 0, 38, 0
1, 174102, Tempo, 413223
1, 174132, Tempo, 414651
1, 174160, Note_on_c, 0, 47, 79
1, 174160, Note_on_c, 0, 35, 68
1, 174162, Tempo, 416089
1, 174169, Note_on_c, 0, 49, 0
1, 174169, Note_on_c, 0, 37, 0
1, 174192, Tempo, 417537
1, 174222, Tempo, 418994
1, 174240, Tempo, 386648
1, 174240, Note_on_c, 0, 47, 0
1, 174240, Note_on_c, 0, 35, 0
1, 174240, Note_on_c, 0, 45, 78
1, 174240, Note_on_c, 0, 33, 66
1, 174343, Control_c, 0, 64, 127
1, 174360, Note_on_c, 0, 45, 0
1, 174360, Note_on_c, 0, 49, 67
1, 174480, Note_on_c, 0, 49, 0
1, 174480, Note_on_c, 0, 45, 78
1, 174600, Tempo, 402199
1, 174600, Note_on_c, 0, 45, 0
1, 174600, Note_on_c, 0, 49, 65
1, 174720, Tempo, 418994
1, 174720, Note_on_c, 0, 49, 0
1, 174720, Note_on_c, 0, 52, 73
1, 174960, Tempo, 386648
1, 174960, Note_on_c, 0, 52, 0
1, 174960, Note_on_c, 0, 33, 0
1, 174960, Note_on_c, 0, 49, 62
1, 174960, Note_on_c, 0, 33, 56
1, 174960, Note_on_c, 0, 45, 66
1, 174971, Control_c, 0, 64, 0
1, 175052, Control_c, 0, 64, 127
1, 175080, Note_on_c, 0, 49, 0
1, 175080, Note_on_c, 0, 52, 53
1, 175200, Note_on_c, 0, 52, 0
1, 175200, Note_on_c, 0, 49, 62
1, 175320, Tempo, 402199
1, 175320, Note_on_c, 0, 49, 0
1, 175320, Note_on_c, 0, 52, 52
1, 175440, Tempo, 417537
1, 175440, Note_on_c, 0, 52, 0
1, 175440, Note_on_c, 0, 57, 58
1, 175680, Tempo, 386648
1, 175680, Note_on_c, 0, 57, 0
1, 175680, Note_on_c, 0, 45, 0
1, 175680, Note_on_c, 0, 33, 0
1, 175680, Note_on_c, 0, 52, 62
1, 175680, Note_on_c, 0, 45, 62
1, 175680, Note_on_c, 0, 33, 52
1, 175688, Control_c, 0, 64, 0
1, 175789, Control_c, 0, 64, 127
1, 175800, Note_on_c, 0, 52, 0
1, 175800, Note_on_c, 0, 57, 53
1, 175920, Note_on_c, 0, 57, 0
1, 175920, Note_on_c, 0, 52, 62
1, 176040, Tempo, 402199
1, 176040, Note_on_c, 0, 52, 0
1, 176040, Note_on_c, 0, 57, 52
1, 176160, Tempo, 413223
1, 176160, Note_on_c, 0, 57, 0
1, 176160, Note_on_c, 0, 61, 58
1, 176400, Tempo, 386648
1, 176400, Note_on_c, 0, 61, 0
1, 176400, Note_on_c, 0, 33, 0
1, 176400, Note_on_c, 0, 45, 0
1, 176400, Note_on_c, 0, 57, 62
1, 176400, Note_on_c, 0, 45, 62
1, 176400, Note_on_c, 0, 33, 52
1, 176408, Control_c, 0, 64, 0
1, 176497, Control_c, 0, 64, 127
1, 176520, Note_on_c, 0, 57, 0
1, 176520, Note_on_c, 0, 61, 53
1, 176640, Note_on_c, 0, 61, 0
1, 176640, Note_on_c, 0, 57, 62
1, 176760, Tempo, 402199
1, 176760, Note_on_c, 0, 57, 0
1, 176760, Note_on_c, 0, 61, 52
1, 176880, Tempo, 410397
1, 176880, Note_on_c, 0, 61, 0
1, 176880, Note_on_c, 0, 64, 58
1, 176940, Tempo, 408998
1, 177120, Tempo, 386648
1, 177120, Note_on_c, 0, 64, 0
1, 177120, Note_on_c, 0, 33, 0
1, 177120, Note_on_c, 0, 45, 0
1, 177120, Note_on_c, 0, 61, 62
1, 177120, Note_on_c, 0, 33, 54
1, 177120, Note_on_c, 0, 45, 64
1, 177120, Control_c, 0, 64, 0
1, 177206, Control_c, 0, 64, 127
1, 177240, Note_on_c, 0, 61, 0
1, 177240, Note_on_c, 0, 64, 53
1, 177360, Note_on_c, 0, 64, 0
1, 177360, Note_on_c, 0, 61, 62
1, 177480, Tempo, 402199
1, 177480, Note_on_c, 0, 61, 0
1, 177480, Note_on_c, 0, 64, 52
1, 177600, Tempo, 410397
1, 177600, Note_on_c, 0, 64, 0
1, 177600, Note_on_c, 0, 69, 58
1, 177840, Tempo, 386648
1, 177840, Note_on_c, 0, 69, 0
1, 177840, Note_on_c, 0, 45, 0
1, 177840, Note_on_c, 0, 33, 0
1, 177840, Note_on_c, 0, 64, 62
1, 177840, Note_on_c, 0, 49, 54
1, 177840, Note_on_c, 0, 52, 64
1, 177840, Note_on_c, 0, 45, 54
1, 177848, Control_c, 0, 64, 0
1, 177926, Control_c, 0, 64, 127
1, 177960, Note_on_c, 0, 64, 0
1, 177960, Note_on_c, 0, 69, 53
1, 178080, Note_on_c, 0, 69, 0
1, 178080, Note_on_c, 0, 64, 62
1, 178200, Tempo, 402199
1, 178200, Note_on_c, 0, 64, 0
1, 178200, Note_on_c, 0, 69, 52
1, 178320, Tempo, 414651
1, 178320, Note_on_c, 0, 69, 0
1, 178320, Note_on_c, 0, 73, 58
1, 178560, Tempo, 386648
1, 178560, Note_on_c, 0, 73, 0
1, 178560, Note_on_c, 0, 49, 0
1, 178560, Note_on_c, 0, 52, 0
1, 178560, Note_on_c, 0, 45, 0
1, 178560, Note_on_c, 0, 69, 58
1, 178560, Note_on_c, 0, 57, 64
1, 178560, Note_on_c, 0, 52, 54
1, 178560, Note_on_c, 0, 49, 54
1, 178560, Note_on_c, 0, 45, 54
1, 178570, Control_c, 0, 64, 0
1, 178680, Note_on_c, 0, 69, 0
1, 178680, Note_on_c, 0, 73, 46
1, 178680, Control_c, 0, 64, 127
1, 178800, Note_on_c, 0, 73, 0
1, 178800, Note_on_c, 0, 69, 56
1, 178920, Tempo, 402199
1, 178920, Note_on_c, 0, 69, 0
1, 178920, Note_on_c, 0, 73, 45
1, 179040, Tempo, 414651
1, 179040, Note_on_c, 0, 73, 0
1, 179040, Note_on_c, 0, 76, 58
1, 179160, Tempo, 431034
1, 179280, Tempo, 386648
1, 179280, Note_on_c, 0, 76, 0
1, 179280, Note_on_c, 0, 49, 0
1, 179280, Note_on_c, 0, 57, 0
1, 179280, Note_on_c, 0, 52, 0
1, 179280, Note_on_c, 0, 45, 0
1, 179280, Note_on_c, 0, 71, 49
1, 179280, Note_on_c, 0, 52, 43
1, 179280, Note_on_c, 0, 56, 43
1, 179280, Note_on_c, 0, 59, 51
1, 179290, Control_c, 0, 64, 0
1, 179400, Note_on_c, 0, 71, 0
1, 179400, Note_on_c, 0, 74, 42
1, 179400, Control_c, 0, 64, 127
1, 179520, Note_on_c, 0, 74, 0
1, 179520, Note_on_c, 0, 71, 49
1, 179640, Tempo, 395517
1, 179640, Note_on_c, 0, 71, 0
1, 179640, Note_on_c, 0, 74, 41
1, 179760, Tempo, 414651
1, 179760, Note_on_c, 0, 74, 0
1, 179760, Note_on_c, 0, 83, 54
1, 180000, Tempo, 386648
1, 180000, Note_on_c, 0, 83, 0
1, 180000, Note_on_c, 0, 52, 0
1, 180000, Note_on_c, 0, 56, 0
1, 180000, Note_on_c, 0, 59, 0
1, 180000, Note_on_c, 0, 72, 49
1, 180000, Note_on_c, 0, 51, 43
1, 180010, Control_c, 0, 64, 0
1, 180092, Control_c, 0, 64, 127
1, 180120, Note_on_c, 0, 72, 0
1, 180120, Note_on_c, 0, 75, 42
1, 180240, Note_on_c, 0, 75, 0
1, 180240, Note_on_c, 0, 72, 49
1, 180360, Tempo, 395517
1, 180360, Note_on_c, 0, 72, 0
1, 180360, Note_on_c, 0, 75, 41
1, 180480, Tempo, 414651
1, 180480, Note_on_c, 0, 75, 0
1, 180480, Note_on_c, 0, 84, 54
1, 180480, Note_on_c, 0, 56, 28
1, 180480, Note_on_c, 0, 60, 34
1, 180593, Control_c, 0, 64, 0
1, 180600, Note_on_c, 0, 60, 0
1, 180600, Note_on_c, 0, 56, 0
1, 180600, Note_on_c, 0, 84, 0
1, 180720, Tempo, 379267
1, 180720, Note_on_c, 0, 51, 0
1, 180720, Note_on_c, 0, 75, 49
1, 180720, Note_on_c, 0, 51, 43
1, 180812, Control_c, 0, 64, 127
1, 180840, Note_on_c, 0, 75, 0
1, 180840, Note_on_c, 0, 84, 42
1, 180960, Note_on_c, 0, 84, 0
1, 180960, Note_on_c, 0, 75, 49
1, 181080, Tempo, 395517
1, 181080, Note_on_c, 0, 75, 0
1, 181080, Note_on_c, 0, 84, 41
1, 181200, Tempo, 410397
1, 181200, Note_on_c, 0, 84, 0
1, 181200, Note_on_c, 0, 87, 56
1, 181200, Note_on_c, 0, 63, 34
1, 181200, Note_on_c, 0, 60, 28
1, 181306, Control_c, 0, 64, 0
1, 181320, Note_on_c, 0, 60, 0
1, 181320, Note_on_c, 0, 63, 0
1, 181320, Note_on_c, 0, 87, 0
1, 181440, Tempo, 381679
1, 181440, Note_on_c, 0, 51, 0
1, 181440, Note_on_c, 0, 73, 49
1, 181440, Note_on_c, 0, 51, 43
1, 181532, Control_c, 0, 64, 127
1, 181560, Note_on_c, 0, 73, 0
1, 181560, Note_on_c, 0, 82, 42
1, 181680, Note_on_c, 0, 82, 0
1, 181680, Note_on_c, 0, 73, 49
1, 181800, Tempo, 396825
1, 181800, Note_on_c, 0, 73, 0
1, 181800, Note_on_c, 0, 82, 41
1, 181920, Tempo, 411805
1, 181920, Note_on_c, 0, 82, 0
1, 181920, Note_on_c, 0, 85, 55
1, 181920, Note_on_c, 0, 58, 28
1, 181920, Note_on_c, 0, 61, 34
1, 182040, Note_on_c, 0, 61, 0
1, 182040, Note_on_c, 0, 58, 0
1, 182040, Note_on_c, 0, 85, 0
1, 182040, Control_c, 0, 64, 0
1, 182160, Tempo, 386648
1, 182160, Note_on_c, 0, 51, 0
1, 182160, Note_on_c, 0, 70, 49
1, 182160, Note_on_c, 0, 51, 43
1, 182252, Control_c, 0, 64, 127
1, 182280, Note_on_c, 0, 70, 0
1, 182280, Note_on_c, 0, 79, 42
1, 182400, Note_on_c, 0, 79, 0
1, 182400, Note_on_c, 0, 70, 49
1, 182520, Tempo, 395517
1, 182520, Note_on_c, 0, 70, 0
1, 182520, Note_on_c, 0, 79, 41
1, 182640, Tempo, 410397
1, 182640, Note_on_c, 0, 79, 0
1, 182640, Note_on_c, 0, 82, 55
1, 182640, Note_on_c, 0, 55, 28
1, 182640, Note_on_c, 0, 58, 34
1, 182760, Note_on_c, 0, 58, 0
1, 182760, Note_on_c, 0, 55, 0
1, 182760, Note_on_c, 0, 82, 0
1, 182774, Control_c, 0, 64, 0
1, 182880, Tempo, 386648
1, 182880, Note_on_c, 0, 51, 0
1, 182880, Note_on_c, 0, 72, 49
1, 182880, Note_on_c, 0, 51, 43
1, 182972, Control_c, 0, 64, 127
1, 183000, Note_on_c, 0, 72, 0
1, 183000, Note_on_c, 0, 75, 42
1, 183120, Note_on_c, 0, 75, 0
1, 183120, Note_on_c, 0, 72, 49
1, 183240, Tempo, 402199
1, 183240, Note_on_c, 0, 72, 0
1, 183240, Note_on_c, 0, 75, 41
1, 183360, Tempo, 414651
1, 183360, Note_on_c, 0, 75, 0
1, 183360, Note_on_c, 0, 84, 56
1, 183360, Note_on_c, 0, 56, 28
1, 183360, Note_on_c, 0, 60, 34
1, 183480, Note_on_c, 0, 60, 0
1, 183480, Note_on_c, 0, 56, 0
1, 183480, Note_on_c, 0, 84, 0
1, 183480, Control_c, 0, 64, 0
1, 183600, Tempo, 378072
1, 183600, Note_on_c, 0, 51, 0
1, 183600, Note_on_c, 0, 80, 57
1, 183600, Note_on_c, 0, 51, 43
1, 183692, Control_c, 0, 64, 127
1, 183720, Note_on_c, 0, 80, 0
1, 183720, Note_on_c, 0, 87, 47
1, 183840, Note_on_c, 0, 87, 0
1, 183840, Note_on_c, 0, 80, 56
1, 183960, Tempo, 390371
1, 183960, Note_on_c, 0, 80, 0
1, 183960, Note_on_c, 0, 87, 49
1, 184080, Tempo, 411805
1, 184080, Note_on_c, 0, 87, 0
1, 184080, Note_on_c, 0, 92, 59
1, 184080, Note_on_c, 0, 60, 28
1, 184080, Note_on_c, 0, 63, 34
1, 184200, Note_on_c, 0, 63, 0
1, 184200, Note_on_c, 0, 60, 0
1, 184200, Note_on_c, 0, 92, 0
1, 184200, Control_c, 0, 64, 0
1, 184320, Tempo, 376884
1, 184320, Note_on_c, 0, 51, 0
1, 184320, Note_on_c, 0, 79, 58
1, 184320, Note_on_c, 0, 51, 56
1, 184412, Control_c, 0, 64, 127
1, 184440, Note_on_c, 0, 79, 0
1, 184440, Note_on_c, 0, 85, 50
1, 184560, Note_on_c, 0, 85, 0
1, 184560, Note_on_c, 0, 79, 58
1, 184680, Tempo, 391645
1, 184680, Note_on_c, 0, 79, 0
1, 184680, Note_on_c, 0, 85, 49
1, 184800, Tempo, 408998
1, 184800, Note_on_c, 0, 85, 0
1, 184800, Note_on_c, 0, 91, 65
1, 184800, Note_on_c, 0, 61, 44
1, 184800, Note_on_c, 0, 58, 37
1, 184920, Note_on_c, 0, 58, 0
1, 184920, Note_on_c, 0, 61, 0
1, 184920, Note_on_c, 0, 91, 0
1, 184934, Control_c, 0, 64, 0
1, 185040, Tempo, 381679
1, 185040, Note_on_c, 0, 51, 0
1, 185040, Note_on_c, 0, 73, 58
1, 185040, Note_on_c, 0, 51, 56
1, 185132, Control_c, 0, 64, 127
1, 185160, Note_on_c, 0, 73, 0
1, 185160, Note_on_c, 0, 79, 50
1, 185280, Note_on_c, 0, 79, 0
1, 185280, Note_on_c, 0, 73, 58
1, 185400, Tempo, 394218
1, 185400, Note_on_c, 0, 73, 0
1, 185400, Note_on_c, 0, 79, 49
1, 185520, Tempo, 413223
1, 185520, Note_on_c, 0, 79, 0
1, 185520, Note_on_c, 0, 85, 66
1, 185520, Note_on_c, 0, 55, 37
1, 185520, Note_on_c, 0, 58, 44
1, 185640, Note_on_c, 0, 58, 0
1, 185640, Note_on_c, 0, 55, 0
1, 185640, Note_on_c, 0, 85, 0
1, 185640, Control_c, 0, 64, 0
1, 185760, Tempo, 386648
1, 185760, Note_on_c, 0, 51, 0
1, 185760, Note_on_c, 0, 72, 58
1, 185760, Note_on_c, 0, 51, 56
1, 185852, Control_c, 0, 64, 127
1, 185880, Note_on_c, 0, 72, 0
1, 185880, Note_on_c, 0, 80, 50
1, 186000, Note_on_c, 0, 80, 0
1, 186000, Note_on_c, 0, 72, 58
1, 186120, Tempo, 402199
1, 186120, Note_on_c, 0, 72, 0
1, 186120, Note_on_c, 0, 80, 49
1, 186240, Tempo, 414651
1, 186240, Note_on_c, 0, 80, 0
1, 186240, Note_on_c, 0, 84, 66
1, 186240, Note_on_c, 0, 60, 44
1, 186240, Note_on_c, 0, 56, 37
1, 186346, Control_c, 0, 64, 0
1, 186360, Tempo, 448766
1, 186360, Note_on_c, 0, 56, 0
1, 186360, Note_on_c, 0, 60, 0
1, 186360, Note_on_c, 0, 84, 0
1, 186480, Tempo, 386648
1, 186480, Note_on_c, 0, 51, 0
1, 186480, Note_on_c, 0, 87, 72
1, 186480, Note_on_c, 0, 48, 56
1, 186572, Control_c, 0, 64, 127
1, 186600, Note_on_c, 0, 87, 0
1, 186600, Note_on_c, 0, 96, 64
1, 186720, Note_on_c, 0, 96, 0
1, 186720, Note_on_c, 0, 87, 73
1, 186840, Tempo, 394218
1, 186840, Note_on_c, 0, 87, 0
1, 186840, Note_on_c, 0, 96, 64
1, 186960, Tempo, 414651
1, 186960, Note_on_c, 0, 96, 0
1, 186960, Note_on_c, 0, 99, 78
1, 186960, Note_on_c, 0, 51, 37
1, 186960, Note_on_c, 0, 57, 37
1, 186960, Note_on_c, 0, 54, 37
1, 186960, Note_on_c, 0, 60, 44
1, 187080, Note_on_c, 0, 60, 0
1, 187080, Note_on_c, 0, 99, 0
1, 187080, Note_on_c, 0, 51, 0
1, 187080, Note_on_c, 0, 57, 0
1, 187080, Note_on_c, 0, 54, 0
1, 187093, Control_c, 0, 64, 0
1, 187200, Tempo, 381679
1, 187200, Note_on_c, 0, 48, 0
1, 187200, Note_on_c, 0, 85, 70
1, 187200, Note_on_c, 0, 49, 56
1, 187292, Control_c, 0, 64, 127
1, 187320, Note_on_c, 0, 85, 0
1, 187320, Note_on_c, 0, 94, 61
1, 187440, Note_on_c, 0, 94, 0
1, 187440, Note_on_c, 0, 85, 71
1, 187560, Tempo, 391645
1, 187560, Note_on_c, 0, 85, 0
1, 187560, Note_on_c, 0, 94, 61
1, 187680, Tempo, 403497
1, 187680, Note_on_c, 0, 94, 0
1, 187680, Note_on_c, 0, 97, 78
1, 187680, Note_on_c, 0, 53, 37
1, 187680, Note_on_c, 0, 58, 37
1, 187680, Note_on_c, 0, 61, 44
1, 187800, Note_on_c, 0, 61, 0
1, 187800, Note_on_c, 0, 53, 0
1, 187800, Note_on_c, 0, 58, 0
1, 187800, Note_on_c, 0, 97, 0
1, 187800, Control_c, 0, 64, 0
1, 187920, Tempo, 386648
1, 187920, Note_on_c, 0, 49, 0
1, 187920, Note_on_c, 0, 82, 69
1, 187920, Note_on_c, 0, 51, 56
1, 188012, Control_c, 0, 64, 127
1, 188040, Note_on_c, 0, 82, 0
1, 188040, Note_on_c, 0, 91, 60
1, 188160, Note_on_c, 0, 91, 0
1, 188160, Note_on_c, 0, 82, 67
1, 188280, Tempo, 402199
1, 188280, Note_on_c, 0, 82, 0
1, 188280, Note_on_c, 0, 91, 61
1, 188400, Tempo, 414651
1, 188400, Note_on_c, 0, 91, 0
1, 188400, Note_on_c, 0, 94, 75
1, 188400, Note_on_c, 0, 55, 37
1, 188400, Note_on_c, 0, 58, 44
1, 188520, Tempo, 544465
1, 188520, Note_on_c, 0, 58, 0
1, 188520, Note_on_c, 0, 55, 0
1, 188520, Note_on_c, 0, 94, 0
1, 188527, Control_c, 0, 64, 0
1, 188640, Tempo, 386648
1, 188640, Note_on_c, 0, 51, 0
1, 188640, Note_on_c, 0, 72, 49
1, 188640, Note_on_c, 0, 40, 40
1, 188732, Control_c, 0, 64, 127
1, 188760, Note_on_c, 0, 72, 0
1, 188760, Note_on_c, 0, 79, 42
1, 188880, Note_on_c, 0, 79, 0
1, 188880, Note_on_c, 0, 72, 49
1, 189000, Tempo, 402199
1, 189000, Note_on_c, 0, 72, 0
1, 189000, Note_on_c, 0, 79, 41
1, 189120, Tempo, 414651
1, 189120, Note_on_c, 0, 79, 0
1, 189120, Note_on_c, 0, 40, 0
1, 189120, Note_on_c, 0, 84, 46
1, 189120, Note_on_c, 0, 52, 27
1, 189120, Note_on_c, 0, 60, 32
1, 189120, Note_on_c, 0, 55, 27
1, 189240, Note_on_c, 0, 55, 0
1, 189240, Note_on_c, 0, 84, 0
1, 189240, Note_on_c, 0, 52, 0
1, 189240, Note_on_c, 0, 60, 0
1, 189269, Control_c, 0, 64, 0
1, 189360, Tempo, 386648
1, 189360, Note_on_c, 0, 72, 49
1, 189360, Note_on_c, 0, 40, 40
1, 189452, Control_c, 0, 64, 127
1, 189480, Note_on_c, 0, 72, 0
1, 189480, Note_on_c, 0, 79, 42
1, 189600, Note_on_c, 0, 79, 0
1, 189600, Note_on_c, 0, 72, 49
1, 189720, Tempo, 402199
1, 189720, Note_on_c, 0, 72, 0
1, 189720, Note_on_c, 0, 79, 41
1, 189840, Tempo, 408998
1, 189840, Note_on_c, 0, 79, 0
1, 189840, Note_on_c, 0, 40, 0
1, 189840, Note_on_c, 0, 84, 46
1, 189840, Note_on_c, 0, 60, 32
1, 189840, Note_on_c, 0, 55, 27
1, 189840, Note_on_c, 0, 52, 27
1, 189955, Control_c, 0, 64, 0
1, 189960, Note_on_c, 0, 52, 0
1, 189960, Note_on_c, 0, 84, 0
1, 189960, Note_on_c, 0, 60, 0
1, 189960, Note_on_c, 0, 55, 0
1, 190080, Tempo, 382897
1, 190080, Note_on_c, 0, 79, 49
1, 190080, Note_on_c, 0, 40, 40
1, 190172, Control_c, 0, 64, 127
1, 190200, Note_on_c, 0, 79, 0
1, 190200, Note_on_c, 0, 84, 42
1, 190320, Note_on_c, 0, 84, 0
1, 190320, Note_on_c, 0, 79, 49
1, 190440, Tempo, 394218
1, 190440, Note_on_c, 0, 79, 0
1, 190440, Note_on_c, 0, 84, 41
1, 190560, Tempo, 414651
1, 190560, Note_on_c, 0, 84, 0
1, 190560, Note_on_c, 0, 40, 0
1, 190560, Note_on_c, 0, 91, 46
1, 190560, Note_on_c, 0, 60, 32
1, 190560, Note_on_c, 0, 52, 27
1, 190560, Note_on_c, 0, 55, 27
1, 190680, Note_on_c, 0, 55, 0
1, 190680, Note_on_c, 0, 91, 0
1, 190680, Note_on_c, 0, 60, 0
1, 190680, Note_on_c, 0, 52, 0
1, 190720, Control_c, 0, 64, 0
1, 190800, Tempo, 386648
1, 190800, Note_on_c, 0, 84, 49
1, 190800, Note_on_c, 0, 40, 40
1, 190892, Control_c, 0, 64, 127
1, 190920, Note_on_c, 0, 84, 0
1, 190920, Note_on_c, 0, 91, 42
1, 191040, Note_on_c, 0, 91, 0
1, 191040, Note_on_c, 0, 84, 49
1, 191160, Tempo, 402199
1, 191160, Note_on_c, 0, 84, 0
1, 191160, Note_on_c, 0, 91, 41
1, 191280, Tempo, 414651
1, 191280, Note_on_c, 0, 91, 0
1, 191280, Note_on_c, 0, 40, 0
1, 191280, Note_on_c, 0, 96, 46
1, 191280, Note_on_c, 0, 55, 27
1, 191280, Note_on_c, 0, 52, 27
1, 191280, Note_on_c, 0, 60, 32
1, 191400, Note_on_c, 0, 60, 0
1, 191400, Note_on_c, 0, 96, 0
1, 191400, Note_on_c, 0, 55, 0
1, 191400, Note_on_c, 0, 52, 0
1, 191520, Tempo, 391645
1, 191520, Note_on_c, 0, 84, 53
1, 191520, Note_on_c, 0, 39, 43
1, 191525, Control_c, 0, 64, 0
1, 191626, Control_c, 0, 64, 127
1, 191640, Note_on_c, 0, 84, 0
1, 191640, Note_on_c, 0, 87, 46
1, 191760, Note_on_c, 0, 87, 0
1, 191760, Note_on_c, 0, 84, 58
1, 191880, Note_on_c, 0, 84, 0
1, 191880, Note_on_c, 0, 87, 50
1, 191986, Tempo, 385356
1, 192000, Note_on_c, 0, 87, 0
1, 192000, Note_on_c, 0, 39, 0
1, 192000, Note_on_c, 0, 92, 61
1, 192000, Note_on_c, 0, 51, 27
1, 192000, Note_on_c, 0, 60, 27
1, 192000, Note_on_c, 0, 56, 27
1, 192102, Tempo, 386598
1, 192120, Note_on_c, 0, 92, 0
1, 192120, Note_on_c, 0, 91, 49
1, 192198, Tempo, 387847
1, 192240, Note_on_c, 0, 91, 0
1, 192240, Note_on_c, 0, 89, 64
1, 192294, Tempo, 389105
1, 192360, Note_on_c, 0, 89, 0
1, 192360, Note_on_c, 0, 87, 51
1, 192390, Tempo, 390371
1, 192480, Note_on_c, 0, 87, 0
1, 192480, Note_on_c, 0, 85, 52
1, 192486, Tempo, 391645
1, 192582, Tempo, 392927
1, 192600, Note_on_c, 0, 85, 0
1, 192600, Note_on_c, 0, 84, 51
1, 192678, Tempo, 394218
1, 192720, Note_on_c, 0, 84, 0
1, 192720, Note_on_c, 0, 82, 50
1, 192774, Tempo, 395517
1, 192840, Note_on_c, 0, 82, 0
1, 192840, Note_on_c, 0, 80, 49
1, 192870, Tempo, 396825
1, 192960, Note_on_c, 0, 80, 0
1, 192960, Note_on_c, 0, 56, 0
1, 192960, Note_on_c, 0, 60, 0
1, 192960, Note_on_c, 0, 79, 47
1, 192960, Note_on_c, 0, 61, 32
1, 192960, Note_on_c, 0, 58, 27
1, 192960, Control_c, 0, 64, 0
1, 192966, Tempo, 398142
1, 193062, Tempo, 399467
1, 193080, Note_on_c, 0, 79, 0
1, 193080, Note_on_c, 0, 77, 46
1, 193087, Control_c, 0, 64, 127
1, 193158, Tempo, 400802
1, 193200, Note_on_c, 0, 77, 0
1, 193200, Note_on_c, 0, 75, 45
1, 193254, Tempo, 402145
1, 193320, Note_on_c, 0, 75, 0
1, 193320, Note_on_c, 0, 73, 44
1, 193350, Tempo, 403497
1, 193440, Note_on_c, 0, 73, 0
1, 193440, Note_on_c, 0, 72, 42
1, 193446, Tempo, 404858
1, 193560, Note_on_c, 0, 72, 0
1, 193560, Note_on_c, 0, 70, 41
1, 193680, Note_on_c, 0, 70, 0
1, 193680, Note_on_c, 0, 68, 40
1, 193800, Note_on_c, 0, 68, 0
1, 193800, Note_on_c, 0, 67, 38
1, 193810, Tempo, 406229
1, 193920, Note_on_c, 0, 67, 0
1, 193920, Note_on_c, 0, 65, 37
1, 193945, Tempo, 407609
1, 194040, Note_on_c, 0, 65, 0
1, 194040, Note_on_c, 0, 64, 36
1, 194060, Tempo, 408998
1, 194160, Tempo, 437318
1, 194160, Note_on_c, 0, 64, 0
1, 194160, Note_on_c, 0, 63, 34
1, 194169, Control_c, 0, 64, 0
1, 194380, Tempo, 418965
1, 194400, Tempo, 386648
1, 194400, Note_on_c, 0, 63, 0
1, 194400, Note_on_c, 0, 51, 0
1, 194400, Note_on_c, 0, 61, 0
1, 194400, Note_on_c, 0, 58, 0
1, 194400, Note_on_c, 0, 72, 58
1, 194400, Note_on_c, 0, 40, 48
1, 194492, Control_c, 0, 64, 127
1, 194520, Note_on_c, 0, 72, 0
1, 194520, Note_on_c, 0, 79, 50
1, 194640, Note_on_c, 0, 79, 0
1, 194640, Note_on_c, 0, 40, 0
1, 194640, Note_on_c, 0, 72, 58
1, 194760, Tempo, 402199
1, 194760, Note_on_c, 0, 72, 0
1, 194760, Note_on_c, 0, 79, 49
1, 194880, Tempo, 414651
1, 194880, Note_on_c, 0, 79, 0
1, 194880, Note_on_c, 0, 84, 55
1, 194880, Note_on_c, 0, 60, 38
1, 194880, Note_on_c, 0, 52, 32
1, 194880, Note_on_c, 0, 55, 32
1, 194983, Control_c, 0, 64, 0
1, 195000, Note_on_c, 0, 55, 0
1, 195000, Note_on_c, 0, 84, 0
1, 195000, Note_on_c, 0, 60, 0
1, 195000, Note_on_c, 0, 52, 0
1, 195120, Tempo, 386648
1, 195120, Note_on_c, 0, 72, 58
1, 195120, Note_on_c, 0, 40, 48
1, 195212, Control_c, 0, 64, 127
1, 195240, Note_on_c, 0, 72, 0
1, 195240, Note_on_c, 0, 79, 50
1, 195360, Note_on_c, 0, 79, 0
1, 195360, Note_on_c, 0, 40, 0
1, 195360, Note_on_c, 0, 72, 58
1, 195480, Tempo, 402199
1, 195480, Note_on_c, 0, 72, 0
1, 195480, Note_on_c, 0, 79, 49
1, 195600, Tempo, 408998
1, 195600, Note_on_c, 0, 79, 0
1, 195600, Note_on_c, 0, 84, 55
1, 195600, Note_on_c, 0, 55, 32
1, 195600, Note_on_c, 0, 52, 32
1, 195600, Note_on_c, 0, 60, 38
1, 195720, Note_on_c, 0, 60, 0
1, 195720, Note_on_c, 0, 84, 0
1, 195720, Note_on_c, 0, 55, 0
1, 195720, Note_on_c, 0, 52, 0
1, 195749, Control_c, 0, 64, 0
1, 195840, Tempo, 382897
1, 195840, Note_on_c, 0, 79, 58
1, 195840, Note_on_c, 0, 40, 48
1, 195932, Control_c, 0, 64, 127
1, 195960, Note_on_c, 0, 79, 0
1, 195960, Note_on_c, 0, 84, 50
1, 196080, Note_on_c, 0, 84, 0
1, 196080, Note_on_c, 0, 40, 0
1, 196080, Note_on_c, 0, 79, 58
1, 196200, Tempo, 394218
1, 196200, Note_on_c, 0, 79, 0
1, 196200, Note_on_c, 0, 84, 49
1, 196320, Tempo, 414651
1, 196320, Note_on_c, 0, 84, 0
1, 196320, Note_on_c, 0, 91, 55
1, 196320, Note_on_c, 0, 60, 38
1, 196320, Note_on_c, 0, 52, 32
1, 196320, Note_on_c, 0, 55, 32
1, 196417, Control_c, 0, 64, 0
1, 196440, Note_on_c, 0, 55, 0
1, 196440, Note_on_c, 0, 91, 0
1, 196440, Note_on_c, 0, 60, 0
1, 196440, Note_on_c, 0, 52, 0
1, 196560, Tempo, 386648
1, 196560, Note_on_c, 0, 84, 58
1, 196560, Note_on_c, 0, 40, 48
1, 196652, Control_c, 0, 64, 127
1, 196680, Note_on_c, 0, 84, 0
1, 196680, Note_on_c, 0, 91, 50
1, 196800, Note_on_c, 0, 91, 0
1, 196800, Note_on_c, 0, 40, 0
1, 196800, Note_on_c, 0, 84, 58
1, 196920, Tempo, 402199
1, 196920, Note_on_c, 0, 84, 0
1, 196920, Note_on_c, 0, 91, 49
1, 197040, Tempo, 414651
1, 197040, Note_on_c, 0, 91, 0
1, 197040, Note_on_c, 0, 96, 55
1, 197040, Note_on_c, 0, 60, 38
1, 197040, Note_on_c, 0, 52, 32
1, 197040, Note_on_c, 0, 55, 32
1, 197137, Control_c, 0, 64, 0
1, 197160, Note_on_c, 0, 55, 0
1, 197160, Note_on_c, 0, 96, 0
1, 197160, Note_on_c, 0, 60, 0
1, 197160, Note_on_c, 0, 52, 0
1, 197280, Tempo, 391645
1, 197280, Note_on_c, 0, 87, 63
1, 197280, Note_on_c, 0, 39, 51
1, 197386, Control_c, 0, 64, 127
1, 197400, Note_on_c, 0, 87, 0
1, 197400, Note_on_c, 0, 92, 55
1, 197520, Note_on_c, 0, 92, 0
1, 197520, Note_on_c, 0, 39, 0
1, 197520, Note_on_c, 0, 87, 69
1, 197640, Note_on_c, 0, 87, 0
1, 197640, Note_on_c, 0, 92, 60
1, 197746, Tempo, 385356
1, 197760, Note_on_c, 0, 92, 0
1, 197760, Note_on_c, 0, 96, 73
1, 197760, Note_on_c, 0, 56, 32
1, 197760, Note_on_c, 0, 51, 32
1, 197760, Note_on_c, 0, 60, 32
1, 197862, Tempo, 386598
1, 197880, Note_on_c, 0, 96, 0
1, 197880, Note_on_c, 0, 94, 58
1, 197958, Tempo, 387847
1, 198000, Note_on_c, 0, 94, 0
1, 198000, Note_on_c, 0, 92, 76
1, 198054, Tempo, 389105
1, 198120, Note_on_c, 0, 92, 0
1, 198120, Note_on_c, 0, 91, 61
1, 198150, Tempo, 390371
1, 198240, Note_on_c, 0, 91, 0
1, 198240, Note_on_c, 0, 89, 62
1, 198246, Tempo, 391645
1, 198342, Tempo, 392927
1, 198360, Note_on_c, 0, 89, 0
1, 198360, Note_on_c, 0, 87, 61
1, 198438, Tempo, 394218
1, 198480, Note_on_c, 0, 87, 0
1, 198480, Note_on_c, 0, 85, 60
1, 198534, Tempo, 395517
1, 198600, Note_on_c, 0, 85, 0
1, 198600, Note_on_c, 0, 84, 58
1, 198630, Tempo, 396825
1, 198720, Note_on_c, 0, 84, 0
1, 198720, Note_on_c, 0, 60, 0
1, 198720, Note_on_c, 0, 56, 0
1, 198720, Note_on_c, 0, 82, 56
1, 198720, Note_on_c, 0, 55, 32
1, 198720, Note_on_c, 0, 61, 38
1, 198720, Control_c, 0, 64, 0
1, 198726, Tempo, 398142
1, 198822, Tempo, 399467
1, 198840, Note_on_c, 0, 82, 0
1, 198840, Note_on_c, 0, 80, 55
1, 198847, Control_c, 0, 64, 127
1, 198918, Tempo, 400802
1, 198960, Note_on_c, 0, 80, 0
1, 198960, Note_on_c, 0, 79, 54
1, 199014, Tempo, 402145
1, 199080, Note_on_c, 0, 79, 0
1, 199080, Note_on_c, 0, 77, 52
1, 199110, Tempo, 403497
1, 199200, Note_on_c, 0, 77, 0
1, 199200, Note_on_c, 0, 75, 50
1, 199206, Tempo, 404858
1, 199320, Note_on_c, 0, 75, 0
1, 199320, Note_on_c, 0, 73, 49
1, 199440, Note_on_c, 0, 73, 0
1, 199440, Note_on_c, 0, 72, 48
1, 199560, Note_on_c, 0, 72, 0
1, 199560, Note_on_c, 0, 70, 45
1, 199570, Tempo, 406229
1, 199680, Note_on_c, 0, 70, 0
1, 199680, Note_on_c, 0, 68, 44
1, 199705, Tempo, 407609
1, 199760, Note_on_c, 0, 68, 0
1, 199760, Note_on_c, 0, 67, 43
1, 199820, Tempo, 408998
1, 199840, Note_on_c, 0, 67, 0
1, 199840, Note_on_c, 0, 65, 42
1, 199920, Tempo, 437318
1, 199920, Note_on_c, 0, 65, 0
1, 199920, Note_on_c, 0, 63, 40
1, 199935, Control_c, 0, 64, 0
1, 200140, Tempo, 418965
1, 200160, Tempo, 386648
1, 200160, Note_on_c, 0, 63, 0
1, 200160, Note_on_c, 0, 61, 0
1, 200160, Note_on_c, 0, 55, 0
1, 200160, Note_on_c, 0, 51, 0
1, 200160, Note_on_c, 0, 72, 69
1, 200160, Note_on_c, 0, 40, 57
1, 200170, Control_c, 0, 64, 0
1, 200252, Control_c, 0, 64, 127
1, 200280, Note_on_c, 0, 72, 0
1, 200280, Note_on_c, 0, 79, 60
1, 200400, Note_on_c, 0, 79, 0
1, 200400, Note_on_c, 0, 72, 69
1, 200520, Tempo, 402199
1, 200520, Note_on_c, 0, 72, 0
1, 200520, Note_on_c, 0, 79, 58
1, 200640, Tempo, 414651
1, 200640, Note_on_c, 0, 79, 0
1, 200640, Note_on_c, 0, 40, 0
1, 200640, Note_on_c, 0, 84, 66
1, 200640, Note_on_c, 0, 52, 38
1, 200640, Note_on_c, 0, 60, 45
1, 200640, Note_on_c, 0, 55, 38
1, 200760, Note_on_c, 0, 55, 0
1, 200760, Note_on_c, 0, 84, 0
1, 200760, Note_on_c, 0, 52, 0
1, 200760, Note_on_c, 0, 60, 0
1, 200777, Control_c, 0, 64, 0
1, 200880, Tempo, 386648
1, 200880, Note_on_c, 0, 72, 69
1, 200880, Note_on_c, 0, 40, 57
1, 200972, Control_c, 0, 64, 127
1, 201000, Note_on_c, 0, 72, 0
1, 201000, Note_on_c, 0, 79, 60
1, 201120, Note_on_c, 0, 79, 0
1, 201120, Note_on_c, 0, 72, 69
1, 201240, Tempo, 402199
1, 201240, Note_on_c, 0, 72, 0
1, 201240, Note_on_c, 0, 79, 58
1, 201360, Tempo, 408998
1, 201360, Note_on_c, 0, 79, 0
1, 201360, Note_on_c, 0, 40, 0
1, 201360, Note_on_c, 0, 84, 66
1, 201360, Note_on_c, 0, 55, 38
1, 201360, Note_on_c, 0, 60, 45
1, 201360, Note_on_c, 0, 52, 38
1, 201480, Note_on_c, 0, 52, 0
1, 201480, Note_on_c, 0, 84, 0
1, 201480, Note_on_c, 0, 55, 0
1, 201480, Note_on_c, 0, 60, 0
1, 201480, Control_c, 0, 64, 0
1, 201600, Tempo, 382897
1, 201600, Note_on_c, 0, 79, 69
1, 201600, Note_on_c, 0, 40, 57
1, 201692, Control_c, 0, 64, 127
1, 201720, Note_on_c, 0, 79, 0
1, 201720, Note_on_c, 0, 84, 60
1, 201840, Note_on_c, 0, 84, 0
1, 201840, Note_on_c, 0, 79, 69
1, 201960, Tempo, 394218
1, 201960, Note_on_c, 0, 79, 0
1, 201960, Note_on_c, 0, 84, 58
1, 202080, Tempo, 414651
1, 202080, Note_on_c, 0, 84, 0
1, 202080, Note_on_c, 0, 40, 0
1, 202080, Note_on_c, 0, 91, 66
1, 202080, Note_on_c, 0, 60, 45
1, 202080, Note_on_c, 0, 52, 38
1, 202080, Note_on_c, 0, 55, 38
1, 202200, Note_on_c, 0, 55, 0
1, 202200, Note_on_c, 0, 91, 0
1, 202200, Note_on_c, 0, 60, 0
1, 202200, Note_on_c, 0, 52, 0
1, 202235, Control_c, 0, 64, 0
1, 202320, Tempo, 386648
1, 202320, Note_on_c, 0, 84, 69
1, 202320, Note_on_c, 0, 40, 57
1, 202412, Control_c, 0, 64, 127
1, 202440, Note_on_c, 0, 84, 0
1, 202440, Note_on_c, 0, 91, 60
1, 202560, Note_on_c, 0, 91, 0
1, 202560, Note_on_c, 0, 84, 69
1, 202680, Tempo, 402199
1, 202680, Note_on_c, 0, 84, 0
1, 202680, Note_on_c, 0, 91, 58
1, 202800, Tempo, 414651
1, 202800, Note_on_c, 0, 91, 0
1, 202800, Note_on_c, 0, 40, 0
1, 202800, Note_on_c, 0, 96, 66
1, 202800, Note_on_c, 0, 60, 45
1, 202800, Note_on_c, 0, 52, 38
1, 202800, Note_on_c, 0, 55, 38
1, 202920, Note_on_c, 0, 55, 0
1, 202920, Note_on_c, 0, 96, 0
1, 202920, Note_on_c, 0, 60, 0
1, 202920, Note_on_c, 0, 52, 0
1, 202937, Control_c, 0, 64, 0
1, 203040, Tempo, 391645
1, 203040, Note_on_c, 0, 91, 75
1, 203040, Note_on_c, 0, 43, 61
1, 203146, Control_c, 0, 64, 127
1, 203160, Note_on_c, 0, 91, 0
1, 203160, Note_on_c, 0, 96, 66
1, 203280, Note_on_c, 0, 96, 0
1, 203280, Note_on_c, 0, 91, 82
1, 203400, Note_on_c, 0, 91, 0
1, 203400, Note_on_c, 0, 96, 72
1, 203506, Tempo, 385356
1, 203520, Note_on_c, 0, 96, 0
1, 203520, Note_on_c, 0, 43, 0
1, 203520, Note_on_c, 0, 100, 87
1, 203520, Note_on_c, 0, 60, 38
1, 203520, Note_on_c, 0, 52, 38
1, 203520, Note_on_c, 0, 55, 38
1, 203622, Tempo, 386598
1, 203640, Note_on_c, 0, 100, 0
1, 203640, Note_on_c, 0, 98, 69
1, 203718, Tempo, 387847
1, 203760, Note_on_c, 0, 98, 0
1, 203760, Note_on_c, 0, 96, 87
1, 203814, Tempo, 389105
1, 203880, Note_on_c, 0, 96, 0
1, 203880, Note_on_c, 0, 95, 73
1, 203910, Tempo, 390371
1, 204000, Note_on_c, 0, 95, 0
1, 204000, Note_on_c, 0, 93, 74
1, 204006, Tempo, 391645
1, 204102, Tempo, 392927
1, 204120, Note_on_c, 0, 93, 0
1, 204120, Note_on_c, 0, 91, 73
1, 204198, Tempo, 394218
1, 204240, Note_on_c, 0, 91, 0
1, 204240, Note_on_c, 0, 89, 72
1, 204294, Tempo, 395517
1, 204360, Note_on_c, 0, 89, 0
1, 204360, Note_on_c, 0, 88, 69
1, 204390, Tempo, 396825
1, 204480, Note_on_c, 0, 88, 0
1, 204480, Note_on_c, 0, 55, 0
1, 204480, Note_on_c, 0, 52, 0
1, 204480, Note_on_c, 0, 60, 0
1, 204480, Note_on_c, 0, 86, 67
1, 204480, Note_on_c, 0, 53, 38
1, 204480, Note_on_c, 0, 59, 45
1, 204480, Note_on_c, 0, 55, 38
1, 204480, Control_c, 0, 64, 0
1, 204486, Tempo, 398142
1, 204582, Tempo, 399467
1, 204600, Note_on_c, 0, 86, 0
1, 204600, Note_on_c, 0, 84, 66
1, 204607, Control_c, 0, 64, 127
1, 204678, Tempo, 400802
1, 204720, Note_on_c, 0, 84, 0
1, 204720, Note_on_c, 0, 83, 64
1, 204774, Tempo, 402145
1, 204840, Note_on_c, 0, 83, 0
1, 204840, Note_on_c, 0, 81, 62
1, 204870, Tempo, 403497
1, 204960, Note_on_c, 0, 81, 0
1, 204960, Note_on_c, 0, 79, 60
1, 204966, Tempo, 404858
1, 205041, Note_on_c, 0, 79, 0
1, 205041, Note_on_c, 0, 77, 58
1, 205120, Note_on_c, 0, 76, 57
1, 205121, Note_on_c, 0, 77, 0
1, 205200, Note_on_c, 0, 76, 0
1, 205200, Note_on_c, 0, 74, 54
1, 205320, Note_on_c, 0, 74, 0
1, 205320, Note_on_c, 0, 72, 52
1, 205330, Tempo, 406229
1, 205440, Note_on_c, 0, 72, 0
1, 205440, Note_on_c, 0, 71, 51
1, 205465, Tempo, 407609
1, 205560, Note_on_c, 0, 71, 0
1, 205560, Note_on_c, 0, 69, 51
1, 205580, Tempo, 408998
1, 205680, Tempo, 437318
1, 205680, Note_on_c, 0, 69, 0
1, 205680, Note_on_c, 0, 67, 48
1, 205695, Control_c, 0, 64, 0
1, 205900, Tempo, 418965
1, 205920, Tempo, 391645
1, 205920, Note_on_c, 0, 67, 0
1, 205920, Note_on_c, 0, 53, 0
1, 205920, Note_on_c, 0, 59, 0
1, 205920, Note_on_c, 0, 55, 0
1, 205920, Note_on_c, 0, 92, 76
1, 205920, Note_on_c, 0, 39, 67
1, 205927, Control_c, 0, 64, 0
1, 205963, Control_c, 0, 64, 127
1, 206040, Note_on_c, 0, 92, 0
1, 206040, Note_on_c, 0, 96, 66
1, 206160, Note_on_c, 0, 96, 0
1, 206160, Note_on_c, 0, 39, 0
1, 206160, Note_on_c, 0, 92, 71
1, 206280, Note_on_c, 0, 92, 0
1, 206280, Note_on_c, 0, 96, 68
1, 206386, Tempo, 385356
1, 206400, Note_on_c, 0, 96, 0
1, 206400, Note_on_c, 0, 99, 77
1, 206400, Note_on_c, 0, 60, 61
1, 206400, Note_on_c, 0, 51, 51
1, 206400, Note_on_c, 0, 56, 51
1, 206502, Tempo, 386598
1, 206520, Note_on_c, 0, 99, 0
1, 206520, Note_on_c, 0, 97, 69
1, 206598, Tempo, 387847
1, 206640, Note_on_c, 0, 97, 0
1, 206640, Note_on_c, 0, 96, 82
1, 206694, Tempo, 389105
1, 206760, Note_on_c, 0, 96, 0
1, 206760, Note_on_c, 0, 94, 71
1, 206790, Tempo, 390371
1, 206880, Note_on_c, 0, 94, 0
1, 206880, Note_on_c, 0, 92, 80
1, 206886, Tempo, 391645
1, 206982, Tempo, 392927
1, 207000, Note_on_c, 0, 92, 0
1, 207000, Note_on_c, 0, 91, 78
1, 207078, Tempo, 394218
1, 207120, Note_on_c, 0, 91, 0
1, 207120, Note_on_c, 0, 89, 77
1, 207174, Tempo, 395517
1, 207240, Note_on_c, 0, 89, 0
1, 207240, Note_on_c, 0, 87, 75
1, 207270, Tempo, 396825
1, 207360, Note_on_c, 0, 87, 0
1, 207360, Note_on_c, 0, 56, 0
1, 207360, Note_on_c, 0, 60, 0
1, 207360, Note_on_c, 0, 85, 74
1, 207360, Note_on_c, 0, 55, 51
1, 207360, Note_on_c, 0, 61, 61
1, 207360, Note_on_c, 0, 58, 51
1, 207360, Control_c, 0, 64, 0
1, 207366, Tempo, 398142
1, 207462, Tempo, 399467
1, 207480, Note_on_c, 0, 85, 0
1, 207480, Note_on_c, 0, 84, 72
1, 207487, Control_c, 0, 64, 127
1, 207558, Tempo, 400802
1, 207600, Note_on_c, 0, 84, 0
1, 207600, Note_on_c, 0, 82, 70
1, 207654, Tempo, 402145
1, 207720, Note_on_c, 0, 82, 0
1, 207720, Note_on_c, 0, 80, 69
1, 207750, Tempo, 403497
1, 207840, Note_on_c, 0, 80, 0
1, 207840, Note_on_c, 0, 79, 67
1, 207846, Tempo, 404858
1, 207960, Note_on_c, 0, 79, 0
1, 207960, Note_on_c, 0, 77, 66
1, 208080, Note_on_c, 0, 77, 0
1, 208080, Note_on_c, 0, 75, 64
1, 208160, Note_on_c, 0, 75, 0
1, 208160, Note_on_c, 0, 73, 61
1, 208210, Tempo, 406229
1, 208240, Note_on_c, 0, 73, 0
1, 208240, Note_on_c, 0, 72, 63
1, 208320, Note_on_c, 0, 72, 0
1, 208320, Note_on_c, 0, 70, 65
1, 208345, Tempo, 407609
1, 208401, Note_on_c, 0, 70, 0
1, 208401, Note_on_c, 0, 68, 66
1, 208460, Tempo, 408998
1, 208480, Note_on_c, 0, 67, 68
1, 208481, Note_on_c, 0, 68, 0
1, 208560, Note_on_c, 0, 58, 0
1, 208560, Note_on_c, 0, 61, 0
1, 208560, Note_on_c, 0, 51, 0
1, 208560, Note_on_c, 0, 67, 0
1, 208560, Note_on_c, 0, 65, 69
1, 208594, Tempo, 410397
1, 208608, Note_on_c, 0, 65, 0
1, 208608, Note_on_c, 0, 63, 70
1, 208656, Note_on_c, 0, 63, 0
1, 208656, Note_on_c, 0, 61, 71
1, 208704, Note_on_c, 0, 61, 0
1, 208704, Note_on_c, 0, 60, 72
1, 208710, Tempo, 411805
1, 208752, Note_on_c, 0, 60, 0
1, 208752, Note_on_c, 0, 58, 73
1, 208780, Tempo, 418965
1, 208800, Note_on_c, 0, 58, 0
1, 208800, Note_on_c, 0, 55, 0
1, 208800, Note_on_c, 0, 56, 90
1, 208800, Note_on_c, 0, 44, 83
1, 208800, Control_c, 0, 64, 0
1, 208913, Control_c, 0, 64, 127
1, 209040, Tempo, 418965
1, 209040, Note_on_c, 0, 44, 0
1, 209040, Note_on_c, 0, 56, 0
1, 209040, Note_on_c, 0, 68, 77
1, 209040, Note_on_c, 0, 56, 61
1, 209055, Control_c, 0, 64, 0
1, 209160, Note_on_c, 0, 72, 68
1, 209160, Note_on_c, 0, 60, 53
1, 209172, Note_on_c, 0, 56, 0
1, 209172, Note_on_c, 0, 68, 0
1, 209280, Note_on_c, 0, 75, 77
1, 209280, Note_on_c, 0, 63, 61
1, 209292, Note_on_c, 0, 72, 0
1, 209292, Note_on_c, 0, 60, 0
1, 209307, Tempo, 413223
1, 209337, Tempo, 411805
1, 209367, Tempo, 410397
1, 209382, Tempo, 408998
1, 209400, Note_on_c, 0, 73, 74
1, 209400, Note_on_c, 0, 61, 59
1, 209412, Tempo, 407609
1, 209412, Note_on_c, 0, 75, 0
1, 209412, Note_on_c, 0, 63, 0
1, 209427, Tempo, 406229
1, 209457, Tempo, 404858
1, 209472, Tempo, 403497
1, 209502, Tempo, 402145
1, 209517, Tempo, 398142
1, 209520, Note_on_c, 0, 72, 74
1, 209520, Note_on_c, 0, 60, 59
1, 209532, Note_on_c, 0, 73, 0
1, 209532, Note_on_c, 0, 61, 0
1, 209640, Note_on_c, 0, 70, 73
1, 209640, Note_on_c, 0, 58, 58
1, 209652, Note_on_c, 0, 72, 0
1, 209652, Note_on_c, 0, 60, 0
1, 209727, Tempo, 399467
1, 209760, Note_on_c, 0, 68, 72
1, 209760, Note_on_c, 0, 56, 57
1, 209772, Note_on_c, 0, 70, 0
1, 209772, Note_on_c, 0, 58, 0
1, 209880, Note_on_c, 0, 67, 71
1, 209880, Note_on_c, 0, 55, 57
1, 209892, Note_on_c, 0, 68, 0
1, 209892, Note_on_c, 0, 56, 0
1, 209922, Tempo, 400802
1, 210000, Note_on_c, 0, 65, 70
1, 210000, Note_on_c, 0, 53, 56
1, 210012, Note_on_c, 0, 67, 0
1, 210012, Note_on_c, 0, 55, 0
1, 210120, Note_on_c, 0, 63, 69
1, 210120, Note_on_c, 0, 51, 55
1, 210132, Tempo, 402145
1, 210132, Note_on_c, 0, 65, 0
1, 210132, Note_on_c, 0, 53, 0
1, 210240, Note_on_c, 0, 61, 68
1, 210240, Note_on_c, 0, 49, 53
1, 210252, Note_on_c, 0, 63, 0
1, 210252, Note_on_c, 0, 51, 0
1, 210327, Tempo, 403497
1, 210360, Note_on_c, 0, 60, 67
1, 210360, Note_on_c, 0, 48, 52
1, 210372, Note_on_c, 0, 61, 0
1, 210372, Note_on_c, 0, 49, 0
1, 210480, Note_on_c, 0, 58, 66
1, 210480, Note_on_c, 0, 46, 52
1, 210492, Note_on_c, 0, 60, 0
1, 210492, Note_on_c, 0, 48, 0
1, 210537, Tempo, 404858
1, 210600, Note_on_c, 0, 56, 64
1, 210600, Note_on_c, 0, 44, 51
1, 210612, Note_on_c, 0, 58, 0
1, 210612, Note_on_c, 0, 46, 0
1, 210720, Note_on_c, 0, 55, 63
1, 210720, Note_on_c, 0, 43, 50
1, 210732, Tempo, 406229
1, 210732, Note_on_c, 0, 56, 0
1, 210732, Note_on_c, 0, 44, 0
1, 210747, Tempo, 407609
1, 210840, Note_on_c, 0, 53, 62
1, 210840, Note_on_c, 0, 41, 49
1, 210852, Note_on_c, 0, 55, 0
1, 210852, Note_on_c, 0, 43, 0
1, 210942, Tempo, 406229
1, 210960, Note_on_c, 0, 51, 61
1, 210960, Note_on_c, 0, 39, 48
1, 210972, Note_on_c, 0, 53, 0
1, 210972, Note_on_c, 0, 41, 0
1, 211080, Note_on_c, 0, 53, 65
1, 211080, Note_on_c, 0, 41, 50
1, 211092, Note_on_c, 0, 51, 0
1, 211092, Note_on_c, 0, 39, 0
1, 211137, Tempo, 404858
1, 211200, Note_on_c, 0, 51, 67
1, 211200, Note_on_c, 0, 39, 53
1, 211212, Note_on_c, 0, 53, 0
1, 211212, Note_on_c, 0, 41, 0
1, 211320, Note_on_c, 0, 49, 69
1, 211320, Note_on_c, 0, 37, 55
1, 211332, Tempo, 403497
1, 211332, Note_on_c, 0, 51, 0
1, 211332, Note_on_c, 0, 39, 0
1, 211440, Note_on_c, 0, 48, 71
1, 211440, Note_on_c, 0, 36, 57
1, 211452, Note_on_c, 0, 49, 0
1, 211452, Note_on_c, 0, 37, 0
1, 211527, Tempo, 402145
1, 211560, Note_on_c, 0, 46, 73
1, 211560, Note_on_c, 0, 34, 59
1, 211572, Note_on_c, 0, 48, 0
1, 211572, Note_on_c, 0, 36, 0
1, 211680, Tempo, 378525
1, 211680, Note_on_c, 0, 44, 78
1, 211680, Note_on_c, 0, 32, 62
1, 211692, Note_on_c, 0, 46, 0
1, 211692, Note_on_c, 0, 34, 0
1, 211783, Control_c, 0, 64, 127
1, 211800, Note_on_c, 0, 44, 0
1, 211800, Note_on_c, 0, 32, 0
1, 211800, Note_on_c, 0, 48, 67
1, 211800, Note_on_c, 0, 36, 53
1, 211920, Note_on_c, 0, 36, 0
1, 211920, Note_on_c, 0, 48, 0
1, 211920, Note_on_c, 0, 44, 78
1, 211920, Note_on_c, 0, 32, 62
1, 212040, Tempo, 392131
1, 212040, Note_on_c, 0, 32, 0
1, 212040, Note_on_c, 0, 44, 0
1, 212040, Note_on_c, 0, 48, 65
1, 212040, Note_on_c, 0, 36, 52
1, 212160, Tempo, 418994
1, 212160, Note_on_c, 0, 36, 0
1, 212160, Note_on_c, 0, 48, 0
1, 212160, Note_on_c, 0, 51, 73
1, 212160, Note_on_c, 0, 39, 58
1, 212273, Control_c, 0, 64, 0
1, 212280, Note_on_c, 0, 39, 0
1, 212280, Note_on_c, 0, 51, 0
1, 212400, Tempo, 376152
1, 212400, Note_on_c, 0, 44, 78
1, 212400, Note_on_c, 0, 32, 62
1, 212503, Control_c, 0, 64, 127
1, 212520, Note_on_c, 0, 32, 0
1, 212520, Note_on_c, 0, 44, 0
1, 212520, Note_on_c, 0, 48, 67
1, 212520, Note_on_c, 0, 36, 53
1, 212640, Note_on_c, 0, 36, 0
1, 212640, Note_on_c, 0, 48, 0
1, 212640, Note_on_c, 0, 44, 78
1, 212640, Note_on_c, 0, 32, 62
1, 212760, Tempo, 392131
1, 212760, Note_on_c, 0, 32, 0
1, 212760, Note_on_c, 0, 44, 0
1, 212760, Note_on_c, 0, 48, 65
1, 212760, Note_on_c, 0, 36, 52
1, 212880, Tempo, 418994
1, 212880, Note_on_c, 0, 36, 0
1, 212880, Note_on_c, 0, 48, 0
1, 212880, Note_on_c, 0, 51, 73
1, 212880, Note_on_c, 0, 39, 58
1, 213000, Note_on_c, 0, 39, 0
1, 213000, Note_on_c, 0, 51, 0
1, 213021, Control_c, 0, 64, 0
1, 213120, Tempo, 377335
1, 213120, Note_on_c, 0, 44, 78
1, 213120, Note_on_c, 0, 32, 62
1, 213223, Control_c, 0, 64, 127
1, 213240, Note_on_c, 0, 32, 0
1, 213240, Note_on_c, 0, 44, 0
1, 213240, Note_on_c, 0, 48, 67
1, 213240, Note_on_c, 0, 36, 53
1, 213360, Note_on_c, 0, 36, 0
1, 213360, Note_on_c, 0, 48, 0
1, 213360, Note_on_c, 0, 44, 78
1, 213360, Note_on_c, 0, 32, 62
1, 213480, Tempo, 390854
1, 213480, Note_on_c, 0, 32, 0
1, 213480, Note_on_c, 0, 44, 0
1, 213480, Note_on_c, 0, 48, 65
1, 213480, Note_on_c, 0, 36, 52
1, 213600, Tempo, 418994
1, 213600, Note_on_c, 0, 36, 0
1, 213600, Note_on_c, 0, 48, 0
1, 213600, Note_on_c, 0, 51, 73
1, 213600, Note_on_c, 0, 39, 58
1, 213664, Control_c, 0, 64, 0
1, 213720, Note_on_c, 0, 39, 0
1, 213720, Note_on_c, 0, 51, 0
1, 213840, Tempo, 377335
1, 213840, Note_on_c, 0, 44, 78
1, 213840, Note_on_c, 0, 32, 62
1, 213943, Control_c, 0, 64, 127
1, 213960, Note_on_c, 0, 32, 0
1, 213960, Note_on_c, 0, 44, 0
1, 213960, Note_on_c, 0, 48, 67
1, 213960, Note_on_c, 0, 36, 53
1, 214080, Note_on_c, 0, 36, 0
1, 214080, Note_on_c, 0, 48, 0
1, 214080, Note_on_c, 0, 44, 78
1, 214080, Note_on_c, 0, 32, 62
1, 214200, Tempo, 390854
1, 214200, Note_on_c, 0, 32, 0
1, 214200, Note_on_c, 0, 44, 0
1, 214200, Note_on_c, 0, 48, 65
1, 214200, Note_on_c, 0, 36, 52
1, 214320, Tempo, 418994
1, 214320, Note_on_c, 0, 36, 0
1, 214320, Note_on_c, 0, 48, 0
1, 214320, Note_on_c, 0, 51, 73
1, 214320, Note_on_c, 0, 39, 58
1, 214384, Control_c, 0, 64, 0
1, 214440, Note_on_c, 0, 39, 0
1, 214440, Note_on_c, 0, 51, 0
1, 214560, Tempo, 379723
1, 214560, Note_on_c, 0, 44, 70
1, 214560, Note_on_c, 0, 32, 55
1, 214663, Control_c, 0, 64, 127
1, 214680, Note_on_c, 0, 44, 0
1, 214680, Note_on_c, 0, 48, 59
1, 214800, Note_on_c, 0, 48, 0
1, 214800, Note_on_c, 0, 32, 0
1, 214800, Note_on_c, 0, 44, 67
1, 214920, Tempo, 392131
1, 214920, Note_on_c, 0, 44, 0
1, 214920, Note_on_c, 0, 48, 55
1, 215040, Tempo, 414622
1, 215040, Note_on_c, 0, 48, 0
1, 215040, Note_on_c, 0, 51, 61
1, 215104, Control_c, 0, 64, 0
1, 215160, Note_on_c, 0, 51, 0
1, 215280, Tempo, 379723
1, 215280, Note_on_c, 0, 48, 62
1, 215383, Control_c, 0, 64, 127
1, 215400, Note_on_c, 0, 48, 0
1, 215400, Note_on_c, 0, 51, 52
1, 215520, Note_on_c, 0, 51, 0
1, 215520, Note_on_c, 0, 48, 60
1, 215640, Tempo, 390854
1, 215640, Note_on_c, 0, 48, 0
1, 215640, Note_on_c, 0, 51, 48
1, 215760, Tempo, 413195
1, 215760, Note_on_c, 0, 51, 0
1, 215760, Note_on_c, 0, 56, 54
1, 215824, Control_c, 0, 64, 0
1, 215880, Note_on_c, 0, 56, 0
1, 216000, Tempo, 378525
1, 216000, Note_on_c, 0, 51, 54
1, 216103, Control_c, 0, 64, 127
1, 216120, Note_on_c, 0, 51, 0
1, 216120, Note_on_c, 0, 56, 46
1, 216240, Note_on_c, 0, 56, 0
1, 216240, Note_on_c, 0, 51, 52
1, 216360, Tempo, 392131
1, 216360, Note_on_c, 0, 51, 0
1, 216360, Note_on_c, 0, 56, 42
1, 216480, Tempo, 406201
1, 216480, Note_on_c, 0, 56, 0
1, 216480, Note_on_c, 0, 60, 46
1, 216544, Control_c, 0, 64, 0
1, 216600, Note_on_c, 0, 60, 0
1, 216720, Tempo, 380928
1, 216720, Note_on_c, 0, 56, 46
1, 216823, Control_c, 0, 64, 127
1, 216840, Note_on_c, 0, 56, 0
1, 216840, Note_on_c, 0, 60, 39
1, 216960, Note_on_c, 0, 60, 0
1, 216960, Note_on_c, 0, 56, 44
1, 217080, Tempo, 402199
1, 217080, Note_on_c, 0, 56, 0
1, 217080, Note_on_c, 0, 60, 35
1, 217200, Tempo, 427930
1, 217200, Note_on_c, 0, 60, 0
1, 217200, Note_on_c, 0, 63, 39
1, 217264, Control_c, 0, 64, 0
1, 217320, Note_on_c, 0, 63, 0
1, 217440, Tempo, 399973
1, 217440, Note_on_c, 0, 56, 46
1, 217442, Tempo, 405378
1, 217476, Control_c, 0, 64, 127
1, 217517, Tempo, 404013
1, 217560, Note_on_c, 0, 56, 0
1, 217560, Note_on_c, 0, 60, 39
1, 217592, Tempo, 402658
1, 217667, Tempo, 401311
1, 217680, Note_on_c, 0, 60, 0
1, 217680, Note_on_c, 0, 56, 46
1, 217742, Tempo, 399973
1, 217800, Note_on_c, 0, 56, 0
1, 217800, Note_on_c, 0, 60, 39
1, 217802, Tempo, 398645
1, 217877, Tempo, 397325
1, 217920, Note_on_c, 0, 60, 0
1, 217920, Note_on_c, 0, 63, 46
1, 217952, Tempo, 396013
1, 218027, Tempo, 394711
1, 218040, Note_on_c, 0, 63, 0
1, 218040, Note_on_c, 0, 61, 46
1, 218102, Tempo, 393417
1, 218160, Note_on_c, 0, 61, 0
1, 218160, Note_on_c, 0, 60, 42
1, 218162, Tempo, 392131
1, 218167, Control_c, 0, 64, 0
1, 218192, Tempo, 389585
1, 218280, Note_on_c, 0, 58, 45
1, 218292, Note_on_c, 0, 60, 0
1, 218387, Tempo, 390854
1, 218400, Note_on_c, 0, 56, 45
1, 218412, Note_on_c, 0, 58, 0
1, 218520, Note_on_c, 0, 55, 44
1, 218532, Note_on_c, 0, 56, 0
1, 218567, Tempo, 392131
1, 218640, Note_on_c, 0, 53, 44
1, 218652, Note_on_c, 0, 55, 0
1, 218747, Tempo, 393417
1, 218760, Note_on_c, 0, 51, 43
1, 218772, Note_on_c, 0, 53, 0
1, 218880, Note_on_c, 0, 49, 43
1, 218892, Note_on_c, 0, 51, 0
1, 218942, Tempo, 394711
1, 219000, Note_on_c, 0, 48, 42
1, 219012, Note_on_c, 0, 49, 0
1, 219120, Note_on_c, 0, 46, 41
1, 219122, Tempo, 396013
1, 219132, Note_on_c, 0, 48, 0
1, 219240, Note_on_c, 0, 44, 41
1, 219252, Note_on_c, 0, 46, 0
1, 219302, Tempo, 397325
1, 219360, Note_on_c, 0, 43, 40
1, 219372, Note_on_c, 0, 44, 0
1, 219480, Note_on_c, 0, 44, 40
1, 219482, Tempo, 398645
1, 219492, Note_on_c, 0, 43, 0
1, 219512, Tempo, 401311
1, 219600, Note_on_c, 0, 46, 40
1, 219612, Note_on_c, 0, 44, 0
1, 219632, Tempo, 399973
1, 219720, Note_on_c, 0, 48, 41
1, 219732, Note_on_c, 0, 46, 0
1, 219737, Tempo, 398645
1, 219840, Note_on_c, 0, 49, 41
1, 219842, Tempo, 397325
1, 219852, Note_on_c, 0, 48, 0
1, 219960, Note_on_c, 0, 51, 42
1, 219962, Tempo, 396013
1, 219972, Note_on_c, 0, 49, 0
1, 220067, Tempo, 394711
1, 220080, Note_on_c, 0, 53, 43
1, 220092, Note_on_c, 0, 51, 0
1, 220172, Tempo, 393417
1, 220200, Note_on_c, 0, 55, 44
1, 220212, Note_on_c, 0, 53, 0
1, 220277, Tempo, 392131
1, 220320, Note_on_c, 0, 56, 45
1, 220332, Note_on_c, 0, 55, 0
1, 220397, Tempo, 390854
1, 220440, Note_on_c, 0, 58, 46
1, 220452, Note_on_c, 0, 56, 0
1, 220502, Tempo, 389585
1, 220560, Note_on_c, 0, 58, 0
1, 220560, Note_on_c, 0, 60, 47
1, 220607, Tempo, 388324
1, 220680, Note_on_c, 0, 61, 50
1, 220692, Note_on_c, 0, 60, 0
1, 220697, Tempo, 385827
1, 220727, Tempo, 387072
1, 220742, Tempo, 388324
1, 220757, Tempo, 389585
1, 220772, Tempo, 390854
1, 220800, Note_on_c, 0, 63, 52
1, 220802, Tempo, 392131
1, 220812, Note_on_c, 0, 61, 0
1, 220817, Tempo, 393417
1, 220832, Tempo, 394711
1, 220847, Tempo, 396013
1, 220862, Tempo, 397325
1, 220892, Tempo, 398645
1, 220907, Tempo, 399973
1, 220920, Note_on_c, 0, 64, 55
1, 220922, Tempo, 401311
1, 220932, Note_on_c, 0, 63, 0
1, 220937, Tempo, 402658
1, 220967, Tempo, 404013
1, 220982, Tempo, 405378
1, 220997, Tempo, 406752
1, 221030, Note_on_c, 0, 64, 0
1, 221040, Tempo, 388324
1, 221040, Note_on_c, 0, 58, 58
1, 221040, Note_on_c, 0, 61, 58
1, 221040, Note_on_c, 0, 64, 58
1, 221760, Tempo, 374977
1, 221760, Note_on_c, 0, 43, 70
1, 221880, Note_on_c, 0, 43, 0
1, 221880, Note_on_c, 0, 46, 55
1, 222000, Note_on_c, 0, 46, 0
1, 222000, Note_on_c, 0, 43, 65
1, 222120, Note_on_c, 0, 43, 0
1, 222120, Note_on_c, 0, 46, 56
1, 222240, Tempo, 389585
1, 222240, Note_on_c, 0, 46, 0
1, 222240, Note_on_c, 0, 49, 65
1, 222360, Note_on_c, 0, 49, 0
1, 222374, Control_c, 0, 64, 0
1, 222480, Tempo, 376152
1, 222480, Note_on_c, 0, 43, 71
1, 222600, Note_on_c, 0, 43, 0
1, 222600, Note_on_c, 0, 46, 54
1, 222720, Note_on_c, 0, 46, 0
1, 222720, Note_on_c, 0, 43, 63
1, 222840, Note_on_c, 0, 43, 0
1, 222840, Note_on_c, 0, 46, 54
1, 222960, Tempo, 382873
1, 222960, Note_on_c, 0, 46, 0
1, 222960, Note_on_c, 0, 49, 66
1, 223073, Control_c, 0, 64, 0
1, 223080, Note_on_c, 0, 49, 0
1, 223200, Tempo, 377335
1, 223200, Note_on_c, 0, 43, 71
1, 223320, Note_on_c, 0, 43, 0
1, 223320, Note_on_c, 0, 46, 62
1, 223440, Note_on_c, 0, 46, 0
1, 223440, Note_on_c, 0, 43, 66
1, 223560, Note_on_c, 0, 43, 0
1, 223560, Note_on_c, 0, 46, 54
1, 223680, Tempo, 392131
1, 223680, Note_on_c, 0, 46, 0
1, 223680, Note_on_c, 0, 49, 65
1, 223779, Control_c, 0, 64, 0
1, 223800, Note_on_c, 0, 49, 0
1, 223920, Note_on_c, 0, 58, 0
1, 223920, Note_on_c, 0, 61, 0
1, 223920, Note_on_c, 0, 64, 0
1, 224640, Tempo, 399973
1, 224640, Note_on_c, 0, 68, 46
1, 224642, Tempo, 405378
1, 224676, Control_c, 0, 64, 127
1, 224717, Tempo, 404013
1, 224760, Note_on_c, 0, 68, 0
1, 224760, Note_on_c, 0, 72, 39
1, 224792, Tempo, 402658
1, 224867, Tempo, 401311
1, 224880, Note_on_c, 0, 72, 0
1, 224880, Note_on_c, 0, 68, 46
1, 224942, Tempo, 399973
1, 225000, Note_on_c, 0, 68, 0
1, 225000, Note_on_c, 0, 72, 39
1, 225002, Tempo, 398645
1, 225077, Tempo, 397325
1, 225120, Note_on_c, 0, 72, 0
1, 225120, Note_on_c, 0, 75, 46
1, 225152, Tempo, 396013
1, 225227, Tempo, 394711
1, 225240, Note_on_c, 0, 75, 0
1, 225240, Note_on_c, 0, 73, 43
1, 225302, Tempo, 393417
1, 225360, Note_on_c, 0, 73, 0
1, 225360, Note_on_c, 0, 72, 45
1, 225362, Tempo, 392131
1, 225367, Control_c, 0, 64, 0
1, 225392, Tempo, 389585
1, 225480, Note_on_c, 0, 70, 45
1, 225492, Note_on_c, 0, 72, 0
1, 225587, Tempo, 390854
1, 225600, Note_on_c, 0, 70, 0
1, 225600, Note_on_c, 0, 68, 44
1, 225720, Note_on_c, 0, 68, 0
1, 225720, Note_on_c, 0, 67, 44
1, 225767, Tempo, 392131
1, 225840, Note_on_c, 0, 67, 0
1, 225840, Note_on_c, 0, 65, 43
1, 225947, Tempo, 393417
1, 225960, Note_on_c, 0, 65, 0
1, 225960, Note_on_c, 0, 63, 42
1, 226080, Note_on_c, 0, 63, 0
1, 226080, Note_on_c, 0, 61, 42
1, 226142, Tempo, 394711
1, 226200, Note_on_c, 0, 61, 0
1, 226200, Note_on_c, 0, 60, 41
1, 226320, Note_on_c, 0, 60, 0
1, 226320, Note_on_c, 0, 58, 41
1, 226322, Tempo, 396013
1, 226440, Note_on_c, 0, 58, 0
1, 226440, Note_on_c, 0, 56, 40
1, 226502, Tempo, 397325
1, 226560, Note_on_c, 0, 56, 0
1, 226560, Note_on_c, 0, 55, 40
1, 226680, Note_on_c, 0, 55, 0
1, 226680, Note_on_c, 0, 56, 40
1, 226682, Tempo, 398645
1, 226712, Tempo, 401311
1, 226800, Note_on_c, 0, 56, 0
1, 226800, Note_on_c, 0, 58, 41
1, 226832, Tempo, 399973
1, 226920, Note_on_c, 0, 58, 0
1, 226920, Note_on_c, 0, 60, 41
1, 226937, Tempo, 398645
1, 227040, Note_on_c, 0, 60, 0
1, 227040, Note_on_c, 0, 61, 42
1, 227042, Tempo, 397325
1, 227160, Note_on_c, 0, 61, 0
1, 227160, Note_on_c, 0, 63, 42
1, 227162, Tempo, 396013
1, 227267, Tempo, 394711
1, 227280, Note_on_c, 0, 63, 0
1, 227280, Note_on_c, 0, 65, 43
1, 227372, Tempo, 393417
1, 227400, Note_on_c, 0, 65, 0
1, 227400, Note_on_c, 0, 67, 44
1, 227477, Tempo, 392131
1, 227520, Note_on_c, 0, 67, 0
1, 227520, Note_on_c, 0, 68, 44
1, 227597, Tempo, 390854
1, 227640, Note_on_c, 0, 68, 0
1, 227640, Note_on_c, 0, 70, 47
1, 227702, Tempo, 389585
1, 227760, Note_on_c, 0, 70, 0
1, 227760, Note_on_c, 0, 72, 47
1, 227807, Tempo, 388324
1, 227880, Note_on_c, 0, 73, 50
1, 227892, Note_on_c, 0, 72, 0
1, 227897, Tempo, 385827
1, 227927, Tempo, 387072
1, 227942, Tempo, 388324
1, 227957, Tempo, 389585
1, 227972, Tempo, 390854
1, 228000, Note_on_c, 0, 75, 52
1, 228002, Tempo, 392131
1, 228012, Note_on_c, 0, 73, 0
1, 228017, Tempo, 393417
1, 228032, Tempo, 394711
1, 228047, Tempo, 396013
1, 228062, Tempo, 397325
1, 228092, Tempo, 398645
1, 228107, Tempo, 399973
1, 228120, Note_on_c, 0, 76, 55
1, 228122, Tempo, 401311
1, 228132, Note_on_c, 0, 75, 0
1, 228137, Tempo, 402658
1, 228167, Tempo, 404013
1, 228182, Tempo, 405378
1, 228197, Tempo, 406752
1, 228240, Tempo, 388324
1, 228240, Note_on_c, 0, 76, 0
1, 228240, Note_on_c, 0, 76, 58
1, 228240, Note_on_c, 0, 70, 58
1, 228240, Note_on_c, 0, 73, 58
1, 228960, Tempo, 374977
1, 228960, Note_on_c, 0, 55, 70
1, 228967, Control_c, 0, 64, 127
1, 229080, Note_on_c, 0, 55, 0
1, 229080, Note_on_c, 0, 58, 55
1, 229200, Note_on_c, 0, 58, 0
1, 229200, Note_on_c, 0, 55, 65
1, 229320, Note_on_c, 0, 55, 0
1, 229320, Note_on_c, 0, 58, 56
1, 229440, Tempo, 381655
1, 229440, Note_on_c, 0, 58, 0
1, 229440, Note_on_c, 0, 61, 65
1, 229560, Note_on_c, 0, 61, 0
1, 229574, Control_c, 0, 64, 0
1, 229680, Tempo, 376152
1, 229680, Note_on_c, 0, 55, 71
1, 229772, Control_c, 0, 64, 127
1, 229800, Note_on_c, 0, 55, 0
1, 229800, Note_on_c, 0, 58, 54
1, 229920, Note_on_c, 0, 58, 0
1, 229920, Note_on_c, 0, 55, 63
1, 230040, Note_on_c, 0, 55, 0
1, 230040, Note_on_c, 0, 58, 54
1, 230160, Tempo, 403470
1, 230160, Note_on_c, 0, 58, 0
1, 230160, Note_on_c, 0, 61, 66
1, 230273, Control_c, 0, 64, 0
1, 230280, Note_on_c, 0, 61, 0
1, 230400, Tempo, 377335
1, 230400, Note_on_c, 0, 55, 71
1, 230443, Control_c, 0, 64, 127
1, 230520, Note_on_c, 0, 55, 0
1, 230520, Note_on_c, 0, 58, 62
1, 230640, Note_on_c, 0, 58, 0
1, 230640, Note_on_c, 0, 55, 66
1, 230760, Note_on_c, 0, 55, 0
1, 230760, Note_on_c, 0, 58, 54
1, 230880, Tempo, 392131
1, 230880, Note_on_c, 0, 58, 0
1, 230880, Note_on_c, 0, 61, 65
1, 230979, Control_c, 0, 64, 0
1, 231000, Note_on_c, 0, 61, 0
1, 231120, Note_on_c, 0, 76, 0
1, 231120, Note_on_c, 0, 70, 0
1, 231120, Note_on_c, 0, 73, 0
1, 231840, Tempo, 392131
1, 231840, Note_on_c, 0, 79, 42
1, 231853, Tempo, 392131
1, 231904, Control_c, 0, 64, 127
1, 231928, Tempo, 390854
1, 231960, Note_on_c, 0, 79, 0
1, 231960, Note_on_c, 0, 82, 43
1, 231988, Tempo, 389585
1, 232063, Tempo, 388324
1, 232080, Note_on_c, 0, 82, 0
1, 232080, Note_on_c, 0, 85, 45
1, 232123, Tempo, 387072
1, 232198, Tempo, 385827
1, 232200, Note_on_c, 0, 85, 0
1, 232200, Note_on_c, 0, 84, 46
1, 232258, Tempo, 384591
1, 232318, Tempo, 382141
1, 232320, Note_on_c, 0, 84, 0
1, 232320, Note_on_c, 0, 82, 47
1, 232438, Tempo, 383362
1, 232440, Note_on_c, 0, 82, 0
1, 232440, Note_on_c, 0, 80, 46
1, 232543, Tempo, 384591
1, 232560, Note_on_c, 0, 80, 0
1, 232560, Note_on_c, 0, 79, 45
1, 232648, Tempo, 385827
1, 232680, Note_on_c, 0, 79, 0
1, 232680, Note_on_c, 0, 77, 45
1, 232753, Tempo, 387072
1, 232800, Note_on_c, 0, 77, 0
1, 232800, Note_on_c, 0, 76, 44
1, 232858, Tempo, 388324
1, 232920, Note_on_c, 0, 76, 0
1, 232920, Note_on_c, 0, 73, 43
1, 232963, Tempo, 389585
1, 233040, Note_on_c, 0, 73, 0
1, 233040, Note_on_c, 0, 72, 42
1, 233068, Tempo, 390854
1, 233160, Note_on_c, 0, 72, 0
1, 233160, Note_on_c, 0, 73, 41
1, 233173, Tempo, 392131
1, 233278, Tempo, 393417
1, 233280, Note_on_c, 0, 73, 0
1, 233280, Note_on_c, 0, 76, 43
1, 233308, Tempo, 392131
1, 233383, Tempo, 390854
1, 233400, Note_on_c, 0, 76, 0
1, 233400, Note_on_c, 0, 77, 45
1, 233458, Tempo, 389585
1, 233518, Tempo, 388324
1, 233520, Note_on_c, 0, 77, 0
1, 233520, Note_on_c, 0, 79, 47
1, 233593, Tempo, 387072
1, 233640, Note_on_c, 0, 79, 0
1, 233640, Note_on_c, 0, 80, 48
1, 233653, Tempo, 385827
1, 233728, Tempo, 384591
1, 233760, Note_on_c, 0, 80, 0
1, 233760, Note_on_c, 0, 82, 49
1, 233788, Tempo, 382141
1, 233818, Tempo, 383362
1, 233848, Tempo, 384591
1, 233878, Tempo, 385827
1, 233880, Note_on_c, 0, 82, 0
1, 233880, Note_on_c, 0, 84, 49
1, 233893, Tempo, 387072
1, 233923, Tempo, 388324
1, 233953, Tempo, 389585
1, 233983, Tempo, 390854
1, 233998, Tempo, 392131
1, 234000, Tempo, 388324
1, 234000, Note_on_c, 0, 84, 0
1, 234000, Note_on_c, 0, 85, 53
1, 234000, Note_on_c, 0, 82, 53
1, 234000, Note_on_c, 0, 79, 53
1, 234000, Control_c, 0, 64, 0
1, 234187, Control_c, 0, 64, 127
1, 234720, Tempo, 374977
1, 234720, Note_on_c, 0, 64, 42
1, 234840, Note_on_c, 0, 64, 0
1, 234840, Note_on_c, 0, 67, 33
1, 234960, Note_on_c, 0, 67, 0
1, 234960, Note_on_c, 0, 64, 39
1, 235080, Note_on_c, 0, 64, 0
1, 235080, Note_on_c, 0, 67, 33
1, 235200, Tempo, 389585
1, 235200, Note_on_c, 0, 67, 0
1, 235200, Note_on_c, 0, 70, 39
1, 235320, Note_on_c, 0, 70, 0
1, 235334, Control_c, 0, 64, 0
1, 235440, Tempo, 376152
1, 235440, Note_on_c, 0, 64, 42
1, 235532, Control_c, 0, 64, 127
1, 235560, Note_on_c, 0, 64, 0
1, 235560, Note_on_c, 0, 67, 32
1, 235680, Note_on_c, 0, 67, 0
1, 235680, Note_on_c, 0, 64, 37
1, 235800, Note_on_c, 0, 64, 0
1, 235800, Note_on_c, 0, 67, 32
1, 235920, Tempo, 388324
1, 235920, Note_on_c, 0, 67, 0
1, 235920, Note_on_c, 0, 70, 39
1, 236033, Control_c, 0, 64, 0
1, 236040, Note_on_c, 0, 70, 0
1, 236160, Note_on_c, 0, 79, 0
1, 236160, Note_on_c, 0, 82, 0
1, 236160, Note_on_c, 0, 85, 0
1, 236880, Tempo, 392131
1, 236880, Note_on_c, 0, 88, 42
1, 236893, Tempo, 392131
1, 236937, Control_c, 0, 64, 127
1, 236968, Tempo, 390854
1, 237000, Note_on_c, 0, 88, 0
1, 237000, Note_on_c, 0, 91, 43
1, 237028, Tempo, 389585
1, 237103, Tempo, 388324
1, 237120, Note_on_c, 0, 91, 0
1, 237120, Note_on_c, 0, 94, 45
1, 237163, Tempo, 387072
1, 237238, Tempo, 385827
1, 237240, Note_on_c, 0, 94, 0
1, 237240, Note_on_c, 0, 92, 46
1, 237298, Tempo, 384591
1, 237358, Tempo, 382141
1, 237360, Note_on_c, 0, 92, 0
1, 237360, Note_on_c, 0, 91, 47
1, 237478, Tempo, 383362
1, 237480, Note_on_c, 0, 91, 0
1, 237480, Note_on_c, 0, 89, 46
1, 237583, Tempo, 384591
1, 237600, Note_on_c, 0, 89, 0
1, 237600, Note_on_c, 0, 88, 45
1, 237688, Tempo, 385827
1, 237720, Note_on_c, 0, 88, 0
1, 237720, Note_on_c, 0, 85, 45
1, 237793, Tempo, 387072
1, 237840, Note_on_c, 0, 85, 0
1, 237840, Note_on_c, 0, 84, 44
1, 237898, Tempo, 388324
1, 237960, Note_on_c, 0, 84, 0
1, 237960, Note_on_c, 0, 82, 43
1, 238003, Tempo, 389585
1, 238080, Note_on_c, 0, 82, 0
1, 238080, Note_on_c, 0, 81, 42
1, 238108, Tempo, 390854
1, 238200, Note_on_c, 0, 81, 0
1, 238200, Note_on_c, 0, 82, 41
1, 238213, Tempo, 392131
1, 238318, Tempo, 393417
1, 238320, Note_on_c, 0, 82, 0
1, 238320, Note_on_c, 0, 84, 43
1, 238348, Tempo, 392131
1, 238423, Tempo, 390854
1, 238440, Note_on_c, 0, 84, 0
1, 238440, Note_on_c, 0, 85, 45
1, 238498, Tempo, 389585
1, 238558, Tempo, 388324
1, 238560, Note_on_c, 0, 85, 0
1, 238560, Note_on_c, 0, 88, 47
1, 238633, Tempo, 387072
1, 238680, Note_on_c, 0, 88, 0
1, 238680, Note_on_c, 0, 89, 48
1, 238693, Tempo, 385827
1, 238768, Tempo, 384591
1, 238800, Note_on_c, 0, 89, 0
1, 238800, Note_on_c, 0, 91, 49
1, 238828, Tempo, 382141
1, 238858, Tempo, 383362
1, 238888, Tempo, 384591
1, 238918, Tempo, 385827
1, 238920, Note_on_c, 0, 91, 0
1, 238920, Note_on_c, 0, 92, 49
1, 238933, Tempo, 387072
1, 238963, Tempo, 388324
1, 238993, Tempo, 389585
1, 239023, Tempo, 390854
1, 239038, Tempo, 392131
1, 239040, Tempo, 388324
1, 239040, Note_on_c, 0, 92, 0
1, 239040, Note_on_c, 0, 88, 53
1, 239040, Note_on_c, 0, 91, 53
1, 239040, Note_on_c, 0, 94, 53
1, 239056, Control_c, 0, 64, 0
1, 239187, Control_c, 0, 64, 127
1, 239760, Tempo, 374977
1, 239760, Note_on_c, 0, 72, 42
1, 239880, Note_on_c, 0, 72, 0
1, 239880, Note_on_c, 0, 79, 33
1, 240000, Note_on_c, 0, 79, 0
1, 240000, Note_on_c, 0, 72, 39
1, 240120, Note_on_c, 0, 72, 0
1, 240120, Note_on_c, 0, 79, 33
1, 240240, Tempo, 389585
1, 240240, Note_on_c, 0, 79, 0
1, 240240, Note_on_c, 0, 82, 39
1, 240360, Note_on_c, 0, 82, 0
1, 240374, Control_c, 0, 64, 0
1, 240480, Tempo, 371035
1, 240480, Note_on_c, 0, 72, 42
1, 240572, Control_c, 0, 64, 127
1, 240600, Note_on_c, 0, 72, 0
1, 240600, Note_on_c, 0, 79, 32
1, 240720, Note_on_c, 0, 79, 0
1, 240720, Note_on_c, 0, 72, 37
1, 240840, Note_on_c, 0, 72, 0
1, 240840, Note_on_c, 0, 79, 32
1, 240960, Tempo, 388324
1, 240960, Note_on_c, 0, 79, 0
1, 240960, Note_on_c, 0, 82, 39
1, 241073, Control_c, 0, 64, 0
1, 241080, Note_on_c, 0, 82, 0
1, 241200, Note_on_c, 0, 94, 0
1, 241200, Note_on_c, 0, 91, 0
1, 241200, Note_on_c, 0, 88, 0
1, 241920, Tempo, 388324
1, 241920, Note_on_c, 0, 77, 48
1, 241920, Note_on_c, 0, 80, 48
1, 241920, Note_on_c, 0, 83, 48
1, 241920, Control_c, 0, 64, 0
1, 242107, Control_c, 0, 64, 127
1, 242640, Tempo, 382141
1, 242640, Note_on_c, 0, 60, 35
1, 242760, Note_on_c, 0, 60, 0
1, 242760, Note_on_c, 0, 68, 28
1, 242880, Note_on_c, 0, 68, 0
1, 242880, Note_on_c, 0, 60, 33
1, 243000, Note_on_c, 0, 60, 0
1, 243000, Note_on_c, 0, 68, 28
1, 243120, Tempo, 408136
1, 243120, Note_on_c, 0, 68, 0
1, 243120, Note_on_c, 0, 71, 33
1, 243240, Note_on_c, 0, 71, 0
1, 243254, Control_c, 0, 64, 0
1, 243360, Tempo, 375681
1, 243360, Note_on_c, 0, 60, 35
1, 243452, Control_c, 0, 64, 127
1, 243480, Note_on_c, 0, 60, 0
1, 243480, Note_on_c, 0, 68, 27
1, 243600, Note_on_c, 0, 68, 0
1, 243600, Note_on_c, 0, 60, 31
1, 243720, Note_on_c, 0, 60, 0
1, 243720, Note_on_c, 0, 68, 27
1, 243840, Tempo, 405378
1, 243840, Note_on_c, 0, 68, 0
1, 243840, Note_on_c, 0, 71, 33
1, 243953, Control_c, 0, 64, 0
1, 243960, Note_on_c, 0, 71, 0
1, 244080, Note_on_c, 0, 83, 0
1, 244080, Note_on_c, 0, 80, 0
1, 244080, Note_on_c, 0, 77, 0
1, 244800, Tempo, 413765
1, 244800, Note_on_c, 0, 72, 38
1, 244800, Note_on_c, 0, 67, 38
1, 244800, Note_on_c, 0, 64, 38
1, 244800, Control_c, 0, 64, 0
1, 244987, Control_c, 0, 64, 127
1, 245520, Tempo, 419551
1, 245520, Note_on_c, 0, 48, 28
1, 245640, Note_on_c, 0, 48, 0
1, 245640, Note_on_c, 0, 55, 22
1, 245760, Note_on_c, 0, 55, 0
1, 245760, Note_on_c, 0, 48, 26
1, 245880, Note_on_c, 0, 48, 0
1, 245880, Note_on_c, 0, 55, 22
1, 246000, Tempo, 446063
1, 246000, Note_on_c, 0, 55, 0
1, 246000, Note_on_c, 0, 60, 26
1, 246233, Tempo, 447728
1, 246240, Note_on_c, 0, 60, 0
1, 246240, Note_on_c, 0, 48, 28
1, 246240, Control_c, 0, 64, 0
1, 246263, Tempo, 449405
1, 246293, Tempo, 451094
1, 246308, Tempo, 456239
1, 246323, Tempo, 457980
1, 246332, Control_c, 0, 64, 127
1, 246338, Tempo, 459735
1, 246353, Tempo, 461503
1, 246360, Note_on_c, 0, 48, 0
1, 246360, Note_on_c, 0, 55, 21
1, 246368, Tempo, 463285
1, 246383, Tempo, 465080
1, 246398, Tempo, 466890
1, 246413, Tempo, 468713
1, 246428, Tempo, 470551
1, 246443, Tempo, 472404
1, 246458, Tempo, 474271
1, 246473, Tempo, 476153
1, 246480, Note_on_c, 0, 55, 0
1, 246480, Note_on_c, 0, 48, 24
1, 246488, Tempo, 478050
1, 246503, Tempo, 479962
1, 246518, Tempo, 481889
1, 246533, Tempo, 483832
1, 246548, Tempo, 485791
1, 246563, Tempo, 487765
1, 246578, Tempo, 489756
1, 246593, Tempo, 491763
1, 246600, Note_on_c, 0, 48, 0
1, 246600, Note_on_c, 0, 55, 21
1, 246608, Tempo, 493787
1, 246623, Tempo, 495827
1, 246638, Tempo, 497884
1, 246653, Tempo, 499958
1, 246668, Tempo, 502050
1, 246683, Tempo, 504159
1, 246698, Tempo, 506286
1, 246713, Tempo, 508431
1, 246720, Tempo, 3107198
1, 246720, Note_on_c, 0, 55, 0
1, 246720, Note_on_c, 0, 60, 26
1, 246960, Tempo, 420433
1, 246960, Note_on_c, 0, 60, 0
1, 246960, Note_on_c, 0, 64, 0
1, 246960, Note_on_c, 0, 67, 0
1, 246960, Note_on_c, 0, 72, 0
1, 246960, Note_on_c, 0, 72, 51
1, 246960, Control_c, 0, 64, 0
1, 247020, Note_on_c, 0, 72, 0
1, 247080, Tempo, 438885
1, 247200, Tempo, 427930
1, 247200, Note_on_c, 0, 60, 43
1, 247260, Note_on_c, 0, 60, 0
1, 247320, Tempo, 442119
1, 247440, Note_on_c, 0, 72, 51
1, 247500, Note_on_c, 0, 72, 0
1, 247680, Tempo, 429461
1, 247680, Note_on_c, 0, 60, 44
1, 247740, Note_on_c, 0, 60, 0
1, 247800, Tempo, 443754
1, 247920, Note_on_c, 0, 72, 51
1, 247980, Note_on_c, 0, 72, 0
1, 248160, Tempo, 456274
1, 248160, Note_on_c, 0, 60, 42
1, 248220, Note_on_c, 0, 60, 0
1, 248400, Tempo, 424899
1, 248400, Note_on_c, 0, 48, 47
1, 248460, Note_on_c, 0, 48, 0
1, 248520, Tempo, 443754
1, 248640, Tempo, 431004
1, 248640, Note_on_c, 0, 60, 39
1, 248700, Note_on_c, 0, 60, 0
1, 248760, Tempo, 445401
1, 248880, Note_on_c, 0, 48, 47
1, 248940, Note_on_c, 0, 48, 0
1, 249120, Tempo, 432557
1, 249120, Note_on_c, 0, 60, 39
1, 249180, Note_on_c, 0, 60, 0
1, 249240, Tempo, 448732
1, 249360, Note_on_c, 0, 48, 47
1, 249420, Note_on_c, 0, 48, 0
1, 249600, Tempo, 454545
1, 249600, Note_on_c, 0, 60, 43
1, 249660, Note_on_c, 0, 60, 0
1, 249840, Tempo, 426409
1, 249840, Note_on_c, 0, 73, 40
1, 249840, Note_on_c, 0, 52, 35
1, 249840, Note_on_c, 0, 48, 29
1, 249900, Note_on_c, 0, 48, 0
1, 249900, Note_on_c, 0, 52, 0
1, 249900, Note_on_c, 0, 73, 0
1, 249900, Note_on_c, 0, 72, 51
1, 249960, Note_on_c, 0, 72, 0
1, 250020, Tempo, 509165
1, 250080, Tempo, 441144
1, 250080, Note_on_c, 0, 72, 45
1, 250080, Note_on_c, 0, 60, 30
1, 250140, Note_on_c, 0, 60, 0
1, 250200, Note_on_c, 0, 72, 0
1, 250200, Note_on_c, 0, 73, 39
1, 250320, Tempo, 450281
1, 250320, Note_on_c, 0, 73, 0
1, 250320, Note_on_c, 0, 72, 46
1, 250320, Note_on_c, 0, 52, 30
1, 250320, Note_on_c, 0, 48, 25
1, 250380, Note_on_c, 0, 48, 0
1, 250380, Note_on_c, 0, 52, 0
1, 250380, Note_on_c, 0, 72, 0
1, 250500, Tempo, 471735
1, 250560, Tempo, 450281
1, 250560, Note_on_c, 0, 72, 49
1, 250560, Note_on_c, 0, 60, 35
1, 250620, Note_on_c, 0, 60, 0
1, 250620, Note_on_c, 0, 72, 0
1, 250800, Tempo, 441144
1, 250800, Note_on_c, 0, 72, 44
1, 250800, Note_on_c, 0, 52, 31
1, 250800, Note_on_c, 0, 48, 26
1, 250860, Note_on_c, 0, 48, 0
1, 250860, Note_on_c, 0, 52, 0
1, 250860, Note_on_c, 0, 72, 0
1, 251040, Note_on_c, 0, 72, 42
1, 251040, Note_on_c, 0, 60, 31
1, 251100, Note_on_c, 0, 60, 0
1, 251100, Note_on_c, 0, 72, 0
1, 251220, Tempo, 459770
1, 251280, Tempo, 424899
1, 251280, Note_on_c, 0, 73, 40
1, 251280, Note_on_c, 0, 49, 29
1, 251280, Note_on_c, 0, 53, 35
1, 251340, Note_on_c, 0, 53, 0
1, 251340, Note_on_c, 0, 49, 0
1, 251340, Note_on_c, 0, 73, 0
1, 251340, Note_on_c, 0, 72, 51
1, 251400, Note_on_c, 0, 72, 0
1, 251460, Tempo, 509165
1, 251520, Tempo, 441144
1, 251520, Note_on_c, 0, 72, 45
1, 251520, Note_on_c, 0, 60, 30
1, 251580, Note_on_c, 0, 60, 0
1, 251640, Note_on_c, 0, 72, 0
1, 251640, Note_on_c, 0, 73, 39
1, 251760, Tempo, 450281
1, 251760, Note_on_c, 0, 73, 0
1, 251760, Note_on_c, 0, 72, 46
1, 251760, Note_on_c, 0, 53, 30
1, 251760, Note_on_c, 0, 49, 25
1, 251820, Note_on_c, 0, 49, 0
1, 251820, Note_on_c, 0, 53, 0
1, 251820, Note_on_c, 0, 72, 0
1, 251940, Tempo, 471735
1, 252000, Tempo, 450281
1, 252000, Note_on_c, 0, 72, 49
1, 252000, Note_on_c, 0, 60, 35
1, 252060, Note_on_c, 0, 60, 0
1, 252060, Note_on_c, 0, 72, 0
1, 252240, Tempo, 441144
1, 252240, Note_on_c, 0, 72, 44
1, 252240, Note_on_c, 0, 49, 26
1, 252240, Note_on_c, 0, 53, 31
1, 252300, Note_on_c, 0, 53, 0
1, 252300, Note_on_c, 0, 49, 0
1, 252300, Note_on_c, 0, 72, 0
1, 252480, Note_on_c, 0, 72, 42
1, 252480, Note_on_c, 0, 60, 31
1, 252540, Note_on_c, 0, 60, 0
1, 252540, Note_on_c, 0, 72, 0
1, 252660, Tempo, 480000
1, 252720, Tempo, 415225
1, 252720, Note_on_c, 0, 73, 40
1, 252720, Note_on_c, 0, 55, 35
1, 252720, Note_on_c, 0, 52, 29
1, 252780, Note_on_c, 0, 52, 0
1, 252780, Note_on_c, 0, 55, 0
1, 252780, Note_on_c, 0, 73, 0
1, 252780, Note_on_c, 0, 72, 51
1, 252840, Note_on_c, 0, 72, 0
1, 252900, Tempo, 509165
1, 252960, Tempo, 441144
1, 252960, Note_on_c, 0, 72, 45
1, 252960, Note_on_c, 0, 60, 30
1, 253020, Note_on_c, 0, 60, 0
1, 253080, Note_on_c, 0, 72, 0
1, 253080, Note_on_c, 0, 73, 39
1, 253200, Tempo, 450281
1, 253200, Note_on_c, 0, 73, 0
1, 253200, Note_on_c, 0, 72, 46
1, 253200, Note_on_c, 0, 52, 25
1, 253200, Note_on_c, 0, 55, 30
1, 253260, Note_on_c, 0, 55, 0
1, 253260, Note_on_c, 0, 52, 0
1, 253260, Note_on_c, 0, 72, 0
1, 253380, Tempo, 471735
1, 253440, Tempo, 452148
1, 253440, Note_on_c, 0, 73, 40
1, 253440, Note_on_c, 0, 56, 35
1, 253440, Note_on_c, 0, 53, 29
1, 253500, Note_on_c, 0, 53, 0
1, 253500, Note_on_c, 0, 56, 0
1, 253500, Note_on_c, 0, 73, 0
1, 253500, Note_on_c, 0, 72, 51
1, 253560, Note_on_c, 0, 72, 0
1, 253620, Tempo, 509165
1, 253680, Tempo, 441144
1, 253680, Note_on_c, 0, 72, 45
1, 253680, Note_on_c, 0, 60, 30
1, 253740, Note_on_c, 0, 60, 0
1, 253800, Note_on_c, 0, 72, 0
1, 253800, Note_on_c, 0, 73, 39
1, 253920, Tempo, 450281
1, 253920, Note_on_c, 0, 73, 0
1, 253920, Note_on_c, 0, 72, 46
1, 253920, Note_on_c, 0, 53, 25
1, 253920, Note_on_c, 0, 56, 30
1, 253980, Note_on_c, 0, 56, 0
1, 253980, Note_on_c, 0, 53, 0
1, 253980, Note_on_c, 0, 72, 0
1, 254160, Tempo, 454545
1, 254160, Note_on_c, 0, 72, 51
1, 254160, Note_on_c, 0, 58, 33
1, 254160, Note_on_c, 0, 55, 28
1, 254187, Tempo, 454545
1, 254220, Note_on_c, 0, 55, 0
1, 254220, Note_on_c, 0, 58, 0
1, 254220, Note_on_c, 0, 72, 0
1, 254277, Tempo, 456274
1, 254367, Tempo, 458015
1, 254400, Note_on_c, 0, 72, 52
1, 254400, Note_on_c, 0, 55, 30
1, 254400, Note_on_c, 0, 58, 30
1, 254400, Note_on_c, 0, 60, 36
1, 254457, Tempo, 459770
1, 254460, Note_on_c, 0, 60, 0
1, 254460, Note_on_c, 0, 72, 0
1, 254460, Note_on_c, 0, 55, 0
1, 254460, Note_on_c, 0, 58, 0
1, 254547, Tempo, 461538
1, 254637, Tempo, 463320
1, 254640, Note_on_c, 0, 72, 54
1, 254640, Note_on_c, 0, 55, 34
1, 254640, Note_on_c, 0, 61, 40
1, 254640, Note_on_c, 0, 58, 34
1, 254700, Note_on_c, 0, 58, 0
1, 254700, Note_on_c, 0, 72, 0
1, 254700, Note_on_c, 0, 55, 0
1, 254700, Note_on_c, 0, 61, 0
1, 254727, Tempo, 465116
1, 254817, Tempo, 466926
1, 254880, Note_on_c, 0, 72, 56
1, 254880, Note_on_c, 0, 55, 36
1, 254880, Note_on_c, 0, 58, 36
1, 254880, Note_on_c, 0, 62, 43
1, 254907, Tempo, 468750
1, 254940, Note_on_c, 0, 62, 0
1, 254940, Note_on_c, 0, 72, 0
1, 254940, Note_on_c, 0, 55, 0
1, 254940, Note_on_c, 0, 58, 0
1, 254952, Tempo, 468750
1, 254982, Tempo, 470588
1, 255012, Tempo, 472441
1, 255042, Tempo, 474308
1, 255072, Tempo, 476190
1, 255102, Tempo, 478088
1, 255120, Note_on_c, 0, 72, 56
1, 255120, Note_on_c, 0, 63, 40
1, 255120, Note_on_c, 0, 55, 34
1, 255120, Note_on_c, 0, 58, 34
1, 255132, Tempo, 480000
1, 255162, Tempo, 481928
1, 255180, Note_on_c, 0, 58, 0
1, 255180, Note_on_c, 0, 72, 0
1, 255180, Note_on_c, 0, 63, 0
1, 255180, Note_on_c, 0, 55, 0
1, 255192, Tempo, 483871
1, 255222, Tempo, 485830
1, 255252, Tempo, 487805
1, 255297, Tempo, 489796
1, 255327, Tempo, 491803
1, 255357, Tempo, 493827
1, 255360, Tempo, 558919
1, 255360, Note_on_c, 0, 72, 53
1, 255360, Note_on_c, 0, 55, 32
1, 255360, Note_on_c, 0, 64, 38
1, 255360, Note_on_c, 0, 58, 32
1, 255420, Note_on_c, 0, 58, 0
1, 255420, Note_on_c, 0, 72, 0
1, 255420, Note_on_c, 0, 55, 0
1, 255420, Note_on_c, 0, 64, 0
1, 255597, Tempo, 510638
1, 255600, Tempo, 437031
1, 255600, Note_on_c, 0, 73, 40
1, 255600, Note_on_c, 0, 53, 35
1, 255660, Note_on_c, 0, 53, 0
1, 255660, Note_on_c, 0, 73, 0
1, 255660, Note_on_c, 0, 72, 51
1, 255720, Note_on_c, 0, 72, 0
1, 255780, Tempo, 492126
1, 255840, Tempo, 426379
1, 255840, Note_on_c, 0, 72, 45
1, 255840, Note_on_c, 0, 60, 25
1, 255840, Note_on_c, 0, 65, 30
1, 255840, Note_on_c, 0, 56, 25
1, 255900, Note_on_c, 0, 56, 0
1, 255900, Note_on_c, 0, 65, 0
1, 255900, Note_on_c, 0, 60, 0
1, 255960, Note_on_c, 0, 72, 0
1, 255960, Note_on_c, 0, 73, 39
1, 256080, Tempo, 435224
1, 256080, Note_on_c, 0, 73, 0
1, 256080, Note_on_c, 0, 72, 46
1, 256080, Note_on_c, 0, 53, 30
1, 256140, Note_on_c, 0, 53, 0
1, 256140, Note_on_c, 0, 72, 0
1, 256260, Tempo, 455962
1, 256320, Tempo, 435224
1, 256320, Note_on_c, 0, 73, 40
1, 256320, Note_on_c, 0, 60, 29
1, 256320, Note_on_c, 0, 65, 35
1, 256320, Note_on_c, 0, 56, 29
1, 256380, Note_on_c, 0, 56, 0
1, 256380, Note_on_c, 0, 73, 0
1, 256380, Note_on_c, 0, 60, 0
1, 256380, Note_on_c, 0, 65, 0
1, 256380, Note_on_c, 0, 72, 49
1, 256440, Note_on_c, 0, 72, 0
1, 256560, Tempo, 426379
1, 256560, Note_on_c, 0, 72, 44
1, 256560, Note_on_c, 0, 53, 31
1, 256620, Note_on_c, 0, 53, 0
1, 256680, Note_on_c, 0, 72, 0
1, 256680, Note_on_c, 0, 73, 36
1, 256800, Note_on_c, 0, 73, 0
1, 256800, Note_on_c, 0, 72, 42
1, 256800, Note_on_c, 0, 65, 31
1, 256800, Note_on_c, 0, 60, 26
1, 256800, Note_on_c, 0, 56, 26
1, 256860, Note_on_c, 0, 56, 0
1, 256860, Note_on_c, 0, 72, 0
1, 256860, Note_on_c, 0, 65, 0
1, 256860, Note_on_c, 0, 60, 0
1, 256980, Tempo, 645161
1, 257040, Tempo, 430108
1, 257040, Note_on_c, 0, 72, 40
1, 257040, Note_on_c, 0, 53, 35
1, 257100, Note_on_c, 0, 53, 0
1, 257160, Note_on_c, 0, 72, 0
1, 257160, Note_on_c, 0, 71, 52
1, 257270, Note_on_c, 0, 71, 0
1, 257280, Tempo, 421053
1, 257280, Note_on_c, 0, 71, 47
1, 257280, Note_on_c, 0, 62, 31
1, 257280, Note_on_c, 0, 59, 26
1, 257280, Note_on_c, 0, 56, 26
1, 257340, Note_on_c, 0, 56, 0
1, 257340, Note_on_c, 0, 59, 0
1, 257340, Note_on_c, 0, 62, 0
1, 257400, Note_on_c, 0, 71, 0
1, 257400, Note_on_c, 0, 74, 40
1, 257520, Tempo, 435224
1, 257520, Note_on_c, 0, 74, 0
1, 257520, Note_on_c, 0, 72, 45
1, 257520, Note_on_c, 0, 53, 31
1, 257580, Note_on_c, 0, 53, 0
1, 257640, Note_on_c, 0, 72, 0
1, 257640, Note_on_c, 0, 71, 36
1, 257700, Tempo, 470146
1, 257760, Tempo, 494438
1, 257760, Note_on_c, 0, 71, 0
1, 257760, Note_on_c, 0, 72, 46
1, 257760, Note_on_c, 0, 48, 35
1, 257820, Note_on_c, 0, 48, 0
1, 257820, Note_on_c, 0, 72, 0
1, 258000, Tempo, 431624
1, 258000, Note_on_c, 0, 67, 39
1, 258000, Note_on_c, 0, 60, 32
1, 258000, Note_on_c, 0, 52, 27
1, 258000, Note_on_c, 0, 55, 27
1, 258060, Note_on_c, 0, 55, 0
1, 258060, Note_on_c, 0, 52, 0
1, 258060, Note_on_c, 0, 60, 0
1, 258240, Note_on_c, 0, 48, 32
1, 258300, Note_on_c, 0, 48, 0
1, 258360, Tempo, 469594
1, 258480, Tempo, 428143
1, 258480, Note_on_c, 0, 67, 0
1, 258480, Note_on_c, 0, 72, 46
1, 258480, Note_on_c, 0, 60, 35
1, 258480, Note_on_c, 0, 55, 29
1, 258480, Note_on_c, 0, 52, 29
1, 258540, Note_on_c, 0, 52, 0
1, 258540, Note_on_c, 0, 72, 0
1, 258540, Note_on_c, 0, 60, 0
1, 258540, Note_on_c, 0, 55, 0
1, 258720, Note_on_c, 0, 67, 39
1, 258720, Note_on_c, 0, 48, 31
1, 258780, Note_on_c, 0, 48, 0
1, 258780, Note_on_c, 0, 67, 0
1, 258960, Note_on_c, 0, 72, 46
1, 258960, Note_on_c, 0, 55, 26
1, 258960, Note_on_c, 0, 52, 26
1, 258960, Note_on_c, 0, 60, 31
1, 259020, Note_on_c, 0, 60, 0
1, 259020, Note_on_c, 0, 72, 0
1, 259020, Note_on_c, 0, 55, 0
1, 259020, Note_on_c, 0, 52, 0
1, 259200, Note_on_c, 0, 70, 46
1, 259200, Note_on_c, 0, 49, 35
1, 259260, Note_on_c, 0, 49, 0
1, 259440, Tempo, 419610
1, 259440, Note_on_c, 0, 70, 0
1, 259440, Note_on_c, 0, 68, 39
1, 259440, Note_on_c, 0, 53, 26
1, 259440, Note_on_c, 0, 61, 31
1, 259479, Control_c, 0, 64, 127
1, 259500, Note_on_c, 0, 61, 0
1, 259500, Note_on_c, 0, 53, 0
1, 259560, Note_on_c, 0, 68, 0
1, 259560, Note_on_c, 0, 67, 39
1, 259680, Note_on_c, 0, 67, 0
1, 259680, Note_on_c, 0, 65, 43
1, 259680, Note_on_c, 0, 49, 31
1, 259740, Note_on_c, 0, 49, 0
1, 259800, Tempo, 450079
1, 259920, Tempo, 428143
1, 259920, Note_on_c, 0, 65, 0
1, 259920, Note_on_c, 0, 67, 46
1, 259920, Note_on_c, 0, 46, 35
1, 259920, Control_c, 0, 64, 0
1, 260017, Control_c, 0, 64, 127
1, 260040, Note_on_c, 0, 67, 0
1, 260040, Note_on_c, 0, 70, 38
1, 260160, Note_on_c, 0, 70, 0
1, 260160, Note_on_c, 0, 46, 0
1, 260160, Note_on_c, 0, 67, 46
1, 260160, Note_on_c, 0, 55, 28
1, 260160, Note_on_c, 0, 58, 33
1, 260280, Note_on_c, 0, 67, 0
1, 260280, Note_on_c, 0, 70, 40
1, 260400, Tempo, 417944
1, 260400, Note_on_c, 0, 70, 0
1, 260400, Note_on_c, 0, 58, 0
1, 260400, Note_on_c, 0, 55, 0
1, 260400, Note_on_c, 0, 64, 46
1, 260400, Note_on_c, 0, 48, 28
1, 260400, Note_on_c, 0, 58, 33
1, 260400, Note_on_c, 0, 55, 28
1, 260520, Tempo, 437031
1, 260520, Note_on_c, 0, 55, 0
1, 260520, Note_on_c, 0, 64, 0
1, 260520, Note_on_c, 0, 48, 0
1, 260520, Note_on_c, 0, 58, 0
1, 260520, Note_on_c, 0, 67, 40
1, 260640, Tempo, 419610
1, 260640, Note_on_c, 0, 67, 0
1, 260640, Note_on_c, 0, 65, 46
1, 260640, Note_on_c, 0, 53, 34
1, 260640, Note_on_c, 0, 56, 40
1, 260654, Control_c, 0, 64, 0
1, 260726, Tempo, 419610
1, 260760, Note_on_c, 0, 65, 0
1, 260760, Note_on_c, 0, 68, 37
1, 260788, Control_c, 0, 64, 127
1, 260794, Tempo, 417944
1, 260851, Tempo, 416291
1, 260880, Note_on_c, 0, 68, 0
1, 260880, Note_on_c, 0, 72, 42
1, 260918, Tempo, 414651
1, 260976, Tempo, 412996
1, 261000, Note_on_c, 0, 72, 0
1, 261000, Note_on_c, 0, 77, 47
1, 261034, Tempo, 411382
1, 261101, Tempo, 409808
1, 261120, Note_on_c, 0, 77, 0
1, 261120, Note_on_c, 0, 56, 0
1, 261120, Note_on_c, 0, 53, 0
1, 261120, Note_on_c, 0, 80, 52
1, 261158, Tempo, 408219
1, 261216, Tempo, 406614
1, 261240, Note_on_c, 0, 80, 0
1, 261240, Note_on_c, 0, 82, 57
1, 261254, Tempo, 426379
1, 261360, Tempo, 437031
1, 261360, Note_on_c, 0, 82, 0
1, 261360, Note_on_c, 0, 84, 65
1, 261360, Note_on_c, 0, 53, 35
1, 261360, Control_c, 0, 64, 0
1, 261420, Note_on_c, 0, 53, 0
1, 261420, Note_on_c, 0, 84, 0
1, 261540, Tempo, 485358
1, 261600, Tempo, 426379
1, 261600, Note_on_c, 0, 84, 54
1, 261600, Note_on_c, 0, 60, 25
1, 261600, Note_on_c, 0, 56, 25
1, 261600, Note_on_c, 0, 65, 30
1, 261660, Note_on_c, 0, 65, 0
1, 261660, Note_on_c, 0, 56, 0
1, 261660, Note_on_c, 0, 60, 0
1, 261720, Note_on_c, 0, 84, 0
1, 261720, Note_on_c, 0, 85, 46
1, 261840, Tempo, 433401
1, 261840, Note_on_c, 0, 85, 0
1, 261840, Note_on_c, 0, 84, 55
1, 261840, Note_on_c, 0, 53, 30
1, 261900, Note_on_c, 0, 53, 0
1, 261900, Note_on_c, 0, 84, 0
1, 261960, Tempo, 458435
1, 262020, Tempo, 450079
1, 262080, Tempo, 416060
1, 262080, Note_on_c, 0, 85, 48
1, 262080, Note_on_c, 0, 65, 35
1, 262080, Note_on_c, 0, 56, 29
1, 262080, Note_on_c, 0, 60, 29
1, 262140, Note_on_c, 0, 60, 0
1, 262140, Note_on_c, 0, 85, 0
1, 262140, Note_on_c, 0, 65, 0
1, 262140, Note_on_c, 0, 56, 0
1, 262140, Note_on_c, 0, 84, 64
1, 262200, Tempo, 442119
1, 262200, Note_on_c, 0, 84, 0
1, 262320, Tempo, 428143
1, 262320, Note_on_c, 0, 84, 52
1, 262320, Note_on_c, 0, 53, 31
1, 262380, Note_on_c, 0, 53, 0
1, 262440, Note_on_c, 0, 84, 0
1, 262440, Note_on_c, 0, 85, 43
1, 262560, Note_on_c, 0, 85, 0
1, 262560, Note_on_c, 0, 84, 50
1, 262560, Note_on_c, 0, 56, 26
1, 262560, Note_on_c, 0, 60, 26
1, 262560, Note_on_c, 0, 65, 31
1, 262620, Note_on_c, 0, 65, 0
1, 262620, Note_on_c, 0, 84, 0
1, 262620, Note_on_c, 0, 56, 0
1, 262620, Note_on_c, 0, 60, 0
1, 262740, Tempo, 487329
1, 262800, Tempo, 435224
1, 262800, Note_on_c, 0, 84, 61
1, 262800, Note_on_c, 0, 53, 35
1, 262837, Control_c, 0, 64, 127
1, 262860, Note_on_c, 0, 53, 0
1, 262920, Tempo, 429861
1, 262920, Note_on_c, 0, 84, 0
1, 262920, Note_on_c, 0, 83, 48
1, 263040, Tempo, 422982
1, 263040, Note_on_c, 0, 83, 0
1, 263040, Note_on_c, 0, 89, 56
1, 263040, Note_on_c, 0, 59, 26
1, 263040, Note_on_c, 0, 62, 31
1, 263040, Note_on_c, 0, 56, 26
1, 263100, Note_on_c, 0, 56, 0
1, 263100, Note_on_c, 0, 62, 0
1, 263100, Note_on_c, 0, 59, 0
1, 263160, Note_on_c, 0, 89, 0
1, 263160, Note_on_c, 0, 83, 48
1, 263280, Note_on_c, 0, 83, 0
1, 263280, Note_on_c, 0, 89, 54
1, 263280, Note_on_c, 0, 53, 31
1, 263340, Note_on_c, 0, 53, 0
1, 263400, Note_on_c, 0, 89, 0
1, 263400, Note_on_c, 0, 83, 43
1, 263460, Tempo, 470146
1, 263520, Tempo, 494438
1, 263520, Note_on_c, 0, 83, 0
1, 263520, Note_on_c, 0, 84, 55
1, 263520, Note_on_c, 0, 48, 35
1, 263520, Control_c, 0, 64, 0
1, 263580, Note_on_c, 0, 48, 0
1, 263580, Note_on_c, 0, 84, 0
1, 263760, Tempo, 431624
1, 263760, Note_on_c, 0, 79, 46
1, 263760, Note_on_c, 0, 52, 27
1, 263760, Note_on_c, 0, 60, 32
1, 263760, Note_on_c, 0, 55, 27
1, 263820, Note_on_c, 0, 55, 0
1, 263820, Note_on_c, 0, 60, 0
1, 263820, Note_on_c, 0, 52, 0
1, 264000, Note_on_c, 0, 79, 0
1, 264000, Note_on_c, 0, 48, 32
1, 264060, Note_on_c, 0, 48, 0
1, 264120, Tempo, 476569
1, 264240, Tempo, 414622
1, 264240, Note_on_c, 0, 84, 57
1, 264240, Note_on_c, 0, 52, 29
1, 264240, Note_on_c, 0, 60, 35
1, 264240, Note_on_c, 0, 55, 29
1, 264300, Note_on_c, 0, 55, 0
1, 264300, Note_on_c, 0, 84, 0
1, 264300, Note_on_c, 0, 52, 0
1, 264300, Note_on_c, 0, 60, 0
1, 264360, Tempo, 427930
1, 264480, Note_on_c, 0, 79, 46
1, 264480, Note_on_c, 0, 48, 31
1, 264540, Note_on_c, 0, 48, 0
1, 264540, Note_on_c, 0, 79, 0
1, 264720, Note_on_c, 0, 84, 55
1, 264720, Note_on_c, 0, 60, 31
1, 264720, Note_on_c, 0, 52, 26
1, 264720, Note_on_c, 0, 55, 26
1, 264780, Note_on_c, 0, 55, 0
1, 264780, Note_on_c, 0, 84, 0
1, 264780, Note_on_c, 0, 60, 0
1, 264780, Note_on_c, 0, 52, 0
1, 264960, Note_on_c, 0, 82, 55
1, 264960, Note_on_c, 0, 49, 35
1, 265020, Note_on_c, 0, 49, 0
1, 265200, Tempo, 419610
1, 265200, Note_on_c, 0, 82, 0
1, 265200, Note_on_c, 0, 80, 46
1, 265200, Note_on_c, 0, 61, 31
1, 265200, Note_on_c, 0, 53, 26
1, 265239, Control_c, 0, 64, 127
1, 265260, Note_on_c, 0, 53, 0
1, 265260, Note_on_c, 0, 61, 0
1, 265320, Note_on_c, 0, 80, 0
1, 265320, Note_on_c, 0, 79, 46
1, 265440, Note_on_c, 0, 79, 0
1, 265440, Note_on_c, 0, 77, 51
1, 265440, Note_on_c, 0, 49, 31
1, 265500, Note_on_c, 0, 49, 0
1, 265560, Tempo, 438821
1, 265680, Tempo, 428143
1, 265680, Note_on_c, 0, 77, 0
1, 265680, Note_on_c, 0, 79, 55
1, 265680, Note_on_c, 0, 46, 35
1, 265680, Control_c, 0, 64, 0
1, 265777, Control_c, 0, 64, 127
1, 265800, Note_on_c, 0, 79, 0
1, 265800, Note_on_c, 0, 82, 45
1, 265920, Tempo, 422982
1, 265920, Note_on_c, 0, 82, 0
1, 265920, Note_on_c, 0, 46, 0
1, 265920, Note_on_c, 0, 79, 55
1, 265920, Note_on_c, 0, 58, 33
1, 265920, Note_on_c, 0, 55, 28
1, 266040, Note_on_c, 0, 79, 0
1, 266040, Note_on_c, 0, 82, 48
1, 266160, Tempo, 417944
1, 266160, Note_on_c, 0, 82, 0
1, 266160, Note_on_c, 0, 55, 0
1, 266160, Note_on_c, 0, 58, 0
1, 266160, Note_on_c, 0, 76, 55
1, 266160, Note_on_c, 0, 55, 28
1, 266160, Note_on_c, 0, 48, 28
1, 266160, Note_on_c, 0, 58, 33
1, 266280, Tempo, 437031
1, 266280, Note_on_c, 0, 76, 0
1, 266280, Note_on_c, 0, 79, 48
1, 266400, Tempo, 419610
1, 266400, Note_on_c, 0, 79, 0
1, 266400, Note_on_c, 0, 58, 0
1, 266400, Note_on_c, 0, 48, 0
1, 266400, Note_on_c, 0, 55, 0
1, 266400, Note_on_c, 0, 77, 55
1, 266400, Note_on_c, 0, 56, 40
1, 266400, Note_on_c, 0, 53, 34
1, 266411, Control_c, 0, 64, 0
1, 266640, Note_on_c, 0, 77, 0
1, 266640, Note_on_c, 0, 65, 68
1, 266712, Control_c, 0, 64, 127
1, 266760, Note_on_c, 0, 65, 0
1, 266760, Note_on_c, 0, 67, 69
1, 266880, Note_on_c, 0, 67, 0
1, 266880, Note_on_c, 0, 53, 0
1, 266880, Note_on_c, 0, 56, 0
1, 266880, Note_on_c, 0, 68, 71
1, 267000, Tempo, 437701
1, 267000, Note_on_c, 0, 68, 0
1, 267000, Note_on_c, 0, 70, 73
1, 267120, Tempo, 399441
1, 267120, Note_on_c, 0, 70, 0
1, 267120, Note_on_c, 0, 72, 74
1, 267120, Note_on_c, 0, 36, 60
1, 267120, Control_c, 0, 64, 0
1, 267180, Note_on_c, 0, 36, 0
1, 267180, Note_on_c, 0, 72, 0
1, 267240, Tempo, 408970
1, 267360, Note_on_c, 0, 60, 68
1, 267360, Note_on_c, 0, 48, 55
1, 267420, Note_on_c, 0, 48, 0
1, 267420, Note_on_c, 0, 60, 0
1, 267480, Tempo, 426379
1, 267600, Tempo, 396799
1, 267600, Note_on_c, 0, 72, 75
1, 267600, Note_on_c, 0, 36, 60
1, 267660, Note_on_c, 0, 36, 0
1, 267660, Note_on_c, 0, 72, 0
1, 267720, Tempo, 408970
1, 267840, Note_on_c, 0, 60, 60
1, 267840, Note_on_c, 0, 48, 53
1, 267900, Note_on_c, 0, 48, 0
1, 267900, Note_on_c, 0, 60, 0
1, 267960, Tempo, 422982
1, 268080, Tempo, 409808
1, 268080, Note_on_c, 0, 72, 74
1, 268080, Note_on_c, 0, 36, 60
1, 268140, Note_on_c, 0, 36, 0
1, 268140, Note_on_c, 0, 72, 0
1, 268320, Note_on_c, 0, 60, 60
1, 268320, Note_on_c, 0, 48, 52
1, 268380, Note_on_c, 0, 48, 0
1, 268380, Note_on_c, 0, 60, 0
1, 268440, Tempo, 426379
1, 268560, Tempo, 419610
1, 268560, Note_on_c, 0, 67, 59
1, 268560, Note_on_c, 0, 70, 59
1, 268560, Note_on_c, 0, 36, 49
1, 268620, Note_on_c, 0, 36, 0
1, 268620, Note_on_c, 0, 70, 0
1, 268620, Note_on_c, 0, 67, 0
1, 268800, Tempo, 409808
1, 268800, Note_on_c, 0, 68, 46
1, 268800, Note_on_c, 0, 65, 46
1, 268800, Note_on_c, 0, 48, 43
1, 268857, Control_c, 0, 64, 127
1, 268860, Note_on_c, 0, 48, 0
1, 268920, Note_on_c, 0, 65, 0
1, 268920, Note_on_c, 0, 68, 0
1, 268920, Note_on_c, 0, 67, 46
1, 268920, Note_on_c, 0, 64, 46
1, 269040, Note_on_c, 0, 64, 0
1, 269040, Note_on_c, 0, 67, 0
1, 269040, Note_on_c, 0, 68, 46
1, 269040, Note_on_c, 0, 65, 46
1, 269040, Note_on_c, 0, 36, 43
1, 269100, Note_on_c, 0, 36, 0
1, 269160, Note_on_c, 0, 65, 0
1, 269160, Note_on_c, 0, 68, 0
1, 269160, Note_on_c, 0, 67, 46
1, 269160, Note_on_c, 0, 70, 46
1, 269280, Tempo, 412996
1, 269280, Note_on_c, 0, 70, 0
1, 269280, Note_on_c, 0, 67, 0
1, 269280, Note_on_c, 0, 67, 52
1, 269280, Note_on_c, 0, 64, 52
1, 269280, Note_on_c, 0, 48, 43
1, 269301, Control_c, 0, 64, 0
1, 269340, Note_on_c, 0, 48, 0
1, 269520, Tempo, 422982
1, 269520, Note_on_c, 0, 36, 41
1, 269580, Note_on_c, 0, 36, 0
1, 269760, Note_on_c, 0, 48, 43
1, 269820, Note_on_c, 0, 48, 0
1, 270000, Tempo, 399441
1, 270000, Note_on_c, 0, 64, 0
1, 270000, Note_on_c, 0, 67, 0
1, 270000, Note_on_c, 0, 72, 74
1, 270000, Note_on_c, 0, 36, 60
1, 270000, Control_c, 0, 64, 0
1, 270060, Note_on_c, 0, 36, 0
1, 270060, Note_on_c, 0, 72, 0
1, 270120, Tempo, 411777
1, 270240, Note_on_c, 0, 60, 68
1, 270240, Note_on_c, 0, 48, 55
1, 270300, Note_on_c, 0, 48, 0
1, 270300, Note_on_c, 0, 60, 0
1, 270360, Tempo, 449573
1, 270480, Tempo, 409808
1, 270480, Note_on_c, 0, 72, 75
1, 270480, Note_on_c, 0, 36, 60
1, 270720, Note_on_c, 0, 36, 0
1, 270720, Note_on_c, 0, 72, 0
1, 270720, Note_on_c, 0, 73, 77
1, 270720, Note_on_c, 0, 37, 60
1, 270840, Tempo, 422982
1, 270960, Tempo, 409808
1, 270960, Note_on_c, 0, 37, 0
1, 270960, Note_on_c, 0, 73, 0
1, 270960, Note_on_c, 0, 61, 62
1, 270960, Note_on_c, 0, 49, 49
1, 271020, Note_on_c, 0, 49, 0
1, 271020, Note_on_c, 0, 61, 0
1, 271200, Note_on_c, 0, 73, 74
1, 271200, Note_on_c, 0, 37, 57
1, 271260, Note_on_c, 0, 37, 0
1, 271260, Note_on_c, 0, 73, 0
1, 271320, Tempo, 426379
1, 271440, Tempo, 419610
1, 271440, Note_on_c, 0, 68, 52
1, 271440, Note_on_c, 0, 72, 52
1, 271440, Note_on_c, 0, 36, 49
1, 271500, Note_on_c, 0, 36, 0
1, 271560, Note_on_c, 0, 72, 0
1, 271560, Note_on_c, 0, 68, 0
1, 271560, Note_on_c, 0, 70, 46
1, 271560, Note_on_c, 0, 67, 46
1, 271680, Tempo, 409808
1, 271680, Note_on_c, 0, 67, 0
1, 271680, Note_on_c, 0, 70, 0
1, 271680, Note_on_c, 0, 68, 44
1, 271680, Note_on_c, 0, 65, 44
1, 271680, Note_on_c, 0, 48, 43
1, 271737, Control_c, 0, 64, 127
1, 271740, Note_on_c, 0, 48, 0
1, 271800, Note_on_c, 0, 65, 0
1, 271800, Note_on_c, 0, 68, 0
1, 271800, Note_on_c, 0, 70, 42
1, 271800, Note_on_c, 0, 67, 42
1, 271920, Note_on_c, 0, 67, 0
1, 271920, Note_on_c, 0, 70, 0
1, 271920, Note_on_c, 0, 65, 40
1, 271920, Note_on_c, 0, 68, 40
1, 271920, Note_on_c, 0, 36, 43
1, 271980, Note_on_c, 0, 36, 0
1, 272040, Note_on_c, 0, 68, 0
1, 272040, Note_on_c, 0, 65, 0
1, 272040, Note_on_c, 0, 64, 38
1, 272040, Note_on_c, 0, 67, 38
1, 272160, Tempo, 412996
1, 272160, Note_on_c, 0, 67, 0
1, 272160, Note_on_c, 0, 64, 0
1, 272160, Note_on_c, 0, 65, 49
1, 272160, Note_on_c, 0, 41, 43
1, 272181, Control_c, 0, 64, 0
1, 272400, Tempo, 419610
1, 272400, Note_on_c, 0, 41, 0
1, 272400, Note_on_c, 0, 65, 0
1, 272400, Note_on_c, 0, 77, 74
1, 272472, Control_c, 0, 64, 127
1, 272520, Note_on_c, 0, 77, 0
1, 272520, Note_on_c, 0, 79, 75
1, 272640, Note_on_c, 0, 79, 0
1, 272640, Note_on_c, 0, 80, 78
1, 272760, Note_on_c, 0, 80, 0
1, 272760, Note_on_c, 0, 82, 80
1, 272880, Tempo, 399441
1, 272880, Note_on_c, 0, 82, 0
1, 272880, Note_on_c, 0, 84, 81
1, 272880, Note_on_c, 0, 48, 60
1, 272880, Control_c, 0, 64, 0
1, 272940, Note_on_c, 0, 48, 0
1, 272940, Note_on_c, 0, 84, 0
1, 273000, Tempo, 408970
1, 273120, Note_on_c, 0, 72, 74
1, 273120, Note_on_c, 0, 60, 55
1, 273180, Note_on_c, 0, 60, 0
1, 273180, Note_on_c, 0, 72, 0
1, 273240, Tempo, 426379
1, 273360, Tempo, 395491
1, 273360, Note_on_c, 0, 84, 82
1, 273360, Note_on_c, 0, 48, 60
1, 273420, Note_on_c, 0, 48, 0
1, 273420, Note_on_c, 0, 84, 0
1, 273480, Tempo, 408970
1, 273600, Note_on_c, 0, 72, 66
1, 273600, Note_on_c, 0, 60, 53
1, 273660, Note_on_c, 0, 60, 0
1, 273660, Note_on_c, 0, 72, 0
1, 273720, Tempo, 422982
1, 273840, Tempo, 409808
1, 273840, Note_on_c, 0, 84, 81
1, 273840, Note_on_c, 0, 48, 60
1, 273900, Note_on_c, 0, 48, 0
1, 273900, Note_on_c, 0, 84, 0
1, 274080, Note_on_c, 0, 72, 66
1, 274080, Note_on_c, 0, 60, 52
1, 274140, Note_on_c, 0, 60, 0
1, 274140, Note_on_c, 0, 72, 0
1, 274200, Tempo, 426379
1, 274320, Tempo, 419610
1, 274320, Note_on_c, 0, 82, 64
1, 274320, Note_on_c, 0, 79, 64
1, 274320, Note_on_c, 0, 59, 49
1, 274380, Note_on_c, 0, 59, 0
1, 274380, Note_on_c, 0, 79, 0
1, 274380, Note_on_c, 0, 82, 0
1, 274560, Tempo, 409808
1, 274560, Note_on_c, 0, 77, 50
1, 274560, Note_on_c, 0, 80, 50
1, 274560, Note_on_c, 0, 47, 43
1, 274617, Control_c, 0, 64, 127
1, 274620, Note_on_c, 0, 47, 0
1, 274680, Note_on_c, 0, 80, 0
1, 274680, Note_on_c, 0, 77, 0
1, 274680, Note_on_c, 0, 76, 50
1, 274680, Note_on_c, 0, 79, 50
1, 274800, Note_on_c, 0, 79, 0
1, 274800, Note_on_c, 0, 76, 0
1, 274800, Note_on_c, 0, 77, 50
1, 274800, Note_on_c, 0, 80, 50
1, 274800, Note_on_c, 0, 59, 43
1, 274860, Note_on_c, 0, 59, 0
1, 274920, Note_on_c, 0, 80, 0
1, 274920, Note_on_c, 0, 77, 0
1, 274920, Note_on_c, 0, 79, 50
1, 274920, Note_on_c, 0, 82, 50
1, 275040, Tempo, 412996
1, 275040, Note_on_c, 0, 82, 0
1, 275040, Note_on_c, 0, 79, 0
1, 275040, Note_on_c, 0, 79, 57
1, 275040, Note_on_c, 0, 76, 57
1, 275040, Note_on_c, 0, 60, 43
1, 275061, Control_c, 0, 64, 0
1, 275100, Note_on_c, 0, 60, 0
1, 275280, Tempo, 422982
1, 275280, Note_on_c, 0, 48, 41
1, 275340, Note_on_c, 0, 48, 0
1, 275520, Note_on_c, 0, 60, 43
1, 275580, Note_on_c, 0, 60, 0
1, 275760, Tempo, 396799
1, 275760, Note_on_c, 0, 76, 0
1, 275760, Note_on_c, 0, 79, 0
1, 275760, Note_on_c, 0, 84, 81
1, 275760, Note_on_c, 0, 48, 60
1, 275760, Control_c, 0, 64, 0
1, 275820, Note_on_c, 0, 48, 0
1, 275820, Note_on_c, 0, 84, 0
1, 275880, Tempo, 408970
1, 276000, Note_on_c, 0, 72, 74
1, 276000, Note_on_c, 0, 60, 55
1, 276060, Note_on_c, 0, 60, 0
1, 276060, Note_on_c, 0, 72, 0
1, 276120, Tempo, 426379
1, 276240, Tempo, 409808
1, 276240, Note_on_c, 0, 84, 82
1, 276240, Note_on_c, 0, 48, 60
1, 276480, Note_on_c, 0, 48, 0
1, 276480, Note_on_c, 0, 84, 0
1, 276480, Note_on_c, 0, 85, 84
1, 276480, Note_on_c, 0, 49, 60
1, 276600, Tempo, 422982
1, 276720, Tempo, 409808
1, 276720, Note_on_c, 0, 49, 0
1, 276720, Note_on_c, 0, 85, 0
1, 276720, Note_on_c, 0, 73, 68
1, 276720, Note_on_c, 0, 61, 49
1, 276780, Note_on_c, 0, 61, 0
1, 276780, Note_on_c, 0, 73, 0
1, 276960, Note_on_c, 0, 85, 81
1, 276960, Note_on_c, 0, 49, 57
1, 277020, Note_on_c, 0, 49, 0
1, 277020, Note_on_c, 0, 85, 0
1, 277080, Tempo, 426379
1, 277200, Tempo, 419610
1, 277200, Note_on_c, 0, 73, 52
1, 277200, Note_on_c, 0, 70, 52
1, 277200, Note_on_c, 0, 61, 49
1, 277246, Control_c, 0, 64, 127
1, 277260, Note_on_c, 0, 61, 0
1, 277320, Note_on_c, 0, 70, 0
1, 277320, Note_on_c, 0, 73, 0
1, 277320, Note_on_c, 0, 68, 46
1, 277320, Note_on_c, 0, 71, 46
1, 277440, Tempo, 409808
1, 277440, Note_on_c, 0, 71, 0
1, 277440, Note_on_c, 0, 68, 0
1, 277440, Note_on_c, 0, 66, 44
1, 277440, Note_on_c, 0, 70, 44
1, 277440, Note_on_c, 0, 49, 43
1, 277468, Control_c, 0, 64, 0
1, 277500, Note_on_c, 0, 49, 0
1, 277507, Control_c, 0, 64, 127
1, 277560, Note_on_c, 0, 70, 0
1, 277560, Note_on_c, 0, 66, 0
1, 277560, Note_on_c, 0, 68, 42
1, 277560, Note_on_c, 0, 71, 42
1, 277680, Note_on_c, 0, 71, 0
1, 277680, Note_on_c, 0, 68, 0
1, 277680, Note_on_c, 0, 66, 40
1, 277680, Note_on_c, 0, 70, 40
1, 277680, Note_on_c, 0, 61, 43
1, 277740, Note_on_c, 0, 61, 0
1, 277800, Note_on_c, 0, 70, 0
1, 277800, Note_on_c, 0, 66, 0
1, 277800, Note_on_c, 0, 65, 38
1, 277800, Note_on_c, 0, 68, 38
1, 277920, Tempo, 412996
1, 277920, Note_on_c, 0, 68, 0
1, 277920, Note_on_c, 0, 65, 0
1, 277920, Note_on_c, 0, 66, 46
1, 277920, Note_on_c, 0, 70, 46
1, 277920, Note_on_c, 0, 49, 43
1, 277920, Control_c, 0, 64, 0
1, 278040, Note_on_c, 0, 49, 0
1, 278040, Note_on_c, 0, 70, 0
1, 278040, Note_on_c, 0, 66, 0
1, 278160, Tempo, 422982
1, 278160, Note_on_c, 0, 70, 38
1, 278160, Note_on_c, 0, 66, 38
1, 278160, Note_on_c, 0, 61, 43
1, 278280, Note_on_c, 0, 61, 0
1, 278280, Note_on_c, 0, 66, 0
1, 278280, Note_on_c, 0, 70, 0
1, 278400, Note_on_c, 0, 70, 38
1, 278400, Note_on_c, 0, 66, 38
1, 278400, Note_on_c, 0, 49, 43
1, 278520, Note_on_c, 0, 49, 0
1, 278520, Note_on_c, 0, 66, 0
1, 278520, Note_on_c, 0, 70, 0
1, 278640, Tempo, 419610
1, 278640, Note_on_c, 0, 65, 42
1, 278640, Note_on_c, 0, 68, 50
1, 278640, Note_on_c, 0, 71, 50
1, 278640, Note_on_c, 0, 61, 43
1, 278640, Control_c, 0, 64, 127
1, 278760, Note_on_c, 0, 61, 0
1, 278760, Note_on_c, 0, 65, 0
1, 278760, Note_on_c, 0, 68, 0
1, 278760, Note_on_c, 0, 71, 0
1, 278880, Note_on_c, 0, 71, 51
1, 278880, Note_on_c, 0, 68, 51
1, 278880, Note_on_c, 0, 65, 43
1, 278880, Note_on_c, 0, 49, 43
1, 279000, Note_on_c, 0, 49, 0
1, 279000, Note_on_c, 0, 71, 0
1, 279000, Note_on_c, 0, 68, 0
1, 279000, Note_on_c, 0, 65, 0
1, 279120, Note_on_c, 0, 68, 56
1, 279120, Note_on_c, 0, 65, 47
1, 279120, Note_on_c, 0, 71, 56
1, 279120, Note_on_c, 0, 61, 44
1, 279240, Note_on_c, 0, 61, 0
1, 279240, Note_on_c, 0, 68, 0
1, 279240, Note_on_c, 0, 65, 0
1, 279240, Note_on_c, 0, 71, 0
1, 279360, Tempo, 414651
1, 279360, Note_on_c, 0, 77, 50
1, 279360, Note_on_c, 0, 83, 59
1, 279360, Note_on_c, 0, 80, 59
1, 279360, Note_on_c, 0, 49, 45
1, 279360, Control_c, 0, 64, 0
1, 279451, Control_c, 0, 64, 127
1, 279480, Note_on_c, 0, 49, 0
1, 279480, Note_on_c, 0, 77, 0
1, 279480, Note_on_c, 0, 83, 0
1, 279480, Note_on_c, 0, 80, 0
1, 279600, Note_on_c, 0, 80, 64
1, 279600, Note_on_c, 0, 77, 54
1, 279600, Note_on_c, 0, 83, 64
1, 279600, Note_on_c, 0, 61, 50
1, 279720, Note_on_c, 0, 61, 0
1, 279720, Note_on_c, 0, 80, 0
1, 279720, Note_on_c, 0, 77, 0
1, 279720, Note_on_c, 0, 83, 0
1, 279840, Note_on_c, 0, 83, 70
1, 279840, Note_on_c, 0, 77, 59
1, 279840, Note_on_c, 0, 80, 70
1, 279840, Note_on_c, 0, 49, 51
1, 279960, Tempo, 433401
1, 279960, Note_on_c, 0, 49, 0
1, 279960, Note_on_c, 0, 83, 0
1, 279960, Note_on_c, 0, 77, 0
1, 279960, Note_on_c, 0, 80, 0
1, 280080, Tempo, 414651
1, 280080, Note_on_c, 0, 96, 74
1, 280080, Note_on_c, 0, 92, 62
1, 280080, Note_on_c, 0, 48, 51
1, 280097, Control_c, 0, 64, 0
1, 280177, Control_c, 0, 64, 127
1, 280200, Note_on_c, 0, 48, 0
1, 280200, Note_on_c, 0, 92, 0
1, 280200, Note_on_c, 0, 96, 0
1, 280200, Note_on_c, 0, 94, 66
1, 280200, Note_on_c, 0, 91, 56
1, 280320, Note_on_c, 0, 91, 0
1, 280320, Note_on_c, 0, 94, 0
1, 280320, Note_on_c, 0, 89, 61
1, 280320, Note_on_c, 0, 92, 73
1, 280320, Note_on_c, 0, 60, 53
1, 280440, Note_on_c, 0, 60, 0
1, 280440, Note_on_c, 0, 92, 0
1, 280440, Note_on_c, 0, 89, 0
1, 280440, Note_on_c, 0, 91, 55
1, 280440, Note_on_c, 0, 94, 64
1, 280560, Note_on_c, 0, 94, 0
1, 280560, Note_on_c, 0, 91, 0
1, 280560, Note_on_c, 0, 92, 73
1, 280560, Note_on_c, 0, 89, 61
1, 280560, Note_on_c, 0, 48, 57
1, 280680, Tempo, 442543
1, 280680, Note_on_c, 0, 48, 0
1, 280680, Note_on_c, 0, 89, 0
1, 280680, Note_on_c, 0, 92, 0
1, 280680, Note_on_c, 0, 91, 64
1, 280680, Note_on_c, 0, 88, 55
1, 280800, Tempo, 487329
1, 280800, Note_on_c, 0, 88, 0
1, 280800, Note_on_c, 0, 91, 0
1, 280800, Note_on_c, 0, 89, 73
1, 280800, Note_on_c, 0, 53, 60
1, 280807, Control_c, 0, 64, 0
1, 280920, Note_on_c, 0, 53, 0
1, 280920, Note_on_c, 0, 89, 0
1, 281040, Tempo, 421289
1, 281040, Note_on_c, 0, 91, 73
1, 281040, Note_on_c, 0, 53, 51
1, 281040, Note_on_c, 0, 64, 61
1, 281040, Note_on_c, 0, 61, 51
1, 281040, Note_on_c, 0, 58, 51
1, 281044, Tempo, 419610
1, 281050, Tempo, 412996
1, 281086, Tempo, 414651
1, 281092, Tempo, 416291
1, 281098, Tempo, 426379
1, 281100, Note_on_c, 0, 91, 0
1, 281100, Note_on_c, 0, 92, 67
1, 281123, Tempo, 416291
1, 281129, Tempo, 414651
1, 281141, Tempo, 412996
1, 281153, Tempo, 411382
1, 281160, Note_on_c, 0, 92, 0
1, 281160, Note_on_c, 0, 91, 58
1, 281171, Tempo, 412996
1, 281177, Tempo, 414651
1, 281183, Tempo, 416291
1, 281195, Tempo, 417944
1, 281220, Tempo, 411382
1, 281220, Note_on_c, 0, 91, 0
1, 281220, Note_on_c, 0, 92, 54
1, 281232, Tempo, 412996
1, 281238, Tempo, 414651
1, 281244, Tempo, 417944
1, 281280, Note_on_c, 0, 92, 0
1, 281280, Note_on_c, 0, 91, 58
1, 281281, Tempo, 416291
1, 281340, Tempo, 419610
1, 281340, Note_on_c, 0, 91, 0
1, 281340, Note_on_c, 0, 92, 52
1, 281378, Tempo, 417944
1, 281400, Note_on_c, 0, 92, 0
1, 281400, Note_on_c, 0, 91, 58
1, 281416, Tempo, 416291
1, 281455, Tempo, 414651
1, 281460, Note_on_c, 0, 91, 0
1, 281460, Note_on_c, 0, 92, 52
1, 281493, Tempo, 412996
1, 281511, Tempo, 412996
1, 281520, Note_on_c, 0, 92, 0
1, 281520, Note_on_c, 0, 91, 58
1, 281566, Tempo, 411382
1, 281580, Note_on_c, 0, 91, 0
1, 281580, Note_on_c, 0, 92, 52
1, 281621, Tempo, 409808
1, 281640, Note_on_c, 0, 92, 0
1, 281640, Note_on_c, 0, 91, 58
1, 281675, Tempo, 408219
1, 281720, Note_on_c, 0, 91, 0
1, 281720, Note_on_c, 0, 92, 54
1, 281730, Tempo, 406614
1, 281733, Tempo, 409808
1, 281781, Tempo, 411382
1, 281800, Note_on_c, 0, 92, 0
1, 281800, Note_on_c, 0, 91, 58
1, 281820, Tempo, 412996
1, 281858, Tempo, 414651
1, 281880, Note_on_c, 0, 91, 0
1, 281880, Note_on_c, 0, 90, 54
1, 281906, Tempo, 416291
1, 281940, Note_on_c, 0, 90, 0
1, 281940, Note_on_c, 0, 91, 56
1, 281944, Tempo, 417944
1, 281983, Tempo, 419610
1, 282000, Tempo, 417944
1, 282000, Note_on_c, 0, 91, 0
1, 282000, Note_on_c, 0, 92, 64
1, 282012, Control_c, 0, 64, 0
1, 282075, Control_c, 0, 64, 127
1, 282120, Note_on_c, 0, 92, 0
1, 282120, Note_on_c, 0, 91, 58
1, 282240, Note_on_c, 0, 91, 0
1, 282240, Note_on_c, 0, 61, 0
1, 282240, Note_on_c, 0, 53, 0
1, 282240, Note_on_c, 0, 64, 0
1, 282240, Note_on_c, 0, 58, 0
1, 282240, Note_on_c, 0, 89, 81
1, 282240, Note_on_c, 0, 60, 52
1, 282240, Note_on_c, 0, 53, 52
1, 282240, Note_on_c, 0, 65, 62
1, 282240, Note_on_c, 0, 56, 52
1, 282267, Control_c, 0, 64, 0
1, 282360, Note_on_c, 0, 56, 0
1, 282360, Note_on_c, 0, 53, 0
1, 282360, Note_on_c, 0, 89, 0
1, 282360, Note_on_c, 0, 60, 0
1, 282360, Note_on_c, 0, 65, 0
1, 282480, Tempo, 421289
1, 282480, Note_on_c, 0, 79, 73
1, 282480, Note_on_c, 0, 61, 51
1, 282480, Note_on_c, 0, 53, 51
1, 282480, Note_on_c, 0, 58, 51
1, 282480, Note_on_c, 0, 64, 61
1, 282484, Tempo, 419610
1, 282485, Tempo, 424869
1, 282493, Tempo, 423310
1, 282523, Control_c, 0, 64, 127
1, 282531, Tempo, 424869
1, 282540, Note_on_c, 0, 79, 0
1, 282540, Note_on_c, 0, 80, 67
1, 282546, Tempo, 427991
1, 282561, Tempo, 429584
1, 282577, Tempo, 421763
1, 282600, Note_on_c, 0, 80, 0
1, 282600, Note_on_c, 0, 79, 58
1, 282630, Tempo, 424869
1, 282645, Tempo, 427991
1, 282660, Tempo, 420227
1, 282660, Note_on_c, 0, 79, 0
1, 282660, Note_on_c, 0, 80, 54
1, 282720, Note_on_c, 0, 80, 0
1, 282720, Note_on_c, 0, 79, 58
1, 282759, Tempo, 426409
1, 282767, Tempo, 427991
1, 282775, Tempo, 426409
1, 282780, Note_on_c, 0, 79, 0
1, 282780, Note_on_c, 0, 80, 52
1, 282813, Tempo, 424869
1, 282840, Note_on_c, 0, 80, 0
1, 282840, Note_on_c, 0, 79, 58
1, 282843, Tempo, 423310
1, 282881, Tempo, 421763
1, 282900, Note_on_c, 0, 79, 0
1, 282900, Note_on_c, 0, 80, 52
1, 282912, Tempo, 420227
1, 282942, Tempo, 418731
1, 282960, Note_on_c, 0, 80, 0
1, 282960, Note_on_c, 0, 79, 58
1, 282980, Tempo, 417217
1, 283011, Tempo, 415714
1, 283020, Note_on_c, 0, 79, 0
1, 283020, Note_on_c, 0, 80, 52
1, 283041, Tempo, 414250
1, 283079, Tempo, 412768
1, 283080, Note_on_c, 0, 80, 0
1, 283080, Note_on_c, 0, 79, 58
1, 283110, Tempo, 411297
1, 283133, Tempo, 409836
1, 283160, Note_on_c, 0, 79, 0
1, 283160, Note_on_c, 0, 80, 54
1, 283163, Tempo, 411297
1, 283186, Tempo, 412768
1, 283217, Tempo, 414250
1, 283239, Tempo, 415714
1, 283240, Note_on_c, 0, 80, 0
1, 283240, Note_on_c, 0, 79, 58
1, 283262, Tempo, 417217
1, 283293, Tempo, 418731
1, 283316, Tempo, 420227
1, 283320, Note_on_c, 0, 79, 0
1, 283320, Note_on_c, 0, 78, 54
1, 283338, Tempo, 421763
1, 283369, Tempo, 423310
1, 283380, Note_on_c, 0, 78, 0
1, 283380, Note_on_c, 0, 79, 56
1, 283392, Tempo, 424869
1, 283415, Tempo, 426409
1, 283423, Tempo, 419610
1, 283440, Tempo, 417944
1, 283440, Note_on_c, 0, 79, 0
1, 283440, Note_on_c, 0, 80, 64
1, 283452, Control_c, 0, 64, 0
1, 283515, Control_c, 0, 64, 127
1, 283560, Note_on_c, 0, 80, 0
1, 283560, Note_on_c, 0, 79, 58
1, 283680, Note_on_c, 0, 79, 0
1, 283680, Note_on_c, 0, 58, 0
1, 283680, Note_on_c, 0, 61, 0
1, 283680, Note_on_c, 0, 53, 0
1, 283680, Note_on_c, 0, 64, 0
1, 283680, Note_on_c, 0, 77, 81
1, 283680, Note_on_c, 0, 56, 52
1, 283680, Note_on_c, 0, 53, 52
1, 283680, Note_on_c, 0, 65, 62
1, 283680, Note_on_c, 0, 60, 52
1, 283707, Control_c, 0, 64, 0
1, 283800, Note_on_c, 0, 60, 0
1, 283800, Note_on_c, 0, 53, 0
1, 283800, Note_on_c, 0, 77, 0
1, 283800, Note_on_c, 0, 56, 0
1, 283800, Note_on_c, 0, 65, 0
1, 283920, Tempo, 421289
1, 283920, Note_on_c, 0, 91, 73
1, 283920, Note_on_c, 0, 64, 61
1, 283920, Note_on_c, 0, 58, 51
1, 283920, Note_on_c, 0, 53, 51
1, 283920, Note_on_c, 0, 61, 51
1, 283924, Tempo, 419610
1, 283930, Tempo, 412996
1, 283966, Tempo, 414651
1, 283972, Tempo, 416291
1, 283978, Tempo, 426379
1, 283980, Note_on_c, 0, 91, 0
1, 283980, Note_on_c, 0, 92, 67
1, 284003, Tempo, 416291
1, 284009, Tempo, 414651
1, 284021, Tempo, 412996
1, 284033, Tempo, 411382
1, 284040, Note_on_c, 0, 92, 0
1, 284040, Note_on_c, 0, 91, 58
1, 284051, Tempo, 412996
1, 284057, Tempo, 414651
1, 284063, Tempo, 416291
1, 284075, Tempo, 417944
1, 284100, Tempo, 411382
1, 284100, Note_on_c, 0, 91, 0
1, 284100, Note_on_c, 0, 92, 54
1, 284112, Tempo, 412996
1, 284118, Tempo, 414651
1, 284124, Tempo, 417944
1, 284160, Note_on_c, 0, 92, 0
1, 284160, Note_on_c, 0, 91, 58
1, 284161, Tempo, 416291
1, 284220, Tempo, 419610
1, 284220, Note_on_c, 0, 91, 0
1, 284220, Note_on_c, 0, 92, 52
1, 284258, Tempo, 417944
1, 284280, Note_on_c, 0, 92, 0
1, 284280, Note_on_c, 0, 91, 58
1, 284296, Tempo, 416291
1, 284335, Tempo, 414651
1, 284340, Note_on_c, 0, 91, 0
1, 284340, Note_on_c, 0, 92, 52
1, 284372, Tempo, 422982
1, 284388, Tempo, 433401
1, 284397, Tempo, 436047
1, 284400, Note_on_c, 0, 92, 0
1, 284400, Note_on_c, 0, 90, 58
1, 284428, Tempo, 434405
1, 284458, Tempo, 432776
1, 284460, Note_on_c, 0, 90, 0
1, 284460, Note_on_c, 0, 91, 53
1, 284481, Tempo, 431189
1, 284512, Tempo, 429584
1, 284520, Note_on_c, 0, 91, 0
1, 284520, Note_on_c, 0, 92, 54
1, 284535, Tempo, 427991
1, 284565, Tempo, 426409
1, 284580, Note_on_c, 0, 92, 0
1, 284580, Note_on_c, 0, 94, 56
1, 284588, Tempo, 424869
1, 284618, Tempo, 423310
1, 284634, Tempo, 420227
1, 284640, Note_on_c, 0, 94, 0
1, 284640, Note_on_c, 0, 96, 57
1, 284672, Tempo, 421763
1, 284700, Note_on_c, 0, 96, 0
1, 284700, Note_on_c, 0, 97, 58
1, 284702, Tempo, 423310
1, 284733, Tempo, 424869
1, 284760, Note_on_c, 0, 97, 0
1, 284760, Note_on_c, 0, 100, 60
1, 284763, Tempo, 426409
1, 284794, Tempo, 427991
1, 284820, Note_on_c, 0, 100, 0
1, 284820, Note_on_c, 0, 101, 62
1, 284824, Tempo, 429584
1, 284855, Tempo, 431189
1, 284880, Note_on_c, 0, 101, 0
1, 284880, Note_on_c, 0, 100, 63
1, 284893, Tempo, 432776
1, 284920, Note_on_c, 0, 100, 0
1, 284920, Note_on_c, 0, 97, 62
1, 284923, Tempo, 434405
1, 284954, Tempo, 436047
1, 284960, Note_on_c, 0, 97, 0
1, 284961, Note_on_c, 0, 96, 61
1, 284984, Tempo, 437701
1, 285001, Note_on_c, 0, 96, 0
1, 285001, Note_on_c, 0, 94, 61
1, 285015, Tempo, 439335
1, 285040, Note_on_c, 0, 92, 60
1, 285041, Note_on_c, 0, 94, 0
1, 285045, Tempo, 441014
1, 285076, Tempo, 442706
1, 285080, Note_on_c, 0, 92, 0
1, 285080, Note_on_c, 0, 91, 59
1, 285106, Tempo, 442706
1, 285120, Note_on_c, 0, 91, 0
1, 285120, Note_on_c, 0, 53, 0
1, 285120, Note_on_c, 0, 64, 0
1, 285120, Note_on_c, 0, 58, 0
1, 285120, Note_on_c, 0, 61, 0
1, 285120, Note_on_c, 0, 89, 81
1, 285120, Note_on_c, 0, 60, 52
1, 285120, Note_on_c, 0, 53, 52
1, 285120, Note_on_c, 0, 65, 62
1, 285120, Note_on_c, 0, 56, 52
1, 285147, Control_c, 0, 64, 0
1, 285240, Note_on_c, 0, 56, 0
1, 285240, Note_on_c, 0, 53, 0
1, 285240, Note_on_c, 0, 89, 0
1, 285240, Note_on_c, 0, 60, 0
1, 285240, Note_on_c, 0, 65, 0
1, 285360, Tempo, 421289
1, 285360, Note_on_c, 0, 79, 73
1, 285360, Note_on_c, 0, 61, 51
1, 285360, Note_on_c, 0, 64, 61
1, 285360, Note_on_c, 0, 53, 51
1, 285360, Note_on_c, 0, 58, 51
1, 285364, Tempo, 419610
1, 285370, Tempo, 412996
1, 285406, Tempo, 414651
1, 285412, Tempo, 416291
1, 285418, Tempo, 426379
1, 285420, Note_on_c, 0, 79, 0
1, 285420, Note_on_c, 0, 80, 67
1, 285420, Control_c, 0, 64, 127
1, 285443, Tempo, 416291
1, 285449, Tempo, 414651
1, 285461, Tempo, 412996
1, 285473, Tempo, 411382
1, 285480, Note_on_c, 0, 80, 0
1, 285480, Note_on_c, 0, 79, 58
1, 285491, Tempo, 412996
1, 285497, Tempo, 414651
1, 285503, Tempo, 416291
1, 285515, Tempo, 417944
1, 285540, Tempo, 411382
1, 285540, Note_on_c, 0, 79, 0
1, 285540, Note_on_c, 0, 80, 54
1, 285552, Tempo, 412996
1, 285558, Tempo, 414651
1, 285564, Tempo, 417944
1, 285600, Note_on_c, 0, 80, 0
1, 285600, Note_on_c, 0, 79, 58
1, 285601, Tempo, 416291
1, 285660, Tempo, 419610
1, 285660, Note_on_c, 0, 79, 0
1, 285660, Note_on_c, 0, 80, 52
1, 285692, Tempo, 424659
1, 285720, Note_on_c, 0, 80, 0
1, 285720, Note_on_c, 0, 79, 58
1, 285740, Tempo, 422982
1, 285780, Note_on_c, 0, 79, 0
1, 285780, Note_on_c, 0, 80, 52
1, 285788, Tempo, 421289
1, 285824, Tempo, 419610
1, 285828, Tempo, 440690
1, 285840, Note_on_c, 0, 80, 0
1, 285840, Note_on_c, 0, 78, 58
1, 285854, Tempo, 447828
1, 285882, Tempo, 446097
1, 285888, Note_on_c, 0, 78, 0
1, 285888, Note_on_c, 0, 79, 53
1, 285902, Tempo, 444379
1, 285921, Tempo, 442706
1, 285936, Note_on_c, 0, 79, 0
1, 285936, Note_on_c, 0, 80, 54
1, 285940, Tempo, 441014
1, 285959, Tempo, 439335
1, 285978, Tempo, 437701
1, 285984, Note_on_c, 0, 80, 0
1, 285984, Note_on_c, 0, 82, 56
1, 285998, Tempo, 436047
1, 286017, Tempo, 434405
1, 286032, Note_on_c, 0, 82, 0
1, 286032, Note_on_c, 0, 84, 57
1, 286036, Tempo, 432776
1, 286055, Tempo, 431189
1, 286056, Tempo, 428143
1, 286068, Tempo, 426379
1, 286080, Note_on_c, 0, 84, 0
1, 286080, Note_on_c, 0, 86, 58
1, 286084, Tempo, 427991
1, 286128, Note_on_c, 0, 86, 0
1, 286128, Note_on_c, 0, 88, 60
1, 286176, Note_on_c, 0, 88, 0
1, 286176, Note_on_c, 0, 89, 62
1, 286224, Note_on_c, 0, 89, 0
1, 286224, Note_on_c, 0, 91, 62
1, 286272, Note_on_c, 0, 91, 0
1, 286272, Note_on_c, 0, 89, 62
1, 286320, Note_on_c, 0, 89, 0
1, 286320, Note_on_c, 0, 88, 63
1, 286353, Note_on_c, 0, 88, 0
1, 286353, Note_on_c, 0, 86, 63
1, 286386, Note_on_c, 0, 86, 0
1, 286386, Note_on_c, 0, 84, 62
1, 286419, Note_on_c, 0, 84, 0
1, 286419, Note_on_c, 0, 82, 61
1, 286452, Note_on_c, 0, 82, 0
1, 286452, Note_on_c, 0, 80, 61
1, 286485, Note_on_c, 0, 80, 0
1, 286485, Note_on_c, 0, 79, 60
1, 286518, Note_on_c, 0, 79, 0
1, 286518, Note_on_c, 0, 77, 59
1, 286548, Tempo, 424659
1, 286560, Note_on_c, 0, 77, 0
1, 286560, Note_on_c, 0, 76, 58
1, 286564, Tempo, 426409
1, 286565, Control_c, 0, 64, 0
1, 286599, Control_c, 0, 64, 127
1, 286602, Tempo, 427991
1, 286620, Note_on_c, 0, 76, 0
1, 286620, Note_on_c, 0, 73, 56
1, 286641, Tempo, 429584
1, 286679, Tempo, 431189
1, 286680, Note_on_c, 0, 73, 0
1, 286680, Note_on_c, 0, 72, 54
1, 286718, Tempo, 432776
1, 286740, Note_on_c, 0, 72, 0
1, 286740, Note_on_c, 0, 70, 52
1, 286756, Tempo, 434405
1, 286794, Tempo, 436047
1, 286800, Note_on_c, 0, 70, 0
1, 286800, Note_on_c, 0, 68, 49
1, 286823, Tempo, 437701
1, 286860, Note_on_c, 0, 68, 0
1, 286860, Note_on_c, 0, 67, 48
1, 286862, Tempo, 439335
1, 286900, Tempo, 441014
1, 286920, Note_on_c, 0, 67, 0
1, 286920, Note_on_c, 0, 66, 45
1, 286938, Tempo, 442706
1, 286977, Tempo, 444379
1, 286980, Note_on_c, 0, 66, 0
1, 286980, Note_on_c, 0, 67, 42
1, 287015, Tempo, 446097
1, 287040, Note_on_c, 0, 67, 0
1, 287040, Note_on_c, 0, 68, 39
1, 287044, Tempo, 447828
1, 287080, Tempo, 448163
1, 287080, Note_on_c, 0, 68, 0
1, 287080, Note_on_c, 0, 69, 40
1, 287120, Note_on_c, 0, 69, 0
1, 287120, Note_on_c, 0, 70, 38
1, 287128, Tempo, 450079
1, 287160, Note_on_c, 0, 70, 0
1, 287160, Note_on_c, 0, 71, 36
1, 287176, Tempo, 452011
1, 287200, Note_on_c, 0, 71, 0
1, 287200, Note_on_c, 0, 72, 34
1, 287224, Tempo, 453961
1, 287240, Note_on_c, 0, 72, 0
1, 287240, Note_on_c, 0, 73, 33
1, 287260, Tempo, 455962
1, 287280, Tempo, 437031
1, 287280, Note_on_c, 0, 73, 0
1, 287280, Note_on_c, 0, 53, 0
1, 287280, Note_on_c, 0, 61, 0
1, 287280, Note_on_c, 0, 64, 0
1, 287280, Note_on_c, 0, 58, 0
1, 287280, Note_on_c, 0, 72, 56
1, 287280, Note_on_c, 0, 53, 35
1, 287280, Control_c, 0, 64, 0
1, 287340, Note_on_c, 0, 53, 0
1, 287340, Note_on_c, 0, 72, 0
1, 287460, Tempo, 492126
1, 287520, Tempo, 426379
1, 287520, Note_on_c, 0, 72, 45
1, 287520, Note_on_c, 0, 56, 25
1, 287520, Note_on_c, 0, 60, 25
1, 287520, Note_on_c, 0, 65, 30
1, 287580, Note_on_c, 0, 65, 0
1, 287580, Note_on_c, 0, 60, 0
1, 287580, Note_on_c, 0, 56, 0
1, 287640, Note_on_c, 0, 72, 0
1, 287640, Note_on_c, 0, 73, 39
1, 287760, Tempo, 435224
1, 287760, Note_on_c, 0, 73, 0
1, 287760, Note_on_c, 0, 72, 46
1, 287760, Note_on_c, 0, 53, 30
1, 287820, Note_on_c, 0, 53, 0
1, 287820, Note_on_c, 0, 72, 0
1, 287940, Tempo, 455962
1, 288000, Tempo, 435224
1, 288000, Note_on_c, 0, 73, 40
1, 288000, Note_on_c, 0, 65, 35
1, 288000, Note_on_c, 0, 60, 29
1, 288000, Note_on_c, 0, 56, 29
1, 288060, Note_on_c, 0, 56, 0
1, 288060, Note_on_c, 0, 73, 0
1, 288060, Note_on_c, 0, 65, 0
1, 288060, Note_on_c, 0, 60, 0
1, 288060, Note_on_c, 0, 72, 49
1, 288120, Note_on_c, 0, 72, 0
1, 288240, Tempo, 426379
1, 288240, Note_on_c, 0, 72, 44
1, 288240, Note_on_c, 0, 53, 31
1, 288300, Note_on_c, 0, 53, 0
1, 288360, Note_on_c, 0, 72, 0
1, 288360, Note_on_c, 0, 73, 36
1, 288480, Note_on_c, 0, 73, 0
1, 288480, Note_on_c, 0, 72, 42
1, 288480, Note_on_c, 0, 65, 31
1, 288480, Note_on_c, 0, 56, 26
1, 288480, Note_on_c, 0, 60, 26
1, 288540, Note_on_c, 0, 60, 0
1, 288540, Note_on_c, 0, 72, 0
1, 288540, Note_on_c, 0, 65, 0
1, 288540, Note_on_c, 0, 56, 0
1, 288660, Tempo, 499168
1, 288720, Tempo, 435224
1, 288720, Note_on_c, 0, 72, 40
1, 288720, Note_on_c, 0, 53, 35
1, 288780, Note_on_c, 0, 53, 0
1, 288840, Note_on_c, 0, 72, 0
1, 288840, Note_on_c, 0, 71, 52
1, 288950, Note_on_c, 0, 71, 0
1, 288960, Tempo, 429861
1, 288960, Note_on_c, 0, 71, 47
1, 288960, Note_on_c, 0, 62, 31
1, 288960, Note_on_c, 0, 59, 26
1, 288960, Note_on_c, 0, 56, 26
1, 289020, Note_on_c, 0, 56, 0
1, 289020, Note_on_c, 0, 59, 0
1, 289020, Note_on_c, 0, 62, 0
1, 289080, Note_on_c, 0, 71, 0
1, 289080, Note_on_c, 0, 74, 40
1, 289200, Tempo, 435224
1, 289200, Note_on_c, 0, 74, 0
1, 289200, Note_on_c, 0, 72, 45
1, 289200, Note_on_c, 0, 53, 31
1, 289260, Note_on_c, 0, 53, 0
1, 289320, Note_on_c, 0, 72, 0
1, 289320, Note_on_c, 0, 71, 36
1, 289380, Tempo, 470146
1, 289440, Tempo, 494438
1, 289440, Note_on_c, 0, 71, 0
1, 289440, Note_on_c, 0, 72, 46
1, 289440, Note_on_c, 0, 48, 35
1, 289500, Note_on_c, 0, 48, 0
1, 289500, Note_on_c, 0, 72, 0
1, 289680, Tempo, 431624
1, 289680, Note_on_c, 0, 67, 39
1, 289680, Note_on_c, 0, 52, 27
1, 289680, Note_on_c, 0, 60, 32
1, 289680, Note_on_c, 0, 55, 27
1, 289740, Note_on_c, 0, 55, 0
1, 289740, Note_on_c, 0, 60, 0
1, 289740, Note_on_c, 0, 52, 0
1, 289920, Note_on_c, 0, 67, 0
1, 289920, Note_on_c, 0, 48, 32
1, 289980, Note_on_c, 0, 48, 0
1, 290040, Tempo, 467690
1, 290160, Tempo, 414622
1, 290160, Note_on_c, 0, 72, 46
1, 290160, Note_on_c, 0, 60, 35
1, 290160, Note_on_c, 0, 52, 29
1, 290160, Note_on_c, 0, 55, 29
1, 290220, Note_on_c, 0, 55, 0
1, 290220, Note_on_c, 0, 72, 0
1, 290220, Note_on_c, 0, 60, 0
1, 290220, Note_on_c, 0, 52, 0
1, 290280, Tempo, 431004
1, 290400, Note_on_c, 0, 67, 39
1, 290400, Note_on_c, 0, 48, 31
1, 290460, Note_on_c, 0, 48, 0
1, 290460, Note_on_c, 0, 67, 0
1, 290640, Note_on_c, 0, 72, 46
1, 290640, Note_on_c, 0, 60, 31
1, 290640, Note_on_c, 0, 52, 26
1, 290640, Note_on_c, 0, 55, 26
1, 290700, Note_on_c, 0, 55, 0
1, 290700, Note_on_c, 0, 72, 0
1, 290700, Note_on_c, 0, 60, 0
1, 290700, Note_on_c, 0, 52, 0
1, 290880, Note_on_c, 0, 70, 46
1, 290880, Note_on_c, 0, 49, 35
1, 290940, Note_on_c, 0, 49, 0
1, 291120, Tempo, 419610
1, 291120, Note_on_c, 0, 70, 0
1, 291120, Note_on_c, 0, 68, 39
1, 291120, Note_on_c, 0, 61, 31
1, 291120, Note_on_c, 0, 53, 26
1, 291159, Control_c, 0, 64, 127
1, 291180, Note_on_c, 0, 53, 0
1, 291180, Note_on_c, 0, 61, 0
1, 291240, Note_on_c, 0, 68, 0
1, 291240, Note_on_c, 0, 67, 39
1, 291360, Note_on_c, 0, 67, 0
1, 291360, Note_on_c, 0, 65, 43
1, 291360, Note_on_c, 0, 49, 31
1, 291420, Note_on_c, 0, 49, 0
1, 291480, Tempo, 456656
1, 291600, Tempo, 428143
1, 291600, Note_on_c, 0, 65, 0
1, 291600, Note_on_c, 0, 67, 46
1, 291600, Note_on_c, 0, 46, 35
1, 291600, Control_c, 0, 64, 0
1, 291697, Control_c, 0, 64, 127
1, 291720, Note_on_c, 0, 67, 0
1, 291720, Note_on_c, 0, 70, 38
1, 291840, Note_on_c, 0, 70, 0
1, 291840, Note_on_c, 0, 46, 0
1, 291840, Note_on_c, 0, 67, 46
1, 291840, Note_on_c, 0, 58, 33
1, 291840, Note_on_c, 0, 55, 28
1, 291960, Note_on_c, 0, 67, 0
1, 291960, Note_on_c, 0, 70, 40
1, 292080, Tempo, 417944
1, 292080, Note_on_c, 0, 70, 0
1, 292080, Note_on_c, 0, 55, 0
1, 292080, Note_on_c, 0, 58, 0
1, 292080, Note_on_c, 0, 64, 46
1, 292080, Note_on_c, 0, 48, 28
1, 292080, Note_on_c, 0, 58, 33
1, 292080, Note_on_c, 0, 55, 28
1, 292200, Tempo, 437031
1, 292200, Note_on_c, 0, 55, 0
1, 292200, Note_on_c, 0, 64, 0
1, 292200, Note_on_c, 0, 48, 0
1, 292200, Note_on_c, 0, 58, 0
1, 292200, Note_on_c, 0, 67, 40
1, 292320, Tempo, 419610
1, 292320, Note_on_c, 0, 67, 0
1, 292320, Note_on_c, 0, 65, 46
1, 292320, Note_on_c, 0, 56, 40
1, 292320, Note_on_c, 0, 53, 34
1, 292334, Control_c, 0, 64, 0
1, 292406, Tempo, 419610
1, 292440, Note_on_c, 0, 65, 0
1, 292440, Note_on_c, 0, 68, 37
1, 292468, Control_c, 0, 64, 127
1, 292474, Tempo, 417944
1, 292531, Tempo, 416291
1, 292560, Note_on_c, 0, 68, 0
1, 292560, Note_on_c, 0, 72, 42
1, 292598, Tempo, 414651
1, 292656, Tempo, 412996
1, 292680, Note_on_c, 0, 72, 0
1, 292680, Note_on_c, 0, 77, 47
1, 292714, Tempo, 411382
1, 292781, Tempo, 409808
1, 292800, Note_on_c, 0, 77, 0
1, 292800, Note_on_c, 0, 53, 0
1, 292800, Note_on_c, 0, 56, 0
1, 292800, Note_on_c, 0, 80, 52
1, 292838, Tempo, 408219
1, 292896, Tempo, 406614
1, 292920, Note_on_c, 0, 80, 0
1, 292920, Note_on_c, 0, 82, 57
1, 292934, Tempo, 426379
1, 293040, Tempo, 437031
1, 293040, Note_on_c, 0, 82, 0
1, 293040, Note_on_c, 0, 84, 65
1, 293040, Note_on_c, 0, 53, 35
1, 293040, Control_c, 0, 64, 0
1, 293100, Note_on_c, 0, 53, 0
1, 293100, Note_on_c, 0, 84, 0
1, 293220, Tempo, 485358
1, 293280, Tempo, 426379
1, 293280, Note_on_c, 0, 84, 54
1, 293280, Note_on_c, 0, 65, 30
1, 293280, Note_on_c, 0, 56, 25
1, 293280, Note_on_c, 0, 60, 25
1, 293340, Note_on_c, 0, 60, 0
1, 293340, Note_on_c, 0, 56, 0
1, 293340, Note_on_c, 0, 65, 0
1, 293400, Note_on_c, 0, 84, 0
1, 293400, Note_on_c, 0, 85, 46
1, 293520, Tempo, 433401
1, 293520, Note_on_c, 0, 85, 0
1, 293520, Note_on_c, 0, 84, 55
1, 293520, Note_on_c, 0, 53, 30
1, 293580, Note_on_c, 0, 53, 0
1, 293580, Note_on_c, 0, 84, 0
1, 293700, Tempo, 467690
1, 293760, Tempo, 435224
1, 293760, Note_on_c, 0, 85, 48
1, 293760, Note_on_c, 0, 65, 35
1, 293760, Note_on_c, 0, 56, 29
1, 293760, Note_on_c, 0, 60, 29
1, 293820, Note_on_c, 0, 60, 0
1, 293820, Note_on_c, 0, 85, 0
1, 293820, Note_on_c, 0, 65, 0
1, 293820, Note_on_c, 0, 56, 0
1, 293820, Note_on_c, 0, 84, 64
1, 293880, Note_on_c, 0, 84, 0
1, 294000, Tempo, 428143
1, 294000, Note_on_c, 0, 84, 52
1, 294000, Note_on_c, 0, 53, 31
1, 294060, Note_on_c, 0, 53, 0
1, 294120, Note_on_c, 0, 84, 0
1, 294120, Note_on_c, 0, 85, 43
1, 294240, Note_on_c, 0, 85, 0
1, 294240, Note_on_c, 0, 84, 50
1, 294240, Note_on_c, 0, 65, 31
1, 294240, Note_on_c, 0, 60, 26
1, 294240, Note_on_c, 0, 56, 26
1, 294300, Note_on_c, 0, 56, 0
1, 294300, Note_on_c, 0, 84, 0
1, 294300, Note_on_c, 0, 65, 0
1, 294300, Note_on_c, 0, 60, 0
1, 294420, Tempo, 466019
1, 294480, Tempo, 435224
1, 294480, Note_on_c, 0, 84, 61
1, 294480, Note_on_c, 0, 53, 35
1, 294517, Control_c, 0, 64, 127
1, 294540, Note_on_c, 0, 53, 0
1, 294600, Tempo, 429861
1, 294600, Note_on_c, 0, 84, 0
1, 294600, Note_on_c, 0, 83, 48
1, 294720, Tempo, 422982
1, 294720, Note_on_c, 0, 83, 0
1, 294720, Note_on_c, 0, 89, 56
1, 294720, Note_on_c, 0, 62, 31
1, 294720, Note_on_c, 0, 56, 26
1, 294720, Note_on_c, 0, 59, 26
1, 294780, Note_on_c, 0, 59, 0
1, 294780, Note_on_c, 0, 56, 0
1, 294780, Note_on_c, 0, 62, 0
1, 294840, Note_on_c, 0, 89, 0
1, 294840, Note_on_c, 0, 83, 48
1, 294960, Note_on_c, 0, 83, 0
1, 294960, Note_on_c, 0, 89, 54
1, 294960, Note_on_c, 0, 53, 31
1, 295020, Note_on_c, 0, 53, 0
1, 295080, Note_on_c, 0, 89, 0
1, 295080, Note_on_c, 0, 83, 43
1, 295140, Tempo, 470146
1, 295200, Tempo, 494438
1, 295200, Note_on_c, 0, 83, 0
1, 295200, Note_on_c, 0, 84, 55
1, 295200, Note_on_c, 0, 48, 35
1, 295200, Control_c, 0, 64, 0
1, 295260, Note_on_c, 0, 48, 0
1, 295260, Note_on_c, 0, 84, 0
1, 295440, Tempo, 431624
1, 295440, Note_on_c, 0, 79, 46
1, 295440, Note_on_c, 0, 55, 27
1, 295440, Note_on_c, 0, 52, 27
1, 295440, Note_on_c, 0, 60, 32
1, 295500, Note_on_c, 0, 60, 0
1, 295500, Note_on_c, 0, 52, 0
1, 295500, Note_on_c, 0, 55, 0
1, 295680, Note_on_c, 0, 48, 32
1, 295740, Note_on_c, 0, 48, 0
1, 295800, Tempo, 476569
1, 295920, Tempo, 407581
1, 295920, Note_on_c, 0, 79, 0
1, 295920, Note_on_c, 0, 84, 57
1, 295920, Note_on_c, 0, 52, 29
1, 295920, Note_on_c, 0, 55, 29
1, 295920, Note_on_c, 0, 60, 35
1, 295980, Note_on_c, 0, 60, 0
1, 295980, Note_on_c, 0, 84, 0
1, 295980, Note_on_c, 0, 52, 0
1, 295980, Note_on_c, 0, 55, 0
1, 296100, Tempo, 426409
1, 296160, Note_on_c, 0, 79, 46
1, 296160, Note_on_c, 0, 48, 31
1, 296220, Note_on_c, 0, 48, 0
1, 296220, Note_on_c, 0, 79, 0
1, 296400, Note_on_c, 0, 84, 55
1, 296400, Note_on_c, 0, 52, 26
1, 296400, Note_on_c, 0, 55, 26
1, 296400, Note_on_c, 0, 60, 31
1, 296460, Note_on_c, 0, 60, 0
1, 296460, Note_on_c, 0, 84, 0
1, 296460, Note_on_c, 0, 52, 0
1, 296460, Note_on_c, 0, 55, 0
1, 296640, Note_on_c, 0, 82, 62
1, 296640, Note_on_c, 0, 49, 35
1, 296700, Note_on_c, 0, 49, 0
1, 296880, Tempo, 419610
1, 296880, Note_on_c, 0, 82, 0
1, 296880, Note_on_c, 0, 80, 49
1, 296880, Note_on_c, 0, 53, 26
1, 296880, Note_on_c, 0, 61, 31
1, 296919, Control_c, 0, 64, 127
1, 296940, Note_on_c, 0, 61, 0
1, 296940, Note_on_c, 0, 53, 0
1, 297000, Note_on_c, 0, 80, 0
1, 297000, Note_on_c, 0, 79, 49
1, 297120, Note_on_c, 0, 79, 0
1, 297120, Note_on_c, 0, 77, 57
1, 297120, Note_on_c, 0, 49, 31
1, 297180, Note_on_c, 0, 49, 0
1, 297240, Tempo, 438821
1, 297360, Tempo, 410369
1, 297360, Note_on_c, 0, 77, 0
1, 297360, Note_on_c, 0, 82, 61
1, 297360, Note_on_c, 0, 50, 35
1, 297360, Control_c, 0, 64, 0
1, 297420, Note_on_c, 0, 50, 0
1, 297420, Note_on_c, 0, 82, 0
1, 297480, Tempo, 426409
1, 297600, Note_on_c, 0, 77, 48
1, 297600, Note_on_c, 0, 62, 31
1, 297600, Note_on_c, 0, 58, 31
1, 297660, Note_on_c, 0, 58, 0
1, 297660, Note_on_c, 0, 62, 0
1, 297660, Note_on_c, 0, 77, 0
1, 297840, Note_on_c, 0, 82, 57
1, 297840, Note_on_c, 0, 50, 31
1, 297900, Note_on_c, 0, 50, 0
1, 297900, Note_on_c, 0, 82, 0
1, 298080, Note_on_c, 0, 80, 63
1, 298080, Note_on_c, 0, 51, 39
1, 298140, Note_on_c, 0, 51, 0
1, 298320, Tempo, 419610
1, 298320, Note_on_c, 0, 80, 0
1, 298320, Note_on_c, 0, 79, 50
1, 298320, Note_on_c, 0, 58, 33
1, 298320, Note_on_c, 0, 63, 33
1, 298359, Control_c, 0, 64, 127
1, 298380, Note_on_c, 0, 63, 0
1, 298380, Note_on_c, 0, 58, 0
1, 298440, Note_on_c, 0, 79, 0
1, 298440, Note_on_c, 0, 77, 50
1, 298560, Note_on_c, 0, 77, 0
1, 298560, Note_on_c, 0, 75, 55
1, 298560, Note_on_c, 0, 51, 33
1, 298620, Note_on_c, 0, 51, 0
1, 298680, Tempo, 438821
1, 298800, Tempo, 404831
1, 298800, Note_on_c, 0, 75, 0
1, 298800, Note_on_c, 0, 80, 64
1, 298800, Note_on_c, 0, 48, 41
1, 298800, Control_c, 0, 64, 0
1, 298860, Note_on_c, 0, 48, 0
1, 298860, Note_on_c, 0, 80, 0
1, 298920, Tempo, 417507
1, 299040, Note_on_c, 0, 75, 49
1, 299040, Note_on_c, 0, 60, 32
1, 299100, Note_on_c, 0, 60, 0
1, 299100, Note_on_c, 0, 75, 0
1, 299160, Tempo, 426379
1, 299280, Tempo, 417944
1, 299280, Note_on_c, 0, 80, 58
1, 299280, Note_on_c, 0, 48, 31
1, 299340, Note_on_c, 0, 48, 0
1, 299340, Note_on_c, 0, 80, 0
1, 299520, Tempo, 406201
1, 299520, Note_on_c, 0, 81, 63
1, 299520, Note_on_c, 0, 47, 40
1, 299580, Note_on_c, 0, 47, 0
1, 299580, Note_on_c, 0, 81, 0
1, 299640, Tempo, 417507
1, 299760, Note_on_c, 0, 75, 53
1, 299760, Note_on_c, 0, 59, 36
1, 299820, Note_on_c, 0, 59, 0
1, 299820, Note_on_c, 0, 75, 0
1, 299880, Tempo, 429861
1, 300000, Tempo, 416291
1, 300000, Note_on_c, 0, 81, 61
1, 300000, Note_on_c, 0, 47, 36
1, 300060, Note_on_c, 0, 47, 0
1, 300060, Note_on_c, 0, 81, 0
1, 300240, Tempo, 414651
1, 300240, Note_on_c, 0, 82, 75
1, 300240, Note_on_c, 0, 46, 51
1, 300289, Control_c, 0, 64, 127
1, 300300, Note_on_c, 0, 46, 0
1, 300300, Note_on_c, 0, 82, 0
1, 300360, Tempo, 428143
1, 300480, Tempo, 416291
1, 300480, Note_on_c, 0, 74, 69
1, 300480, Note_on_c, 0, 77, 69
1, 300480, Note_on_c, 0, 53, 36
1, 300480, Note_on_c, 0, 58, 36
1, 300480, Note_on_c, 0, 62, 43
1, 300540, Note_on_c, 0, 62, 0
1, 300540, Note_on_c, 0, 53, 0
1, 300540, Note_on_c, 0, 74, 0
1, 300540, Note_on_c, 0, 77, 0
1, 300540, Note_on_c, 0, 58, 0
1, 300546, Control_c, 0, 64, 0
1, 300600, Tempo, 429861
1, 300720, Tempo, 416291
1, 300720, Note_on_c, 0, 86, 77
1, 300720, Note_on_c, 0, 46, 57
1, 300775, Control_c, 0, 64, 127
1, 300780, Note_on_c, 0, 46, 0
1, 300780, Note_on_c, 0, 86, 0
1, 300840, Tempo, 426379
1, 300960, Tempo, 409808
1, 300960, Note_on_c, 0, 77, 71
1, 300960, Note_on_c, 0, 82, 71
1, 300960, Note_on_c, 0, 53, 39
1, 300960, Note_on_c, 0, 62, 46
1, 300960, Note_on_c, 0, 58, 39
1, 301020, Note_on_c, 0, 58, 0
1, 301020, Note_on_c, 0, 53, 0
1, 301020, Note_on_c, 0, 77, 0
1, 301020, Note_on_c, 0, 82, 0
1, 301020, Note_on_c, 0, 62, 0
1, 301040, Control_c, 0, 64, 0
1, 301080, Tempo, 422982
1, 301200, Tempo, 408219
1, 301200, Note_on_c, 0, 89, 83
1, 301200, Note_on_c, 0, 46, 55
1, 301237, Control_c, 0, 64, 127
1, 301260, Note_on_c, 0, 46, 0
1, 301260, Note_on_c, 0, 89, 0
1, 301320, Tempo, 417944
1, 301440, Tempo, 401983
1, 301440, Note_on_c, 0, 86, 73
1, 301440, Note_on_c, 0, 82, 73
1, 301440, Note_on_c, 0, 53, 40
1, 301440, Note_on_c, 0, 58, 40
1, 301440, Note_on_c, 0, 62, 48
1, 301500, Note_on_c, 0, 62, 0
1, 301500, Note_on_c, 0, 53, 0
1, 301500, Note_on_c, 0, 86, 0
1, 301500, Note_on_c, 0, 82, 0
1, 301500, Note_on_c, 0, 58, 0
1, 301526, Control_c, 0, 64, 0
1, 301560, Tempo, 424659
1, 301680, Tempo, 405077
1, 301680, Note_on_c, 0, 92, 78
1, 301680, Note_on_c, 0, 46, 61
1, 301688, Control_c, 0, 64, 127
1, 301740, Note_on_c, 0, 46, 0
1, 301800, Note_on_c, 0, 92, 0
1, 301800, Note_on_c, 0, 90, 66
1, 301920, Note_on_c, 0, 90, 0
1, 301920, Note_on_c, 0, 89, 77
1, 301920, Note_on_c, 0, 54, 39
1, 301920, Note_on_c, 0, 57, 39
1, 301920, Note_on_c, 0, 63, 47
1, 301980, Note_on_c, 0, 63, 0
1, 301980, Note_on_c, 0, 57, 0
1, 301980, Note_on_c, 0, 54, 0
1, 302040, Note_on_c, 0, 89, 0
1, 302040, Note_on_c, 0, 90, 62
1, 302160, Note_on_c, 0, 90, 0
1, 302160, Note_on_c, 0, 87, 69
1, 302160, Note_on_c, 0, 46, 60
1, 302174, Control_c, 0, 64, 0
1, 302220, Note_on_c, 0, 46, 0
1, 302280, Note_on_c, 0, 87, 0
1, 302400, Tempo, 405077
1, 302400, Note_on_c, 0, 84, 66
1, 302400, Note_on_c, 0, 57, 48
1, 302400, Note_on_c, 0, 63, 57
1, 302400, Note_on_c, 0, 54, 48
1, 302460, Note_on_c, 0, 54, 0
1, 302460, Note_on_c, 0, 63, 0
1, 302460, Note_on_c, 0, 57, 0
1, 302520, Note_on_c, 0, 84, 0
1, 302640, Note_on_c, 0, 81, 61
1, 302640, Note_on_c, 0, 46, 46
1, 302700, Note_on_c, 0, 46, 0
1, 302760, Note_on_c, 0, 81, 0
1, 302880, Note_on_c, 0, 78, 52
1, 302880, Note_on_c, 0, 63, 45
1, 302880, Note_on_c, 0, 57, 38
1, 302880, Note_on_c, 0, 54, 38
1, 302940, Note_on_c, 0, 54, 0
1, 302940, Note_on_c, 0, 57, 0
1, 302940, Note_on_c, 0, 63, 0
1, 303000, Note_on_c, 0, 78, 0
1, 303120, Tempo, 414651
1, 303120, Note_on_c, 0, 82, 75
1, 303120, Note_on_c, 0, 46, 51
1, 303169, Control_c, 0, 64, 127
1, 303180, Note_on_c, 0, 46, 0
1, 303180, Note_on_c, 0, 82, 0
1, 303240, Tempo, 428143
1, 303360, Tempo, 416291
1, 303360, Note_on_c, 0, 77, 69
1, 303360, Note_on_c, 0, 74, 69
1, 303360, Note_on_c, 0, 58, 36
1, 303360, Note_on_c, 0, 53, 36
1, 303360, Note_on_c, 0, 62, 43
1, 303420, Note_on_c, 0, 62, 0
1, 303420, Note_on_c, 0, 58, 0
1, 303420, Note_on_c, 0, 77, 0
1, 303420, Note_on_c, 0, 74, 0
1, 303420, Note_on_c, 0, 53, 0
1, 303426, Control_c, 0, 64, 0
1, 303480, Tempo, 429861
1, 303600, Tempo, 416291
1, 303600, Note_on_c, 0, 86, 77
1, 303600, Note_on_c, 0, 46, 57
1, 303655, Control_c, 0, 64, 127
1, 303660, Note_on_c, 0, 46, 0
1, 303660, Note_on_c, 0, 86, 0
1, 303720, Tempo, 426379
1, 303840, Tempo, 409808
1, 303840, Note_on_c, 0, 82, 71
1, 303840, Note_on_c, 0, 77, 71
1, 303840, Note_on_c, 0, 62, 46
1, 303840, Note_on_c, 0, 58, 39
1, 303840, Note_on_c, 0, 53, 39
1, 303900, Note_on_c, 0, 53, 0
1, 303900, Note_on_c, 0, 62, 0
1, 303900, Note_on_c, 0, 82, 0
1, 303900, Note_on_c, 0, 77, 0
1, 303900, Note_on_c, 0, 58, 0
1, 303920, Control_c, 0, 64, 0
1, 303960, Tempo, 422982
1, 304080, Tempo, 408219
1, 304080, Note_on_c, 0, 89, 83
1, 304080, Note_on_c, 0, 46, 55
1, 304117, Control_c, 0, 64, 127
1, 304140, Note_on_c, 0, 46, 0
1, 304140, Note_on_c, 0, 89, 0
1, 304200, Tempo, 417944
1, 304320, Tempo, 401983
1, 304320, Note_on_c, 0, 86, 73
1, 304320, Note_on_c, 0, 82, 73
1, 304320, Note_on_c, 0, 58, 40
1, 304320, Note_on_c, 0, 53, 40
1, 304320, Note_on_c, 0, 62, 48
1, 304380, Note_on_c, 0, 62, 0
1, 304380, Note_on_c, 0, 58, 0
1, 304380, Note_on_c, 0, 86, 0
1, 304380, Note_on_c, 0, 82, 0
1, 304380, Note_on_c, 0, 53, 0
1, 304406, Control_c, 0, 64, 0
1, 304440, Tempo, 424659
1, 304560, Tempo, 395491
1, 304560, Note_on_c, 0, 92, 78
1, 304560, Note_on_c, 0, 46, 61
1, 304568, Control_c, 0, 64, 127
1, 304620, Note_on_c, 0, 46, 0
1, 304680, Note_on_c, 0, 92, 0
1, 304680, Note_on_c, 0, 90, 66
1, 304800, Tempo, 404831
1, 304800, Note_on_c, 0, 90, 0
1, 304800, Note_on_c, 0, 89, 77
1, 304800, Note_on_c, 0, 57, 39
1, 304800, Note_on_c, 0, 54, 39
1, 304800, Note_on_c, 0, 63, 47
1, 304860, Note_on_c, 0, 63, 0
1, 304860, Note_on_c, 0, 54, 0
1, 304860, Note_on_c, 0, 57, 0
1, 304920, Note_on_c, 0, 89, 0
1, 304920, Note_on_c, 0, 90, 62
1, 305040, Note_on_c, 0, 90, 0
1, 305040, Note_on_c, 0, 87, 69
1, 305040, Note_on_c, 0, 46, 60
1, 305054, Control_c, 0, 64, 0
1, 305100, Note_on_c, 0, 46, 0
1, 305160, Note_on_c, 0, 87, 0
1, 305280, Tempo, 405077
1, 305280, Note_on_c, 0, 84, 66
1, 305280, Note_on_c, 0, 54, 48
1, 305280, Note_on_c, 0, 57, 48
1, 305280, Note_on_c, 0, 63, 57
1, 305340, Note_on_c, 0, 63, 0
1, 305340, Note_on_c, 0, 57, 0
1, 305340, Note_on_c, 0, 54, 0
1, 305400, Note_on_c, 0, 84, 0
1, 305520, Tempo, 407581
1, 305520, Note_on_c, 0, 81, 61
1, 305520, Note_on_c, 0, 46, 46
1, 305580, Note_on_c, 0, 46, 0
1, 305640, Note_on_c, 0, 81, 0
1, 305760, Note_on_c, 0, 78, 52
1, 305760, Note_on_c, 0, 57, 38
1, 305760, Note_on_c, 0, 54, 38
1, 305760, Note_on_c, 0, 63, 45
1, 305820, Note_on_c, 0, 63, 0
1, 305820, Note_on_c, 0, 54, 0
1, 305820, Note_on_c, 0, 57, 0
1, 305880, Note_on_c, 0, 78, 0
1, 306000, Tempo, 414651
1, 306000, Note_on_c, 0, 82, 75
1, 306000, Note_on_c, 0, 46, 51
1, 306049, Control_c, 0, 64, 127
1, 306060, Note_on_c, 0, 46, 0
1, 306060, Note_on_c, 0, 82, 0
1, 306120, Tempo, 428143
1, 306240, Tempo, 416291
1, 306240, Note_on_c, 0, 77, 69
1, 306240, Note_on_c, 0, 74, 69
1, 306240, Note_on_c, 0, 53, 36
1, 306240, Note_on_c, 0, 58, 36
1, 306240, Note_on_c, 0, 62, 43
1, 306300, Note_on_c, 0, 62, 0
1, 306300, Note_on_c, 0, 53, 0
1, 306300, Note_on_c, 0, 77, 0
1, 306300, Note_on_c, 0, 74, 0
1, 306300, Note_on_c, 0, 58, 0
1, 306306, Control_c, 0, 64, 0
1, 306360, Tempo, 429861
1, 306480, Tempo, 416291
1, 306480, Note_on_c, 0, 83, 77
1, 306480, Note_on_c, 0, 44, 57
1, 306535, Control_c, 0, 64, 127
1, 306540, Note_on_c, 0, 44, 0
1, 306540, Note_on_c, 0, 83, 0
1, 306600, Tempo, 426379
1, 306720, Tempo, 409808
1, 306720, Note_on_c, 0, 77, 71
1, 306720, Note_on_c, 0, 74, 71
1, 306720, Note_on_c, 0, 56, 46
1, 306780, Note_on_c, 0, 56, 0
1, 306780, Note_on_c, 0, 74, 0
1, 306780, Note_on_c, 0, 77, 0
1, 306800, Control_c, 0, 64, 0
1, 306840, Tempo, 422982
1, 306960, Tempo, 408219
1, 306960, Note_on_c, 0, 86, 85
1, 306960, Note_on_c, 0, 43, 55
1, 306997, Control_c, 0, 64, 127
1, 307020, Note_on_c, 0, 43, 0
1, 307020, Note_on_c, 0, 86, 0
1, 307080, Tempo, 417944
1, 307200, Tempo, 401983
1, 307200, Note_on_c, 0, 83, 73
1, 307200, Note_on_c, 0, 77, 73
1, 307200, Note_on_c, 0, 55, 48
1, 307260, Note_on_c, 0, 55, 0
1, 307260, Note_on_c, 0, 77, 0
1, 307260, Note_on_c, 0, 83, 0
1, 307286, Control_c, 0, 64, 0
1, 307320, Tempo, 424659
1, 307440, Tempo, 414651
1, 307440, Note_on_c, 0, 84, 75
1, 307440, Note_on_c, 0, 48, 51
1, 307489, Control_c, 0, 64, 127
1, 307500, Note_on_c, 0, 48, 0
1, 307500, Note_on_c, 0, 84, 0
1, 307560, Tempo, 428143
1, 307680, Tempo, 416291
1, 307680, Note_on_c, 0, 76, 69
1, 307680, Note_on_c, 0, 79, 69
1, 307680, Note_on_c, 0, 60, 43
1, 307740, Note_on_c, 0, 60, 0
1, 307740, Note_on_c, 0, 79, 0
1, 307740, Note_on_c, 0, 76, 0
1, 307746, Control_c, 0, 64, 0
1, 307800, Tempo, 429861
1, 307920, Tempo, 416291
1, 307920, Note_on_c, 0, 88, 77
1, 307920, Note_on_c, 0, 46, 57
1, 307975, Control_c, 0, 64, 127
1, 307980, Note_on_c, 0, 46, 0
1, 307980, Note_on_c, 0, 88, 0
1, 308040, Tempo, 426379
1, 308160, Tempo, 409808
1, 308160, Note_on_c, 0, 85, 71
1, 308160, Note_on_c, 0, 79, 71
1, 308160, Note_on_c, 0, 58, 46
1, 308220, Note_on_c, 0, 58, 0
1, 308220, Note_on_c, 0, 79, 0
1, 308220, Note_on_c, 0, 85, 0
1, 308240, Control_c, 0, 64, 0
1, 308280, Tempo, 422982
1, 308400, Tempo, 408219
1, 308400, Note_on_c, 0, 91, 83
1, 308400, Note_on_c, 0, 43, 55
1, 308437, Control_c, 0, 64, 127
1, 308460, Note_on_c, 0, 43, 0
1, 308460, Note_on_c, 0, 91, 0
1, 308520, Tempo, 417944
1, 308640, Tempo, 401983
1, 308640, Note_on_c, 0, 82, 73
1, 308640, Note_on_c, 0, 85, 73
1, 308640, Note_on_c, 0, 88, 73
1, 308640, Note_on_c, 0, 55, 48
1, 308700, Note_on_c, 0, 55, 0
1, 308700, Note_on_c, 0, 82, 0
1, 308700, Note_on_c, 0, 85, 0
1, 308700, Note_on_c, 0, 88, 0
1, 308726, Control_c, 0, 64, 0
1, 308760, Tempo, 424659
1, 308880, Tempo, 414651
1, 308880, Note_on_c, 0, 89, 75
1, 308880, Note_on_c, 0, 44, 57
1, 308929, Control_c, 0, 64, 127
1, 308940, Note_on_c, 0, 44, 0
1, 308940, Note_on_c, 0, 89, 0
1, 309000, Tempo, 428143
1, 309120, Tempo, 416291
1, 309120, Note_on_c, 0, 77, 69
1, 309120, Note_on_c, 0, 84, 69
1, 309120, Note_on_c, 0, 56, 49
1, 309180, Note_on_c, 0, 56, 0
1, 309180, Note_on_c, 0, 84, 0
1, 309180, Note_on_c, 0, 77, 0
1, 309186, Control_c, 0, 64, 0
1, 309240, Tempo, 429861
1, 309360, Tempo, 416291
1, 309360, Note_on_c, 0, 94, 77
1, 309360, Note_on_c, 0, 34, 57
1, 309415, Control_c, 0, 64, 127
1, 309420, Note_on_c, 0, 34, 0
1, 309420, Note_on_c, 0, 94, 0
1, 309480, Tempo, 426379
1, 309600, Tempo, 409808
1, 309600, Note_on_c, 0, 82, 71
1, 309600, Note_on_c, 0, 46, 46
1, 309660, Note_on_c, 0, 46, 0
1, 309660, Note_on_c, 0, 82, 0
1, 309680, Control_c, 0, 64, 0
1, 309720, Tempo, 422982
1, 309840, Tempo, 408219
1, 309840, Note_on_c, 0, 96, 83
1, 309840, Note_on_c, 0, 36, 64
1, 309877, Control_c, 0, 64, 127
1, 309900, Note_on_c, 0, 36, 0
1, 309900, Note_on_c, 0, 96, 0
1, 309960, Tempo, 417944
1, 310080, Tempo, 401983
1, 310080, Note_on_c, 0, 84, 73
1, 310080, Note_on_c, 0, 48, 58
1, 310140, Note_on_c, 0, 48, 0
1, 310140, Note_on_c, 0, 84, 0
1, 310166, Control_c, 0, 64, 0
1, 310200, Tempo, 424659
1, 310315, Tempo, 423310
1, 310320, Tempo, 419610
1, 310320, Note_on_c, 0, 89, 73
1, 310320, Note_on_c, 0, 101, 87
1, 310320, Note_on_c, 0, 29, 58
1, 310320, Note_on_c, 0, 41, 65
1, 310324, Tempo, 421763
1, 310327, Control_c, 0, 64, 0
1, 310440, Note_on_c, 0, 41, 0
1, 310440, Note_on_c, 0, 89, 0
1, 310440, Note_on_c, 0, 101, 0
1, 310440, Note_on_c, 0, 29, 0
1, 310553, Control_c, 0, 64, 127
1, 310560, Tempo, 421289
1, 310560, Note_on_c, 0, 91, 73
1, 310560, Note_on_c, 0, 61, 51
1, 310560, Note_on_c, 0, 53, 51
1, 310560, Note_on_c, 0, 64, 61
1, 310560, Note_on_c, 0, 58, 51
1, 310564, Tempo, 419610
1, 310570, Tempo, 412996
1, 310574, Tempo, 420227
1, 310612, Tempo, 418731
1, 310620, Note_on_c, 0, 91, 0
1, 310620, Note_on_c, 0, 92, 53
1, 310622, Tempo, 417217
1, 310660, Tempo, 421763
1, 310670, Tempo, 420227
1, 310680, Tempo, 418731
1, 310680, Note_on_c, 0, 92, 0
1, 310680, Note_on_c, 0, 91, 58
1, 310689, Tempo, 417217
1, 310699, Tempo, 415714
1, 310708, Tempo, 414250
1, 310718, Tempo, 420227
1, 310728, Tempo, 423310
1, 310740, Note_on_c, 0, 91, 0
1, 310740, Note_on_c, 0, 92, 54
1, 310747, Tempo, 415714
1, 310766, Tempo, 414250
1, 310776, Tempo, 420227
1, 310785, Tempo, 423310
1, 310800, Note_on_c, 0, 92, 0
1, 310800, Note_on_c, 0, 91, 58
1, 310833, Tempo, 421763
1, 310860, Note_on_c, 0, 91, 0
1, 310860, Note_on_c, 0, 92, 52
1, 310881, Tempo, 420227
1, 310920, Note_on_c, 0, 92, 0
1, 310920, Note_on_c, 0, 91, 58
1, 310929, Tempo, 418731
1, 310977, Tempo, 417217
1, 310980, Note_on_c, 0, 91, 0
1, 310980, Note_on_c, 0, 92, 52
1, 311025, Tempo, 415714
1, 311040, Note_on_c, 0, 92, 0
1, 311040, Note_on_c, 0, 91, 58
1, 311073, Tempo, 414250
1, 311100, Note_on_c, 0, 91, 0
1, 311100, Note_on_c, 0, 92, 52
1, 311121, Tempo, 412768
1, 311160, Note_on_c, 0, 92, 0
1, 311160, Note_on_c, 0, 91, 58
1, 311169, Tempo, 411297
1, 311208, Tempo, 408413
1, 311240, Note_on_c, 0, 91, 0
1, 311240, Note_on_c, 0, 92, 54
1, 311246, Tempo, 409836
1, 311275, Tempo, 411297
1, 311304, Tempo, 412768
1, 311320, Note_on_c, 0, 92, 0
1, 311320, Note_on_c, 0, 91, 58
1, 311332, Tempo, 414250
1, 311361, Tempo, 415714
1, 311400, Tempo, 417217
1, 311400, Note_on_c, 0, 91, 0
1, 311400, Note_on_c, 0, 90, 54
1, 311428, Tempo, 418731
1, 311457, Tempo, 420227
1, 311460, Note_on_c, 0, 90, 0
1, 311460, Note_on_c, 0, 91, 56
1, 311486, Tempo, 421763
1, 311515, Tempo, 423310
1, 311520, Tempo, 417944
1, 311520, Note_on_c, 0, 91, 0
1, 311520, Note_on_c, 0, 92, 64
1, 311532, Control_c, 0, 64, 0
1, 311595, Control_c, 0, 64, 127
1, 311640, Note_on_c, 0, 92, 0
1, 311640, Note_on_c, 0, 91, 58
1, 311760, Note_on_c, 0, 91, 0
1, 311760, Note_on_c, 0, 64, 0
1, 311760, Note_on_c, 0, 61, 0
1, 311760, Note_on_c, 0, 53, 0
1, 311760, Note_on_c, 0, 58, 0
1, 311760, Note_on_c, 0, 89, 81
1, 311760, Note_on_c, 0, 56, 52
1, 311760, Note_on_c, 0, 60, 52
1, 311760, Note_on_c, 0, 53, 52
1, 311760, Note_on_c, 0, 65, 62
1, 311787, Control_c, 0, 64, 0
1, 311880, Note_on_c, 0, 65, 0
1, 311880, Note_on_c, 0, 60, 0
1, 311880, Note_on_c, 0, 89, 0
1, 311880, Note_on_c, 0, 56, 0
1, 311880, Note_on_c, 0, 53, 0
1, 311995, Tempo, 426409
1, 312000, Note_on_c, 0, 79, 73
1, 312000, Note_on_c, 0, 58, 51
1, 312000, Note_on_c, 0, 53, 51
1, 312000, Note_on_c, 0, 64, 61
1, 312000, Note_on_c, 0, 61, 51
1, 312004, Tempo, 424869
1, 312014, Tempo, 421763
1, 312024, Tempo, 420227
1, 312033, Tempo, 418731
1, 312043, Control_c, 0, 64, 127
1, 312060, Note_on_c, 0, 79, 0
1, 312060, Note_on_c, 0, 80, 67
1, 312072, Tempo, 426409
1, 312081, Tempo, 424869
1, 312091, Tempo, 421763
1, 312110, Tempo, 420227
1, 312120, Note_on_c, 0, 80, 0
1, 312120, Note_on_c, 0, 79, 58
1, 312139, Tempo, 421763
1, 312148, Tempo, 420227
1, 312180, Note_on_c, 0, 79, 0
1, 312180, Note_on_c, 0, 80, 54
1, 312206, Tempo, 423310
1, 312216, Tempo, 427991
1, 312225, Tempo, 421763
1, 312240, Note_on_c, 0, 80, 0
1, 312240, Note_on_c, 0, 79, 58
1, 312244, Tempo, 420227
1, 312264, Tempo, 421763
1, 312273, Tempo, 423310
1, 312300, Tempo, 419610
1, 312300, Note_on_c, 0, 79, 0
1, 312300, Note_on_c, 0, 80, 52
1, 312312, Tempo, 426409
1, 312340, Tempo, 424869
1, 312360, Note_on_c, 0, 80, 0
1, 312360, Note_on_c, 0, 79, 58
1, 312369, Tempo, 423310
1, 312388, Tempo, 421763
1, 312417, Tempo, 420227
1, 312420, Note_on_c, 0, 79, 0
1, 312420, Note_on_c, 0, 80, 52
1, 312436, Tempo, 418731
1, 312465, Tempo, 417217
1, 312480, Note_on_c, 0, 80, 0
1, 312480, Note_on_c, 0, 79, 58
1, 312484, Tempo, 415714
1, 312513, Tempo, 414250
1, 312540, Note_on_c, 0, 79, 0
1, 312540, Note_on_c, 0, 80, 52
1, 312542, Tempo, 412768
1, 312561, Tempo, 411297
1, 312590, Tempo, 409836
1, 312600, Note_on_c, 0, 80, 0
1, 312600, Note_on_c, 0, 79, 58
1, 312609, Tempo, 408413
1, 312638, Tempo, 406973
1, 312657, Tempo, 404122
1, 312680, Note_on_c, 0, 79, 0
1, 312680, Note_on_c, 0, 80, 54
1, 312686, Tempo, 405542
1, 312715, Tempo, 406973
1, 312734, Tempo, 408413
1, 312760, Note_on_c, 0, 80, 0
1, 312760, Note_on_c, 0, 79, 58
1, 312763, Tempo, 409836
1, 312782, Tempo, 411297
1, 312811, Tempo, 412768
1, 312840, Tempo, 414250
1, 312840, Note_on_c, 0, 79, 0
1, 312840, Note_on_c, 0, 78, 54
1, 312859, Tempo, 415714
1, 312888, Tempo, 417217
1, 312900, Note_on_c, 0, 78, 0
1, 312900, Note_on_c, 0, 79, 56
1, 312907, Tempo, 418731
1, 312936, Tempo, 420227
1, 312955, Tempo, 421763
1, 312960, Tempo, 417944
1, 312960, Note_on_c, 0, 79, 0
1, 312960, Note_on_c, 0, 80, 64
1, 312972, Control_c, 0, 64, 0
1, 313035, Control_c, 0, 64, 127
1, 313080, Note_on_c, 0, 80, 0
1, 313080, Note_on_c, 0, 79, 58
1, 313200, Note_on_c, 0, 79, 0
1, 313200, Note_on_c, 0, 64, 0
1, 313200, Note_on_c, 0, 58, 0
1, 313200, Note_on_c, 0, 53, 0
1, 313200, Note_on_c, 0, 61, 0
1, 313200, Note_on_c, 0, 77, 81
1, 313200, Note_on_c, 0, 60, 52
1, 313200, Note_on_c, 0, 56, 52
1, 313200, Note_on_c, 0, 65, 62
1, 313200, Note_on_c, 0, 53, 52
1, 313227, Control_c, 0, 64, 0
1, 313320, Note_on_c, 0, 53, 0
1, 313320, Note_on_c, 0, 56, 0
1, 313320, Note_on_c, 0, 77, 0
1, 313320, Note_on_c, 0, 60, 0
1, 313320, Note_on_c, 0, 65, 0
1, 313440, Tempo, 421289
1, 313440, Note_on_c, 0, 91, 73
1, 313440, Note_on_c, 0, 64, 61
1, 313440, Note_on_c, 0, 58, 51
1, 313440, Note_on_c, 0, 53, 51
1, 313440, Note_on_c, 0, 61, 51
1, 313444, Tempo, 419610
1, 313444, Tempo, 421763
1, 313464, Tempo, 418731
1, 313483, Tempo, 417217
1, 313500, Note_on_c, 0, 91, 0
1, 313500, Note_on_c, 0, 92, 67
1, 313512, Tempo, 418731
1, 313540, Tempo, 421763
1, 313560, Tempo, 424869
1, 313560, Note_on_c, 0, 92, 0
1, 313560, Note_on_c, 0, 91, 58
1, 313579, Tempo, 418731
1, 313588, Tempo, 417217
1, 313608, Tempo, 415714
1, 313620, Note_on_c, 0, 91, 0
1, 313620, Note_on_c, 0, 92, 54
1, 313656, Tempo, 417217
1, 313665, Tempo, 418731
1, 313675, Tempo, 420227
1, 313680, Note_on_c, 0, 92, 0
1, 313680, Note_on_c, 0, 91, 58
1, 313684, Tempo, 421763
1, 313723, Tempo, 420227
1, 313732, Tempo, 417217
1, 313740, Note_on_c, 0, 91, 0
1, 313740, Note_on_c, 0, 92, 52
1, 313742, Tempo, 418731
1, 313778, Tempo, 417944
1, 313800, Note_on_c, 0, 92, 0
1, 313800, Note_on_c, 0, 91, 58
1, 313816, Tempo, 416291
1, 313855, Tempo, 414651
1, 313860, Note_on_c, 0, 91, 0
1, 313860, Note_on_c, 0, 92, 52
1, 313892, Tempo, 422982
1, 313920, Tempo, 444379
1, 313920, Note_on_c, 0, 92, 0
1, 313920, Note_on_c, 0, 90, 58
1, 313944, Tempo, 442543
1, 313968, Tempo, 440690
1, 313980, Note_on_c, 0, 90, 0
1, 313980, Note_on_c, 0, 91, 53
1, 313992, Tempo, 438821
1, 314016, Tempo, 437031
1, 314040, Tempo, 435224
1, 314040, Note_on_c, 0, 91, 0
1, 314040, Note_on_c, 0, 92, 54
1, 314052, Tempo, 433401
1, 314076, Tempo, 431624
1, 314100, Tempo, 429861
1, 314100, Note_on_c, 0, 92, 0
1, 314100, Note_on_c, 0, 94, 56
1, 314124, Tempo, 428143
1, 314148, Tempo, 426379
1, 314160, Tempo, 424659
1, 314160, Note_on_c, 0, 94, 0
1, 314160, Note_on_c, 0, 96, 57
1, 314220, Tempo, 426379
1, 314220, Note_on_c, 0, 96, 0
1, 314220, Note_on_c, 0, 97, 58
1, 314280, Tempo, 428143
1, 314280, Note_on_c, 0, 97, 0
1, 314280, Note_on_c, 0, 100, 60
1, 314340, Tempo, 429861
1, 314340, Note_on_c, 0, 100, 0
1, 314340, Note_on_c, 0, 101, 62
1, 314388, Tempo, 431624
1, 314400, Note_on_c, 0, 101, 0
1, 314400, Note_on_c, 0, 100, 63
1, 314440, Note_on_c, 0, 100, 0
1, 314440, Note_on_c, 0, 97, 62
1, 314448, Tempo, 433401
1, 314480, Note_on_c, 0, 97, 0
1, 314481, Note_on_c, 0, 96, 61
1, 314508, Tempo, 435224
1, 314521, Note_on_c, 0, 96, 0
1, 314521, Note_on_c, 0, 94, 61
1, 314560, Note_on_c, 0, 92, 60
1, 314561, Note_on_c, 0, 94, 0
1, 314568, Tempo, 437031
1, 314600, Note_on_c, 0, 92, 0
1, 314600, Note_on_c, 0, 91, 59
1, 314616, Tempo, 438821
1, 314640, Note_on_c, 0, 91, 0
1, 314640, Note_on_c, 0, 53, 0
1, 314640, Note_on_c, 0, 64, 0
1, 314640, Note_on_c, 0, 58, 0
1, 314640, Note_on_c, 0, 61, 0
1, 314640, Note_on_c, 0, 89, 81
1, 314640, Note_on_c, 0, 56, 52
1, 314640, Note_on_c, 0, 65, 62
1, 314640, Note_on_c, 0, 53, 52
1, 314640, Note_on_c, 0, 60, 52
1, 314667, Control_c, 0, 64, 0
1, 314676, Tempo, 440690
1, 314736, Tempo, 442543
1, 314760, Note_on_c, 0, 60, 0
1, 314760, Note_on_c, 0, 65, 0
1, 314760, Note_on_c, 0, 89, 0
1, 314760, Note_on_c, 0, 56, 0
1, 314760, Note_on_c, 0, 53, 0
1, 314796, Tempo, 444379
1, 314844, Tempo, 446263
1, 314880, Tempo, 421289
1, 314880, Note_on_c, 0, 79, 73
1, 314880, Note_on_c, 0, 58, 51
1, 314880, Note_on_c, 0, 64, 61
1, 314880, Note_on_c, 0, 53, 51
1, 314880, Note_on_c, 0, 61, 51
1, 314884, Tempo, 419610
1, 314890, Tempo, 412996
1, 314926, Tempo, 414651
1, 314932, Tempo, 416291
1, 314938, Tempo, 426379
1, 314940, Note_on_c, 0, 79, 0
1, 314940, Note_on_c, 0, 80, 67
1, 314940, Control_c, 0, 64, 127
1, 314963, Tempo, 416291
1, 314969, Tempo, 414651
1, 314981, Tempo, 412996
1, 314993, Tempo, 411382
1, 315000, Note_on_c, 0, 80, 0
1, 315000, Note_on_c, 0, 79, 58
1, 315011, Tempo, 412996
1, 315017, Tempo, 414651
1, 315023, Tempo, 416291
1, 315035, Tempo, 417944
1, 315060, Tempo, 411382
1, 315060, Note_on_c, 0, 79, 0
1, 315060, Note_on_c, 0, 80, 54
1, 315072, Tempo, 412996
1, 315078, Tempo, 414651
1, 315084, Tempo, 417944
1, 315120, Note_on_c, 0, 80, 0
1, 315120, Note_on_c, 0, 79, 58
1, 315121, Tempo, 416291
1, 315180, Tempo, 419610
1, 315180, Note_on_c, 0, 79, 0
1, 315180, Note_on_c, 0, 80, 52
1, 315212, Tempo, 424659
1, 315240, Note_on_c, 0, 80, 0
1, 315240, Note_on_c, 0, 79, 58
1, 315260, Tempo, 422982
1, 315300, Note_on_c, 0, 79, 0
1, 315300, Note_on_c, 0, 80, 52
1, 315346, Tempo, 536961
1, 315360, Note_on_c, 0, 80, 0
1, 315360, Note_on_c, 0, 78, 55
1, 315376, Tempo, 534521
1, 315385, Control_c, 0, 64, 0
1, 315392, Note_on_c, 0, 78, 0
1, 315392, Note_on_c, 0, 79, 55
1, 315406, Tempo, 532056
1, 315409, Control_c, 0, 64, 127
1, 315423, Note_on_c, 0, 79, 0
1, 315424, Note_on_c, 0, 80, 57
1, 315436, Tempo, 529614
1, 315455, Note_on_c, 0, 80, 0
1, 315455, Note_on_c, 0, 82, 57
1, 315466, Tempo, 527194
1, 315487, Note_on_c, 0, 82, 0
1, 315487, Note_on_c, 0, 84, 60
1, 315496, Tempo, 524843
1, 315518, Note_on_c, 0, 84, 0
1, 315518, Note_on_c, 0, 85, 62
1, 315526, Tempo, 522466
1, 315549, Note_on_c, 0, 85, 0
1, 315550, Note_on_c, 0, 88, 64
1, 315556, Tempo, 520111
1, 315582, Note_on_c, 0, 88, 0
1, 315582, Note_on_c, 0, 89, 67
1, 315586, Tempo, 517822
1, 315614, Note_on_c, 0, 89, 0
1, 315614, Note_on_c, 0, 91, 68
1, 315616, Tempo, 515508
1, 315645, Note_on_c, 0, 91, 0
1, 315645, Note_on_c, 0, 89, 68
1, 315646, Tempo, 513215
1, 315676, Tempo, 510943
1, 315677, Note_on_c, 0, 89, 0
1, 315677, Note_on_c, 0, 88, 65
1, 315706, Tempo, 508733
1, 315707, Note_on_c, 0, 85, 63
1, 315708, Note_on_c, 0, 88, 0
1, 315736, Tempo, 508733
1, 315738, Note_on_c, 0, 85, 0
1, 315739, Note_on_c, 0, 84, 61
1, 315751, Tempo, 510943
1, 315766, Tempo, 513215
1, 315770, Note_on_c, 0, 84, 0
1, 315770, Note_on_c, 0, 82, 59
1, 315781, Tempo, 515508
1, 315796, Tempo, 520111
1, 315800, Note_on_c, 0, 80, 57
1, 315801, Note_on_c, 0, 82, 0
1, 315811, Tempo, 522466
1, 315826, Tempo, 524843
1, 315831, Note_on_c, 0, 80, 0
1, 315831, Note_on_c, 0, 79, 57
1, 315841, Tempo, 527194
1, 315856, Tempo, 532056
1, 315862, Note_on_c, 0, 77, 54
1, 315862, Note_on_c, 0, 79, 0
1, 315871, Tempo, 534521
1, 315886, Tempo, 536961
1, 315893, Note_on_c, 0, 77, 0
1, 315893, Note_on_c, 0, 76, 50
1, 315901, Tempo, 539471
1, 315916, Tempo, 544563
1, 315924, Note_on_c, 0, 76, 0
1, 315924, Note_on_c, 0, 73, 49
1, 315931, Tempo, 547096
1, 315946, Tempo, 549702
1, 315954, Note_on_c, 0, 72, 47
1, 315955, Note_on_c, 0, 73, 0
1, 315961, Tempo, 552334
1, 315976, Tempo, 557621
1, 315985, Note_on_c, 0, 72, 0
1, 315985, Note_on_c, 0, 70, 46
1, 315991, Tempo, 560329
1, 316006, Tempo, 563063
1, 316016, Note_on_c, 0, 70, 0
1, 316016, Note_on_c, 0, 68, 44
1, 316021, Tempo, 565771
1, 316036, Tempo, 571374
1, 316043, Tempo, 623247
1, 316046, Note_on_c, 0, 67, 42
1, 316047, Note_on_c, 0, 68, 0
1, 316055, Tempo, 630650
1, 316067, Tempo, 638366
1, 316080, Tempo, 354778
1, 316080, Note_on_c, 0, 64, 0
1, 316080, Note_on_c, 0, 61, 0
1, 316080, Note_on_c, 0, 58, 0
1, 316080, Note_on_c, 0, 67, 0
1, 316080, Note_on_c, 0, 53, 0
1, 316080, Note_on_c, 0, 65, 64
1, 316080, Note_on_c, 0, 60, 72
1, 316080, Note_on_c, 0, 53, 61
1, 316080, Note_on_c, 0, 56, 61
1, 316090, Control_c, 0, 64, 0
1, 316140, Note_on_c, 0, 56, 0
1, 316140, Note_on_c, 0, 65, 0
1, 316140, Note_on_c, 0, 60, 0
1, 316140, Note_on_c, 0, 53, 0
1, 316140, Control_c, 0, 64, 127
1, 316260, Control_c, 0, 64, 0
1, 316320, Tempo, 361185
1, 316320, Note_on_c, 0, 60, 43
1, 316380, Note_on_c, 0, 60, 0
1, 316560, Tempo, 352692
1, 316560, Note_on_c, 0, 65, 51
1, 316620, Note_on_c, 0, 65, 0
1, 316800, Tempo, 357953
1, 316800, Note_on_c, 0, 60, 44
1, 316860, Note_on_c, 0, 60, 0
1, 317040, Tempo, 350631
1, 317040, Note_on_c, 0, 65, 51
1, 317100, Note_on_c, 0, 65, 0
1, 317280, Tempo, 360101
1, 317280, Note_on_c, 0, 60, 42
1, 317340, Note_on_c, 0, 60, 0
1, 317520, Tempo, 349610
1, 317520, Note_on_c, 0, 65, 52
1, 317580, Note_on_c, 0, 65, 0
1, 317760, Tempo, 359023
1, 317760, Note_on_c, 0, 60, 43
1, 317820, Note_on_c, 0, 60, 0
1, 318000, Tempo, 349610
1, 318000, Note_on_c, 0, 65, 51
1, 318060, Note_on_c, 0, 65, 0
1, 318240, Tempo, 355830
1, 318240, Note_on_c, 0, 60, 44
1, 318300, Note_on_c, 0, 60, 0
1, 318480, Tempo, 349610
1, 318480, Note_on_c, 0, 65, 51
1, 318540, Note_on_c, 0, 65, 0
1, 318720, Tempo, 362647
1, 318720, Note_on_c, 0, 60, 42
1, 318780, Note_on_c, 0, 60, 0
1, 318960, Tempo, 350631
1, 318960, Note_on_c, 0, 68, 52
1, 318960, Note_on_c, 0, 65, 52
1, 319020, Note_on_c, 0, 65, 0
1, 319020, Note_on_c, 0, 68, 0
1, 319200, Tempo, 355198
1, 319200, Note_on_c, 0, 60, 42
1, 319200, Note_on_c, 0, 65, 42
1, 319260, Note_on_c, 0, 65, 0
1, 319260, Note_on_c, 0, 60, 0
1, 319440, Tempo, 350631
1, 319440, Note_on_c, 0, 68, 49
1, 319440, Note_on_c, 0, 65, 49
1, 319500, Note_on_c, 0, 65, 0
1, 319500, Note_on_c, 0, 68, 0
1, 319680, Tempo, 352775
1, 319680, Note_on_c, 0, 60, 41
1, 319680, Note_on_c, 0, 65, 41
1, 319740, Note_on_c, 0, 65, 0
1, 319740, Note_on_c, 0, 60, 0
1, 319920, Tempo, 349610
1, 319920, Note_on_c, 0, 65, 47
1, 319920, Note_on_c, 0, 68, 40
1, 319980, Note_on_c, 0, 68, 0
1, 319980, Note_on_c, 0, 65, 0
1, 320160, Tempo, 356422
1, 320160, Note_on_c, 0, 60, 38
1, 320160, Note_on_c, 0, 65, 40
1, 320220, Note_on_c, 0, 65, 0
1, 320220, Note_on_c, 0, 60, 0
1, 320400, Tempo, 351659
1, 320400, Note_on_c, 0, 68, 46
1, 320400, Note_on_c, 0, 65, 46
1, 320460, Note_on_c, 0, 65, 0
1, 320460, Note_on_c, 0, 68, 0
1, 320640, Tempo, 356888
1, 320640, Note_on_c, 0, 65, 38
1, 320640, Note_on_c, 0, 60, 38
1, 320700, Note_on_c, 0, 60, 0
1, 320700, Note_on_c, 0, 65, 0
1, 320880, Tempo, 349203
1, 320880, Note_on_c, 0, 65, 44
1, 320880, Note_on_c, 0, 68, 44
1, 320940, Note_on_c, 0, 68, 0
1, 320940, Note_on_c, 0, 65, 0
1, 321120, Tempo, 352775
1, 321120, Note_on_c, 0, 65, 37
1, 321120, Note_on_c, 0, 60, 37
1, 321180, Note_on_c, 0, 60, 0
1, 321180, Note_on_c, 0, 65, 0
1, 321360, Tempo, 349610
1, 321360, Note_on_c, 0, 65, 42
1, 321360, Note_on_c, 0, 68, 36
1, 321420, Note_on_c, 0, 68, 0
1, 321420, Note_on_c, 0, 65, 0
1, 321600, Tempo, 362647
1, 321600, Note_on_c, 0, 65, 36
1, 321600, Note_on_c, 0, 60, 34
1, 321660, Note_on_c, 0, 60, 0
1, 321660, Note_on_c, 0, 65, 0
1, 321840, Tempo, 350631
1, 321840, Note_on_c, 0, 68, 41
1, 321840, Note_on_c, 0, 65, 41
1, 321840, Note_on_c, 0, 44, 35
1, 321840, Note_on_c, 0, 49, 35
1, 321840, Note_on_c, 0, 37, 35
1, 321900, Note_on_c, 0, 65, 0
1, 321900, Note_on_c, 0, 68, 0
1, 322080, Tempo, 359023
1, 322080, Note_on_c, 0, 65, 34
1, 322080, Note_on_c, 0, 61, 34
1, 322140, Note_on_c, 0, 61, 0
1, 322140, Note_on_c, 0, 65, 0
1, 322320, Tempo, 351659
1, 322320, Note_on_c, 0, 68, 40
1, 322320, Note_on_c, 0, 65, 40
1, 322380, Note_on_c, 0, 65, 0
1, 322380, Note_on_c, 0, 68, 0
1, 322560, Tempo, 357953
1, 322560, Note_on_c, 0, 61, 35
1, 322560, Note_on_c, 0, 65, 35
1, 322620, Note_on_c, 0, 65, 0
1, 322620, Note_on_c, 0, 61, 0
1, 322800, Tempo, 352692
1, 322800, Note_on_c, 0, 65, 40
1, 322800, Note_on_c, 0, 68, 35
1, 322860, Note_on_c, 0, 68, 0
1, 322860, Note_on_c, 0, 65, 0
1, 323040, Tempo, 361185
1, 323040, Note_on_c, 0, 65, 35
1, 323040, Note_on_c, 0, 61, 33
1, 323100, Note_on_c, 0, 61, 0
1, 323100, Note_on_c, 0, 65, 0
1, 323280, Tempo, 351659
1, 323280, Note_on_c, 0, 65, 41
1, 323280, Note_on_c, 0, 68, 41
1, 323340, Note_on_c, 0, 68, 0
1, 323340, Note_on_c, 0, 65, 0
1, 323520, Tempo, 357953
1, 323520, Note_on_c, 0, 61, 34
1, 323520, Note_on_c, 0, 65, 34
1, 323580, Note_on_c, 0, 65, 0
1, 323580, Note_on_c, 0, 61, 0
1, 323760, Tempo, 350631
1, 323760, Note_on_c, 0, 68, 40
1, 323760, Note_on_c, 0, 65, 40
1, 323820, Note_on_c, 0, 65, 0
1, 323820, Note_on_c, 0, 68, 0
1, 324000, Tempo, 357953
1, 324000, Note_on_c, 0, 65, 35
1, 324000, Note_on_c, 0, 61, 35
1, 324060, Note_on_c, 0, 61, 0
1, 324060, Note_on_c, 0, 65, 0
1, 324240, Tempo, 350631
1, 324240, Note_on_c, 0, 68, 35
1, 324240, Note_on_c, 0, 65, 40
1, 324300, Note_on_c, 0, 65, 0
1, 324300, Note_on_c, 0, 68, 0
1, 324480, Tempo, 362647
1, 324480, Note_on_c, 0, 61, 33
1, 324480, Note_on_c, 0, 65, 35
1, 324540, Note_on_c, 0, 65, 0
1, 324540, Note_on_c, 0, 61, 0
1, 324720, Tempo, 350631
1, 324720, Note_on_c, 0, 37, 0
1, 324720, Note_on_c, 0, 44, 0
1, 324720, Note_on_c, 0, 49, 0
1, 324720, Note_on_c, 0, 68, 41
1, 324720, Note_on_c, 0, 66, 41
1, 324720, Note_on_c, 0, 36, 35
1, 324720, Note_on_c, 0, 44, 35
1, 324720, Note_on_c, 0, 48, 35
1, 324780, Note_on_c, 0, 66, 0
1, 324780, Note_on_c, 0, 68, 0
1, 324960, Tempo, 359023
1, 324960, Note_on_c, 0, 66, 34
1, 324960, Note_on_c, 0, 63, 34
1, 325020, Note_on_c, 0, 63, 0
1, 325020, Note_on_c, 0, 66, 0
1, 325200, Tempo, 349610
1, 325200, Note_on_c, 0, 68, 40
1, 325200, Note_on_c, 0, 66, 40
1, 325260, Note_on_c, 0, 66, 0
1, 325260, Note_on_c, 0, 68, 0
1, 325440, Tempo, 356888
1, 325440, Note_on_c, 0, 66, 35
1, 325440, Note_on_c, 0, 63, 35
1, 325500, Note_on_c, 0, 63, 0
1, 325500, Note_on_c, 0, 66, 0
1, 325680, Tempo, 349610
1, 325680, Note_on_c, 0, 68, 35
1, 325680, Note_on_c, 0, 66, 40
1, 325740, Note_on_c, 0, 66, 0
1, 325740, Note_on_c, 0, 68, 0
1, 325920, Tempo, 357632
1, 325920, Note_on_c, 0, 66, 35
1, 325920, Note_on_c, 0, 63, 33
1, 325980, Note_on_c, 0, 63, 0
1, 325980, Note_on_c, 0, 66, 0
1, 326160, Tempo, 349203
1, 326160, Note_on_c, 0, 68, 41
1, 326160, Note_on_c, 0, 66, 41
1, 326220, Note_on_c, 0, 66, 0
1, 326220, Note_on_c, 0, 68, 0
1, 326400, Tempo, 355198
1, 326400, Note_on_c, 0, 68, 43
1, 326400, Note_on_c, 0, 75, 43
1, 326460, Note_on_c, 0, 75, 0
1, 326460, Note_on_c, 0, 68, 0
1, 326640, Tempo, 349203
1, 326640, Note_on_c, 0, 78, 45
1, 326640, Note_on_c, 0, 75, 45
1, 326700, Note_on_c, 0, 75, 0
1, 326700, Note_on_c, 0, 78, 0
1, 326880, Tempo, 352775
1, 326880, Note_on_c, 0, 78, 48
1, 326880, Note_on_c, 0, 80, 48
1, 326926, Control_c, 0, 64, 127
1, 326940, Note_on_c, 0, 80, 0
1, 326940, Note_on_c, 0, 78, 0
1, 327120, Tempo, 348048
1, 327120, Note_on_c, 0, 80, 50
1, 327120, Note_on_c, 0, 87, 50
1, 327180, Note_on_c, 0, 87, 0
1, 327180, Note_on_c, 0, 80, 0
1, 327360, Tempo, 362647
1, 327360, Note_on_c, 0, 90, 53
1, 327360, Note_on_c, 0, 87, 53
1, 327420, Note_on_c, 0, 87, 0
1, 327420, Note_on_c, 0, 90, 0
1, 327600, Tempo, 342446
1, 327600, Note_on_c, 0, 48, 0
1, 327600, Note_on_c, 0, 36, 0
1, 327600, Note_on_c, 0, 44, 0
1, 327600, Note_on_c, 0, 85, 55
1, 327600, Note_on_c, 0, 89, 55
1, 327600, Note_on_c, 0, 44, 35
1, 327600, Note_on_c, 0, 37, 35
1, 327600, Note_on_c, 0, 49, 35
1, 327632, Control_c, 0, 64, 0
1, 327660, Note_on_c, 0, 89, 0
1, 327660, Note_on_c, 0, 85, 0
1, 327840, Tempo, 355198
1, 327840, Note_on_c, 0, 80, 53
1, 327840, Note_on_c, 0, 77, 53
1, 327900, Note_on_c, 0, 77, 0
1, 327900, Note_on_c, 0, 80, 0
1, 328080, Tempo, 349203
1, 328080, Note_on_c, 0, 89, 57
1, 328080, Note_on_c, 0, 85, 57
1, 328140, Note_on_c, 0, 85, 0
1, 328140, Note_on_c, 0, 89, 0
1, 328320, Tempo, 352775
1, 328320, Note_on_c, 0, 77, 49
1, 328320, Note_on_c, 0, 80, 49
1, 328380, Note_on_c, 0, 80, 0
1, 328380, Note_on_c, 0, 77, 0
1, 328560, Tempo, 348048
1, 328560, Note_on_c, 0, 89, 56
1, 328560, Note_on_c, 0, 85, 56
1, 328620, Note_on_c, 0, 85, 0
1, 328620, Note_on_c, 0, 89, 0
1, 328800, Tempo, 357632
1, 328800, Note_on_c, 0, 77, 50
1, 328800, Note_on_c, 0, 80, 50
1, 328860, Note_on_c, 0, 80, 0
1, 328860, Note_on_c, 0, 77, 0
1, 329040, Tempo, 344412
1, 329040, Note_on_c, 0, 89, 56
1, 329040, Note_on_c, 0, 85, 56
1, 329065, Control_c, 0, 64, 127
1, 329100, Note_on_c, 0, 85, 0
1, 329100, Note_on_c, 0, 89, 0
1, 329280, Tempo, 355198
1, 329280, Note_on_c, 0, 80, 54
1, 329280, Note_on_c, 0, 85, 54
1, 329340, Note_on_c, 0, 85, 0
1, 329340, Note_on_c, 0, 80, 0
1, 329520, Tempo, 349203
1, 329520, Note_on_c, 0, 77, 51
1, 329520, Note_on_c, 0, 80, 51
1, 329580, Note_on_c, 0, 80, 0
1, 329580, Note_on_c, 0, 77, 0
1, 329760, Tempo, 352775
1, 329760, Note_on_c, 0, 77, 47
1, 329760, Note_on_c, 0, 73, 47
1, 329774, Control_c, 0, 64, 0
1, 329820, Note_on_c, 0, 73, 0
1, 329820, Note_on_c, 0, 77, 0
1, 329831, Control_c, 0, 64, 127
1, 330000, Tempo, 348048
1, 330000, Note_on_c, 0, 73, 44
1, 330000, Note_on_c, 0, 68, 44
1, 330060, Note_on_c, 0, 68, 0
1, 330060, Note_on_c, 0, 73, 0
1, 330240, Tempo, 362647
1, 330240, Note_on_c, 0, 68, 41
1, 330240, Note_on_c, 0, 65, 41
1, 330300, Note_on_c, 0, 65, 0
1, 330300, Note_on_c, 0, 68, 0
1, 330367, Control_c, 0, 64, 0
1, 330480, Tempo, 343426
1, 330480, Note_on_c, 0, 49, 0
1, 330480, Note_on_c, 0, 44, 0
1, 330480, Note_on_c, 0, 37, 0
1, 330480, Note_on_c, 0, 68, 41
1, 330480, Note_on_c, 0, 66, 41
1, 330480, Note_on_c, 0, 48, 35
1, 330480, Note_on_c, 0, 44, 35
1, 330480, Note_on_c, 0, 36, 35
1, 330540, Note_on_c, 0, 66, 0
1, 330540, Note_on_c, 0, 68, 0
1, 330720, Tempo, 355198
1, 330720, Note_on_c, 0, 63, 34
1, 330720, Note_on_c, 0, 66, 34
1, 330780, Note_on_c, 0, 66, 0
1, 330780, Note_on_c, 0, 63, 0
1, 330960, Tempo, 343426
1, 330960, Note_on_c, 0, 68, 40
1, 330960, Note_on_c, 0, 66, 40
1, 331020, Note_on_c, 0, 66, 0
1, 331020, Note_on_c, 0, 68, 0
1, 331200, Tempo, 352775
1, 331200, Note_on_c, 0, 44, 0
1, 331200, Note_on_c, 0, 66, 44
1, 331200, Note_on_c, 0, 69, 44
1, 331200, Note_on_c, 0, 45, 41
1, 331260, Note_on_c, 0, 69, 0
1, 331260, Note_on_c, 0, 66, 0
1, 331440, Tempo, 348048
1, 331440, Note_on_c, 0, 66, 35
1, 331440, Note_on_c, 0, 63, 40
1, 331500, Note_on_c, 0, 63, 0
1, 331500, Note_on_c, 0, 66, 0
1, 331680, Tempo, 357632
1, 331680, Note_on_c, 0, 69, 35
1, 331680, Note_on_c, 0, 66, 33
1, 331740, Note_on_c, 0, 66, 0
1, 331740, Note_on_c, 0, 69, 0
1, 331920, Tempo, 349203
1, 331920, Note_on_c, 0, 45, 0
1, 331920, Note_on_c, 0, 66, 41
1, 331920, Note_on_c, 0, 68, 41
1, 331920, Note_on_c, 0, 44, 35
1, 331980, Note_on_c, 0, 68, 0
1, 331980, Note_on_c, 0, 66, 0
1, 332160, Tempo, 355198
1, 332160, Note_on_c, 0, 68, 43
1, 332160, Note_on_c, 0, 75, 43
1, 332220, Note_on_c, 0, 75, 0
1, 332220, Note_on_c, 0, 68, 0
1, 332400, Tempo, 349203
1, 332400, Note_on_c, 0, 78, 45
1, 332400, Note_on_c, 0, 75, 45
1, 332460, Note_on_c, 0, 75, 0
1, 332460, Note_on_c, 0, 78, 0
1, 332640, Tempo, 352775
1, 332640, Note_on_c, 0, 80, 48
1, 332640, Note_on_c, 0, 78, 48
1, 332674, Control_c, 0, 64, 127
1, 332700, Note_on_c, 0, 78, 0
1, 332700, Note_on_c, 0, 80, 0
1, 332880, Tempo, 348048
1, 332880, Note_on_c, 0, 80, 50
1, 332880, Note_on_c, 0, 87, 50
1, 332940, Note_on_c, 0, 87, 0
1, 332940, Note_on_c, 0, 80, 0
1, 333120, Tempo, 362647
1, 333120, Note_on_c, 0, 90, 53
1, 333120, Note_on_c, 0, 87, 53
1, 333180, Note_on_c, 0, 87, 0
1, 333180, Note_on_c, 0, 90, 0
1, 333360, Tempo, 348048
1, 333360, Note_on_c, 0, 44, 0
1, 333360, Note_on_c, 0, 48, 0
1, 333360, Note_on_c, 0, 36, 0
1, 333360, Note_on_c, 0, 85, 55
1, 333360, Note_on_c, 0, 89, 55
1, 333360, Note_on_c, 0, 37, 35
1, 333360, Note_on_c, 0, 49, 35
1, 333360, Note_on_c, 0, 44, 35
1, 333420, Note_on_c, 0, 89, 0
1, 333420, Note_on_c, 0, 85, 0
1, 333427, Control_c, 0, 64, 0
1, 333600, Tempo, 355198
1, 333600, Note_on_c, 0, 77, 53
1, 333600, Note_on_c, 0, 80, 53
1, 333660, Note_on_c, 0, 80, 0
1, 333660, Note_on_c, 0, 77, 0
1, 333840, Tempo, 345403
1, 333840, Note_on_c, 0, 89, 57
1, 333840, Note_on_c, 0, 85, 57
1, 333900, Note_on_c, 0, 85, 0
1, 333900, Note_on_c, 0, 89, 0
1, 334080, Tempo, 352775
1, 334080, Note_on_c, 0, 44, 0
1, 334080, Note_on_c, 0, 82, 49
1, 334080, Note_on_c, 0, 77, 49
1, 334080, Note_on_c, 0, 46, 43
1, 334140, Note_on_c, 0, 77, 0
1, 334140, Note_on_c, 0, 82, 0
1, 334320, Tempo, 348048
1, 334320, Note_on_c, 0, 85, 56
1, 334320, Note_on_c, 0, 89, 56
1, 334380, Note_on_c, 0, 89, 0
1, 334380, Note_on_c, 0, 85, 0
1, 334560, Tempo, 357632
1, 334560, Note_on_c, 0, 77, 50
1, 334560, Note_on_c, 0, 82, 50
1, 334620, Note_on_c, 0, 82, 0
1, 334620, Note_on_c, 0, 77, 0
1, 334800, Tempo, 349203
1, 334800, Note_on_c, 0, 46, 0
1, 334800, Note_on_c, 0, 85, 56
1, 334800, Note_on_c, 0, 89, 56
1, 334800, Note_on_c, 0, 44, 35
1, 334839, Control_c, 0, 64, 127
1, 334860, Note_on_c, 0, 89, 0
1, 334860, Note_on_c, 0, 85, 0
1, 335040, Tempo, 355198
1, 335040, Note_on_c, 0, 80, 54
1, 335040, Note_on_c, 0, 85, 54
1, 335100, Note_on_c, 0, 85, 0
1, 335100, Note_on_c, 0, 80, 0
1, 335280, Tempo, 349203
1, 335280, Note_on_c, 0, 77, 51
1, 335280, Note_on_c, 0, 80, 51
1, 335340, Note_on_c, 0, 80, 0
1, 335340, Note_on_c, 0, 77, 0
1, 335520, Tempo, 352775
1, 335520, Note_on_c, 0, 73, 47
1, 335520, Note_on_c, 0, 77, 47
1, 335534, Control_c, 0, 64, 0
1, 335580, Note_on_c, 0, 77, 0
1, 335580, Note_on_c, 0, 73, 0
1, 335608, Control_c, 0, 64, 127
1, 335760, Tempo, 348048
1, 335760, Note_on_c, 0, 73, 44
1, 335760, Note_on_c, 0, 68, 44
1, 335820, Note_on_c, 0, 68, 0
1, 335820, Note_on_c, 0, 73, 0
1, 336000, Tempo, 362647
1, 336000, Note_on_c, 0, 68, 41
1, 336000, Note_on_c, 0, 65, 41
1, 336060, Note_on_c, 0, 65, 0
1, 336060, Note_on_c, 0, 68, 0
1, 336060, Control_c, 0, 64, 0
1, 336240, Tempo, 342446
1, 336240, Note_on_c, 0, 44, 0
1, 336240, Note_on_c, 0, 37, 0
1, 336240, Note_on_c, 0, 49, 0
1, 336240, Note_on_c, 0, 75, 41
1, 336240, Note_on_c, 0, 77, 41
1, 336240, Note_on_c, 0, 36, 35
1, 336240, Note_on_c, 0, 41, 35
1, 336240, Note_on_c, 0, 48, 35
1, 336300, Note_on_c, 0, 77, 0
1, 336300, Note_on_c, 0, 75, 0
1, 336480, Tempo, 355198
1, 336480, Note_on_c, 0, 69, 34
1, 336480, Note_on_c, 0, 65, 34
1, 336540, Note_on_c, 0, 65, 0
1, 336540, Note_on_c, 0, 69, 0
1, 336720, Tempo, 343426
1, 336720, Note_on_c, 0, 75, 40
1, 336720, Note_on_c, 0, 77, 40
1, 336780, Note_on_c, 0, 77, 0
1, 336780, Note_on_c, 0, 75, 0
1, 336960, Tempo, 352775
1, 336960, Note_on_c, 0, 41, 0
1, 336960, Note_on_c, 0, 69, 35
1, 336960, Note_on_c, 0, 66, 35
1, 336960, Note_on_c, 0, 42, 41
1, 337020, Note_on_c, 0, 66, 0
1, 337020, Note_on_c, 0, 69, 0
1, 337200, Tempo, 348048
1, 337200, Note_on_c, 0, 78, 35
1, 337200, Note_on_c, 0, 75, 40
1, 337260, Note_on_c, 0, 75, 0
1, 337260, Note_on_c, 0, 78, 0
1, 337440, Tempo, 357632
1, 337440, Note_on_c, 0, 66, 33
1, 337440, Note_on_c, 0, 69, 35
1, 337500, Note_on_c, 0, 69, 0
1, 337500, Note_on_c, 0, 66, 0
1, 337680, Tempo, 349203
1, 337680, Note_on_c, 0, 42, 0
1, 337680, Note_on_c, 0, 75, 41
1, 337680, Note_on_c, 0, 77, 41
1, 337680, Note_on_c, 0, 41, 35
1, 337740, Note_on_c, 0, 77, 0
1, 337740, Note_on_c, 0, 75, 0
1, 337920, Tempo, 355198
1, 337920, Note_on_c, 0, 65, 43
1, 337920, Note_on_c, 0, 69, 43
1, 337980, Note_on_c, 0, 69, 0
1, 337980, Note_on_c, 0, 65, 0
1, 338160, Tempo, 349203
1, 338160, Note_on_c, 0, 75, 45
1, 338160, Note_on_c, 0, 77, 45
1, 338220, Note_on_c, 0, 77, 0
1, 338220, Note_on_c, 0, 75, 0
1, 338400, Tempo, 352775
1, 338400, Note_on_c, 0, 77, 48
1, 338400, Note_on_c, 0, 81, 48
1, 338448, Control_c, 0, 64, 127
1, 338460, Note_on_c, 0, 81, 0
1, 338460, Note_on_c, 0, 77, 0
1, 338640, Tempo, 348048
1, 338640, Note_on_c, 0, 87, 50
1, 338640, Note_on_c, 0, 81, 50
1, 338700, Note_on_c, 0, 81, 0
1, 338700, Note_on_c, 0, 87, 0
1, 338880, Tempo, 362647
1, 338880, Note_on_c, 0, 87, 53
1, 338880, Note_on_c, 0, 89, 53
1, 338940, Note_on_c, 0, 89, 0
1, 338940, Note_on_c, 0, 87, 0
1, 339120, Tempo, 343426
1, 339120, Note_on_c, 0, 41, 0
1, 339120, Note_on_c, 0, 36, 0
1, 339120, Note_on_c, 0, 48, 0
1, 339120, Note_on_c, 0, 85, 55
1, 339120, Note_on_c, 0, 89, 55
1, 339120, Note_on_c, 0, 41, 35
1, 339120, Note_on_c, 0, 46, 35
1, 339120, Note_on_c, 0, 34, 35
1, 339148, Control_c, 0, 64, 0
1, 339180, Note_on_c, 0, 89, 0
1, 339180, Note_on_c, 0, 85, 0
1, 339360, Tempo, 355198
1, 339360, Note_on_c, 0, 82, 53
1, 339360, Note_on_c, 0, 77, 53
1, 339420, Note_on_c, 0, 77, 0
1, 339420, Note_on_c, 0, 82, 0
1, 339600, Tempo, 349203
1, 339600, Note_on_c, 0, 89, 57
1, 339600, Note_on_c, 0, 85, 57
1, 339660, Note_on_c, 0, 85, 0
1, 339660, Note_on_c, 0, 89, 0
1, 339840, Tempo, 352775
1, 339840, Note_on_c, 0, 41, 0
1, 339840, Note_on_c, 0, 82, 49
1, 339840, Note_on_c, 0, 78, 49
1, 339840, Note_on_c, 0, 42, 42
1, 339900, Note_on_c, 0, 78, 0
1, 339900, Note_on_c, 0, 82, 0
1, 340080, Tempo, 348048
1, 340080, Note_on_c, 0, 85, 56
1, 340080, Note_on_c, 0, 90, 56
1, 340140, Note_on_c, 0, 90, 0
1, 340140, Note_on_c, 0, 85, 0
1, 340320, Tempo, 357632
1, 340320, Note_on_c, 0, 82, 50
1, 340320, Note_on_c, 0, 78, 50
1, 340380, Note_on_c, 0, 78, 0
1, 340380, Note_on_c, 0, 82, 0
1, 340560, Tempo, 349203
1, 340560, Note_on_c, 0, 42, 0
1, 340560, Note_on_c, 0, 89, 56
1, 340560, Note_on_c, 0, 85, 56
1, 340560, Note_on_c, 0, 41, 35
1, 340599, Control_c, 0, 64, 127
1, 340620, Note_on_c, 0, 85, 0
1, 340620, Note_on_c, 0, 89, 0
1, 340800, Tempo, 355198
1, 340800, Note_on_c, 0, 85, 54
1, 340800, Note_on_c, 0, 82, 54
1, 340860, Note_on_c, 0, 82, 0
1, 340860, Note_on_c, 0, 85, 0
1, 341040, Tempo, 349203
1, 341040, Note_on_c, 0, 77, 51
1, 341040, Note_on_c, 0, 82, 51
1, 341100, Note_on_c, 0, 82, 0
1, 341100, Note_on_c, 0, 77, 0
1, 341280, Tempo, 352775
1, 341280, Note_on_c, 0, 77, 47
1, 341280, Note_on_c, 0, 73, 47
1, 341340, Note_on_c, 0, 73, 0
1, 341340, Note_on_c, 0, 77, 0
1, 341520, Tempo, 348048
1, 341520, Note_on_c, 0, 70, 44
1, 341520, Note_on_c, 0, 73, 44
1, 341580, Note_on_c, 0, 73, 0
1, 341580, Note_on_c, 0, 70, 0
1, 341760, Tempo, 362647
1, 341760, Note_on_c, 0, 70, 41
1, 341760, Note_on_c, 0, 65, 41
1, 341820, Note_on_c, 0, 65, 0
1, 341820, Note_on_c, 0, 70, 0
1, 341848, Control_c, 0, 64, 0
1, 342000, Tempo, 343426
1, 342000, Note_on_c, 0, 41, 0
1, 342000, Note_on_c, 0, 46, 0
1, 342000, Note_on_c, 0, 34, 0
1, 342000, Note_on_c, 0, 65, 41
1, 342000, Note_on_c, 0, 73, 41
1, 342000, Note_on_c, 0, 46, 35
1, 342000, Note_on_c, 0, 58, 35
1, 342060, Note_on_c, 0, 73, 0
1, 342060, Note_on_c, 0, 65, 0
1, 342240, Tempo, 355198
1, 342240, Note_on_c, 0, 65, 34
1, 342240, Note_on_c, 0, 61, 34
1, 342300, Note_on_c, 0, 61, 0
1, 342300, Note_on_c, 0, 65, 0
1, 342480, Tempo, 345403
1, 342480, Note_on_c, 0, 73, 40
1, 342480, Note_on_c, 0, 65, 40
1, 342540, Note_on_c, 0, 65, 0
1, 342540, Note_on_c, 0, 73, 0
1, 342720, Tempo, 352775
1, 342720, Note_on_c, 0, 65, 35
1, 342720, Note_on_c, 0, 61, 35
1, 342780, Note_on_c, 0, 61, 0
1, 342780, Note_on_c, 0, 65, 0
1, 342960, Tempo, 348048
1, 342960, Note_on_c, 0, 65, 40
1, 342960, Note_on_c, 0, 73, 35
1, 343020, Note_on_c, 0, 73, 0
1, 343020, Note_on_c, 0, 65, 0
1, 343200, Tempo, 357632
1, 343200, Note_on_c, 0, 65, 35
1, 343200, Note_on_c, 0, 61, 33
1, 343260, Note_on_c, 0, 61, 0
1, 343260, Note_on_c, 0, 65, 0
1, 343440, Tempo, 344412
1, 343440, Note_on_c, 0, 46, 0
1, 343440, Note_on_c, 0, 58, 0
1, 343440, Note_on_c, 0, 72, 45
1, 343440, Note_on_c, 0, 65, 45
1, 343440, Note_on_c, 0, 44, 35
1, 343440, Note_on_c, 0, 56, 35
1, 343500, Note_on_c, 0, 65, 0
1, 343500, Note_on_c, 0, 72, 0
1, 343680, Tempo, 355198
1, 343680, Note_on_c, 0, 65, 40
1, 343680, Note_on_c, 0, 60, 40
1, 343740, Note_on_c, 0, 60, 0
1, 343740, Note_on_c, 0, 65, 0
1, 343920, Tempo, 349203
1, 343920, Note_on_c, 0, 65, 45
1, 343920, Note_on_c, 0, 72, 45
1, 343980, Note_on_c, 0, 72, 0
1, 343980, Note_on_c, 0, 65, 0
1, 344160, Tempo, 352775
1, 344160, Note_on_c, 0, 65, 43
1, 344160, Note_on_c, 0, 60, 43
1, 344220, Note_on_c, 0, 60, 0
1, 344220, Note_on_c, 0, 65, 0
1, 344400, Tempo, 348048
1, 344400, Note_on_c, 0, 72, 43
1, 344400, Note_on_c, 0, 65, 43
1, 344460, Note_on_c, 0, 65, 0
1, 344460, Note_on_c, 0, 72, 0
1, 344640, Tempo, 357632
1, 344640, Note_on_c, 0, 65, 35
1, 344640, Note_on_c, 0, 60, 33
1, 344700, Note_on_c, 0, 60, 0
1, 344700, Note_on_c, 0, 65, 0
1, 344880, Tempo, 344412
1, 344880, Note_on_c, 0, 44, 0
1, 344880, Note_on_c, 0, 56, 0
1, 344880, Note_on_c, 0, 71, 55
1, 344880, Note_on_c, 0, 68, 55
1, 344880, Note_on_c, 0, 50, 44
1, 344880, Note_on_c, 0, 38, 44
1, 344940, Note_on_c, 0, 68, 0
1, 344940, Note_on_c, 0, 71, 0
1, 345120, Tempo, 355198
1, 345120, Note_on_c, 0, 68, 43
1, 345120, Note_on_c, 0, 65, 43
1, 345180, Note_on_c, 0, 65, 0
1, 345180, Note_on_c, 0, 68, 0
1, 345360, Tempo, 349203
1, 345360, Note_on_c, 0, 68, 45
1, 345360, Note_on_c, 0, 71, 45
1, 345420, Note_on_c, 0, 71, 0
1, 345420, Note_on_c, 0, 68, 0
1, 345600, Tempo, 352775
1, 345600, Note_on_c, 0, 68, 48
1, 345600, Note_on_c, 0, 65, 48
1, 345660, Note_on_c, 0, 65, 0
1, 345660, Note_on_c, 0, 68, 0
1, 345840, Tempo, 348048
1, 345840, Note_on_c, 0, 68, 50
1, 345840, Note_on_c, 0, 71, 50
1, 345900, Note_on_c, 0, 71, 0
1, 345900, Note_on_c, 0, 68, 0
1, 346080, Tempo, 362647
1, 346080, Note_on_c, 0, 77, 53
1, 346080, Note_on_c, 0, 71, 53
1, 346140, Note_on_c, 0, 71, 0
1, 346140, Note_on_c, 0, 77, 0
1, 346320, Tempo, 345403
1, 346320, Note_on_c, 0, 80, 56
1, 346320, Note_on_c, 0, 77, 56
1, 346380, Note_on_c, 0, 77, 0
1, 346380, Note_on_c, 0, 80, 0
1, 346560, Tempo, 355198
1, 346560, Note_on_c, 0, 80, 54
1, 346560, Note_on_c, 0, 83, 54
1, 346620, Note_on_c, 0, 83, 0
1, 346620, Note_on_c, 0, 80, 0
1, 346800, Tempo, 349203
1, 346800, Note_on_c, 0, 77, 51
1, 346800, Note_on_c, 0, 80, 51
1, 346860, Note_on_c, 0, 80, 0
1, 346860, Note_on_c, 0, 77, 0
1, 347040, Tempo, 352775
1, 347040, Note_on_c, 0, 71, 47
1, 347040, Note_on_c, 0, 77, 47
1, 347100, Note_on_c, 0, 77, 0
1, 347100, Note_on_c, 0, 71, 0
1, 347280, Tempo, 348048
1, 347280, Note_on_c, 0, 68, 44
1, 347280, Note_on_c, 0, 71, 44
1, 347340, Note_on_c, 0, 71, 0
1, 347340, Note_on_c, 0, 68, 0
1, 347520, Tempo, 362647
1, 347520, Note_on_c, 0, 68, 41
1, 347520, Note_on_c, 0, 65, 41
1, 347580, Note_on_c, 0, 65, 0
1, 347580, Note_on_c, 0, 68, 0
1, 347760, Tempo, 343426
1, 347760, Note_on_c, 0, 50, 0
1, 347760, Note_on_c, 0, 38, 0
1, 347760, Note_on_c, 0, 70, 41
1, 347760, Note_on_c, 0, 67, 41
1, 347760, Note_on_c, 0, 52, 35
1, 347760, Note_on_c, 0, 40, 35
1, 347820, Note_on_c, 0, 67, 0
1, 347820, Note_on_c, 0, 70, 0
1, 348000, Tempo, 355198
1, 348000, Note_on_c, 0, 67, 34
1, 348000, Note_on_c, 0, 61, 34
1, 348060, Note_on_c, 0, 61, 0
1, 348060, Note_on_c, 0, 67, 0
1, 348240, Tempo, 349203
1, 348240, Note_on_c, 0, 67, 40
1, 348240, Note_on_c, 0, 70, 40
1, 348300, Note_on_c, 0, 70, 0
1, 348300, Note_on_c, 0, 67, 0
1, 348480, Tempo, 352775
1, 348480, Note_on_c, 0, 67, 35
1, 348480, Note_on_c, 0, 61, 35
1, 348540, Note_on_c, 0, 61, 0
1, 348540, Note_on_c, 0, 67, 0
1, 348720, Tempo, 348048
1, 348720, Note_on_c, 0, 70, 35
1, 348720, Note_on_c, 0, 67, 40
1, 348780, Note_on_c, 0, 67, 0
1, 348780, Note_on_c, 0, 70, 0
1, 348960, Tempo, 357632
1, 348960, Note_on_c, 0, 67, 35
1, 348960, Note_on_c, 0, 61, 33
1, 349020, Note_on_c, 0, 61, 0
1, 349020, Note_on_c, 0, 67, 0
1, 349200, Tempo, 344412
1, 349200, Note_on_c, 0, 52, 0
1, 349200, Note_on_c, 0, 40, 0
1, 349200, Note_on_c, 0, 65, 45
1, 349200, Note_on_c, 0, 69, 45
1, 349200, Note_on_c, 0, 53, 35
1, 349200, Note_on_c, 0, 41, 35
1, 349260, Note_on_c, 0, 69, 0
1, 349260, Note_on_c, 0, 65, 0
1, 349440, Tempo, 355198
1, 349440, Note_on_c, 0, 65, 40
1, 349440, Note_on_c, 0, 60, 40
1, 349500, Note_on_c, 0, 60, 0
1, 349500, Note_on_c, 0, 65, 0
1, 349680, Tempo, 349203
1, 349680, Note_on_c, 0, 65, 45
1, 349680, Note_on_c, 0, 69, 45
1, 349740, Note_on_c, 0, 69, 0
1, 349740, Note_on_c, 0, 65, 0
1, 349920, Tempo, 352775
1, 349920, Note_on_c, 0, 65, 43
1, 349920, Note_on_c, 0, 60, 43
1, 349980, Note_on_c, 0, 60, 0
1, 349980, Note_on_c, 0, 65, 0
1, 350160, Tempo, 348048
1, 350160, Note_on_c, 0, 65, 43
1, 350160, Note_on_c, 0, 69, 43
1, 350220, Note_on_c, 0, 69, 0
1, 350220, Note_on_c, 0, 65, 0
1, 350400, Tempo, 357632
1, 350400, Note_on_c, 0, 65, 35
1, 350400, Note_on_c, 0, 60, 33
1, 350460, Note_on_c, 0, 60, 0
1, 350460, Note_on_c, 0, 65, 0
1, 350640, Tempo, 349203
1, 350640, Note_on_c, 0, 53, 0
1, 350640, Note_on_c, 0, 41, 0
1, 350640, Note_on_c, 0, 65, 55
1, 350640, Note_on_c, 0, 68, 55
1, 350640, Note_on_c, 0, 47, 44
1, 350640, Note_on_c, 0, 35, 44
1, 350700, Note_on_c, 0, 68, 0
1, 350700, Note_on_c, 0, 65, 0
1, 350880, Tempo, 355198
1, 350880, Note_on_c, 0, 65, 43
1, 350880, Note_on_c, 0, 62, 43
1, 350940, Note_on_c, 0, 62, 0
1, 350940, Note_on_c, 0, 65, 0
1, 351120, Tempo, 349203
1, 351120, Note_on_c, 0, 65, 45
1, 351120, Note_on_c, 0, 68, 45
1, 351180, Note_on_c, 0, 68, 0
1, 351180, Note_on_c, 0, 65, 0
1, 351360, Tempo, 352775
1, 351360, Note_on_c, 0, 62, 48
1, 351360, Note_on_c, 0, 65, 48
1, 351420, Note_on_c, 0, 65, 0
1, 351420, Note_on_c, 0, 62, 0
1, 351600, Tempo, 348048
1, 351600, Note_on_c, 0, 68, 46
1, 351600, Note_on_c, 0, 65, 46
1, 351660, Note_on_c, 0, 65, 0
1, 351660, Note_on_c, 0, 68, 0
1, 351840, Tempo, 362647
1, 351840, Note_on_c, 0, 65, 44
1, 351840, Note_on_c, 0, 62, 44
1, 351900, Note_on_c, 0, 62, 0
1, 351900, Note_on_c, 0, 65, 0
1, 352080, Tempo, 349203
1, 352080, Note_on_c, 0, 67, 45
1, 352080, Note_on_c, 0, 62, 45
1, 352140, Note_on_c, 0, 62, 0
1, 352140, Note_on_c, 0, 67, 0
1, 352320, Tempo, 355198
1, 352320, Note_on_c, 0, 55, 38
1, 352320, Note_on_c, 0, 62, 38
1, 352380, Note_on_c, 0, 62, 0
1, 352380, Note_on_c, 0, 55, 0
1, 352560, Tempo, 349203
1, 352560, Note_on_c, 0, 62, 45
1, 352560, Note_on_c, 0, 67, 45
1, 352620, Note_on_c, 0, 67, 0
1, 352620, Note_on_c, 0, 62, 0
1, 352800, Tempo, 352775
1, 352800, Note_on_c, 0, 65, 38
1, 352800, Note_on_c, 0, 62, 38
1, 352860, Note_on_c, 0, 62, 0
1, 352860, Note_on_c, 0, 65, 0
1, 353040, Tempo, 348048
1, 353040, Note_on_c, 0, 62, 44
1, 353040, Note_on_c, 0, 56, 44
1, 353100, Note_on_c, 0, 56, 0
1, 353100, Note_on_c, 0, 62, 0
1, 353280, Tempo, 362647
1, 353280, Note_on_c, 0, 62, 40
1, 353280, Note_on_c, 0, 65, 40
1, 353340, Note_on_c, 0, 65, 0
1, 353340, Note_on_c, 0, 62, 0
1, 353520, Tempo, 349203
1, 353520, Note_on_c, 0, 47, 0
1, 353520, Note_on_c, 0, 35, 0
1, 353520, Note_on_c, 0, 60, 39
1, 353520, Note_on_c, 0, 65, 39
1, 353520, Note_on_c, 0, 36, 36
1, 353520, Note_on_c, 0, 48, 36
1, 353580, Note_on_c, 0, 65, 0
1, 353580, Note_on_c, 0, 60, 0
1, 353760, Tempo, 355198
1, 353760, Note_on_c, 0, 56, 35
1, 353760, Note_on_c, 0, 60, 35
1, 353820, Note_on_c, 0, 60, 0
1, 353820, Note_on_c, 0, 56, 0
1, 354000, Tempo, 344412
1, 354000, Note_on_c, 0, 60, 41
1, 354000, Note_on_c, 0, 65, 41
1, 354060, Note_on_c, 0, 65, 0
1, 354060, Note_on_c, 0, 60, 0
1, 354240, Tempo, 352775
1, 354240, Note_on_c, 0, 60, 35
1, 354240, Note_on_c, 0, 56, 35
1, 354300, Note_on_c, 0, 56, 0
1, 354300, Note_on_c, 0, 60, 0
1, 354480, Tempo, 348048
1, 354480, Note_on_c, 0, 60, 41
1, 354480, Note_on_c, 0, 65, 41
1, 354540, Note_on_c, 0, 65, 0
1, 354540, Note_on_c, 0, 60, 0
1, 354720, Tempo, 362647
1, 354720, Note_on_c, 0, 56, 35
1, 354720, Note_on_c, 0, 60, 35
1, 354780, Note_on_c, 0, 60, 0
1, 354780, Note_on_c, 0, 56, 0
1, 354960, Tempo, 344412
1, 354960, Note_on_c, 0, 60, 40
1, 354960, Note_on_c, 0, 65, 40
1, 355020, Note_on_c, 0, 65, 0
1, 355020, Note_on_c, 0, 60, 0
1, 355200, Tempo, 355198
1, 355200, Note_on_c, 0, 55, 31
1, 355200, Note_on_c, 0, 60, 31
1, 355260, Note_on_c, 0, 60, 0
1, 355260, Note_on_c, 0, 55, 0
1, 355440, Tempo, 349203
1, 355440, Note_on_c, 0, 65, 45
1, 355440, Note_on_c, 0, 60, 45
1, 355500, Note_on_c, 0, 60, 0
1, 355500, Note_on_c, 0, 65, 0
1, 355680, Tempo, 352775
1, 355680, Note_on_c, 0, 60, 40
1, 355680, Note_on_c, 0, 55, 40
1, 355740, Note_on_c, 0, 55, 0
1, 355740, Note_on_c, 0, 60, 0
1, 355920, Tempo, 348048
1, 355920, Note_on_c, 0, 60, 48
1, 355920, Note_on_c, 0, 64, 48
1, 355980, Note_on_c, 0, 64, 0
1, 355980, Note_on_c, 0, 60, 0
1, 356160, Tempo, 362647
1, 356160, Note_on_c, 0, 64, 42
1, 356160, Note_on_c, 0, 68, 42
1, 356220, Note_on_c, 0, 68, 0
1, 356220, Note_on_c, 0, 64, 0
1, 356400, Tempo, 345403
1, 356400, Note_on_c, 0, 36, 0
1, 356400, Note_on_c, 0, 48, 0
1, 356400, Note_on_c, 0, 68, 56
1, 356400, Note_on_c, 0, 65, 56
1, 356400, Note_on_c, 0, 46, 36
1, 356400, Note_on_c, 0, 34, 36
1, 356460, Note_on_c, 0, 65, 0
1, 356460, Note_on_c, 0, 68, 0
1, 356640, Tempo, 355198
1, 356640, Note_on_c, 0, 65, 44
1, 356640, Note_on_c, 0, 61, 44
1, 356700, Note_on_c, 0, 61, 0
1, 356700, Note_on_c, 0, 65, 0
1, 356880, Tempo, 349203
1, 356880, Note_on_c, 0, 68, 51
1, 356880, Note_on_c, 0, 65, 51
1, 356940, Note_on_c, 0, 65, 0
1, 356940, Note_on_c, 0, 68, 0
1, 357120, Tempo, 352775
1, 357120, Note_on_c, 0, 61, 35
1, 357120, Note_on_c, 0, 65, 35
1, 357180, Note_on_c, 0, 65, 0
1, 357180, Note_on_c, 0, 61, 0
1, 357360, Tempo, 348048
1, 357360, Note_on_c, 0, 65, 44
1, 357360, Note_on_c, 0, 68, 44
1, 357420, Note_on_c, 0, 68, 0
1, 357420, Note_on_c, 0, 65, 0
1, 357600, Tempo, 362647
1, 357600, Note_on_c, 0, 61, 35
1, 357600, Note_on_c, 0, 65, 35
1, 357660, Note_on_c, 0, 65, 0
1, 357660, Note_on_c, 0, 61, 0
1, 357840, Tempo, 344412
1, 357840, Note_on_c, 0, 65, 43
1, 357840, Note_on_c, 0, 67, 43
1, 357900, Note_on_c, 0, 67, 0
1, 357900, Note_on_c, 0, 65, 0
1, 358080, Tempo, 355198
1, 358080, Note_on_c, 0, 61, 34
1, 358080, Note_on_c, 0, 65, 34
1, 358140, Note_on_c, 0, 65, 0
1, 358140, Note_on_c, 0, 61, 0
1, 358320, Tempo, 349203
1, 358320, Note_on_c, 0, 65, 43
1, 358320, Note_on_c, 0, 67, 43
1, 358380, Note_on_c, 0, 67, 0
1, 358380, Note_on_c, 0, 65, 0
1, 358560, Tempo, 352775
1, 358560, Note_on_c, 0, 46, 0
1, 358560, Note_on_c, 0, 34, 0
1, 358560, Note_on_c, 0, 62, 34
1, 358560, Note_on_c, 0, 65, 34
1, 358560, Note_on_c, 0, 47, 31
1, 358560, Note_on_c, 0, 35, 31
1, 358620, Note_on_c, 0, 65, 0
1, 358620, Note_on_c, 0, 62, 0
1, 358800, Tempo, 348048
1, 358800, Note_on_c, 0, 62, 41
1, 358800, Note_on_c, 0, 55, 41
1, 358860, Note_on_c, 0, 55, 0
1, 358860, Note_on_c, 0, 62, 0
1, 359040, Tempo, 362647
1, 359040, Note_on_c, 0, 65, 36
1, 359040, Note_on_c, 0, 62, 36
1, 359100, Note_on_c, 0, 62, 0
1, 359100, Note_on_c, 0, 65, 0
1, 359280, Tempo, 344412
1, 359280, Note_on_c, 0, 47, 0
1, 359280, Note_on_c, 0, 35, 0
1, 359280, Note_on_c, 0, 65, 39
1, 359280, Note_on_c, 0, 60, 39
1, 359280, Note_on_c, 0, 36, 36
1, 359280, Note_on_c, 0, 48, 36
1, 359340, Note_on_c, 0, 60, 0
1, 359340, Note_on_c, 0, 65, 0
1, 359520, Tempo, 355198
1, 359520, Note_on_c, 0, 56, 35
1, 359520, Note_on_c, 0, 60, 35
1, 359580, Note_on_c, 0, 60, 0
1, 359580, Note_on_c, 0, 56, 0
1, 359760, Tempo, 349203
1, 359760, Note_on_c, 0, 60, 41
1, 359760, Note_on_c, 0, 65, 41
1, 359820, Note_on_c, 0, 65, 0
1, 359820, Note_on_c, 0, 60, 0
1, 360000, Tempo, 352775
1, 360000, Note_on_c, 0, 56, 35
1, 360000, Note_on_c, 0, 60, 35
1, 360060, Note_on_c, 0, 60, 0
1, 360060, Note_on_c, 0, 56, 0
1, 360240, Tempo, 348048
1, 360240, Note_on_c, 0, 65, 41
1, 360240, Note_on_c, 0, 60, 41
1, 360300, Note_on_c, 0, 60, 0
1, 360300, Note_on_c, 0, 65, 0
1, 360480, Tempo, 362647
1, 360480, Note_on_c, 0, 56, 35
1, 360480, Note_on_c, 0, 60, 35
1, 360540, Note_on_c, 0, 60, 0
1, 360540, Note_on_c, 0, 56, 0
1, 360720, Tempo, 345403
1, 360720, Note_on_c, 0, 65, 40
1, 360720, Note_on_c, 0, 60, 40
1, 360780, Note_on_c, 0, 60, 0
1, 360780, Note_on_c, 0, 65, 0
1, 360960, Tempo, 355198
1, 360960, Note_on_c, 0, 56, 31
1, 360960, Note_on_c, 0, 60, 31
1, 361020, Note_on_c, 0, 60, 0
1, 361020, Note_on_c, 0, 56, 0
1, 361200, Tempo, 349203
1, 361200, Note_on_c, 0, 60, 38
1, 361200, Note_on_c, 0, 65, 38
1, 361260, Note_on_c, 0, 65, 0
1, 361260, Note_on_c, 0, 60, 0
1, 361440, Tempo, 352775
1, 361440, Note_on_c, 0, 60, 30
1, 361440, Note_on_c, 0, 56, 30
1, 361500, Note_on_c, 0, 56, 0
1, 361500, Note_on_c, 0, 60, 0
1, 361680, Tempo, 348048
1, 361680, Note_on_c, 0, 60, 39
1, 361680, Note_on_c, 0, 65, 39
1, 361740, Note_on_c, 0, 65, 0
1, 361740, Note_on_c, 0, 60, 0
1, 361920, Tempo, 362647
1, 361920, Note_on_c, 0, 56, 32
1, 361920, Note_on_c, 0, 60, 32
1, 361980, Note_on_c, 0, 60, 0
1, 361980, Note_on_c, 0, 56, 0
1, 362160, Tempo, 343426
1, 362160, Note_on_c, 0, 36, 0
1, 362160, Note_on_c, 0, 48, 0
1, 362160, Note_on_c, 0, 65, 39
1, 362160, Note_on_c, 0, 60, 39
1, 362160, Note_on_c, 0, 36, 36
1, 362160, Note_on_c, 0, 48, 36
1, 362220, Note_on_c, 0, 60, 0
1, 362220, Note_on_c, 0, 65, 0
1, 362400, Tempo, 355198
1, 362400, Note_on_c, 0, 60, 34
1, 362400, Note_on_c, 0, 55, 34
1, 362460, Note_on_c, 0, 55, 0
1, 362460, Note_on_c, 0, 60, 0
1, 362640, Tempo, 349203
1, 362640, Note_on_c, 0, 65, 38
1, 362640, Note_on_c, 0, 60, 38
1, 362700, Note_on_c, 0, 60, 0
1, 362700, Note_on_c, 0, 65, 0
1, 362880, Tempo, 352775
1, 362880, Note_on_c, 0, 55, 32
1, 362880, Note_on_c, 0, 60, 32
1, 362940, Note_on_c, 0, 60, 0
1, 362940, Note_on_c, 0, 55, 0
1, 363120, Tempo, 348048
1, 363120, Note_on_c, 0, 65, 36
1, 363120, Note_on_c, 0, 60, 36
1, 363180, Note_on_c, 0, 60, 0
1, 363180, Note_on_c, 0, 65, 0
1, 363360, Tempo, 362647
1, 363360, Note_on_c, 0, 55, 30
1, 363360, Note_on_c, 0, 60, 30
1, 363420, Note_on_c, 0, 60, 0
1, 363420, Note_on_c, 0, 55, 0
1, 363600, Tempo, 352775
1, 363600, Note_on_c, 0, 64, 34
1, 363600, Note_on_c, 0, 60, 34
1, 363660, Note_on_c, 0, 60, 0
1, 363660, Note_on_c, 0, 64, 0
1, 363840, Tempo, 363923
1, 363840, Note_on_c, 0, 60, 25
1, 363840, Note_on_c, 0, 55, 25
1, 363900, Note_on_c, 0, 55, 0
1, 363900, Note_on_c, 0, 60, 0
1, 364080, Tempo, 356422
1, 364080, Note_on_c, 0, 64, 30
1, 364080, Note_on_c, 0, 60, 30
1, 364140, Note_on_c, 0, 60, 0
1, 364140, Note_on_c, 0, 64, 0
1, 364320, Tempo, 370416
1, 364320, Note_on_c, 0, 60, 23
1, 364320, Note_on_c, 0, 55, 23
1, 364380, Note_on_c, 0, 55, 0
1, 364380, Note_on_c, 0, 60, 0
1, 364560, Tempo, 363923
1, 364560, Note_on_c, 0, 60, 29
1, 364560, Note_on_c, 0, 64, 29
1, 364620, Note_on_c, 0, 64, 0
1, 364620, Note_on_c, 0, 60, 0
1, 364800, Tempo, 391389
1, 364800, Note_on_c, 0, 55, 23
1, 364800, Note_on_c, 0, 60, 23
1, 364860, Note_on_c, 0, 60, 0
1, 364860, Note_on_c, 0, 55, 0
1, 365040, Tempo, 391389
1, 365040, Note_on_c, 0, 36, 0
1, 365040, Note_on_c, 0, 48, 0
1, 366480, Tempo, 330196
1, 366480, Note_on_c, 0, 77, 88
1, 366480, Note_on_c, 0, 41, 80
1, 366501, Control_c, 0, 64, 127
1, 366600, Tempo, 338581
1, 366720, Note_on_c, 0, 41, 0
1, 366720, Note_on_c, 0, 77, 0
1, 366720, Note_on_c, 0, 65, 80
1, 366720, Note_on_c, 0, 53, 71
1, 366960, Tempo, 342622
1, 366960, Note_on_c, 0, 53, 0
1, 366960, Note_on_c, 0, 65, 0
1, 366960, Note_on_c, 0, 77, 80
1, 366960, Note_on_c, 0, 41, 71
1, 366992, Control_c, 0, 64, 0
1, 367020, Note_on_c, 0, 41, 0
1, 367020, Note_on_c, 0, 77, 0
1, 367200, Tempo, 330196
1, 367200, Note_on_c, 0, 80, 88
1, 367200, Note_on_c, 0, 44, 80
1, 367285, Control_c, 0, 64, 127
1, 367320, Tempo, 336681
1, 367440, Note_on_c, 0, 44, 0
1, 367440, Note_on_c, 0, 80, 0
1, 367440, Note_on_c, 0, 68, 80
1, 367440, Note_on_c, 0, 56, 75
1, 367680, Tempo, 342622
1, 367680, Note_on_c, 0, 56, 0
1, 367680, Note_on_c, 0, 68, 0
1, 367680, Note_on_c, 0, 80, 80
1, 367680, Note_on_c, 0, 44, 80
1, 367740, Note_on_c, 0, 44, 0
1, 367740, Note_on_c, 0, 80, 0
1, 367776, Control_c, 0, 64, 0
1, 367920, Tempo, 330196
1, 367920, Note_on_c, 0, 84, 88
1, 367920, Note_on_c, 0, 48, 80
1, 367973, Control_c, 0, 64, 127
1, 368040, Tempo, 337629
1, 368160, Note_on_c, 0, 48, 0
1, 368160, Note_on_c, 0, 84, 0
1, 368160, Note_on_c, 0, 72, 80
1, 368160, Note_on_c, 0, 60, 74
1, 368400, Tempo, 343603
1, 368400, Note_on_c, 0, 60, 0
1, 368400, Note_on_c, 0, 72, 0
1, 368400, Note_on_c, 0, 84, 80
1, 368400, Note_on_c, 0, 48, 74
1, 368460, Note_on_c, 0, 48, 0
1, 368460, Note_on_c, 0, 84, 0
1, 368510, Control_c, 0, 64, 0
1, 368640, Tempo, 323957
1, 368640, Note_on_c, 0, 79, 88
1, 368640, Note_on_c, 0, 43, 80
1, 368693, Control_c, 0, 64, 127
1, 368760, Tempo, 332024
1, 368880, Note_on_c, 0, 43, 0
1, 368880, Note_on_c, 0, 79, 0
1, 368880, Note_on_c, 0, 67, 80
1, 368880, Note_on_c, 0, 55, 71
1, 369120, Tempo, 339712
1, 369120, Note_on_c, 0, 55, 0
1, 369120, Note_on_c, 0, 67, 0
1, 369120, Note_on_c, 0, 79, 80
1, 369120, Note_on_c, 0, 43, 71
1, 369180, Note_on_c, 0, 43, 0
1, 369180, Note_on_c, 0, 79, 0
1, 369219, Control_c, 0, 64, 0
1, 369360, Tempo, 326602
1, 369360, Note_on_c, 0, 82, 88
1, 369360, Note_on_c, 0, 46, 80
1, 369452, Control_c, 0, 64, 127
1, 369540, Tempo, 333871
1, 369600, Note_on_c, 0, 46, 0
1, 369600, Note_on_c, 0, 82, 0
1, 369600, Note_on_c, 0, 70, 80
1, 369600, Note_on_c, 0, 58, 75
1, 369840, Tempo, 340677
1, 369840, Note_on_c, 0, 58, 0
1, 369840, Note_on_c, 0, 70, 0
1, 369840, Note_on_c, 0, 82, 80
1, 369840, Note_on_c, 0, 46, 80
1, 369900, Note_on_c, 0, 46, 0
1, 369900, Note_on_c, 0, 82, 0
1, 369957, Control_c, 0, 64, 0
1, 370080, Tempo, 325715
1, 370080, Note_on_c, 0, 77, 88
1, 370080, Note_on_c, 0, 41, 80
1, 370140, Control_c, 0, 64, 127
1, 370200, Tempo, 332945
1, 370320, Note_on_c, 0, 41, 0
1, 370320, Note_on_c, 0, 77, 0
1, 370320, Note_on_c, 0, 65, 80
1, 370320, Note_on_c, 0, 53, 74
1, 370560, Tempo, 346580
1, 370560, Note_on_c, 0, 53, 0
1, 370560, Note_on_c, 0, 65, 0
1, 370560, Note_on_c, 0, 77, 80
1, 370560, Note_on_c, 0, 41, 74
1, 370620, Note_on_c, 0, 41, 0
1, 370620, Note_on_c, 0, 77, 0
1, 370694, Control_c, 0, 64, 0
1, 370800, Tempo, 331108
1, 370800, Note_on_c, 0, 80, 88
1, 370800, Note_on_c, 0, 77, 74
1, 370800, Note_on_c, 0, 36, 80
1, 370874, Control_c, 0, 64, 127
1, 370920, Tempo, 337629
1, 371040, Note_on_c, 0, 36, 0
1, 371040, Note_on_c, 0, 77, 0
1, 371040, Note_on_c, 0, 80, 0
1, 371040, Note_on_c, 0, 68, 80
1, 371040, Note_on_c, 0, 48, 71
1, 371280, Tempo, 342622
1, 371280, Note_on_c, 0, 48, 0
1, 371280, Note_on_c, 0, 68, 0
1, 371280, Note_on_c, 0, 77, 68
1, 371280, Note_on_c, 0, 80, 80
1, 371280, Note_on_c, 0, 36, 71
1, 371340, Note_on_c, 0, 36, 0
1, 371340, Note_on_c, 0, 80, 0
1, 371340, Note_on_c, 0, 77, 0
1, 371351, Control_c, 0, 64, 0
1, 371520, Tempo, 331108
1, 371520, Note_on_c, 0, 79, 88
1, 371520, Note_on_c, 0, 76, 60
1, 371520, Note_on_c, 0, 36, 80
1, 371566, Control_c, 0, 64, 127
1, 371700, Tempo, 337629
1, 371760, Note_on_c, 0, 36, 0
1, 371760, Note_on_c, 0, 76, 0
1, 371760, Note_on_c, 0, 79, 0
1, 371760, Note_on_c, 0, 67, 80
1, 371760, Note_on_c, 0, 48, 75
1, 372000, Tempo, 346580
1, 372000, Note_on_c, 0, 48, 0
1, 372000, Note_on_c, 0, 67, 0
1, 372000, Note_on_c, 0, 79, 80
1, 372000, Note_on_c, 0, 76, 68
1, 372000, Note_on_c, 0, 36, 80
1, 372060, Note_on_c, 0, 36, 0
1, 372060, Note_on_c, 0, 76, 0
1, 372060, Note_on_c, 0, 79, 0
1, 372115, Control_c, 0, 64, 0
1, 372240, Tempo, 329290
1, 372240, Note_on_c, 0, 77, 88
1, 372240, Note_on_c, 0, 41, 80
1, 372339, Control_c, 0, 64, 127
1, 372360, Tempo, 334803
1, 372480, Note_on_c, 0, 41, 0
1, 372480, Note_on_c, 0, 77, 0
1, 372480, Note_on_c, 0, 65, 80
1, 372480, Note_on_c, 0, 53, 74
1, 372720, Tempo, 343603
1, 372720, Note_on_c, 0, 53, 0
1, 372720, Note_on_c, 0, 65, 0
1, 372720, Note_on_c, 0, 77, 80
1, 372720, Note_on_c, 0, 41, 74
1, 372780, Note_on_c, 0, 41, 0
1, 372780, Note_on_c, 0, 77, 0
1, 372830, Control_c, 0, 64, 0
1, 372960, Tempo, 330196
1, 372960, Note_on_c, 0, 80, 88
1, 372960, Note_on_c, 0, 77, 74
1, 372960, Note_on_c, 0, 37, 80
1, 373013, Control_c, 0, 64, 127
1, 373140, Tempo, 336681
1, 373200, Note_on_c, 0, 37, 0
1, 373200, Note_on_c, 0, 77, 0
1, 373200, Note_on_c, 0, 80, 0
1, 373200, Note_on_c, 0, 68, 80
1, 373200, Note_on_c, 0, 49, 71
1, 373440, Tempo, 344590
1, 373440, Note_on_c, 0, 49, 0
1, 373440, Note_on_c, 0, 68, 0
1, 373440, Note_on_c, 0, 77, 68
1, 373440, Note_on_c, 0, 80, 80
1, 373440, Note_on_c, 0, 37, 71
1, 373500, Note_on_c, 0, 37, 0
1, 373500, Note_on_c, 0, 80, 0
1, 373500, Note_on_c, 0, 77, 0
1, 373557, Control_c, 0, 64, 0
1, 373680, Tempo, 327493
1, 373680, Note_on_c, 0, 75, 60
1, 373680, Note_on_c, 0, 84, 88
1, 373680, Note_on_c, 0, 32, 80
1, 373779, Control_c, 0, 64, 127
1, 373800, Tempo, 334803
1, 373920, Note_on_c, 0, 32, 0
1, 373920, Note_on_c, 0, 84, 0
1, 373920, Note_on_c, 0, 75, 0
1, 373920, Note_on_c, 0, 72, 80
1, 373920, Note_on_c, 0, 44, 75
1, 374160, Tempo, 343603
1, 374160, Note_on_c, 0, 44, 0
1, 374160, Note_on_c, 0, 72, 0
1, 374160, Note_on_c, 0, 75, 68
1, 374160, Note_on_c, 0, 84, 80
1, 374160, Note_on_c, 0, 32, 80
1, 374220, Note_on_c, 0, 32, 0
1, 374220, Note_on_c, 0, 84, 0
1, 374220, Note_on_c, 0, 75, 0
1, 374277, Control_c, 0, 64, 0
1, 374400, Tempo, 330196
1, 374400, Note_on_c, 0, 75, 74
1, 374400, Note_on_c, 0, 79, 88
1, 374400, Note_on_c, 0, 39, 80
1, 374464, Control_c, 0, 64, 127
1, 374520, Tempo, 336681
1, 374580, Tempo, 337629
1, 374640, Note_on_c, 0, 39, 0
1, 374640, Note_on_c, 0, 79, 0
1, 374640, Note_on_c, 0, 75, 0
1, 374640, Note_on_c, 0, 70, 80
1, 374640, Note_on_c, 0, 51, 74
1, 374880, Tempo, 346580
1, 374880, Note_on_c, 0, 51, 0
1, 374880, Note_on_c, 0, 70, 0
1, 374880, Note_on_c, 0, 79, 80
1, 374880, Note_on_c, 0, 75, 68
1, 374880, Note_on_c, 0, 39, 74
1, 374940, Note_on_c, 0, 39, 0
1, 374940, Note_on_c, 0, 75, 0
1, 374940, Note_on_c, 0, 79, 0
1, 375039, Control_c, 0, 64, 0
1, 375120, Tempo, 333871
1, 375120, Note_on_c, 0, 77, 74
1, 375120, Note_on_c, 0, 82, 88
1, 375120, Note_on_c, 0, 73, 74
1, 375120, Note_on_c, 0, 34, 80
1, 375216, Control_c, 0, 64, 127
1, 375240, Tempo, 338581
1, 375360, Note_on_c, 0, 34, 0
1, 375360, Note_on_c, 0, 77, 0
1, 375360, Note_on_c, 0, 82, 0
1, 375360, Note_on_c, 0, 73, 0
1, 375360, Note_on_c, 0, 70, 80
1, 375360, Note_on_c, 0, 46, 71
1, 375600, Tempo, 346580
1, 375600, Note_on_c, 0, 46, 0
1, 375600, Note_on_c, 0, 70, 0
1, 375600, Note_on_c, 0, 77, 68
1, 375600, Note_on_c, 0, 73, 68
1, 375600, Note_on_c, 0, 82, 80
1, 375600, Note_on_c, 0, 34, 71
1, 375660, Note_on_c, 0, 34, 0
1, 375660, Note_on_c, 0, 77, 0
1, 375660, Note_on_c, 0, 73, 0
1, 375660, Note_on_c, 0, 82, 0
1, 375734, Control_c, 0, 64, 0
1, 375840, Tempo, 336852
1, 375840, Note_on_c, 0, 68, 60
1, 375840, Note_on_c, 0, 77, 88
1, 375840, Note_on_c, 0, 37, 80
1, 375897, Control_c, 0, 64, 127
1, 376080, Note_on_c, 0, 37, 0
1, 376080, Note_on_c, 0, 77, 0
1, 376080, Note_on_c, 0, 68, 0
1, 376080, Note_on_c, 0, 65, 80
1, 376080, Note_on_c, 0, 49, 75
1, 376320, Tempo, 346580
1, 376320, Note_on_c, 0, 49, 0
1, 376320, Note_on_c, 0, 65, 0
1, 376320, Note_on_c, 0, 68, 68
1, 376320, Note_on_c, 0, 77, 80
1, 376320, Note_on_c, 0, 37, 80
1, 376380, Note_on_c, 0, 37, 0
1, 376380, Note_on_c, 0, 77, 0
1, 376380, Note_on_c, 0, 68, 0
1, 376430, Control_c, 0, 64, 0
1, 376560, Tempo, 335909
1, 376560, Note_on_c, 0, 77, 74
1, 376560, Note_on_c, 0, 80, 88
1, 376560, Note_on_c, 0, 36, 80
1, 376652, Control_c, 0, 64, 127
1, 376800, Note_on_c, 0, 36, 0
1, 376800, Note_on_c, 0, 80, 0
1, 376800, Note_on_c, 0, 77, 0
1, 376800, Note_on_c, 0, 68, 80
1, 376800, Note_on_c, 0, 48, 74
1, 377040, Tempo, 344590
1, 377040, Note_on_c, 0, 48, 0
1, 377040, Note_on_c, 0, 68, 0
1, 377040, Note_on_c, 0, 77, 68
1, 377040, Note_on_c, 0, 80, 80
1, 377040, Note_on_c, 0, 36, 74
1, 377100, Note_on_c, 0, 36, 0
1, 377100, Note_on_c, 0, 80, 0
1, 377100, Note_on_c, 0, 77, 0
1, 377146, Control_c, 0, 64, 0
1, 377280, Tempo, 334971
1, 377280, Note_on_c, 0, 76, 74
1, 377280, Note_on_c, 0, 79, 88
1, 377280, Note_on_c, 0, 36, 80
1, 377357, Control_c, 0, 64, 127
1, 377520, Note_on_c, 0, 36, 0
1, 377520, Note_on_c, 0, 79, 0
1, 377520, Note_on_c, 0, 76, 0
1, 377520, Note_on_c, 0, 67, 80
1, 377520, Note_on_c, 0, 48, 74
1, 377760, Tempo, 361185
1, 377760, Note_on_c, 0, 48, 0
1, 377760, Note_on_c, 0, 67, 0
1, 377760, Note_on_c, 0, 79, 80
1, 377760, Note_on_c, 0, 76, 68
1, 377760, Note_on_c, 0, 36, 74
1, 377820, Note_on_c, 0, 36, 0
1, 377820, Note_on_c, 0, 76, 0
1, 377820, Note_on_c, 0, 79, 0
1, 377872, Control_c, 0, 64, 0
1, 378000, Tempo, 344590
1, 378000, Note_on_c, 0, 89, 88
1, 378000, Note_on_c, 0, 53, 80
1, 378021, Control_c, 0, 64, 127
1, 378240, Tempo, 332189
1, 378240, Note_on_c, 0, 53, 0
1, 378240, Note_on_c, 0, 89, 0
1, 378240, Note_on_c, 0, 77, 72
1, 378240, Note_on_c, 0, 65, 63
1, 378360, Note_on_c, 0, 65, 0
1, 378360, Note_on_c, 0, 77, 0
1, 378360, Note_on_c, 0, 89, 72
1, 378360, Note_on_c, 0, 53, 54
1, 378480, Tempo, 356888
1, 378480, Note_on_c, 0, 53, 0
1, 378480, Note_on_c, 0, 89, 0
1, 378480, Note_on_c, 0, 77, 80
1, 378480, Note_on_c, 0, 65, 71
1, 378512, Control_c, 0, 64, 0
1, 378540, Note_on_c, 0, 65, 0
1, 378540, Note_on_c, 0, 77, 0
1, 378720, Tempo, 342622
1, 378720, Note_on_c, 0, 92, 88
1, 378720, Note_on_c, 0, 89, 74
1, 378720, Note_on_c, 0, 49, 80
1, 378805, Control_c, 0, 64, 127
1, 378960, Tempo, 329453
1, 378960, Note_on_c, 0, 49, 0
1, 378960, Note_on_c, 0, 89, 0
1, 378960, Note_on_c, 0, 92, 0
1, 378960, Note_on_c, 0, 80, 72
1, 378960, Note_on_c, 0, 61, 67
1, 379080, Note_on_c, 0, 61, 0
1, 379080, Note_on_c, 0, 80, 0
1, 379080, Note_on_c, 0, 92, 59
1, 379080, Note_on_c, 0, 89, 50
1, 379080, Note_on_c, 0, 49, 57
1, 379200, Tempo, 349610
1, 379200, Note_on_c, 0, 49, 0
1, 379200, Note_on_c, 0, 89, 0
1, 379200, Note_on_c, 0, 92, 0
1, 379200, Note_on_c, 0, 80, 80
1, 379200, Note_on_c, 0, 61, 80
1, 379260, Note_on_c, 0, 61, 0
1, 379260, Note_on_c, 0, 80, 0
1, 379296, Control_c, 0, 64, 0
1, 379440, Tempo, 337800
1, 379440, Note_on_c, 0, 96, 88
1, 379440, Note_on_c, 0, 87, 74
1, 379440, Note_on_c, 0, 44, 80
1, 379493, Control_c, 0, 64, 127
1, 379680, Tempo, 326762
1, 379680, Note_on_c, 0, 44, 0
1, 379680, Note_on_c, 0, 87, 0
1, 379680, Note_on_c, 0, 96, 0
1, 379680, Note_on_c, 0, 84, 72
1, 379680, Note_on_c, 0, 56, 66
1, 379800, Note_on_c, 0, 56, 0
1, 379800, Note_on_c, 0, 84, 0
1, 379800, Note_on_c, 0, 87, 52
1, 379800, Note_on_c, 0, 96, 62
1, 379800, Note_on_c, 0, 44, 56
1, 379920, Tempo, 344590
1, 379920, Note_on_c, 0, 44, 0
1, 379920, Note_on_c, 0, 96, 0
1, 379920, Note_on_c, 0, 87, 0
1, 379920, Note_on_c, 0, 84, 80
1, 379920, Note_on_c, 0, 56, 74
1, 379980, Note_on_c, 0, 56, 0
1, 379980, Note_on_c, 0, 84, 0
1, 380030, Control_c, 0, 64, 0
1, 380160, Tempo, 337800
1, 380160, Note_on_c, 0, 87, 74
1, 380160, Note_on_c, 0, 91, 88
1, 380160, Note_on_c, 0, 51, 80
1, 380213, Control_c, 0, 64, 127
1, 380400, Tempo, 328551
1, 380400, Note_on_c, 0, 51, 0
1, 380400, Note_on_c, 0, 91, 0
1, 380400, Note_on_c, 0, 87, 0
1, 380400, Note_on_c, 0, 82, 72
1, 380400, Note_on_c, 0, 63, 63
1, 380520, Note_on_c, 0, 63, 0
1, 380520, Note_on_c, 0, 82, 0
1, 380520, Note_on_c, 0, 91, 64
1, 380520, Note_on_c, 0, 87, 54
1, 380520, Note_on_c, 0, 51, 56
1, 380640, Tempo, 347584
1, 380640, Note_on_c, 0, 51, 0
1, 380640, Note_on_c, 0, 87, 0
1, 380640, Note_on_c, 0, 91, 0
1, 380640, Note_on_c, 0, 82, 80
1, 380640, Note_on_c, 0, 63, 71
1, 380700, Note_on_c, 0, 63, 0
1, 380700, Note_on_c, 0, 82, 0
1, 380739, Control_c, 0, 64, 0
1, 380880, Tempo, 339712
1, 380880, Note_on_c, 0, 89, 74
1, 380880, Note_on_c, 0, 85, 74
1, 380880, Note_on_c, 0, 94, 88
1, 380880, Note_on_c, 0, 46, 80
1, 380972, Control_c, 0, 64, 127
1, 381120, Tempo, 329453
1, 381120, Note_on_c, 0, 46, 0
1, 381120, Note_on_c, 0, 89, 0
1, 381120, Note_on_c, 0, 85, 0
1, 381120, Note_on_c, 0, 94, 0
1, 381120, Note_on_c, 0, 82, 72
1, 381120, Note_on_c, 0, 58, 67
1, 381240, Note_on_c, 0, 58, 0
1, 381240, Note_on_c, 0, 82, 0
1, 381240, Note_on_c, 0, 94, 64
1, 381240, Note_on_c, 0, 85, 54
1, 381240, Note_on_c, 0, 89, 54
1, 381240, Note_on_c, 0, 46, 59
1, 381360, Tempo, 350631
1, 381360, Note_on_c, 0, 46, 0
1, 381360, Note_on_c, 0, 94, 0
1, 381360, Note_on_c, 0, 85, 0
1, 381360, Note_on_c, 0, 89, 0
1, 381360, Note_on_c, 0, 82, 80
1, 381360, Note_on_c, 0, 58, 80
1, 381420, Note_on_c, 0, 58, 0
1, 381420, Note_on_c, 0, 82, 0
1, 381477, Control_c, 0, 64, 0
1, 381600, Tempo, 339712
1, 381600, Note_on_c, 0, 80, 74
1, 381600, Note_on_c, 0, 89, 88
1, 381600, Note_on_c, 0, 49, 80
1, 381660, Control_c, 0, 64, 127
1, 381840, Tempo, 332189
1, 381840, Note_on_c, 0, 49, 0
1, 381840, Note_on_c, 0, 89, 0
1, 381840, Note_on_c, 0, 80, 0
1, 381840, Note_on_c, 0, 77, 72
1, 381840, Note_on_c, 0, 61, 66
1, 381960, Note_on_c, 0, 61, 0
1, 381960, Note_on_c, 0, 77, 0
1, 381960, Note_on_c, 0, 80, 53
1, 381960, Note_on_c, 0, 89, 63
1, 381960, Note_on_c, 0, 49, 59
1, 382080, Tempo, 347584
1, 382080, Note_on_c, 0, 49, 0
1, 382080, Note_on_c, 0, 89, 0
1, 382080, Note_on_c, 0, 80, 0
1, 382080, Note_on_c, 0, 77, 80
1, 382080, Note_on_c, 0, 61, 74
1, 382140, Note_on_c, 0, 61, 0
1, 382140, Note_on_c, 0, 77, 0
1, 382214, Control_c, 0, 64, 0
1, 382320, Tempo, 338753
1, 382320, Note_on_c, 0, 89, 74
1, 382320, Note_on_c, 0, 92, 88
1, 382320, Note_on_c, 0, 48, 80
1, 382394, Control_c, 0, 64, 127
1, 382560, Tempo, 324834
1, 382560, Note_on_c, 0, 48, 0
1, 382560, Note_on_c, 0, 92, 0
1, 382560, Note_on_c, 0, 89, 0
1, 382560, Note_on_c, 0, 80, 72
1, 382560, Note_on_c, 0, 60, 63
1, 382680, Note_on_c, 0, 60, 0
1, 382680, Note_on_c, 0, 80, 0
1, 382680, Note_on_c, 0, 89, 53
1, 382680, Note_on_c, 0, 92, 63
1, 382680, Note_on_c, 0, 48, 54
1, 382800, Tempo, 344590
1, 382800, Note_on_c, 0, 48, 0
1, 382800, Note_on_c, 0, 92, 0
1, 382800, Note_on_c, 0, 89, 0
1, 382800, Note_on_c, 0, 80, 80
1, 382800, Note_on_c, 0, 60, 71
1, 382860, Note_on_c, 0, 60, 0
1, 382860, Note_on_c, 0, 80, 0
1, 382871, Control_c, 0, 64, 0
1, 383040, Tempo, 336852
1, 383040, Note_on_c, 0, 88, 60
1, 383040, Note_on_c, 0, 91, 88
1, 383040, Note_on_c, 0, 48, 80
1, 383086, Control_c, 0, 64, 127
1, 383280, Tempo, 330360
1, 383280, Note_on_c, 0, 48, 0
1, 383280, Note_on_c, 0, 91, 0
1, 383280, Note_on_c, 0, 88, 0
1, 383280, Note_on_c, 0, 79, 72
1, 383280, Note_on_c, 0, 60, 67
1, 383400, Note_on_c, 0, 60, 0
1, 383400, Note_on_c, 0, 79, 0
1, 383400, Note_on_c, 0, 88, 52
1, 383400, Note_on_c, 0, 91, 62
1, 383400, Note_on_c, 0, 48, 59
1, 383520, Tempo, 344590
1, 383520, Note_on_c, 0, 48, 0
1, 383520, Note_on_c, 0, 91, 0
1, 383520, Note_on_c, 0, 88, 0
1, 383520, Note_on_c, 0, 79, 80
1, 383520, Note_on_c, 0, 60, 80
1, 383580, Note_on_c, 0, 60, 0
1, 383580, Note_on_c, 0, 79, 0
1, 383635, Control_c, 0, 64, 0
1, 383760, Tempo, 336852
1, 383760, Note_on_c, 0, 92, 88
1, 383760, Note_on_c, 0, 89, 74
1, 383760, Note_on_c, 0, 48, 80
1, 383859, Control_c, 0, 64, 127
1, 384000, Tempo, 325715
1, 384000, Note_on_c, 0, 48, 0
1, 384000, Note_on_c, 0, 89, 0
1, 384000, Note_on_c, 0, 92, 0
1, 384000, Note_on_c, 0, 80, 72
1, 384000, Note_on_c, 0, 60, 66
1, 384120, Note_on_c, 0, 60, 0
1, 384120, Note_on_c, 0, 80, 0
1, 384120, Note_on_c, 0, 92, 64
1, 384120, Note_on_c, 0, 89, 54
1, 384120, Note_on_c, 0, 48, 58
1, 384240, Tempo, 344590
1, 384240, Note_on_c, 0, 48, 0
1, 384240, Note_on_c, 0, 89, 0
1, 384240, Note_on_c, 0, 92, 0
1, 384240, Note_on_c, 0, 80, 81
1, 384240, Note_on_c, 0, 60, 75
1, 384300, Note_on_c, 0, 60, 0
1, 384300, Note_on_c, 0, 80, 0
1, 384350, Control_c, 0, 64, 0
1, 384480, Tempo, 336852
1, 384480, Note_on_c, 0, 88, 77
1, 384480, Note_on_c, 0, 96, 91
1, 384480, Note_on_c, 0, 91, 77
1, 384480, Note_on_c, 0, 48, 83
1, 384533, Control_c, 0, 64, 127
1, 384720, Tempo, 327493
1, 384720, Note_on_c, 0, 48, 0
1, 384720, Note_on_c, 0, 88, 0
1, 384720, Note_on_c, 0, 96, 0
1, 384720, Note_on_c, 0, 91, 0
1, 384720, Note_on_c, 0, 84, 75
1, 384720, Note_on_c, 0, 60, 66
1, 384840, Note_on_c, 0, 60, 0
1, 384840, Note_on_c, 0, 84, 0
1, 384840, Note_on_c, 0, 96, 66
1, 384840, Note_on_c, 0, 88, 56
1, 384840, Note_on_c, 0, 91, 66
1, 384840, Note_on_c, 0, 48, 58
1, 384960, Tempo, 348594
1, 384960, Note_on_c, 0, 48, 0
1, 384960, Note_on_c, 0, 96, 0
1, 384960, Note_on_c, 0, 88, 0
1, 384960, Note_on_c, 0, 91, 0
1, 384960, Note_on_c, 0, 84, 84
1, 384960, Note_on_c, 0, 60, 75
1, 385020, Note_on_c, 0, 60, 0
1, 385020, Note_on_c, 0, 84, 0
1, 385077, Control_c, 0, 64, 0
1, 385200, Tempo, 340677
1, 385200, Note_on_c, 0, 96, 95
1, 385200, Note_on_c, 0, 92, 64
1, 385200, Note_on_c, 0, 89, 64
1, 385200, Note_on_c, 0, 48, 86
1, 385299, Control_c, 0, 64, 127
1, 385440, Tempo, 330360
1, 385440, Note_on_c, 0, 48, 0
1, 385440, Note_on_c, 0, 96, 0
1, 385440, Note_on_c, 0, 92, 0
1, 385440, Note_on_c, 0, 89, 0
1, 385440, Note_on_c, 0, 84, 78
1, 385440, Note_on_c, 0, 60, 73
1, 385560, Note_on_c, 0, 60, 0
1, 385560, Note_on_c, 0, 84, 0
1, 385560, Note_on_c, 0, 96, 69
1, 385560, Note_on_c, 0, 89, 58
1, 385560, Note_on_c, 0, 92, 58
1, 385560, Note_on_c, 0, 48, 64
1, 385680, Tempo, 357953
1, 385680, Note_on_c, 0, 48, 0
1, 385680, Note_on_c, 0, 96, 0
1, 385680, Note_on_c, 0, 89, 0
1, 385680, Note_on_c, 0, 92, 0
1, 385680, Note_on_c, 0, 84, 88
1, 385680, Note_on_c, 0, 60, 88
1, 385740, Note_on_c, 0, 60, 0
1, 385740, Note_on_c, 0, 84, 0
1, 385797, Control_c, 0, 64, 0
1, 385920, Tempo, 344590
1, 385920, Note_on_c, 0, 91, 83
1, 385920, Note_on_c, 0, 96, 83
1, 385920, Note_on_c, 0, 100, 98
1, 385920, Note_on_c, 0, 48, 89
1, 385984, Control_c, 0, 64, 127
1, 386160, Tempo, 334039
1, 386160, Note_on_c, 0, 48, 0
1, 386160, Note_on_c, 0, 91, 0
1, 386160, Note_on_c, 0, 96, 0
1, 386160, Note_on_c, 0, 100, 0
1, 386160, Note_on_c, 0, 88, 81
1, 386160, Note_on_c, 0, 60, 74
1, 386280, Note_on_c, 0, 60, 0
1, 386280, Note_on_c, 0, 88, 0
1, 386280, Note_on_c, 0, 96, 61
1, 386280, Note_on_c, 0, 91, 61
1, 386280, Note_on_c, 0, 100, 72
1, 386280, Note_on_c, 0, 48, 64
1, 386400, Tempo, 355830
1, 386400, Note_on_c, 0, 48, 0
1, 386400, Note_on_c, 0, 96, 0
1, 386400, Note_on_c, 0, 91, 0
1, 386400, Note_on_c, 0, 100, 0
1, 386400, Note_on_c, 0, 88, 91
1, 386400, Note_on_c, 0, 60, 84
1, 386460, Note_on_c, 0, 60, 0
1, 386460, Note_on_c, 0, 88, 0
1, 386485, Control_c, 0, 64, 0
1, 386520, Note_on_c, 0, 89, 85
1, 386538, Control_c, 0, 64, 127
1, 386560, Note_on_c, 0, 89, 0
1, 386560, Note_on_c, 0, 92, 90
1, 386600, Note_on_c, 0, 92, 0
1, 386600, Note_on_c, 0, 96, 96
1, 386640, Tempo, 343603
1, 386640, Note_on_c, 0, 96, 0
1, 386640, Note_on_c, 0, 101, 105
1, 386640, Note_on_c, 0, 65, 67
1, 386640, Note_on_c, 0, 60, 56
1, 386640, Note_on_c, 0, 56, 56
1, 386640, Note_on_c, 0, 53, 56
1, 386648, Tempo, 334039
1, 386723, Tempo, 334971
1, 386760, Note_on_c, 0, 101, 0
1, 386760, Note_on_c, 0, 99, 103
1, 386783, Tempo, 335909
1, 386856, Note_on_c, 0, 56, 0
1, 386856, Note_on_c, 0, 53, 0
1, 386856, Note_on_c, 0, 65, 0
1, 386856, Note_on_c, 0, 60, 0
1, 386858, Tempo, 336852
1, 386880, Note_on_c, 0, 99, 0
1, 386880, Note_on_c, 0, 97, 101
1, 386880, Note_on_c, 0, 65, 57
1, 386880, Note_on_c, 0, 60, 48
1, 386880, Note_on_c, 0, 56, 48
1, 386880, Note_on_c, 0, 53, 48
1, 386918, Tempo, 337800
1, 386993, Tempo, 338753
1, 387000, Note_on_c, 0, 97, 0
1, 387000, Note_on_c, 0, 96, 98
1, 387053, Tempo, 339712
1, 387096, Note_on_c, 0, 56, 0
1, 387096, Note_on_c, 0, 53, 0
1, 387096, Note_on_c, 0, 65, 0
1, 387096, Note_on_c, 0, 60, 0
1, 387120, Note_on_c, 0, 96, 0
1, 387120, Note_on_c, 0, 94, 96
1, 387120, Note_on_c, 0, 65, 57
1, 387120, Note_on_c, 0, 60, 48
1, 387120, Note_on_c, 0, 56, 48
1, 387120, Note_on_c, 0, 53, 48
1, 387128, Tempo, 340677
1, 387188, Tempo, 341647
1, 387240, Note_on_c, 0, 94, 0
1, 387240, Note_on_c, 0, 92, 94
1, 387263, Tempo, 342622
1, 387323, Tempo, 343603
1, 387360, Note_on_c, 0, 92, 0
1, 387360, Note_on_c, 0, 91, 92
1, 387368, Tempo, 342622
1, 387480, Note_on_c, 0, 91, 0
1, 387480, Note_on_c, 0, 89, 89
1, 387600, Note_on_c, 0, 89, 0
1, 387600, Note_on_c, 0, 87, 87
1, 387608, Tempo, 343603
1, 387720, Note_on_c, 0, 87, 0
1, 387720, Note_on_c, 0, 85, 85
1, 387833, Tempo, 344590
1, 387840, Note_on_c, 0, 85, 0
1, 387840, Note_on_c, 0, 84, 82
1, 387960, Note_on_c, 0, 84, 0
1, 387960, Note_on_c, 0, 82, 80
1, 388058, Tempo, 343603
1, 388080, Note_on_c, 0, 82, 0
1, 388080, Note_on_c, 0, 80, 80
1, 388200, Note_on_c, 0, 80, 0
1, 388200, Note_on_c, 0, 79, 79
1, 388320, Note_on_c, 0, 79, 0
1, 388320, Note_on_c, 0, 77, 78
1, 388433, Tempo, 342622
1, 388440, Note_on_c, 0, 77, 0
1, 388440, Note_on_c, 0, 75, 78
1, 388560, Note_on_c, 0, 75, 0
1, 388560, Note_on_c, 0, 73, 77
1, 388680, Note_on_c, 0, 73, 0
1, 388680, Note_on_c, 0, 72, 76
1, 388778, Tempo, 339712
1, 388800, Note_on_c, 0, 72, 0
1, 388800, Note_on_c, 0, 70, 75
1, 388920, Note_on_c, 0, 70, 0
1, 388920, Note_on_c, 0, 68, 74
1, 388973, Tempo, 338753
1, 389040, Note_on_c, 0, 68, 0
1, 389040, Note_on_c, 0, 53, 0
1, 389040, Note_on_c, 0, 65, 0
1, 389040, Note_on_c, 0, 60, 0
1, 389040, Note_on_c, 0, 56, 0
1, 389040, Note_on_c, 0, 67, 73
1, 389160, Note_on_c, 0, 67, 0
1, 389160, Note_on_c, 0, 65, 72
1, 389168, Tempo, 337800
1, 389280, Note_on_c, 0, 65, 0
1, 389280, Note_on_c, 0, 63, 71
1, 389363, Tempo, 336852
1, 389400, Note_on_c, 0, 63, 0
1, 389400, Note_on_c, 0, 61, 70
1, 389520, Note_on_c, 0, 61, 0
1, 389520, Note_on_c, 0, 60, 68
1, 389543, Tempo, 335909
1, 389640, Note_on_c, 0, 60, 0
1, 389640, Note_on_c, 0, 58, 67
1, 389760, Note_on_c, 0, 58, 0
1, 389760, Note_on_c, 0, 56, 67
1, 389880, Note_on_c, 0, 56, 0
1, 389880, Note_on_c, 0, 55, 66
1, 390000, Note_on_c, 0, 55, 0
1, 390000, Note_on_c, 0, 53, 65
1, 390120, Note_on_c, 0, 53, 0
1, 390120, Note_on_c, 0, 51, 64
1, 390233, Tempo, 336852
1, 390240, Note_on_c, 0, 51, 0
1, 390240, Note_on_c, 0, 49, 63
1, 390360, Note_on_c, 0, 49, 0
1, 390360, Note_on_c, 0, 48, 63
1, 390480, Note_on_c, 0, 48, 0
1, 390480, Note_on_c, 0, 46, 64
1, 390593, Tempo, 337800
1, 390600, Note_on_c, 0, 46, 0
1, 390600, Note_on_c, 0, 44, 65
1, 390720, Note_on_c, 0, 44, 0
1, 390720, Note_on_c, 0, 43, 66
1, 390840, Note_on_c, 0, 43, 0
1, 390840, Note_on_c, 0, 41, 67
1, 390923, Tempo, 336852
1, 390960, Note_on_c, 0, 41, 0
1, 390960, Note_on_c, 0, 39, 68
1, 390968, Tempo, 337800
1, 391013, Tempo, 338753
1, 391058, Tempo, 339712
1, 391080, Note_on_c, 0, 39, 0
1, 391080, Note_on_c, 0, 37, 69
1, 391103, Tempo, 340677
1, 391148, Tempo, 341647
1, 391193, Tempo, 342622
1, 391200, Note_on_c, 0, 37, 0
1, 391200, Note_on_c, 0, 36, 70
1, 391238, Tempo, 343603
1, 391283, Tempo, 344590
1, 391320, Note_on_c, 0, 36, 0
1, 391320, Note_on_c, 0, 34, 74
1, 391328, Tempo, 345582
1, 391373, Tempo, 346580
1, 391418, Tempo, 347584
1, 391440, Note_on_c, 0, 34, 0
1, 391440, Note_on_c, 0, 32, 79
1, 391463, Tempo, 348594
1, 391508, Tempo, 349610
1, 391553, Tempo, 350631
1, 391560, Note_on_c, 0, 32, 0
1, 391560, Note_on_c, 0, 31, 83
1, 391598, Tempo, 351659
1, 391643, Tempo, 352692
1, 391673, Tempo, 353732
1, 391680, Note_on_c, 0, 31, 0
1, 391680, Note_on_c, 0, 29, 102
1, 391680, Control_c, 0, 64, 0
1, 391920, Note_on_c, 0, 29, 0
1, 391920, End_track
0, 0, End_of_file
