0, 0, Header, 0, 1, 480
1, 0, Start_track
1, 0, Title_t, "Espana Op. 165"
1, 0, Title_t, "Prelude"
1, 0, Copyright_t, "Copyright © 2001 by Bernd Krueger"
1, 0, Text_t, "Isaac Albeniz"
1, 0, Text_t, "Andantino"
1, 0, Text_t, "Fertiggestellt  27.01.2001\012"
1, 0, Text_t, "Update: 18.03.2001\012"
1, 0, Text_t, "Normierung: 23.12.2002\012"
1, 0, Text_t, "Update am 28.10.2010\012"
1, 0, Text_t, "Dauer: 1:36 Minuten\012"
1, 0, SMPTE_offset, 96, 0, 3, 0, 0
1, 0, Time_signature, 3, 2, 24, 8
1, 0, Key_signature, -1, "major"
1, 0, Tempo, 642192
1, 0, Program_c, 0, 0
1, 0, Control_c, 0, 7, 100
1, 0, Control_c, 0, 10, 64
1, 0, Text_t, "bdca426d104a26ac9dcb070447587523"
1, 0, Control_c, 0, 91, 127
1, 0, Control_c, 0, 64, 0
1, 0, Program_c, 0, 0
1, 0, Control_c, 0, 7, 100
1, 0, Control_c, 0, 10, 64
1, 240, Note_on_c, 0, 81, 60
1, 240, Note_on_c, 0, 57, 48
1, 268, Control_c, 0, 64, 127
1, 480, Tempo, 617920
1, 480, Note_on_c, 0, 57, 0
1, 480, Note_on_c, 0, 81, 0
1, 480, Note_on_c, 0, 88, 66
1, 480, Note_on_c, 0, 64, 52
1, 1440, Tempo, 563380
1, 1920, Tempo, 533333
1, 2040, Note_on_c, 0, 64, 0
1, 2040, Note_on_c, 0, 88, 0
1, 2040, Note_on_c, 0, 86, 55
1, 2040, Note_on_c, 0, 62, 42
1, 2100, Note_on_c, 0, 62, 0
1, 2100, Note_on_c, 0, 86, 0
1, 2100, Note_on_c, 0, 88, 47
1, 2100, Note_on_c, 0, 64, 42
1, 2160, Tempo, 538117
1, 2160, Note_on_c, 0, 64, 0
1, 2160, Note_on_c, 0, 88, 0
1, 2160, Note_on_c, 0, 86, 62
1, 2160, Note_on_c, 0, 62, 49
1, 2167, Control_c, 0, 64, 0
1, 2200, Tempo, 524017
1, 2400, Tempo, 533333
1, 2400, Note_on_c, 0, 62, 0
1, 2400, Note_on_c, 0, 86, 0
1, 2400, Note_on_c, 0, 84, 57
1, 2400, Note_on_c, 0, 60, 45
1, 2474, Control_c, 0, 64, 127
1, 2640, Tempo, 547945
1, 2640, Note_on_c, 0, 60, 0
1, 2640, Note_on_c, 0, 84, 0
1, 2640, Note_on_c, 0, 86, 57
1, 2640, Note_on_c, 0, 62, 45
1, 2880, Tempo, 504202
1, 2880, Note_on_c, 0, 62, 0
1, 2880, Note_on_c, 0, 86, 0
1, 2880, Note_on_c, 0, 88, 62
1, 2880, Control_c, 0, 64, 0
1, 2880, Note_on_c, 0, 64, 49
1, 2951, Control_c, 0, 64, 127
1, 3120, Tempo, 487805
1, 3120, Note_on_c, 0, 64, 0
1, 3120, Note_on_c, 0, 88, 0
1, 3120, Note_on_c, 0, 89, 64
1, 3120, Note_on_c, 0, 65, 51
1, 3360, Tempo, 470588
1, 3360, Note_on_c, 0, 65, 0
1, 3360, Note_on_c, 0, 89, 0
1, 3360, Note_on_c, 0, 91, 67
1, 3360, Note_on_c, 0, 67, 53
1, 3376, Control_c, 0, 64, 0
1, 3466, Control_c, 0, 64, 127
1, 3600, Tempo, 508475
1, 3600, Note_on_c, 0, 67, 0
1, 3600, Note_on_c, 0, 91, 0
1, 3600, Note_on_c, 0, 88, 66
1, 3600, Note_on_c, 0, 64, 52
1, 3840, Tempo, 504202
1, 3840, Note_on_c, 0, 64, 0
1, 3840, Note_on_c, 0, 88, 0
1, 3840, Note_on_c, 0, 89, 64
1, 3840, Note_on_c, 0, 65, 51
1, 3849, Control_c, 0, 64, 0
1, 4080, Tempo, 555556
1, 4080, Note_on_c, 0, 65, 0
1, 4080, Note_on_c, 0, 89, 0
1, 4080, Note_on_c, 0, 88, 61
1, 4080, Note_on_c, 0, 64, 48
1, 4123, Control_c, 0, 64, 127
1, 4200, Note_on_c, 0, 64, 0
1, 4200, Note_on_c, 0, 88, 0
1, 4200, Note_on_c, 0, 86, 59
1, 4200, Note_on_c, 0, 62, 49
1, 4260, Note_on_c, 0, 62, 0
1, 4260, Note_on_c, 0, 86, 0
1, 4260, Note_on_c, 0, 88, 55
1, 4260, Note_on_c, 0, 64, 48
1, 4320, Tempo, 579710
1, 4320, Note_on_c, 0, 64, 0
1, 4320, Note_on_c, 0, 88, 0
1, 4320, Note_on_c, 0, 86, 67
1, 4320, Note_on_c, 0, 62, 53
1, 4329, Control_c, 0, 64, 0
1, 4560, Control_c, 0, 64, 127
1, 4800, Tempo, 603015
1, 4800, Note_on_c, 0, 62, 0
1, 4800, Note_on_c, 0, 86, 0
1, 4800, Note_on_c, 0, 84, 60
1, 4800, Note_on_c, 0, 60, 48
1, 4812, Control_c, 0, 64, 0
1, 4969, Control_c, 0, 64, 127
1, 5280, Note_on_c, 0, 60, 0
1, 5280, Note_on_c, 0, 84, 0
1, 5280, Note_on_c, 0, 82, 57
1, 5280, Note_on_c, 0, 58, 48
1, 5295, Control_c, 0, 64, 0
1, 5520, Control_c, 0, 64, 127
1, 5760, Tempo, 645786
1, 5760, Note_on_c, 0, 58, 0
1, 5760, Note_on_c, 0, 82, 0
1, 5760, Note_on_c, 0, 45, 42
1, 5788, Control_c, 0, 64, 0
1, 5840, Tempo, 568559
1, 5931, Control_c, 0, 64, 127
1, 6000, Tempo, 500000
1, 6000, Note_on_c, 0, 45, 0
1, 6000, Note_on_c, 0, 57, 50
1, 6000, Note_on_c, 0, 52, 39
1, 6240, Tempo, 495868
1, 6240, Note_on_c, 0, 52, 0
1, 6240, Note_on_c, 0, 57, 0
1, 6240, Note_on_c, 0, 61, 51
1, 6240, Note_on_c, 0, 57, 39
1, 6480, Tempo, 485830
1, 6480, Note_on_c, 0, 57, 0
1, 6480, Note_on_c, 0, 61, 0
1, 6480, Note_on_c, 0, 64, 54
1, 6480, Note_on_c, 0, 61, 40
1, 6720, Tempo, 481928
1, 6720, Note_on_c, 0, 61, 0
1, 6720, Note_on_c, 0, 64, 0
1, 6720, Note_on_c, 0, 69, 57
1, 6720, Note_on_c, 0, 64, 43
1, 6960, Tempo, 489796
1, 6960, Note_on_c, 0, 64, 0
1, 6960, Note_on_c, 0, 69, 0
1, 6960, Note_on_c, 0, 73, 58
1, 6960, Note_on_c, 0, 69, 44
1, 7200, Tempo, 468750
1, 7200, Note_on_c, 0, 69, 0
1, 7200, Note_on_c, 0, 73, 0
1, 7200, Note_on_c, 0, 76, 61
1, 7200, Note_on_c, 0, 73, 48
1, 7216, Control_c, 0, 64, 0
1, 7360, Control_c, 0, 64, 127
1, 7440, Tempo, 480000
1, 7440, Note_on_c, 0, 73, 0
1, 7440, Note_on_c, 0, 76, 0
1, 7440, Note_on_c, 0, 69, 50
1, 7440, Note_on_c, 0, 61, 39
1, 7680, Tempo, 442804
1, 7680, Note_on_c, 0, 61, 0
1, 7680, Note_on_c, 0, 69, 0
1, 7680, Note_on_c, 0, 73, 51
1, 7680, Note_on_c, 0, 64, 39
1, 7920, Tempo, 459770
1, 7920, Note_on_c, 0, 64, 0
1, 7920, Note_on_c, 0, 73, 0
1, 7920, Note_on_c, 0, 76, 54
1, 7920, Note_on_c, 0, 69, 40
1, 8160, Tempo, 472441
1, 8160, Note_on_c, 0, 69, 0
1, 8160, Note_on_c, 0, 76, 0
1, 8160, Note_on_c, 0, 81, 57
1, 8160, Note_on_c, 0, 73, 43
1, 8400, Tempo, 483871
1, 8400, Note_on_c, 0, 73, 0
1, 8400, Note_on_c, 0, 81, 0
1, 8400, Note_on_c, 0, 85, 58
1, 8400, Note_on_c, 0, 76, 44
1, 8640, Tempo, 459770
1, 8640, Note_on_c, 0, 76, 0
1, 8640, Note_on_c, 0, 85, 0
1, 8640, Note_on_c, 0, 88, 64
1, 8640, Note_on_c, 0, 81, 49
1, 8648, Control_c, 0, 64, 0
1, 8766, Control_c, 0, 64, 127
1, 8840, Tempo, 474308
1, 8880, Note_on_c, 0, 81, 0
1, 8880, Note_on_c, 0, 88, 0
1, 8880, Note_on_c, 0, 85, 60
1, 8880, Note_on_c, 0, 76, 43
1, 8920, Tempo, 476190
1, 8980, Tempo, 478088
1, 9040, Tempo, 480000
1, 9100, Tempo, 481928
1, 9120, Note_on_c, 0, 76, 0
1, 9120, Note_on_c, 0, 85, 0
1, 9120, Note_on_c, 0, 81, 58
1, 9120, Note_on_c, 0, 73, 43
1, 9180, Tempo, 483871
1, 9240, Tempo, 485830
1, 9300, Tempo, 487805
1, 9360, Tempo, 489796
1, 9360, Note_on_c, 0, 73, 0
1, 9360, Note_on_c, 0, 81, 0
1, 9360, Note_on_c, 0, 76, 57
1, 9360, Note_on_c, 0, 69, 42
1, 9440, Tempo, 491803
1, 9500, Tempo, 493827
1, 9560, Tempo, 495868
1, 9600, Note_on_c, 0, 69, 0
1, 9600, Note_on_c, 0, 76, 0
1, 9600, Note_on_c, 0, 73, 55
1, 9600, Note_on_c, 0, 64, 40
1, 9620, Tempo, 497925
1, 9700, Tempo, 500000
1, 9760, Tempo, 502092
1, 9820, Tempo, 504202
1, 9840, Note_on_c, 0, 64, 0
1, 9840, Note_on_c, 0, 73, 0
1, 9840, Note_on_c, 0, 69, 53
1, 9840, Note_on_c, 0, 61, 40
1, 9880, Tempo, 506329
1, 9940, Tempo, 508475
1, 9960, Tempo, 545455
1, 10080, Tempo, 491803
1, 10080, Note_on_c, 0, 61, 0
1, 10080, Note_on_c, 0, 69, 0
1, 10080, Note_on_c, 0, 76, 51
1, 10080, Note_on_c, 0, 69, 36
1, 10096, Control_c, 0, 64, 0
1, 10206, Control_c, 0, 64, 127
1, 10320, Tempo, 510638
1, 10320, Note_on_c, 0, 69, 0
1, 10320, Note_on_c, 0, 76, 0
1, 10320, Note_on_c, 0, 73, 48
1, 10320, Note_on_c, 0, 64, 35
1, 10560, Tempo, 526316
1, 10560, Note_on_c, 0, 64, 0
1, 10560, Note_on_c, 0, 73, 0
1, 10560, Note_on_c, 0, 69, 46
1, 10560, Note_on_c, 0, 61, 34
1, 10720, Tempo, 542986
1, 10760, Tempo, 545455
1, 10800, Tempo, 547945
1, 10800, Note_on_c, 0, 61, 0
1, 10800, Note_on_c, 0, 69, 0
1, 10800, Note_on_c, 0, 64, 44
1, 10800, Note_on_c, 0, 57, 32
1, 10840, Tempo, 550459
1, 10880, Tempo, 552995
1, 10920, Tempo, 555556
1, 10960, Tempo, 558140
1, 11000, Tempo, 560748
1, 11038, Note_on_c, 0, 57, 0
1, 11040, Tempo, 563380
1, 11040, Note_on_c, 0, 64, 0
1, 11040, Note_on_c, 0, 61, 44
1, 11040, Note_on_c, 0, 57, 30
1, 11080, Tempo, 566038
1, 11120, Tempo, 568720
1, 11160, Tempo, 571429
1, 11200, Tempo, 574163
1, 11240, Tempo, 576923
1, 11277, Note_on_c, 0, 57, 0
1, 11280, Tempo, 579710
1, 11280, Note_on_c, 0, 61, 0
1, 11280, Note_on_c, 0, 57, 42
1, 11280, Note_on_c, 0, 52, 30
1, 11320, Tempo, 582524
1, 11360, Tempo, 585366
1, 11400, Tempo, 588235
1, 11440, Tempo, 591133
1, 11520, Tempo, 624610
1, 11520, Note_on_c, 0, 52, 0
1, 11520, Note_on_c, 0, 57, 0
1, 11520, Note_on_c, 0, 45, 39
1, 11535, Control_c, 0, 64, 0
1, 11560, Tempo, 628075
1, 11680, Tempo, 631512
1, 11760, Tempo, 642192
1, 11760, Note_on_c, 0, 45, 0
1, 11760, Note_on_c, 0, 81, 51
1, 11760, Note_on_c, 0, 57, 40
1, 11788, Control_c, 0, 64, 127
1, 12000, Tempo, 617920
1, 12000, Note_on_c, 0, 57, 0
1, 12000, Note_on_c, 0, 81, 0
1, 12000, Note_on_c, 0, 88, 56
1, 12000, Note_on_c, 0, 64, 44
1, 12960, Tempo, 560748
1, 13440, Tempo, 533333
1, 13560, Note_on_c, 0, 64, 0
1, 13560, Note_on_c, 0, 88, 0
1, 13560, Note_on_c, 0, 86, 46
1, 13560, Note_on_c, 0, 62, 39
1, 13620, Note_on_c, 0, 62, 0
1, 13620, Note_on_c, 0, 86, 0
1, 13620, Note_on_c, 0, 88, 41
1, 13620, Note_on_c, 0, 64, 35
1, 13680, Tempo, 524017
1, 13680, Note_on_c, 0, 64, 0
1, 13680, Note_on_c, 0, 88, 0
1, 13680, Note_on_c, 0, 86, 52
1, 13680, Note_on_c, 0, 62, 41
1, 13691, Control_c, 0, 64, 0
1, 13920, Tempo, 535714
1, 13920, Note_on_c, 0, 62, 0
1, 13920, Note_on_c, 0, 86, 0
1, 13920, Note_on_c, 0, 84, 48
1, 13920, Note_on_c, 0, 60, 38
1, 13994, Control_c, 0, 64, 127
1, 14160, Tempo, 542986
1, 14160, Note_on_c, 0, 60, 0
1, 14160, Note_on_c, 0, 84, 0
1, 14160, Note_on_c, 0, 86, 48
1, 14160, Note_on_c, 0, 62, 38
1, 14400, Tempo, 512821
1, 14400, Note_on_c, 0, 62, 0
1, 14400, Note_on_c, 0, 86, 0
1, 14400, Note_on_c, 0, 88, 52
1, 14400, Note_on_c, 0, 64, 41
1, 14408, Control_c, 0, 64, 0
1, 14517, Control_c, 0, 64, 127
1, 14640, Tempo, 493827
1, 14640, Note_on_c, 0, 64, 0
1, 14640, Note_on_c, 0, 88, 0
1, 14640, Note_on_c, 0, 89, 54
1, 14640, Note_on_c, 0, 65, 43
1, 14880, Tempo, 485830
1, 14880, Note_on_c, 0, 65, 0
1, 14880, Note_on_c, 0, 89, 0
1, 14880, Note_on_c, 0, 91, 56
1, 14880, Note_on_c, 0, 67, 45
1, 14894, Control_c, 0, 64, 0
1, 14936, Control_c, 0, 64, 127
1, 15120, Tempo, 519481
1, 15120, Note_on_c, 0, 67, 0
1, 15120, Note_on_c, 0, 91, 0
1, 15120, Note_on_c, 0, 88, 56
1, 15120, Note_on_c, 0, 64, 44
1, 15360, Tempo, 510638
1, 15360, Note_on_c, 0, 64, 0
1, 15360, Note_on_c, 0, 88, 0
1, 15360, Note_on_c, 0, 89, 54
1, 15360, Note_on_c, 0, 65, 43
1, 15376, Control_c, 0, 64, 0
1, 15470, Control_c, 0, 64, 127
1, 15600, Tempo, 563380
1, 15600, Note_on_c, 0, 65, 0
1, 15600, Note_on_c, 0, 89, 0
1, 15600, Note_on_c, 0, 88, 51
1, 15600, Note_on_c, 0, 64, 40
1, 15720, Tempo, 528634
1, 15720, Note_on_c, 0, 64, 0
1, 15720, Note_on_c, 0, 88, 0
1, 15720, Note_on_c, 0, 86, 51
1, 15720, Note_on_c, 0, 62, 40
1, 15780, Note_on_c, 0, 62, 0
1, 15780, Note_on_c, 0, 86, 0
1, 15780, Note_on_c, 0, 88, 47
1, 15780, Note_on_c, 0, 64, 37
1, 15840, Tempo, 603015
1, 15840, Note_on_c, 0, 64, 0
1, 15840, Note_on_c, 0, 88, 0
1, 15840, Note_on_c, 0, 86, 56
1, 15840, Note_on_c, 0, 62, 45
1, 15865, Control_c, 0, 64, 0
1, 16105, Control_c, 0, 64, 127
1, 16320, Tempo, 618557
1, 16320, Note_on_c, 0, 62, 0
1, 16320, Note_on_c, 0, 86, 0
1, 16320, Note_on_c, 0, 84, 51
1, 16320, Note_on_c, 0, 60, 40
1, 16335, Control_c, 0, 64, 0
1, 16489, Control_c, 0, 64, 127
1, 16800, Note_on_c, 0, 60, 0
1, 16800, Note_on_c, 0, 84, 0
1, 16800, Note_on_c, 0, 82, 48
1, 16800, Note_on_c, 0, 58, 38
1, 16809, Control_c, 0, 64, 0
1, 17014, Control_c, 0, 64, 127
1, 17280, Tempo, 528634
1, 17280, Note_on_c, 0, 58, 0
1, 17280, Note_on_c, 0, 82, 0
1, 17280, Note_on_c, 0, 81, 44
1, 17280, Note_on_c, 0, 57, 32
1, 17303, Control_c, 0, 64, 0
1, 17344, Control_c, 0, 64, 127
1, 17520, Tempo, 491803
1, 17520, Note_on_c, 0, 57, 0
1, 17520, Note_on_c, 0, 81, 0
1, 17520, Note_on_c, 0, 82, 46
1, 17520, Note_on_c, 0, 58, 34
1, 17760, Tempo, 504202
1, 17760, Note_on_c, 0, 58, 0
1, 17760, Note_on_c, 0, 82, 0
1, 17760, Note_on_c, 0, 84, 48
1, 17760, Note_on_c, 0, 60, 36
1, 18000, Tempo, 512821
1, 18000, Note_on_c, 0, 60, 0
1, 18000, Note_on_c, 0, 84, 0
1, 18000, Note_on_c, 0, 86, 50
1, 18000, Note_on_c, 0, 62, 37
1, 18240, Tempo, 524017
1, 18240, Note_on_c, 0, 62, 0
1, 18240, Note_on_c, 0, 86, 0
1, 18240, Note_on_c, 0, 89, 52
1, 18240, Note_on_c, 0, 65, 39
1, 18254, Control_c, 0, 64, 0
1, 18357, Control_c, 0, 64, 127
1, 18480, Tempo, 568720
1, 18600, Tempo, 524017
1, 18600, Note_on_c, 0, 65, 0
1, 18600, Note_on_c, 0, 89, 0
1, 18600, Note_on_c, 0, 86, 49
1, 18600, Note_on_c, 0, 62, 40
1, 18660, Note_on_c, 0, 62, 0
1, 18660, Note_on_c, 0, 86, 0
1, 18660, Note_on_c, 0, 88, 42
1, 18660, Note_on_c, 0, 64, 37
1, 18720, Tempo, 579710
1, 18720, Note_on_c, 0, 64, 0
1, 18720, Note_on_c, 0, 88, 0
1, 18720, Note_on_c, 0, 86, 56
1, 18720, Note_on_c, 0, 62, 45
1, 18732, Control_c, 0, 64, 0
1, 18907, Control_c, 0, 64, 127
1, 19200, Tempo, 597015
1, 19200, Note_on_c, 0, 62, 0
1, 19200, Note_on_c, 0, 86, 0
1, 19200, Note_on_c, 0, 84, 51
1, 19200, Note_on_c, 0, 60, 40
1, 19212, Control_c, 0, 64, 0
1, 19440, Control_c, 0, 64, 127
1, 19680, Note_on_c, 0, 60, 0
1, 19680, Note_on_c, 0, 84, 0
1, 19680, Note_on_c, 0, 82, 48
1, 19680, Note_on_c, 0, 58, 40
1, 19699, Control_c, 0, 64, 0
1, 19867, Control_c, 0, 64, 127
1, 20160, Tempo, 519481
1, 20160, Note_on_c, 0, 58, 0
1, 20160, Note_on_c, 0, 82, 0
1, 20160, Note_on_c, 0, 81, 46
1, 20160, Note_on_c, 0, 57, 32
1, 20175, Control_c, 0, 64, 0
1, 20301, Control_c, 0, 64, 127
1, 20400, Tempo, 495868
1, 20400, Note_on_c, 0, 57, 0
1, 20400, Note_on_c, 0, 81, 0
1, 20400, Note_on_c, 0, 82, 47
1, 20400, Note_on_c, 0, 58, 33
1, 20640, Tempo, 497925
1, 20640, Note_on_c, 0, 58, 0
1, 20640, Note_on_c, 0, 82, 0
1, 20640, Note_on_c, 0, 84, 49
1, 20640, Note_on_c, 0, 60, 35
1, 20880, Tempo, 487805
1, 20880, Note_on_c, 0, 60, 0
1, 20880, Note_on_c, 0, 84, 0
1, 20880, Note_on_c, 0, 86, 51
1, 20880, Note_on_c, 0, 62, 37
1, 21120, Tempo, 495868
1, 21120, Note_on_c, 0, 62, 0
1, 21120, Note_on_c, 0, 86, 0
1, 21120, Note_on_c, 0, 88, 53
1, 21120, Note_on_c, 0, 64, 39
1, 21125, Control_c, 0, 64, 0
1, 21290, Control_c, 0, 64, 127
1, 21360, Tempo, 528634
1, 21360, Note_on_c, 0, 64, 0
1, 21360, Note_on_c, 0, 88, 0
1, 21360, Note_on_c, 0, 91, 57
1, 21360, Note_on_c, 0, 67, 40
1, 21600, Tempo, 582524
1, 21600, Note_on_c, 0, 67, 0
1, 21600, Note_on_c, 0, 91, 0
1, 21600, Note_on_c, 0, 89, 55
1, 21600, Note_on_c, 0, 65, 43
1, 21611, Control_c, 0, 64, 0
1, 21720, Tempo, 533333
1, 21720, Note_on_c, 0, 65, 0
1, 21720, Note_on_c, 0, 89, 0
1, 21720, Note_on_c, 0, 86, 46
1, 21720, Note_on_c, 0, 62, 34
1, 21780, Note_on_c, 0, 62, 0
1, 21780, Note_on_c, 0, 86, 0
1, 21780, Note_on_c, 0, 88, 40
1, 21780, Note_on_c, 0, 64, 32
1, 21840, Tempo, 545455
1, 21840, Note_on_c, 0, 64, 0
1, 21840, Note_on_c, 0, 88, 0
1, 21840, Note_on_c, 0, 86, 50
1, 21840, Note_on_c, 0, 62, 37
1, 22080, Tempo, 545455
1, 22080, Note_on_c, 0, 62, 0
1, 22080, Note_on_c, 0, 86, 0
1, 22080, Note_on_c, 0, 84, 50
1, 22080, Note_on_c, 0, 60, 37
1, 22161, Control_c, 0, 64, 127
1, 22320, Tempo, 571429
1, 22320, Note_on_c, 0, 60, 0
1, 22320, Note_on_c, 0, 84, 0
1, 22320, Note_on_c, 0, 82, 45
1, 22320, Note_on_c, 0, 58, 33
1, 22560, Tempo, 588235
1, 22560, Note_on_c, 0, 58, 0
1, 22560, Note_on_c, 0, 82, 0
1, 22560, Note_on_c, 0, 86, 49
1, 22560, Note_on_c, 0, 62, 36
1, 22573, Control_c, 0, 64, 0
1, 22634, Control_c, 0, 64, 127
1, 22800, Note_on_c, 0, 62, 0
1, 22800, Note_on_c, 0, 86, 0
1, 22800, Note_on_c, 0, 85, 44
1, 22800, Note_on_c, 0, 61, 33
1, 23040, Tempo, 648649
1, 23040, Note_on_c, 0, 61, 0
1, 23040, Note_on_c, 0, 85, 0
1, 23040, Note_on_c, 0, 45, 67
1, 23047, Control_c, 0, 64, 0
1, 23115, Control_c, 0, 64, 127
1, 23200, Tempo, 459770
1, 23200, Note_on_c, 0, 70, 51
1, 23200, Note_on_c, 0, 61, 29
1, 23360, Note_on_c, 0, 70, 0
1, 23360, Note_on_c, 0, 69, 46
1, 23520, Tempo, 510638
1, 23520, Note_on_c, 0, 69, 0
1, 23520, Note_on_c, 0, 61, 0
1, 23520, Note_on_c, 0, 45, 0
1, 23520, Note_on_c, 0, 52, 55
1, 23680, Tempo, 452830
1, 23680, Note_on_c, 0, 61, 29
1, 23680, Note_on_c, 0, 70, 52
1, 23760, Tempo, 451128
1, 23840, Tempo, 449438
1, 23840, Note_on_c, 0, 70, 0
1, 23840, Note_on_c, 0, 69, 45
1, 23920, Tempo, 447761
1, 24000, Tempo, 446097
1, 24000, Note_on_c, 0, 69, 0
1, 24000, Note_on_c, 0, 61, 0
1, 24000, Note_on_c, 0, 52, 0
1, 24000, Note_on_c, 0, 57, 55
1, 24060, Tempo, 444444
1, 24140, Tempo, 442804
1, 24160, Note_on_c, 0, 61, 29
1, 24160, Note_on_c, 0, 70, 51
1, 24220, Tempo, 441176
1, 24300, Tempo, 439560
1, 24320, Note_on_c, 0, 70, 0
1, 24320, Note_on_c, 0, 69, 45
1, 24380, Tempo, 437956
1, 24440, Tempo, 436364
1, 24480, Tempo, 451128
1, 24480, Note_on_c, 0, 69, 0
1, 24480, Note_on_c, 0, 61, 0
1, 24480, Note_on_c, 0, 57, 0
1, 24480, Note_on_c, 0, 45, 68
1, 24500, Control_c, 0, 64, 0
1, 24554, Control_c, 0, 64, 127
1, 24640, Tempo, 428571
1, 24640, Note_on_c, 0, 62, 27
1, 24640, Note_on_c, 0, 69, 48
1, 24800, Note_on_c, 0, 69, 0
1, 24800, Note_on_c, 0, 67, 41
1, 24940, Tempo, 436364
1, 24960, Tempo, 419580
1, 24960, Note_on_c, 0, 67, 0
1, 24960, Note_on_c, 0, 62, 0
1, 24960, Note_on_c, 0, 45, 0
1, 24960, Note_on_c, 0, 52, 55
1, 25120, Note_on_c, 0, 69, 48
1, 25120, Note_on_c, 0, 62, 27
1, 25280, Note_on_c, 0, 69, 0
1, 25280, Note_on_c, 0, 67, 40
1, 25440, Tempo, 412371
1, 25440, Note_on_c, 0, 67, 0
1, 25440, Note_on_c, 0, 62, 0
1, 25440, Note_on_c, 0, 52, 0
1, 25440, Note_on_c, 0, 58, 55
1, 25600, Note_on_c, 0, 62, 27
1, 25600, Note_on_c, 0, 69, 47
1, 25720, Tempo, 465116
1, 25760, Tempo, 466926
1, 25760, Note_on_c, 0, 69, 0
1, 25760, Note_on_c, 0, 67, 40
1, 25800, Tempo, 468750
1, 25840, Tempo, 470588
1, 25880, Tempo, 472441
1, 25920, Tempo, 601564
1, 25920, Note_on_c, 0, 67, 0
1, 25920, Note_on_c, 0, 62, 0
1, 25920, Note_on_c, 0, 58, 0
1, 25920, Note_on_c, 0, 45, 65
1, 25935, Control_c, 0, 64, 0
1, 25977, Control_c, 0, 64, 127
1, 26080, Tempo, 466926
1, 26080, Note_on_c, 0, 61, 29
1, 26080, Note_on_c, 0, 70, 51
1, 26240, Note_on_c, 0, 70, 0
1, 26240, Note_on_c, 0, 69, 46
1, 26400, Tempo, 452830
1, 26400, Note_on_c, 0, 69, 0
1, 26400, Note_on_c, 0, 61, 0
1, 26400, Note_on_c, 0, 45, 0
1, 26400, Note_on_c, 0, 52, 52
1, 26500, Tempo, 451128
1, 26560, Note_on_c, 0, 70, 52
1, 26560, Note_on_c, 0, 61, 42
1, 26580, Tempo, 449438
1, 26660, Tempo, 447761
1, 26720, Note_on_c, 0, 70, 0
1, 26720, Note_on_c, 0, 69, 45
1, 26760, Tempo, 446097
1, 26840, Tempo, 444444
1, 26880, Note_on_c, 0, 69, 0
1, 26880, Note_on_c, 0, 61, 0
1, 26880, Note_on_c, 0, 52, 0
1, 26880, Note_on_c, 0, 57, 52
1, 26920, Tempo, 442804
1, 27000, Tempo, 441176
1, 27040, Note_on_c, 0, 61, 42
1, 27040, Note_on_c, 0, 70, 51
1, 27100, Tempo, 439560
1, 27180, Tempo, 437956
1, 27200, Note_on_c, 0, 70, 0
1, 27200, Note_on_c, 0, 69, 45
1, 27260, Tempo, 436364
1, 27340, Tempo, 434783
1, 27360, Tempo, 483871
1, 27360, Note_on_c, 0, 69, 0
1, 27360, Note_on_c, 0, 61, 0
1, 27360, Note_on_c, 0, 57, 0
1, 27360, Note_on_c, 0, 45, 64
1, 27381, Control_c, 0, 64, 0
1, 27448, Control_c, 0, 64, 127
1, 27500, Tempo, 437956
1, 27520, Tempo, 434783
1, 27520, Note_on_c, 0, 70, 48
1, 27520, Note_on_c, 0, 62, 27
1, 27680, Tempo, 433213
1, 27680, Note_on_c, 0, 70, 0
1, 27680, Note_on_c, 0, 69, 41
1, 27840, Tempo, 431655
1, 27840, Note_on_c, 0, 69, 0
1, 27840, Note_on_c, 0, 62, 0
1, 27840, Note_on_c, 0, 45, 0
1, 27840, Note_on_c, 0, 52, 55
1, 27880, Tempo, 433213
1, 27920, Tempo, 434783
1, 27960, Tempo, 436364
1, 28000, Tempo, 437956
1, 28000, Note_on_c, 0, 69, 48
1, 28000, Note_on_c, 0, 62, 27
1, 28040, Tempo, 439560
1, 28060, Tempo, 441176
1, 28100, Tempo, 442804
1, 28140, Tempo, 444444
1, 28160, Note_on_c, 0, 69, 0
1, 28160, Note_on_c, 0, 67, 40
1, 28180, Tempo, 446097
1, 28220, Tempo, 447761
1, 28240, Tempo, 449438
1, 28280, Tempo, 451128
1, 28320, Tempo, 452830
1, 28320, Note_on_c, 0, 67, 0
1, 28320, Note_on_c, 0, 62, 0
1, 28320, Note_on_c, 0, 52, 0
1, 28320, Note_on_c, 0, 58, 54
1, 28360, Tempo, 454545
1, 28400, Tempo, 456274
1, 28420, Tempo, 458015
1, 28460, Tempo, 459770
1, 28480, Note_on_c, 0, 67, 47
1, 28480, Note_on_c, 0, 62, 27
1, 28500, Tempo, 461538
1, 28540, Tempo, 463320
1, 28580, Tempo, 465116
1, 28600, Tempo, 466926
1, 28640, Tempo, 468750
1, 28640, Note_on_c, 0, 67, 0
1, 28640, Note_on_c, 0, 64, 40
1, 28680, Tempo, 470588
1, 28720, Tempo, 472441
1, 28760, Tempo, 474308
1, 28780, Tempo, 476190
1, 28800, Tempo, 595888
1, 28800, Note_on_c, 0, 64, 0
1, 28800, Note_on_c, 0, 62, 0
1, 28800, Note_on_c, 0, 58, 0
1, 28800, Note_on_c, 0, 45, 69
1, 28815, Control_c, 0, 64, 0
1, 28855, Control_c, 0, 64, 127
1, 28960, Tempo, 459770
1, 28960, Note_on_c, 0, 61, 30
1, 28960, Note_on_c, 0, 70, 53
1, 29120, Note_on_c, 0, 70, 0
1, 29120, Note_on_c, 0, 69, 48
1, 29280, Tempo, 449438
1, 29280, Note_on_c, 0, 69, 0
1, 29280, Note_on_c, 0, 61, 0
1, 29280, Note_on_c, 0, 45, 0
1, 29280, Note_on_c, 0, 52, 57
1, 29440, Note_on_c, 0, 70, 55
1, 29440, Note_on_c, 0, 61, 31
1, 29600, Note_on_c, 0, 70, 0
1, 29600, Note_on_c, 0, 69, 48
1, 29760, Note_on_c, 0, 69, 0
1, 29760, Note_on_c, 0, 61, 0
1, 29760, Note_on_c, 0, 52, 0
1, 29760, Note_on_c, 0, 57, 58
1, 29920, Note_on_c, 0, 70, 56
1, 29920, Note_on_c, 0, 61, 31
1, 30080, Note_on_c, 0, 70, 0
1, 30080, Note_on_c, 0, 69, 49
1, 30240, Tempo, 517241
1, 30240, Note_on_c, 0, 69, 0
1, 30240, Note_on_c, 0, 61, 0
1, 30240, Note_on_c, 0, 57, 0
1, 30240, Note_on_c, 0, 41, 66
1, 30254, Control_c, 0, 64, 0
1, 30304, Control_c, 0, 64, 127
1, 30400, Tempo, 474308
1, 30400, Note_on_c, 0, 67, 57
1, 30400, Note_on_c, 0, 57, 32
1, 30560, Note_on_c, 0, 67, 0
1, 30560, Note_on_c, 0, 65, 50
1, 30720, Tempo, 452830
1, 30720, Note_on_c, 0, 65, 0
1, 30720, Note_on_c, 0, 57, 0
1, 30720, Note_on_c, 0, 41, 0
1, 30720, Note_on_c, 0, 48, 51
1, 30880, Note_on_c, 0, 57, 33
1, 30880, Note_on_c, 0, 67, 58
1, 31040, Note_on_c, 0, 67, 0
1, 31040, Note_on_c, 0, 65, 48
1, 31200, Tempo, 481928
1, 31200, Note_on_c, 0, 65, 0
1, 31200, Note_on_c, 0, 57, 0
1, 31200, Note_on_c, 0, 48, 0
1, 31200, Note_on_c, 0, 57, 69
1, 31350, Note_on_c, 0, 57, 0
1, 31360, Note_on_c, 0, 67, 58
1, 31360, Note_on_c, 0, 57, 32
1, 31440, Tempo, 491803
1, 31520, Note_on_c, 0, 67, 0
1, 31520, Note_on_c, 0, 65, 49
1, 31680, Tempo, 560748
1, 31680, Note_on_c, 0, 65, 0
1, 31680, Note_on_c, 0, 57, 0
1, 31680, Note_on_c, 0, 48, 74
1, 31701, Control_c, 0, 64, 0
1, 31765, Control_c, 0, 64, 127
1, 31840, Tempo, 476190
1, 31840, Note_on_c, 0, 60, 34
1, 31840, Note_on_c, 0, 65, 60
1, 32000, Note_on_c, 0, 65, 0
1, 32000, Note_on_c, 0, 64, 53
1, 32160, Tempo, 487805
1, 32160, Note_on_c, 0, 64, 0
1, 32160, Note_on_c, 0, 60, 0
1, 32160, Note_on_c, 0, 48, 0
1, 32160, Note_on_c, 0, 55, 73
1, 32320, Note_on_c, 0, 65, 61
1, 32320, Note_on_c, 0, 60, 35
1, 32480, Note_on_c, 0, 65, 0
1, 32480, Note_on_c, 0, 64, 51
1, 32640, Tempo, 508475
1, 32640, Note_on_c, 0, 64, 0
1, 32640, Note_on_c, 0, 60, 0
1, 32640, Note_on_c, 0, 55, 0
1, 32640, Note_on_c, 0, 60, 69
1, 32790, Note_on_c, 0, 60, 0
1, 32800, Note_on_c, 0, 60, 34
1, 32800, Note_on_c, 0, 65, 61
1, 32960, Note_on_c, 0, 65, 0
1, 32960, Note_on_c, 0, 64, 52
1, 33120, Tempo, 510638
1, 33120, Note_on_c, 0, 64, 0
1, 33120, Note_on_c, 0, 60, 0
1, 33120, Note_on_c, 0, 55, 66
1, 33134, Control_c, 0, 64, 0
1, 33160, Tempo, 508475
1, 33191, Control_c, 0, 64, 127
1, 33200, Tempo, 510638
1, 33240, Tempo, 512821
1, 33240, Note_on_c, 0, 55, 0
1, 33260, Tempo, 515021
1, 33280, Note_on_c, 0, 64, 58
1, 33280, Note_on_c, 0, 58, 33
1, 33300, Tempo, 517241
1, 33320, Tempo, 519481
1, 33360, Tempo, 521739
1, 33400, Tempo, 524017
1, 33420, Tempo, 526316
1, 33440, Note_on_c, 0, 64, 0
1, 33440, Note_on_c, 0, 62, 50
1, 33460, Tempo, 528634
1, 33480, Tempo, 530973
1, 33520, Tempo, 533333
1, 33560, Tempo, 535714
1, 33580, Tempo, 538117
1, 33600, Note_on_c, 0, 62, 0
1, 33600, Note_on_c, 0, 58, 0
1, 33600, Note_on_c, 0, 57, 59
1, 33620, Tempo, 540541
1, 33640, Tempo, 542986
1, 33680, Tempo, 545455
1, 33700, Tempo, 547945
1, 33720, Note_on_c, 0, 57, 0
1, 33740, Tempo, 550459
1, 33760, Note_on_c, 0, 64, 55
1, 33760, Note_on_c, 0, 58, 31
1, 33780, Tempo, 552995
1, 33800, Tempo, 555556
1, 33840, Tempo, 558140
1, 33860, Tempo, 560748
1, 33900, Tempo, 563380
1, 33920, Note_on_c, 0, 64, 0
1, 33920, Note_on_c, 0, 62, 44
1, 33940, Tempo, 566038
1, 33960, Tempo, 568720
1, 34000, Tempo, 571429
1, 34020, Tempo, 574163
1, 34020, Note_on_c, 0, 60, 55
1, 34060, Tempo, 576923
1, 34080, Tempo, 579710
1, 34080, Note_on_c, 0, 60, 0
1, 34080, Note_on_c, 0, 62, 0
1, 34080, Note_on_c, 0, 58, 0
1, 34080, Note_on_c, 0, 58, 53
1, 34200, Note_on_c, 0, 58, 0
1, 34240, Note_on_c, 0, 64, 52
1, 34240, Note_on_c, 0, 58, 29
1, 34400, Tempo, 740741
1, 34400, Note_on_c, 0, 64, 0
1, 34400, Note_on_c, 0, 62, 42
1, 34560, Tempo, 648649
1, 34560, Note_on_c, 0, 62, 0
1, 34560, Note_on_c, 0, 58, 0
1, 34560, Note_on_c, 0, 45, 64
1, 34572, Control_c, 0, 64, 0
1, 34643, Control_c, 0, 64, 127
1, 34720, Tempo, 459770
1, 34720, Note_on_c, 0, 61, 29
1, 34720, Note_on_c, 0, 70, 51
1, 34880, Note_on_c, 0, 70, 0
1, 34880, Note_on_c, 0, 69, 46
1, 35040, Tempo, 510638
1, 35040, Note_on_c, 0, 69, 0
1, 35040, Note_on_c, 0, 61, 0
1, 35040, Note_on_c, 0, 45, 0
1, 35040, Note_on_c, 0, 52, 55
1, 35200, Tempo, 452830
1, 35200, Note_on_c, 0, 61, 29
1, 35200, Note_on_c, 0, 70, 52
1, 35280, Tempo, 451128
1, 35360, Tempo, 449438
1, 35360, Note_on_c, 0, 70, 0
1, 35360, Note_on_c, 0, 69, 45
1, 35440, Tempo, 447761
1, 35520, Tempo, 446097
1, 35520, Note_on_c, 0, 69, 0
1, 35520, Note_on_c, 0, 61, 0
1, 35520, Note_on_c, 0, 52, 0
1, 35520, Note_on_c, 0, 57, 55
1, 35580, Tempo, 444444
1, 35660, Tempo, 442804
1, 35680, Note_on_c, 0, 61, 29
1, 35680, Note_on_c, 0, 70, 51
1, 35740, Tempo, 441176
1, 35820, Tempo, 439560
1, 35840, Note_on_c, 0, 70, 0
1, 35840, Note_on_c, 0, 69, 45
1, 35900, Tempo, 437956
1, 35960, Tempo, 436364
1, 36000, Tempo, 451128
1, 36000, Note_on_c, 0, 69, 0
1, 36000, Note_on_c, 0, 61, 0
1, 36000, Note_on_c, 0, 57, 0
1, 36000, Note_on_c, 0, 45, 65
1, 36023, Control_c, 0, 64, 0
1, 36081, Control_c, 0, 64, 127
1, 36160, Tempo, 428571
1, 36160, Note_on_c, 0, 69, 48
1, 36160, Note_on_c, 0, 62, 27
1, 36320, Note_on_c, 0, 69, 0
1, 36320, Note_on_c, 0, 67, 41
1, 36480, Tempo, 418118
1, 36480, Note_on_c, 0, 67, 0
1, 36480, Note_on_c, 0, 62, 0
1, 36480, Note_on_c, 0, 45, 0
1, 36480, Note_on_c, 0, 52, 55
1, 36640, Note_on_c, 0, 62, 27
1, 36640, Note_on_c, 0, 69, 48
1, 36800, Note_on_c, 0, 69, 0
1, 36800, Note_on_c, 0, 67, 40
1, 36960, Tempo, 408163
1, 36960, Note_on_c, 0, 67, 0
1, 36960, Note_on_c, 0, 62, 0
1, 36960, Note_on_c, 0, 52, 0
1, 36960, Note_on_c, 0, 58, 55
1, 37120, Note_on_c, 0, 62, 27
1, 37120, Note_on_c, 0, 69, 47
1, 37280, Note_on_c, 0, 69, 0
1, 37280, Note_on_c, 0, 67, 40
1, 37360, Tempo, 470588
1, 37400, Tempo, 472441
1, 37440, Tempo, 601564
1, 37440, Note_on_c, 0, 67, 0
1, 37440, Note_on_c, 0, 62, 0
1, 37440, Note_on_c, 0, 58, 0
1, 37440, Note_on_c, 0, 45, 66
1, 37458, Control_c, 0, 64, 0
1, 37517, Control_c, 0, 64, 127
1, 37600, Tempo, 466926
1, 37600, Note_on_c, 0, 70, 51
1, 37600, Note_on_c, 0, 61, 29
1, 37760, Note_on_c, 0, 70, 0
1, 37760, Note_on_c, 0, 69, 46
1, 37920, Tempo, 452830
1, 37920, Note_on_c, 0, 69, 0
1, 37920, Note_on_c, 0, 61, 0
1, 37920, Note_on_c, 0, 45, 0
1, 37920, Note_on_c, 0, 52, 55
1, 38020, Tempo, 451128
1, 38080, Note_on_c, 0, 61, 29
1, 38080, Note_on_c, 0, 70, 52
1, 38100, Tempo, 449438
1, 38180, Tempo, 447761
1, 38240, Note_on_c, 0, 70, 0
1, 38240, Note_on_c, 0, 69, 45
1, 38280, Tempo, 446097
1, 38360, Tempo, 444444
1, 38400, Note_on_c, 0, 69, 0
1, 38400, Note_on_c, 0, 61, 0
1, 38400, Note_on_c, 0, 52, 0
1, 38400, Note_on_c, 0, 57, 55
1, 38440, Tempo, 442804
1, 38520, Tempo, 441176
1, 38560, Note_on_c, 0, 70, 51
1, 38560, Note_on_c, 0, 61, 29
1, 38620, Tempo, 439560
1, 38700, Tempo, 437956
1, 38720, Note_on_c, 0, 70, 0
1, 38720, Note_on_c, 0, 69, 45
1, 38780, Tempo, 436364
1, 38860, Tempo, 434783
1, 38880, Tempo, 483871
1, 38880, Note_on_c, 0, 69, 0
1, 38880, Note_on_c, 0, 61, 0
1, 38880, Note_on_c, 0, 57, 0
1, 38880, Note_on_c, 0, 45, 61
1, 38901, Control_c, 0, 64, 0
1, 38947, Control_c, 0, 64, 127
1, 39020, Tempo, 437956
1, 39040, Tempo, 434783
1, 39040, Note_on_c, 0, 69, 48
1, 39040, Note_on_c, 0, 62, 27
1, 39200, Tempo, 433213
1, 39200, Note_on_c, 0, 69, 0
1, 39200, Note_on_c, 0, 67, 41
1, 39360, Tempo, 431655
1, 39360, Note_on_c, 0, 67, 0
1, 39360, Note_on_c, 0, 62, 0
1, 39360, Note_on_c, 0, 45, 0
1, 39360, Note_on_c, 0, 52, 55
1, 39400, Tempo, 433213
1, 39440, Tempo, 434783
1, 39480, Tempo, 436364
1, 39520, Tempo, 437956
1, 39520, Note_on_c, 0, 62, 27
1, 39520, Note_on_c, 0, 69, 48
1, 39560, Tempo, 439560
1, 39580, Tempo, 441176
1, 39620, Tempo, 442804
1, 39660, Tempo, 444444
1, 39680, Note_on_c, 0, 69, 0
1, 39680, Note_on_c, 0, 67, 40
1, 39700, Tempo, 446097
1, 39740, Tempo, 447761
1, 39760, Tempo, 449438
1, 39800, Tempo, 451128
1, 39840, Tempo, 452830
1, 39840, Note_on_c, 0, 67, 0
1, 39840, Note_on_c, 0, 62, 0
1, 39840, Note_on_c, 0, 52, 0
1, 39840, Note_on_c, 0, 58, 55
1, 39880, Tempo, 454545
1, 39920, Tempo, 456274
1, 39940, Tempo, 458015
1, 39980, Tempo, 459770
1, 40000, Note_on_c, 0, 69, 47
1, 40000, Note_on_c, 0, 62, 27
1, 40020, Tempo, 461538
1, 40060, Tempo, 463320
1, 40100, Tempo, 465116
1, 40120, Tempo, 466926
1, 40160, Tempo, 468750
1, 40160, Note_on_c, 0, 69, 0
1, 40160, Note_on_c, 0, 67, 40
1, 40200, Tempo, 470588
1, 40240, Tempo, 472441
1, 40280, Tempo, 474308
1, 40300, Tempo, 476190
1, 40320, Tempo, 600000
1, 40320, Note_on_c, 0, 67, 0
1, 40320, Note_on_c, 0, 62, 0
1, 40320, Note_on_c, 0, 58, 0
1, 40320, Note_on_c, 0, 45, 49
1, 40335, Control_c, 0, 64, 0
1, 40411, Control_c, 0, 64, 127
1, 40560, Tempo, 555556
1, 40560, Note_on_c, 0, 45, 0
1, 40560, Note_on_c, 0, 81, 53
1, 40560, Note_on_c, 0, 57, 45
1, 40800, Tempo, 523241
1, 40800, Note_on_c, 0, 57, 0
1, 40800, Note_on_c, 0, 81, 0
1, 40800, Note_on_c, 0, 83, 56
1, 40800, Note_on_c, 0, 59, 47
1, 40819, Control_c, 0, 64, 0
1, 40972, Control_c, 0, 64, 127
1, 41040, Tempo, 533333
1, 41040, Note_on_c, 0, 59, 0
1, 41040, Note_on_c, 0, 83, 0
1, 41040, Note_on_c, 0, 85, 57
1, 41040, Note_on_c, 0, 61, 48
1, 41280, Tempo, 502092
1, 41280, Note_on_c, 0, 61, 0
1, 41280, Note_on_c, 0, 85, 0
1, 41280, Note_on_c, 0, 86, 59
1, 41280, Note_on_c, 0, 62, 49
1, 41520, Tempo, 519481
1, 41520, Note_on_c, 0, 62, 0
1, 41520, Note_on_c, 0, 86, 0
1, 41520, Note_on_c, 0, 88, 61
1, 41520, Note_on_c, 0, 64, 51
1, 41760, Tempo, 497925
1, 41760, Note_on_c, 0, 64, 0
1, 41760, Note_on_c, 0, 88, 0
1, 41760, Note_on_c, 0, 89, 62
1, 41760, Note_on_c, 0, 65, 52
1, 41771, Control_c, 0, 64, 0
1, 41891, Control_c, 0, 64, 127
1, 42000, Tempo, 528634
1, 42120, Tempo, 488719
1, 42120, Note_on_c, 0, 65, 0
1, 42120, Note_on_c, 0, 89, 0
1, 42120, Note_on_c, 0, 88, 55
1, 42120, Note_on_c, 0, 64, 48
1, 42180, Note_on_c, 0, 64, 0
1, 42180, Note_on_c, 0, 88, 0
1, 42180, Note_on_c, 0, 89, 51
1, 42180, Note_on_c, 0, 65, 45
1, 42240, Tempo, 485830
1, 42240, Note_on_c, 0, 65, 0
1, 42240, Note_on_c, 0, 89, 0
1, 42240, Note_on_c, 0, 88, 61
1, 42240, Note_on_c, 0, 64, 51
1, 42258, Control_c, 0, 64, 0
1, 42480, Tempo, 512821
1, 42480, Note_on_c, 0, 64, 0
1, 42480, Note_on_c, 0, 88, 0
1, 42480, Note_on_c, 0, 86, 57
1, 42480, Note_on_c, 0, 62, 48
1, 42593, Control_c, 0, 64, 127
1, 42720, Tempo, 504202
1, 42720, Note_on_c, 0, 62, 0
1, 42720, Note_on_c, 0, 86, 0
1, 42720, Note_on_c, 0, 84, 56
1, 42720, Note_on_c, 0, 60, 47
1, 42960, Tempo, 493827
1, 42960, Note_on_c, 0, 60, 0
1, 42960, Note_on_c, 0, 84, 0
1, 42960, Note_on_c, 0, 86, 59
1, 42960, Note_on_c, 0, 62, 49
1, 43200, Tempo, 485830
1, 43200, Note_on_c, 0, 62, 0
1, 43200, Note_on_c, 0, 86, 0
1, 43200, Note_on_c, 0, 88, 57
1, 43200, Note_on_c, 0, 64, 45
1, 43214, Control_c, 0, 64, 0
1, 43317, Control_c, 0, 64, 127
1, 43440, Tempo, 480000
1, 43440, Note_on_c, 0, 64, 0
1, 43440, Note_on_c, 0, 88, 0
1, 43440, Note_on_c, 0, 89, 59
1, 43440, Note_on_c, 0, 65, 47
1, 43680, Tempo, 470588
1, 43680, Note_on_c, 0, 65, 0
1, 43680, Note_on_c, 0, 89, 0
1, 43680, Note_on_c, 0, 91, 61
1, 43680, Note_on_c, 0, 67, 49
1, 43701, Control_c, 0, 64, 0
1, 43797, Control_c, 0, 64, 127
1, 43920, Tempo, 508475
1, 43920, Note_on_c, 0, 67, 0
1, 43920, Note_on_c, 0, 91, 0
1, 43920, Note_on_c, 0, 88, 61
1, 43920, Note_on_c, 0, 64, 48
1, 44160, Tempo, 487805
1, 44160, Note_on_c, 0, 64, 0
1, 44160, Note_on_c, 0, 88, 0
1, 44160, Note_on_c, 0, 89, 59
1, 44160, Note_on_c, 0, 65, 47
1, 44175, Control_c, 0, 64, 0
1, 44245, Control_c, 0, 64, 127
1, 44400, Tempo, 542986
1, 44400, Note_on_c, 0, 65, 0
1, 44400, Note_on_c, 0, 89, 0
1, 44400, Note_on_c, 0, 88, 56
1, 44400, Note_on_c, 0, 64, 44
1, 44520, Tempo, 521739
1, 44520, Note_on_c, 0, 64, 0
1, 44520, Note_on_c, 0, 88, 0
1, 44520, Note_on_c, 0, 86, 55
1, 44520, Note_on_c, 0, 62, 47
1, 44580, Note_on_c, 0, 62, 0
1, 44580, Note_on_c, 0, 86, 0
1, 44580, Note_on_c, 0, 88, 51
1, 44580, Note_on_c, 0, 64, 44
1, 44640, Tempo, 574163
1, 44640, Note_on_c, 0, 64, 0
1, 44640, Note_on_c, 0, 88, 0
1, 44640, Note_on_c, 0, 86, 61
1, 44640, Note_on_c, 0, 62, 49
1, 44672, Control_c, 0, 64, 0
1, 44905, Control_c, 0, 64, 127
1, 45120, Tempo, 603015
1, 45120, Note_on_c, 0, 62, 0
1, 45120, Note_on_c, 0, 86, 0
1, 45120, Note_on_c, 0, 84, 56
1, 45120, Note_on_c, 0, 60, 44
1, 45134, Control_c, 0, 64, 0
1, 45360, Control_c, 0, 64, 127
1, 45600, Note_on_c, 0, 60, 0
1, 45600, Note_on_c, 0, 84, 0
1, 45600, Note_on_c, 0, 82, 52
1, 45600, Note_on_c, 0, 58, 41
1, 45619, Control_c, 0, 64, 0
1, 45760, Control_c, 0, 64, 127
1, 46080, Tempo, 552995
1, 46080, Note_on_c, 0, 58, 0
1, 46080, Note_on_c, 0, 82, 0
1, 46080, Note_on_c, 0, 81, 57
1, 46080, Note_on_c, 0, 57, 48
1, 46102, Control_c, 0, 64, 0
1, 46211, Control_c, 0, 64, 127
1, 46320, Tempo, 512821
1, 46320, Note_on_c, 0, 57, 0
1, 46320, Note_on_c, 0, 81, 0
1, 46320, Note_on_c, 0, 83, 58
1, 46320, Note_on_c, 0, 59, 49
1, 46560, Tempo, 502092
1, 46560, Note_on_c, 0, 59, 0
1, 46560, Note_on_c, 0, 83, 0
1, 46560, Note_on_c, 0, 85, 60
1, 46560, Note_on_c, 0, 61, 50
1, 46578, Control_c, 0, 64, 0
1, 46674, Control_c, 0, 64, 127
1, 46800, Tempo, 510638
1, 46800, Note_on_c, 0, 61, 0
1, 46800, Note_on_c, 0, 85, 0
1, 46800, Note_on_c, 0, 86, 61
1, 46800, Note_on_c, 0, 62, 50
1, 47040, Tempo, 485830
1, 47040, Note_on_c, 0, 62, 0
1, 47040, Note_on_c, 0, 86, 0
1, 47040, Note_on_c, 0, 88, 63
1, 47040, Note_on_c, 0, 64, 51
1, 47280, Tempo, 495868
1, 47280, Note_on_c, 0, 64, 0
1, 47280, Note_on_c, 0, 88, 0
1, 47280, Note_on_c, 0, 89, 64
1, 47280, Note_on_c, 0, 65, 52
1, 47520, Tempo, 481928
1, 47520, Note_on_c, 0, 65, 0
1, 47520, Note_on_c, 0, 89, 0
1, 47520, Note_on_c, 0, 91, 71
1, 47520, Note_on_c, 0, 67, 53
1, 47523, Control_c, 0, 64, 0
1, 47630, Control_c, 0, 64, 127
1, 47760, Tempo, 489796
1, 47760, Note_on_c, 0, 67, 0
1, 47760, Note_on_c, 0, 91, 0
1, 47760, Note_on_c, 0, 93, 75
1, 47760, Note_on_c, 0, 69, 57
1, 47880, Tempo, 466926
1, 47880, Note_on_c, 0, 69, 0
1, 47880, Note_on_c, 0, 93, 0
1, 47880, Note_on_c, 0, 94, 73
1, 47880, Note_on_c, 0, 70, 56
1, 47940, Note_on_c, 0, 70, 0
1, 47940, Note_on_c, 0, 94, 0
1, 47940, Note_on_c, 0, 96, 71
1, 47940, Note_on_c, 0, 72, 52
1, 48000, Tempo, 476190
1, 48000, Note_on_c, 0, 72, 0
1, 48000, Note_on_c, 0, 96, 0
1, 48000, Note_on_c, 0, 94, 79
1, 48000, Note_on_c, 0, 70, 63
1, 48007, Control_c, 0, 64, 0
1, 48275, Control_c, 0, 64, 127
1, 48480, Tempo, 497925
1, 48480, Note_on_c, 0, 70, 0
1, 48480, Note_on_c, 0, 94, 0
1, 48480, Note_on_c, 0, 93, 76
1, 48480, Note_on_c, 0, 69, 58
1, 48720, Tempo, 510638
1, 48720, Note_on_c, 0, 69, 0
1, 48720, Note_on_c, 0, 93, 0
1, 48720, Note_on_c, 0, 91, 74
1, 48720, Note_on_c, 0, 67, 56
1, 48960, Tempo, 497925
1, 48960, Note_on_c, 0, 67, 0
1, 48960, Note_on_c, 0, 91, 0
1, 48960, Note_on_c, 0, 93, 78
1, 48960, Note_on_c, 0, 69, 58
1, 48970, Control_c, 0, 64, 0
1, 49080, Control_c, 0, 64, 127
1, 49200, Tempo, 495868
1, 49440, Tempo, 483871
1, 49440, Note_on_c, 0, 69, 0
1, 49440, Note_on_c, 0, 93, 0
1, 49440, Note_on_c, 0, 93, 79
1, 49440, Note_on_c, 0, 69, 60
1, 49462, Control_c, 0, 64, 0
1, 49571, Control_c, 0, 64, 127
1, 49680, Tempo, 500000
1, 49680, Note_on_c, 0, 69, 0
1, 49680, Note_on_c, 0, 93, 0
1, 49680, Note_on_c, 0, 91, 76
1, 49680, Note_on_c, 0, 67, 58
1, 49920, Tempo, 510638
1, 49920, Note_on_c, 0, 67, 0
1, 49920, Note_on_c, 0, 91, 0
1, 49920, Note_on_c, 0, 94, 83
1, 49920, Note_on_c, 0, 70, 62
1, 49934, Control_c, 0, 64, 0
1, 50033, Control_c, 0, 64, 127
1, 50160, Tempo, 530973
1, 50160, Note_on_c, 0, 70, 0
1, 50160, Note_on_c, 0, 94, 0
1, 50160, Note_on_c, 0, 93, 78
1, 50160, Note_on_c, 0, 69, 58
1, 50280, Tempo, 504202
1, 50280, Note_on_c, 0, 69, 0
1, 50280, Note_on_c, 0, 93, 0
1, 50280, Note_on_c, 0, 89, 64
1, 50280, Note_on_c, 0, 65, 45
1, 50340, Note_on_c, 0, 65, 0
1, 50340, Note_on_c, 0, 89, 0
1, 50340, Note_on_c, 0, 91, 56
1, 50340, Note_on_c, 0, 67, 38
1, 50400, Tempo, 506329
1, 50400, Note_on_c, 0, 67, 0
1, 50400, Note_on_c, 0, 91, 0
1, 50400, Note_on_c, 0, 89, 72
1, 50400, Note_on_c, 0, 65, 49
1, 50410, Control_c, 0, 64, 0
1, 50549, Control_c, 0, 64, 127
1, 50640, Note_on_c, 0, 65, 0
1, 50640, Note_on_c, 0, 89, 0
1, 50640, Note_on_c, 0, 87, 64
1, 50640, Note_on_c, 0, 63, 49
1, 50880, Tempo, 521739
1, 50880, Note_on_c, 0, 63, 0
1, 50880, Note_on_c, 0, 87, 0
1, 50880, Note_on_c, 0, 86, 69
1, 50880, Note_on_c, 0, 62, 55
1, 50896, Control_c, 0, 64, 0
1, 51029, Control_c, 0, 64, 127
1, 51120, Tempo, 571429
1, 51120, Note_on_c, 0, 62, 0
1, 51120, Note_on_c, 0, 86, 0
1, 51120, Note_on_c, 0, 88, 61
1, 51120, Note_on_c, 0, 64, 43
1, 51360, Tempo, 588235
1, 51360, Note_on_c, 0, 64, 0
1, 51360, Note_on_c, 0, 88, 0
1, 51360, Note_on_c, 0, 84, 62
1, 51360, Note_on_c, 0, 60, 46
1, 51367, Control_c, 0, 64, 0
1, 51497, Control_c, 0, 64, 127
1, 51600, Note_on_c, 0, 60, 0
1, 51600, Note_on_c, 0, 84, 0
1, 51600, Note_on_c, 0, 82, 51
1, 51600, Note_on_c, 0, 58, 51
1, 51840, Tempo, 648649
1, 51840, Note_on_c, 0, 58, 0
1, 51840, Note_on_c, 0, 82, 0
1, 51840, Note_on_c, 0, 45, 61
1, 51854, Control_c, 0, 64, 0
1, 51943, Control_c, 0, 64, 127
1, 52000, Tempo, 459770
1, 52000, Note_on_c, 0, 61, 29
1, 52000, Note_on_c, 0, 70, 51
1, 52160, Note_on_c, 0, 70, 0
1, 52160, Note_on_c, 0, 69, 46
1, 52320, Tempo, 510638
1, 52320, Note_on_c, 0, 69, 0
1, 52320, Note_on_c, 0, 61, 0
1, 52320, Note_on_c, 0, 45, 0
1, 52320, Note_on_c, 0, 52, 55
1, 52480, Tempo, 452830
1, 52480, Note_on_c, 0, 70, 52
1, 52480, Note_on_c, 0, 61, 29
1, 52560, Tempo, 451128
1, 52640, Tempo, 449438
1, 52640, Note_on_c, 0, 70, 0
1, 52640, Note_on_c, 0, 69, 45
1, 52720, Tempo, 447761
1, 52800, Tempo, 446097
1, 52800, Note_on_c, 0, 69, 0
1, 52800, Note_on_c, 0, 61, 0
1, 52800, Note_on_c, 0, 52, 0
1, 52800, Note_on_c, 0, 57, 55
1, 52860, Tempo, 444444
1, 52940, Tempo, 442804
1, 52960, Note_on_c, 0, 61, 29
1, 52960, Note_on_c, 0, 70, 51
1, 53020, Tempo, 441176
1, 53100, Tempo, 439560
1, 53120, Note_on_c, 0, 70, 0
1, 53120, Note_on_c, 0, 69, 45
1, 53180, Tempo, 437956
1, 53240, Tempo, 436364
1, 53280, Tempo, 451128
1, 53280, Note_on_c, 0, 69, 0
1, 53280, Note_on_c, 0, 61, 0
1, 53280, Note_on_c, 0, 57, 0
1, 53280, Note_on_c, 0, 45, 62
1, 53301, Control_c, 0, 64, 0
1, 53368, Control_c, 0, 64, 127
1, 53440, Tempo, 428571
1, 53440, Note_on_c, 0, 69, 48
1, 53440, Note_on_c, 0, 62, 27
1, 53600, Note_on_c, 0, 69, 0
1, 53600, Note_on_c, 0, 67, 41
1, 53760, Tempo, 422535
1, 53760, Note_on_c, 0, 67, 0
1, 53760, Note_on_c, 0, 62, 0
1, 53760, Note_on_c, 0, 45, 0
1, 53760, Note_on_c, 0, 52, 55
1, 53920, Note_on_c, 0, 69, 48
1, 53920, Note_on_c, 0, 62, 27
1, 54080, Note_on_c, 0, 69, 0
1, 54080, Note_on_c, 0, 67, 40
1, 54240, Tempo, 406780
1, 54240, Note_on_c, 0, 67, 0
1, 54240, Note_on_c, 0, 62, 0
1, 54240, Note_on_c, 0, 52, 0
1, 54240, Note_on_c, 0, 58, 55
1, 54400, Note_on_c, 0, 69, 47
1, 54400, Note_on_c, 0, 62, 27
1, 54520, Tempo, 465116
1, 54560, Tempo, 466926
1, 54560, Note_on_c, 0, 69, 0
1, 54560, Note_on_c, 0, 67, 40
1, 54600, Tempo, 468750
1, 54640, Tempo, 470588
1, 54680, Tempo, 472441
1, 54720, Tempo, 601564
1, 54720, Note_on_c, 0, 67, 0
1, 54720, Note_on_c, 0, 62, 0
1, 54720, Note_on_c, 0, 58, 0
1, 54720, Note_on_c, 0, 45, 62
1, 54743, Control_c, 0, 64, 0
1, 54803, Control_c, 0, 64, 127
1, 54880, Tempo, 466926
1, 54880, Note_on_c, 0, 61, 29
1, 54880, Note_on_c, 0, 70, 51
1, 55040, Note_on_c, 0, 70, 0
1, 55040, Note_on_c, 0, 69, 46
1, 55200, Tempo, 452830
1, 55200, Note_on_c, 0, 69, 0
1, 55200, Note_on_c, 0, 61, 0
1, 55200, Note_on_c, 0, 45, 0
1, 55200, Note_on_c, 0, 52, 52
1, 55300, Tempo, 451128
1, 55360, Note_on_c, 0, 70, 52
1, 55360, Note_on_c, 0, 61, 29
1, 55380, Tempo, 449438
1, 55460, Tempo, 447761
1, 55520, Note_on_c, 0, 70, 0
1, 55520, Note_on_c, 0, 69, 45
1, 55560, Tempo, 446097
1, 55640, Tempo, 444444
1, 55680, Note_on_c, 0, 69, 0
1, 55680, Note_on_c, 0, 61, 0
1, 55680, Note_on_c, 0, 52, 0
1, 55680, Note_on_c, 0, 57, 52
1, 55720, Tempo, 442804
1, 55800, Tempo, 441176
1, 55840, Note_on_c, 0, 70, 51
1, 55840, Note_on_c, 0, 61, 29
1, 55900, Tempo, 439560
1, 55980, Tempo, 437956
1, 56000, Note_on_c, 0, 70, 0
1, 56000, Note_on_c, 0, 69, 45
1, 56060, Tempo, 436364
1, 56140, Tempo, 434783
1, 56160, Tempo, 483871
1, 56160, Note_on_c, 0, 69, 0
1, 56160, Note_on_c, 0, 61, 0
1, 56160, Note_on_c, 0, 57, 0
1, 56160, Note_on_c, 0, 45, 63
1, 56180, Control_c, 0, 64, 0
1, 56234, Control_c, 0, 64, 127
1, 56300, Tempo, 437956
1, 56320, Tempo, 434783
1, 56320, Note_on_c, 0, 70, 48
1, 56320, Note_on_c, 0, 62, 27
1, 56480, Tempo, 433213
1, 56480, Note_on_c, 0, 70, 0
1, 56480, Note_on_c, 0, 69, 41
1, 56640, Tempo, 431655
1, 56640, Note_on_c, 0, 69, 0
1, 56640, Note_on_c, 0, 62, 0
1, 56640, Note_on_c, 0, 45, 0
1, 56640, Note_on_c, 0, 52, 55
1, 56680, Tempo, 433213
1, 56720, Tempo, 434783
1, 56760, Tempo, 436364
1, 56800, Tempo, 437956
1, 56800, Note_on_c, 0, 62, 27
1, 56800, Note_on_c, 0, 69, 48
1, 56840, Tempo, 439560
1, 56860, Tempo, 441176
1, 56900, Tempo, 442804
1, 56940, Tempo, 444444
1, 56960, Note_on_c, 0, 69, 0
1, 56960, Note_on_c, 0, 67, 40
1, 56980, Tempo, 446097
1, 57020, Tempo, 447761
1, 57040, Tempo, 449438
1, 57080, Tempo, 451128
1, 57120, Tempo, 452830
1, 57120, Note_on_c, 0, 67, 0
1, 57120, Note_on_c, 0, 62, 0
1, 57120, Note_on_c, 0, 52, 0
1, 57120, Note_on_c, 0, 58, 54
1, 57160, Tempo, 454545
1, 57200, Tempo, 456274
1, 57220, Tempo, 458015
1, 57260, Tempo, 459770
1, 57280, Note_on_c, 0, 67, 47
1, 57280, Note_on_c, 0, 62, 27
1, 57300, Tempo, 461538
1, 57340, Tempo, 463320
1, 57380, Tempo, 465116
1, 57400, Tempo, 466926
1, 57440, Tempo, 468750
1, 57440, Note_on_c, 0, 67, 0
1, 57440, Note_on_c, 0, 64, 40
1, 57480, Tempo, 470588
1, 57520, Tempo, 472441
1, 57560, Tempo, 474308
1, 57580, Tempo, 476190
1, 57600, Tempo, 595888
1, 57600, Note_on_c, 0, 64, 0
1, 57600, Note_on_c, 0, 62, 0
1, 57600, Note_on_c, 0, 58, 0
1, 57600, Note_on_c, 0, 45, 67
1, 57623, Control_c, 0, 64, 0
1, 57660, Control_c, 0, 64, 127
1, 57760, Tempo, 459770
1, 57760, Note_on_c, 0, 61, 30
1, 57760, Note_on_c, 0, 70, 53
1, 57920, Note_on_c, 0, 70, 0
1, 57920, Note_on_c, 0, 69, 48
1, 58080, Tempo, 444444
1, 58080, Note_on_c, 0, 69, 0
1, 58080, Note_on_c, 0, 61, 0
1, 58080, Note_on_c, 0, 45, 0
1, 58080, Note_on_c, 0, 52, 57
1, 58240, Note_on_c, 0, 70, 55
1, 58240, Note_on_c, 0, 61, 31
1, 58400, Note_on_c, 0, 70, 0
1, 58400, Note_on_c, 0, 69, 48
1, 58560, Tempo, 449438
1, 58560, Note_on_c, 0, 69, 0
1, 58560, Note_on_c, 0, 61, 0
1, 58560, Note_on_c, 0, 52, 0
1, 58560, Note_on_c, 0, 57, 58
1, 58720, Note_on_c, 0, 61, 31
1, 58720, Note_on_c, 0, 70, 56
1, 58880, Note_on_c, 0, 70, 0
1, 58880, Note_on_c, 0, 69, 49
1, 59040, Tempo, 517241
1, 59040, Note_on_c, 0, 69, 0
1, 59040, Note_on_c, 0, 61, 0
1, 59040, Note_on_c, 0, 57, 0
1, 59040, Note_on_c, 0, 41, 65
1, 59061, Control_c, 0, 64, 0
1, 59100, Control_c, 0, 64, 127
1, 59200, Tempo, 461538
1, 59200, Note_on_c, 0, 67, 53
1, 59200, Note_on_c, 0, 57, 30
1, 59360, Note_on_c, 0, 67, 0
1, 59360, Note_on_c, 0, 65, 46
1, 59520, Tempo, 449438
1, 59520, Note_on_c, 0, 65, 0
1, 59520, Note_on_c, 0, 57, 0
1, 59520, Note_on_c, 0, 41, 0
1, 59520, Note_on_c, 0, 48, 51
1, 59680, Note_on_c, 0, 67, 54
1, 59680, Note_on_c, 0, 57, 30
1, 59840, Note_on_c, 0, 67, 0
1, 59840, Note_on_c, 0, 65, 46
1, 60000, Tempo, 476190
1, 60000, Note_on_c, 0, 65, 0
1, 60000, Note_on_c, 0, 57, 0
1, 60000, Note_on_c, 0, 48, 0
1, 60000, Note_on_c, 0, 57, 69
1, 60150, Note_on_c, 0, 57, 0
1, 60160, Note_on_c, 0, 67, 54
1, 60160, Note_on_c, 0, 57, 31
1, 60240, Tempo, 487805
1, 60320, Note_on_c, 0, 67, 0
1, 60320, Note_on_c, 0, 65, 46
1, 60480, Tempo, 542986
1, 60480, Note_on_c, 0, 65, 0
1, 60480, Note_on_c, 0, 57, 0
1, 60480, Note_on_c, 0, 48, 74
1, 60501, Control_c, 0, 64, 0
1, 60558, Control_c, 0, 64, 127
1, 60640, Tempo, 468750
1, 60640, Note_on_c, 0, 60, 32
1, 60640, Note_on_c, 0, 65, 57
1, 60800, Note_on_c, 0, 65, 0
1, 60800, Note_on_c, 0, 64, 48
1, 60960, Tempo, 478088
1, 60960, Note_on_c, 0, 64, 0
1, 60960, Note_on_c, 0, 60, 0
1, 60960, Note_on_c, 0, 48, 0
1, 60960, Note_on_c, 0, 55, 73
1, 61120, Note_on_c, 0, 60, 32
1, 61120, Note_on_c, 0, 65, 58
1, 61280, Note_on_c, 0, 65, 0
1, 61280, Note_on_c, 0, 64, 48
1, 61440, Tempo, 508475
1, 61440, Note_on_c, 0, 64, 0
1, 61440, Note_on_c, 0, 60, 0
1, 61440, Note_on_c, 0, 55, 0
1, 61440, Note_on_c, 0, 60, 69
1, 61590, Note_on_c, 0, 60, 0
1, 61600, Note_on_c, 0, 60, 33
1, 61600, Note_on_c, 0, 65, 57
1, 61760, Note_on_c, 0, 65, 0
1, 61760, Note_on_c, 0, 64, 49
1, 61920, Tempo, 510638
1, 61920, Note_on_c, 0, 64, 0
1, 61920, Note_on_c, 0, 60, 0
1, 61920, Note_on_c, 0, 55, 66
1, 61938, Control_c, 0, 64, 0
1, 61960, Tempo, 508475
1, 62000, Tempo, 510638
1, 62001, Control_c, 0, 64, 127
1, 62040, Tempo, 512821
1, 62040, Note_on_c, 0, 55, 0
1, 62060, Tempo, 515021
1, 62080, Note_on_c, 0, 64, 54
1, 62080, Note_on_c, 0, 58, 30
1, 62100, Tempo, 517241
1, 62120, Tempo, 519481
1, 62160, Tempo, 521739
1, 62200, Tempo, 524017
1, 62220, Tempo, 526316
1, 62240, Note_on_c, 0, 64, 0
1, 62240, Note_on_c, 0, 62, 45
1, 62260, Tempo, 528634
1, 62280, Tempo, 530973
1, 62320, Tempo, 533333
1, 62360, Tempo, 535714
1, 62380, Tempo, 538117
1, 62400, Note_on_c, 0, 62, 0
1, 62400, Note_on_c, 0, 58, 0
1, 62400, Note_on_c, 0, 57, 59
1, 62420, Tempo, 540541
1, 62440, Tempo, 542986
1, 62480, Tempo, 545455
1, 62500, Tempo, 547945
1, 62520, Note_on_c, 0, 57, 0
1, 62540, Tempo, 550459
1, 62560, Note_on_c, 0, 58, 29
1, 62560, Note_on_c, 0, 64, 52
1, 62580, Tempo, 552995
1, 62600, Tempo, 555556
1, 62640, Tempo, 558140
1, 62660, Tempo, 560748
1, 62700, Tempo, 563380
1, 62720, Note_on_c, 0, 64, 0
1, 62720, Note_on_c, 0, 62, 42
1, 62740, Tempo, 566038
1, 62760, Tempo, 568720
1, 62800, Tempo, 571429
1, 62820, Tempo, 574163
1, 62820, Note_on_c, 0, 60, 55
1, 62860, Tempo, 576923
1, 62880, Tempo, 579710
1, 62880, Note_on_c, 0, 60, 0
1, 62880, Note_on_c, 0, 62, 0
1, 62880, Note_on_c, 0, 58, 0
1, 62880, Note_on_c, 0, 58, 53
1, 63000, Note_on_c, 0, 58, 0
1, 63040, Note_on_c, 0, 58, 28
1, 63040, Note_on_c, 0, 64, 48
1, 63200, Tempo, 689655
1, 63200, Note_on_c, 0, 64, 0
1, 63200, Note_on_c, 0, 62, 40
1, 63360, Tempo, 566038
1, 63360, Note_on_c, 0, 62, 0
1, 63360, Note_on_c, 0, 58, 0
1, 63360, Note_on_c, 0, 45, 65
1, 63365, Control_c, 0, 64, 0
1, 63543, Control_c, 0, 64, 127
1, 63840, Tempo, 550459
1, 63840, Note_on_c, 0, 45, 0
1, 63840, Note_on_c, 0, 52, 63
1, 64320, Note_on_c, 0, 52, 0
1, 64320, Note_on_c, 0, 64, 51
1, 64320, Note_on_c, 0, 61, 51
1, 64320, Note_on_c, 0, 57, 57
1, 64780, Tempo, 621247
1, 64800, Tempo, 540541
1, 64800, Note_on_c, 0, 57, 0
1, 64800, Note_on_c, 0, 61, 0
1, 64800, Note_on_c, 0, 64, 0
1, 64800, Note_on_c, 0, 50, 47
1, 64815, Control_c, 0, 64, 0
1, 64871, Control_c, 0, 64, 127
1, 64960, Tempo, 538117
1, 64960, Note_on_c, 0, 50, 0
1, 64960, Note_on_c, 0, 52, 49
1, 65120, Tempo, 535714
1, 65120, Note_on_c, 0, 52, 0
1, 65120, Note_on_c, 0, 53, 51
1, 65280, Tempo, 533333
1, 65280, Note_on_c, 0, 53, 0
1, 65280, Note_on_c, 0, 58, 51
1, 65280, Note_on_c, 0, 64, 51
1, 65280, Note_on_c, 0, 62, 51
1, 65280, Note_on_c, 0, 55, 53
1, 65291, Control_c, 0, 64, 0
1, 65372, Control_c, 0, 64, 127
1, 65440, Tempo, 530973
1, 65440, Note_on_c, 0, 55, 0
1, 65440, Note_on_c, 0, 57, 55
1, 65520, Note_on_c, 0, 58, 0
1, 65520, Note_on_c, 0, 62, 0
1, 65520, Note_on_c, 0, 64, 0
1, 65600, Tempo, 528634
1, 65600, Note_on_c, 0, 57, 0
1, 65600, Note_on_c, 0, 58, 58
1, 65720, Tempo, 526316
1, 65760, Tempo, 526316
1, 65760, Note_on_c, 0, 58, 0
1, 65760, Note_on_c, 0, 60, 60
1, 65775, Control_c, 0, 64, 0
1, 65800, Tempo, 528634
1, 65840, Tempo, 533333
1, 65852, Control_c, 0, 64, 127
1, 65880, Tempo, 535714
1, 65920, Tempo, 540541
1, 65920, Note_on_c, 0, 60, 0
1, 65920, Note_on_c, 0, 58, 57
1, 65960, Tempo, 542986
1, 66000, Tempo, 547945
1, 66040, Tempo, 550459
1, 66080, Tempo, 555556
1, 66080, Note_on_c, 0, 58, 0
1, 66080, Note_on_c, 0, 57, 55
1, 66120, Tempo, 558140
1, 66160, Tempo, 563380
1, 66200, Tempo, 566038
1, 66240, Tempo, 571429
1, 66240, Note_on_c, 0, 57, 0
1, 66240, Note_on_c, 0, 45, 65
1, 66249, Control_c, 0, 64, 0
1, 66537, Control_c, 0, 64, 127
1, 66720, Tempo, 560748
1, 66720, Note_on_c, 0, 45, 0
1, 66720, Note_on_c, 0, 52, 63
1, 67200, Tempo, 600000
1, 67200, Note_on_c, 0, 52, 0
1, 67200, Note_on_c, 0, 61, 51
1, 67200, Note_on_c, 0, 64, 51
1, 67200, Note_on_c, 0, 57, 57
1, 67440, Tempo, 638570
1, 67680, Tempo, 600000
1, 67680, Note_on_c, 0, 57, 0
1, 67680, Note_on_c, 0, 64, 0
1, 67680, Note_on_c, 0, 61, 0
1, 67680, Note_on_c, 0, 50, 42
1, 67693, Control_c, 0, 64, 0
1, 67751, Control_c, 0, 64, 127
1, 67760, Tempo, 597015
1, 67840, Tempo, 594059
1, 67840, Note_on_c, 0, 50, 0
1, 67840, Note_on_c, 0, 52, 44
1, 67880, Tempo, 591133
1, 67960, Tempo, 588235
1, 68000, Tempo, 585366
1, 68000, Note_on_c, 0, 52, 0
1, 68000, Note_on_c, 0, 53, 45
1, 68080, Tempo, 582524
1, 68120, Tempo, 579710
1, 68160, Tempo, 576923
1, 68160, Note_on_c, 0, 53, 0
1, 68160, Note_on_c, 0, 58, 45
1, 68160, Note_on_c, 0, 64, 45
1, 68160, Note_on_c, 0, 62, 45
1, 68160, Note_on_c, 0, 55, 47
1, 68172, Control_c, 0, 64, 0
1, 68200, Tempo, 579710
1, 68240, Tempo, 585366
1, 68245, Control_c, 0, 64, 127
1, 68280, Tempo, 591133
1, 68320, Tempo, 594059
1, 68320, Note_on_c, 0, 55, 0
1, 68320, Note_on_c, 0, 57, 49
1, 68360, Tempo, 600000
1, 68400, Tempo, 606061
1, 68400, Note_on_c, 0, 58, 0
1, 68400, Note_on_c, 0, 62, 0
1, 68400, Note_on_c, 0, 64, 0
1, 68440, Tempo, 609137
1, 68480, Tempo, 615385
1, 68480, Note_on_c, 0, 57, 0
1, 68480, Note_on_c, 0, 58, 49
1, 68520, Tempo, 621762
1, 68560, Tempo, 625000
1, 68600, Tempo, 631579
1, 68640, Tempo, 638298
1, 68640, Note_on_c, 0, 58, 0
1, 68640, Note_on_c, 0, 60, 52
1, 68651, Control_c, 0, 64, 0
1, 68680, Tempo, 641711
1, 68720, Tempo, 648649
1, 68732, Control_c, 0, 64, 127
1, 68760, Tempo, 655738
1, 68800, Tempo, 659341
1, 68800, Note_on_c, 0, 60, 0
1, 68800, Note_on_c, 0, 58, 49
1, 68840, Tempo, 666667
1, 68880, Tempo, 674157
1, 68920, Tempo, 680426
1, 68960, Tempo, 680426
1, 68960, Note_on_c, 0, 58, 0
1, 68960, Note_on_c, 0, 57, 44
1, 69000, Tempo, 714371
1, 69040, Tempo, 757002
1, 69080, Tempo, 799361
1, 69120, Tempo, 853000
1, 69120, Note_on_c, 0, 57, 0
1, 69120, Note_on_c, 0, 70, 49
1, 69120, Note_on_c, 0, 76, 49
1, 69120, Note_on_c, 0, 56, 41
1, 69120, Note_on_c, 0, 62, 41
1, 69132, Control_c, 0, 64, 0
1, 69547, Control_c, 0, 64, 127
1, 70560, Tempo, 585366
1, 70560, Note_on_c, 0, 62, 0
1, 70560, Note_on_c, 0, 70, 0
1, 70560, Note_on_c, 0, 76, 0
1, 70560, Note_on_c, 0, 56, 0
1, 70560, Note_on_c, 0, 82, 55
1, 70560, Note_on_c, 0, 58, 46
1, 70572, Control_c, 0, 64, 0
1, 71307, Control_c, 0, 64, 127
1, 72000, Tempo, 545455
1, 72240, Tempo, 563380
1, 72240, Note_on_c, 0, 58, 0
1, 72240, Note_on_c, 0, 82, 0
1, 72240, Note_on_c, 0, 84, 51
1, 72240, Note_on_c, 0, 60, 43
1, 72480, Tempo, 540541
1, 72480, Note_on_c, 0, 60, 0
1, 72480, Note_on_c, 0, 84, 0
1, 72480, Note_on_c, 0, 86, 55
1, 72480, Note_on_c, 0, 62, 46
1, 72720, Tempo, 558140
1, 72720, Note_on_c, 0, 62, 0
1, 72720, Note_on_c, 0, 86, 0
1, 72720, Note_on_c, 0, 89, 47
1, 72720, Note_on_c, 0, 65, 39
1, 72960, Tempo, 530973
1, 72960, Note_on_c, 0, 65, 0
1, 72960, Note_on_c, 0, 89, 0
1, 72960, Note_on_c, 0, 86, 56
1, 72960, Note_on_c, 0, 62, 47
1, 73200, Tempo, 524017
1, 73200, Note_on_c, 0, 62, 0
1, 73200, Note_on_c, 0, 86, 0
1, 73200, Note_on_c, 0, 84, 53
1, 73200, Note_on_c, 0, 60, 45
1, 73210, Control_c, 0, 64, 0
1, 73320, Note_on_c, 0, 60, 0
1, 73320, Note_on_c, 0, 84, 0
1, 73320, Note_on_c, 0, 84, 41
1, 73320, Note_on_c, 0, 60, 40
1, 73380, Note_on_c, 0, 60, 0
1, 73380, Note_on_c, 0, 84, 0
1, 73380, Note_on_c, 0, 86, 42
1, 73380, Note_on_c, 0, 62, 39
1, 73440, Tempo, 526316
1, 73440, Note_on_c, 0, 62, 0
1, 73440, Note_on_c, 0, 86, 0
1, 73440, Note_on_c, 0, 84, 45
1, 73440, Note_on_c, 0, 60, 40
1, 73680, Tempo, 538117
1, 73680, Note_on_c, 0, 60, 0
1, 73680, Note_on_c, 0, 84, 0
1, 73680, Note_on_c, 0, 82, 48
1, 73680, Note_on_c, 0, 58, 39
1, 73722, Control_c, 0, 64, 127
1, 73920, Note_on_c, 0, 58, 0
1, 73920, Note_on_c, 0, 82, 0
1, 73920, Note_on_c, 0, 77, 48
1, 73920, Note_on_c, 0, 53, 40
1, 74160, Tempo, 649421
1, 74160, Note_on_c, 0, 53, 0
1, 74160, Note_on_c, 0, 77, 0
1, 74160, Note_on_c, 0, 82, 43
1, 74160, Note_on_c, 0, 58, 36
1, 74400, Note_on_c, 0, 58, 0
1, 74400, Note_on_c, 0, 82, 0
1, 74400, Note_on_c, 0, 81, 47
1, 74400, Note_on_c, 0, 57, 39
1, 74416, Control_c, 0, 64, 0
1, 74654, Control_c, 0, 64, 127
1, 74880, Tempo, 634921
1, 75360, Tempo, 631579
1, 75360, Note_on_c, 0, 57, 0
1, 75360, Note_on_c, 0, 81, 0
1, 75360, Note_on_c, 0, 80, 47
1, 75360, Note_on_c, 0, 56, 39
1, 75376, Control_c, 0, 64, 0
1, 75486, Control_c, 0, 64, 127
1, 75600, Note_on_c, 0, 56, 0
1, 75600, Note_on_c, 0, 80, 0
1, 75600, Note_on_c, 0, 77, 43
1, 75600, Note_on_c, 0, 53, 36
1, 75840, Tempo, 648649
1, 75840, Note_on_c, 0, 53, 0
1, 75840, Note_on_c, 0, 77, 0
1, 75840, Note_on_c, 0, 76, 45
1, 75840, Note_on_c, 0, 52, 38
1, 76080, Note_on_c, 0, 52, 0
1, 76080, Note_on_c, 0, 76, 0
1, 76080, Note_on_c, 0, 74, 42
1, 76080, Note_on_c, 0, 50, 35
1, 76320, Tempo, 634921
1, 76320, Note_on_c, 0, 50, 0
1, 76320, Note_on_c, 0, 74, 0
1, 76320, Note_on_c, 0, 45, 34
1, 76329, Control_c, 0, 64, 0
1, 76537, Control_c, 0, 64, 127
1, 76560, Tempo, 615953
1, 76560, Note_on_c, 0, 45, 0
1, 76560, Note_on_c, 0, 57, 40
1, 76560, Note_on_c, 0, 52, 32
1, 76798, Note_on_c, 0, 57, 0
1, 76800, Tempo, 595533
1, 76800, Note_on_c, 0, 52, 0
1, 76800, Note_on_c, 0, 61, 41
1, 76800, Note_on_c, 0, 57, 32
1, 77040, Tempo, 571429
1, 77040, Note_on_c, 0, 57, 0
1, 77040, Note_on_c, 0, 61, 0
1, 77040, Note_on_c, 0, 64, 44
1, 77040, Note_on_c, 0, 61, 33
1, 77280, Tempo, 563380
1, 77280, Note_on_c, 0, 61, 0
1, 77280, Note_on_c, 0, 64, 0
1, 77280, Note_on_c, 0, 69, 46
1, 77280, Note_on_c, 0, 64, 34
1, 77520, Tempo, 588235
1, 77520, Note_on_c, 0, 64, 0
1, 77520, Note_on_c, 0, 69, 0
1, 77520, Note_on_c, 0, 73, 47
1, 77520, Note_on_c, 0, 69, 35
1, 77760, Tempo, 573778
1, 77760, Note_on_c, 0, 69, 0
1, 77760, Note_on_c, 0, 73, 0
1, 77760, Note_on_c, 0, 76, 50
1, 77760, Note_on_c, 0, 73, 39
1, 78000, Tempo, 592768
1, 78000, Note_on_c, 0, 73, 0
1, 78000, Note_on_c, 0, 76, 0
1, 78000, Note_on_c, 0, 69, 40
1, 78000, Note_on_c, 0, 61, 32
1, 78240, Tempo, 579095
1, 78240, Note_on_c, 0, 61, 0
1, 78240, Note_on_c, 0, 69, 0
1, 78240, Note_on_c, 0, 73, 41
1, 78240, Note_on_c, 0, 64, 32
1, 78480, Tempo, 571429
1, 78480, Note_on_c, 0, 64, 0
1, 78480, Note_on_c, 0, 73, 0
1, 78480, Note_on_c, 0, 76, 44
1, 78480, Note_on_c, 0, 69, 33
1, 78720, Tempo, 566038
1, 78720, Note_on_c, 0, 69, 0
1, 78720, Note_on_c, 0, 76, 0
1, 78720, Note_on_c, 0, 81, 46
1, 78720, Note_on_c, 0, 73, 34
1, 78960, Tempo, 585366
1, 78960, Note_on_c, 0, 73, 0
1, 78960, Note_on_c, 0, 81, 0
1, 78960, Note_on_c, 0, 85, 47
1, 78960, Note_on_c, 0, 76, 35
1, 79200, Tempo, 598384
1, 79200, Note_on_c, 0, 76, 0
1, 79200, Note_on_c, 0, 85, 0
1, 79200, Note_on_c, 0, 88, 51
1, 79200, Note_on_c, 0, 81, 39
1, 79440, Tempo, 634652
1, 79440, Note_on_c, 0, 81, 0
1, 79440, Note_on_c, 0, 88, 0
1, 79440, Note_on_c, 0, 69, 40
1, 79440, Note_on_c, 0, 61, 32
1, 79680, Tempo, 619067
1, 79680, Note_on_c, 0, 61, 0
1, 79680, Note_on_c, 0, 69, 0
1, 79680, Note_on_c, 0, 73, 41
1, 79680, Note_on_c, 0, 64, 32
1, 79920, Tempo, 651112
1, 79920, Note_on_c, 0, 64, 0
1, 79920, Note_on_c, 0, 73, 0
1, 79920, Note_on_c, 0, 76, 44
1, 79920, Note_on_c, 0, 69, 33
1, 80160, Tempo, 641163
1, 80160, Note_on_c, 0, 69, 0
1, 80160, Note_on_c, 0, 76, 0
1, 80160, Note_on_c, 0, 81, 46
1, 80160, Note_on_c, 0, 73, 34
1, 80400, Tempo, 683995
1, 80400, Note_on_c, 0, 73, 0
1, 80400, Note_on_c, 0, 81, 0
1, 80400, Note_on_c, 0, 85, 47
1, 80400, Note_on_c, 0, 76, 35
1, 80640, Tempo, 665041
1, 80640, Note_on_c, 0, 76, 0
1, 80640, Note_on_c, 0, 85, 0
1, 80640, Note_on_c, 0, 88, 49
1, 80640, Note_on_c, 0, 81, 39
1, 80880, Tempo, 683995
1, 80880, Note_on_c, 0, 81, 0
1, 80880, Note_on_c, 0, 88, 0
1, 80880, Note_on_c, 0, 81, 46
1, 80880, Note_on_c, 0, 73, 34
1, 80960, Tempo, 687837
1, 81040, Tempo, 691962
1, 81120, Tempo, 695894
1, 81120, Note_on_c, 0, 73, 0
1, 81120, Note_on_c, 0, 81, 0
1, 81120, Note_on_c, 0, 85, 44
1, 81120, Note_on_c, 0, 76, 34
1, 81200, Tempo, 700035
1, 81280, Tempo, 704143
1, 81360, Tempo, 708299
1, 81360, Note_on_c, 0, 76, 0
1, 81360, Note_on_c, 0, 85, 0
1, 81360, Note_on_c, 0, 88, 42
1, 81360, Note_on_c, 0, 81, 33
1, 81440, Tempo, 712589
1, 81520, Tempo, 716760
1, 81600, Tempo, 721154
1, 81600, Note_on_c, 0, 81, 0
1, 81600, Note_on_c, 0, 88, 0
1, 81600, Note_on_c, 0, 93, 40
1, 81600, Note_on_c, 0, 85, 32
1, 81680, Tempo, 725426
1, 81760, Tempo, 729838
1, 81840, Tempo, 734394
1, 81840, Note_on_c, 0, 85, 0
1, 81840, Note_on_c, 0, 93, 0
1, 81840, Note_on_c, 0, 97, 38
1, 81840, Note_on_c, 0, 88, 32
1, 81920, Tempo, 738916
1, 82000, Tempo, 743494
1, 82040, Tempo, 748223
1, 82080, Tempo, 645786
1, 82080, Note_on_c, 0, 88, 0
1, 82080, Note_on_c, 0, 97, 0
1, 82080, Note_on_c, 0, 100, 36
1, 82080, Note_on_c, 0, 93, 36
1, 82080, Note_on_c, 0, 105, 36
1, 82080, Note_on_c, 0, 85, 23
1, 82080, Note_on_c, 0, 69, 23
1, 82080, Note_on_c, 0, 76, 23
1, 83520, Note_on_c, 0, 76, 0
1, 83520, Note_on_c, 0, 93, 0
1, 83520, Note_on_c, 0, 105, 0
1, 83520, Note_on_c, 0, 100, 0
1, 83520, Note_on_c, 0, 69, 0
1, 83520, Note_on_c, 0, 85, 0
1, 84560, Control_c, 0, 64, 0
1, 84960, Tempo, 750000
1, 84960, End_track
0, 0, End_of_file
