0, 0, Header, 0, 1, 480
1, 0, Start_track
1, 0, Title_t, "Espana Op. 165"
1, 0, Title_t, "Capricho Catalan"
1, 0, Copyright_t, "Copyright © 2001 by Bernd Krueger"
1, 0, Text_t, "Isaac Albeniz"
1, 0, Text_t, "Allegretto"
1, 0, Text_t, "Fertiggestellt am 17.02.2001\012"
1, 0, Text_t, "Normierung: 23.12.2002\012"
1, 0, Text_t, "Update am 31.8.2010\012"
1, 0, Text_t, "Dauer: 2:03 Minuten\012"
1, 0, SMPTE_offset, 96, 0, 3, 0, 0
1, 0, Time_signature, 2, 2, 24, 8
1, 0, Key_signature, -3, "major"
1, 0, Tempo, 514933
1, 0, Program_c, 0, 0
1, 0, Control_c, 0, 7, 100
1, 0, Control_c, 0, 10, 64
1, 0, Text_t, "bdca426d104a26ac9dcb070447587523"
1, 0, Control_c, 0, 91, 127
1, 0, Program_c, 0, 0
1, 0, Control_c, 0, 7, 100
1, 0, Control_c, 0, 10, 64
1, 0, Control_c, 0, 64, 127
1, 0, Note_on_c, 0, 58, 38
1, 0, Note_on_c, 0, 51, 32
1, 240, Note_on_c, 0, 58, 0
1, 240, Note_on_c, 0, 58, 35
1, 720, Note_on_c, 0, 58, 0
1, 720, Note_on_c, 0, 58, 33
1, 960, Note_on_c, 0, 58, 0
1, 960, Note_on_c, 0, 51, 0
1, 960, Note_on_c, 0, 58, 37
1, 960, Note_on_c, 0, 51, 32
1, 1200, Note_on_c, 0, 58, 0
1, 1200, Note_on_c, 0, 58, 35
1, 1680, Note_on_c, 0, 58, 0
1, 1680, Note_on_c, 0, 58, 34
1, 1920, Note_on_c, 0, 58, 0
1, 1920, Note_on_c, 0, 51, 0
1, 1920, Note_on_c, 0, 75, 52
1, 1920, Note_on_c, 0, 79, 52
1, 1920, Note_on_c, 0, 58, 38
1, 1920, Note_on_c, 0, 51, 32
1, 1929, Control_c, 0, 64, 0
1, 2090, Control_c, 0, 64, 127
1, 2160, Note_on_c, 0, 58, 0
1, 2160, Note_on_c, 0, 58, 35
1, 2400, Tempo, 503778
1, 2640, Tempo, 524292
1, 2640, Note_on_c, 0, 58, 0
1, 2640, Note_on_c, 0, 75, 0
1, 2640, Note_on_c, 0, 79, 0
1, 2640, Note_on_c, 0, 77, 50
1, 2640, Note_on_c, 0, 74, 50
1, 2640, Note_on_c, 0, 58, 33
1, 2880, Tempo, 514977
1, 2880, Note_on_c, 0, 58, 0
1, 2880, Note_on_c, 0, 51, 0
1, 2880, Note_on_c, 0, 77, 0
1, 2880, Note_on_c, 0, 74, 0
1, 2880, Note_on_c, 0, 80, 52
1, 2880, Note_on_c, 0, 77, 52
1, 2880, Note_on_c, 0, 58, 37
1, 2880, Note_on_c, 0, 51, 32
1, 3120, Note_on_c, 0, 58, 0
1, 3120, Note_on_c, 0, 58, 35
1, 3360, Tempo, 499459
1, 3360, Note_on_c, 0, 80, 0
1, 3360, Note_on_c, 0, 77, 0
1, 3360, Note_on_c, 0, 77, 52
1, 3360, Note_on_c, 0, 74, 52
1, 3600, Note_on_c, 0, 74, 0
1, 3600, Note_on_c, 0, 77, 0
1, 3600, Note_on_c, 0, 58, 0
1, 3600, Note_on_c, 0, 75, 50
1, 3600, Note_on_c, 0, 79, 50
1, 3600, Note_on_c, 0, 58, 34
1, 3840, Tempo, 508216
1, 3840, Note_on_c, 0, 58, 0
1, 3840, Note_on_c, 0, 51, 0
1, 3840, Note_on_c, 0, 75, 0
1, 3840, Note_on_c, 0, 79, 0
1, 3840, Note_on_c, 0, 72, 52
1, 3840, Note_on_c, 0, 75, 52
1, 3840, Note_on_c, 0, 58, 38
1, 3840, Note_on_c, 0, 51, 32
1, 3856, Control_c, 0, 64, 0
1, 4010, Control_c, 0, 64, 127
1, 4080, Note_on_c, 0, 58, 0
1, 4080, Note_on_c, 0, 58, 35
1, 4320, Tempo, 519570
1, 4320, Note_on_c, 0, 72, 0
1, 4320, Note_on_c, 0, 75, 0
1, 4320, Note_on_c, 0, 72, 49
1, 4320, Note_on_c, 0, 68, 49
1, 4560, Note_on_c, 0, 58, 0
1, 4560, Note_on_c, 0, 58, 33
1, 4800, Note_on_c, 0, 58, 0
1, 4800, Note_on_c, 0, 68, 0
1, 4800, Note_on_c, 0, 72, 0
1, 4800, Note_on_c, 0, 51, 0
1, 4800, Note_on_c, 0, 67, 47
1, 4800, Note_on_c, 0, 70, 47
1, 4800, Note_on_c, 0, 58, 37
1, 4800, Note_on_c, 0, 51, 32
1, 4813, Control_c, 0, 64, 0
1, 4970, Control_c, 0, 64, 127
1, 5040, Note_on_c, 0, 58, 0
1, 5040, Note_on_c, 0, 58, 35
1, 5280, Tempo, 514977
1, 5520, Note_on_c, 0, 58, 0
1, 5520, Note_on_c, 0, 58, 34
1, 5760, Tempo, 499459
1, 5760, Note_on_c, 0, 58, 0
1, 5760, Note_on_c, 0, 67, 0
1, 5760, Note_on_c, 0, 70, 0
1, 5760, Note_on_c, 0, 51, 0
1, 5760, Note_on_c, 0, 72, 51
1, 5760, Note_on_c, 0, 68, 51
1, 5760, Note_on_c, 0, 65, 37
1, 5760, Note_on_c, 0, 51, 32
1, 5772, Control_c, 0, 64, 0
1, 5916, Control_c, 0, 64, 127
1, 6000, Note_on_c, 0, 58, 35
1, 6240, Tempo, 488878
1, 6240, Note_on_c, 0, 72, 0
1, 6240, Note_on_c, 0, 74, 56
1, 6480, Tempo, 499459
1, 6480, Note_on_c, 0, 74, 0
1, 6480, Note_on_c, 0, 58, 0
1, 6480, Note_on_c, 0, 77, 55
1, 6480, Note_on_c, 0, 58, 34
1, 6720, Tempo, 508216
1, 6720, Note_on_c, 0, 58, 0
1, 6720, Note_on_c, 0, 68, 0
1, 6720, Note_on_c, 0, 51, 0
1, 6720, Note_on_c, 0, 65, 0
1, 6720, Note_on_c, 0, 77, 0
1, 6720, Note_on_c, 0, 68, 55
1, 6720, Note_on_c, 0, 74, 55
1, 6720, Note_on_c, 0, 65, 37
1, 6720, Note_on_c, 0, 51, 32
1, 6730, Control_c, 0, 64, 0
1, 6904, Control_c, 0, 64, 127
1, 6960, Note_on_c, 0, 58, 35
1, 7200, Note_on_c, 0, 74, 0
1, 7200, Note_on_c, 0, 70, 51
1, 7440, Note_on_c, 0, 58, 0
1, 7440, Note_on_c, 0, 58, 34
1, 7680, Tempo, 497265
1, 7680, Note_on_c, 0, 58, 0
1, 7680, Note_on_c, 0, 70, 0
1, 7680, Note_on_c, 0, 68, 0
1, 7680, Note_on_c, 0, 65, 0
1, 7680, Note_on_c, 0, 51, 0
1, 7680, Note_on_c, 0, 67, 51
1, 7680, Note_on_c, 0, 72, 51
1, 7680, Note_on_c, 0, 58, 37
1, 7680, Note_on_c, 0, 51, 32
1, 7697, Control_c, 0, 64, 0
1, 7906, Control_c, 0, 64, 127
1, 7920, Note_on_c, 0, 58, 0
1, 7920, Note_on_c, 0, 72, 0
1, 7920, Note_on_c, 0, 74, 49
1, 7920, Note_on_c, 0, 58, 35
1, 8160, Tempo, 488878
1, 8160, Note_on_c, 0, 74, 0
1, 8160, Note_on_c, 0, 79, 52
1, 8400, Tempo, 519570
1, 8400, Note_on_c, 0, 79, 0
1, 8400, Note_on_c, 0, 58, 0
1, 8400, Note_on_c, 0, 72, 50
1, 8400, Note_on_c, 0, 58, 34
1, 8640, Note_on_c, 0, 58, 0
1, 8640, Note_on_c, 0, 51, 0
1, 8640, Note_on_c, 0, 67, 0
1, 8640, Note_on_c, 0, 72, 0
1, 8640, Note_on_c, 0, 67, 47
1, 8640, Note_on_c, 0, 70, 47
1, 8640, Note_on_c, 0, 51, 32
1, 8640, Note_on_c, 0, 58, 37
1, 8650, Control_c, 0, 64, 0
1, 8853, Control_c, 0, 64, 127
1, 8880, Note_on_c, 0, 58, 0
1, 8880, Note_on_c, 0, 58, 35
1, 9360, Note_on_c, 0, 58, 0
1, 9360, Note_on_c, 0, 58, 34
1, 9600, Tempo, 510421
1, 9600, Note_on_c, 0, 58, 0
1, 9600, Note_on_c, 0, 67, 0
1, 9600, Note_on_c, 0, 70, 0
1, 9600, Note_on_c, 0, 51, 0
1, 9600, Note_on_c, 0, 74, 64
1, 9600, Note_on_c, 0, 70, 64
1, 9600, Note_on_c, 0, 62, 42
1, 9600, Note_on_c, 0, 55, 35
1, 9611, Control_c, 0, 64, 0
1, 9699, Control_c, 0, 64, 127
1, 9840, Note_on_c, 0, 62, 0
1, 9840, Note_on_c, 0, 62, 38
1, 10080, Tempo, 501588
1, 10320, Tempo, 510421
1, 10320, Note_on_c, 0, 62, 0
1, 10320, Note_on_c, 0, 74, 0
1, 10320, Note_on_c, 0, 70, 0
1, 10320, Note_on_c, 0, 70, 55
1, 10320, Note_on_c, 0, 67, 55
1, 10320, Note_on_c, 0, 62, 36
1, 10560, Tempo, 501588
1, 10560, Note_on_c, 0, 62, 0
1, 10560, Note_on_c, 0, 55, 0
1, 10560, Note_on_c, 0, 70, 0
1, 10560, Note_on_c, 0, 67, 0
1, 10560, Note_on_c, 0, 72, 51
1, 10560, Note_on_c, 0, 69, 60
1, 10560, Note_on_c, 0, 63, 40
1, 10560, Note_on_c, 0, 55, 35
1, 10572, Control_c, 0, 64, 0
1, 10697, Control_c, 0, 64, 127
1, 10800, Note_on_c, 0, 63, 0
1, 10800, Note_on_c, 0, 63, 38
1, 11040, Tempo, 486815
1, 11040, Note_on_c, 0, 72, 0
1, 11040, Note_on_c, 0, 78, 65
1, 11280, Note_on_c, 0, 78, 0
1, 11280, Note_on_c, 0, 63, 0
1, 11280, Note_on_c, 0, 81, 60
1, 11280, Note_on_c, 0, 63, 37
1, 11520, Tempo, 490958
1, 11520, Note_on_c, 0, 63, 0
1, 11520, Note_on_c, 0, 55, 0
1, 11520, Note_on_c, 0, 69, 0
1, 11520, Note_on_c, 0, 81, 0
1, 11520, Note_on_c, 0, 70, 57
1, 11520, Note_on_c, 0, 79, 64
1, 11520, Note_on_c, 0, 62, 43
1, 11520, Note_on_c, 0, 55, 38
1, 11537, Control_c, 0, 64, 0
1, 11746, Control_c, 0, 64, 127
1, 11760, Note_on_c, 0, 62, 0
1, 11760, Note_on_c, 0, 79, 0
1, 11760, Note_on_c, 0, 74, 56
1, 11760, Note_on_c, 0, 62, 37
1, 12000, Tempo, 488878
1, 12000, Note_on_c, 0, 62, 0
1, 12000, Note_on_c, 0, 55, 0
1, 12000, Note_on_c, 0, 70, 0
1, 12000, Note_on_c, 0, 74, 0
1, 12000, Note_on_c, 0, 72, 58
1, 12000, Note_on_c, 0, 69, 51
1, 12000, Note_on_c, 0, 55, 35
1, 12000, Note_on_c, 0, 63, 39
1, 12240, Tempo, 512689
1, 12240, Note_on_c, 0, 63, 0
1, 12240, Note_on_c, 0, 72, 0
1, 12240, Note_on_c, 0, 74, 53
1, 12240, Note_on_c, 0, 63, 35
1, 12480, Note_on_c, 0, 63, 0
1, 12480, Note_on_c, 0, 69, 0
1, 12480, Note_on_c, 0, 55, 0
1, 12480, Note_on_c, 0, 74, 0
1, 12480, Note_on_c, 0, 67, 47
1, 12480, Note_on_c, 0, 70, 47
1, 12480, Note_on_c, 0, 55, 31
1, 12480, Note_on_c, 0, 62, 36
1, 12492, Control_c, 0, 64, 0
1, 12693, Control_c, 0, 64, 127
1, 12720, Note_on_c, 0, 62, 0
1, 12720, Note_on_c, 0, 62, 34
1, 13200, Note_on_c, 0, 62, 0
1, 13200, Note_on_c, 0, 62, 33
1, 13440, Tempo, 495131
1, 13440, Note_on_c, 0, 62, 0
1, 13440, Note_on_c, 0, 67, 0
1, 13440, Note_on_c, 0, 70, 0
1, 13440, Note_on_c, 0, 55, 0
1, 13440, Note_on_c, 0, 70, 51
1, 13440, Note_on_c, 0, 77, 60
1, 13440, Note_on_c, 0, 53, 42
1, 13440, Note_on_c, 0, 62, 60
1, 13452, Control_c, 0, 64, 0
1, 13566, Control_c, 0, 64, 127
1, 13680, Tempo, 508216
1, 13680, Note_on_c, 0, 53, 0
1, 13680, Note_on_c, 0, 53, 42
1, 14160, Tempo, 497265
1, 14160, Note_on_c, 0, 70, 0
1, 14160, Note_on_c, 0, 62, 0
1, 14160, Note_on_c, 0, 77, 0
1, 14160, Note_on_c, 0, 79, 58
1, 14160, Note_on_c, 0, 69, 49
1, 14160, Note_on_c, 0, 63, 47
1, 14360, Tempo, 501588
1, 14400, Tempo, 493056
1, 14400, Note_on_c, 0, 63, 0
1, 14400, Note_on_c, 0, 79, 0
1, 14400, Note_on_c, 0, 75, 57
1, 14400, Note_on_c, 0, 60, 48
1, 14411, Control_c, 0, 64, 0
1, 14520, Tempo, 495131
1, 14526, Control_c, 0, 64, 127
1, 14640, Tempo, 497265
1, 14640, Note_on_c, 0, 60, 0
1, 14640, Note_on_c, 0, 75, 0
1, 14640, Note_on_c, 0, 77, 60
1, 14640, Note_on_c, 0, 62, 49
1, 14760, Tempo, 499459
1, 14840, Tempo, 501588
1, 14880, Note_on_c, 0, 62, 0
1, 14880, Note_on_c, 0, 77, 0
1, 14880, Note_on_c, 0, 79, 64
1, 14880, Note_on_c, 0, 63, 50
1, 14960, Tempo, 503778
1, 15080, Tempo, 505945
1, 15120, Note_on_c, 0, 63, 0
1, 15120, Note_on_c, 0, 79, 0
1, 15120, Note_on_c, 0, 81, 61
1, 15120, Note_on_c, 0, 65, 50
1, 15200, Tempo, 508216
1, 15280, Tempo, 510421
1, 15320, Tempo, 512689
1, 15360, Tempo, 505945
1, 15360, Note_on_c, 0, 65, 0
1, 15360, Note_on_c, 0, 53, 0
1, 15360, Note_on_c, 0, 69, 0
1, 15360, Note_on_c, 0, 81, 0
1, 15360, Note_on_c, 0, 70, 58
1, 15360, Note_on_c, 0, 77, 69
1, 15360, Note_on_c, 0, 62, 56
1, 15373, Control_c, 0, 64, 0
1, 15486, Control_c, 0, 64, 127
1, 15600, Tempo, 512689
1, 15600, Note_on_c, 0, 62, 0
1, 15600, Note_on_c, 0, 77, 0
1, 15600, Note_on_c, 0, 70, 0
1, 15600, Note_on_c, 0, 68, 48
1, 15600, Note_on_c, 0, 74, 57
1, 15600, Note_on_c, 0, 59, 49
1, 15840, Tempo, 508216
1, 15840, Note_on_c, 0, 59, 0
1, 15840, Note_on_c, 0, 74, 0
1, 15840, Note_on_c, 0, 68, 0
1, 15840, Note_on_c, 0, 75, 61
1, 15840, Note_on_c, 0, 69, 52
1, 15840, Note_on_c, 0, 60, 52
1, 15850, Control_c, 0, 64, 0
1, 15943, Control_c, 0, 64, 127
1, 16080, Tempo, 514977
1, 16080, Note_on_c, 0, 60, 0
1, 16080, Note_on_c, 0, 69, 0
1, 16080, Note_on_c, 0, 75, 0
1, 16080, Note_on_c, 0, 65, 46
1, 16080, Note_on_c, 0, 73, 54
1, 16080, Note_on_c, 0, 57, 48
1, 16320, Note_on_c, 0, 57, 0
1, 16320, Note_on_c, 0, 73, 0
1, 16320, Note_on_c, 0, 74, 59
1, 16320, Note_on_c, 0, 58, 51
1, 16336, Control_c, 0, 64, 0
1, 16435, Control_c, 0, 64, 127
1, 16560, Tempo, 526685
1, 16560, Note_on_c, 0, 74, 0
1, 16560, Note_on_c, 0, 72, 52
1, 16560, Note_on_c, 0, 68, 38
1, 16560, Note_on_c, 0, 63, 39
1, 16800, Note_on_c, 0, 63, 0
1, 16800, Note_on_c, 0, 72, 0
1, 16800, Note_on_c, 0, 71, 46
1, 16800, Note_on_c, 0, 62, 36
1, 17040, Tempo, 551471
1, 17040, Note_on_c, 0, 71, 0
1, 17040, Note_on_c, 0, 68, 0
1, 17040, Note_on_c, 0, 70, 43
1, 17280, Tempo, 503778
1, 17280, Note_on_c, 0, 70, 0
1, 17280, Note_on_c, 0, 62, 0
1, 17280, Note_on_c, 0, 58, 0
1, 17280, Note_on_c, 0, 65, 0
1, 17280, Note_on_c, 0, 75, 52
1, 17280, Note_on_c, 0, 79, 52
1, 17280, Note_on_c, 0, 58, 38
1, 17280, Note_on_c, 0, 51, 32
1, 17293, Control_c, 0, 64, 0
1, 17400, Tempo, 512689
1, 17450, Control_c, 0, 64, 127
1, 17520, Note_on_c, 0, 58, 0
1, 17520, Note_on_c, 0, 58, 35
1, 17760, Tempo, 499459
1, 18000, Tempo, 517286
1, 18000, Note_on_c, 0, 58, 0
1, 18000, Note_on_c, 0, 75, 0
1, 18000, Note_on_c, 0, 79, 0
1, 18000, Note_on_c, 0, 74, 50
1, 18000, Note_on_c, 0, 77, 50
1, 18000, Note_on_c, 0, 58, 33
1, 18240, Tempo, 510421
1, 18240, Note_on_c, 0, 58, 0
1, 18240, Note_on_c, 0, 51, 0
1, 18240, Note_on_c, 0, 74, 0
1, 18240, Note_on_c, 0, 77, 0
1, 18240, Note_on_c, 0, 80, 52
1, 18240, Note_on_c, 0, 77, 52
1, 18240, Note_on_c, 0, 58, 37
1, 18240, Note_on_c, 0, 51, 32
1, 18480, Note_on_c, 0, 58, 0
1, 18480, Note_on_c, 0, 58, 35
1, 18720, Tempo, 499459
1, 18720, Note_on_c, 0, 80, 0
1, 18720, Note_on_c, 0, 77, 0
1, 18720, Note_on_c, 0, 77, 52
1, 18720, Note_on_c, 0, 74, 52
1, 18960, Note_on_c, 0, 74, 0
1, 18960, Note_on_c, 0, 77, 0
1, 18960, Note_on_c, 0, 58, 0
1, 18960, Note_on_c, 0, 75, 50
1, 18960, Note_on_c, 0, 79, 50
1, 18960, Note_on_c, 0, 58, 34
1, 19200, Tempo, 508216
1, 19200, Note_on_c, 0, 58, 0
1, 19200, Note_on_c, 0, 51, 0
1, 19200, Note_on_c, 0, 75, 0
1, 19200, Note_on_c, 0, 79, 0
1, 19200, Note_on_c, 0, 75, 52
1, 19200, Note_on_c, 0, 72, 52
1, 19200, Note_on_c, 0, 58, 38
1, 19200, Note_on_c, 0, 51, 32
1, 19211, Control_c, 0, 64, 0
1, 19384, Control_c, 0, 64, 127
1, 19440, Note_on_c, 0, 58, 0
1, 19440, Note_on_c, 0, 58, 35
1, 19680, Tempo, 519570
1, 19680, Note_on_c, 0, 75, 0
1, 19680, Note_on_c, 0, 72, 0
1, 19680, Note_on_c, 0, 68, 49
1, 19680, Note_on_c, 0, 72, 49
1, 19920, Note_on_c, 0, 58, 0
1, 19920, Note_on_c, 0, 58, 33
1, 20160, Note_on_c, 0, 58, 0
1, 20160, Note_on_c, 0, 72, 0
1, 20160, Note_on_c, 0, 68, 0
1, 20160, Note_on_c, 0, 51, 0
1, 20160, Note_on_c, 0, 67, 47
1, 20160, Note_on_c, 0, 70, 47
1, 20160, Note_on_c, 0, 58, 37
1, 20160, Note_on_c, 0, 51, 32
1, 20170, Control_c, 0, 64, 0
1, 20301, Control_c, 0, 64, 127
1, 20400, Note_on_c, 0, 58, 0
1, 20400, Note_on_c, 0, 58, 35
1, 20640, Tempo, 514977
1, 20880, Note_on_c, 0, 58, 0
1, 20880, Note_on_c, 0, 58, 34
1, 21120, Tempo, 499459
1, 21120, Note_on_c, 0, 58, 0
1, 21120, Note_on_c, 0, 67, 0
1, 21120, Note_on_c, 0, 70, 0
1, 21120, Note_on_c, 0, 51, 0
1, 21120, Note_on_c, 0, 72, 51
1, 21120, Note_on_c, 0, 68, 51
1, 21120, Note_on_c, 0, 65, 37
1, 21120, Note_on_c, 0, 51, 32
1, 21132, Control_c, 0, 64, 0
1, 21332, Control_c, 0, 64, 127
1, 21360, Note_on_c, 0, 58, 35
1, 21600, Tempo, 488878
1, 21600, Note_on_c, 0, 72, 0
1, 21600, Note_on_c, 0, 74, 56
1, 21840, Tempo, 499459
1, 21840, Note_on_c, 0, 74, 0
1, 21840, Note_on_c, 0, 58, 0
1, 21840, Note_on_c, 0, 77, 55
1, 21840, Note_on_c, 0, 58, 34
1, 22080, Tempo, 508216
1, 22080, Note_on_c, 0, 58, 0
1, 22080, Note_on_c, 0, 68, 0
1, 22080, Note_on_c, 0, 51, 0
1, 22080, Note_on_c, 0, 65, 0
1, 22080, Note_on_c, 0, 77, 0
1, 22080, Note_on_c, 0, 68, 55
1, 22080, Note_on_c, 0, 74, 55
1, 22080, Note_on_c, 0, 65, 37
1, 22080, Note_on_c, 0, 51, 32
1, 22091, Control_c, 0, 64, 0
1, 22264, Control_c, 0, 64, 127
1, 22320, Note_on_c, 0, 58, 35
1, 22560, Note_on_c, 0, 74, 0
1, 22560, Note_on_c, 0, 70, 51
1, 22800, Note_on_c, 0, 58, 0
1, 22800, Note_on_c, 0, 58, 34
1, 23040, Tempo, 497265
1, 23040, Note_on_c, 0, 58, 0
1, 23040, Note_on_c, 0, 70, 0
1, 23040, Note_on_c, 0, 68, 0
1, 23040, Note_on_c, 0, 65, 0
1, 23040, Note_on_c, 0, 51, 0
1, 23040, Note_on_c, 0, 72, 51
1, 23040, Note_on_c, 0, 67, 51
1, 23040, Note_on_c, 0, 58, 37
1, 23040, Note_on_c, 0, 51, 32
1, 23057, Control_c, 0, 64, 0
1, 23224, Control_c, 0, 64, 127
1, 23280, Note_on_c, 0, 58, 0
1, 23280, Note_on_c, 0, 72, 0
1, 23280, Note_on_c, 0, 74, 49
1, 23280, Note_on_c, 0, 58, 35
1, 23520, Tempo, 488878
1, 23520, Note_on_c, 0, 74, 0
1, 23520, Note_on_c, 0, 79, 52
1, 23760, Tempo, 519570
1, 23760, Note_on_c, 0, 79, 0
1, 23760, Note_on_c, 0, 58, 0
1, 23760, Note_on_c, 0, 72, 50
1, 23760, Note_on_c, 0, 58, 34
1, 24000, Note_on_c, 0, 58, 0
1, 24000, Note_on_c, 0, 51, 0
1, 24000, Note_on_c, 0, 67, 0
1, 24000, Note_on_c, 0, 72, 0
1, 24000, Note_on_c, 0, 70, 47
1, 24000, Note_on_c, 0, 67, 47
1, 24000, Note_on_c, 0, 51, 32
1, 24000, Note_on_c, 0, 58, 37
1, 24014, Control_c, 0, 64, 0
1, 24213, Control_c, 0, 64, 127
1, 24240, Note_on_c, 0, 58, 0
1, 24240, Note_on_c, 0, 58, 35
1, 24720, Note_on_c, 0, 58, 0
1, 24720, Note_on_c, 0, 58, 34
1, 24960, Tempo, 510421
1, 24960, Note_on_c, 0, 58, 0
1, 24960, Note_on_c, 0, 70, 0
1, 24960, Note_on_c, 0, 67, 0
1, 24960, Note_on_c, 0, 51, 0
1, 24960, Note_on_c, 0, 74, 64
1, 24960, Note_on_c, 0, 70, 64
1, 24960, Note_on_c, 0, 62, 42
1, 24960, Note_on_c, 0, 55, 35
1, 24973, Control_c, 0, 64, 0
1, 25144, Control_c, 0, 64, 127
1, 25200, Note_on_c, 0, 62, 0
1, 25200, Note_on_c, 0, 62, 38
1, 25440, Tempo, 486815
1, 25680, Tempo, 501588
1, 25680, Note_on_c, 0, 62, 0
1, 25680, Note_on_c, 0, 74, 0
1, 25680, Note_on_c, 0, 70, 0
1, 25680, Note_on_c, 0, 70, 55
1, 25680, Note_on_c, 0, 67, 55
1, 25680, Note_on_c, 0, 62, 36
1, 25920, Tempo, 501588
1, 25920, Note_on_c, 0, 62, 0
1, 25920, Note_on_c, 0, 55, 0
1, 25920, Note_on_c, 0, 70, 0
1, 25920, Note_on_c, 0, 67, 0
1, 25920, Note_on_c, 0, 72, 51
1, 25920, Note_on_c, 0, 69, 60
1, 25920, Note_on_c, 0, 63, 40
1, 25920, Note_on_c, 0, 55, 35
1, 25930, Control_c, 0, 64, 0
1, 26057, Control_c, 0, 64, 127
1, 26160, Note_on_c, 0, 63, 0
1, 26160, Note_on_c, 0, 63, 38
1, 26400, Tempo, 486815
1, 26400, Note_on_c, 0, 72, 0
1, 26400, Note_on_c, 0, 78, 65
1, 26640, Note_on_c, 0, 78, 0
1, 26640, Note_on_c, 0, 63, 0
1, 26640, Note_on_c, 0, 81, 60
1, 26640, Note_on_c, 0, 63, 37
1, 26880, Tempo, 490958
1, 26880, Note_on_c, 0, 63, 0
1, 26880, Note_on_c, 0, 55, 0
1, 26880, Note_on_c, 0, 69, 0
1, 26880, Note_on_c, 0, 81, 0
1, 26880, Note_on_c, 0, 79, 64
1, 26880, Note_on_c, 0, 70, 57
1, 26880, Note_on_c, 0, 62, 43
1, 26880, Note_on_c, 0, 55, 38
1, 26897, Control_c, 0, 64, 0
1, 27106, Control_c, 0, 64, 127
1, 27120, Note_on_c, 0, 62, 0
1, 27120, Note_on_c, 0, 79, 0
1, 27120, Note_on_c, 0, 74, 56
1, 27120, Note_on_c, 0, 62, 37
1, 27360, Tempo, 488878
1, 27360, Note_on_c, 0, 62, 0
1, 27360, Note_on_c, 0, 55, 0
1, 27360, Note_on_c, 0, 70, 0
1, 27360, Note_on_c, 0, 74, 0
1, 27360, Note_on_c, 0, 69, 51
1, 27360, Note_on_c, 0, 72, 58
1, 27360, Note_on_c, 0, 55, 35
1, 27360, Note_on_c, 0, 63, 39
1, 27600, Tempo, 512689
1, 27600, Note_on_c, 0, 63, 0
1, 27600, Note_on_c, 0, 72, 0
1, 27600, Note_on_c, 0, 74, 53
1, 27600, Note_on_c, 0, 63, 35
1, 27840, Note_on_c, 0, 63, 0
1, 27840, Note_on_c, 0, 69, 0
1, 27840, Note_on_c, 0, 55, 0
1, 27840, Note_on_c, 0, 74, 0
1, 27840, Note_on_c, 0, 67, 47
1, 27840, Note_on_c, 0, 70, 47
1, 27840, Note_on_c, 0, 55, 31
1, 27840, Note_on_c, 0, 62, 36
1, 27851, Control_c, 0, 64, 0
1, 28053, Control_c, 0, 64, 127
1, 28080, Note_on_c, 0, 62, 0
1, 28080, Note_on_c, 0, 62, 34
1, 28560, Note_on_c, 0, 62, 0
1, 28560, Note_on_c, 0, 62, 33
1, 28800, Tempo, 508216
1, 28800, Note_on_c, 0, 62, 0
1, 28800, Note_on_c, 0, 67, 0
1, 28800, Note_on_c, 0, 70, 0
1, 28800, Note_on_c, 0, 55, 0
1, 28800, Note_on_c, 0, 65, 52
1, 28800, Note_on_c, 0, 70, 58
1, 28800, Note_on_c, 0, 53, 34
1, 28800, Note_on_c, 0, 62, 39
1, 28811, Control_c, 0, 64, 0
1, 29013, Control_c, 0, 64, 127
1, 29040, Tempo, 497265
1, 29040, Note_on_c, 0, 62, 0
1, 29040, Note_on_c, 0, 62, 37
1, 29280, Tempo, 490958
1, 29280, Note_on_c, 0, 62, 0
1, 29280, Note_on_c, 0, 53, 0
1, 29280, Note_on_c, 0, 70, 0
1, 29280, Note_on_c, 0, 65, 0
1, 29280, Note_on_c, 0, 72, 57
1, 29280, Note_on_c, 0, 66, 51
1, 29280, Note_on_c, 0, 63, 49
1, 29298, Control_c, 0, 64, 0
1, 29440, Control_c, 0, 64, 127
1, 29520, Note_on_c, 0, 63, 0
1, 29520, Note_on_c, 0, 66, 0
1, 29520, Note_on_c, 0, 72, 0
1, 29520, Note_on_c, 0, 70, 55
1, 29520, Note_on_c, 0, 75, 55
1, 29520, Note_on_c, 0, 66, 43
1, 29760, Tempo, 484809
1, 29760, Note_on_c, 0, 66, 0
1, 29760, Note_on_c, 0, 75, 0
1, 29760, Note_on_c, 0, 70, 0
1, 29760, Note_on_c, 0, 72, 60
1, 29760, Note_on_c, 0, 66, 54
1, 29760, Note_on_c, 0, 63, 49
1, 30000, Tempo, 490958
1, 30000, Note_on_c, 0, 63, 0
1, 30000, Note_on_c, 0, 66, 0
1, 30000, Note_on_c, 0, 72, 0
1, 30000, Note_on_c, 0, 70, 47
1, 30000, Note_on_c, 0, 75, 53
1, 30000, Note_on_c, 0, 66, 44
1, 30240, Tempo, 488878
1, 30240, Note_on_c, 0, 66, 0
1, 30240, Note_on_c, 0, 75, 0
1, 30240, Note_on_c, 0, 70, 0
1, 30240, Note_on_c, 0, 78, 60
1, 30240, Note_on_c, 0, 72, 54
1, 30240, Note_on_c, 0, 70, 51
1, 30480, Tempo, 508216
1, 30480, Note_on_c, 0, 70, 0
1, 30480, Note_on_c, 0, 72, 0
1, 30480, Note_on_c, 0, 78, 0
1, 30480, Note_on_c, 0, 75, 54
1, 30480, Note_on_c, 0, 70, 48
1, 30480, Note_on_c, 0, 66, 47
1, 30720, Note_on_c, 0, 66, 0
1, 30720, Note_on_c, 0, 70, 0
1, 30720, Note_on_c, 0, 75, 0
1, 30720, Note_on_c, 0, 69, 54
1, 30720, Note_on_c, 0, 74, 54
1, 30720, Note_on_c, 0, 53, 43
1, 30720, Note_on_c, 0, 65, 43
1, 30731, Control_c, 0, 64, 0
1, 30890, Control_c, 0, 64, 127
1, 30960, Tempo, 517286
1, 30960, Note_on_c, 0, 65, 0
1, 30960, Note_on_c, 0, 65, 39
1, 31200, Note_on_c, 0, 65, 0
1, 31200, Note_on_c, 0, 74, 0
1, 31200, Note_on_c, 0, 72, 53
1, 31200, Note_on_c, 0, 63, 42
1, 31440, Note_on_c, 0, 63, 0
1, 31440, Note_on_c, 0, 72, 0
1, 31440, Note_on_c, 0, 74, 49
1, 31440, Note_on_c, 0, 63, 37
1, 31680, Tempo, 505945
1, 31680, Note_on_c, 0, 63, 0
1, 31680, Note_on_c, 0, 69, 0
1, 31680, Note_on_c, 0, 53, 0
1, 31680, Note_on_c, 0, 74, 0
1, 31680, Note_on_c, 0, 70, 47
1, 31680, Note_on_c, 0, 65, 47
1, 31680, Note_on_c, 0, 62, 42
1, 31680, Note_on_c, 0, 58, 42
1, 31693, Control_c, 0, 64, 0
1, 31751, Control_c, 0, 64, 127
1, 31920, Tempo, 529054
1, 31920, Note_on_c, 0, 58, 0
1, 31920, Note_on_c, 0, 62, 0
1, 31920, Note_on_c, 0, 59, 36
1, 32100, Note_on_c, 0, 59, 0
1, 32100, Note_on_c, 0, 62, 32
1, 32160, Tempo, 531491
1, 32160, Note_on_c, 0, 60, 38
1, 32173, Control_c, 0, 64, 0
1, 32180, Note_on_c, 0, 62, 0
1, 32234, Control_c, 0, 64, 127
1, 32400, Note_on_c, 0, 60, 0
1, 32400, Note_on_c, 0, 58, 35
1, 32640, Tempo, 514933
1, 32640, Note_on_c, 0, 58, 0
1, 32640, Note_on_c, 0, 65, 0
1, 32640, Note_on_c, 0, 70, 0
1, 32640, Note_on_c, 0, 77, 52
1, 32640, Note_on_c, 0, 74, 52
1, 32640, Note_on_c, 0, 34, 38
1, 32648, Control_c, 0, 64, 0
1, 32838, Control_c, 0, 64, 127
1, 32880, Tempo, 503778
1, 32880, Note_on_c, 0, 34, 0
1, 32880, Note_on_c, 0, 58, 35
1, 33120, Tempo, 488878
1, 33360, Tempo, 501588
1, 33360, Note_on_c, 0, 58, 0
1, 33360, Note_on_c, 0, 74, 0
1, 33360, Note_on_c, 0, 77, 0
1, 33360, Note_on_c, 0, 72, 50
1, 33360, Note_on_c, 0, 68, 50
1, 33360, Note_on_c, 0, 58, 33
1, 33600, Tempo, 508216
1, 33600, Note_on_c, 0, 58, 0
1, 33600, Note_on_c, 0, 68, 0
1, 33600, Note_on_c, 0, 72, 0
1, 33600, Note_on_c, 0, 75, 52
1, 33600, Note_on_c, 0, 72, 52
1, 33600, Note_on_c, 0, 58, 37
1, 33840, Note_on_c, 0, 58, 0
1, 33840, Note_on_c, 0, 58, 35
1, 34080, Tempo, 499459
1, 34080, Note_on_c, 0, 72, 0
1, 34080, Note_on_c, 0, 75, 0
1, 34080, Note_on_c, 0, 70, 52
1, 34080, Note_on_c, 0, 74, 52
1, 34320, Note_on_c, 0, 74, 0
1, 34320, Note_on_c, 0, 70, 0
1, 34320, Note_on_c, 0, 58, 0
1, 34320, Note_on_c, 0, 70, 50
1, 34320, Note_on_c, 0, 67, 50
1, 34320, Note_on_c, 0, 58, 34
1, 34560, Tempo, 508216
1, 34560, Note_on_c, 0, 58, 0
1, 34560, Note_on_c, 0, 67, 0
1, 34560, Note_on_c, 0, 70, 0
1, 34560, Note_on_c, 0, 70, 52
1, 34560, Note_on_c, 0, 74, 52
1, 34560, Note_on_c, 0, 58, 38
1, 34571, Control_c, 0, 64, 0
1, 34744, Control_c, 0, 64, 127
1, 34800, Note_on_c, 0, 58, 0
1, 34800, Note_on_c, 0, 58, 35
1, 35040, Tempo, 519570
1, 35040, Note_on_c, 0, 74, 0
1, 35040, Note_on_c, 0, 70, 0
1, 35040, Note_on_c, 0, 72, 49
1, 35040, Note_on_c, 0, 68, 49
1, 35280, Note_on_c, 0, 58, 0
1, 35280, Note_on_c, 0, 58, 33
1, 35520, Note_on_c, 0, 58, 0
1, 35520, Note_on_c, 0, 68, 0
1, 35520, Note_on_c, 0, 72, 0
1, 35520, Note_on_c, 0, 65, 47
1, 35520, Note_on_c, 0, 68, 47
1, 35520, Note_on_c, 0, 58, 37
1, 35529, Control_c, 0, 64, 0
1, 35732, Control_c, 0, 64, 127
1, 35760, Note_on_c, 0, 58, 0
1, 35760, Note_on_c, 0, 58, 35
1, 36000, Tempo, 514977
1, 36240, Note_on_c, 0, 58, 0
1, 36240, Note_on_c, 0, 58, 34
1, 36480, Tempo, 514933
1, 36480, Note_on_c, 0, 58, 0
1, 36480, Note_on_c, 0, 68, 0
1, 36480, Note_on_c, 0, 65, 0
1, 36480, Note_on_c, 0, 80, 72
1, 36480, Note_on_c, 0, 77, 72
1, 36480, Note_on_c, 0, 34, 54
1, 36491, Control_c, 0, 64, 0
1, 36629, Control_c, 0, 64, 127
1, 36720, Tempo, 503778
1, 36720, Note_on_c, 0, 34, 0
1, 36720, Note_on_c, 0, 58, 47
1, 36960, Tempo, 484809
1, 37200, Tempo, 493056
1, 37200, Note_on_c, 0, 58, 0
1, 37200, Note_on_c, 0, 77, 0
1, 37200, Note_on_c, 0, 80, 0
1, 37200, Note_on_c, 0, 79, 57
1, 37200, Note_on_c, 0, 76, 57
1, 37200, Note_on_c, 0, 58, 38
1, 37440, Tempo, 490958
1, 37440, Note_on_c, 0, 58, 0
1, 37440, Note_on_c, 0, 76, 0
1, 37440, Note_on_c, 0, 79, 0
1, 37440, Note_on_c, 0, 76, 63
1, 37440, Note_on_c, 0, 73, 63
1, 37440, Note_on_c, 0, 58, 39
1, 37680, Note_on_c, 0, 58, 0
1, 37680, Note_on_c, 0, 73, 0
1, 37680, Note_on_c, 0, 76, 0
1, 37680, Note_on_c, 0, 79, 56
1, 37680, Note_on_c, 0, 76, 56
1, 37680, Note_on_c, 0, 58, 38
1, 37920, Tempo, 499459
1, 37920, Note_on_c, 0, 76, 0
1, 37920, Note_on_c, 0, 79, 0
1, 37920, Note_on_c, 0, 74, 61
1, 37920, Note_on_c, 0, 77, 61
1, 38160, Note_on_c, 0, 77, 0
1, 38160, Note_on_c, 0, 74, 0
1, 38160, Note_on_c, 0, 58, 0
1, 38160, Note_on_c, 0, 71, 56
1, 38160, Note_on_c, 0, 74, 56
1, 38160, Note_on_c, 0, 58, 36
1, 38400, Tempo, 503778
1, 38400, Note_on_c, 0, 58, 0
1, 38400, Note_on_c, 0, 74, 0
1, 38400, Note_on_c, 0, 71, 0
1, 38400, Note_on_c, 0, 77, 60
1, 38400, Note_on_c, 0, 74, 60
1, 38400, Note_on_c, 0, 58, 40
1, 38411, Control_c, 0, 64, 0
1, 38612, Control_c, 0, 64, 127
1, 38640, Tempo, 508216
1, 38640, Note_on_c, 0, 58, 0
1, 38640, Note_on_c, 0, 74, 0
1, 38640, Note_on_c, 0, 77, 0
1, 38640, Note_on_c, 0, 75, 53
1, 38640, Note_on_c, 0, 72, 53
1, 38640, Note_on_c, 0, 58, 38
1, 38880, Tempo, 519570
1, 38880, Note_on_c, 0, 72, 0
1, 38880, Note_on_c, 0, 75, 0
1, 38880, Note_on_c, 0, 68, 53
1, 38880, Note_on_c, 0, 72, 53
1, 39120, Note_on_c, 0, 72, 0
1, 39120, Note_on_c, 0, 68, 0
1, 39120, Note_on_c, 0, 58, 0
1, 39120, Note_on_c, 0, 68, 50
1, 39120, Note_on_c, 0, 65, 50
1, 39120, Note_on_c, 0, 58, 35
1, 39360, Tempo, 505945
1, 39360, Note_on_c, 0, 58, 0
1, 39360, Note_on_c, 0, 65, 0
1, 39360, Note_on_c, 0, 68, 0
1, 39360, Note_on_c, 0, 62, 48
1, 39360, Note_on_c, 0, 65, 48
1, 39360, Note_on_c, 0, 57, 45
1, 39370, Control_c, 0, 64, 0
1, 39459, Control_c, 0, 64, 127
1, 39600, Tempo, 529054
1, 39600, Note_on_c, 0, 57, 0
1, 39600, Note_on_c, 0, 58, 39
1, 39720, Control_c, 0, 64, 0
1, 39780, Note_on_c, 0, 58, 0
1, 39780, Note_on_c, 0, 61, 34
1, 39840, Tempo, 519570
1, 39840, Note_on_c, 0, 59, 40
1, 39860, Note_on_c, 0, 61, 0
1, 40080, Tempo, 529054
1, 40080, Note_on_c, 0, 58, 38
1, 40100, Note_on_c, 0, 59, 0
1, 40320, Tempo, 499459
1, 40320, Note_on_c, 0, 62, 0
1, 40320, Note_on_c, 0, 65, 0
1, 40320, Note_on_c, 0, 58, 0
1, 40320, Note_on_c, 0, 69, 51
1, 40320, Note_on_c, 0, 78, 57
1, 40320, Note_on_c, 0, 63, 44
1, 40412, Control_c, 0, 64, 127
1, 40560, Tempo, 486815
1, 40560, Note_on_c, 0, 69, 0
1, 40560, Note_on_c, 0, 70, 47
1, 40770, Tempo, 495131
1, 40800, Note_on_c, 0, 70, 0
1, 40800, Note_on_c, 0, 63, 0
1, 40800, Note_on_c, 0, 71, 52
1, 40800, Note_on_c, 0, 56, 30
1, 41040, Tempo, 480769
1, 41040, Note_on_c, 0, 71, 0
1, 41040, Note_on_c, 0, 78, 0
1, 41040, Note_on_c, 0, 72, 40
1, 41040, Note_on_c, 0, 80, 52
1, 41280, Tempo, 495131
1, 41280, Note_on_c, 0, 80, 0
1, 41280, Note_on_c, 0, 56, 0
1, 41280, Note_on_c, 0, 78, 60
1, 41280, Note_on_c, 0, 57, 44
1, 41292, Control_c, 0, 64, 0
1, 41335, Control_c, 0, 64, 127
1, 41360, Note_on_c, 0, 78, 0
1, 41360, Note_on_c, 0, 80, 49
1, 41440, Note_on_c, 0, 80, 0
1, 41440, Note_on_c, 0, 78, 49
1, 41520, Tempo, 505945
1, 41520, Note_on_c, 0, 78, 0
1, 41520, Note_on_c, 0, 77, 55
1, 41520, Note_on_c, 0, 63, 47
1, 41760, Note_on_c, 0, 77, 0
1, 41760, Note_on_c, 0, 76, 56
1, 42000, Tempo, 512689
1, 42000, Note_on_c, 0, 76, 0
1, 42000, Note_on_c, 0, 63, 0
1, 42000, Note_on_c, 0, 77, 49
1, 42000, Note_on_c, 0, 60, 36
1, 42240, Tempo, 499459
1, 42240, Note_on_c, 0, 60, 0
1, 42240, Note_on_c, 0, 72, 0
1, 42240, Note_on_c, 0, 57, 0
1, 42240, Note_on_c, 0, 77, 0
1, 42240, Note_on_c, 0, 73, 57
1, 42240, Note_on_c, 0, 64, 51
1, 42240, Note_on_c, 0, 58, 44
1, 42250, Control_c, 0, 64, 0
1, 42290, Control_c, 0, 64, 127
1, 42480, Tempo, 486815
1, 42480, Note_on_c, 0, 64, 0
1, 42480, Note_on_c, 0, 65, 47
1, 42600, Tempo, 495131
1, 42660, Note_on_c, 0, 65, 0
1, 42660, Note_on_c, 0, 68, 46
1, 42720, Tempo, 495131
1, 42720, Note_on_c, 0, 68, 0
1, 42720, Note_on_c, 0, 58, 0
1, 42720, Note_on_c, 0, 66, 52
1, 42720, Note_on_c, 0, 56, 30
1, 42960, Tempo, 480769
1, 42960, Note_on_c, 0, 66, 0
1, 42960, Note_on_c, 0, 73, 0
1, 42960, Note_on_c, 0, 73, 52
1, 42960, Note_on_c, 0, 65, 40
1, 43200, Tempo, 495131
1, 43200, Note_on_c, 0, 65, 0
1, 43200, Note_on_c, 0, 73, 0
1, 43200, Note_on_c, 0, 56, 0
1, 43200, Note_on_c, 0, 64, 39
1, 43200, Note_on_c, 0, 70, 40
1, 43200, Note_on_c, 0, 73, 60
1, 43200, Note_on_c, 0, 55, 40
1, 43213, Control_c, 0, 64, 0
1, 43383, Control_c, 0, 64, 127
1, 43440, Tempo, 505945
1, 43440, Note_on_c, 0, 73, 0
1, 43440, Note_on_c, 0, 72, 55
1, 43680, Note_on_c, 0, 72, 0
1, 43680, Note_on_c, 0, 71, 56
1, 43920, Tempo, 512689
1, 43920, Note_on_c, 0, 71, 0
1, 43920, Note_on_c, 0, 72, 49
1, 43920, Note_on_c, 0, 48, 36
1, 44160, Tempo, 499459
1, 44160, Note_on_c, 0, 48, 0
1, 44160, Note_on_c, 0, 64, 0
1, 44160, Note_on_c, 0, 55, 0
1, 44160, Note_on_c, 0, 70, 0
1, 44160, Note_on_c, 0, 72, 0
1, 44160, Note_on_c, 0, 68, 51
1, 44160, Note_on_c, 0, 72, 51
1, 44160, Note_on_c, 0, 48, 34
1, 44160, Note_on_c, 0, 41, 37
1, 44171, Control_c, 0, 64, 0
1, 44332, Control_c, 0, 64, 127
1, 44400, Note_on_c, 0, 48, 0
1, 44400, Note_on_c, 0, 48, 35
1, 44640, Tempo, 488878
1, 44640, Note_on_c, 0, 68, 0
1, 44640, Note_on_c, 0, 72, 0
1, 44640, Note_on_c, 0, 73, 56
1, 44640, Note_on_c, 0, 70, 56
1, 44880, Tempo, 499459
1, 44880, Note_on_c, 0, 70, 0
1, 44880, Note_on_c, 0, 73, 0
1, 44880, Note_on_c, 0, 48, 0
1, 44880, Note_on_c, 0, 73, 52
1, 44880, Note_on_c, 0, 77, 52
1, 44880, Note_on_c, 0, 48, 34
1, 45120, Tempo, 508216
1, 45120, Note_on_c, 0, 48, 0
1, 45120, Note_on_c, 0, 41, 0
1, 45120, Note_on_c, 0, 73, 0
1, 45120, Note_on_c, 0, 77, 0
1, 45120, Note_on_c, 0, 73, 55
1, 45120, Note_on_c, 0, 70, 55
1, 45120, Note_on_c, 0, 48, 34
1, 45120, Note_on_c, 0, 41, 37
1, 45131, Control_c, 0, 64, 0
1, 45290, Control_c, 0, 64, 127
1, 45360, Note_on_c, 0, 48, 0
1, 45360, Note_on_c, 0, 48, 35
1, 45600, Note_on_c, 0, 73, 0
1, 45600, Note_on_c, 0, 70, 0
1, 45600, Note_on_c, 0, 67, 51
1, 45600, Note_on_c, 0, 70, 51
1, 45840, Note_on_c, 0, 48, 0
1, 45840, Note_on_c, 0, 48, 34
1, 46080, Tempo, 497265
1, 46080, Note_on_c, 0, 48, 0
1, 46080, Note_on_c, 0, 70, 0
1, 46080, Note_on_c, 0, 67, 0
1, 46080, Note_on_c, 0, 41, 0
1, 46080, Note_on_c, 0, 67, 51
1, 46080, Note_on_c, 0, 64, 51
1, 46080, Note_on_c, 0, 48, 34
1, 46080, Note_on_c, 0, 41, 37
1, 46097, Control_c, 0, 64, 0
1, 46252, Control_c, 0, 64, 127
1, 46320, Note_on_c, 0, 48, 0
1, 46320, Note_on_c, 0, 67, 0
1, 46320, Note_on_c, 0, 64, 0
1, 46320, Note_on_c, 0, 68, 52
1, 46320, Note_on_c, 0, 65, 52
1, 46320, Note_on_c, 0, 48, 35
1, 46560, Tempo, 488878
1, 46560, Note_on_c, 0, 65, 0
1, 46560, Note_on_c, 0, 68, 0
1, 46560, Note_on_c, 0, 67, 57
1, 46560, Note_on_c, 0, 70, 57
1, 46800, Tempo, 519570
1, 46800, Note_on_c, 0, 70, 0
1, 46800, Note_on_c, 0, 67, 0
1, 46800, Note_on_c, 0, 48, 0
1, 46800, Note_on_c, 0, 70, 52
1, 46800, Note_on_c, 0, 73, 52
1, 46800, Note_on_c, 0, 48, 34
1, 47040, Note_on_c, 0, 48, 0
1, 47040, Note_on_c, 0, 41, 0
1, 47040, Note_on_c, 0, 70, 0
1, 47040, Note_on_c, 0, 73, 0
1, 47040, Note_on_c, 0, 72, 47
1, 47040, Note_on_c, 0, 68, 47
1, 47040, Note_on_c, 0, 41, 50
1, 47040, Note_on_c, 0, 48, 50
1, 47052, Control_c, 0, 64, 0
1, 47200, Control_c, 0, 64, 127
1, 47280, Note_on_c, 0, 41, 0
1, 47280, Note_on_c, 0, 41, 53
1, 47760, Note_on_c, 0, 41, 0
1, 47760, Note_on_c, 0, 40, 54
1, 48000, Tempo, 493056
1, 48000, Note_on_c, 0, 40, 0
1, 48000, Note_on_c, 0, 72, 0
1, 48000, Note_on_c, 0, 68, 0
1, 48000, Note_on_c, 0, 48, 0
1, 48000, Note_on_c, 0, 68, 69
1, 48000, Note_on_c, 0, 72, 69
1, 48000, Note_on_c, 0, 39, 56
1, 48011, Control_c, 0, 64, 0
1, 48226, Control_c, 0, 64, 127
1, 48240, Note_on_c, 0, 39, 0
1, 48240, Note_on_c, 0, 63, 44
1, 48480, Tempo, 488878
1, 48480, Note_on_c, 0, 72, 0
1, 48480, Note_on_c, 0, 68, 0
1, 48480, Note_on_c, 0, 75, 65
1, 48480, Note_on_c, 0, 72, 65
1, 48720, Tempo, 499459
1, 48720, Note_on_c, 0, 72, 0
1, 48720, Note_on_c, 0, 75, 0
1, 48720, Note_on_c, 0, 63, 0
1, 48720, Note_on_c, 0, 77, 59
1, 48720, Note_on_c, 0, 80, 59
1, 48720, Note_on_c, 0, 63, 42
1, 48960, Tempo, 508216
1, 48960, Note_on_c, 0, 63, 0
1, 48960, Note_on_c, 0, 80, 0
1, 48960, Note_on_c, 0, 77, 0
1, 48960, Note_on_c, 0, 73, 63
1, 48960, Note_on_c, 0, 77, 63
1, 48960, Note_on_c, 0, 63, 42
1, 48971, Control_c, 0, 64, 0
1, 49116, Control_c, 0, 64, 127
1, 49200, Note_on_c, 0, 63, 0
1, 49200, Note_on_c, 0, 63, 44
1, 49440, Note_on_c, 0, 77, 0
1, 49440, Note_on_c, 0, 73, 0
1, 49440, Note_on_c, 0, 73, 60
1, 49440, Note_on_c, 0, 70, 60
1, 49680, Note_on_c, 0, 63, 0
1, 49680, Note_on_c, 0, 63, 42
1, 49920, Tempo, 497265
1, 49920, Note_on_c, 0, 63, 0
1, 49920, Note_on_c, 0, 70, 0
1, 49920, Note_on_c, 0, 73, 0
1, 49920, Note_on_c, 0, 67, 65
1, 49920, Note_on_c, 0, 70, 65
1, 49920, Note_on_c, 0, 63, 42
1, 49937, Control_c, 0, 64, 0
1, 50146, Control_c, 0, 64, 127
1, 50160, Note_on_c, 0, 63, 0
1, 50160, Note_on_c, 0, 70, 0
1, 50160, Note_on_c, 0, 67, 0
1, 50160, Note_on_c, 0, 72, 60
1, 50160, Note_on_c, 0, 68, 60
1, 50160, Note_on_c, 0, 63, 44
1, 50400, Tempo, 488878
1, 50400, Note_on_c, 0, 68, 0
1, 50400, Note_on_c, 0, 72, 0
1, 50400, Note_on_c, 0, 70, 70
1, 50400, Note_on_c, 0, 73, 70
1, 50640, Tempo, 519570
1, 50640, Note_on_c, 0, 73, 0
1, 50640, Note_on_c, 0, 70, 0
1, 50640, Note_on_c, 0, 63, 0
1, 50640, Note_on_c, 0, 73, 59
1, 50640, Note_on_c, 0, 76, 59
1, 50640, Note_on_c, 0, 63, 42
1, 50880, Note_on_c, 0, 63, 0
1, 50880, Note_on_c, 0, 76, 0
1, 50880, Note_on_c, 0, 73, 0
1, 50880, Note_on_c, 0, 75, 53
1, 50880, Note_on_c, 0, 72, 53
1, 50880, Note_on_c, 0, 56, 49
1, 50891, Control_c, 0, 64, 0
1, 51093, Control_c, 0, 64, 127
1, 51120, Tempo, 528634
1, 51120, Note_on_c, 0, 56, 0
1, 51120, Note_on_c, 0, 63, 46
1, 51360, Note_on_c, 0, 63, 0
1, 51360, Note_on_c, 0, 68, 53
1, 51600, Note_on_c, 0, 68, 0
1, 51600, Note_on_c, 0, 67, 48
1, 51840, Tempo, 499376
1, 51840, Note_on_c, 0, 67, 0
1, 51840, Note_on_c, 0, 72, 0
1, 51840, Note_on_c, 0, 75, 0
1, 51840, Note_on_c, 0, 68, 39
1, 51840, Note_on_c, 0, 72, 39
1, 51840, Note_on_c, 0, 75, 47
1, 51840, Note_on_c, 0, 67, 54
1, 51850, Control_c, 0, 64, 0
1, 51996, Control_c, 0, 64, 127
1, 52080, Note_on_c, 0, 75, 0
1, 52080, Note_on_c, 0, 68, 0
1, 52080, Note_on_c, 0, 72, 0
1, 52080, Note_on_c, 0, 72, 35
1, 52080, Note_on_c, 0, 68, 35
1, 52080, Note_on_c, 0, 75, 42
1, 52320, Tempo, 484966
1, 52560, Tempo, 505774
1, 52560, Note_on_c, 0, 75, 0
1, 52560, Note_on_c, 0, 67, 0
1, 52560, Note_on_c, 0, 72, 0
1, 52560, Note_on_c, 0, 68, 0
1, 52560, Note_on_c, 0, 68, 31
1, 52560, Note_on_c, 0, 75, 37
1, 52560, Note_on_c, 0, 72, 31
1, 52560, Note_on_c, 0, 65, 50
1, 52800, Tempo, 497265
1, 52800, Note_on_c, 0, 65, 0
1, 52800, Note_on_c, 0, 68, 0
1, 52800, Note_on_c, 0, 75, 0
1, 52800, Note_on_c, 0, 72, 0
1, 52800, Note_on_c, 0, 68, 39
1, 52800, Note_on_c, 0, 75, 47
1, 52800, Note_on_c, 0, 72, 39
1, 52800, Note_on_c, 0, 60, 53
1, 52812, Control_c, 0, 64, 0
1, 52972, Control_c, 0, 64, 127
1, 53040, Note_on_c, 0, 72, 0
1, 53040, Note_on_c, 0, 68, 0
1, 53040, Note_on_c, 0, 75, 0
1, 53040, Note_on_c, 0, 75, 42
1, 53040, Note_on_c, 0, 72, 35
1, 53040, Note_on_c, 0, 68, 35
1, 53280, Tempo, 490517
1, 53280, Note_on_c, 0, 60, 0
1, 53280, Note_on_c, 0, 59, 48
1, 53520, Note_on_c, 0, 59, 0
1, 53520, Note_on_c, 0, 68, 0
1, 53520, Note_on_c, 0, 72, 0
1, 53520, Note_on_c, 0, 75, 0
1, 53520, Note_on_c, 0, 72, 31
1, 53520, Note_on_c, 0, 68, 31
1, 53520, Note_on_c, 0, 75, 37
1, 53520, Note_on_c, 0, 60, 42
1, 53760, Tempo, 486973
1, 53760, Note_on_c, 0, 60, 0
1, 53760, Note_on_c, 0, 72, 0
1, 53760, Note_on_c, 0, 68, 0
1, 53760, Note_on_c, 0, 75, 0
1, 53760, Note_on_c, 0, 65, 53
1, 53773, Control_c, 0, 64, 0
1, 53887, Control_c, 0, 64, 127
1, 54000, Tempo, 497265
1, 54000, Note_on_c, 0, 68, 35
1, 54000, Note_on_c, 0, 75, 43
1, 54000, Note_on_c, 0, 72, 35
1, 54240, Tempo, 484966
1, 54240, Note_on_c, 0, 72, 0
1, 54240, Note_on_c, 0, 65, 0
1, 54240, Note_on_c, 0, 68, 0
1, 54240, Note_on_c, 0, 75, 0
1, 54240, Note_on_c, 0, 67, 51
1, 54480, Tempo, 501463
1, 54480, Note_on_c, 0, 68, 36
1, 54480, Note_on_c, 0, 72, 36
1, 54480, Note_on_c, 0, 75, 44
1, 54720, Note_on_c, 0, 75, 0
1, 54720, Note_on_c, 0, 67, 0
1, 54720, Note_on_c, 0, 68, 0
1, 54720, Note_on_c, 0, 72, 0
1, 54720, Note_on_c, 0, 67, 53
1, 54733, Control_c, 0, 64, 0
1, 54876, Control_c, 0, 64, 127
1, 54960, Note_on_c, 0, 72, 36
1, 54960, Note_on_c, 0, 75, 44
1, 54960, Note_on_c, 0, 68, 36
1, 55200, Note_on_c, 0, 68, 0
1, 55200, Note_on_c, 0, 67, 0
1, 55200, Note_on_c, 0, 72, 0
1, 55200, Note_on_c, 0, 75, 0
1, 55200, Note_on_c, 0, 65, 52
1, 55440, Note_on_c, 0, 68, 34
1, 55440, Note_on_c, 0, 72, 34
1, 55440, Note_on_c, 0, 75, 40
1, 55680, Tempo, 499376
1, 55680, Note_on_c, 0, 75, 0
1, 55680, Note_on_c, 0, 65, 0
1, 55680, Note_on_c, 0, 68, 0
1, 55680, Note_on_c, 0, 72, 0
1, 55680, Note_on_c, 0, 72, 35
1, 55680, Note_on_c, 0, 68, 35
1, 55680, Note_on_c, 0, 75, 42
1, 55680, Note_on_c, 0, 67, 54
1, 55691, Control_c, 0, 64, 0
1, 55878, Control_c, 0, 64, 127
1, 55920, Note_on_c, 0, 75, 0
1, 55920, Note_on_c, 0, 72, 0
1, 55920, Note_on_c, 0, 68, 0
1, 55920, Note_on_c, 0, 68, 35
1, 55920, Note_on_c, 0, 75, 42
1, 55920, Note_on_c, 0, 72, 35
1, 56160, Tempo, 484966
1, 56400, Tempo, 491803
1, 56400, Note_on_c, 0, 72, 0
1, 56400, Note_on_c, 0, 67, 0
1, 56400, Note_on_c, 0, 68, 0
1, 56400, Note_on_c, 0, 75, 0
1, 56400, Note_on_c, 0, 68, 31
1, 56400, Note_on_c, 0, 72, 31
1, 56400, Note_on_c, 0, 75, 37
1, 56400, Note_on_c, 0, 65, 50
1, 56640, Tempo, 485830
1, 56640, Note_on_c, 0, 65, 0
1, 56640, Note_on_c, 0, 68, 0
1, 56640, Note_on_c, 0, 72, 0
1, 56640, Note_on_c, 0, 75, 0
1, 56640, Note_on_c, 0, 72, 39
1, 56640, Note_on_c, 0, 75, 47
1, 56640, Note_on_c, 0, 68, 39
1, 56640, Note_on_c, 0, 60, 53
1, 56652, Control_c, 0, 64, 0
1, 56812, Control_c, 0, 64, 127
1, 56880, Note_on_c, 0, 68, 0
1, 56880, Note_on_c, 0, 72, 0
1, 56880, Note_on_c, 0, 75, 0
1, 56880, Note_on_c, 0, 68, 35
1, 56880, Note_on_c, 0, 72, 35
1, 56880, Note_on_c, 0, 75, 42
1, 57120, Tempo, 476190
1, 57120, Note_on_c, 0, 60, 0
1, 57120, Note_on_c, 0, 59, 48
1, 57360, Note_on_c, 0, 59, 0
1, 57360, Note_on_c, 0, 75, 0
1, 57360, Note_on_c, 0, 72, 0
1, 57360, Note_on_c, 0, 68, 0
1, 57360, Note_on_c, 0, 72, 31
1, 57360, Note_on_c, 0, 68, 31
1, 57360, Note_on_c, 0, 75, 37
1, 57360, Note_on_c, 0, 60, 42
1, 57600, Tempo, 481928
1, 57600, Note_on_c, 0, 60, 0
1, 57600, Note_on_c, 0, 72, 0
1, 57600, Note_on_c, 0, 68, 0
1, 57600, Note_on_c, 0, 75, 0
1, 57600, Note_on_c, 0, 65, 53
1, 57607, Control_c, 0, 64, 0
1, 57727, Control_c, 0, 64, 127
1, 57840, Note_on_c, 0, 65, 0
1, 57840, Note_on_c, 0, 68, 35
1, 57840, Note_on_c, 0, 75, 43
1, 57840, Note_on_c, 0, 72, 35
1, 57840, Note_on_c, 0, 67, 49
1, 58078, Note_on_c, 0, 68, 0
1, 58080, Tempo, 484966
1, 58080, Note_on_c, 0, 75, 0
1, 58080, Note_on_c, 0, 72, 0
1, 58080, Note_on_c, 0, 67, 0
1, 58080, Note_on_c, 0, 68, 51
1, 58320, Tempo, 502092
1, 58320, Note_on_c, 0, 68, 0
1, 58320, Note_on_c, 0, 68, 36
1, 58320, Note_on_c, 0, 75, 44
1, 58320, Note_on_c, 0, 72, 36
1, 58320, Note_on_c, 0, 67, 47
1, 58560, Tempo, 500000
1, 58560, Note_on_c, 0, 67, 0
1, 58560, Note_on_c, 0, 68, 0
1, 58560, Note_on_c, 0, 75, 0
1, 58560, Note_on_c, 0, 72, 0
1, 58560, Note_on_c, 0, 67, 53
1, 58574, Control_c, 0, 64, 0
1, 58786, Control_c, 0, 64, 127
1, 58800, Note_on_c, 0, 72, 36
1, 58800, Note_on_c, 0, 75, 44
1, 58800, Note_on_c, 0, 68, 36
1, 59040, Note_on_c, 0, 68, 0
1, 59040, Note_on_c, 0, 67, 0
1, 59040, Note_on_c, 0, 72, 0
1, 59040, Note_on_c, 0, 75, 0
1, 59040, Note_on_c, 0, 65, 52
1, 59280, Note_on_c, 0, 68, 34
1, 59280, Note_on_c, 0, 72, 34
1, 59280, Note_on_c, 0, 75, 40
1, 59520, Tempo, 514933
1, 59520, Note_on_c, 0, 75, 0
1, 59520, Note_on_c, 0, 65, 0
1, 59520, Note_on_c, 0, 68, 0
1, 59520, Note_on_c, 0, 72, 0
1, 59520, Note_on_c, 0, 80, 72
1, 59520, Note_on_c, 0, 84, 72
1, 59520, Note_on_c, 0, 34, 54
1, 59533, Control_c, 0, 64, 0
1, 59749, Control_c, 0, 64, 127
1, 59760, Tempo, 503778
1, 59760, Note_on_c, 0, 34, 0
1, 59760, Note_on_c, 0, 58, 47
1, 60000, Tempo, 484809
1, 60240, Tempo, 493056
1, 60240, Note_on_c, 0, 58, 0
1, 60240, Note_on_c, 0, 84, 0
1, 60240, Note_on_c, 0, 80, 0
1, 60240, Note_on_c, 0, 76, 57
1, 60240, Note_on_c, 0, 79, 57
1, 60240, Note_on_c, 0, 58, 38
1, 60480, Tempo, 490958
1, 60480, Note_on_c, 0, 58, 0
1, 60480, Note_on_c, 0, 79, 0
1, 60480, Note_on_c, 0, 76, 0
1, 60480, Note_on_c, 0, 82, 63
1, 60480, Note_on_c, 0, 79, 63
1, 60480, Note_on_c, 0, 58, 39
1, 60720, Note_on_c, 0, 58, 0
1, 60720, Note_on_c, 0, 58, 38
1, 60960, Tempo, 499459
1, 60960, Note_on_c, 0, 79, 0
1, 60960, Note_on_c, 0, 82, 0
1, 60960, Note_on_c, 0, 80, 61
1, 60960, Note_on_c, 0, 77, 61
1, 61200, Note_on_c, 0, 77, 0
1, 61200, Note_on_c, 0, 80, 0
1, 61200, Note_on_c, 0, 58, 0
1, 61200, Note_on_c, 0, 74, 56
1, 61200, Note_on_c, 0, 77, 56
1, 61200, Note_on_c, 0, 58, 36
1, 61440, Note_on_c, 0, 58, 0
1, 61440, Note_on_c, 0, 77, 0
1, 61440, Note_on_c, 0, 74, 0
1, 61440, Note_on_c, 0, 74, 63
1, 61440, Note_on_c, 0, 70, 63
1, 61440, Note_on_c, 0, 58, 39
1, 61453, Control_c, 0, 64, 0
1, 61610, Control_c, 0, 64, 127
1, 61680, Note_on_c, 0, 58, 0
1, 61680, Note_on_c, 0, 58, 38
1, 61920, Note_on_c, 0, 70, 0
1, 61920, Note_on_c, 0, 74, 0
1, 61920, Note_on_c, 0, 67, 54
1, 61920, Note_on_c, 0, 70, 54
1, 62160, Tempo, 506329
1, 62160, Note_on_c, 0, 58, 0
1, 62160, Note_on_c, 0, 58, 36
1, 62400, Note_on_c, 0, 58, 0
1, 62400, Note_on_c, 0, 70, 0
1, 62400, Note_on_c, 0, 67, 0
1, 62400, Note_on_c, 0, 64, 56
1, 62400, Note_on_c, 0, 67, 56
1, 62400, Note_on_c, 0, 58, 39
1, 62412, Control_c, 0, 64, 0
1, 62584, Control_c, 0, 64, 127
1, 62640, Note_on_c, 0, 58, 0
1, 62640, Note_on_c, 0, 58, 38
1, 62880, Tempo, 517241
1, 62880, Note_on_c, 0, 67, 0
1, 62880, Note_on_c, 0, 64, 0
1, 62880, Note_on_c, 0, 68, 52
1, 62880, Note_on_c, 0, 65, 52
1, 63120, Note_on_c, 0, 58, 0
1, 63120, Note_on_c, 0, 58, 36
1, 63360, Tempo, 508475
1, 63360, Note_on_c, 0, 58, 0
1, 63360, Note_on_c, 0, 65, 0
1, 63360, Note_on_c, 0, 68, 0
1, 63360, Note_on_c, 0, 66, 50
1, 63360, Note_on_c, 0, 71, 56
1, 63360, Note_on_c, 0, 57, 37
1, 63360, Note_on_c, 0, 63, 56
1, 63374, Control_c, 0, 64, 0
1, 63475, Control_c, 0, 64, 127
1, 63600, Note_on_c, 0, 57, 0
1, 63600, Note_on_c, 0, 57, 37
1, 63840, Tempo, 493827
1, 64080, Tempo, 510638
1, 64080, Note_on_c, 0, 57, 0
1, 64080, Note_on_c, 0, 71, 0
1, 64080, Note_on_c, 0, 73, 51
1, 64080, Note_on_c, 0, 57, 37
1, 64320, Tempo, 502092
1, 64320, Note_on_c, 0, 57, 0
1, 64320, Note_on_c, 0, 63, 0
1, 64320, Note_on_c, 0, 66, 0
1, 64320, Note_on_c, 0, 73, 0
1, 64320, Note_on_c, 0, 71, 54
1, 64320, Note_on_c, 0, 64, 46
1, 64320, Note_on_c, 0, 56, 39
1, 64332, Control_c, 0, 64, 0
1, 64492, Control_c, 0, 64, 127
1, 64560, Note_on_c, 0, 64, 0
1, 64560, Note_on_c, 0, 71, 0
1, 64560, Note_on_c, 0, 76, 55
1, 64800, Tempo, 508475
1, 64800, Note_on_c, 0, 76, 0
1, 64800, Note_on_c, 0, 56, 0
1, 64800, Note_on_c, 0, 78, 57
1, 65040, Tempo, 512821
1, 65040, Note_on_c, 0, 78, 0
1, 65040, Note_on_c, 0, 80, 59
1, 65280, Tempo, 517241
1, 65280, Note_on_c, 0, 80, 0
1, 65280, Note_on_c, 0, 83, 59
1, 65289, Control_c, 0, 64, 0
1, 65429, Control_c, 0, 64, 127
1, 65440, Tempo, 519481
1, 65520, Note_on_c, 0, 83, 0
1, 65520, Note_on_c, 0, 80, 57
1, 65560, Tempo, 521739
1, 65720, Tempo, 524017
1, 65760, Note_on_c, 0, 80, 0
1, 65760, Note_on_c, 0, 78, 55
1, 65840, Tempo, 526316
1, 65960, Tempo, 528634
1, 66000, Tempo, 571429
1, 66000, Note_on_c, 0, 78, 0
1, 66000, Note_on_c, 0, 76, 53
1, 66240, Note_on_c, 0, 76, 0
1, 66240, Note_on_c, 0, 75, 51
1, 66240, Note_on_c, 0, 68, 42
1, 66240, Note_on_c, 0, 65, 35
1, 66240, Note_on_c, 0, 58, 35
1, 66251, Control_c, 0, 64, 0
1, 66534, Control_c, 0, 64, 127
1, 66720, Note_on_c, 0, 75, 0
1, 66720, Note_on_c, 0, 74, 50
1, 67200, Tempo, 514933
1, 67200, Note_on_c, 0, 74, 0
1, 67200, Note_on_c, 0, 58, 0
1, 67200, Note_on_c, 0, 65, 0
1, 67200, Note_on_c, 0, 68, 0
1, 67200, Note_on_c, 0, 79, 52
1, 67200, Note_on_c, 0, 75, 52
1, 67200, Note_on_c, 0, 58, 38
1, 67200, Note_on_c, 0, 51, 32
1, 67210, Control_c, 0, 64, 0
1, 67384, Control_c, 0, 64, 127
1, 67440, Note_on_c, 0, 58, 0
1, 67440, Note_on_c, 0, 58, 35
1, 67680, Tempo, 503778
1, 67920, Tempo, 524292
1, 67920, Note_on_c, 0, 58, 0
1, 67920, Note_on_c, 0, 79, 0
1, 67920, Note_on_c, 0, 75, 0
1, 67920, Note_on_c, 0, 74, 50
1, 67920, Note_on_c, 0, 77, 50
1, 67920, Note_on_c, 0, 58, 33
1, 68160, Tempo, 514977
1, 68160, Note_on_c, 0, 58, 0
1, 68160, Note_on_c, 0, 51, 0
1, 68160, Note_on_c, 0, 74, 0
1, 68160, Note_on_c, 0, 77, 0
1, 68160, Note_on_c, 0, 80, 52
1, 68160, Note_on_c, 0, 77, 52
1, 68160, Note_on_c, 0, 58, 37
1, 68160, Note_on_c, 0, 51, 32
1, 68400, Note_on_c, 0, 58, 0
1, 68400, Note_on_c, 0, 58, 35
1, 68640, Tempo, 499459
1, 68640, Note_on_c, 0, 80, 0
1, 68640, Note_on_c, 0, 77, 0
1, 68640, Note_on_c, 0, 74, 52
1, 68640, Note_on_c, 0, 77, 52
1, 68880, Note_on_c, 0, 77, 0
1, 68880, Note_on_c, 0, 74, 0
1, 68880, Note_on_c, 0, 58, 0
1, 68880, Note_on_c, 0, 75, 50
1, 68880, Note_on_c, 0, 79, 50
1, 68880, Note_on_c, 0, 58, 34
1, 69120, Tempo, 508216
1, 69120, Note_on_c, 0, 58, 0
1, 69120, Note_on_c, 0, 51, 0
1, 69120, Note_on_c, 0, 75, 0
1, 69120, Note_on_c, 0, 79, 0
1, 69120, Note_on_c, 0, 72, 52
1, 69120, Note_on_c, 0, 75, 52
1, 69120, Note_on_c, 0, 58, 38
1, 69120, Note_on_c, 0, 51, 32
1, 69133, Control_c, 0, 64, 0
1, 69332, Control_c, 0, 64, 127
1, 69360, Note_on_c, 0, 58, 0
1, 69360, Note_on_c, 0, 58, 35
1, 69600, Tempo, 519570
1, 69600, Note_on_c, 0, 72, 0
1, 69600, Note_on_c, 0, 75, 0
1, 69600, Note_on_c, 0, 68, 49
1, 69600, Note_on_c, 0, 72, 49
1, 69840, Note_on_c, 0, 58, 0
1, 69840, Note_on_c, 0, 58, 33
1, 70080, Note_on_c, 0, 58, 0
1, 70080, Note_on_c, 0, 72, 0
1, 70080, Note_on_c, 0, 68, 0
1, 70080, Note_on_c, 0, 51, 0
1, 70080, Note_on_c, 0, 67, 47
1, 70080, Note_on_c, 0, 70, 47
1, 70080, Note_on_c, 0, 58, 37
1, 70080, Note_on_c, 0, 51, 32
1, 70090, Control_c, 0, 64, 0
1, 70236, Control_c, 0, 64, 127
1, 70320, Note_on_c, 0, 58, 0
1, 70320, Note_on_c, 0, 58, 35
1, 70560, Tempo, 514977
1, 70800, Note_on_c, 0, 58, 0
1, 70800, Note_on_c, 0, 58, 34
1, 71040, Tempo, 499459
1, 71040, Note_on_c, 0, 58, 0
1, 71040, Note_on_c, 0, 67, 0
1, 71040, Note_on_c, 0, 70, 0
1, 71040, Note_on_c, 0, 51, 0
1, 71040, Note_on_c, 0, 68, 51
1, 71040, Note_on_c, 0, 72, 51
1, 71040, Note_on_c, 0, 65, 37
1, 71040, Note_on_c, 0, 51, 32
1, 71050, Control_c, 0, 64, 0
1, 71238, Control_c, 0, 64, 127
1, 71280, Note_on_c, 0, 58, 35
1, 71520, Tempo, 488878
1, 71520, Note_on_c, 0, 72, 0
1, 71520, Note_on_c, 0, 74, 56
1, 71760, Tempo, 499459
1, 71760, Note_on_c, 0, 74, 0
1, 71760, Note_on_c, 0, 58, 0
1, 71760, Note_on_c, 0, 77, 55
1, 71760, Note_on_c, 0, 58, 34
1, 72000, Tempo, 508216
1, 72000, Note_on_c, 0, 58, 0
1, 72000, Note_on_c, 0, 68, 0
1, 72000, Note_on_c, 0, 51, 0
1, 72000, Note_on_c, 0, 65, 0
1, 72000, Note_on_c, 0, 77, 0
1, 72000, Note_on_c, 0, 68, 55
1, 72000, Note_on_c, 0, 74, 55
1, 72000, Note_on_c, 0, 65, 37
1, 72000, Note_on_c, 0, 51, 32
1, 72009, Control_c, 0, 64, 0
1, 72226, Control_c, 0, 64, 127
1, 72240, Note_on_c, 0, 58, 35
1, 72480, Note_on_c, 0, 74, 0
1, 72480, Note_on_c, 0, 70, 51
1, 72720, Note_on_c, 0, 58, 0
1, 72720, Note_on_c, 0, 58, 34
1, 72960, Tempo, 497265
1, 72960, Note_on_c, 0, 58, 0
1, 72960, Note_on_c, 0, 70, 0
1, 72960, Note_on_c, 0, 68, 0
1, 72960, Note_on_c, 0, 65, 0
1, 72960, Note_on_c, 0, 51, 0
1, 72960, Note_on_c, 0, 67, 51
1, 72960, Note_on_c, 0, 72, 51
1, 72960, Note_on_c, 0, 58, 37
1, 72960, Note_on_c, 0, 51, 32
1, 72977, Control_c, 0, 64, 0
1, 73144, Control_c, 0, 64, 127
1, 73200, Note_on_c, 0, 58, 0
1, 73200, Note_on_c, 0, 72, 0
1, 73200, Note_on_c, 0, 74, 49
1, 73200, Note_on_c, 0, 58, 35
1, 73440, Tempo, 488878
1, 73440, Note_on_c, 0, 74, 0
1, 73440, Note_on_c, 0, 79, 52
1, 73680, Tempo, 519570
1, 73680, Note_on_c, 0, 79, 0
1, 73680, Note_on_c, 0, 58, 0
1, 73680, Note_on_c, 0, 72, 50
1, 73680, Note_on_c, 0, 58, 34
1, 73920, Note_on_c, 0, 58, 0
1, 73920, Note_on_c, 0, 51, 0
1, 73920, Note_on_c, 0, 67, 0
1, 73920, Note_on_c, 0, 72, 0
1, 73920, Note_on_c, 0, 67, 47
1, 73920, Note_on_c, 0, 70, 47
1, 73920, Note_on_c, 0, 51, 32
1, 73920, Note_on_c, 0, 58, 37
1, 73930, Control_c, 0, 64, 0
1, 74133, Control_c, 0, 64, 127
1, 74160, Note_on_c, 0, 58, 0
1, 74160, Note_on_c, 0, 58, 35
1, 74640, Note_on_c, 0, 58, 0
1, 74640, Note_on_c, 0, 58, 34
1, 74880, Tempo, 510421
1, 74880, Note_on_c, 0, 58, 0
1, 74880, Note_on_c, 0, 67, 0
1, 74880, Note_on_c, 0, 70, 0
1, 74880, Note_on_c, 0, 51, 0
1, 74880, Note_on_c, 0, 74, 64
1, 74880, Note_on_c, 0, 70, 64
1, 74880, Note_on_c, 0, 62, 42
1, 74880, Note_on_c, 0, 55, 35
1, 74890, Control_c, 0, 64, 0
1, 75036, Control_c, 0, 64, 127
1, 75120, Note_on_c, 0, 62, 0
1, 75120, Note_on_c, 0, 62, 38
1, 75360, Tempo, 501588
1, 75600, Tempo, 510421
1, 75600, Note_on_c, 0, 62, 0
1, 75600, Note_on_c, 0, 74, 0
1, 75600, Note_on_c, 0, 70, 0
1, 75600, Note_on_c, 0, 67, 55
1, 75600, Note_on_c, 0, 70, 55
1, 75600, Note_on_c, 0, 62, 36
1, 75840, Tempo, 501588
1, 75840, Note_on_c, 0, 62, 0
1, 75840, Note_on_c, 0, 55, 0
1, 75840, Note_on_c, 0, 67, 0
1, 75840, Note_on_c, 0, 70, 0
1, 75840, Note_on_c, 0, 72, 51
1, 75840, Note_on_c, 0, 69, 60
1, 75840, Note_on_c, 0, 63, 40
1, 75840, Note_on_c, 0, 55, 35
1, 75852, Control_c, 0, 64, 0
1, 76000, Control_c, 0, 64, 127
1, 76080, Note_on_c, 0, 63, 0
1, 76080, Note_on_c, 0, 63, 38
1, 76320, Tempo, 486815
1, 76320, Note_on_c, 0, 72, 0
1, 76320, Note_on_c, 0, 78, 65
1, 76560, Note_on_c, 0, 78, 0
1, 76560, Note_on_c, 0, 63, 0
1, 76560, Note_on_c, 0, 81, 60
1, 76560, Note_on_c, 0, 63, 37
1, 76800, Tempo, 490958
1, 76800, Note_on_c, 0, 63, 0
1, 76800, Note_on_c, 0, 55, 0
1, 76800, Note_on_c, 0, 69, 0
1, 76800, Note_on_c, 0, 81, 0
1, 76800, Note_on_c, 0, 70, 57
1, 76800, Note_on_c, 0, 79, 64
1, 76800, Note_on_c, 0, 62, 43
1, 76800, Note_on_c, 0, 55, 38
1, 76817, Control_c, 0, 64, 0
1, 77026, Control_c, 0, 64, 127
1, 77040, Note_on_c, 0, 62, 0
1, 77040, Note_on_c, 0, 79, 0
1, 77040, Note_on_c, 0, 74, 56
1, 77040, Note_on_c, 0, 62, 37
1, 77280, Tempo, 488878
1, 77280, Note_on_c, 0, 62, 0
1, 77280, Note_on_c, 0, 55, 0
1, 77280, Note_on_c, 0, 70, 0
1, 77280, Note_on_c, 0, 74, 0
1, 77280, Note_on_c, 0, 69, 51
1, 77280, Note_on_c, 0, 72, 58
1, 77280, Note_on_c, 0, 55, 35
1, 77280, Note_on_c, 0, 63, 39
1, 77520, Tempo, 512689
1, 77520, Note_on_c, 0, 63, 0
1, 77520, Note_on_c, 0, 72, 0
1, 77520, Note_on_c, 0, 74, 53
1, 77520, Note_on_c, 0, 63, 35
1, 77760, Note_on_c, 0, 63, 0
1, 77760, Note_on_c, 0, 69, 0
1, 77760, Note_on_c, 0, 55, 0
1, 77760, Note_on_c, 0, 74, 0
1, 77760, Note_on_c, 0, 67, 47
1, 77760, Note_on_c, 0, 70, 47
1, 77760, Note_on_c, 0, 55, 31
1, 77760, Note_on_c, 0, 62, 36
1, 77773, Control_c, 0, 64, 0
1, 77973, Control_c, 0, 64, 127
1, 78000, Note_on_c, 0, 62, 0
1, 78000, Note_on_c, 0, 62, 34
1, 78480, Note_on_c, 0, 62, 0
1, 78480, Note_on_c, 0, 62, 33
1, 78720, Tempo, 495131
1, 78720, Note_on_c, 0, 62, 0
1, 78720, Note_on_c, 0, 67, 0
1, 78720, Note_on_c, 0, 70, 0
1, 78720, Note_on_c, 0, 55, 0
1, 78720, Note_on_c, 0, 70, 51
1, 78720, Note_on_c, 0, 77, 60
1, 78720, Note_on_c, 0, 53, 42
1, 78720, Note_on_c, 0, 62, 60
1, 78734, Control_c, 0, 64, 0
1, 78857, Control_c, 0, 64, 127
1, 78960, Tempo, 508216
1, 78960, Note_on_c, 0, 53, 0
1, 78960, Note_on_c, 0, 53, 42
1, 79440, Tempo, 497265
1, 79440, Note_on_c, 0, 70, 0
1, 79440, Note_on_c, 0, 62, 0
1, 79440, Note_on_c, 0, 77, 0
1, 79440, Note_on_c, 0, 69, 49
1, 79440, Note_on_c, 0, 79, 58
1, 79440, Note_on_c, 0, 63, 47
1, 79640, Tempo, 501588
1, 79680, Tempo, 493056
1, 79680, Note_on_c, 0, 63, 0
1, 79680, Note_on_c, 0, 79, 0
1, 79680, Note_on_c, 0, 75, 57
1, 79680, Note_on_c, 0, 60, 48
1, 79692, Control_c, 0, 64, 0
1, 79800, Tempo, 495131
1, 79863, Control_c, 0, 64, 127
1, 79920, Tempo, 497265
1, 79920, Note_on_c, 0, 60, 0
1, 79920, Note_on_c, 0, 75, 0
1, 79920, Note_on_c, 0, 77, 60
1, 79920, Note_on_c, 0, 62, 49
1, 80040, Tempo, 499459
1, 80120, Tempo, 501588
1, 80160, Note_on_c, 0, 62, 0
1, 80160, Note_on_c, 0, 77, 0
1, 80160, Note_on_c, 0, 79, 64
1, 80160, Note_on_c, 0, 63, 50
1, 80240, Tempo, 503778
1, 80360, Tempo, 505945
1, 80400, Note_on_c, 0, 63, 0
1, 80400, Note_on_c, 0, 79, 0
1, 80400, Note_on_c, 0, 81, 61
1, 80400, Note_on_c, 0, 65, 50
1, 80480, Tempo, 508216
1, 80560, Tempo, 510421
1, 80600, Tempo, 512689
1, 80640, Tempo, 505945
1, 80640, Note_on_c, 0, 65, 0
1, 80640, Note_on_c, 0, 53, 0
1, 80640, Note_on_c, 0, 69, 0
1, 80640, Note_on_c, 0, 81, 0
1, 80640, Note_on_c, 0, 70, 58
1, 80640, Note_on_c, 0, 77, 69
1, 80640, Note_on_c, 0, 62, 56
1, 80649, Control_c, 0, 64, 0
1, 80731, Control_c, 0, 64, 127
1, 80880, Tempo, 512689
1, 80880, Note_on_c, 0, 62, 0
1, 80880, Note_on_c, 0, 77, 0
1, 80880, Note_on_c, 0, 70, 0
1, 80880, Note_on_c, 0, 68, 48
1, 80880, Note_on_c, 0, 74, 57
1, 80880, Note_on_c, 0, 59, 49
1, 81120, Tempo, 508216
1, 81120, Note_on_c, 0, 59, 0
1, 81120, Note_on_c, 0, 74, 0
1, 81120, Note_on_c, 0, 68, 0
1, 81120, Note_on_c, 0, 69, 52
1, 81120, Note_on_c, 0, 75, 61
1, 81120, Note_on_c, 0, 60, 52
1, 81134, Control_c, 0, 64, 0
1, 81246, Control_c, 0, 64, 127
1, 81360, Tempo, 514977
1, 81360, Note_on_c, 0, 60, 0
1, 81360, Note_on_c, 0, 75, 0
1, 81360, Note_on_c, 0, 69, 0
1, 81360, Note_on_c, 0, 65, 46
1, 81360, Note_on_c, 0, 73, 54
1, 81360, Note_on_c, 0, 57, 48
1, 81600, Note_on_c, 0, 57, 0
1, 81600, Note_on_c, 0, 73, 0
1, 81600, Note_on_c, 0, 74, 59
1, 81600, Note_on_c, 0, 58, 51
1, 81610, Control_c, 0, 64, 0
1, 81772, Control_c, 0, 64, 127
1, 81840, Tempo, 526685
1, 81840, Note_on_c, 0, 74, 0
1, 81840, Note_on_c, 0, 68, 38
1, 81840, Note_on_c, 0, 72, 52
1, 81840, Note_on_c, 0, 63, 39
1, 82080, Note_on_c, 0, 63, 0
1, 82080, Note_on_c, 0, 72, 0
1, 82080, Note_on_c, 0, 71, 46
1, 82080, Note_on_c, 0, 62, 36
1, 82320, Tempo, 551471
1, 82320, Note_on_c, 0, 71, 0
1, 82320, Note_on_c, 0, 68, 0
1, 82320, Note_on_c, 0, 70, 43
1, 82560, Tempo, 503778
1, 82560, Note_on_c, 0, 70, 0
1, 82560, Note_on_c, 0, 62, 0
1, 82560, Note_on_c, 0, 58, 0
1, 82560, Note_on_c, 0, 65, 0
1, 82560, Note_on_c, 0, 79, 52
1, 82560, Note_on_c, 0, 75, 52
1, 82560, Note_on_c, 0, 58, 38
1, 82560, Note_on_c, 0, 51, 32
1, 82570, Control_c, 0, 64, 0
1, 82680, Tempo, 512689
1, 82730, Control_c, 0, 64, 127
1, 82800, Note_on_c, 0, 58, 0
1, 82800, Note_on_c, 0, 58, 35
1, 83040, Tempo, 499459
1, 83280, Tempo, 517286
1, 83280, Note_on_c, 0, 58, 0
1, 83280, Note_on_c, 0, 79, 0
1, 83280, Note_on_c, 0, 75, 0
1, 83280, Note_on_c, 0, 74, 50
1, 83280, Note_on_c, 0, 77, 50
1, 83280, Note_on_c, 0, 58, 33
1, 83520, Tempo, 510421
1, 83520, Note_on_c, 0, 58, 0
1, 83520, Note_on_c, 0, 51, 0
1, 83520, Note_on_c, 0, 74, 0
1, 83520, Note_on_c, 0, 77, 0
1, 83520, Note_on_c, 0, 80, 52
1, 83520, Note_on_c, 0, 77, 52
1, 83520, Note_on_c, 0, 58, 37
1, 83520, Note_on_c, 0, 51, 32
1, 83760, Note_on_c, 0, 58, 0
1, 83760, Note_on_c, 0, 58, 35
1, 84000, Tempo, 499459
1, 84000, Note_on_c, 0, 80, 0
1, 84000, Note_on_c, 0, 77, 0
1, 84000, Note_on_c, 0, 74, 52
1, 84000, Note_on_c, 0, 77, 52
1, 84240, Note_on_c, 0, 77, 0
1, 84240, Note_on_c, 0, 74, 0
1, 84240, Note_on_c, 0, 58, 0
1, 84240, Note_on_c, 0, 75, 50
1, 84240, Note_on_c, 0, 79, 50
1, 84240, Note_on_c, 0, 58, 34
1, 84480, Tempo, 508216
1, 84480, Note_on_c, 0, 58, 0
1, 84480, Note_on_c, 0, 51, 0
1, 84480, Note_on_c, 0, 75, 0
1, 84480, Note_on_c, 0, 79, 0
1, 84480, Note_on_c, 0, 72, 52
1, 84480, Note_on_c, 0, 75, 52
1, 84480, Note_on_c, 0, 58, 38
1, 84480, Note_on_c, 0, 51, 32
1, 84494, Control_c, 0, 64, 0
1, 84692, Control_c, 0, 64, 127
1, 84720, Note_on_c, 0, 58, 0
1, 84720, Note_on_c, 0, 58, 35
1, 84960, Tempo, 519570
1, 84960, Note_on_c, 0, 72, 0
1, 84960, Note_on_c, 0, 75, 0
1, 84960, Note_on_c, 0, 68, 49
1, 84960, Note_on_c, 0, 72, 49
1, 85200, Note_on_c, 0, 58, 0
1, 85200, Note_on_c, 0, 58, 33
1, 85440, Note_on_c, 0, 58, 0
1, 85440, Note_on_c, 0, 72, 0
1, 85440, Note_on_c, 0, 68, 0
1, 85440, Note_on_c, 0, 51, 0
1, 85440, Note_on_c, 0, 67, 47
1, 85440, Note_on_c, 0, 70, 47
1, 85440, Note_on_c, 0, 58, 37
1, 85440, Note_on_c, 0, 51, 32
1, 85450, Control_c, 0, 64, 0
1, 85596, Control_c, 0, 64, 127
1, 85680, Note_on_c, 0, 58, 0
1, 85680, Note_on_c, 0, 58, 35
1, 85920, Tempo, 514977
1, 86160, Note_on_c, 0, 58, 0
1, 86160, Note_on_c, 0, 58, 34
1, 86400, Tempo, 499459
1, 86400, Note_on_c, 0, 58, 0
1, 86400, Note_on_c, 0, 67, 0
1, 86400, Note_on_c, 0, 70, 0
1, 86400, Note_on_c, 0, 51, 0
1, 86400, Note_on_c, 0, 68, 51
1, 86400, Note_on_c, 0, 72, 51
1, 86400, Note_on_c, 0, 65, 37
1, 86400, Note_on_c, 0, 51, 32
1, 86412, Control_c, 0, 64, 0
1, 86626, Control_c, 0, 64, 127
1, 86640, Note_on_c, 0, 58, 35
1, 86880, Tempo, 488878
1, 86880, Note_on_c, 0, 72, 0
1, 86880, Note_on_c, 0, 74, 56
1, 87120, Tempo, 499459
1, 87120, Note_on_c, 0, 74, 0
1, 87120, Note_on_c, 0, 58, 0
1, 87120, Note_on_c, 0, 77, 55
1, 87120, Note_on_c, 0, 58, 34
1, 87360, Tempo, 508216
1, 87360, Note_on_c, 0, 58, 0
1, 87360, Note_on_c, 0, 68, 0
1, 87360, Note_on_c, 0, 51, 0
1, 87360, Note_on_c, 0, 65, 0
1, 87360, Note_on_c, 0, 77, 0
1, 87360, Note_on_c, 0, 68, 55
1, 87360, Note_on_c, 0, 74, 55
1, 87360, Note_on_c, 0, 65, 37
1, 87360, Note_on_c, 0, 51, 32
1, 87371, Control_c, 0, 64, 0
1, 87516, Control_c, 0, 64, 127
1, 87600, Note_on_c, 0, 58, 35
1, 87840, Note_on_c, 0, 74, 0
1, 87840, Note_on_c, 0, 70, 51
1, 88080, Note_on_c, 0, 58, 0
1, 88080, Note_on_c, 0, 58, 34
1, 88320, Tempo, 497265
1, 88320, Note_on_c, 0, 58, 0
1, 88320, Note_on_c, 0, 70, 0
1, 88320, Note_on_c, 0, 68, 0
1, 88320, Note_on_c, 0, 65, 0
1, 88320, Note_on_c, 0, 51, 0
1, 88320, Note_on_c, 0, 67, 51
1, 88320, Note_on_c, 0, 72, 51
1, 88320, Note_on_c, 0, 58, 37
1, 88320, Note_on_c, 0, 51, 32
1, 88337, Control_c, 0, 64, 0
1, 88490, Control_c, 0, 64, 127
1, 88560, Note_on_c, 0, 58, 0
1, 88560, Note_on_c, 0, 72, 0
1, 88560, Note_on_c, 0, 74, 49
1, 88560, Note_on_c, 0, 58, 35
1, 88800, Tempo, 488878
1, 88800, Note_on_c, 0, 74, 0
1, 88800, Note_on_c, 0, 79, 52
1, 89040, Tempo, 519570
1, 89040, Note_on_c, 0, 79, 0
1, 89040, Note_on_c, 0, 58, 0
1, 89040, Note_on_c, 0, 72, 50
1, 89040, Note_on_c, 0, 58, 34
1, 89280, Note_on_c, 0, 58, 0
1, 89280, Note_on_c, 0, 51, 0
1, 89280, Note_on_c, 0, 67, 0
1, 89280, Note_on_c, 0, 72, 0
1, 89280, Note_on_c, 0, 67, 47
1, 89280, Note_on_c, 0, 70, 47
1, 89280, Note_on_c, 0, 51, 32
1, 89280, Note_on_c, 0, 58, 37
1, 89296, Control_c, 0, 64, 0
1, 89436, Control_c, 0, 64, 127
1, 89520, Note_on_c, 0, 58, 0
1, 89520, Note_on_c, 0, 58, 35
1, 90000, Note_on_c, 0, 58, 0
1, 90000, Note_on_c, 0, 58, 34
1, 90240, Tempo, 497925
1, 90240, Note_on_c, 0, 58, 0
1, 90240, Note_on_c, 0, 67, 0
1, 90240, Note_on_c, 0, 70, 0
1, 90240, Note_on_c, 0, 51, 0
1, 90240, Note_on_c, 0, 67, 47
1, 90240, Note_on_c, 0, 73, 55
1, 90240, Note_on_c, 0, 65, 52
1, 90256, Control_c, 0, 64, 0
1, 90381, Control_c, 0, 64, 127
1, 90480, Tempo, 506329
1, 90480, Note_on_c, 0, 65, 0
1, 90480, Note_on_c, 0, 51, 47
1, 90960, Tempo, 495868
1, 90960, Note_on_c, 0, 51, 0
1, 90960, Note_on_c, 0, 73, 0
1, 90960, Note_on_c, 0, 67, 0
1, 90960, Note_on_c, 0, 67, 45
1, 90960, Note_on_c, 0, 72, 53
1, 90960, Note_on_c, 0, 63, 40
1, 91200, Tempo, 487805
1, 91200, Note_on_c, 0, 63, 0
1, 91200, Note_on_c, 0, 72, 0
1, 91200, Note_on_c, 0, 67, 0
1, 91200, Note_on_c, 0, 67, 47
1, 91200, Note_on_c, 0, 72, 56
1, 91200, Note_on_c, 0, 63, 49
1, 91212, Control_c, 0, 64, 0
1, 91327, Control_c, 0, 64, 127
1, 91440, Tempo, 491803
1, 91440, Note_on_c, 0, 63, 0
1, 91440, Note_on_c, 0, 62, 42
1, 91680, Tempo, 502092
1, 91680, Note_on_c, 0, 62, 0
1, 91680, Note_on_c, 0, 61, 39
1, 91920, Note_on_c, 0, 72, 0
1, 91920, Note_on_c, 0, 70, 52
1, 92160, Tempo, 489796
1, 92160, Note_on_c, 0, 70, 0
1, 92160, Note_on_c, 0, 61, 0
1, 92160, Note_on_c, 0, 67, 0
1, 92160, Note_on_c, 0, 63, 45
1, 92160, Note_on_c, 0, 67, 53
1, 92160, Note_on_c, 0, 59, 49
1, 92171, Control_c, 0, 64, 0
1, 92332, Control_c, 0, 64, 127
1, 92400, Note_on_c, 0, 59, 0
1, 92400, Note_on_c, 0, 67, 0
1, 92400, Note_on_c, 0, 68, 55
1, 92400, Note_on_c, 0, 60, 46
1, 92640, Tempo, 497925
1, 92640, Note_on_c, 0, 60, 0
1, 92640, Note_on_c, 0, 68, 0
1, 92640, Note_on_c, 0, 63, 0
1, 92640, Note_on_c, 0, 71, 56
1, 92640, Note_on_c, 0, 55, 52
1, 92880, Note_on_c, 0, 55, 0
1, 92880, Note_on_c, 0, 71, 0
1, 92880, Note_on_c, 0, 72, 57
1, 92880, Note_on_c, 0, 56, 47
1, 93120, Tempo, 508475
1, 93120, Note_on_c, 0, 56, 0
1, 93120, Note_on_c, 0, 72, 0
1, 93120, Note_on_c, 0, 74, 59
1, 93120, Note_on_c, 0, 59, 51
1, 93134, Control_c, 0, 64, 0
1, 93257, Control_c, 0, 64, 127
1, 93360, Tempo, 519481
1, 93360, Note_on_c, 0, 59, 0
1, 93360, Note_on_c, 0, 74, 0
1, 93360, Note_on_c, 0, 75, 56
1, 93360, Note_on_c, 0, 60, 48
1, 93600, Note_on_c, 0, 60, 0
1, 93600, Note_on_c, 0, 75, 0
1, 93600, Note_on_c, 0, 72, 47
1, 93600, Note_on_c, 0, 75, 47
1, 93600, Note_on_c, 0, 80, 61
1, 93600, Note_on_c, 0, 53, 45
1, 93840, Note_on_c, 0, 80, 0
1, 93840, Note_on_c, 0, 72, 0
1, 93840, Note_on_c, 0, 75, 0
1, 93840, Note_on_c, 0, 63, 38
1, 93840, Note_on_c, 0, 68, 38
1, 93840, Note_on_c, 0, 72, 55
1, 94080, Tempo, 514933
1, 94080, Note_on_c, 0, 72, 0
1, 94080, Note_on_c, 0, 53, 0
1, 94080, Note_on_c, 0, 63, 0
1, 94080, Note_on_c, 0, 68, 0
1, 94080, Note_on_c, 0, 63, 44
1, 94080, Note_on_c, 0, 72, 52
1, 94080, Note_on_c, 0, 68, 44
1, 94080, Note_on_c, 0, 46, 44
1, 94090, Control_c, 0, 64, 0
1, 94221, Control_c, 0, 64, 127
1, 94320, Note_on_c, 0, 46, 0
1, 94320, Note_on_c, 0, 58, 36
1, 94560, Tempo, 503778
1, 94800, Tempo, 524292
1, 94800, Note_on_c, 0, 58, 0
1, 94800, Note_on_c, 0, 68, 0
1, 94800, Note_on_c, 0, 72, 0
1, 94800, Note_on_c, 0, 63, 0
1, 94800, Note_on_c, 0, 65, 42
1, 94800, Note_on_c, 0, 68, 42
1, 94800, Note_on_c, 0, 74, 50
1, 94800, Note_on_c, 0, 58, 36
1, 95040, Tempo, 514977
1, 95040, Note_on_c, 0, 74, 0
1, 95040, Note_on_c, 0, 65, 0
1, 95040, Note_on_c, 0, 68, 0
1, 95040, Note_on_c, 0, 63, 44
1, 95040, Note_on_c, 0, 72, 52
1, 95040, Note_on_c, 0, 68, 44
1, 95280, Note_on_c, 0, 58, 0
1, 95280, Note_on_c, 0, 58, 35
1, 95520, Tempo, 499459
1, 95520, Note_on_c, 0, 63, 0
1, 95520, Note_on_c, 0, 68, 0
1, 95520, Note_on_c, 0, 72, 0
1, 95520, Note_on_c, 0, 62, 40
1, 95520, Note_on_c, 0, 68, 40
1, 95520, Note_on_c, 0, 70, 49
1, 95760, Note_on_c, 0, 58, 0
1, 95760, Note_on_c, 0, 58, 34
1, 96000, Tempo, 514933
1, 96000, Note_on_c, 0, 58, 0
1, 96000, Note_on_c, 0, 70, 0
1, 96000, Note_on_c, 0, 68, 0
1, 96000, Note_on_c, 0, 62, 0
1, 96000, Note_on_c, 0, 67, 52
1, 96000, Note_on_c, 0, 63, 44
1, 96000, Note_on_c, 0, 46, 44
1, 96014, Control_c, 0, 64, 0
1, 96141, Control_c, 0, 64, 127
1, 96240, Note_on_c, 0, 46, 0
1, 96240, Note_on_c, 0, 58, 48
1, 96480, Tempo, 503778
1, 96720, Tempo, 524292
1, 96720, Note_on_c, 0, 58, 0
1, 96720, Note_on_c, 0, 63, 0
1, 96720, Note_on_c, 0, 67, 0
1, 96720, Note_on_c, 0, 63, 42
1, 96720, Note_on_c, 0, 70, 50
1, 96720, Note_on_c, 0, 62, 36
1, 96960, Tempo, 514977
1, 96960, Note_on_c, 0, 70, 0
1, 96960, Note_on_c, 0, 63, 0
1, 96960, Note_on_c, 0, 63, 44
1, 96960, Note_on_c, 0, 68, 52
1, 97200, Note_on_c, 0, 62, 0
1, 97200, Note_on_c, 0, 60, 35
1, 97440, Tempo, 499459
1, 97440, Note_on_c, 0, 68, 0
1, 97440, Note_on_c, 0, 63, 0
1, 97440, Note_on_c, 0, 63, 40
1, 97440, Note_on_c, 0, 67, 49
1, 97680, Note_on_c, 0, 60, 0
1, 97680, Note_on_c, 0, 58, 34
1, 97920, Tempo, 487805
1, 97920, Note_on_c, 0, 58, 0
1, 97920, Note_on_c, 0, 67, 0
1, 97920, Note_on_c, 0, 63, 0
1, 97920, Note_on_c, 0, 60, 47
1, 97920, Note_on_c, 0, 65, 47
1, 97920, Note_on_c, 0, 46, 33
1, 97920, Note_on_c, 0, 56, 33
1, 97932, Control_c, 0, 64, 0
1, 98090, Control_c, 0, 64, 127
1, 98160, Note_on_c, 0, 56, 0
1, 98160, Note_on_c, 0, 60, 0
1, 98160, Note_on_c, 0, 65, 0
1, 98160, Note_on_c, 0, 46, 0
1, 98160, Note_on_c, 0, 63, 38
1, 98160, Note_on_c, 0, 68, 38
1, 98160, Note_on_c, 0, 60, 30
1, 98400, Tempo, 491803
1, 98400, Note_on_c, 0, 60, 0
1, 98400, Note_on_c, 0, 68, 0
1, 98400, Note_on_c, 0, 63, 0
1, 98400, Note_on_c, 0, 60, 46
1, 98400, Note_on_c, 0, 65, 46
1, 98400, Note_on_c, 0, 56, 32
1, 98640, Tempo, 497925
1, 98640, Note_on_c, 0, 56, 0
1, 98640, Note_on_c, 0, 65, 0
1, 98640, Note_on_c, 0, 60, 0
1, 98640, Note_on_c, 0, 62, 37
1, 98640, Note_on_c, 0, 67, 37
1, 98640, Note_on_c, 0, 58, 30
1, 98880, Tempo, 515021
1, 98880, Note_on_c, 0, 58, 0
1, 98880, Note_on_c, 0, 67, 0
1, 98880, Note_on_c, 0, 62, 0
1, 98880, Note_on_c, 0, 60, 42
1, 98880, Note_on_c, 0, 65, 42
1, 98880, Note_on_c, 0, 56, 31
1, 98890, Control_c, 0, 64, 0
1, 99094, Control_c, 0, 64, 127
1, 99360, Note_on_c, 0, 56, 0
1, 99360, Note_on_c, 0, 65, 0
1, 99360, Note_on_c, 0, 60, 0
1, 99360, Note_on_c, 0, 62, 37
1, 99360, Note_on_c, 0, 67, 37
1, 99360, Note_on_c, 0, 70, 37
1, 99360, Note_on_c, 0, 46, 28
1, 99360, Note_on_c, 0, 56, 28
1, 99840, Tempo, 514933
1, 99840, Note_on_c, 0, 56, 0
1, 99840, Note_on_c, 0, 70, 0
1, 99840, Note_on_c, 0, 62, 0
1, 99840, Note_on_c, 0, 67, 0
1, 99840, Note_on_c, 0, 46, 0
1, 99840, Control_c, 0, 64, 0
1, 99840, Note_on_c, 0, 46, 32
1, 99840, Note_on_c, 0, 39, 28
1, 100052, Control_c, 0, 64, 127
1, 100080, Note_on_c, 0, 46, 0
1, 100080, Note_on_c, 0, 46, 30
1, 100560, Note_on_c, 0, 46, 0
1, 100560, Note_on_c, 0, 46, 28
1, 100800, Note_on_c, 0, 46, 0
1, 100800, Note_on_c, 0, 39, 0
1, 100800, Note_on_c, 0, 46, 30
1, 100800, Note_on_c, 0, 39, 27
1, 101040, Note_on_c, 0, 46, 0
1, 101040, Note_on_c, 0, 46, 28
1, 101520, Note_on_c, 0, 46, 0
1, 101520, Note_on_c, 0, 46, 27
1, 101760, Note_on_c, 0, 46, 0
1, 101760, Note_on_c, 0, 39, 0
1, 101760, Note_on_c, 0, 79, 42
1, 101760, Note_on_c, 0, 75, 42
1, 101760, Note_on_c, 0, 46, 29
1, 101760, Note_on_c, 0, 39, 25
1, 101772, Control_c, 0, 64, 0
1, 101944, Control_c, 0, 64, 127
1, 102000, Note_on_c, 0, 46, 0
1, 102000, Note_on_c, 0, 46, 27
1, 102240, Tempo, 503778
1, 102480, Tempo, 524292
1, 102480, Note_on_c, 0, 46, 0
1, 102480, Note_on_c, 0, 79, 0
1, 102480, Note_on_c, 0, 75, 0
1, 102480, Note_on_c, 0, 74, 38
1, 102480, Note_on_c, 0, 77, 38
1, 102480, Note_on_c, 0, 46, 26
1, 102720, Tempo, 514977
1, 102720, Note_on_c, 0, 46, 0
1, 102720, Note_on_c, 0, 39, 0
1, 102720, Note_on_c, 0, 74, 0
1, 102720, Note_on_c, 0, 77, 0
1, 102720, Note_on_c, 0, 80, 39
1, 102720, Note_on_c, 0, 77, 39
1, 102720, Note_on_c, 0, 46, 28
1, 102720, Note_on_c, 0, 39, 23
1, 102960, Note_on_c, 0, 46, 0
1, 102960, Note_on_c, 0, 46, 26
1, 103200, Tempo, 521739
1, 103200, Note_on_c, 0, 80, 0
1, 103200, Note_on_c, 0, 77, 0
1, 103200, Note_on_c, 0, 74, 38
1, 103200, Note_on_c, 0, 77, 38
1, 103440, Note_on_c, 0, 77, 0
1, 103440, Note_on_c, 0, 74, 0
1, 103440, Note_on_c, 0, 46, 0
1, 103440, Note_on_c, 0, 75, 35
1, 103440, Note_on_c, 0, 79, 35
1, 103440, Note_on_c, 0, 46, 25
1, 103680, Tempo, 530973
1, 103680, Note_on_c, 0, 46, 0
1, 103680, Note_on_c, 0, 39, 0
1, 103680, Note_on_c, 0, 75, 0
1, 103680, Note_on_c, 0, 79, 0
1, 103680, Note_on_c, 0, 72, 35
1, 103680, Note_on_c, 0, 75, 35
1, 103680, Note_on_c, 0, 46, 26
1, 103680, Note_on_c, 0, 39, 21
1, 103692, Control_c, 0, 64, 0
1, 103836, Control_c, 0, 64, 127
1, 103920, Note_on_c, 0, 46, 0
1, 103920, Note_on_c, 0, 46, 25
1, 104160, Tempo, 547945
1, 104160, Note_on_c, 0, 72, 0
1, 104160, Note_on_c, 0, 75, 0
1, 104160, Note_on_c, 0, 68, 31
1, 104160, Note_on_c, 0, 72, 31
1, 104400, Note_on_c, 0, 46, 0
1, 104400, Note_on_c, 0, 46, 21
1, 104640, Note_on_c, 0, 46, 0
1, 104640, Note_on_c, 0, 72, 0
1, 104640, Note_on_c, 0, 68, 0
1, 104640, Note_on_c, 0, 39, 0
1, 104640, Note_on_c, 0, 67, 29
1, 104640, Note_on_c, 0, 70, 29
1, 104640, Note_on_c, 0, 46, 25
1, 104640, Note_on_c, 0, 39, 19
1, 104651, Control_c, 0, 64, 0
1, 104810, Control_c, 0, 64, 127
1, 104880, Note_on_c, 0, 46, 0
1, 104880, Note_on_c, 0, 46, 21
1, 105120, Tempo, 514977
1, 105360, Note_on_c, 0, 46, 0
1, 105360, Note_on_c, 0, 46, 19
1, 105600, Tempo, 524017
1, 105600, Note_on_c, 0, 46, 0
1, 105600, Note_on_c, 0, 67, 0
1, 105600, Note_on_c, 0, 70, 0
1, 105600, Note_on_c, 0, 39, 0
1, 105600, Note_on_c, 0, 54, 25
1, 105600, Note_on_c, 0, 57, 25
1, 105600, Note_on_c, 0, 63, 29
1, 105600, Note_on_c, 0, 47, 23
1, 105600, Note_on_c, 0, 39, 18
1, 105612, Control_c, 0, 64, 0
1, 105783, Control_c, 0, 64, 127
1, 105840, Note_on_c, 0, 47, 0
1, 105840, Note_on_c, 0, 47, 19
1, 106320, Note_on_c, 0, 47, 0
1, 106320, Note_on_c, 0, 47, 17
1, 106560, Note_on_c, 0, 47, 0
1, 106560, Note_on_c, 0, 39, 0
1, 106560, Note_on_c, 0, 47, 19
1, 106560, Note_on_c, 0, 39, 16
1, 106800, Note_on_c, 0, 47, 0
1, 106800, Note_on_c, 0, 47, 17
1, 107280, Note_on_c, 0, 47, 0
1, 107280, Note_on_c, 0, 47, 15
1, 107480, Tempo, 526316
1, 107520, Time_signature, 4, 2, 24, 8
1, 107520, Note_on_c, 0, 47, 0
1, 107520, Note_on_c, 0, 54, 0
1, 107520, Note_on_c, 0, 63, 0
1, 107520, Note_on_c, 0, 57, 0
1, 107520, Note_on_c, 0, 39, 0
1, 107520, Note_on_c, 0, 87, 39
1, 107520, Note_on_c, 0, 79, 39
1, 107520, Note_on_c, 0, 39, 33
1, 107531, Control_c, 0, 64, 0
1, 107591, Control_c, 0, 64, 127
1, 107640, Tempo, 528634
1, 107760, Note_on_c, 0, 39, 0
1, 107760, Note_on_c, 0, 46, 29
1, 107800, Tempo, 530973
1, 107920, Tempo, 533333
1, 108000, Note_on_c, 0, 46, 0
1, 108000, Note_on_c, 0, 51, 34
1, 108080, Tempo, 535714
1, 108200, Tempo, 538117
1, 108240, Note_on_c, 0, 51, 0
1, 108240, Note_on_c, 0, 55, 31
1, 108360, Tempo, 540541
1, 108480, Tempo, 542986
1, 108480, Note_on_c, 0, 55, 0
1, 108480, Note_on_c, 0, 58, 36
1, 108960, Note_on_c, 0, 79, 0
1, 108960, Note_on_c, 0, 87, 0
1, 108960, Note_on_c, 0, 89, 34
1, 109040, Note_on_c, 0, 89, 0
1, 109040, Note_on_c, 0, 91, 33
1, 109120, Note_on_c, 0, 91, 0
1, 109120, Note_on_c, 0, 89, 33
1, 109200, Note_on_c, 0, 89, 0
1, 109200, Note_on_c, 0, 87, 32
1, 109280, Note_on_c, 0, 87, 0
1, 109280, Note_on_c, 0, 84, 31
1, 109360, Note_on_c, 0, 84, 0
1, 109360, Note_on_c, 0, 82, 31
1, 109440, Note_on_c, 0, 82, 0
1, 109440, Note_on_c, 0, 58, 0
1, 109440, Note_on_c, 0, 79, 35
1, 109452, Control_c, 0, 64, 0
1, 109707, Control_c, 0, 64, 127
1, 110400, Tempo, 606061
1, 110400, Note_on_c, 0, 79, 0
1, 110400, Note_on_c, 0, 71, 34
1, 110400, Note_on_c, 0, 77, 34
1, 110400, Note_on_c, 0, 75, 34
1, 110400, Note_on_c, 0, 63, 30
1, 110400, Note_on_c, 0, 56, 30
1, 111360, Note_on_c, 0, 56, 0
1, 111360, Note_on_c, 0, 75, 0
1, 111360, Note_on_c, 0, 71, 0
1, 111360, Note_on_c, 0, 77, 0
1, 111360, Note_on_c, 0, 63, 0
1, 111360, Note_on_c, 0, 99, 37
1, 111360, Note_on_c, 0, 94, 31
1, 111360, Note_on_c, 0, 91, 31
1, 111360, Note_on_c, 0, 87, 31
1, 111360, Note_on_c, 0, 27, 19
1, 111360, Note_on_c, 0, 39, 23
1, 111370, Control_c, 0, 64, 0
1, 111787, Control_c, 0, 64, 127
1, 113280, Tempo, 600000
1, 113280, Note_on_c, 0, 39, 0
1, 113280, Note_on_c, 0, 94, 0
1, 113280, Note_on_c, 0, 91, 0
1, 113280, Note_on_c, 0, 99, 0
1, 113280, Note_on_c, 0, 27, 0
1, 113280, Note_on_c, 0, 87, 0
1, 114854, Control_c, 0, 64, 0
1, 114854, End_track
0, 0, End_of_file
