0, 0, Header, 0, 1, 480
1, 0, Start_track
1, 0, Title_t, "Suite espagnole"
1, 0, Title_t, "Asturias"
1, 0, Copyright_t, "Copyright © 2001 by Bernd Krueger"
1, 0, Text_t, "Isaac Albeniz"
1, 0, Text_t, "Allegro"
1, 0, Text_t, "Fertiggestellt am 1.5..2001\012"
1, 0, Text_t, "Normierung: 23.12.2002\012"
1, 0, Text_t, "Update am 14.9.2010\012"
1, 0, Text_t, "Dauer: 5:04 Minuten\012"
1, 0, SMPTE_offset, 96, 0, 3, 0, 0
1, 0, Time_signature, 3, 2, 24, 8
1, 0, Key_signature, -2, "major"
1, 0, Tempo, 466926
1, 0, Program_c, 0, 0
1, 0, Control_c, 0, 7, 100
1, 0, Control_c, 0, 10, 64
1, 0, Text_t, "bdca426d104a26ac9dcb070447587523"
1, 0, Control_c, 0, 91, 127
1, 0, Program_c, 0, 0
1, 0, Control_c, 0, 7, 100
1, 0, Control_c, 0, 10, 64
1, 0, Note_on_c, 0, 55, 59
1, 0, Control_c, 0, 64, 0
1, 120, Note_on_c, 0, 55, 0
1, 120, Note_on_c, 0, 62, 31
1, 180, Note_on_c, 0, 62, 0
1, 240, Tempo, 441176
1, 240, Note_on_c, 0, 62, 47
1, 300, Note_on_c, 0, 62, 0
1, 360, Note_on_c, 0, 62, 35
1, 420, Note_on_c, 0, 62, 0
1, 480, Tempo, 446097
1, 480, Note_on_c, 0, 63, 53
1, 540, Note_on_c, 0, 63, 0
1, 600, Note_on_c, 0, 62, 39
1, 660, Note_on_c, 0, 62, 0
1, 720, Tempo, 454545
1, 720, Note_on_c, 0, 60, 45
1, 780, Note_on_c, 0, 60, 0
1, 840, Note_on_c, 0, 62, 37
1, 900, Note_on_c, 0, 62, 0
1, 960, Tempo, 454545
1, 960, Note_on_c, 0, 62, 49
1, 1020, Note_on_c, 0, 62, 0
1, 1080, Note_on_c, 0, 62, 34
1, 1140, Note_on_c, 0, 62, 0
1, 1200, Note_on_c, 0, 58, 45
1, 1260, Note_on_c, 0, 58, 0
1, 1320, Note_on_c, 0, 62, 32
1, 1380, Note_on_c, 0, 62, 0
1, 1440, Tempo, 466926
1, 1440, Note_on_c, 0, 55, 62
1, 1560, Note_on_c, 0, 55, 0
1, 1560, Note_on_c, 0, 62, 31
1, 1620, Note_on_c, 0, 62, 0
1, 1680, Tempo, 442804
1, 1680, Note_on_c, 0, 62, 47
1, 1740, Note_on_c, 0, 62, 0
1, 1800, Note_on_c, 0, 62, 35
1, 1860, Note_on_c, 0, 62, 0
1, 1920, Tempo, 447761
1, 1920, Note_on_c, 0, 63, 53
1, 1980, Note_on_c, 0, 63, 0
1, 2040, Note_on_c, 0, 62, 39
1, 2100, Note_on_c, 0, 62, 0
1, 2160, Tempo, 454545
1, 2160, Note_on_c, 0, 60, 45
1, 2220, Note_on_c, 0, 60, 0
1, 2280, Note_on_c, 0, 62, 37
1, 2340, Note_on_c, 0, 62, 0
1, 2400, Tempo, 454545
1, 2400, Note_on_c, 0, 62, 49
1, 2460, Note_on_c, 0, 62, 0
1, 2520, Note_on_c, 0, 62, 34
1, 2580, Note_on_c, 0, 62, 0
1, 2640, Note_on_c, 0, 58, 45
1, 2700, Note_on_c, 0, 58, 0
1, 2760, Note_on_c, 0, 62, 32
1, 2820, Note_on_c, 0, 62, 0
1, 2880, Tempo, 466926
1, 2880, Note_on_c, 0, 55, 62
1, 3000, Note_on_c, 0, 55, 0
1, 3000, Note_on_c, 0, 62, 31
1, 3060, Note_on_c, 0, 62, 0
1, 3120, Tempo, 442804
1, 3120, Note_on_c, 0, 62, 46
1, 3180, Note_on_c, 0, 62, 0
1, 3240, Note_on_c, 0, 62, 35
1, 3300, Note_on_c, 0, 62, 0
1, 3360, Tempo, 447761
1, 3360, Note_on_c, 0, 63, 50
1, 3420, Note_on_c, 0, 63, 0
1, 3480, Note_on_c, 0, 62, 39
1, 3540, Note_on_c, 0, 62, 0
1, 3600, Tempo, 451128
1, 3600, Note_on_c, 0, 60, 45
1, 3660, Note_on_c, 0, 60, 0
1, 3720, Note_on_c, 0, 62, 37
1, 3780, Note_on_c, 0, 62, 0
1, 3840, Tempo, 454545
1, 3840, Note_on_c, 0, 62, 52
1, 3900, Note_on_c, 0, 62, 0
1, 3960, Note_on_c, 0, 62, 40
1, 4020, Note_on_c, 0, 62, 0
1, 4080, Note_on_c, 0, 58, 48
1, 4140, Note_on_c, 0, 58, 0
1, 4200, Note_on_c, 0, 62, 37
1, 4260, Note_on_c, 0, 62, 0
1, 4320, Tempo, 454545
1, 4320, Note_on_c, 0, 60, 57
1, 4380, Note_on_c, 0, 60, 0
1, 4440, Note_on_c, 0, 62, 41
1, 4500, Note_on_c, 0, 62, 0
1, 4560, Tempo, 444444
1, 4560, Note_on_c, 0, 57, 49
1, 4620, Note_on_c, 0, 57, 0
1, 4680, Note_on_c, 0, 62, 35
1, 4740, Note_on_c, 0, 62, 0
1, 4800, Note_on_c, 0, 58, 53
1, 4860, Note_on_c, 0, 58, 0
1, 4920, Note_on_c, 0, 62, 39
1, 4980, Note_on_c, 0, 62, 0
1, 5040, Tempo, 449438
1, 5040, Note_on_c, 0, 60, 49
1, 5100, Note_on_c, 0, 60, 0
1, 5120, Tempo, 449438
1, 5160, Note_on_c, 0, 62, 34
1, 5220, Note_on_c, 0, 62, 0
1, 5240, Tempo, 451128
1, 5280, Note_on_c, 0, 57, 51
1, 5320, Tempo, 452830
1, 5340, Note_on_c, 0, 57, 0
1, 5400, Tempo, 454545
1, 5400, Note_on_c, 0, 62, 38
1, 5460, Note_on_c, 0, 62, 0
1, 5480, Tempo, 456274
1, 5520, Note_on_c, 0, 58, 48
1, 5560, Tempo, 458015
1, 5580, Note_on_c, 0, 58, 0
1, 5640, Tempo, 470588
1, 5640, Note_on_c, 0, 62, 37
1, 5700, Note_on_c, 0, 62, 0
1, 5720, Tempo, 461538
1, 5760, Tempo, 476190
1, 5760, Note_on_c, 0, 55, 59
1, 5880, Note_on_c, 0, 55, 0
1, 5880, Note_on_c, 0, 62, 30
1, 5940, Note_on_c, 0, 62, 0
1, 6000, Tempo, 441176
1, 6000, Note_on_c, 0, 62, 47
1, 6060, Note_on_c, 0, 62, 0
1, 6120, Note_on_c, 0, 62, 35
1, 6180, Note_on_c, 0, 62, 0
1, 6240, Tempo, 446097
1, 6240, Note_on_c, 0, 63, 50
1, 6300, Note_on_c, 0, 63, 0
1, 6360, Note_on_c, 0, 62, 36
1, 6420, Note_on_c, 0, 62, 0
1, 6480, Tempo, 454545
1, 6480, Note_on_c, 0, 60, 45
1, 6540, Note_on_c, 0, 60, 0
1, 6600, Note_on_c, 0, 62, 31
1, 6660, Note_on_c, 0, 62, 0
1, 6720, Tempo, 454545
1, 6720, Note_on_c, 0, 62, 51
1, 6780, Note_on_c, 0, 62, 0
1, 6840, Note_on_c, 0, 62, 36
1, 6900, Note_on_c, 0, 62, 0
1, 6960, Note_on_c, 0, 58, 45
1, 7020, Note_on_c, 0, 58, 0
1, 7080, Note_on_c, 0, 62, 33
1, 7140, Note_on_c, 0, 62, 0
1, 7200, Tempo, 466926
1, 7200, Note_on_c, 0, 55, 62
1, 7320, Note_on_c, 0, 55, 0
1, 7320, Note_on_c, 0, 62, 37
1, 7380, Note_on_c, 0, 62, 0
1, 7440, Tempo, 437956
1, 7440, Note_on_c, 0, 62, 50
1, 7500, Note_on_c, 0, 62, 0
1, 7560, Note_on_c, 0, 62, 35
1, 7620, Note_on_c, 0, 62, 0
1, 7680, Tempo, 447761
1, 7680, Note_on_c, 0, 63, 54
1, 7740, Note_on_c, 0, 63, 0
1, 7800, Note_on_c, 0, 62, 39
1, 7860, Note_on_c, 0, 62, 0
1, 7920, Tempo, 454545
1, 7920, Note_on_c, 0, 60, 45
1, 7980, Note_on_c, 0, 60, 0
1, 8040, Note_on_c, 0, 62, 37
1, 8100, Note_on_c, 0, 62, 0
1, 8160, Tempo, 454545
1, 8160, Note_on_c, 0, 62, 49
1, 8220, Note_on_c, 0, 62, 0
1, 8280, Note_on_c, 0, 62, 34
1, 8340, Note_on_c, 0, 62, 0
1, 8400, Note_on_c, 0, 58, 45
1, 8460, Note_on_c, 0, 58, 0
1, 8520, Note_on_c, 0, 62, 32
1, 8580, Note_on_c, 0, 62, 0
1, 8640, Tempo, 466926
1, 8640, Note_on_c, 0, 55, 62
1, 8760, Note_on_c, 0, 55, 0
1, 8760, Note_on_c, 0, 62, 31
1, 8820, Note_on_c, 0, 62, 0
1, 8880, Tempo, 442804
1, 8880, Note_on_c, 0, 62, 47
1, 8940, Note_on_c, 0, 62, 0
1, 9000, Note_on_c, 0, 62, 35
1, 9060, Note_on_c, 0, 62, 0
1, 9120, Tempo, 447761
1, 9120, Note_on_c, 0, 63, 50
1, 9180, Note_on_c, 0, 63, 0
1, 9240, Note_on_c, 0, 62, 39
1, 9300, Note_on_c, 0, 62, 0
1, 9360, Tempo, 451128
1, 9360, Note_on_c, 0, 60, 45
1, 9420, Note_on_c, 0, 60, 0
1, 9480, Note_on_c, 0, 62, 37
1, 9540, Note_on_c, 0, 62, 0
1, 9600, Tempo, 454545
1, 9600, Note_on_c, 0, 62, 52
1, 9660, Note_on_c, 0, 62, 0
1, 9720, Note_on_c, 0, 62, 40
1, 9780, Note_on_c, 0, 62, 0
1, 9840, Note_on_c, 0, 58, 48
1, 9900, Note_on_c, 0, 58, 0
1, 9960, Note_on_c, 0, 62, 37
1, 10020, Note_on_c, 0, 62, 0
1, 10080, Tempo, 454545
1, 10080, Note_on_c, 0, 60, 57
1, 10140, Note_on_c, 0, 60, 0
1, 10200, Note_on_c, 0, 62, 41
1, 10260, Note_on_c, 0, 62, 0
1, 10320, Tempo, 444444
1, 10320, Note_on_c, 0, 57, 49
1, 10380, Note_on_c, 0, 57, 0
1, 10440, Note_on_c, 0, 62, 35
1, 10500, Note_on_c, 0, 62, 0
1, 10560, Note_on_c, 0, 58, 56
1, 10620, Note_on_c, 0, 58, 0
1, 10680, Note_on_c, 0, 62, 43
1, 10740, Note_on_c, 0, 62, 0
1, 10800, Tempo, 449438
1, 10800, Note_on_c, 0, 55, 51
1, 10860, Note_on_c, 0, 55, 0
1, 10880, Tempo, 449438
1, 10920, Note_on_c, 0, 62, 37
1, 10980, Note_on_c, 0, 62, 0
1, 11000, Tempo, 451128
1, 11040, Note_on_c, 0, 53, 56
1, 11080, Tempo, 452830
1, 11100, Note_on_c, 0, 53, 0
1, 11160, Tempo, 454545
1, 11160, Note_on_c, 0, 62, 44
1, 11220, Note_on_c, 0, 62, 0
1, 11240, Tempo, 454545
1, 11280, Tempo, 459770
1, 11280, Note_on_c, 0, 51, 53
1, 11320, Tempo, 465116
1, 11340, Note_on_c, 0, 51, 0
1, 11360, Tempo, 470588
1, 11400, Tempo, 476190
1, 11400, Note_on_c, 0, 62, 39
1, 11460, Note_on_c, 0, 62, 0
1, 11520, Tempo, 472441
1, 11520, Note_on_c, 0, 50, 59
1, 11640, Note_on_c, 0, 50, 0
1, 11640, Note_on_c, 0, 62, 31
1, 11700, Note_on_c, 0, 62, 0
1, 11760, Tempo, 436364
1, 11760, Note_on_c, 0, 62, 47
1, 11820, Note_on_c, 0, 62, 0
1, 11880, Note_on_c, 0, 62, 35
1, 11940, Note_on_c, 0, 62, 0
1, 12000, Tempo, 446097
1, 12000, Note_on_c, 0, 63, 53
1, 12060, Note_on_c, 0, 63, 0
1, 12120, Note_on_c, 0, 62, 39
1, 12180, Note_on_c, 0, 62, 0
1, 12240, Tempo, 454545
1, 12240, Note_on_c, 0, 60, 45
1, 12300, Note_on_c, 0, 60, 0
1, 12360, Note_on_c, 0, 62, 37
1, 12420, Note_on_c, 0, 62, 0
1, 12480, Tempo, 454545
1, 12480, Note_on_c, 0, 62, 49
1, 12540, Note_on_c, 0, 62, 0
1, 12600, Note_on_c, 0, 62, 34
1, 12660, Note_on_c, 0, 62, 0
1, 12720, Note_on_c, 0, 57, 45
1, 12780, Note_on_c, 0, 57, 0
1, 12840, Note_on_c, 0, 62, 32
1, 12900, Note_on_c, 0, 62, 0
1, 12960, Tempo, 466926
1, 12960, Note_on_c, 0, 50, 62
1, 13080, Note_on_c, 0, 50, 0
1, 13080, Note_on_c, 0, 62, 31
1, 13140, Note_on_c, 0, 62, 0
1, 13200, Tempo, 439560
1, 13200, Note_on_c, 0, 62, 47
1, 13260, Note_on_c, 0, 62, 0
1, 13320, Note_on_c, 0, 62, 35
1, 13380, Note_on_c, 0, 62, 0
1, 13440, Tempo, 447761
1, 13440, Note_on_c, 0, 63, 53
1, 13500, Note_on_c, 0, 63, 0
1, 13560, Note_on_c, 0, 62, 39
1, 13620, Note_on_c, 0, 62, 0
1, 13680, Tempo, 454545
1, 13680, Note_on_c, 0, 60, 45
1, 13740, Note_on_c, 0, 60, 0
1, 13800, Note_on_c, 0, 62, 37
1, 13860, Note_on_c, 0, 62, 0
1, 13920, Tempo, 454545
1, 13920, Note_on_c, 0, 62, 49
1, 13980, Note_on_c, 0, 62, 0
1, 14040, Note_on_c, 0, 62, 34
1, 14100, Note_on_c, 0, 62, 0
1, 14160, Note_on_c, 0, 57, 45
1, 14220, Note_on_c, 0, 57, 0
1, 14280, Note_on_c, 0, 62, 32
1, 14340, Note_on_c, 0, 62, 0
1, 14400, Tempo, 466926
1, 14400, Note_on_c, 0, 50, 62
1, 14520, Note_on_c, 0, 50, 0
1, 14520, Note_on_c, 0, 62, 31
1, 14580, Note_on_c, 0, 62, 0
1, 14640, Tempo, 442804
1, 14640, Note_on_c, 0, 57, 47
1, 14700, Note_on_c, 0, 57, 0
1, 14760, Note_on_c, 0, 62, 35
1, 14820, Note_on_c, 0, 62, 0
1, 14880, Tempo, 447761
1, 14880, Note_on_c, 0, 60, 52
1, 14940, Note_on_c, 0, 60, 0
1, 15000, Note_on_c, 0, 62, 39
1, 15060, Note_on_c, 0, 62, 0
1, 15120, Tempo, 451128
1, 15120, Note_on_c, 0, 62, 51
1, 15180, Note_on_c, 0, 62, 0
1, 15240, Note_on_c, 0, 62, 37
1, 15300, Note_on_c, 0, 62, 0
1, 15360, Tempo, 454545
1, 15360, Note_on_c, 0, 63, 56
1, 15420, Note_on_c, 0, 63, 0
1, 15480, Note_on_c, 0, 62, 44
1, 15540, Note_on_c, 0, 62, 0
1, 15600, Note_on_c, 0, 65, 53
1, 15660, Note_on_c, 0, 65, 0
1, 15720, Note_on_c, 0, 62, 41
1, 15780, Note_on_c, 0, 62, 0
1, 15840, Tempo, 454545
1, 15840, Note_on_c, 0, 62, 56
1, 15900, Note_on_c, 0, 62, 0
1, 15960, Note_on_c, 0, 62, 48
1, 16020, Note_on_c, 0, 62, 0
1, 16080, Tempo, 444444
1, 16080, Note_on_c, 0, 63, 52
1, 16140, Note_on_c, 0, 63, 0
1, 16200, Note_on_c, 0, 62, 42
1, 16260, Note_on_c, 0, 62, 0
1, 16320, Note_on_c, 0, 60, 54
1, 16380, Note_on_c, 0, 60, 0
1, 16440, Note_on_c, 0, 62, 47
1, 16500, Note_on_c, 0, 62, 0
1, 16560, Tempo, 449438
1, 16560, Note_on_c, 0, 62, 49
1, 16620, Note_on_c, 0, 62, 0
1, 16640, Tempo, 449438
1, 16680, Note_on_c, 0, 62, 41
1, 16740, Note_on_c, 0, 62, 0
1, 16760, Tempo, 451128
1, 16800, Note_on_c, 0, 58, 51
1, 16840, Tempo, 452830
1, 16860, Note_on_c, 0, 58, 0
1, 16920, Tempo, 454545
1, 16920, Note_on_c, 0, 62, 43
1, 16980, Note_on_c, 0, 62, 0
1, 17000, Tempo, 456274
1, 17040, Note_on_c, 0, 57, 48
1, 17080, Tempo, 458015
1, 17100, Note_on_c, 0, 57, 0
1, 17160, Tempo, 459770
1, 17160, Note_on_c, 0, 62, 37
1, 17220, Note_on_c, 0, 62, 0
1, 17240, Tempo, 461538
1, 17280, Tempo, 472441
1, 17280, Note_on_c, 0, 50, 59
1, 17400, Note_on_c, 0, 50, 0
1, 17400, Note_on_c, 0, 62, 31
1, 17460, Note_on_c, 0, 62, 0
1, 17520, Tempo, 441176
1, 17520, Note_on_c, 0, 62, 47
1, 17580, Note_on_c, 0, 62, 0
1, 17640, Note_on_c, 0, 62, 35
1, 17700, Note_on_c, 0, 62, 0
1, 17760, Tempo, 446097
1, 17760, Note_on_c, 0, 63, 53
1, 17820, Note_on_c, 0, 63, 0
1, 17880, Note_on_c, 0, 62, 39
1, 17940, Note_on_c, 0, 62, 0
1, 18000, Tempo, 454545
1, 18000, Note_on_c, 0, 60, 45
1, 18060, Note_on_c, 0, 60, 0
1, 18120, Note_on_c, 0, 62, 37
1, 18180, Note_on_c, 0, 62, 0
1, 18240, Tempo, 454545
1, 18240, Note_on_c, 0, 62, 49
1, 18300, Note_on_c, 0, 62, 0
1, 18360, Note_on_c, 0, 62, 34
1, 18420, Note_on_c, 0, 62, 0
1, 18480, Note_on_c, 0, 57, 45
1, 18540, Note_on_c, 0, 57, 0
1, 18600, Note_on_c, 0, 62, 32
1, 18660, Note_on_c, 0, 62, 0
1, 18720, Tempo, 466926
1, 18720, Note_on_c, 0, 50, 62
1, 18840, Note_on_c, 0, 50, 0
1, 18840, Note_on_c, 0, 62, 31
1, 18900, Note_on_c, 0, 62, 0
1, 18960, Tempo, 442804
1, 18960, Note_on_c, 0, 62, 47
1, 19020, Note_on_c, 0, 62, 0
1, 19080, Note_on_c, 0, 62, 35
1, 19140, Note_on_c, 0, 62, 0
1, 19200, Tempo, 447761
1, 19200, Note_on_c, 0, 63, 53
1, 19260, Note_on_c, 0, 63, 0
1, 19320, Note_on_c, 0, 62, 39
1, 19380, Note_on_c, 0, 62, 0
1, 19440, Tempo, 454545
1, 19440, Note_on_c, 0, 60, 45
1, 19500, Note_on_c, 0, 60, 0
1, 19560, Note_on_c, 0, 62, 37
1, 19620, Note_on_c, 0, 62, 0
1, 19680, Tempo, 454545
1, 19680, Note_on_c, 0, 62, 49
1, 19740, Note_on_c, 0, 62, 0
1, 19800, Note_on_c, 0, 62, 34
1, 19860, Note_on_c, 0, 62, 0
1, 19920, Note_on_c, 0, 57, 45
1, 19980, Note_on_c, 0, 57, 0
1, 20040, Note_on_c, 0, 62, 32
1, 20100, Note_on_c, 0, 62, 0
1, 20160, Tempo, 466926
1, 20160, Note_on_c, 0, 50, 62
1, 20280, Note_on_c, 0, 50, 0
1, 20280, Note_on_c, 0, 62, 31
1, 20340, Note_on_c, 0, 62, 0
1, 20400, Tempo, 442804
1, 20400, Note_on_c, 0, 60, 47
1, 20460, Note_on_c, 0, 60, 0
1, 20520, Note_on_c, 0, 62, 35
1, 20580, Note_on_c, 0, 62, 0
1, 20640, Tempo, 447761
1, 20640, Note_on_c, 0, 62, 52
1, 20700, Note_on_c, 0, 62, 0
1, 20760, Note_on_c, 0, 62, 39
1, 20820, Note_on_c, 0, 62, 0
1, 20880, Tempo, 451128
1, 20880, Note_on_c, 0, 63, 51
1, 20940, Note_on_c, 0, 63, 0
1, 21000, Note_on_c, 0, 62, 37
1, 21060, Note_on_c, 0, 62, 0
1, 21120, Tempo, 454545
1, 21120, Note_on_c, 0, 65, 56
1, 21180, Note_on_c, 0, 65, 0
1, 21240, Note_on_c, 0, 62, 44
1, 21300, Note_on_c, 0, 62, 0
1, 21360, Note_on_c, 0, 62, 53
1, 21420, Note_on_c, 0, 62, 0
1, 21480, Note_on_c, 0, 62, 41
1, 21540, Note_on_c, 0, 62, 0
1, 21600, Tempo, 454545
1, 21600, Note_on_c, 0, 63, 59
1, 21660, Note_on_c, 0, 63, 0
1, 21720, Note_on_c, 0, 62, 48
1, 21780, Note_on_c, 0, 62, 0
1, 21840, Tempo, 444444
1, 21840, Note_on_c, 0, 60, 52
1, 21900, Note_on_c, 0, 60, 0
1, 21960, Note_on_c, 0, 62, 42
1, 22020, Note_on_c, 0, 62, 0
1, 22080, Note_on_c, 0, 62, 54
1, 22140, Note_on_c, 0, 62, 0
1, 22200, Note_on_c, 0, 62, 47
1, 22260, Note_on_c, 0, 62, 0
1, 22320, Tempo, 449438
1, 22320, Note_on_c, 0, 58, 49
1, 22360, Tempo, 451128
1, 22380, Note_on_c, 0, 58, 0
1, 22400, Tempo, 452830
1, 22440, Tempo, 454545
1, 22440, Note_on_c, 0, 62, 41
1, 22480, Tempo, 456274
1, 22500, Note_on_c, 0, 62, 0
1, 22520, Tempo, 458015
1, 22560, Tempo, 459770
1, 22560, Note_on_c, 0, 60, 51
1, 22600, Tempo, 461538
1, 22620, Note_on_c, 0, 60, 0
1, 22640, Tempo, 463320
1, 22680, Tempo, 465116
1, 22680, Note_on_c, 0, 62, 43
1, 22720, Tempo, 466926
1, 22740, Note_on_c, 0, 62, 0
1, 22760, Tempo, 468750
1, 22800, Tempo, 470588
1, 22800, Note_on_c, 0, 57, 48
1, 22840, Tempo, 472441
1, 22860, Note_on_c, 0, 57, 0
1, 22880, Tempo, 474308
1, 22920, Tempo, 478088
1, 22920, Note_on_c, 0, 62, 37
1, 22980, Note_on_c, 0, 62, 0
1, 23000, Tempo, 461538
1, 23040, Tempo, 468750
1, 23040, Note_on_c, 0, 55, 64
1, 23160, Note_on_c, 0, 55, 0
1, 23160, Note_on_c, 0, 74, 44
1, 23160, Note_on_c, 0, 62, 34
1, 23220, Note_on_c, 0, 62, 0
1, 23220, Note_on_c, 0, 74, 0
1, 23280, Tempo, 433213
1, 23280, Note_on_c, 0, 62, 51
1, 23340, Note_on_c, 0, 62, 0
1, 23400, Note_on_c, 0, 74, 49
1, 23400, Note_on_c, 0, 62, 38
1, 23460, Note_on_c, 0, 62, 0
1, 23460, Note_on_c, 0, 74, 0
1, 23520, Tempo, 446097
1, 23520, Note_on_c, 0, 63, 58
1, 23580, Note_on_c, 0, 63, 0
1, 23640, Note_on_c, 0, 74, 54
1, 23640, Note_on_c, 0, 62, 42
1, 23700, Note_on_c, 0, 62, 0
1, 23700, Note_on_c, 0, 74, 0
1, 23760, Tempo, 454545
1, 23760, Note_on_c, 0, 60, 49
1, 23820, Note_on_c, 0, 60, 0
1, 23880, Note_on_c, 0, 74, 52
1, 23880, Note_on_c, 0, 62, 40
1, 23940, Note_on_c, 0, 62, 0
1, 23940, Note_on_c, 0, 74, 0
1, 24000, Tempo, 454545
1, 24000, Note_on_c, 0, 62, 53
1, 24060, Note_on_c, 0, 62, 0
1, 24120, Note_on_c, 0, 74, 48
1, 24120, Note_on_c, 0, 62, 37
1, 24180, Note_on_c, 0, 62, 0
1, 24180, Note_on_c, 0, 74, 0
1, 24240, Note_on_c, 0, 58, 49
1, 24300, Note_on_c, 0, 58, 0
1, 24360, Note_on_c, 0, 74, 45
1, 24360, Note_on_c, 0, 62, 35
1, 24420, Note_on_c, 0, 62, 0
1, 24420, Note_on_c, 0, 74, 0
1, 24480, Tempo, 466926
1, 24480, Note_on_c, 0, 55, 68
1, 24600, Note_on_c, 0, 55, 0
1, 24600, Note_on_c, 0, 62, 34
1, 24600, Note_on_c, 0, 74, 44
1, 24660, Note_on_c, 0, 74, 0
1, 24660, Note_on_c, 0, 62, 0
1, 24720, Tempo, 433213
1, 24720, Note_on_c, 0, 62, 51
1, 24780, Note_on_c, 0, 62, 0
1, 24840, Note_on_c, 0, 74, 49
1, 24840, Note_on_c, 0, 62, 38
1, 24900, Note_on_c, 0, 62, 0
1, 24900, Note_on_c, 0, 74, 0
1, 24960, Tempo, 447761
1, 24960, Note_on_c, 0, 63, 58
1, 25020, Note_on_c, 0, 63, 0
1, 25080, Note_on_c, 0, 74, 54
1, 25080, Note_on_c, 0, 62, 42
1, 25140, Note_on_c, 0, 62, 0
1, 25140, Note_on_c, 0, 74, 0
1, 25200, Tempo, 454545
1, 25200, Note_on_c, 0, 60, 49
1, 25260, Note_on_c, 0, 60, 0
1, 25320, Note_on_c, 0, 74, 52
1, 25320, Note_on_c, 0, 62, 40
1, 25380, Note_on_c, 0, 62, 0
1, 25380, Note_on_c, 0, 74, 0
1, 25440, Tempo, 454545
1, 25440, Note_on_c, 0, 62, 53
1, 25500, Note_on_c, 0, 62, 0
1, 25560, Note_on_c, 0, 62, 37
1, 25560, Note_on_c, 0, 74, 48
1, 25620, Note_on_c, 0, 74, 0
1, 25620, Note_on_c, 0, 62, 0
1, 25680, Note_on_c, 0, 58, 49
1, 25740, Note_on_c, 0, 58, 0
1, 25800, Note_on_c, 0, 74, 45
1, 25800, Note_on_c, 0, 62, 35
1, 25860, Note_on_c, 0, 62, 0
1, 25860, Note_on_c, 0, 74, 0
1, 25920, Tempo, 466926
1, 25920, Note_on_c, 0, 55, 68
1, 26040, Note_on_c, 0, 55, 0
1, 26040, Note_on_c, 0, 74, 44
1, 26040, Note_on_c, 0, 62, 34
1, 26100, Note_on_c, 0, 62, 0
1, 26100, Note_on_c, 0, 74, 0
1, 26160, Tempo, 442804
1, 26160, Note_on_c, 0, 62, 51
1, 26220, Note_on_c, 0, 62, 0
1, 26280, Note_on_c, 0, 74, 49
1, 26280, Note_on_c, 0, 62, 38
1, 26340, Note_on_c, 0, 62, 0
1, 26340, Note_on_c, 0, 74, 0
1, 26400, Tempo, 447761
1, 26400, Note_on_c, 0, 63, 55
1, 26460, Note_on_c, 0, 63, 0
1, 26520, Note_on_c, 0, 74, 54
1, 26520, Note_on_c, 0, 62, 42
1, 26580, Note_on_c, 0, 62, 0
1, 26580, Note_on_c, 0, 74, 0
1, 26640, Tempo, 451128
1, 26640, Note_on_c, 0, 60, 49
1, 26700, Note_on_c, 0, 60, 0
1, 26760, Note_on_c, 0, 74, 52
1, 26760, Note_on_c, 0, 62, 40
1, 26820, Note_on_c, 0, 62, 0
1, 26820, Note_on_c, 0, 74, 0
1, 26880, Tempo, 454545
1, 26880, Note_on_c, 0, 62, 57
1, 26940, Note_on_c, 0, 62, 0
1, 27000, Note_on_c, 0, 62, 44
1, 27000, Note_on_c, 0, 74, 57
1, 27060, Note_on_c, 0, 74, 0
1, 27060, Note_on_c, 0, 62, 0
1, 27120, Note_on_c, 0, 58, 52
1, 27180, Note_on_c, 0, 58, 0
1, 27240, Note_on_c, 0, 74, 52
1, 27240, Note_on_c, 0, 62, 40
1, 27300, Note_on_c, 0, 62, 0
1, 27300, Note_on_c, 0, 74, 0
1, 27360, Tempo, 454545
1, 27360, Note_on_c, 0, 60, 62
1, 27420, Note_on_c, 0, 60, 0
1, 27480, Note_on_c, 0, 74, 58
1, 27480, Note_on_c, 0, 62, 45
1, 27540, Note_on_c, 0, 62, 0
1, 27540, Note_on_c, 0, 74, 0
1, 27600, Tempo, 444444
1, 27600, Note_on_c, 0, 57, 53
1, 27660, Note_on_c, 0, 57, 0
1, 27720, Note_on_c, 0, 74, 49
1, 27720, Note_on_c, 0, 62, 38
1, 27780, Note_on_c, 0, 62, 0
1, 27780, Note_on_c, 0, 74, 0
1, 27840, Note_on_c, 0, 58, 58
1, 27900, Note_on_c, 0, 58, 0
1, 27960, Note_on_c, 0, 62, 42
1, 27960, Note_on_c, 0, 74, 54
1, 28020, Note_on_c, 0, 74, 0
1, 28020, Note_on_c, 0, 62, 0
1, 28080, Tempo, 449438
1, 28080, Note_on_c, 0, 60, 53
1, 28140, Note_on_c, 0, 60, 0
1, 28160, Tempo, 449438
1, 28200, Note_on_c, 0, 62, 37
1, 28200, Note_on_c, 0, 74, 48
1, 28260, Note_on_c, 0, 74, 0
1, 28260, Note_on_c, 0, 62, 0
1, 28280, Tempo, 451128
1, 28320, Note_on_c, 0, 57, 56
1, 28360, Tempo, 452830
1, 28380, Note_on_c, 0, 57, 0
1, 28440, Tempo, 454545
1, 28440, Note_on_c, 0, 74, 53
1, 28440, Note_on_c, 0, 62, 41
1, 28500, Note_on_c, 0, 62, 0
1, 28500, Note_on_c, 0, 74, 0
1, 28520, Tempo, 456274
1, 28560, Note_on_c, 0, 58, 52
1, 28600, Tempo, 458015
1, 28620, Note_on_c, 0, 58, 0
1, 28680, Tempo, 485830
1, 28680, Note_on_c, 0, 74, 52
1, 28680, Note_on_c, 0, 62, 40
1, 28740, Note_on_c, 0, 62, 0
1, 28740, Note_on_c, 0, 74, 0
1, 28800, Tempo, 466926
1, 28800, Note_on_c, 0, 55, 64
1, 28920, Note_on_c, 0, 55, 0
1, 28920, Note_on_c, 0, 74, 44
1, 28920, Note_on_c, 0, 62, 34
1, 28980, Note_on_c, 0, 62, 0
1, 28980, Note_on_c, 0, 74, 0
1, 29040, Tempo, 441176
1, 29040, Note_on_c, 0, 62, 51
1, 29100, Note_on_c, 0, 62, 0
1, 29160, Note_on_c, 0, 62, 38
1, 29160, Note_on_c, 0, 74, 49
1, 29220, Note_on_c, 0, 74, 0
1, 29220, Note_on_c, 0, 62, 0
1, 29280, Tempo, 446097
1, 29280, Note_on_c, 0, 63, 58
1, 29340, Note_on_c, 0, 63, 0
1, 29400, Note_on_c, 0, 74, 54
1, 29400, Note_on_c, 0, 62, 42
1, 29460, Note_on_c, 0, 62, 0
1, 29460, Note_on_c, 0, 74, 0
1, 29520, Tempo, 454545
1, 29520, Note_on_c, 0, 60, 49
1, 29580, Note_on_c, 0, 60, 0
1, 29640, Note_on_c, 0, 74, 52
1, 29640, Note_on_c, 0, 62, 40
1, 29700, Note_on_c, 0, 62, 0
1, 29700, Note_on_c, 0, 74, 0
1, 29760, Tempo, 454545
1, 29760, Note_on_c, 0, 62, 53
1, 29820, Note_on_c, 0, 62, 0
1, 29880, Note_on_c, 0, 74, 48
1, 29880, Note_on_c, 0, 62, 37
1, 29940, Note_on_c, 0, 62, 0
1, 29940, Note_on_c, 0, 74, 0
1, 30000, Note_on_c, 0, 58, 49
1, 30060, Note_on_c, 0, 58, 0
1, 30120, Note_on_c, 0, 74, 45
1, 30120, Note_on_c, 0, 62, 35
1, 30180, Note_on_c, 0, 62, 0
1, 30180, Note_on_c, 0, 74, 0
1, 30240, Tempo, 466926
1, 30240, Note_on_c, 0, 55, 68
1, 30360, Note_on_c, 0, 55, 0
1, 30360, Note_on_c, 0, 74, 44
1, 30360, Note_on_c, 0, 62, 34
1, 30420, Note_on_c, 0, 62, 0
1, 30420, Note_on_c, 0, 74, 0
1, 30480, Tempo, 442804
1, 30480, Note_on_c, 0, 62, 51
1, 30540, Note_on_c, 0, 62, 0
1, 30600, Note_on_c, 0, 74, 49
1, 30600, Note_on_c, 0, 62, 38
1, 30660, Note_on_c, 0, 62, 0
1, 30660, Note_on_c, 0, 74, 0
1, 30720, Tempo, 447761
1, 30720, Note_on_c, 0, 63, 58
1, 30780, Note_on_c, 0, 63, 0
1, 30840, Note_on_c, 0, 74, 54
1, 30840, Note_on_c, 0, 62, 42
1, 30900, Note_on_c, 0, 62, 0
1, 30900, Note_on_c, 0, 74, 0
1, 30960, Tempo, 454545
1, 30960, Note_on_c, 0, 60, 49
1, 31020, Note_on_c, 0, 60, 0
1, 31080, Note_on_c, 0, 74, 52
1, 31080, Note_on_c, 0, 62, 40
1, 31140, Note_on_c, 0, 62, 0
1, 31140, Note_on_c, 0, 74, 0
1, 31200, Tempo, 454545
1, 31200, Note_on_c, 0, 62, 53
1, 31260, Note_on_c, 0, 62, 0
1, 31320, Note_on_c, 0, 74, 48
1, 31320, Note_on_c, 0, 62, 37
1, 31380, Note_on_c, 0, 62, 0
1, 31380, Note_on_c, 0, 74, 0
1, 31440, Note_on_c, 0, 58, 49
1, 31500, Note_on_c, 0, 58, 0
1, 31560, Note_on_c, 0, 74, 45
1, 31560, Note_on_c, 0, 62, 35
1, 31620, Note_on_c, 0, 62, 0
1, 31620, Note_on_c, 0, 74, 0
1, 31680, Tempo, 466926
1, 31680, Note_on_c, 0, 55, 68
1, 31800, Note_on_c, 0, 55, 0
1, 31800, Note_on_c, 0, 62, 34
1, 31800, Note_on_c, 0, 74, 44
1, 31860, Note_on_c, 0, 74, 0
1, 31860, Note_on_c, 0, 62, 0
1, 31920, Tempo, 442804
1, 31920, Note_on_c, 0, 62, 51
1, 31980, Note_on_c, 0, 62, 0
1, 32040, Note_on_c, 0, 74, 49
1, 32040, Note_on_c, 0, 62, 38
1, 32100, Note_on_c, 0, 62, 0
1, 32100, Note_on_c, 0, 74, 0
1, 32160, Tempo, 447761
1, 32160, Note_on_c, 0, 63, 55
1, 32220, Note_on_c, 0, 63, 0
1, 32280, Note_on_c, 0, 74, 54
1, 32280, Note_on_c, 0, 62, 42
1, 32340, Note_on_c, 0, 62, 0
1, 32340, Note_on_c, 0, 74, 0
1, 32400, Tempo, 451128
1, 32400, Note_on_c, 0, 60, 49
1, 32460, Note_on_c, 0, 60, 0
1, 32520, Note_on_c, 0, 74, 52
1, 32520, Note_on_c, 0, 62, 40
1, 32580, Note_on_c, 0, 62, 0
1, 32580, Note_on_c, 0, 74, 0
1, 32640, Tempo, 454545
1, 32640, Note_on_c, 0, 62, 57
1, 32700, Note_on_c, 0, 62, 0
1, 32760, Note_on_c, 0, 62, 44
1, 32760, Note_on_c, 0, 74, 57
1, 32820, Note_on_c, 0, 74, 0
1, 32820, Note_on_c, 0, 62, 0
1, 32880, Note_on_c, 0, 58, 52
1, 32940, Note_on_c, 0, 58, 0
1, 33000, Note_on_c, 0, 62, 40
1, 33000, Note_on_c, 0, 74, 52
1, 33060, Note_on_c, 0, 74, 0
1, 33060, Note_on_c, 0, 62, 0
1, 33120, Tempo, 454545
1, 33120, Note_on_c, 0, 60, 62
1, 33180, Note_on_c, 0, 60, 0
1, 33240, Note_on_c, 0, 74, 58
1, 33240, Note_on_c, 0, 62, 45
1, 33300, Note_on_c, 0, 62, 0
1, 33300, Note_on_c, 0, 74, 0
1, 33360, Tempo, 439560
1, 33360, Note_on_c, 0, 57, 53
1, 33420, Note_on_c, 0, 57, 0
1, 33480, Note_on_c, 0, 74, 49
1, 33480, Note_on_c, 0, 62, 38
1, 33540, Note_on_c, 0, 62, 0
1, 33540, Note_on_c, 0, 74, 0
1, 33600, Tempo, 444444
1, 33600, Note_on_c, 0, 58, 60
1, 33660, Note_on_c, 0, 58, 0
1, 33720, Note_on_c, 0, 74, 62
1, 33720, Note_on_c, 0, 62, 48
1, 33780, Note_on_c, 0, 62, 0
1, 33780, Note_on_c, 0, 74, 0
1, 33840, Tempo, 449438
1, 33840, Note_on_c, 0, 55, 58
1, 33900, Note_on_c, 0, 55, 0
1, 33920, Tempo, 449438
1, 33960, Note_on_c, 0, 62, 42
1, 33960, Note_on_c, 0, 74, 54
1, 34020, Note_on_c, 0, 74, 0
1, 34020, Note_on_c, 0, 62, 0
1, 34040, Tempo, 451128
1, 34080, Tempo, 451128
1, 34080, Note_on_c, 0, 53, 64
1, 34120, Tempo, 452830
1, 34140, Note_on_c, 0, 53, 0
1, 34160, Tempo, 456274
1, 34200, Tempo, 459770
1, 34200, Note_on_c, 0, 74, 66
1, 34200, Note_on_c, 0, 62, 51
1, 34240, Tempo, 463320
1, 34260, Note_on_c, 0, 62, 0
1, 34260, Note_on_c, 0, 74, 0
1, 34280, Tempo, 466926
1, 34320, Tempo, 470588
1, 34320, Note_on_c, 0, 51, 62
1, 34360, Tempo, 474308
1, 34380, Note_on_c, 0, 51, 0
1, 34400, Tempo, 478088
1, 34440, Tempo, 481928
1, 34440, Note_on_c, 0, 74, 58
1, 34440, Note_on_c, 0, 62, 45
1, 34480, Tempo, 485830
1, 34500, Note_on_c, 0, 62, 0
1, 34500, Note_on_c, 0, 74, 0
1, 34520, Tempo, 489796
1, 34560, Tempo, 466926
1, 34560, Note_on_c, 0, 50, 84
1, 34560, Note_on_c, 0, 38, 71
1, 34571, Control_c, 0, 64, 127
1, 34680, Tempo, 542986
1, 34680, Note_on_c, 0, 38, 0
1, 34680, Note_on_c, 0, 50, 0
1, 34680, Note_on_c, 0, 78, 70
1, 34680, Note_on_c, 0, 81, 83
1, 34680, Note_on_c, 0, 86, 83
1, 34680, Note_on_c, 0, 74, 70
1, 34740, Note_on_c, 0, 74, 0
1, 34740, Note_on_c, 0, 78, 0
1, 34740, Note_on_c, 0, 81, 0
1, 34740, Note_on_c, 0, 86, 0
1, 34791, Control_c, 0, 64, 0
1, 34800, Tempo, 437956
1, 34800, Note_on_c, 0, 62, 56
1, 34860, Note_on_c, 0, 62, 0
1, 34920, Note_on_c, 0, 74, 54
1, 34920, Note_on_c, 0, 62, 42
1, 34980, Note_on_c, 0, 62, 0
1, 34980, Note_on_c, 0, 74, 0
1, 35040, Tempo, 446097
1, 35040, Note_on_c, 0, 63, 63
1, 35100, Note_on_c, 0, 63, 0
1, 35160, Note_on_c, 0, 62, 46
1, 35160, Note_on_c, 0, 74, 59
1, 35220, Note_on_c, 0, 74, 0
1, 35220, Note_on_c, 0, 62, 0
1, 35280, Tempo, 454545
1, 35280, Note_on_c, 0, 60, 54
1, 35340, Note_on_c, 0, 60, 0
1, 35400, Note_on_c, 0, 74, 57
1, 35400, Note_on_c, 0, 62, 44
1, 35460, Note_on_c, 0, 62, 0
1, 35460, Note_on_c, 0, 74, 0
1, 35520, Tempo, 454545
1, 35520, Note_on_c, 0, 62, 58
1, 35580, Note_on_c, 0, 62, 0
1, 35640, Note_on_c, 0, 74, 52
1, 35640, Note_on_c, 0, 62, 40
1, 35700, Note_on_c, 0, 62, 0
1, 35700, Note_on_c, 0, 74, 0
1, 35760, Note_on_c, 0, 57, 54
1, 35820, Note_on_c, 0, 57, 0
1, 35880, Note_on_c, 0, 74, 49
1, 35880, Note_on_c, 0, 62, 38
1, 35940, Note_on_c, 0, 62, 0
1, 35940, Note_on_c, 0, 74, 0
1, 36000, Tempo, 466926
1, 36000, Note_on_c, 0, 38, 74
1, 36000, Note_on_c, 0, 50, 88
1, 36003, Control_c, 0, 64, 127
1, 36120, Tempo, 535714
1, 36120, Note_on_c, 0, 50, 0
1, 36120, Note_on_c, 0, 38, 0
1, 36120, Note_on_c, 0, 78, 72
1, 36120, Note_on_c, 0, 74, 72
1, 36120, Note_on_c, 0, 81, 85
1, 36120, Note_on_c, 0, 86, 85
1, 36180, Note_on_c, 0, 86, 0
1, 36180, Note_on_c, 0, 78, 0
1, 36180, Note_on_c, 0, 74, 0
1, 36180, Note_on_c, 0, 81, 0
1, 36229, Control_c, 0, 64, 0
1, 36240, Tempo, 439560
1, 36240, Note_on_c, 0, 62, 56
1, 36300, Note_on_c, 0, 62, 0
1, 36360, Note_on_c, 0, 74, 54
1, 36360, Note_on_c, 0, 62, 42
1, 36420, Note_on_c, 0, 62, 0
1, 36420, Note_on_c, 0, 74, 0
1, 36480, Tempo, 447761
1, 36480, Note_on_c, 0, 63, 63
1, 36540, Note_on_c, 0, 63, 0
1, 36600, Note_on_c, 0, 74, 59
1, 36600, Note_on_c, 0, 62, 46
1, 36660, Note_on_c, 0, 62, 0
1, 36660, Note_on_c, 0, 74, 0
1, 36720, Tempo, 454545
1, 36720, Note_on_c, 0, 60, 54
1, 36780, Note_on_c, 0, 60, 0
1, 36840, Note_on_c, 0, 74, 57
1, 36840, Note_on_c, 0, 62, 44
1, 36900, Note_on_c, 0, 62, 0
1, 36900, Note_on_c, 0, 74, 0
1, 36960, Tempo, 454545
1, 36960, Note_on_c, 0, 62, 58
1, 37020, Note_on_c, 0, 62, 0
1, 37080, Note_on_c, 0, 74, 52
1, 37080, Note_on_c, 0, 62, 40
1, 37140, Note_on_c, 0, 62, 0
1, 37140, Note_on_c, 0, 74, 0
1, 37200, Note_on_c, 0, 57, 54
1, 37260, Note_on_c, 0, 57, 0
1, 37320, Note_on_c, 0, 74, 49
1, 37320, Note_on_c, 0, 62, 38
1, 37380, Note_on_c, 0, 62, 0
1, 37380, Note_on_c, 0, 74, 0
1, 37440, Tempo, 466926
1, 37440, Note_on_c, 0, 38, 74
1, 37440, Note_on_c, 0, 50, 88
1, 37463, Control_c, 0, 64, 127
1, 37560, Tempo, 528634
1, 37560, Note_on_c, 0, 50, 0
1, 37560, Note_on_c, 0, 38, 0
1, 37560, Note_on_c, 0, 86, 83
1, 37560, Note_on_c, 0, 74, 70
1, 37560, Note_on_c, 0, 78, 70
1, 37560, Note_on_c, 0, 81, 83
1, 37620, Note_on_c, 0, 81, 0
1, 37620, Note_on_c, 0, 86, 0
1, 37620, Note_on_c, 0, 74, 0
1, 37620, Note_on_c, 0, 78, 0
1, 37660, Control_c, 0, 64, 0
1, 37680, Tempo, 439560
1, 37680, Note_on_c, 0, 57, 56
1, 37740, Note_on_c, 0, 57, 0
1, 37800, Note_on_c, 0, 74, 54
1, 37800, Note_on_c, 0, 62, 42
1, 37860, Note_on_c, 0, 62, 0
1, 37860, Note_on_c, 0, 74, 0
1, 37920, Tempo, 447761
1, 37920, Note_on_c, 0, 60, 62
1, 37980, Note_on_c, 0, 60, 0
1, 38040, Note_on_c, 0, 62, 46
1, 38040, Note_on_c, 0, 74, 59
1, 38100, Note_on_c, 0, 74, 0
1, 38100, Note_on_c, 0, 62, 0
1, 38160, Tempo, 451128
1, 38160, Note_on_c, 0, 62, 61
1, 38220, Note_on_c, 0, 62, 0
1, 38280, Note_on_c, 0, 74, 57
1, 38280, Note_on_c, 0, 62, 44
1, 38340, Note_on_c, 0, 62, 0
1, 38340, Note_on_c, 0, 74, 0
1, 38400, Tempo, 454545
1, 38400, Note_on_c, 0, 63, 67
1, 38460, Note_on_c, 0, 63, 0
1, 38520, Note_on_c, 0, 74, 67
1, 38520, Note_on_c, 0, 62, 52
1, 38580, Note_on_c, 0, 62, 0
1, 38580, Note_on_c, 0, 74, 0
1, 38640, Note_on_c, 0, 65, 63
1, 38700, Note_on_c, 0, 65, 0
1, 38760, Note_on_c, 0, 74, 63
1, 38760, Note_on_c, 0, 62, 49
1, 38820, Note_on_c, 0, 62, 0
1, 38820, Note_on_c, 0, 74, 0
1, 38880, Tempo, 454545
1, 38880, Note_on_c, 0, 62, 70
1, 38940, Note_on_c, 0, 62, 0
1, 39000, Note_on_c, 0, 62, 54
1, 39000, Note_on_c, 0, 74, 70
1, 39060, Note_on_c, 0, 74, 0
1, 39060, Note_on_c, 0, 62, 0
1, 39120, Tempo, 444444
1, 39120, Note_on_c, 0, 63, 62
1, 39180, Note_on_c, 0, 63, 0
1, 39240, Note_on_c, 0, 74, 65
1, 39240, Note_on_c, 0, 62, 50
1, 39300, Note_on_c, 0, 62, 0
1, 39300, Note_on_c, 0, 74, 0
1, 39360, Note_on_c, 0, 60, 64
1, 39420, Note_on_c, 0, 60, 0
1, 39480, Note_on_c, 0, 74, 69
1, 39480, Note_on_c, 0, 62, 54
1, 39540, Note_on_c, 0, 62, 0
1, 39540, Note_on_c, 0, 74, 0
1, 39600, Tempo, 449438
1, 39600, Note_on_c, 0, 62, 58
1, 39660, Note_on_c, 0, 62, 0
1, 39680, Tempo, 449438
1, 39720, Note_on_c, 0, 74, 63
1, 39720, Note_on_c, 0, 62, 49
1, 39780, Note_on_c, 0, 62, 0
1, 39780, Note_on_c, 0, 74, 0
1, 39800, Tempo, 451128
1, 39840, Note_on_c, 0, 58, 61
1, 39880, Tempo, 452830
1, 39900, Note_on_c, 0, 58, 0
1, 39960, Tempo, 454545
1, 39960, Note_on_c, 0, 74, 66
1, 39960, Note_on_c, 0, 62, 51
1, 40020, Note_on_c, 0, 62, 0
1, 40020, Note_on_c, 0, 74, 0
1, 40040, Tempo, 456274
1, 40080, Note_on_c, 0, 57, 57
1, 40120, Tempo, 458015
1, 40140, Note_on_c, 0, 57, 0
1, 40200, Tempo, 459770
1, 40200, Note_on_c, 0, 74, 57
1, 40200, Note_on_c, 0, 62, 44
1, 40260, Note_on_c, 0, 62, 0
1, 40260, Note_on_c, 0, 74, 0
1, 40280, Tempo, 461538
1, 40320, Tempo, 466926
1, 40320, Note_on_c, 0, 38, 71
1, 40320, Note_on_c, 0, 50, 84
1, 40329, Control_c, 0, 64, 127
1, 40440, Tempo, 545455
1, 40440, Note_on_c, 0, 50, 0
1, 40440, Note_on_c, 0, 38, 0
1, 40440, Note_on_c, 0, 81, 83
1, 40440, Note_on_c, 0, 74, 70
1, 40440, Note_on_c, 0, 78, 70
1, 40440, Note_on_c, 0, 86, 83
1, 40500, Note_on_c, 0, 86, 0
1, 40500, Note_on_c, 0, 81, 0
1, 40500, Note_on_c, 0, 74, 0
1, 40500, Note_on_c, 0, 78, 0
1, 40531, Control_c, 0, 64, 0
1, 40560, Tempo, 437956
1, 40560, Note_on_c, 0, 62, 56
1, 40620, Note_on_c, 0, 62, 0
1, 40680, Note_on_c, 0, 74, 54
1, 40680, Note_on_c, 0, 62, 42
1, 40740, Note_on_c, 0, 62, 0
1, 40740, Note_on_c, 0, 74, 0
1, 40800, Tempo, 446097
1, 40800, Note_on_c, 0, 63, 63
1, 40860, Note_on_c, 0, 63, 0
1, 40920, Note_on_c, 0, 74, 59
1, 40920, Note_on_c, 0, 62, 46
1, 40980, Note_on_c, 0, 62, 0
1, 40980, Note_on_c, 0, 74, 0
1, 41040, Tempo, 454545
1, 41040, Note_on_c, 0, 60, 54
1, 41100, Note_on_c, 0, 60, 0
1, 41160, Note_on_c, 0, 62, 44
1, 41160, Note_on_c, 0, 74, 57
1, 41220, Note_on_c, 0, 74, 0
1, 41220, Note_on_c, 0, 62, 0
1, 41280, Tempo, 454545
1, 41280, Note_on_c, 0, 62, 58
1, 41340, Note_on_c, 0, 62, 0
1, 41400, Note_on_c, 0, 62, 40
1, 41400, Note_on_c, 0, 74, 52
1, 41460, Note_on_c, 0, 74, 0
1, 41460, Note_on_c, 0, 62, 0
1, 41520, Note_on_c, 0, 57, 54
1, 41580, Note_on_c, 0, 57, 0
1, 41640, Note_on_c, 0, 74, 49
1, 41640, Note_on_c, 0, 62, 38
1, 41700, Note_on_c, 0, 62, 0
1, 41700, Note_on_c, 0, 74, 0
1, 41760, Tempo, 466926
1, 41760, Note_on_c, 0, 50, 88
1, 41760, Note_on_c, 0, 38, 74
1, 41783, Control_c, 0, 64, 127
1, 41880, Tempo, 542986
1, 41880, Note_on_c, 0, 38, 0
1, 41880, Note_on_c, 0, 50, 0
1, 41880, Note_on_c, 0, 78, 72
1, 41880, Note_on_c, 0, 74, 72
1, 41880, Note_on_c, 0, 86, 85
1, 41880, Note_on_c, 0, 81, 85
1, 41940, Note_on_c, 0, 81, 0
1, 41940, Note_on_c, 0, 78, 0
1, 41940, Note_on_c, 0, 74, 0
1, 41940, Note_on_c, 0, 86, 0
1, 41974, Control_c, 0, 64, 0
1, 42000, Tempo, 437956
1, 42000, Note_on_c, 0, 62, 56
1, 42060, Note_on_c, 0, 62, 0
1, 42120, Note_on_c, 0, 62, 42
1, 42120, Note_on_c, 0, 74, 54
1, 42180, Note_on_c, 0, 74, 0
1, 42180, Note_on_c, 0, 62, 0
1, 42240, Tempo, 447761
1, 42240, Note_on_c, 0, 63, 63
1, 42300, Note_on_c, 0, 63, 0
1, 42360, Note_on_c, 0, 74, 59
1, 42360, Note_on_c, 0, 62, 46
1, 42420, Note_on_c, 0, 62, 0
1, 42420, Note_on_c, 0, 74, 0
1, 42480, Tempo, 454545
1, 42480, Note_on_c, 0, 60, 54
1, 42540, Note_on_c, 0, 60, 0
1, 42600, Note_on_c, 0, 74, 57
1, 42600, Note_on_c, 0, 62, 44
1, 42660, Note_on_c, 0, 62, 0
1, 42660, Note_on_c, 0, 74, 0
1, 42720, Tempo, 454545
1, 42720, Note_on_c, 0, 62, 58
1, 42780, Note_on_c, 0, 62, 0
1, 42840, Note_on_c, 0, 74, 52
1, 42840, Note_on_c, 0, 62, 40
1, 42900, Note_on_c, 0, 62, 0
1, 42900, Note_on_c, 0, 74, 0
1, 42960, Note_on_c, 0, 57, 54
1, 43020, Note_on_c, 0, 57, 0
1, 43080, Note_on_c, 0, 74, 49
1, 43080, Note_on_c, 0, 62, 38
1, 43140, Note_on_c, 0, 62, 0
1, 43140, Note_on_c, 0, 74, 0
1, 43200, Tempo, 466926
1, 43200, Note_on_c, 0, 50, 88
1, 43200, Note_on_c, 0, 38, 74
1, 43211, Control_c, 0, 64, 127
1, 43320, Tempo, 545455
1, 43320, Note_on_c, 0, 38, 0
1, 43320, Note_on_c, 0, 50, 0
1, 43320, Note_on_c, 0, 78, 70
1, 43320, Note_on_c, 0, 74, 70
1, 43320, Note_on_c, 0, 81, 83
1, 43320, Note_on_c, 0, 86, 83
1, 43380, Note_on_c, 0, 86, 0
1, 43380, Note_on_c, 0, 78, 0
1, 43380, Note_on_c, 0, 74, 0
1, 43380, Note_on_c, 0, 81, 0
1, 43423, Control_c, 0, 64, 0
1, 43440, Tempo, 442804
1, 43440, Note_on_c, 0, 57, 56
1, 43500, Note_on_c, 0, 57, 0
1, 43560, Note_on_c, 0, 74, 54
1, 43560, Note_on_c, 0, 62, 42
1, 43620, Note_on_c, 0, 62, 0
1, 43620, Note_on_c, 0, 74, 0
1, 43680, Tempo, 447761
1, 43680, Note_on_c, 0, 60, 62
1, 43740, Note_on_c, 0, 60, 0
1, 43800, Note_on_c, 0, 74, 59
1, 43800, Note_on_c, 0, 62, 46
1, 43860, Note_on_c, 0, 62, 0
1, 43860, Note_on_c, 0, 74, 0
1, 43920, Tempo, 451128
1, 43920, Note_on_c, 0, 62, 61
1, 43980, Note_on_c, 0, 62, 0
1, 44040, Note_on_c, 0, 74, 57
1, 44040, Note_on_c, 0, 62, 44
1, 44100, Note_on_c, 0, 62, 0
1, 44100, Note_on_c, 0, 74, 0
1, 44160, Tempo, 454545
1, 44160, Note_on_c, 0, 63, 67
1, 44220, Note_on_c, 0, 63, 0
1, 44280, Note_on_c, 0, 62, 50
1, 44280, Note_on_c, 0, 74, 64
1, 44340, Note_on_c, 0, 74, 0
1, 44340, Note_on_c, 0, 62, 0
1, 44400, Note_on_c, 0, 65, 63
1, 44460, Note_on_c, 0, 65, 0
1, 44520, Note_on_c, 0, 74, 63
1, 44520, Note_on_c, 0, 62, 49
1, 44580, Note_on_c, 0, 62, 0
1, 44580, Note_on_c, 0, 74, 0
1, 44640, Tempo, 454545
1, 44640, Note_on_c, 0, 62, 70
1, 44700, Note_on_c, 0, 62, 0
1, 44760, Note_on_c, 0, 74, 70
1, 44760, Note_on_c, 0, 62, 54
1, 44820, Note_on_c, 0, 62, 0
1, 44820, Note_on_c, 0, 74, 0
1, 44880, Tempo, 441176
1, 44880, Note_on_c, 0, 63, 62
1, 44940, Note_on_c, 0, 63, 0
1, 45000, Note_on_c, 0, 74, 65
1, 45000, Note_on_c, 0, 62, 50
1, 45060, Note_on_c, 0, 62, 0
1, 45060, Note_on_c, 0, 74, 0
1, 45120, Tempo, 447761
1, 45120, Note_on_c, 0, 60, 74
1, 45180, Note_on_c, 0, 60, 0
1, 45240, Note_on_c, 0, 74, 72
1, 45240, Note_on_c, 0, 62, 56
1, 45300, Note_on_c, 0, 62, 0
1, 45300, Note_on_c, 0, 74, 0
1, 45360, Tempo, 454545
1, 45360, Note_on_c, 0, 62, 69
1, 45420, Note_on_c, 0, 62, 0
1, 45440, Tempo, 456274
1, 45480, Tempo, 458015
1, 45480, Note_on_c, 0, 74, 67
1, 45480, Note_on_c, 0, 62, 52
1, 45520, Tempo, 459770
1, 45540, Note_on_c, 0, 62, 0
1, 45540, Note_on_c, 0, 74, 0
1, 45560, Tempo, 461538
1, 45600, Tempo, 463320
1, 45600, Note_on_c, 0, 58, 75
1, 45640, Tempo, 465116
1, 45660, Note_on_c, 0, 58, 0
1, 45680, Tempo, 466926
1, 45720, Note_on_c, 0, 74, 77
1, 45720, Note_on_c, 0, 62, 60
1, 45760, Tempo, 468750
1, 45780, Note_on_c, 0, 62, 0
1, 45780, Note_on_c, 0, 74, 0
1, 45800, Tempo, 470588
1, 45840, Tempo, 472441
1, 45840, Note_on_c, 0, 62, 70
1, 45880, Tempo, 474308
1, 45900, Note_on_c, 0, 62, 0
1, 45920, Tempo, 476190
1, 45960, Tempo, 478088
1, 45960, Note_on_c, 0, 74, 76
1, 45960, Note_on_c, 0, 62, 59
1, 46000, Tempo, 480000
1, 46020, Note_on_c, 0, 62, 0
1, 46020, Note_on_c, 0, 74, 0
1, 46040, Tempo, 481928
1, 46080, Tempo, 478088
1, 46080, Note_on_c, 0, 43, 95
1, 46080, Note_on_c, 0, 31, 80
1, 46119, Control_c, 0, 64, 127
1, 46200, Tempo, 634921
1, 46200, Note_on_c, 0, 31, 0
1, 46200, Note_on_c, 0, 43, 0
1, 46200, Note_on_c, 0, 82, 76
1, 46200, Note_on_c, 0, 86, 76
1, 46200, Note_on_c, 0, 91, 91
1, 46200, Note_on_c, 0, 79, 76
1, 46260, Note_on_c, 0, 79, 0
1, 46260, Note_on_c, 0, 82, 0
1, 46260, Note_on_c, 0, 86, 0
1, 46260, Note_on_c, 0, 91, 0
1, 46320, Tempo, 433213
1, 46320, Note_on_c, 0, 62, 70
1, 46380, Note_on_c, 0, 62, 0
1, 46440, Note_on_c, 0, 62, 52
1, 46440, Note_on_c, 0, 74, 68
1, 46500, Note_on_c, 0, 74, 0
1, 46500, Note_on_c, 0, 62, 0
1, 46560, Tempo, 446097
1, 46560, Note_on_c, 0, 63, 78
1, 46620, Note_on_c, 0, 63, 0
1, 46680, Note_on_c, 0, 74, 74
1, 46680, Note_on_c, 0, 62, 57
1, 46740, Note_on_c, 0, 62, 0
1, 46740, Note_on_c, 0, 74, 0
1, 46800, Tempo, 454545
1, 46800, Note_on_c, 0, 60, 67
1, 46860, Note_on_c, 0, 60, 0
1, 46920, Note_on_c, 0, 74, 70
1, 46920, Note_on_c, 0, 62, 54
1, 46980, Note_on_c, 0, 62, 0
1, 46980, Note_on_c, 0, 74, 0
1, 47040, Tempo, 454545
1, 47040, Note_on_c, 0, 62, 72
1, 47100, Note_on_c, 0, 62, 0
1, 47160, Note_on_c, 0, 74, 65
1, 47160, Note_on_c, 0, 62, 50
1, 47220, Note_on_c, 0, 62, 0
1, 47220, Note_on_c, 0, 74, 0
1, 47280, Note_on_c, 0, 58, 67
1, 47340, Note_on_c, 0, 58, 0
1, 47400, Note_on_c, 0, 62, 47
1, 47400, Note_on_c, 0, 74, 60
1, 47460, Note_on_c, 0, 74, 0
1, 47460, Note_on_c, 0, 62, 0
1, 47520, Tempo, 466926
1, 47520, Note_on_c, 0, 31, 79
1, 47520, Note_on_c, 0, 43, 94
1, 47529, Control_c, 0, 64, 0
1, 47587, Control_c, 0, 64, 127
1, 47640, Tempo, 631579
1, 47640, Note_on_c, 0, 43, 0
1, 47640, Note_on_c, 0, 31, 0
1, 47640, Note_on_c, 0, 82, 79
1, 47640, Note_on_c, 0, 79, 79
1, 47640, Note_on_c, 0, 86, 79
1, 47640, Note_on_c, 0, 91, 93
1, 47700, Note_on_c, 0, 91, 0
1, 47700, Note_on_c, 0, 82, 0
1, 47700, Note_on_c, 0, 79, 0
1, 47700, Note_on_c, 0, 86, 0
1, 47760, Tempo, 434783
1, 47760, Note_on_c, 0, 62, 70
1, 47820, Note_on_c, 0, 62, 0
1, 47880, Note_on_c, 0, 74, 68
1, 47880, Note_on_c, 0, 62, 52
1, 47940, Note_on_c, 0, 62, 0
1, 47940, Note_on_c, 0, 74, 0
1, 48000, Tempo, 447761
1, 48000, Note_on_c, 0, 63, 78
1, 48060, Note_on_c, 0, 63, 0
1, 48120, Note_on_c, 0, 74, 74
1, 48120, Note_on_c, 0, 62, 57
1, 48180, Note_on_c, 0, 62, 0
1, 48180, Note_on_c, 0, 74, 0
1, 48240, Tempo, 454545
1, 48240, Note_on_c, 0, 60, 67
1, 48300, Note_on_c, 0, 60, 0
1, 48360, Note_on_c, 0, 74, 70
1, 48360, Note_on_c, 0, 62, 54
1, 48420, Note_on_c, 0, 62, 0
1, 48420, Note_on_c, 0, 74, 0
1, 48480, Tempo, 454545
1, 48480, Note_on_c, 0, 62, 72
1, 48540, Note_on_c, 0, 62, 0
1, 48600, Note_on_c, 0, 62, 50
1, 48600, Note_on_c, 0, 74, 65
1, 48660, Note_on_c, 0, 74, 0
1, 48660, Note_on_c, 0, 62, 0
1, 48720, Note_on_c, 0, 58, 67
1, 48780, Note_on_c, 0, 58, 0
1, 48840, Note_on_c, 0, 74, 60
1, 48840, Note_on_c, 0, 62, 47
1, 48900, Note_on_c, 0, 62, 0
1, 48900, Note_on_c, 0, 74, 0
1, 48960, Tempo, 466926
1, 48960, Note_on_c, 0, 31, 79
1, 48960, Note_on_c, 0, 43, 93
1, 48965, Control_c, 0, 64, 0
1, 49002, Control_c, 0, 64, 127
1, 49080, Tempo, 628272
1, 49080, Note_on_c, 0, 43, 0
1, 49080, Note_on_c, 0, 31, 0
1, 49080, Note_on_c, 0, 91, 91
1, 49080, Note_on_c, 0, 79, 76
1, 49080, Note_on_c, 0, 82, 76
1, 49080, Note_on_c, 0, 86, 76
1, 49140, Note_on_c, 0, 86, 0
1, 49140, Note_on_c, 0, 91, 0
1, 49140, Note_on_c, 0, 79, 0
1, 49140, Note_on_c, 0, 82, 0
1, 49200, Tempo, 442804
1, 49200, Note_on_c, 0, 62, 67
1, 49260, Note_on_c, 0, 62, 0
1, 49320, Note_on_c, 0, 74, 65
1, 49320, Note_on_c, 0, 62, 50
1, 49380, Note_on_c, 0, 62, 0
1, 49380, Note_on_c, 0, 74, 0
1, 49440, Tempo, 447761
1, 49440, Note_on_c, 0, 63, 74
1, 49500, Note_on_c, 0, 63, 0
1, 49560, Note_on_c, 0, 74, 71
1, 49560, Note_on_c, 0, 62, 55
1, 49620, Note_on_c, 0, 62, 0
1, 49620, Note_on_c, 0, 74, 0
1, 49680, Tempo, 451128
1, 49680, Note_on_c, 0, 60, 73
1, 49740, Note_on_c, 0, 60, 0
1, 49800, Note_on_c, 0, 74, 67
1, 49800, Note_on_c, 0, 62, 52
1, 49860, Note_on_c, 0, 62, 0
1, 49860, Note_on_c, 0, 74, 0
1, 49920, Tempo, 454545
1, 49920, Note_on_c, 0, 62, 80
1, 49980, Note_on_c, 0, 62, 0
1, 50040, Note_on_c, 0, 74, 72
1, 50040, Note_on_c, 0, 62, 55
1, 50100, Note_on_c, 0, 62, 0
1, 50100, Note_on_c, 0, 74, 0
1, 50160, Note_on_c, 0, 58, 75
1, 50220, Note_on_c, 0, 58, 0
1, 50280, Note_on_c, 0, 74, 75
1, 50280, Note_on_c, 0, 62, 58
1, 50340, Note_on_c, 0, 62, 0
1, 50340, Note_on_c, 0, 74, 0
1, 50400, Tempo, 454545
1, 50400, Note_on_c, 0, 60, 84
1, 50418, Control_c, 0, 64, 0
1, 50460, Note_on_c, 0, 60, 0
1, 50520, Note_on_c, 0, 74, 79
1, 50520, Note_on_c, 0, 62, 61
1, 50580, Note_on_c, 0, 62, 0
1, 50580, Note_on_c, 0, 74, 0
1, 50640, Tempo, 444444
1, 50640, Note_on_c, 0, 57, 74
1, 50700, Note_on_c, 0, 57, 0
1, 50760, Note_on_c, 0, 62, 54
1, 50760, Note_on_c, 0, 74, 70
1, 50820, Note_on_c, 0, 74, 0
1, 50820, Note_on_c, 0, 62, 0
1, 50880, Note_on_c, 0, 58, 76
1, 50940, Note_on_c, 0, 58, 0
1, 51000, Note_on_c, 0, 74, 75
1, 51000, Note_on_c, 0, 62, 58
1, 51060, Note_on_c, 0, 62, 0
1, 51060, Note_on_c, 0, 74, 0
1, 51120, Tempo, 449438
1, 51120, Note_on_c, 0, 60, 69
1, 51180, Note_on_c, 0, 60, 0
1, 51200, Tempo, 449438
1, 51240, Note_on_c, 0, 74, 67
1, 51240, Note_on_c, 0, 62, 52
1, 51300, Note_on_c, 0, 62, 0
1, 51300, Note_on_c, 0, 74, 0
1, 51320, Tempo, 451128
1, 51360, Note_on_c, 0, 57, 73
1, 51400, Tempo, 452830
1, 51420, Note_on_c, 0, 57, 0
1, 51480, Tempo, 454545
1, 51480, Note_on_c, 0, 74, 71
1, 51480, Note_on_c, 0, 62, 54
1, 51540, Note_on_c, 0, 62, 0
1, 51540, Note_on_c, 0, 74, 0
1, 51560, Tempo, 456274
1, 51600, Note_on_c, 0, 58, 68
1, 51640, Tempo, 458015
1, 51660, Note_on_c, 0, 58, 0
1, 51720, Tempo, 485830
1, 51720, Note_on_c, 0, 62, 52
1, 51720, Note_on_c, 0, 74, 67
1, 51780, Note_on_c, 0, 74, 0
1, 51780, Note_on_c, 0, 62, 0
1, 51840, Tempo, 466926
1, 51840, Note_on_c, 0, 49, 96
1, 51840, Note_on_c, 0, 37, 81
1, 51846, Control_c, 0, 64, 0
1, 51882, Control_c, 0, 64, 127
1, 51960, Tempo, 705882
1, 51960, Note_on_c, 0, 37, 0
1, 51960, Note_on_c, 0, 49, 0
1, 51960, Note_on_c, 0, 82, 79
1, 51960, Note_on_c, 0, 79, 79
1, 51960, Note_on_c, 0, 91, 93
1, 51960, Note_on_c, 0, 87, 93
1, 52020, Note_on_c, 0, 87, 0
1, 52020, Note_on_c, 0, 82, 0
1, 52020, Note_on_c, 0, 79, 0
1, 52020, Note_on_c, 0, 91, 0
1, 52080, Tempo, 433213
1, 52080, Note_on_c, 0, 63, 70
1, 52140, Note_on_c, 0, 63, 0
1, 52200, Note_on_c, 0, 75, 68
1, 52200, Note_on_c, 0, 63, 52
1, 52260, Note_on_c, 0, 63, 0
1, 52260, Note_on_c, 0, 75, 0
1, 52320, Tempo, 447761
1, 52320, Note_on_c, 0, 65, 74
1, 52380, Note_on_c, 0, 65, 0
1, 52440, Note_on_c, 0, 75, 74
1, 52440, Note_on_c, 0, 63, 57
1, 52500, Note_on_c, 0, 63, 0
1, 52500, Note_on_c, 0, 75, 0
1, 52560, Tempo, 454545
1, 52560, Note_on_c, 0, 62, 67
1, 52620, Note_on_c, 0, 62, 0
1, 52680, Note_on_c, 0, 75, 70
1, 52680, Note_on_c, 0, 63, 54
1, 52740, Note_on_c, 0, 63, 0
1, 52740, Note_on_c, 0, 75, 0
1, 52800, Tempo, 454545
1, 52800, Note_on_c, 0, 63, 72
1, 52860, Note_on_c, 0, 63, 0
1, 52920, Note_on_c, 0, 63, 50
1, 52920, Note_on_c, 0, 75, 65
1, 52980, Note_on_c, 0, 75, 0
1, 52980, Note_on_c, 0, 63, 0
1, 53040, Tempo, 463320
1, 53040, Note_on_c, 0, 58, 67
1, 53100, Note_on_c, 0, 58, 0
1, 53160, Note_on_c, 0, 75, 60
1, 53160, Note_on_c, 0, 63, 47
1, 53220, Note_on_c, 0, 63, 0
1, 53220, Note_on_c, 0, 75, 0
1, 53280, Tempo, 466926
1, 53280, Note_on_c, 0, 37, 79
1, 53280, Note_on_c, 0, 49, 94
1, 53287, Control_c, 0, 64, 0
1, 53326, Control_c, 0, 64, 127
1, 53400, Tempo, 701754
1, 53400, Note_on_c, 0, 49, 0
1, 53400, Note_on_c, 0, 37, 0
1, 53400, Note_on_c, 0, 82, 79
1, 53400, Note_on_c, 0, 79, 79
1, 53400, Note_on_c, 0, 91, 93
1, 53400, Note_on_c, 0, 87, 93
1, 53460, Note_on_c, 0, 87, 0
1, 53460, Note_on_c, 0, 82, 0
1, 53460, Note_on_c, 0, 79, 0
1, 53460, Note_on_c, 0, 91, 0
1, 53520, Tempo, 433213
1, 53520, Note_on_c, 0, 63, 70
1, 53580, Note_on_c, 0, 63, 0
1, 53640, Note_on_c, 0, 63, 52
1, 53640, Note_on_c, 0, 75, 68
1, 53700, Note_on_c, 0, 75, 0
1, 53700, Note_on_c, 0, 63, 0
1, 53760, Tempo, 447761
1, 53760, Note_on_c, 0, 65, 75
1, 53820, Note_on_c, 0, 65, 0
1, 53880, Note_on_c, 0, 63, 57
1, 53880, Note_on_c, 0, 75, 74
1, 53940, Note_on_c, 0, 75, 0
1, 53940, Note_on_c, 0, 63, 0
1, 54000, Tempo, 454545
1, 54000, Note_on_c, 0, 62, 67
1, 54060, Note_on_c, 0, 62, 0
1, 54120, Note_on_c, 0, 75, 70
1, 54120, Note_on_c, 0, 63, 54
1, 54180, Note_on_c, 0, 63, 0
1, 54180, Note_on_c, 0, 75, 0
1, 54240, Tempo, 454545
1, 54240, Note_on_c, 0, 63, 72
1, 54300, Note_on_c, 0, 63, 0
1, 54360, Note_on_c, 0, 75, 65
1, 54360, Note_on_c, 0, 63, 50
1, 54420, Note_on_c, 0, 63, 0
1, 54420, Note_on_c, 0, 75, 0
1, 54480, Tempo, 468750
1, 54480, Note_on_c, 0, 58, 67
1, 54540, Note_on_c, 0, 58, 0
1, 54600, Note_on_c, 0, 75, 60
1, 54600, Note_on_c, 0, 63, 47
1, 54660, Note_on_c, 0, 63, 0
1, 54660, Note_on_c, 0, 75, 0
1, 54720, Tempo, 466926
1, 54720, Note_on_c, 0, 37, 80
1, 54720, Note_on_c, 0, 49, 95
1, 54725, Control_c, 0, 64, 0
1, 54759, Control_c, 0, 64, 127
1, 54840, Tempo, 693642
1, 54840, Note_on_c, 0, 49, 0
1, 54840, Note_on_c, 0, 37, 0
1, 54840, Note_on_c, 0, 82, 79
1, 54840, Note_on_c, 0, 79, 79
1, 54840, Note_on_c, 0, 87, 93
1, 54840, Note_on_c, 0, 91, 93
1, 54900, Note_on_c, 0, 91, 0
1, 54900, Note_on_c, 0, 82, 0
1, 54900, Note_on_c, 0, 79, 0
1, 54900, Note_on_c, 0, 87, 0
1, 54960, Tempo, 442804
1, 54960, Note_on_c, 0, 63, 67
1, 55020, Note_on_c, 0, 63, 0
1, 55080, Note_on_c, 0, 75, 65
1, 55080, Note_on_c, 0, 63, 50
1, 55140, Note_on_c, 0, 63, 0
1, 55140, Note_on_c, 0, 75, 0
1, 55200, Tempo, 447761
1, 55200, Note_on_c, 0, 65, 74
1, 55260, Note_on_c, 0, 65, 0
1, 55320, Note_on_c, 0, 75, 71
1, 55320, Note_on_c, 0, 63, 55
1, 55380, Note_on_c, 0, 63, 0
1, 55380, Note_on_c, 0, 75, 0
1, 55440, Tempo, 454545
1, 55440, Note_on_c, 0, 62, 64
1, 55500, Note_on_c, 0, 62, 0
1, 55560, Note_on_c, 0, 75, 67
1, 55560, Note_on_c, 0, 63, 52
1, 55620, Note_on_c, 0, 63, 0
1, 55620, Note_on_c, 0, 75, 0
1, 55680, Tempo, 454545
1, 55680, Note_on_c, 0, 63, 69
1, 55740, Note_on_c, 0, 63, 0
1, 55800, Note_on_c, 0, 75, 62
1, 55800, Note_on_c, 0, 63, 48
1, 55860, Note_on_c, 0, 63, 0
1, 55860, Note_on_c, 0, 75, 0
1, 55920, Note_on_c, 0, 58, 64
1, 55980, Note_on_c, 0, 58, 0
1, 56040, Note_on_c, 0, 63, 45
1, 56040, Note_on_c, 0, 75, 58
1, 56100, Note_on_c, 0, 75, 0
1, 56100, Note_on_c, 0, 63, 0
1, 56160, Tempo, 454545
1, 56160, Note_on_c, 0, 60, 84
1, 56168, Control_c, 0, 64, 0
1, 56220, Note_on_c, 0, 60, 0
1, 56280, Note_on_c, 0, 75, 70
1, 56280, Note_on_c, 0, 63, 54
1, 56340, Note_on_c, 0, 63, 0
1, 56340, Note_on_c, 0, 75, 0
1, 56400, Tempo, 444444
1, 56400, Note_on_c, 0, 57, 70
1, 56460, Note_on_c, 0, 57, 0
1, 56520, Note_on_c, 0, 75, 71
1, 56520, Note_on_c, 0, 63, 55
1, 56580, Note_on_c, 0, 63, 0
1, 56580, Note_on_c, 0, 75, 0
1, 56640, Note_on_c, 0, 58, 72
1, 56700, Note_on_c, 0, 58, 0
1, 56760, Note_on_c, 0, 75, 71
1, 56760, Note_on_c, 0, 63, 55
1, 56820, Note_on_c, 0, 63, 0
1, 56820, Note_on_c, 0, 75, 0
1, 56880, Tempo, 449438
1, 56880, Note_on_c, 0, 60, 69
1, 56940, Note_on_c, 0, 60, 0
1, 56960, Tempo, 449438
1, 57000, Note_on_c, 0, 63, 52
1, 57000, Note_on_c, 0, 75, 67
1, 57060, Note_on_c, 0, 75, 0
1, 57060, Note_on_c, 0, 63, 0
1, 57080, Tempo, 451128
1, 57120, Note_on_c, 0, 55, 73
1, 57160, Tempo, 452830
1, 57180, Note_on_c, 0, 55, 0
1, 57240, Tempo, 454545
1, 57240, Note_on_c, 0, 75, 72
1, 57240, Note_on_c, 0, 63, 56
1, 57300, Note_on_c, 0, 63, 0
1, 57300, Note_on_c, 0, 75, 0
1, 57320, Tempo, 456274
1, 57360, Note_on_c, 0, 57, 68
1, 57400, Tempo, 458015
1, 57420, Note_on_c, 0, 57, 0
1, 57480, Tempo, 459770
1, 57480, Note_on_c, 0, 75, 67
1, 57480, Note_on_c, 0, 63, 52
1, 57540, Note_on_c, 0, 63, 0
1, 57540, Note_on_c, 0, 75, 0
1, 57560, Tempo, 461538
1, 57600, Tempo, 466926
1, 57600, Note_on_c, 0, 38, 78
1, 57600, Note_on_c, 0, 50, 92
1, 57666, Control_c, 0, 64, 127
1, 57720, Tempo, 718563
1, 57720, Note_on_c, 0, 50, 0
1, 57720, Note_on_c, 0, 38, 0
1, 57720, Note_on_c, 0, 90, 86
1, 57720, Note_on_c, 0, 93, 86
1, 57720, Note_on_c, 0, 98, 102
1, 57720, Note_on_c, 0, 86, 86
1, 57780, Note_on_c, 0, 86, 0
1, 57780, Note_on_c, 0, 90, 0
1, 57780, Note_on_c, 0, 93, 0
1, 57780, Note_on_c, 0, 98, 0
1, 57840, Tempo, 431655
1, 57840, Note_on_c, 0, 62, 73
1, 57900, Note_on_c, 0, 62, 0
1, 57960, Note_on_c, 0, 74, 71
1, 57960, Note_on_c, 0, 62, 55
1, 58020, Note_on_c, 0, 62, 0
1, 58020, Note_on_c, 0, 74, 0
1, 58080, Tempo, 446097
1, 58080, Note_on_c, 0, 63, 78
1, 58140, Note_on_c, 0, 63, 0
1, 58200, Note_on_c, 0, 74, 75
1, 58200, Note_on_c, 0, 62, 58
1, 58260, Note_on_c, 0, 62, 0
1, 58260, Note_on_c, 0, 74, 0
1, 58320, Tempo, 454545
1, 58320, Note_on_c, 0, 61, 70
1, 58380, Note_on_c, 0, 61, 0
1, 58440, Note_on_c, 0, 74, 73
1, 58440, Note_on_c, 0, 62, 57
1, 58500, Note_on_c, 0, 62, 0
1, 58500, Note_on_c, 0, 74, 0
1, 58560, Tempo, 454545
1, 58560, Note_on_c, 0, 62, 75
1, 58620, Note_on_c, 0, 62, 0
1, 58680, Note_on_c, 0, 74, 68
1, 58680, Note_on_c, 0, 62, 52
1, 58740, Note_on_c, 0, 62, 0
1, 58740, Note_on_c, 0, 74, 0
1, 58800, Note_on_c, 0, 57, 70
1, 58860, Note_on_c, 0, 57, 0
1, 58920, Tempo, 483871
1, 58920, Note_on_c, 0, 74, 63
1, 58920, Note_on_c, 0, 62, 49
1, 58980, Note_on_c, 0, 62, 0
1, 58980, Note_on_c, 0, 74, 0
1, 59040, Tempo, 466926
1, 59040, Note_on_c, 0, 37, 79
1, 59040, Note_on_c, 0, 49, 94
1, 59045, Control_c, 0, 64, 0
1, 59086, Control_c, 0, 64, 127
1, 59160, Tempo, 718563
1, 59160, Note_on_c, 0, 49, 0
1, 59160, Note_on_c, 0, 37, 0
1, 59160, Note_on_c, 0, 94, 86
1, 59160, Note_on_c, 0, 87, 86
1, 59160, Note_on_c, 0, 91, 86
1, 59160, Note_on_c, 0, 99, 102
1, 59220, Note_on_c, 0, 99, 0
1, 59220, Note_on_c, 0, 94, 0
1, 59220, Note_on_c, 0, 87, 0
1, 59220, Note_on_c, 0, 91, 0
1, 59280, Tempo, 431655
1, 59280, Note_on_c, 0, 63, 73
1, 59340, Note_on_c, 0, 63, 0
1, 59400, Note_on_c, 0, 75, 71
1, 59400, Note_on_c, 0, 63, 55
1, 59460, Note_on_c, 0, 63, 0
1, 59460, Note_on_c, 0, 75, 0
1, 59520, Tempo, 447761
1, 59520, Note_on_c, 0, 65, 82
1, 59580, Note_on_c, 0, 65, 0
1, 59640, Note_on_c, 0, 75, 78
1, 59640, Note_on_c, 0, 63, 60
1, 59700, Note_on_c, 0, 63, 0
1, 59700, Note_on_c, 0, 75, 0
1, 59760, Tempo, 454545
1, 59760, Note_on_c, 0, 62, 70
1, 59820, Note_on_c, 0, 62, 0
1, 59880, Note_on_c, 0, 63, 57
1, 59880, Note_on_c, 0, 75, 73
1, 59940, Note_on_c, 0, 75, 0
1, 59940, Note_on_c, 0, 63, 0
1, 60000, Tempo, 454545
1, 60000, Note_on_c, 0, 63, 75
1, 60060, Note_on_c, 0, 63, 0
1, 60120, Note_on_c, 0, 75, 68
1, 60120, Note_on_c, 0, 63, 52
1, 60180, Note_on_c, 0, 63, 0
1, 60180, Note_on_c, 0, 75, 0
1, 60240, Note_on_c, 0, 58, 70
1, 60300, Note_on_c, 0, 58, 0
1, 60360, Tempo, 470588
1, 60360, Note_on_c, 0, 75, 63
1, 60360, Note_on_c, 0, 63, 49
1, 60420, Note_on_c, 0, 63, 0
1, 60420, Note_on_c, 0, 75, 0
1, 60480, Tempo, 466926
1, 60480, Note_on_c, 0, 38, 75
1, 60480, Note_on_c, 0, 50, 89
1, 60480, Control_c, 0, 64, 0
1, 60511, Control_c, 0, 64, 127
1, 60600, Tempo, 710059
1, 60600, Note_on_c, 0, 50, 0
1, 60600, Note_on_c, 0, 38, 0
1, 60600, Note_on_c, 0, 98, 103
1, 60600, Note_on_c, 0, 86, 87
1, 60600, Note_on_c, 0, 90, 87
1, 60600, Note_on_c, 0, 93, 87
1, 60660, Note_on_c, 0, 93, 0
1, 60660, Note_on_c, 0, 98, 0
1, 60660, Note_on_c, 0, 86, 0
1, 60660, Note_on_c, 0, 90, 0
1, 60720, Tempo, 431655
1, 60720, Note_on_c, 0, 62, 73
1, 60780, Note_on_c, 0, 62, 0
1, 60840, Note_on_c, 0, 74, 71
1, 60840, Note_on_c, 0, 62, 55
1, 60900, Note_on_c, 0, 62, 0
1, 60900, Note_on_c, 0, 74, 0
1, 60960, Tempo, 446097
1, 60960, Note_on_c, 0, 63, 78
1, 61020, Note_on_c, 0, 63, 0
1, 61080, Note_on_c, 0, 62, 57
1, 61080, Note_on_c, 0, 74, 74
1, 61140, Note_on_c, 0, 74, 0
1, 61140, Note_on_c, 0, 62, 0
1, 61200, Tempo, 454545
1, 61200, Note_on_c, 0, 61, 70
1, 61260, Note_on_c, 0, 61, 0
1, 61320, Note_on_c, 0, 74, 73
1, 61320, Note_on_c, 0, 62, 57
1, 61380, Note_on_c, 0, 62, 0
1, 61380, Note_on_c, 0, 74, 0
1, 61440, Tempo, 454545
1, 61440, Note_on_c, 0, 62, 75
1, 61500, Note_on_c, 0, 62, 0
1, 61560, Note_on_c, 0, 74, 68
1, 61560, Note_on_c, 0, 62, 52
1, 61620, Note_on_c, 0, 62, 0
1, 61620, Note_on_c, 0, 74, 0
1, 61680, Note_on_c, 0, 57, 70
1, 61740, Note_on_c, 0, 57, 0
1, 61800, Tempo, 476190
1, 61800, Note_on_c, 0, 74, 63
1, 61800, Note_on_c, 0, 62, 49
1, 61860, Note_on_c, 0, 62, 0
1, 61860, Note_on_c, 0, 74, 0
1, 61920, Tempo, 466926
1, 61920, Note_on_c, 0, 37, 79
1, 61920, Note_on_c, 0, 49, 94
1, 61927, Control_c, 0, 64, 0
1, 61962, Control_c, 0, 64, 127
1, 62040, Tempo, 701754
1, 62040, Note_on_c, 0, 49, 0
1, 62040, Note_on_c, 0, 37, 0
1, 62040, Note_on_c, 0, 91, 86
1, 62040, Note_on_c, 0, 87, 86
1, 62040, Note_on_c, 0, 99, 102
1, 62040, Note_on_c, 0, 94, 86
1, 62100, Note_on_c, 0, 94, 0
1, 62100, Note_on_c, 0, 91, 0
1, 62100, Note_on_c, 0, 87, 0
1, 62100, Note_on_c, 0, 99, 0
1, 62160, Tempo, 434783
1, 62160, Note_on_c, 0, 63, 73
1, 62220, Note_on_c, 0, 63, 0
1, 62280, Note_on_c, 0, 75, 71
1, 62280, Note_on_c, 0, 63, 55
1, 62340, Note_on_c, 0, 63, 0
1, 62340, Note_on_c, 0, 75, 0
1, 62400, Tempo, 447761
1, 62400, Note_on_c, 0, 65, 79
1, 62460, Note_on_c, 0, 65, 0
1, 62520, Note_on_c, 0, 75, 78
1, 62520, Note_on_c, 0, 63, 60
1, 62580, Note_on_c, 0, 63, 0
1, 62580, Note_on_c, 0, 75, 0
1, 62640, Tempo, 454545
1, 62640, Note_on_c, 0, 62, 70
1, 62700, Note_on_c, 0, 62, 0
1, 62760, Note_on_c, 0, 75, 73
1, 62760, Note_on_c, 0, 63, 57
1, 62820, Note_on_c, 0, 63, 0
1, 62820, Note_on_c, 0, 75, 0
1, 62880, Tempo, 454545
1, 62880, Note_on_c, 0, 63, 75
1, 62940, Note_on_c, 0, 63, 0
1, 63000, Note_on_c, 0, 63, 52
1, 63000, Note_on_c, 0, 75, 68
1, 63060, Note_on_c, 0, 75, 0
1, 63060, Note_on_c, 0, 63, 0
1, 63120, Note_on_c, 0, 58, 70
1, 63180, Note_on_c, 0, 58, 0
1, 63240, Note_on_c, 0, 75, 63
1, 63240, Note_on_c, 0, 63, 49
1, 63300, Note_on_c, 0, 63, 0
1, 63300, Note_on_c, 0, 75, 0
1, 63360, Tempo, 466926
1, 63360, Note_on_c, 0, 38, 75
1, 63360, Note_on_c, 0, 50, 89
1, 63369, Control_c, 0, 64, 0
1, 63397, Control_c, 0, 64, 127
1, 63480, Tempo, 727273
1, 63480, Note_on_c, 0, 50, 0
1, 63480, Note_on_c, 0, 38, 0
1, 63480, Note_on_c, 0, 98, 102
1, 63480, Note_on_c, 0, 86, 86
1, 63480, Note_on_c, 0, 90, 86
1, 63480, Note_on_c, 0, 93, 86
1, 63540, Note_on_c, 0, 93, 0
1, 63540, Note_on_c, 0, 98, 0
1, 63540, Note_on_c, 0, 86, 0
1, 63540, Note_on_c, 0, 90, 0
1, 63600, Tempo, 441176
1, 63600, Note_on_c, 0, 62, 73
1, 63660, Note_on_c, 0, 62, 0
1, 63720, Note_on_c, 0, 74, 71
1, 63720, Note_on_c, 0, 62, 55
1, 63780, Note_on_c, 0, 62, 0
1, 63780, Note_on_c, 0, 74, 0
1, 63840, Tempo, 446097
1, 63840, Note_on_c, 0, 63, 78
1, 63900, Note_on_c, 0, 63, 0
1, 63960, Note_on_c, 0, 74, 78
1, 63960, Note_on_c, 0, 62, 60
1, 64020, Note_on_c, 0, 62, 0
1, 64020, Note_on_c, 0, 74, 0
1, 64080, Tempo, 454545
1, 64080, Note_on_c, 0, 61, 70
1, 64140, Note_on_c, 0, 61, 0
1, 64200, Note_on_c, 0, 74, 73
1, 64200, Note_on_c, 0, 62, 57
1, 64260, Note_on_c, 0, 62, 0
1, 64260, Note_on_c, 0, 74, 0
1, 64320, Tempo, 454545
1, 64320, Note_on_c, 0, 62, 75
1, 64380, Note_on_c, 0, 62, 0
1, 64440, Note_on_c, 0, 74, 68
1, 64440, Note_on_c, 0, 62, 52
1, 64500, Note_on_c, 0, 62, 0
1, 64500, Note_on_c, 0, 74, 0
1, 64560, Note_on_c, 0, 58, 70
1, 64620, Note_on_c, 0, 58, 0
1, 64680, Note_on_c, 0, 74, 63
1, 64680, Note_on_c, 0, 62, 49
1, 64740, Note_on_c, 0, 62, 0
1, 64740, Note_on_c, 0, 74, 0
1, 64800, Tempo, 458015
1, 64800, Note_on_c, 0, 60, 76
1, 64811, Control_c, 0, 64, 0
1, 64920, Note_on_c, 0, 60, 0
1, 64920, Note_on_c, 0, 74, 68
1, 64920, Note_on_c, 0, 62, 53
1, 64980, Note_on_c, 0, 62, 0
1, 64980, Note_on_c, 0, 74, 0
1, 65040, Tempo, 441176
1, 65040, Note_on_c, 0, 57, 67
1, 65100, Note_on_c, 0, 57, 0
1, 65160, Note_on_c, 0, 74, 65
1, 65160, Note_on_c, 0, 62, 50
1, 65220, Note_on_c, 0, 62, 0
1, 65220, Note_on_c, 0, 74, 0
1, 65280, Tempo, 446097
1, 65280, Note_on_c, 0, 58, 70
1, 65340, Note_on_c, 0, 58, 0
1, 65400, Note_on_c, 0, 62, 51
1, 65400, Note_on_c, 0, 74, 66
1, 65460, Note_on_c, 0, 74, 0
1, 65460, Note_on_c, 0, 62, 0
1, 65520, Tempo, 454545
1, 65520, Note_on_c, 0, 60, 64
1, 65580, Note_on_c, 0, 60, 0
1, 65640, Note_on_c, 0, 74, 63
1, 65640, Note_on_c, 0, 62, 49
1, 65700, Note_on_c, 0, 62, 0
1, 65700, Note_on_c, 0, 74, 0
1, 65760, Tempo, 442804
1, 65760, Note_on_c, 0, 57, 69
1, 65820, Note_on_c, 0, 57, 0
1, 65880, Note_on_c, 0, 74, 65
1, 65880, Note_on_c, 0, 62, 50
1, 65940, Note_on_c, 0, 62, 0
1, 65940, Note_on_c, 0, 74, 0
1, 66000, Tempo, 447761
1, 66000, Note_on_c, 0, 58, 64
1, 66060, Note_on_c, 0, 58, 0
1, 66120, Note_on_c, 0, 74, 58
1, 66120, Note_on_c, 0, 62, 45
1, 66180, Note_on_c, 0, 62, 0
1, 66180, Note_on_c, 0, 74, 0
1, 66240, Tempo, 439560
1, 66240, Note_on_c, 0, 55, 76
1, 66360, Note_on_c, 0, 55, 0
1, 66360, Note_on_c, 0, 62, 53
1, 66360, Note_on_c, 0, 74, 68
1, 66420, Note_on_c, 0, 74, 0
1, 66420, Note_on_c, 0, 62, 0
1, 66480, Tempo, 447761
1, 66480, Note_on_c, 0, 57, 67
1, 66540, Note_on_c, 0, 57, 0
1, 66600, Note_on_c, 0, 62, 49
1, 66600, Note_on_c, 0, 74, 63
1, 66660, Note_on_c, 0, 74, 0
1, 66660, Note_on_c, 0, 62, 0
1, 66720, Tempo, 441176
1, 66720, Note_on_c, 0, 58, 69
1, 66780, Note_on_c, 0, 58, 0
1, 66840, Note_on_c, 0, 74, 63
1, 66840, Note_on_c, 0, 62, 49
1, 66900, Note_on_c, 0, 62, 0
1, 66900, Note_on_c, 0, 74, 0
1, 66960, Tempo, 447761
1, 66960, Note_on_c, 0, 60, 62
1, 67020, Note_on_c, 0, 60, 0
1, 67080, Note_on_c, 0, 74, 62
1, 67080, Note_on_c, 0, 62, 48
1, 67140, Note_on_c, 0, 62, 0
1, 67140, Note_on_c, 0, 74, 0
1, 67200, Tempo, 441176
1, 67200, Note_on_c, 0, 57, 66
1, 67260, Note_on_c, 0, 57, 0
1, 67320, Note_on_c, 0, 74, 62
1, 67320, Note_on_c, 0, 62, 48
1, 67380, Note_on_c, 0, 62, 0
1, 67380, Note_on_c, 0, 74, 0
1, 67440, Tempo, 442804
1, 67440, Note_on_c, 0, 58, 61
1, 67500, Note_on_c, 0, 58, 0
1, 67560, Note_on_c, 0, 62, 43
1, 67560, Note_on_c, 0, 74, 55
1, 67620, Note_on_c, 0, 74, 0
1, 67620, Note_on_c, 0, 62, 0
1, 67680, Tempo, 437956
1, 67680, Note_on_c, 0, 55, 72
1, 67800, Note_on_c, 0, 55, 0
1, 67800, Note_on_c, 0, 62, 49
1, 67800, Note_on_c, 0, 74, 63
1, 67860, Note_on_c, 0, 74, 0
1, 67860, Note_on_c, 0, 62, 0
1, 67920, Tempo, 449438
1, 67920, Note_on_c, 0, 57, 62
1, 67980, Note_on_c, 0, 57, 0
1, 68040, Note_on_c, 0, 74, 59
1, 68040, Note_on_c, 0, 62, 46
1, 68100, Note_on_c, 0, 62, 0
1, 68100, Note_on_c, 0, 74, 0
1, 68160, Tempo, 451128
1, 68160, Note_on_c, 0, 58, 64
1, 68220, Note_on_c, 0, 58, 0
1, 68240, Tempo, 452830
1, 68280, Tempo, 454545
1, 68280, Note_on_c, 0, 74, 59
1, 68280, Note_on_c, 0, 62, 46
1, 68320, Tempo, 456274
1, 68340, Note_on_c, 0, 62, 0
1, 68340, Note_on_c, 0, 74, 0
1, 68360, Tempo, 458015
1, 68400, Tempo, 459770
1, 68400, Note_on_c, 0, 55, 57
1, 68440, Tempo, 461538
1, 68460, Note_on_c, 0, 55, 0
1, 68480, Tempo, 463320
1, 68520, Tempo, 465116
1, 68520, Note_on_c, 0, 74, 55
1, 68520, Note_on_c, 0, 62, 43
1, 68580, Note_on_c, 0, 62, 0
1, 68580, Note_on_c, 0, 74, 0
1, 68600, Tempo, 466926
1, 68640, Tempo, 468750
1, 68640, Note_on_c, 0, 53, 60
1, 68680, Tempo, 470588
1, 68700, Note_on_c, 0, 53, 0
1, 68720, Tempo, 472441
1, 68760, Tempo, 474308
1, 68760, Note_on_c, 0, 74, 57
1, 68760, Note_on_c, 0, 62, 44
1, 68800, Tempo, 476190
1, 68820, Note_on_c, 0, 62, 0
1, 68820, Note_on_c, 0, 74, 0
1, 68840, Tempo, 478088
1, 68880, Tempo, 480000
1, 68880, Note_on_c, 0, 51, 55
1, 68920, Tempo, 466926
1, 68940, Note_on_c, 0, 51, 0
1, 69000, Note_on_c, 0, 62, 38
1, 69000, Note_on_c, 0, 74, 49
1, 69060, Note_on_c, 0, 74, 0
1, 69060, Note_on_c, 0, 62, 0
1, 69120, Tempo, 466926
1, 69120, Note_on_c, 0, 38, 63
1, 69120, Note_on_c, 0, 50, 74
1, 69177, Control_c, 0, 64, 127
1, 69240, Note_on_c, 0, 50, 0
1, 69240, Note_on_c, 0, 38, 0
1, 69240, Note_on_c, 0, 74, 75
1, 69240, Note_on_c, 0, 62, 58
1, 69300, Note_on_c, 0, 62, 0
1, 69300, Note_on_c, 0, 74, 0
1, 69336, Control_c, 0, 64, 0
1, 69360, Tempo, 441176
1, 69360, Note_on_c, 0, 62, 56
1, 69420, Note_on_c, 0, 62, 0
1, 69480, Note_on_c, 0, 62, 42
1, 69540, Note_on_c, 0, 62, 0
1, 69600, Tempo, 446097
1, 69600, Note_on_c, 0, 63, 63
1, 69660, Note_on_c, 0, 63, 0
1, 69720, Note_on_c, 0, 62, 46
1, 69780, Note_on_c, 0, 62, 0
1, 69840, Tempo, 454545
1, 69840, Note_on_c, 0, 60, 54
1, 69900, Note_on_c, 0, 60, 0
1, 69960, Note_on_c, 0, 62, 44
1, 70020, Note_on_c, 0, 62, 0
1, 70080, Tempo, 454545
1, 70080, Note_on_c, 0, 62, 58
1, 70140, Note_on_c, 0, 62, 0
1, 70200, Note_on_c, 0, 62, 40
1, 70260, Note_on_c, 0, 62, 0
1, 70320, Note_on_c, 0, 58, 54
1, 70380, Note_on_c, 0, 58, 0
1, 70440, Note_on_c, 0, 62, 38
1, 70500, Note_on_c, 0, 62, 0
1, 70560, Tempo, 458015
1, 70560, Note_on_c, 0, 60, 64
1, 70680, Note_on_c, 0, 60, 0
1, 70680, Note_on_c, 0, 62, 45
1, 70740, Note_on_c, 0, 62, 0
1, 70800, Tempo, 441176
1, 70800, Note_on_c, 0, 57, 56
1, 70860, Note_on_c, 0, 57, 0
1, 70920, Note_on_c, 0, 62, 42
1, 70980, Note_on_c, 0, 62, 0
1, 71040, Tempo, 446097
1, 71040, Note_on_c, 0, 58, 59
1, 71100, Note_on_c, 0, 58, 0
1, 71160, Note_on_c, 0, 62, 43
1, 71220, Note_on_c, 0, 62, 0
1, 71280, Tempo, 454545
1, 71280, Note_on_c, 0, 60, 54
1, 71340, Note_on_c, 0, 60, 0
1, 71400, Note_on_c, 0, 62, 41
1, 71460, Note_on_c, 0, 62, 0
1, 71520, Tempo, 442804
1, 71520, Note_on_c, 0, 57, 58
1, 71580, Note_on_c, 0, 57, 0
1, 71640, Note_on_c, 0, 62, 42
1, 71700, Note_on_c, 0, 62, 0
1, 71760, Tempo, 447761
1, 71760, Note_on_c, 0, 58, 54
1, 71820, Note_on_c, 0, 58, 0
1, 71880, Note_on_c, 0, 62, 38
1, 71940, Note_on_c, 0, 62, 0
1, 72000, Tempo, 439560
1, 72000, Note_on_c, 0, 55, 64
1, 72120, Note_on_c, 0, 55, 0
1, 72120, Note_on_c, 0, 62, 45
1, 72180, Note_on_c, 0, 62, 0
1, 72240, Tempo, 447761
1, 72240, Note_on_c, 0, 57, 56
1, 72300, Note_on_c, 0, 57, 0
1, 72360, Note_on_c, 0, 62, 41
1, 72420, Note_on_c, 0, 62, 0
1, 72480, Tempo, 441176
1, 72480, Note_on_c, 0, 58, 58
1, 72540, Note_on_c, 0, 58, 0
1, 72600, Note_on_c, 0, 62, 41
1, 72660, Note_on_c, 0, 62, 0
1, 72720, Tempo, 447761
1, 72720, Note_on_c, 0, 60, 52
1, 72780, Note_on_c, 0, 60, 0
1, 72840, Note_on_c, 0, 62, 40
1, 72900, Note_on_c, 0, 62, 0
1, 72960, Tempo, 441176
1, 72960, Note_on_c, 0, 57, 56
1, 73020, Note_on_c, 0, 57, 0
1, 73080, Note_on_c, 0, 62, 40
1, 73140, Note_on_c, 0, 62, 0
1, 73200, Tempo, 442804
1, 73200, Note_on_c, 0, 58, 51
1, 73260, Note_on_c, 0, 58, 0
1, 73320, Note_on_c, 0, 62, 36
1, 73380, Note_on_c, 0, 62, 0
1, 73440, Tempo, 437956
1, 73440, Note_on_c, 0, 55, 61
1, 73560, Note_on_c, 0, 55, 0
1, 73560, Note_on_c, 0, 62, 41
1, 73620, Note_on_c, 0, 62, 0
1, 73680, Tempo, 449438
1, 73680, Note_on_c, 0, 57, 52
1, 73740, Note_on_c, 0, 57, 0
1, 73800, Note_on_c, 0, 62, 39
1, 73860, Note_on_c, 0, 62, 0
1, 73920, Tempo, 451128
1, 73920, Note_on_c, 0, 58, 54
1, 73980, Note_on_c, 0, 58, 0
1, 74040, Tempo, 452830
1, 74040, Note_on_c, 0, 62, 39
1, 74100, Note_on_c, 0, 62, 0
1, 74120, Tempo, 454545
1, 74160, Note_on_c, 0, 55, 48
1, 74200, Tempo, 456274
1, 74220, Note_on_c, 0, 55, 0
1, 74280, Tempo, 458015
1, 74280, Note_on_c, 0, 62, 36
1, 74340, Note_on_c, 0, 62, 0
1, 74360, Tempo, 459770
1, 74400, Note_on_c, 0, 53, 51
1, 74440, Tempo, 461538
1, 74460, Note_on_c, 0, 53, 0
1, 74520, Tempo, 463320
1, 74520, Note_on_c, 0, 62, 37
1, 74580, Note_on_c, 0, 62, 0
1, 74600, Tempo, 465116
1, 74640, Note_on_c, 0, 51, 46
1, 74680, Tempo, 466926
1, 74700, Note_on_c, 0, 51, 0
1, 74760, Note_on_c, 0, 62, 32
1, 74820, Note_on_c, 0, 62, 0
1, 74880, Tempo, 466926
1, 74880, Note_on_c, 0, 38, 45
1, 74890, Control_c, 0, 64, 0
1, 74911, Control_c, 0, 64, 127
1, 75000, Note_on_c, 0, 57, 36
1, 75000, Note_on_c, 0, 54, 36
1, 75060, Note_on_c, 0, 54, 0
1, 75060, Note_on_c, 0, 57, 0
1, 75120, Tempo, 444444
1, 75120, Note_on_c, 0, 45, 45
1, 75180, Note_on_c, 0, 45, 0
1, 75240, Note_on_c, 0, 54, 31
1, 75240, Note_on_c, 0, 57, 31
1, 75300, Note_on_c, 0, 57, 0
1, 75300, Note_on_c, 0, 54, 0
1, 75360, Tempo, 446097
1, 75360, Note_on_c, 0, 50, 42
1, 75382, Control_c, 0, 64, 0
1, 75399, Control_c, 0, 64, 127
1, 75420, Note_on_c, 0, 50, 0
1, 75480, Note_on_c, 0, 54, 34
1, 75480, Note_on_c, 0, 57, 34
1, 75540, Note_on_c, 0, 57, 0
1, 75540, Note_on_c, 0, 54, 0
1, 75600, Tempo, 454545
1, 75600, Note_on_c, 0, 51, 49
1, 75660, Note_on_c, 0, 51, 0
1, 75720, Note_on_c, 0, 54, 33
1, 75720, Note_on_c, 0, 57, 33
1, 75780, Note_on_c, 0, 57, 0
1, 75780, Note_on_c, 0, 54, 0
1, 75840, Tempo, 446097
1, 75840, Note_on_c, 0, 49, 54
1, 75854, Control_c, 0, 64, 0
1, 75877, Control_c, 0, 64, 127
1, 75880, Tempo, 439560
1, 75900, Note_on_c, 0, 49, 0
1, 75960, Note_on_c, 0, 54, 35
1, 75960, Note_on_c, 0, 57, 35
1, 76020, Note_on_c, 0, 57, 0
1, 76020, Note_on_c, 0, 54, 0
1, 76080, Tempo, 444444
1, 76080, Note_on_c, 0, 50, 51
1, 76140, Note_on_c, 0, 50, 0
1, 76200, Note_on_c, 0, 54, 34
1, 76200, Note_on_c, 0, 57, 34
1, 76260, Note_on_c, 0, 57, 0
1, 76260, Note_on_c, 0, 54, 0
1, 76320, Tempo, 454545
1, 76320, Note_on_c, 0, 38, 0
1, 76320, Note_on_c, 0, 38, 56
1, 76330, Control_c, 0, 64, 0
1, 76369, Control_c, 0, 64, 127
1, 76440, Note_on_c, 0, 58, 36
1, 76440, Note_on_c, 0, 55, 36
1, 76500, Note_on_c, 0, 55, 0
1, 76500, Note_on_c, 0, 58, 0
1, 76560, Tempo, 441176
1, 76560, Note_on_c, 0, 45, 49
1, 76620, Note_on_c, 0, 45, 0
1, 76680, Note_on_c, 0, 55, 31
1, 76680, Note_on_c, 0, 58, 31
1, 76740, Note_on_c, 0, 58, 0
1, 76740, Note_on_c, 0, 55, 0
1, 76800, Tempo, 446097
1, 76800, Note_on_c, 0, 51, 51
1, 76815, Control_c, 0, 64, 0
1, 76846, Control_c, 0, 64, 127
1, 76860, Note_on_c, 0, 51, 0
1, 76920, Note_on_c, 0, 55, 34
1, 76920, Note_on_c, 0, 58, 34
1, 76980, Note_on_c, 0, 58, 0
1, 76980, Note_on_c, 0, 55, 0
1, 77040, Tempo, 454545
1, 77040, Note_on_c, 0, 53, 46
1, 77100, Note_on_c, 0, 53, 0
1, 77160, Note_on_c, 0, 55, 29
1, 77160, Note_on_c, 0, 58, 29
1, 77220, Note_on_c, 0, 58, 0
1, 77220, Note_on_c, 0, 55, 0
1, 77280, Tempo, 454545
1, 77280, Note_on_c, 0, 50, 49
1, 77291, Control_c, 0, 64, 0
1, 77322, Control_c, 0, 64, 127
1, 77340, Note_on_c, 0, 50, 0
1, 77400, Note_on_c, 0, 58, 34
1, 77400, Note_on_c, 0, 55, 34
1, 77460, Note_on_c, 0, 55, 0
1, 77460, Note_on_c, 0, 58, 0
1, 77520, Note_on_c, 0, 51, 46
1, 77580, Note_on_c, 0, 51, 0
1, 77640, Note_on_c, 0, 55, 31
1, 77640, Note_on_c, 0, 58, 31
1, 77700, Note_on_c, 0, 58, 0
1, 77700, Note_on_c, 0, 55, 0
1, 77760, Tempo, 466926
1, 77760, Note_on_c, 0, 38, 0
1, 77760, Note_on_c, 0, 38, 45
1, 77769, Control_c, 0, 64, 0
1, 77809, Control_c, 0, 64, 127
1, 77880, Note_on_c, 0, 54, 36
1, 77880, Note_on_c, 0, 57, 36
1, 77940, Note_on_c, 0, 57, 0
1, 77940, Note_on_c, 0, 54, 0
1, 78000, Tempo, 441176
1, 78000, Note_on_c, 0, 45, 45
1, 78060, Note_on_c, 0, 45, 0
1, 78120, Note_on_c, 0, 54, 31
1, 78120, Note_on_c, 0, 57, 31
1, 78180, Note_on_c, 0, 57, 0
1, 78180, Note_on_c, 0, 54, 0
1, 78240, Tempo, 446097
1, 78240, Note_on_c, 0, 50, 42
1, 78259, Control_c, 0, 64, 0
1, 78279, Control_c, 0, 64, 127
1, 78300, Note_on_c, 0, 50, 0
1, 78360, Note_on_c, 0, 54, 34
1, 78360, Note_on_c, 0, 57, 34
1, 78420, Note_on_c, 0, 57, 0
1, 78420, Note_on_c, 0, 54, 0
1, 78480, Tempo, 454545
1, 78480, Note_on_c, 0, 51, 47
1, 78540, Note_on_c, 0, 51, 0
1, 78600, Note_on_c, 0, 54, 33
1, 78600, Note_on_c, 0, 57, 33
1, 78660, Note_on_c, 0, 57, 0
1, 78660, Note_on_c, 0, 54, 0
1, 78720, Tempo, 441176
1, 78720, Note_on_c, 0, 49, 52
1, 78731, Control_c, 0, 64, 0
1, 78757, Control_c, 0, 64, 127
1, 78780, Note_on_c, 0, 49, 0
1, 78840, Note_on_c, 0, 54, 35
1, 78840, Note_on_c, 0, 57, 35
1, 78900, Note_on_c, 0, 57, 0
1, 78900, Note_on_c, 0, 54, 0
1, 78960, Tempo, 447761
1, 78960, Note_on_c, 0, 50, 49
1, 79020, Note_on_c, 0, 50, 0
1, 79080, Note_on_c, 0, 54, 34
1, 79080, Note_on_c, 0, 57, 34
1, 79140, Note_on_c, 0, 57, 0
1, 79140, Note_on_c, 0, 54, 0
1, 79200, Tempo, 452830
1, 79200, Note_on_c, 0, 38, 0
1, 79200, Note_on_c, 0, 38, 54
1, 79206, Control_c, 0, 64, 0
1, 79235, Control_c, 0, 64, 127
1, 79320, Note_on_c, 0, 55, 36
1, 79320, Note_on_c, 0, 58, 36
1, 79380, Note_on_c, 0, 58, 0
1, 79380, Note_on_c, 0, 55, 0
1, 79440, Tempo, 441176
1, 79440, Note_on_c, 0, 45, 46
1, 79500, Note_on_c, 0, 45, 0
1, 79560, Note_on_c, 0, 55, 31
1, 79560, Note_on_c, 0, 58, 31
1, 79620, Note_on_c, 0, 58, 0
1, 79620, Note_on_c, 0, 55, 0
1, 79680, Tempo, 446097
1, 79680, Note_on_c, 0, 51, 48
1, 79696, Control_c, 0, 64, 0
1, 79729, Control_c, 0, 64, 127
1, 79740, Note_on_c, 0, 51, 0
1, 79800, Note_on_c, 0, 58, 34
1, 79800, Note_on_c, 0, 55, 34
1, 79860, Note_on_c, 0, 55, 0
1, 79860, Note_on_c, 0, 58, 0
1, 79920, Tempo, 454545
1, 79920, Note_on_c, 0, 53, 45
1, 79980, Note_on_c, 0, 53, 0
1, 80040, Note_on_c, 0, 55, 29
1, 80040, Note_on_c, 0, 58, 29
1, 80100, Note_on_c, 0, 58, 0
1, 80100, Note_on_c, 0, 55, 0
1, 80160, Tempo, 446097
1, 80160, Note_on_c, 0, 50, 47
1, 80170, Control_c, 0, 64, 0
1, 80213, Control_c, 0, 64, 127
1, 80220, Note_on_c, 0, 50, 0
1, 80280, Note_on_c, 0, 55, 34
1, 80280, Note_on_c, 0, 58, 34
1, 80340, Note_on_c, 0, 58, 0
1, 80340, Note_on_c, 0, 55, 0
1, 80400, Tempo, 451128
1, 80400, Note_on_c, 0, 51, 44
1, 80460, Note_on_c, 0, 51, 0
1, 80520, Note_on_c, 0, 55, 31
1, 80520, Note_on_c, 0, 58, 31
1, 80580, Note_on_c, 0, 58, 0
1, 80580, Note_on_c, 0, 55, 0
1, 80640, Tempo, 466926
1, 80640, Note_on_c, 0, 38, 0
1, 80640, Note_on_c, 0, 38, 45
1, 80647, Control_c, 0, 64, 0
1, 80686, Control_c, 0, 64, 127
1, 80760, Note_on_c, 0, 57, 36
1, 80760, Note_on_c, 0, 54, 36
1, 80820, Note_on_c, 0, 54, 0
1, 80820, Note_on_c, 0, 57, 0
1, 80880, Tempo, 441176
1, 80880, Note_on_c, 0, 45, 45
1, 80940, Note_on_c, 0, 45, 0
1, 81000, Note_on_c, 0, 54, 31
1, 81000, Note_on_c, 0, 57, 31
1, 81060, Note_on_c, 0, 57, 0
1, 81060, Note_on_c, 0, 54, 0
1, 81120, Tempo, 446097
1, 81120, Note_on_c, 0, 50, 42
1, 81139, Control_c, 0, 64, 0
1, 81159, Control_c, 0, 64, 127
1, 81180, Note_on_c, 0, 50, 0
1, 81240, Note_on_c, 0, 54, 34
1, 81240, Note_on_c, 0, 57, 34
1, 81300, Note_on_c, 0, 57, 0
1, 81300, Note_on_c, 0, 54, 0
1, 81360, Tempo, 454545
1, 81360, Note_on_c, 0, 51, 47
1, 81420, Note_on_c, 0, 51, 0
1, 81480, Note_on_c, 0, 54, 33
1, 81480, Note_on_c, 0, 57, 33
1, 81540, Note_on_c, 0, 57, 0
1, 81540, Note_on_c, 0, 54, 0
1, 81600, Tempo, 444444
1, 81600, Note_on_c, 0, 49, 51
1, 81611, Control_c, 0, 64, 0
1, 81634, Control_c, 0, 64, 127
1, 81660, Note_on_c, 0, 49, 0
1, 81720, Note_on_c, 0, 54, 35
1, 81720, Note_on_c, 0, 57, 35
1, 81780, Note_on_c, 0, 57, 0
1, 81780, Note_on_c, 0, 54, 0
1, 81840, Tempo, 449438
1, 81840, Note_on_c, 0, 51, 48
1, 81900, Note_on_c, 0, 51, 0
1, 81960, Note_on_c, 0, 54, 34
1, 81960, Note_on_c, 0, 57, 34
1, 82020, Note_on_c, 0, 57, 0
1, 82020, Note_on_c, 0, 54, 0
1, 82080, Tempo, 458015
1, 82080, Note_on_c, 0, 50, 53
1, 82091, Control_c, 0, 64, 0
1, 82126, Control_c, 0, 64, 127
1, 82140, Note_on_c, 0, 50, 0
1, 82200, Note_on_c, 0, 57, 36
1, 82200, Note_on_c, 0, 54, 36
1, 82260, Note_on_c, 0, 54, 0
1, 82260, Note_on_c, 0, 57, 0
1, 82320, Tempo, 441176
1, 82320, Note_on_c, 0, 51, 46
1, 82380, Note_on_c, 0, 51, 0
1, 82440, Note_on_c, 0, 54, 31
1, 82440, Note_on_c, 0, 57, 31
1, 82500, Note_on_c, 0, 57, 0
1, 82500, Note_on_c, 0, 54, 0
1, 82560, Tempo, 446097
1, 82560, Note_on_c, 0, 49, 48
1, 82570, Control_c, 0, 64, 0
1, 82599, Control_c, 0, 64, 127
1, 82620, Note_on_c, 0, 49, 0
1, 82680, Note_on_c, 0, 54, 34
1, 82680, Note_on_c, 0, 57, 34
1, 82740, Note_on_c, 0, 57, 0
1, 82740, Note_on_c, 0, 54, 0
1, 82800, Tempo, 454545
1, 82800, Note_on_c, 0, 51, 45
1, 82860, Note_on_c, 0, 51, 0
1, 82920, Note_on_c, 0, 54, 29
1, 82920, Note_on_c, 0, 57, 29
1, 82980, Note_on_c, 0, 57, 0
1, 82980, Note_on_c, 0, 54, 0
1, 83040, Tempo, 454545
1, 83040, Note_on_c, 0, 50, 45
1, 83049, Control_c, 0, 64, 0
1, 83071, Control_c, 0, 64, 127
1, 83100, Note_on_c, 0, 50, 0
1, 83160, Note_on_c, 0, 57, 34
1, 83160, Note_on_c, 0, 54, 34
1, 83220, Note_on_c, 0, 54, 0
1, 83220, Note_on_c, 0, 57, 0
1, 83280, Note_on_c, 0, 45, 44
1, 83340, Note_on_c, 0, 45, 0
1, 83400, Note_on_c, 0, 57, 31
1, 83400, Note_on_c, 0, 54, 31
1, 83460, Note_on_c, 0, 54, 0
1, 83460, Note_on_c, 0, 57, 0
1, 83520, Note_on_c, 0, 38, 0
1, 83520, Note_on_c, 0, 38, 45
1, 83526, Control_c, 0, 64, 0
1, 83557, Control_c, 0, 64, 127
1, 83580, Note_on_c, 0, 38, 0
1, 83640, Note_on_c, 0, 54, 43
1, 83700, Note_on_c, 0, 54, 0
1, 83760, Note_on_c, 0, 54, 45
1, 83820, Note_on_c, 0, 54, 0
1, 83880, Note_on_c, 0, 57, 43
1, 83940, Note_on_c, 0, 57, 0
1, 84000, Note_on_c, 0, 57, 45
1, 84060, Note_on_c, 0, 57, 0
1, 84120, Note_on_c, 0, 62, 42
1, 84180, Note_on_c, 0, 62, 0
1, 84240, Note_on_c, 0, 62, 45
1, 84300, Note_on_c, 0, 62, 0
1, 84360, Note_on_c, 0, 66, 42
1, 84420, Note_on_c, 0, 66, 0
1, 84480, Note_on_c, 0, 66, 44
1, 84540, Note_on_c, 0, 66, 0
1, 84600, Note_on_c, 0, 69, 41
1, 84660, Note_on_c, 0, 69, 0
1, 84720, Note_on_c, 0, 69, 43
1, 84780, Note_on_c, 0, 69, 0
1, 84840, Note_on_c, 0, 74, 41
1, 84900, Note_on_c, 0, 74, 0
1, 84960, Tempo, 454545
1, 84960, Note_on_c, 0, 74, 43
1, 85020, Note_on_c, 0, 74, 0
1, 85080, Tempo, 456274
1, 85080, Note_on_c, 0, 78, 40
1, 85140, Note_on_c, 0, 78, 0
1, 85200, Tempo, 458015
1, 85200, Note_on_c, 0, 78, 42
1, 85260, Note_on_c, 0, 78, 0
1, 85280, Tempo, 459770
1, 85320, Note_on_c, 0, 81, 40
1, 85380, Note_on_c, 0, 81, 0
1, 85400, Tempo, 461538
1, 85440, Note_on_c, 0, 81, 42
1, 85480, Tempo, 463320
1, 85500, Note_on_c, 0, 81, 0
1, 85560, Note_on_c, 0, 86, 39
1, 85600, Tempo, 465116
1, 85620, Note_on_c, 0, 86, 0
1, 85680, Tempo, 466926
1, 85680, Note_on_c, 0, 86, 41
1, 85740, Note_on_c, 0, 86, 0
1, 85800, Tempo, 468750
1, 85800, Note_on_c, 0, 90, 39
1, 85860, Note_on_c, 0, 90, 0
1, 85880, Tempo, 470588
1, 85920, Note_on_c, 0, 90, 41
1, 85960, Tempo, 472441
1, 85980, Note_on_c, 0, 90, 0
1, 86000, Tempo, 474308
1, 86040, Tempo, 476190
1, 86040, Note_on_c, 0, 93, 39
1, 86100, Note_on_c, 0, 93, 0
1, 86120, Tempo, 478088
1, 86160, Tempo, 480000
1, 86160, Note_on_c, 0, 93, 40
1, 86200, Tempo, 481928
1, 86220, Note_on_c, 0, 93, 0
1, 86240, Tempo, 483871
1, 86280, Tempo, 524017
1, 86280, Note_on_c, 0, 98, 39
1, 86340, Note_on_c, 0, 98, 0
1, 86400, Note_on_c, 0, 98, 43
1, 86400, Note_on_c, 0, 90, 43
1, 86400, Note_on_c, 0, 86, 43
1, 86400, Note_on_c, 0, 81, 34
1, 86400, Note_on_c, 0, 74, 34
1, 88251, Control_c, 0, 64, 0
1, 88320, Note_on_c, 0, 74, 0
1, 88320, Note_on_c, 0, 86, 0
1, 88320, Note_on_c, 0, 98, 0
1, 88320, Note_on_c, 0, 90, 0
1, 88320, Note_on_c, 0, 81, 0
1, 89280, Tempo, 750000
1, 89280, Note_on_c, 0, 86, 65
1, 89280, Note_on_c, 0, 62, 55
1, 89336, Control_c, 0, 64, 127
1, 90240, Note_on_c, 0, 62, 0
1, 90240, Note_on_c, 0, 86, 0
1, 90240, Note_on_c, 0, 84, 57
1, 90240, Note_on_c, 0, 60, 48
1, 90480, Note_on_c, 0, 60, 0
1, 90480, Note_on_c, 0, 84, 0
1, 90480, Note_on_c, 0, 86, 57
1, 90480, Note_on_c, 0, 62, 48
1, 90720, Tempo, 750000
1, 90720, Note_on_c, 0, 62, 0
1, 90720, Note_on_c, 0, 86, 0
1, 90720, Note_on_c, 0, 89, 64
1, 90720, Note_on_c, 0, 65, 54
1, 90734, Control_c, 0, 64, 0
1, 90830, Control_c, 0, 64, 127
1, 91560, Tempo, 685714
1, 91560, Note_on_c, 0, 86, 54
1, 91560, Note_on_c, 0, 62, 45
1, 91620, Note_on_c, 0, 62, 0
1, 91620, Note_on_c, 0, 89, 0
1, 91620, Note_on_c, 0, 65, 0
1, 91620, Note_on_c, 0, 86, 0
1, 91620, Note_on_c, 0, 87, 54
1, 91620, Note_on_c, 0, 63, 45
1, 91680, Tempo, 710059
1, 91680, Note_on_c, 0, 63, 0
1, 91680, Note_on_c, 0, 87, 0
1, 91680, Note_on_c, 0, 86, 60
1, 91680, Note_on_c, 0, 62, 51
1, 91691, Control_c, 0, 64, 0
1, 91733, Control_c, 0, 64, 127
1, 91920, Tempo, 736196
1, 91920, Note_on_c, 0, 62, 0
1, 91920, Note_on_c, 0, 86, 0
1, 91920, Note_on_c, 0, 84, 47
1, 91920, Note_on_c, 0, 60, 39
1, 92135, Control_c, 0, 64, 0
1, 92160, Tempo, 750000
1, 92160, Note_on_c, 0, 60, 0
1, 92160, Note_on_c, 0, 84, 0
1, 92160, Note_on_c, 0, 86, 55
1, 92160, Note_on_c, 0, 62, 46
1, 92526, Control_c, 0, 64, 127
1, 92640, Tempo, 833333
1, 93120, Tempo, 895522
1, 93120, Note_on_c, 0, 62, 0
1, 93120, Note_on_c, 0, 86, 0
1, 93120, Note_on_c, 0, 57, 28
1, 93120, Note_on_c, 0, 62, 28
1, 93120, Note_on_c, 0, 66, 34
1, 93120, Note_on_c, 0, 38, 21
1, 93120, Note_on_c, 0, 50, 26
1, 93600, Note_on_c, 0, 66, 0
1, 93600, Note_on_c, 0, 66, 34
1, 93600, Note_on_c, 0, 69, 34
1, 94080, Tempo, 816327
1, 95040, Tempo, 750000
1, 95040, Note_on_c, 0, 69, 0
1, 95040, Note_on_c, 0, 62, 0
1, 95040, Note_on_c, 0, 50, 0
1, 95040, Note_on_c, 0, 57, 0
1, 95040, Note_on_c, 0, 66, 0
1, 95040, Note_on_c, 0, 38, 0
1, 95040, Note_on_c, 0, 86, 65
1, 95040, Note_on_c, 0, 62, 55
1, 95050, Control_c, 0, 64, 0
1, 95351, Control_c, 0, 64, 127
1, 96000, Note_on_c, 0, 62, 0
1, 96000, Note_on_c, 0, 86, 0
1, 96000, Note_on_c, 0, 84, 57
1, 96000, Note_on_c, 0, 60, 48
1, 96240, Note_on_c, 0, 60, 0
1, 96240, Note_on_c, 0, 84, 0
1, 96240, Note_on_c, 0, 86, 57
1, 96240, Note_on_c, 0, 62, 48
1, 96480, Tempo, 750000
1, 96480, Note_on_c, 0, 62, 0
1, 96480, Note_on_c, 0, 86, 0
1, 96480, Note_on_c, 0, 89, 64
1, 96480, Note_on_c, 0, 65, 54
1, 96494, Control_c, 0, 64, 0
1, 96607, Control_c, 0, 64, 127
1, 97320, Tempo, 685714
1, 97320, Note_on_c, 0, 86, 54
1, 97320, Note_on_c, 0, 62, 45
1, 97380, Note_on_c, 0, 62, 0
1, 97380, Note_on_c, 0, 89, 0
1, 97380, Note_on_c, 0, 65, 0
1, 97380, Note_on_c, 0, 86, 0
1, 97380, Note_on_c, 0, 87, 54
1, 97380, Note_on_c, 0, 63, 45
1, 97440, Tempo, 701754
1, 97440, Note_on_c, 0, 63, 0
1, 97440, Note_on_c, 0, 87, 0
1, 97440, Note_on_c, 0, 86, 60
1, 97440, Note_on_c, 0, 62, 51
1, 97452, Control_c, 0, 64, 0
1, 97493, Control_c, 0, 64, 127
1, 97680, Tempo, 745342
1, 97680, Note_on_c, 0, 62, 0
1, 97680, Note_on_c, 0, 86, 0
1, 97680, Note_on_c, 0, 84, 47
1, 97680, Note_on_c, 0, 60, 39
1, 97920, Tempo, 750000
1, 97920, Note_on_c, 0, 60, 0
1, 97920, Note_on_c, 0, 84, 0
1, 97920, Note_on_c, 0, 86, 55
1, 97920, Note_on_c, 0, 62, 46
1, 97934, Control_c, 0, 64, 0
1, 98294, Control_c, 0, 64, 127
1, 98400, Tempo, 839161
1, 98880, Tempo, 902256
1, 98880, Note_on_c, 0, 62, 0
1, 98880, Note_on_c, 0, 86, 0
1, 98880, Note_on_c, 0, 53, 28
1, 98880, Note_on_c, 0, 58, 28
1, 98880, Note_on_c, 0, 62, 34
1, 98880, Note_on_c, 0, 34, 21
1, 98880, Note_on_c, 0, 46, 26
1, 99360, Note_on_c, 0, 62, 0
1, 99360, Note_on_c, 0, 62, 34
1, 99360, Note_on_c, 0, 65, 34
1, 99840, Tempo, 821918
1, 100800, Tempo, 750000
1, 100800, Note_on_c, 0, 65, 0
1, 100800, Note_on_c, 0, 58, 0
1, 100800, Note_on_c, 0, 46, 0
1, 100800, Note_on_c, 0, 53, 0
1, 100800, Note_on_c, 0, 62, 0
1, 100800, Note_on_c, 0, 34, 0
1, 100800, Note_on_c, 0, 86, 62
1, 100800, Control_c, 0, 64, 0
1, 100800, Note_on_c, 0, 62, 52
1, 101120, Control_c, 0, 64, 127
1, 101760, Tempo, 731707
1, 101760, Note_on_c, 0, 62, 0
1, 101760, Note_on_c, 0, 86, 0
1, 101760, Note_on_c, 0, 85, 56
1, 101760, Note_on_c, 0, 61, 48
1, 101769, Control_c, 0, 64, 0
1, 101989, Control_c, 0, 64, 127
1, 102240, Tempo, 722892
1, 102600, Tempo, 674157
1, 102600, Note_on_c, 0, 61, 0
1, 102600, Note_on_c, 0, 85, 0
1, 102600, Note_on_c, 0, 82, 48
1, 102600, Note_on_c, 0, 58, 40
1, 102660, Note_on_c, 0, 58, 0
1, 102660, Note_on_c, 0, 82, 0
1, 102660, Note_on_c, 0, 84, 46
1, 102660, Note_on_c, 0, 60, 39
1, 102720, Tempo, 670391
1, 102720, Note_on_c, 0, 60, 0
1, 102720, Note_on_c, 0, 84, 0
1, 102720, Note_on_c, 0, 82, 54
1, 102720, Note_on_c, 0, 58, 45
1, 102726, Control_c, 0, 64, 0
1, 102843, Control_c, 0, 64, 127
1, 102960, Tempo, 685714
1, 102960, Note_on_c, 0, 58, 0
1, 102960, Note_on_c, 0, 82, 0
1, 102960, Note_on_c, 0, 81, 50
1, 102960, Note_on_c, 0, 57, 41
1, 103200, Tempo, 697674
1, 103200, Note_on_c, 0, 57, 0
1, 103200, Note_on_c, 0, 81, 0
1, 103200, Note_on_c, 0, 79, 52
1, 103200, Note_on_c, 0, 55, 44
1, 103213, Control_c, 0, 64, 0
1, 103266, Control_c, 0, 64, 127
1, 103440, Tempo, 740741
1, 103440, Note_on_c, 0, 55, 0
1, 103440, Note_on_c, 0, 79, 0
1, 103440, Note_on_c, 0, 82, 46
1, 103440, Note_on_c, 0, 58, 38
1, 103655, Control_c, 0, 64, 0
1, 103680, Tempo, 750000
1, 103680, Note_on_c, 0, 58, 0
1, 103680, Note_on_c, 0, 82, 0
1, 103680, Note_on_c, 0, 81, 52
1, 103680, Note_on_c, 0, 57, 44
1, 103977, Control_c, 0, 64, 127
1, 104160, Tempo, 810811
1, 104640, Tempo, 888889
1, 104640, Note_on_c, 0, 57, 0
1, 104640, Note_on_c, 0, 81, 0
1, 104640, Note_on_c, 0, 57, 35
1, 104640, Note_on_c, 0, 62, 35
1, 104640, Note_on_c, 0, 66, 41
1, 104640, Note_on_c, 0, 50, 31
1, 104640, Note_on_c, 0, 38, 26
1, 105120, Note_on_c, 0, 66, 0
1, 105120, Note_on_c, 0, 66, 41
1, 105120, Note_on_c, 0, 69, 41
1, 106560, Tempo, 750000
1, 106560, Note_on_c, 0, 69, 0
1, 106560, Note_on_c, 0, 62, 0
1, 106560, Note_on_c, 0, 38, 0
1, 106560, Note_on_c, 0, 57, 0
1, 106560, Note_on_c, 0, 66, 0
1, 106560, Note_on_c, 0, 50, 0
1, 106560, Note_on_c, 0, 86, 65
1, 106560, Note_on_c, 0, 62, 55
1, 106569, Control_c, 0, 64, 0
1, 106828, Control_c, 0, 64, 127
1, 107520, Tempo, 674157
1, 107520, Note_on_c, 0, 62, 0
1, 107520, Note_on_c, 0, 86, 0
1, 107520, Note_on_c, 0, 87, 65
1, 107520, Note_on_c, 0, 63, 55
1, 107528, Control_c, 0, 64, 0
1, 107647, Control_c, 0, 64, 127
1, 107760, Tempo, 681818
1, 107760, Note_on_c, 0, 63, 0
1, 107760, Note_on_c, 0, 87, 0
1, 107760, Note_on_c, 0, 86, 57
1, 107760, Note_on_c, 0, 62, 48
1, 108000, Tempo, 697674
1, 108000, Note_on_c, 0, 62, 0
1, 108000, Note_on_c, 0, 86, 0
1, 108000, Note_on_c, 0, 85, 59
1, 108000, Note_on_c, 0, 61, 50
1, 108240, Tempo, 774194
1, 108240, Note_on_c, 0, 61, 0
1, 108240, Note_on_c, 0, 85, 0
1, 108240, Note_on_c, 0, 81, 59
1, 108240, Note_on_c, 0, 57, 50
1, 108360, Tempo, 670391
1, 108360, Note_on_c, 0, 57, 0
1, 108360, Note_on_c, 0, 81, 0
1, 108360, Note_on_c, 0, 82, 46
1, 108360, Note_on_c, 0, 58, 39
1, 108420, Note_on_c, 0, 58, 0
1, 108420, Note_on_c, 0, 82, 0
1, 108420, Note_on_c, 0, 84, 46
1, 108420, Note_on_c, 0, 60, 39
1, 108480, Tempo, 648649
1, 108480, Note_on_c, 0, 60, 0
1, 108480, Note_on_c, 0, 84, 0
1, 108480, Note_on_c, 0, 82, 53
1, 108480, Note_on_c, 0, 58, 46
1, 108496, Control_c, 0, 64, 0
1, 108549, Control_c, 0, 64, 127
1, 108720, Tempo, 689655
1, 108720, Note_on_c, 0, 58, 0
1, 108720, Note_on_c, 0, 82, 0
1, 108720, Note_on_c, 0, 81, 52
1, 108720, Note_on_c, 0, 57, 44
1, 108960, Tempo, 710059
1, 108960, Note_on_c, 0, 57, 0
1, 108960, Note_on_c, 0, 81, 0
1, 108960, Note_on_c, 0, 79, 53
1, 108960, Note_on_c, 0, 55, 45
1, 108975, Control_c, 0, 64, 0
1, 109046, Control_c, 0, 64, 127
1, 109200, Tempo, 784314
1, 109200, Note_on_c, 0, 55, 0
1, 109200, Note_on_c, 0, 79, 0
1, 109200, Note_on_c, 0, 82, 47
1, 109200, Note_on_c, 0, 58, 39
1, 109415, Control_c, 0, 64, 0
1, 109440, Tempo, 750000
1, 109440, Note_on_c, 0, 58, 0
1, 109440, Note_on_c, 0, 82, 0
1, 109440, Note_on_c, 0, 81, 52
1, 109440, Note_on_c, 0, 57, 44
1, 109737, Control_c, 0, 64, 127
1, 109920, Tempo, 857143
1, 110400, Tempo, 909091
1, 110400, Note_on_c, 0, 57, 0
1, 110400, Note_on_c, 0, 81, 0
1, 110400, Note_on_c, 0, 57, 25
1, 110400, Note_on_c, 0, 61, 25
1, 110400, Note_on_c, 0, 67, 30
1, 110400, Note_on_c, 0, 51, 23
1, 110880, Note_on_c, 0, 51, 0
1, 110880, Note_on_c, 0, 67, 0
1, 110880, Note_on_c, 0, 61, 0
1, 110880, Note_on_c, 0, 62, 30
1, 110880, Note_on_c, 0, 66, 30
1, 110880, Note_on_c, 0, 50, 23
1, 110889, Control_c, 0, 64, 0
1, 111280, Control_c, 0, 64, 127
1, 112320, Tempo, 483949
1, 112320, Note_on_c, 0, 50, 0
1, 112320, Note_on_c, 0, 57, 0
1, 112320, Note_on_c, 0, 62, 0
1, 112320, Note_on_c, 0, 66, 0
1, 112320, Note_on_c, 0, 58, 41
1, 112329, Control_c, 0, 64, 0
1, 112667, Control_c, 0, 64, 127
1, 112800, Tempo, 463392
1, 112800, Note_on_c, 0, 65, 36
1, 112800, Note_on_c, 0, 62, 34
1, 113760, Tempo, 482005
1, 113760, Note_on_c, 0, 62, 0
1, 113760, Note_on_c, 0, 65, 0
1, 113760, Note_on_c, 0, 58, 0
1, 113760, Note_on_c, 0, 57, 41
1, 113770, Control_c, 0, 64, 0
1, 113835, Control_c, 0, 64, 127
1, 114120, Note_on_c, 0, 66, 48
1, 114180, Note_on_c, 0, 66, 0
1, 114180, Note_on_c, 0, 68, 50
1, 114240, Tempo, 452899
1, 114240, Note_on_c, 0, 68, 0
1, 114240, Note_on_c, 0, 66, 57
1, 114240, Note_on_c, 0, 63, 36
1, 114240, Note_on_c, 0, 59, 34
1, 114252, Control_c, 0, 64, 0
1, 114372, Control_c, 0, 64, 127
1, 114480, Note_on_c, 0, 66, 0
1, 114480, Note_on_c, 0, 65, 53
1, 114720, Note_on_c, 0, 65, 0
1, 114720, Note_on_c, 0, 66, 59
1, 114960, Tempo, 456343
1, 114960, Note_on_c, 0, 66, 0
1, 114960, Note_on_c, 0, 75, 55
1, 115200, Tempo, 470662
1, 115200, Note_on_c, 0, 75, 0
1, 115200, Note_on_c, 0, 59, 0
1, 115200, Note_on_c, 0, 63, 0
1, 115200, Note_on_c, 0, 57, 0
1, 115200, Note_on_c, 0, 58, 44
1, 115212, Control_c, 0, 64, 0
1, 115520, Control_c, 0, 64, 127
1, 115680, Tempo, 458085
1, 115680, Note_on_c, 0, 74, 48
1, 115680, Note_on_c, 0, 65, 48
1, 115680, Note_on_c, 0, 62, 34
1, 116640, Tempo, 472515
1, 116640, Note_on_c, 0, 62, 0
1, 116640, Note_on_c, 0, 58, 0
1, 116640, Note_on_c, 0, 74, 0
1, 116640, Note_on_c, 0, 65, 0
1, 116640, Note_on_c, 0, 57, 52
1, 116650, Control_c, 0, 64, 0
1, 116915, Control_c, 0, 64, 127
1, 117120, Tempo, 447828
1, 117120, Note_on_c, 0, 73, 56
1, 117120, Note_on_c, 0, 74, 63
1, 117120, Note_on_c, 0, 62, 48
1, 117600, Tempo, 446163
1, 117600, Note_on_c, 0, 73, 0
1, 117600, Note_on_c, 0, 72, 54
1, 117600, Note_on_c, 0, 54, 41
1, 118080, Tempo, 439625
1, 118080, Note_on_c, 0, 54, 0
1, 118080, Note_on_c, 0, 57, 0
1, 118080, Note_on_c, 0, 62, 0
1, 118080, Note_on_c, 0, 74, 0
1, 118080, Note_on_c, 0, 72, 0
1, 118080, Note_on_c, 0, 55, 52
1, 118090, Control_c, 0, 64, 0
1, 118374, Control_c, 0, 64, 127
1, 118560, Tempo, 446163
1, 118560, Note_on_c, 0, 70, 56
1, 118560, Note_on_c, 0, 62, 51
1, 119040, Note_on_c, 0, 70, 0
1, 119040, Note_on_c, 0, 74, 51
1, 119520, Tempo, 442870
1, 119520, Note_on_c, 0, 74, 0
1, 119520, Note_on_c, 0, 62, 0
1, 119520, Note_on_c, 0, 55, 0
1, 119520, Note_on_c, 0, 53, 53
1, 119533, Control_c, 0, 64, 0
1, 119867, Control_c, 0, 64, 127
1, 120000, Tempo, 451196
1, 120000, Note_on_c, 0, 69, 58
1, 120000, Note_on_c, 0, 62, 52
1, 120480, Note_on_c, 0, 69, 0
1, 120480, Note_on_c, 0, 74, 50
1, 120520, Tempo, 458085
1, 120960, Tempo, 466999
1, 120960, Note_on_c, 0, 74, 0
1, 120960, Note_on_c, 0, 62, 0
1, 120960, Note_on_c, 0, 53, 0
1, 120960, Note_on_c, 0, 51, 47
1, 120960, Note_on_c, 0, 58, 55
1, 120971, Control_c, 0, 64, 0
1, 121280, Control_c, 0, 64, 127
1, 121440, Tempo, 478088
1, 121440, Note_on_c, 0, 67, 58
1, 121440, Note_on_c, 0, 62, 51
1, 121920, Tempo, 545455
1, 121920, Note_on_c, 0, 67, 0
1, 121920, Note_on_c, 0, 74, 50
1, 122400, Tempo, 521830
1, 122400, Note_on_c, 0, 74, 0
1, 122400, Note_on_c, 0, 62, 0
1, 122400, Note_on_c, 0, 58, 0
1, 122400, Control_c, 0, 64, 0
1, 122400, Note_on_c, 0, 57, 39
1, 122587, Control_c, 0, 64, 127
1, 122880, Note_on_c, 0, 61, 25
1, 122880, Note_on_c, 0, 67, 30
1, 123840, Tempo, 476266
1, 123840, Note_on_c, 0, 67, 0
1, 123840, Note_on_c, 0, 51, 0
1, 123840, Note_on_c, 0, 57, 0
1, 123840, Note_on_c, 0, 61, 0
1, 123840, Note_on_c, 0, 50, 50
1, 123851, Control_c, 0, 64, 0
1, 124092, Control_c, 0, 64, 127
1, 124320, Tempo, 463392
1, 124320, Note_on_c, 0, 57, 45
1, 124800, Note_on_c, 0, 62, 45
1, 124800, Note_on_c, 0, 66, 45
1, 125280, Note_on_c, 0, 66, 0
1, 125280, Note_on_c, 0, 50, 0
1, 125280, Note_on_c, 0, 57, 0
1, 125280, Note_on_c, 0, 62, 0
1, 125280, Note_on_c, 0, 60, 52
1, 125293, Control_c, 0, 64, 0
1, 125414, Control_c, 0, 64, 127
1, 125520, Note_on_c, 0, 60, 0
1, 125520, Note_on_c, 0, 62, 44
1, 125760, Tempo, 456343
1, 125760, Note_on_c, 0, 62, 0
1, 125760, Note_on_c, 0, 69, 41
1, 125760, Note_on_c, 0, 67, 41
1, 125760, Note_on_c, 0, 63, 51
1, 125776, Control_c, 0, 64, 0
1, 125859, Control_c, 0, 64, 127
1, 126000, Note_on_c, 0, 63, 0
1, 126000, Note_on_c, 0, 67, 0
1, 126000, Note_on_c, 0, 69, 0
1, 126000, Note_on_c, 0, 65, 55
1, 126120, Note_on_c, 0, 65, 0
1, 126120, Note_on_c, 0, 63, 51
1, 126240, Note_on_c, 0, 63, 0
1, 126240, Note_on_c, 0, 69, 41
1, 126240, Note_on_c, 0, 67, 41
1, 126240, Note_on_c, 0, 62, 50
1, 126249, Control_c, 0, 64, 0
1, 126318, Control_c, 0, 64, 127
1, 126480, Tempo, 466999
1, 126480, Note_on_c, 0, 62, 0
1, 126480, Note_on_c, 0, 67, 0
1, 126480, Note_on_c, 0, 69, 0
1, 126480, Note_on_c, 0, 60, 50
1, 126720, Tempo, 476266
1, 126720, Note_on_c, 0, 60, 0
1, 126720, Note_on_c, 0, 50, 56
1, 126728, Control_c, 0, 64, 0
1, 126949, Control_c, 0, 64, 127
1, 127200, Tempo, 463392
1, 127200, Note_on_c, 0, 57, 50
1, 127680, Note_on_c, 0, 62, 45
1, 127680, Note_on_c, 0, 66, 45
1, 128160, Note_on_c, 0, 66, 0
1, 128160, Note_on_c, 0, 50, 0
1, 128160, Note_on_c, 0, 57, 0
1, 128160, Note_on_c, 0, 62, 0
1, 128160, Note_on_c, 0, 60, 52
1, 128170, Control_c, 0, 64, 0
1, 128259, Control_c, 0, 64, 127
1, 128400, Note_on_c, 0, 60, 0
1, 128400, Note_on_c, 0, 62, 44
1, 128640, Tempo, 456343
1, 128640, Note_on_c, 0, 62, 0
1, 128640, Note_on_c, 0, 69, 41
1, 128640, Note_on_c, 0, 67, 41
1, 128640, Note_on_c, 0, 63, 51
1, 128655, Control_c, 0, 64, 0
1, 128739, Control_c, 0, 64, 127
1, 128880, Note_on_c, 0, 63, 0
1, 128880, Note_on_c, 0, 67, 0
1, 128880, Note_on_c, 0, 69, 0
1, 128880, Note_on_c, 0, 65, 55
1, 129000, Note_on_c, 0, 65, 0
1, 129000, Note_on_c, 0, 63, 51
1, 129120, Note_on_c, 0, 63, 0
1, 129120, Note_on_c, 0, 69, 41
1, 129120, Note_on_c, 0, 67, 41
1, 129120, Note_on_c, 0, 62, 50
1, 129139, Control_c, 0, 64, 0
1, 129247, Control_c, 0, 64, 127
1, 129360, Tempo, 466999
1, 129360, Note_on_c, 0, 62, 0
1, 129360, Note_on_c, 0, 67, 0
1, 129360, Note_on_c, 0, 69, 0
1, 129360, Note_on_c, 0, 60, 50
1, 129600, Tempo, 485909
1, 129600, Note_on_c, 0, 60, 0
1, 129600, Control_c, 0, 64, 0
1, 129600, Note_on_c, 0, 50, 56
1, 129897, Control_c, 0, 64, 127
1, 130080, Tempo, 500083
1, 130080, Note_on_c, 0, 57, 50
1, 130560, Note_on_c, 0, 62, 45
1, 130560, Note_on_c, 0, 66, 45
1, 130600, Tempo, 483949
1, 131040, Tempo, 463392
1, 131040, Note_on_c, 0, 66, 0
1, 131040, Note_on_c, 0, 50, 0
1, 131040, Note_on_c, 0, 57, 0
1, 131040, Note_on_c, 0, 62, 0
1, 131040, Note_on_c, 0, 84, 66
1, 131040, Control_c, 0, 64, 0
1, 131040, Note_on_c, 0, 60, 61
1, 131146, Control_c, 0, 64, 127
1, 131280, Note_on_c, 0, 60, 0
1, 131280, Note_on_c, 0, 84, 0
1, 131280, Note_on_c, 0, 86, 63
1, 131280, Note_on_c, 0, 62, 57
1, 131520, Tempo, 447828
1, 131520, Note_on_c, 0, 62, 0
1, 131520, Note_on_c, 0, 86, 0
1, 131520, Note_on_c, 0, 87, 67
1, 131520, Note_on_c, 0, 63, 62
1, 131537, Control_c, 0, 64, 0
1, 131619, Control_c, 0, 64, 127
1, 131760, Tempo, 456343
1, 131760, Note_on_c, 0, 63, 0
1, 131760, Note_on_c, 0, 87, 0
1, 131760, Note_on_c, 0, 89, 65
1, 131760, Note_on_c, 0, 65, 60
1, 131880, Note_on_c, 0, 65, 0
1, 131880, Note_on_c, 0, 89, 0
1, 131880, Note_on_c, 0, 87, 62
1, 131880, Note_on_c, 0, 63, 56
1, 132000, Note_on_c, 0, 63, 0
1, 132000, Note_on_c, 0, 87, 0
1, 132000, Note_on_c, 0, 86, 66
1, 132000, Note_on_c, 0, 62, 61
1, 132018, Control_c, 0, 64, 0
1, 132106, Control_c, 0, 64, 127
1, 132240, Tempo, 466999
1, 132240, Note_on_c, 0, 62, 0
1, 132240, Note_on_c, 0, 86, 0
1, 132240, Note_on_c, 0, 84, 55
1, 132240, Note_on_c, 0, 60, 51
1, 132480, Tempo, 453001
1, 132480, Note_on_c, 0, 60, 0
1, 132480, Note_on_c, 0, 84, 0
1, 132480, Note_on_c, 0, 86, 65
1, 132480, Note_on_c, 0, 62, 60
1, 132484, Control_c, 0, 64, 0
1, 132629, Control_c, 0, 64, 127
1, 132720, Tempo, 457771
1, 132720, Note_on_c, 0, 62, 0
1, 132720, Note_on_c, 0, 86, 0
1, 132720, Note_on_c, 0, 85, 54
1, 132720, Note_on_c, 0, 61, 49
1, 132960, Tempo, 453001
1, 132960, Note_on_c, 0, 61, 0
1, 132960, Note_on_c, 0, 85, 0
1, 132960, Note_on_c, 0, 81, 59
1, 132960, Note_on_c, 0, 57, 54
1, 132972, Control_c, 0, 64, 0
1, 133086, Control_c, 0, 64, 127
1, 133200, Tempo, 472515
1, 133200, Note_on_c, 0, 57, 0
1, 133200, Note_on_c, 0, 81, 0
1, 133200, Note_on_c, 0, 84, 52
1, 133200, Note_on_c, 0, 60, 47
1, 133440, Tempo, 463392
1, 133440, Note_on_c, 0, 60, 0
1, 133440, Note_on_c, 0, 84, 0
1, 133440, Note_on_c, 0, 83, 54
1, 133440, Note_on_c, 0, 59, 50
1, 133460, Control_c, 0, 64, 0
1, 133577, Control_c, 0, 64, 127
1, 133680, Tempo, 474383
1, 133680, Note_on_c, 0, 59, 0
1, 133680, Note_on_c, 0, 83, 0
1, 133680, Note_on_c, 0, 79, 50
1, 133680, Note_on_c, 0, 55, 46
1, 133920, Tempo, 459841
1, 133920, Note_on_c, 0, 55, 0
1, 133920, Note_on_c, 0, 79, 0
1, 133920, Note_on_c, 0, 82, 54
1, 133920, Note_on_c, 0, 58, 49
1, 133923, Control_c, 0, 64, 0
1, 134000, Control_c, 0, 64, 127
1, 134160, Tempo, 476266
1, 134160, Note_on_c, 0, 58, 0
1, 134160, Note_on_c, 0, 82, 0
1, 134160, Note_on_c, 0, 81, 47
1, 134160, Note_on_c, 0, 57, 44
1, 134400, Note_on_c, 0, 57, 0
1, 134400, Note_on_c, 0, 81, 0
1, 134400, Note_on_c, 0, 78, 52
1, 134400, Note_on_c, 0, 54, 47
1, 134409, Control_c, 0, 64, 0
1, 134440, Tempo, 468823
1, 134515, Control_c, 0, 64, 127
1, 134640, Tempo, 482005
1, 134640, Note_on_c, 0, 54, 0
1, 134640, Note_on_c, 0, 78, 0
1, 134640, Note_on_c, 0, 80, 46
1, 134640, Note_on_c, 0, 56, 43
1, 134880, Tempo, 481309
1, 134880, Note_on_c, 0, 56, 0
1, 134880, Note_on_c, 0, 80, 0
1, 134880, Note_on_c, 0, 79, 51
1, 134880, Note_on_c, 0, 55, 46
1, 134891, Control_c, 0, 64, 0
1, 135006, Control_c, 0, 64, 127
1, 135120, Tempo, 494030
1, 135120, Note_on_c, 0, 55, 0
1, 135120, Note_on_c, 0, 79, 0
1, 135120, Note_on_c, 0, 75, 47
1, 135120, Note_on_c, 0, 51, 44
1, 135360, Tempo, 476266
1, 135360, Note_on_c, 0, 51, 0
1, 135360, Note_on_c, 0, 75, 0
1, 135360, Note_on_c, 0, 50, 56
1, 135367, Control_c, 0, 64, 0
1, 135680, Control_c, 0, 64, 127
1, 135840, Tempo, 463392
1, 135840, Note_on_c, 0, 57, 51
1, 136320, Note_on_c, 0, 62, 45
1, 136320, Note_on_c, 0, 66, 45
1, 136800, Note_on_c, 0, 66, 0
1, 136800, Note_on_c, 0, 50, 0
1, 136800, Note_on_c, 0, 57, 0
1, 136800, Note_on_c, 0, 62, 0
1, 136800, Note_on_c, 0, 62, 46
1, 136816, Control_c, 0, 64, 0
1, 136948, Control_c, 0, 64, 127
1, 137040, Note_on_c, 0, 62, 0
1, 137040, Note_on_c, 0, 63, 39
1, 137280, Tempo, 456343
1, 137280, Note_on_c, 0, 63, 0
1, 137280, Note_on_c, 0, 72, 36
1, 137280, Note_on_c, 0, 68, 36
1, 137280, Note_on_c, 0, 65, 45
1, 137295, Control_c, 0, 64, 0
1, 137379, Control_c, 0, 64, 127
1, 137520, Note_on_c, 0, 65, 0
1, 137520, Note_on_c, 0, 67, 49
1, 137640, Note_on_c, 0, 67, 0
1, 137640, Note_on_c, 0, 65, 45
1, 137760, Note_on_c, 0, 65, 0
1, 137760, Note_on_c, 0, 68, 0
1, 137760, Note_on_c, 0, 72, 0
1, 137760, Note_on_c, 0, 72, 36
1, 137760, Note_on_c, 0, 68, 36
1, 137760, Note_on_c, 0, 63, 45
1, 137774, Control_c, 0, 64, 0
1, 137873, Control_c, 0, 64, 127
1, 138000, Tempo, 466999
1, 138000, Note_on_c, 0, 63, 0
1, 138000, Note_on_c, 0, 62, 45
1, 138240, Tempo, 476266
1, 138240, Note_on_c, 0, 62, 0
1, 138240, Note_on_c, 0, 68, 0
1, 138240, Note_on_c, 0, 72, 0
1, 138240, Note_on_c, 0, 55, 56
1, 138248, Control_c, 0, 64, 0
1, 138537, Control_c, 0, 64, 127
1, 138720, Tempo, 463392
1, 138720, Note_on_c, 0, 62, 51
1, 139200, Note_on_c, 0, 67, 45
1, 139200, Note_on_c, 0, 71, 45
1, 139680, Note_on_c, 0, 71, 0
1, 139680, Note_on_c, 0, 55, 0
1, 139680, Note_on_c, 0, 62, 0
1, 139680, Note_on_c, 0, 67, 0
1, 139680, Note_on_c, 0, 62, 51
1, 139690, Control_c, 0, 64, 0
1, 139800, Control_c, 0, 64, 127
1, 139920, Note_on_c, 0, 62, 0
1, 139920, Note_on_c, 0, 63, 46
1, 140160, Tempo, 456343
1, 140160, Note_on_c, 0, 63, 0
1, 140160, Note_on_c, 0, 72, 39
1, 140160, Note_on_c, 0, 68, 39
1, 140160, Note_on_c, 0, 65, 50
1, 140175, Control_c, 0, 64, 0
1, 140259, Control_c, 0, 64, 127
1, 140400, Note_on_c, 0, 65, 0
1, 140400, Note_on_c, 0, 68, 0
1, 140400, Note_on_c, 0, 72, 0
1, 140400, Note_on_c, 0, 67, 54
1, 140520, Note_on_c, 0, 67, 0
1, 140520, Note_on_c, 0, 65, 49
1, 140640, Note_on_c, 0, 65, 0
1, 140640, Note_on_c, 0, 72, 39
1, 140640, Note_on_c, 0, 68, 39
1, 140640, Note_on_c, 0, 63, 52
1, 140654, Control_c, 0, 64, 0
1, 140746, Control_c, 0, 64, 127
1, 140880, Tempo, 466999
1, 140880, Note_on_c, 0, 63, 0
1, 140880, Note_on_c, 0, 68, 0
1, 140880, Note_on_c, 0, 72, 0
1, 140880, Note_on_c, 0, 62, 48
1, 141120, Tempo, 485909
1, 141120, Note_on_c, 0, 62, 0
1, 141120, Note_on_c, 0, 55, 56
1, 141128, Control_c, 0, 64, 0
1, 141440, Control_c, 0, 64, 127
1, 141600, Tempo, 500083
1, 141600, Note_on_c, 0, 62, 50
1, 142080, Note_on_c, 0, 67, 45
1, 142080, Note_on_c, 0, 71, 45
1, 142120, Tempo, 483949
1, 142560, Tempo, 464253
1, 142560, Note_on_c, 0, 71, 0
1, 142560, Note_on_c, 0, 55, 0
1, 142560, Note_on_c, 0, 62, 0
1, 142560, Note_on_c, 0, 67, 0
1, 142560, Note_on_c, 0, 67, 49
1, 142560, Note_on_c, 0, 75, 67
1, 142560, Note_on_c, 0, 60, 49
1, 142570, Control_c, 0, 64, 0
1, 142680, Control_c, 0, 64, 127
1, 142800, Note_on_c, 0, 75, 0
1, 142800, Note_on_c, 0, 78, 63
1, 143040, Tempo, 456343
1, 143040, Note_on_c, 0, 78, 0
1, 143040, Note_on_c, 0, 60, 0
1, 143040, Note_on_c, 0, 67, 0
1, 143040, Note_on_c, 0, 67, 45
1, 143040, Note_on_c, 0, 79, 66
1, 143040, Note_on_c, 0, 58, 45
1, 143050, Control_c, 0, 64, 0
1, 143104, Control_c, 0, 64, 127
1, 143280, Note_on_c, 0, 79, 0
1, 143280, Note_on_c, 0, 74, 57
1, 143400, Note_on_c, 0, 74, 0
1, 143400, Note_on_c, 0, 75, 57
1, 143520, Note_on_c, 0, 75, 0
1, 143520, Note_on_c, 0, 58, 0
1, 143520, Note_on_c, 0, 67, 0
1, 143520, Note_on_c, 0, 66, 45
1, 143520, Note_on_c, 0, 72, 63
1, 143520, Note_on_c, 0, 57, 45
1, 143530, Control_c, 0, 64, 0
1, 143647, Control_c, 0, 64, 127
1, 143760, Tempo, 466999
1, 143760, Note_on_c, 0, 72, 0
1, 143760, Note_on_c, 0, 74, 56
1, 144000, Tempo, 456170
1, 144000, Note_on_c, 0, 74, 0
1, 144000, Note_on_c, 0, 57, 0
1, 144000, Note_on_c, 0, 66, 0
1, 144000, Note_on_c, 0, 62, 38
1, 144000, Note_on_c, 0, 70, 65
1, 144000, Note_on_c, 0, 55, 45
1, 144009, Control_c, 0, 64, 0
1, 144085, Control_c, 0, 64, 127
1, 144240, Tempo, 469263
1, 144240, Note_on_c, 0, 70, 0
1, 144240, Note_on_c, 0, 74, 50
1, 144480, Tempo, 460971
1, 144480, Note_on_c, 0, 74, 0
1, 144480, Note_on_c, 0, 55, 0
1, 144480, Note_on_c, 0, 62, 0
1, 144480, Note_on_c, 0, 62, 30
1, 144480, Note_on_c, 0, 69, 62
1, 144480, Note_on_c, 0, 54, 36
1, 144494, Control_c, 0, 64, 0
1, 144607, Control_c, 0, 64, 127
1, 144720, Tempo, 470921
1, 144720, Note_on_c, 0, 69, 0
1, 144720, Note_on_c, 0, 74, 49
1, 144960, Tempo, 462606
1, 144960, Note_on_c, 0, 74, 0
1, 144960, Note_on_c, 0, 54, 0
1, 144960, Note_on_c, 0, 62, 0
1, 144960, Note_on_c, 0, 62, 33
1, 144960, Note_on_c, 0, 70, 60
1, 144960, Note_on_c, 0, 55, 39
1, 144978, Control_c, 0, 64, 0
1, 145101, Control_c, 0, 64, 127
1, 145200, Tempo, 470921
1, 145200, Note_on_c, 0, 70, 0
1, 145200, Note_on_c, 0, 74, 49
1, 145440, Tempo, 464253
1, 145440, Note_on_c, 0, 74, 0
1, 145440, Note_on_c, 0, 55, 0
1, 145440, Note_on_c, 0, 62, 0
1, 145440, Note_on_c, 0, 70, 50
1, 145440, Note_on_c, 0, 79, 56
1, 145440, Note_on_c, 0, 63, 50
1, 145453, Control_c, 0, 64, 0
1, 145567, Control_c, 0, 64, 127
1, 145680, Note_on_c, 0, 79, 0
1, 145680, Note_on_c, 0, 81, 51
1, 145920, Tempo, 456343
1, 145920, Note_on_c, 0, 81, 0
1, 145920, Note_on_c, 0, 63, 0
1, 145920, Note_on_c, 0, 70, 0
1, 145920, Note_on_c, 0, 70, 50
1, 145920, Note_on_c, 0, 82, 56
1, 145920, Note_on_c, 0, 62, 46
1, 145933, Control_c, 0, 64, 0
1, 145984, Control_c, 0, 64, 127
1, 146160, Note_on_c, 0, 82, 0
1, 146160, Note_on_c, 0, 77, 51
1, 146280, Note_on_c, 0, 77, 0
1, 146280, Note_on_c, 0, 79, 51
1, 146400, Note_on_c, 0, 79, 0
1, 146400, Note_on_c, 0, 62, 0
1, 146400, Note_on_c, 0, 70, 0
1, 146400, Note_on_c, 0, 69, 51
1, 146400, Note_on_c, 0, 75, 57
1, 146400, Note_on_c, 0, 60, 40
1, 146410, Control_c, 0, 64, 0
1, 146513, Control_c, 0, 64, 127
1, 146640, Tempo, 466999
1, 146640, Note_on_c, 0, 75, 0
1, 146640, Note_on_c, 0, 77, 49
1, 146880, Tempo, 456170
1, 146880, Note_on_c, 0, 77, 0
1, 146880, Note_on_c, 0, 60, 0
1, 146880, Note_on_c, 0, 69, 0
1, 146880, Note_on_c, 0, 65, 37
1, 146880, Note_on_c, 0, 74, 53
1, 146880, Note_on_c, 0, 58, 40
1, 146889, Control_c, 0, 64, 0
1, 146972, Control_c, 0, 64, 127
1, 147120, Tempo, 469263
1, 147120, Note_on_c, 0, 74, 0
1, 147120, Note_on_c, 0, 77, 46
1, 147360, Tempo, 460971
1, 147360, Note_on_c, 0, 77, 0
1, 147360, Note_on_c, 0, 58, 0
1, 147360, Note_on_c, 0, 65, 0
1, 147360, Note_on_c, 0, 65, 36
1, 147360, Note_on_c, 0, 73, 51
1, 147360, Note_on_c, 0, 57, 32
1, 147369, Control_c, 0, 64, 0
1, 147486, Control_c, 0, 64, 127
1, 147600, Tempo, 470921
1, 147600, Note_on_c, 0, 73, 0
1, 147600, Note_on_c, 0, 77, 44
1, 147840, Tempo, 462606
1, 147840, Note_on_c, 0, 77, 0
1, 147840, Note_on_c, 0, 57, 0
1, 147840, Note_on_c, 0, 65, 0
1, 147840, Note_on_c, 0, 65, 36
1, 147840, Note_on_c, 0, 74, 52
1, 147840, Note_on_c, 0, 58, 33
1, 147856, Control_c, 0, 64, 0
1, 147977, Control_c, 0, 64, 127
1, 148080, Tempo, 470921
1, 148080, Note_on_c, 0, 74, 0
1, 148080, Note_on_c, 0, 77, 46
1, 148320, Tempo, 463392
1, 148320, Note_on_c, 0, 77, 0
1, 148320, Note_on_c, 0, 58, 0
1, 148320, Note_on_c, 0, 65, 0
1, 148320, Note_on_c, 0, 80, 57
1, 148320, Note_on_c, 0, 56, 39
1, 148335, Control_c, 0, 64, 0
1, 148384, Control_c, 0, 64, 127
1, 148560, Tempo, 453001
1, 148560, Note_on_c, 0, 56, 0
1, 148560, Note_on_c, 0, 80, 0
1, 148560, Note_on_c, 0, 82, 50
1, 148560, Note_on_c, 0, 58, 35
1, 148800, Tempo, 448363
1, 148800, Note_on_c, 0, 58, 0
1, 148800, Note_on_c, 0, 82, 0
1, 148800, Note_on_c, 0, 84, 55
1, 148800, Note_on_c, 0, 60, 38
1, 148816, Control_c, 0, 64, 0
1, 148899, Control_c, 0, 64, 127
1, 149040, Tempo, 453001
1, 149040, Note_on_c, 0, 60, 0
1, 149040, Note_on_c, 0, 84, 0
1, 149040, Note_on_c, 0, 87, 49
1, 149040, Note_on_c, 0, 63, 34
1, 149160, Tempo, 443787
1, 149160, Note_on_c, 0, 63, 0
1, 149160, Note_on_c, 0, 87, 0
1, 149160, Note_on_c, 0, 85, 46
1, 149160, Note_on_c, 0, 61, 29
1, 149220, Note_on_c, 0, 61, 0
1, 149220, Note_on_c, 0, 85, 0
1, 149220, Note_on_c, 0, 87, 47
1, 149220, Note_on_c, 0, 63, 30
1, 149280, Tempo, 456170
1, 149280, Note_on_c, 0, 63, 0
1, 149280, Note_on_c, 0, 87, 0
1, 149280, Note_on_c, 0, 85, 55
1, 149280, Note_on_c, 0, 61, 38
1, 149288, Control_c, 0, 64, 0
1, 149372, Control_c, 0, 64, 127
1, 149520, Tempo, 466999
1, 149520, Note_on_c, 0, 61, 0
1, 149520, Note_on_c, 0, 85, 0
1, 149520, Note_on_c, 0, 84, 48
1, 149520, Note_on_c, 0, 60, 33
1, 149760, Tempo, 453001
1, 149760, Note_on_c, 0, 60, 0
1, 149760, Note_on_c, 0, 84, 0
1, 149760, Note_on_c, 0, 87, 57
1, 149760, Note_on_c, 0, 63, 39
1, 149768, Control_c, 0, 64, 0
1, 149840, Control_c, 0, 64, 127
1, 150000, Tempo, 457771
1, 150000, Note_on_c, 0, 63, 0
1, 150000, Note_on_c, 0, 87, 0
1, 150000, Note_on_c, 0, 84, 49
1, 150000, Note_on_c, 0, 60, 34
1, 150120, Note_on_c, 0, 60, 0
1, 150120, Note_on_c, 0, 84, 0
1, 150120, Note_on_c, 0, 82, 44
1, 150120, Note_on_c, 0, 58, 29
1, 150180, Note_on_c, 0, 58, 0
1, 150180, Note_on_c, 0, 82, 0
1, 150180, Note_on_c, 0, 84, 44
1, 150180, Note_on_c, 0, 60, 29
1, 150240, Tempo, 453001
1, 150240, Note_on_c, 0, 60, 0
1, 150240, Note_on_c, 0, 84, 0
1, 150240, Note_on_c, 0, 82, 55
1, 150240, Note_on_c, 0, 58, 38
1, 150258, Control_c, 0, 64, 0
1, 150346, Control_c, 0, 64, 127
1, 150480, Tempo, 478088
1, 150480, Note_on_c, 0, 58, 0
1, 150480, Note_on_c, 0, 82, 0
1, 150480, Note_on_c, 0, 81, 48
1, 150480, Note_on_c, 0, 57, 33
1, 150720, Tempo, 491803
1, 150720, Note_on_c, 0, 57, 0
1, 150720, Note_on_c, 0, 81, 0
1, 150720, Note_on_c, 0, 84, 55
1, 150720, Note_on_c, 0, 60, 38
1, 150727, Control_c, 0, 64, 0
1, 150787, Control_c, 0, 64, 127
1, 150960, Tempo, 547945
1, 150960, Note_on_c, 0, 60, 0
1, 150960, Note_on_c, 0, 84, 0
1, 150960, Note_on_c, 0, 87, 48
1, 150960, Note_on_c, 0, 63, 33
1, 151200, Tempo, 464253
1, 151200, Note_on_c, 0, 63, 0
1, 151200, Note_on_c, 0, 87, 0
1, 151200, Note_on_c, 0, 63, 55
1, 151200, Note_on_c, 0, 48, 40
1, 151200, Note_on_c, 0, 57, 48
1, 151209, Control_c, 0, 64, 0
1, 151356, Control_c, 0, 64, 127
1, 151440, Note_on_c, 0, 63, 0
1, 151440, Note_on_c, 0, 65, 46
1, 151680, Tempo, 456343
1, 151680, Note_on_c, 0, 65, 0
1, 151680, Note_on_c, 0, 67, 55
1, 151920, Note_on_c, 0, 67, 0
1, 151920, Note_on_c, 0, 69, 52
1, 152040, Note_on_c, 0, 69, 0
1, 152040, Note_on_c, 0, 67, 49
1, 152160, Note_on_c, 0, 67, 0
1, 152160, Note_on_c, 0, 57, 0
1, 152160, Note_on_c, 0, 48, 0
1, 152160, Note_on_c, 0, 65, 53
1, 152160, Note_on_c, 0, 49, 30
1, 152160, Note_on_c, 0, 55, 36
1, 152160, Note_on_c, 0, 58, 36
1, 152171, Control_c, 0, 64, 0
1, 152287, Control_c, 0, 64, 127
1, 152400, Tempo, 466999
1, 152400, Note_on_c, 0, 65, 0
1, 152400, Note_on_c, 0, 63, 53
1, 152640, Tempo, 476266
1, 152640, Note_on_c, 0, 63, 0
1, 152640, Note_on_c, 0, 58, 0
1, 152640, Note_on_c, 0, 55, 0
1, 152640, Note_on_c, 0, 49, 0
1, 152640, Control_c, 0, 64, 0
1, 152640, Note_on_c, 0, 50, 50
1, 152891, Control_c, 0, 64, 127
1, 153120, Tempo, 463392
1, 153120, Note_on_c, 0, 57, 45
1, 153600, Note_on_c, 0, 62, 45
1, 153600, Note_on_c, 0, 66, 45
1, 154080, Note_on_c, 0, 66, 0
1, 154080, Note_on_c, 0, 50, 0
1, 154080, Note_on_c, 0, 57, 0
1, 154080, Note_on_c, 0, 62, 0
1, 154080, Note_on_c, 0, 63, 52
1, 154089, Control_c, 0, 64, 0
1, 154200, Control_c, 0, 64, 127
1, 154320, Note_on_c, 0, 63, 0
1, 154320, Note_on_c, 0, 65, 44
1, 154560, Tempo, 456343
1, 154560, Note_on_c, 0, 65, 0
1, 154560, Note_on_c, 0, 72, 41
1, 154560, Note_on_c, 0, 69, 41
1, 154560, Note_on_c, 0, 67, 51
1, 154579, Control_c, 0, 64, 0
1, 154659, Control_c, 0, 64, 127
1, 154800, Note_on_c, 0, 67, 0
1, 154800, Note_on_c, 0, 69, 0
1, 154800, Note_on_c, 0, 72, 0
1, 154800, Note_on_c, 0, 69, 55
1, 154920, Note_on_c, 0, 69, 0
1, 154920, Note_on_c, 0, 67, 51
1, 155040, Note_on_c, 0, 67, 0
1, 155040, Note_on_c, 0, 72, 41
1, 155040, Note_on_c, 0, 69, 41
1, 155040, Note_on_c, 0, 65, 50
1, 155055, Control_c, 0, 64, 0
1, 155146, Control_c, 0, 64, 127
1, 155280, Tempo, 466999
1, 155280, Note_on_c, 0, 65, 0
1, 155280, Note_on_c, 0, 69, 0
1, 155280, Note_on_c, 0, 72, 0
1, 155280, Note_on_c, 0, 63, 50
1, 155520, Tempo, 476266
1, 155520, Note_on_c, 0, 63, 0
1, 155520, Note_on_c, 0, 50, 56
1, 155528, Control_c, 0, 64, 0
1, 155749, Control_c, 0, 64, 127
1, 156000, Tempo, 463392
1, 156000, Note_on_c, 0, 57, 50
1, 156480, Note_on_c, 0, 62, 45
1, 156480, Note_on_c, 0, 66, 45
1, 156960, Note_on_c, 0, 66, 0
1, 156960, Note_on_c, 0, 50, 0
1, 156960, Note_on_c, 0, 57, 0
1, 156960, Note_on_c, 0, 62, 0
1, 156960, Control_c, 0, 64, 0
1, 156960, Note_on_c, 0, 63, 52
1, 157087, Control_c, 0, 64, 127
1, 157200, Note_on_c, 0, 63, 0
1, 157200, Note_on_c, 0, 65, 44
1, 157440, Tempo, 456343
1, 157440, Note_on_c, 0, 65, 0
1, 157440, Note_on_c, 0, 72, 41
1, 157440, Note_on_c, 0, 69, 41
1, 157440, Note_on_c, 0, 67, 51
1, 157456, Control_c, 0, 64, 0
1, 157539, Control_c, 0, 64, 127
1, 157680, Note_on_c, 0, 67, 0
1, 157680, Note_on_c, 0, 69, 0
1, 157680, Note_on_c, 0, 72, 0
1, 157680, Note_on_c, 0, 69, 55
1, 157800, Note_on_c, 0, 69, 0
1, 157800, Note_on_c, 0, 67, 51
1, 157920, Note_on_c, 0, 67, 0
1, 157920, Note_on_c, 0, 72, 41
1, 157920, Note_on_c, 0, 69, 41
1, 157920, Note_on_c, 0, 65, 50
1, 157937, Control_c, 0, 64, 0
1, 158005, Control_c, 0, 64, 127
1, 158160, Tempo, 466999
1, 158160, Note_on_c, 0, 65, 0
1, 158160, Note_on_c, 0, 69, 0
1, 158160, Note_on_c, 0, 72, 0
1, 158160, Note_on_c, 0, 63, 50
1, 158400, Tempo, 485909
1, 158400, Note_on_c, 0, 63, 0
1, 158400, Note_on_c, 0, 50, 56
1, 158404, Control_c, 0, 64, 0
1, 158743, Control_c, 0, 64, 127
1, 158880, Tempo, 500083
1, 158880, Note_on_c, 0, 57, 50
1, 159360, Note_on_c, 0, 62, 45
1, 159360, Note_on_c, 0, 66, 45
1, 159400, Tempo, 483949
1, 159840, Tempo, 486736
1, 159840, Note_on_c, 0, 66, 0
1, 159840, Note_on_c, 0, 50, 0
1, 159840, Note_on_c, 0, 57, 0
1, 159840, Note_on_c, 0, 62, 0
1, 159840, Note_on_c, 0, 58, 45
1, 159846, Control_c, 0, 64, 0
1, 159960, Note_on_c, 0, 58, 0
1, 159960, Note_on_c, 0, 65, 28
1, 159960, Note_on_c, 0, 62, 23
1, 160020, Note_on_c, 0, 62, 0
1, 160020, Note_on_c, 0, 65, 0
1, 160080, Tempo, 468823
1, 160080, Note_on_c, 0, 61, 40
1, 160140, Note_on_c, 0, 61, 0
1, 160200, Note_on_c, 0, 65, 26
1, 160200, Note_on_c, 0, 62, 21
1, 160260, Note_on_c, 0, 62, 0
1, 160260, Note_on_c, 0, 65, 0
1, 160320, Tempo, 474083
1, 160320, Note_on_c, 0, 62, 42
1, 160380, Note_on_c, 0, 62, 0
1, 160440, Note_on_c, 0, 65, 26
1, 160440, Note_on_c, 0, 62, 21
1, 160500, Note_on_c, 0, 62, 0
1, 160500, Note_on_c, 0, 65, 0
1, 160560, Tempo, 483053
1, 160560, Note_on_c, 0, 65, 42
1, 160620, Note_on_c, 0, 65, 0
1, 160680, Note_on_c, 0, 65, 26
1, 160680, Note_on_c, 0, 62, 20
1, 160740, Note_on_c, 0, 62, 0
1, 160740, Note_on_c, 0, 65, 0
1, 160800, Tempo, 470514
1, 160800, Note_on_c, 0, 61, 41
1, 160860, Note_on_c, 0, 61, 0
1, 160920, Note_on_c, 0, 65, 26
1, 160920, Note_on_c, 0, 62, 21
1, 160980, Note_on_c, 0, 62, 0
1, 160980, Note_on_c, 0, 65, 0
1, 161040, Tempo, 486381
1, 161040, Note_on_c, 0, 62, 38
1, 161100, Note_on_c, 0, 62, 0
1, 161160, Note_on_c, 0, 65, 26
1, 161160, Note_on_c, 0, 62, 18
1, 161220, Note_on_c, 0, 62, 0
1, 161220, Note_on_c, 0, 65, 0
1, 161280, Tempo, 478851
1, 161280, Note_on_c, 0, 53, 45
1, 161400, Note_on_c, 0, 53, 0
1, 161400, Note_on_c, 0, 65, 28
1, 161400, Note_on_c, 0, 60, 23
1, 161400, Note_on_c, 0, 57, 23
1, 161460, Note_on_c, 0, 57, 0
1, 161460, Note_on_c, 0, 60, 0
1, 161460, Note_on_c, 0, 65, 0
1, 161520, Tempo, 475851
1, 161520, Note_on_c, 0, 56, 40
1, 161580, Note_on_c, 0, 56, 0
1, 161640, Note_on_c, 0, 60, 22
1, 161640, Note_on_c, 0, 65, 26
1, 161640, Note_on_c, 0, 57, 20
1, 161700, Note_on_c, 0, 57, 0
1, 161700, Note_on_c, 0, 65, 0
1, 161700, Note_on_c, 0, 60, 0
1, 161760, Tempo, 468823
1, 161760, Note_on_c, 0, 57, 41
1, 161820, Note_on_c, 0, 57, 0
1, 161880, Note_on_c, 0, 60, 22
1, 161880, Note_on_c, 0, 65, 26
1, 161880, Note_on_c, 0, 57, 20
1, 161940, Note_on_c, 0, 57, 0
1, 161940, Note_on_c, 0, 65, 0
1, 161940, Note_on_c, 0, 60, 0
1, 162000, Tempo, 475851
1, 162000, Note_on_c, 0, 60, 37
1, 162060, Note_on_c, 0, 60, 0
1, 162120, Note_on_c, 0, 60, 22
1, 162120, Note_on_c, 0, 65, 26
1, 162120, Note_on_c, 0, 57, 19
1, 162180, Note_on_c, 0, 57, 0
1, 162180, Note_on_c, 0, 65, 0
1, 162180, Note_on_c, 0, 60, 0
1, 162240, Tempo, 468823
1, 162240, Note_on_c, 0, 56, 39
1, 162300, Note_on_c, 0, 56, 0
1, 162360, Note_on_c, 0, 60, 22
1, 162360, Note_on_c, 0, 65, 26
1, 162360, Note_on_c, 0, 57, 19
1, 162420, Note_on_c, 0, 57, 0
1, 162420, Note_on_c, 0, 65, 0
1, 162420, Note_on_c, 0, 60, 0
1, 162480, Tempo, 488281
1, 162480, Note_on_c, 0, 57, 36
1, 162540, Note_on_c, 0, 57, 0
1, 162600, Note_on_c, 0, 60, 22
1, 162600, Note_on_c, 0, 65, 26
1, 162600, Note_on_c, 0, 57, 17
1, 162660, Note_on_c, 0, 57, 0
1, 162660, Note_on_c, 0, 65, 0
1, 162660, Note_on_c, 0, 60, 0
1, 162720, Tempo, 488281
1, 162720, Note_on_c, 0, 51, 43
1, 162840, Note_on_c, 0, 51, 0
1, 162840, Note_on_c, 0, 61, 22
1, 162840, Note_on_c, 0, 67, 26
1, 162840, Note_on_c, 0, 58, 22
1, 162900, Note_on_c, 0, 58, 0
1, 162900, Note_on_c, 0, 67, 0
1, 162900, Note_on_c, 0, 61, 0
1, 162960, Tempo, 477593
1, 162960, Note_on_c, 0, 57, 37
1, 163020, Note_on_c, 0, 57, 0
1, 163080, Note_on_c, 0, 61, 20
1, 163080, Note_on_c, 0, 67, 24
1, 163080, Note_on_c, 0, 58, 18
1, 163140, Note_on_c, 0, 58, 0
1, 163140, Note_on_c, 0, 67, 0
1, 163140, Note_on_c, 0, 61, 0
1, 163200, Tempo, 479386
1, 163200, Note_on_c, 0, 58, 38
1, 163240, Tempo, 482548
1, 163260, Note_on_c, 0, 58, 0
1, 163320, Tempo, 484457
1, 163320, Note_on_c, 0, 61, 20
1, 163320, Note_on_c, 0, 67, 24
1, 163320, Note_on_c, 0, 58, 18
1, 163360, Tempo, 486381
1, 163380, Note_on_c, 0, 58, 0
1, 163380, Note_on_c, 0, 67, 0
1, 163380, Note_on_c, 0, 61, 0
1, 163400, Tempo, 488281
1, 163440, Note_on_c, 0, 55, 34
1, 163480, Tempo, 490236
1, 163500, Note_on_c, 0, 55, 0
1, 163520, Tempo, 492166
1, 163560, Tempo, 494112
1, 163560, Note_on_c, 0, 61, 20
1, 163560, Note_on_c, 0, 67, 24
1, 163560, Note_on_c, 0, 58, 17
1, 163620, Note_on_c, 0, 58, 0
1, 163620, Note_on_c, 0, 67, 0
1, 163620, Note_on_c, 0, 61, 0
1, 163640, Tempo, 496155
1, 163680, Tempo, 498132
1, 163680, Note_on_c, 0, 53, 36
1, 163720, Tempo, 500125
1, 163740, Note_on_c, 0, 53, 0
1, 163800, Tempo, 502176
1, 163800, Note_on_c, 0, 61, 20
1, 163800, Note_on_c, 0, 67, 24
1, 163800, Note_on_c, 0, 58, 18
1, 163840, Tempo, 504244
1, 163860, Note_on_c, 0, 58, 0
1, 163860, Note_on_c, 0, 67, 0
1, 163860, Note_on_c, 0, 61, 0
1, 163880, Tempo, 506286
1, 163920, Tempo, 540541
1, 163920, Note_on_c, 0, 51, 33
1, 163980, Note_on_c, 0, 51, 0
1, 164040, Tempo, 1518987
1, 164040, Note_on_c, 0, 61, 20
1, 164040, Note_on_c, 0, 67, 24
1, 164040, Note_on_c, 0, 58, 15
1, 164080, Tempo, 991736
1, 164100, Note_on_c, 0, 58, 0
1, 164100, Note_on_c, 0, 67, 0
1, 164100, Note_on_c, 0, 61, 0
1, 164160, Tempo, 750000
1, 164160, Note_on_c, 0, 86, 65
1, 164160, Note_on_c, 0, 62, 55
1, 164541, Control_c, 0, 64, 127
1, 165120, Note_on_c, 0, 62, 0
1, 165120, Note_on_c, 0, 86, 0
1, 165120, Note_on_c, 0, 84, 57
1, 165120, Note_on_c, 0, 60, 48
1, 165360, Note_on_c, 0, 60, 0
1, 165360, Note_on_c, 0, 84, 0
1, 165360, Note_on_c, 0, 86, 57
1, 165360, Note_on_c, 0, 62, 48
1, 165600, Tempo, 750000
1, 165600, Note_on_c, 0, 62, 0
1, 165600, Note_on_c, 0, 86, 0
1, 165600, Note_on_c, 0, 89, 64
1, 165600, Note_on_c, 0, 65, 54
1, 165614, Control_c, 0, 64, 0
1, 165653, Control_c, 0, 64, 127
1, 166440, Tempo, 685714
1, 166440, Note_on_c, 0, 86, 54
1, 166440, Note_on_c, 0, 62, 45
1, 166500, Note_on_c, 0, 62, 0
1, 166500, Note_on_c, 0, 89, 0
1, 166500, Note_on_c, 0, 65, 0
1, 166500, Note_on_c, 0, 86, 0
1, 166500, Note_on_c, 0, 87, 54
1, 166500, Note_on_c, 0, 63, 45
1, 166560, Tempo, 710059
1, 166560, Note_on_c, 0, 63, 0
1, 166560, Note_on_c, 0, 87, 0
1, 166560, Note_on_c, 0, 86, 60
1, 166560, Note_on_c, 0, 62, 51
1, 166577, Control_c, 0, 64, 0
1, 166613, Control_c, 0, 64, 127
1, 166800, Tempo, 736196
1, 166800, Note_on_c, 0, 62, 0
1, 166800, Note_on_c, 0, 86, 0
1, 166800, Note_on_c, 0, 84, 47
1, 166800, Note_on_c, 0, 60, 39
1, 167040, Tempo, 750000
1, 167040, Note_on_c, 0, 60, 0
1, 167040, Note_on_c, 0, 84, 0
1, 167040, Note_on_c, 0, 86, 55
1, 167040, Note_on_c, 0, 62, 46
1, 167049, Control_c, 0, 64, 0
1, 167383, Control_c, 0, 64, 127
1, 167520, Tempo, 833333
1, 168000, Tempo, 895522
1, 168000, Note_on_c, 0, 62, 0
1, 168000, Note_on_c, 0, 86, 0
1, 168000, Note_on_c, 0, 57, 28
1, 168000, Note_on_c, 0, 62, 28
1, 168000, Note_on_c, 0, 66, 34
1, 168000, Note_on_c, 0, 38, 21
1, 168000, Note_on_c, 0, 50, 26
1, 168480, Note_on_c, 0, 66, 0
1, 168480, Note_on_c, 0, 66, 34
1, 168480, Note_on_c, 0, 69, 34
1, 168960, Tempo, 816327
1, 169920, Tempo, 750000
1, 169920, Note_on_c, 0, 69, 0
1, 169920, Note_on_c, 0, 62, 0
1, 169920, Note_on_c, 0, 50, 0
1, 169920, Note_on_c, 0, 57, 0
1, 169920, Note_on_c, 0, 66, 0
1, 169920, Note_on_c, 0, 38, 0
1, 169920, Note_on_c, 0, 86, 65
1, 169920, Note_on_c, 0, 62, 55
1, 169937, Control_c, 0, 64, 0
1, 170259, Control_c, 0, 64, 127
1, 170880, Note_on_c, 0, 62, 0
1, 170880, Note_on_c, 0, 86, 0
1, 170880, Note_on_c, 0, 84, 57
1, 170880, Note_on_c, 0, 60, 48
1, 171120, Note_on_c, 0, 60, 0
1, 171120, Note_on_c, 0, 84, 0
1, 171120, Note_on_c, 0, 86, 57
1, 171120, Note_on_c, 0, 62, 48
1, 171360, Tempo, 750000
1, 171360, Note_on_c, 0, 62, 0
1, 171360, Note_on_c, 0, 86, 0
1, 171360, Note_on_c, 0, 89, 64
1, 171360, Note_on_c, 0, 65, 54
1, 171374, Control_c, 0, 64, 0
1, 171459, Control_c, 0, 64, 127
1, 172200, Tempo, 685714
1, 172200, Note_on_c, 0, 86, 54
1, 172200, Note_on_c, 0, 62, 45
1, 172260, Note_on_c, 0, 62, 0
1, 172260, Note_on_c, 0, 89, 0
1, 172260, Note_on_c, 0, 65, 0
1, 172260, Note_on_c, 0, 86, 0
1, 172260, Note_on_c, 0, 87, 54
1, 172260, Note_on_c, 0, 63, 45
1, 172320, Tempo, 701754
1, 172320, Note_on_c, 0, 63, 0
1, 172320, Note_on_c, 0, 87, 0
1, 172320, Note_on_c, 0, 86, 60
1, 172320, Note_on_c, 0, 62, 51
1, 172327, Control_c, 0, 64, 0
1, 172373, Control_c, 0, 64, 127
1, 172560, Tempo, 745342
1, 172560, Note_on_c, 0, 62, 0
1, 172560, Note_on_c, 0, 86, 0
1, 172560, Note_on_c, 0, 84, 47
1, 172560, Note_on_c, 0, 60, 39
1, 172775, Control_c, 0, 64, 0
1, 172800, Tempo, 750000
1, 172800, Note_on_c, 0, 60, 0
1, 172800, Note_on_c, 0, 84, 0
1, 172800, Note_on_c, 0, 86, 55
1, 172800, Note_on_c, 0, 62, 46
1, 172983, Control_c, 0, 64, 127
1, 173280, Tempo, 916031
1, 173760, Tempo, 960000
1, 173760, Note_on_c, 0, 62, 0
1, 173760, Note_on_c, 0, 86, 0
1, 173760, Note_on_c, 0, 57, 25
1, 173760, Note_on_c, 0, 61, 25
1, 173760, Note_on_c, 0, 67, 30
1, 173760, Note_on_c, 0, 51, 23
1, 173773, Control_c, 0, 64, 0
1, 173943, Control_c, 0, 64, 127
1, 174240, Note_on_c, 0, 51, 0
1, 174240, Note_on_c, 0, 67, 0
1, 174240, Note_on_c, 0, 61, 0
1, 174240, Note_on_c, 0, 62, 30
1, 174240, Note_on_c, 0, 66, 30
1, 174240, Note_on_c, 0, 50, 23
1, 174248, Control_c, 0, 64, 0
1, 174587, Control_c, 0, 64, 127
1, 175680, Tempo, 466926
1, 175680, Note_on_c, 0, 50, 0
1, 175680, Note_on_c, 0, 57, 0
1, 175680, Note_on_c, 0, 62, 0
1, 175680, Note_on_c, 0, 66, 0
1, 175680, Control_c, 0, 64, 0
1, 175680, Note_on_c, 0, 55, 59
1, 175800, Note_on_c, 0, 55, 0
1, 175800, Note_on_c, 0, 62, 31
1, 175860, Note_on_c, 0, 62, 0
1, 175920, Tempo, 441176
1, 175920, Note_on_c, 0, 62, 47
1, 175980, Note_on_c, 0, 62, 0
1, 176040, Note_on_c, 0, 62, 35
1, 176100, Note_on_c, 0, 62, 0
1, 176160, Tempo, 446097
1, 176160, Note_on_c, 0, 63, 53
1, 176220, Note_on_c, 0, 63, 0
1, 176280, Note_on_c, 0, 62, 39
1, 176340, Note_on_c, 0, 62, 0
1, 176400, Tempo, 454545
1, 176400, Note_on_c, 0, 60, 45
1, 176460, Note_on_c, 0, 60, 0
1, 176520, Note_on_c, 0, 62, 37
1, 176580, Note_on_c, 0, 62, 0
1, 176640, Tempo, 454545
1, 176640, Note_on_c, 0, 62, 49
1, 176700, Note_on_c, 0, 62, 0
1, 176760, Note_on_c, 0, 62, 34
1, 176820, Note_on_c, 0, 62, 0
1, 176880, Note_on_c, 0, 58, 45
1, 176940, Note_on_c, 0, 58, 0
1, 177000, Note_on_c, 0, 62, 32
1, 177060, Note_on_c, 0, 62, 0
1, 177120, Tempo, 466926
1, 177120, Note_on_c, 0, 55, 62
1, 177240, Note_on_c, 0, 55, 0
1, 177240, Note_on_c, 0, 62, 31
1, 177300, Note_on_c, 0, 62, 0
1, 177360, Tempo, 442804
1, 177360, Note_on_c, 0, 62, 47
1, 177420, Note_on_c, 0, 62, 0
1, 177480, Note_on_c, 0, 62, 35
1, 177540, Note_on_c, 0, 62, 0
1, 177600, Tempo, 447761
1, 177600, Note_on_c, 0, 63, 53
1, 177660, Note_on_c, 0, 63, 0
1, 177720, Note_on_c, 0, 62, 39
1, 177780, Note_on_c, 0, 62, 0
1, 177840, Tempo, 454545
1, 177840, Note_on_c, 0, 60, 45
1, 177900, Note_on_c, 0, 60, 0
1, 177960, Note_on_c, 0, 62, 37
1, 178020, Note_on_c, 0, 62, 0
1, 178080, Tempo, 454545
1, 178080, Note_on_c, 0, 62, 49
1, 178140, Note_on_c, 0, 62, 0
1, 178200, Note_on_c, 0, 62, 34
1, 178260, Note_on_c, 0, 62, 0
1, 178320, Note_on_c, 0, 58, 45
1, 178380, Note_on_c, 0, 58, 0
1, 178440, Note_on_c, 0, 62, 32
1, 178500, Note_on_c, 0, 62, 0
1, 178560, Tempo, 466926
1, 178560, Note_on_c, 0, 55, 62
1, 178680, Note_on_c, 0, 55, 0
1, 178680, Note_on_c, 0, 62, 31
1, 178740, Note_on_c, 0, 62, 0
1, 178800, Tempo, 442804
1, 178800, Note_on_c, 0, 62, 47
1, 178860, Note_on_c, 0, 62, 0
1, 178920, Note_on_c, 0, 62, 35
1, 178980, Note_on_c, 0, 62, 0
1, 179040, Tempo, 447761
1, 179040, Note_on_c, 0, 63, 50
1, 179100, Note_on_c, 0, 63, 0
1, 179160, Note_on_c, 0, 62, 39
1, 179220, Note_on_c, 0, 62, 0
1, 179280, Tempo, 451128
1, 179280, Note_on_c, 0, 60, 45
1, 179340, Note_on_c, 0, 60, 0
1, 179400, Note_on_c, 0, 62, 37
1, 179460, Note_on_c, 0, 62, 0
1, 179520, Tempo, 454545
1, 179520, Note_on_c, 0, 62, 52
1, 179580, Note_on_c, 0, 62, 0
1, 179640, Note_on_c, 0, 62, 40
1, 179700, Note_on_c, 0, 62, 0
1, 179760, Note_on_c, 0, 58, 48
1, 179820, Note_on_c, 0, 58, 0
1, 179880, Note_on_c, 0, 62, 37
1, 179940, Note_on_c, 0, 62, 0
1, 180000, Tempo, 454545
1, 180000, Note_on_c, 0, 60, 57
1, 180060, Note_on_c, 0, 60, 0
1, 180120, Note_on_c, 0, 62, 41
1, 180180, Note_on_c, 0, 62, 0
1, 180240, Tempo, 444444
1, 180240, Note_on_c, 0, 57, 49
1, 180300, Note_on_c, 0, 57, 0
1, 180360, Note_on_c, 0, 62, 35
1, 180420, Note_on_c, 0, 62, 0
1, 180480, Note_on_c, 0, 58, 53
1, 180540, Note_on_c, 0, 58, 0
1, 180600, Note_on_c, 0, 62, 39
1, 180660, Note_on_c, 0, 62, 0
1, 180720, Tempo, 449438
1, 180720, Note_on_c, 0, 60, 49
1, 180780, Note_on_c, 0, 60, 0
1, 180800, Tempo, 449438
1, 180840, Note_on_c, 0, 62, 34
1, 180900, Note_on_c, 0, 62, 0
1, 180920, Tempo, 451128
1, 180960, Note_on_c, 0, 57, 51
1, 181000, Tempo, 452830
1, 181020, Note_on_c, 0, 57, 0
1, 181080, Tempo, 454545
1, 181080, Note_on_c, 0, 62, 38
1, 181140, Note_on_c, 0, 62, 0
1, 181160, Tempo, 456274
1, 181200, Note_on_c, 0, 58, 48
1, 181240, Tempo, 458015
1, 181260, Note_on_c, 0, 58, 0
1, 181320, Tempo, 470588
1, 181320, Note_on_c, 0, 62, 37
1, 181380, Note_on_c, 0, 62, 0
1, 181400, Tempo, 461538
1, 181440, Tempo, 476190
1, 181440, Note_on_c, 0, 55, 59
1, 181560, Note_on_c, 0, 55, 0
1, 181560, Note_on_c, 0, 62, 30
1, 181620, Note_on_c, 0, 62, 0
1, 181680, Tempo, 441176
1, 181680, Note_on_c, 0, 62, 47
1, 181740, Note_on_c, 0, 62, 0
1, 181800, Note_on_c, 0, 62, 35
1, 181860, Note_on_c, 0, 62, 0
1, 181920, Tempo, 446097
1, 181920, Note_on_c, 0, 63, 50
1, 181980, Note_on_c, 0, 63, 0
1, 182040, Note_on_c, 0, 62, 36
1, 182100, Note_on_c, 0, 62, 0
1, 182160, Tempo, 454545
1, 182160, Note_on_c, 0, 60, 45
1, 182220, Note_on_c, 0, 60, 0
1, 182280, Note_on_c, 0, 62, 31
1, 182340, Note_on_c, 0, 62, 0
1, 182400, Tempo, 454545
1, 182400, Note_on_c, 0, 62, 51
1, 182460, Note_on_c, 0, 62, 0
1, 182520, Note_on_c, 0, 62, 36
1, 182580, Note_on_c, 0, 62, 0
1, 182640, Note_on_c, 0, 58, 45
1, 182700, Note_on_c, 0, 58, 0
1, 182760, Note_on_c, 0, 62, 33
1, 182820, Note_on_c, 0, 62, 0
1, 182880, Tempo, 466926
1, 182880, Note_on_c, 0, 55, 62
1, 183000, Note_on_c, 0, 55, 0
1, 183000, Note_on_c, 0, 62, 37
1, 183060, Note_on_c, 0, 62, 0
1, 183120, Tempo, 437956
1, 183120, Note_on_c, 0, 62, 50
1, 183180, Note_on_c, 0, 62, 0
1, 183240, Note_on_c, 0, 62, 35
1, 183300, Note_on_c, 0, 62, 0
1, 183360, Tempo, 447761
1, 183360, Note_on_c, 0, 63, 54
1, 183420, Note_on_c, 0, 63, 0
1, 183480, Note_on_c, 0, 62, 39
1, 183540, Note_on_c, 0, 62, 0
1, 183600, Tempo, 454545
1, 183600, Note_on_c, 0, 60, 45
1, 183660, Note_on_c, 0, 60, 0
1, 183720, Note_on_c, 0, 62, 37
1, 183780, Note_on_c, 0, 62, 0
1, 183840, Tempo, 454545
1, 183840, Note_on_c, 0, 62, 49
1, 183900, Note_on_c, 0, 62, 0
1, 183960, Note_on_c, 0, 62, 34
1, 184020, Note_on_c, 0, 62, 0
1, 184080, Note_on_c, 0, 58, 45
1, 184140, Note_on_c, 0, 58, 0
1, 184200, Note_on_c, 0, 62, 32
1, 184260, Note_on_c, 0, 62, 0
1, 184320, Tempo, 466926
1, 184320, Note_on_c, 0, 55, 62
1, 184440, Note_on_c, 0, 55, 0
1, 184440, Note_on_c, 0, 62, 31
1, 184500, Note_on_c, 0, 62, 0
1, 184560, Tempo, 442804
1, 184560, Note_on_c, 0, 62, 47
1, 184620, Note_on_c, 0, 62, 0
1, 184680, Note_on_c, 0, 62, 35
1, 184740, Note_on_c, 0, 62, 0
1, 184800, Tempo, 447761
1, 184800, Note_on_c, 0, 63, 50
1, 184860, Note_on_c, 0, 63, 0
1, 184920, Note_on_c, 0, 62, 39
1, 184980, Note_on_c, 0, 62, 0
1, 185040, Tempo, 451128
1, 185040, Note_on_c, 0, 60, 45
1, 185100, Note_on_c, 0, 60, 0
1, 185160, Note_on_c, 0, 62, 37
1, 185220, Note_on_c, 0, 62, 0
1, 185280, Tempo, 454545
1, 185280, Note_on_c, 0, 62, 52
1, 185340, Note_on_c, 0, 62, 0
1, 185400, Note_on_c, 0, 62, 40
1, 185460, Note_on_c, 0, 62, 0
1, 185520, Note_on_c, 0, 58, 48
1, 185580, Note_on_c, 0, 58, 0
1, 185640, Note_on_c, 0, 62, 37
1, 185700, Note_on_c, 0, 62, 0
1, 185760, Tempo, 454545
1, 185760, Note_on_c, 0, 60, 55
1, 185820, Note_on_c, 0, 60, 0
1, 185880, Note_on_c, 0, 62, 41
1, 185940, Note_on_c, 0, 62, 0
1, 186000, Tempo, 444444
1, 186000, Note_on_c, 0, 57, 49
1, 186060, Note_on_c, 0, 57, 0
1, 186120, Note_on_c, 0, 62, 35
1, 186180, Note_on_c, 0, 62, 0
1, 186240, Note_on_c, 0, 58, 56
1, 186300, Note_on_c, 0, 58, 0
1, 186360, Note_on_c, 0, 62, 43
1, 186420, Note_on_c, 0, 62, 0
1, 186480, Tempo, 449438
1, 186480, Note_on_c, 0, 55, 51
1, 186540, Note_on_c, 0, 55, 0
1, 186560, Tempo, 449438
1, 186600, Note_on_c, 0, 62, 37
1, 186660, Note_on_c, 0, 62, 0
1, 186680, Tempo, 451128
1, 186720, Note_on_c, 0, 53, 56
1, 186760, Tempo, 452830
1, 186780, Note_on_c, 0, 53, 0
1, 186840, Tempo, 454545
1, 186840, Note_on_c, 0, 62, 44
1, 186900, Note_on_c, 0, 62, 0
1, 186920, Tempo, 454545
1, 186960, Tempo, 459770
1, 186960, Note_on_c, 0, 51, 53
1, 187000, Tempo, 465116
1, 187020, Note_on_c, 0, 51, 0
1, 187040, Tempo, 470588
1, 187080, Tempo, 476190
1, 187080, Note_on_c, 0, 62, 39
1, 187140, Note_on_c, 0, 62, 0
1, 187200, Tempo, 472441
1, 187200, Note_on_c, 0, 50, 59
1, 187320, Note_on_c, 0, 50, 0
1, 187320, Note_on_c, 0, 62, 31
1, 187380, Note_on_c, 0, 62, 0
1, 187440, Tempo, 436364
1, 187440, Note_on_c, 0, 62, 47
1, 187500, Note_on_c, 0, 62, 0
1, 187560, Note_on_c, 0, 62, 35
1, 187620, Note_on_c, 0, 62, 0
1, 187680, Tempo, 446097
1, 187680, Note_on_c, 0, 63, 53
1, 187740, Note_on_c, 0, 63, 0
1, 187800, Note_on_c, 0, 62, 39
1, 187860, Note_on_c, 0, 62, 0
1, 187920, Tempo, 454545
1, 187920, Note_on_c, 0, 60, 45
1, 187980, Note_on_c, 0, 60, 0
1, 188040, Note_on_c, 0, 62, 37
1, 188100, Note_on_c, 0, 62, 0
1, 188160, Tempo, 454545
1, 188160, Note_on_c, 0, 62, 49
1, 188220, Note_on_c, 0, 62, 0
1, 188280, Note_on_c, 0, 62, 34
1, 188340, Note_on_c, 0, 62, 0
1, 188400, Note_on_c, 0, 57, 45
1, 188460, Note_on_c, 0, 57, 0
1, 188520, Note_on_c, 0, 62, 32
1, 188580, Note_on_c, 0, 62, 0
1, 188640, Tempo, 466926
1, 188640, Note_on_c, 0, 50, 62
1, 188760, Note_on_c, 0, 50, 0
1, 188760, Note_on_c, 0, 62, 31
1, 188820, Note_on_c, 0, 62, 0
1, 188880, Tempo, 439560
1, 188880, Note_on_c, 0, 62, 47
1, 188940, Note_on_c, 0, 62, 0
1, 189000, Note_on_c, 0, 62, 35
1, 189060, Note_on_c, 0, 62, 0
1, 189120, Tempo, 447761
1, 189120, Note_on_c, 0, 63, 53
1, 189180, Note_on_c, 0, 63, 0
1, 189240, Note_on_c, 0, 62, 39
1, 189300, Note_on_c, 0, 62, 0
1, 189360, Tempo, 454545
1, 189360, Note_on_c, 0, 60, 45
1, 189420, Note_on_c, 0, 60, 0
1, 189480, Note_on_c, 0, 62, 37
1, 189540, Note_on_c, 0, 62, 0
1, 189600, Tempo, 454545
1, 189600, Note_on_c, 0, 62, 49
1, 189660, Note_on_c, 0, 62, 0
1, 189720, Note_on_c, 0, 62, 34
1, 189780, Note_on_c, 0, 62, 0
1, 189840, Note_on_c, 0, 57, 45
1, 189900, Note_on_c, 0, 57, 0
1, 189960, Note_on_c, 0, 62, 32
1, 190020, Note_on_c, 0, 62, 0
1, 190080, Tempo, 466926
1, 190080, Note_on_c, 0, 50, 62
1, 190200, Note_on_c, 0, 50, 0
1, 190200, Note_on_c, 0, 62, 31
1, 190260, Note_on_c, 0, 62, 0
1, 190320, Tempo, 442804
1, 190320, Note_on_c, 0, 57, 47
1, 190380, Note_on_c, 0, 57, 0
1, 190440, Note_on_c, 0, 62, 35
1, 190500, Note_on_c, 0, 62, 0
1, 190560, Tempo, 447761
1, 190560, Note_on_c, 0, 60, 52
1, 190620, Note_on_c, 0, 60, 0
1, 190680, Note_on_c, 0, 62, 39
1, 190740, Note_on_c, 0, 62, 0
1, 190800, Tempo, 451128
1, 190800, Note_on_c, 0, 62, 51
1, 190860, Note_on_c, 0, 62, 0
1, 190920, Note_on_c, 0, 62, 37
1, 190980, Note_on_c, 0, 62, 0
1, 191040, Tempo, 454545
1, 191040, Note_on_c, 0, 63, 56
1, 191100, Note_on_c, 0, 63, 0
1, 191160, Note_on_c, 0, 62, 44
1, 191220, Note_on_c, 0, 62, 0
1, 191280, Note_on_c, 0, 65, 53
1, 191340, Note_on_c, 0, 65, 0
1, 191400, Note_on_c, 0, 62, 41
1, 191460, Note_on_c, 0, 62, 0
1, 191520, Tempo, 454545
1, 191520, Note_on_c, 0, 62, 59
1, 191580, Note_on_c, 0, 62, 0
1, 191640, Note_on_c, 0, 62, 48
1, 191700, Note_on_c, 0, 62, 0
1, 191760, Tempo, 444444
1, 191760, Note_on_c, 0, 63, 52
1, 191820, Note_on_c, 0, 63, 0
1, 191880, Note_on_c, 0, 62, 42
1, 191940, Note_on_c, 0, 62, 0
1, 192000, Note_on_c, 0, 60, 54
1, 192060, Note_on_c, 0, 60, 0
1, 192120, Note_on_c, 0, 62, 47
1, 192180, Note_on_c, 0, 62, 0
1, 192240, Tempo, 449438
1, 192240, Note_on_c, 0, 62, 49
1, 192300, Note_on_c, 0, 62, 0
1, 192320, Tempo, 449438
1, 192360, Note_on_c, 0, 62, 41
1, 192420, Note_on_c, 0, 62, 0
1, 192440, Tempo, 451128
1, 192480, Note_on_c, 0, 58, 51
1, 192520, Tempo, 452830
1, 192540, Note_on_c, 0, 58, 0
1, 192600, Tempo, 454545
1, 192600, Note_on_c, 0, 62, 43
1, 192660, Note_on_c, 0, 62, 0
1, 192680, Tempo, 456274
1, 192720, Note_on_c, 0, 57, 48
1, 192760, Tempo, 458015
1, 192780, Note_on_c, 0, 57, 0
1, 192840, Tempo, 459770
1, 192840, Note_on_c, 0, 62, 37
1, 192900, Note_on_c, 0, 62, 0
1, 192920, Tempo, 461538
1, 192960, Tempo, 472441
1, 192960, Note_on_c, 0, 50, 59
1, 193080, Note_on_c, 0, 50, 0
1, 193080, Note_on_c, 0, 62, 31
1, 193140, Note_on_c, 0, 62, 0
1, 193200, Tempo, 441176
1, 193200, Note_on_c, 0, 62, 47
1, 193260, Note_on_c, 0, 62, 0
1, 193320, Note_on_c, 0, 62, 35
1, 193380, Note_on_c, 0, 62, 0
1, 193440, Tempo, 446097
1, 193440, Note_on_c, 0, 63, 53
1, 193500, Note_on_c, 0, 63, 0
1, 193560, Note_on_c, 0, 62, 39
1, 193620, Note_on_c, 0, 62, 0
1, 193680, Tempo, 454545
1, 193680, Note_on_c, 0, 60, 45
1, 193740, Note_on_c, 0, 60, 0
1, 193800, Note_on_c, 0, 62, 37
1, 193860, Note_on_c, 0, 62, 0
1, 193920, Tempo, 454545
1, 193920, Note_on_c, 0, 62, 49
1, 193980, Note_on_c, 0, 62, 0
1, 194040, Note_on_c, 0, 62, 34
1, 194100, Note_on_c, 0, 62, 0
1, 194160, Note_on_c, 0, 57, 45
1, 194220, Note_on_c, 0, 57, 0
1, 194280, Note_on_c, 0, 62, 32
1, 194340, Note_on_c, 0, 62, 0
1, 194400, Tempo, 466926
1, 194400, Note_on_c, 0, 50, 62
1, 194520, Note_on_c, 0, 50, 0
1, 194520, Note_on_c, 0, 62, 31
1, 194580, Note_on_c, 0, 62, 0
1, 194640, Tempo, 442804
1, 194640, Note_on_c, 0, 62, 47
1, 194700, Note_on_c, 0, 62, 0
1, 194760, Note_on_c, 0, 62, 35
1, 194820, Note_on_c, 0, 62, 0
1, 194880, Tempo, 447761
1, 194880, Note_on_c, 0, 63, 53
1, 194940, Note_on_c, 0, 63, 0
1, 195000, Note_on_c, 0, 62, 39
1, 195060, Note_on_c, 0, 62, 0
1, 195120, Tempo, 454545
1, 195120, Note_on_c, 0, 60, 45
1, 195180, Note_on_c, 0, 60, 0
1, 195240, Note_on_c, 0, 62, 37
1, 195300, Note_on_c, 0, 62, 0
1, 195360, Tempo, 454545
1, 195360, Note_on_c, 0, 62, 49
1, 195420, Note_on_c, 0, 62, 0
1, 195480, Note_on_c, 0, 62, 34
1, 195540, Note_on_c, 0, 62, 0
1, 195600, Note_on_c, 0, 57, 45
1, 195660, Note_on_c, 0, 57, 0
1, 195720, Note_on_c, 0, 62, 32
1, 195780, Note_on_c, 0, 62, 0
1, 195840, Tempo, 466926
1, 195840, Note_on_c, 0, 50, 62
1, 195960, Note_on_c, 0, 50, 0
1, 195960, Note_on_c, 0, 62, 31
1, 196020, Note_on_c, 0, 62, 0
1, 196080, Tempo, 442804
1, 196080, Note_on_c, 0, 60, 47
1, 196140, Note_on_c, 0, 60, 0
1, 196200, Note_on_c, 0, 62, 35
1, 196260, Note_on_c, 0, 62, 0
1, 196320, Tempo, 447761
1, 196320, Note_on_c, 0, 62, 52
1, 196380, Note_on_c, 0, 62, 0
1, 196440, Note_on_c, 0, 62, 39
1, 196500, Note_on_c, 0, 62, 0
1, 196560, Tempo, 451128
1, 196560, Note_on_c, 0, 63, 51
1, 196620, Note_on_c, 0, 63, 0
1, 196680, Note_on_c, 0, 62, 37
1, 196740, Note_on_c, 0, 62, 0
1, 196800, Tempo, 454545
1, 196800, Note_on_c, 0, 65, 56
1, 196860, Note_on_c, 0, 65, 0
1, 196920, Note_on_c, 0, 62, 44
1, 196980, Note_on_c, 0, 62, 0
1, 197040, Note_on_c, 0, 62, 53
1, 197100, Note_on_c, 0, 62, 0
1, 197160, Note_on_c, 0, 62, 41
1, 197220, Note_on_c, 0, 62, 0
1, 197280, Tempo, 454545
1, 197280, Note_on_c, 0, 63, 59
1, 197340, Note_on_c, 0, 63, 0
1, 197400, Note_on_c, 0, 62, 48
1, 197460, Note_on_c, 0, 62, 0
1, 197520, Tempo, 444444
1, 197520, Note_on_c, 0, 60, 52
1, 197580, Note_on_c, 0, 60, 0
1, 197640, Note_on_c, 0, 62, 42
1, 197700, Note_on_c, 0, 62, 0
1, 197760, Note_on_c, 0, 62, 54
1, 197820, Note_on_c, 0, 62, 0
1, 197880, Note_on_c, 0, 62, 47
1, 197940, Note_on_c, 0, 62, 0
1, 198000, Tempo, 449438
1, 198000, Note_on_c, 0, 58, 49
1, 198040, Tempo, 451128
1, 198060, Note_on_c, 0, 58, 0
1, 198080, Tempo, 452830
1, 198120, Tempo, 454545
1, 198120, Note_on_c, 0, 62, 41
1, 198160, Tempo, 456274
1, 198180, Note_on_c, 0, 62, 0
1, 198200, Tempo, 458015
1, 198240, Tempo, 459770
1, 198240, Note_on_c, 0, 60, 51
1, 198280, Tempo, 461538
1, 198300, Note_on_c, 0, 60, 0
1, 198320, Tempo, 463320
1, 198360, Tempo, 465116
1, 198360, Note_on_c, 0, 62, 43
1, 198400, Tempo, 466926
1, 198420, Note_on_c, 0, 62, 0
1, 198440, Tempo, 468750
1, 198480, Tempo, 470588
1, 198480, Note_on_c, 0, 57, 48
1, 198520, Tempo, 472441
1, 198540, Note_on_c, 0, 57, 0
1, 198560, Tempo, 474308
1, 198600, Tempo, 478088
1, 198600, Note_on_c, 0, 62, 37
1, 198660, Note_on_c, 0, 62, 0
1, 198680, Tempo, 461538
1, 198720, Tempo, 468750
1, 198720, Note_on_c, 0, 55, 64
1, 198840, Note_on_c, 0, 55, 0
1, 198840, Note_on_c, 0, 74, 44
1, 198840, Note_on_c, 0, 62, 34
1, 198900, Note_on_c, 0, 62, 0
1, 198900, Note_on_c, 0, 74, 0
1, 198960, Tempo, 433213
1, 198960, Note_on_c, 0, 62, 51
1, 199020, Note_on_c, 0, 62, 0
1, 199080, Note_on_c, 0, 74, 49
1, 199080, Note_on_c, 0, 62, 38
1, 199140, Note_on_c, 0, 62, 0
1, 199140, Note_on_c, 0, 74, 0
1, 199200, Tempo, 446097
1, 199200, Note_on_c, 0, 63, 58
1, 199260, Note_on_c, 0, 63, 0
1, 199320, Note_on_c, 0, 74, 54
1, 199320, Note_on_c, 0, 62, 42
1, 199380, Note_on_c, 0, 62, 0
1, 199380, Note_on_c, 0, 74, 0
1, 199440, Tempo, 454545
1, 199440, Note_on_c, 0, 60, 49
1, 199500, Note_on_c, 0, 60, 0
1, 199560, Note_on_c, 0, 74, 52
1, 199560, Note_on_c, 0, 62, 40
1, 199620, Note_on_c, 0, 62, 0
1, 199620, Note_on_c, 0, 74, 0
1, 199680, Tempo, 454545
1, 199680, Note_on_c, 0, 62, 53
1, 199740, Note_on_c, 0, 62, 0
1, 199800, Note_on_c, 0, 74, 48
1, 199800, Note_on_c, 0, 62, 37
1, 199860, Note_on_c, 0, 62, 0
1, 199860, Note_on_c, 0, 74, 0
1, 199920, Note_on_c, 0, 58, 49
1, 199980, Note_on_c, 0, 58, 0
1, 200040, Note_on_c, 0, 74, 45
1, 200040, Note_on_c, 0, 62, 35
1, 200100, Note_on_c, 0, 62, 0
1, 200100, Note_on_c, 0, 74, 0
1, 200160, Tempo, 466926
1, 200160, Note_on_c, 0, 55, 68
1, 200280, Note_on_c, 0, 55, 0
1, 200280, Note_on_c, 0, 74, 44
1, 200280, Note_on_c, 0, 62, 34
1, 200340, Note_on_c, 0, 62, 0
1, 200340, Note_on_c, 0, 74, 0
1, 200400, Tempo, 433213
1, 200400, Note_on_c, 0, 62, 51
1, 200460, Note_on_c, 0, 62, 0
1, 200520, Note_on_c, 0, 74, 49
1, 200520, Note_on_c, 0, 62, 38
1, 200580, Note_on_c, 0, 62, 0
1, 200580, Note_on_c, 0, 74, 0
1, 200640, Tempo, 447761
1, 200640, Note_on_c, 0, 63, 58
1, 200700, Note_on_c, 0, 63, 0
1, 200760, Note_on_c, 0, 74, 54
1, 200760, Note_on_c, 0, 62, 42
1, 200820, Note_on_c, 0, 62, 0
1, 200820, Note_on_c, 0, 74, 0
1, 200880, Tempo, 454545
1, 200880, Note_on_c, 0, 60, 49
1, 200940, Note_on_c, 0, 60, 0
1, 201000, Note_on_c, 0, 74, 52
1, 201000, Note_on_c, 0, 62, 40
1, 201060, Note_on_c, 0, 62, 0
1, 201060, Note_on_c, 0, 74, 0
1, 201120, Tempo, 454545
1, 201120, Note_on_c, 0, 62, 53
1, 201180, Note_on_c, 0, 62, 0
1, 201240, Note_on_c, 0, 74, 48
1, 201240, Note_on_c, 0, 62, 37
1, 201300, Note_on_c, 0, 62, 0
1, 201300, Note_on_c, 0, 74, 0
1, 201360, Note_on_c, 0, 58, 49
1, 201420, Note_on_c, 0, 58, 0
1, 201480, Note_on_c, 0, 74, 45
1, 201480, Note_on_c, 0, 62, 35
1, 201540, Note_on_c, 0, 62, 0
1, 201540, Note_on_c, 0, 74, 0
1, 201600, Tempo, 466926
1, 201600, Note_on_c, 0, 55, 68
1, 201720, Note_on_c, 0, 55, 0
1, 201720, Note_on_c, 0, 74, 44
1, 201720, Note_on_c, 0, 62, 34
1, 201780, Note_on_c, 0, 62, 0
1, 201780, Note_on_c, 0, 74, 0
1, 201840, Tempo, 442804
1, 201840, Note_on_c, 0, 62, 51
1, 201900, Note_on_c, 0, 62, 0
1, 201960, Note_on_c, 0, 74, 49
1, 201960, Note_on_c, 0, 62, 38
1, 202020, Note_on_c, 0, 62, 0
1, 202020, Note_on_c, 0, 74, 0
1, 202080, Tempo, 447761
1, 202080, Note_on_c, 0, 63, 55
1, 202140, Note_on_c, 0, 63, 0
1, 202200, Note_on_c, 0, 74, 54
1, 202200, Note_on_c, 0, 62, 42
1, 202260, Note_on_c, 0, 62, 0
1, 202260, Note_on_c, 0, 74, 0
1, 202320, Tempo, 451128
1, 202320, Note_on_c, 0, 60, 49
1, 202380, Note_on_c, 0, 60, 0
1, 202440, Note_on_c, 0, 74, 52
1, 202440, Note_on_c, 0, 62, 40
1, 202500, Note_on_c, 0, 62, 0
1, 202500, Note_on_c, 0, 74, 0
1, 202560, Tempo, 454545
1, 202560, Note_on_c, 0, 62, 57
1, 202620, Note_on_c, 0, 62, 0
1, 202680, Note_on_c, 0, 74, 57
1, 202680, Note_on_c, 0, 62, 44
1, 202740, Note_on_c, 0, 62, 0
1, 202740, Note_on_c, 0, 74, 0
1, 202800, Note_on_c, 0, 58, 52
1, 202860, Note_on_c, 0, 58, 0
1, 202920, Note_on_c, 0, 74, 52
1, 202920, Note_on_c, 0, 62, 40
1, 202980, Note_on_c, 0, 62, 0
1, 202980, Note_on_c, 0, 74, 0
1, 203040, Tempo, 454545
1, 203040, Note_on_c, 0, 60, 62
1, 203100, Note_on_c, 0, 60, 0
1, 203160, Note_on_c, 0, 74, 58
1, 203160, Note_on_c, 0, 62, 45
1, 203220, Note_on_c, 0, 62, 0
1, 203220, Note_on_c, 0, 74, 0
1, 203280, Tempo, 444444
1, 203280, Note_on_c, 0, 57, 53
1, 203340, Note_on_c, 0, 57, 0
1, 203400, Note_on_c, 0, 74, 49
1, 203400, Note_on_c, 0, 62, 38
1, 203460, Note_on_c, 0, 62, 0
1, 203460, Note_on_c, 0, 74, 0
1, 203520, Note_on_c, 0, 58, 58
1, 203580, Note_on_c, 0, 58, 0
1, 203640, Note_on_c, 0, 74, 54
1, 203640, Note_on_c, 0, 62, 42
1, 203700, Note_on_c, 0, 62, 0
1, 203700, Note_on_c, 0, 74, 0
1, 203760, Tempo, 449438
1, 203760, Note_on_c, 0, 60, 53
1, 203820, Note_on_c, 0, 60, 0
1, 203840, Tempo, 449438
1, 203880, Note_on_c, 0, 74, 48
1, 203880, Note_on_c, 0, 62, 37
1, 203940, Note_on_c, 0, 62, 0
1, 203940, Note_on_c, 0, 74, 0
1, 203960, Tempo, 451128
1, 204000, Note_on_c, 0, 57, 56
1, 204040, Tempo, 452830
1, 204060, Note_on_c, 0, 57, 0
1, 204120, Tempo, 454545
1, 204120, Note_on_c, 0, 74, 53
1, 204120, Note_on_c, 0, 62, 41
1, 204180, Note_on_c, 0, 62, 0
1, 204180, Note_on_c, 0, 74, 0
1, 204200, Tempo, 456274
1, 204240, Note_on_c, 0, 58, 52
1, 204280, Tempo, 458015
1, 204300, Note_on_c, 0, 58, 0
1, 204360, Tempo, 485830
1, 204360, Note_on_c, 0, 74, 52
1, 204360, Note_on_c, 0, 62, 40
1, 204420, Note_on_c, 0, 62, 0
1, 204420, Note_on_c, 0, 74, 0
1, 204480, Tempo, 466926
1, 204480, Note_on_c, 0, 55, 64
1, 204600, Note_on_c, 0, 55, 0
1, 204600, Note_on_c, 0, 74, 44
1, 204600, Note_on_c, 0, 62, 34
1, 204660, Note_on_c, 0, 62, 0
1, 204660, Note_on_c, 0, 74, 0
1, 204720, Tempo, 441176
1, 204720, Note_on_c, 0, 62, 51
1, 204780, Note_on_c, 0, 62, 0
1, 204840, Note_on_c, 0, 74, 49
1, 204840, Note_on_c, 0, 62, 38
1, 204900, Note_on_c, 0, 62, 0
1, 204900, Note_on_c, 0, 74, 0
1, 204960, Tempo, 446097
1, 204960, Note_on_c, 0, 63, 58
1, 205020, Note_on_c, 0, 63, 0
1, 205080, Note_on_c, 0, 74, 54
1, 205080, Note_on_c, 0, 62, 42
1, 205140, Note_on_c, 0, 62, 0
1, 205140, Note_on_c, 0, 74, 0
1, 205200, Tempo, 454545
1, 205200, Note_on_c, 0, 60, 49
1, 205260, Note_on_c, 0, 60, 0
1, 205320, Note_on_c, 0, 74, 52
1, 205320, Note_on_c, 0, 62, 40
1, 205380, Note_on_c, 0, 62, 0
1, 205380, Note_on_c, 0, 74, 0
1, 205440, Tempo, 454545
1, 205440, Note_on_c, 0, 62, 53
1, 205500, Note_on_c, 0, 62, 0
1, 205560, Note_on_c, 0, 74, 48
1, 205560, Note_on_c, 0, 62, 37
1, 205620, Note_on_c, 0, 62, 0
1, 205620, Note_on_c, 0, 74, 0
1, 205680, Note_on_c, 0, 58, 49
1, 205740, Note_on_c, 0, 58, 0
1, 205800, Note_on_c, 0, 74, 45
1, 205800, Note_on_c, 0, 62, 35
1, 205860, Note_on_c, 0, 62, 0
1, 205860, Note_on_c, 0, 74, 0
1, 205920, Tempo, 466926
1, 205920, Note_on_c, 0, 55, 68
1, 206040, Note_on_c, 0, 55, 0
1, 206040, Note_on_c, 0, 74, 44
1, 206040, Note_on_c, 0, 62, 34
1, 206100, Note_on_c, 0, 62, 0
1, 206100, Note_on_c, 0, 74, 0
1, 206160, Tempo, 442804
1, 206160, Note_on_c, 0, 62, 51
1, 206220, Note_on_c, 0, 62, 0
1, 206280, Note_on_c, 0, 74, 49
1, 206280, Note_on_c, 0, 62, 38
1, 206340, Note_on_c, 0, 62, 0
1, 206340, Note_on_c, 0, 74, 0
1, 206400, Tempo, 447761
1, 206400, Note_on_c, 0, 63, 58
1, 206460, Note_on_c, 0, 63, 0
1, 206520, Note_on_c, 0, 74, 54
1, 206520, Note_on_c, 0, 62, 42
1, 206580, Note_on_c, 0, 62, 0
1, 206580, Note_on_c, 0, 74, 0
1, 206640, Tempo, 454545
1, 206640, Note_on_c, 0, 60, 49
1, 206700, Note_on_c, 0, 60, 0
1, 206760, Note_on_c, 0, 74, 52
1, 206760, Note_on_c, 0, 62, 40
1, 206820, Note_on_c, 0, 62, 0
1, 206820, Note_on_c, 0, 74, 0
1, 206880, Tempo, 454545
1, 206880, Note_on_c, 0, 62, 53
1, 206940, Note_on_c, 0, 62, 0
1, 207000, Note_on_c, 0, 74, 48
1, 207000, Note_on_c, 0, 62, 37
1, 207060, Note_on_c, 0, 62, 0
1, 207060, Note_on_c, 0, 74, 0
1, 207120, Note_on_c, 0, 58, 49
1, 207180, Note_on_c, 0, 58, 0
1, 207240, Note_on_c, 0, 74, 45
1, 207240, Note_on_c, 0, 62, 35
1, 207300, Note_on_c, 0, 62, 0
1, 207300, Note_on_c, 0, 74, 0
1, 207360, Tempo, 466926
1, 207360, Note_on_c, 0, 55, 68
1, 207480, Note_on_c, 0, 55, 0
1, 207480, Note_on_c, 0, 74, 44
1, 207480, Note_on_c, 0, 62, 34
1, 207540, Note_on_c, 0, 62, 0
1, 207540, Note_on_c, 0, 74, 0
1, 207600, Tempo, 442804
1, 207600, Note_on_c, 0, 62, 51
1, 207660, Note_on_c, 0, 62, 0
1, 207720, Note_on_c, 0, 74, 49
1, 207720, Note_on_c, 0, 62, 38
1, 207780, Note_on_c, 0, 62, 0
1, 207780, Note_on_c, 0, 74, 0
1, 207840, Tempo, 447761
1, 207840, Note_on_c, 0, 63, 55
1, 207900, Note_on_c, 0, 63, 0
1, 207960, Note_on_c, 0, 74, 54
1, 207960, Note_on_c, 0, 62, 42
1, 208020, Note_on_c, 0, 62, 0
1, 208020, Note_on_c, 0, 74, 0
1, 208080, Tempo, 451128
1, 208080, Note_on_c, 0, 60, 49
1, 208140, Note_on_c, 0, 60, 0
1, 208200, Note_on_c, 0, 74, 52
1, 208200, Note_on_c, 0, 62, 40
1, 208260, Note_on_c, 0, 62, 0
1, 208260, Note_on_c, 0, 74, 0
1, 208320, Tempo, 454545
1, 208320, Note_on_c, 0, 62, 57
1, 208380, Note_on_c, 0, 62, 0
1, 208440, Note_on_c, 0, 74, 57
1, 208440, Note_on_c, 0, 62, 44
1, 208500, Note_on_c, 0, 62, 0
1, 208500, Note_on_c, 0, 74, 0
1, 208560, Note_on_c, 0, 58, 52
1, 208620, Note_on_c, 0, 58, 0
1, 208680, Note_on_c, 0, 74, 52
1, 208680, Note_on_c, 0, 62, 40
1, 208740, Note_on_c, 0, 62, 0
1, 208740, Note_on_c, 0, 74, 0
1, 208800, Tempo, 454545
1, 208800, Note_on_c, 0, 60, 62
1, 208860, Note_on_c, 0, 60, 0
1, 208920, Note_on_c, 0, 74, 58
1, 208920, Note_on_c, 0, 62, 45
1, 208980, Note_on_c, 0, 62, 0
1, 208980, Note_on_c, 0, 74, 0
1, 209040, Tempo, 439560
1, 209040, Note_on_c, 0, 57, 53
1, 209100, Note_on_c, 0, 57, 0
1, 209160, Note_on_c, 0, 74, 49
1, 209160, Note_on_c, 0, 62, 38
1, 209220, Note_on_c, 0, 62, 0
1, 209220, Note_on_c, 0, 74, 0
1, 209280, Tempo, 444444
1, 209280, Note_on_c, 0, 58, 62
1, 209340, Note_on_c, 0, 58, 0
1, 209400, Note_on_c, 0, 74, 62
1, 209400, Note_on_c, 0, 62, 48
1, 209460, Note_on_c, 0, 62, 0
1, 209460, Note_on_c, 0, 74, 0
1, 209520, Tempo, 449438
1, 209520, Note_on_c, 0, 55, 58
1, 209580, Note_on_c, 0, 55, 0
1, 209600, Tempo, 449438
1, 209640, Note_on_c, 0, 74, 54
1, 209640, Note_on_c, 0, 62, 42
1, 209700, Note_on_c, 0, 62, 0
1, 209700, Note_on_c, 0, 74, 0
1, 209720, Tempo, 451128
1, 209760, Tempo, 451128
1, 209760, Note_on_c, 0, 53, 64
1, 209800, Tempo, 452830
1, 209820, Note_on_c, 0, 53, 0
1, 209840, Tempo, 456274
1, 209880, Tempo, 459770
1, 209880, Note_on_c, 0, 74, 66
1, 209880, Note_on_c, 0, 62, 51
1, 209920, Tempo, 463320
1, 209940, Note_on_c, 0, 62, 0
1, 209940, Note_on_c, 0, 74, 0
1, 209960, Tempo, 466926
1, 210000, Tempo, 470588
1, 210000, Note_on_c, 0, 51, 62
1, 210040, Tempo, 474308
1, 210060, Note_on_c, 0, 51, 0
1, 210080, Tempo, 478088
1, 210120, Tempo, 481928
1, 210120, Note_on_c, 0, 74, 58
1, 210120, Note_on_c, 0, 62, 45
1, 210160, Tempo, 485830
1, 210180, Note_on_c, 0, 62, 0
1, 210180, Note_on_c, 0, 74, 0
1, 210200, Tempo, 489796
1, 210240, Tempo, 466926
1, 210240, Note_on_c, 0, 38, 71
1, 210240, Note_on_c, 0, 50, 84
1, 210251, Control_c, 0, 64, 127
1, 210360, Tempo, 542986
1, 210360, Note_on_c, 0, 50, 0
1, 210360, Note_on_c, 0, 38, 0
1, 210360, Note_on_c, 0, 86, 83
1, 210360, Note_on_c, 0, 81, 83
1, 210360, Note_on_c, 0, 78, 70
1, 210360, Note_on_c, 0, 74, 70
1, 210420, Note_on_c, 0, 74, 0
1, 210420, Note_on_c, 0, 86, 0
1, 210420, Note_on_c, 0, 81, 0
1, 210420, Note_on_c, 0, 78, 0
1, 210471, Control_c, 0, 64, 0
1, 210480, Tempo, 437956
1, 210480, Note_on_c, 0, 62, 56
1, 210540, Note_on_c, 0, 62, 0
1, 210600, Note_on_c, 0, 74, 54
1, 210600, Note_on_c, 0, 62, 42
1, 210660, Note_on_c, 0, 62, 0
1, 210660, Note_on_c, 0, 74, 0
1, 210720, Tempo, 446097
1, 210720, Note_on_c, 0, 63, 63
1, 210780, Note_on_c, 0, 63, 0
1, 210840, Note_on_c, 0, 74, 59
1, 210840, Note_on_c, 0, 62, 46
1, 210900, Note_on_c, 0, 62, 0
1, 210900, Note_on_c, 0, 74, 0
1, 210960, Tempo, 454545
1, 210960, Note_on_c, 0, 60, 54
1, 211020, Note_on_c, 0, 60, 0
1, 211080, Note_on_c, 0, 74, 57
1, 211080, Note_on_c, 0, 62, 44
1, 211140, Note_on_c, 0, 62, 0
1, 211140, Note_on_c, 0, 74, 0
1, 211200, Tempo, 454545
1, 211200, Note_on_c, 0, 62, 58
1, 211260, Note_on_c, 0, 62, 0
1, 211320, Note_on_c, 0, 74, 52
1, 211320, Note_on_c, 0, 62, 40
1, 211380, Note_on_c, 0, 62, 0
1, 211380, Note_on_c, 0, 74, 0
1, 211440, Note_on_c, 0, 57, 54
1, 211500, Note_on_c, 0, 57, 0
1, 211560, Note_on_c, 0, 74, 49
1, 211560, Note_on_c, 0, 62, 38
1, 211620, Note_on_c, 0, 62, 0
1, 211620, Note_on_c, 0, 74, 0
1, 211680, Tempo, 466926
1, 211680, Note_on_c, 0, 38, 74
1, 211680, Note_on_c, 0, 50, 88
1, 211683, Control_c, 0, 64, 127
1, 211800, Tempo, 535714
1, 211800, Note_on_c, 0, 50, 0
1, 211800, Note_on_c, 0, 38, 0
1, 211800, Note_on_c, 0, 86, 85
1, 211800, Note_on_c, 0, 81, 85
1, 211800, Note_on_c, 0, 78, 72
1, 211800, Note_on_c, 0, 74, 72
1, 211860, Note_on_c, 0, 74, 0
1, 211860, Note_on_c, 0, 86, 0
1, 211860, Note_on_c, 0, 81, 0
1, 211860, Note_on_c, 0, 78, 0
1, 211909, Control_c, 0, 64, 0
1, 211920, Tempo, 439560
1, 211920, Note_on_c, 0, 62, 56
1, 211980, Note_on_c, 0, 62, 0
1, 212040, Note_on_c, 0, 74, 54
1, 212040, Note_on_c, 0, 62, 42
1, 212100, Note_on_c, 0, 62, 0
1, 212100, Note_on_c, 0, 74, 0
1, 212160, Tempo, 447761
1, 212160, Note_on_c, 0, 63, 63
1, 212220, Note_on_c, 0, 63, 0
1, 212280, Note_on_c, 0, 74, 59
1, 212280, Note_on_c, 0, 62, 46
1, 212340, Note_on_c, 0, 62, 0
1, 212340, Note_on_c, 0, 74, 0
1, 212400, Tempo, 454545
1, 212400, Note_on_c, 0, 60, 54
1, 212460, Note_on_c, 0, 60, 0
1, 212520, Note_on_c, 0, 74, 57
1, 212520, Note_on_c, 0, 62, 44
1, 212580, Note_on_c, 0, 62, 0
1, 212580, Note_on_c, 0, 74, 0
1, 212640, Tempo, 454545
1, 212640, Note_on_c, 0, 62, 58
1, 212700, Note_on_c, 0, 62, 0
1, 212760, Note_on_c, 0, 74, 52
1, 212760, Note_on_c, 0, 62, 40
1, 212820, Note_on_c, 0, 62, 0
1, 212820, Note_on_c, 0, 74, 0
1, 212880, Note_on_c, 0, 57, 54
1, 212940, Note_on_c, 0, 57, 0
1, 213000, Note_on_c, 0, 74, 49
1, 213000, Note_on_c, 0, 62, 38
1, 213060, Note_on_c, 0, 62, 0
1, 213060, Note_on_c, 0, 74, 0
1, 213120, Tempo, 466926
1, 213120, Note_on_c, 0, 38, 74
1, 213120, Note_on_c, 0, 50, 88
1, 213143, Control_c, 0, 64, 127
1, 213240, Tempo, 528634
1, 213240, Note_on_c, 0, 50, 0
1, 213240, Note_on_c, 0, 38, 0
1, 213240, Note_on_c, 0, 86, 83
1, 213240, Note_on_c, 0, 81, 83
1, 213240, Note_on_c, 0, 78, 70
1, 213240, Note_on_c, 0, 74, 70
1, 213300, Note_on_c, 0, 74, 0
1, 213300, Note_on_c, 0, 86, 0
1, 213300, Note_on_c, 0, 81, 0
1, 213300, Note_on_c, 0, 78, 0
1, 213340, Control_c, 0, 64, 0
1, 213360, Tempo, 439560
1, 213360, Note_on_c, 0, 57, 56
1, 213420, Note_on_c, 0, 57, 0
1, 213480, Note_on_c, 0, 74, 54
1, 213480, Note_on_c, 0, 62, 42
1, 213540, Note_on_c, 0, 62, 0
1, 213540, Note_on_c, 0, 74, 0
1, 213600, Tempo, 447761
1, 213600, Note_on_c, 0, 60, 62
1, 213660, Note_on_c, 0, 60, 0
1, 213720, Note_on_c, 0, 74, 59
1, 213720, Note_on_c, 0, 62, 46
1, 213780, Note_on_c, 0, 62, 0
1, 213780, Note_on_c, 0, 74, 0
1, 213840, Tempo, 451128
1, 213840, Note_on_c, 0, 62, 61
1, 213900, Note_on_c, 0, 62, 0
1, 213960, Note_on_c, 0, 74, 57
1, 213960, Note_on_c, 0, 62, 44
1, 214020, Note_on_c, 0, 62, 0
1, 214020, Note_on_c, 0, 74, 0
1, 214080, Tempo, 454545
1, 214080, Note_on_c, 0, 63, 67
1, 214140, Note_on_c, 0, 63, 0
1, 214200, Note_on_c, 0, 74, 67
1, 214200, Note_on_c, 0, 62, 52
1, 214260, Note_on_c, 0, 62, 0
1, 214260, Note_on_c, 0, 74, 0
1, 214320, Note_on_c, 0, 65, 63
1, 214380, Note_on_c, 0, 65, 0
1, 214440, Note_on_c, 0, 74, 63
1, 214440, Note_on_c, 0, 62, 49
1, 214500, Note_on_c, 0, 62, 0
1, 214500, Note_on_c, 0, 74, 0
1, 214560, Tempo, 454545
1, 214560, Note_on_c, 0, 62, 70
1, 214620, Note_on_c, 0, 62, 0
1, 214680, Note_on_c, 0, 74, 70
1, 214680, Note_on_c, 0, 62, 54
1, 214740, Note_on_c, 0, 62, 0
1, 214740, Note_on_c, 0, 74, 0
1, 214800, Tempo, 444444
1, 214800, Note_on_c, 0, 63, 62
1, 214860, Note_on_c, 0, 63, 0
1, 214920, Note_on_c, 0, 74, 65
1, 214920, Note_on_c, 0, 62, 50
1, 214980, Note_on_c, 0, 62, 0
1, 214980, Note_on_c, 0, 74, 0
1, 215040, Note_on_c, 0, 60, 64
1, 215100, Note_on_c, 0, 60, 0
1, 215160, Note_on_c, 0, 74, 68
1, 215160, Note_on_c, 0, 62, 53
1, 215220, Note_on_c, 0, 62, 0
1, 215220, Note_on_c, 0, 74, 0
1, 215280, Tempo, 449438
1, 215280, Note_on_c, 0, 62, 58
1, 215340, Note_on_c, 0, 62, 0
1, 215360, Tempo, 449438
1, 215400, Note_on_c, 0, 74, 63
1, 215400, Note_on_c, 0, 62, 49
1, 215460, Note_on_c, 0, 62, 0
1, 215460, Note_on_c, 0, 74, 0
1, 215480, Tempo, 451128
1, 215520, Note_on_c, 0, 58, 61
1, 215560, Tempo, 452830
1, 215580, Note_on_c, 0, 58, 0
1, 215640, Tempo, 454545
1, 215640, Note_on_c, 0, 74, 66
1, 215640, Note_on_c, 0, 62, 51
1, 215700, Note_on_c, 0, 62, 0
1, 215700, Note_on_c, 0, 74, 0
1, 215720, Tempo, 456274
1, 215760, Note_on_c, 0, 57, 57
1, 215800, Tempo, 458015
1, 215820, Note_on_c, 0, 57, 0
1, 215880, Tempo, 459770
1, 215880, Note_on_c, 0, 74, 57
1, 215880, Note_on_c, 0, 62, 44
1, 215940, Note_on_c, 0, 62, 0
1, 215940, Note_on_c, 0, 74, 0
1, 215960, Tempo, 461538
1, 216000, Tempo, 466926
1, 216000, Note_on_c, 0, 38, 71
1, 216000, Note_on_c, 0, 50, 84
1, 216009, Control_c, 0, 64, 127
1, 216120, Tempo, 545455
1, 216120, Note_on_c, 0, 50, 0
1, 216120, Note_on_c, 0, 38, 0
1, 216120, Note_on_c, 0, 86, 83
1, 216120, Note_on_c, 0, 81, 83
1, 216120, Note_on_c, 0, 78, 70
1, 216120, Note_on_c, 0, 74, 70
1, 216180, Note_on_c, 0, 74, 0
1, 216180, Note_on_c, 0, 86, 0
1, 216180, Note_on_c, 0, 81, 0
1, 216180, Note_on_c, 0, 78, 0
1, 216211, Control_c, 0, 64, 0
1, 216240, Tempo, 437956
1, 216240, Note_on_c, 0, 62, 56
1, 216300, Note_on_c, 0, 62, 0
1, 216360, Note_on_c, 0, 74, 54
1, 216360, Note_on_c, 0, 62, 42
1, 216420, Note_on_c, 0, 62, 0
1, 216420, Note_on_c, 0, 74, 0
1, 216480, Tempo, 446097
1, 216480, Note_on_c, 0, 63, 63
1, 216540, Note_on_c, 0, 63, 0
1, 216600, Note_on_c, 0, 74, 59
1, 216600, Note_on_c, 0, 62, 46
1, 216660, Note_on_c, 0, 62, 0
1, 216660, Note_on_c, 0, 74, 0
1, 216720, Tempo, 454545
1, 216720, Note_on_c, 0, 60, 54
1, 216780, Note_on_c, 0, 60, 0
1, 216840, Note_on_c, 0, 74, 57
1, 216840, Note_on_c, 0, 62, 44
1, 216900, Note_on_c, 0, 62, 0
1, 216900, Note_on_c, 0, 74, 0
1, 216960, Tempo, 454545
1, 216960, Note_on_c, 0, 62, 58
1, 217020, Note_on_c, 0, 62, 0
1, 217080, Note_on_c, 0, 74, 52
1, 217080, Note_on_c, 0, 62, 40
1, 217140, Note_on_c, 0, 62, 0
1, 217140, Note_on_c, 0, 74, 0
1, 217200, Note_on_c, 0, 57, 54
1, 217260, Note_on_c, 0, 57, 0
1, 217320, Note_on_c, 0, 74, 49
1, 217320, Note_on_c, 0, 62, 38
1, 217380, Note_on_c, 0, 62, 0
1, 217380, Note_on_c, 0, 74, 0
1, 217440, Tempo, 466926
1, 217440, Note_on_c, 0, 38, 74
1, 217440, Note_on_c, 0, 50, 88
1, 217463, Control_c, 0, 64, 127
1, 217560, Tempo, 542986
1, 217560, Note_on_c, 0, 50, 0
1, 217560, Note_on_c, 0, 38, 0
1, 217560, Note_on_c, 0, 86, 85
1, 217560, Note_on_c, 0, 81, 85
1, 217560, Note_on_c, 0, 78, 72
1, 217560, Note_on_c, 0, 74, 72
1, 217620, Note_on_c, 0, 74, 0
1, 217620, Note_on_c, 0, 86, 0
1, 217620, Note_on_c, 0, 81, 0
1, 217620, Note_on_c, 0, 78, 0
1, 217654, Control_c, 0, 64, 0
1, 217680, Tempo, 437956
1, 217680, Note_on_c, 0, 62, 56
1, 217740, Note_on_c, 0, 62, 0
1, 217800, Note_on_c, 0, 74, 54
1, 217800, Note_on_c, 0, 62, 42
1, 217860, Note_on_c, 0, 62, 0
1, 217860, Note_on_c, 0, 74, 0
1, 217920, Tempo, 447761
1, 217920, Note_on_c, 0, 63, 63
1, 217980, Note_on_c, 0, 63, 0
1, 218040, Note_on_c, 0, 74, 59
1, 218040, Note_on_c, 0, 62, 46
1, 218100, Note_on_c, 0, 62, 0
1, 218100, Note_on_c, 0, 74, 0
1, 218160, Tempo, 454545
1, 218160, Note_on_c, 0, 60, 54
1, 218220, Note_on_c, 0, 60, 0
1, 218280, Note_on_c, 0, 74, 57
1, 218280, Note_on_c, 0, 62, 44
1, 218340, Note_on_c, 0, 62, 0
1, 218340, Note_on_c, 0, 74, 0
1, 218400, Tempo, 454545
1, 218400, Note_on_c, 0, 62, 58
1, 218460, Note_on_c, 0, 62, 0
1, 218520, Note_on_c, 0, 74, 52
1, 218520, Note_on_c, 0, 62, 40
1, 218580, Note_on_c, 0, 62, 0
1, 218580, Note_on_c, 0, 74, 0
1, 218640, Note_on_c, 0, 57, 54
1, 218700, Note_on_c, 0, 57, 0
1, 218760, Note_on_c, 0, 74, 49
1, 218760, Note_on_c, 0, 62, 38
1, 218820, Note_on_c, 0, 62, 0
1, 218820, Note_on_c, 0, 74, 0
1, 218880, Tempo, 466926
1, 218880, Note_on_c, 0, 38, 74
1, 218880, Note_on_c, 0, 50, 88
1, 218891, Control_c, 0, 64, 127
1, 219000, Tempo, 545455
1, 219000, Note_on_c, 0, 50, 0
1, 219000, Note_on_c, 0, 38, 0
1, 219000, Note_on_c, 0, 86, 83
1, 219000, Note_on_c, 0, 81, 83
1, 219000, Note_on_c, 0, 78, 70
1, 219000, Note_on_c, 0, 74, 70
1, 219060, Note_on_c, 0, 74, 0
1, 219060, Note_on_c, 0, 86, 0
1, 219060, Note_on_c, 0, 81, 0
1, 219060, Note_on_c, 0, 78, 0
1, 219103, Control_c, 0, 64, 0
1, 219120, Tempo, 442804
1, 219120, Note_on_c, 0, 57, 56
1, 219180, Note_on_c, 0, 57, 0
1, 219240, Note_on_c, 0, 74, 54
1, 219240, Note_on_c, 0, 62, 42
1, 219300, Note_on_c, 0, 62, 0
1, 219300, Note_on_c, 0, 74, 0
1, 219360, Tempo, 447761
1, 219360, Note_on_c, 0, 60, 62
1, 219420, Note_on_c, 0, 60, 0
1, 219480, Note_on_c, 0, 74, 59
1, 219480, Note_on_c, 0, 62, 46
1, 219540, Note_on_c, 0, 62, 0
1, 219540, Note_on_c, 0, 74, 0
1, 219600, Tempo, 451128
1, 219600, Note_on_c, 0, 62, 61
1, 219660, Note_on_c, 0, 62, 0
1, 219720, Note_on_c, 0, 74, 57
1, 219720, Note_on_c, 0, 62, 44
1, 219780, Note_on_c, 0, 62, 0
1, 219780, Note_on_c, 0, 74, 0
1, 219840, Tempo, 454545
1, 219840, Note_on_c, 0, 63, 67
1, 219900, Note_on_c, 0, 63, 0
1, 219960, Note_on_c, 0, 74, 67
1, 219960, Note_on_c, 0, 62, 52
1, 220020, Note_on_c, 0, 62, 0
1, 220020, Note_on_c, 0, 74, 0
1, 220080, Note_on_c, 0, 65, 63
1, 220140, Note_on_c, 0, 65, 0
1, 220200, Note_on_c, 0, 74, 63
1, 220200, Note_on_c, 0, 62, 49
1, 220260, Note_on_c, 0, 62, 0
1, 220260, Note_on_c, 0, 74, 0
1, 220320, Tempo, 454545
1, 220320, Note_on_c, 0, 62, 70
1, 220380, Note_on_c, 0, 62, 0
1, 220440, Note_on_c, 0, 74, 71
1, 220440, Note_on_c, 0, 62, 55
1, 220500, Note_on_c, 0, 62, 0
1, 220500, Note_on_c, 0, 74, 0
1, 220560, Tempo, 441176
1, 220560, Note_on_c, 0, 63, 62
1, 220620, Note_on_c, 0, 63, 0
1, 220680, Note_on_c, 0, 74, 65
1, 220680, Note_on_c, 0, 62, 50
1, 220740, Note_on_c, 0, 62, 0
1, 220740, Note_on_c, 0, 74, 0
1, 220800, Tempo, 447761
1, 220800, Note_on_c, 0, 60, 74
1, 220860, Note_on_c, 0, 60, 0
1, 220920, Note_on_c, 0, 74, 72
1, 220920, Note_on_c, 0, 62, 56
1, 220980, Note_on_c, 0, 62, 0
1, 220980, Note_on_c, 0, 74, 0
1, 221040, Tempo, 454545
1, 221040, Note_on_c, 0, 62, 69
1, 221100, Note_on_c, 0, 62, 0
1, 221120, Tempo, 456274
1, 221160, Tempo, 458015
1, 221160, Note_on_c, 0, 74, 67
1, 221160, Note_on_c, 0, 62, 52
1, 221200, Tempo, 459770
1, 221220, Note_on_c, 0, 62, 0
1, 221220, Note_on_c, 0, 74, 0
1, 221240, Tempo, 461538
1, 221280, Tempo, 463320
1, 221280, Note_on_c, 0, 58, 75
1, 221320, Tempo, 465116
1, 221340, Note_on_c, 0, 58, 0
1, 221360, Tempo, 466926
1, 221400, Note_on_c, 0, 74, 77
1, 221400, Note_on_c, 0, 62, 60
1, 221440, Tempo, 468750
1, 221460, Note_on_c, 0, 62, 0
1, 221460, Note_on_c, 0, 74, 0
1, 221480, Tempo, 470588
1, 221520, Tempo, 472441
1, 221520, Note_on_c, 0, 62, 70
1, 221560, Tempo, 474308
1, 221580, Note_on_c, 0, 62, 0
1, 221600, Tempo, 476190
1, 221640, Tempo, 478088
1, 221640, Note_on_c, 0, 74, 76
1, 221640, Note_on_c, 0, 62, 59
1, 221680, Tempo, 480000
1, 221700, Note_on_c, 0, 62, 0
1, 221700, Note_on_c, 0, 74, 0
1, 221720, Tempo, 481928
1, 221760, Tempo, 478088
1, 221760, Note_on_c, 0, 31, 80
1, 221760, Note_on_c, 0, 43, 95
1, 221771, Control_c, 0, 64, 127
1, 221880, Tempo, 634921
1, 221880, Note_on_c, 0, 43, 0
1, 221880, Note_on_c, 0, 31, 0
1, 221880, Note_on_c, 0, 91, 91
1, 221880, Note_on_c, 0, 86, 76
1, 221880, Note_on_c, 0, 82, 76
1, 221880, Note_on_c, 0, 79, 76
1, 221940, Note_on_c, 0, 79, 0
1, 221940, Note_on_c, 0, 91, 0
1, 221940, Note_on_c, 0, 86, 0
1, 221940, Note_on_c, 0, 82, 0
1, 222000, Tempo, 433213
1, 222000, Note_on_c, 0, 62, 70
1, 222060, Note_on_c, 0, 62, 0
1, 222120, Note_on_c, 0, 74, 68
1, 222120, Note_on_c, 0, 62, 52
1, 222180, Note_on_c, 0, 62, 0
1, 222180, Note_on_c, 0, 74, 0
1, 222240, Tempo, 446097
1, 222240, Note_on_c, 0, 63, 78
1, 222300, Note_on_c, 0, 63, 0
1, 222360, Note_on_c, 0, 74, 74
1, 222360, Note_on_c, 0, 62, 57
1, 222420, Note_on_c, 0, 62, 0
1, 222420, Note_on_c, 0, 74, 0
1, 222480, Tempo, 454545
1, 222480, Note_on_c, 0, 60, 67
1, 222540, Note_on_c, 0, 60, 0
1, 222600, Note_on_c, 0, 74, 70
1, 222600, Note_on_c, 0, 62, 54
1, 222660, Note_on_c, 0, 62, 0
1, 222660, Note_on_c, 0, 74, 0
1, 222720, Tempo, 454545
1, 222720, Note_on_c, 0, 62, 72
1, 222780, Note_on_c, 0, 62, 0
1, 222840, Note_on_c, 0, 74, 65
1, 222840, Note_on_c, 0, 62, 50
1, 222900, Note_on_c, 0, 62, 0
1, 222900, Note_on_c, 0, 74, 0
1, 222960, Note_on_c, 0, 58, 67
1, 223020, Note_on_c, 0, 58, 0
1, 223080, Note_on_c, 0, 74, 60
1, 223080, Note_on_c, 0, 62, 47
1, 223140, Note_on_c, 0, 62, 0
1, 223140, Note_on_c, 0, 74, 0
1, 223200, Tempo, 466926
1, 223200, Control_c, 0, 64, 0
1, 223200, Note_on_c, 0, 31, 79
1, 223200, Note_on_c, 0, 43, 94
1, 223256, Control_c, 0, 64, 127
1, 223320, Tempo, 631579
1, 223320, Note_on_c, 0, 43, 0
1, 223320, Note_on_c, 0, 31, 0
1, 223320, Note_on_c, 0, 91, 93
1, 223320, Note_on_c, 0, 86, 79
1, 223320, Note_on_c, 0, 82, 79
1, 223320, Note_on_c, 0, 79, 79
1, 223380, Note_on_c, 0, 79, 0
1, 223380, Note_on_c, 0, 91, 0
1, 223380, Note_on_c, 0, 86, 0
1, 223380, Note_on_c, 0, 82, 0
1, 223440, Tempo, 434783
1, 223440, Note_on_c, 0, 62, 70
1, 223500, Note_on_c, 0, 62, 0
1, 223560, Note_on_c, 0, 74, 68
1, 223560, Note_on_c, 0, 62, 52
1, 223620, Note_on_c, 0, 62, 0
1, 223620, Note_on_c, 0, 74, 0
1, 223680, Tempo, 447761
1, 223680, Note_on_c, 0, 63, 78
1, 223740, Note_on_c, 0, 63, 0
1, 223800, Note_on_c, 0, 74, 74
1, 223800, Note_on_c, 0, 62, 57
1, 223860, Note_on_c, 0, 62, 0
1, 223860, Note_on_c, 0, 74, 0
1, 223920, Tempo, 454545
1, 223920, Note_on_c, 0, 60, 67
1, 223980, Note_on_c, 0, 60, 0
1, 224040, Note_on_c, 0, 74, 70
1, 224040, Note_on_c, 0, 62, 54
1, 224100, Note_on_c, 0, 62, 0
1, 224100, Note_on_c, 0, 74, 0
1, 224160, Tempo, 454545
1, 224160, Note_on_c, 0, 62, 72
1, 224220, Note_on_c, 0, 62, 0
1, 224280, Note_on_c, 0, 74, 65
1, 224280, Note_on_c, 0, 62, 50
1, 224340, Note_on_c, 0, 62, 0
1, 224340, Note_on_c, 0, 74, 0
1, 224400, Note_on_c, 0, 58, 67
1, 224460, Note_on_c, 0, 58, 0
1, 224520, Note_on_c, 0, 74, 60
1, 224520, Note_on_c, 0, 62, 47
1, 224580, Note_on_c, 0, 62, 0
1, 224580, Note_on_c, 0, 74, 0
1, 224640, Tempo, 466926
1, 224640, Control_c, 0, 64, 0
1, 224640, Note_on_c, 0, 31, 79
1, 224640, Note_on_c, 0, 43, 93
1, 224696, Control_c, 0, 64, 127
1, 224760, Tempo, 628272
1, 224760, Note_on_c, 0, 43, 0
1, 224760, Note_on_c, 0, 31, 0
1, 224760, Note_on_c, 0, 91, 91
1, 224760, Note_on_c, 0, 86, 76
1, 224760, Note_on_c, 0, 82, 76
1, 224760, Note_on_c, 0, 79, 76
1, 224820, Note_on_c, 0, 79, 0
1, 224820, Note_on_c, 0, 91, 0
1, 224820, Note_on_c, 0, 86, 0
1, 224820, Note_on_c, 0, 82, 0
1, 224880, Tempo, 442804
1, 224880, Note_on_c, 0, 62, 67
1, 224940, Note_on_c, 0, 62, 0
1, 225000, Note_on_c, 0, 74, 65
1, 225000, Note_on_c, 0, 62, 50
1, 225060, Note_on_c, 0, 62, 0
1, 225060, Note_on_c, 0, 74, 0
1, 225120, Tempo, 447761
1, 225120, Note_on_c, 0, 63, 74
1, 225180, Note_on_c, 0, 63, 0
1, 225240, Note_on_c, 0, 74, 68
1, 225240, Note_on_c, 0, 62, 53
1, 225300, Note_on_c, 0, 62, 0
1, 225300, Note_on_c, 0, 74, 0
1, 225360, Tempo, 451128
1, 225360, Note_on_c, 0, 60, 73
1, 225420, Note_on_c, 0, 60, 0
1, 225480, Note_on_c, 0, 74, 67
1, 225480, Note_on_c, 0, 62, 52
1, 225540, Note_on_c, 0, 62, 0
1, 225540, Note_on_c, 0, 74, 0
1, 225600, Tempo, 454545
1, 225600, Note_on_c, 0, 62, 80
1, 225660, Note_on_c, 0, 62, 0
1, 225720, Note_on_c, 0, 74, 72
1, 225720, Note_on_c, 0, 62, 55
1, 225780, Note_on_c, 0, 62, 0
1, 225780, Note_on_c, 0, 74, 0
1, 225840, Note_on_c, 0, 58, 75
1, 225900, Note_on_c, 0, 58, 0
1, 225960, Note_on_c, 0, 74, 75
1, 225960, Note_on_c, 0, 62, 58
1, 226020, Note_on_c, 0, 62, 0
1, 226020, Note_on_c, 0, 74, 0
1, 226080, Tempo, 454545
1, 226080, Note_on_c, 0, 60, 84
1, 226088, Control_c, 0, 64, 0
1, 226140, Note_on_c, 0, 60, 0
1, 226200, Note_on_c, 0, 74, 79
1, 226200, Note_on_c, 0, 62, 61
1, 226260, Note_on_c, 0, 62, 0
1, 226260, Note_on_c, 0, 74, 0
1, 226320, Tempo, 444444
1, 226320, Note_on_c, 0, 57, 74
1, 226380, Note_on_c, 0, 57, 0
1, 226440, Note_on_c, 0, 74, 70
1, 226440, Note_on_c, 0, 62, 54
1, 226500, Note_on_c, 0, 62, 0
1, 226500, Note_on_c, 0, 74, 0
1, 226560, Note_on_c, 0, 58, 76
1, 226620, Note_on_c, 0, 58, 0
1, 226680, Note_on_c, 0, 74, 78
1, 226680, Note_on_c, 0, 62, 60
1, 226740, Note_on_c, 0, 62, 0
1, 226740, Note_on_c, 0, 74, 0
1, 226800, Tempo, 449438
1, 226800, Note_on_c, 0, 60, 69
1, 226860, Note_on_c, 0, 60, 0
1, 226880, Tempo, 449438
1, 226920, Note_on_c, 0, 74, 67
1, 226920, Note_on_c, 0, 62, 52
1, 226980, Note_on_c, 0, 62, 0
1, 226980, Note_on_c, 0, 74, 0
1, 227000, Tempo, 451128
1, 227040, Note_on_c, 0, 57, 73
1, 227080, Tempo, 452830
1, 227100, Note_on_c, 0, 57, 0
1, 227160, Tempo, 454545
1, 227160, Note_on_c, 0, 74, 71
1, 227160, Note_on_c, 0, 62, 54
1, 227220, Note_on_c, 0, 62, 0
1, 227220, Note_on_c, 0, 74, 0
1, 227240, Tempo, 456274
1, 227280, Note_on_c, 0, 58, 68
1, 227320, Tempo, 458015
1, 227340, Note_on_c, 0, 58, 0
1, 227400, Tempo, 485830
1, 227400, Note_on_c, 0, 74, 67
1, 227400, Note_on_c, 0, 62, 52
1, 227460, Note_on_c, 0, 62, 0
1, 227460, Note_on_c, 0, 74, 0
1, 227520, Tempo, 466926
1, 227520, Note_on_c, 0, 37, 81
1, 227520, Note_on_c, 0, 49, 96
1, 227569, Control_c, 0, 64, 127
1, 227640, Tempo, 705882
1, 227640, Note_on_c, 0, 49, 0
1, 227640, Note_on_c, 0, 37, 0
1, 227640, Note_on_c, 0, 91, 93
1, 227640, Note_on_c, 0, 87, 93
1, 227640, Note_on_c, 0, 82, 79
1, 227640, Note_on_c, 0, 79, 79
1, 227700, Note_on_c, 0, 79, 0
1, 227700, Note_on_c, 0, 91, 0
1, 227700, Note_on_c, 0, 87, 0
1, 227700, Note_on_c, 0, 82, 0
1, 227760, Tempo, 433213
1, 227760, Note_on_c, 0, 63, 70
1, 227820, Note_on_c, 0, 63, 0
1, 227880, Note_on_c, 0, 75, 68
1, 227880, Note_on_c, 0, 63, 52
1, 227940, Note_on_c, 0, 63, 0
1, 227940, Note_on_c, 0, 75, 0
1, 228000, Tempo, 447761
1, 228000, Note_on_c, 0, 65, 76
1, 228060, Note_on_c, 0, 65, 0
1, 228120, Note_on_c, 0, 75, 74
1, 228120, Note_on_c, 0, 63, 57
1, 228180, Note_on_c, 0, 63, 0
1, 228180, Note_on_c, 0, 75, 0
1, 228240, Tempo, 454545
1, 228240, Note_on_c, 0, 62, 67
1, 228300, Note_on_c, 0, 62, 0
1, 228360, Note_on_c, 0, 75, 70
1, 228360, Note_on_c, 0, 63, 54
1, 228420, Note_on_c, 0, 63, 0
1, 228420, Note_on_c, 0, 75, 0
1, 228480, Tempo, 454545
1, 228480, Note_on_c, 0, 63, 72
1, 228540, Note_on_c, 0, 63, 0
1, 228600, Note_on_c, 0, 75, 65
1, 228600, Note_on_c, 0, 63, 50
1, 228660, Note_on_c, 0, 63, 0
1, 228660, Note_on_c, 0, 75, 0
1, 228720, Tempo, 463320
1, 228720, Note_on_c, 0, 58, 67
1, 228780, Note_on_c, 0, 58, 0
1, 228840, Note_on_c, 0, 75, 60
1, 228840, Note_on_c, 0, 63, 47
1, 228900, Note_on_c, 0, 63, 0
1, 228900, Note_on_c, 0, 75, 0
1, 228960, Tempo, 466926
1, 228960, Control_c, 0, 64, 0
1, 228960, Note_on_c, 0, 37, 79
1, 228960, Note_on_c, 0, 49, 94
1, 229016, Control_c, 0, 64, 127
1, 229080, Tempo, 701754
1, 229080, Note_on_c, 0, 49, 0
1, 229080, Note_on_c, 0, 37, 0
1, 229080, Note_on_c, 0, 91, 93
1, 229080, Note_on_c, 0, 87, 93
1, 229080, Note_on_c, 0, 82, 79
1, 229080, Note_on_c, 0, 79, 79
1, 229140, Note_on_c, 0, 79, 0
1, 229140, Note_on_c, 0, 91, 0
1, 229140, Note_on_c, 0, 87, 0
1, 229140, Note_on_c, 0, 82, 0
1, 229200, Tempo, 433213
1, 229200, Note_on_c, 0, 63, 70
1, 229260, Note_on_c, 0, 63, 0
1, 229320, Note_on_c, 0, 75, 68
1, 229320, Note_on_c, 0, 63, 52
1, 229380, Note_on_c, 0, 63, 0
1, 229380, Note_on_c, 0, 75, 0
1, 229440, Tempo, 447761
1, 229440, Note_on_c, 0, 65, 77
1, 229500, Note_on_c, 0, 65, 0
1, 229560, Note_on_c, 0, 75, 74
1, 229560, Note_on_c, 0, 63, 57
1, 229620, Note_on_c, 0, 63, 0
1, 229620, Note_on_c, 0, 75, 0
1, 229680, Tempo, 454545
1, 229680, Note_on_c, 0, 62, 67
1, 229740, Note_on_c, 0, 62, 0
1, 229800, Note_on_c, 0, 75, 70
1, 229800, Note_on_c, 0, 63, 54
1, 229860, Note_on_c, 0, 63, 0
1, 229860, Note_on_c, 0, 75, 0
1, 229920, Tempo, 454545
1, 229920, Note_on_c, 0, 63, 72
1, 229980, Note_on_c, 0, 63, 0
1, 230040, Note_on_c, 0, 75, 65
1, 230040, Note_on_c, 0, 63, 50
1, 230100, Note_on_c, 0, 63, 0
1, 230100, Note_on_c, 0, 75, 0
1, 230160, Tempo, 468750
1, 230160, Note_on_c, 0, 58, 67
1, 230220, Note_on_c, 0, 58, 0
1, 230280, Note_on_c, 0, 75, 60
1, 230280, Note_on_c, 0, 63, 47
1, 230340, Note_on_c, 0, 63, 0
1, 230340, Note_on_c, 0, 75, 0
1, 230400, Tempo, 466926
1, 230400, Control_c, 0, 64, 0
1, 230400, Note_on_c, 0, 37, 80
1, 230400, Note_on_c, 0, 49, 95
1, 230449, Control_c, 0, 64, 127
1, 230520, Tempo, 693642
1, 230520, Note_on_c, 0, 49, 0
1, 230520, Note_on_c, 0, 37, 0
1, 230520, Note_on_c, 0, 91, 93
1, 230520, Note_on_c, 0, 87, 93
1, 230520, Note_on_c, 0, 82, 79
1, 230520, Note_on_c, 0, 79, 79
1, 230580, Note_on_c, 0, 79, 0
1, 230580, Note_on_c, 0, 91, 0
1, 230580, Note_on_c, 0, 87, 0
1, 230580, Note_on_c, 0, 82, 0
1, 230640, Tempo, 442804
1, 230640, Note_on_c, 0, 63, 67
1, 230700, Note_on_c, 0, 63, 0
1, 230760, Note_on_c, 0, 75, 65
1, 230760, Note_on_c, 0, 63, 50
1, 230820, Note_on_c, 0, 63, 0
1, 230820, Note_on_c, 0, 75, 0
1, 230880, Tempo, 447761
1, 230880, Note_on_c, 0, 65, 75
1, 230940, Note_on_c, 0, 65, 0
1, 231000, Note_on_c, 0, 75, 71
1, 231000, Note_on_c, 0, 63, 55
1, 231060, Note_on_c, 0, 63, 0
1, 231060, Note_on_c, 0, 75, 0
1, 231120, Tempo, 454545
1, 231120, Note_on_c, 0, 62, 64
1, 231180, Note_on_c, 0, 62, 0
1, 231240, Note_on_c, 0, 75, 67
1, 231240, Note_on_c, 0, 63, 52
1, 231300, Note_on_c, 0, 63, 0
1, 231300, Note_on_c, 0, 75, 0
1, 231360, Tempo, 454545
1, 231360, Note_on_c, 0, 63, 69
1, 231420, Note_on_c, 0, 63, 0
1, 231480, Note_on_c, 0, 75, 62
1, 231480, Note_on_c, 0, 63, 48
1, 231540, Note_on_c, 0, 63, 0
1, 231540, Note_on_c, 0, 75, 0
1, 231600, Note_on_c, 0, 58, 64
1, 231660, Note_on_c, 0, 58, 0
1, 231720, Note_on_c, 0, 75, 58
1, 231720, Note_on_c, 0, 63, 45
1, 231780, Note_on_c, 0, 63, 0
1, 231780, Note_on_c, 0, 75, 0
1, 231840, Tempo, 454545
1, 231840, Note_on_c, 0, 60, 84
1, 231852, Control_c, 0, 64, 0
1, 231900, Note_on_c, 0, 60, 0
1, 231960, Note_on_c, 0, 75, 70
1, 231960, Note_on_c, 0, 63, 54
1, 232020, Note_on_c, 0, 63, 0
1, 232020, Note_on_c, 0, 75, 0
1, 232080, Tempo, 444444
1, 232080, Note_on_c, 0, 57, 70
1, 232140, Note_on_c, 0, 57, 0
1, 232200, Note_on_c, 0, 75, 69
1, 232200, Note_on_c, 0, 63, 54
1, 232260, Note_on_c, 0, 63, 0
1, 232260, Note_on_c, 0, 75, 0
1, 232320, Note_on_c, 0, 58, 72
1, 232380, Note_on_c, 0, 58, 0
1, 232440, Note_on_c, 0, 75, 71
1, 232440, Note_on_c, 0, 63, 55
1, 232500, Note_on_c, 0, 63, 0
1, 232500, Note_on_c, 0, 75, 0
1, 232560, Tempo, 449438
1, 232560, Note_on_c, 0, 60, 69
1, 232620, Note_on_c, 0, 60, 0
1, 232640, Tempo, 449438
1, 232680, Note_on_c, 0, 75, 67
1, 232680, Note_on_c, 0, 63, 52
1, 232740, Note_on_c, 0, 63, 0
1, 232740, Note_on_c, 0, 75, 0
1, 232760, Tempo, 451128
1, 232800, Note_on_c, 0, 55, 73
1, 232840, Tempo, 452830
1, 232860, Note_on_c, 0, 55, 0
1, 232920, Tempo, 454545
1, 232920, Note_on_c, 0, 75, 72
1, 232920, Note_on_c, 0, 63, 56
1, 232980, Note_on_c, 0, 63, 0
1, 232980, Note_on_c, 0, 75, 0
1, 233000, Tempo, 456274
1, 233040, Note_on_c, 0, 57, 68
1, 233080, Tempo, 458015
1, 233100, Note_on_c, 0, 57, 0
1, 233160, Tempo, 459770
1, 233160, Note_on_c, 0, 75, 67
1, 233160, Note_on_c, 0, 63, 52
1, 233220, Note_on_c, 0, 63, 0
1, 233220, Note_on_c, 0, 75, 0
1, 233240, Tempo, 461538
1, 233280, Tempo, 466926
1, 233280, Note_on_c, 0, 38, 78
1, 233280, Note_on_c, 0, 50, 92
1, 233323, Control_c, 0, 64, 127
1, 233400, Tempo, 718563
1, 233400, Note_on_c, 0, 50, 0
1, 233400, Note_on_c, 0, 38, 0
1, 233400, Note_on_c, 0, 98, 102
1, 233400, Note_on_c, 0, 93, 86
1, 233400, Note_on_c, 0, 90, 86
1, 233400, Note_on_c, 0, 86, 86
1, 233460, Note_on_c, 0, 86, 0
1, 233460, Note_on_c, 0, 98, 0
1, 233460, Note_on_c, 0, 93, 0
1, 233460, Note_on_c, 0, 90, 0
1, 233520, Tempo, 431655
1, 233520, Note_on_c, 0, 62, 73
1, 233580, Note_on_c, 0, 62, 0
1, 233640, Note_on_c, 0, 74, 71
1, 233640, Note_on_c, 0, 62, 55
1, 233700, Note_on_c, 0, 62, 0
1, 233700, Note_on_c, 0, 74, 0
1, 233760, Tempo, 446097
1, 233760, Note_on_c, 0, 63, 82
1, 233820, Note_on_c, 0, 63, 0
1, 233880, Note_on_c, 0, 74, 75
1, 233880, Note_on_c, 0, 62, 58
1, 233940, Note_on_c, 0, 62, 0
1, 233940, Note_on_c, 0, 74, 0
1, 234000, Tempo, 454545
1, 234000, Note_on_c, 0, 61, 70
1, 234060, Note_on_c, 0, 61, 0
1, 234120, Note_on_c, 0, 74, 73
1, 234120, Note_on_c, 0, 62, 57
1, 234180, Note_on_c, 0, 62, 0
1, 234180, Note_on_c, 0, 74, 0
1, 234240, Tempo, 454545
1, 234240, Note_on_c, 0, 62, 75
1, 234300, Note_on_c, 0, 62, 0
1, 234360, Note_on_c, 0, 74, 68
1, 234360, Note_on_c, 0, 62, 52
1, 234420, Note_on_c, 0, 62, 0
1, 234420, Note_on_c, 0, 74, 0
1, 234480, Note_on_c, 0, 57, 70
1, 234540, Note_on_c, 0, 57, 0
1, 234600, Tempo, 483871
1, 234600, Note_on_c, 0, 74, 63
1, 234600, Note_on_c, 0, 62, 49
1, 234660, Note_on_c, 0, 62, 0
1, 234660, Note_on_c, 0, 74, 0
1, 234720, Tempo, 466926
1, 234720, Note_on_c, 0, 37, 79
1, 234720, Note_on_c, 0, 49, 94
1, 234724, Control_c, 0, 64, 0
1, 234773, Control_c, 0, 64, 127
1, 234840, Tempo, 718563
1, 234840, Note_on_c, 0, 49, 0
1, 234840, Note_on_c, 0, 37, 0
1, 234840, Note_on_c, 0, 99, 102
1, 234840, Note_on_c, 0, 94, 86
1, 234840, Note_on_c, 0, 91, 86
1, 234840, Note_on_c, 0, 87, 86
1, 234900, Note_on_c, 0, 87, 0
1, 234900, Note_on_c, 0, 99, 0
1, 234900, Note_on_c, 0, 94, 0
1, 234900, Note_on_c, 0, 91, 0
1, 234960, Tempo, 431655
1, 234960, Note_on_c, 0, 63, 73
1, 235020, Note_on_c, 0, 63, 0
1, 235080, Note_on_c, 0, 75, 71
1, 235080, Note_on_c, 0, 63, 55
1, 235140, Note_on_c, 0, 63, 0
1, 235140, Note_on_c, 0, 75, 0
1, 235200, Tempo, 447761
1, 235200, Note_on_c, 0, 65, 78
1, 235260, Note_on_c, 0, 65, 0
1, 235320, Note_on_c, 0, 75, 78
1, 235320, Note_on_c, 0, 63, 60
1, 235380, Note_on_c, 0, 63, 0
1, 235380, Note_on_c, 0, 75, 0
1, 235440, Tempo, 454545
1, 235440, Note_on_c, 0, 62, 70
1, 235500, Note_on_c, 0, 62, 0
1, 235560, Note_on_c, 0, 75, 73
1, 235560, Note_on_c, 0, 63, 57
1, 235620, Note_on_c, 0, 63, 0
1, 235620, Note_on_c, 0, 75, 0
1, 235680, Tempo, 454545
1, 235680, Note_on_c, 0, 63, 75
1, 235740, Note_on_c, 0, 63, 0
1, 235800, Note_on_c, 0, 75, 68
1, 235800, Note_on_c, 0, 63, 52
1, 235860, Note_on_c, 0, 63, 0
1, 235860, Note_on_c, 0, 75, 0
1, 235920, Note_on_c, 0, 58, 70
1, 235980, Note_on_c, 0, 58, 0
1, 236040, Tempo, 470588
1, 236040, Note_on_c, 0, 75, 63
1, 236040, Note_on_c, 0, 63, 49
1, 236100, Note_on_c, 0, 63, 0
1, 236100, Note_on_c, 0, 75, 0
1, 236160, Tempo, 466926
1, 236160, Note_on_c, 0, 38, 75
1, 236160, Note_on_c, 0, 50, 89
1, 236169, Control_c, 0, 64, 0
1, 236209, Control_c, 0, 64, 127
1, 236280, Tempo, 710059
1, 236280, Note_on_c, 0, 50, 0
1, 236280, Note_on_c, 0, 38, 0
1, 236280, Note_on_c, 0, 98, 103
1, 236280, Note_on_c, 0, 93, 87
1, 236280, Note_on_c, 0, 90, 87
1, 236280, Note_on_c, 0, 86, 87
1, 236340, Note_on_c, 0, 86, 0
1, 236340, Note_on_c, 0, 98, 0
1, 236340, Note_on_c, 0, 93, 0
1, 236340, Note_on_c, 0, 90, 0
1, 236400, Tempo, 431655
1, 236400, Note_on_c, 0, 62, 73
1, 236460, Note_on_c, 0, 62, 0
1, 236520, Note_on_c, 0, 74, 71
1, 236520, Note_on_c, 0, 62, 55
1, 236580, Note_on_c, 0, 62, 0
1, 236580, Note_on_c, 0, 74, 0
1, 236640, Tempo, 446097
1, 236640, Note_on_c, 0, 63, 78
1, 236700, Note_on_c, 0, 63, 0
1, 236760, Note_on_c, 0, 74, 75
1, 236760, Note_on_c, 0, 62, 58
1, 236820, Note_on_c, 0, 62, 0
1, 236820, Note_on_c, 0, 74, 0
1, 236880, Tempo, 454545
1, 236880, Note_on_c, 0, 61, 70
1, 236940, Note_on_c, 0, 61, 0
1, 237000, Note_on_c, 0, 74, 73
1, 237000, Note_on_c, 0, 62, 57
1, 237060, Note_on_c, 0, 62, 0
1, 237060, Note_on_c, 0, 74, 0
1, 237120, Tempo, 454545
1, 237120, Note_on_c, 0, 62, 75
1, 237180, Note_on_c, 0, 62, 0
1, 237240, Note_on_c, 0, 74, 68
1, 237240, Note_on_c, 0, 62, 52
1, 237300, Note_on_c, 0, 62, 0
1, 237300, Note_on_c, 0, 74, 0
1, 237360, Note_on_c, 0, 57, 70
1, 237420, Note_on_c, 0, 57, 0
1, 237480, Tempo, 476190
1, 237480, Note_on_c, 0, 74, 63
1, 237480, Note_on_c, 0, 62, 49
1, 237540, Note_on_c, 0, 62, 0
1, 237540, Note_on_c, 0, 74, 0
1, 237600, Tempo, 466926
1, 237600, Note_on_c, 0, 37, 79
1, 237600, Note_on_c, 0, 49, 94
1, 237607, Control_c, 0, 64, 0
1, 237656, Control_c, 0, 64, 127
1, 237720, Tempo, 701754
1, 237720, Note_on_c, 0, 49, 0
1, 237720, Note_on_c, 0, 37, 0
1, 237720, Note_on_c, 0, 99, 102
1, 237720, Note_on_c, 0, 94, 86
1, 237720, Note_on_c, 0, 91, 86
1, 237720, Note_on_c, 0, 87, 86
1, 237780, Note_on_c, 0, 87, 0
1, 237780, Note_on_c, 0, 99, 0
1, 237780, Note_on_c, 0, 94, 0
1, 237780, Note_on_c, 0, 91, 0
1, 237840, Tempo, 434783
1, 237840, Note_on_c, 0, 63, 73
1, 237900, Note_on_c, 0, 63, 0
1, 237960, Note_on_c, 0, 75, 71
1, 237960, Note_on_c, 0, 63, 55
1, 238020, Note_on_c, 0, 63, 0
1, 238020, Note_on_c, 0, 75, 0
1, 238080, Tempo, 447761
1, 238080, Note_on_c, 0, 65, 79
1, 238140, Note_on_c, 0, 65, 0
1, 238200, Note_on_c, 0, 75, 75
1, 238200, Note_on_c, 0, 63, 58
1, 238260, Note_on_c, 0, 63, 0
1, 238260, Note_on_c, 0, 75, 0
1, 238320, Tempo, 454545
1, 238320, Note_on_c, 0, 62, 70
1, 238380, Note_on_c, 0, 62, 0
1, 238440, Note_on_c, 0, 75, 73
1, 238440, Note_on_c, 0, 63, 57
1, 238500, Note_on_c, 0, 63, 0
1, 238500, Note_on_c, 0, 75, 0
1, 238560, Tempo, 454545
1, 238560, Note_on_c, 0, 63, 75
1, 238620, Note_on_c, 0, 63, 0
1, 238680, Note_on_c, 0, 75, 68
1, 238680, Note_on_c, 0, 63, 52
1, 238740, Note_on_c, 0, 63, 0
1, 238740, Note_on_c, 0, 75, 0
1, 238800, Note_on_c, 0, 58, 70
1, 238860, Note_on_c, 0, 58, 0
1, 238920, Note_on_c, 0, 75, 63
1, 238920, Note_on_c, 0, 63, 49
1, 238980, Note_on_c, 0, 63, 0
1, 238980, Note_on_c, 0, 75, 0
1, 239040, Tempo, 466926
1, 239040, Control_c, 0, 64, 0
1, 239040, Note_on_c, 0, 38, 75
1, 239040, Note_on_c, 0, 50, 89
1, 239089, Control_c, 0, 64, 127
1, 239160, Tempo, 727273
1, 239160, Note_on_c, 0, 50, 0
1, 239160, Note_on_c, 0, 38, 0
1, 239160, Note_on_c, 0, 98, 102
1, 239160, Note_on_c, 0, 93, 86
1, 239160, Note_on_c, 0, 90, 86
1, 239160, Note_on_c, 0, 86, 86
1, 239220, Note_on_c, 0, 86, 0
1, 239220, Note_on_c, 0, 98, 0
1, 239220, Note_on_c, 0, 93, 0
1, 239220, Note_on_c, 0, 90, 0
1, 239280, Tempo, 441176
1, 239280, Note_on_c, 0, 62, 73
1, 239340, Note_on_c, 0, 62, 0
1, 239400, Note_on_c, 0, 74, 71
1, 239400, Note_on_c, 0, 62, 55
1, 239460, Note_on_c, 0, 62, 0
1, 239460, Note_on_c, 0, 74, 0
1, 239520, Tempo, 446097
1, 239520, Note_on_c, 0, 63, 78
1, 239580, Note_on_c, 0, 63, 0
1, 239640, Note_on_c, 0, 74, 75
1, 239640, Note_on_c, 0, 62, 58
1, 239700, Note_on_c, 0, 62, 0
1, 239700, Note_on_c, 0, 74, 0
1, 239760, Tempo, 454545
1, 239760, Note_on_c, 0, 60, 70
1, 239820, Note_on_c, 0, 60, 0
1, 239880, Note_on_c, 0, 74, 73
1, 239880, Note_on_c, 0, 62, 57
1, 239940, Note_on_c, 0, 62, 0
1, 239940, Note_on_c, 0, 74, 0
1, 240000, Tempo, 454545
1, 240000, Note_on_c, 0, 62, 75
1, 240060, Note_on_c, 0, 62, 0
1, 240120, Note_on_c, 0, 74, 68
1, 240120, Note_on_c, 0, 62, 52
1, 240180, Note_on_c, 0, 62, 0
1, 240180, Note_on_c, 0, 74, 0
1, 240240, Note_on_c, 0, 58, 70
1, 240300, Note_on_c, 0, 58, 0
1, 240360, Note_on_c, 0, 74, 63
1, 240360, Note_on_c, 0, 62, 49
1, 240420, Note_on_c, 0, 62, 0
1, 240420, Note_on_c, 0, 74, 0
1, 240480, Tempo, 458015
1, 240480, Note_on_c, 0, 60, 76
1, 240483, Control_c, 0, 64, 0
1, 240600, Note_on_c, 0, 60, 0
1, 240600, Note_on_c, 0, 74, 68
1, 240600, Note_on_c, 0, 62, 53
1, 240660, Note_on_c, 0, 62, 0
1, 240660, Note_on_c, 0, 74, 0
1, 240720, Tempo, 441176
1, 240720, Note_on_c, 0, 57, 67
1, 240780, Note_on_c, 0, 57, 0
1, 240840, Note_on_c, 0, 74, 65
1, 240840, Note_on_c, 0, 62, 50
1, 240900, Note_on_c, 0, 62, 0
1, 240900, Note_on_c, 0, 74, 0
1, 240960, Tempo, 446097
1, 240960, Note_on_c, 0, 58, 70
1, 241020, Note_on_c, 0, 58, 0
1, 241080, Note_on_c, 0, 74, 66
1, 241080, Note_on_c, 0, 62, 51
1, 241140, Note_on_c, 0, 62, 0
1, 241140, Note_on_c, 0, 74, 0
1, 241200, Tempo, 454545
1, 241200, Note_on_c, 0, 60, 64
1, 241260, Note_on_c, 0, 60, 0
1, 241320, Note_on_c, 0, 74, 63
1, 241320, Note_on_c, 0, 62, 49
1, 241380, Note_on_c, 0, 62, 0
1, 241380, Note_on_c, 0, 74, 0
1, 241440, Tempo, 442804
1, 241440, Note_on_c, 0, 57, 69
1, 241500, Note_on_c, 0, 57, 0
1, 241560, Note_on_c, 0, 74, 65
1, 241560, Note_on_c, 0, 62, 50
1, 241620, Note_on_c, 0, 62, 0
1, 241620, Note_on_c, 0, 74, 0
1, 241680, Tempo, 447761
1, 241680, Note_on_c, 0, 58, 64
1, 241740, Note_on_c, 0, 58, 0
1, 241800, Note_on_c, 0, 74, 58
1, 241800, Note_on_c, 0, 62, 45
1, 241860, Note_on_c, 0, 62, 0
1, 241860, Note_on_c, 0, 74, 0
1, 241920, Tempo, 439560
1, 241920, Note_on_c, 0, 55, 76
1, 242040, Note_on_c, 0, 55, 0
1, 242040, Note_on_c, 0, 74, 68
1, 242040, Note_on_c, 0, 62, 53
1, 242100, Note_on_c, 0, 62, 0
1, 242100, Note_on_c, 0, 74, 0
1, 242160, Tempo, 447761
1, 242160, Note_on_c, 0, 57, 67
1, 242220, Note_on_c, 0, 57, 0
1, 242280, Note_on_c, 0, 74, 63
1, 242280, Note_on_c, 0, 62, 49
1, 242340, Note_on_c, 0, 62, 0
1, 242340, Note_on_c, 0, 74, 0
1, 242400, Tempo, 441176
1, 242400, Note_on_c, 0, 58, 69
1, 242460, Note_on_c, 0, 58, 0
1, 242520, Note_on_c, 0, 74, 63
1, 242520, Note_on_c, 0, 62, 49
1, 242580, Note_on_c, 0, 62, 0
1, 242580, Note_on_c, 0, 74, 0
1, 242640, Tempo, 447761
1, 242640, Note_on_c, 0, 60, 62
1, 242700, Note_on_c, 0, 60, 0
1, 242760, Note_on_c, 0, 74, 62
1, 242760, Note_on_c, 0, 62, 48
1, 242820, Note_on_c, 0, 62, 0
1, 242820, Note_on_c, 0, 74, 0
1, 242880, Tempo, 441176
1, 242880, Note_on_c, 0, 57, 66
1, 242940, Note_on_c, 0, 57, 0
1, 243000, Note_on_c, 0, 74, 62
1, 243000, Note_on_c, 0, 62, 48
1, 243060, Note_on_c, 0, 62, 0
1, 243060, Note_on_c, 0, 74, 0
1, 243120, Tempo, 442804
1, 243120, Note_on_c, 0, 58, 61
1, 243180, Note_on_c, 0, 58, 0
1, 243240, Note_on_c, 0, 74, 55
1, 243240, Note_on_c, 0, 62, 43
1, 243300, Note_on_c, 0, 62, 0
1, 243300, Note_on_c, 0, 74, 0
1, 243360, Tempo, 437956
1, 243360, Note_on_c, 0, 55, 72
1, 243480, Note_on_c, 0, 55, 0
1, 243480, Note_on_c, 0, 62, 49
1, 243480, Note_on_c, 0, 74, 63
1, 243540, Note_on_c, 0, 74, 0
1, 243540, Note_on_c, 0, 62, 0
1, 243600, Tempo, 449438
1, 243600, Note_on_c, 0, 57, 62
1, 243660, Note_on_c, 0, 57, 0
1, 243720, Note_on_c, 0, 74, 59
1, 243720, Note_on_c, 0, 62, 46
1, 243780, Note_on_c, 0, 62, 0
1, 243780, Note_on_c, 0, 74, 0
1, 243840, Tempo, 451128
1, 243840, Note_on_c, 0, 58, 64
1, 243900, Note_on_c, 0, 58, 0
1, 243960, Tempo, 452830
1, 243960, Note_on_c, 0, 74, 59
1, 243960, Note_on_c, 0, 62, 46
1, 244020, Note_on_c, 0, 62, 0
1, 244020, Note_on_c, 0, 74, 0
1, 244040, Tempo, 454545
1, 244080, Note_on_c, 0, 55, 57
1, 244120, Tempo, 456274
1, 244140, Note_on_c, 0, 55, 0
1, 244200, Tempo, 458015
1, 244200, Note_on_c, 0, 74, 55
1, 244200, Note_on_c, 0, 62, 43
1, 244260, Note_on_c, 0, 62, 0
1, 244260, Note_on_c, 0, 74, 0
1, 244280, Tempo, 459770
1, 244320, Note_on_c, 0, 53, 60
1, 244360, Tempo, 461538
1, 244380, Note_on_c, 0, 53, 0
1, 244440, Tempo, 463320
1, 244440, Note_on_c, 0, 74, 57
1, 244440, Note_on_c, 0, 62, 44
1, 244500, Note_on_c, 0, 62, 0
1, 244500, Note_on_c, 0, 74, 0
1, 244520, Tempo, 465116
1, 244560, Note_on_c, 0, 51, 55
1, 244600, Tempo, 466926
1, 244620, Note_on_c, 0, 51, 0
1, 244680, Note_on_c, 0, 74, 49
1, 244680, Note_on_c, 0, 62, 38
1, 244740, Note_on_c, 0, 62, 0
1, 244740, Note_on_c, 0, 74, 0
1, 244800, Tempo, 466926
1, 244800, Note_on_c, 0, 38, 63
1, 244800, Note_on_c, 0, 50, 74
1, 244849, Control_c, 0, 64, 127
1, 244920, Note_on_c, 0, 50, 0
1, 244920, Note_on_c, 0, 38, 0
1, 244920, Note_on_c, 0, 74, 75
1, 244920, Note_on_c, 0, 62, 58
1, 244957, Control_c, 0, 64, 0
1, 244980, Note_on_c, 0, 62, 0
1, 244980, Note_on_c, 0, 74, 0
1, 245040, Tempo, 441176
1, 245040, Note_on_c, 0, 62, 56
1, 245100, Note_on_c, 0, 62, 0
1, 245160, Note_on_c, 0, 62, 42
1, 245220, Note_on_c, 0, 62, 0
1, 245280, Tempo, 446097
1, 245280, Note_on_c, 0, 63, 61
1, 245340, Note_on_c, 0, 63, 0
1, 245400, Note_on_c, 0, 62, 46
1, 245460, Note_on_c, 0, 62, 0
1, 245520, Tempo, 454545
1, 245520, Note_on_c, 0, 60, 54
1, 245580, Note_on_c, 0, 60, 0
1, 245640, Note_on_c, 0, 62, 44
1, 245700, Note_on_c, 0, 62, 0
1, 245760, Tempo, 454545
1, 245760, Note_on_c, 0, 62, 58
1, 245820, Note_on_c, 0, 62, 0
1, 245880, Note_on_c, 0, 62, 40
1, 245940, Note_on_c, 0, 62, 0
1, 246000, Note_on_c, 0, 58, 54
1, 246060, Note_on_c, 0, 58, 0
1, 246120, Note_on_c, 0, 62, 38
1, 246180, Note_on_c, 0, 62, 0
1, 246240, Tempo, 458015
1, 246240, Note_on_c, 0, 60, 64
1, 246360, Note_on_c, 0, 60, 0
1, 246360, Note_on_c, 0, 62, 45
1, 246420, Note_on_c, 0, 62, 0
1, 246480, Tempo, 441176
1, 246480, Note_on_c, 0, 57, 56
1, 246540, Note_on_c, 0, 57, 0
1, 246600, Note_on_c, 0, 62, 42
1, 246660, Note_on_c, 0, 62, 0
1, 246720, Tempo, 446097
1, 246720, Note_on_c, 0, 58, 59
1, 246780, Note_on_c, 0, 58, 0
1, 246840, Note_on_c, 0, 62, 43
1, 246900, Note_on_c, 0, 62, 0
1, 246960, Tempo, 454545
1, 246960, Note_on_c, 0, 60, 54
1, 247020, Note_on_c, 0, 60, 0
1, 247080, Note_on_c, 0, 62, 41
1, 247140, Note_on_c, 0, 62, 0
1, 247200, Tempo, 442804
1, 247200, Note_on_c, 0, 57, 58
1, 247260, Note_on_c, 0, 57, 0
1, 247320, Note_on_c, 0, 62, 42
1, 247380, Note_on_c, 0, 62, 0
1, 247440, Tempo, 447761
1, 247440, Note_on_c, 0, 58, 54
1, 247500, Note_on_c, 0, 58, 0
1, 247560, Note_on_c, 0, 62, 38
1, 247620, Note_on_c, 0, 62, 0
1, 247680, Tempo, 439560
1, 247680, Note_on_c, 0, 55, 64
1, 247800, Note_on_c, 0, 55, 0
1, 247800, Note_on_c, 0, 62, 45
1, 247860, Note_on_c, 0, 62, 0
1, 247920, Tempo, 447761
1, 247920, Note_on_c, 0, 57, 56
1, 247980, Note_on_c, 0, 57, 0
1, 248040, Note_on_c, 0, 62, 41
1, 248100, Note_on_c, 0, 62, 0
1, 248160, Tempo, 441176
1, 248160, Note_on_c, 0, 58, 58
1, 248220, Note_on_c, 0, 58, 0
1, 248280, Note_on_c, 0, 62, 41
1, 248340, Note_on_c, 0, 62, 0
1, 248400, Tempo, 447761
1, 248400, Note_on_c, 0, 60, 52
1, 248460, Note_on_c, 0, 60, 0
1, 248520, Note_on_c, 0, 62, 40
1, 248580, Note_on_c, 0, 62, 0
1, 248640, Tempo, 441176
1, 248640, Note_on_c, 0, 57, 56
1, 248700, Note_on_c, 0, 57, 0
1, 248760, Note_on_c, 0, 62, 40
1, 248820, Note_on_c, 0, 62, 0
1, 248880, Tempo, 442804
1, 248880, Note_on_c, 0, 58, 51
1, 248940, Note_on_c, 0, 58, 0
1, 249000, Note_on_c, 0, 62, 36
1, 249060, Note_on_c, 0, 62, 0
1, 249120, Tempo, 437956
1, 249120, Note_on_c, 0, 55, 61
1, 249240, Note_on_c, 0, 55, 0
1, 249240, Note_on_c, 0, 62, 41
1, 249300, Note_on_c, 0, 62, 0
1, 249360, Tempo, 449438
1, 249360, Note_on_c, 0, 57, 52
1, 249420, Note_on_c, 0, 57, 0
1, 249480, Note_on_c, 0, 62, 39
1, 249540, Note_on_c, 0, 62, 0
1, 249600, Tempo, 451128
1, 249600, Note_on_c, 0, 58, 54
1, 249640, Tempo, 452830
1, 249660, Note_on_c, 0, 58, 0
1, 249680, Tempo, 454545
1, 249720, Tempo, 456274
1, 249720, Note_on_c, 0, 62, 39
1, 249760, Tempo, 458015
1, 249780, Note_on_c, 0, 62, 0
1, 249800, Tempo, 459770
1, 249840, Tempo, 461538
1, 249840, Note_on_c, 0, 55, 48
1, 249880, Tempo, 463320
1, 249900, Note_on_c, 0, 55, 0
1, 249920, Tempo, 465116
1, 249960, Tempo, 466926
1, 249960, Note_on_c, 0, 62, 36
1, 250000, Tempo, 468750
1, 250020, Note_on_c, 0, 62, 0
1, 250040, Tempo, 470588
1, 250080, Tempo, 472441
1, 250080, Note_on_c, 0, 53, 51
1, 250120, Tempo, 474308
1, 250140, Note_on_c, 0, 53, 0
1, 250160, Tempo, 476190
1, 250200, Tempo, 478088
1, 250200, Note_on_c, 0, 62, 37
1, 250240, Tempo, 480000
1, 250260, Note_on_c, 0, 62, 0
1, 250280, Tempo, 481928
1, 250320, Tempo, 485830
1, 250320, Note_on_c, 0, 51, 46
1, 250360, Tempo, 466926
1, 250380, Note_on_c, 0, 51, 0
1, 250440, Note_on_c, 0, 62, 32
1, 250500, Note_on_c, 0, 62, 0
1, 250560, Tempo, 466926
1, 250560, Note_on_c, 0, 38, 45
1, 250562, Control_c, 0, 64, 0
1, 250591, Control_c, 0, 64, 127
1, 250680, Note_on_c, 0, 54, 36
1, 250680, Note_on_c, 0, 57, 36
1, 250740, Note_on_c, 0, 57, 0
1, 250740, Note_on_c, 0, 54, 0
1, 250800, Tempo, 444444
1, 250800, Note_on_c, 0, 45, 45
1, 250860, Note_on_c, 0, 45, 0
1, 250920, Note_on_c, 0, 54, 31
1, 250920, Note_on_c, 0, 57, 31
1, 250980, Note_on_c, 0, 57, 0
1, 250980, Note_on_c, 0, 54, 0
1, 251040, Tempo, 446097
1, 251040, Note_on_c, 0, 50, 42
1, 251057, Control_c, 0, 64, 0
1, 251079, Control_c, 0, 64, 127
1, 251100, Note_on_c, 0, 50, 0
1, 251160, Note_on_c, 0, 54, 34
1, 251160, Note_on_c, 0, 57, 34
1, 251220, Note_on_c, 0, 57, 0
1, 251220, Note_on_c, 0, 54, 0
1, 251280, Tempo, 454545
1, 251280, Note_on_c, 0, 51, 49
1, 251340, Note_on_c, 0, 51, 0
1, 251400, Note_on_c, 0, 54, 33
1, 251400, Note_on_c, 0, 57, 33
1, 251460, Note_on_c, 0, 57, 0
1, 251460, Note_on_c, 0, 54, 0
1, 251520, Tempo, 446097
1, 251520, Note_on_c, 0, 49, 54
1, 251534, Control_c, 0, 64, 0
1, 251557, Control_c, 0, 64, 127
1, 251560, Tempo, 439560
1, 251580, Note_on_c, 0, 49, 0
1, 251640, Note_on_c, 0, 54, 35
1, 251640, Note_on_c, 0, 57, 35
1, 251700, Note_on_c, 0, 57, 0
1, 251700, Note_on_c, 0, 54, 0
1, 251760, Tempo, 444444
1, 251760, Note_on_c, 0, 50, 51
1, 251820, Note_on_c, 0, 50, 0
1, 251880, Note_on_c, 0, 54, 34
1, 251880, Note_on_c, 0, 57, 34
1, 251940, Note_on_c, 0, 57, 0
1, 251940, Note_on_c, 0, 54, 0
1, 252000, Tempo, 454545
1, 252000, Note_on_c, 0, 38, 0
1, 252000, Note_on_c, 0, 38, 56
1, 252006, Control_c, 0, 64, 0
1, 252049, Control_c, 0, 64, 127
1, 252120, Note_on_c, 0, 55, 36
1, 252120, Note_on_c, 0, 58, 36
1, 252180, Note_on_c, 0, 58, 0
1, 252180, Note_on_c, 0, 55, 0
1, 252240, Tempo, 481928
1, 252240, Note_on_c, 0, 45, 49
1, 252300, Note_on_c, 0, 45, 0
1, 252360, Note_on_c, 0, 55, 31
1, 252360, Note_on_c, 0, 58, 31
1, 252420, Note_on_c, 0, 58, 0
1, 252420, Note_on_c, 0, 55, 0
1, 252480, Tempo, 446097
1, 252480, Note_on_c, 0, 55, 56
1, 252501, Control_c, 0, 64, 0
1, 252540, Note_on_c, 0, 55, 0
1, 252544, Control_c, 0, 64, 127
1, 252600, Note_on_c, 0, 55, 34
1, 252600, Note_on_c, 0, 58, 34
1, 252660, Note_on_c, 0, 58, 0
1, 252660, Note_on_c, 0, 55, 0
1, 252720, Tempo, 454545
1, 252720, Note_on_c, 0, 53, 46
1, 252780, Note_on_c, 0, 53, 0
1, 252840, Note_on_c, 0, 55, 29
1, 252840, Note_on_c, 0, 58, 29
1, 252900, Note_on_c, 0, 58, 0
1, 252900, Note_on_c, 0, 55, 0
1, 252960, Tempo, 454545
1, 252960, Note_on_c, 0, 50, 49
1, 252971, Control_c, 0, 64, 0
1, 253010, Control_c, 0, 64, 127
1, 253020, Note_on_c, 0, 50, 0
1, 253080, Note_on_c, 0, 55, 34
1, 253080, Note_on_c, 0, 58, 34
1, 253140, Note_on_c, 0, 58, 0
1, 253140, Note_on_c, 0, 55, 0
1, 253200, Note_on_c, 0, 51, 46
1, 253260, Note_on_c, 0, 51, 0
1, 253320, Note_on_c, 0, 55, 31
1, 253320, Note_on_c, 0, 58, 31
1, 253380, Note_on_c, 0, 58, 0
1, 253380, Note_on_c, 0, 55, 0
1, 253440, Tempo, 466926
1, 253440, Note_on_c, 0, 38, 0
1, 253440, Note_on_c, 0, 38, 45
1, 253445, Control_c, 0, 64, 0
1, 253489, Control_c, 0, 64, 127
1, 253560, Note_on_c, 0, 54, 36
1, 253560, Note_on_c, 0, 57, 36
1, 253620, Note_on_c, 0, 57, 0
1, 253620, Note_on_c, 0, 54, 0
1, 253680, Tempo, 441176
1, 253680, Note_on_c, 0, 45, 45
1, 253740, Note_on_c, 0, 45, 0
1, 253800, Note_on_c, 0, 54, 31
1, 253800, Note_on_c, 0, 57, 31
1, 253860, Note_on_c, 0, 57, 0
1, 253860, Note_on_c, 0, 54, 0
1, 253920, Tempo, 446097
1, 253920, Note_on_c, 0, 50, 42
1, 253933, Control_c, 0, 64, 0
1, 253963, Control_c, 0, 64, 127
1, 253980, Note_on_c, 0, 50, 0
1, 254040, Note_on_c, 0, 54, 34
1, 254040, Note_on_c, 0, 57, 34
1, 254100, Note_on_c, 0, 57, 0
1, 254100, Note_on_c, 0, 54, 0
1, 254160, Tempo, 454545
1, 254160, Note_on_c, 0, 51, 47
1, 254220, Note_on_c, 0, 51, 0
1, 254280, Note_on_c, 0, 54, 33
1, 254280, Note_on_c, 0, 57, 33
1, 254340, Note_on_c, 0, 57, 0
1, 254340, Note_on_c, 0, 54, 0
1, 254400, Tempo, 441176
1, 254400, Note_on_c, 0, 49, 52
1, 254411, Control_c, 0, 64, 0
1, 254437, Control_c, 0, 64, 127
1, 254460, Note_on_c, 0, 49, 0
1, 254520, Note_on_c, 0, 54, 35
1, 254520, Note_on_c, 0, 57, 35
1, 254580, Note_on_c, 0, 57, 0
1, 254580, Note_on_c, 0, 54, 0
1, 254640, Tempo, 447761
1, 254640, Note_on_c, 0, 50, 49
1, 254700, Note_on_c, 0, 50, 0
1, 254760, Note_on_c, 0, 54, 34
1, 254760, Note_on_c, 0, 57, 34
1, 254820, Note_on_c, 0, 57, 0
1, 254820, Note_on_c, 0, 54, 0
1, 254880, Tempo, 452830
1, 254880, Note_on_c, 0, 38, 0
1, 254880, Note_on_c, 0, 38, 54
1, 254884, Control_c, 0, 64, 0
1, 254915, Control_c, 0, 64, 127
1, 255000, Note_on_c, 0, 55, 36
1, 255000, Note_on_c, 0, 58, 36
1, 255060, Note_on_c, 0, 58, 0
1, 255060, Note_on_c, 0, 55, 0
1, 255120, Tempo, 441176
1, 255120, Note_on_c, 0, 45, 46
1, 255180, Note_on_c, 0, 45, 0
1, 255240, Note_on_c, 0, 55, 31
1, 255240, Note_on_c, 0, 58, 31
1, 255300, Note_on_c, 0, 58, 0
1, 255300, Note_on_c, 0, 55, 0
1, 255360, Tempo, 446097
1, 255360, Note_on_c, 0, 51, 48
1, 255378, Control_c, 0, 64, 0
1, 255409, Control_c, 0, 64, 127
1, 255420, Note_on_c, 0, 51, 0
1, 255480, Note_on_c, 0, 55, 34
1, 255480, Note_on_c, 0, 58, 34
1, 255540, Note_on_c, 0, 58, 0
1, 255540, Note_on_c, 0, 55, 0
1, 255600, Tempo, 454545
1, 255600, Note_on_c, 0, 53, 45
1, 255660, Note_on_c, 0, 53, 0
1, 255720, Note_on_c, 0, 55, 29
1, 255720, Note_on_c, 0, 58, 29
1, 255780, Note_on_c, 0, 58, 0
1, 255780, Note_on_c, 0, 55, 0
1, 255840, Tempo, 446097
1, 255840, Note_on_c, 0, 50, 47
1, 255856, Control_c, 0, 64, 0
1, 255890, Control_c, 0, 64, 127
1, 255900, Note_on_c, 0, 50, 0
1, 255960, Note_on_c, 0, 55, 34
1, 255960, Note_on_c, 0, 58, 34
1, 256020, Note_on_c, 0, 58, 0
1, 256020, Note_on_c, 0, 55, 0
1, 256080, Tempo, 451128
1, 256080, Note_on_c, 0, 51, 44
1, 256140, Note_on_c, 0, 51, 0
1, 256200, Note_on_c, 0, 55, 31
1, 256200, Note_on_c, 0, 58, 31
1, 256260, Note_on_c, 0, 58, 0
1, 256260, Note_on_c, 0, 55, 0
1, 256320, Tempo, 466926
1, 256320, Note_on_c, 0, 38, 0
1, 256320, Control_c, 0, 64, 0
1, 256320, Note_on_c, 0, 38, 45
1, 256366, Control_c, 0, 64, 127
1, 256440, Note_on_c, 0, 54, 36
1, 256440, Note_on_c, 0, 57, 36
1, 256500, Note_on_c, 0, 57, 0
1, 256500, Note_on_c, 0, 54, 0
1, 256560, Tempo, 441176
1, 256560, Note_on_c, 0, 45, 45
1, 256620, Note_on_c, 0, 45, 0
1, 256680, Note_on_c, 0, 54, 31
1, 256680, Note_on_c, 0, 57, 31
1, 256740, Note_on_c, 0, 57, 0
1, 256740, Note_on_c, 0, 54, 0
1, 256800, Tempo, 446097
1, 256800, Note_on_c, 0, 50, 42
1, 256819, Control_c, 0, 64, 0
1, 256839, Control_c, 0, 64, 127
1, 256860, Note_on_c, 0, 50, 0
1, 256920, Note_on_c, 0, 54, 34
1, 256920, Note_on_c, 0, 57, 34
1, 256980, Note_on_c, 0, 57, 0
1, 256980, Note_on_c, 0, 54, 0
1, 257040, Tempo, 454545
1, 257040, Note_on_c, 0, 51, 47
1, 257100, Note_on_c, 0, 51, 0
1, 257160, Note_on_c, 0, 54, 33
1, 257160, Note_on_c, 0, 57, 33
1, 257220, Note_on_c, 0, 57, 0
1, 257220, Note_on_c, 0, 54, 0
1, 257280, Tempo, 444444
1, 257280, Note_on_c, 0, 49, 51
1, 257291, Control_c, 0, 64, 0
1, 257320, Control_c, 0, 64, 127
1, 257340, Note_on_c, 0, 49, 0
1, 257400, Note_on_c, 0, 54, 35
1, 257400, Note_on_c, 0, 57, 35
1, 257460, Note_on_c, 0, 57, 0
1, 257460, Note_on_c, 0, 54, 0
1, 257520, Tempo, 449438
1, 257520, Note_on_c, 0, 51, 48
1, 257580, Note_on_c, 0, 51, 0
1, 257640, Note_on_c, 0, 54, 34
1, 257640, Note_on_c, 0, 57, 34
1, 257700, Note_on_c, 0, 57, 0
1, 257700, Note_on_c, 0, 54, 0
1, 257760, Tempo, 458015
1, 257760, Note_on_c, 0, 50, 53
1, 257765, Control_c, 0, 64, 0
1, 257806, Control_c, 0, 64, 127
1, 257820, Note_on_c, 0, 50, 0
1, 257880, Note_on_c, 0, 54, 36
1, 257880, Note_on_c, 0, 57, 36
1, 257940, Note_on_c, 0, 57, 0
1, 257940, Note_on_c, 0, 54, 0
1, 258000, Tempo, 441176
1, 258000, Note_on_c, 0, 51, 46
1, 258060, Note_on_c, 0, 51, 0
1, 258120, Note_on_c, 0, 54, 31
1, 258120, Note_on_c, 0, 57, 31
1, 258180, Note_on_c, 0, 57, 0
1, 258180, Note_on_c, 0, 54, 0
1, 258240, Tempo, 446097
1, 258240, Note_on_c, 0, 49, 48
1, 258248, Control_c, 0, 64, 0
1, 258279, Control_c, 0, 64, 127
1, 258300, Note_on_c, 0, 49, 0
1, 258360, Note_on_c, 0, 54, 34
1, 258360, Note_on_c, 0, 57, 34
1, 258420, Note_on_c, 0, 57, 0
1, 258420, Note_on_c, 0, 54, 0
1, 258480, Tempo, 454545
1, 258480, Note_on_c, 0, 51, 45
1, 258540, Note_on_c, 0, 51, 0
1, 258600, Note_on_c, 0, 54, 29
1, 258600, Note_on_c, 0, 57, 29
1, 258660, Note_on_c, 0, 57, 0
1, 258660, Note_on_c, 0, 54, 0
1, 258720, Tempo, 454545
1, 258720, Note_on_c, 0, 50, 45
1, 258731, Control_c, 0, 64, 0
1, 258751, Control_c, 0, 64, 127
1, 258780, Note_on_c, 0, 50, 0
1, 258840, Note_on_c, 0, 54, 34
1, 258840, Note_on_c, 0, 57, 34
1, 258900, Note_on_c, 0, 57, 0
1, 258900, Note_on_c, 0, 54, 0
1, 258960, Note_on_c, 0, 45, 44
1, 259020, Note_on_c, 0, 45, 0
1, 259080, Note_on_c, 0, 54, 31
1, 259080, Note_on_c, 0, 57, 31
1, 259140, Note_on_c, 0, 57, 0
1, 259140, Note_on_c, 0, 54, 0
1, 259200, Note_on_c, 0, 38, 0
1, 259200, Note_on_c, 0, 38, 45
1, 259203, Control_c, 0, 64, 0
1, 259237, Control_c, 0, 64, 127
1, 259260, Note_on_c, 0, 38, 0
1, 259320, Note_on_c, 0, 54, 43
1, 259380, Note_on_c, 0, 54, 0
1, 259440, Note_on_c, 0, 54, 45
1, 259500, Note_on_c, 0, 54, 0
1, 259560, Note_on_c, 0, 57, 43
1, 259620, Note_on_c, 0, 57, 0
1, 259680, Note_on_c, 0, 57, 45
1, 259740, Note_on_c, 0, 57, 0
1, 259800, Note_on_c, 0, 62, 42
1, 259860, Note_on_c, 0, 62, 0
1, 259920, Note_on_c, 0, 62, 45
1, 259980, Note_on_c, 0, 62, 0
1, 260040, Note_on_c, 0, 66, 42
1, 260100, Note_on_c, 0, 66, 0
1, 260160, Note_on_c, 0, 66, 44
1, 260220, Note_on_c, 0, 66, 0
1, 260280, Note_on_c, 0, 69, 41
1, 260340, Note_on_c, 0, 69, 0
1, 260400, Note_on_c, 0, 69, 43
1, 260460, Note_on_c, 0, 69, 0
1, 260520, Note_on_c, 0, 74, 41
1, 260580, Note_on_c, 0, 74, 0
1, 260640, Tempo, 454545
1, 260640, Note_on_c, 0, 74, 43
1, 260700, Note_on_c, 0, 74, 0
1, 260760, Tempo, 456274
1, 260760, Note_on_c, 0, 78, 40
1, 260820, Note_on_c, 0, 78, 0
1, 260880, Tempo, 458015
1, 260880, Note_on_c, 0, 78, 42
1, 260940, Note_on_c, 0, 78, 0
1, 260960, Tempo, 459770
1, 261000, Note_on_c, 0, 81, 40
1, 261060, Note_on_c, 0, 81, 0
1, 261080, Tempo, 461538
1, 261120, Note_on_c, 0, 81, 42
1, 261160, Tempo, 463320
1, 261180, Note_on_c, 0, 81, 0
1, 261240, Note_on_c, 0, 86, 39
1, 261280, Tempo, 465116
1, 261300, Note_on_c, 0, 86, 0
1, 261360, Tempo, 466926
1, 261360, Note_on_c, 0, 86, 41
1, 261420, Note_on_c, 0, 86, 0
1, 261480, Tempo, 468750
1, 261480, Note_on_c, 0, 90, 39
1, 261540, Note_on_c, 0, 90, 0
1, 261560, Tempo, 470588
1, 261600, Note_on_c, 0, 90, 41
1, 261640, Tempo, 472441
1, 261660, Note_on_c, 0, 90, 0
1, 261680, Tempo, 474308
1, 261720, Tempo, 476190
1, 261720, Note_on_c, 0, 93, 39
1, 261780, Note_on_c, 0, 93, 0
1, 261800, Tempo, 478088
1, 261840, Tempo, 480000
1, 261840, Note_on_c, 0, 93, 40
1, 261880, Tempo, 481928
1, 261900, Note_on_c, 0, 93, 0
1, 261920, Tempo, 483871
1, 261960, Tempo, 524017
1, 261960, Note_on_c, 0, 98, 39
1, 262020, Note_on_c, 0, 98, 0
1, 262080, Note_on_c, 0, 86, 43
1, 262080, Note_on_c, 0, 90, 43
1, 262080, Note_on_c, 0, 98, 43
1, 262080, Note_on_c, 0, 81, 34
1, 262080, Note_on_c, 0, 74, 34
1, 264000, Note_on_c, 0, 74, 0
1, 264000, Note_on_c, 0, 98, 0
1, 264000, Note_on_c, 0, 86, 0
1, 264000, Note_on_c, 0, 90, 0
1, 264000, Note_on_c, 0, 81, 0
1, 264092, Control_c, 0, 64, 0
1, 264480, Tempo, 543774
1, 264480, Note_on_c, 0, 62, 45
1, 264960, Tempo, 531915
1, 264960, Note_on_c, 0, 62, 0
1, 264960, Note_on_c, 0, 55, 44
1, 264960, Note_on_c, 0, 58, 44
1, 264960, Note_on_c, 0, 67, 49
1, 264960, Note_on_c, 0, 51, 39
1, 265147, Control_c, 0, 64, 127
1, 265920, Tempo, 534236
1, 265920, Note_on_c, 0, 58, 0
1, 265920, Note_on_c, 0, 55, 0
1, 265920, Note_on_c, 0, 60, 39
1, 266400, Note_on_c, 0, 60, 0
1, 266400, Note_on_c, 0, 67, 0
1, 266400, Note_on_c, 0, 51, 0
1, 266400, Note_on_c, 0, 62, 44
1, 266400, Note_on_c, 0, 58, 38
1, 266400, Control_c, 0, 64, 0
1, 266400, Note_on_c, 0, 46, 32
1, 266400, Note_on_c, 0, 53, 36
1, 266854, Control_c, 0, 64, 127
1, 267840, Tempo, 531915
1, 267840, Note_on_c, 0, 53, 0
1, 267840, Note_on_c, 0, 62, 0
1, 267840, Note_on_c, 0, 58, 0
1, 267840, Note_on_c, 0, 46, 0
1, 267840, Note_on_c, 0, 55, 44
1, 267840, Note_on_c, 0, 63, 52
1, 267840, Control_c, 0, 64, 0
1, 267840, Note_on_c, 0, 48, 39
1, 268347, Control_c, 0, 64, 127
1, 268800, Tempo, 566572
1, 268800, Note_on_c, 0, 55, 0
1, 268800, Note_on_c, 0, 57, 43
1, 269280, Note_on_c, 0, 57, 0
1, 269280, Note_on_c, 0, 48, 0
1, 269280, Note_on_c, 0, 63, 0
1, 269280, Note_on_c, 0, 58, 44
1, 269280, Note_on_c, 0, 55, 41
1, 269280, Note_on_c, 0, 43, 32
1, 269280, Note_on_c, 0, 50, 36
1, 269291, Control_c, 0, 64, 0
1, 269573, Control_c, 0, 64, 127
1, 270720, Tempo, 517241
1, 270720, Note_on_c, 0, 50, 0
1, 270720, Note_on_c, 0, 58, 0
1, 270720, Note_on_c, 0, 55, 0
1, 270720, Note_on_c, 0, 43, 0
1, 270720, Note_on_c, 0, 63, 44
1, 270720, Note_on_c, 0, 68, 49
1, 270720, Note_on_c, 0, 60, 39
1, 270731, Control_c, 0, 64, 0
1, 271177, Control_c, 0, 64, 127
1, 271680, Tempo, 546249
1, 271680, Note_on_c, 0, 60, 0
1, 271680, Note_on_c, 0, 63, 0
1, 271680, Note_on_c, 0, 64, 46
1, 271680, Note_on_c, 0, 61, 36
1, 272160, Tempo, 522785
1, 272160, Note_on_c, 0, 61, 0
1, 272160, Note_on_c, 0, 64, 0
1, 272160, Note_on_c, 0, 68, 0
1, 272160, Note_on_c, 0, 63, 44
1, 272160, Note_on_c, 0, 68, 49
1, 272160, Note_on_c, 0, 60, 39
1, 272165, Control_c, 0, 64, 0
1, 272507, Control_c, 0, 64, 127
1, 273120, Tempo, 551167
1, 273120, Note_on_c, 0, 68, 0
1, 273120, Note_on_c, 0, 67, 43
1, 273600, Tempo, 534236
1, 273600, Note_on_c, 0, 67, 0
1, 273600, Note_on_c, 0, 60, 0
1, 273600, Note_on_c, 0, 63, 0
1, 273600, Note_on_c, 0, 63, 49
1, 273600, Note_on_c, 0, 67, 49
1, 273600, Control_c, 0, 64, 0
1, 273600, Note_on_c, 0, 50, 32
1, 273600, Note_on_c, 0, 60, 39
1, 273855, Control_c, 0, 64, 127
1, 275040, Tempo, 553659
1, 275040, Note_on_c, 0, 67, 0
1, 275040, Note_on_c, 0, 66, 39
1, 275042, Control_c, 0, 64, 0
1, 275360, Control_c, 0, 64, 127
1, 275520, Tempo, 569206
1, 275520, Note_on_c, 0, 63, 0
1, 275520, Note_on_c, 0, 60, 0
1, 275520, Note_on_c, 0, 62, 35
1, 275520, Note_on_c, 0, 58, 30
1, 276000, Tempo, 621440
1, 276000, Note_on_c, 0, 58, 0
1, 276000, Note_on_c, 0, 62, 0
1, 276000, Note_on_c, 0, 60, 30
1, 276000, Note_on_c, 0, 57, 26
1, 276480, Tempo, 474308
1, 276480, Note_on_c, 0, 57, 0
1, 276480, Note_on_c, 0, 66, 0
1, 276480, Note_on_c, 0, 50, 0
1, 276480, Note_on_c, 0, 60, 0
1, 276480, Control_c, 0, 64, 0
1, 276480, Note_on_c, 0, 55, 59
1, 276600, Note_on_c, 0, 55, 0
1, 276600, Note_on_c, 0, 62, 31
1, 276660, Note_on_c, 0, 62, 0
1, 276720, Tempo, 451128
1, 276720, Note_on_c, 0, 62, 47
1, 276780, Note_on_c, 0, 62, 0
1, 276840, Note_on_c, 0, 62, 35
1, 276900, Note_on_c, 0, 62, 0
1, 276960, Tempo, 463320
1, 276960, Note_on_c, 0, 63, 53
1, 277020, Note_on_c, 0, 63, 0
1, 277080, Note_on_c, 0, 62, 39
1, 277140, Note_on_c, 0, 62, 0
1, 277200, Tempo, 470588
1, 277200, Note_on_c, 0, 60, 45
1, 277260, Note_on_c, 0, 60, 0
1, 277320, Note_on_c, 0, 62, 37
1, 277380, Note_on_c, 0, 62, 0
1, 277440, Note_on_c, 0, 62, 49
1, 277500, Note_on_c, 0, 62, 0
1, 277560, Note_on_c, 0, 62, 34
1, 277620, Note_on_c, 0, 62, 0
1, 277680, Note_on_c, 0, 58, 45
1, 277740, Note_on_c, 0, 58, 0
1, 277800, Note_on_c, 0, 62, 32
1, 277860, Note_on_c, 0, 62, 0
1, 277920, Tempo, 478088
1, 277920, Note_on_c, 0, 55, 62
1, 278040, Note_on_c, 0, 55, 0
1, 278040, Note_on_c, 0, 62, 31
1, 278100, Note_on_c, 0, 62, 0
1, 278160, Tempo, 451128
1, 278160, Note_on_c, 0, 62, 47
1, 278220, Note_on_c, 0, 62, 0
1, 278280, Note_on_c, 0, 62, 35
1, 278340, Note_on_c, 0, 62, 0
1, 278400, Tempo, 459770
1, 278400, Note_on_c, 0, 63, 53
1, 278460, Note_on_c, 0, 63, 0
1, 278520, Note_on_c, 0, 62, 39
1, 278580, Note_on_c, 0, 62, 0
1, 278640, Tempo, 468750
1, 278640, Note_on_c, 0, 60, 45
1, 278700, Note_on_c, 0, 60, 0
1, 278760, Note_on_c, 0, 62, 37
1, 278820, Note_on_c, 0, 62, 0
1, 278880, Note_on_c, 0, 62, 49
1, 278940, Note_on_c, 0, 62, 0
1, 279000, Note_on_c, 0, 62, 34
1, 279060, Note_on_c, 0, 62, 0
1, 279120, Note_on_c, 0, 58, 45
1, 279180, Note_on_c, 0, 58, 0
1, 279240, Note_on_c, 0, 62, 32
1, 279300, Note_on_c, 0, 62, 0
1, 279360, Tempo, 495868
1, 279360, Note_on_c, 0, 55, 56
1, 279383, Control_c, 0, 64, 127
1, 279480, Note_on_c, 0, 55, 0
1, 279480, Note_on_c, 0, 67, 29
1, 279480, Note_on_c, 0, 62, 29
1, 279540, Note_on_c, 0, 62, 0
1, 279540, Note_on_c, 0, 67, 0
1, 279600, Tempo, 483871
1, 279600, Note_on_c, 0, 70, 42
1, 279600, Note_on_c, 0, 63, 47
1, 279660, Note_on_c, 0, 63, 0
1, 279660, Note_on_c, 0, 70, 0
1, 279720, Note_on_c, 0, 67, 29
1, 279720, Note_on_c, 0, 62, 29
1, 279780, Note_on_c, 0, 62, 0
1, 279780, Note_on_c, 0, 67, 0
1, 279840, Tempo, 476190
1, 279840, Note_on_c, 0, 70, 46
1, 279840, Note_on_c, 0, 61, 52
1, 279856, Control_c, 0, 64, 0
1, 279874, Control_c, 0, 64, 127
1, 279900, Note_on_c, 0, 61, 0
1, 279900, Note_on_c, 0, 70, 0
1, 279960, Tempo, 474308
1, 279960, Note_on_c, 0, 67, 31
1, 279960, Note_on_c, 0, 62, 31
1, 280020, Note_on_c, 0, 62, 0
1, 280020, Note_on_c, 0, 67, 0
1, 280080, Tempo, 472441
1, 280080, Note_on_c, 0, 70, 43
1, 280080, Note_on_c, 0, 63, 48
1, 280140, Note_on_c, 0, 63, 0
1, 280140, Note_on_c, 0, 70, 0
1, 280160, Tempo, 470588
1, 280200, Note_on_c, 0, 67, 33
1, 280200, Note_on_c, 0, 62, 33
1, 280260, Note_on_c, 0, 62, 0
1, 280260, Note_on_c, 0, 67, 0
1, 280280, Tempo, 468750
1, 280320, Note_on_c, 0, 70, 55
1, 280320, Note_on_c, 0, 61, 61
1, 280331, Control_c, 0, 64, 0
1, 280360, Tempo, 466926
1, 280360, Control_c, 0, 64, 127
1, 280380, Note_on_c, 0, 61, 0
1, 280380, Note_on_c, 0, 70, 0
1, 280440, Note_on_c, 0, 67, 37
1, 280440, Note_on_c, 0, 62, 37
1, 280480, Tempo, 465116
1, 280500, Note_on_c, 0, 62, 0
1, 280500, Note_on_c, 0, 67, 0
1, 280560, Tempo, 463320
1, 280560, Note_on_c, 0, 70, 53
1, 280560, Note_on_c, 0, 63, 59
1, 280620, Note_on_c, 0, 63, 0
1, 280620, Note_on_c, 0, 70, 0
1, 280680, Tempo, 461538
1, 280680, Note_on_c, 0, 67, 41
1, 280680, Note_on_c, 0, 62, 41
1, 280740, Note_on_c, 0, 62, 0
1, 280740, Note_on_c, 0, 67, 0
1, 280760, Tempo, 459770
1, 280800, Tempo, 476190
1, 280800, Note_on_c, 0, 70, 64
1, 280800, Note_on_c, 0, 61, 71
1, 280809, Control_c, 0, 64, 0
1, 280835, Control_c, 0, 64, 127
1, 280920, Note_on_c, 0, 61, 0
1, 280920, Note_on_c, 0, 70, 0
1, 280920, Note_on_c, 0, 67, 44
1, 280920, Note_on_c, 0, 62, 44
1, 280980, Note_on_c, 0, 62, 0
1, 280980, Note_on_c, 0, 67, 0
1, 281040, Tempo, 459770
1, 281040, Note_on_c, 0, 70, 58
1, 281040, Note_on_c, 0, 63, 66
1, 281100, Note_on_c, 0, 63, 0
1, 281100, Note_on_c, 0, 70, 0
1, 281120, Tempo, 461538
1, 281160, Tempo, 463320
1, 281160, Note_on_c, 0, 67, 48
1, 281160, Note_on_c, 0, 62, 48
1, 281220, Note_on_c, 0, 62, 0
1, 281220, Note_on_c, 0, 67, 0
1, 281240, Tempo, 465116
1, 281280, Tempo, 466926
1, 281280, Note_on_c, 0, 70, 63
1, 281280, Note_on_c, 0, 61, 75
1, 281294, Control_c, 0, 64, 0
1, 281319, Control_c, 0, 64, 127
1, 281340, Note_on_c, 0, 61, 0
1, 281340, Note_on_c, 0, 70, 0
1, 281360, Tempo, 468750
1, 281400, Tempo, 470588
1, 281400, Note_on_c, 0, 67, 54
1, 281400, Note_on_c, 0, 62, 54
1, 281460, Note_on_c, 0, 62, 0
1, 281460, Note_on_c, 0, 67, 0
1, 281480, Tempo, 472441
1, 281520, Tempo, 474308
1, 281520, Note_on_c, 0, 70, 59
1, 281520, Note_on_c, 0, 63, 73
1, 281580, Note_on_c, 0, 63, 0
1, 281580, Note_on_c, 0, 70, 0
1, 281600, Tempo, 476190
1, 281640, Tempo, 478088
1, 281640, Note_on_c, 0, 67, 57
1, 281640, Note_on_c, 0, 62, 57
1, 281680, Tempo, 480000
1, 281700, Note_on_c, 0, 62, 0
1, 281700, Note_on_c, 0, 67, 0
1, 281760, Tempo, 481928
1, 281760, Note_on_c, 0, 70, 67
1, 281760, Note_on_c, 0, 61, 80
1, 281786, Control_c, 0, 64, 0
1, 281800, Tempo, 483871
1, 281813, Control_c, 0, 64, 127
1, 281820, Note_on_c, 0, 61, 0
1, 281820, Note_on_c, 0, 70, 0
1, 281880, Tempo, 485830
1, 281880, Note_on_c, 0, 67, 63
1, 281880, Note_on_c, 0, 62, 63
1, 281920, Tempo, 487805
1, 281940, Note_on_c, 0, 62, 0
1, 281940, Note_on_c, 0, 67, 0
1, 282000, Tempo, 489796
1, 282000, Note_on_c, 0, 70, 63
1, 282000, Note_on_c, 0, 63, 78
1, 282040, Tempo, 491803
1, 282060, Note_on_c, 0, 63, 0
1, 282060, Note_on_c, 0, 70, 0
1, 282120, Tempo, 493827
1, 282120, Note_on_c, 0, 67, 66
1, 282120, Note_on_c, 0, 62, 66
1, 282160, Tempo, 495868
1, 282180, Note_on_c, 0, 62, 0
1, 282180, Note_on_c, 0, 67, 0
1, 282200, Tempo, 497925
1, 282240, Note_on_c, 0, 91, 103
1, 282240, Note_on_c, 0, 86, 86
1, 282240, Note_on_c, 0, 79, 86
1, 282240, Note_on_c, 0, 43, 69
1, 282240, Note_on_c, 0, 50, 69
1, 282240, Note_on_c, 0, 58, 82
1, 282420, Control_c, 0, 64, 0
1, 282827, Control_c, 0, 64, 127
1, 283680, Note_on_c, 0, 58, 0
1, 283680, Note_on_c, 0, 86, 0
1, 283680, Note_on_c, 0, 79, 0
1, 283680, Note_on_c, 0, 91, 0
1, 283680, Note_on_c, 0, 50, 0
1, 283680, Note_on_c, 0, 43, 0
1, 283680, Note_on_c, 0, 55, 94
1, 283680, Note_on_c, 0, 31, 78
1, 284160, Tempo, 909091
1, 285120, Tempo, 600000
1, 285120, Note_on_c, 0, 31, 0
1, 285120, Note_on_c, 0, 55, 0
1, 286400, Control_c, 0, 64, 0
1, 286400, End_track
0, 0, End_of_file
