0, 0, Header, 0, 1, 480
1, 0, Start_track
1, 0, Title_t, "Kinderszenen Opus 15"
1, 0, Title_t, "Am Kamin"
1, 0, Copyright_t, "Copyright © 1997 von Bernd Krüger."
1, 0, Text_t, "Robert Schumann"
1, 0, Text_t, "Fertiggestellt am 14.12.97\012"
1, 0, Text_t, "Korrekturen am 4.9.98\012"
1, 0, Text_t, "Anpassungen an Digitalpiano am 1.1.99\012"
1, 0, Text_t, "Update am 16.6.99\012"
1, 0, Text_t, "Update am 9.7.99\012"
1, 0, Text_t, "Update am 18.7.99\012"
1, 0, Text_t, "Normierung: 23.12.2002\012"
1, 0, Text_t, "Update am 12.10.2008\012"
1, 0, Text_t, "Update am 26.3.2014\012"
1, 0, Text_t, "Dauer: 1:07 Minuten\012"
1, 0, Time_signature, 2, 2, 24, 8
1, 0, Key_signature, -1, "major"
1, 0, Tempo, 468750
1, 0, Marker_t, "By the Fire-side"
1, 0, Program_c, 0, 0
1, 0, Control_c, 0, 7, 100
1, 0, Control_c, 0, 10, 64
1, 0, Text_t, "bdca426d104a26ac9dcb070447587523"
1, 0, Program_c, 0, 0
1, 0, Control_c, 0, 7, 100
1, 0, Control_c, 0, 10, 64
1, 494, Control_c, 0, 64, 127
1, 719, Control_c, 0, 91, 127
1, 719, Control_c, 0, 91, 127
1, 720, Tempo, 754717
1, 720, Note_on_c, 0, 72, 56
1, 960, Tempo, 670391
1, 960, Note_on_c, 0, 72, 0
1, 960, Note_on_c, 0, 77, 60
1, 960, Note_on_c, 0, 53, 41
1, 1200, Note_on_c, 0, 53, 0
1, 1200, Note_on_c, 0, 65, 31
1, 1200, Note_on_c, 0, 72, 31
1, 1200, Note_on_c, 0, 60, 23
1, 1200, Note_on_c, 0, 69, 23
1, 1440, Tempo, 641711
1, 1440, Note_on_c, 0, 77, 0
1, 1440, Note_on_c, 0, 76, 56
1, 1680, Tempo, 631579
1, 1680, Note_on_c, 0, 76, 0
1, 1680, Note_on_c, 0, 69, 0
1, 1680, Note_on_c, 0, 65, 0
1, 1680, Note_on_c, 0, 72, 0
1, 1680, Note_on_c, 0, 60, 0
1, 1680, Note_on_c, 0, 65, 30
1, 1680, Note_on_c, 0, 75, 51
1, 1680, Note_on_c, 0, 60, 21
1, 1680, Note_on_c, 0, 69, 21
1, 1920, Tempo, 652174
1, 1920, Note_on_c, 0, 69, 0
1, 1920, Note_on_c, 0, 65, 0
1, 1920, Note_on_c, 0, 75, 0
1, 1920, Note_on_c, 0, 60, 0
1, 1920, Note_on_c, 0, 74, 52
1, 1920, Note_on_c, 0, 58, 41
1, 1922, Control_c, 0, 64, 0
1, 2090, Control_c, 0, 64, 127
1, 2160, Tempo, 645161
1, 2160, Note_on_c, 0, 74, 0
1, 2160, Note_on_c, 0, 65, 30
1, 2160, Note_on_c, 0, 76, 52
1, 2160, Note_on_c, 0, 62, 23
1, 2160, Note_on_c, 0, 70, 23
1, 2400, Note_on_c, 0, 70, 0
1, 2400, Note_on_c, 0, 76, 0
1, 2400, Note_on_c, 0, 62, 0
1, 2400, Note_on_c, 0, 77, 55
1, 2400, Note_on_c, 0, 55, 33
1, 2414, Control_c, 0, 64, 0
1, 2527, Control_c, 0, 64, 127
1, 2640, Tempo, 631579
1, 2640, Note_on_c, 0, 55, 0
1, 2640, Note_on_c, 0, 77, 0
1, 2640, Note_on_c, 0, 65, 0
1, 2640, Note_on_c, 0, 65, 31
1, 2640, Note_on_c, 0, 79, 50
1, 2640, Note_on_c, 0, 70, 21
1, 2640, Note_on_c, 0, 62, 21
1, 2880, Tempo, 662983
1, 2880, Note_on_c, 0, 62, 0
1, 2880, Note_on_c, 0, 79, 0
1, 2880, Note_on_c, 0, 58, 0
1, 2880, Note_on_c, 0, 65, 0
1, 2880, Note_on_c, 0, 70, 0
1, 2880, Note_on_c, 0, 72, 57
1, 2880, Control_c, 0, 64, 0
1, 2880, Note_on_c, 0, 48, 41
1, 3120, Tempo, 652174
1, 3120, Note_on_c, 0, 48, 0
1, 3120, Note_on_c, 0, 60, 29
1, 3120, Note_on_c, 0, 67, 46
1, 3120, Note_on_c, 0, 64, 24
1, 3120, Note_on_c, 0, 58, 27
1, 3140, Tempo, 645161
1, 3240, Tempo, 648649
1, 3340, Tempo, 652174
1, 3360, Note_on_c, 0, 58, 0
1, 3360, Note_on_c, 0, 67, 0
1, 3360, Note_on_c, 0, 69, 47
1, 3360, Note_on_c, 0, 57, 30
1, 3440, Tempo, 655738
1, 3540, Tempo, 659341
1, 3600, Note_on_c, 0, 57, 0
1, 3600, Note_on_c, 0, 72, 0
1, 3600, Note_on_c, 0, 64, 0
1, 3600, Note_on_c, 0, 60, 0
1, 3600, Note_on_c, 0, 69, 0
1, 3600, Note_on_c, 0, 60, 29
1, 3600, Note_on_c, 0, 70, 44
1, 3600, Note_on_c, 0, 64, 23
1, 3600, Note_on_c, 0, 55, 23
1, 3640, Tempo, 662983
1, 3840, Tempo, 705882
1, 3840, Note_on_c, 0, 55, 0
1, 3840, Note_on_c, 0, 60, 0
1, 3840, Note_on_c, 0, 70, 0
1, 3840, Note_on_c, 0, 64, 0
1, 3840, Note_on_c, 0, 69, 47
1, 3840, Note_on_c, 0, 53, 38
1, 3925, Control_c, 0, 64, 127
1, 4080, Note_on_c, 0, 53, 0
1, 4080, Note_on_c, 0, 60, 30
1, 4080, Note_on_c, 0, 65, 21
1, 4080, Note_on_c, 0, 57, 21
1, 4320, Note_on_c, 0, 69, 0
1, 4560, Tempo, 666667
1, 4560, Note_on_c, 0, 60, 0
1, 4560, Note_on_c, 0, 65, 0
1, 4560, Note_on_c, 0, 57, 0
1, 4560, Note_on_c, 0, 72, 56
1, 4560, Note_on_c, 0, 57, 25
1, 4560, Note_on_c, 0, 65, 25
1, 4800, Tempo, 659341
1, 4800, Note_on_c, 0, 65, 0
1, 4800, Note_on_c, 0, 57, 0
1, 4800, Note_on_c, 0, 72, 0
1, 4800, Note_on_c, 0, 72, 56
1, 4800, Note_on_c, 0, 53, 41
1, 4804, Control_c, 0, 64, 0
1, 4937, Control_c, 0, 64, 127
1, 5040, Tempo, 641711
1, 5040, Note_on_c, 0, 72, 0
1, 5040, Note_on_c, 0, 77, 60
1, 5040, Note_on_c, 0, 65, 31
1, 5040, Note_on_c, 0, 60, 23
1, 5040, Note_on_c, 0, 69, 23
1, 5280, Tempo, 634921
1, 5280, Note_on_c, 0, 77, 0
1, 5280, Note_on_c, 0, 53, 0
1, 5280, Note_on_c, 0, 76, 56
1, 5280, Note_on_c, 0, 57, 37
1, 5517, Note_on_c, 0, 65, 0
1, 5520, Tempo, 628272
1, 5520, Note_on_c, 0, 76, 0
1, 5520, Note_on_c, 0, 69, 0
1, 5520, Note_on_c, 0, 60, 0
1, 5520, Note_on_c, 0, 75, 51
1, 5520, Note_on_c, 0, 60, 21
1, 5520, Note_on_c, 0, 65, 21
1, 5760, Tempo, 652174
1, 5760, Note_on_c, 0, 65, 0
1, 5760, Note_on_c, 0, 57, 0
1, 5760, Note_on_c, 0, 75, 0
1, 5760, Note_on_c, 0, 60, 0
1, 5760, Note_on_c, 0, 74, 52
1, 5760, Note_on_c, 0, 58, 41
1, 5763, Control_c, 0, 64, 0
1, 5887, Control_c, 0, 64, 127
1, 6000, Tempo, 645161
1, 6000, Note_on_c, 0, 74, 0
1, 6000, Note_on_c, 0, 65, 30
1, 6000, Note_on_c, 0, 76, 52
1, 6000, Note_on_c, 0, 62, 23
1, 6000, Note_on_c, 0, 70, 23
1, 6220, Tempo, 641711
1, 6240, Tempo, 634921
1, 6240, Note_on_c, 0, 70, 0
1, 6240, Note_on_c, 0, 76, 0
1, 6240, Note_on_c, 0, 62, 0
1, 6240, Note_on_c, 0, 77, 55
1, 6240, Note_on_c, 0, 55, 33
1, 6255, Control_c, 0, 64, 0
1, 6300, Tempo, 638298
1, 6340, Tempo, 641711
1, 6380, Tempo, 645161
1, 6410, Control_c, 0, 64, 127
1, 6420, Tempo, 648649
1, 6460, Tempo, 652174
1, 6480, Note_on_c, 0, 55, 0
1, 6480, Note_on_c, 0, 77, 0
1, 6480, Note_on_c, 0, 65, 0
1, 6480, Note_on_c, 0, 65, 31
1, 6480, Note_on_c, 0, 79, 50
1, 6480, Note_on_c, 0, 70, 21
1, 6480, Note_on_c, 0, 62, 21
1, 6500, Tempo, 655738
1, 6540, Tempo, 659341
1, 6580, Tempo, 662983
1, 6620, Tempo, 666667
1, 6660, Tempo, 670391
1, 6700, Tempo, 674157
1, 6720, Tempo, 662983
1, 6720, Note_on_c, 0, 62, 0
1, 6720, Note_on_c, 0, 79, 0
1, 6720, Note_on_c, 0, 58, 0
1, 6720, Note_on_c, 0, 65, 0
1, 6720, Note_on_c, 0, 70, 0
1, 6720, Note_on_c, 0, 72, 57
1, 6720, Control_c, 0, 64, 0
1, 6720, Note_on_c, 0, 48, 41
1, 6960, Tempo, 652174
1, 6960, Note_on_c, 0, 48, 0
1, 6960, Note_on_c, 0, 60, 29
1, 6960, Note_on_c, 0, 67, 46
1, 6960, Note_on_c, 0, 64, 24
1, 6960, Note_on_c, 0, 58, 27
1, 6980, Tempo, 645161
1, 7080, Tempo, 648649
1, 7180, Tempo, 652174
1, 7200, Note_on_c, 0, 58, 0
1, 7200, Note_on_c, 0, 67, 0
1, 7200, Note_on_c, 0, 69, 47
1, 7200, Note_on_c, 0, 57, 30
1, 7280, Tempo, 655738
1, 7380, Tempo, 659341
1, 7440, Note_on_c, 0, 57, 0
1, 7440, Note_on_c, 0, 72, 0
1, 7440, Note_on_c, 0, 64, 0
1, 7440, Note_on_c, 0, 60, 0
1, 7440, Note_on_c, 0, 69, 0
1, 7440, Note_on_c, 0, 60, 29
1, 7440, Note_on_c, 0, 70, 45
1, 7440, Note_on_c, 0, 64, 23
1, 7440, Note_on_c, 0, 55, 23
1, 7480, Tempo, 662983
1, 7680, Tempo, 705882
1, 7680, Note_on_c, 0, 55, 0
1, 7680, Note_on_c, 0, 60, 0
1, 7680, Note_on_c, 0, 70, 0
1, 7680, Note_on_c, 0, 64, 0
1, 7680, Note_on_c, 0, 69, 47
1, 7680, Note_on_c, 0, 53, 38
1, 7765, Control_c, 0, 64, 127
1, 7920, Note_on_c, 0, 53, 0
1, 7920, Note_on_c, 0, 65, 32
1, 7920, Note_on_c, 0, 60, 21
1, 7920, Note_on_c, 0, 57, 21
1, 8160, Note_on_c, 0, 69, 0
1, 8400, Tempo, 648649
1, 8400, Note_on_c, 0, 65, 0
1, 8400, Note_on_c, 0, 60, 0
1, 8400, Note_on_c, 0, 57, 0
1, 8400, Note_on_c, 0, 72, 50
1, 8400, Note_on_c, 0, 57, 25
1, 8400, Note_on_c, 0, 65, 25
1, 8640, Tempo, 655738
1, 8640, Note_on_c, 0, 65, 0
1, 8640, Note_on_c, 0, 57, 0
1, 8640, Note_on_c, 0, 72, 0
1, 8640, Note_on_c, 0, 72, 56
1, 8640, Control_c, 0, 64, 0
1, 8640, Note_on_c, 0, 48, 40
1, 8880, Tempo, 628272
1, 8880, Note_on_c, 0, 72, 0
1, 8880, Note_on_c, 0, 60, 40
1, 8880, Note_on_c, 0, 67, 51
1, 8880, Note_on_c, 0, 64, 34
1, 8880, Note_on_c, 0, 58, 34
1, 9120, Tempo, 618557
1, 9120, Note_on_c, 0, 67, 0
1, 9120, Note_on_c, 0, 69, 54
1, 9360, Note_on_c, 0, 69, 0
1, 9360, Note_on_c, 0, 58, 0
1, 9360, Note_on_c, 0, 64, 0
1, 9360, Note_on_c, 0, 60, 0
1, 9360, Note_on_c, 0, 60, 40
1, 9360, Note_on_c, 0, 70, 57
1, 9360, Note_on_c, 0, 64, 34
1, 9360, Note_on_c, 0, 58, 34
1, 9600, Tempo, 641711
1, 9600, Note_on_c, 0, 58, 0
1, 9600, Note_on_c, 0, 70, 0
1, 9600, Note_on_c, 0, 48, 0
1, 9600, Note_on_c, 0, 60, 0
1, 9600, Note_on_c, 0, 64, 0
1, 9600, Note_on_c, 0, 74, 56
1, 9600, Note_on_c, 0, 48, 40
1, 9840, Tempo, 615385
1, 9840, Note_on_c, 0, 62, 52
1, 10080, Note_on_c, 0, 64, 48
1, 10320, Note_on_c, 0, 64, 0
1, 10320, Note_on_c, 0, 62, 0
1, 10320, Note_on_c, 0, 74, 0
1, 10320, Note_on_c, 0, 60, 40
1, 10320, Note_on_c, 0, 66, 48
1, 10320, Note_on_c, 0, 62, 40
1, 10560, Tempo, 628272
1, 10560, Note_on_c, 0, 62, 0
1, 10560, Note_on_c, 0, 48, 0
1, 10560, Note_on_c, 0, 60, 0
1, 10560, Note_on_c, 0, 66, 0
1, 10560, Note_on_c, 0, 58, 41
1, 10560, Note_on_c, 0, 67, 50
1, 10560, Note_on_c, 0, 48, 37
1, 10800, Tempo, 612245
1, 10800, Note_on_c, 0, 67, 0
1, 10800, Note_on_c, 0, 58, 0
1, 10800, Note_on_c, 0, 70, 52
1, 10800, Note_on_c, 0, 55, 32
1, 10800, Note_on_c, 0, 62, 52
1, 11040, Tempo, 603015
1, 11040, Note_on_c, 0, 70, 0
1, 11040, Note_on_c, 0, 48, 0
1, 11040, Note_on_c, 0, 74, 54
1, 11040, Note_on_c, 0, 48, 33
1, 11277, Note_on_c, 0, 62, 0
1, 11280, Tempo, 662983
1, 11280, Note_on_c, 0, 55, 0
1, 11280, Note_on_c, 0, 74, 0
1, 11280, Note_on_c, 0, 60, 32
1, 11280, Note_on_c, 0, 62, 44
1, 11280, Note_on_c, 0, 54, 32
1, 11520, Note_on_c, 0, 54, 0
1, 11520, Note_on_c, 0, 48, 0
1, 11520, Note_on_c, 0, 60, 0
1, 11520, Note_on_c, 0, 62, 0
1, 11520, Note_on_c, 0, 67, 46
1, 11520, Note_on_c, 0, 48, 40
1, 11605, Control_c, 0, 64, 127
1, 11760, Note_on_c, 0, 58, 32
1, 11760, Note_on_c, 0, 62, 28
1, 11760, Note_on_c, 0, 55, 23
1, 12000, Note_on_c, 0, 67, 0
1, 12240, Tempo, 621762
1, 12240, Note_on_c, 0, 62, 0
1, 12240, Note_on_c, 0, 55, 0
1, 12240, Note_on_c, 0, 58, 0
1, 12240, Note_on_c, 0, 70, 53
1, 12240, Note_on_c, 0, 62, 34
1, 12240, Note_on_c, 0, 55, 34
1, 12246, Control_c, 0, 64, 0
1, 12480, Note_on_c, 0, 55, 0
1, 12480, Note_on_c, 0, 48, 0
1, 12480, Note_on_c, 0, 70, 0
1, 12480, Note_on_c, 0, 62, 0
1, 12480, Note_on_c, 0, 74, 59
1, 12480, Note_on_c, 0, 48, 42
1, 12720, Tempo, 612245
1, 12720, Note_on_c, 0, 74, 0
1, 12720, Note_on_c, 0, 66, 32
1, 12720, Note_on_c, 0, 69, 55
1, 12720, Note_on_c, 0, 62, 54
1, 12860, Tempo, 609137
1, 12960, Note_on_c, 0, 69, 0
1, 12960, Note_on_c, 0, 70, 59
1, 13000, Tempo, 606061
1, 13140, Tempo, 603015
1, 13200, Note_on_c, 0, 70, 0
1, 13200, Note_on_c, 0, 62, 0
1, 13200, Note_on_c, 0, 72, 63
1, 13200, Note_on_c, 0, 60, 44
1, 13280, Tempo, 600000
1, 13420, Tempo, 597015
1, 13440, Tempo, 631579
1, 13440, Note_on_c, 0, 60, 0
1, 13440, Note_on_c, 0, 48, 0
1, 13440, Note_on_c, 0, 66, 0
1, 13440, Note_on_c, 0, 72, 0
1, 13440, Note_on_c, 0, 76, 63
1, 13440, Note_on_c, 0, 48, 45
1, 13680, Tempo, 603015
1, 13680, Note_on_c, 0, 64, 59
1, 13680, Note_on_c, 0, 59, 48
1, 13680, Note_on_c, 0, 62, 48
1, 13920, Note_on_c, 0, 66, 52
1, 14157, Note_on_c, 0, 62, 0
1, 14160, Note_on_c, 0, 76, 0
1, 14160, Note_on_c, 0, 64, 0
1, 14160, Note_on_c, 0, 59, 0
1, 14160, Note_on_c, 0, 66, 0
1, 14160, Note_on_c, 0, 62, 44
1, 14160, Note_on_c, 0, 68, 52
1, 14160, Note_on_c, 0, 59, 44
1, 14400, Tempo, 625000
1, 14400, Note_on_c, 0, 59, 0
1, 14400, Note_on_c, 0, 48, 0
1, 14400, Note_on_c, 0, 62, 0
1, 14400, Note_on_c, 0, 68, 0
1, 14400, Note_on_c, 0, 60, 45
1, 14400, Note_on_c, 0, 69, 55
1, 14400, Note_on_c, 0, 48, 40
1, 14640, Tempo, 612245
1, 14640, Note_on_c, 0, 69, 0
1, 14640, Note_on_c, 0, 60, 0
1, 14640, Note_on_c, 0, 72, 57
1, 14640, Note_on_c, 0, 57, 47
1, 14640, Note_on_c, 0, 64, 57
1, 14880, Tempo, 603015
1, 14880, Note_on_c, 0, 72, 0
1, 14880, Note_on_c, 0, 48, 0
1, 14880, Note_on_c, 0, 76, 59
1, 14880, Note_on_c, 0, 48, 36
1, 15120, Tempo, 662983
1, 15120, Note_on_c, 0, 76, 0
1, 15120, Note_on_c, 0, 64, 0
1, 15120, Note_on_c, 0, 57, 0
1, 15120, Note_on_c, 0, 62, 41
1, 15120, Note_on_c, 0, 64, 50
1, 15120, Note_on_c, 0, 56, 41
1, 15360, Tempo, 638298
1, 15360, Note_on_c, 0, 48, 0
1, 15360, Note_on_c, 0, 48, 56
1, 15600, Tempo, 666667
1, 15600, Note_on_c, 0, 62, 0
1, 15600, Note_on_c, 0, 56, 0
1, 15600, Note_on_c, 0, 64, 0
1, 15600, Note_on_c, 0, 60, 57
1, 15600, Note_on_c, 0, 69, 57
1, 15600, Note_on_c, 0, 57, 50
1, 15600, Note_on_c, 0, 64, 50
1, 15700, Tempo, 670391
1, 15780, Tempo, 674157
1, 15840, Note_on_c, 0, 48, 0
1, 15840, Note_on_c, 0, 48, 50
1, 15880, Tempo, 677966
1, 15960, Tempo, 681818
1, 16040, Tempo, 685714
1, 16077, Note_on_c, 0, 60, 0
1, 16080, Note_on_c, 0, 64, 0
1, 16080, Note_on_c, 0, 57, 0
1, 16080, Note_on_c, 0, 69, 0
1, 16080, Note_on_c, 0, 58, 53
1, 16080, Note_on_c, 0, 67, 53
1, 16080, Note_on_c, 0, 52, 50
1, 16080, Note_on_c, 0, 60, 50
1, 16140, Tempo, 689655
1, 16220, Tempo, 693642
1, 16300, Tempo, 697674
1, 16320, Tempo, 736196
1, 16320, Note_on_c, 0, 60, 0
1, 16320, Note_on_c, 0, 67, 0
1, 16320, Note_on_c, 0, 48, 0
1, 16320, Note_on_c, 0, 58, 0
1, 16320, Note_on_c, 0, 52, 0
1, 16320, Note_on_c, 0, 65, 62
1, 16320, Note_on_c, 0, 41, 56
1, 16389, Control_c, 0, 64, 127
1, 16560, Note_on_c, 0, 53, 53
1, 16560, Note_on_c, 0, 60, 53
1, 16560, Note_on_c, 0, 57, 40
1, 16560, Note_on_c, 0, 48, 40
1, 16800, Tempo, 710059
1, 16800, Note_on_c, 0, 65, 0
1, 16800, Note_on_c, 0, 64, 49
1, 17040, Note_on_c, 0, 64, 0
1, 17040, Note_on_c, 0, 48, 0
1, 17040, Note_on_c, 0, 60, 0
1, 17040, Note_on_c, 0, 57, 0
1, 17040, Note_on_c, 0, 53, 0
1, 17040, Note_on_c, 0, 53, 35
1, 17040, Note_on_c, 0, 63, 45
1, 17040, Note_on_c, 0, 48, 34
1, 17040, Note_on_c, 0, 57, 34
1, 17054, Control_c, 0, 64, 0
1, 17280, Tempo, 677966
1, 17280, Note_on_c, 0, 57, 0
1, 17280, Note_on_c, 0, 63, 0
1, 17280, Note_on_c, 0, 41, 0
1, 17280, Note_on_c, 0, 53, 0
1, 17280, Note_on_c, 0, 48, 0
1, 17280, Note_on_c, 0, 74, 48
1, 17280, Note_on_c, 0, 46, 34
1, 17520, Tempo, 705882
1, 17520, Note_on_c, 0, 74, 0
1, 17520, Note_on_c, 0, 65, 27
1, 17520, Note_on_c, 0, 76, 44
1, 17520, Note_on_c, 0, 50, 22
1, 17520, Note_on_c, 0, 58, 24
1, 17760, Note_on_c, 0, 76, 0
1, 17760, Note_on_c, 0, 46, 0
1, 17760, Note_on_c, 0, 77, 44
1, 17760, Note_on_c, 0, 43, 34
1, 18000, Note_on_c, 0, 77, 0
1, 18000, Note_on_c, 0, 65, 0
1, 18000, Note_on_c, 0, 58, 0
1, 18000, Note_on_c, 0, 50, 0
1, 18000, Note_on_c, 0, 65, 27
1, 18000, Note_on_c, 0, 79, 44
1, 18000, Note_on_c, 0, 62, 20
1, 18000, Note_on_c, 0, 58, 21
1, 18240, Tempo, 681818
1, 18240, Note_on_c, 0, 58, 0
1, 18240, Note_on_c, 0, 79, 0
1, 18240, Note_on_c, 0, 43, 0
1, 18240, Note_on_c, 0, 65, 0
1, 18240, Note_on_c, 0, 62, 0
1, 18240, Note_on_c, 0, 72, 46
1, 18240, Note_on_c, 0, 48, 30
1, 18440, Tempo, 677966
1, 18480, Note_on_c, 0, 48, 0
1, 18480, Note_on_c, 0, 60, 26
1, 18480, Note_on_c, 0, 67, 37
1, 18480, Note_on_c, 0, 58, 32
1, 18480, Note_on_c, 0, 64, 22
1, 18540, Tempo, 681818
1, 18620, Tempo, 685714
1, 18700, Tempo, 689655
1, 18720, Note_on_c, 0, 58, 0
1, 18720, Note_on_c, 0, 67, 0
1, 18720, Note_on_c, 0, 69, 37
1, 18720, Note_on_c, 0, 57, 35
1, 18800, Tempo, 693642
1, 18880, Tempo, 697674
1, 18960, Tempo, 701754
1, 18960, Note_on_c, 0, 57, 0
1, 18960, Note_on_c, 0, 72, 0
1, 18960, Note_on_c, 0, 64, 0
1, 18960, Note_on_c, 0, 60, 0
1, 18960, Note_on_c, 0, 69, 0
1, 18960, Note_on_c, 0, 60, 26
1, 18960, Note_on_c, 0, 70, 36
1, 18960, Note_on_c, 0, 55, 28
1, 18960, Note_on_c, 0, 64, 22
1, 19200, Note_on_c, 0, 64, 0
1, 19200, Note_on_c, 0, 60, 0
1, 19200, Note_on_c, 0, 70, 0
1, 19200, Note_on_c, 0, 55, 0
1, 19200, Note_on_c, 0, 69, 37
1, 19200, Note_on_c, 0, 53, 33
1, 19299, Control_c, 0, 64, 127
1, 19440, Note_on_c, 0, 65, 24
1, 19440, Note_on_c, 0, 60, 20
1, 19440, Note_on_c, 0, 57, 20
1, 19680, Note_on_c, 0, 53, 0
1, 19680, Note_on_c, 0, 69, 0
1, 19917, Note_on_c, 0, 65, 0
1, 19920, Note_on_c, 0, 60, 0
1, 19920, Note_on_c, 0, 57, 0
1, 19920, Note_on_c, 0, 72, 50
1, 19920, Note_on_c, 0, 65, 27
1, 19920, Note_on_c, 0, 57, 27
1, 19930, Control_c, 0, 64, 0
1, 20061, Control_c, 0, 64, 127
1, 20160, Tempo, 659341
1, 20160, Note_on_c, 0, 57, 0
1, 20160, Note_on_c, 0, 65, 0
1, 20160, Note_on_c, 0, 72, 0
1, 20160, Note_on_c, 0, 72, 50
1, 20160, Note_on_c, 0, 53, 36
1, 20400, Tempo, 641711
1, 20400, Note_on_c, 0, 72, 0
1, 20400, Note_on_c, 0, 77, 54
1, 20400, Note_on_c, 0, 65, 27
1, 20400, Note_on_c, 0, 69, 25
1, 20400, Note_on_c, 0, 60, 25
1, 20640, Tempo, 634921
1, 20640, Note_on_c, 0, 77, 0
1, 20640, Note_on_c, 0, 53, 0
1, 20640, Note_on_c, 0, 76, 50
1, 20640, Note_on_c, 0, 57, 33
1, 20877, Note_on_c, 0, 65, 0
1, 20880, Tempo, 628272
1, 20880, Note_on_c, 0, 76, 0
1, 20880, Note_on_c, 0, 60, 0
1, 20880, Note_on_c, 0, 69, 0
1, 20880, Note_on_c, 0, 63, 27
1, 20880, Note_on_c, 0, 75, 45
1, 20880, Note_on_c, 0, 65, 22
1, 20880, Note_on_c, 0, 60, 22
1, 21120, Tempo, 666667
1, 21120, Note_on_c, 0, 60, 0
1, 21120, Note_on_c, 0, 75, 0
1, 21120, Note_on_c, 0, 57, 0
1, 21120, Note_on_c, 0, 63, 0
1, 21120, Note_on_c, 0, 65, 0
1, 21120, Note_on_c, 0, 74, 46
1, 21120, Control_c, 0, 64, 0
1, 21120, Note_on_c, 0, 58, 36
1, 21217, Control_c, 0, 64, 127
1, 21360, Tempo, 705882
1, 21360, Note_on_c, 0, 74, 0
1, 21360, Note_on_c, 0, 65, 27
1, 21360, Note_on_c, 0, 76, 46
1, 21360, Note_on_c, 0, 70, 25
1, 21360, Note_on_c, 0, 62, 25
1, 21580, Tempo, 670391
1, 21600, Tempo, 705882
1, 21600, Note_on_c, 0, 62, 0
1, 21600, Note_on_c, 0, 76, 0
1, 21600, Note_on_c, 0, 70, 0
1, 21600, Note_on_c, 0, 58, 0
1, 21600, Note_on_c, 0, 77, 49
1, 21600, Note_on_c, 0, 55, 29
1, 21616, Control_c, 0, 64, 0
1, 21660, Tempo, 714286
1, 21680, Control_c, 0, 64, 127
1, 21700, Tempo, 722892
1, 21740, Tempo, 731707
1, 21780, Tempo, 740741
1, 21780, Note_on_c, 0, 59, 22
1, 21790, Note_on_c, 0, 62, 22
1, 21800, Note_on_c, 0, 71, 22
1, 21810, Note_on_c, 0, 65, 27
1, 21820, Tempo, 750000
1, 21820, Note_on_c, 0, 67, 25
1, 21830, Note_on_c, 0, 74, 25
1, 21840, Note_on_c, 0, 77, 0
1, 21840, Note_on_c, 0, 65, 0
1, 21840, Note_on_c, 0, 79, 43
1, 21860, Tempo, 759494
1, 21900, Tempo, 769231
1, 21940, Tempo, 779221
1, 21980, Tempo, 789474
1, 22020, Tempo, 800000
1, 22060, Tempo, 810811
1, 22080, Tempo, 827586
1, 22080, Note_on_c, 0, 79, 0
1, 22080, Note_on_c, 0, 74, 0
1, 22080, Note_on_c, 0, 71, 0
1, 22080, Note_on_c, 0, 55, 0
1, 22080, Note_on_c, 0, 62, 0
1, 22080, Note_on_c, 0, 67, 0
1, 22080, Note_on_c, 0, 65, 0
1, 22080, Note_on_c, 0, 59, 0
1, 22080, Note_on_c, 0, 81, 49
1, 22080, Control_c, 0, 64, 0
1, 22080, Note_on_c, 0, 60, 34
1, 22165, Control_c, 0, 64, 127
1, 22320, Tempo, 736196
1, 22320, Note_on_c, 0, 69, 28
1, 22320, Note_on_c, 0, 72, 25
1, 22320, Note_on_c, 0, 69, 21
1, 22320, Note_on_c, 0, 65, 21
1, 22560, Tempo, 789474
1, 22560, Note_on_c, 0, 60, 0
1, 22560, Note_on_c, 0, 81, 0
1, 22560, Note_on_c, 0, 79, 44
1, 22560, Note_on_c, 0, 60, 31
1, 22574, Control_c, 0, 64, 0
1, 22744, Control_c, 0, 64, 127
1, 22800, Tempo, 869565
1, 22800, Note_on_c, 0, 69, 0
1, 22800, Note_on_c, 0, 69, 0
1, 22800, Note_on_c, 0, 72, 0
1, 22800, Note_on_c, 0, 65, 0
1, 22800, Note_on_c, 0, 67, 25
1, 22800, Note_on_c, 0, 72, 25
1, 22800, Note_on_c, 0, 64, 17
1, 22800, Note_on_c, 0, 70, 17
1, 23040, Note_on_c, 0, 70, 0
1, 23040, Note_on_c, 0, 60, 0
1, 23040, Note_on_c, 0, 67, 0
1, 23040, Note_on_c, 0, 79, 0
1, 23040, Note_on_c, 0, 64, 0
1, 23040, Note_on_c, 0, 72, 0
1, 23040, Note_on_c, 0, 77, 38
1, 23040, Control_c, 0, 64, 0
1, 23040, Note_on_c, 0, 53, 29
1, 23209, Control_c, 0, 64, 127
1, 23280, Note_on_c, 0, 65, 25
1, 23280, Note_on_c, 0, 72, 25
1, 23280, Note_on_c, 0, 69, 17
1, 23280, Note_on_c, 0, 60, 17
1, 23520, Note_on_c, 0, 53, 0
1, 23520, Note_on_c, 0, 77, 0
1, 23760, Tempo, 648649
1, 23760, Note_on_c, 0, 69, 0
1, 23760, Note_on_c, 0, 72, 0
1, 23760, Note_on_c, 0, 60, 0
1, 23760, Note_on_c, 0, 65, 0
1, 23760, Note_on_c, 0, 72, 50
1, 23760, Note_on_c, 0, 69, 25
1, 23760, Note_on_c, 0, 60, 25
1, 23774, Control_c, 0, 64, 0
1, 24000, Tempo, 655738
1, 24000, Note_on_c, 0, 60, 0
1, 24000, Note_on_c, 0, 69, 0
1, 24000, Note_on_c, 0, 72, 0
1, 24000, Note_on_c, 0, 72, 56
1, 24000, Note_on_c, 0, 48, 40
1, 24240, Tempo, 628272
1, 24240, Note_on_c, 0, 72, 0
1, 24240, Note_on_c, 0, 60, 40
1, 24240, Note_on_c, 0, 67, 51
1, 24240, Note_on_c, 0, 64, 40
1, 24240, Note_on_c, 0, 58, 40
1, 24480, Tempo, 618557
1, 24480, Note_on_c, 0, 67, 0
1, 24480, Note_on_c, 0, 69, 54
1, 24720, Note_on_c, 0, 69, 0
1, 24720, Note_on_c, 0, 58, 0
1, 24720, Note_on_c, 0, 64, 0
1, 24720, Note_on_c, 0, 60, 0
1, 24720, Note_on_c, 0, 60, 40
1, 24720, Note_on_c, 0, 70, 57
1, 24720, Note_on_c, 0, 64, 40
1, 24720, Note_on_c, 0, 58, 40
1, 24960, Tempo, 641711
1, 24960, Note_on_c, 0, 58, 0
1, 24960, Note_on_c, 0, 70, 0
1, 24960, Note_on_c, 0, 48, 0
1, 24960, Note_on_c, 0, 60, 0
1, 24960, Note_on_c, 0, 64, 0
1, 24960, Note_on_c, 0, 74, 56
1, 24960, Note_on_c, 0, 48, 40
1, 25200, Tempo, 615385
1, 25200, Note_on_c, 0, 62, 52
1, 25440, Note_on_c, 0, 64, 48
1, 25680, Note_on_c, 0, 64, 0
1, 25680, Note_on_c, 0, 62, 0
1, 25680, Note_on_c, 0, 74, 0
1, 25680, Note_on_c, 0, 60, 40
1, 25680, Note_on_c, 0, 66, 48
1, 25680, Note_on_c, 0, 62, 40
1, 25920, Tempo, 628272
1, 25920, Note_on_c, 0, 62, 0
1, 25920, Note_on_c, 0, 48, 0
1, 25920, Note_on_c, 0, 60, 0
1, 25920, Note_on_c, 0, 66, 0
1, 25920, Note_on_c, 0, 58, 41
1, 25920, Note_on_c, 0, 67, 50
1, 25920, Note_on_c, 0, 48, 37
1, 26160, Tempo, 612245
1, 26160, Note_on_c, 0, 67, 0
1, 26160, Note_on_c, 0, 58, 0
1, 26160, Note_on_c, 0, 70, 52
1, 26160, Note_on_c, 0, 55, 32
1, 26160, Note_on_c, 0, 62, 52
1, 26400, Tempo, 603015
1, 26400, Note_on_c, 0, 70, 0
1, 26400, Note_on_c, 0, 48, 0
1, 26400, Note_on_c, 0, 74, 54
1, 26400, Note_on_c, 0, 48, 33
1, 26637, Note_on_c, 0, 62, 0
1, 26640, Tempo, 662983
1, 26640, Note_on_c, 0, 55, 0
1, 26640, Note_on_c, 0, 74, 0
1, 26640, Note_on_c, 0, 60, 32
1, 26640, Note_on_c, 0, 62, 44
1, 26640, Note_on_c, 0, 54, 32
1, 26880, Note_on_c, 0, 54, 0
1, 26880, Note_on_c, 0, 48, 0
1, 26880, Note_on_c, 0, 60, 0
1, 26880, Note_on_c, 0, 62, 0
1, 26880, Note_on_c, 0, 67, 46
1, 26880, Note_on_c, 0, 48, 40
1, 27007, Control_c, 0, 64, 127
1, 27120, Note_on_c, 0, 58, 33
1, 27120, Note_on_c, 0, 62, 30
1, 27120, Note_on_c, 0, 55, 25
1, 27360, Note_on_c, 0, 67, 0
1, 27600, Tempo, 621762
1, 27600, Note_on_c, 0, 62, 0
1, 27600, Note_on_c, 0, 55, 0
1, 27600, Note_on_c, 0, 58, 0
1, 27600, Note_on_c, 0, 70, 53
1, 27600, Note_on_c, 0, 62, 34
1, 27600, Note_on_c, 0, 55, 34
1, 27618, Control_c, 0, 64, 0
1, 27840, Note_on_c, 0, 55, 0
1, 27840, Note_on_c, 0, 48, 0
1, 27840, Note_on_c, 0, 70, 0
1, 27840, Note_on_c, 0, 62, 0
1, 27840, Note_on_c, 0, 74, 59
1, 27840, Note_on_c, 0, 48, 42
1, 28080, Tempo, 612245
1, 28080, Note_on_c, 0, 74, 0
1, 28080, Note_on_c, 0, 66, 32
1, 28080, Note_on_c, 0, 69, 55
1, 28080, Note_on_c, 0, 62, 54
1, 28220, Tempo, 609137
1, 28320, Note_on_c, 0, 69, 0
1, 28320, Note_on_c, 0, 70, 59
1, 28360, Tempo, 606061
1, 28500, Tempo, 603015
1, 28560, Note_on_c, 0, 70, 0
1, 28560, Note_on_c, 0, 62, 0
1, 28560, Note_on_c, 0, 72, 63
1, 28560, Note_on_c, 0, 60, 44
1, 28640, Tempo, 600000
1, 28780, Tempo, 597015
1, 28800, Tempo, 631579
1, 28800, Note_on_c, 0, 60, 0
1, 28800, Note_on_c, 0, 48, 0
1, 28800, Note_on_c, 0, 66, 0
1, 28800, Note_on_c, 0, 72, 0
1, 28800, Note_on_c, 0, 76, 63
1, 28800, Note_on_c, 0, 48, 45
1, 29040, Tempo, 603015
1, 29040, Note_on_c, 0, 64, 59
1, 29040, Note_on_c, 0, 59, 48
1, 29040, Note_on_c, 0, 62, 48
1, 29280, Note_on_c, 0, 66, 52
1, 29517, Note_on_c, 0, 62, 0
1, 29520, Note_on_c, 0, 76, 0
1, 29520, Note_on_c, 0, 64, 0
1, 29520, Note_on_c, 0, 59, 0
1, 29520, Note_on_c, 0, 66, 0
1, 29520, Note_on_c, 0, 62, 44
1, 29520, Note_on_c, 0, 68, 52
1, 29520, Note_on_c, 0, 59, 44
1, 29760, Tempo, 625000
1, 29760, Note_on_c, 0, 59, 0
1, 29760, Note_on_c, 0, 48, 0
1, 29760, Note_on_c, 0, 62, 0
1, 29760, Note_on_c, 0, 68, 0
1, 29760, Note_on_c, 0, 60, 45
1, 29760, Note_on_c, 0, 69, 55
1, 29760, Note_on_c, 0, 48, 40
1, 30000, Tempo, 612245
1, 30000, Note_on_c, 0, 69, 0
1, 30000, Note_on_c, 0, 60, 0
1, 30000, Note_on_c, 0, 72, 57
1, 30000, Note_on_c, 0, 57, 47
1, 30000, Note_on_c, 0, 64, 57
1, 30240, Tempo, 603015
1, 30240, Note_on_c, 0, 72, 0
1, 30240, Note_on_c, 0, 48, 0
1, 30240, Note_on_c, 0, 76, 59
1, 30240, Note_on_c, 0, 48, 36
1, 30480, Tempo, 662983
1, 30480, Note_on_c, 0, 76, 0
1, 30480, Note_on_c, 0, 64, 0
1, 30480, Note_on_c, 0, 57, 0
1, 30480, Note_on_c, 0, 62, 41
1, 30480, Note_on_c, 0, 64, 50
1, 30480, Note_on_c, 0, 56, 41
1, 30720, Tempo, 638298
1, 30720, Note_on_c, 0, 48, 0
1, 30720, Note_on_c, 0, 48, 56
1, 30960, Tempo, 681818
1, 30960, Note_on_c, 0, 62, 0
1, 30960, Note_on_c, 0, 56, 0
1, 30960, Note_on_c, 0, 64, 0
1, 30960, Note_on_c, 0, 60, 57
1, 30960, Note_on_c, 0, 69, 57
1, 30960, Note_on_c, 0, 57, 50
1, 30960, Note_on_c, 0, 64, 50
1, 31100, Tempo, 685714
1, 31200, Note_on_c, 0, 48, 0
1, 31200, Note_on_c, 0, 48, 50
1, 31240, Tempo, 689655
1, 31380, Tempo, 693642
1, 31437, Note_on_c, 0, 60, 0
1, 31440, Note_on_c, 0, 64, 0
1, 31440, Note_on_c, 0, 57, 0
1, 31440, Note_on_c, 0, 69, 0
1, 31440, Note_on_c, 0, 58, 53
1, 31440, Note_on_c, 0, 67, 53
1, 31440, Note_on_c, 0, 52, 50
1, 31440, Note_on_c, 0, 60, 50
1, 31520, Tempo, 697674
1, 31640, Tempo, 701754
1, 31660, Tempo, 697674
1, 31680, Tempo, 736196
1, 31680, Note_on_c, 0, 60, 0
1, 31680, Note_on_c, 0, 67, 0
1, 31680, Note_on_c, 0, 48, 0
1, 31680, Note_on_c, 0, 58, 0
1, 31680, Note_on_c, 0, 52, 0
1, 31680, Note_on_c, 0, 65, 62
1, 31680, Note_on_c, 0, 41, 56
1, 31760, Control_c, 0, 64, 127
1, 31920, Note_on_c, 0, 53, 53
1, 31920, Note_on_c, 0, 60, 53
1, 31920, Note_on_c, 0, 57, 40
1, 31920, Note_on_c, 0, 48, 40
1, 32160, Tempo, 710059
1, 32160, Note_on_c, 0, 65, 0
1, 32160, Note_on_c, 0, 64, 49
1, 32176, Control_c, 0, 64, 0
1, 32400, Note_on_c, 0, 64, 0
1, 32400, Note_on_c, 0, 48, 0
1, 32400, Note_on_c, 0, 60, 0
1, 32400, Note_on_c, 0, 57, 0
1, 32400, Note_on_c, 0, 53, 0
1, 32400, Note_on_c, 0, 53, 35
1, 32400, Note_on_c, 0, 63, 45
1, 32400, Note_on_c, 0, 48, 34
1, 32400, Note_on_c, 0, 57, 34
1, 32640, Tempo, 677966
1, 32640, Note_on_c, 0, 57, 0
1, 32640, Note_on_c, 0, 63, 0
1, 32640, Note_on_c, 0, 41, 0
1, 32640, Note_on_c, 0, 53, 0
1, 32640, Note_on_c, 0, 48, 0
1, 32640, Note_on_c, 0, 74, 48
1, 32640, Note_on_c, 0, 46, 34
1, 32880, Tempo, 705882
1, 32880, Note_on_c, 0, 74, 0
1, 32880, Note_on_c, 0, 65, 27
1, 32880, Note_on_c, 0, 76, 44
1, 32880, Note_on_c, 0, 50, 22
1, 32880, Note_on_c, 0, 58, 24
1, 33120, Tempo, 718563
1, 33120, Note_on_c, 0, 76, 0
1, 33120, Note_on_c, 0, 46, 0
1, 33120, Note_on_c, 0, 77, 44
1, 33120, Note_on_c, 0, 43, 34
1, 33360, Note_on_c, 0, 77, 0
1, 33360, Note_on_c, 0, 65, 0
1, 33360, Note_on_c, 0, 58, 0
1, 33360, Note_on_c, 0, 50, 0
1, 33360, Note_on_c, 0, 65, 27
1, 33360, Note_on_c, 0, 79, 44
1, 33360, Note_on_c, 0, 62, 17
1, 33360, Note_on_c, 0, 58, 17
1, 33600, Tempo, 685714
1, 33600, Note_on_c, 0, 58, 0
1, 33600, Note_on_c, 0, 79, 0
1, 33600, Note_on_c, 0, 43, 0
1, 33600, Note_on_c, 0, 65, 0
1, 33600, Note_on_c, 0, 62, 0
1, 33600, Note_on_c, 0, 72, 46
1, 33600, Note_on_c, 0, 48, 30
1, 33800, Tempo, 681818
1, 33840, Note_on_c, 0, 48, 0
1, 33840, Note_on_c, 0, 60, 26
1, 33840, Note_on_c, 0, 67, 37
1, 33840, Note_on_c, 0, 58, 32
1, 33840, Note_on_c, 0, 64, 22
1, 33900, Tempo, 685714
1, 33980, Tempo, 689655
1, 34060, Tempo, 693642
1, 34080, Note_on_c, 0, 58, 0
1, 34080, Note_on_c, 0, 67, 0
1, 34080, Note_on_c, 0, 69, 37
1, 34080, Note_on_c, 0, 57, 35
1, 34160, Tempo, 697674
1, 34240, Tempo, 701754
1, 34320, Tempo, 705882
1, 34320, Note_on_c, 0, 57, 0
1, 34320, Note_on_c, 0, 72, 0
1, 34320, Note_on_c, 0, 64, 0
1, 34320, Note_on_c, 0, 60, 0
1, 34320, Note_on_c, 0, 69, 0
1, 34320, Note_on_c, 0, 60, 26
1, 34320, Note_on_c, 0, 70, 36
1, 34320, Note_on_c, 0, 55, 28
1, 34320, Note_on_c, 0, 64, 22
1, 34560, Note_on_c, 0, 64, 0
1, 34560, Note_on_c, 0, 60, 0
1, 34560, Note_on_c, 0, 70, 0
1, 34560, Note_on_c, 0, 55, 0
1, 34560, Note_on_c, 0, 69, 37
1, 34560, Note_on_c, 0, 53, 33
1, 34659, Control_c, 0, 64, 127
1, 34800, Note_on_c, 0, 65, 24
1, 34800, Note_on_c, 0, 60, 20
1, 34800, Note_on_c, 0, 57, 20
1, 35040, Note_on_c, 0, 53, 0
1, 35040, Note_on_c, 0, 69, 0
1, 35277, Note_on_c, 0, 65, 0
1, 35280, Note_on_c, 0, 60, 0
1, 35280, Note_on_c, 0, 57, 0
1, 35280, Note_on_c, 0, 72, 50
1, 35280, Note_on_c, 0, 65, 22
1, 35280, Note_on_c, 0, 57, 22
1, 35286, Control_c, 0, 64, 0
1, 35393, Control_c, 0, 64, 127
1, 35520, Tempo, 659341
1, 35520, Note_on_c, 0, 57, 0
1, 35520, Note_on_c, 0, 65, 0
1, 35520, Note_on_c, 0, 72, 0
1, 35520, Note_on_c, 0, 72, 50
1, 35520, Note_on_c, 0, 53, 36
1, 35760, Tempo, 641711
1, 35760, Note_on_c, 0, 72, 0
1, 35760, Note_on_c, 0, 77, 54
1, 35760, Note_on_c, 0, 65, 27
1, 35760, Note_on_c, 0, 69, 21
1, 35760, Note_on_c, 0, 60, 21
1, 36000, Tempo, 634921
1, 36000, Note_on_c, 0, 77, 0
1, 36000, Note_on_c, 0, 53, 0
1, 36000, Note_on_c, 0, 76, 50
1, 36000, Note_on_c, 0, 57, 33
1, 36237, Note_on_c, 0, 65, 0
1, 36240, Tempo, 628272
1, 36240, Note_on_c, 0, 76, 0
1, 36240, Note_on_c, 0, 60, 0
1, 36240, Note_on_c, 0, 69, 0
1, 36240, Note_on_c, 0, 63, 27
1, 36240, Note_on_c, 0, 75, 45
1, 36240, Note_on_c, 0, 65, 18
1, 36240, Note_on_c, 0, 60, 18
1, 36480, Tempo, 689655
1, 36480, Note_on_c, 0, 60, 0
1, 36480, Note_on_c, 0, 75, 0
1, 36480, Note_on_c, 0, 57, 0
1, 36480, Note_on_c, 0, 63, 0
1, 36480, Note_on_c, 0, 65, 0
1, 36480, Note_on_c, 0, 74, 46
1, 36480, Control_c, 0, 64, 0
1, 36480, Note_on_c, 0, 58, 36
1, 36546, Control_c, 0, 64, 127
1, 36720, Tempo, 722892
1, 36720, Note_on_c, 0, 74, 0
1, 36720, Note_on_c, 0, 65, 27
1, 36720, Note_on_c, 0, 76, 46
1, 36720, Note_on_c, 0, 70, 25
1, 36720, Note_on_c, 0, 62, 25
1, 36940, Tempo, 670391
1, 36960, Tempo, 722892
1, 36960, Note_on_c, 0, 62, 0
1, 36960, Note_on_c, 0, 76, 0
1, 36960, Note_on_c, 0, 70, 0
1, 36960, Note_on_c, 0, 58, 0
1, 36960, Note_on_c, 0, 77, 49
1, 36960, Note_on_c, 0, 55, 29
1, 36974, Control_c, 0, 64, 0
1, 37020, Tempo, 731707
1, 37032, Control_c, 0, 64, 127
1, 37080, Tempo, 740741
1, 37120, Tempo, 750000
1, 37140, Note_on_c, 0, 59, 22
1, 37150, Note_on_c, 0, 62, 22
1, 37160, Note_on_c, 0, 71, 22
1, 37170, Note_on_c, 0, 65, 27
1, 37180, Tempo, 759494
1, 37180, Note_on_c, 0, 67, 25
1, 37190, Note_on_c, 0, 74, 25
1, 37200, Note_on_c, 0, 77, 0
1, 37200, Note_on_c, 0, 65, 0
1, 37200, Note_on_c, 0, 79, 43
1, 37220, Tempo, 769231
1, 37280, Tempo, 779221
1, 37320, Tempo, 789474
1, 37380, Tempo, 800000
1, 37420, Tempo, 810811
1, 37440, Tempo, 827586
1, 37440, Note_on_c, 0, 79, 0
1, 37440, Note_on_c, 0, 74, 0
1, 37440, Note_on_c, 0, 71, 0
1, 37440, Note_on_c, 0, 55, 0
1, 37440, Note_on_c, 0, 62, 0
1, 37440, Note_on_c, 0, 67, 0
1, 37440, Note_on_c, 0, 65, 0
1, 37440, Note_on_c, 0, 59, 0
1, 37440, Note_on_c, 0, 81, 49
1, 37440, Control_c, 0, 64, 0
1, 37440, Note_on_c, 0, 60, 34
1, 37539, Control_c, 0, 64, 127
1, 37680, Tempo, 736196
1, 37680, Note_on_c, 0, 69, 28
1, 37680, Note_on_c, 0, 72, 25
1, 37680, Note_on_c, 0, 69, 21
1, 37680, Note_on_c, 0, 65, 21
1, 37920, Tempo, 789474
1, 37920, Note_on_c, 0, 60, 0
1, 37920, Note_on_c, 0, 81, 0
1, 37920, Note_on_c, 0, 79, 44
1, 37920, Note_on_c, 0, 60, 31
1, 37934, Control_c, 0, 64, 0
1, 38160, Tempo, 869565
1, 38160, Note_on_c, 0, 69, 0
1, 38160, Note_on_c, 0, 69, 0
1, 38160, Note_on_c, 0, 72, 0
1, 38160, Note_on_c, 0, 65, 0
1, 38160, Note_on_c, 0, 67, 25
1, 38160, Note_on_c, 0, 72, 25
1, 38160, Control_c, 0, 64, 127
1, 38160, Note_on_c, 0, 64, 17
1, 38160, Note_on_c, 0, 70, 17
1, 38400, Note_on_c, 0, 70, 0
1, 38400, Note_on_c, 0, 60, 0
1, 38400, Note_on_c, 0, 67, 0
1, 38400, Note_on_c, 0, 79, 0
1, 38400, Note_on_c, 0, 64, 0
1, 38400, Note_on_c, 0, 72, 0
1, 38400, Note_on_c, 0, 77, 38
1, 38400, Note_on_c, 0, 53, 29
1, 38418, Control_c, 0, 64, 0
1, 38513, Control_c, 0, 64, 127
1, 38640, Note_on_c, 0, 65, 25
1, 38640, Note_on_c, 0, 72, 25
1, 38640, Note_on_c, 0, 69, 17
1, 38640, Note_on_c, 0, 60, 17
1, 38880, Note_on_c, 0, 53, 0
1, 38880, Note_on_c, 0, 77, 0
1, 39120, Tempo, 625000
1, 39120, Note_on_c, 0, 69, 0
1, 39120, Note_on_c, 0, 72, 0
1, 39120, Note_on_c, 0, 60, 0
1, 39120, Note_on_c, 0, 65, 0
1, 39120, Note_on_c, 0, 65, 47
1, 39120, Note_on_c, 0, 72, 47
1, 39120, Note_on_c, 0, 69, 33
1, 39120, Note_on_c, 0, 60, 33
1, 39122, Control_c, 0, 64, 0
1, 39330, Note_on_c, 0, 60, 0
1, 39330, Note_on_c, 0, 65, 0
1, 39330, Note_on_c, 0, 72, 0
1, 39330, Note_on_c, 0, 69, 0
1, 39360, Tempo, 609137
1, 39360, Note_on_c, 0, 65, 57
1, 39360, Note_on_c, 0, 74, 57
1, 39360, Note_on_c, 0, 68, 42
1, 39360, Note_on_c, 0, 59, 42
1, 39600, Tempo, 625000
1, 39600, Note_on_c, 0, 59, 0
1, 39600, Note_on_c, 0, 65, 0
1, 39600, Note_on_c, 0, 74, 0
1, 39600, Note_on_c, 0, 68, 0
1, 39600, Note_on_c, 0, 64, 47
1, 39600, Note_on_c, 0, 72, 47
1, 39600, Note_on_c, 0, 67, 39
1, 39600, Note_on_c, 0, 60, 39
1, 39810, Note_on_c, 0, 60, 0
1, 39810, Note_on_c, 0, 64, 0
1, 39810, Note_on_c, 0, 72, 0
1, 39810, Note_on_c, 0, 67, 0
1, 39840, Tempo, 612245
1, 39840, Note_on_c, 0, 65, 58
1, 39840, Note_on_c, 0, 74, 58
1, 39840, Note_on_c, 0, 59, 42
1, 39840, Note_on_c, 0, 68, 42
1, 40080, Tempo, 625000
1, 40080, Note_on_c, 0, 68, 0
1, 40080, Note_on_c, 0, 65, 0
1, 40080, Note_on_c, 0, 74, 0
1, 40080, Note_on_c, 0, 59, 0
1, 40080, Note_on_c, 0, 64, 47
1, 40080, Note_on_c, 0, 72, 47
1, 40080, Note_on_c, 0, 60, 39
1, 40080, Note_on_c, 0, 67, 39
1, 40290, Note_on_c, 0, 67, 0
1, 40290, Note_on_c, 0, 64, 0
1, 40290, Note_on_c, 0, 72, 0
1, 40290, Note_on_c, 0, 60, 0
1, 40320, Tempo, 606061
1, 40320, Note_on_c, 0, 63, 54
1, 40320, Note_on_c, 0, 72, 54
1, 40320, Note_on_c, 0, 57, 39
1, 40530, Note_on_c, 0, 72, 0
1, 40530, Note_on_c, 0, 63, 0
1, 40560, Tempo, 612245
1, 40560, Note_on_c, 0, 57, 0
1, 40560, Note_on_c, 0, 62, 47
1, 40560, Note_on_c, 0, 70, 51
1, 40560, Note_on_c, 0, 65, 37
1, 40560, Note_on_c, 0, 58, 37
1, 40800, Tempo, 603015
1, 40800, Note_on_c, 0, 58, 0
1, 40800, Note_on_c, 0, 62, 0
1, 40800, Note_on_c, 0, 61, 47
1, 40800, Note_on_c, 0, 55, 37
1, 41040, Tempo, 612245
1, 41040, Note_on_c, 0, 55, 0
1, 41040, Note_on_c, 0, 61, 0
1, 41040, Note_on_c, 0, 70, 0
1, 41040, Note_on_c, 0, 60, 46
1, 41040, Note_on_c, 0, 69, 46
1, 41040, Note_on_c, 0, 57, 36
1, 41280, Tempo, 621762
1, 41280, Note_on_c, 0, 57, 0
1, 41280, Note_on_c, 0, 69, 0
1, 41280, Note_on_c, 0, 60, 0
1, 41280, Note_on_c, 0, 62, 50
1, 41280, Note_on_c, 0, 67, 50
1, 41280, Note_on_c, 0, 58, 39
1, 41520, Tempo, 638298
1, 41520, Note_on_c, 0, 58, 0
1, 41520, Note_on_c, 0, 55, 34
1, 41760, Tempo, 655738
1, 41760, Note_on_c, 0, 55, 0
1, 41760, Note_on_c, 0, 67, 0
1, 41760, Note_on_c, 0, 62, 0
1, 41760, Note_on_c, 0, 65, 0
1, 41760, Note_on_c, 0, 64, 43
1, 41760, Note_on_c, 0, 69, 43
1, 41760, Note_on_c, 0, 60, 37
1, 42000, Note_on_c, 0, 60, 0
1, 42000, Note_on_c, 0, 58, 31
1, 42240, Tempo, 662983
1, 42240, Note_on_c, 0, 58, 0
1, 42240, Note_on_c, 0, 69, 0
1, 42240, Note_on_c, 0, 64, 0
1, 42240, Note_on_c, 0, 60, 38
1, 42240, Note_on_c, 0, 65, 38
1, 42240, Note_on_c, 0, 57, 35
1, 42353, Control_c, 0, 64, 127
1, 42480, Note_on_c, 0, 53, 35
1, 42720, Tempo, 655738
1, 42720, Note_on_c, 0, 53, 0
1, 42720, Note_on_c, 0, 48, 35
1, 42734, Control_c, 0, 64, 0
1, 42960, Tempo, 625000
1, 42960, Note_on_c, 0, 60, 0
1, 42960, Note_on_c, 0, 57, 0
1, 42960, Note_on_c, 0, 65, 0
1, 42960, Note_on_c, 0, 53, 39
1, 42960, Note_on_c, 0, 60, 39
1, 42960, Note_on_c, 0, 48, 33
1, 42960, Note_on_c, 0, 57, 33
1, 43170, Note_on_c, 0, 57, 0
1, 43170, Note_on_c, 0, 60, 0
1, 43170, Note_on_c, 0, 48, 0
1, 43170, Note_on_c, 0, 53, 0
1, 43200, Tempo, 609137
1, 43200, Note_on_c, 0, 48, 0
1, 43200, Note_on_c, 0, 53, 50
1, 43200, Note_on_c, 0, 62, 50
1, 43200, Note_on_c, 0, 56, 35
1, 43200, Note_on_c, 0, 47, 35
1, 43440, Tempo, 625000
1, 43440, Note_on_c, 0, 47, 0
1, 43440, Note_on_c, 0, 53, 0
1, 43440, Note_on_c, 0, 62, 0
1, 43440, Note_on_c, 0, 56, 0
1, 43440, Note_on_c, 0, 52, 39
1, 43440, Note_on_c, 0, 60, 39
1, 43440, Note_on_c, 0, 55, 32
1, 43440, Note_on_c, 0, 48, 32
1, 43650, Note_on_c, 0, 48, 0
1, 43650, Note_on_c, 0, 52, 0
1, 43650, Note_on_c, 0, 60, 0
1, 43650, Note_on_c, 0, 55, 0
1, 43680, Tempo, 609137
1, 43680, Note_on_c, 0, 53, 51
1, 43680, Note_on_c, 0, 62, 51
1, 43680, Note_on_c, 0, 47, 36
1, 43680, Note_on_c, 0, 56, 36
1, 43920, Tempo, 625000
1, 43920, Note_on_c, 0, 56, 0
1, 43920, Note_on_c, 0, 53, 0
1, 43920, Note_on_c, 0, 62, 0
1, 43920, Note_on_c, 0, 47, 0
1, 43920, Note_on_c, 0, 52, 39
1, 43920, Note_on_c, 0, 60, 39
1, 43920, Note_on_c, 0, 48, 34
1, 43920, Note_on_c, 0, 55, 34
1, 44130, Note_on_c, 0, 55, 0
1, 44130, Note_on_c, 0, 52, 0
1, 44130, Note_on_c, 0, 60, 0
1, 44130, Note_on_c, 0, 48, 0
1, 44160, Tempo, 641711
1, 44160, Note_on_c, 0, 51, 48
1, 44160, Note_on_c, 0, 60, 48
1, 44160, Note_on_c, 0, 45, 38
1, 44370, Note_on_c, 0, 60, 0
1, 44370, Note_on_c, 0, 51, 0
1, 44400, Tempo, 659341
1, 44400, Note_on_c, 0, 45, 0
1, 44400, Note_on_c, 0, 50, 42
1, 44400, Note_on_c, 0, 58, 46
1, 44400, Note_on_c, 0, 53, 33
1, 44400, Note_on_c, 0, 46, 33
1, 44640, Tempo, 641711
1, 44640, Note_on_c, 0, 46, 0
1, 44640, Note_on_c, 0, 50, 0
1, 44640, Note_on_c, 0, 49, 42
1, 44640, Note_on_c, 0, 43, 41
1, 44880, Tempo, 714286
1, 44880, Note_on_c, 0, 43, 0
1, 44880, Note_on_c, 0, 49, 0
1, 44880, Note_on_c, 0, 58, 0
1, 44880, Note_on_c, 0, 48, 41
1, 44880, Note_on_c, 0, 57, 41
1, 44880, Note_on_c, 0, 45, 37
1, 45120, Tempo, 736196
1, 45120, Note_on_c, 0, 45, 0
1, 45120, Note_on_c, 0, 57, 0
1, 45120, Note_on_c, 0, 48, 0
1, 45120, Note_on_c, 0, 50, 39
1, 45120, Note_on_c, 0, 55, 39
1, 45120, Note_on_c, 0, 46, 46
1, 45240, Control_c, 0, 64, 127
1, 45360, Tempo, 769231
1, 45360, Note_on_c, 0, 46, 0
1, 45360, Note_on_c, 0, 43, 35
1, 45600, Tempo, 810811
1, 45600, Note_on_c, 0, 43, 0
1, 45600, Note_on_c, 0, 55, 0
1, 45600, Note_on_c, 0, 50, 0
1, 45600, Note_on_c, 0, 53, 0
1, 45600, Note_on_c, 0, 52, 38
1, 45600, Note_on_c, 0, 57, 38
1, 45600, Note_on_c, 0, 48, 41
1, 45603, Control_c, 0, 64, 0
1, 45720, Control_c, 0, 64, 127
1, 45840, Tempo, 902256
1, 45840, Note_on_c, 0, 36, 33
1, 46080, Tempo, 1061947
1, 46080, Note_on_c, 0, 36, 0
1, 46080, Note_on_c, 0, 52, 0
1, 46080, Note_on_c, 0, 57, 0
1, 46080, Note_on_c, 0, 48, 0
1, 46080, Note_on_c, 0, 48, 34
1, 46080, Note_on_c, 0, 53, 34
1, 46080, Note_on_c, 0, 45, 37
1, 46083, Control_c, 0, 64, 0
1, 46200, Control_c, 0, 64, 127
1, 46320, Tempo, 1764706
1, 46320, Note_on_c, 0, 36, 31
1, 46560, Tempo, 2264151
1, 46560, Note_on_c, 0, 36, 0
1, 46560, Note_on_c, 0, 29, 26
1, 46800, Note_on_c, 0, 48, 0
1, 46800, Note_on_c, 0, 53, 0
1, 47040, Marker_t, "Fine"
1, 47040, Note_on_c, 0, 45, 0
1, 47040, Note_on_c, 0, 29, 0
1, 47814, Control_c, 0, 64, 0
1, 47814, End_track
0, 0, End_of_file
