0, 0, Header, 0, 1, 480
1, 0, Start_track
1, 0, Title_t, "Kinderszenen Opus 15"
1, 0, Title_t, "Fürchtenmachen"
1, 0, Copyright_t, "Copyright © 1997 von Bernd Krüger."
1, 0, Text_t, "Robert Schumann"
1, 0, Text_t, "Fertiggestellt am 27.12.97\012"
1, 0, Text_t, "Korrekturen am 4.9.98\012"
1, 0, Text_t, "Anpassungen an Digitalpiano am 1.1.99\012"
1, 0, Text_t, "Update am 9.7.99\012"
1, 0, Text_t, "Update am 20.7.99\012"
1, 0, Text_t, "Normierung: 23.12.2002\012"
1, 0, Text_t, "Update am 18.10.2008\012"
1, 0, Text_t, "Update am 26.3.2014\012"
1, 0, Text_t, "Dauer: 1:16 Minuten\012"
1, 0, Time_signature, 2, 2, 24, 8
1, 0, Key_signature, 1, "major"
1, 0, Tempo, 615385
1, 0, Marker_t, "Hobgoblin"
1, 0, Program_c, 0, 0
1, 0, Control_c, 0, 7, 100
1, 0, Control_c, 0, 10, 64
1, 0, Control_c, 0, 64, 0
1, 0, Control_c, 0, 91, 127
1, 0, Note_on_c, 0, 71, 49
1, 0, Text_t, "bdca426d104a26ac9dcb070447587523"
1, 0, Control_c, 0, 91, 127
1, 0, Program_c, 0, 0
1, 0, Control_c, 0, 7, 100
1, 0, Control_c, 0, 10, 64
1, 0, Control_c, 0, 91, 127
1, 0, Control_c, 0, 64, 0
1, 0, Control_c, 0, 64, 0
1, 113, Control_c, 0, 64, 127
1, 240, Note_on_c, 0, 64, 35
1, 240, Note_on_c, 0, 67, 35
1, 459, Control_c, 0, 64, 0
1, 480, Tempo, 600000
1, 480, Note_on_c, 0, 67, 0
1, 480, Note_on_c, 0, 64, 0
1, 480, Note_on_c, 0, 71, 0
1, 480, Note_on_c, 0, 63, 29
1, 480, Note_on_c, 0, 66, 29
1, 480, Note_on_c, 0, 71, 49
1, 720, Note_on_c, 0, 66, 0
1, 720, Note_on_c, 0, 63, 0
1, 720, Note_on_c, 0, 62, 35
1, 720, Note_on_c, 0, 65, 34
1, 840, Note_on_c, 0, 71, 0
1, 840, Note_on_c, 0, 71, 40
1, 960, Note_on_c, 0, 71, 0
1, 960, Note_on_c, 0, 65, 0
1, 960, Note_on_c, 0, 62, 0
1, 960, Note_on_c, 0, 61, 33
1, 960, Note_on_c, 0, 71, 49
1, 960, Note_on_c, 0, 64, 33
1, 1200, Tempo, 612245
1, 1200, Note_on_c, 0, 71, 0
1, 1200, Note_on_c, 0, 70, 46
1, 1440, Tempo, 582524
1, 1440, Note_on_c, 0, 70, 0
1, 1440, Note_on_c, 0, 76, 48
1, 1680, Tempo, 591133
1, 1680, Note_on_c, 0, 76, 0
1, 1680, Note_on_c, 0, 64, 0
1, 1680, Note_on_c, 0, 61, 0
1, 1680, Note_on_c, 0, 69, 33
1, 1680, Note_on_c, 0, 60, 33
1, 1680, Note_on_c, 0, 63, 33
1, 1680, Note_on_c, 0, 75, 47
1, 1920, Tempo, 600000
1, 1920, Note_on_c, 0, 75, 0
1, 1920, Note_on_c, 0, 63, 0
1, 1920, Note_on_c, 0, 60, 0
1, 1920, Note_on_c, 0, 74, 49
1, 1920, Note_on_c, 0, 59, 41
1, 1920, Note_on_c, 0, 62, 41
1, 2160, Tempo, 631579
1, 2160, Note_on_c, 0, 74, 0
1, 2160, Note_on_c, 0, 69, 0
1, 2160, Note_on_c, 0, 67, 42
1, 2400, Tempo, 600000
1, 2400, Note_on_c, 0, 67, 0
1, 2400, Note_on_c, 0, 59, 0
1, 2400, Note_on_c, 0, 62, 0
1, 2400, Note_on_c, 0, 66, 34
1, 2400, Note_on_c, 0, 72, 47
1, 2400, Note_on_c, 0, 62, 39
1, 2400, Note_on_c, 0, 57, 39
1, 2480, Tempo, 603015
1, 2544, Tempo, 606061
1, 2612, Tempo, 609137
1, 2640, Note_on_c, 0, 66, 0
1, 2640, Note_on_c, 0, 67, 39
1, 2680, Tempo, 612245
1, 2744, Tempo, 615385
1, 2760, Note_on_c, 0, 72, 0
1, 2760, Note_on_c, 0, 57, 0
1, 2760, Note_on_c, 0, 62, 0
1, 2760, Note_on_c, 0, 71, 45
1, 2760, Note_on_c, 0, 62, 34
1, 2760, Note_on_c, 0, 55, 34
1, 2812, Tempo, 618557
1, 2880, Tempo, 621762
1, 2880, Note_on_c, 0, 55, 0
1, 2880, Note_on_c, 0, 67, 0
1, 2880, Note_on_c, 0, 71, 0
1, 2880, Note_on_c, 0, 62, 0
1, 2880, Note_on_c, 0, 67, 46
1, 2880, Note_on_c, 0, 71, 46
1, 2880, Note_on_c, 0, 62, 38
1, 2880, Note_on_c, 0, 55, 38
1, 2965, Control_c, 0, 64, 127
1, 3120, Note_on_c, 0, 55, 0
1, 3120, Note_on_c, 0, 59, 39
1, 3360, Note_on_c, 0, 59, 0
1, 3360, Note_on_c, 0, 62, 0
1, 3360, Note_on_c, 0, 71, 0
1, 3360, Note_on_c, 0, 67, 0
1, 3360, Note_on_c, 0, 69, 45
1, 3360, Note_on_c, 0, 66, 45
1, 3360, Note_on_c, 0, 62, 40
1, 3374, Control_c, 0, 64, 0
1, 3516, Control_c, 0, 64, 127
1, 3600, Note_on_c, 0, 50, 38
1, 3840, Tempo, 612245
1, 3840, Note_on_c, 0, 62, 0
1, 3840, Note_on_c, 0, 69, 0
1, 3840, Note_on_c, 0, 66, 0
1, 3840, Control_c, 0, 64, 0
1, 3840, Note_on_c, 0, 62, 61
1, 4080, Note_on_c, 0, 79, 46
1, 4080, Note_on_c, 0, 71, 46
1, 4080, Note_on_c, 0, 74, 46
1, 4320, Tempo, 603015
1, 4320, Note_on_c, 0, 74, 0
1, 4320, Note_on_c, 0, 79, 0
1, 4320, Note_on_c, 0, 71, 0
1, 4320, Note_on_c, 0, 62, 0
1, 4320, Note_on_c, 0, 78, 48
1, 4320, Note_on_c, 0, 69, 48
1, 4320, Note_on_c, 0, 74, 48
1, 4320, Note_on_c, 0, 62, 60
1, 4560, Note_on_c, 0, 74, 0
1, 4560, Note_on_c, 0, 69, 0
1, 4560, Note_on_c, 0, 78, 0
1, 4560, Note_on_c, 0, 76, 50
1, 4560, Note_on_c, 0, 67, 50
1, 4560, Note_on_c, 0, 73, 50
1, 4680, Note_on_c, 0, 62, 0
1, 4680, Note_on_c, 0, 62, 56
1, 4800, Tempo, 600000
1, 4800, Note_on_c, 0, 62, 0
1, 4800, Note_on_c, 0, 73, 0
1, 4800, Note_on_c, 0, 50, 0
1, 4800, Note_on_c, 0, 76, 0
1, 4800, Note_on_c, 0, 67, 0
1, 4800, Note_on_c, 0, 74, 56
1, 4800, Note_on_c, 0, 66, 56
1, 4800, Note_on_c, 0, 69, 56
1, 4800, Note_on_c, 0, 62, 60
1, 4857, Control_c, 0, 64, 127
1, 5040, Tempo, 615385
1, 5040, Note_on_c, 0, 62, 0
1, 5040, Note_on_c, 0, 60, 56
1, 5280, Tempo, 574163
1, 5280, Note_on_c, 0, 60, 0
1, 5280, Note_on_c, 0, 64, 58
1, 5294, Control_c, 0, 64, 0
1, 5520, Tempo, 591133
1, 5520, Note_on_c, 0, 64, 0
1, 5520, Note_on_c, 0, 62, 55
1, 5548, Control_c, 0, 64, 127
1, 5760, Tempo, 600000
1, 5760, Note_on_c, 0, 62, 0
1, 5760, Control_c, 0, 64, 0
1, 5760, Note_on_c, 0, 60, 57
1, 5920, Tempo, 603015
1, 6000, Tempo, 618557
1, 6000, Note_on_c, 0, 60, 0
1, 6000, Note_on_c, 0, 74, 0
1, 6000, Note_on_c, 0, 66, 0
1, 6000, Note_on_c, 0, 69, 0
1, 6000, Note_on_c, 0, 67, 45
1, 6000, Note_on_c, 0, 74, 45
1, 6000, Note_on_c, 0, 59, 51
1, 6000, Note_on_c, 0, 62, 51
1, 6240, Tempo, 628272
1, 6240, Note_on_c, 0, 62, 0
1, 6240, Note_on_c, 0, 67, 0
1, 6240, Note_on_c, 0, 74, 0
1, 6240, Note_on_c, 0, 59, 0
1, 6240, Note_on_c, 0, 66, 42
1, 6240, Note_on_c, 0, 72, 42
1, 6240, Note_on_c, 0, 57, 55
1, 6240, Note_on_c, 0, 62, 55
1, 6480, Note_on_c, 0, 66, 0
1, 6480, Note_on_c, 0, 67, 41
1, 6600, Tempo, 659341
1, 6600, Note_on_c, 0, 72, 0
1, 6600, Note_on_c, 0, 62, 0
1, 6600, Note_on_c, 0, 57, 0
1, 6600, Note_on_c, 0, 71, 41
1, 6600, Note_on_c, 0, 55, 45
1, 6600, Note_on_c, 0, 62, 45
1, 6720, Tempo, 701754
1, 6720, Note_on_c, 0, 62, 0
1, 6720, Note_on_c, 0, 67, 0
1, 6720, Note_on_c, 0, 71, 0
1, 6720, Note_on_c, 0, 55, 0
1, 6720, Note_on_c, 0, 67, 44
1, 6720, Note_on_c, 0, 71, 44
1, 6720, Note_on_c, 0, 55, 50
1, 6720, Note_on_c, 0, 62, 50
1, 6724, Control_c, 0, 64, 127
1, 6960, Tempo, 641711
1, 6960, Note_on_c, 0, 55, 0
1, 6960, Note_on_c, 0, 59, 35
1, 7200, Tempo, 685714
1, 7200, Note_on_c, 0, 59, 0
1, 7200, Note_on_c, 0, 62, 0
1, 7200, Note_on_c, 0, 71, 0
1, 7200, Note_on_c, 0, 67, 0
1, 7200, Note_on_c, 0, 69, 40
1, 7200, Note_on_c, 0, 66, 40
1, 7200, Note_on_c, 0, 62, 38
1, 7210, Control_c, 0, 64, 0
1, 7384, Control_c, 0, 64, 127
1, 7440, Tempo, 722892
1, 7440, Note_on_c, 0, 50, 33
1, 7680, Tempo, 615385
1, 7680, Note_on_c, 0, 50, 0
1, 7680, Note_on_c, 0, 69, 0
1, 7680, Note_on_c, 0, 66, 0
1, 7680, Note_on_c, 0, 62, 0
1, 7680, Control_c, 0, 91, 127
1, 7680, Note_on_c, 0, 71, 49
1, 7680, Control_c, 0, 64, 0
1, 7680, Control_c, 0, 91, 127
1, 7793, Control_c, 0, 64, 127
1, 7920, Note_on_c, 0, 64, 35
1, 7920, Note_on_c, 0, 67, 35
1, 8160, Tempo, 600000
1, 8160, Note_on_c, 0, 67, 0
1, 8160, Note_on_c, 0, 64, 0
1, 8160, Note_on_c, 0, 71, 0
1, 8160, Note_on_c, 0, 63, 29
1, 8160, Note_on_c, 0, 66, 29
1, 8160, Note_on_c, 0, 71, 49
1, 8168, Control_c, 0, 64, 0
1, 8400, Note_on_c, 0, 66, 0
1, 8400, Note_on_c, 0, 63, 0
1, 8400, Note_on_c, 0, 62, 35
1, 8400, Note_on_c, 0, 65, 34
1, 8520, Note_on_c, 0, 71, 0
1, 8520, Note_on_c, 0, 71, 40
1, 8640, Note_on_c, 0, 71, 0
1, 8640, Note_on_c, 0, 65, 0
1, 8640, Note_on_c, 0, 62, 0
1, 8640, Note_on_c, 0, 61, 33
1, 8640, Note_on_c, 0, 64, 33
1, 8640, Note_on_c, 0, 71, 49
1, 8880, Tempo, 612245
1, 8880, Note_on_c, 0, 71, 0
1, 8880, Note_on_c, 0, 70, 46
1, 9120, Tempo, 582524
1, 9120, Note_on_c, 0, 70, 0
1, 9120, Note_on_c, 0, 76, 48
1, 9360, Tempo, 591133
1, 9360, Note_on_c, 0, 76, 0
1, 9360, Note_on_c, 0, 64, 0
1, 9360, Note_on_c, 0, 61, 0
1, 9360, Note_on_c, 0, 60, 33
1, 9360, Note_on_c, 0, 63, 33
1, 9360, Note_on_c, 0, 69, 33
1, 9360, Note_on_c, 0, 75, 47
1, 9600, Tempo, 600000
1, 9600, Note_on_c, 0, 75, 0
1, 9600, Note_on_c, 0, 60, 0
1, 9600, Note_on_c, 0, 63, 0
1, 9600, Note_on_c, 0, 74, 49
1, 9600, Note_on_c, 0, 62, 41
1, 9600, Note_on_c, 0, 59, 41
1, 9840, Tempo, 631579
1, 9840, Note_on_c, 0, 74, 0
1, 9840, Note_on_c, 0, 69, 0
1, 9840, Note_on_c, 0, 67, 42
1, 10080, Tempo, 600000
1, 10080, Note_on_c, 0, 67, 0
1, 10080, Note_on_c, 0, 62, 0
1, 10080, Note_on_c, 0, 59, 0
1, 10080, Note_on_c, 0, 66, 34
1, 10080, Note_on_c, 0, 72, 47
1, 10080, Note_on_c, 0, 57, 39
1, 10080, Note_on_c, 0, 62, 39
1, 10160, Tempo, 603015
1, 10224, Tempo, 606061
1, 10292, Tempo, 609137
1, 10320, Note_on_c, 0, 66, 0
1, 10320, Note_on_c, 0, 67, 39
1, 10360, Tempo, 612245
1, 10424, Tempo, 615385
1, 10440, Note_on_c, 0, 72, 0
1, 10440, Note_on_c, 0, 62, 0
1, 10440, Note_on_c, 0, 57, 0
1, 10440, Note_on_c, 0, 71, 45
1, 10440, Note_on_c, 0, 55, 34
1, 10440, Note_on_c, 0, 62, 34
1, 10492, Tempo, 618557
1, 10560, Tempo, 621762
1, 10560, Note_on_c, 0, 62, 0
1, 10560, Note_on_c, 0, 67, 0
1, 10560, Note_on_c, 0, 71, 0
1, 10560, Note_on_c, 0, 55, 0
1, 10560, Note_on_c, 0, 67, 46
1, 10560, Note_on_c, 0, 71, 46
1, 10560, Note_on_c, 0, 55, 38
1, 10560, Note_on_c, 0, 62, 38
1, 10617, Control_c, 0, 64, 127
1, 10800, Note_on_c, 0, 55, 0
1, 10800, Note_on_c, 0, 59, 39
1, 11040, Note_on_c, 0, 59, 0
1, 11040, Note_on_c, 0, 62, 0
1, 11040, Note_on_c, 0, 71, 0
1, 11040, Note_on_c, 0, 67, 0
1, 11040, Note_on_c, 0, 66, 45
1, 11040, Note_on_c, 0, 69, 45
1, 11040, Note_on_c, 0, 62, 40
1, 11054, Control_c, 0, 64, 0
1, 11266, Control_c, 0, 64, 127
1, 11280, Note_on_c, 0, 50, 38
1, 11520, Tempo, 609137
1, 11520, Note_on_c, 0, 62, 0
1, 11520, Note_on_c, 0, 66, 0
1, 11520, Note_on_c, 0, 69, 0
1, 11520, Note_on_c, 0, 62, 61
1, 11534, Control_c, 0, 64, 0
1, 11760, Note_on_c, 0, 71, 46
1, 11760, Note_on_c, 0, 74, 46
1, 11760, Note_on_c, 0, 79, 46
1, 12000, Tempo, 603015
1, 12000, Note_on_c, 0, 79, 0
1, 12000, Note_on_c, 0, 71, 0
1, 12000, Note_on_c, 0, 74, 0
1, 12000, Note_on_c, 0, 62, 0
1, 12000, Note_on_c, 0, 69, 48
1, 12000, Note_on_c, 0, 74, 48
1, 12000, Note_on_c, 0, 78, 48
1, 12000, Note_on_c, 0, 62, 60
1, 12240, Note_on_c, 0, 78, 0
1, 12240, Note_on_c, 0, 74, 0
1, 12240, Note_on_c, 0, 69, 0
1, 12240, Note_on_c, 0, 67, 50
1, 12240, Note_on_c, 0, 73, 50
1, 12240, Note_on_c, 0, 76, 50
1, 12360, Note_on_c, 0, 62, 0
1, 12360, Note_on_c, 0, 62, 56
1, 12480, Tempo, 600000
1, 12480, Note_on_c, 0, 62, 0
1, 12480, Note_on_c, 0, 76, 0
1, 12480, Note_on_c, 0, 50, 0
1, 12480, Note_on_c, 0, 67, 0
1, 12480, Note_on_c, 0, 73, 0
1, 12480, Note_on_c, 0, 66, 56
1, 12480, Note_on_c, 0, 69, 56
1, 12480, Note_on_c, 0, 74, 56
1, 12480, Note_on_c, 0, 62, 60
1, 12523, Control_c, 0, 64, 127
1, 12720, Tempo, 615385
1, 12720, Note_on_c, 0, 62, 0
1, 12720, Note_on_c, 0, 60, 56
1, 12960, Tempo, 579710
1, 12960, Note_on_c, 0, 60, 0
1, 12960, Note_on_c, 0, 64, 58
1, 12962, Control_c, 0, 64, 0
1, 13130, Control_c, 0, 64, 127
1, 13200, Tempo, 588235
1, 13200, Note_on_c, 0, 64, 0
1, 13200, Note_on_c, 0, 62, 55
1, 13440, Tempo, 600000
1, 13440, Note_on_c, 0, 62, 0
1, 13440, Note_on_c, 0, 60, 57
1, 13461, Control_c, 0, 64, 0
1, 13600, Tempo, 603015
1, 13680, Tempo, 628272
1, 13680, Note_on_c, 0, 60, 0
1, 13680, Note_on_c, 0, 66, 0
1, 13680, Note_on_c, 0, 69, 0
1, 13680, Note_on_c, 0, 74, 0
1, 13680, Note_on_c, 0, 67, 45
1, 13680, Note_on_c, 0, 74, 45
1, 13680, Note_on_c, 0, 59, 51
1, 13680, Note_on_c, 0, 62, 51
1, 13920, Tempo, 645161
1, 13920, Note_on_c, 0, 62, 0
1, 13920, Note_on_c, 0, 67, 0
1, 13920, Note_on_c, 0, 74, 0
1, 13920, Note_on_c, 0, 59, 0
1, 13920, Note_on_c, 0, 72, 42
1, 13920, Note_on_c, 0, 66, 42
1, 13920, Note_on_c, 0, 57, 55
1, 13920, Note_on_c, 0, 62, 55
1, 14160, Note_on_c, 0, 66, 0
1, 14160, Note_on_c, 0, 67, 41
1, 14280, Tempo, 693642
1, 14280, Note_on_c, 0, 72, 0
1, 14280, Note_on_c, 0, 62, 0
1, 14280, Note_on_c, 0, 57, 0
1, 14280, Note_on_c, 0, 71, 41
1, 14280, Note_on_c, 0, 55, 45
1, 14280, Note_on_c, 0, 62, 45
1, 14400, Tempo, 769231
1, 14400, Note_on_c, 0, 62, 0
1, 14400, Note_on_c, 0, 67, 0
1, 14400, Note_on_c, 0, 71, 0
1, 14400, Note_on_c, 0, 55, 0
1, 14400, Note_on_c, 0, 67, 44
1, 14400, Note_on_c, 0, 71, 44
1, 14400, Note_on_c, 0, 55, 50
1, 14400, Note_on_c, 0, 62, 50
1, 14471, Control_c, 0, 64, 127
1, 14640, Tempo, 641711
1, 14640, Note_on_c, 0, 55, 0
1, 14640, Note_on_c, 0, 59, 35
1, 14880, Tempo, 685714
1, 14880, Note_on_c, 0, 59, 0
1, 14880, Note_on_c, 0, 62, 0
1, 14880, Note_on_c, 0, 71, 0
1, 14880, Note_on_c, 0, 67, 0
1, 14880, Note_on_c, 0, 66, 40
1, 14880, Note_on_c, 0, 69, 40
1, 14880, Note_on_c, 0, 62, 38
1, 14886, Control_c, 0, 64, 0
1, 15064, Control_c, 0, 64, 127
1, 15120, Tempo, 805369
1, 15120, Note_on_c, 0, 50, 33
1, 15360, Tempo, 514801
1, 15360, Note_on_c, 0, 50, 0
1, 15360, Note_on_c, 0, 66, 0
1, 15360, Note_on_c, 0, 69, 0
1, 15360, Note_on_c, 0, 62, 0
1, 15360, Control_c, 0, 64, 0
1, 15360, Note_on_c, 0, 52, 35
1, 15480, Note_on_c, 0, 59, 26
1, 15480, Note_on_c, 0, 64, 26
1, 15480, Note_on_c, 0, 67, 26
1, 15600, Tempo, 501086
1, 15600, Note_on_c, 0, 67, 0
1, 15600, Note_on_c, 0, 52, 0
1, 15600, Note_on_c, 0, 59, 0
1, 15600, Note_on_c, 0, 64, 0
1, 15600, Note_on_c, 0, 54, 32
1, 15720, Note_on_c, 0, 54, 0
1, 15720, Note_on_c, 0, 59, 28
1, 15720, Note_on_c, 0, 64, 28
1, 15720, Note_on_c, 0, 67, 28
1, 15720, Note_on_c, 0, 55, 32
1, 15840, Note_on_c, 0, 55, 0
1, 15840, Note_on_c, 0, 59, 0
1, 15840, Note_on_c, 0, 64, 0
1, 15840, Note_on_c, 0, 67, 0
1, 15840, Note_on_c, 0, 57, 35
1, 15960, Note_on_c, 0, 57, 0
1, 15960, Note_on_c, 0, 66, 31
1, 15960, Note_on_c, 0, 64, 31
1, 15960, Note_on_c, 0, 60, 31
1, 16080, Tempo, 522011
1, 16080, Note_on_c, 0, 60, 0
1, 16080, Note_on_c, 0, 64, 0
1, 16080, Note_on_c, 0, 66, 0
1, 16080, Note_on_c, 0, 45, 32
1, 16200, Note_on_c, 0, 45, 0
1, 16200, Note_on_c, 0, 66, 26
1, 16200, Note_on_c, 0, 64, 26
1, 16200, Note_on_c, 0, 60, 26
1, 16320, Tempo, 512470
1, 16320, Note_on_c, 0, 60, 0
1, 16320, Note_on_c, 0, 64, 0
1, 16320, Note_on_c, 0, 66, 0
1, 16320, Note_on_c, 0, 47, 35
1, 16440, Note_on_c, 0, 47, 0
1, 16440, Note_on_c, 0, 59, 26
1, 16440, Note_on_c, 0, 63, 26
1, 16440, Note_on_c, 0, 66, 26
1, 16560, Tempo, 524384
1, 16560, Note_on_c, 0, 66, 0
1, 16560, Note_on_c, 0, 63, 0
1, 16560, Note_on_c, 0, 59, 0
1, 16560, Note_on_c, 0, 35, 32
1, 16680, Note_on_c, 0, 35, 0
1, 16680, Note_on_c, 0, 59, 27
1, 16680, Note_on_c, 0, 63, 27
1, 16680, Note_on_c, 0, 66, 27
1, 16800, Note_on_c, 0, 66, 0
1, 16800, Note_on_c, 0, 63, 0
1, 16800, Note_on_c, 0, 59, 0
1, 16800, Note_on_c, 0, 40, 41
1, 16920, Note_on_c, 0, 40, 0
1, 16920, Note_on_c, 0, 59, 31
1, 16920, Note_on_c, 0, 64, 31
1, 16920, Note_on_c, 0, 67, 31
1, 17040, Tempo, 544662
1, 17040, Note_on_c, 0, 67, 0
1, 17040, Note_on_c, 0, 64, 0
1, 17040, Note_on_c, 0, 59, 0
1, 17040, Note_on_c, 0, 43, 49
1, 17160, Note_on_c, 0, 43, 0
1, 17160, Note_on_c, 0, 55, 39
1, 17160, Note_on_c, 0, 59, 39
1, 17160, Note_on_c, 0, 62, 39
1, 17280, Tempo, 512470
1, 17280, Note_on_c, 0, 62, 0
1, 17280, Note_on_c, 0, 59, 0
1, 17280, Note_on_c, 0, 55, 0
1, 17280, Note_on_c, 0, 48, 46
1, 17400, Note_on_c, 0, 55, 30
1, 17400, Note_on_c, 0, 60, 30
1, 17400, Note_on_c, 0, 64, 30
1, 17520, Tempo, 492328
1, 17520, Note_on_c, 0, 64, 0
1, 17520, Note_on_c, 0, 48, 0
1, 17520, Note_on_c, 0, 55, 0
1, 17520, Note_on_c, 0, 60, 0
1, 17520, Note_on_c, 0, 50, 41
1, 17640, Note_on_c, 0, 50, 0
1, 17640, Note_on_c, 0, 55, 31
1, 17640, Note_on_c, 0, 60, 31
1, 17640, Note_on_c, 0, 64, 31
1, 17640, Note_on_c, 0, 52, 41
1, 17760, Note_on_c, 0, 52, 0
1, 17760, Note_on_c, 0, 55, 0
1, 17760, Note_on_c, 0, 60, 0
1, 17760, Note_on_c, 0, 64, 0
1, 17760, Note_on_c, 0, 53, 45
1, 17880, Note_on_c, 0, 53, 0
1, 17880, Note_on_c, 0, 57, 32
1, 17880, Note_on_c, 0, 60, 32
1, 17880, Note_on_c, 0, 62, 32
1, 18000, Tempo, 522011
1, 18000, Note_on_c, 0, 62, 0
1, 18000, Note_on_c, 0, 60, 0
1, 18000, Note_on_c, 0, 57, 0
1, 18000, Note_on_c, 0, 41, 40
1, 18120, Note_on_c, 0, 41, 0
1, 18120, Note_on_c, 0, 57, 28
1, 18120, Note_on_c, 0, 60, 28
1, 18120, Note_on_c, 0, 62, 28
1, 18240, Tempo, 512470
1, 18240, Note_on_c, 0, 62, 0
1, 18240, Note_on_c, 0, 60, 0
1, 18240, Note_on_c, 0, 57, 0
1, 18240, Note_on_c, 0, 43, 44
1, 18360, Note_on_c, 0, 43, 0
1, 18360, Note_on_c, 0, 55, 31
1, 18360, Note_on_c, 0, 59, 31
1, 18360, Note_on_c, 0, 62, 31
1, 18480, Tempo, 519526
1, 18480, Note_on_c, 0, 62, 0
1, 18480, Note_on_c, 0, 59, 0
1, 18480, Note_on_c, 0, 55, 0
1, 18480, Note_on_c, 0, 31, 40
1, 18600, Note_on_c, 0, 31, 0
1, 18600, Note_on_c, 0, 55, 32
1, 18600, Note_on_c, 0, 59, 32
1, 18600, Note_on_c, 0, 62, 32
1, 18720, Tempo, 544662
1, 18720, Note_on_c, 0, 62, 0
1, 18720, Note_on_c, 0, 59, 0
1, 18720, Note_on_c, 0, 55, 0
1, 18720, Note_on_c, 0, 36, 48
1, 18840, Note_on_c, 0, 55, 41
1, 18840, Note_on_c, 0, 60, 41
1, 18840, Note_on_c, 0, 64, 41
1, 18960, Note_on_c, 0, 36, 0
1, 18960, Note_on_c, 0, 35, 52
1, 19200, Tempo, 514801
1, 19200, Note_on_c, 0, 35, 0
1, 19200, Note_on_c, 0, 64, 0
1, 19200, Note_on_c, 0, 60, 0
1, 19200, Note_on_c, 0, 55, 0
1, 19200, Note_on_c, 0, 52, 44
1, 19320, Note_on_c, 0, 59, 29
1, 19320, Note_on_c, 0, 64, 29
1, 19320, Note_on_c, 0, 67, 29
1, 19440, Tempo, 501086
1, 19440, Note_on_c, 0, 67, 0
1, 19440, Note_on_c, 0, 52, 0
1, 19440, Note_on_c, 0, 59, 0
1, 19440, Note_on_c, 0, 64, 0
1, 19440, Note_on_c, 0, 54, 41
1, 19560, Note_on_c, 0, 54, 0
1, 19560, Note_on_c, 0, 59, 33
1, 19560, Note_on_c, 0, 64, 33
1, 19560, Note_on_c, 0, 67, 33
1, 19560, Note_on_c, 0, 55, 46
1, 19680, Note_on_c, 0, 55, 0
1, 19680, Note_on_c, 0, 59, 0
1, 19680, Note_on_c, 0, 64, 0
1, 19680, Note_on_c, 0, 67, 0
1, 19680, Note_on_c, 0, 57, 51
1, 19800, Note_on_c, 0, 57, 0
1, 19800, Note_on_c, 0, 66, 36
1, 19800, Note_on_c, 0, 64, 36
1, 19800, Note_on_c, 0, 60, 36
1, 19920, Tempo, 522011
1, 19920, Note_on_c, 0, 60, 0
1, 19920, Note_on_c, 0, 64, 0
1, 19920, Note_on_c, 0, 66, 0
1, 19920, Note_on_c, 0, 45, 41
1, 20040, Note_on_c, 0, 45, 0
1, 20040, Note_on_c, 0, 66, 28
1, 20040, Note_on_c, 0, 64, 28
1, 20040, Note_on_c, 0, 60, 28
1, 20160, Tempo, 512470
1, 20160, Note_on_c, 0, 60, 0
1, 20160, Note_on_c, 0, 64, 0
1, 20160, Note_on_c, 0, 66, 0
1, 20160, Note_on_c, 0, 47, 49
1, 20280, Note_on_c, 0, 47, 0
1, 20280, Note_on_c, 0, 59, 28
1, 20280, Note_on_c, 0, 63, 28
1, 20280, Note_on_c, 0, 66, 28
1, 20400, Tempo, 524384
1, 20400, Note_on_c, 0, 66, 0
1, 20400, Note_on_c, 0, 63, 0
1, 20400, Note_on_c, 0, 59, 0
1, 20400, Note_on_c, 0, 35, 40
1, 20520, Note_on_c, 0, 35, 0
1, 20520, Note_on_c, 0, 59, 29
1, 20520, Note_on_c, 0, 63, 29
1, 20520, Note_on_c, 0, 66, 29
1, 20640, Note_on_c, 0, 66, 0
1, 20640, Note_on_c, 0, 63, 0
1, 20640, Note_on_c, 0, 59, 0
1, 20640, Note_on_c, 0, 40, 48
1, 20760, Note_on_c, 0, 40, 0
1, 20760, Note_on_c, 0, 59, 34
1, 20760, Note_on_c, 0, 64, 34
1, 20760, Note_on_c, 0, 67, 34
1, 20880, Tempo, 544662
1, 20880, Note_on_c, 0, 67, 0
1, 20880, Note_on_c, 0, 64, 0
1, 20880, Note_on_c, 0, 59, 0
1, 20880, Note_on_c, 0, 43, 53
1, 21000, Note_on_c, 0, 43, 0
1, 21000, Note_on_c, 0, 55, 42
1, 21000, Note_on_c, 0, 59, 42
1, 21000, Note_on_c, 0, 62, 42
1, 21120, Tempo, 512470
1, 21120, Note_on_c, 0, 62, 0
1, 21120, Note_on_c, 0, 59, 0
1, 21120, Note_on_c, 0, 55, 0
1, 21120, Note_on_c, 0, 48, 53
1, 21240, Note_on_c, 0, 55, 32
1, 21240, Note_on_c, 0, 60, 32
1, 21240, Note_on_c, 0, 64, 32
1, 21360, Tempo, 492328
1, 21360, Note_on_c, 0, 64, 0
1, 21360, Note_on_c, 0, 48, 0
1, 21360, Note_on_c, 0, 55, 0
1, 21360, Note_on_c, 0, 60, 0
1, 21360, Note_on_c, 0, 50, 47
1, 21480, Note_on_c, 0, 50, 0
1, 21480, Note_on_c, 0, 55, 34
1, 21480, Note_on_c, 0, 60, 34
1, 21480, Note_on_c, 0, 64, 34
1, 21480, Note_on_c, 0, 52, 50
1, 21600, Note_on_c, 0, 52, 0
1, 21600, Note_on_c, 0, 55, 0
1, 21600, Note_on_c, 0, 60, 0
1, 21600, Note_on_c, 0, 64, 0
1, 21600, Note_on_c, 0, 53, 52
1, 21720, Note_on_c, 0, 53, 0
1, 21720, Note_on_c, 0, 57, 36
1, 21720, Note_on_c, 0, 60, 36
1, 21720, Note_on_c, 0, 62, 36
1, 21840, Tempo, 531868
1, 21840, Note_on_c, 0, 62, 0
1, 21840, Note_on_c, 0, 60, 0
1, 21840, Note_on_c, 0, 57, 0
1, 21840, Note_on_c, 0, 41, 52
1, 21960, Note_on_c, 0, 41, 0
1, 21960, Note_on_c, 0, 57, 31
1, 21960, Note_on_c, 0, 60, 31
1, 21960, Note_on_c, 0, 62, 31
1, 22080, Tempo, 517152
1, 22080, Note_on_c, 0, 62, 0
1, 22080, Note_on_c, 0, 60, 0
1, 22080, Note_on_c, 0, 57, 0
1, 22080, Note_on_c, 0, 43, 55
1, 22200, Note_on_c, 0, 43, 0
1, 22200, Note_on_c, 0, 55, 35
1, 22200, Note_on_c, 0, 59, 35
1, 22200, Note_on_c, 0, 62, 35
1, 22320, Tempo, 529334
1, 22320, Note_on_c, 0, 62, 0
1, 22320, Note_on_c, 0, 59, 0
1, 22320, Note_on_c, 0, 55, 0
1, 22320, Note_on_c, 0, 31, 50
1, 22440, Note_on_c, 0, 31, 0
1, 22440, Note_on_c, 0, 55, 39
1, 22440, Note_on_c, 0, 59, 39
1, 22440, Note_on_c, 0, 62, 39
1, 22560, Tempo, 569422
1, 22560, Note_on_c, 0, 62, 0
1, 22560, Note_on_c, 0, 59, 0
1, 22560, Note_on_c, 0, 55, 0
1, 22560, Note_on_c, 0, 36, 53
1, 22680, Note_on_c, 0, 55, 49
1, 22680, Note_on_c, 0, 60, 49
1, 22680, Note_on_c, 0, 64, 49
1, 22800, Tempo, 794176
1, 22800, Note_on_c, 0, 36, 0
1, 22800, Note_on_c, 0, 35, 62
1, 23010, Note_on_c, 0, 35, 0
1, 23010, Note_on_c, 0, 64, 0
1, 23010, Note_on_c, 0, 60, 0
1, 23010, Note_on_c, 0, 55, 0
1, 23040, Tempo, 615385
1, 23040, Control_c, 0, 91, 127
1, 23040, Note_on_c, 0, 71, 49
1, 23040, Control_c, 0, 91, 127
1, 23076, Control_c, 0, 64, 127
1, 23280, Note_on_c, 0, 64, 35
1, 23280, Note_on_c, 0, 67, 35
1, 23520, Tempo, 600000
1, 23520, Note_on_c, 0, 67, 0
1, 23520, Note_on_c, 0, 64, 0
1, 23520, Note_on_c, 0, 71, 0
1, 23520, Note_on_c, 0, 63, 29
1, 23520, Note_on_c, 0, 66, 29
1, 23520, Note_on_c, 0, 71, 49
1, 23534, Control_c, 0, 64, 0
1, 23760, Note_on_c, 0, 66, 0
1, 23760, Note_on_c, 0, 63, 0
1, 23760, Note_on_c, 0, 62, 35
1, 23760, Note_on_c, 0, 65, 34
1, 23880, Note_on_c, 0, 71, 0
1, 23880, Note_on_c, 0, 71, 40
1, 24000, Note_on_c, 0, 71, 0
1, 24000, Note_on_c, 0, 65, 0
1, 24000, Note_on_c, 0, 62, 0
1, 24000, Note_on_c, 0, 61, 33
1, 24000, Note_on_c, 0, 64, 33
1, 24000, Note_on_c, 0, 71, 49
1, 24240, Tempo, 612245
1, 24240, Note_on_c, 0, 71, 0
1, 24240, Note_on_c, 0, 70, 46
1, 24480, Tempo, 582524
1, 24480, Note_on_c, 0, 76, 48
1, 24720, Tempo, 594059
1, 24720, Note_on_c, 0, 76, 0
1, 24720, Note_on_c, 0, 61, 0
1, 24720, Note_on_c, 0, 64, 0
1, 24720, Note_on_c, 0, 70, 0
1, 24720, Note_on_c, 0, 60, 33
1, 24720, Note_on_c, 0, 63, 33
1, 24720, Note_on_c, 0, 69, 33
1, 24720, Note_on_c, 0, 75, 47
1, 24960, Tempo, 600000
1, 24960, Note_on_c, 0, 75, 0
1, 24960, Note_on_c, 0, 60, 0
1, 24960, Note_on_c, 0, 63, 0
1, 24960, Note_on_c, 0, 74, 49
1, 24960, Note_on_c, 0, 62, 41
1, 24960, Note_on_c, 0, 59, 41
1, 25200, Tempo, 631579
1, 25200, Note_on_c, 0, 74, 0
1, 25200, Note_on_c, 0, 69, 0
1, 25200, Note_on_c, 0, 67, 42
1, 25440, Tempo, 600000
1, 25440, Note_on_c, 0, 67, 0
1, 25440, Note_on_c, 0, 62, 0
1, 25440, Note_on_c, 0, 59, 0
1, 25440, Note_on_c, 0, 66, 34
1, 25440, Note_on_c, 0, 72, 47
1, 25440, Note_on_c, 0, 57, 39
1, 25440, Note_on_c, 0, 62, 39
1, 25520, Tempo, 603015
1, 25584, Tempo, 606061
1, 25652, Tempo, 609137
1, 25680, Note_on_c, 0, 66, 0
1, 25680, Note_on_c, 0, 67, 39
1, 25720, Tempo, 612245
1, 25784, Tempo, 615385
1, 25800, Note_on_c, 0, 72, 0
1, 25800, Note_on_c, 0, 62, 0
1, 25800, Note_on_c, 0, 57, 0
1, 25800, Note_on_c, 0, 71, 45
1, 25800, Note_on_c, 0, 55, 34
1, 25800, Note_on_c, 0, 62, 34
1, 25852, Tempo, 618557
1, 25920, Tempo, 621762
1, 25920, Note_on_c, 0, 62, 0
1, 25920, Note_on_c, 0, 67, 0
1, 25920, Note_on_c, 0, 71, 0
1, 25920, Note_on_c, 0, 55, 0
1, 25920, Note_on_c, 0, 67, 46
1, 25920, Note_on_c, 0, 71, 46
1, 25920, Note_on_c, 0, 55, 38
1, 25920, Note_on_c, 0, 62, 38
1, 25991, Control_c, 0, 64, 127
1, 26160, Note_on_c, 0, 55, 0
1, 26160, Note_on_c, 0, 59, 39
1, 26400, Note_on_c, 0, 59, 0
1, 26400, Note_on_c, 0, 62, 0
1, 26400, Note_on_c, 0, 71, 0
1, 26400, Note_on_c, 0, 67, 0
1, 26400, Note_on_c, 0, 66, 45
1, 26400, Note_on_c, 0, 69, 45
1, 26400, Note_on_c, 0, 62, 40
1, 26404, Control_c, 0, 64, 0
1, 26541, Control_c, 0, 64, 127
1, 26640, Note_on_c, 0, 50, 38
1, 26880, Note_on_c, 0, 62, 0
1, 26880, Note_on_c, 0, 66, 0
1, 26880, Note_on_c, 0, 69, 0
1, 26880, Control_c, 0, 64, 0
1, 26880, Note_on_c, 0, 62, 61
1, 27120, Note_on_c, 0, 71, 46
1, 27120, Note_on_c, 0, 74, 46
1, 27120, Note_on_c, 0, 79, 46
1, 27360, Tempo, 603015
1, 27360, Note_on_c, 0, 79, 0
1, 27360, Note_on_c, 0, 71, 0
1, 27360, Note_on_c, 0, 74, 0
1, 27360, Note_on_c, 0, 62, 0
1, 27360, Note_on_c, 0, 69, 48
1, 27360, Note_on_c, 0, 74, 48
1, 27360, Note_on_c, 0, 78, 48
1, 27360, Note_on_c, 0, 62, 60
1, 27600, Note_on_c, 0, 78, 0
1, 27600, Note_on_c, 0, 74, 0
1, 27600, Note_on_c, 0, 69, 0
1, 27600, Note_on_c, 0, 67, 50
1, 27600, Note_on_c, 0, 73, 50
1, 27600, Note_on_c, 0, 76, 50
1, 27720, Note_on_c, 0, 62, 0
1, 27720, Note_on_c, 0, 62, 56
1, 27840, Tempo, 600000
1, 27840, Note_on_c, 0, 62, 0
1, 27840, Note_on_c, 0, 76, 0
1, 27840, Note_on_c, 0, 50, 0
1, 27840, Note_on_c, 0, 67, 0
1, 27840, Note_on_c, 0, 73, 0
1, 27840, Note_on_c, 0, 66, 56
1, 27840, Note_on_c, 0, 69, 56
1, 27840, Note_on_c, 0, 74, 56
1, 27840, Note_on_c, 0, 62, 60
1, 27897, Control_c, 0, 64, 127
1, 28080, Tempo, 615385
1, 28080, Note_on_c, 0, 62, 0
1, 28080, Note_on_c, 0, 60, 56
1, 28320, Tempo, 574163
1, 28320, Note_on_c, 0, 60, 0
1, 28320, Note_on_c, 0, 64, 58
1, 28322, Control_c, 0, 64, 0
1, 28461, Control_c, 0, 64, 127
1, 28560, Tempo, 588235
1, 28560, Note_on_c, 0, 64, 0
1, 28560, Note_on_c, 0, 62, 55
1, 28800, Tempo, 600000
1, 28800, Note_on_c, 0, 62, 0
1, 28800, Control_c, 0, 64, 0
1, 28800, Note_on_c, 0, 60, 57
1, 28960, Tempo, 603015
1, 29040, Tempo, 618557
1, 29040, Note_on_c, 0, 60, 0
1, 29040, Note_on_c, 0, 66, 0
1, 29040, Note_on_c, 0, 69, 0
1, 29040, Note_on_c, 0, 74, 0
1, 29040, Note_on_c, 0, 67, 45
1, 29040, Note_on_c, 0, 74, 45
1, 29040, Note_on_c, 0, 59, 51
1, 29040, Note_on_c, 0, 62, 51
1, 29280, Tempo, 628272
1, 29280, Note_on_c, 0, 62, 0
1, 29280, Note_on_c, 0, 67, 0
1, 29280, Note_on_c, 0, 74, 0
1, 29280, Note_on_c, 0, 59, 0
1, 29280, Note_on_c, 0, 72, 42
1, 29280, Note_on_c, 0, 66, 42
1, 29280, Note_on_c, 0, 57, 55
1, 29280, Note_on_c, 0, 62, 55
1, 29520, Note_on_c, 0, 66, 0
1, 29520, Note_on_c, 0, 67, 41
1, 29640, Tempo, 659341
1, 29640, Note_on_c, 0, 72, 0
1, 29640, Note_on_c, 0, 62, 0
1, 29640, Note_on_c, 0, 57, 0
1, 29640, Note_on_c, 0, 71, 41
1, 29640, Note_on_c, 0, 55, 45
1, 29640, Note_on_c, 0, 62, 45
1, 29760, Tempo, 701754
1, 29760, Note_on_c, 0, 62, 0
1, 29760, Note_on_c, 0, 67, 0
1, 29760, Note_on_c, 0, 71, 0
1, 29760, Note_on_c, 0, 55, 0
1, 29760, Note_on_c, 0, 67, 44
1, 29760, Note_on_c, 0, 71, 44
1, 29760, Note_on_c, 0, 55, 50
1, 29760, Note_on_c, 0, 62, 50
1, 29859, Control_c, 0, 64, 127
1, 30000, Tempo, 641711
1, 30000, Note_on_c, 0, 55, 0
1, 30000, Note_on_c, 0, 59, 35
1, 30240, Tempo, 685714
1, 30240, Note_on_c, 0, 59, 0
1, 30240, Note_on_c, 0, 62, 0
1, 30240, Note_on_c, 0, 71, 0
1, 30240, Note_on_c, 0, 67, 0
1, 30240, Note_on_c, 0, 66, 40
1, 30240, Note_on_c, 0, 69, 40
1, 30240, Note_on_c, 0, 62, 38
1, 30258, Control_c, 0, 64, 0
1, 30381, Control_c, 0, 64, 127
1, 30480, Tempo, 722892
1, 30480, Note_on_c, 0, 50, 33
1, 30720, Tempo, 567859
1, 30720, Note_on_c, 0, 50, 0
1, 30720, Note_on_c, 0, 66, 0
1, 30720, Note_on_c, 0, 69, 0
1, 30720, Note_on_c, 0, 62, 0
1, 30720, Note_on_c, 0, 71, 59
1, 30720, Note_on_c, 0, 67, 59
1, 30720, Control_c, 0, 64, 0
1, 30720, Note_on_c, 0, 55, 59
1, 30720, Note_on_c, 0, 62, 59
1, 30760, Tempo, 544811
1, 30840, Note_on_c, 0, 62, 0
1, 30840, Note_on_c, 0, 71, 0
1, 30840, Note_on_c, 0, 72, 53
1, 30840, Note_on_c, 0, 64, 53
1, 30960, Note_on_c, 0, 64, 0
1, 30960, Note_on_c, 0, 72, 0
1, 30960, Note_on_c, 0, 69, 53
1, 30960, Note_on_c, 0, 60, 53
1, 31080, Note_on_c, 0, 60, 0
1, 31080, Note_on_c, 0, 69, 0
1, 31080, Note_on_c, 0, 71, 53
1, 31080, Note_on_c, 0, 62, 53
1, 31200, Tempo, 584681
1, 31200, Note_on_c, 0, 62, 0
1, 31200, Note_on_c, 0, 71, 0
1, 31200, Note_on_c, 0, 67, 0
1, 31200, Note_on_c, 0, 67, 59
1, 31200, Note_on_c, 0, 59, 59
1, 31260, Note_on_c, 0, 59, 0
1, 31260, Note_on_c, 0, 67, 0
1, 31440, Tempo, 572738
1, 31440, Note_on_c, 0, 55, 0
1, 31440, Note_on_c, 0, 71, 64
1, 31440, Note_on_c, 0, 68, 64
1, 31440, Note_on_c, 0, 76, 64
1, 31440, Note_on_c, 0, 52, 64
1, 31440, Note_on_c, 0, 64, 64
1, 31500, Note_on_c, 0, 64, 0
1, 31500, Note_on_c, 0, 76, 0
1, 31500, Note_on_c, 0, 71, 0
1, 31500, Note_on_c, 0, 68, 0
1, 31500, Note_on_c, 0, 52, 0
1, 31680, Tempo, 561220
1, 31680, Note_on_c, 0, 45, 59
1, 31920, Note_on_c, 0, 45, 0
1, 31920, Note_on_c, 0, 76, 62
1, 31920, Note_on_c, 0, 69, 62
1, 31920, Note_on_c, 0, 72, 62
1, 31920, Note_on_c, 0, 64, 62
1, 31920, Note_on_c, 0, 52, 62
1, 31980, Note_on_c, 0, 52, 0
1, 31980, Note_on_c, 0, 72, 0
1, 31980, Note_on_c, 0, 76, 0
1, 31980, Note_on_c, 0, 69, 0
1, 31980, Note_on_c, 0, 64, 0
1, 32160, Tempo, 550156
1, 32160, Note_on_c, 0, 50, 59
1, 32400, Note_on_c, 0, 50, 0
1, 32400, Note_on_c, 0, 69, 62
1, 32400, Note_on_c, 0, 74, 62
1, 32400, Note_on_c, 0, 72, 62
1, 32400, Note_on_c, 0, 62, 62
1, 32400, Note_on_c, 0, 54, 62
1, 32400, Note_on_c, 0, 50, 62
1, 32490, Note_on_c, 0, 50, 0
1, 32490, Note_on_c, 0, 74, 0
1, 32490, Note_on_c, 0, 72, 0
1, 32490, Note_on_c, 0, 69, 0
1, 32490, Note_on_c, 0, 54, 0
1, 32490, Note_on_c, 0, 62, 0
1, 32640, Tempo, 544811
1, 32640, Note_on_c, 0, 67, 59
1, 32640, Note_on_c, 0, 71, 59
1, 32640, Note_on_c, 0, 55, 59
1, 32640, Note_on_c, 0, 62, 59
1, 32760, Note_on_c, 0, 62, 0
1, 32760, Note_on_c, 0, 71, 0
1, 32760, Note_on_c, 0, 72, 53
1, 32760, Note_on_c, 0, 64, 52
1, 32880, Note_on_c, 0, 64, 0
1, 32880, Note_on_c, 0, 72, 0
1, 32880, Note_on_c, 0, 69, 53
1, 32880, Note_on_c, 0, 60, 52
1, 33000, Note_on_c, 0, 60, 0
1, 33000, Note_on_c, 0, 69, 0
1, 33000, Note_on_c, 0, 71, 53
1, 33000, Note_on_c, 0, 62, 52
1, 33120, Tempo, 584681
1, 33120, Note_on_c, 0, 62, 0
1, 33120, Note_on_c, 0, 71, 0
1, 33120, Note_on_c, 0, 67, 0
1, 33120, Note_on_c, 0, 67, 59
1, 33120, Note_on_c, 0, 59, 59
1, 33240, Note_on_c, 0, 59, 0
1, 33240, Note_on_c, 0, 67, 0
1, 33240, Note_on_c, 0, 55, 0
1, 33360, Tempo, 575650
1, 33360, Note_on_c, 0, 73, 63
1, 33360, Note_on_c, 0, 78, 63
1, 33360, Note_on_c, 0, 70, 63
1, 33360, Note_on_c, 0, 66, 66
1, 33360, Note_on_c, 0, 54, 66
1, 33540, Note_on_c, 0, 54, 0
1, 33540, Note_on_c, 0, 70, 0
1, 33540, Note_on_c, 0, 73, 0
1, 33540, Note_on_c, 0, 78, 0
1, 33540, Note_on_c, 0, 66, 0
1, 33600, Note_on_c, 0, 47, 59
1, 33840, Tempo, 619195
1, 33840, Note_on_c, 0, 47, 0
1, 33840, Note_on_c, 0, 78, 62
1, 33840, Note_on_c, 0, 71, 62
1, 33840, Note_on_c, 0, 74, 62
1, 33840, Note_on_c, 0, 66, 62
1, 33840, Note_on_c, 0, 54, 62
1, 34020, Note_on_c, 0, 54, 0
1, 34020, Note_on_c, 0, 74, 0
1, 34020, Note_on_c, 0, 78, 0
1, 34020, Note_on_c, 0, 71, 0
1, 34020, Note_on_c, 0, 66, 0
1, 34080, Tempo, 657678
1, 34080, Note_on_c, 0, 74, 63
1, 34080, Note_on_c, 0, 69, 63
1, 34080, Note_on_c, 0, 78, 63
1, 34080, Note_on_c, 0, 50, 62
1, 34080, Note_on_c, 0, 62, 62
1, 34320, Tempo, 723066
1, 34320, Note_on_c, 0, 62, 0
1, 34320, Note_on_c, 0, 78, 0
1, 34320, Note_on_c, 0, 74, 0
1, 34320, Note_on_c, 0, 69, 0
1, 34320, Note_on_c, 0, 50, 0
1, 34320, Note_on_c, 0, 74, 59
1, 34320, Note_on_c, 0, 71, 59
1, 34320, Note_on_c, 0, 79, 59
1, 34320, Note_on_c, 0, 62, 59
1, 34320, Note_on_c, 0, 55, 59
1, 34500, Note_on_c, 0, 55, 0
1, 34500, Note_on_c, 0, 79, 0
1, 34500, Note_on_c, 0, 74, 0
1, 34500, Note_on_c, 0, 71, 0
1, 34500, Note_on_c, 0, 62, 0
1, 34560, Tempo, 582524
1, 34560, Note_on_c, 0, 79, 70
1, 34560, Control_c, 0, 64, 127
1, 34560, Note_on_c, 0, 52, 46
1, 34800, Note_on_c, 0, 52, 0
1, 34800, Note_on_c, 0, 67, 37
1, 34800, Note_on_c, 0, 64, 37
1, 34800, Note_on_c, 0, 59, 37
1, 35040, Note_on_c, 0, 59, 0
1, 35040, Note_on_c, 0, 79, 0
1, 35040, Note_on_c, 0, 67, 0
1, 35040, Note_on_c, 0, 64, 0
1, 35040, Note_on_c, 0, 78, 66
1, 35040, Note_on_c, 0, 45, 46
1, 35050, Control_c, 0, 64, 0
1, 35153, Control_c, 0, 64, 127
1, 35280, Note_on_c, 0, 45, 0
1, 35280, Note_on_c, 0, 66, 37
1, 35280, Note_on_c, 0, 60, 37
1, 35280, Note_on_c, 0, 57, 37
1, 35520, Tempo, 588235
1, 35520, Note_on_c, 0, 57, 0
1, 35520, Note_on_c, 0, 78, 0
1, 35520, Note_on_c, 0, 66, 0
1, 35520, Note_on_c, 0, 60, 0
1, 35520, Note_on_c, 0, 75, 59
1, 35520, Control_c, 0, 64, 0
1, 35520, Note_on_c, 0, 47, 40
1, 35623, Control_c, 0, 64, 127
1, 35760, Note_on_c, 0, 47, 0
1, 35760, Note_on_c, 0, 63, 31
1, 35760, Note_on_c, 0, 54, 31
1, 35760, Note_on_c, 0, 57, 31
1, 36000, Tempo, 618557
1, 36000, Note_on_c, 0, 57, 0
1, 36000, Note_on_c, 0, 75, 0
1, 36000, Note_on_c, 0, 63, 0
1, 36000, Note_on_c, 0, 54, 0
1, 36000, Note_on_c, 0, 76, 48
1, 36000, Note_on_c, 0, 48, 36
1, 36008, Control_c, 0, 64, 0
1, 36103, Control_c, 0, 64, 127
1, 36240, Note_on_c, 0, 48, 0
1, 36240, Note_on_c, 0, 64, 28
1, 36240, Note_on_c, 0, 55, 28
1, 36240, Note_on_c, 0, 52, 28
1, 36480, Tempo, 585366
1, 36480, Note_on_c, 0, 52, 0
1, 36480, Note_on_c, 0, 76, 0
1, 36480, Note_on_c, 0, 64, 0
1, 36480, Note_on_c, 0, 55, 0
1, 36480, Note_on_c, 0, 74, 50
1, 36480, Note_on_c, 0, 50, 38
1, 36487, Control_c, 0, 64, 0
1, 36579, Control_c, 0, 64, 127
1, 36720, Note_on_c, 0, 50, 0
1, 36720, Note_on_c, 0, 54, 27
1, 36720, Note_on_c, 0, 62, 27
1, 36960, Note_on_c, 0, 62, 0
1, 36960, Note_on_c, 0, 54, 0
1, 36960, Note_on_c, 0, 74, 0
1, 36960, Note_on_c, 0, 72, 45
1, 36960, Note_on_c, 0, 52, 37
1, 36969, Control_c, 0, 64, 0
1, 37101, Control_c, 0, 64, 127
1, 37200, Note_on_c, 0, 52, 0
1, 37200, Note_on_c, 0, 60, 27
1, 37200, Note_on_c, 0, 55, 27
1, 37440, Tempo, 631579
1, 37440, Note_on_c, 0, 55, 0
1, 37440, Note_on_c, 0, 60, 0
1, 37440, Note_on_c, 0, 72, 0
1, 37440, Note_on_c, 0, 70, 42
1, 37440, Note_on_c, 0, 54, 34
1, 37447, Control_c, 0, 64, 0
1, 37566, Control_c, 0, 64, 127
1, 37680, Note_on_c, 0, 54, 0
1, 37680, Note_on_c, 0, 64, 26
1, 37680, Note_on_c, 0, 61, 26
1, 37920, Tempo, 648649
1, 37920, Note_on_c, 0, 61, 0
1, 37920, Note_on_c, 0, 64, 0
1, 37920, Note_on_c, 0, 70, 0
1, 37920, Note_on_c, 0, 71, 38
1, 37920, Note_on_c, 0, 59, 29
1, 37927, Control_c, 0, 64, 0
1, 38057, Control_c, 0, 64, 127
1, 38160, Tempo, 745342
1, 38160, Note_on_c, 0, 66, 27
1, 38160, Note_on_c, 0, 63, 27
1, 38400, Tempo, 638298
1, 38400, Note_on_c, 0, 63, 0
1, 38400, Note_on_c, 0, 66, 0
1, 38400, Note_on_c, 0, 71, 0
1, 38400, Control_c, 0, 91, 127
1, 38400, Note_on_c, 0, 71, 49
1, 38400, Control_c, 0, 64, 0
1, 38400, Control_c, 0, 91, 127
1, 38513, Control_c, 0, 64, 127
1, 38640, Note_on_c, 0, 67, 35
1, 38640, Note_on_c, 0, 64, 35
1, 38880, Tempo, 609137
1, 38880, Note_on_c, 0, 64, 0
1, 38880, Note_on_c, 0, 67, 0
1, 38880, Note_on_c, 0, 71, 0
1, 38880, Note_on_c, 0, 66, 29
1, 38880, Note_on_c, 0, 71, 49
1, 38880, Note_on_c, 0, 63, 29
1, 38886, Control_c, 0, 64, 0
1, 39120, Note_on_c, 0, 63, 0
1, 39120, Note_on_c, 0, 66, 0
1, 39120, Note_on_c, 0, 65, 34
1, 39120, Note_on_c, 0, 62, 35
1, 39240, Note_on_c, 0, 71, 0
1, 39240, Note_on_c, 0, 71, 40
1, 39360, Note_on_c, 0, 71, 0
1, 39360, Note_on_c, 0, 62, 0
1, 39360, Note_on_c, 0, 65, 0
1, 39360, Note_on_c, 0, 59, 0
1, 39360, Note_on_c, 0, 61, 33
1, 39360, Note_on_c, 0, 71, 49
1, 39360, Note_on_c, 0, 64, 33
1, 39600, Tempo, 612245
1, 39600, Note_on_c, 0, 71, 0
1, 39600, Note_on_c, 0, 70, 46
1, 39840, Tempo, 582524
1, 39840, Note_on_c, 0, 70, 0
1, 39840, Note_on_c, 0, 76, 48
1, 40080, Tempo, 591133
1, 40080, Note_on_c, 0, 76, 0
1, 40080, Note_on_c, 0, 64, 0
1, 40080, Note_on_c, 0, 61, 0
1, 40080, Note_on_c, 0, 63, 33
1, 40080, Note_on_c, 0, 69, 33
1, 40080, Note_on_c, 0, 75, 47
1, 40080, Note_on_c, 0, 60, 33
1, 40320, Tempo, 600000
1, 40320, Note_on_c, 0, 60, 0
1, 40320, Note_on_c, 0, 75, 0
1, 40320, Note_on_c, 0, 63, 0
1, 40320, Note_on_c, 0, 74, 49
1, 40320, Note_on_c, 0, 62, 41
1, 40320, Note_on_c, 0, 59, 41
1, 40560, Tempo, 631579
1, 40560, Note_on_c, 0, 74, 0
1, 40560, Note_on_c, 0, 69, 0
1, 40560, Note_on_c, 0, 67, 42
1, 40800, Tempo, 600000
1, 40800, Note_on_c, 0, 67, 0
1, 40800, Note_on_c, 0, 62, 0
1, 40800, Note_on_c, 0, 59, 0
1, 40800, Note_on_c, 0, 72, 47
1, 40800, Note_on_c, 0, 66, 34
1, 40800, Note_on_c, 0, 57, 39
1, 40800, Note_on_c, 0, 62, 39
1, 40880, Tempo, 603015
1, 40944, Tempo, 606061
1, 41012, Tempo, 609137
1, 41040, Note_on_c, 0, 66, 0
1, 41040, Note_on_c, 0, 67, 39
1, 41080, Tempo, 612245
1, 41144, Tempo, 615385
1, 41160, Note_on_c, 0, 72, 0
1, 41160, Note_on_c, 0, 62, 0
1, 41160, Note_on_c, 0, 57, 0
1, 41160, Note_on_c, 0, 71, 45
1, 41160, Note_on_c, 0, 55, 34
1, 41160, Note_on_c, 0, 62, 34
1, 41212, Tempo, 618557
1, 41280, Tempo, 621762
1, 41280, Note_on_c, 0, 62, 0
1, 41280, Note_on_c, 0, 67, 0
1, 41280, Note_on_c, 0, 71, 0
1, 41280, Note_on_c, 0, 55, 0
1, 41280, Note_on_c, 0, 67, 46
1, 41280, Note_on_c, 0, 71, 46
1, 41280, Note_on_c, 0, 55, 38
1, 41280, Note_on_c, 0, 62, 38
1, 41407, Control_c, 0, 64, 127
1, 41520, Note_on_c, 0, 55, 0
1, 41520, Note_on_c, 0, 59, 39
1, 41760, Note_on_c, 0, 59, 0
1, 41760, Note_on_c, 0, 62, 0
1, 41760, Note_on_c, 0, 71, 0
1, 41760, Note_on_c, 0, 67, 0
1, 41760, Note_on_c, 0, 66, 45
1, 41760, Note_on_c, 0, 69, 45
1, 41760, Note_on_c, 0, 62, 40
1, 41767, Control_c, 0, 64, 0
1, 41930, Control_c, 0, 64, 127
1, 42000, Note_on_c, 0, 50, 38
1, 42240, Tempo, 612245
1, 42240, Note_on_c, 0, 62, 0
1, 42240, Note_on_c, 0, 66, 0
1, 42240, Note_on_c, 0, 69, 0
1, 42240, Control_c, 0, 64, 0
1, 42240, Note_on_c, 0, 62, 61
1, 42480, Note_on_c, 0, 79, 46
1, 42480, Note_on_c, 0, 71, 46
1, 42480, Note_on_c, 0, 74, 46
1, 42720, Tempo, 603015
1, 42720, Note_on_c, 0, 74, 0
1, 42720, Note_on_c, 0, 79, 0
1, 42720, Note_on_c, 0, 71, 0
1, 42720, Note_on_c, 0, 62, 0
1, 42720, Note_on_c, 0, 74, 48
1, 42720, Note_on_c, 0, 78, 48
1, 42720, Note_on_c, 0, 69, 48
1, 42720, Note_on_c, 0, 62, 60
1, 42960, Note_on_c, 0, 69, 0
1, 42960, Note_on_c, 0, 78, 0
1, 42960, Note_on_c, 0, 74, 0
1, 42960, Note_on_c, 0, 67, 50
1, 42960, Note_on_c, 0, 73, 50
1, 42960, Note_on_c, 0, 76, 50
1, 43080, Note_on_c, 0, 62, 0
1, 43080, Note_on_c, 0, 62, 56
1, 43200, Tempo, 600000
1, 43200, Note_on_c, 0, 62, 0
1, 43200, Note_on_c, 0, 76, 0
1, 43200, Note_on_c, 0, 50, 0
1, 43200, Note_on_c, 0, 67, 0
1, 43200, Note_on_c, 0, 73, 0
1, 43200, Note_on_c, 0, 69, 56
1, 43200, Note_on_c, 0, 74, 56
1, 43200, Note_on_c, 0, 66, 56
1, 43200, Note_on_c, 0, 62, 60
1, 43299, Control_c, 0, 64, 127
1, 43440, Tempo, 615385
1, 43440, Note_on_c, 0, 62, 0
1, 43440, Note_on_c, 0, 60, 56
1, 43680, Tempo, 585366
1, 43680, Note_on_c, 0, 60, 0
1, 43680, Note_on_c, 0, 64, 58
1, 43694, Control_c, 0, 64, 0
1, 43864, Control_c, 0, 64, 127
1, 43920, Tempo, 591133
1, 43920, Note_on_c, 0, 64, 0
1, 43920, Note_on_c, 0, 62, 55
1, 44160, Tempo, 600000
1, 44160, Note_on_c, 0, 62, 0
1, 44160, Control_c, 0, 64, 0
1, 44160, Note_on_c, 0, 60, 57
1, 44320, Tempo, 603015
1, 44400, Tempo, 618557
1, 44400, Note_on_c, 0, 60, 0
1, 44400, Note_on_c, 0, 69, 0
1, 44400, Note_on_c, 0, 74, 0
1, 44400, Note_on_c, 0, 66, 0
1, 44400, Note_on_c, 0, 74, 45
1, 44400, Note_on_c, 0, 67, 45
1, 44400, Note_on_c, 0, 59, 51
1, 44400, Note_on_c, 0, 62, 51
1, 44640, Tempo, 628272
1, 44640, Note_on_c, 0, 62, 0
1, 44640, Note_on_c, 0, 74, 0
1, 44640, Note_on_c, 0, 67, 0
1, 44640, Note_on_c, 0, 59, 0
1, 44640, Note_on_c, 0, 66, 42
1, 44640, Note_on_c, 0, 72, 42
1, 44640, Note_on_c, 0, 57, 55
1, 44640, Note_on_c, 0, 62, 55
1, 44880, Note_on_c, 0, 66, 0
1, 44880, Note_on_c, 0, 67, 41
1, 45000, Tempo, 659341
1, 45000, Note_on_c, 0, 72, 0
1, 45000, Note_on_c, 0, 62, 0
1, 45000, Note_on_c, 0, 57, 0
1, 45000, Note_on_c, 0, 71, 41
1, 45000, Note_on_c, 0, 55, 45
1, 45000, Note_on_c, 0, 62, 45
1, 45120, Tempo, 701754
1, 45120, Note_on_c, 0, 62, 0
1, 45120, Note_on_c, 0, 67, 0
1, 45120, Note_on_c, 0, 71, 0
1, 45120, Note_on_c, 0, 55, 0
1, 45120, Note_on_c, 0, 71, 44
1, 45120, Note_on_c, 0, 67, 44
1, 45120, Note_on_c, 0, 55, 50
1, 45120, Note_on_c, 0, 62, 50
1, 45177, Control_c, 0, 64, 127
1, 45360, Tempo, 641711
1, 45360, Note_on_c, 0, 55, 0
1, 45360, Note_on_c, 0, 59, 35
1, 45600, Tempo, 685714
1, 45600, Note_on_c, 0, 59, 0
1, 45600, Note_on_c, 0, 62, 0
1, 45600, Note_on_c, 0, 67, 0
1, 45600, Note_on_c, 0, 71, 0
1, 45600, Note_on_c, 0, 69, 40
1, 45600, Note_on_c, 0, 66, 40
1, 45600, Note_on_c, 0, 62, 38
1, 45614, Control_c, 0, 64, 0
1, 45770, Control_c, 0, 64, 127
1, 45840, Tempo, 722892
1, 45840, Note_on_c, 0, 50, 33
1, 46080, Tempo, 515952
1, 46080, Note_on_c, 0, 50, 0
1, 46080, Note_on_c, 0, 69, 0
1, 46080, Note_on_c, 0, 66, 0
1, 46080, Note_on_c, 0, 62, 0
1, 46080, Control_c, 0, 64, 0
1, 46080, Note_on_c, 0, 52, 35
1, 46200, Note_on_c, 0, 67, 26
1, 46200, Note_on_c, 0, 64, 26
1, 46200, Note_on_c, 0, 59, 26
1, 46320, Tempo, 502218
1, 46320, Note_on_c, 0, 59, 0
1, 46320, Note_on_c, 0, 52, 0
1, 46320, Note_on_c, 0, 67, 0
1, 46320, Note_on_c, 0, 64, 0
1, 46320, Note_on_c, 0, 54, 32
1, 46440, Note_on_c, 0, 54, 0
1, 46440, Note_on_c, 0, 59, 28
1, 46440, Note_on_c, 0, 67, 28
1, 46440, Note_on_c, 0, 64, 28
1, 46440, Note_on_c, 0, 55, 32
1, 46560, Note_on_c, 0, 55, 0
1, 46560, Note_on_c, 0, 59, 0
1, 46560, Note_on_c, 0, 67, 0
1, 46560, Note_on_c, 0, 64, 0
1, 46560, Note_on_c, 0, 57, 35
1, 46680, Note_on_c, 0, 57, 0
1, 46680, Note_on_c, 0, 60, 31
1, 46680, Note_on_c, 0, 66, 31
1, 46680, Note_on_c, 0, 64, 31
1, 46800, Tempo, 523149
1, 46800, Note_on_c, 0, 64, 0
1, 46800, Note_on_c, 0, 66, 0
1, 46800, Note_on_c, 0, 60, 0
1, 46800, Note_on_c, 0, 45, 32
1, 46920, Note_on_c, 0, 45, 0
1, 46920, Note_on_c, 0, 66, 26
1, 46920, Note_on_c, 0, 64, 26
1, 46920, Note_on_c, 0, 60, 26
1, 47040, Tempo, 513567
1, 47040, Note_on_c, 0, 60, 0
1, 47040, Note_on_c, 0, 64, 0
1, 47040, Note_on_c, 0, 66, 0
1, 47040, Note_on_c, 0, 47, 35
1, 47160, Note_on_c, 0, 47, 0
1, 47160, Note_on_c, 0, 66, 26
1, 47160, Note_on_c, 0, 63, 26
1, 47160, Note_on_c, 0, 59, 26
1, 47280, Tempo, 525624
1, 47280, Note_on_c, 0, 59, 0
1, 47280, Note_on_c, 0, 63, 0
1, 47280, Note_on_c, 0, 66, 0
1, 47280, Note_on_c, 0, 35, 32
1, 47400, Note_on_c, 0, 35, 0
1, 47400, Note_on_c, 0, 66, 27
1, 47400, Note_on_c, 0, 63, 27
1, 47400, Note_on_c, 0, 59, 27
1, 47520, Note_on_c, 0, 59, 0
1, 47520, Note_on_c, 0, 63, 0
1, 47520, Note_on_c, 0, 66, 0
1, 47520, Note_on_c, 0, 40, 41
1, 47640, Note_on_c, 0, 40, 0
1, 47640, Note_on_c, 0, 59, 31
1, 47640, Note_on_c, 0, 64, 31
1, 47640, Note_on_c, 0, 67, 31
1, 47760, Tempo, 545802
1, 47760, Note_on_c, 0, 67, 0
1, 47760, Note_on_c, 0, 64, 0
1, 47760, Note_on_c, 0, 59, 0
1, 47760, Note_on_c, 0, 43, 49
1, 47880, Note_on_c, 0, 43, 0
1, 47880, Note_on_c, 0, 62, 39
1, 47880, Note_on_c, 0, 55, 39
1, 47880, Note_on_c, 0, 59, 39
1, 48000, Tempo, 513567
1, 48000, Note_on_c, 0, 59, 0
1, 48000, Note_on_c, 0, 55, 0
1, 48000, Note_on_c, 0, 62, 0
1, 48000, Note_on_c, 0, 48, 46
1, 48120, Note_on_c, 0, 55, 30
1, 48120, Note_on_c, 0, 64, 30
1, 48120, Note_on_c, 0, 60, 30
1, 48240, Tempo, 493421
1, 48240, Note_on_c, 0, 60, 0
1, 48240, Note_on_c, 0, 48, 0
1, 48240, Note_on_c, 0, 55, 0
1, 48240, Note_on_c, 0, 64, 0
1, 48240, Note_on_c, 0, 50, 41
1, 48360, Note_on_c, 0, 50, 0
1, 48360, Note_on_c, 0, 55, 31
1, 48360, Note_on_c, 0, 60, 31
1, 48360, Note_on_c, 0, 64, 31
1, 48360, Note_on_c, 0, 52, 41
1, 48480, Note_on_c, 0, 52, 0
1, 48480, Note_on_c, 0, 55, 0
1, 48480, Note_on_c, 0, 60, 0
1, 48480, Note_on_c, 0, 64, 0
1, 48480, Note_on_c, 0, 53, 45
1, 48600, Note_on_c, 0, 53, 0
1, 48600, Note_on_c, 0, 57, 32
1, 48600, Note_on_c, 0, 60, 32
1, 48600, Note_on_c, 0, 62, 32
1, 48720, Tempo, 523149
1, 48720, Note_on_c, 0, 62, 0
1, 48720, Note_on_c, 0, 60, 0
1, 48720, Note_on_c, 0, 57, 0
1, 48720, Note_on_c, 0, 41, 40
1, 48840, Note_on_c, 0, 41, 0
1, 48840, Note_on_c, 0, 57, 28
1, 48840, Note_on_c, 0, 62, 28
1, 48840, Note_on_c, 0, 60, 28
1, 48960, Tempo, 513567
1, 48960, Note_on_c, 0, 60, 0
1, 48960, Note_on_c, 0, 62, 0
1, 48960, Note_on_c, 0, 57, 0
1, 48960, Note_on_c, 0, 43, 44
1, 49080, Note_on_c, 0, 43, 0
1, 49080, Note_on_c, 0, 62, 31
1, 49080, Note_on_c, 0, 55, 31
1, 49080, Note_on_c, 0, 59, 31
1, 49200, Tempo, 520698
1, 49200, Note_on_c, 0, 59, 0
1, 49200, Note_on_c, 0, 55, 0
1, 49200, Note_on_c, 0, 62, 0
1, 49200, Note_on_c, 0, 31, 40
1, 49320, Note_on_c, 0, 31, 0
1, 49320, Note_on_c, 0, 59, 32
1, 49320, Note_on_c, 0, 55, 32
1, 49320, Note_on_c, 0, 62, 32
1, 49440, Tempo, 545802
1, 49440, Note_on_c, 0, 62, 0
1, 49440, Note_on_c, 0, 55, 0
1, 49440, Note_on_c, 0, 59, 0
1, 49440, Note_on_c, 0, 36, 48
1, 49560, Note_on_c, 0, 64, 41
1, 49560, Note_on_c, 0, 55, 41
1, 49560, Note_on_c, 0, 60, 41
1, 49680, Note_on_c, 0, 36, 0
1, 49680, Note_on_c, 0, 35, 52
1, 49920, Tempo, 515952
1, 49920, Note_on_c, 0, 35, 0
1, 49920, Note_on_c, 0, 60, 0
1, 49920, Note_on_c, 0, 55, 0
1, 49920, Note_on_c, 0, 64, 0
1, 49920, Note_on_c, 0, 52, 41
1, 50040, Note_on_c, 0, 59, 31
1, 50040, Note_on_c, 0, 67, 31
1, 50040, Note_on_c, 0, 64, 31
1, 50160, Tempo, 502218
1, 50160, Note_on_c, 0, 64, 0
1, 50160, Note_on_c, 0, 52, 0
1, 50160, Note_on_c, 0, 59, 0
1, 50160, Note_on_c, 0, 67, 0
1, 50160, Note_on_c, 0, 54, 47
1, 50280, Note_on_c, 0, 54, 0
1, 50280, Note_on_c, 0, 64, 33
1, 50280, Note_on_c, 0, 59, 33
1, 50280, Note_on_c, 0, 67, 33
1, 50280, Note_on_c, 0, 55, 49
1, 50400, Note_on_c, 0, 55, 0
1, 50400, Note_on_c, 0, 64, 0
1, 50400, Note_on_c, 0, 59, 0
1, 50400, Note_on_c, 0, 67, 0
1, 50400, Note_on_c, 0, 57, 53
1, 50520, Note_on_c, 0, 57, 0
1, 50520, Note_on_c, 0, 60, 37
1, 50520, Note_on_c, 0, 66, 37
1, 50520, Note_on_c, 0, 64, 37
1, 50640, Tempo, 523149
1, 50640, Note_on_c, 0, 64, 0
1, 50640, Note_on_c, 0, 66, 0
1, 50640, Note_on_c, 0, 60, 0
1, 50640, Note_on_c, 0, 45, 41
1, 50760, Note_on_c, 0, 45, 0
1, 50760, Note_on_c, 0, 64, 28
1, 50760, Note_on_c, 0, 66, 28
1, 50760, Note_on_c, 0, 60, 28
1, 50880, Tempo, 513567
1, 50880, Note_on_c, 0, 60, 0
1, 50880, Note_on_c, 0, 66, 0
1, 50880, Note_on_c, 0, 64, 0
1, 50880, Note_on_c, 0, 47, 47
1, 51000, Note_on_c, 0, 47, 0
1, 51000, Note_on_c, 0, 59, 28
1, 51000, Note_on_c, 0, 63, 28
1, 51000, Note_on_c, 0, 66, 28
1, 51120, Tempo, 525624
1, 51120, Note_on_c, 0, 66, 0
1, 51120, Note_on_c, 0, 63, 0
1, 51120, Note_on_c, 0, 59, 0
1, 51120, Note_on_c, 0, 35, 40
1, 51240, Note_on_c, 0, 35, 0
1, 51240, Note_on_c, 0, 59, 29
1, 51240, Note_on_c, 0, 66, 29
1, 51240, Note_on_c, 0, 63, 29
1, 51360, Note_on_c, 0, 63, 0
1, 51360, Note_on_c, 0, 66, 0
1, 51360, Note_on_c, 0, 59, 0
1, 51360, Note_on_c, 0, 40, 46
1, 51480, Note_on_c, 0, 40, 0
1, 51480, Note_on_c, 0, 64, 34
1, 51480, Note_on_c, 0, 59, 34
1, 51480, Note_on_c, 0, 67, 34
1, 51600, Tempo, 545802
1, 51600, Note_on_c, 0, 67, 0
1, 51600, Note_on_c, 0, 59, 0
1, 51600, Note_on_c, 0, 64, 0
1, 51600, Note_on_c, 0, 43, 53
1, 51720, Note_on_c, 0, 43, 0
1, 51720, Note_on_c, 0, 55, 42
1, 51720, Note_on_c, 0, 62, 42
1, 51720, Note_on_c, 0, 59, 42
1, 51840, Tempo, 513567
1, 51840, Note_on_c, 0, 59, 0
1, 51840, Note_on_c, 0, 62, 0
1, 51840, Note_on_c, 0, 55, 0
1, 51840, Note_on_c, 0, 48, 59
1, 51960, Note_on_c, 0, 64, 35
1, 51960, Note_on_c, 0, 55, 35
1, 51960, Note_on_c, 0, 60, 35
1, 52080, Tempo, 493421
1, 52080, Note_on_c, 0, 60, 0
1, 52080, Note_on_c, 0, 48, 0
1, 52080, Note_on_c, 0, 64, 0
1, 52080, Note_on_c, 0, 55, 0
1, 52080, Note_on_c, 0, 50, 51
1, 52200, Note_on_c, 0, 50, 0
1, 52200, Note_on_c, 0, 60, 35
1, 52200, Note_on_c, 0, 55, 35
1, 52200, Note_on_c, 0, 64, 35
1, 52200, Note_on_c, 0, 52, 55
1, 52320, Note_on_c, 0, 52, 0
1, 52320, Note_on_c, 0, 60, 0
1, 52320, Note_on_c, 0, 55, 0
1, 52320, Note_on_c, 0, 64, 0
1, 52320, Note_on_c, 0, 53, 59
1, 52440, Note_on_c, 0, 53, 0
1, 52440, Note_on_c, 0, 57, 37
1, 52440, Note_on_c, 0, 60, 37
1, 52440, Note_on_c, 0, 62, 37
1, 52560, Tempo, 533002
1, 52560, Note_on_c, 0, 62, 0
1, 52560, Note_on_c, 0, 60, 0
1, 52560, Note_on_c, 0, 57, 0
1, 52560, Note_on_c, 0, 41, 49
1, 52680, Note_on_c, 0, 41, 0
1, 52680, Note_on_c, 0, 57, 31
1, 52680, Note_on_c, 0, 60, 31
1, 52680, Note_on_c, 0, 62, 31
1, 52800, Tempo, 518359
1, 52800, Note_on_c, 0, 62, 0
1, 52800, Note_on_c, 0, 60, 0
1, 52800, Note_on_c, 0, 57, 0
1, 52800, Note_on_c, 0, 43, 56
1, 52920, Note_on_c, 0, 43, 0
1, 52920, Note_on_c, 0, 62, 35
1, 52920, Note_on_c, 0, 55, 35
1, 52920, Note_on_c, 0, 59, 35
1, 53040, Tempo, 530504
1, 53040, Note_on_c, 0, 59, 0
1, 53040, Note_on_c, 0, 55, 0
1, 53040, Note_on_c, 0, 62, 0
1, 53040, Note_on_c, 0, 31, 50
1, 53160, Note_on_c, 0, 31, 0
1, 53160, Note_on_c, 0, 59, 39
1, 53160, Note_on_c, 0, 55, 39
1, 53160, Note_on_c, 0, 62, 39
1, 53280, Tempo, 570722
1, 53280, Note_on_c, 0, 62, 0
1, 53280, Note_on_c, 0, 55, 0
1, 53280, Note_on_c, 0, 59, 0
1, 53280, Note_on_c, 0, 36, 56
1, 53400, Note_on_c, 0, 60, 49
1, 53400, Note_on_c, 0, 64, 49
1, 53400, Note_on_c, 0, 55, 49
1, 53520, Tempo, 795862
1, 53520, Note_on_c, 0, 36, 0
1, 53520, Note_on_c, 0, 35, 62
1, 53730, Note_on_c, 0, 35, 0
1, 53730, Note_on_c, 0, 55, 0
1, 53730, Note_on_c, 0, 64, 0
1, 53730, Note_on_c, 0, 60, 0
1, 53760, Tempo, 615385
1, 53760, Note_on_c, 0, 71, 49
1, 53760, Control_c, 0, 91, 127
1, 53760, Control_c, 0, 91, 127
1, 53824, Control_c, 0, 64, 127
1, 54000, Note_on_c, 0, 67, 35
1, 54000, Note_on_c, 0, 64, 35
1, 54240, Tempo, 600000
1, 54240, Note_on_c, 0, 64, 0
1, 54240, Note_on_c, 0, 67, 0
1, 54240, Note_on_c, 0, 71, 0
1, 54240, Note_on_c, 0, 66, 29
1, 54240, Note_on_c, 0, 71, 49
1, 54240, Note_on_c, 0, 63, 29
1, 54261, Control_c, 0, 64, 0
1, 54480, Note_on_c, 0, 63, 0
1, 54480, Note_on_c, 0, 66, 0
1, 54480, Note_on_c, 0, 65, 34
1, 54480, Note_on_c, 0, 62, 35
1, 54600, Note_on_c, 0, 71, 0
1, 54600, Note_on_c, 0, 71, 40
1, 54720, Note_on_c, 0, 71, 0
1, 54720, Note_on_c, 0, 62, 0
1, 54720, Note_on_c, 0, 65, 0
1, 54720, Note_on_c, 0, 61, 33
1, 54720, Note_on_c, 0, 71, 49
1, 54720, Note_on_c, 0, 64, 33
1, 54960, Tempo, 612245
1, 54960, Note_on_c, 0, 71, 0
1, 54960, Note_on_c, 0, 70, 46
1, 55200, Tempo, 582524
1, 55200, Note_on_c, 0, 76, 48
1, 55440, Tempo, 591133
1, 55440, Note_on_c, 0, 76, 0
1, 55440, Note_on_c, 0, 61, 0
1, 55440, Note_on_c, 0, 64, 0
1, 55440, Note_on_c, 0, 70, 0
1, 55440, Note_on_c, 0, 63, 33
1, 55440, Note_on_c, 0, 75, 47
1, 55440, Note_on_c, 0, 60, 33
1, 55440, Note_on_c, 0, 69, 33
1, 55680, Tempo, 600000
1, 55680, Note_on_c, 0, 60, 0
1, 55680, Note_on_c, 0, 63, 0
1, 55680, Note_on_c, 0, 75, 0
1, 55680, Note_on_c, 0, 74, 49
1, 55680, Note_on_c, 0, 62, 41
1, 55680, Note_on_c, 0, 59, 41
1, 55920, Tempo, 631579
1, 55920, Note_on_c, 0, 74, 0
1, 55920, Note_on_c, 0, 69, 0
1, 55920, Note_on_c, 0, 67, 42
1, 56160, Tempo, 600000
1, 56160, Note_on_c, 0, 67, 0
1, 56160, Note_on_c, 0, 62, 0
1, 56160, Note_on_c, 0, 59, 0
1, 56160, Note_on_c, 0, 72, 47
1, 56160, Note_on_c, 0, 66, 34
1, 56160, Note_on_c, 0, 57, 39
1, 56160, Note_on_c, 0, 62, 39
1, 56240, Tempo, 603015
1, 56304, Tempo, 606061
1, 56372, Tempo, 609137
1, 56400, Note_on_c, 0, 66, 0
1, 56400, Note_on_c, 0, 67, 39
1, 56440, Tempo, 612245
1, 56504, Tempo, 615385
1, 56520, Note_on_c, 0, 72, 0
1, 56520, Note_on_c, 0, 62, 0
1, 56520, Note_on_c, 0, 57, 0
1, 56520, Note_on_c, 0, 71, 45
1, 56520, Note_on_c, 0, 55, 34
1, 56520, Note_on_c, 0, 62, 34
1, 56572, Tempo, 618557
1, 56640, Tempo, 621762
1, 56640, Note_on_c, 0, 62, 0
1, 56640, Note_on_c, 0, 67, 0
1, 56640, Note_on_c, 0, 71, 0
1, 56640, Note_on_c, 0, 55, 0
1, 56640, Note_on_c, 0, 67, 46
1, 56640, Note_on_c, 0, 71, 46
1, 56640, Note_on_c, 0, 55, 38
1, 56640, Note_on_c, 0, 62, 38
1, 56697, Control_c, 0, 64, 127
1, 56880, Note_on_c, 0, 55, 0
1, 56880, Note_on_c, 0, 59, 39
1, 57120, Note_on_c, 0, 59, 0
1, 57120, Note_on_c, 0, 62, 0
1, 57120, Note_on_c, 0, 71, 0
1, 57120, Note_on_c, 0, 67, 0
1, 57120, Note_on_c, 0, 66, 45
1, 57120, Note_on_c, 0, 69, 45
1, 57120, Note_on_c, 0, 62, 40
1, 57124, Control_c, 0, 64, 0
1, 57276, Control_c, 0, 64, 127
1, 57360, Note_on_c, 0, 50, 38
1, 57600, Tempo, 609137
1, 57600, Note_on_c, 0, 62, 0
1, 57600, Note_on_c, 0, 66, 0
1, 57600, Note_on_c, 0, 69, 0
1, 57600, Control_c, 0, 64, 0
1, 57600, Note_on_c, 0, 62, 61
1, 57840, Note_on_c, 0, 79, 46
1, 57840, Note_on_c, 0, 71, 46
1, 57840, Note_on_c, 0, 74, 46
1, 58080, Tempo, 603015
1, 58080, Note_on_c, 0, 74, 0
1, 58080, Note_on_c, 0, 79, 0
1, 58080, Note_on_c, 0, 71, 0
1, 58080, Note_on_c, 0, 62, 0
1, 58080, Note_on_c, 0, 69, 48
1, 58080, Note_on_c, 0, 74, 48
1, 58080, Note_on_c, 0, 78, 48
1, 58080, Note_on_c, 0, 62, 60
1, 58320, Note_on_c, 0, 78, 0
1, 58320, Note_on_c, 0, 74, 0
1, 58320, Note_on_c, 0, 69, 0
1, 58320, Note_on_c, 0, 67, 50
1, 58320, Note_on_c, 0, 73, 50
1, 58320, Note_on_c, 0, 76, 50
1, 58440, Note_on_c, 0, 62, 0
1, 58440, Note_on_c, 0, 62, 56
1, 58560, Tempo, 612245
1, 58560, Note_on_c, 0, 62, 0
1, 58560, Note_on_c, 0, 76, 0
1, 58560, Note_on_c, 0, 50, 0
1, 58560, Note_on_c, 0, 67, 0
1, 58560, Note_on_c, 0, 73, 0
1, 58560, Note_on_c, 0, 69, 56
1, 58560, Note_on_c, 0, 74, 56
1, 58560, Note_on_c, 0, 66, 56
1, 58560, Note_on_c, 0, 62, 60
1, 58687, Control_c, 0, 64, 127
1, 58800, Tempo, 631579
1, 58800, Note_on_c, 0, 62, 0
1, 58800, Note_on_c, 0, 60, 56
1, 59040, Tempo, 603015
1, 59040, Note_on_c, 0, 60, 0
1, 59040, Note_on_c, 0, 64, 58
1, 59050, Control_c, 0, 64, 0
1, 59210, Control_c, 0, 64, 127
1, 59280, Tempo, 597015
1, 59280, Note_on_c, 0, 64, 0
1, 59280, Note_on_c, 0, 62, 55
1, 59360, Tempo, 597015
1, 59480, Tempo, 600000
1, 59520, Note_on_c, 0, 62, 0
1, 59520, Control_c, 0, 64, 0
1, 59520, Note_on_c, 0, 60, 57
1, 59560, Tempo, 603015
1, 59640, Tempo, 606061
1, 59720, Tempo, 609137
1, 59760, Tempo, 648649
1, 59760, Note_on_c, 0, 60, 0
1, 59760, Note_on_c, 0, 69, 0
1, 59760, Note_on_c, 0, 74, 0
1, 59760, Note_on_c, 0, 66, 0
1, 59760, Note_on_c, 0, 74, 45
1, 59760, Note_on_c, 0, 67, 45
1, 59760, Note_on_c, 0, 59, 51
1, 59760, Note_on_c, 0, 62, 51
1, 60000, Tempo, 681818
1, 60000, Note_on_c, 0, 62, 0
1, 60000, Note_on_c, 0, 59, 0
1, 60000, Note_on_c, 0, 74, 0
1, 60000, Note_on_c, 0, 72, 42
1, 60000, Note_on_c, 0, 57, 55
1, 60000, Note_on_c, 0, 64, 55
1, 60240, Note_on_c, 0, 64, 0
1, 60240, Note_on_c, 0, 67, 0
1, 60240, Note_on_c, 0, 72, 0
1, 60240, Note_on_c, 0, 57, 0
1, 60360, Tempo, 722892
1, 60360, Note_on_c, 0, 60, 37
1, 60360, Note_on_c, 0, 66, 37
1, 60360, Note_on_c, 0, 50, 40
1, 60360, Note_on_c, 0, 57, 40
1, 60480, Tempo, 800000
1, 60480, Note_on_c, 0, 57, 0
1, 60480, Note_on_c, 0, 60, 0
1, 60480, Note_on_c, 0, 66, 0
1, 60480, Note_on_c, 0, 50, 0
1, 60480, Note_on_c, 0, 60, 41
1, 60480, Note_on_c, 0, 66, 41
1, 60480, Note_on_c, 0, 50, 45
1, 60480, Note_on_c, 0, 57, 45
1, 60587, Control_c, 0, 64, 127
1, 60960, Note_on_c, 0, 57, 0
1, 60960, Note_on_c, 0, 60, 0
1, 60960, Note_on_c, 0, 66, 0
1, 60960, Note_on_c, 0, 67, 36
1, 60960, Note_on_c, 0, 59, 36
1, 60960, Note_on_c, 0, 43, 36
1, 60970, Control_c, 0, 64, 0
1, 61280, Control_c, 0, 64, 127
1, 61440, Note_on_c, 0, 43, 0
1, 61440, Note_on_c, 0, 50, 0
1, 61440, Note_on_c, 0, 67, 0
1, 61440, Note_on_c, 0, 59, 0
1, 61494, Control_c, 0, 64, 0
1, 65280, Tempo, 585366
1, 65294, Marker_t, "Fine"
1, 65294, End_track
0, 0, End_of_file
