0, 0, Header, 0, 1, 384
1, 0, Start_track
1, 0, Tempo, 512820
1, 0, Title_t, "Klaviersonate in1. Satz"
1, 0, Program_c, 0, 0
1, 0, Control_c, 0, 7, 100
1, 3, Control_c, 0, 10, 64
1, 3, Control_c, 0, 91, 127
1, 3, Program_c, 0, 0
1, 6, Control_c, 0, 7, 100
1, 6, Control_c, 0, 10, 64
1, 6, Control_c, 0, 64, 0
1, 1142, Control_c, 0, 64, 127
1, 1181, Control_c, 0, 91, 127
1, 1181, Control_c, 0, 91, 127
1, 1181, Note_on_c, 0, 67, 65
1, 1181, Note_on_c, 0, 59, 55
1, 1181, Note_on_c, 0, 55, 55
1, 1433, Note_on_c, 0, 67, 0
1, 1433, Note_on_c, 0, 67, 69
1, 1433, Note_on_c, 0, 55, 0
1, 1436, Note_on_c, 0, 59, 0
1, 1436, Note_on_c, 0, 55, 57
1, 1436, Note_on_c, 0, 59, 57
1, 1815, Control_c, 0, 64, 0
1, 1847, Note_on_c, 0, 67, 0
1, 1847, Note_on_c, 0, 71, 67
1, 1906, Note_on_c, 0, 71, 0
1, 1906, Note_on_c, 0, 69, 67
1, 1906, Note_on_c, 0, 59, 0
1, 1909, Note_on_c, 0, 55, 0
1, 1909, Note_on_c, 0, 55, 55
1, 1909, Note_on_c, 0, 60, 55
1, 2147, Note_on_c, 0, 69, 0
1, 2147, Note_on_c, 0, 62, 69
1, 2147, Note_on_c, 0, 60, 0
1, 2150, Note_on_c, 0, 55, 0
1, 2150, Note_on_c, 0, 55, 57
1, 2150, Note_on_c, 0, 60, 57
1, 2160, Control_c, 0, 64, 127
1, 2381, Note_on_c, 0, 62, 0
1, 2381, Note_on_c, 0, 64, 64
1, 2578, Control_c, 0, 64, 0
1, 2615, Note_on_c, 0, 64, 0
1, 2615, Note_on_c, 0, 66, 64
1, 2615, Note_on_c, 0, 60, 0
1, 2618, Note_on_c, 0, 55, 0
1, 2618, Note_on_c, 0, 55, 55
1, 2618, Note_on_c, 0, 60, 55
1, 2732, Note_on_c, 0, 66, 0
1, 2732, Note_on_c, 0, 67, 63
1, 2762, Note_on_c, 0, 67, 0
1, 2762, Note_on_c, 0, 66, 63
1, 2791, Note_on_c, 0, 66, 0
1, 2791, Note_on_c, 0, 64, 63
1, 2820, Note_on_c, 0, 64, 0
1, 2820, Note_on_c, 0, 66, 63
1, 2849, Note_on_c, 0, 66, 0
1, 2849, Note_on_c, 0, 67, 65
1, 2849, Note_on_c, 0, 60, 0
1, 2852, Note_on_c, 0, 55, 0
1, 2852, Note_on_c, 0, 55, 54
1, 2852, Note_on_c, 0, 59, 54
1, 2938, Note_on_c, 0, 67, 0
1, 2938, Note_on_c, 0, 59, 0
1, 2938, Note_on_c, 0, 55, 0
1, 3086, Note_on_c, 0, 67, 63
1, 3086, Note_on_c, 0, 55, 53
1, 3086, Note_on_c, 0, 59, 53
1, 3174, Note_on_c, 0, 67, 0
1, 3174, Note_on_c, 0, 59, 0
1, 3174, Note_on_c, 0, 55, 0
1, 3322, Note_on_c, 0, 67, 63
1, 3322, Note_on_c, 0, 55, 53
1, 3322, Note_on_c, 0, 59, 53
1, 3411, Note_on_c, 0, 67, 0
1, 3411, Note_on_c, 0, 59, 0
1, 3411, Note_on_c, 0, 55, 0
1, 3559, Note_on_c, 0, 67, 63
1, 3559, Note_on_c, 0, 55, 53
1, 3559, Note_on_c, 0, 59, 53
1, 4038, Note_on_c, 0, 67, 0
1, 4038, Note_on_c, 0, 62, 63
1, 4038, Note_on_c, 0, 69, 63
1, 4041, Note_on_c, 0, 59, 0
1, 4041, Note_on_c, 0, 55, 0
1, 4041, Note_on_c, 0, 54, 53
1, 4213, Note_on_c, 0, 69, 0
1, 4213, Note_on_c, 0, 72, 63
1, 4213, Note_on_c, 0, 54, 0
1, 4216, Note_on_c, 0, 57, 53
1, 4272, Note_on_c, 0, 72, 0
1, 4272, Note_on_c, 0, 62, 0
1, 4272, Note_on_c, 0, 62, 59
1, 4275, Note_on_c, 0, 71, 69
1, 4275, Note_on_c, 0, 57, 0
1, 4275, Note_on_c, 0, 55, 56
1, 4336, Control_c, 0, 64, 127
1, 4463, Control_c, 0, 64, 0
1, 4501, Note_on_c, 0, 71, 0
1, 4501, Note_on_c, 0, 69, 63
1, 4501, Note_on_c, 0, 55, 0
1, 4504, Note_on_c, 0, 54, 53
1, 4552, Control_c, 0, 64, 127
1, 4680, Control_c, 0, 64, 0
1, 4730, Note_on_c, 0, 69, 0
1, 4730, Note_on_c, 0, 71, 63
1, 4730, Note_on_c, 0, 54, 0
1, 4733, Note_on_c, 0, 55, 53
1, 4768, Control_c, 0, 64, 127
1, 4959, Note_on_c, 0, 71, 0
1, 4959, Note_on_c, 0, 62, 0
1, 4959, Note_on_c, 0, 66, 62
1, 4962, Note_on_c, 0, 62, 53
1, 4962, Note_on_c, 0, 74, 69
1, 4962, Note_on_c, 0, 55, 0
1, 4965, Note_on_c, 0, 57, 55
1, 4997, Control_c, 0, 64, 0
1, 5111, Control_c, 0, 64, 127
1, 5188, Note_on_c, 0, 74, 0
1, 5188, Note_on_c, 0, 72, 63
1, 5316, Control_c, 0, 64, 0
1, 5419, Note_on_c, 0, 72, 0
1, 5419, Note_on_c, 0, 66, 0
1, 5419, Note_on_c, 0, 67, 63
1, 5422, Note_on_c, 0, 71, 63
1, 5422, Note_on_c, 0, 57, 0
1, 5422, Note_on_c, 0, 55, 53
1, 5656, Note_on_c, 0, 71, 0
1, 5656, Note_on_c, 0, 67, 0
1, 5656, Note_on_c, 0, 62, 0
1, 5659, Note_on_c, 0, 67, 67
1, 5659, Note_on_c, 0, 71, 67
1, 5659, Note_on_c, 0, 55, 0
1, 5662, Control_c, 0, 64, 127
1, 5662, Note_on_c, 0, 50, 55
1, 5885, Note_on_c, 0, 71, 0
1, 5885, Note_on_c, 0, 67, 0
1, 5885, Note_on_c, 0, 66, 63
1, 5888, Note_on_c, 0, 69, 63
1, 5888, Note_on_c, 0, 50, 0
1, 5888, Note_on_c, 0, 62, 53
1, 5911, Control_c, 0, 64, 0
1, 5971, Control_c, 0, 64, 127
1, 6113, Note_on_c, 0, 69, 0
1, 6113, Note_on_c, 0, 66, 0
1, 6113, Note_on_c, 0, 66, 63
1, 6116, Note_on_c, 0, 69, 63
1, 6116, Note_on_c, 0, 62, 0
1, 6116, Note_on_c, 0, 62, 53
1, 6341, Note_on_c, 0, 69, 0
1, 6341, Note_on_c, 0, 66, 0
1, 6341, Note_on_c, 0, 66, 63
1, 6344, Note_on_c, 0, 69, 63
1, 6344, Note_on_c, 0, 62, 0
1, 6344, Note_on_c, 0, 62, 53
1, 6519, Control_c, 0, 64, 0
1, 6574, Note_on_c, 0, 62, 0
1, 6574, Note_on_c, 0, 60, 53
1, 6807, Note_on_c, 0, 69, 0
1, 6807, Note_on_c, 0, 66, 0
1, 6807, Note_on_c, 0, 68, 65
1, 6810, Note_on_c, 0, 71, 65
1, 6810, Note_on_c, 0, 60, 0
1, 6810, Note_on_c, 0, 59, 54
1, 7037, Note_on_c, 0, 71, 0
1, 7037, Note_on_c, 0, 68, 0
1, 7037, Note_on_c, 0, 69, 69
1, 7040, Note_on_c, 0, 72, 69
1, 7040, Note_on_c, 0, 59, 0
1, 7040, Note_on_c, 0, 57, 57
1, 7068, Control_c, 0, 64, 127
1, 7267, Note_on_c, 0, 72, 0
1, 7267, Note_on_c, 0, 69, 0
1, 7267, Note_on_c, 0, 71, 71
1, 7270, Note_on_c, 0, 74, 71
1, 7278, Control_c, 0, 64, 0
1, 7305, Control_c, 0, 64, 127
1, 7498, Note_on_c, 0, 74, 0
1, 7498, Note_on_c, 0, 71, 0
1, 7498, Note_on_c, 0, 72, 71
1, 7501, Note_on_c, 0, 76, 71
1, 7501, Note_on_c, 0, 57, 0
1, 7501, Control_c, 0, 64, 0
1, 7504, Note_on_c, 0, 55, 56
1, 7543, Control_c, 0, 64, 127
1, 7660, Control_c, 0, 64, 0
1, 7732, Note_on_c, 0, 76, 0
1, 7732, Note_on_c, 0, 72, 0
1, 7732, Note_on_c, 0, 72, 71
1, 7735, Note_on_c, 0, 76, 71
1, 7735, Note_on_c, 0, 55, 0
1, 7735, Note_on_c, 0, 54, 57
1, 7735, Control_c, 0, 64, 127
1, 7970, Note_on_c, 0, 54, 0
1, 7970, Note_on_c, 0, 57, 56
1, 8137, Control_c, 0, 64, 0
1, 8207, Note_on_c, 0, 76, 0
1, 8207, Note_on_c, 0, 72, 0
1, 8207, Note_on_c, 0, 72, 72
1, 8210, Note_on_c, 0, 69, 72
1, 8210, Note_on_c, 0, 57, 0
1, 8210, Note_on_c, 0, 62, 56
1, 8284, Note_on_c, 0, 72, 0
1, 8284, Note_on_c, 0, 71, 60
1, 8362, Note_on_c, 0, 71, 0
1, 8362, Note_on_c, 0, 72, 62
1, 8446, Note_on_c, 0, 72, 0
1, 8446, Note_on_c, 0, 69, 0
1, 8446, Note_on_c, 0, 67, 70
1, 8449, Note_on_c, 0, 71, 70
1, 8449, Note_on_c, 0, 62, 0
1, 8449, Note_on_c, 0, 55, 65
1, 8555, Control_c, 0, 64, 127
1, 8653, Control_c, 0, 64, 0
1, 8675, Note_on_c, 0, 71, 0
1, 8675, Note_on_c, 0, 67, 0
1, 8675, Note_on_c, 0, 69, 69
1, 8678, Note_on_c, 0, 72, 69
1, 8762, Control_c, 0, 64, 127
1, 8872, Control_c, 0, 64, 0
1, 8905, Note_on_c, 0, 72, 0
1, 8905, Note_on_c, 0, 69, 0
1, 8905, Note_on_c, 0, 71, 69
1, 8908, Note_on_c, 0, 74, 69
1, 8908, Note_on_c, 0, 65, 65
1, 8948, Control_c, 0, 64, 127
1, 9134, Note_on_c, 0, 74, 0
1, 9134, Note_on_c, 0, 71, 0
1, 9134, Note_on_c, 0, 67, 71
1, 9137, Note_on_c, 0, 72, 71
1, 9137, Note_on_c, 0, 65, 0
1, 9137, Control_c, 0, 64, 0
1, 9140, Note_on_c, 0, 64, 65
1, 9200, Control_c, 0, 64, 127
1, 9363, Note_on_c, 0, 72, 0
1, 9363, Note_on_c, 0, 74, 71
1, 9363, Note_on_c, 0, 64, 0
1, 9366, Note_on_c, 0, 62, 65
1, 9483, Control_c, 0, 64, 0
1, 9591, Note_on_c, 0, 74, 0
1, 9591, Note_on_c, 0, 76, 71
1, 9591, Note_on_c, 0, 62, 0
1, 9594, Note_on_c, 0, 60, 65
1, 9819, Note_on_c, 0, 76, 0
1, 9819, Note_on_c, 0, 74, 73
1, 9819, Note_on_c, 0, 60, 0
1, 9822, Note_on_c, 0, 59, 60
1, 9880, Control_c, 0, 64, 127
1, 10051, Note_on_c, 0, 74, 0
1, 10051, Note_on_c, 0, 67, 0
1, 10051, Note_on_c, 0, 79, 79
1, 10054, Note_on_c, 0, 59, 0
1, 10054, Note_on_c, 0, 55, 0
1, 10054, Note_on_c, 0, 54, 57
1, 10057, Note_on_c, 0, 57, 57
1, 10282, Note_on_c, 0, 79, 0
1, 10282, Note_on_c, 0, 79, 79
1, 10282, Note_on_c, 0, 57, 0
1, 10285, Note_on_c, 0, 54, 0
1, 10285, Note_on_c, 0, 52, 57
1, 10285, Note_on_c, 0, 55, 57
1, 10514, Note_on_c, 0, 79, 0
1, 10514, Note_on_c, 0, 81, 82
1, 10514, Note_on_c, 0, 55, 0
1, 10517, Note_on_c, 0, 52, 0
1, 10517, Note_on_c, 0, 52, 61
1, 10517, Note_on_c, 0, 55, 61
1, 10530, Control_c, 0, 64, 0
1, 10590, Control_c, 0, 64, 127
1, 10629, Note_on_c, 0, 81, 0
1, 10629, Note_on_c, 0, 79, 73
1, 10743, Note_on_c, 0, 79, 0
1, 10743, Note_on_c, 0, 78, 79
1, 10743, Note_on_c, 0, 55, 0
1, 10746, Note_on_c, 0, 59, 60
1, 10858, Note_on_c, 0, 78, 0
1, 10858, Note_on_c, 0, 76, 70
1, 10972, Note_on_c, 0, 76, 0
1, 10972, Note_on_c, 0, 74, 77
1, 10972, Note_on_c, 0, 59, 0
1, 10975, Note_on_c, 0, 52, 0
1, 10975, Note_on_c, 0, 57, 57
1, 10975, Note_on_c, 0, 67, 57
1, 11087, Note_on_c, 0, 74, 0
1, 11087, Note_on_c, 0, 73, 69
1, 11215, Note_on_c, 0, 73, 0
1, 11215, Note_on_c, 0, 76, 67
1, 11215, Note_on_c, 0, 57, 0
1, 11218, Control_c, 0, 64, 0
1, 11218, Note_on_c, 0, 62, 57
1, 11281, Control_c, 0, 64, 127
1, 11396, Control_c, 0, 64, 0
1, 11462, Note_on_c, 0, 76, 0
1, 11462, Note_on_c, 0, 74, 62
1, 11462, Note_on_c, 0, 67, 0
1, 11465, Note_on_c, 0, 66, 53
1, 11506, Control_c, 0, 64, 127
1, 11710, Note_on_c, 0, 74, 0
1, 11710, Note_on_c, 0, 74, 62
1, 11710, Note_on_c, 0, 66, 0
1, 11713, Note_on_c, 0, 66, 53
1, 11959, Note_on_c, 0, 74, 0
1, 11959, Note_on_c, 0, 74, 62
1, 11959, Note_on_c, 0, 66, 0
1, 11962, Note_on_c, 0, 62, 0
1, 11962, Note_on_c, 0, 62, 47
1, 11962, Note_on_c, 0, 66, 47
1, 12119, Control_c, 0, 64, 0
1, 12331, Note_on_c, 0, 74, 0
1, 12331, Note_on_c, 0, 71, 62
1, 12455, Note_on_c, 0, 71, 0
1, 12455, Note_on_c, 0, 72, 62
1, 12455, Note_on_c, 0, 66, 0
1, 12458, Note_on_c, 0, 62, 0
1, 12579, Note_on_c, 0, 72, 0
1, 12579, Note_on_c, 0, 69, 62
1, 12703, Note_on_c, 0, 69, 0
1, 12703, Note_on_c, 0, 67, 69
1, 12703, Note_on_c, 0, 55, 57
1, 12706, Note_on_c, 0, 59, 57
1, 12735, Control_c, 0, 64, 127
1, 13061, Control_c, 0, 64, 0
1, 13117, Note_on_c, 0, 67, 0
1, 13117, Note_on_c, 0, 71, 67
1, 13176, Note_on_c, 0, 71, 0
1, 13176, Note_on_c, 0, 69, 67
1, 13176, Note_on_c, 0, 59, 0
1, 13179, Note_on_c, 0, 55, 0
1, 13179, Note_on_c, 0, 55, 55
1, 13179, Note_on_c, 0, 60, 55
1, 13418, Note_on_c, 0, 69, 0
1, 13418, Note_on_c, 0, 62, 69
1, 13418, Note_on_c, 0, 60, 0
1, 13421, Note_on_c, 0, 55, 0
1, 13421, Note_on_c, 0, 55, 57
1, 13421, Note_on_c, 0, 60, 57
1, 13442, Control_c, 0, 64, 127
1, 13652, Note_on_c, 0, 62, 0
1, 13652, Note_on_c, 0, 64, 64
1, 13824, Control_c, 0, 64, 0
1, 13886, Note_on_c, 0, 64, 0
1, 13886, Note_on_c, 0, 66, 64
1, 13886, Note_on_c, 0, 60, 0
1, 13889, Note_on_c, 0, 55, 0
1, 13889, Note_on_c, 0, 55, 55
1, 13889, Note_on_c, 0, 60, 55
1, 14003, Note_on_c, 0, 66, 0
1, 14003, Note_on_c, 0, 67, 63
1, 14032, Note_on_c, 0, 67, 0
1, 14032, Note_on_c, 0, 66, 63
1, 14061, Note_on_c, 0, 66, 0
1, 14061, Note_on_c, 0, 64, 63
1, 14091, Note_on_c, 0, 64, 0
1, 14091, Note_on_c, 0, 66, 63
1, 14120, Note_on_c, 0, 66, 0
1, 14120, Note_on_c, 0, 67, 65
1, 14120, Note_on_c, 0, 60, 0
1, 14123, Note_on_c, 0, 55, 0
1, 14123, Note_on_c, 0, 55, 54
1, 14123, Note_on_c, 0, 59, 54
1, 14208, Note_on_c, 0, 67, 0
1, 14208, Note_on_c, 0, 59, 0
1, 14208, Note_on_c, 0, 55, 0
1, 14356, Note_on_c, 0, 67, 63
1, 14356, Note_on_c, 0, 55, 53
1, 14356, Note_on_c, 0, 59, 53
1, 14445, Note_on_c, 0, 67, 0
1, 14445, Note_on_c, 0, 59, 0
1, 14445, Note_on_c, 0, 55, 0
1, 14593, Note_on_c, 0, 67, 63
1, 14593, Note_on_c, 0, 55, 53
1, 14593, Note_on_c, 0, 59, 53
1, 14681, Note_on_c, 0, 67, 0
1, 14681, Note_on_c, 0, 59, 0
1, 14681, Note_on_c, 0, 55, 0
1, 14829, Note_on_c, 0, 67, 63
1, 14829, Note_on_c, 0, 55, 53
1, 14829, Note_on_c, 0, 59, 53
1, 15308, Note_on_c, 0, 67, 0
1, 15308, Note_on_c, 0, 62, 63
1, 15308, Note_on_c, 0, 69, 63
1, 15311, Note_on_c, 0, 59, 0
1, 15311, Note_on_c, 0, 55, 0
1, 15311, Note_on_c, 0, 54, 53
1, 15484, Note_on_c, 0, 69, 0
1, 15484, Note_on_c, 0, 72, 63
1, 15484, Note_on_c, 0, 54, 0
1, 15487, Note_on_c, 0, 57, 53
1, 15542, Note_on_c, 0, 72, 0
1, 15542, Note_on_c, 0, 62, 0
1, 15542, Note_on_c, 0, 62, 59
1, 15545, Note_on_c, 0, 71, 69
1, 15545, Note_on_c, 0, 57, 0
1, 15545, Note_on_c, 0, 55, 56
1, 15606, Control_c, 0, 64, 127
1, 15721, Control_c, 0, 64, 0
1, 15772, Note_on_c, 0, 71, 0
1, 15772, Note_on_c, 0, 69, 63
1, 15772, Note_on_c, 0, 55, 0
1, 15775, Note_on_c, 0, 54, 53
1, 15836, Control_c, 0, 64, 127
1, 15975, Control_c, 0, 64, 0
1, 16001, Note_on_c, 0, 69, 0
1, 16001, Note_on_c, 0, 71, 63
1, 16001, Note_on_c, 0, 54, 0
1, 16004, Note_on_c, 0, 55, 53
1, 16051, Control_c, 0, 64, 127
1, 16179, Control_c, 0, 64, 0
1, 16229, Note_on_c, 0, 71, 0
1, 16229, Note_on_c, 0, 62, 0
1, 16229, Note_on_c, 0, 66, 62
1, 16232, Note_on_c, 0, 62, 53
1, 16232, Note_on_c, 0, 74, 69
1, 16232, Note_on_c, 0, 55, 0
1, 16235, Note_on_c, 0, 57, 55
1, 16331, Control_c, 0, 64, 127
1, 16458, Note_on_c, 0, 74, 0
1, 16458, Note_on_c, 0, 72, 63
1, 16561, Control_c, 0, 64, 0
1, 16690, Note_on_c, 0, 72, 0
1, 16690, Note_on_c, 0, 66, 0
1, 16690, Note_on_c, 0, 67, 63
1, 16693, Note_on_c, 0, 71, 63
1, 16693, Note_on_c, 0, 57, 0
1, 16693, Note_on_c, 0, 55, 53
1, 16702, Control_c, 0, 64, 127
1, 16919, Control_c, 0, 64, 0
1, 16925, Note_on_c, 0, 71, 0
1, 16925, Note_on_c, 0, 67, 0
1, 16925, Note_on_c, 0, 62, 0
1, 16928, Note_on_c, 0, 67, 67
1, 16928, Note_on_c, 0, 71, 67
1, 16928, Note_on_c, 0, 55, 0
1, 16931, Note_on_c, 0, 50, 55
1, 16947, Control_c, 0, 64, 127
1, 17045, Control_c, 0, 64, 0
1, 17154, Note_on_c, 0, 71, 0
1, 17154, Note_on_c, 0, 67, 0
1, 17154, Note_on_c, 0, 66, 63
1, 17157, Note_on_c, 0, 69, 63
1, 17157, Note_on_c, 0, 50, 0
1, 17157, Note_on_c, 0, 62, 53
1, 17176, Control_c, 0, 64, 127
1, 17382, Note_on_c, 0, 69, 0
1, 17382, Note_on_c, 0, 66, 0
1, 17382, Note_on_c, 0, 66, 63
1, 17385, Note_on_c, 0, 69, 63
1, 17385, Note_on_c, 0, 62, 0
1, 17385, Note_on_c, 0, 62, 53
1, 17610, Note_on_c, 0, 69, 0
1, 17610, Note_on_c, 0, 66, 0
1, 17610, Note_on_c, 0, 66, 63
1, 17613, Note_on_c, 0, 69, 63
1, 17613, Note_on_c, 0, 62, 0
1, 17613, Note_on_c, 0, 62, 53
1, 17843, Note_on_c, 0, 62, 0
1, 17843, Note_on_c, 0, 60, 53
1, 17921, Control_c, 0, 64, 0
1, 18076, Note_on_c, 0, 69, 0
1, 18076, Note_on_c, 0, 66, 0
1, 18076, Note_on_c, 0, 68, 65
1, 18079, Note_on_c, 0, 71, 65
1, 18079, Note_on_c, 0, 60, 0
1, 18079, Note_on_c, 0, 59, 54
1, 18306, Note_on_c, 0, 71, 0
1, 18306, Note_on_c, 0, 68, 0
1, 18306, Note_on_c, 0, 69, 69
1, 18309, Note_on_c, 0, 72, 69
1, 18309, Note_on_c, 0, 59, 0
1, 18309, Note_on_c, 0, 57, 57
1, 18368, Control_c, 0, 64, 127
1, 18537, Note_on_c, 0, 72, 0
1, 18537, Note_on_c, 0, 69, 0
1, 18537, Note_on_c, 0, 71, 71
1, 18540, Note_on_c, 0, 74, 71
1, 18540, Control_c, 0, 64, 0
1, 18564, Control_c, 0, 64, 127
1, 18767, Note_on_c, 0, 74, 0
1, 18767, Note_on_c, 0, 71, 0
1, 18767, Note_on_c, 0, 72, 71
1, 18770, Note_on_c, 0, 76, 71
1, 18770, Note_on_c, 0, 57, 0
1, 18770, Note_on_c, 0, 55, 56
1, 18785, Control_c, 0, 64, 0
1, 18812, Control_c, 0, 64, 127
1, 18960, Control_c, 0, 64, 0
1, 19001, Note_on_c, 0, 76, 0
1, 19001, Note_on_c, 0, 72, 0
1, 19001, Note_on_c, 0, 72, 71
1, 19004, Note_on_c, 0, 76, 71
1, 19004, Note_on_c, 0, 55, 0
1, 19004, Note_on_c, 0, 54, 57
1, 19015, Control_c, 0, 64, 127
1, 19239, Note_on_c, 0, 54, 0
1, 19239, Note_on_c, 0, 57, 56
1, 19424, Control_c, 0, 64, 0
1, 19476, Note_on_c, 0, 76, 0
1, 19476, Note_on_c, 0, 72, 0
1, 19476, Note_on_c, 0, 72, 73
1, 19479, Note_on_c, 0, 69, 73
1, 19479, Note_on_c, 0, 57, 0
1, 19479, Note_on_c, 0, 62, 56
1, 19553, Note_on_c, 0, 72, 0
1, 19553, Note_on_c, 0, 71, 65
1, 19634, Note_on_c, 0, 71, 0
1, 19634, Note_on_c, 0, 72, 65
1, 19718, Note_on_c, 0, 72, 0
1, 19718, Note_on_c, 0, 69, 0
1, 19718, Note_on_c, 0, 67, 70
1, 19721, Note_on_c, 0, 71, 70
1, 19721, Note_on_c, 0, 62, 0
1, 19721, Control_c, 0, 64, 127
1, 19724, Note_on_c, 0, 55, 65
1, 19937, Control_c, 0, 64, 0
1, 19947, Note_on_c, 0, 71, 0
1, 19947, Note_on_c, 0, 67, 0
1, 19947, Note_on_c, 0, 69, 69
1, 19950, Note_on_c, 0, 72, 69
1, 20078, Control_c, 0, 64, 127
1, 20176, Note_on_c, 0, 72, 0
1, 20176, Note_on_c, 0, 69, 0
1, 20176, Note_on_c, 0, 71, 69
1, 20179, Note_on_c, 0, 74, 69
1, 20179, Note_on_c, 0, 65, 65
1, 20187, Control_c, 0, 64, 0
1, 20275, Control_c, 0, 64, 127
1, 20406, Note_on_c, 0, 74, 0
1, 20406, Note_on_c, 0, 71, 0
1, 20406, Note_on_c, 0, 67, 71
1, 20409, Note_on_c, 0, 72, 71
1, 20409, Note_on_c, 0, 65, 0
1, 20409, Note_on_c, 0, 64, 65
1, 20471, Control_c, 0, 64, 0
1, 20514, Control_c, 0, 64, 127
1, 20635, Note_on_c, 0, 72, 0
1, 20635, Note_on_c, 0, 74, 71
1, 20635, Note_on_c, 0, 64, 0
1, 20638, Note_on_c, 0, 62, 65
1, 20831, Control_c, 0, 64, 0
1, 20863, Note_on_c, 0, 74, 0
1, 20863, Note_on_c, 0, 76, 71
1, 20863, Note_on_c, 0, 62, 0
1, 20866, Note_on_c, 0, 60, 65
1, 21091, Note_on_c, 0, 76, 0
1, 21091, Note_on_c, 0, 74, 73
1, 21091, Note_on_c, 0, 60, 0
1, 21094, Note_on_c, 0, 59, 60
1, 21124, Control_c, 0, 64, 127
1, 21322, Note_on_c, 0, 74, 0
1, 21322, Note_on_c, 0, 67, 0
1, 21322, Note_on_c, 0, 79, 79
1, 21325, Note_on_c, 0, 59, 0
1, 21325, Note_on_c, 0, 55, 0
1, 21325, Note_on_c, 0, 54, 57
1, 21328, Note_on_c, 0, 57, 57
1, 21554, Note_on_c, 0, 79, 0
1, 21554, Note_on_c, 0, 79, 79
1, 21554, Note_on_c, 0, 57, 0
1, 21557, Note_on_c, 0, 54, 0
1, 21557, Note_on_c, 0, 52, 57
1, 21557, Note_on_c, 0, 55, 57
1, 21786, Note_on_c, 0, 79, 0
1, 21786, Note_on_c, 0, 81, 82
1, 21786, Note_on_c, 0, 55, 0
1, 21789, Note_on_c, 0, 52, 0
1, 21789, Note_on_c, 0, 52, 61
1, 21789, Note_on_c, 0, 55, 61
1, 21813, Control_c, 0, 64, 0
1, 21900, Note_on_c, 0, 81, 0
1, 21900, Note_on_c, 0, 79, 73
1, 21906, Control_c, 0, 64, 127
1, 22015, Note_on_c, 0, 79, 0
1, 22015, Note_on_c, 0, 78, 79
1, 22015, Note_on_c, 0, 55, 0
1, 22018, Note_on_c, 0, 59, 60
1, 22129, Note_on_c, 0, 78, 0
1, 22129, Note_on_c, 0, 76, 72
1, 22244, Note_on_c, 0, 76, 0
1, 22244, Note_on_c, 0, 74, 77
1, 22244, Note_on_c, 0, 59, 0
1, 22247, Note_on_c, 0, 52, 0
1, 22247, Note_on_c, 0, 57, 57
1, 22247, Note_on_c, 0, 67, 57
1, 22359, Note_on_c, 0, 74, 0
1, 22359, Note_on_c, 0, 73, 67
1, 22487, Note_on_c, 0, 73, 0
1, 22487, Note_on_c, 0, 76, 67
1, 22487, Note_on_c, 0, 57, 0
1, 22490, Control_c, 0, 64, 0
1, 22490, Note_on_c, 0, 62, 57
1, 22569, Control_c, 0, 64, 127
1, 22693, Control_c, 0, 64, 0
1, 22734, Note_on_c, 0, 76, 0
1, 22734, Note_on_c, 0, 74, 62
1, 22734, Note_on_c, 0, 67, 0
1, 22737, Note_on_c, 0, 66, 53
1, 22817, Control_c, 0, 64, 127
1, 22982, Note_on_c, 0, 74, 0
1, 22982, Note_on_c, 0, 74, 62
1, 22982, Note_on_c, 0, 66, 0
1, 22985, Note_on_c, 0, 66, 53
1, 23230, Note_on_c, 0, 74, 0
1, 23230, Note_on_c, 0, 74, 62
1, 23230, Note_on_c, 0, 66, 0
1, 23233, Note_on_c, 0, 62, 0
1, 23233, Note_on_c, 0, 62, 47
1, 23233, Note_on_c, 0, 66, 47
1, 23667, Control_c, 0, 64, 0
1, 23792, Note_on_c, 0, 74, 0
1, 23792, Note_on_c, 0, 79, 73
1, 23792, Note_on_c, 0, 66, 0
1, 23795, Note_on_c, 0, 62, 0
1, 23795, Note_on_c, 0, 62, 50
1, 23795, Note_on_c, 0, 59, 50
1, 23891, Control_c, 0, 64, 127
1, 24088, Note_on_c, 0, 79, 0
1, 24088, Note_on_c, 0, 79, 73
1, 24088, Note_on_c, 0, 59, 0
1, 24091, Note_on_c, 0, 62, 0
1, 24091, Note_on_c, 0, 62, 52
1, 24091, Note_on_c, 0, 59, 52
1, 24508, Control_c, 0, 64, 0
1, 24520, Note_on_c, 0, 79, 0
1, 24520, Note_on_c, 0, 83, 67
1, 24581, Note_on_c, 0, 83, 0
1, 24581, Note_on_c, 0, 81, 71
1, 24581, Note_on_c, 0, 59, 0
1, 24584, Note_on_c, 0, 62, 0
1, 24584, Note_on_c, 0, 64, 50
1, 24584, Note_on_c, 0, 60, 50
1, 24832, Note_on_c, 0, 81, 0
1, 24832, Note_on_c, 0, 79, 73
1, 24832, Note_on_c, 0, 60, 0
1, 24835, Note_on_c, 0, 64, 0
1, 24835, Note_on_c, 0, 59, 52
1, 24835, Note_on_c, 0, 62, 52
1, 24849, Control_c, 0, 64, 127
1, 25048, Control_c, 0, 64, 0
1, 25061, Note_on_c, 0, 79, 0
1, 25061, Note_on_c, 0, 78, 69
1, 25061, Note_on_c, 0, 62, 0
1, 25064, Note_on_c, 0, 59, 0
1, 25064, Note_on_c, 0, 60, 52
1, 25064, Note_on_c, 0, 57, 52
1, 25082, Control_c, 0, 64, 127
1, 25291, Note_on_c, 0, 78, 0
1, 25291, Note_on_c, 0, 76, 69
1, 25291, Note_on_c, 0, 57, 0
1, 25294, Note_on_c, 0, 60, 0
1, 25294, Note_on_c, 0, 55, 50
1, 25294, Note_on_c, 0, 59, 50
1, 25298, Control_c, 0, 64, 0
1, 25308, Control_c, 0, 64, 127
1, 25492, Control_c, 0, 64, 0
1, 25524, Note_on_c, 0, 76, 0
1, 25524, Note_on_c, 0, 74, 70
1, 25524, Note_on_c, 0, 59, 0
1, 25527, Note_on_c, 0, 55, 0
1, 25527, Note_on_c, 0, 54, 48
1, 25527, Note_on_c, 0, 57, 48
1, 25613, Note_on_c, 0, 74, 0
1, 25613, Note_on_c, 0, 57, 0
1, 25613, Note_on_c, 0, 54, 0
1, 25762, Note_on_c, 0, 74, 67
1, 25762, Note_on_c, 0, 54, 47
1, 25762, Note_on_c, 0, 57, 47
1, 25852, Note_on_c, 0, 74, 0
1, 25852, Note_on_c, 0, 57, 0
1, 25852, Note_on_c, 0, 54, 0
1, 26001, Note_on_c, 0, 74, 67
1, 26001, Note_on_c, 0, 54, 47
1, 26001, Note_on_c, 0, 57, 47
1, 26091, Note_on_c, 0, 74, 0
1, 26091, Note_on_c, 0, 57, 0
1, 26091, Note_on_c, 0, 54, 0
1, 26240, Note_on_c, 0, 74, 67
1, 26240, Note_on_c, 0, 54, 47
1, 26240, Note_on_c, 0, 57, 47
1, 26479, Note_on_c, 0, 57, 0
1, 26479, Note_on_c, 0, 59, 56
1, 26718, Note_on_c, 0, 74, 0
1, 26718, Note_on_c, 0, 75, 71
1, 26718, Note_on_c, 0, 59, 0
1, 26721, Note_on_c, 0, 60, 61
1, 26952, Note_on_c, 0, 75, 0
1, 26952, Note_on_c, 0, 76, 72
1, 26952, Note_on_c, 0, 60, 0
1, 26955, Note_on_c, 0, 54, 0
1, 26955, Note_on_c, 0, 55, 53
1, 26955, Note_on_c, 0, 59, 53
1, 26990, Control_c, 0, 64, 127
1, 27178, Control_c, 0, 64, 0
1, 27191, Note_on_c, 0, 76, 0
1, 27191, Note_on_c, 0, 78, 74
1, 27191, Note_on_c, 0, 59, 0
1, 27194, Note_on_c, 0, 55, 0
1, 27194, Note_on_c, 0, 54, 54
1, 27194, Note_on_c, 0, 57, 54
1, 27213, Control_c, 0, 64, 127
1, 27311, Note_on_c, 0, 78, 0
1, 27311, Note_on_c, 0, 79, 63
1, 27341, Note_on_c, 0, 79, 0
1, 27341, Note_on_c, 0, 78, 63
1, 27371, Note_on_c, 0, 78, 0
1, 27371, Note_on_c, 0, 76, 63
1, 27390, Control_c, 0, 64, 0
1, 27400, Note_on_c, 0, 76, 0
1, 27400, Note_on_c, 0, 78, 63
1, 27430, Note_on_c, 0, 78, 0
1, 27430, Note_on_c, 0, 79, 79
1, 27430, Note_on_c, 0, 57, 0
1, 27433, Note_on_c, 0, 54, 0
1, 27433, Note_on_c, 0, 52, 54
1, 27433, Note_on_c, 0, 55, 54
1, 27669, Note_on_c, 0, 79, 0
1, 27669, Note_on_c, 0, 69, 72
1, 27669, Note_on_c, 0, 55, 0
1, 27672, Note_on_c, 0, 52, 0
1, 27672, Note_on_c, 0, 67, 48
1, 27672, Note_on_c, 0, 57, 48
1, 27686, Control_c, 0, 64, 127
1, 27909, Control_c, 0, 64, 0
1, 27912, Note_on_c, 0, 69, 0
1, 27912, Note_on_c, 0, 71, 70
1, 27912, Note_on_c, 0, 67, 0
1, 27915, Note_on_c, 0, 66, 48
1, 27948, Control_c, 0, 64, 127
1, 28155, Note_on_c, 0, 71, 0
1, 28155, Note_on_c, 0, 73, 65
1, 28155, Note_on_c, 0, 66, 0
1, 28158, Note_on_c, 0, 64, 48
1, 28158, Control_c, 0, 64, 0
1, 28194, Control_c, 0, 64, 127
1, 28279, Note_on_c, 0, 73, 0
1, 28279, Note_on_c, 0, 74, 56
1, 28310, Note_on_c, 0, 74, 0
1, 28310, Note_on_c, 0, 73, 56
1, 28328, Control_c, 0, 64, 0
1, 28341, Note_on_c, 0, 73, 0
1, 28341, Note_on_c, 0, 71, 56
1, 28372, Note_on_c, 0, 71, 0
1, 28372, Note_on_c, 0, 73, 56
1, 28403, Note_on_c, 0, 73, 0
1, 28403, Note_on_c, 0, 74, 65
1, 28403, Note_on_c, 0, 64, 0
1, 28406, Note_on_c, 0, 57, 0
1, 28527, Note_on_c, 0, 74, 0
1, 28651, Note_on_c, 0, 50, 33
1, 28651, Note_on_c, 0, 54, 39
1, 28894, Note_on_c, 0, 74, 60
1, 28894, Note_on_c, 0, 54, 0
1, 28894, Note_on_c, 0, 50, 0
1, 28897, Note_on_c, 0, 52, 33
1, 28897, Note_on_c, 0, 55, 39
1, 29016, Note_on_c, 0, 74, 0
1, 29076, Note_on_c, 0, 55, 0
1, 29076, Note_on_c, 0, 52, 0
1, 29137, Note_on_c, 0, 74, 61
1, 29259, Note_on_c, 0, 74, 0
1, 29380, Note_on_c, 0, 54, 34
1, 29380, Note_on_c, 0, 57, 42
1, 29623, Note_on_c, 0, 74, 60
1, 29623, Note_on_c, 0, 57, 0
1, 29623, Note_on_c, 0, 54, 0
1, 29626, Note_on_c, 0, 55, 34
1, 29626, Note_on_c, 0, 59, 42
1, 29744, Note_on_c, 0, 74, 0
1, 29805, Note_on_c, 0, 59, 0
1, 29805, Note_on_c, 0, 55, 0
1, 29866, Note_on_c, 0, 74, 63
1, 29987, Note_on_c, 0, 74, 0
1, 30109, Note_on_c, 0, 57, 41
1, 30109, Note_on_c, 0, 60, 50
1, 30351, Note_on_c, 0, 74, 62
1, 30351, Note_on_c, 0, 60, 0
1, 30351, Note_on_c, 0, 57, 0
1, 30354, Note_on_c, 0, 55, 38
1, 30354, Note_on_c, 0, 59, 47
1, 30473, Note_on_c, 0, 74, 0
1, 30534, Note_on_c, 0, 59, 0
1, 30534, Note_on_c, 0, 55, 0
1, 30594, Note_on_c, 0, 74, 64
1, 30716, Note_on_c, 0, 74, 0
1, 30837, Note_on_c, 0, 54, 38
1, 30837, Note_on_c, 0, 57, 46
1, 31080, Note_on_c, 0, 74, 59
1, 31080, Note_on_c, 0, 57, 0
1, 31080, Note_on_c, 0, 54, 0
1, 31083, Note_on_c, 0, 52, 36
1, 31083, Note_on_c, 0, 55, 44
1, 31201, Note_on_c, 0, 74, 0
1, 31262, Note_on_c, 0, 55, 0
1, 31262, Note_on_c, 0, 52, 0
1, 31323, Note_on_c, 0, 74, 61
1, 31323, Note_on_c, 0, 50, 47
1, 31323, Note_on_c, 0, 54, 47
1, 31444, Note_on_c, 0, 74, 0
1, 31566, Note_on_c, 0, 74, 54
1, 31566, Note_on_c, 0, 78, 54
1, 31566, Note_on_c, 0, 54, 0
1, 31569, Note_on_c, 0, 50, 0
1, 31594, Control_c, 0, 64, 127
1, 31809, Note_on_c, 0, 78, 0
1, 31809, Note_on_c, 0, 74, 0
1, 31809, Note_on_c, 0, 76, 52
1, 31812, Note_on_c, 0, 79, 52
1, 31812, Note_on_c, 0, 62, 51
1, 31930, Note_on_c, 0, 62, 0
1, 32051, Note_on_c, 0, 79, 0
1, 32051, Note_on_c, 0, 76, 0
1, 32051, Note_on_c, 0, 62, 53
1, 32130, Control_c, 0, 64, 0
1, 32173, Note_on_c, 0, 62, 0
1, 32294, Note_on_c, 0, 81, 54
1, 32294, Note_on_c, 0, 78, 54
1, 32351, Control_c, 0, 64, 127
1, 32537, Note_on_c, 0, 78, 0
1, 32537, Note_on_c, 0, 81, 0
1, 32537, Note_on_c, 0, 79, 52
1, 32540, Note_on_c, 0, 83, 52
1, 32540, Note_on_c, 0, 62, 51
1, 32659, Note_on_c, 0, 62, 0
1, 32780, Note_on_c, 0, 83, 0
1, 32780, Note_on_c, 0, 79, 0
1, 32780, Note_on_c, 0, 62, 52
1, 32808, Control_c, 0, 64, 0
1, 32901, Note_on_c, 0, 62, 0
1, 33023, Note_on_c, 0, 81, 57
1, 33023, Note_on_c, 0, 84, 57
1, 33088, Control_c, 0, 64, 127
1, 33266, Note_on_c, 0, 84, 0
1, 33266, Note_on_c, 0, 81, 0
1, 33266, Note_on_c, 0, 83, 53
1, 33269, Note_on_c, 0, 79, 53
1, 33269, Note_on_c, 0, 62, 52
1, 33387, Note_on_c, 0, 62, 0
1, 33509, Note_on_c, 0, 79, 0
1, 33509, Note_on_c, 0, 83, 0
1, 33509, Note_on_c, 0, 62, 68
1, 33544, Control_c, 0, 64, 0
1, 33751, Note_on_c, 0, 72, 67
1, 33751, Note_on_c, 0, 81, 67
1, 33751, Note_on_c, 0, 66, 61
1, 33805, Control_c, 0, 64, 127
1, 33883, Note_on_c, 0, 62, 0
1, 33961, Control_c, 0, 64, 0
1, 34014, Note_on_c, 0, 81, 0
1, 34014, Note_on_c, 0, 72, 0
1, 34014, Note_on_c, 0, 71, 67
1, 34017, Note_on_c, 0, 79, 67
1, 34017, Note_on_c, 0, 66, 0
1, 34017, Note_on_c, 0, 67, 61
1, 34097, Control_c, 0, 64, 127
1, 34319, Control_c, 0, 64, 0
1, 34371, Note_on_c, 0, 79, 0
1, 34371, Note_on_c, 0, 71, 0
1, 34371, Note_on_c, 0, 72, 64
1, 34374, Note_on_c, 0, 78, 64
1, 34374, Note_on_c, 0, 67, 0
1, 34374, Note_on_c, 0, 62, 59
1, 34377, Note_on_c, 0, 69, 59
1, 34449, Control_c, 0, 64, 127
1, 35824, Control_c, 0, 64, 0
1, 35975, Note_on_c, 0, 78, 0
1, 35975, Note_on_c, 0, 72, 0
1, 35975, Note_on_c, 0, 71, 61
1, 35978, Note_on_c, 0, 69, 0
1, 35978, Note_on_c, 0, 62, 0
1, 36060, Note_on_c, 0, 71, 0
1, 36060, Note_on_c, 0, 72, 64
1, 36144, Note_on_c, 0, 72, 0
1, 36144, Note_on_c, 0, 74, 67
1, 36226, Note_on_c, 0, 74, 0
1, 36226, Note_on_c, 0, 72, 64
1, 36309, Note_on_c, 0, 72, 0
1, 36309, Note_on_c, 0, 71, 63
1, 36392, Note_on_c, 0, 71, 0
1, 36392, Note_on_c, 0, 69, 62
1, 36474, Note_on_c, 0, 69, 0
1, 36474, Note_on_c, 0, 67, 69
1, 36474, Note_on_c, 0, 55, 57
1, 36477, Note_on_c, 0, 59, 57
1, 36520, Control_c, 0, 64, 127
1, 36866, Control_c, 0, 64, 0
1, 36888, Note_on_c, 0, 67, 0
1, 36888, Note_on_c, 0, 71, 67
1, 36947, Note_on_c, 0, 71, 0
1, 36947, Note_on_c, 0, 69, 67
1, 36947, Note_on_c, 0, 59, 0
1, 36950, Note_on_c, 0, 55, 0
1, 36950, Note_on_c, 0, 55, 55
1, 36950, Note_on_c, 0, 60, 55
1, 37189, Note_on_c, 0, 69, 0
1, 37189, Note_on_c, 0, 62, 69
1, 37189, Note_on_c, 0, 60, 0
1, 37192, Note_on_c, 0, 55, 0
1, 37192, Control_c, 0, 64, 127
1, 37192, Note_on_c, 0, 55, 57
1, 37195, Note_on_c, 0, 60, 57
1, 37423, Note_on_c, 0, 62, 0
1, 37423, Note_on_c, 0, 64, 64
1, 37583, Control_c, 0, 64, 0
1, 37657, Note_on_c, 0, 64, 0
1, 37657, Note_on_c, 0, 66, 64
1, 37657, Note_on_c, 0, 60, 0
1, 37660, Note_on_c, 0, 55, 0
1, 37660, Note_on_c, 0, 55, 55
1, 37660, Note_on_c, 0, 60, 55
1, 37774, Note_on_c, 0, 66, 0
1, 37774, Note_on_c, 0, 67, 63
1, 37803, Note_on_c, 0, 66, 63
1, 37813, Note_on_c, 0, 67, 0
1, 37832, Note_on_c, 0, 64, 63
1, 37842, Note_on_c, 0, 66, 0
1, 37861, Note_on_c, 0, 66, 63
1, 37871, Note_on_c, 0, 64, 0
1, 37891, Note_on_c, 0, 66, 0
1, 37891, Note_on_c, 0, 67, 65
1, 37891, Note_on_c, 0, 60, 0
1, 37894, Note_on_c, 0, 55, 0
1, 37894, Note_on_c, 0, 55, 54
1, 37894, Note_on_c, 0, 59, 54
1, 37979, Note_on_c, 0, 67, 0
1, 37979, Note_on_c, 0, 59, 0
1, 37979, Note_on_c, 0, 55, 0
1, 38127, Note_on_c, 0, 67, 63
1, 38127, Note_on_c, 0, 55, 53
1, 38127, Note_on_c, 0, 59, 53
1, 38216, Note_on_c, 0, 67, 0
1, 38216, Note_on_c, 0, 59, 0
1, 38216, Note_on_c, 0, 55, 0
1, 38364, Note_on_c, 0, 67, 63
1, 38364, Note_on_c, 0, 55, 53
1, 38364, Note_on_c, 0, 59, 53
1, 38452, Note_on_c, 0, 67, 0
1, 38452, Note_on_c, 0, 59, 0
1, 38452, Note_on_c, 0, 55, 0
1, 38600, Note_on_c, 0, 67, 63
1, 38600, Note_on_c, 0, 55, 53
1, 38600, Note_on_c, 0, 59, 53
1, 39079, Note_on_c, 0, 67, 0
1, 39079, Note_on_c, 0, 62, 63
1, 39079, Note_on_c, 0, 69, 63
1, 39082, Note_on_c, 0, 59, 0
1, 39082, Note_on_c, 0, 55, 0
1, 39082, Note_on_c, 0, 54, 53
1, 39255, Note_on_c, 0, 69, 0
1, 39255, Note_on_c, 0, 72, 63
1, 39255, Note_on_c, 0, 54, 0
1, 39258, Note_on_c, 0, 57, 53
1, 39313, Note_on_c, 0, 72, 0
1, 39313, Note_on_c, 0, 62, 0
1, 39313, Note_on_c, 0, 62, 59
1, 39316, Note_on_c, 0, 71, 69
1, 39316, Note_on_c, 0, 57, 0
1, 39316, Note_on_c, 0, 55, 56
1, 39390, Control_c, 0, 64, 127
1, 39466, Control_c, 0, 64, 0
1, 39543, Note_on_c, 0, 71, 0
1, 39543, Note_on_c, 0, 69, 63
1, 39543, Note_on_c, 0, 55, 0
1, 39546, Note_on_c, 0, 54, 53
1, 39581, Control_c, 0, 64, 127
1, 39683, Control_c, 0, 64, 0
1, 39772, Note_on_c, 0, 69, 0
1, 39772, Note_on_c, 0, 71, 63
1, 39772, Note_on_c, 0, 54, 0
1, 39775, Note_on_c, 0, 55, 53
1, 39784, Control_c, 0, 64, 127
1, 39911, Control_c, 0, 64, 0
1, 40000, Note_on_c, 0, 71, 0
1, 40000, Note_on_c, 0, 62, 0
1, 40000, Note_on_c, 0, 66, 62
1, 40003, Note_on_c, 0, 62, 53
1, 40003, Note_on_c, 0, 74, 69
1, 40003, Note_on_c, 0, 55, 0
1, 40006, Note_on_c, 0, 57, 55
1, 40038, Control_c, 0, 64, 127
1, 40229, Note_on_c, 0, 74, 0
1, 40229, Note_on_c, 0, 72, 63
1, 40371, Control_c, 0, 64, 0
1, 40461, Note_on_c, 0, 72, 0
1, 40461, Note_on_c, 0, 66, 0
1, 40461, Note_on_c, 0, 67, 63
1, 40464, Note_on_c, 0, 71, 63
1, 40464, Note_on_c, 0, 57, 0
1, 40464, Note_on_c, 0, 55, 53
1, 40487, Control_c, 0, 64, 127
1, 40618, Control_c, 0, 64, 0
1, 40697, Note_on_c, 0, 71, 0
1, 40697, Note_on_c, 0, 67, 0
1, 40697, Note_on_c, 0, 62, 0
1, 40700, Note_on_c, 0, 67, 67
1, 40700, Note_on_c, 0, 71, 67
1, 40700, Note_on_c, 0, 55, 0
1, 40703, Note_on_c, 0, 50, 55
1, 40708, Control_c, 0, 64, 127
1, 40828, Control_c, 0, 64, 0
1, 40926, Note_on_c, 0, 71, 0
1, 40926, Note_on_c, 0, 67, 0
1, 40926, Note_on_c, 0, 66, 63
1, 40929, Note_on_c, 0, 69, 63
1, 40929, Note_on_c, 0, 50, 0
1, 40929, Note_on_c, 0, 62, 53
1, 40992, Control_c, 0, 64, 127
1, 41154, Note_on_c, 0, 69, 0
1, 41154, Note_on_c, 0, 66, 0
1, 41154, Note_on_c, 0, 66, 63
1, 41157, Note_on_c, 0, 69, 63
1, 41157, Note_on_c, 0, 62, 0
1, 41157, Note_on_c, 0, 62, 53
1, 41382, Note_on_c, 0, 69, 0
1, 41382, Note_on_c, 0, 66, 0
1, 41382, Note_on_c, 0, 66, 63
1, 41385, Note_on_c, 0, 69, 63
1, 41385, Note_on_c, 0, 62, 0
1, 41385, Note_on_c, 0, 62, 53
1, 41615, Note_on_c, 0, 62, 0
1, 41615, Note_on_c, 0, 60, 53
1, 41737, Control_c, 0, 64, 0
1, 41848, Note_on_c, 0, 69, 0
1, 41848, Note_on_c, 0, 66, 0
1, 41848, Note_on_c, 0, 68, 65
1, 41851, Note_on_c, 0, 71, 65
1, 41851, Note_on_c, 0, 60, 0
1, 41851, Note_on_c, 0, 59, 54
1, 42078, Note_on_c, 0, 71, 0
1, 42078, Note_on_c, 0, 68, 0
1, 42078, Note_on_c, 0, 69, 69
1, 42081, Note_on_c, 0, 72, 69
1, 42081, Note_on_c, 0, 59, 0
1, 42081, Note_on_c, 0, 57, 57
1, 42130, Control_c, 0, 64, 127
1, 42306, Control_c, 0, 64, 0
1, 42309, Note_on_c, 0, 72, 0
1, 42309, Note_on_c, 0, 69, 0
1, 42309, Note_on_c, 0, 71, 71
1, 42312, Note_on_c, 0, 74, 71
1, 42327, Control_c, 0, 64, 127
1, 42539, Note_on_c, 0, 74, 0
1, 42539, Note_on_c, 0, 71, 0
1, 42539, Note_on_c, 0, 72, 71
1, 42542, Note_on_c, 0, 76, 71
1, 42542, Note_on_c, 0, 57, 0
1, 42542, Note_on_c, 0, 55, 56
1, 42545, Control_c, 0, 64, 0
1, 42570, Control_c, 0, 64, 127
1, 42764, Control_c, 0, 64, 0
1, 42773, Note_on_c, 0, 76, 0
1, 42773, Note_on_c, 0, 72, 0
1, 42773, Note_on_c, 0, 72, 71
1, 42776, Note_on_c, 0, 76, 71
1, 42776, Note_on_c, 0, 55, 0
1, 42776, Note_on_c, 0, 54, 57
1, 42795, Control_c, 0, 64, 127
1, 43011, Note_on_c, 0, 54, 0
1, 43011, Note_on_c, 0, 57, 56
1, 43192, Control_c, 0, 64, 0
1, 43249, Note_on_c, 0, 76, 0
1, 43249, Note_on_c, 0, 72, 0
1, 43249, Note_on_c, 0, 72, 63
1, 43252, Note_on_c, 0, 69, 63
1, 43252, Note_on_c, 0, 57, 0
1, 43252, Note_on_c, 0, 62, 56
1, 43365, Note_on_c, 0, 72, 0
1, 43365, Note_on_c, 0, 74, 61
1, 43394, Note_on_c, 0, 72, 61
1, 43404, Note_on_c, 0, 74, 0
1, 43423, Note_on_c, 0, 71, 61
1, 43433, Note_on_c, 0, 72, 0
1, 43452, Note_on_c, 0, 72, 61
1, 43462, Note_on_c, 0, 71, 0
1, 43481, Note_on_c, 0, 69, 0
1, 43481, Note_on_c, 0, 67, 65
1, 43481, Note_on_c, 0, 71, 65
1, 43484, Note_on_c, 0, 62, 0
1, 43484, Note_on_c, 0, 55, 56
1, 43491, Note_on_c, 0, 72, 0
1, 43523, Control_c, 0, 64, 127
1, 43711, Note_on_c, 0, 71, 0
1, 43711, Note_on_c, 0, 67, 0
1, 43711, Note_on_c, 0, 69, 64
1, 43714, Note_on_c, 0, 72, 64
1, 43714, Control_c, 0, 64, 0
1, 43738, Control_c, 0, 64, 127
1, 43925, Control_c, 0, 64, 0
1, 43940, Note_on_c, 0, 72, 0
1, 43940, Note_on_c, 0, 69, 0
1, 43940, Note_on_c, 0, 71, 64
1, 43943, Note_on_c, 0, 74, 64
1, 44059, Note_on_c, 0, 74, 0
1, 44059, Note_on_c, 0, 71, 0
1, 44059, Note_on_c, 0, 73, 63
1, 44100, Note_on_c, 0, 73, 0
1, 44100, Note_on_c, 0, 74, 63
1, 44141, Note_on_c, 0, 74, 0
1, 44141, Note_on_c, 0, 76, 63
1, 44185, Note_on_c, 0, 76, 0
1, 44185, Note_on_c, 0, 71, 67
1, 44185, Note_on_c, 0, 74, 67
1, 44188, Note_on_c, 0, 55, 0
1, 44188, Note_on_c, 0, 43, 59
1, 44202, Control_c, 0, 64, 127
1, 44414, Note_on_c, 0, 43, 0
1, 44414, Note_on_c, 0, 47, 57
1, 44606, Control_c, 0, 64, 0
1, 44643, Note_on_c, 0, 74, 0
1, 44643, Note_on_c, 0, 71, 0
1, 44643, Note_on_c, 0, 59, 57
1, 44646, Note_on_c, 0, 67, 57
1, 44646, Note_on_c, 0, 47, 0
1, 44646, Note_on_c, 0, 52, 53
1, 44758, Note_on_c, 0, 67, 0
1, 44758, Note_on_c, 0, 69, 53
1, 44787, Note_on_c, 0, 67, 53
1, 44796, Note_on_c, 0, 69, 0
1, 44815, Note_on_c, 0, 66, 53
1, 44825, Note_on_c, 0, 67, 0
1, 44844, Note_on_c, 0, 67, 53
1, 44853, Note_on_c, 0, 66, 0
1, 44873, Note_on_c, 0, 67, 0
1, 44873, Note_on_c, 0, 59, 0
1, 44873, Note_on_c, 0, 60, 62
1, 44876, Note_on_c, 0, 69, 62
1, 44876, Note_on_c, 0, 52, 0
1, 44876, Note_on_c, 0, 48, 56
1, 44927, Control_c, 0, 64, 127
1, 45102, Note_on_c, 0, 69, 0
1, 45102, Note_on_c, 0, 60, 0
1, 45102, Note_on_c, 0, 64, 59
1, 45105, Note_on_c, 0, 72, 59
1, 45331, Note_on_c, 0, 72, 0
1, 45331, Note_on_c, 0, 64, 0
1, 45331, Note_on_c, 0, 62, 59
1, 45334, Note_on_c, 0, 71, 59
1, 45536, Control_c, 0, 64, 0
1, 45560, Note_on_c, 0, 71, 0
1, 45560, Note_on_c, 0, 62, 0
1, 45560, Note_on_c, 0, 60, 62
1, 45563, Note_on_c, 0, 69, 62
1, 45563, Note_on_c, 0, 48, 0
1, 45563, Note_on_c, 0, 50, 54
1, 45587, Control_c, 0, 64, 127
1, 45677, Note_on_c, 0, 69, 0
1, 45677, Note_on_c, 0, 71, 52
1, 45706, Note_on_c, 0, 71, 0
1, 45706, Note_on_c, 0, 69, 52
1, 45735, Note_on_c, 0, 69, 0
1, 45735, Note_on_c, 0, 67, 52
1, 45764, Note_on_c, 0, 67, 0
1, 45764, Note_on_c, 0, 69, 52
1, 45793, Note_on_c, 0, 69, 0
1, 45793, Note_on_c, 0, 60, 0
1, 45793, Note_on_c, 0, 59, 57
1, 45796, Note_on_c, 0, 67, 57
1, 46059, Note_on_c, 0, 67, 0
1, 46059, Note_on_c, 0, 59, 0
1, 46059, Note_on_c, 0, 57, 51
1, 46062, Note_on_c, 0, 66, 51
1, 46062, Control_c, 0, 64, 0
1, 46192, Note_on_c, 0, 66, 0
1, 46192, Note_on_c, 0, 67, 51
1, 46225, Note_on_c, 0, 66, 51
1, 46236, Note_on_c, 0, 67, 0
1, 46258, Note_on_c, 0, 64, 51
1, 46269, Note_on_c, 0, 66, 0
1, 46292, Note_on_c, 0, 66, 51
1, 46303, Note_on_c, 0, 64, 0
1, 46325, Note_on_c, 0, 57, 0
1, 46325, Note_on_c, 0, 60, 56
1, 46325, Note_on_c, 0, 69, 56
1, 46328, Note_on_c, 0, 50, 0
1, 46328, Note_on_c, 0, 43, 47
1, 46337, Note_on_c, 0, 66, 0
1, 46359, Control_c, 0, 64, 127
1, 46616, Note_on_c, 0, 69, 0
1, 46616, Note_on_c, 0, 60, 0
1, 46616, Note_on_c, 0, 59, 45
1, 46619, Note_on_c, 0, 67, 45
1, 46619, Note_on_c, 0, 43, 0
1, 46619, Note_on_c, 0, 47, 39
1, 46651, Control_c, 0, 64, 0
1, 46685, Control_c, 0, 64, 127
1, 46908, Note_on_c, 0, 67, 0
1, 46908, Note_on_c, 0, 59, 0
1, 46908, Note_on_c, 0, 59, 45
1, 46911, Note_on_c, 0, 67, 45
1, 46911, Note_on_c, 0, 47, 0
1, 46911, Note_on_c, 0, 50, 39
1, 47200, Note_on_c, 0, 67, 0
1, 47200, Note_on_c, 0, 59, 0
1, 47200, Note_on_c, 0, 59, 45
1, 47203, Note_on_c, 0, 67, 45
1, 47203, Note_on_c, 0, 50, 0
1, 47203, Note_on_c, 0, 55, 39
1, 47659, Control_c, 0, 64, 0
1, 47783, Note_on_c, 0, 67, 0
1, 47783, Note_on_c, 0, 59, 0
1, 47783, Note_on_c, 0, 79, 73
1, 47786, Note_on_c, 0, 55, 0
1, 47786, Note_on_c, 0, 62, 50
1, 47786, Note_on_c, 0, 59, 50
1, 47817, Control_c, 0, 64, 127
1, 48104, Note_on_c, 0, 79, 0
1, 48104, Note_on_c, 0, 79, 73
1, 48104, Note_on_c, 0, 59, 0
1, 48107, Note_on_c, 0, 62, 0
1, 48107, Note_on_c, 0, 62, 52
1, 48107, Note_on_c, 0, 59, 52
1, 48529, Control_c, 0, 64, 0
1, 48536, Note_on_c, 0, 79, 0
1, 48536, Note_on_c, 0, 83, 71
1, 48598, Note_on_c, 0, 83, 0
1, 48598, Note_on_c, 0, 81, 71
1, 48598, Note_on_c, 0, 59, 0
1, 48601, Note_on_c, 0, 62, 0
1, 48601, Note_on_c, 0, 64, 50
1, 48601, Note_on_c, 0, 60, 50
1, 48849, Note_on_c, 0, 81, 0
1, 48849, Note_on_c, 0, 79, 73
1, 48849, Note_on_c, 0, 60, 0
1, 48852, Note_on_c, 0, 64, 0
1, 48852, Note_on_c, 0, 59, 52
1, 48852, Note_on_c, 0, 62, 52
1, 48900, Control_c, 0, 64, 127
1, 49078, Note_on_c, 0, 79, 0
1, 49078, Note_on_c, 0, 78, 69
1, 49078, Note_on_c, 0, 62, 0
1, 49081, Note_on_c, 0, 59, 0
1, 49081, Note_on_c, 0, 60, 52
1, 49081, Note_on_c, 0, 57, 52
1, 49308, Note_on_c, 0, 78, 0
1, 49308, Note_on_c, 0, 76, 69
1, 49308, Note_on_c, 0, 57, 0
1, 49311, Note_on_c, 0, 60, 0
1, 49311, Note_on_c, 0, 55, 50
1, 49311, Note_on_c, 0, 59, 50
1, 49328, Control_c, 0, 64, 0
1, 49345, Control_c, 0, 64, 127
1, 49478, Control_c, 0, 64, 0
1, 49540, Note_on_c, 0, 76, 0
1, 49540, Note_on_c, 0, 74, 70
1, 49540, Note_on_c, 0, 59, 0
1, 49543, Note_on_c, 0, 55, 0
1, 49543, Note_on_c, 0, 54, 48
1, 49543, Note_on_c, 0, 57, 48
1, 49630, Note_on_c, 0, 74, 0
1, 49630, Note_on_c, 0, 57, 0
1, 49630, Note_on_c, 0, 54, 0
1, 49779, Note_on_c, 0, 74, 67
1, 49779, Note_on_c, 0, 54, 47
1, 49779, Note_on_c, 0, 57, 47
1, 49869, Note_on_c, 0, 74, 0
1, 49869, Note_on_c, 0, 57, 0
1, 49869, Note_on_c, 0, 54, 0
1, 50018, Note_on_c, 0, 74, 67
1, 50018, Note_on_c, 0, 54, 47
1, 50018, Note_on_c, 0, 57, 47
1, 50108, Note_on_c, 0, 74, 0
1, 50108, Note_on_c, 0, 57, 0
1, 50108, Note_on_c, 0, 54, 0
1, 50257, Note_on_c, 0, 74, 67
1, 50257, Note_on_c, 0, 54, 47
1, 50257, Note_on_c, 0, 57, 47
1, 50496, Note_on_c, 0, 57, 0
1, 50496, Note_on_c, 0, 59, 56
1, 50735, Note_on_c, 0, 74, 0
1, 50735, Note_on_c, 0, 75, 71
1, 50735, Note_on_c, 0, 59, 0
1, 50738, Note_on_c, 0, 60, 61
1, 50969, Note_on_c, 0, 75, 0
1, 50969, Note_on_c, 0, 76, 72
1, 50969, Note_on_c, 0, 60, 0
1, 50972, Note_on_c, 0, 54, 0
1, 50972, Note_on_c, 0, 55, 53
1, 50972, Note_on_c, 0, 59, 53
1, 51010, Control_c, 0, 64, 127
1, 51208, Note_on_c, 0, 76, 0
1, 51208, Note_on_c, 0, 78, 74
1, 51208, Note_on_c, 0, 59, 0
1, 51211, Note_on_c, 0, 55, 0
1, 51211, Note_on_c, 0, 54, 54
1, 51211, Note_on_c, 0, 57, 54
1, 51296, Control_c, 0, 64, 0
1, 51328, Note_on_c, 0, 78, 0
1, 51328, Note_on_c, 0, 79, 63
1, 51358, Note_on_c, 0, 78, 63
1, 51367, Note_on_c, 0, 79, 0
1, 51387, Note_on_c, 0, 76, 63
1, 51397, Note_on_c, 0, 78, 0
1, 51417, Note_on_c, 0, 78, 63
1, 51427, Note_on_c, 0, 76, 0
1, 51447, Note_on_c, 0, 79, 79
1, 51447, Note_on_c, 0, 57, 0
1, 51447, Note_on_c, 0, 54, 0
1, 51450, Note_on_c, 0, 52, 54
1, 51450, Note_on_c, 0, 55, 54
1, 51457, Note_on_c, 0, 78, 0
1, 51686, Note_on_c, 0, 79, 0
1, 51686, Note_on_c, 0, 69, 72
1, 51686, Note_on_c, 0, 55, 0
1, 51689, Note_on_c, 0, 52, 0
1, 51689, Note_on_c, 0, 67, 48
1, 51689, Note_on_c, 0, 57, 48
1, 51705, Control_c, 0, 64, 127
1, 51929, Note_on_c, 0, 69, 0
1, 51929, Note_on_c, 0, 71, 70
1, 51929, Note_on_c, 0, 67, 0
1, 51932, Note_on_c, 0, 66, 48
1, 52127, Control_c, 0, 64, 0
1, 52172, Note_on_c, 0, 71, 0
1, 52172, Note_on_c, 0, 73, 65
1, 52172, Note_on_c, 0, 66, 0
1, 52175, Note_on_c, 0, 64, 48
1, 52296, Note_on_c, 0, 73, 0
1, 52296, Note_on_c, 0, 74, 56
1, 52327, Note_on_c, 0, 73, 56
1, 52337, Note_on_c, 0, 74, 0
1, 52358, Note_on_c, 0, 71, 56
1, 52368, Note_on_c, 0, 73, 0
1, 52389, Note_on_c, 0, 73, 56
1, 52399, Note_on_c, 0, 71, 0
1, 52420, Note_on_c, 0, 74, 65
1, 52420, Note_on_c, 0, 64, 0
1, 52420, Note_on_c, 0, 57, 0
1, 52430, Note_on_c, 0, 73, 0
1, 52544, Note_on_c, 0, 74, 0
1, 52668, Note_on_c, 0, 50, 34
1, 52668, Note_on_c, 0, 54, 41
1, 52911, Note_on_c, 0, 74, 60
1, 52911, Note_on_c, 0, 54, 0
1, 52911, Note_on_c, 0, 50, 0
1, 52914, Note_on_c, 0, 52, 34
1, 52914, Note_on_c, 0, 55, 41
1, 53033, Note_on_c, 0, 74, 0
1, 53093, Note_on_c, 0, 55, 0
1, 53093, Note_on_c, 0, 52, 0
1, 53154, Note_on_c, 0, 74, 61
1, 53275, Note_on_c, 0, 74, 0
1, 53397, Note_on_c, 0, 54, 36
1, 53397, Note_on_c, 0, 57, 44
1, 53640, Note_on_c, 0, 74, 60
1, 53640, Note_on_c, 0, 57, 0
1, 53640, Note_on_c, 0, 54, 0
1, 53643, Note_on_c, 0, 55, 34
1, 53643, Note_on_c, 0, 59, 42
1, 53761, Note_on_c, 0, 74, 0
1, 53822, Note_on_c, 0, 59, 0
1, 53822, Note_on_c, 0, 55, 0
1, 53883, Note_on_c, 0, 74, 63
1, 54004, Note_on_c, 0, 74, 0
1, 54125, Note_on_c, 0, 57, 41
1, 54125, Note_on_c, 0, 60, 50
1, 54368, Note_on_c, 0, 74, 62
1, 54368, Note_on_c, 0, 60, 0
1, 54368, Note_on_c, 0, 57, 0
1, 54371, Note_on_c, 0, 55, 38
1, 54371, Note_on_c, 0, 59, 47
1, 54490, Note_on_c, 0, 74, 0
1, 54550, Note_on_c, 0, 59, 0
1, 54550, Note_on_c, 0, 55, 0
1, 54611, Note_on_c, 0, 74, 64
1, 54733, Note_on_c, 0, 74, 0
1, 54854, Note_on_c, 0, 54, 38
1, 54854, Note_on_c, 0, 57, 47
1, 55097, Note_on_c, 0, 74, 59
1, 55097, Note_on_c, 0, 57, 0
1, 55097, Note_on_c, 0, 54, 0
1, 55100, Note_on_c, 0, 52, 38
1, 55100, Note_on_c, 0, 55, 47
1, 55218, Note_on_c, 0, 74, 0
1, 55279, Note_on_c, 0, 55, 0
1, 55279, Note_on_c, 0, 52, 0
1, 55340, Note_on_c, 0, 74, 61
1, 55340, Note_on_c, 0, 50, 47
1, 55340, Note_on_c, 0, 54, 47
1, 55461, Note_on_c, 0, 74, 0
1, 55583, Note_on_c, 0, 74, 54
1, 55583, Note_on_c, 0, 78, 54
1, 55583, Note_on_c, 0, 54, 0
1, 55586, Note_on_c, 0, 50, 0
1, 55604, Control_c, 0, 64, 127
1, 55825, Note_on_c, 0, 78, 0
1, 55825, Note_on_c, 0, 74, 0
1, 55825, Note_on_c, 0, 76, 52
1, 55828, Note_on_c, 0, 79, 52
1, 55828, Note_on_c, 0, 62, 51
1, 55947, Note_on_c, 0, 62, 0
1, 56068, Note_on_c, 0, 79, 0
1, 56068, Note_on_c, 0, 76, 0
1, 56068, Note_on_c, 0, 62, 53
1, 56168, Control_c, 0, 64, 0
1, 56190, Note_on_c, 0, 62, 0
1, 56311, Note_on_c, 0, 81, 54
1, 56311, Note_on_c, 0, 78, 54
1, 56347, Control_c, 0, 64, 127
1, 56554, Note_on_c, 0, 78, 0
1, 56554, Note_on_c, 0, 81, 0
1, 56554, Note_on_c, 0, 79, 52
1, 56557, Note_on_c, 0, 83, 52
1, 56557, Note_on_c, 0, 62, 51
1, 56675, Note_on_c, 0, 62, 0
1, 56797, Note_on_c, 0, 83, 0
1, 56797, Note_on_c, 0, 79, 0
1, 56797, Note_on_c, 0, 62, 52
1, 56846, Control_c, 0, 64, 0
1, 56918, Note_on_c, 0, 62, 0
1, 57040, Note_on_c, 0, 81, 57
1, 57040, Note_on_c, 0, 84, 57
1, 57096, Control_c, 0, 64, 127
1, 57283, Note_on_c, 0, 84, 0
1, 57283, Note_on_c, 0, 81, 0
1, 57283, Note_on_c, 0, 83, 53
1, 57286, Note_on_c, 0, 79, 53
1, 57286, Note_on_c, 0, 62, 52
1, 57404, Note_on_c, 0, 62, 0
1, 57525, Note_on_c, 0, 79, 0
1, 57525, Note_on_c, 0, 83, 0
1, 57525, Note_on_c, 0, 62, 68
1, 57582, Control_c, 0, 64, 0
1, 57768, Note_on_c, 0, 72, 67
1, 57768, Note_on_c, 0, 81, 67
1, 57768, Note_on_c, 0, 66, 61
1, 57807, Control_c, 0, 64, 127
1, 57900, Note_on_c, 0, 62, 0
1, 58008, Control_c, 0, 64, 0
1, 58031, Note_on_c, 0, 81, 0
1, 58031, Note_on_c, 0, 72, 0
1, 58031, Note_on_c, 0, 71, 67
1, 58034, Note_on_c, 0, 79, 67
1, 58034, Note_on_c, 0, 66, 0
1, 58034, Note_on_c, 0, 67, 61
1, 58114, Control_c, 0, 64, 127
1, 58388, Note_on_c, 0, 79, 0
1, 58388, Note_on_c, 0, 71, 0
1, 58388, Note_on_c, 0, 72, 64
1, 58391, Note_on_c, 0, 78, 64
1, 58391, Note_on_c, 0, 67, 0
1, 58391, Control_c, 0, 64, 0
1, 58394, Note_on_c, 0, 62, 59
1, 58394, Note_on_c, 0, 69, 59
1, 58450, Control_c, 0, 64, 127
1, 59851, Control_c, 0, 64, 0
1, 59992, Note_on_c, 0, 78, 0
1, 59992, Note_on_c, 0, 72, 0
1, 59992, Note_on_c, 0, 71, 61
1, 59995, Note_on_c, 0, 69, 0
1, 59995, Note_on_c, 0, 62, 0
1, 60077, Note_on_c, 0, 71, 0
1, 60077, Note_on_c, 0, 72, 64
1, 60161, Note_on_c, 0, 72, 0
1, 60161, Note_on_c, 0, 74, 67
1, 60243, Note_on_c, 0, 74, 0
1, 60243, Note_on_c, 0, 72, 64
1, 60326, Note_on_c, 0, 72, 0
1, 60326, Note_on_c, 0, 71, 63
1, 60408, Note_on_c, 0, 71, 0
1, 60408, Note_on_c, 0, 69, 62
1, 60491, Note_on_c, 0, 69, 0
1, 60491, Note_on_c, 0, 67, 69
1, 60491, Note_on_c, 0, 55, 57
1, 60494, Note_on_c, 0, 59, 57
1, 60537, Control_c, 0, 64, 127
1, 60870, Control_c, 0, 64, 0
1, 60905, Note_on_c, 0, 67, 0
1, 60905, Note_on_c, 0, 71, 67
1, 60964, Note_on_c, 0, 71, 0
1, 60964, Note_on_c, 0, 69, 67
1, 60964, Note_on_c, 0, 59, 0
1, 60967, Note_on_c, 0, 55, 0
1, 60967, Note_on_c, 0, 55, 55
1, 60967, Note_on_c, 0, 60, 55
1, 61205, Note_on_c, 0, 69, 0
1, 61205, Note_on_c, 0, 62, 69
1, 61205, Note_on_c, 0, 60, 0
1, 61208, Note_on_c, 0, 55, 0
1, 61208, Note_on_c, 0, 55, 57
1, 61208, Note_on_c, 0, 60, 57
1, 61224, Control_c, 0, 64, 127
1, 61439, Note_on_c, 0, 62, 0
1, 61439, Note_on_c, 0, 64, 64
1, 61612, Control_c, 0, 64, 0
1, 61673, Note_on_c, 0, 64, 0
1, 61673, Note_on_c, 0, 66, 64
1, 61673, Note_on_c, 0, 60, 0
1, 61676, Note_on_c, 0, 55, 0
1, 61676, Note_on_c, 0, 55, 55
1, 61676, Note_on_c, 0, 60, 55
1, 61790, Note_on_c, 0, 66, 0
1, 61790, Note_on_c, 0, 67, 63
1, 61820, Note_on_c, 0, 66, 63
1, 61829, Note_on_c, 0, 67, 0
1, 61849, Note_on_c, 0, 64, 63
1, 61859, Note_on_c, 0, 66, 0
1, 61878, Note_on_c, 0, 66, 63
1, 61888, Note_on_c, 0, 64, 0
1, 61907, Note_on_c, 0, 67, 65
1, 61907, Note_on_c, 0, 60, 0
1, 61907, Note_on_c, 0, 55, 0
1, 61910, Note_on_c, 0, 55, 54
1, 61910, Note_on_c, 0, 59, 54
1, 61917, Note_on_c, 0, 66, 0
1, 61996, Note_on_c, 0, 67, 0
1, 61996, Note_on_c, 0, 59, 0
1, 61996, Note_on_c, 0, 55, 0
1, 62144, Note_on_c, 0, 67, 63
1, 62144, Note_on_c, 0, 55, 53
1, 62144, Note_on_c, 0, 59, 53
1, 62233, Note_on_c, 0, 67, 0
1, 62233, Note_on_c, 0, 59, 0
1, 62233, Note_on_c, 0, 55, 0
1, 62380, Note_on_c, 0, 67, 63
1, 62380, Note_on_c, 0, 55, 53
1, 62380, Note_on_c, 0, 59, 53
1, 62469, Note_on_c, 0, 67, 0
1, 62469, Note_on_c, 0, 59, 0
1, 62469, Note_on_c, 0, 55, 0
1, 62617, Note_on_c, 0, 67, 63
1, 62617, Note_on_c, 0, 55, 53
1, 62617, Note_on_c, 0, 59, 53
1, 63096, Note_on_c, 0, 67, 0
1, 63096, Note_on_c, 0, 62, 63
1, 63096, Note_on_c, 0, 69, 63
1, 63099, Note_on_c, 0, 59, 0
1, 63099, Note_on_c, 0, 55, 0
1, 63099, Note_on_c, 0, 54, 53
1, 63272, Note_on_c, 0, 69, 0
1, 63272, Note_on_c, 0, 72, 63
1, 63272, Note_on_c, 0, 54, 0
1, 63275, Note_on_c, 0, 57, 53
1, 63330, Note_on_c, 0, 72, 0
1, 63330, Note_on_c, 0, 62, 0
1, 63330, Note_on_c, 0, 62, 59
1, 63333, Note_on_c, 0, 71, 69
1, 63333, Note_on_c, 0, 57, 0
1, 63333, Note_on_c, 0, 55, 56
1, 63394, Control_c, 0, 64, 127
1, 63521, Control_c, 0, 64, 0
1, 63559, Note_on_c, 0, 71, 0
1, 63559, Note_on_c, 0, 69, 63
1, 63559, Note_on_c, 0, 55, 0
1, 63562, Note_on_c, 0, 54, 53
1, 63610, Control_c, 0, 64, 127
1, 63750, Control_c, 0, 64, 0
1, 63789, Note_on_c, 0, 69, 0
1, 63789, Note_on_c, 0, 71, 63
1, 63789, Note_on_c, 0, 54, 0
1, 63792, Note_on_c, 0, 55, 53
1, 63852, Control_c, 0, 64, 127
1, 64004, Control_c, 0, 64, 0
1, 64017, Note_on_c, 0, 71, 0
1, 64017, Note_on_c, 0, 62, 0
1, 64017, Note_on_c, 0, 66, 62
1, 64020, Note_on_c, 0, 62, 53
1, 64020, Note_on_c, 0, 74, 69
1, 64020, Note_on_c, 0, 55, 0
1, 64023, Note_on_c, 0, 57, 55
1, 64081, Control_c, 0, 64, 127
1, 64246, Note_on_c, 0, 74, 0
1, 64246, Note_on_c, 0, 72, 63
1, 64388, Control_c, 0, 64, 0
1, 64477, Note_on_c, 0, 72, 0
1, 64477, Note_on_c, 0, 66, 0
1, 64477, Note_on_c, 0, 67, 63
1, 64480, Note_on_c, 0, 71, 63
1, 64480, Note_on_c, 0, 57, 0
1, 64480, Note_on_c, 0, 55, 53
1, 64504, Control_c, 0, 64, 127
1, 64635, Control_c, 0, 64, 0
1, 64714, Note_on_c, 0, 71, 0
1, 64714, Note_on_c, 0, 67, 0
1, 64714, Note_on_c, 0, 62, 0
1, 64717, Note_on_c, 0, 67, 67
1, 64717, Note_on_c, 0, 71, 67
1, 64717, Note_on_c, 0, 55, 0
1, 64720, Note_on_c, 0, 50, 55
1, 64724, Control_c, 0, 64, 127
1, 64899, Control_c, 0, 64, 0
1, 64943, Note_on_c, 0, 71, 0
1, 64943, Note_on_c, 0, 67, 0
1, 64943, Note_on_c, 0, 66, 63
1, 64946, Note_on_c, 0, 69, 63
1, 64946, Note_on_c, 0, 50, 0
1, 64946, Note_on_c, 0, 62, 53
1, 64997, Control_c, 0, 64, 127
1, 65171, Note_on_c, 0, 69, 0
1, 65171, Note_on_c, 0, 66, 0
1, 65171, Note_on_c, 0, 66, 63
1, 65174, Note_on_c, 0, 69, 63
1, 65174, Note_on_c, 0, 62, 0
1, 65174, Note_on_c, 0, 62, 53
1, 65399, Note_on_c, 0, 69, 0
1, 65399, Note_on_c, 0, 66, 0
1, 65399, Note_on_c, 0, 66, 63
1, 65402, Note_on_c, 0, 69, 63
1, 65402, Note_on_c, 0, 62, 0
1, 65402, Note_on_c, 0, 62, 53
1, 65577, Control_c, 0, 64, 0
1, 65632, Note_on_c, 0, 62, 0
1, 65632, Note_on_c, 0, 60, 53
1, 65865, Note_on_c, 0, 69, 0
1, 65865, Note_on_c, 0, 66, 0
1, 65865, Note_on_c, 0, 68, 65
1, 65868, Note_on_c, 0, 71, 65
1, 65868, Note_on_c, 0, 60, 0
1, 65868, Note_on_c, 0, 59, 54
1, 66095, Note_on_c, 0, 71, 0
1, 66095, Note_on_c, 0, 68, 0
1, 66095, Note_on_c, 0, 69, 69
1, 66098, Note_on_c, 0, 72, 69
1, 66098, Note_on_c, 0, 59, 0
1, 66098, Note_on_c, 0, 57, 57
1, 66129, Control_c, 0, 64, 127
1, 66317, Control_c, 0, 64, 0
1, 66326, Note_on_c, 0, 72, 0
1, 66326, Note_on_c, 0, 69, 0
1, 66326, Note_on_c, 0, 71, 71
1, 66329, Note_on_c, 0, 74, 71
1, 66350, Control_c, 0, 64, 127
1, 66556, Note_on_c, 0, 74, 0
1, 66556, Note_on_c, 0, 71, 0
1, 66556, Note_on_c, 0, 72, 71
1, 66559, Note_on_c, 0, 76, 71
1, 66559, Note_on_c, 0, 57, 0
1, 66559, Note_on_c, 0, 55, 56
1, 66565, Control_c, 0, 64, 0
1, 66587, Control_c, 0, 64, 127
1, 66790, Note_on_c, 0, 76, 0
1, 66790, Note_on_c, 0, 72, 0
1, 66790, Note_on_c, 0, 72, 71
1, 66793, Note_on_c, 0, 76, 71
1, 66793, Note_on_c, 0, 55, 0
1, 66793, Note_on_c, 0, 54, 57
1, 66796, Control_c, 0, 64, 0
1, 66834, Control_c, 0, 64, 127
1, 67028, Note_on_c, 0, 54, 0
1, 67028, Note_on_c, 0, 57, 56
1, 67222, Control_c, 0, 64, 0
1, 67265, Note_on_c, 0, 76, 0
1, 67265, Note_on_c, 0, 72, 0
1, 67265, Note_on_c, 0, 72, 63
1, 67268, Note_on_c, 0, 69, 63
1, 67268, Note_on_c, 0, 57, 0
1, 67268, Note_on_c, 0, 62, 56
1, 67382, Note_on_c, 0, 72, 0
1, 67382, Note_on_c, 0, 74, 61
1, 67411, Note_on_c, 0, 72, 61
1, 67421, Note_on_c, 0, 74, 0
1, 67440, Note_on_c, 0, 71, 61
1, 67450, Note_on_c, 0, 72, 0
1, 67469, Note_on_c, 0, 72, 61
1, 67479, Note_on_c, 0, 71, 0
1, 67498, Note_on_c, 0, 69, 0
1, 67498, Note_on_c, 0, 67, 65
1, 67498, Note_on_c, 0, 71, 65
1, 67501, Note_on_c, 0, 62, 0
1, 67501, Note_on_c, 0, 55, 56
1, 67508, Note_on_c, 0, 72, 0
1, 67529, Control_c, 0, 64, 127
1, 67717, Control_c, 0, 64, 0
1, 67727, Note_on_c, 0, 71, 0
1, 67727, Note_on_c, 0, 67, 0
1, 67727, Note_on_c, 0, 69, 64
1, 67730, Note_on_c, 0, 72, 64
1, 67733, Control_c, 0, 64, 127
1, 67939, Control_c, 0, 64, 0
1, 67957, Note_on_c, 0, 72, 0
1, 67957, Note_on_c, 0, 69, 0
1, 67957, Note_on_c, 0, 71, 64
1, 67960, Note_on_c, 0, 74, 64
1, 68076, Note_on_c, 0, 74, 0
1, 68076, Note_on_c, 0, 71, 0
1, 68076, Note_on_c, 0, 73, 63
1, 68117, Note_on_c, 0, 73, 0
1, 68117, Note_on_c, 0, 74, 63
1, 68158, Note_on_c, 0, 74, 0
1, 68158, Note_on_c, 0, 76, 63
1, 68202, Note_on_c, 0, 76, 0
1, 68202, Note_on_c, 0, 71, 67
1, 68202, Note_on_c, 0, 74, 67
1, 68205, Note_on_c, 0, 55, 0
1, 68205, Note_on_c, 0, 43, 59
1, 68222, Control_c, 0, 64, 127
1, 68431, Note_on_c, 0, 43, 0
1, 68431, Note_on_c, 0, 47, 57
1, 68643, Control_c, 0, 64, 0
1, 68660, Note_on_c, 0, 74, 0
1, 68660, Note_on_c, 0, 71, 0
1, 68660, Note_on_c, 0, 59, 57
1, 68663, Note_on_c, 0, 67, 57
1, 68663, Note_on_c, 0, 47, 0
1, 68663, Note_on_c, 0, 52, 53
1, 68775, Note_on_c, 0, 67, 0
1, 68775, Note_on_c, 0, 69, 53
1, 68803, Note_on_c, 0, 67, 53
1, 68813, Note_on_c, 0, 69, 0
1, 68832, Note_on_c, 0, 66, 53
1, 68842, Note_on_c, 0, 67, 0
1, 68861, Note_on_c, 0, 67, 53
1, 68870, Note_on_c, 0, 66, 0
1, 68889, Note_on_c, 0, 59, 0
1, 68889, Note_on_c, 0, 60, 62
1, 68889, Note_on_c, 0, 69, 62
1, 68892, Note_on_c, 0, 52, 0
1, 68892, Note_on_c, 0, 48, 56
1, 68899, Note_on_c, 0, 67, 0
1, 68931, Control_c, 0, 64, 127
1, 69119, Note_on_c, 0, 69, 0
1, 69119, Note_on_c, 0, 60, 0
1, 69119, Note_on_c, 0, 64, 59
1, 69122, Note_on_c, 0, 72, 59
1, 69348, Note_on_c, 0, 72, 0
1, 69348, Note_on_c, 0, 64, 0
1, 69348, Note_on_c, 0, 62, 59
1, 69351, Note_on_c, 0, 71, 59
1, 69535, Control_c, 0, 64, 0
1, 69577, Note_on_c, 0, 71, 0
1, 69577, Note_on_c, 0, 62, 0
1, 69577, Note_on_c, 0, 60, 62
1, 69580, Note_on_c, 0, 69, 62
1, 69580, Note_on_c, 0, 48, 0
1, 69580, Note_on_c, 0, 50, 54
1, 69583, Control_c, 0, 64, 127
1, 69693, Note_on_c, 0, 69, 0
1, 69693, Note_on_c, 0, 71, 52
1, 69723, Note_on_c, 0, 71, 0
1, 69723, Note_on_c, 0, 69, 52
1, 69752, Note_on_c, 0, 69, 0
1, 69752, Note_on_c, 0, 67, 52
1, 69781, Note_on_c, 0, 67, 0
1, 69781, Note_on_c, 0, 69, 52
1, 69810, Note_on_c, 0, 69, 0
1, 69810, Note_on_c, 0, 60, 0
1, 69810, Note_on_c, 0, 59, 57
1, 69813, Note_on_c, 0, 67, 57
1, 70076, Note_on_c, 0, 67, 0
1, 70076, Note_on_c, 0, 59, 0
1, 70076, Note_on_c, 0, 57, 51
1, 70079, Note_on_c, 0, 66, 51
1, 70139, Control_c, 0, 64, 0
1, 70209, Note_on_c, 0, 66, 0
1, 70209, Note_on_c, 0, 67, 51
1, 70242, Note_on_c, 0, 66, 51
1, 70253, Note_on_c, 0, 67, 0
1, 70275, Note_on_c, 0, 64, 51
1, 70286, Note_on_c, 0, 66, 0
1, 70308, Note_on_c, 0, 66, 51
1, 70319, Note_on_c, 0, 64, 0
1, 70342, Note_on_c, 0, 57, 0
1, 70342, Note_on_c, 0, 60, 56
1, 70342, Note_on_c, 0, 69, 56
1, 70345, Note_on_c, 0, 50, 0
1, 70345, Note_on_c, 0, 43, 47
1, 70354, Note_on_c, 0, 66, 0
1, 70397, Control_c, 0, 64, 127
1, 70633, Note_on_c, 0, 69, 0
1, 70633, Note_on_c, 0, 60, 0
1, 70633, Note_on_c, 0, 59, 45
1, 70636, Note_on_c, 0, 67, 45
1, 70636, Note_on_c, 0, 43, 0
1, 70636, Note_on_c, 0, 47, 39
1, 70676, Control_c, 0, 64, 0
1, 70715, Control_c, 0, 64, 127
1, 70925, Note_on_c, 0, 67, 0
1, 70925, Note_on_c, 0, 59, 0
1, 70925, Note_on_c, 0, 59, 45
1, 70928, Note_on_c, 0, 67, 45
1, 70928, Note_on_c, 0, 47, 0
1, 70928, Note_on_c, 0, 50, 39
1, 71217, Note_on_c, 0, 67, 0
1, 71217, Note_on_c, 0, 59, 0
1, 71217, Note_on_c, 0, 59, 45
1, 71220, Note_on_c, 0, 67, 45
1, 71220, Note_on_c, 0, 50, 0
1, 71220, Note_on_c, 0, 55, 39
1, 71663, Control_c, 0, 64, 0
1, 71800, Note_on_c, 0, 67, 0
1, 71800, Note_on_c, 0, 59, 0
1, 71800, Note_on_c, 0, 74, 59
1, 71803, Note_on_c, 0, 55, 0
1, 71924, Note_on_c, 0, 74, 0
1, 72047, Control_c, 0, 91, 127
1, 72047, Note_on_c, 0, 74, 59
1, 72047, Control_c, 0, 91, 127
1, 72171, Note_on_c, 0, 74, 0
1, 72253, Control_c, 0, 64, 127
1, 72294, Note_on_c, 0, 55, 37
1, 72294, Note_on_c, 0, 58, 43
1, 72429, Control_c, 0, 64, 0
1, 72541, Note_on_c, 0, 75, 62
1, 72541, Note_on_c, 0, 58, 0
1, 72541, Note_on_c, 0, 55, 0
1, 72664, Note_on_c, 0, 75, 0
1, 72788, Note_on_c, 0, 75, 62
1, 72911, Note_on_c, 0, 75, 0
1, 73035, Note_on_c, 0, 60, 47
1, 73035, Note_on_c, 0, 55, 41
1, 73058, Control_c, 0, 64, 127
1, 73188, Control_c, 0, 64, 0
1, 73281, Note_on_c, 0, 78, 65
1, 73281, Note_on_c, 0, 55, 0
1, 73281, Note_on_c, 0, 60, 0
1, 73405, Note_on_c, 0, 78, 0
1, 73528, Note_on_c, 0, 78, 65
1, 73652, Note_on_c, 0, 78, 0
1, 73758, Control_c, 0, 64, 127
1, 73775, Note_on_c, 0, 55, 43
1, 73775, Note_on_c, 0, 60, 50
1, 73940, Control_c, 0, 64, 0
1, 74022, Note_on_c, 0, 79, 78
1, 74022, Note_on_c, 0, 60, 0
1, 74022, Note_on_c, 0, 55, 0
1, 74145, Note_on_c, 0, 79, 0
1, 74269, Note_on_c, 0, 79, 78
1, 74388, Note_on_c, 0, 79, 0
1, 74508, Note_on_c, 0, 55, 64
1, 74508, Note_on_c, 0, 58, 76
1, 74744, Control_c, 0, 64, 127
1, 74762, Note_on_c, 0, 82, 98
1, 74762, Note_on_c, 0, 73, 98
1, 74762, Note_on_c, 0, 58, 0
1, 74765, Note_on_c, 0, 55, 0
1, 74765, Note_on_c, 0, 55, 79
1, 74765, Note_on_c, 0, 64, 79
1, 75001, Note_on_c, 0, 73, 0
1, 75001, Note_on_c, 0, 74, 98
1, 75001, Note_on_c, 0, 64, 0
1, 75004, Note_on_c, 0, 55, 0
1, 75004, Control_c, 0, 64, 0
1, 75004, Note_on_c, 0, 65, 72
1, 75007, Note_on_c, 0, 53, 72
1, 75050, Control_c, 0, 64, 127
1, 75240, Note_on_c, 0, 82, 0
1, 75240, Note_on_c, 0, 81, 94
1, 75450, Control_c, 0, 64, 0
1, 75485, Note_on_c, 0, 81, 0
1, 75485, Note_on_c, 0, 74, 0
1, 75485, Note_on_c, 0, 73, 98
1, 75488, Note_on_c, 0, 82, 98
1, 75488, Note_on_c, 0, 53, 0
1, 75488, Note_on_c, 0, 65, 0
1, 75491, Note_on_c, 0, 64, 79
1, 75491, Note_on_c, 0, 55, 79
1, 75530, Control_c, 0, 64, 127
1, 75724, Note_on_c, 0, 73, 0
1, 75724, Note_on_c, 0, 74, 98
1, 75724, Note_on_c, 0, 55, 0
1, 75727, Note_on_c, 0, 64, 0
1, 75727, Note_on_c, 0, 53, 71
1, 75727, Note_on_c, 0, 65, 71
1, 75748, Control_c, 0, 64, 0
1, 75771, Control_c, 0, 64, 127
1, 75963, Note_on_c, 0, 82, 0
1, 75963, Note_on_c, 0, 81, 93
1, 76181, Control_c, 0, 64, 0
1, 76211, Note_on_c, 0, 81, 0
1, 76211, Note_on_c, 0, 74, 0
1, 76211, Note_on_c, 0, 80, 104
1, 76214, Note_on_c, 0, 65, 0
1, 76214, Note_on_c, 0, 53, 0
1, 76214, Note_on_c, 0, 62, 76
1, 76217, Note_on_c, 0, 58, 76
1, 76217, Note_on_c, 0, 65, 76
1, 76331, Note_on_c, 0, 80, 0
1, 76331, Note_on_c, 0, 81, 91
1, 76371, Note_on_c, 0, 80, 94
1, 76381, Note_on_c, 0, 81, 0
1, 76410, Note_on_c, 0, 78, 94
1, 76420, Note_on_c, 0, 80, 0
1, 76450, Note_on_c, 0, 80, 106
1, 76450, Note_on_c, 0, 65, 0
1, 76450, Note_on_c, 0, 58, 0
1, 76453, Note_on_c, 0, 62, 0
1, 76453, Note_on_c, 0, 65, 72
1, 76453, Note_on_c, 0, 62, 72
1, 76456, Note_on_c, 0, 57, 72
1, 76456, Control_c, 0, 64, 127
1, 76460, Note_on_c, 0, 78, 0
1, 76610, Control_c, 0, 64, 0
1, 76689, Note_on_c, 0, 80, 0
1, 76689, Note_on_c, 0, 81, 94
1, 76807, Note_on_c, 0, 81, 0
1, 76926, Note_on_c, 0, 81, 94
1, 77044, Note_on_c, 0, 81, 0
1, 77162, Note_on_c, 0, 57, 0
1, 77162, Note_on_c, 0, 62, 0
1, 77162, Note_on_c, 0, 65, 0
1, 77165, Note_on_c, 0, 65, 71
1, 77165, Note_on_c, 0, 62, 71
1, 77165, Note_on_c, 0, 56, 71
1, 77179, Control_c, 0, 64, 127
1, 77332, Control_c, 0, 64, 0
1, 77401, Note_on_c, 0, 83, 94
1, 77518, Note_on_c, 0, 83, 0
1, 77635, Note_on_c, 0, 83, 94
1, 77752, Note_on_c, 0, 83, 0
1, 77869, Note_on_c, 0, 56, 0
1, 77869, Note_on_c, 0, 62, 0
1, 77869, Note_on_c, 0, 65, 0
1, 77872, Note_on_c, 0, 65, 57
1, 77872, Note_on_c, 0, 62, 57
1, 77872, Note_on_c, 0, 57, 57
1, 77926, Control_c, 0, 64, 127
1, 78108, Note_on_c, 0, 69, 62
1, 78368, Note_on_c, 0, 69, 0
1, 78368, Note_on_c, 0, 69, 62
1, 78491, Control_c, 0, 64, 0
1, 78628, Note_on_c, 0, 69, 0
1, 78628, Note_on_c, 0, 69, 64
1, 78628, Note_on_c, 0, 57, 0
1, 78631, Note_on_c, 0, 62, 0
1, 78631, Note_on_c, 0, 65, 0
1, 78701, Control_c, 0, 64, 127
1, 78799, Control_c, 0, 64, 0
1, 78884, Note_on_c, 0, 69, 0
1, 78884, Note_on_c, 0, 71, 56
1, 78884, Note_on_c, 0, 67, 46
1, 78945, Control_c, 0, 64, 127
1, 79116, Control_c, 0, 64, 0
1, 79141, Note_on_c, 0, 71, 0
1, 79141, Note_on_c, 0, 73, 56
1, 79141, Note_on_c, 0, 67, 0
1, 79144, Note_on_c, 0, 67, 46
1, 79211, Control_c, 0, 64, 127
1, 79350, Control_c, 0, 64, 0
1, 79435, Note_on_c, 0, 73, 0
1, 79435, Note_on_c, 0, 73, 51
1, 79435, Note_on_c, 0, 67, 0
1, 79438, Note_on_c, 0, 67, 43
1, 79451, Control_c, 0, 64, 127
1, 79719, Note_on_c, 0, 67, 0
1, 79719, Control_c, 0, 64, 0
1, 79719, Note_on_c, 0, 65, 35
1, 79811, Control_c, 0, 64, 127
1, 79987, Control_c, 0, 64, 0
1, 80003, Note_on_c, 0, 65, 0
1, 80003, Note_on_c, 0, 64, 34
1, 80079, Control_c, 0, 64, 127
1, 80187, Control_c, 0, 64, 0
1, 80288, Note_on_c, 0, 73, 0
1, 80288, Note_on_c, 0, 74, 48
1, 80288, Note_on_c, 0, 64, 0
1, 80291, Note_on_c, 0, 62, 35
1, 80572, Note_on_c, 0, 74, 0
1, 80572, Note_on_c, 0, 62, 0
1, 80856, Note_on_c, 0, 74, 59
1, 80999, Note_on_c, 0, 74, 0
1, 81122, Control_c, 0, 91, 127
1, 81122, Note_on_c, 0, 74, 59
1, 81245, Note_on_c, 0, 74, 0
1, 81369, Control_c, 0, 64, 127
1, 81369, Note_on_c, 0, 55, 37
1, 81369, Note_on_c, 0, 58, 43
1, 81527, Control_c, 0, 64, 0
1, 81616, Note_on_c, 0, 75, 62
1, 81616, Note_on_c, 0, 58, 0
1, 81616, Note_on_c, 0, 55, 0
1, 81739, Note_on_c, 0, 75, 0
1, 81863, Note_on_c, 0, 75, 62
1, 81986, Note_on_c, 0, 75, 0
1, 82109, Note_on_c, 0, 60, 45
1, 82109, Note_on_c, 0, 55, 38
1, 82133, Control_c, 0, 64, 127
1, 82244, Control_c, 0, 64, 0
1, 82356, Note_on_c, 0, 78, 65
1, 82356, Note_on_c, 0, 55, 0
1, 82356, Note_on_c, 0, 60, 0
1, 82480, Note_on_c, 0, 78, 0
1, 82603, Note_on_c, 0, 78, 65
1, 82727, Note_on_c, 0, 78, 0
1, 82850, Note_on_c, 0, 55, 39
1, 82850, Note_on_c, 0, 60, 46
1, 82861, Control_c, 0, 64, 127
1, 83050, Control_c, 0, 64, 0
1, 83097, Note_on_c, 0, 79, 78
1, 83097, Note_on_c, 0, 60, 0
1, 83097, Note_on_c, 0, 55, 0
1, 83220, Note_on_c, 0, 79, 0
1, 83344, Note_on_c, 0, 79, 78
1, 83463, Note_on_c, 0, 79, 0
1, 83583, Note_on_c, 0, 55, 64
1, 83583, Note_on_c, 0, 58, 76
1, 83837, Note_on_c, 0, 82, 98
1, 83837, Note_on_c, 0, 73, 98
1, 83837, Note_on_c, 0, 58, 0
1, 83840, Note_on_c, 0, 55, 0
1, 83840, Note_on_c, 0, 55, 79
1, 83840, Note_on_c, 0, 64, 79
1, 83905, Control_c, 0, 64, 127
1, 84076, Note_on_c, 0, 73, 0
1, 84076, Note_on_c, 0, 74, 98
1, 84076, Note_on_c, 0, 64, 0
1, 84079, Note_on_c, 0, 55, 0
1, 84079, Control_c, 0, 64, 0
1, 84079, Note_on_c, 0, 65, 72
1, 84082, Note_on_c, 0, 53, 72
1, 84111, Control_c, 0, 64, 127
1, 84314, Note_on_c, 0, 82, 0
1, 84314, Note_on_c, 0, 81, 90
1, 84523, Control_c, 0, 64, 0
1, 84560, Note_on_c, 0, 81, 0
1, 84560, Note_on_c, 0, 74, 0
1, 84560, Note_on_c, 0, 73, 98
1, 84563, Note_on_c, 0, 82, 98
1, 84563, Note_on_c, 0, 53, 0
1, 84563, Note_on_c, 0, 65, 0
1, 84566, Note_on_c, 0, 64, 79
1, 84566, Note_on_c, 0, 55, 79
1, 84596, Control_c, 0, 64, 127
1, 84799, Note_on_c, 0, 73, 0
1, 84799, Note_on_c, 0, 74, 98
1, 84799, Note_on_c, 0, 55, 0
1, 84802, Note_on_c, 0, 64, 0
1, 84802, Note_on_c, 0, 53, 71
1, 84802, Note_on_c, 0, 65, 71
1, 84820, Control_c, 0, 64, 0
1, 84857, Control_c, 0, 64, 127
1, 85038, Note_on_c, 0, 82, 0
1, 85038, Note_on_c, 0, 81, 90
1, 85256, Control_c, 0, 64, 0
1, 85286, Note_on_c, 0, 81, 0
1, 85286, Note_on_c, 0, 74, 0
1, 85286, Note_on_c, 0, 80, 104
1, 85289, Note_on_c, 0, 65, 0
1, 85289, Note_on_c, 0, 53, 0
1, 85289, Note_on_c, 0, 62, 76
1, 85292, Note_on_c, 0, 58, 76
1, 85292, Note_on_c, 0, 65, 76
1, 85406, Note_on_c, 0, 80, 0
1, 85406, Note_on_c, 0, 81, 88
1, 85445, Note_on_c, 0, 80, 88
1, 85455, Note_on_c, 0, 81, 0
1, 85485, Note_on_c, 0, 78, 89
1, 85495, Note_on_c, 0, 80, 0
1, 85525, Note_on_c, 0, 80, 108
1, 85525, Note_on_c, 0, 65, 0
1, 85525, Note_on_c, 0, 58, 0
1, 85528, Note_on_c, 0, 62, 0
1, 85528, Note_on_c, 0, 65, 72
1, 85528, Note_on_c, 0, 62, 72
1, 85531, Note_on_c, 0, 57, 72
1, 85535, Note_on_c, 0, 78, 0
1, 85548, Control_c, 0, 64, 127
1, 85668, Control_c, 0, 64, 0
1, 85764, Note_on_c, 0, 80, 0
1, 85764, Note_on_c, 0, 81, 91
1, 85882, Note_on_c, 0, 81, 0
1, 86001, Note_on_c, 0, 81, 91
1, 86119, Note_on_c, 0, 81, 0
1, 86237, Note_on_c, 0, 57, 0
1, 86237, Note_on_c, 0, 62, 0
1, 86237, Note_on_c, 0, 65, 0
1, 86240, Note_on_c, 0, 65, 71
1, 86240, Note_on_c, 0, 62, 71
1, 86240, Note_on_c, 0, 56, 71
1, 86277, Control_c, 0, 64, 127
1, 86436, Control_c, 0, 64, 0
1, 86476, Note_on_c, 0, 83, 104
1, 86593, Note_on_c, 0, 83, 0
1, 86710, Note_on_c, 0, 83, 104
1, 86827, Note_on_c, 0, 83, 0
1, 86944, Note_on_c, 0, 56, 0
1, 86944, Note_on_c, 0, 62, 0
1, 86944, Note_on_c, 0, 65, 0
1, 86947, Note_on_c, 0, 65, 57
1, 86947, Note_on_c, 0, 62, 57
1, 86947, Note_on_c, 0, 57, 57
1, 87035, Control_c, 0, 64, 127
1, 87183, Note_on_c, 0, 69, 62
1, 87443, Note_on_c, 0, 69, 0
1, 87443, Note_on_c, 0, 69, 62
1, 87517, Control_c, 0, 64, 0
1, 87702, Note_on_c, 0, 69, 0
1, 87702, Note_on_c, 0, 69, 64
1, 87702, Note_on_c, 0, 57, 0
1, 87705, Note_on_c, 0, 62, 0
1, 87705, Note_on_c, 0, 65, 0
1, 87813, Control_c, 0, 64, 127
1, 87959, Note_on_c, 0, 69, 0
1, 87959, Note_on_c, 0, 71, 56
1, 87959, Control_c, 0, 64, 0
1, 87962, Note_on_c, 0, 67, 46
1, 88045, Control_c, 0, 64, 127
1, 88167, Control_c, 0, 64, 0
1, 88216, Note_on_c, 0, 71, 0
1, 88216, Note_on_c, 0, 73, 56
1, 88216, Note_on_c, 0, 67, 0
1, 88219, Note_on_c, 0, 67, 46
1, 88257, Control_c, 0, 64, 127
1, 88412, Control_c, 0, 64, 0
1, 88510, Note_on_c, 0, 73, 0
1, 88510, Note_on_c, 0, 73, 51
1, 88510, Note_on_c, 0, 67, 0
1, 88513, Control_c, 0, 64, 127
1, 88513, Note_on_c, 0, 67, 44
1, 88726, Control_c, 0, 64, 0
1, 88794, Note_on_c, 0, 67, 0
1, 88794, Note_on_c, 0, 65, 37
1, 88834, Control_c, 0, 64, 127
1, 88996, Control_c, 0, 64, 0
1, 89078, Note_on_c, 0, 65, 0
1, 89078, Note_on_c, 0, 64, 35
1, 89105, Control_c, 0, 64, 127
1, 89281, Control_c, 0, 64, 0
1, 89363, Note_on_c, 0, 73, 0
1, 89363, Note_on_c, 0, 74, 48
1, 89363, Note_on_c, 0, 64, 0
1, 89366, Note_on_c, 0, 62, 35
1, 89647, Note_on_c, 0, 74, 0
1, 89647, Note_on_c, 0, 62, 0
1, 89931, Note_on_c, 0, 74, 52
1, 90223, Note_on_c, 0, 74, 0
1, 90223, Control_c, 0, 91, 127
1, 90223, Note_on_c, 0, 74, 54
1, 90490, Note_on_c, 0, 74, 0
1, 90490, Note_on_c, 0, 58, 36
1, 90490, Note_on_c, 0, 62, 36
1, 90758, Note_on_c, 0, 67, 54
1, 90758, Note_on_c, 0, 62, 0
1, 90758, Note_on_c, 0, 58, 0
1, 91012, Note_on_c, 0, 67, 0
1, 91012, Note_on_c, 0, 72, 56
1, 91266, Note_on_c, 0, 72, 0
1, 91266, Note_on_c, 0, 63, 42
1, 91266, Note_on_c, 0, 57, 42
1, 91533, Note_on_c, 0, 66, 54
1, 91533, Note_on_c, 0, 57, 0
1, 91533, Note_on_c, 0, 63, 0
1, 91787, Note_on_c, 0, 66, 0
1, 91787, Note_on_c, 0, 70, 56
1, 92041, Note_on_c, 0, 70, 0
1, 92041, Note_on_c, 0, 55, 42
1, 92041, Note_on_c, 0, 58, 42
1, 92310, Note_on_c, 0, 61, 62
1, 92310, Note_on_c, 0, 58, 0
1, 92310, Note_on_c, 0, 55, 0
1, 92565, Note_on_c, 0, 61, 0
1, 92565, Note_on_c, 0, 62, 64
1, 92820, Note_on_c, 0, 62, 0
1, 92820, Note_on_c, 0, 50, 64
1, 92820, Note_on_c, 0, 38, 64
1, 92973, Control_c, 0, 64, 127
1, 93066, Note_on_c, 0, 79, 95
1, 93066, Note_on_c, 0, 67, 95
1, 93066, Note_on_c, 0, 38, 0
1, 93069, Note_on_c, 0, 50, 0
1, 93069, Note_on_c, 0, 58, 64
1, 93069, Note_on_c, 0, 62, 77
1, 93305, Note_on_c, 0, 67, 0
1, 93305, Note_on_c, 0, 69, 80
1, 93305, Note_on_c, 0, 62, 0
1, 93308, Note_on_c, 0, 58, 0
1, 93308, Control_c, 0, 64, 0
1, 93308, Note_on_c, 0, 63, 70
1, 93311, Note_on_c, 0, 60, 60
1, 93361, Control_c, 0, 64, 127
1, 93544, Note_on_c, 0, 79, 0
1, 93544, Note_on_c, 0, 78, 94
1, 93602, Control_c, 0, 64, 0
1, 93789, Note_on_c, 0, 78, 0
1, 93789, Note_on_c, 0, 69, 0
1, 93789, Note_on_c, 0, 67, 80
1, 93792, Note_on_c, 0, 79, 95
1, 93792, Note_on_c, 0, 60, 0
1, 93792, Note_on_c, 0, 63, 0
1, 93795, Note_on_c, 0, 62, 77
1, 93795, Note_on_c, 0, 58, 64
1, 93823, Control_c, 0, 64, 127
1, 94028, Note_on_c, 0, 67, 0
1, 94028, Note_on_c, 0, 69, 80
1, 94028, Note_on_c, 0, 58, 0
1, 94031, Note_on_c, 0, 62, 0
1, 94031, Note_on_c, 0, 60, 59
1, 94031, Note_on_c, 0, 63, 69
1, 94267, Note_on_c, 0, 79, 0
1, 94267, Note_on_c, 0, 78, 91
1, 94350, Control_c, 0, 64, 0
1, 94515, Note_on_c, 0, 78, 0
1, 94515, Note_on_c, 0, 69, 0
1, 94515, Note_on_c, 0, 67, 80
1, 94518, Note_on_c, 0, 79, 99
1, 94518, Note_on_c, 0, 63, 0
1, 94518, Note_on_c, 0, 60, 0
1, 94521, Note_on_c, 0, 62, 72
1, 94521, Note_on_c, 0, 58, 62
1, 94817, Note_on_c, 0, 79, 0
1, 94817, Note_on_c, 0, 67, 0
1, 94817, Note_on_c, 0, 72, 86
1, 94820, Note_on_c, 0, 75, 86
1, 94820, Note_on_c, 0, 78, 100
1, 94820, Note_on_c, 0, 81, 100
1, 94823, Note_on_c, 0, 58, 0
1, 94823, Note_on_c, 0, 62, 0
1, 94823, Note_on_c, 0, 63, 65
1, 94826, Note_on_c, 0, 60, 65
1, 94826, Note_on_c, 0, 54, 56
1, 94826, Note_on_c, 0, 57, 56
1, 94969, Control_c, 0, 64, 127
1, 95605, Note_on_c, 0, 57, 0
1, 95605, Note_on_c, 0, 63, 0
1, 95605, Note_on_c, 0, 60, 0
1, 95608, Note_on_c, 0, 54, 0
1, 95608, Note_on_c, 0, 55, 52
1, 95619, Control_c, 0, 64, 0
1, 95716, Control_c, 0, 64, 127
1, 95868, Note_on_c, 0, 81, 0
1, 95868, Note_on_c, 0, 72, 0
1, 95868, Note_on_c, 0, 75, 0
1, 95871, Note_on_c, 0, 78, 0
1, 95871, Note_on_c, 0, 74, 62
1, 95871, Note_on_c, 0, 82, 62
1, 95882, Control_c, 0, 64, 0
1, 96017, Control_c, 0, 64, 127
1, 96125, Note_on_c, 0, 82, 0
1, 96125, Note_on_c, 0, 74, 0
1, 96125, Note_on_c, 0, 82, 62
1, 96128, Note_on_c, 0, 74, 62
1, 96273, Control_c, 0, 64, 0
1, 96381, Note_on_c, 0, 74, 0
1, 96381, Note_on_c, 0, 75, 62
1, 96381, Note_on_c, 0, 55, 0
1, 96384, Note_on_c, 0, 60, 55
1, 96644, Note_on_c, 0, 82, 0
1, 96644, Note_on_c, 0, 81, 62
1, 96644, Note_on_c, 0, 72, 48
1, 96680, Control_c, 0, 64, 127
1, 96901, Note_on_c, 0, 81, 0
1, 96901, Note_on_c, 0, 81, 62
1, 96901, Note_on_c, 0, 72, 0
1, 96904, Note_on_c, 0, 72, 48
1, 97108, Control_c, 0, 64, 0
1, 97158, Note_on_c, 0, 60, 0
1, 97158, Note_on_c, 0, 62, 55
1, 97333, Control_c, 0, 64, 127
1, 97420, Note_on_c, 0, 81, 0
1, 97420, Note_on_c, 0, 75, 0
1, 97420, Note_on_c, 0, 74, 59
1, 97423, Note_on_c, 0, 79, 59
1, 97423, Note_on_c, 0, 72, 0
1, 97423, Note_on_c, 0, 70, 52
1, 97640, Control_c, 0, 64, 0
1, 97708, Note_on_c, 0, 79, 0
1, 97708, Note_on_c, 0, 74, 0
1, 97708, Note_on_c, 0, 72, 54
1, 97711, Note_on_c, 0, 78, 54
1, 97711, Note_on_c, 0, 70, 0
1, 97711, Note_on_c, 0, 69, 50
1, 97763, Control_c, 0, 64, 127
1, 97996, Note_on_c, 0, 78, 0
1, 97996, Note_on_c, 0, 72, 0
1, 97996, Note_on_c, 0, 72, 51
1, 97999, Note_on_c, 0, 78, 51
1, 97999, Note_on_c, 0, 69, 0
1, 97999, Note_on_c, 0, 62, 0
1, 98002, Note_on_c, 0, 55, 39
1, 98002, Note_on_c, 0, 69, 39
1, 98009, Control_c, 0, 64, 0
1, 98180, Control_c, 0, 64, 127
1, 98695, Control_c, 0, 64, 0
1, 98895, Note_on_c, 0, 78, 0
1, 98895, Note_on_c, 0, 72, 0
1, 98895, Note_on_c, 0, 70, 48
1, 98898, Note_on_c, 0, 79, 48
1, 98898, Note_on_c, 0, 69, 0
1, 98898, Note_on_c, 0, 67, 41
1, 99177, Note_on_c, 0, 79, 0
1, 99177, Note_on_c, 0, 70, 0
1, 99177, Note_on_c, 0, 67, 0
1, 99180, Note_on_c, 0, 55, 0
1, 99460, Note_on_c, 0, 74, 52
1, 99752, Note_on_c, 0, 74, 0
1, 99752, Control_c, 0, 91, 127
1, 99752, Note_on_c, 0, 74, 54
1, 100019, Note_on_c, 0, 74, 0
1, 100019, Note_on_c, 0, 58, 37
1, 100019, Note_on_c, 0, 62, 37
1, 100287, Note_on_c, 0, 67, 54
1, 100287, Note_on_c, 0, 62, 0
1, 100287, Note_on_c, 0, 58, 0
1, 100540, Note_on_c, 0, 67, 0
1, 100540, Note_on_c, 0, 72, 56
1, 100794, Note_on_c, 0, 72, 0
1, 100794, Note_on_c, 0, 63, 42
1, 100794, Note_on_c, 0, 57, 42
1, 101062, Note_on_c, 0, 66, 54
1, 101062, Note_on_c, 0, 57, 0
1, 101062, Note_on_c, 0, 63, 0
1, 101315, Note_on_c, 0, 66, 0
1, 101315, Note_on_c, 0, 70, 56
1, 101569, Note_on_c, 0, 70, 0
1, 101569, Note_on_c, 0, 55, 42
1, 101569, Note_on_c, 0, 58, 42
1, 101838, Note_on_c, 0, 61, 62
1, 101838, Note_on_c, 0, 58, 0
1, 101838, Note_on_c, 0, 55, 0
1, 102094, Note_on_c, 0, 61, 0
1, 102094, Note_on_c, 0, 62, 64
1, 102349, Note_on_c, 0, 62, 0
1, 102349, Note_on_c, 0, 50, 64
1, 102349, Note_on_c, 0, 38, 64
1, 102560, Control_c, 0, 64, 127
1, 102594, Note_on_c, 0, 79, 95
1, 102594, Note_on_c, 0, 67, 80
1, 102594, Note_on_c, 0, 38, 0
1, 102597, Note_on_c, 0, 50, 0
1, 102597, Note_on_c, 0, 58, 64
1, 102597, Note_on_c, 0, 62, 77
1, 102833, Note_on_c, 0, 67, 0
1, 102833, Note_on_c, 0, 69, 80
1, 102833, Note_on_c, 0, 62, 0
1, 102836, Note_on_c, 0, 58, 0
1, 102836, Control_c, 0, 64, 0
1, 102836, Note_on_c, 0, 63, 70
1, 102839, Note_on_c, 0, 60, 60
1, 102913, Control_c, 0, 64, 127
1, 103072, Note_on_c, 0, 79, 0
1, 103072, Note_on_c, 0, 78, 94
1, 103283, Control_c, 0, 64, 0
1, 103318, Note_on_c, 0, 78, 0
1, 103318, Note_on_c, 0, 69, 0
1, 103318, Note_on_c, 0, 67, 80
1, 103321, Note_on_c, 0, 79, 95
1, 103321, Note_on_c, 0, 60, 0
1, 103321, Note_on_c, 0, 63, 0
1, 103324, Note_on_c, 0, 62, 77
1, 103324, Note_on_c, 0, 58, 64
1, 103408, Control_c, 0, 64, 127
1, 103511, Control_c, 0, 64, 0
1, 103557, Note_on_c, 0, 67, 0
1, 103557, Note_on_c, 0, 69, 80
1, 103557, Note_on_c, 0, 58, 0
1, 103560, Note_on_c, 0, 62, 0
1, 103560, Note_on_c, 0, 60, 59
1, 103560, Note_on_c, 0, 63, 69
1, 103636, Control_c, 0, 64, 127
1, 103796, Note_on_c, 0, 79, 0
1, 103796, Note_on_c, 0, 78, 91
1, 103950, Control_c, 0, 64, 0
1, 104044, Note_on_c, 0, 78, 0
1, 104044, Note_on_c, 0, 69, 0
1, 104044, Note_on_c, 0, 67, 80
1, 104047, Note_on_c, 0, 79, 99
1, 104047, Note_on_c, 0, 63, 0
1, 104047, Note_on_c, 0, 60, 0
1, 104050, Note_on_c, 0, 62, 72
1, 104050, Note_on_c, 0, 58, 62
1, 104346, Note_on_c, 0, 79, 0
1, 104346, Note_on_c, 0, 67, 0
1, 104346, Note_on_c, 0, 72, 86
1, 104349, Note_on_c, 0, 75, 86
1, 104349, Note_on_c, 0, 78, 100
1, 104349, Note_on_c, 0, 81, 100
1, 104352, Note_on_c, 0, 58, 0
1, 104352, Note_on_c, 0, 62, 0
1, 104352, Note_on_c, 0, 63, 65
1, 104355, Note_on_c, 0, 60, 65
1, 104355, Note_on_c, 0, 54, 56
1, 104355, Note_on_c, 0, 57, 56
1, 104429, Control_c, 0, 64, 127
1, 105078, Control_c, 0, 64, 0
1, 105134, Note_on_c, 0, 57, 0
1, 105134, Note_on_c, 0, 63, 0
1, 105134, Note_on_c, 0, 60, 0
1, 105137, Note_on_c, 0, 54, 0
1, 105137, Note_on_c, 0, 55, 52
1, 105396, Note_on_c, 0, 81, 0
1, 105396, Note_on_c, 0, 72, 0
1, 105396, Note_on_c, 0, 75, 0
1, 105399, Note_on_c, 0, 78, 0
1, 105399, Note_on_c, 0, 74, 62
1, 105399, Note_on_c, 0, 82, 62
1, 105478, Control_c, 0, 64, 127
1, 105653, Note_on_c, 0, 82, 0
1, 105653, Note_on_c, 0, 74, 0
1, 105653, Note_on_c, 0, 82, 62
1, 105656, Note_on_c, 0, 74, 62
1, 105802, Control_c, 0, 64, 0
1, 105910, Note_on_c, 0, 74, 0
1, 105910, Note_on_c, 0, 75, 62
1, 105910, Note_on_c, 0, 55, 0
1, 105913, Note_on_c, 0, 60, 55
1, 105985, Control_c, 0, 64, 127
1, 106148, Control_c, 0, 64, 0
1, 106173, Note_on_c, 0, 82, 0
1, 106173, Note_on_c, 0, 81, 62
1, 106173, Note_on_c, 0, 72, 48
1, 106295, Control_c, 0, 64, 127
1, 106429, Note_on_c, 0, 81, 0
1, 106429, Note_on_c, 0, 81, 62
1, 106429, Note_on_c, 0, 72, 0
1, 106432, Note_on_c, 0, 72, 48
1, 106601, Control_c, 0, 64, 0
1, 106686, Note_on_c, 0, 60, 0
1, 106686, Note_on_c, 0, 62, 55
1, 106836, Control_c, 0, 64, 127
1, 106949, Note_on_c, 0, 81, 0
1, 106949, Note_on_c, 0, 75, 0
1, 106949, Note_on_c, 0, 74, 59
1, 106952, Note_on_c, 0, 79, 59
1, 106952, Note_on_c, 0, 72, 0
1, 106952, Note_on_c, 0, 70, 52
1, 107196, Control_c, 0, 64, 0
1, 107237, Note_on_c, 0, 79, 0
1, 107237, Note_on_c, 0, 74, 0
1, 107237, Note_on_c, 0, 72, 54
1, 107240, Note_on_c, 0, 78, 54
1, 107240, Note_on_c, 0, 70, 0
1, 107240, Note_on_c, 0, 69, 50
1, 107346, Control_c, 0, 64, 127
1, 107525, Note_on_c, 0, 78, 0
1, 107525, Note_on_c, 0, 72, 0
1, 107525, Note_on_c, 0, 72, 51
1, 107528, Note_on_c, 0, 78, 51
1, 107528, Note_on_c, 0, 69, 0
1, 107528, Note_on_c, 0, 62, 0
1, 107531, Note_on_c, 0, 55, 39
1, 107531, Note_on_c, 0, 69, 39
1, 107537, Control_c, 0, 64, 0
1, 107582, Control_c, 0, 64, 127
1, 108252, Control_c, 0, 64, 0
1, 108423, Note_on_c, 0, 78, 0
1, 108423, Note_on_c, 0, 72, 0
1, 108423, Note_on_c, 0, 70, 48
1, 108426, Note_on_c, 0, 79, 48
1, 108426, Note_on_c, 0, 69, 0
1, 108426, Note_on_c, 0, 67, 41
1, 108723, Note_on_c, 0, 79, 0
1, 108723, Note_on_c, 0, 70, 0
1, 108723, Note_on_c, 0, 67, 0
1, 108726, Note_on_c, 0, 55, 0
1, 108951, Control_c, 0, 64, 127
1, 109022, Note_on_c, 0, 67, 65
1, 109022, Note_on_c, 0, 59, 55
1, 109022, Note_on_c, 0, 55, 55
1, 109322, Note_on_c, 0, 67, 0
1, 109322, Note_on_c, 0, 67, 69
1, 109322, Note_on_c, 0, 55, 0
1, 109325, Note_on_c, 0, 59, 0
1, 109325, Note_on_c, 0, 55, 57
1, 109325, Note_on_c, 0, 59, 57
1, 109725, Control_c, 0, 64, 0
1, 109736, Note_on_c, 0, 67, 0
1, 109736, Note_on_c, 0, 71, 67
1, 109795, Note_on_c, 0, 71, 0
1, 109795, Note_on_c, 0, 69, 67
1, 109795, Note_on_c, 0, 59, 0
1, 109798, Note_on_c, 0, 55, 0
1, 109798, Note_on_c, 0, 55, 55
1, 109798, Note_on_c, 0, 60, 55
1, 110035, Note_on_c, 0, 69, 0
1, 110035, Note_on_c, 0, 62, 69
1, 110035, Note_on_c, 0, 60, 0
1, 110038, Note_on_c, 0, 55, 0
1, 110038, Note_on_c, 0, 55, 57
1, 110038, Note_on_c, 0, 60, 57
1, 110052, Control_c, 0, 64, 127
1, 110266, Note_on_c, 0, 62, 0
1, 110266, Note_on_c, 0, 63, 64
1, 110375, Note_on_c, 0, 63, 0
1, 110375, Note_on_c, 0, 64, 64
1, 110459, Control_c, 0, 64, 0
1, 110484, Note_on_c, 0, 64, 0
1, 110484, Note_on_c, 0, 65, 64
1, 110484, Note_on_c, 0, 60, 0
1, 110487, Note_on_c, 0, 55, 0
1, 110487, Note_on_c, 0, 55, 55
1, 110487, Note_on_c, 0, 60, 55
1, 110500, Control_c, 0, 64, 127
1, 110593, Note_on_c, 0, 65, 0
1, 110593, Note_on_c, 0, 66, 64
1, 110672, Control_c, 0, 64, 0
1, 110706, Note_on_c, 0, 66, 0
1, 110706, Note_on_c, 0, 67, 65
1, 110706, Note_on_c, 0, 60, 0
1, 110709, Note_on_c, 0, 55, 0
1, 110709, Note_on_c, 0, 55, 50
1, 110709, Note_on_c, 0, 59, 50
1, 110821, Note_on_c, 0, 58, 45
1, 110831, Note_on_c, 0, 59, 0
1, 110938, Note_on_c, 0, 67, 0
1, 110938, Note_on_c, 0, 67, 63
1, 110938, Note_on_c, 0, 58, 0
1, 110941, Note_on_c, 0, 59, 48
1, 111055, Note_on_c, 0, 58, 45
1, 111065, Note_on_c, 0, 59, 0
1, 111172, Note_on_c, 0, 67, 0
1, 111172, Note_on_c, 0, 67, 63
1, 111172, Note_on_c, 0, 58, 0
1, 111175, Note_on_c, 0, 59, 47
1, 111291, Note_on_c, 0, 58, 46
1, 111300, Note_on_c, 0, 59, 0
1, 111410, Note_on_c, 0, 67, 0
1, 111410, Note_on_c, 0, 67, 63
1, 111410, Note_on_c, 0, 58, 0
1, 111413, Note_on_c, 0, 59, 53
1, 111555, Control_c, 0, 64, 127
1, 111758, Control_c, 0, 64, 0
1, 111837, Note_on_c, 0, 67, 0
1, 111837, Note_on_c, 0, 62, 63
1, 111837, Note_on_c, 0, 69, 63
1, 111840, Note_on_c, 0, 59, 0
1, 111840, Note_on_c, 0, 55, 0
1, 111840, Note_on_c, 0, 54, 53
1, 112000, Note_on_c, 0, 69, 0
1, 112000, Note_on_c, 0, 72, 63
1, 112000, Note_on_c, 0, 54, 0
1, 112003, Note_on_c, 0, 57, 59
1, 112054, Note_on_c, 0, 72, 0
1, 112054, Note_on_c, 0, 62, 0
1, 112054, Note_on_c, 0, 62, 69
1, 112057, Note_on_c, 0, 71, 69
1, 112057, Note_on_c, 0, 57, 0
1, 112057, Note_on_c, 0, 55, 56
1, 112096, Control_c, 0, 64, 127
1, 112162, Note_on_c, 0, 71, 0
1, 112162, Note_on_c, 0, 70, 67
1, 112162, Note_on_c, 0, 55, 0
1, 112165, Note_on_c, 0, 54, 53
1, 112254, Control_c, 0, 64, 0
1, 112269, Note_on_c, 0, 70, 0
1, 112269, Note_on_c, 0, 71, 69
1, 112269, Note_on_c, 0, 54, 0
1, 112272, Note_on_c, 0, 55, 56
1, 112285, Control_c, 0, 64, 127
1, 112376, Note_on_c, 0, 71, 0
1, 112376, Note_on_c, 0, 70, 65
1, 112376, Note_on_c, 0, 55, 0
1, 112379, Note_on_c, 0, 54, 53
1, 112442, Control_c, 0, 64, 0
1, 112483, Note_on_c, 0, 70, 0
1, 112483, Note_on_c, 0, 71, 69
1, 112483, Note_on_c, 0, 54, 0
1, 112486, Note_on_c, 0, 55, 56
1, 112493, Control_c, 0, 64, 127
1, 112590, Note_on_c, 0, 71, 0
1, 112590, Note_on_c, 0, 74, 65
1, 112590, Note_on_c, 0, 55, 0
1, 112593, Note_on_c, 0, 59, 53
1, 112710, Note_on_c, 0, 74, 0
1, 112710, Note_on_c, 0, 62, 0
1, 112710, Note_on_c, 0, 66, 62
1, 112713, Note_on_c, 0, 62, 62
1, 112713, Note_on_c, 0, 74, 69
1, 112713, Note_on_c, 0, 59, 0
1, 112716, Note_on_c, 0, 57, 55
1, 112716, Control_c, 0, 64, 0
1, 112794, Control_c, 0, 64, 127
1, 112945, Note_on_c, 0, 74, 0
1, 112945, Note_on_c, 0, 72, 63
1, 113089, Control_c, 0, 64, 0
1, 113170, Note_on_c, 0, 72, 0
1, 113170, Note_on_c, 0, 66, 0
1, 113170, Note_on_c, 0, 67, 63
1, 113173, Note_on_c, 0, 71, 63
1, 113173, Note_on_c, 0, 57, 0
1, 113173, Note_on_c, 0, 55, 53
1, 113394, Note_on_c, 0, 71, 0
1, 113394, Note_on_c, 0, 67, 0
1, 113394, Note_on_c, 0, 62, 0
1, 113397, Note_on_c, 0, 67, 67
1, 113397, Note_on_c, 0, 71, 67
1, 113397, Note_on_c, 0, 55, 0
1, 113400, Control_c, 0, 64, 127
1, 113400, Note_on_c, 0, 50, 55
1, 113509, Note_on_c, 0, 50, 0
1, 113509, Note_on_c, 0, 61, 47
1, 113624, Note_on_c, 0, 71, 0
1, 113624, Note_on_c, 0, 67, 0
1, 113624, Note_on_c, 0, 66, 63
1, 113627, Note_on_c, 0, 69, 63
1, 113627, Note_on_c, 0, 61, 0
1, 113627, Note_on_c, 0, 62, 54
1, 113634, Control_c, 0, 64, 0
1, 113672, Control_c, 0, 64, 127
1, 113738, Note_on_c, 0, 62, 0
1, 113738, Note_on_c, 0, 61, 48
1, 113853, Note_on_c, 0, 69, 0
1, 113853, Note_on_c, 0, 66, 0
1, 113853, Note_on_c, 0, 66, 63
1, 113856, Note_on_c, 0, 69, 63
1, 113856, Note_on_c, 0, 61, 0
1, 113856, Note_on_c, 0, 62, 54
1, 113869, Control_c, 0, 64, 0
1, 113913, Control_c, 0, 64, 127
1, 113968, Note_on_c, 0, 62, 0
1, 113968, Note_on_c, 0, 61, 48
1, 114016, Control_c, 0, 64, 0
1, 114082, Note_on_c, 0, 69, 0
1, 114082, Note_on_c, 0, 66, 0
1, 114082, Note_on_c, 0, 66, 63
1, 114085, Note_on_c, 0, 69, 63
1, 114085, Note_on_c, 0, 61, 0
1, 114085, Note_on_c, 0, 62, 55
1, 114103, Control_c, 0, 64, 127
1, 114193, Note_on_c, 0, 62, 0
1, 114193, Note_on_c, 0, 64, 53
1, 114305, Note_on_c, 0, 64, 0
1, 114305, Note_on_c, 0, 60, 55
1, 114326, Control_c, 0, 64, 0
1, 114347, Control_c, 0, 64, 127
1, 114416, Note_on_c, 0, 60, 0
1, 114416, Note_on_c, 0, 62, 53
1, 114527, Note_on_c, 0, 69, 0
1, 114527, Note_on_c, 0, 66, 0
1, 114527, Note_on_c, 0, 68, 65
1, 114530, Note_on_c, 0, 71, 65
1, 114530, Note_on_c, 0, 62, 0
1, 114530, Note_on_c, 0, 59, 56
1, 114538, Control_c, 0, 64, 0
1, 114577, Control_c, 0, 64, 127
1, 114644, Note_on_c, 0, 59, 0
1, 114644, Note_on_c, 0, 60, 53
1, 114700, Control_c, 0, 64, 0
1, 114761, Note_on_c, 0, 71, 0
1, 114761, Note_on_c, 0, 68, 0
1, 114761, Note_on_c, 0, 69, 69
1, 114764, Note_on_c, 0, 72, 69
1, 114764, Note_on_c, 0, 60, 0
1, 114764, Control_c, 0, 64, 127
1, 114767, Note_on_c, 0, 57, 57
1, 114878, Note_on_c, 0, 57, 0
1, 114878, Note_on_c, 0, 64, 54
1, 114995, Note_on_c, 0, 72, 0
1, 114995, Note_on_c, 0, 69, 0
1, 114995, Note_on_c, 0, 71, 71
1, 114998, Note_on_c, 0, 74, 71
1, 114998, Note_on_c, 0, 64, 0
1, 114998, Note_on_c, 0, 60, 54
1, 115009, Control_c, 0, 64, 0
1, 115043, Control_c, 0, 64, 127
1, 115112, Note_on_c, 0, 60, 0
1, 115112, Note_on_c, 0, 59, 53
1, 115188, Control_c, 0, 64, 0
1, 115229, Note_on_c, 0, 74, 0
1, 115229, Note_on_c, 0, 71, 0
1, 115229, Note_on_c, 0, 72, 71
1, 115232, Note_on_c, 0, 76, 71
1, 115232, Note_on_c, 0, 59, 0
1, 115232, Note_on_c, 0, 57, 53
1, 115236, Control_c, 0, 64, 127
1, 115347, Note_on_c, 0, 57, 0
1, 115347, Note_on_c, 0, 55, 52
1, 115389, Control_c, 0, 64, 0
1, 115465, Note_on_c, 0, 76, 0
1, 115465, Note_on_c, 0, 72, 0
1, 115465, Note_on_c, 0, 72, 71
1, 115468, Note_on_c, 0, 76, 71
1, 115468, Note_on_c, 0, 55, 0
1, 115468, Note_on_c, 0, 54, 52
1, 115491, Control_c, 0, 64, 127
1, 115575, Note_on_c, 0, 54, 0
1, 115575, Note_on_c, 0, 57, 51
1, 115684, Note_on_c, 0, 57, 0
1, 115684, Note_on_c, 0, 60, 52
1, 115796, Note_on_c, 0, 60, 0
1, 115796, Note_on_c, 0, 62, 54
1, 115875, Control_c, 0, 64, 0
1, 115908, Note_on_c, 0, 76, 0
1, 115908, Note_on_c, 0, 72, 0
1, 115908, Note_on_c, 0, 71, 67
1, 115911, Note_on_c, 0, 74, 67
1, 115911, Note_on_c, 0, 62, 0
1, 115911, Note_on_c, 0, 64, 56
1, 115915, Control_c, 0, 64, 127
1, 116019, Note_on_c, 0, 74, 0
1, 116019, Note_on_c, 0, 71, 0
1, 116019, Note_on_c, 0, 69, 67
1, 116022, Note_on_c, 0, 72, 67
1, 116022, Note_on_c, 0, 64, 0
1, 116022, Note_on_c, 0, 66, 57
1, 116129, Note_on_c, 0, 72, 0
1, 116129, Note_on_c, 0, 69, 0
1, 116129, Note_on_c, 0, 71, 69
1, 116132, Note_on_c, 0, 66, 0
1, 116132, Control_c, 0, 64, 0
1, 116132, Note_on_c, 0, 67, 65
1, 116176, Control_c, 0, 64, 127
1, 116240, Note_on_c, 0, 71, 0
1, 116240, Note_on_c, 0, 72, 64
1, 116345, Control_c, 0, 64, 0
1, 116350, Note_on_c, 0, 72, 0
1, 116350, Note_on_c, 0, 71, 69
1, 116381, Control_c, 0, 64, 127
1, 116460, Note_on_c, 0, 71, 0
1, 116460, Note_on_c, 0, 72, 64
1, 116538, Control_c, 0, 64, 0
1, 116569, Note_on_c, 0, 72, 0
1, 116569, Note_on_c, 0, 71, 69
1, 116569, Note_on_c, 0, 67, 0
1, 116572, Note_on_c, 0, 65, 63
1, 116606, Control_c, 0, 64, 127
1, 116678, Note_on_c, 0, 71, 0
1, 116678, Note_on_c, 0, 74, 63
1, 116735, Control_c, 0, 64, 0
1, 116787, Note_on_c, 0, 74, 0
1, 116787, Note_on_c, 0, 72, 71
1, 116787, Note_on_c, 0, 65, 0
1, 116790, Note_on_c, 0, 64, 63
1, 116830, Control_c, 0, 64, 127
1, 116899, Note_on_c, 0, 64, 0
1, 116899, Note_on_c, 0, 67, 60
1, 117012, Note_on_c, 0, 72, 0
1, 117012, Note_on_c, 0, 74, 71
1, 117012, Note_on_c, 0, 67, 0
1, 117015, Note_on_c, 0, 62, 62
1, 117018, Control_c, 0, 64, 0
1, 117045, Control_c, 0, 64, 127
1, 117128, Note_on_c, 0, 62, 0
1, 117128, Note_on_c, 0, 65, 57
1, 117205, Control_c, 0, 64, 0
1, 117244, Note_on_c, 0, 74, 0
1, 117244, Note_on_c, 0, 76, 71
1, 117244, Note_on_c, 0, 65, 0
1, 117247, Note_on_c, 0, 60, 61
1, 117260, Control_c, 0, 64, 127
1, 117360, Note_on_c, 0, 60, 0
1, 117360, Note_on_c, 0, 64, 55
1, 117476, Note_on_c, 0, 76, 0
1, 117476, Note_on_c, 0, 74, 73
1, 117476, Note_on_c, 0, 64, 0
1, 117479, Control_c, 0, 64, 0
1, 117479, Note_on_c, 0, 59, 60
1, 117521, Control_c, 0, 64, 127
1, 117593, Note_on_c, 0, 59, 0
1, 117593, Note_on_c, 0, 62, 56
1, 117711, Note_on_c, 0, 74, 0
1, 117711, Note_on_c, 0, 79, 79
1, 117711, Note_on_c, 0, 62, 0
1, 117714, Note_on_c, 0, 55, 60
1, 117825, Note_on_c, 0, 55, 0
1, 117825, Note_on_c, 0, 59, 56
1, 117940, Note_on_c, 0, 79, 0
1, 117940, Note_on_c, 0, 79, 79
1, 117940, Note_on_c, 0, 59, 0
1, 117943, Control_c, 0, 64, 0
1, 117943, Note_on_c, 0, 54, 60
1, 117962, Control_c, 0, 64, 127
1, 118054, Note_on_c, 0, 54, 0
1, 118054, Note_on_c, 0, 57, 56
1, 118131, Control_c, 0, 64, 0
1, 118169, Note_on_c, 0, 79, 0
1, 118169, Note_on_c, 0, 81, 82
1, 118169, Note_on_c, 0, 57, 0
1, 118172, Note_on_c, 0, 52, 61
1, 118180, Control_c, 0, 64, 127
1, 118285, Note_on_c, 0, 81, 0
1, 118285, Note_on_c, 0, 79, 81
1, 118285, Note_on_c, 0, 52, 0
1, 118288, Note_on_c, 0, 55, 60
1, 118402, Note_on_c, 0, 79, 0
1, 118402, Note_on_c, 0, 78, 79
1, 118402, Note_on_c, 0, 55, 0
1, 118405, Note_on_c, 0, 57, 59
1, 118518, Note_on_c, 0, 78, 0
1, 118518, Note_on_c, 0, 76, 78
1, 118518, Note_on_c, 0, 57, 0
1, 118521, Note_on_c, 0, 61, 59
1, 118579, Control_c, 0, 64, 0
1, 118634, Note_on_c, 0, 76, 0
1, 118634, Note_on_c, 0, 74, 77
1, 118634, Note_on_c, 0, 61, 0
1, 118637, Note_on_c, 0, 64, 57
1, 118673, Control_c, 0, 64, 127
1, 118751, Note_on_c, 0, 74, 0
1, 118751, Note_on_c, 0, 73, 76
1, 118751, Note_on_c, 0, 64, 0
1, 118754, Note_on_c, 0, 67, 56
1, 118843, Control_c, 0, 64, 0
1, 118873, Note_on_c, 0, 73, 0
1, 118873, Note_on_c, 0, 76, 67
1, 118873, Note_on_c, 0, 62, 57
1, 118939, Control_c, 0, 64, 127
1, 119091, Control_c, 0, 64, 0
1, 119120, Note_on_c, 0, 76, 0
1, 119120, Note_on_c, 0, 74, 62
1, 119120, Note_on_c, 0, 67, 0
1, 119123, Note_on_c, 0, 62, 50
1, 119123, Note_on_c, 0, 66, 50
1, 119156, Control_c, 0, 64, 127
1, 119371, Note_on_c, 0, 74, 0
1, 119371, Note_on_c, 0, 74, 59
1, 119371, Note_on_c, 0, 66, 0
1, 119374, Note_on_c, 0, 62, 0
1, 119374, Note_on_c, 0, 62, 50
1, 119374, Note_on_c, 0, 66, 50
1, 119622, Note_on_c, 0, 74, 0
1, 119622, Note_on_c, 0, 74, 59
1, 119622, Note_on_c, 0, 66, 0
1, 119625, Note_on_c, 0, 62, 0
1, 119625, Note_on_c, 0, 62, 0
1, 119625, Note_on_c, 0, 62, 47
1, 119628, Note_on_c, 0, 66, 47
1, 119931, Control_c, 0, 64, 0
1, 119998, Note_on_c, 0, 74, 0
1, 119998, Note_on_c, 0, 71, 62
1, 120121, Note_on_c, 0, 71, 0
1, 120121, Note_on_c, 0, 72, 62
1, 120121, Note_on_c, 0, 66, 0
1, 120124, Note_on_c, 0, 62, 0
1, 120244, Note_on_c, 0, 72, 0
1, 120244, Note_on_c, 0, 69, 62
1, 120367, Note_on_c, 0, 69, 0
1, 120367, Note_on_c, 0, 67, 69
1, 120367, Note_on_c, 0, 55, 57
1, 120370, Note_on_c, 0, 59, 57
1, 120415, Control_c, 0, 64, 127
1, 120780, Note_on_c, 0, 67, 0
1, 120780, Note_on_c, 0, 71, 67
1, 120805, Control_c, 0, 64, 0
1, 120839, Note_on_c, 0, 71, 0
1, 120839, Note_on_c, 0, 69, 67
1, 120839, Note_on_c, 0, 59, 0
1, 120842, Note_on_c, 0, 55, 0
1, 120842, Note_on_c, 0, 55, 55
1, 120842, Note_on_c, 0, 60, 55
1, 121080, Note_on_c, 0, 69, 0
1, 121080, Note_on_c, 0, 62, 69
1, 121080, Note_on_c, 0, 60, 0
1, 121083, Note_on_c, 0, 55, 0
1, 121083, Note_on_c, 0, 55, 57
1, 121083, Note_on_c, 0, 60, 57
1, 121100, Control_c, 0, 64, 127
1, 121310, Note_on_c, 0, 62, 0
1, 121310, Note_on_c, 0, 63, 64
1, 121420, Note_on_c, 0, 63, 0
1, 121420, Note_on_c, 0, 64, 64
1, 121529, Note_on_c, 0, 64, 0
1, 121529, Note_on_c, 0, 65, 64
1, 121529, Note_on_c, 0, 60, 0
1, 121532, Note_on_c, 0, 55, 0
1, 121532, Note_on_c, 0, 55, 55
1, 121532, Note_on_c, 0, 60, 55
1, 121539, Control_c, 0, 64, 0
1, 121551, Control_c, 0, 64, 127
1, 121638, Note_on_c, 0, 65, 0
1, 121638, Note_on_c, 0, 66, 64
1, 121708, Control_c, 0, 64, 0
1, 121753, Note_on_c, 0, 66, 0
1, 121753, Note_on_c, 0, 67, 65
1, 121753, Note_on_c, 0, 60, 0
1, 121756, Note_on_c, 0, 55, 0
1, 121756, Note_on_c, 0, 55, 54
1, 121756, Note_on_c, 0, 59, 54
1, 121871, Note_on_c, 0, 58, 47
1, 121880, Note_on_c, 0, 59, 0
1, 121988, Note_on_c, 0, 67, 0
1, 121988, Note_on_c, 0, 67, 63
1, 121988, Note_on_c, 0, 58, 0
1, 121991, Note_on_c, 0, 59, 53
1, 122106, Note_on_c, 0, 58, 48
1, 122116, Note_on_c, 0, 59, 0
1, 122223, Note_on_c, 0, 67, 0
1, 122223, Note_on_c, 0, 67, 63
1, 122223, Note_on_c, 0, 58, 0
1, 122226, Note_on_c, 0, 59, 51
1, 122341, Note_on_c, 0, 58, 47
1, 122351, Note_on_c, 0, 59, 0
1, 122459, Note_on_c, 0, 67, 0
1, 122459, Note_on_c, 0, 67, 63
1, 122459, Note_on_c, 0, 58, 0
1, 122462, Note_on_c, 0, 59, 53
1, 122550, Control_c, 0, 64, 127
1, 122828, Control_c, 0, 64, 0
1, 122886, Note_on_c, 0, 67, 0
1, 122886, Note_on_c, 0, 62, 63
1, 122886, Note_on_c, 0, 69, 63
1, 122889, Note_on_c, 0, 59, 0
1, 122889, Note_on_c, 0, 55, 0
1, 122889, Note_on_c, 0, 54, 53
1, 123049, Note_on_c, 0, 69, 0
1, 123049, Note_on_c, 0, 72, 63
1, 123049, Note_on_c, 0, 54, 0
1, 123052, Note_on_c, 0, 57, 59
1, 123104, Note_on_c, 0, 72, 0
1, 123104, Note_on_c, 0, 62, 0
1, 123104, Note_on_c, 0, 62, 69
1, 123107, Note_on_c, 0, 71, 69
1, 123107, Note_on_c, 0, 57, 0
1, 123107, Note_on_c, 0, 55, 56
1, 123145, Control_c, 0, 64, 127
1, 123211, Note_on_c, 0, 71, 0
1, 123211, Note_on_c, 0, 70, 67
1, 123211, Note_on_c, 0, 55, 0
1, 123214, Note_on_c, 0, 54, 53
1, 123298, Control_c, 0, 64, 0
1, 123319, Note_on_c, 0, 70, 0
1, 123319, Note_on_c, 0, 71, 69
1, 123319, Note_on_c, 0, 54, 0
1, 123322, Note_on_c, 0, 55, 56
1, 123334, Control_c, 0, 64, 127
1, 123425, Note_on_c, 0, 71, 0
1, 123425, Note_on_c, 0, 70, 65
1, 123425, Note_on_c, 0, 55, 0
1, 123428, Note_on_c, 0, 54, 53
1, 123497, Control_c, 0, 64, 0
1, 123532, Note_on_c, 0, 70, 0
1, 123532, Note_on_c, 0, 71, 69
1, 123532, Note_on_c, 0, 54, 0
1, 123535, Control_c, 0, 64, 127
1, 123535, Note_on_c, 0, 55, 56
1, 123639, Note_on_c, 0, 71, 0
1, 123639, Note_on_c, 0, 74, 65
1, 123639, Note_on_c, 0, 55, 0
1, 123642, Note_on_c, 0, 59, 53
1, 123742, Control_c, 0, 64, 0
1, 123759, Note_on_c, 0, 74, 0
1, 123759, Note_on_c, 0, 62, 0
1, 123759, Note_on_c, 0, 66, 62
1, 123762, Note_on_c, 0, 62, 62
1, 123762, Note_on_c, 0, 74, 69
1, 123762, Note_on_c, 0, 59, 0
1, 123765, Note_on_c, 0, 57, 55
1, 123843, Control_c, 0, 64, 127
1, 123994, Note_on_c, 0, 74, 0
1, 123994, Note_on_c, 0, 72, 63
1, 124169, Control_c, 0, 64, 0
1, 124216, Note_on_c, 0, 72, 0
1, 124216, Note_on_c, 0, 66, 0
1, 124216, Note_on_c, 0, 67, 63
1, 124219, Note_on_c, 0, 71, 63
1, 124219, Note_on_c, 0, 57, 0
1, 124219, Note_on_c, 0, 55, 53
1, 124243, Control_c, 0, 64, 127
1, 124376, Control_c, 0, 64, 0
1, 124441, Note_on_c, 0, 71, 0
1, 124441, Note_on_c, 0, 67, 0
1, 124441, Note_on_c, 0, 62, 0
1, 124444, Note_on_c, 0, 67, 67
1, 124444, Note_on_c, 0, 71, 67
1, 124444, Note_on_c, 0, 55, 0
1, 124447, Note_on_c, 0, 50, 55
1, 124458, Control_c, 0, 64, 127
1, 124558, Note_on_c, 0, 50, 0
1, 124558, Note_on_c, 0, 61, 53
1, 124658, Control_c, 0, 64, 0
1, 124674, Note_on_c, 0, 71, 0
1, 124674, Note_on_c, 0, 67, 0
1, 124674, Note_on_c, 0, 66, 63
1, 124677, Note_on_c, 0, 69, 63
1, 124677, Note_on_c, 0, 61, 0
1, 124677, Note_on_c, 0, 62, 54
1, 124691, Control_c, 0, 64, 127
1, 124791, Note_on_c, 0, 62, 0
1, 124791, Note_on_c, 0, 61, 53
1, 124896, Control_c, 0, 64, 0
1, 124907, Note_on_c, 0, 69, 0
1, 124907, Note_on_c, 0, 66, 0
1, 124907, Note_on_c, 0, 66, 63
1, 124910, Note_on_c, 0, 69, 63
1, 124910, Note_on_c, 0, 61, 0
1, 124910, Note_on_c, 0, 62, 54
1, 124929, Control_c, 0, 64, 127
1, 125023, Note_on_c, 0, 62, 0
1, 125023, Note_on_c, 0, 61, 53
1, 125079, Control_c, 0, 64, 0
1, 125140, Note_on_c, 0, 69, 0
1, 125140, Note_on_c, 0, 66, 0
1, 125140, Note_on_c, 0, 66, 63
1, 125143, Note_on_c, 0, 69, 63
1, 125143, Note_on_c, 0, 61, 0
1, 125143, Note_on_c, 0, 62, 55
1, 125161, Control_c, 0, 64, 127
1, 125250, Note_on_c, 0, 62, 0
1, 125250, Note_on_c, 0, 64, 53
1, 125334, Control_c, 0, 64, 0
1, 125361, Note_on_c, 0, 64, 0
1, 125361, Note_on_c, 0, 60, 55
1, 125377, Control_c, 0, 64, 127
1, 125472, Note_on_c, 0, 60, 0
1, 125472, Note_on_c, 0, 62, 53
1, 125567, Control_c, 0, 64, 0
1, 125582, Note_on_c, 0, 69, 0
1, 125582, Note_on_c, 0, 66, 0
1, 125582, Note_on_c, 0, 68, 65
1, 125585, Note_on_c, 0, 71, 65
1, 125585, Note_on_c, 0, 62, 0
1, 125585, Note_on_c, 0, 59, 56
1, 125621, Control_c, 0, 64, 127
1, 125699, Note_on_c, 0, 59, 0
1, 125699, Note_on_c, 0, 60, 53
1, 125815, Note_on_c, 0, 71, 0
1, 125815, Note_on_c, 0, 68, 0
1, 125815, Note_on_c, 0, 69, 69
1, 125818, Note_on_c, 0, 72, 69
1, 125818, Note_on_c, 0, 60, 0
1, 125818, Control_c, 0, 64, 0
1, 125821, Note_on_c, 0, 57, 57
1, 125863, Control_c, 0, 64, 127
1, 125932, Note_on_c, 0, 57, 0
1, 125932, Note_on_c, 0, 64, 54
1, 126028, Control_c, 0, 64, 0
1, 126048, Note_on_c, 0, 72, 0
1, 126048, Note_on_c, 0, 69, 0
1, 126048, Note_on_c, 0, 71, 71
1, 126051, Note_on_c, 0, 74, 71
1, 126051, Note_on_c, 0, 64, 0
1, 126051, Note_on_c, 0, 60, 54
1, 126075, Control_c, 0, 64, 127
1, 126164, Note_on_c, 0, 60, 0
1, 126164, Note_on_c, 0, 59, 53
1, 126247, Control_c, 0, 64, 0
1, 126281, Note_on_c, 0, 74, 0
1, 126281, Note_on_c, 0, 71, 0
1, 126281, Note_on_c, 0, 72, 71
1, 126284, Note_on_c, 0, 76, 71
1, 126284, Note_on_c, 0, 59, 0
1, 126284, Note_on_c, 0, 57, 53
1, 126295, Control_c, 0, 64, 127
1, 126400, Note_on_c, 0, 57, 0
1, 126400, Note_on_c, 0, 55, 52
1, 126477, Control_c, 0, 64, 0
1, 126518, Note_on_c, 0, 76, 0
1, 126518, Note_on_c, 0, 72, 0
1, 126518, Note_on_c, 0, 72, 71
1, 126521, Note_on_c, 0, 76, 71
1, 126521, Note_on_c, 0, 55, 0
1, 126521, Note_on_c, 0, 54, 52
1, 126563, Control_c, 0, 64, 127
1, 126627, Note_on_c, 0, 54, 0
1, 126627, Note_on_c, 0, 57, 51
1, 126737, Note_on_c, 0, 57, 0
1, 126737, Note_on_c, 0, 60, 52
1, 126848, Note_on_c, 0, 60, 0
1, 126848, Note_on_c, 0, 62, 54
1, 126921, Control_c, 0, 64, 0
1, 126960, Note_on_c, 0, 76, 0
1, 126960, Note_on_c, 0, 72, 0
1, 126960, Note_on_c, 0, 71, 67
1, 126963, Note_on_c, 0, 74, 67
1, 126963, Note_on_c, 0, 62, 0
1, 126963, Note_on_c, 0, 64, 56
1, 126966, Control_c, 0, 64, 127
1, 127070, Note_on_c, 0, 74, 0
1, 127070, Note_on_c, 0, 71, 0
1, 127070, Note_on_c, 0, 69, 67
1, 127073, Note_on_c, 0, 72, 67
1, 127073, Note_on_c, 0, 64, 0
1, 127073, Note_on_c, 0, 66, 57
1, 127180, Note_on_c, 0, 72, 0
1, 127180, Note_on_c, 0, 69, 0
1, 127180, Note_on_c, 0, 71, 69
1, 127183, Note_on_c, 0, 66, 0
1, 127183, Control_c, 0, 64, 0
1, 127183, Note_on_c, 0, 67, 65
1, 127233, Control_c, 0, 64, 127
1, 127291, Note_on_c, 0, 71, 0
1, 127291, Note_on_c, 0, 72, 64
1, 127385, Control_c, 0, 64, 0
1, 127401, Note_on_c, 0, 72, 0
1, 127401, Note_on_c, 0, 71, 69
1, 127417, Control_c, 0, 64, 127
1, 127511, Note_on_c, 0, 71, 0
1, 127511, Note_on_c, 0, 72, 64
1, 127578, Control_c, 0, 64, 0
1, 127620, Note_on_c, 0, 72, 0
1, 127620, Note_on_c, 0, 71, 69
1, 127620, Note_on_c, 0, 67, 0
1, 127623, Note_on_c, 0, 65, 63
1, 127640, Control_c, 0, 64, 127
1, 127728, Note_on_c, 0, 71, 0
1, 127728, Note_on_c, 0, 74, 63
1, 127785, Control_c, 0, 64, 0
1, 127837, Note_on_c, 0, 74, 0
1, 127837, Note_on_c, 0, 72, 71
1, 127837, Note_on_c, 0, 65, 0
1, 127840, Note_on_c, 0, 64, 63
1, 127874, Control_c, 0, 64, 127
1, 127947, Note_on_c, 0, 64, 0
1, 127947, Note_on_c, 0, 67, 60
1, 128042, Control_c, 0, 64, 0
1, 128058, Note_on_c, 0, 72, 0
1, 128058, Note_on_c, 0, 74, 71
1, 128058, Note_on_c, 0, 67, 0
1, 128061, Note_on_c, 0, 62, 62
1, 128095, Control_c, 0, 64, 127
1, 128170, Note_on_c, 0, 62, 0
1, 128170, Note_on_c, 0, 65, 57
1, 128260, Control_c, 0, 64, 0
1, 128282, Note_on_c, 0, 74, 0
1, 128282, Note_on_c, 0, 76, 71
1, 128282, Note_on_c, 0, 65, 0
1, 128285, Note_on_c, 0, 60, 61
1, 128292, Control_c, 0, 64, 127
1, 128396, Note_on_c, 0, 60, 0
1, 128396, Note_on_c, 0, 64, 55
1, 128510, Note_on_c, 0, 76, 0
1, 128510, Note_on_c, 0, 74, 73
1, 128510, Note_on_c, 0, 64, 0
1, 128513, Control_c, 0, 64, 0
1, 128513, Note_on_c, 0, 59, 60
1, 128559, Control_c, 0, 64, 127
1, 128625, Note_on_c, 0, 59, 0
1, 128625, Note_on_c, 0, 62, 56
1, 128740, Note_on_c, 0, 74, 0
1, 128740, Note_on_c, 0, 79, 79
1, 128740, Note_on_c, 0, 62, 0
1, 128743, Note_on_c, 0, 55, 60
1, 128853, Note_on_c, 0, 55, 0
1, 128853, Note_on_c, 0, 59, 56
1, 128923, Control_c, 0, 64, 0
1, 128967, Note_on_c, 0, 79, 0
1, 128967, Note_on_c, 0, 79, 79
1, 128967, Note_on_c, 0, 59, 0
1, 128970, Note_on_c, 0, 54, 60
1, 128989, Control_c, 0, 64, 127
1, 129080, Note_on_c, 0, 54, 0
1, 129080, Note_on_c, 0, 57, 56
1, 129140, Control_c, 0, 64, 0
1, 129194, Note_on_c, 0, 79, 0
1, 129194, Note_on_c, 0, 81, 82
1, 129194, Note_on_c, 0, 57, 0
1, 129197, Note_on_c, 0, 52, 61
1, 129204, Control_c, 0, 64, 127
1, 129308, Note_on_c, 0, 81, 0
1, 129308, Note_on_c, 0, 79, 81
1, 129308, Note_on_c, 0, 52, 0
1, 129311, Note_on_c, 0, 55, 60
1, 129422, Note_on_c, 0, 79, 0
1, 129422, Note_on_c, 0, 78, 79
1, 129422, Note_on_c, 0, 55, 0
1, 129425, Note_on_c, 0, 57, 59
1, 129536, Note_on_c, 0, 78, 0
1, 129536, Note_on_c, 0, 76, 78
1, 129536, Note_on_c, 0, 57, 0
1, 129539, Note_on_c, 0, 61, 59
1, 129644, Control_c, 0, 64, 0
1, 129650, Note_on_c, 0, 76, 0
1, 129650, Note_on_c, 0, 74, 77
1, 129650, Note_on_c, 0, 61, 0
1, 129653, Note_on_c, 0, 64, 57
1, 129694, Control_c, 0, 64, 127
1, 129764, Note_on_c, 0, 74, 0
1, 129764, Note_on_c, 0, 73, 76
1, 129764, Note_on_c, 0, 64, 0
1, 129767, Note_on_c, 0, 67, 56
1, 129886, Note_on_c, 0, 73, 0
1, 129886, Note_on_c, 0, 76, 67
1, 129886, Control_c, 0, 64, 0
1, 129889, Note_on_c, 0, 62, 57
1, 129952, Control_c, 0, 64, 127
1, 130120, Control_c, 0, 64, 0
1, 130134, Note_on_c, 0, 76, 0
1, 130134, Note_on_c, 0, 74, 62
1, 130134, Note_on_c, 0, 67, 0
1, 130137, Note_on_c, 0, 62, 50
1, 130137, Note_on_c, 0, 66, 50
1, 130200, Control_c, 0, 64, 127
1, 130381, Note_on_c, 0, 74, 0
1, 130381, Note_on_c, 0, 74, 59
1, 130381, Note_on_c, 0, 66, 0
1, 130384, Note_on_c, 0, 62, 0
1, 130384, Note_on_c, 0, 62, 50
1, 130384, Note_on_c, 0, 66, 50
1, 130628, Note_on_c, 0, 74, 0
1, 130628, Note_on_c, 0, 74, 59
1, 130628, Note_on_c, 0, 66, 0
1, 130631, Note_on_c, 0, 62, 0
1, 130631, Note_on_c, 0, 62, 0
1, 130631, Note_on_c, 0, 62, 47
1, 130634, Note_on_c, 0, 66, 47
1, 130868, Control_c, 0, 64, 0
1, 130875, Note_on_c, 0, 74, 0
1, 131093, Control_c, 0, 64, 127
1, 131122, Note_on_c, 0, 79, 73
1, 131122, Note_on_c, 0, 66, 0
1, 131122, Note_on_c, 0, 62, 0
1, 131125, Note_on_c, 0, 71, 50
1, 131247, Note_on_c, 0, 71, 0
1, 131247, Note_on_c, 0, 74, 50
1, 131371, Note_on_c, 0, 79, 0
1, 131371, Note_on_c, 0, 79, 73
1, 131371, Note_on_c, 0, 74, 0
1, 131374, Note_on_c, 0, 71, 50
1, 131488, Note_on_c, 0, 71, 0
1, 131488, Note_on_c, 0, 74, 47
1, 131605, Note_on_c, 0, 74, 0
1, 131605, Note_on_c, 0, 71, 50
1, 131722, Note_on_c, 0, 71, 0
1, 131722, Note_on_c, 0, 74, 46
1, 131781, Note_on_c, 0, 79, 0
1, 131781, Note_on_c, 0, 83, 71
1, 131801, Control_c, 0, 64, 0
1, 131839, Note_on_c, 0, 83, 0
1, 131839, Note_on_c, 0, 81, 71
1, 131839, Note_on_c, 0, 74, 0
1, 131842, Note_on_c, 0, 72, 50
1, 131860, Control_c, 0, 64, 127
1, 131959, Note_on_c, 0, 72, 0
1, 131959, Note_on_c, 0, 76, 46
1, 132057, Control_c, 0, 64, 0
1, 132078, Note_on_c, 0, 81, 0
1, 132078, Note_on_c, 0, 79, 73
1, 132078, Note_on_c, 0, 76, 0
1, 132081, Note_on_c, 0, 71, 50
1, 132108, Control_c, 0, 64, 127
1, 132190, Note_on_c, 0, 71, 0
1, 132190, Note_on_c, 0, 74, 47
1, 132301, Note_on_c, 0, 79, 0
1, 132301, Note_on_c, 0, 78, 69
1, 132301, Note_on_c, 0, 74, 0
1, 132304, Note_on_c, 0, 69, 50
1, 132317, Control_c, 0, 64, 0
1, 132343, Control_c, 0, 64, 127
1, 132412, Note_on_c, 0, 69, 0
1, 132412, Note_on_c, 0, 72, 47
1, 132504, Control_c, 0, 64, 0
1, 132523, Note_on_c, 0, 78, 0
1, 132523, Note_on_c, 0, 76, 69
1, 132523, Note_on_c, 0, 72, 0
1, 132526, Note_on_c, 0, 67, 50
1, 132530, Control_c, 0, 64, 127
1, 132637, Note_on_c, 0, 67, 0
1, 132637, Note_on_c, 0, 71, 46
1, 132705, Control_c, 0, 64, 0
1, 132751, Note_on_c, 0, 76, 0
1, 132751, Note_on_c, 0, 74, 70
1, 132751, Note_on_c, 0, 71, 0
1, 132754, Note_on_c, 0, 66, 48
1, 132792, Control_c, 0, 64, 127
1, 132869, Note_on_c, 0, 66, 0
1, 132869, Note_on_c, 0, 69, 46
1, 132986, Note_on_c, 0, 74, 0
1, 132986, Note_on_c, 0, 74, 67
1, 132986, Note_on_c, 0, 69, 0
1, 132989, Note_on_c, 0, 66, 48
1, 133104, Note_on_c, 0, 66, 0
1, 133104, Note_on_c, 0, 69, 47
1, 133222, Note_on_c, 0, 74, 0
1, 133222, Note_on_c, 0, 74, 67
1, 133222, Note_on_c, 0, 69, 0
1, 133225, Note_on_c, 0, 66, 48
1, 133339, Note_on_c, 0, 66, 0
1, 133339, Note_on_c, 0, 69, 46
1, 133457, Note_on_c, 0, 74, 0
1, 133457, Note_on_c, 0, 74, 67
1, 133457, Note_on_c, 0, 69, 0
1, 133460, Note_on_c, 0, 66, 48
1, 133575, Note_on_c, 0, 66, 0
1, 133575, Note_on_c, 0, 69, 46
1, 133692, Note_on_c, 0, 69, 0
1, 133692, Note_on_c, 0, 66, 48
1, 133791, Control_c, 0, 64, 0
1, 133804, Note_on_c, 0, 66, 0
1, 133804, Note_on_c, 0, 69, 47
1, 133884, Control_c, 0, 64, 127
1, 133917, Note_on_c, 0, 74, 0
1, 133917, Note_on_c, 0, 75, 71
1, 133917, Note_on_c, 0, 69, 0
1, 133920, Note_on_c, 0, 66, 48
1, 134032, Note_on_c, 0, 66, 0
1, 134032, Note_on_c, 0, 69, 46
1, 134147, Note_on_c, 0, 75, 0
1, 134147, Note_on_c, 0, 76, 72
1, 134147, Note_on_c, 0, 69, 0
1, 134150, Control_c, 0, 64, 0
1, 134150, Note_on_c, 0, 67, 53
1, 134210, Control_c, 0, 64, 127
1, 134257, Note_on_c, 0, 76, 0
1, 134257, Note_on_c, 0, 75, 70
1, 134367, Note_on_c, 0, 75, 0
1, 134367, Note_on_c, 0, 78, 72
1, 134478, Note_on_c, 0, 78, 0
1, 134478, Note_on_c, 0, 76, 71
1, 134499, Control_c, 0, 64, 0
1, 134588, Note_on_c, 0, 76, 0
1, 134588, Note_on_c, 0, 79, 72
1, 134588, Note_on_c, 0, 67, 0
1, 134698, Note_on_c, 0, 79, 0
1, 134698, Note_on_c, 0, 78, 71
1, 134808, Note_on_c, 0, 78, 0
1, 134808, Note_on_c, 0, 81, 72
1, 134808, Note_on_c, 0, 67, 48
1, 134811, Note_on_c, 0, 64, 48
1, 134811, Note_on_c, 0, 61, 48
1, 134811, Note_on_c, 0, 57, 48
1, 134834, Control_c, 0, 64, 127
1, 134918, Note_on_c, 0, 81, 0
1, 134918, Note_on_c, 0, 79, 71
1, 135028, Note_on_c, 0, 79, 0
1, 135028, Note_on_c, 0, 78, 71
1, 135138, Note_on_c, 0, 78, 0
1, 135138, Note_on_c, 0, 76, 70
1, 135206, Control_c, 0, 64, 0
1, 135248, Note_on_c, 0, 76, 0
1, 135248, Note_on_c, 0, 74, 69
1, 135248, Note_on_c, 0, 57, 0
1, 135251, Note_on_c, 0, 67, 0
1, 135251, Note_on_c, 0, 64, 0
1, 135251, Note_on_c, 0, 61, 0
1, 135264, Control_c, 0, 64, 127
1, 135358, Note_on_c, 0, 74, 0
1, 135358, Note_on_c, 0, 73, 67
1, 135380, Control_c, 0, 64, 0
1, 135469, Note_on_c, 0, 73, 0
1, 135469, Note_on_c, 0, 74, 73
1, 135582, Note_on_c, 0, 50, 47
1, 135695, Note_on_c, 0, 74, 0
1, 135695, Note_on_c, 0, 50, 0
1, 135695, Note_on_c, 0, 54, 48
1, 135809, Note_on_c, 0, 54, 0
1, 135809, Note_on_c, 0, 50, 46
1, 135922, Note_on_c, 0, 74, 65
1, 135922, Note_on_c, 0, 50, 0
1, 135922, Note_on_c, 0, 52, 47
1, 136038, Note_on_c, 0, 52, 0
1, 136038, Note_on_c, 0, 55, 51
1, 136154, Note_on_c, 0, 74, 0
1, 136154, Note_on_c, 0, 74, 71
1, 136154, Note_on_c, 0, 55, 0
1, 136270, Note_on_c, 0, 54, 51
1, 136386, Note_on_c, 0, 74, 0
1, 136386, Note_on_c, 0, 54, 0
1, 136386, Note_on_c, 0, 57, 55
1, 136501, Note_on_c, 0, 57, 0
1, 136501, Note_on_c, 0, 54, 48
1, 136617, Note_on_c, 0, 74, 65
1, 136617, Note_on_c, 0, 54, 0
1, 136617, Note_on_c, 0, 55, 51
1, 136733, Note_on_c, 0, 55, 0
1, 136733, Note_on_c, 0, 59, 54
1, 136849, Note_on_c, 0, 74, 0
1, 136849, Note_on_c, 0, 74, 73
1, 136849, Note_on_c, 0, 59, 0
1, 136965, Note_on_c, 0, 57, 53
1, 137080, Note_on_c, 0, 74, 0
1, 137080, Note_on_c, 0, 57, 0
1, 137080, Note_on_c, 0, 60, 56
1, 137196, Note_on_c, 0, 60, 0
1, 137196, Note_on_c, 0, 57, 53
1, 137312, Note_on_c, 0, 74, 65
1, 137312, Note_on_c, 0, 57, 0
1, 137312, Note_on_c, 0, 59, 55
1, 137428, Note_on_c, 0, 59, 0
1, 137428, Note_on_c, 0, 55, 53
1, 137544, Note_on_c, 0, 74, 0
1, 137544, Note_on_c, 0, 74, 70
1, 137544, Note_on_c, 0, 55, 0
1, 137659, Note_on_c, 0, 54, 48
1, 137775, Note_on_c, 0, 74, 0
1, 137775, Note_on_c, 0, 54, 0
1, 137775, Note_on_c, 0, 57, 53
1, 137891, Note_on_c, 0, 57, 0
1, 137891, Note_on_c, 0, 54, 48
1, 138007, Note_on_c, 0, 74, 59
1, 138007, Note_on_c, 0, 54, 0
1, 138007, Note_on_c, 0, 55, 52
1, 138122, Note_on_c, 0, 55, 0
1, 138122, Note_on_c, 0, 52, 48
1, 138238, Note_on_c, 0, 74, 0
1, 138238, Note_on_c, 0, 52, 0
1, 138238, Note_on_c, 0, 50, 50
1, 138320, Control_c, 0, 64, 127
1, 138354, Note_on_c, 0, 74, 59
1, 138470, Note_on_c, 0, 74, 0
1, 138470, Note_on_c, 0, 78, 61
1, 138470, Note_on_c, 0, 50, 0
1, 138583, Note_on_c, 0, 78, 0
1, 138583, Note_on_c, 0, 74, 56
1, 138690, Control_c, 0, 64, 0
1, 138697, Note_on_c, 0, 74, 0
1, 138697, Note_on_c, 0, 76, 59
1, 138697, Note_on_c, 0, 50, 47
1, 138736, Control_c, 0, 64, 127
1, 138810, Note_on_c, 0, 76, 0
1, 138810, Note_on_c, 0, 79, 61
1, 138924, Note_on_c, 0, 79, 0
1, 138924, Note_on_c, 0, 50, 0
1, 138924, Control_c, 0, 64, 0
1, 138927, Note_on_c, 0, 50, 50
1, 139037, Note_on_c, 0, 78, 59
1, 139077, Control_c, 0, 64, 127
1, 139151, Note_on_c, 0, 78, 0
1, 139151, Note_on_c, 0, 81, 61
1, 139151, Note_on_c, 0, 50, 0
1, 139264, Note_on_c, 0, 81, 0
1, 139264, Note_on_c, 0, 78, 57
1, 139358, Control_c, 0, 64, 0
1, 139377, Note_on_c, 0, 78, 0
1, 139377, Note_on_c, 0, 79, 60
1, 139377, Note_on_c, 0, 38, 70
1, 139404, Control_c, 0, 64, 127
1, 139491, Note_on_c, 0, 79, 0
1, 139491, Note_on_c, 0, 83, 62
1, 139537, Control_c, 0, 64, 0
1, 139604, Note_on_c, 0, 83, 0
1, 139604, Note_on_c, 0, 38, 0
1, 139604, Note_on_c, 0, 38, 79
1, 139644, Control_c, 0, 64, 127
1, 139718, Note_on_c, 0, 81, 79
1, 139831, Note_on_c, 0, 81, 0
1, 139831, Note_on_c, 0, 84, 81
1, 139941, Note_on_c, 0, 84, 0
1, 139941, Note_on_c, 0, 78, 74
1, 140050, Note_on_c, 0, 78, 0
1, 140050, Note_on_c, 0, 81, 79
1, 140160, Note_on_c, 0, 81, 0
1, 140160, Note_on_c, 0, 72, 73
1, 140270, Note_on_c, 0, 72, 0
1, 140270, Note_on_c, 0, 78, 78
1, 140379, Note_on_c, 0, 78, 0
1, 140379, Note_on_c, 0, 69, 71
1, 140489, Note_on_c, 0, 69, 0
1, 140489, Note_on_c, 0, 72, 74
1, 140600, Note_on_c, 0, 72, 0
1, 140600, Note_on_c, 0, 66, 69
1, 140711, Note_on_c, 0, 66, 0
1, 140711, Note_on_c, 0, 69, 72
1, 140825, Note_on_c, 0, 69, 0
1, 140825, Note_on_c, 0, 60, 68
1, 140950, Note_on_c, 0, 60, 0
1, 140950, Note_on_c, 0, 76, 70
1, 140950, Note_on_c, 0, 38, 0
1, 140953, Control_c, 0, 64, 0
1, 140987, Control_c, 0, 64, 127
1, 141064, Note_on_c, 0, 48, 56
1, 141179, Note_on_c, 0, 48, 0
1, 141179, Note_on_c, 0, 57, 60
1, 141295, Note_on_c, 0, 57, 0
1, 141295, Note_on_c, 0, 54, 52
1, 141413, Note_on_c, 0, 54, 0
1, 141413, Note_on_c, 0, 60, 54
1, 141540, Note_on_c, 0, 60, 0
1, 141540, Note_on_c, 0, 57, 48
1, 141687, Note_on_c, 0, 57, 0
1, 141687, Note_on_c, 0, 66, 52
1, 142322, Control_c, 0, 64, 0
1, 142378, Note_on_c, 0, 76, 0
1, 142378, Note_on_c, 0, 74, 62
1, 142440, Note_on_c, 0, 74, 0
1, 142440, Note_on_c, 0, 72, 62
1, 142502, Note_on_c, 0, 72, 0
1, 142502, Note_on_c, 0, 71, 62
1, 142563, Note_on_c, 0, 71, 0
1, 142563, Note_on_c, 0, 69, 62
1, 142625, Note_on_c, 0, 69, 0
1, 142625, Note_on_c, 0, 67, 69
1, 142625, Note_on_c, 0, 66, 0
1, 142628, Note_on_c, 0, 55, 57
1, 142628, Note_on_c, 0, 59, 57
1, 142666, Control_c, 0, 64, 127
1, 143039, Note_on_c, 0, 67, 0
1, 143039, Note_on_c, 0, 71, 67
1, 143080, Control_c, 0, 64, 0
1, 143098, Note_on_c, 0, 71, 0
1, 143098, Note_on_c, 0, 69, 67
1, 143098, Note_on_c, 0, 59, 0
1, 143101, Note_on_c, 0, 55, 0
1, 143101, Note_on_c, 0, 55, 55
1, 143101, Note_on_c, 0, 60, 55
1, 143338, Note_on_c, 0, 69, 0
1, 143338, Note_on_c, 0, 62, 69
1, 143338, Note_on_c, 0, 60, 0
1, 143341, Note_on_c, 0, 55, 0
1, 143341, Note_on_c, 0, 55, 57
1, 143341, Note_on_c, 0, 60, 57
1, 143372, Control_c, 0, 64, 127
1, 143569, Note_on_c, 0, 62, 0
1, 143569, Note_on_c, 0, 63, 64
1, 143678, Note_on_c, 0, 63, 0
1, 143678, Note_on_c, 0, 64, 64
1, 143787, Note_on_c, 0, 64, 0
1, 143787, Note_on_c, 0, 65, 64
1, 143787, Note_on_c, 0, 60, 0
1, 143790, Note_on_c, 0, 55, 0
1, 143790, Note_on_c, 0, 55, 55
1, 143790, Note_on_c, 0, 60, 55
1, 143790, Control_c, 0, 64, 0
1, 143810, Control_c, 0, 64, 127
1, 143897, Note_on_c, 0, 65, 0
1, 143897, Note_on_c, 0, 66, 64
1, 143949, Control_c, 0, 64, 0
1, 144011, Note_on_c, 0, 66, 0
1, 144011, Note_on_c, 0, 67, 65
1, 144011, Note_on_c, 0, 60, 0
1, 144014, Note_on_c, 0, 55, 0
1, 144014, Note_on_c, 0, 55, 54
1, 144014, Note_on_c, 0, 59, 54
1, 144129, Note_on_c, 0, 58, 48
1, 144139, Note_on_c, 0, 59, 0
1, 144247, Note_on_c, 0, 67, 0
1, 144247, Note_on_c, 0, 67, 63
1, 144247, Note_on_c, 0, 58, 0
1, 144250, Note_on_c, 0, 59, 53
1, 144364, Note_on_c, 0, 58, 48
1, 144374, Note_on_c, 0, 59, 0
1, 144482, Note_on_c, 0, 67, 0
1, 144482, Note_on_c, 0, 67, 63
1, 144482, Note_on_c, 0, 58, 0
1, 144485, Note_on_c, 0, 59, 53
1, 144599, Note_on_c, 0, 58, 48
1, 144609, Note_on_c, 0, 59, 0
1, 144717, Note_on_c, 0, 67, 0
1, 144717, Note_on_c, 0, 67, 63
1, 144717, Note_on_c, 0, 58, 0
1, 144720, Note_on_c, 0, 59, 53
1, 144796, Control_c, 0, 64, 127
1, 145094, Control_c, 0, 64, 0
1, 145145, Note_on_c, 0, 67, 0
1, 145145, Note_on_c, 0, 62, 63
1, 145145, Note_on_c, 0, 69, 63
1, 145148, Note_on_c, 0, 59, 0
1, 145148, Note_on_c, 0, 55, 0
1, 145148, Note_on_c, 0, 54, 53
1, 145308, Note_on_c, 0, 69, 0
1, 145308, Note_on_c, 0, 72, 63
1, 145308, Note_on_c, 0, 54, 0
1, 145311, Note_on_c, 0, 57, 59
1, 145362, Note_on_c, 0, 72, 0
1, 145362, Note_on_c, 0, 62, 0
1, 145362, Note_on_c, 0, 62, 69
1, 145365, Note_on_c, 0, 71, 69
1, 145365, Note_on_c, 0, 57, 0
1, 145365, Note_on_c, 0, 55, 56
1, 145383, Control_c, 0, 64, 127
1, 145469, Note_on_c, 0, 71, 0
1, 145469, Note_on_c, 0, 70, 67
1, 145469, Note_on_c, 0, 55, 0
1, 145472, Note_on_c, 0, 54, 53
1, 145577, Note_on_c, 0, 70, 0
1, 145577, Note_on_c, 0, 71, 69
1, 145577, Note_on_c, 0, 54, 0
1, 145580, Control_c, 0, 64, 0
1, 145580, Note_on_c, 0, 55, 56
1, 145648, Control_c, 0, 64, 127
1, 145684, Note_on_c, 0, 71, 0
1, 145684, Note_on_c, 0, 70, 65
1, 145684, Note_on_c, 0, 55, 0
1, 145687, Note_on_c, 0, 54, 53
1, 145765, Control_c, 0, 64, 0
1, 145791, Note_on_c, 0, 70, 0
1, 145791, Note_on_c, 0, 71, 69
1, 145791, Note_on_c, 0, 54, 0
1, 145794, Note_on_c, 0, 55, 56
1, 145841, Control_c, 0, 64, 127
1, 145897, Note_on_c, 0, 71, 0
1, 145897, Note_on_c, 0, 74, 65
1, 145897, Note_on_c, 0, 55, 0
1, 145900, Note_on_c, 0, 59, 53
1, 146017, Note_on_c, 0, 74, 0
1, 146017, Note_on_c, 0, 62, 0
1, 146017, Note_on_c, 0, 66, 62
1, 146020, Note_on_c, 0, 62, 62
1, 146020, Note_on_c, 0, 74, 69
1, 146020, Note_on_c, 0, 59, 0
1, 146023, Control_c, 0, 64, 0
1, 146023, Note_on_c, 0, 57, 55
1, 146096, Control_c, 0, 64, 127
1, 146253, Note_on_c, 0, 74, 0
1, 146253, Note_on_c, 0, 72, 63
1, 146432, Control_c, 0, 64, 0
1, 146474, Note_on_c, 0, 72, 0
1, 146474, Note_on_c, 0, 66, 0
1, 146474, Note_on_c, 0, 67, 63
1, 146477, Note_on_c, 0, 71, 63
1, 146477, Note_on_c, 0, 57, 0
1, 146477, Note_on_c, 0, 55, 53
1, 146501, Control_c, 0, 64, 127
1, 146664, Control_c, 0, 64, 0
1, 146695, Note_on_c, 0, 71, 0
1, 146695, Note_on_c, 0, 67, 0
1, 146695, Note_on_c, 0, 62, 0
1, 146698, Note_on_c, 0, 67, 67
1, 146698, Note_on_c, 0, 71, 67
1, 146698, Note_on_c, 0, 55, 0
1, 146701, Note_on_c, 0, 50, 55
1, 146717, Control_c, 0, 64, 127
1, 146810, Note_on_c, 0, 50, 0
1, 146810, Note_on_c, 0, 61, 53
1, 146924, Note_on_c, 0, 71, 0
1, 146924, Note_on_c, 0, 67, 0
1, 146924, Note_on_c, 0, 66, 63
1, 146927, Note_on_c, 0, 69, 63
1, 146927, Note_on_c, 0, 61, 0
1, 146927, Note_on_c, 0, 62, 54
1, 146941, Control_c, 0, 64, 0
1, 146952, Control_c, 0, 64, 127
1, 147039, Note_on_c, 0, 62, 0
1, 147039, Note_on_c, 0, 61, 53
1, 147116, Control_c, 0, 64, 0
1, 147154, Note_on_c, 0, 69, 0
1, 147154, Note_on_c, 0, 66, 0
1, 147154, Note_on_c, 0, 66, 63
1, 147157, Note_on_c, 0, 69, 63
1, 147157, Note_on_c, 0, 61, 0
1, 147157, Note_on_c, 0, 62, 54
1, 147170, Control_c, 0, 64, 127
1, 147268, Note_on_c, 0, 62, 0
1, 147268, Note_on_c, 0, 61, 53
1, 147377, Control_c, 0, 64, 0
1, 147383, Note_on_c, 0, 69, 0
1, 147383, Note_on_c, 0, 66, 0
1, 147383, Note_on_c, 0, 66, 63
1, 147386, Note_on_c, 0, 69, 63
1, 147386, Note_on_c, 0, 61, 0
1, 147386, Note_on_c, 0, 62, 55
1, 147426, Control_c, 0, 64, 127
1, 147494, Note_on_c, 0, 62, 0
1, 147494, Note_on_c, 0, 64, 53
1, 147600, Control_c, 0, 64, 0
1, 147605, Note_on_c, 0, 64, 0
1, 147605, Note_on_c, 0, 60, 55
1, 147642, Control_c, 0, 64, 127
1, 147717, Note_on_c, 0, 60, 0
1, 147717, Note_on_c, 0, 62, 53
1, 147791, Control_c, 0, 64, 0
1, 147828, Note_on_c, 0, 69, 0
1, 147828, Note_on_c, 0, 66, 0
1, 147828, Note_on_c, 0, 68, 65
1, 147831, Note_on_c, 0, 71, 65
1, 147831, Note_on_c, 0, 62, 0
1, 147831, Note_on_c, 0, 59, 56
1, 147883, Control_c, 0, 64, 127
1, 147944, Note_on_c, 0, 59, 0
1, 147944, Note_on_c, 0, 60, 53
1, 148059, Note_on_c, 0, 71, 0
1, 148059, Note_on_c, 0, 68, 0
1, 148059, Note_on_c, 0, 69, 69
1, 148062, Note_on_c, 0, 72, 69
1, 148062, Note_on_c, 0, 60, 0
1, 148062, Control_c, 0, 64, 0
1, 148065, Note_on_c, 0, 57, 57
1, 148100, Control_c, 0, 64, 127
1, 148175, Note_on_c, 0, 57, 0
1, 148175, Note_on_c, 0, 64, 54
1, 148291, Note_on_c, 0, 72, 0
1, 148291, Note_on_c, 0, 69, 0
1, 148291, Note_on_c, 0, 71, 71
1, 148294, Note_on_c, 0, 74, 71
1, 148294, Note_on_c, 0, 64, 0
1, 148294, Control_c, 0, 64, 0
1, 148297, Note_on_c, 0, 60, 54
1, 148331, Control_c, 0, 64, 127
1, 148407, Note_on_c, 0, 60, 0
1, 148407, Note_on_c, 0, 59, 53
1, 148523, Note_on_c, 0, 74, 0
1, 148523, Note_on_c, 0, 71, 0
1, 148523, Note_on_c, 0, 72, 71
1, 148526, Note_on_c, 0, 76, 71
1, 148526, Note_on_c, 0, 59, 0
1, 148526, Note_on_c, 0, 57, 53
1, 148543, Control_c, 0, 64, 0
1, 148564, Control_c, 0, 64, 127
1, 148640, Note_on_c, 0, 57, 0
1, 148640, Note_on_c, 0, 55, 52
1, 148744, Control_c, 0, 64, 0
1, 148758, Note_on_c, 0, 76, 0
1, 148758, Note_on_c, 0, 72, 0
1, 148758, Note_on_c, 0, 72, 71
1, 148761, Note_on_c, 0, 76, 71
1, 148761, Note_on_c, 0, 55, 0
1, 148761, Note_on_c, 0, 54, 52
1, 148790, Control_c, 0, 64, 127
1, 148870, Note_on_c, 0, 54, 0
1, 148870, Note_on_c, 0, 55, 51
1, 148981, Note_on_c, 0, 55, 0
1, 148981, Note_on_c, 0, 57, 52
1, 149097, Note_on_c, 0, 57, 0
1, 149097, Note_on_c, 0, 50, 54
1, 149213, Note_on_c, 0, 76, 0
1, 149213, Note_on_c, 0, 72, 0
1, 149213, Note_on_c, 0, 71, 67
1, 149216, Note_on_c, 0, 74, 67
1, 149216, Note_on_c, 0, 50, 0
1, 149216, Note_on_c, 0, 52, 56
1, 149219, Control_c, 0, 64, 0
1, 149265, Control_c, 0, 64, 127
1, 149325, Note_on_c, 0, 74, 0
1, 149325, Note_on_c, 0, 71, 0
1, 149325, Note_on_c, 0, 69, 67
1, 149328, Note_on_c, 0, 72, 67
1, 149328, Note_on_c, 0, 52, 0
1, 149328, Note_on_c, 0, 54, 57
1, 149438, Note_on_c, 0, 72, 0
1, 149438, Note_on_c, 0, 69, 0
1, 149438, Note_on_c, 0, 67, 69
1, 149441, Note_on_c, 0, 71, 69
1, 149441, Note_on_c, 0, 54, 0
1, 149441, Control_c, 0, 64, 0
1, 149444, Note_on_c, 0, 55, 56
1, 149472, Control_c, 0, 64, 127
1, 149554, Note_on_c, 0, 55, 0
1, 149554, Note_on_c, 0, 54, 55
1, 149643, Control_c, 0, 64, 0
1, 149670, Note_on_c, 0, 71, 0
1, 149670, Note_on_c, 0, 67, 0
1, 149670, Note_on_c, 0, 69, 65
1, 149673, Note_on_c, 0, 72, 65
1, 149673, Note_on_c, 0, 54, 0
1, 149673, Note_on_c, 0, 52, 54
1, 149710, Control_c, 0, 64, 127
1, 149786, Note_on_c, 0, 52, 0
1, 149786, Note_on_c, 0, 50, 52
1, 149875, Control_c, 0, 64, 0
1, 149902, Note_on_c, 0, 72, 0
1, 149902, Note_on_c, 0, 69, 0
1, 149902, Note_on_c, 0, 71, 65
1, 149905, Note_on_c, 0, 74, 65
1, 149905, Note_on_c, 0, 50, 0
1, 149905, Note_on_c, 0, 48, 51
1, 149922, Control_c, 0, 64, 127
1, 150021, Note_on_c, 0, 48, 0
1, 150021, Note_on_c, 0, 47, 50
1, 150141, Note_on_c, 0, 74, 0
1, 150141, Note_on_c, 0, 71, 0
1, 150141, Note_on_c, 0, 59, 67
1, 150144, Note_on_c, 0, 67, 67
1, 150144, Note_on_c, 0, 47, 0
1, 150144, Note_on_c, 0, 52, 55
1, 150147, Control_c, 0, 64, 0
1, 150194, Control_c, 0, 64, 127
1, 150255, Note_on_c, 0, 52, 0
1, 150255, Note_on_c, 0, 50, 54
1, 150356, Control_c, 0, 64, 0
1, 150370, Note_on_c, 0, 67, 0
1, 150370, Note_on_c, 0, 59, 0
1, 150370, Note_on_c, 0, 60, 63
1, 150373, Note_on_c, 0, 69, 63
1, 150373, Note_on_c, 0, 50, 0
1, 150373, Note_on_c, 0, 48, 52
1, 150410, Control_c, 0, 64, 127
1, 150484, Note_on_c, 0, 48, 0
1, 150484, Note_on_c, 0, 47, 51
1, 150599, Note_on_c, 0, 69, 0
1, 150599, Note_on_c, 0, 60, 0
1, 150599, Note_on_c, 0, 62, 63
1, 150602, Note_on_c, 0, 71, 63
1, 150602, Note_on_c, 0, 47, 0
1, 150602, Note_on_c, 0, 45, 48
1, 150619, Control_c, 0, 64, 0
1, 150652, Control_c, 0, 64, 127
1, 150714, Note_on_c, 0, 45, 0
1, 150714, Note_on_c, 0, 43, 47
1, 150828, Note_on_c, 0, 71, 0
1, 150828, Note_on_c, 0, 62, 0
1, 150828, Note_on_c, 0, 69, 65
1, 150831, Note_on_c, 0, 43, 0
1, 150831, Control_c, 0, 64, 0
1, 150831, Note_on_c, 0, 48, 56
1, 150862, Control_c, 0, 64, 127
1, 150943, Note_on_c, 0, 64, 65
1, 151037, Control_c, 0, 64, 0
1, 151057, Note_on_c, 0, 69, 0
1, 151057, Note_on_c, 0, 71, 63
1, 151057, Note_on_c, 0, 48, 0
1, 151060, Note_on_c, 0, 47, 52
1, 151129, Control_c, 0, 64, 127
1, 151168, Note_on_c, 0, 64, 0
1, 151168, Note_on_c, 0, 62, 63
1, 151266, Control_c, 0, 64, 0
1, 151279, Note_on_c, 0, 71, 0
1, 151279, Note_on_c, 0, 72, 63
1, 151279, Note_on_c, 0, 47, 0
1, 151282, Note_on_c, 0, 45, 52
1, 151314, Control_c, 0, 64, 127
1, 151399, Note_on_c, 0, 62, 0
1, 151399, Note_on_c, 0, 60, 63
1, 151449, Control_c, 0, 64, 0
1, 151520, Note_on_c, 0, 72, 0
1, 151520, Note_on_c, 0, 72, 64
1, 151520, Note_on_c, 0, 45, 0
1, 151523, Note_on_c, 0, 50, 56
1, 151561, Control_c, 0, 64, 127
1, 151637, Note_on_c, 0, 60, 0
1, 151637, Note_on_c, 0, 60, 63
1, 151753, Note_on_c, 0, 72, 0
1, 151753, Note_on_c, 0, 69, 63
1, 151869, Note_on_c, 0, 60, 0
1, 151869, Note_on_c, 0, 60, 63
1, 151986, Note_on_c, 0, 69, 0
1, 151986, Note_on_c, 0, 66, 61
1, 152107, Note_on_c, 0, 60, 0
1, 152107, Note_on_c, 0, 60, 63
1, 152150, Control_c, 0, 64, 0
1, 152229, Note_on_c, 0, 66, 0
1, 152229, Note_on_c, 0, 69, 59
1, 152229, Note_on_c, 0, 50, 0
1, 152232, Note_on_c, 0, 43, 47
1, 152273, Control_c, 0, 64, 127
1, 152355, Note_on_c, 0, 43, 0
1, 152355, Note_on_c, 0, 54, 44
1, 152483, Note_on_c, 0, 54, 0
1, 152483, Note_on_c, 0, 55, 47
1, 152529, Control_c, 0, 64, 0
1, 152607, Control_c, 0, 64, 127
1, 152614, Note_on_c, 0, 55, 0
1, 152614, Note_on_c, 0, 54, 44
1, 152748, Note_on_c, 0, 54, 0
1, 152748, Note_on_c, 0, 55, 45
1, 152755, Control_c, 0, 64, 0
1, 152851, Control_c, 0, 64, 127
1, 152883, Note_on_c, 0, 55, 0
1, 152883, Note_on_c, 0, 54, 42
1, 153033, Note_on_c, 0, 69, 0
1, 153033, Note_on_c, 0, 60, 0
1, 153033, Note_on_c, 0, 59, 46
1, 153036, Note_on_c, 0, 67, 46
1, 153036, Note_on_c, 0, 54, 0
1, 153036, Control_c, 0, 64, 0
1, 153039, Note_on_c, 0, 55, 39
1, 153103, Control_c, 0, 64, 127
1, 153306, Control_c, 0, 64, 0
1, 153332, Note_on_c, 0, 67, 0
1, 153332, Note_on_c, 0, 59, 0
1, 153332, Note_on_c, 0, 55, 0
1, 153632, Note_on_c, 0, 79, 73
1, 153632, Note_on_c, 0, 71, 50
1, 153639, Control_c, 0, 64, 127
1, 153757, Note_on_c, 0, 71, 0
1, 153757, Note_on_c, 0, 74, 50
1, 153881, Note_on_c, 0, 79, 0
1, 153881, Note_on_c, 0, 79, 73
1, 153881, Note_on_c, 0, 74, 0
1, 153884, Control_c, 0, 64, 0
1, 153884, Note_on_c, 0, 71, 50
1, 153899, Control_c, 0, 64, 127
1, 153998, Note_on_c, 0, 71, 0
1, 153998, Note_on_c, 0, 74, 47
1, 154115, Note_on_c, 0, 74, 0
1, 154115, Note_on_c, 0, 71, 50
1, 154232, Note_on_c, 0, 71, 0
1, 154232, Note_on_c, 0, 74, 46
1, 154291, Note_on_c, 0, 79, 0
1, 154291, Note_on_c, 0, 83, 71
1, 154339, Control_c, 0, 64, 0
1, 154349, Note_on_c, 0, 83, 0
1, 154349, Note_on_c, 0, 81, 71
1, 154349, Note_on_c, 0, 74, 0
1, 154352, Note_on_c, 0, 72, 50
1, 154363, Control_c, 0, 64, 127
1, 154469, Note_on_c, 0, 72, 0
1, 154469, Note_on_c, 0, 76, 46
1, 154588, Note_on_c, 0, 81, 0
1, 154588, Note_on_c, 0, 79, 73
1, 154588, Note_on_c, 0, 76, 0
1, 154591, Note_on_c, 0, 71, 50
1, 154591, Control_c, 0, 64, 0
1, 154612, Control_c, 0, 64, 127
1, 154701, Note_on_c, 0, 71, 0
1, 154701, Note_on_c, 0, 74, 47
1, 154793, Control_c, 0, 64, 0
1, 154813, Note_on_c, 0, 79, 0
1, 154813, Note_on_c, 0, 78, 69
1, 154813, Note_on_c, 0, 74, 0
1, 154816, Note_on_c, 0, 69, 50
1, 154820, Control_c, 0, 64, 127
1, 154925, Note_on_c, 0, 69, 0
1, 154925, Note_on_c, 0, 72, 47
1, 155024, Control_c, 0, 64, 0
1, 155038, Note_on_c, 0, 78, 0
1, 155038, Note_on_c, 0, 76, 69
1, 155038, Note_on_c, 0, 72, 0
1, 155041, Note_on_c, 0, 67, 50
1, 155062, Control_c, 0, 64, 127
1, 155153, Note_on_c, 0, 67, 0
1, 155153, Note_on_c, 0, 71, 46
1, 155269, Note_on_c, 0, 76, 0
1, 155269, Note_on_c, 0, 74, 70
1, 155269, Note_on_c, 0, 71, 0
1, 155272, Control_c, 0, 64, 0
1, 155272, Note_on_c, 0, 66, 48
1, 155317, Control_c, 0, 64, 127
1, 155386, Note_on_c, 0, 66, 0
1, 155386, Note_on_c, 0, 69, 46
1, 155503, Note_on_c, 0, 74, 0
1, 155503, Note_on_c, 0, 74, 67
1, 155503, Note_on_c, 0, 69, 0
1, 155506, Note_on_c, 0, 66, 48
1, 155620, Note_on_c, 0, 66, 0
1, 155620, Note_on_c, 0, 69, 47
1, 155737, Note_on_c, 0, 74, 0
1, 155737, Note_on_c, 0, 74, 67
1, 155737, Note_on_c, 0, 69, 0
1, 155740, Note_on_c, 0, 66, 48
1, 155854, Note_on_c, 0, 66, 0
1, 155854, Note_on_c, 0, 69, 46
1, 155971, Note_on_c, 0, 74, 0
1, 155971, Note_on_c, 0, 74, 67
1, 155971, Note_on_c, 0, 69, 0
1, 155974, Note_on_c, 0, 66, 48
1, 156088, Note_on_c, 0, 66, 0
1, 156088, Note_on_c, 0, 69, 46
1, 156205, Note_on_c, 0, 69, 0
1, 156205, Note_on_c, 0, 66, 48
1, 156318, Note_on_c, 0, 66, 0
1, 156318, Control_c, 0, 64, 0
1, 156318, Note_on_c, 0, 69, 47
1, 156430, Note_on_c, 0, 74, 0
1, 156430, Note_on_c, 0, 75, 71
1, 156430, Note_on_c, 0, 69, 0
1, 156433, Note_on_c, 0, 66, 48
1, 156456, Control_c, 0, 64, 127
1, 156544, Note_on_c, 0, 66, 0
1, 156544, Note_on_c, 0, 69, 46
1, 156658, Note_on_c, 0, 75, 0
1, 156658, Note_on_c, 0, 76, 72
1, 156658, Note_on_c, 0, 69, 0
1, 156661, Control_c, 0, 64, 0
1, 156661, Note_on_c, 0, 67, 53
1, 156700, Control_c, 0, 64, 127
1, 156768, Note_on_c, 0, 76, 0
1, 156768, Note_on_c, 0, 75, 70
1, 156878, Note_on_c, 0, 75, 0
1, 156878, Note_on_c, 0, 78, 72
1, 156988, Note_on_c, 0, 78, 0
1, 156988, Note_on_c, 0, 76, 71
1, 157056, Control_c, 0, 64, 0
1, 157098, Note_on_c, 0, 76, 0
1, 157098, Note_on_c, 0, 79, 72
1, 157098, Note_on_c, 0, 67, 0
1, 157108, Control_c, 0, 64, 127
1, 157208, Note_on_c, 0, 79, 0
1, 157208, Note_on_c, 0, 78, 71
1, 157319, Note_on_c, 0, 78, 0
1, 157319, Note_on_c, 0, 81, 72
1, 157319, Control_c, 0, 64, 0
1, 157322, Note_on_c, 0, 67, 48
1, 157322, Note_on_c, 0, 64, 48
1, 157322, Note_on_c, 0, 61, 48
1, 157325, Note_on_c, 0, 57, 48
1, 157361, Control_c, 0, 64, 127
1, 157429, Note_on_c, 0, 81, 0
1, 157429, Note_on_c, 0, 79, 71
1, 157539, Note_on_c, 0, 79, 0
1, 157539, Note_on_c, 0, 78, 71
1, 157649, Note_on_c, 0, 78, 0
1, 157649, Note_on_c, 0, 76, 70
1, 157754, Control_c, 0, 64, 0
1, 157759, Note_on_c, 0, 76, 0
1, 157759, Note_on_c, 0, 74, 69
1, 157759, Note_on_c, 0, 57, 0
1, 157762, Note_on_c, 0, 67, 0
1, 157762, Note_on_c, 0, 64, 0
1, 157762, Note_on_c, 0, 61, 0
1, 157796, Control_c, 0, 64, 127
1, 157869, Note_on_c, 0, 74, 0
1, 157869, Note_on_c, 0, 73, 67
1, 157933, Control_c, 0, 64, 0
1, 157979, Note_on_c, 0, 73, 0
1, 157979, Note_on_c, 0, 74, 72
1, 158093, Note_on_c, 0, 50, 47
1, 158206, Note_on_c, 0, 74, 0
1, 158206, Note_on_c, 0, 50, 0
1, 158206, Note_on_c, 0, 54, 48
1, 158320, Note_on_c, 0, 54, 0
1, 158320, Note_on_c, 0, 50, 46
1, 158433, Note_on_c, 0, 74, 64
1, 158433, Note_on_c, 0, 50, 0
1, 158433, Note_on_c, 0, 52, 47
1, 158549, Note_on_c, 0, 52, 0
1, 158549, Note_on_c, 0, 55, 51
1, 158665, Note_on_c, 0, 74, 0
1, 158665, Note_on_c, 0, 74, 69
1, 158665, Note_on_c, 0, 55, 0
1, 158781, Note_on_c, 0, 54, 51
1, 158896, Note_on_c, 0, 74, 0
1, 158896, Note_on_c, 0, 54, 0
1, 158896, Note_on_c, 0, 57, 55
1, 159012, Note_on_c, 0, 57, 0
1, 159012, Note_on_c, 0, 54, 48
1, 159128, Note_on_c, 0, 74, 65
1, 159128, Note_on_c, 0, 54, 0
1, 159128, Note_on_c, 0, 55, 51
1, 159244, Note_on_c, 0, 55, 0
1, 159244, Note_on_c, 0, 59, 54
1, 159359, Note_on_c, 0, 74, 0
1, 159359, Note_on_c, 0, 74, 71
1, 159359, Note_on_c, 0, 59, 0
1, 159475, Note_on_c, 0, 57, 53
1, 159591, Note_on_c, 0, 74, 0
1, 159591, Note_on_c, 0, 57, 0
1, 159591, Note_on_c, 0, 60, 56
1, 159707, Note_on_c, 0, 60, 0
1, 159707, Note_on_c, 0, 57, 53
1, 159823, Note_on_c, 0, 74, 64
1, 159823, Note_on_c, 0, 57, 0
1, 159823, Note_on_c, 0, 59, 55
1, 159938, Note_on_c, 0, 59, 0
1, 159938, Note_on_c, 0, 55, 53
1, 160054, Note_on_c, 0, 74, 0
1, 160054, Note_on_c, 0, 74, 70
1, 160054, Note_on_c, 0, 55, 0
1, 160170, Note_on_c, 0, 54, 48
1, 160286, Note_on_c, 0, 74, 0
1, 160286, Note_on_c, 0, 54, 0
1, 160286, Note_on_c, 0, 57, 53
1, 160402, Note_on_c, 0, 57, 0
1, 160402, Note_on_c, 0, 54, 48
1, 160517, Note_on_c, 0, 74, 59
1, 160517, Note_on_c, 0, 54, 0
1, 160517, Note_on_c, 0, 55, 52
1, 160633, Note_on_c, 0, 55, 0
1, 160633, Note_on_c, 0, 52, 48
1, 160749, Note_on_c, 0, 74, 0
1, 160749, Note_on_c, 0, 52, 0
1, 160749, Note_on_c, 0, 50, 50
1, 160769, Control_c, 0, 64, 127
1, 160865, Note_on_c, 0, 74, 59
1, 160981, Note_on_c, 0, 74, 0
1, 160981, Note_on_c, 0, 78, 61
1, 160981, Note_on_c, 0, 50, 0
1, 161094, Note_on_c, 0, 78, 0
1, 161094, Note_on_c, 0, 74, 56
1, 161201, Control_c, 0, 64, 0
1, 161207, Note_on_c, 0, 74, 0
1, 161207, Note_on_c, 0, 76, 59
1, 161207, Note_on_c, 0, 50, 47
1, 161247, Control_c, 0, 64, 127
1, 161321, Note_on_c, 0, 76, 0
1, 161321, Note_on_c, 0, 79, 61
1, 161388, Control_c, 0, 64, 0
1, 161434, Note_on_c, 0, 79, 0
1, 161434, Note_on_c, 0, 50, 0
1, 161434, Note_on_c, 0, 50, 50
1, 161535, Control_c, 0, 64, 127
1, 161548, Note_on_c, 0, 78, 59
1, 161661, Note_on_c, 0, 78, 0
1, 161661, Note_on_c, 0, 81, 61
1, 161661, Note_on_c, 0, 50, 0
1, 161775, Note_on_c, 0, 81, 0
1, 161775, Note_on_c, 0, 78, 57
1, 161862, Control_c, 0, 64, 0
1, 161888, Note_on_c, 0, 78, 0
1, 161888, Note_on_c, 0, 79, 60
1, 161888, Note_on_c, 0, 38, 71
1, 161915, Control_c, 0, 64, 127
1, 162002, Note_on_c, 0, 79, 0
1, 162002, Note_on_c, 0, 83, 62
1, 162115, Note_on_c, 0, 83, 0
1, 162115, Note_on_c, 0, 38, 0
1, 162115, Control_c, 0, 64, 0
1, 162118, Note_on_c, 0, 38, 85
1, 162189, Control_c, 0, 64, 127
1, 162229, Note_on_c, 0, 81, 79
1, 162342, Note_on_c, 0, 81, 0
1, 162342, Note_on_c, 0, 84, 81
1, 162452, Note_on_c, 0, 84, 0
1, 162452, Note_on_c, 0, 78, 74
1, 162561, Note_on_c, 0, 78, 0
1, 162561, Note_on_c, 0, 81, 79
1, 162671, Note_on_c, 0, 81, 0
1, 162671, Note_on_c, 0, 72, 73
1, 162780, Note_on_c, 0, 72, 0
1, 162780, Note_on_c, 0, 78, 78
1, 162890, Note_on_c, 0, 78, 0
1, 162890, Note_on_c, 0, 69, 71
1, 163000, Note_on_c, 0, 69, 0
1, 163000, Note_on_c, 0, 72, 74
1, 163111, Note_on_c, 0, 72, 0
1, 163111, Note_on_c, 0, 66, 69
1, 163222, Note_on_c, 0, 66, 0
1, 163222, Note_on_c, 0, 69, 72
1, 163335, Note_on_c, 0, 69, 0
1, 163335, Note_on_c, 0, 60, 68
1, 163461, Note_on_c, 0, 60, 0
1, 163461, Note_on_c, 0, 76, 70
1, 163461, Note_on_c, 0, 38, 0
1, 163464, Control_c, 0, 64, 0
1, 163501, Control_c, 0, 64, 127
1, 163575, Note_on_c, 0, 48, 56
1, 163690, Note_on_c, 0, 48, 0
1, 163690, Note_on_c, 0, 57, 60
1, 163806, Note_on_c, 0, 57, 0
1, 163806, Note_on_c, 0, 54, 52
1, 163924, Note_on_c, 0, 54, 0
1, 163924, Note_on_c, 0, 60, 54
1, 164051, Note_on_c, 0, 60, 0
1, 164051, Note_on_c, 0, 57, 48
1, 164198, Note_on_c, 0, 57, 0
1, 164198, Note_on_c, 0, 66, 52
1, 164726, Control_c, 0, 64, 0
1, 164889, Note_on_c, 0, 76, 0
1, 164889, Note_on_c, 0, 74, 62
1, 164951, Note_on_c, 0, 74, 0
1, 164951, Note_on_c, 0, 72, 62
1, 165012, Note_on_c, 0, 72, 0
1, 165012, Note_on_c, 0, 71, 62
1, 165074, Note_on_c, 0, 71, 0
1, 165074, Note_on_c, 0, 69, 62
1, 165136, Note_on_c, 0, 69, 0
1, 165136, Note_on_c, 0, 67, 69
1, 165136, Note_on_c, 0, 66, 0
1, 165139, Note_on_c, 0, 55, 57
1, 165139, Note_on_c, 0, 59, 57
1, 165170, Control_c, 0, 64, 127
1, 165546, Control_c, 0, 64, 0
1, 165549, Note_on_c, 0, 67, 0
1, 165549, Note_on_c, 0, 71, 67
1, 165609, Note_on_c, 0, 71, 0
1, 165609, Note_on_c, 0, 69, 67
1, 165609, Note_on_c, 0, 59, 0
1, 165612, Note_on_c, 0, 55, 0
1, 165612, Note_on_c, 0, 55, 55
1, 165612, Note_on_c, 0, 60, 55
1, 165849, Note_on_c, 0, 69, 0
1, 165849, Note_on_c, 0, 62, 69
1, 165849, Note_on_c, 0, 60, 0
1, 165852, Note_on_c, 0, 55, 0
1, 165852, Note_on_c, 0, 55, 57
1, 165852, Note_on_c, 0, 60, 57
1, 165869, Control_c, 0, 64, 127
1, 166079, Note_on_c, 0, 62, 0
1, 166079, Note_on_c, 0, 63, 64
1, 166189, Note_on_c, 0, 63, 0
1, 166189, Note_on_c, 0, 64, 64
1, 166288, Control_c, 0, 64, 0
1, 166298, Note_on_c, 0, 64, 0
1, 166298, Note_on_c, 0, 65, 64
1, 166298, Note_on_c, 0, 60, 0
1, 166301, Note_on_c, 0, 55, 0
1, 166301, Note_on_c, 0, 55, 55
1, 166301, Note_on_c, 0, 60, 55
1, 166310, Control_c, 0, 64, 127
1, 166407, Note_on_c, 0, 65, 0
1, 166407, Note_on_c, 0, 66, 64
1, 166468, Control_c, 0, 64, 0
1, 166522, Note_on_c, 0, 66, 0
1, 166522, Note_on_c, 0, 67, 65
1, 166522, Note_on_c, 0, 60, 0
1, 166525, Note_on_c, 0, 55, 0
1, 166525, Note_on_c, 0, 55, 54
1, 166525, Note_on_c, 0, 59, 54
1, 166639, Note_on_c, 0, 58, 50
1, 166649, Note_on_c, 0, 59, 0
1, 166757, Note_on_c, 0, 67, 0
1, 166757, Note_on_c, 0, 67, 63
1, 166757, Note_on_c, 0, 58, 0
1, 166760, Note_on_c, 0, 59, 53
1, 166875, Note_on_c, 0, 58, 47
1, 166884, Note_on_c, 0, 59, 0
1, 166992, Note_on_c, 0, 67, 0
1, 166992, Note_on_c, 0, 67, 63
1, 166992, Note_on_c, 0, 58, 0
1, 166995, Note_on_c, 0, 59, 53
1, 167110, Note_on_c, 0, 58, 48
1, 167120, Note_on_c, 0, 59, 0
1, 167227, Note_on_c, 0, 67, 0
1, 167227, Note_on_c, 0, 67, 63
1, 167227, Note_on_c, 0, 58, 0
1, 167230, Note_on_c, 0, 59, 53
1, 167299, Control_c, 0, 64, 127
1, 167589, Control_c, 0, 64, 0
1, 167655, Note_on_c, 0, 67, 0
1, 167655, Note_on_c, 0, 62, 63
1, 167655, Note_on_c, 0, 69, 63
1, 167658, Note_on_c, 0, 59, 0
1, 167658, Note_on_c, 0, 55, 0
1, 167658, Note_on_c, 0, 54, 53
1, 167818, Note_on_c, 0, 69, 0
1, 167818, Note_on_c, 0, 72, 63
1, 167818, Note_on_c, 0, 54, 0
1, 167821, Note_on_c, 0, 57, 59
1, 167872, Note_on_c, 0, 72, 0
1, 167872, Note_on_c, 0, 62, 0
1, 167872, Note_on_c, 0, 62, 69
1, 167875, Note_on_c, 0, 71, 69
1, 167875, Note_on_c, 0, 57, 0
1, 167875, Note_on_c, 0, 55, 56
1, 167893, Control_c, 0, 64, 127
1, 167980, Note_on_c, 0, 71, 0
1, 167980, Note_on_c, 0, 70, 67
1, 167980, Note_on_c, 0, 55, 0
1, 167983, Note_on_c, 0, 54, 53
1, 168082, Control_c, 0, 64, 0
1, 168087, Note_on_c, 0, 70, 0
1, 168087, Note_on_c, 0, 71, 69
1, 168087, Note_on_c, 0, 54, 0
1, 168090, Note_on_c, 0, 55, 56
1, 168118, Control_c, 0, 64, 127
1, 168194, Note_on_c, 0, 71, 0
1, 168194, Note_on_c, 0, 70, 65
1, 168194, Note_on_c, 0, 55, 0
1, 168197, Note_on_c, 0, 54, 53
1, 168271, Control_c, 0, 64, 0
1, 168301, Note_on_c, 0, 70, 0
1, 168301, Note_on_c, 0, 71, 69
1, 168301, Note_on_c, 0, 54, 0
1, 168304, Note_on_c, 0, 55, 56
1, 168311, Control_c, 0, 64, 127
1, 168408, Note_on_c, 0, 71, 0
1, 168408, Note_on_c, 0, 74, 65
1, 168408, Note_on_c, 0, 55, 0
1, 168411, Note_on_c, 0, 59, 53
1, 168528, Note_on_c, 0, 74, 0
1, 168528, Note_on_c, 0, 62, 0
1, 168528, Note_on_c, 0, 66, 62
1, 168531, Note_on_c, 0, 62, 62
1, 168531, Note_on_c, 0, 74, 69
1, 168531, Note_on_c, 0, 59, 0
1, 168534, Control_c, 0, 64, 0
1, 168534, Note_on_c, 0, 57, 55
1, 168567, Control_c, 0, 64, 127
1, 168763, Note_on_c, 0, 74, 0
1, 168763, Note_on_c, 0, 72, 63
1, 168958, Control_c, 0, 64, 0
1, 168984, Note_on_c, 0, 72, 0
1, 168984, Note_on_c, 0, 66, 0
1, 168984, Note_on_c, 0, 67, 63
1, 168987, Note_on_c, 0, 71, 63
1, 168987, Note_on_c, 0, 57, 0
1, 168987, Note_on_c, 0, 55, 53
1, 169011, Control_c, 0, 64, 127
1, 169159, Control_c, 0, 64, 0
1, 169206, Note_on_c, 0, 71, 0
1, 169206, Note_on_c, 0, 67, 0
1, 169206, Note_on_c, 0, 62, 0
1, 169209, Note_on_c, 0, 67, 67
1, 169209, Note_on_c, 0, 71, 67
1, 169209, Note_on_c, 0, 55, 0
1, 169212, Note_on_c, 0, 50, 55
1, 169234, Control_c, 0, 64, 127
1, 169321, Note_on_c, 0, 50, 0
1, 169321, Note_on_c, 0, 61, 53
1, 169420, Control_c, 0, 64, 0
1, 169436, Note_on_c, 0, 71, 0
1, 169436, Note_on_c, 0, 67, 0
1, 169436, Note_on_c, 0, 66, 63
1, 169439, Note_on_c, 0, 69, 63
1, 169439, Note_on_c, 0, 61, 0
1, 169439, Note_on_c, 0, 62, 54
1, 169480, Control_c, 0, 64, 127
1, 169551, Note_on_c, 0, 62, 0
1, 169551, Note_on_c, 0, 61, 53
1, 169667, Note_on_c, 0, 69, 0
1, 169667, Note_on_c, 0, 66, 0
1, 169667, Note_on_c, 0, 66, 63
1, 169670, Note_on_c, 0, 69, 63
1, 169670, Note_on_c, 0, 61, 0
1, 169670, Note_on_c, 0, 62, 54
1, 169670, Control_c, 0, 64, 0
1, 169699, Control_c, 0, 64, 127
1, 169782, Note_on_c, 0, 62, 0
1, 169782, Note_on_c, 0, 61, 53
1, 169881, Control_c, 0, 64, 0
1, 169897, Note_on_c, 0, 69, 0
1, 169897, Note_on_c, 0, 66, 0
1, 169897, Note_on_c, 0, 66, 63
1, 169900, Note_on_c, 0, 69, 63
1, 169900, Note_on_c, 0, 61, 0
1, 169900, Note_on_c, 0, 62, 55
1, 169913, Control_c, 0, 64, 127
1, 170009, Note_on_c, 0, 62, 0
1, 170009, Note_on_c, 0, 64, 53
1, 170120, Note_on_c, 0, 64, 0
1, 170120, Note_on_c, 0, 60, 55
1, 170232, Note_on_c, 0, 60, 0
1, 170232, Note_on_c, 0, 62, 53
1, 170334, Control_c, 0, 64, 0
1, 170344, Note_on_c, 0, 69, 0
1, 170344, Note_on_c, 0, 66, 0
1, 170344, Note_on_c, 0, 68, 65
1, 170347, Note_on_c, 0, 71, 65
1, 170347, Note_on_c, 0, 62, 0
1, 170347, Note_on_c, 0, 59, 56
1, 170372, Control_c, 0, 64, 127
1, 170460, Note_on_c, 0, 59, 0
1, 170460, Note_on_c, 0, 60, 53
1, 170576, Note_on_c, 0, 71, 0
1, 170576, Note_on_c, 0, 68, 0
1, 170576, Note_on_c, 0, 69, 69
1, 170579, Note_on_c, 0, 72, 69
1, 170579, Note_on_c, 0, 60, 0
1, 170579, Control_c, 0, 64, 0
1, 170582, Note_on_c, 0, 57, 57
1, 170609, Control_c, 0, 64, 127
1, 170691, Note_on_c, 0, 57, 0
1, 170691, Note_on_c, 0, 64, 54
1, 170780, Control_c, 0, 64, 0
1, 170807, Note_on_c, 0, 72, 0
1, 170807, Note_on_c, 0, 69, 0
1, 170807, Note_on_c, 0, 71, 71
1, 170810, Note_on_c, 0, 74, 71
1, 170810, Note_on_c, 0, 64, 0
1, 170810, Note_on_c, 0, 60, 54
1, 170834, Control_c, 0, 64, 127
1, 170923, Note_on_c, 0, 60, 0
1, 170923, Note_on_c, 0, 59, 53
1, 171018, Control_c, 0, 64, 0
1, 171039, Note_on_c, 0, 74, 0
1, 171039, Note_on_c, 0, 71, 0
1, 171039, Note_on_c, 0, 72, 71
1, 171042, Note_on_c, 0, 76, 71
1, 171042, Note_on_c, 0, 59, 0
1, 171042, Note_on_c, 0, 57, 53
1, 171073, Control_c, 0, 64, 127
1, 171158, Note_on_c, 0, 57, 0
1, 171158, Note_on_c, 0, 55, 52
1, 171199, Control_c, 0, 64, 0
1, 171276, Note_on_c, 0, 76, 0
1, 171276, Note_on_c, 0, 72, 0
1, 171276, Note_on_c, 0, 72, 71
1, 171279, Note_on_c, 0, 76, 71
1, 171279, Note_on_c, 0, 55, 0
1, 171279, Note_on_c, 0, 54, 52
1, 171302, Control_c, 0, 64, 127
1, 171385, Note_on_c, 0, 54, 0
1, 171385, Note_on_c, 0, 55, 51
1, 171495, Note_on_c, 0, 55, 0
1, 171495, Note_on_c, 0, 57, 52
1, 171606, Note_on_c, 0, 57, 0
1, 171606, Note_on_c, 0, 50, 54
1, 171710, Control_c, 0, 64, 0
1, 171717, Note_on_c, 0, 76, 0
1, 171717, Note_on_c, 0, 72, 0
1, 171717, Note_on_c, 0, 71, 67
1, 171720, Note_on_c, 0, 74, 67
1, 171720, Note_on_c, 0, 50, 0
1, 171720, Note_on_c, 0, 52, 56
1, 171762, Control_c, 0, 64, 127
1, 171827, Note_on_c, 0, 74, 0
1, 171827, Note_on_c, 0, 71, 0
1, 171827, Note_on_c, 0, 69, 67
1, 171830, Note_on_c, 0, 72, 67
1, 171830, Note_on_c, 0, 52, 0
1, 171830, Note_on_c, 0, 54, 57
1, 171937, Note_on_c, 0, 72, 0
1, 171937, Note_on_c, 0, 69, 0
1, 171937, Note_on_c, 0, 67, 69
1, 171940, Note_on_c, 0, 71, 69
1, 171940, Note_on_c, 0, 54, 0
1, 171940, Control_c, 0, 64, 0
1, 171943, Note_on_c, 0, 55, 56
1, 171984, Control_c, 0, 64, 127
1, 172053, Note_on_c, 0, 55, 0
1, 172053, Note_on_c, 0, 54, 55
1, 172148, Control_c, 0, 64, 0
1, 172169, Note_on_c, 0, 71, 0
1, 172169, Note_on_c, 0, 67, 0
1, 172169, Note_on_c, 0, 69, 65
1, 172172, Note_on_c, 0, 72, 65
1, 172172, Note_on_c, 0, 54, 0
1, 172172, Note_on_c, 0, 52, 54
1, 172182, Control_c, 0, 64, 127
1, 172285, Note_on_c, 0, 52, 0
1, 172285, Note_on_c, 0, 50, 52
1, 172353, Control_c, 0, 64, 0
1, 172400, Note_on_c, 0, 72, 0
1, 172400, Note_on_c, 0, 69, 0
1, 172400, Note_on_c, 0, 71, 65
1, 172403, Note_on_c, 0, 74, 65
1, 172403, Note_on_c, 0, 50, 0
1, 172403, Note_on_c, 0, 48, 51
1, 172414, Control_c, 0, 64, 127
1, 172519, Note_on_c, 0, 48, 0
1, 172519, Note_on_c, 0, 47, 50
1, 172638, Note_on_c, 0, 74, 0
1, 172638, Note_on_c, 0, 71, 0
1, 172638, Note_on_c, 0, 59, 67
1, 172641, Note_on_c, 0, 67, 67
1, 172641, Note_on_c, 0, 47, 0
1, 172641, Note_on_c, 0, 52, 55
1, 172678, Control_c, 0, 64, 0
1, 172706, Control_c, 0, 64, 127
1, 172752, Note_on_c, 0, 52, 0
1, 172752, Note_on_c, 0, 50, 54
1, 172866, Note_on_c, 0, 67, 0
1, 172866, Note_on_c, 0, 59, 0
1, 172866, Note_on_c, 0, 60, 63
1, 172869, Note_on_c, 0, 69, 63
1, 172869, Note_on_c, 0, 50, 0
1, 172869, Note_on_c, 0, 48, 52
1, 172873, Control_c, 0, 64, 0
1, 172947, Control_c, 0, 64, 127
1, 172980, Note_on_c, 0, 48, 0
1, 172980, Note_on_c, 0, 47, 51
1, 173068, Control_c, 0, 64, 0
1, 173094, Note_on_c, 0, 69, 0
1, 173094, Note_on_c, 0, 60, 0
1, 173094, Note_on_c, 0, 62, 63
1, 173097, Note_on_c, 0, 71, 63
1, 173097, Note_on_c, 0, 47, 0
1, 173097, Note_on_c, 0, 45, 48
1, 173127, Control_c, 0, 64, 127
1, 173208, Note_on_c, 0, 45, 0
1, 173208, Note_on_c, 0, 43, 47
1, 173322, Note_on_c, 0, 71, 0
1, 173322, Note_on_c, 0, 62, 0
1, 173322, Note_on_c, 0, 69, 65
1, 173325, Note_on_c, 0, 43, 0
1, 173325, Control_c, 0, 64, 0
1, 173325, Note_on_c, 0, 48, 56
1, 173369, Control_c, 0, 64, 127
1, 173436, Note_on_c, 0, 64, 65
1, 173530, Control_c, 0, 64, 0
1, 173550, Note_on_c, 0, 69, 0
1, 173550, Note_on_c, 0, 71, 63
1, 173550, Note_on_c, 0, 48, 0
1, 173553, Note_on_c, 0, 47, 52
1, 173576, Control_c, 0, 64, 127
1, 173662, Note_on_c, 0, 64, 0
1, 173662, Note_on_c, 0, 62, 63
1, 173760, Control_c, 0, 64, 0
1, 173773, Note_on_c, 0, 71, 0
1, 173773, Note_on_c, 0, 72, 63
1, 173773, Note_on_c, 0, 47, 0
1, 173776, Note_on_c, 0, 45, 52
1, 173814, Control_c, 0, 64, 127
1, 173892, Note_on_c, 0, 62, 0
1, 173892, Note_on_c, 0, 60, 63
1, 173962, Control_c, 0, 64, 0
1, 174010, Note_on_c, 0, 72, 0
1, 174010, Note_on_c, 0, 72, 64
1, 174010, Note_on_c, 0, 45, 0
1, 174013, Note_on_c, 0, 50, 56
1, 174037, Control_c, 0, 64, 127
1, 174126, Note_on_c, 0, 60, 0
1, 174126, Note_on_c, 0, 60, 63
1, 174242, Note_on_c, 0, 72, 0
1, 174242, Note_on_c, 0, 69, 63
1, 174358, Note_on_c, 0, 60, 0
1, 174358, Note_on_c, 0, 60, 63
1, 174474, Note_on_c, 0, 69, 0
1, 174474, Note_on_c, 0, 66, 61
1, 174595, Note_on_c, 0, 60, 0
1, 174595, Note_on_c, 0, 60, 63
1, 174716, Note_on_c, 0, 66, 0
1, 174716, Note_on_c, 0, 69, 59
1, 174716, Note_on_c, 0, 50, 0
1, 174719, Control_c, 0, 64, 0
1, 174719, Note_on_c, 0, 43, 47
1, 174761, Control_c, 0, 64, 127
1, 174843, Note_on_c, 0, 43, 0
1, 174843, Note_on_c, 0, 54, 44
1, 174965, Control_c, 0, 64, 0
1, 174972, Note_on_c, 0, 54, 0
1, 174972, Note_on_c, 0, 55, 47
1, 175018, Control_c, 0, 64, 127
1, 175104, Note_on_c, 0, 55, 0
1, 175104, Note_on_c, 0, 54, 44
1, 175238, Note_on_c, 0, 54, 0
1, 175238, Control_c, 0, 64, 0
1, 175238, Note_on_c, 0, 55, 45
1, 175300, Control_c, 0, 64, 127
1, 175373, Note_on_c, 0, 55, 0
1, 175373, Note_on_c, 0, 54, 42
1, 175523, Note_on_c, 0, 69, 0
1, 175523, Note_on_c, 0, 60, 0
1, 175523, Note_on_c, 0, 59, 46
1, 175526, Note_on_c, 0, 67, 46
1, 175526, Note_on_c, 0, 54, 0
1, 175526, Note_on_c, 0, 55, 39
1, 175549, Control_c, 0, 64, 0
1, 175646, Control_c, 0, 64, 127
1, 175822, Note_on_c, 0, 67, 0
1, 175822, Note_on_c, 0, 59, 0
1, 175822, Note_on_c, 0, 55, 0
1, 176052, Control_c, 0, 64, 0
1, 176122, Note_on_c, 0, 74, 59
1, 176245, Note_on_c, 0, 74, 0
1, 176369, Control_c, 0, 91, 127
1, 176369, Note_on_c, 0, 74, 59
1, 176369, Control_c, 0, 91, 127
1, 176492, Note_on_c, 0, 74, 0
1, 176615, Note_on_c, 0, 55, 32
1, 176615, Note_on_c, 0, 58, 37
1, 176633, Control_c, 0, 64, 127
1, 176780, Control_c, 0, 64, 0
1, 176862, Note_on_c, 0, 74, 62
1, 176862, Note_on_c, 0, 58, 0
1, 176862, Note_on_c, 0, 55, 0
1, 176986, Note_on_c, 0, 74, 0
1, 176986, Note_on_c, 0, 75, 62
1, 177109, Note_on_c, 0, 75, 0
1, 177109, Note_on_c, 0, 75, 64
1, 177233, Note_on_c, 0, 75, 0
1, 177356, Note_on_c, 0, 60, 39
1, 177356, Note_on_c, 0, 55, 34
1, 177374, Control_c, 0, 64, 127
1, 177521, Control_c, 0, 64, 0
1, 177603, Note_on_c, 0, 79, 69
1, 177603, Note_on_c, 0, 55, 0
1, 177603, Note_on_c, 0, 60, 0
1, 177726, Note_on_c, 0, 79, 0
1, 177726, Note_on_c, 0, 78, 65
1, 177850, Note_on_c, 0, 78, 0
1, 177850, Note_on_c, 0, 78, 65
1, 177973, Note_on_c, 0, 78, 0
1, 178097, Note_on_c, 0, 55, 37
1, 178097, Note_on_c, 0, 60, 43
1, 178103, Control_c, 0, 64, 127
1, 178267, Control_c, 0, 64, 0
1, 178343, Note_on_c, 0, 82, 81
1, 178343, Note_on_c, 0, 60, 0
1, 178343, Note_on_c, 0, 55, 0
1, 178467, Note_on_c, 0, 82, 0
1, 178467, Note_on_c, 0, 78, 78
1, 178590, Note_on_c, 0, 78, 0
1, 178590, Note_on_c, 0, 79, 78
1, 178710, Note_on_c, 0, 79, 0
1, 178829, Note_on_c, 0, 55, 55
1, 178829, Note_on_c, 0, 58, 64
1, 178835, Control_c, 0, 64, 127
1, 178969, Control_c, 0, 64, 0
1, 179075, Note_on_c, 0, 82, 86
1, 179075, Note_on_c, 0, 58, 0
1, 179075, Note_on_c, 0, 55, 0
1, 179195, Note_on_c, 0, 82, 0
1, 179195, Note_on_c, 0, 81, 90
1, 179315, Note_on_c, 0, 81, 0
1, 179315, Note_on_c, 0, 84, 100
1, 179343, Control_c, 0, 64, 127
1, 179664, Note_on_c, 0, 84, 0
1, 179664, Note_on_c, 0, 82, 85
1, 179764, Control_c, 0, 64, 0
1, 179781, Note_on_c, 0, 82, 0
1, 179781, Note_on_c, 0, 81, 85
1, 179811, Control_c, 0, 64, 127
1, 179839, Note_on_c, 0, 81, 0
1, 179839, Note_on_c, 0, 79, 85
1, 179897, Note_on_c, 0, 79, 0
1, 179897, Note_on_c, 0, 77, 85
1, 179955, Note_on_c, 0, 77, 0
1, 179955, Note_on_c, 0, 76, 85
1, 179972, Control_c, 0, 64, 0
1, 179984, Note_on_c, 0, 76, 0
1, 179984, Note_on_c, 0, 74, 85
1, 180013, Note_on_c, 0, 74, 0
1, 180013, Note_on_c, 0, 67, 81
1, 180013, Note_on_c, 0, 70, 81
1, 180016, Note_on_c, 0, 73, 81
1, 180075, Control_c, 0, 64, 127
1, 180246, Note_on_c, 0, 88, 117
1, 180246, Note_on_c, 0, 85, 117
1, 180246, Note_on_c, 0, 82, 100
1, 180249, Note_on_c, 0, 79, 100
1, 180260, Control_c, 0, 64, 0
1, 180285, Control_c, 0, 64, 127
1, 180687, Control_c, 0, 64, 0
1, 180712, Note_on_c, 0, 79, 0
1, 180712, Note_on_c, 0, 88, 0
1, 180712, Note_on_c, 0, 85, 0
1, 180715, Note_on_c, 0, 82, 0
1, 180715, Note_on_c, 0, 73, 0
1, 180715, Note_on_c, 0, 70, 0
1, 180718, Note_on_c, 0, 67, 0
1, 180718, Note_on_c, 0, 65, 83
1, 180718, Note_on_c, 0, 69, 83
1, 180770, Note_on_c, 0, 77, 91
1, 180770, Control_c, 0, 64, 127
1, 180827, Note_on_c, 0, 77, 0
1, 180827, Note_on_c, 0, 81, 95
1, 180886, Note_on_c, 0, 81, 0
1, 180886, Note_on_c, 0, 85, 96
1, 180945, Note_on_c, 0, 85, 0
1, 180945, Note_on_c, 0, 86, 97
1, 181002, Note_on_c, 0, 86, 0
1, 181002, Note_on_c, 0, 79, 96
1, 181060, Note_on_c, 0, 79, 0
1, 181060, Note_on_c, 0, 85, 98
1, 181118, Note_on_c, 0, 85, 0
1, 181118, Note_on_c, 0, 86, 100
1, 181176, Note_on_c, 0, 86, 0
1, 181176, Note_on_c, 0, 88, 103
1, 181176, Note_on_c, 0, 69, 0
1, 181179, Note_on_c, 0, 65, 0
1, 181179, Note_on_c, 0, 64, 80
1, 181179, Note_on_c, 0, 67, 80
1, 181182, Control_c, 0, 64, 0
1, 181201, Control_c, 0, 64, 127
1, 181233, Note_on_c, 0, 88, 0
1, 181233, Note_on_c, 0, 81, 99
1, 181291, Note_on_c, 0, 81, 0
1, 181291, Note_on_c, 0, 86, 102
1, 181349, Note_on_c, 0, 86, 0
1, 181349, Note_on_c, 0, 88, 104
1, 181407, Note_on_c, 0, 88, 0
1, 181407, Note_on_c, 0, 89, 119
1, 181407, Note_on_c, 0, 67, 0
1, 181410, Note_on_c, 0, 64, 0
1, 181410, Note_on_c, 0, 62, 80
1, 181410, Note_on_c, 0, 65, 80
1, 181427, Control_c, 0, 64, 0
1, 181458, Control_c, 0, 64, 127
1, 181691, Note_on_c, 0, 89, 0
1, 181691, Note_on_c, 0, 74, 96
1, 181691, Note_on_c, 0, 77, 112
1, 181694, Note_on_c, 0, 83, 112
1, 181694, Note_on_c, 0, 65, 0
1, 181694, Note_on_c, 0, 62, 0
1, 181697, Note_on_c, 0, 68, 85
1, 181697, Note_on_c, 0, 71, 85
1, 181697, Control_c, 0, 64, 0
1, 181748, Control_c, 0, 64, 127
1, 182204, Control_c, 0, 64, 0
1, 182243, Note_on_c, 0, 83, 0
1, 182243, Note_on_c, 0, 77, 0
1, 182243, Note_on_c, 0, 74, 0
1, 182246, Note_on_c, 0, 71, 0
1, 182246, Note_on_c, 0, 68, 0
1, 182246, Note_on_c, 0, 57, 80
1, 182249, Note_on_c, 0, 62, 80
1, 182249, Note_on_c, 0, 65, 80
1, 182355, Control_c, 0, 64, 127
1, 182505, Note_on_c, 0, 69, 80
1, 182505, Note_on_c, 0, 81, 94
1, 182758, Note_on_c, 0, 81, 0
1, 182758, Note_on_c, 0, 69, 0
1, 182758, Note_on_c, 0, 77, 79
1, 182884, Note_on_c, 0, 77, 0
1, 182884, Note_on_c, 0, 74, 79
1, 182962, Control_c, 0, 64, 0
1, 183010, Note_on_c, 0, 74, 0
1, 183010, Note_on_c, 0, 65, 0
1, 183010, Note_on_c, 0, 62, 0
1, 183013, Note_on_c, 0, 57, 0
1, 183013, Note_on_c, 0, 57, 69
1, 183013, Note_on_c, 0, 64, 69
1, 183016, Note_on_c, 0, 67, 69
1, 183105, Control_c, 0, 64, 127
1, 183261, Note_on_c, 0, 69, 77
1, 183261, Note_on_c, 0, 79, 89
1, 183518, Note_on_c, 0, 79, 0
1, 183518, Note_on_c, 0, 69, 0
1, 183518, Note_on_c, 0, 76, 74
1, 183646, Note_on_c, 0, 76, 0
1, 183646, Note_on_c, 0, 73, 74
1, 183713, Control_c, 0, 64, 0
1, 183786, Note_on_c, 0, 73, 0
1, 183786, Note_on_c, 0, 73, 69
1, 183786, Note_on_c, 0, 67, 0
1, 183789, Note_on_c, 0, 64, 0
1, 183789, Note_on_c, 0, 57, 0
1, 183821, Control_c, 0, 64, 127
1, 184341, Control_c, 0, 64, 0
1, 184381, Note_on_c, 0, 73, 0
1, 184381, Note_on_c, 0, 74, 53
1, 184381, Note_on_c, 0, 50, 42
1, 184384, Note_on_c, 0, 62, 42
1, 184613, Note_on_c, 0, 74, 0
1, 184613, Note_on_c, 0, 62, 0
1, 184613, Note_on_c, 0, 50, 0
1, 184691, Note_on_c, 0, 74, 53
1, 184691, Note_on_c, 0, 50, 42
1, 184691, Note_on_c, 0, 62, 42
1, 185001, Note_on_c, 0, 74, 0
1, 185001, Note_on_c, 0, 62, 0
1, 185001, Note_on_c, 0, 50, 0
1, 185310, Note_on_c, 0, 74, 59
1, 185434, Note_on_c, 0, 74, 0
1, 185557, Control_c, 0, 91, 127
1, 185557, Note_on_c, 0, 74, 59
1, 185557, Control_c, 0, 91, 127
1, 185681, Note_on_c, 0, 74, 0
1, 185804, Control_c, 0, 64, 127
1, 185804, Note_on_c, 0, 55, 32
1, 185804, Note_on_c, 0, 58, 37
1, 185999, Control_c, 0, 64, 0
1, 186051, Note_on_c, 0, 74, 62
1, 186051, Note_on_c, 0, 58, 0
1, 186051, Note_on_c, 0, 55, 0
1, 186174, Note_on_c, 0, 74, 0
1, 186174, Note_on_c, 0, 75, 62
1, 186298, Note_on_c, 0, 75, 0
1, 186298, Note_on_c, 0, 75, 64
1, 186421, Note_on_c, 0, 75, 0
1, 186545, Note_on_c, 0, 60, 43
1, 186545, Note_on_c, 0, 55, 37
1, 186556, Control_c, 0, 64, 127
1, 186692, Control_c, 0, 64, 0
1, 186792, Note_on_c, 0, 79, 69
1, 186792, Note_on_c, 0, 55, 0
1, 186792, Note_on_c, 0, 60, 0
1, 186915, Note_on_c, 0, 79, 0
1, 186915, Note_on_c, 0, 78, 65
1, 187038, Note_on_c, 0, 78, 0
1, 187038, Note_on_c, 0, 78, 65
1, 187162, Note_on_c, 0, 78, 0
1, 187285, Note_on_c, 0, 55, 38
1, 187285, Note_on_c, 0, 60, 45
1, 187315, Control_c, 0, 64, 127
1, 187497, Control_c, 0, 64, 0
1, 187532, Note_on_c, 0, 82, 81
1, 187532, Note_on_c, 0, 60, 0
1, 187532, Note_on_c, 0, 55, 0
1, 187656, Note_on_c, 0, 82, 0
1, 187656, Note_on_c, 0, 78, 78
1, 187779, Note_on_c, 0, 78, 0
1, 187779, Note_on_c, 0, 79, 78
1, 187898, Note_on_c, 0, 79, 0
1, 188018, Note_on_c, 0, 55, 55
1, 188018, Note_on_c, 0, 58, 64
1, 188041, Control_c, 0, 64, 127
1, 188188, Control_c, 0, 64, 0
1, 188263, Note_on_c, 0, 82, 86
1, 188263, Note_on_c, 0, 58, 0
1, 188263, Note_on_c, 0, 55, 0
1, 188384, Note_on_c, 0, 82, 0
1, 188384, Note_on_c, 0, 81, 90
1, 188504, Note_on_c, 0, 81, 0
1, 188504, Note_on_c, 0, 84, 100
1, 188545, Control_c, 0, 64, 127
1, 188853, Note_on_c, 0, 84, 0
1, 188853, Note_on_c, 0, 82, 85
1, 188950, Control_c, 0, 64, 0
1, 188969, Note_on_c, 0, 82, 0
1, 188969, Note_on_c, 0, 81, 85
1, 189005, Control_c, 0, 64, 127
1, 189028, Note_on_c, 0, 81, 0
1, 189028, Note_on_c, 0, 79, 85
1, 189086, Note_on_c, 0, 79, 0
1, 189086, Note_on_c, 0, 77, 85
1, 189144, Note_on_c, 0, 77, 0
1, 189144, Note_on_c, 0, 76, 85
1, 189173, Note_on_c, 0, 76, 0
1, 189173, Note_on_c, 0, 74, 85
1, 189202, Note_on_c, 0, 74, 0
1, 189202, Note_on_c, 0, 67, 81
1, 189202, Note_on_c, 0, 70, 81
1, 189205, Note_on_c, 0, 73, 81
1, 189227, Control_c, 0, 64, 0
1, 189266, Control_c, 0, 64, 127
1, 189435, Note_on_c, 0, 88, 117
1, 189435, Note_on_c, 0, 85, 117
1, 189435, Note_on_c, 0, 82, 99
1, 189438, Note_on_c, 0, 79, 99
1, 189454, Control_c, 0, 64, 0
1, 189504, Control_c, 0, 64, 127
1, 189865, Control_c, 0, 64, 0
1, 189900, Note_on_c, 0, 79, 0
1, 189900, Note_on_c, 0, 88, 0
1, 189900, Note_on_c, 0, 85, 0
1, 189903, Note_on_c, 0, 82, 0
1, 189903, Note_on_c, 0, 73, 0
1, 189903, Note_on_c, 0, 70, 0
1, 189906, Note_on_c, 0, 67, 0
1, 189906, Note_on_c, 0, 65, 83
1, 189906, Note_on_c, 0, 69, 83
1, 189948, Control_c, 0, 64, 127
1, 189958, Note_on_c, 0, 77, 91
1, 190016, Note_on_c, 0, 77, 0
1, 190016, Note_on_c, 0, 81, 95
1, 190075, Note_on_c, 0, 81, 0
1, 190075, Note_on_c, 0, 85, 96
1, 190132, Note_on_c, 0, 85, 0
1, 190132, Note_on_c, 0, 86, 97
1, 190189, Note_on_c, 0, 86, 0
1, 190189, Note_on_c, 0, 79, 96
1, 190248, Note_on_c, 0, 79, 0
1, 190248, Note_on_c, 0, 85, 98
1, 190306, Note_on_c, 0, 85, 0
1, 190306, Note_on_c, 0, 86, 100
1, 190364, Note_on_c, 0, 86, 0
1, 190364, Note_on_c, 0, 88, 103
1, 190364, Note_on_c, 0, 69, 0
1, 190367, Note_on_c, 0, 65, 0
1, 190367, Note_on_c, 0, 64, 80
1, 190367, Note_on_c, 0, 67, 80
1, 190387, Control_c, 0, 64, 0
1, 190401, Control_c, 0, 64, 127
1, 190423, Note_on_c, 0, 88, 0
1, 190423, Note_on_c, 0, 81, 99
1, 190482, Note_on_c, 0, 81, 0
1, 190482, Note_on_c, 0, 86, 102
1, 190539, Note_on_c, 0, 86, 0
1, 190539, Note_on_c, 0, 88, 104
1, 190596, Note_on_c, 0, 88, 0
1, 190596, Note_on_c, 0, 89, 119
1, 190596, Note_on_c, 0, 67, 0
1, 190599, Note_on_c, 0, 64, 0
1, 190599, Note_on_c, 0, 62, 80
1, 190599, Note_on_c, 0, 65, 80
1, 190603, Control_c, 0, 64, 0
1, 190637, Control_c, 0, 64, 127
1, 190881, Note_on_c, 0, 89, 0
1, 190881, Note_on_c, 0, 74, 96
1, 190881, Note_on_c, 0, 77, 112
1, 190884, Note_on_c, 0, 83, 112
1, 190884, Note_on_c, 0, 65, 0
1, 190884, Note_on_c, 0, 62, 0
1, 190887, Note_on_c, 0, 68, 85
1, 190887, Note_on_c, 0, 71, 85
1, 190900, Control_c, 0, 64, 0
1, 190930, Control_c, 0, 64, 127
1, 191360, Control_c, 0, 64, 0
1, 191432, Note_on_c, 0, 83, 0
1, 191432, Note_on_c, 0, 77, 0
1, 191432, Note_on_c, 0, 74, 0
1, 191435, Note_on_c, 0, 71, 0
1, 191435, Note_on_c, 0, 68, 0
1, 191435, Note_on_c, 0, 57, 79
1, 191438, Note_on_c, 0, 62, 79
1, 191438, Note_on_c, 0, 65, 79
1, 191519, Control_c, 0, 64, 127
1, 191693, Note_on_c, 0, 69, 81
1, 191693, Note_on_c, 0, 81, 95
1, 191947, Note_on_c, 0, 81, 0
1, 191947, Note_on_c, 0, 69, 0
1, 191947, Note_on_c, 0, 77, 79
1, 192074, Note_on_c, 0, 77, 0
1, 192074, Note_on_c, 0, 74, 79
1, 192134, Control_c, 0, 64, 0
1, 192201, Note_on_c, 0, 74, 0
1, 192201, Note_on_c, 0, 65, 0
1, 192201, Note_on_c, 0, 62, 0
1, 192204, Note_on_c, 0, 57, 0
1, 192204, Note_on_c, 0, 57, 64
1, 192204, Note_on_c, 0, 64, 64
1, 192207, Note_on_c, 0, 67, 64
1, 192359, Control_c, 0, 64, 127
1, 192456, Note_on_c, 0, 69, 76
1, 192456, Note_on_c, 0, 79, 88
1, 192713, Note_on_c, 0, 79, 0
1, 192713, Note_on_c, 0, 69, 0
1, 192713, Note_on_c, 0, 76, 74
1, 192841, Note_on_c, 0, 76, 0
1, 192841, Note_on_c, 0, 73, 74
1, 192861, Control_c, 0, 64, 0
1, 192981, Note_on_c, 0, 73, 0
1, 192981, Note_on_c, 0, 73, 69
1, 192981, Note_on_c, 0, 67, 0
1, 192984, Note_on_c, 0, 64, 0
1, 192984, Note_on_c, 0, 57, 0
1, 193012, Control_c, 0, 64, 127
1, 193488, Control_c, 0, 64, 0
1, 193576, Note_on_c, 0, 73, 0
1, 193576, Note_on_c, 0, 74, 53
1, 193576, Note_on_c, 0, 50, 42
1, 193579, Note_on_c, 0, 62, 42
1, 193808, Note_on_c, 0, 74, 0
1, 193808, Note_on_c, 0, 62, 0
1, 193808, Note_on_c, 0, 50, 0
1, 193886, Note_on_c, 0, 74, 53
1, 193886, Note_on_c, 0, 50, 42
1, 193886, Note_on_c, 0, 62, 42
1, 194196, Note_on_c, 0, 74, 0
1, 194196, Note_on_c, 0, 62, 0
1, 194196, Note_on_c, 0, 50, 0
1, 194505, Note_on_c, 0, 74, 52
1, 194651, Note_on_c, 0, 74, 0
1, 194797, Control_c, 0, 91, 127
1, 194797, Note_on_c, 0, 74, 54
1, 194931, Note_on_c, 0, 74, 0
1, 195065, Note_on_c, 0, 58, 35
1, 195065, Note_on_c, 0, 62, 41
1, 195332, Note_on_c, 0, 67, 54
1, 195332, Note_on_c, 0, 62, 0
1, 195332, Note_on_c, 0, 58, 0
1, 195586, Note_on_c, 0, 67, 0
1, 195586, Note_on_c, 0, 72, 56
1, 195840, Note_on_c, 0, 72, 0
1, 195840, Note_on_c, 0, 63, 44
1, 195840, Note_on_c, 0, 57, 38
1, 196107, Note_on_c, 0, 66, 54
1, 196107, Note_on_c, 0, 57, 0
1, 196107, Note_on_c, 0, 63, 0
1, 196361, Note_on_c, 0, 66, 0
1, 196361, Note_on_c, 0, 70, 56
1, 196615, Note_on_c, 0, 70, 0
1, 196615, Note_on_c, 0, 55, 38
1, 196615, Note_on_c, 0, 58, 44
1, 196884, Note_on_c, 0, 61, 62
1, 196884, Note_on_c, 0, 58, 0
1, 196884, Note_on_c, 0, 55, 0
1, 197139, Note_on_c, 0, 61, 0
1, 197139, Note_on_c, 0, 62, 64
1, 197394, Note_on_c, 0, 62, 0
1, 197394, Note_on_c, 0, 50, 64
1, 197394, Note_on_c, 0, 38, 64
1, 197640, Note_on_c, 0, 67, 95
1, 197640, Note_on_c, 0, 38, 0
1, 197640, Note_on_c, 0, 50, 0
1, 197643, Note_on_c, 0, 58, 77
1, 197643, Note_on_c, 0, 62, 77
1, 197660, Control_c, 0, 64, 127
1, 197758, Note_on_c, 0, 67, 0
1, 197758, Note_on_c, 0, 79, 87
1, 197876, Note_on_c, 0, 79, 0
1, 197876, Note_on_c, 0, 69, 93
1, 197876, Note_on_c, 0, 62, 0
1, 197879, Note_on_c, 0, 58, 0
1, 197879, Control_c, 0, 64, 0
1, 197879, Note_on_c, 0, 63, 70
1, 197882, Note_on_c, 0, 60, 70
1, 197920, Control_c, 0, 64, 127
1, 197991, Note_on_c, 0, 69, 0
1, 197991, Note_on_c, 0, 79, 87
1, 198105, Note_on_c, 0, 79, 0
1, 198105, Note_on_c, 0, 78, 87
1, 198105, Control_c, 0, 64, 0
1, 198139, Control_c, 0, 64, 127
1, 198223, Note_on_c, 0, 78, 0
1, 198223, Note_on_c, 0, 69, 87
1, 198296, Control_c, 0, 64, 0
1, 198330, Control_c, 0, 64, 127
1, 198341, Note_on_c, 0, 69, 0
1, 198341, Note_on_c, 0, 67, 91
1, 198341, Note_on_c, 0, 60, 0
1, 198344, Note_on_c, 0, 63, 0
1, 198344, Note_on_c, 0, 62, 77
1, 198344, Note_on_c, 0, 58, 77
1, 198458, Note_on_c, 0, 67, 0
1, 198458, Note_on_c, 0, 79, 87
1, 198576, Note_on_c, 0, 79, 0
1, 198576, Note_on_c, 0, 69, 88
1, 198576, Note_on_c, 0, 58, 0
1, 198579, Note_on_c, 0, 62, 0
1, 198579, Note_on_c, 0, 60, 69
1, 198579, Note_on_c, 0, 63, 69
1, 198582, Control_c, 0, 64, 0
1, 198636, Control_c, 0, 64, 127
1, 198691, Note_on_c, 0, 69, 0
1, 198691, Note_on_c, 0, 79, 88
1, 198790, Control_c, 0, 64, 0
1, 198806, Note_on_c, 0, 79, 0
1, 198806, Note_on_c, 0, 78, 88
1, 198862, Control_c, 0, 64, 127
1, 198925, Note_on_c, 0, 78, 0
1, 198925, Note_on_c, 0, 69, 88
1, 199037, Control_c, 0, 64, 0
1, 199043, Note_on_c, 0, 69, 0
1, 199043, Note_on_c, 0, 67, 95
1, 199043, Note_on_c, 0, 63, 0
1, 199046, Note_on_c, 0, 60, 0
1, 199046, Note_on_c, 0, 62, 72
1, 199046, Note_on_c, 0, 58, 72
1, 199072, Control_c, 0, 64, 127
1, 199163, Note_on_c, 0, 67, 0
1, 199163, Note_on_c, 0, 79, 95
1, 199283, Note_on_c, 0, 79, 0
1, 199283, Note_on_c, 0, 75, 104
1, 199283, Note_on_c, 0, 58, 0
1, 199286, Note_on_c, 0, 62, 0
1, 199286, Control_c, 0, 64, 0
1, 199286, Note_on_c, 0, 60, 77
1, 199289, Note_on_c, 0, 54, 65
1, 199317, Control_c, 0, 64, 127
1, 199402, Note_on_c, 0, 75, 0
1, 199402, Note_on_c, 0, 87, 94
1, 199519, Note_on_c, 0, 87, 0
1, 199519, Note_on_c, 0, 74, 100
1, 199519, Note_on_c, 0, 60, 0
1, 199522, Note_on_c, 0, 62, 62
1, 199530, Control_c, 0, 64, 0
1, 199547, Control_c, 0, 64, 127
1, 199635, Note_on_c, 0, 74, 0
1, 199635, Note_on_c, 0, 86, 90
1, 199750, Note_on_c, 0, 86, 0
1, 199750, Note_on_c, 0, 72, 90
1, 199750, Note_on_c, 0, 62, 0
1, 199753, Note_on_c, 0, 63, 62
1, 199773, Control_c, 0, 64, 0
1, 199820, Control_c, 0, 64, 127
1, 199871, Note_on_c, 0, 72, 0
1, 199871, Note_on_c, 0, 84, 86
1, 199975, Control_c, 0, 64, 0
1, 199993, Note_on_c, 0, 63, 0
1, 199993, Note_on_c, 0, 54, 0
1, 199993, Note_on_c, 0, 55, 63
1, 199996, Note_on_c, 0, 62, 63
1, 200044, Control_c, 0, 64, 127
1, 200114, Note_on_c, 0, 84, 0
1, 200114, Note_on_c, 0, 82, 83
1, 200236, Note_on_c, 0, 82, 0
1, 200236, Note_on_c, 0, 81, 83
1, 200236, Note_on_c, 0, 55, 0
1, 200239, Note_on_c, 0, 57, 53
1, 200354, Note_on_c, 0, 81, 0
1, 200354, Note_on_c, 0, 79, 83
1, 200411, Control_c, 0, 64, 0
1, 200474, Note_on_c, 0, 79, 0
1, 200474, Note_on_c, 0, 78, 83
1, 200474, Note_on_c, 0, 57, 0
1, 200477, Control_c, 0, 64, 127
1, 200477, Note_on_c, 0, 58, 54
1, 200594, Note_on_c, 0, 78, 0
1, 200594, Note_on_c, 0, 79, 81
1, 200715, Note_on_c, 0, 79, 0
1, 200715, Note_on_c, 0, 77, 79
1, 200715, Note_on_c, 0, 58, 0
1, 200718, Note_on_c, 0, 62, 0
1, 200718, Control_c, 0, 64, 0
1, 200718, Note_on_c, 0, 63, 55
1, 200721, Note_on_c, 0, 60, 55
1, 200785, Control_c, 0, 64, 127
1, 200834, Note_on_c, 0, 77, 0
1, 200834, Note_on_c, 0, 75, 76
1, 200956, Note_on_c, 0, 75, 0
1, 200956, Note_on_c, 0, 74, 73
1, 201079, Note_on_c, 0, 74, 0
1, 201079, Note_on_c, 0, 72, 71
1, 201168, Control_c, 0, 64, 0
1, 201205, Note_on_c, 0, 72, 0
1, 201205, Note_on_c, 0, 70, 68
1, 201220, Control_c, 0, 64, 127
1, 201333, Note_on_c, 0, 70, 0
1, 201333, Note_on_c, 0, 69, 65
1, 201471, Note_on_c, 0, 69, 0
1, 201471, Note_on_c, 0, 67, 60
1, 201471, Note_on_c, 0, 60, 0
1, 201474, Note_on_c, 0, 63, 0
1, 201474, Note_on_c, 0, 58, 51
1, 201474, Note_on_c, 0, 50, 51
1, 201501, Control_c, 0, 64, 0
1, 201548, Control_c, 0, 64, 127
1, 201878, Note_on_c, 0, 67, 0
1, 201878, Note_on_c, 0, 69, 56
1, 201928, Control_c, 0, 64, 0
1, 202022, Note_on_c, 0, 69, 0
1, 202022, Note_on_c, 0, 66, 56
1, 202022, Note_on_c, 0, 58, 0
1, 202025, Note_on_c, 0, 57, 44
1, 202310, Note_on_c, 0, 66, 0
1, 202310, Note_on_c, 0, 57, 0
1, 202310, Note_on_c, 0, 50, 0
1, 202909, Note_on_c, 0, 67, 46
1, 202909, Note_on_c, 0, 43, 39
1, 202909, Note_on_c, 0, 55, 39
1, 203058, Note_on_c, 0, 67, 0
1, 203058, Note_on_c, 0, 55, 0
1, 203058, Note_on_c, 0, 43, 0
1, 203208, Note_on_c, 0, 67, 46
1, 203208, Note_on_c, 0, 43, 39
1, 203208, Note_on_c, 0, 55, 39
1, 203349, Note_on_c, 0, 67, 0
1, 203349, Note_on_c, 0, 55, 0
1, 203349, Note_on_c, 0, 43, 0
1, 203773, Note_on_c, 0, 74, 52
1, 203919, Note_on_c, 0, 74, 0
1, 204065, Control_c, 0, 91, 127
1, 204065, Note_on_c, 0, 74, 54
1, 204199, Note_on_c, 0, 74, 0
1, 204332, Note_on_c, 0, 58, 35
1, 204332, Note_on_c, 0, 62, 41
1, 204404, Control_c, 0, 64, 127
1, 204528, Control_c, 0, 64, 0
1, 204600, Note_on_c, 0, 67, 54
1, 204600, Note_on_c, 0, 62, 0
1, 204600, Note_on_c, 0, 58, 0
1, 204854, Note_on_c, 0, 67, 0
1, 204854, Note_on_c, 0, 72, 56
1, 205107, Note_on_c, 0, 72, 0
1, 205107, Note_on_c, 0, 63, 44
1, 205107, Note_on_c, 0, 57, 38
1, 205139, Control_c, 0, 64, 127
1, 205280, Control_c, 0, 64, 0
1, 205375, Note_on_c, 0, 66, 54
1, 205375, Note_on_c, 0, 57, 0
1, 205375, Note_on_c, 0, 63, 0
1, 205629, Note_on_c, 0, 66, 0
1, 205629, Note_on_c, 0, 70, 56
1, 205883, Note_on_c, 0, 70, 0
1, 205883, Note_on_c, 0, 55, 38
1, 205883, Note_on_c, 0, 58, 44
1, 205930, Control_c, 0, 64, 127
1, 206056, Control_c, 0, 64, 0
1, 206152, Note_on_c, 0, 61, 62
1, 206152, Note_on_c, 0, 58, 0
1, 206152, Note_on_c, 0, 55, 0
1, 206407, Note_on_c, 0, 61, 0
1, 206407, Note_on_c, 0, 62, 64
1, 206662, Note_on_c, 0, 62, 0
1, 206662, Note_on_c, 0, 50, 64
1, 206662, Note_on_c, 0, 38, 64
1, 206908, Note_on_c, 0, 67, 95
1, 206908, Note_on_c, 0, 38, 0
1, 206908, Note_on_c, 0, 50, 0
1, 206911, Note_on_c, 0, 58, 77
1, 206911, Note_on_c, 0, 62, 77
1, 206915, Control_c, 0, 64, 127
1, 207026, Note_on_c, 0, 67, 0
1, 207026, Note_on_c, 0, 79, 86
1, 207144, Note_on_c, 0, 79, 0
1, 207144, Note_on_c, 0, 69, 93
1, 207144, Note_on_c, 0, 62, 0
1, 207147, Note_on_c, 0, 58, 0
1, 207147, Control_c, 0, 64, 0
1, 207147, Note_on_c, 0, 63, 70
1, 207150, Note_on_c, 0, 60, 70
1, 207188, Control_c, 0, 64, 127
1, 207259, Note_on_c, 0, 69, 0
1, 207259, Note_on_c, 0, 79, 87
1, 207373, Note_on_c, 0, 79, 0
1, 207373, Note_on_c, 0, 78, 87
1, 207373, Control_c, 0, 64, 0
1, 207413, Control_c, 0, 64, 127
1, 207491, Note_on_c, 0, 78, 0
1, 207491, Note_on_c, 0, 69, 87
1, 207609, Note_on_c, 0, 69, 0
1, 207609, Note_on_c, 0, 67, 91
1, 207609, Note_on_c, 0, 60, 0
1, 207612, Note_on_c, 0, 63, 0
1, 207612, Control_c, 0, 64, 0
1, 207612, Note_on_c, 0, 62, 77
1, 207615, Note_on_c, 0, 58, 77
1, 207648, Control_c, 0, 64, 127
1, 207726, Note_on_c, 0, 67, 0
1, 207726, Note_on_c, 0, 79, 91
1, 207844, Note_on_c, 0, 79, 0
1, 207844, Note_on_c, 0, 69, 88
1, 207844, Note_on_c, 0, 58, 0
1, 207847, Note_on_c, 0, 62, 0
1, 207847, Note_on_c, 0, 60, 69
1, 207847, Note_on_c, 0, 63, 69
1, 207850, Control_c, 0, 64, 0
1, 207898, Control_c, 0, 64, 127
1, 207959, Note_on_c, 0, 69, 0
1, 207959, Note_on_c, 0, 79, 88
1, 208074, Note_on_c, 0, 79, 0
1, 208074, Note_on_c, 0, 78, 88
1, 208085, Control_c, 0, 64, 0
1, 208103, Control_c, 0, 64, 127
1, 208192, Note_on_c, 0, 78, 0
1, 208192, Note_on_c, 0, 69, 88
1, 208265, Control_c, 0, 64, 0
1, 208311, Note_on_c, 0, 69, 0
1, 208311, Note_on_c, 0, 67, 95
1, 208311, Note_on_c, 0, 63, 0
1, 208314, Note_on_c, 0, 60, 0
1, 208314, Control_c, 0, 64, 127
1, 208314, Note_on_c, 0, 62, 72
1, 208317, Note_on_c, 0, 58, 72
1, 208431, Note_on_c, 0, 67, 0
1, 208431, Note_on_c, 0, 79, 95
1, 208551, Note_on_c, 0, 79, 0
1, 208551, Note_on_c, 0, 75, 102
1, 208551, Note_on_c, 0, 58, 0
1, 208554, Note_on_c, 0, 62, 0
1, 208554, Control_c, 0, 64, 0
1, 208554, Note_on_c, 0, 60, 79
1, 208557, Note_on_c, 0, 54, 68
1, 208624, Control_c, 0, 64, 127
1, 208669, Note_on_c, 0, 75, 0
1, 208669, Note_on_c, 0, 87, 91
1, 208787, Note_on_c, 0, 87, 0
1, 208787, Note_on_c, 0, 74, 100
1, 208787, Note_on_c, 0, 60, 0
1, 208790, Note_on_c, 0, 62, 63
1, 208793, Control_c, 0, 64, 0
1, 208848, Control_c, 0, 64, 127
1, 208903, Note_on_c, 0, 74, 0
1, 208903, Note_on_c, 0, 86, 88
1, 208990, Control_c, 0, 64, 0
1, 209018, Note_on_c, 0, 86, 0
1, 209018, Note_on_c, 0, 72, 88
1, 209018, Note_on_c, 0, 62, 0
1, 209021, Note_on_c, 0, 63, 63
1, 209058, Control_c, 0, 64, 127
1, 209139, Note_on_c, 0, 72, 0
1, 209139, Note_on_c, 0, 84, 82
1, 209249, Control_c, 0, 64, 0
1, 209260, Note_on_c, 0, 63, 0
1, 209260, Note_on_c, 0, 54, 0
1, 209260, Note_on_c, 0, 55, 65
1, 209263, Note_on_c, 0, 62, 65
1, 209324, Control_c, 0, 64, 127
1, 209382, Note_on_c, 0, 84, 0
1, 209382, Note_on_c, 0, 82, 79
1, 209503, Note_on_c, 0, 82, 0
1, 209503, Note_on_c, 0, 81, 79
1, 209503, Note_on_c, 0, 55, 0
1, 209506, Note_on_c, 0, 57, 52
1, 209622, Note_on_c, 0, 81, 0
1, 209622, Note_on_c, 0, 79, 79
1, 209736, Control_c, 0, 64, 0
1, 209742, Note_on_c, 0, 79, 0
1, 209742, Note_on_c, 0, 78, 79
1, 209742, Note_on_c, 0, 57, 0
1, 209745, Note_on_c, 0, 58, 53
1, 209771, Control_c, 0, 64, 127
1, 209862, Note_on_c, 0, 78, 0
1, 209862, Note_on_c, 0, 79, 78
1, 209983, Note_on_c, 0, 79, 0
1, 209983, Note_on_c, 0, 77, 77
1, 209983, Note_on_c, 0, 58, 0
1, 209986, Note_on_c, 0, 62, 0
1, 209986, Control_c, 0, 64, 0
1, 209986, Note_on_c, 0, 63, 55
1, 209989, Note_on_c, 0, 60, 55
1, 210038, Control_c, 0, 64, 127
1, 210102, Note_on_c, 0, 77, 0
1, 210102, Note_on_c, 0, 75, 74
1, 210224, Note_on_c, 0, 75, 0
1, 210224, Note_on_c, 0, 74, 72
1, 210347, Note_on_c, 0, 74, 0
1, 210347, Note_on_c, 0, 72, 69
1, 210458, Control_c, 0, 64, 0
1, 210473, Note_on_c, 0, 72, 0
1, 210473, Note_on_c, 0, 70, 64
1, 210503, Control_c, 0, 64, 127
1, 210601, Note_on_c, 0, 70, 0
1, 210601, Note_on_c, 0, 69, 62
1, 210731, Control_c, 0, 64, 0
1, 210739, Note_on_c, 0, 69, 0
1, 210739, Note_on_c, 0, 67, 60
1, 210739, Note_on_c, 0, 60, 0
1, 210742, Note_on_c, 0, 63, 0
1, 210742, Note_on_c, 0, 58, 51
1, 210742, Note_on_c, 0, 50, 51
1, 210824, Control_c, 0, 64, 127
1, 211145, Note_on_c, 0, 67, 0
1, 211145, Note_on_c, 0, 69, 56
1, 211171, Control_c, 0, 64, 0
1, 211289, Note_on_c, 0, 69, 0
1, 211289, Note_on_c, 0, 66, 56
1, 211289, Note_on_c, 0, 58, 0
1, 211292, Note_on_c, 0, 57, 44
1, 211577, Note_on_c, 0, 66, 0
1, 211577, Note_on_c, 0, 57, 0
1, 211577, Note_on_c, 0, 50, 0
1, 212176, Note_on_c, 0, 67, 46
1, 212176, Note_on_c, 0, 43, 39
1, 212176, Note_on_c, 0, 55, 39
1, 212326, Note_on_c, 0, 67, 0
1, 212326, Note_on_c, 0, 55, 0
1, 212326, Note_on_c, 0, 43, 0
1, 212476, Note_on_c, 0, 67, 46
1, 212476, Note_on_c, 0, 43, 39
1, 212476, Note_on_c, 0, 55, 39
1, 212617, Note_on_c, 0, 67, 0
1, 212617, Note_on_c, 0, 55, 0
1, 212617, Note_on_c, 0, 43, 0
1, 213000, Control_c, 0, 64, 127
1, 213041, Note_on_c, 0, 67, 62
1, 213041, Note_on_c, 0, 55, 50
1, 213041, Note_on_c, 0, 59, 50
1, 213292, Note_on_c, 0, 67, 0
1, 213292, Note_on_c, 0, 67, 64
1, 213292, Note_on_c, 0, 59, 0
1, 213295, Note_on_c, 0, 55, 0
1, 213295, Note_on_c, 0, 55, 52
1, 213295, Note_on_c, 0, 59, 52
1, 213699, Control_c, 0, 64, 0
1, 213706, Note_on_c, 0, 67, 0
1, 213706, Note_on_c, 0, 71, 60
1, 213765, Note_on_c, 0, 71, 0
1, 213765, Note_on_c, 0, 69, 63
1, 213765, Note_on_c, 0, 59, 0
1, 213768, Note_on_c, 0, 55, 0
1, 213768, Note_on_c, 0, 55, 47
1, 213768, Note_on_c, 0, 60, 47
1, 214006, Note_on_c, 0, 69, 0
1, 214006, Note_on_c, 0, 62, 64
1, 214006, Note_on_c, 0, 60, 0
1, 214009, Note_on_c, 0, 55, 0
1, 214009, Note_on_c, 0, 55, 50
1, 214009, Note_on_c, 0, 60, 50
1, 214027, Control_c, 0, 64, 127
1, 214231, Control_c, 0, 64, 0
1, 214238, Note_on_c, 0, 62, 0
1, 214238, Note_on_c, 0, 66, 68
1, 214258, Control_c, 0, 64, 127
1, 214349, Note_on_c, 0, 66, 0
1, 214349, Note_on_c, 0, 64, 61
1, 214431, Control_c, 0, 64, 0
1, 214451, Note_on_c, 0, 64, 0
1, 214460, Note_on_c, 0, 67, 70
1, 214460, Note_on_c, 0, 60, 0
1, 214460, Note_on_c, 0, 55, 0
1, 214463, Note_on_c, 0, 55, 52
1, 214463, Note_on_c, 0, 60, 52
1, 214467, Control_c, 0, 64, 127
1, 214571, Note_on_c, 0, 67, 0
1, 214571, Note_on_c, 0, 66, 64
1, 214673, Note_on_c, 0, 66, 0
1, 214683, Note_on_c, 0, 69, 72
1, 214683, Note_on_c, 0, 60, 0
1, 214683, Note_on_c, 0, 55, 0
1, 214686, Control_c, 0, 64, 0
1, 214686, Note_on_c, 0, 55, 54
1, 214686, Note_on_c, 0, 59, 54
1, 214727, Control_c, 0, 64, 127
1, 214792, Note_on_c, 0, 69, 0
1, 214792, Note_on_c, 0, 67, 68
1, 214871, Control_c, 0, 64, 0
1, 214894, Note_on_c, 0, 67, 0
1, 214903, Note_on_c, 0, 72, 76
1, 214915, Control_c, 0, 64, 127
1, 215011, Note_on_c, 0, 72, 0
1, 215011, Note_on_c, 0, 71, 70
1, 215111, Note_on_c, 0, 71, 0
1, 215120, Note_on_c, 0, 74, 77
1, 215120, Note_on_c, 0, 59, 0
1, 215120, Note_on_c, 0, 55, 0
1, 215123, Note_on_c, 0, 55, 45
1, 215123, Note_on_c, 0, 59, 45
1, 215139, Control_c, 0, 64, 0
1, 215178, Control_c, 0, 64, 127
1, 215229, Note_on_c, 0, 74, 0
1, 215229, Note_on_c, 0, 71, 71
1, 215282, Control_c, 0, 64, 0
1, 215334, Note_on_c, 0, 71, 0
1, 215344, Note_on_c, 0, 67, 69
1, 215344, Note_on_c, 0, 59, 0
1, 215344, Note_on_c, 0, 55, 0
1, 215347, Note_on_c, 0, 55, 48
1, 215347, Note_on_c, 0, 59, 48
1, 215350, Control_c, 0, 64, 127
1, 215666, Control_c, 0, 64, 0
1, 215791, Note_on_c, 0, 67, 0
1, 215791, Note_on_c, 0, 62, 71
1, 215791, Note_on_c, 0, 69, 71
1, 215794, Note_on_c, 0, 59, 0
1, 215794, Note_on_c, 0, 55, 0
1, 215794, Note_on_c, 0, 54, 62
1, 215797, Control_c, 0, 64, 127
1, 215945, Control_c, 0, 64, 0
1, 216009, Note_on_c, 0, 69, 0
1, 216009, Note_on_c, 0, 62, 0
1, 216009, Note_on_c, 0, 62, 71
1, 216012, Note_on_c, 0, 70, 71
1, 216012, Note_on_c, 0, 54, 0
1, 216012, Note_on_c, 0, 55, 57
1, 216116, Note_on_c, 0, 70, 0
1, 216116, Note_on_c, 0, 71, 72
1, 216116, Note_on_c, 0, 55, 0
1, 216119, Note_on_c, 0, 56, 61
1, 216221, Note_on_c, 0, 71, 0
1, 216221, Note_on_c, 0, 72, 76
1, 216221, Note_on_c, 0, 56, 0
1, 216224, Note_on_c, 0, 57, 62
1, 216326, Note_on_c, 0, 72, 0
1, 216326, Note_on_c, 0, 73, 77
1, 216326, Note_on_c, 0, 57, 0
1, 216329, Note_on_c, 0, 58, 64
1, 216429, Note_on_c, 0, 73, 0
1, 216429, Note_on_c, 0, 74, 78
1, 216429, Note_on_c, 0, 58, 0
1, 216432, Note_on_c, 0, 59, 68
1, 216483, Control_c, 0, 64, 127
1, 216617, Control_c, 0, 64, 0
1, 216684, Note_on_c, 0, 74, 0
1, 216684, Note_on_c, 0, 62, 0
1, 216684, Note_on_c, 0, 66, 77
1, 216687, Note_on_c, 0, 62, 77
1, 216687, Note_on_c, 0, 74, 77
1, 216687, Note_on_c, 0, 59, 0
1, 216690, Note_on_c, 0, 57, 70
1, 216707, Control_c, 0, 64, 127
1, 216923, Note_on_c, 0, 74, 0
1, 216923, Note_on_c, 0, 72, 78
1, 217061, Control_c, 0, 64, 0
1, 217155, Note_on_c, 0, 72, 0
1, 217155, Note_on_c, 0, 66, 0
1, 217155, Note_on_c, 0, 67, 70
1, 217158, Note_on_c, 0, 71, 70
1, 217158, Note_on_c, 0, 57, 0
1, 217158, Note_on_c, 0, 55, 68
1, 217391, Note_on_c, 0, 71, 0
1, 217391, Note_on_c, 0, 67, 0
1, 217391, Note_on_c, 0, 62, 0
1, 217394, Note_on_c, 0, 67, 78
1, 217394, Note_on_c, 0, 71, 78
1, 217394, Note_on_c, 0, 55, 0
1, 217397, Note_on_c, 0, 50, 71
1, 217405, Control_c, 0, 64, 127
1, 217621, Note_on_c, 0, 71, 0
1, 217621, Note_on_c, 0, 67, 0
1, 217621, Note_on_c, 0, 66, 74
1, 217624, Note_on_c, 0, 69, 74
1, 217645, Control_c, 0, 64, 0
1, 217672, Control_c, 0, 64, 127
1, 217735, Note_on_c, 0, 50, 0
1, 217735, Note_on_c, 0, 52, 70
1, 217792, Note_on_c, 0, 52, 0
1, 217792, Note_on_c, 0, 54, 71
1, 217849, Note_on_c, 0, 69, 0
1, 217849, Note_on_c, 0, 66, 0
1, 217849, Note_on_c, 0, 66, 74
1, 217852, Note_on_c, 0, 69, 74
1, 217852, Note_on_c, 0, 54, 0
1, 217852, Note_on_c, 0, 55, 74
1, 217859, Control_c, 0, 64, 0
1, 217878, Control_c, 0, 64, 127
1, 217906, Note_on_c, 0, 55, 0
1, 217906, Note_on_c, 0, 57, 76
1, 217963, Note_on_c, 0, 57, 0
1, 217963, Note_on_c, 0, 59, 77
1, 218020, Note_on_c, 0, 59, 0
1, 218020, Note_on_c, 0, 61, 78
1, 218077, Note_on_c, 0, 69, 0
1, 218077, Note_on_c, 0, 66, 0
1, 218077, Note_on_c, 0, 66, 74
1, 218080, Note_on_c, 0, 69, 74
1, 218080, Note_on_c, 0, 61, 0
1, 218080, Control_c, 0, 64, 0
1, 218083, Note_on_c, 0, 62, 81
1, 218149, Control_c, 0, 64, 127
1, 218310, Note_on_c, 0, 62, 0
1, 218310, Note_on_c, 0, 60, 72
1, 218487, Control_c, 0, 64, 0
1, 218542, Note_on_c, 0, 69, 0
1, 218542, Note_on_c, 0, 66, 0
1, 218542, Note_on_c, 0, 68, 77
1, 218545, Note_on_c, 0, 71, 77
1, 218545, Note_on_c, 0, 60, 0
1, 218545, Note_on_c, 0, 59, 72
1, 218773, Note_on_c, 0, 71, 0
1, 218773, Note_on_c, 0, 68, 0
1, 218773, Note_on_c, 0, 72, 79
1, 218776, Note_on_c, 0, 59, 0
1, 218776, Note_on_c, 0, 57, 68
1, 218783, Control_c, 0, 64, 127
1, 218830, Note_on_c, 0, 72, 0
1, 218830, Note_on_c, 0, 69, 81
1, 218888, Note_on_c, 0, 69, 0
1, 218888, Note_on_c, 0, 71, 82
1, 218946, Note_on_c, 0, 71, 0
1, 218946, Note_on_c, 0, 72, 83
1, 218981, Control_c, 0, 64, 0
1, 219003, Note_on_c, 0, 72, 0
1, 219003, Note_on_c, 0, 74, 86
1, 219006, Control_c, 0, 64, 127
1, 219061, Note_on_c, 0, 74, 0
1, 219061, Note_on_c, 0, 76, 86
1, 219118, Note_on_c, 0, 76, 0
1, 219118, Note_on_c, 0, 78, 89
1, 219176, Note_on_c, 0, 78, 0
1, 219176, Note_on_c, 0, 80, 90
1, 219234, Note_on_c, 0, 80, 0
1, 219234, Note_on_c, 0, 81, 91
1, 219234, Note_on_c, 0, 57, 0
1, 219237, Note_on_c, 0, 55, 65
1, 219244, Control_c, 0, 64, 0
1, 219267, Control_c, 0, 64, 127
1, 219292, Note_on_c, 0, 81, 0
1, 219292, Note_on_c, 0, 83, 93
1, 219351, Note_on_c, 0, 83, 0
1, 219351, Note_on_c, 0, 84, 95
1, 219409, Note_on_c, 0, 84, 0
1, 219409, Note_on_c, 0, 86, 96
1, 219468, Note_on_c, 0, 86, 0
1, 219468, Note_on_c, 0, 84, 98
1, 219468, Note_on_c, 0, 88, 98
1, 219471, Note_on_c, 0, 55, 0
1, 219471, Note_on_c, 0, 54, 68
1, 219487, Control_c, 0, 64, 0
1, 219516, Control_c, 0, 64, 127
1, 219705, Note_on_c, 0, 88, 0
1, 219705, Note_on_c, 0, 84, 0
1, 219705, Note_on_c, 0, 83, 83
1, 219708, Note_on_c, 0, 86, 83
1, 219889, Control_c, 0, 64, 0
1, 219943, Note_on_c, 0, 86, 0
1, 219943, Note_on_c, 0, 83, 0
1, 219943, Note_on_c, 0, 81, 83
1, 219946, Note_on_c, 0, 84, 83
1, 219946, Note_on_c, 0, 62, 65
1, 219949, Control_c, 0, 64, 127
1, 220059, Note_on_c, 0, 84, 0
1, 220059, Note_on_c, 0, 86, 83
1, 220098, Note_on_c, 0, 86, 0
1, 220098, Note_on_c, 0, 84, 83
1, 220137, Note_on_c, 0, 84, 0
1, 220137, Note_on_c, 0, 83, 83
1, 220148, Control_c, 0, 64, 0
1, 220176, Note_on_c, 0, 83, 0
1, 220176, Note_on_c, 0, 84, 86
1, 220176, Note_on_c, 0, 54, 0
1, 220179, Note_on_c, 0, 55, 68
1, 220213, Control_c, 0, 64, 127
1, 220394, Control_c, 0, 64, 0
1, 220405, Note_on_c, 0, 84, 0
1, 220405, Note_on_c, 0, 81, 0
1, 220405, Note_on_c, 0, 79, 82
1, 220408, Note_on_c, 0, 83, 82
1, 220436, Control_c, 0, 64, 127
1, 220630, Control_c, 0, 64, 0
1, 220634, Note_on_c, 0, 83, 0
1, 220634, Note_on_c, 0, 79, 0
1, 220634, Note_on_c, 0, 86, 81
1, 220637, Note_on_c, 0, 62, 0
1, 220637, Note_on_c, 0, 65, 62
1, 220806, Note_on_c, 0, 86, 0
1, 220806, Note_on_c, 0, 88, 70
1, 220863, Note_on_c, 0, 88, 0
1, 220863, Note_on_c, 0, 86, 81
1, 220863, Note_on_c, 0, 65, 0
1, 220866, Note_on_c, 0, 64, 59
1, 220978, Note_on_c, 0, 86, 0
1, 220978, Note_on_c, 0, 84, 77
1, 221022, Note_on_c, 0, 84, 0
1, 221037, Note_on_c, 0, 86, 69
1, 221096, Note_on_c, 0, 86, 0
1, 221096, Note_on_c, 0, 84, 81
1, 221096, Note_on_c, 0, 64, 0
1, 221099, Note_on_c, 0, 62, 59
1, 221210, Note_on_c, 0, 84, 0
1, 221210, Note_on_c, 0, 83, 77
1, 221253, Note_on_c, 0, 83, 0
1, 221268, Note_on_c, 0, 84, 70
1, 221326, Note_on_c, 0, 84, 0
1, 221326, Note_on_c, 0, 83, 81
1, 221326, Note_on_c, 0, 62, 0
1, 221329, Note_on_c, 0, 60, 59
1, 221440, Note_on_c, 0, 83, 0
1, 221440, Note_on_c, 0, 81, 77
1, 221484, Note_on_c, 0, 81, 0
1, 221499, Note_on_c, 0, 83, 70
1, 221557, Note_on_c, 0, 83, 0
1, 221557, Note_on_c, 0, 81, 81
1, 221557, Note_on_c, 0, 60, 0
1, 221560, Note_on_c, 0, 55, 0
1, 221560, Note_on_c, 0, 55, 59
1, 221560, Note_on_c, 0, 59, 59
1, 221673, Note_on_c, 0, 81, 0
1, 221673, Note_on_c, 0, 79, 77
1, 221717, Note_on_c, 0, 79, 0
1, 221732, Note_on_c, 0, 81, 70
1, 221792, Note_on_c, 0, 81, 0
1, 221792, Note_on_c, 0, 79, 81
1, 221792, Note_on_c, 0, 59, 0
1, 221795, Note_on_c, 0, 57, 56
1, 221908, Note_on_c, 0, 79, 0
1, 221908, Note_on_c, 0, 78, 74
1, 221942, Control_c, 0, 64, 127
1, 222026, Note_on_c, 0, 57, 0
1, 222026, Note_on_c, 0, 60, 56
1, 222113, Control_c, 0, 64, 0
1, 222149, Note_on_c, 0, 78, 0
1, 222149, Note_on_c, 0, 81, 81
1, 222153, Control_c, 0, 64, 127
1, 222272, Note_on_c, 0, 60, 0
1, 222272, Note_on_c, 0, 59, 52
1, 222352, Control_c, 0, 64, 0
1, 222395, Note_on_c, 0, 81, 0
1, 222395, Note_on_c, 0, 79, 78
1, 222416, Control_c, 0, 64, 127
1, 222517, Note_on_c, 0, 59, 0
1, 222517, Note_on_c, 0, 67, 51
1, 222615, Control_c, 0, 64, 0
1, 222640, Note_on_c, 0, 79, 0
1, 222640, Note_on_c, 0, 76, 72
1, 222651, Control_c, 0, 64, 127
1, 222763, Note_on_c, 0, 55, 0
1, 222763, Note_on_c, 0, 57, 47
1, 222857, Control_c, 0, 64, 0
1, 222886, Note_on_c, 0, 76, 0
1, 222886, Note_on_c, 0, 73, 67
1, 222913, Control_c, 0, 64, 127
1, 223014, Note_on_c, 0, 57, 0
1, 223014, Note_on_c, 0, 62, 50
1, 223143, Note_on_c, 0, 73, 0
1, 223143, Note_on_c, 0, 74, 56
1, 223265, Note_on_c, 0, 74, 0
1, 223265, Note_on_c, 0, 76, 61
1, 223265, Note_on_c, 0, 67, 0
1, 223268, Note_on_c, 0, 66, 47
1, 223271, Control_c, 0, 64, 0
1, 223324, Control_c, 0, 64, 127
1, 223388, Note_on_c, 0, 76, 0
1, 223388, Note_on_c, 0, 74, 56
1, 223505, Control_c, 0, 64, 0
1, 223511, Note_on_c, 0, 74, 0
1, 223511, Note_on_c, 0, 76, 61
1, 223511, Note_on_c, 0, 66, 0
1, 223514, Note_on_c, 0, 66, 47
1, 223569, Control_c, 0, 64, 127
1, 223634, Note_on_c, 0, 76, 0
1, 223634, Note_on_c, 0, 74, 56
1, 223764, Note_on_c, 0, 74, 0
1, 223764, Note_on_c, 0, 74, 56
1, 223764, Note_on_c, 0, 66, 0
1, 223767, Note_on_c, 0, 66, 44
1, 223771, Control_c, 0, 64, 0
1, 223814, Control_c, 0, 64, 127
1, 224007, Control_c, 0, 64, 0
1, 224025, Note_on_c, 0, 74, 0
1, 224025, Note_on_c, 0, 66, 0
1, 224025, Note_on_c, 0, 62, 0
1, 224287, Note_on_c, 0, 67, 62
1, 224287, Note_on_c, 0, 55, 50
1, 224287, Note_on_c, 0, 59, 50
1, 224317, Control_c, 0, 64, 127
1, 224538, Note_on_c, 0, 67, 0
1, 224538, Note_on_c, 0, 67, 64
1, 224538, Note_on_c, 0, 59, 0
1, 224541, Note_on_c, 0, 55, 0
1, 224541, Note_on_c, 0, 55, 52
1, 224541, Note_on_c, 0, 59, 52
1, 224951, Note_on_c, 0, 67, 0
1, 224951, Note_on_c, 0, 71, 60
1, 224979, Control_c, 0, 64, 0
1, 225010, Note_on_c, 0, 71, 0
1, 225010, Note_on_c, 0, 69, 63
1, 225010, Note_on_c, 0, 59, 0
1, 225013, Note_on_c, 0, 55, 0
1, 225013, Note_on_c, 0, 55, 47
1, 225013, Note_on_c, 0, 60, 47
1, 225252, Note_on_c, 0, 69, 0
1, 225252, Note_on_c, 0, 62, 64
1, 225252, Note_on_c, 0, 60, 0
1, 225255, Note_on_c, 0, 55, 0
1, 225255, Note_on_c, 0, 55, 50
1, 225255, Note_on_c, 0, 60, 50
1, 225272, Control_c, 0, 64, 127
1, 225473, Control_c, 0, 64, 0
1, 225484, Note_on_c, 0, 62, 0
1, 225484, Note_on_c, 0, 66, 68
1, 225497, Control_c, 0, 64, 127
1, 225595, Note_on_c, 0, 66, 0
1, 225595, Note_on_c, 0, 64, 63
1, 225689, Control_c, 0, 64, 0
1, 225697, Note_on_c, 0, 64, 0
1, 225706, Note_on_c, 0, 67, 72
1, 225706, Note_on_c, 0, 60, 0
1, 225706, Note_on_c, 0, 55, 0
1, 225709, Note_on_c, 0, 55, 52
1, 225709, Note_on_c, 0, 60, 52
1, 225722, Control_c, 0, 64, 127
1, 225816, Note_on_c, 0, 67, 0
1, 225816, Note_on_c, 0, 66, 65
1, 225919, Note_on_c, 0, 66, 0
1, 225928, Note_on_c, 0, 69, 72
1, 225928, Note_on_c, 0, 60, 0
1, 225928, Note_on_c, 0, 55, 0
1, 225931, Control_c, 0, 64, 0
1, 225931, Note_on_c, 0, 55, 54
1, 225931, Note_on_c, 0, 59, 54
1, 225993, Control_c, 0, 64, 127
1, 226038, Note_on_c, 0, 69, 0
1, 226038, Note_on_c, 0, 67, 65
1, 226129, Control_c, 0, 64, 0
1, 226139, Note_on_c, 0, 67, 0
1, 226148, Note_on_c, 0, 72, 76
1, 226180, Control_c, 0, 64, 127
1, 226257, Note_on_c, 0, 72, 0
1, 226257, Note_on_c, 0, 71, 71
1, 226289, Control_c, 0, 64, 0
1, 226340, Control_c, 0, 64, 127
1, 226356, Note_on_c, 0, 71, 0
1, 226365, Note_on_c, 0, 74, 77
1, 226365, Note_on_c, 0, 59, 0
1, 226365, Note_on_c, 0, 55, 0
1, 226368, Note_on_c, 0, 55, 45
1, 226368, Note_on_c, 0, 59, 45
1, 226474, Note_on_c, 0, 74, 0
1, 226474, Note_on_c, 0, 71, 71
1, 226521, Control_c, 0, 64, 0
1, 226579, Note_on_c, 0, 71, 0
1, 226589, Note_on_c, 0, 67, 69
1, 226589, Note_on_c, 0, 59, 0
1, 226589, Note_on_c, 0, 55, 0
1, 226592, Note_on_c, 0, 55, 48
1, 226592, Note_on_c, 0, 59, 48
1, 226596, Control_c, 0, 64, 127
1, 226950, Control_c, 0, 64, 0
1, 227036, Note_on_c, 0, 67, 0
1, 227036, Note_on_c, 0, 62, 71
1, 227036, Note_on_c, 0, 69, 71
1, 227039, Note_on_c, 0, 59, 0
1, 227039, Note_on_c, 0, 55, 0
1, 227039, Note_on_c, 0, 54, 62
1, 227255, Note_on_c, 0, 69, 0
1, 227255, Note_on_c, 0, 62, 0
1, 227255, Note_on_c, 0, 62, 71
1, 227258, Note_on_c, 0, 70, 71
1, 227258, Note_on_c, 0, 54, 0
1, 227258, Note_on_c, 0, 55, 57
1, 227361, Note_on_c, 0, 70, 0
1, 227361, Note_on_c, 0, 71, 72
1, 227361, Note_on_c, 0, 55, 0
1, 227364, Note_on_c, 0, 56, 61
1, 227467, Note_on_c, 0, 71, 0
1, 227467, Note_on_c, 0, 72, 76
1, 227467, Note_on_c, 0, 56, 0
1, 227470, Note_on_c, 0, 57, 62
1, 227571, Note_on_c, 0, 72, 0
1, 227571, Note_on_c, 0, 73, 77
1, 227571, Note_on_c, 0, 57, 0
1, 227574, Note_on_c, 0, 58, 64
1, 227675, Note_on_c, 0, 73, 0
1, 227675, Note_on_c, 0, 74, 78
1, 227675, Note_on_c, 0, 58, 0
1, 227678, Note_on_c, 0, 59, 68
1, 227930, Note_on_c, 0, 74, 0
1, 227930, Note_on_c, 0, 62, 0
1, 227930, Note_on_c, 0, 66, 77
1, 227933, Note_on_c, 0, 62, 77
1, 227933, Note_on_c, 0, 74, 77
1, 227933, Note_on_c, 0, 59, 0
1, 227936, Note_on_c, 0, 57, 70
1, 228004, Control_c, 0, 64, 127
1, 228169, Note_on_c, 0, 74, 0
1, 228169, Note_on_c, 0, 72, 78
1, 228329, Control_c, 0, 64, 0
1, 228400, Note_on_c, 0, 72, 0
1, 228400, Note_on_c, 0, 66, 0
1, 228400, Note_on_c, 0, 67, 71
1, 228403, Note_on_c, 0, 71, 71
1, 228403, Note_on_c, 0, 57, 0
1, 228403, Note_on_c, 0, 55, 68
1, 228423, Control_c, 0, 64, 127
1, 228564, Control_c, 0, 64, 0
1, 228637, Note_on_c, 0, 71, 0
1, 228637, Note_on_c, 0, 67, 0
1, 228637, Note_on_c, 0, 62, 0
1, 228640, Note_on_c, 0, 67, 78
1, 228640, Note_on_c, 0, 71, 78
1, 228640, Note_on_c, 0, 55, 0
1, 228643, Note_on_c, 0, 50, 71
1, 228650, Control_c, 0, 64, 127
1, 228866, Note_on_c, 0, 71, 0
1, 228866, Note_on_c, 0, 67, 0
1, 228866, Note_on_c, 0, 66, 74
1, 228869, Note_on_c, 0, 69, 74
1, 228869, Control_c, 0, 64, 0
1, 228913, Control_c, 0, 64, 127
1, 228980, Note_on_c, 0, 50, 0
1, 228980, Note_on_c, 0, 52, 69
1, 229037, Note_on_c, 0, 52, 0
1, 229037, Note_on_c, 0, 54, 70
1, 229094, Note_on_c, 0, 69, 0
1, 229094, Note_on_c, 0, 66, 0
1, 229094, Note_on_c, 0, 66, 74
1, 229097, Note_on_c, 0, 69, 74
1, 229097, Note_on_c, 0, 54, 0
1, 229097, Note_on_c, 0, 55, 72
1, 229108, Control_c, 0, 64, 0
1, 229127, Control_c, 0, 64, 127
1, 229151, Note_on_c, 0, 55, 0
1, 229151, Note_on_c, 0, 57, 74
1, 229208, Note_on_c, 0, 57, 0
1, 229208, Note_on_c, 0, 59, 77
1, 229265, Note_on_c, 0, 59, 0
1, 229265, Note_on_c, 0, 61, 77
1, 229322, Note_on_c, 0, 69, 0
1, 229322, Note_on_c, 0, 66, 0
1, 229322, Note_on_c, 0, 66, 74
1, 229325, Note_on_c, 0, 69, 74
1, 229325, Note_on_c, 0, 61, 0
1, 229325, Note_on_c, 0, 62, 79
1, 229345, Control_c, 0, 64, 0
1, 229394, Control_c, 0, 64, 127
1, 229555, Note_on_c, 0, 62, 0
1, 229555, Note_on_c, 0, 60, 72
1, 229746, Control_c, 0, 64, 0
1, 229788, Note_on_c, 0, 69, 0
1, 229788, Note_on_c, 0, 66, 0
1, 229788, Note_on_c, 0, 68, 77
1, 229791, Note_on_c, 0, 71, 77
1, 229791, Note_on_c, 0, 60, 0
1, 229791, Note_on_c, 0, 59, 72
1, 229807, Control_c, 0, 64, 127
1, 230018, Note_on_c, 0, 71, 0
1, 230018, Note_on_c, 0, 68, 0
1, 230018, Note_on_c, 0, 72, 83
1, 230021, Note_on_c, 0, 59, 0
1, 230021, Control_c, 0, 64, 0
1, 230021, Note_on_c, 0, 57, 68
1, 230057, Control_c, 0, 64, 127
1, 230076, Note_on_c, 0, 72, 0
1, 230076, Note_on_c, 0, 69, 83
1, 230133, Note_on_c, 0, 69, 0
1, 230133, Note_on_c, 0, 71, 85
1, 230191, Note_on_c, 0, 71, 0
1, 230191, Note_on_c, 0, 72, 86
1, 230246, Control_c, 0, 64, 0
1, 230249, Note_on_c, 0, 72, 0
1, 230249, Note_on_c, 0, 74, 88
1, 230277, Control_c, 0, 64, 127
1, 230306, Note_on_c, 0, 74, 0
1, 230306, Note_on_c, 0, 76, 89
1, 230364, Note_on_c, 0, 76, 0
1, 230364, Note_on_c, 0, 78, 90
1, 230421, Note_on_c, 0, 78, 0
1, 230421, Note_on_c, 0, 80, 90
1, 230479, Note_on_c, 0, 80, 0
1, 230479, Note_on_c, 0, 81, 91
1, 230479, Note_on_c, 0, 57, 0
1, 230482, Note_on_c, 0, 55, 65
1, 230512, Control_c, 0, 64, 0
1, 230538, Note_on_c, 0, 81, 0
1, 230538, Note_on_c, 0, 83, 93
1, 230538, Control_c, 0, 64, 127
1, 230596, Note_on_c, 0, 83, 0
1, 230596, Note_on_c, 0, 84, 95
1, 230655, Note_on_c, 0, 84, 0
1, 230655, Note_on_c, 0, 86, 96
1, 230707, Control_c, 0, 64, 0
1, 230713, Note_on_c, 0, 86, 0
1, 230713, Note_on_c, 0, 84, 97
1, 230713, Note_on_c, 0, 88, 97
1, 230716, Note_on_c, 0, 55, 0
1, 230716, Note_on_c, 0, 54, 68
1, 230770, Control_c, 0, 64, 127
1, 230951, Note_on_c, 0, 88, 0
1, 230951, Note_on_c, 0, 84, 0
1, 230951, Note_on_c, 0, 83, 83
1, 230954, Note_on_c, 0, 86, 83
1, 230957, Control_c, 0, 64, 0
1, 231010, Control_c, 0, 64, 127
1, 231140, Control_c, 0, 64, 0
1, 231189, Note_on_c, 0, 86, 0
1, 231189, Note_on_c, 0, 83, 0
1, 231189, Note_on_c, 0, 81, 83
1, 231192, Note_on_c, 0, 84, 83
1, 231192, Note_on_c, 0, 62, 65
1, 231305, Note_on_c, 0, 84, 0
1, 231305, Note_on_c, 0, 86, 83
1, 231344, Note_on_c, 0, 86, 0
1, 231344, Note_on_c, 0, 84, 83
1, 231382, Note_on_c, 0, 84, 0
1, 231382, Note_on_c, 0, 83, 83
1, 231421, Note_on_c, 0, 83, 0
1, 231421, Note_on_c, 0, 84, 86
1, 231421, Note_on_c, 0, 54, 0
1, 231424, Note_on_c, 0, 55, 68
1, 231435, Control_c, 0, 64, 127
1, 231637, Control_c, 0, 64, 0
1, 231651, Note_on_c, 0, 84, 0
1, 231651, Note_on_c, 0, 81, 0
1, 231651, Note_on_c, 0, 79, 82
1, 231654, Note_on_c, 0, 83, 82
1, 231664, Control_c, 0, 64, 127
1, 231853, Control_c, 0, 64, 0
1, 231880, Note_on_c, 0, 83, 0
1, 231880, Note_on_c, 0, 79, 0
1, 231880, Note_on_c, 0, 86, 81
1, 231883, Note_on_c, 0, 62, 0
1, 231883, Note_on_c, 0, 65, 62
1, 232052, Note_on_c, 0, 86, 0
1, 232052, Note_on_c, 0, 88, 70
1, 232109, Note_on_c, 0, 88, 0
1, 232109, Note_on_c, 0, 86, 81
1, 232109, Note_on_c, 0, 65, 0
1, 232112, Note_on_c, 0, 64, 59
1, 232224, Note_on_c, 0, 86, 0
1, 232224, Note_on_c, 0, 84, 77
1, 232268, Note_on_c, 0, 84, 0
1, 232282, Note_on_c, 0, 86, 69
1, 232341, Note_on_c, 0, 86, 0
1, 232341, Note_on_c, 0, 84, 81
1, 232341, Note_on_c, 0, 64, 0
1, 232344, Note_on_c, 0, 62, 59
1, 232455, Note_on_c, 0, 84, 0
1, 232455, Note_on_c, 0, 83, 77
1, 232499, Note_on_c, 0, 83, 0
1, 232513, Note_on_c, 0, 84, 70
1, 232572, Note_on_c, 0, 84, 0
1, 232572, Note_on_c, 0, 83, 81
1, 232572, Note_on_c, 0, 62, 0
1, 232575, Note_on_c, 0, 60, 59
1, 232686, Note_on_c, 0, 83, 0
1, 232686, Note_on_c, 0, 81, 77
1, 232730, Note_on_c, 0, 81, 0
1, 232744, Note_on_c, 0, 83, 70
1, 232803, Note_on_c, 0, 83, 0
1, 232803, Note_on_c, 0, 81, 81
1, 232803, Note_on_c, 0, 60, 0
1, 232806, Note_on_c, 0, 55, 0
1, 232806, Note_on_c, 0, 55, 59
1, 232806, Note_on_c, 0, 59, 59
1, 232918, Note_on_c, 0, 81, 0
1, 232918, Note_on_c, 0, 79, 77
1, 232963, Note_on_c, 0, 79, 0
1, 232978, Note_on_c, 0, 81, 70
1, 233037, Note_on_c, 0, 81, 0
1, 233037, Note_on_c, 0, 79, 81
1, 233037, Note_on_c, 0, 59, 0
1, 233040, Note_on_c, 0, 57, 56
1, 233153, Note_on_c, 0, 79, 0
1, 233153, Note_on_c, 0, 78, 74
1, 233174, Control_c, 0, 64, 127
1, 233272, Note_on_c, 0, 57, 0
1, 233272, Note_on_c, 0, 60, 56
1, 233373, Control_c, 0, 64, 0
1, 233395, Note_on_c, 0, 78, 0
1, 233395, Note_on_c, 0, 81, 81
1, 233413, Control_c, 0, 64, 127
1, 233517, Note_on_c, 0, 60, 0
1, 233517, Note_on_c, 0, 59, 52
1, 233636, Control_c, 0, 64, 0
1, 233640, Note_on_c, 0, 81, 0
1, 233640, Note_on_c, 0, 79, 78
1, 233669, Control_c, 0, 64, 127
1, 233763, Note_on_c, 0, 59, 0
1, 233763, Note_on_c, 0, 67, 51
1, 233879, Control_c, 0, 64, 0
1, 233886, Note_on_c, 0, 79, 0
1, 233886, Note_on_c, 0, 76, 72
1, 233914, Control_c, 0, 64, 127
1, 234008, Note_on_c, 0, 55, 0
1, 234008, Note_on_c, 0, 57, 47
1, 234088, Control_c, 0, 64, 0
1, 234120, Control_c, 0, 64, 127
1, 234131, Note_on_c, 0, 76, 0
1, 234131, Note_on_c, 0, 73, 67
1, 234260, Note_on_c, 0, 57, 0
1, 234260, Note_on_c, 0, 62, 50
1, 234388, Note_on_c, 0, 73, 0
1, 234388, Note_on_c, 0, 74, 56
1, 234487, Control_c, 0, 64, 0
1, 234511, Note_on_c, 0, 74, 0
1, 234511, Note_on_c, 0, 76, 61
1, 234511, Note_on_c, 0, 67, 0
1, 234514, Note_on_c, 0, 66, 47
1, 234522, Control_c, 0, 64, 127
1, 234634, Note_on_c, 0, 76, 0
1, 234634, Note_on_c, 0, 74, 56
1, 234750, Control_c, 0, 64, 0
1, 234756, Note_on_c, 0, 74, 0
1, 234756, Note_on_c, 0, 76, 61
1, 234756, Note_on_c, 0, 66, 0
1, 234759, Note_on_c, 0, 66, 47
1, 234797, Control_c, 0, 64, 127
1, 234879, Note_on_c, 0, 76, 0
1, 234879, Note_on_c, 0, 74, 56
1, 235010, Note_on_c, 0, 74, 0
1, 235010, Note_on_c, 0, 74, 56
1, 235010, Note_on_c, 0, 66, 0
1, 235013, Note_on_c, 0, 66, 44
1, 235041, Control_c, 0, 64, 0
1, 235072, Control_c, 0, 64, 127
1, 235209, Control_c, 0, 64, 0
1, 235271, Note_on_c, 0, 74, 0
1, 235271, Note_on_c, 0, 66, 0
1, 235271, Note_on_c, 0, 62, 0
1, 235532, Note_on_c, 0, 79, 61
1, 235532, Note_on_c, 0, 71, 52
1, 235532, Note_on_c, 0, 74, 52
1, 235585, Control_c, 0, 64, 127
1, 235762, Control_c, 0, 64, 0
1, 235808, Note_on_c, 0, 79, 0
1, 235808, Note_on_c, 0, 78, 61
1, 235808, Note_on_c, 0, 74, 0
1, 235811, Note_on_c, 0, 71, 0
1, 235811, Control_c, 0, 64, 127
1, 235811, Note_on_c, 0, 71, 56
1, 235814, Note_on_c, 0, 74, 56
1, 235929, Note_on_c, 0, 78, 0
1, 235929, Note_on_c, 0, 79, 61
1, 236000, Control_c, 0, 64, 0
1, 236019, Note_on_c, 0, 79, 0
1, 236049, Note_on_c, 0, 81, 64
1, 236056, Control_c, 0, 64, 127
1, 236170, Note_on_c, 0, 81, 0
1, 236170, Note_on_c, 0, 79, 61
1, 236242, Control_c, 0, 64, 0
1, 236261, Note_on_c, 0, 79, 0
1, 236291, Note_on_c, 0, 81, 65
1, 236291, Note_on_c, 0, 74, 0
1, 236291, Note_on_c, 0, 71, 0
1, 236294, Control_c, 0, 64, 127
1, 236294, Note_on_c, 0, 72, 52
1, 236294, Note_on_c, 0, 76, 52
1, 236409, Note_on_c, 0, 81, 0
1, 236409, Note_on_c, 0, 79, 61
1, 236498, Note_on_c, 0, 79, 0
1, 236514, Control_c, 0, 64, 0
1, 236527, Note_on_c, 0, 81, 65
1, 236527, Note_on_c, 0, 76, 0
1, 236527, Note_on_c, 0, 72, 0
1, 236530, Note_on_c, 0, 71, 57
1, 236530, Note_on_c, 0, 74, 57
1, 236541, Control_c, 0, 64, 127
1, 236646, Note_on_c, 0, 81, 0
1, 236646, Note_on_c, 0, 79, 61
1, 236729, Control_c, 0, 64, 0
1, 236734, Note_on_c, 0, 79, 0
1, 236764, Note_on_c, 0, 79, 65
1, 236764, Note_on_c, 0, 74, 0
1, 236764, Note_on_c, 0, 71, 0
1, 236767, Note_on_c, 0, 69, 52
1, 236767, Note_on_c, 0, 72, 52
1, 236771, Control_c, 0, 64, 127
1, 236881, Note_on_c, 0, 79, 0
1, 236881, Note_on_c, 0, 78, 61
1, 236957, Control_c, 0, 64, 0
1, 236969, Note_on_c, 0, 78, 0
1, 236998, Note_on_c, 0, 78, 64
1, 236998, Note_on_c, 0, 72, 0
1, 236998, Note_on_c, 0, 69, 0
1, 237001, Note_on_c, 0, 67, 52
1, 237001, Note_on_c, 0, 71, 52
1, 237011, Control_c, 0, 64, 127
1, 237115, Note_on_c, 0, 78, 0
1, 237115, Note_on_c, 0, 76, 61
1, 237156, Control_c, 0, 64, 0
1, 237203, Note_on_c, 0, 76, 0
1, 237232, Note_on_c, 0, 76, 67
1, 237232, Note_on_c, 0, 71, 0
1, 237232, Note_on_c, 0, 67, 0
1, 237235, Control_c, 0, 64, 127
1, 237235, Note_on_c, 0, 66, 59
1, 237235, Note_on_c, 0, 69, 59
1, 237350, Note_on_c, 0, 76, 0
1, 237350, Note_on_c, 0, 74, 63
1, 237405, Control_c, 0, 64, 0
1, 237439, Note_on_c, 0, 74, 0
1, 237468, Note_on_c, 0, 74, 62
1, 237526, Note_on_c, 0, 74, 0
1, 237585, Note_on_c, 0, 74, 63
1, 237643, Note_on_c, 0, 74, 0
1, 237701, Note_on_c, 0, 74, 64
1, 237701, Note_on_c, 0, 69, 0
1, 237701, Note_on_c, 0, 66, 0
1, 237704, Note_on_c, 0, 66, 52
1, 237704, Note_on_c, 0, 69, 52
1, 237759, Note_on_c, 0, 74, 0
1, 237817, Note_on_c, 0, 74, 65
1, 237876, Note_on_c, 0, 74, 0
1, 237934, Note_on_c, 0, 76, 71
1, 237934, Note_on_c, 0, 69, 0
1, 237934, Note_on_c, 0, 66, 0
1, 237937, Note_on_c, 0, 66, 63
1, 237937, Note_on_c, 0, 69, 63
1, 237975, Control_c, 0, 64, 127
1, 238050, Note_on_c, 0, 76, 0
1, 238050, Note_on_c, 0, 75, 67
1, 238102, Control_c, 0, 64, 0
1, 238167, Note_on_c, 0, 75, 0
1, 238167, Note_on_c, 0, 75, 67
1, 238224, Note_on_c, 0, 75, 0
1, 238282, Note_on_c, 0, 75, 67
1, 238339, Note_on_c, 0, 75, 0
1, 238397, Note_on_c, 0, 75, 67
1, 238397, Note_on_c, 0, 69, 0
1, 238397, Note_on_c, 0, 66, 0
1, 238400, Note_on_c, 0, 66, 61
1, 238400, Note_on_c, 0, 69, 61
1, 238455, Note_on_c, 0, 75, 0
1, 238512, Note_on_c, 0, 75, 67
1, 238570, Note_on_c, 0, 75, 0
1, 238627, Note_on_c, 0, 75, 72
1, 238627, Note_on_c, 0, 69, 0
1, 238627, Note_on_c, 0, 66, 0
1, 238630, Note_on_c, 0, 67, 69
1, 238630, Note_on_c, 0, 71, 69
1, 238700, Control_c, 0, 64, 127
1, 238744, Note_on_c, 0, 75, 0
1, 238744, Note_on_c, 0, 76, 69
1, 238812, Control_c, 0, 64, 0
1, 238851, Control_c, 0, 64, 127
1, 238861, Note_on_c, 0, 76, 0
1, 238861, Note_on_c, 0, 78, 69
1, 238978, Note_on_c, 0, 78, 0
1, 238978, Note_on_c, 0, 76, 69
1, 239051, Control_c, 0, 64, 0
1, 239085, Control_c, 0, 64, 127
1, 239095, Note_on_c, 0, 76, 0
1, 239095, Note_on_c, 0, 79, 72
1, 239212, Note_on_c, 0, 79, 0
1, 239212, Note_on_c, 0, 78, 69
1, 239326, Control_c, 0, 64, 0
1, 239337, Note_on_c, 0, 78, 0
1, 239337, Note_on_c, 0, 81, 70
1, 239337, Note_on_c, 0, 71, 0
1, 239340, Note_on_c, 0, 67, 0
1, 239340, Note_on_c, 0, 57, 62
1, 239340, Note_on_c, 0, 64, 62
1, 239343, Note_on_c, 0, 67, 62
1, 239365, Control_c, 0, 64, 127
1, 239454, Note_on_c, 0, 81, 0
1, 239454, Note_on_c, 0, 79, 71
1, 239570, Note_on_c, 0, 79, 0
1, 239570, Note_on_c, 0, 78, 73
1, 239686, Note_on_c, 0, 78, 0
1, 239686, Note_on_c, 0, 76, 76
1, 239763, Control_c, 0, 64, 0
1, 239796, Control_c, 0, 64, 127
1, 239802, Note_on_c, 0, 76, 0
1, 239802, Note_on_c, 0, 74, 78
1, 239917, Note_on_c, 0, 74, 0
1, 239917, Note_on_c, 0, 73, 81
1, 239976, Control_c, 0, 64, 0
1, 240040, Note_on_c, 0, 73, 0
1, 240040, Note_on_c, 0, 74, 106
1, 240040, Note_on_c, 0, 67, 0
1, 240043, Note_on_c, 0, 64, 0
1, 240043, Note_on_c, 0, 57, 0
1, 240047, Control_c, 0, 64, 127
1, 240156, Note_on_c, 0, 74, 0
1, 240156, Note_on_c, 0, 86, 89
1, 240234, Control_c, 0, 64, 0
1, 240272, Note_on_c, 0, 86, 0
1, 240272, Note_on_c, 0, 74, 82
1, 240272, Note_on_c, 0, 54, 65
1, 240275, Note_on_c, 0, 50, 65
1, 240330, Note_on_c, 0, 74, 0
1, 240388, Note_on_c, 0, 74, 82
1, 240445, Note_on_c, 0, 74, 0
1, 240503, Note_on_c, 0, 74, 82
1, 240503, Note_on_c, 0, 50, 0
1, 240503, Note_on_c, 0, 54, 0
1, 240506, Note_on_c, 0, 55, 67
1, 240506, Note_on_c, 0, 52, 67
1, 240561, Note_on_c, 0, 74, 0
1, 240619, Note_on_c, 0, 74, 82
1, 240619, Note_on_c, 0, 52, 0
1, 240619, Note_on_c, 0, 55, 0
1, 240677, Note_on_c, 0, 74, 0
1, 240735, Note_on_c, 0, 74, 108
1, 240755, Control_c, 0, 64, 127
1, 240851, Note_on_c, 0, 74, 0
1, 240851, Note_on_c, 0, 86, 89
1, 240939, Control_c, 0, 64, 0
1, 240966, Note_on_c, 0, 86, 0
1, 240966, Note_on_c, 0, 74, 82
1, 240966, Note_on_c, 0, 57, 64
1, 240969, Note_on_c, 0, 54, 64
1, 241024, Note_on_c, 0, 74, 0
1, 241082, Note_on_c, 0, 74, 82
1, 241140, Note_on_c, 0, 74, 0
1, 241198, Note_on_c, 0, 74, 82
1, 241198, Note_on_c, 0, 54, 0
1, 241198, Note_on_c, 0, 57, 0
1, 241201, Note_on_c, 0, 55, 65
1, 241201, Note_on_c, 0, 59, 65
1, 241256, Note_on_c, 0, 74, 0
1, 241314, Note_on_c, 0, 74, 82
1, 241314, Note_on_c, 0, 59, 0
1, 241314, Note_on_c, 0, 55, 0
1, 241372, Note_on_c, 0, 74, 0
1, 241430, Note_on_c, 0, 74, 106
1, 241441, Control_c, 0, 64, 127
1, 241491, Note_on_c, 0, 74, 0
1, 241491, Note_on_c, 0, 78, 79
1, 241552, Note_on_c, 0, 78, 0
1, 241552, Note_on_c, 0, 81, 83
1, 241613, Note_on_c, 0, 81, 0
1, 241613, Note_on_c, 0, 86, 77
1, 241648, Control_c, 0, 64, 0
1, 241674, Note_on_c, 0, 86, 0
1, 241674, Note_on_c, 0, 74, 85
1, 241674, Note_on_c, 0, 57, 65
1, 241677, Note_on_c, 0, 60, 65
1, 241732, Note_on_c, 0, 74, 0
1, 241790, Note_on_c, 0, 74, 79
1, 241848, Note_on_c, 0, 74, 0
1, 241905, Note_on_c, 0, 74, 79
1, 241905, Note_on_c, 0, 60, 0
1, 241905, Note_on_c, 0, 57, 0
1, 241908, Note_on_c, 0, 55, 67
1, 241908, Note_on_c, 0, 59, 67
1, 241963, Note_on_c, 0, 74, 0
1, 242021, Note_on_c, 0, 74, 79
1, 242021, Note_on_c, 0, 59, 0
1, 242021, Note_on_c, 0, 55, 0
1, 242079, Note_on_c, 0, 74, 0
1, 242137, Note_on_c, 0, 74, 103
1, 242162, Control_c, 0, 64, 127
1, 242196, Note_on_c, 0, 74, 0
1, 242196, Note_on_c, 0, 78, 74
1, 242256, Note_on_c, 0, 78, 0
1, 242256, Note_on_c, 0, 81, 81
1, 242315, Note_on_c, 0, 81, 0
1, 242315, Note_on_c, 0, 86, 72
1, 242361, Control_c, 0, 64, 0
1, 242375, Note_on_c, 0, 86, 0
1, 242375, Note_on_c, 0, 74, 79
1, 242375, Note_on_c, 0, 54, 62
1, 242378, Note_on_c, 0, 57, 62
1, 242433, Note_on_c, 0, 74, 0
1, 242491, Note_on_c, 0, 74, 79
1, 242548, Note_on_c, 0, 74, 0
1, 242606, Note_on_c, 0, 74, 79
1, 242606, Note_on_c, 0, 57, 0
1, 242606, Note_on_c, 0, 54, 0
1, 242609, Note_on_c, 0, 55, 62
1, 242609, Note_on_c, 0, 52, 62
1, 242664, Note_on_c, 0, 74, 0
1, 242722, Note_on_c, 0, 74, 79
1, 242722, Note_on_c, 0, 52, 0
1, 242722, Note_on_c, 0, 55, 0
1, 242780, Note_on_c, 0, 74, 0
1, 242838, Note_on_c, 0, 74, 102
1, 242838, Note_on_c, 0, 50, 62
1, 242838, Note_on_c, 0, 54, 62
1, 242845, Control_c, 0, 64, 127
1, 242954, Note_on_c, 0, 74, 0
1, 242954, Note_on_c, 0, 86, 81
1, 243039, Control_c, 0, 64, 0
1, 243069, Note_on_c, 0, 86, 0
1, 243069, Note_on_c, 0, 86, 79
1, 243069, Note_on_c, 0, 54, 0
1, 243072, Note_on_c, 0, 50, 0
1, 243072, Note_on_c, 0, 66, 61
1, 243072, Note_on_c, 0, 62, 61
1, 243127, Note_on_c, 0, 86, 0
1, 243185, Note_on_c, 0, 86, 79
1, 243243, Note_on_c, 0, 86, 0
1, 243301, Note_on_c, 0, 86, 79
1, 243301, Note_on_c, 0, 62, 0
1, 243301, Note_on_c, 0, 66, 0
1, 243304, Note_on_c, 0, 67, 59
1, 243304, Note_on_c, 0, 64, 59
1, 243359, Note_on_c, 0, 86, 0
1, 243417, Note_on_c, 0, 86, 79
1, 243475, Note_on_c, 0, 86, 0
1, 243533, Note_on_c, 0, 85, 93
1, 243533, Note_on_c, 0, 64, 0
1, 243533, Note_on_c, 0, 67, 0
1, 243570, Control_c, 0, 64, 127
1, 243648, Note_on_c, 0, 85, 0
1, 243648, Note_on_c, 0, 86, 81
1, 243754, Control_c, 0, 64, 0
1, 243764, Note_on_c, 0, 86, 0
1, 243764, Note_on_c, 0, 86, 79
1, 243764, Note_on_c, 0, 69, 60
1, 243767, Note_on_c, 0, 66, 60
1, 243822, Note_on_c, 0, 86, 0
1, 243880, Note_on_c, 0, 86, 79
1, 243938, Note_on_c, 0, 86, 0
1, 243996, Note_on_c, 0, 86, 79
1, 243996, Note_on_c, 0, 66, 0
1, 243996, Note_on_c, 0, 69, 0
1, 243999, Note_on_c, 0, 67, 59
1, 243999, Note_on_c, 0, 70, 59
1, 244054, Note_on_c, 0, 86, 0
1, 244112, Note_on_c, 0, 86, 79
1, 244170, Note_on_c, 0, 86, 0
1, 244227, Note_on_c, 0, 87, 99
1, 244227, Note_on_c, 0, 70, 0
1, 244227, Note_on_c, 0, 67, 0
1, 244241, Control_c, 0, 64, 127
1, 244343, Note_on_c, 0, 87, 0
1, 244343, Note_on_c, 0, 86, 81
1, 244384, Control_c, 0, 64, 0
1, 244459, Note_on_c, 0, 86, 0
1, 244459, Note_on_c, 0, 86, 79
1, 244459, Note_on_c, 0, 72, 57
1, 244462, Note_on_c, 0, 69, 57
1, 244516, Note_on_c, 0, 86, 0
1, 244574, Note_on_c, 0, 86, 79
1, 244631, Note_on_c, 0, 86, 0
1, 244688, Note_on_c, 0, 86, 79
1, 244688, Note_on_c, 0, 69, 0
1, 244688, Note_on_c, 0, 72, 0
1, 244691, Note_on_c, 0, 70, 53
1, 244691, Note_on_c, 0, 67, 53
1, 244746, Note_on_c, 0, 86, 0
1, 244803, Note_on_c, 0, 86, 79
1, 244860, Note_on_c, 0, 86, 0
1, 244917, Note_on_c, 0, 85, 91
1, 244917, Note_on_c, 0, 67, 0
1, 244917, Note_on_c, 0, 70, 0
1, 244928, Control_c, 0, 64, 127
1, 245033, Note_on_c, 0, 85, 0
1, 245033, Note_on_c, 0, 86, 81
1, 245115, Control_c, 0, 64, 0
1, 245149, Note_on_c, 0, 86, 0
1, 245149, Note_on_c, 0, 86, 79
1, 245149, Note_on_c, 0, 69, 54
1, 245152, Note_on_c, 0, 66, 54
1, 245207, Note_on_c, 0, 86, 0
1, 245265, Note_on_c, 0, 86, 79
1, 245323, Note_on_c, 0, 86, 0
1, 245381, Note_on_c, 0, 86, 79
1, 245381, Note_on_c, 0, 66, 0
1, 245381, Note_on_c, 0, 69, 0
1, 245384, Note_on_c, 0, 64, 52
1, 245384, Note_on_c, 0, 67, 52
1, 245439, Note_on_c, 0, 86, 0
1, 245496, Note_on_c, 0, 86, 79
1, 245554, Note_on_c, 0, 86, 0
1, 245612, Note_on_c, 0, 86, 80
1, 245612, Note_on_c, 0, 67, 0
1, 245612, Note_on_c, 0, 64, 0
1, 245615, Note_on_c, 0, 62, 54
1, 245615, Note_on_c, 0, 66, 54
1, 245671, Note_on_c, 0, 86, 0
1, 245730, Note_on_c, 0, 86, 80
1, 245789, Note_on_c, 0, 86, 0
1, 245847, Note_on_c, 0, 86, 80
1, 245906, Note_on_c, 0, 86, 0
1, 245965, Note_on_c, 0, 86, 79
1, 246024, Note_on_c, 0, 86, 0
1, 246083, Note_on_c, 0, 86, 77
1, 246083, Note_on_c, 0, 66, 0
1, 246083, Note_on_c, 0, 62, 0
1, 246141, Note_on_c, 0, 86, 0
1, 246200, Note_on_c, 0, 86, 77
1, 246259, Note_on_c, 0, 86, 0
1, 246318, Note_on_c, 0, 86, 74
1, 246439, Note_on_c, 0, 86, 0
1, 246561, Note_on_c, 0, 86, 72
1, 246682, Note_on_c, 0, 86, 0
1, 246804, Note_on_c, 0, 86, 72
1, 246925, Note_on_c, 0, 86, 0
1, 247046, Note_on_c, 0, 84, 71
1, 247046, Note_on_c, 0, 86, 71
1, 247173, Note_on_c, 0, 86, 0
1, 247173, Note_on_c, 0, 84, 0
1, 247299, Note_on_c, 0, 84, 69
1, 247299, Note_on_c, 0, 86, 69
1, 247425, Note_on_c, 0, 86, 0
1, 247425, Note_on_c, 0, 84, 0
1, 247551, Note_on_c, 0, 84, 69
1, 247551, Note_on_c, 0, 86, 69
1, 247677, Note_on_c, 0, 86, 0
1, 247677, Note_on_c, 0, 84, 0
1, 247804, Note_on_c, 0, 84, 65
1, 247804, Note_on_c, 0, 86, 65
1, 247804, Note_on_c, 0, 81, 48
1, 248003, Note_on_c, 0, 86, 0
1, 248003, Note_on_c, 0, 84, 0
1, 248003, Note_on_c, 0, 81, 0
1, 248070, Note_on_c, 0, 84, 63
1, 248070, Note_on_c, 0, 86, 63
1, 248070, Note_on_c, 0, 81, 46
1, 248269, Note_on_c, 0, 86, 0
1, 248269, Note_on_c, 0, 84, 0
1, 248269, Note_on_c, 0, 81, 0
1, 248335, Note_on_c, 0, 84, 63
1, 248335, Note_on_c, 0, 86, 63
1, 248335, Note_on_c, 0, 81, 46
1, 248535, Note_on_c, 0, 86, 0
1, 248535, Note_on_c, 0, 84, 0
1, 248535, Note_on_c, 0, 81, 0
1, 248601, Note_on_c, 0, 84, 60
1, 248601, Note_on_c, 0, 86, 60
1, 248601, Control_c, 0, 64, 127
1, 248604, Note_on_c, 0, 78, 39
1, 248604, Note_on_c, 0, 81, 39
1, 248879, Note_on_c, 0, 86, 0
1, 248879, Note_on_c, 0, 84, 0
1, 248879, Note_on_c, 0, 84, 57
1, 248882, Note_on_c, 0, 86, 57
1, 248882, Note_on_c, 0, 81, 0
1, 248882, Note_on_c, 0, 78, 0
1, 248885, Note_on_c, 0, 78, 38
1, 248885, Note_on_c, 0, 81, 38
1, 249156, Note_on_c, 0, 86, 0
1, 249156, Note_on_c, 0, 84, 0
1, 249156, Note_on_c, 0, 84, 54
1, 249159, Note_on_c, 0, 86, 54
1, 249159, Note_on_c, 0, 81, 0
1, 249159, Note_on_c, 0, 78, 0
1, 249162, Note_on_c, 0, 78, 36
1, 249162, Note_on_c, 0, 81, 36
1, 249518, Note_on_c, 0, 86, 0
1, 249518, Note_on_c, 0, 84, 0
1, 249518, Note_on_c, 0, 84, 52
1, 249521, Note_on_c, 0, 86, 52
1, 249521, Note_on_c, 0, 81, 0
1, 249521, Note_on_c, 0, 78, 0
1, 249524, Note_on_c, 0, 78, 34
1, 249524, Note_on_c, 0, 81, 34
1, 250472, Control_c, 0, 64, 0
1, 250605, Note_on_c, 0, 86, 0
1, 250605, Note_on_c, 0, 84, 0
1, 250605, Note_on_c, 0, 81, 0
1, 250608, Note_on_c, 0, 78, 0
1, 251394, Control_c, 0, 64, 127
1, 251437, Note_on_c, 0, 72, 46
1, 251437, Note_on_c, 0, 74, 46
1, 251437, Note_on_c, 0, 66, 34
1, 251440, Note_on_c, 0, 69, 34
1, 251821, Note_on_c, 0, 74, 0
1, 251821, Note_on_c, 0, 72, 0
1, 251821, Note_on_c, 0, 74, 46
1, 251824, Note_on_c, 0, 72, 46
1, 251824, Note_on_c, 0, 69, 0
1, 251824, Note_on_c, 0, 66, 0
1, 251827, Note_on_c, 0, 66, 34
1, 251827, Note_on_c, 0, 69, 34
1, 252342, Control_c, 0, 64, 0
1, 253069, Note_on_c, 0, 72, 0
1, 253069, Note_on_c, 0, 74, 0
1, 253069, Note_on_c, 0, 67, 65
1, 253072, Note_on_c, 0, 69, 0
1, 253072, Note_on_c, 0, 66, 0
1, 253072, Note_on_c, 0, 55, 55
1, 253075, Note_on_c, 0, 59, 55
1, 253110, Control_c, 0, 64, 127
1, 253329, Note_on_c, 0, 67, 0
1, 253329, Note_on_c, 0, 67, 69
1, 253329, Note_on_c, 0, 59, 0
1, 253332, Note_on_c, 0, 55, 0
1, 253332, Note_on_c, 0, 55, 57
1, 253332, Note_on_c, 0, 59, 57
1, 253661, Control_c, 0, 64, 0
1, 253749, Note_on_c, 0, 67, 0
1, 253749, Note_on_c, 0, 71, 67
1, 253809, Note_on_c, 0, 71, 0
1, 253809, Note_on_c, 0, 69, 67
1, 253809, Note_on_c, 0, 59, 0
1, 253812, Note_on_c, 0, 55, 0
1, 253812, Note_on_c, 0, 55, 55
1, 253812, Note_on_c, 0, 60, 55
1, 254051, Note_on_c, 0, 69, 0
1, 254051, Note_on_c, 0, 62, 69
1, 254051, Note_on_c, 0, 60, 0
1, 254054, Note_on_c, 0, 55, 0
1, 254054, Note_on_c, 0, 55, 57
1, 254054, Note_on_c, 0, 60, 57
1, 254094, Control_c, 0, 64, 127
1, 254286, Note_on_c, 0, 62, 0
1, 254286, Note_on_c, 0, 64, 64
1, 254497, Control_c, 0, 64, 0
1, 254537, Note_on_c, 0, 64, 0
1, 254537, Note_on_c, 0, 66, 64
1, 254537, Note_on_c, 0, 60, 0
1, 254540, Note_on_c, 0, 55, 0
1, 254540, Note_on_c, 0, 55, 55
1, 254540, Note_on_c, 0, 60, 55
1, 254663, Note_on_c, 0, 66, 0
1, 254663, Note_on_c, 0, 67, 63
1, 254694, Note_on_c, 0, 66, 63
1, 254704, Note_on_c, 0, 67, 0
1, 254725, Note_on_c, 0, 64, 63
1, 254736, Note_on_c, 0, 66, 0
1, 254757, Note_on_c, 0, 66, 63
1, 254767, Note_on_c, 0, 64, 0
1, 254788, Note_on_c, 0, 67, 65
1, 254788, Note_on_c, 0, 60, 0
1, 254788, Note_on_c, 0, 55, 0
1, 254791, Note_on_c, 0, 55, 54
1, 254791, Note_on_c, 0, 59, 54
1, 254798, Note_on_c, 0, 66, 0
1, 254877, Note_on_c, 0, 67, 0
1, 254877, Note_on_c, 0, 59, 0
1, 254877, Note_on_c, 0, 55, 0
1, 255025, Note_on_c, 0, 67, 63
1, 255025, Note_on_c, 0, 55, 53
1, 255025, Note_on_c, 0, 59, 53
1, 255113, Note_on_c, 0, 67, 0
1, 255113, Note_on_c, 0, 59, 0
1, 255113, Note_on_c, 0, 55, 0
1, 255261, Note_on_c, 0, 67, 63
1, 255261, Note_on_c, 0, 55, 53
1, 255261, Note_on_c, 0, 59, 53
1, 255350, Note_on_c, 0, 67, 0
1, 255350, Note_on_c, 0, 59, 0
1, 255350, Note_on_c, 0, 55, 0
1, 255498, Note_on_c, 0, 67, 63
1, 255498, Note_on_c, 0, 55, 53
1, 255498, Note_on_c, 0, 59, 53
1, 255974, Note_on_c, 0, 67, 0
1, 255974, Note_on_c, 0, 62, 78
1, 255974, Note_on_c, 0, 66, 78
1, 255977, Note_on_c, 0, 69, 78
1, 255977, Note_on_c, 0, 59, 0
1, 255977, Note_on_c, 0, 55, 0
1, 255980, Note_on_c, 0, 50, 72
1, 255985, Control_c, 0, 64, 127
1, 256162, Control_c, 0, 64, 0
1, 256207, Note_on_c, 0, 69, 0
1, 256207, Note_on_c, 0, 66, 0
1, 256207, Note_on_c, 0, 62, 0
1, 256210, Note_on_c, 0, 62, 82
1, 256210, Note_on_c, 0, 67, 82
1, 256210, Note_on_c, 0, 71, 82
1, 256213, Note_on_c, 0, 50, 0
1, 256213, Note_on_c, 0, 55, 77
1, 256213, Note_on_c, 0, 59, 77
1, 256241, Control_c, 0, 64, 127
1, 256382, Control_c, 0, 64, 0
1, 256440, Note_on_c, 0, 71, 0
1, 256440, Note_on_c, 0, 67, 0
1, 256440, Note_on_c, 0, 62, 0
1, 256443, Note_on_c, 0, 59, 0
1, 256443, Note_on_c, 0, 55, 0
1, 256608, Control_c, 0, 64, 127
1, 256620, Note_on_c, 0, 43, 57
1, 256635, Note_on_c, 0, 47, 61
1, 256651, Note_on_c, 0, 50, 64
1, 256666, Note_on_c, 0, 55, 69
1, 256681, Note_on_c, 0, 62, 72
1, 256696, Note_on_c, 0, 67, 76
1, 256711, Note_on_c, 0, 71, 78
1, 256726, Note_on_c, 0, 74, 82
1, 256914, Control_c, 0, 64, 0
1, 256920, Note_on_c, 0, 74, 0
1, 256920, Note_on_c, 0, 62, 0
1, 256920, Note_on_c, 0, 67, 0
1, 256923, Note_on_c, 0, 71, 0
1, 256923, Note_on_c, 0, 55, 0
1, 256923, Note_on_c, 0, 43, 0
1, 256926, Note_on_c, 0, 47, 0
1, 256926, Note_on_c, 0, 50, 0
1, 256926, Note_on_c, 0, 45, 59
1, 256935, Note_on_c, 0, 48, 62
1, 256941, Control_c, 0, 64, 127
1, 256949, Note_on_c, 0, 54, 64
1, 256964, Note_on_c, 0, 57, 69
1, 256979, Note_on_c, 0, 62, 74
1, 256993, Note_on_c, 0, 66, 78
1, 257008, Note_on_c, 0, 69, 81
1, 257022, Note_on_c, 0, 72, 83
1, 257418, Control_c, 0, 64, 0
1, 257479, Note_on_c, 0, 72, 0
1, 257479, Note_on_c, 0, 62, 0
1, 257479, Note_on_c, 0, 66, 0
1, 257482, Note_on_c, 0, 69, 0
1, 257482, Note_on_c, 0, 62, 74
1, 257482, Note_on_c, 0, 67, 74
1, 257485, Note_on_c, 0, 71, 74
1, 257485, Note_on_c, 0, 57, 0
1, 257485, Note_on_c, 0, 45, 0
1, 257488, Note_on_c, 0, 48, 0
1, 257488, Note_on_c, 0, 54, 0
1, 257488, Note_on_c, 0, 47, 68
1, 257491, Note_on_c, 0, 50, 68
1, 257491, Note_on_c, 0, 55, 68
1, 257496, Control_c, 0, 64, 127
1, 257671, Control_c, 0, 64, 0
1, 257711, Note_on_c, 0, 71, 0
1, 257711, Note_on_c, 0, 67, 0
1, 257711, Note_on_c, 0, 62, 0
1, 257714, Note_on_c, 0, 55, 0
1, 257714, Note_on_c, 0, 50, 0
1, 257714, Note_on_c, 0, 47, 0
1, 257717, Note_on_c, 0, 62, 76
1, 257728, Control_c, 0, 64, 127
1, 257770, Note_on_c, 0, 62, 0
1, 257770, Note_on_c, 0, 64, 76
1, 257828, Note_on_c, 0, 64, 0
1, 257828, Note_on_c, 0, 66, 76
1, 257886, Note_on_c, 0, 66, 0
1, 257886, Note_on_c, 0, 67, 76
1, 257944, Note_on_c, 0, 69, 78
1, 257944, Note_on_c, 0, 67, 0
1, 257950, Control_c, 0, 64, 0
1, 257964, Control_c, 0, 64, 127
1, 258002, Note_on_c, 0, 69, 0
1, 258002, Note_on_c, 0, 71, 81
1, 258061, Note_on_c, 0, 71, 0
1, 258061, Note_on_c, 0, 73, 82
1, 258119, Note_on_c, 0, 73, 0
1, 258119, Note_on_c, 0, 74, 83
1, 258177, Note_on_c, 0, 74, 0
1, 258177, Note_on_c, 0, 76, 86
1, 258241, Note_on_c, 0, 76, 0
1, 258241, Note_on_c, 0, 78, 87
1, 258307, Note_on_c, 0, 78, 0
1, 258307, Note_on_c, 0, 79, 88
1, 258319, Control_c, 0, 64, 0
1, 258331, Control_c, 0, 64, 127
1, 258341, Note_on_c, 0, 79, 0
1, 258341, Note_on_c, 0, 81, 89
1, 258375, Note_on_c, 0, 81, 0
1, 258375, Note_on_c, 0, 83, 90
1, 258409, Note_on_c, 0, 83, 0
1, 258409, Note_on_c, 0, 85, 94
1, 258444, Note_on_c, 0, 85, 0
1, 258444, Note_on_c, 0, 86, 113
1, 258444, Note_on_c, 0, 38, 73
1, 258447, Note_on_c, 0, 42, 73
1, 258447, Note_on_c, 0, 45, 73
1, 258447, Note_on_c, 0, 50, 73
1, 258469, Control_c, 0, 64, 0
1, 258526, Control_c, 0, 64, 127
1, 259106, Control_c, 0, 64, 0
1, 259151, Note_on_c, 0, 86, 0
1, 259151, Note_on_c, 0, 68, 61
1, 259151, Note_on_c, 0, 71, 61
1, 259154, Note_on_c, 0, 50, 0
1, 259154, Note_on_c, 0, 38, 0
1, 259154, Note_on_c, 0, 42, 0
1, 259157, Note_on_c, 0, 45, 0
1, 259157, Note_on_c, 0, 64, 39
1, 259410, Note_on_c, 0, 71, 0
1, 259410, Note_on_c, 0, 68, 0
1, 259410, Note_on_c, 0, 69, 63
1, 259413, Note_on_c, 0, 72, 63
1, 259413, Note_on_c, 0, 64, 0
1, 259413, Note_on_c, 0, 60, 42
1, 259665, Note_on_c, 0, 72, 0
1, 259665, Note_on_c, 0, 69, 0
1, 259665, Note_on_c, 0, 71, 64
1, 259668, Note_on_c, 0, 74, 64
1, 259668, Note_on_c, 0, 60, 0
1, 259668, Note_on_c, 0, 59, 42
1, 259901, Note_on_c, 0, 74, 0
1, 259901, Note_on_c, 0, 71, 0
1, 259901, Note_on_c, 0, 72, 57
1, 259904, Note_on_c, 0, 76, 57
1, 259904, Note_on_c, 0, 59, 0
1, 259904, Note_on_c, 0, 57, 41
1, 260034, Note_on_c, 0, 76, 0
1, 260034, Note_on_c, 0, 72, 0
1, 260034, Note_on_c, 0, 57, 0
1, 260167, Note_on_c, 0, 72, 53
1, 260167, Note_on_c, 0, 76, 53
1, 260167, Note_on_c, 0, 57, 38
1, 260438, Note_on_c, 0, 76, 0
1, 260438, Note_on_c, 0, 72, 0
1, 260438, Note_on_c, 0, 57, 0
1, 260717, Note_on_c, 0, 66, 63
1, 260717, Note_on_c, 0, 69, 63
1, 260717, Note_on_c, 0, 62, 43
1, 260977, Note_on_c, 0, 69, 0
1, 260977, Note_on_c, 0, 66, 0
1, 260977, Note_on_c, 0, 67, 67
1, 260980, Note_on_c, 0, 71, 67
1, 260980, Note_on_c, 0, 62, 0
1, 260980, Note_on_c, 0, 59, 44
1, 261230, Note_on_c, 0, 71, 0
1, 261230, Note_on_c, 0, 67, 0
1, 261230, Note_on_c, 0, 69, 65
1, 261233, Note_on_c, 0, 72, 65
1, 261233, Note_on_c, 0, 59, 0
1, 261233, Note_on_c, 0, 57, 44
1, 261466, Note_on_c, 0, 72, 0
1, 261466, Note_on_c, 0, 69, 0
1, 261466, Note_on_c, 0, 71, 59
1, 261469, Note_on_c, 0, 74, 59
1, 261469, Note_on_c, 0, 57, 0
1, 261469, Note_on_c, 0, 55, 39
1, 261600, Note_on_c, 0, 74, 0
1, 261600, Note_on_c, 0, 71, 0
1, 261600, Note_on_c, 0, 55, 0
1, 261734, Note_on_c, 0, 71, 54
1, 261734, Note_on_c, 0, 74, 54
1, 261734, Note_on_c, 0, 55, 39
1, 262003, Note_on_c, 0, 74, 0
1, 262003, Note_on_c, 0, 71, 0
1, 262003, Note_on_c, 0, 55, 0
1, 262272, Note_on_c, 0, 67, 56
1, 262272, Note_on_c, 0, 52, 46
1, 262522, Note_on_c, 0, 67, 0
1, 262522, Note_on_c, 0, 69, 61
1, 262522, Note_on_c, 0, 52, 0
1, 262525, Note_on_c, 0, 48, 46
1, 262643, Note_on_c, 0, 69, 0
1, 262643, Note_on_c, 0, 48, 0
1, 262763, Note_on_c, 0, 71, 62
1, 262882, Note_on_c, 0, 71, 0
1, 263001, Note_on_c, 0, 72, 62
1, 263119, Note_on_c, 0, 72, 0
1, 263237, Note_on_c, 0, 62, 62
1, 263237, Note_on_c, 0, 50, 41
1, 263356, Note_on_c, 0, 62, 0
1, 263356, Note_on_c, 0, 50, 0
1, 263474, Note_on_c, 0, 64, 60
1, 263592, Note_on_c, 0, 64, 0
1, 263710, Note_on_c, 0, 66, 60
1, 263828, Note_on_c, 0, 66, 0
1, 263947, Note_on_c, 0, 55, 53
1, 264074, Note_on_c, 0, 55, 0
1, 264202, Note_on_c, 0, 50, 48
1, 264330, Note_on_c, 0, 50, 0
1, 264457, Note_on_c, 0, 47, 48
1, 264621, Note_on_c, 0, 47, 0
1, 264698, Control_c, 0, 64, 127
1, 264703, Note_on_c, 0, 43, 56
1, 264717, Note_on_c, 0, 47, 60
1, 264730, Note_on_c, 0, 50, 64
1, 264744, Note_on_c, 0, 55, 67
1, 264758, Note_on_c, 0, 59, 67
1, 264771, Note_on_c, 0, 62, 71
1, 264785, Note_on_c, 0, 67, 74
1, 265004, Note_on_c, 0, 50, 0
1, 265113, Note_on_c, 0, 67, 0
1, 265113, Note_on_c, 0, 62, 0
1, 265113, Note_on_c, 0, 59, 0
1, 265116, Note_on_c, 0, 43, 0
1, 265116, Note_on_c, 0, 47, 0
1, 265116, Note_on_c, 0, 55, 0
1, 265337, Control_c, 0, 64, 0
1, 265467, Note_on_c, 0, 79, 61
1, 265467, Note_on_c, 0, 71, 52
1, 265467, Note_on_c, 0, 74, 52
1, 265492, Control_c, 0, 64, 127
1, 265751, Note_on_c, 0, 79, 0
1, 265751, Note_on_c, 0, 78, 61
1, 265751, Note_on_c, 0, 74, 0
1, 265754, Note_on_c, 0, 71, 0
1, 265754, Control_c, 0, 64, 0
1, 265754, Note_on_c, 0, 71, 56
1, 265757, Note_on_c, 0, 74, 56
1, 265772, Control_c, 0, 64, 127
1, 265872, Note_on_c, 0, 78, 0
1, 265872, Note_on_c, 0, 79, 61
1, 265963, Note_on_c, 0, 79, 0
1, 265986, Control_c, 0, 64, 0
1, 265993, Note_on_c, 0, 81, 64
1, 266028, Control_c, 0, 64, 127
1, 266114, Note_on_c, 0, 81, 0
1, 266114, Note_on_c, 0, 79, 61
1, 266204, Note_on_c, 0, 79, 0
1, 266204, Control_c, 0, 64, 0
1, 266234, Note_on_c, 0, 81, 65
1, 266234, Note_on_c, 0, 74, 0
1, 266234, Note_on_c, 0, 71, 0
1, 266237, Note_on_c, 0, 72, 52
1, 266237, Note_on_c, 0, 76, 52
1, 266248, Control_c, 0, 64, 127
1, 266353, Note_on_c, 0, 81, 0
1, 266353, Note_on_c, 0, 79, 61
1, 266441, Note_on_c, 0, 79, 0
1, 266471, Note_on_c, 0, 81, 65
1, 266471, Note_on_c, 0, 76, 0
1, 266471, Note_on_c, 0, 72, 0
1, 266474, Control_c, 0, 64, 0
1, 266474, Note_on_c, 0, 71, 57
1, 266474, Note_on_c, 0, 74, 57
1, 266512, Control_c, 0, 64, 127
1, 266589, Note_on_c, 0, 81, 0
1, 266589, Note_on_c, 0, 79, 61
1, 266644, Control_c, 0, 64, 0
1, 266678, Note_on_c, 0, 79, 0
1, 266707, Note_on_c, 0, 79, 65
1, 266707, Note_on_c, 0, 74, 0
1, 266707, Note_on_c, 0, 71, 0
1, 266710, Note_on_c, 0, 69, 52
1, 266710, Note_on_c, 0, 72, 52
1, 266714, Control_c, 0, 64, 127
1, 266824, Note_on_c, 0, 79, 0
1, 266824, Note_on_c, 0, 78, 61
1, 266893, Control_c, 0, 64, 0
1, 266912, Note_on_c, 0, 78, 0
1, 266941, Note_on_c, 0, 78, 64
1, 266941, Note_on_c, 0, 72, 0
1, 266941, Note_on_c, 0, 69, 0
1, 266944, Note_on_c, 0, 67, 52
1, 266944, Note_on_c, 0, 71, 52
1, 266948, Control_c, 0, 64, 127
1, 267058, Note_on_c, 0, 78, 0
1, 267058, Note_on_c, 0, 76, 61
1, 267086, Control_c, 0, 64, 0
1, 267146, Note_on_c, 0, 76, 0
1, 267175, Note_on_c, 0, 76, 67
1, 267175, Note_on_c, 0, 71, 0
1, 267175, Note_on_c, 0, 67, 0
1, 267178, Control_c, 0, 64, 127
1, 267178, Note_on_c, 0, 66, 59
1, 267178, Note_on_c, 0, 69, 59
1, 267293, Note_on_c, 0, 76, 0
1, 267293, Note_on_c, 0, 74, 63
1, 267363, Control_c, 0, 64, 0
1, 267382, Note_on_c, 0, 74, 0
1, 267412, Note_on_c, 0, 74, 62
1, 267470, Note_on_c, 0, 74, 0
1, 267528, Note_on_c, 0, 74, 63
1, 267586, Note_on_c, 0, 74, 0
1, 267644, Note_on_c, 0, 74, 64
1, 267644, Note_on_c, 0, 69, 0
1, 267644, Note_on_c, 0, 66, 0
1, 267647, Note_on_c, 0, 66, 52
1, 267647, Note_on_c, 0, 69, 52
1, 267703, Note_on_c, 0, 74, 0
1, 267761, Note_on_c, 0, 74, 65
1, 267819, Note_on_c, 0, 74, 0
1, 267877, Note_on_c, 0, 76, 71
1, 267877, Note_on_c, 0, 69, 0
1, 267877, Note_on_c, 0, 66, 0
1, 267880, Note_on_c, 0, 66, 63
1, 267880, Note_on_c, 0, 69, 63
1, 267891, Control_c, 0, 64, 127
1, 267994, Note_on_c, 0, 76, 0
1, 267994, Note_on_c, 0, 75, 67
1, 268052, Control_c, 0, 64, 0
1, 268110, Note_on_c, 0, 75, 0
1, 268110, Note_on_c, 0, 75, 67
1, 268168, Note_on_c, 0, 75, 0
1, 268225, Note_on_c, 0, 75, 67
1, 268283, Note_on_c, 0, 75, 0
1, 268340, Note_on_c, 0, 75, 67
1, 268340, Note_on_c, 0, 69, 0
1, 268340, Note_on_c, 0, 66, 0
1, 268343, Note_on_c, 0, 66, 61
1, 268343, Note_on_c, 0, 69, 61
1, 268398, Note_on_c, 0, 75, 0
1, 268456, Note_on_c, 0, 75, 67
1, 268513, Note_on_c, 0, 75, 0
1, 268571, Note_on_c, 0, 75, 72
1, 268571, Note_on_c, 0, 69, 0
1, 268571, Note_on_c, 0, 66, 0
1, 268574, Note_on_c, 0, 67, 69
1, 268574, Note_on_c, 0, 71, 69
1, 268610, Control_c, 0, 64, 127
1, 268688, Note_on_c, 0, 75, 0
1, 268688, Note_on_c, 0, 76, 69
1, 268805, Note_on_c, 0, 76, 0
1, 268805, Note_on_c, 0, 78, 69
1, 268805, Control_c, 0, 64, 0
1, 268844, Control_c, 0, 64, 127
1, 268922, Note_on_c, 0, 78, 0
1, 268922, Note_on_c, 0, 76, 69
1, 269011, Control_c, 0, 64, 0
1, 269039, Note_on_c, 0, 76, 0
1, 269039, Note_on_c, 0, 79, 72
1, 269055, Control_c, 0, 64, 127
1, 269156, Note_on_c, 0, 79, 0
1, 269156, Note_on_c, 0, 78, 69
1, 269281, Note_on_c, 0, 78, 0
1, 269281, Note_on_c, 0, 81, 70
1, 269281, Note_on_c, 0, 71, 0
1, 269284, Note_on_c, 0, 67, 0
1, 269284, Control_c, 0, 64, 0
1, 269284, Note_on_c, 0, 57, 62
1, 269287, Note_on_c, 0, 64, 62
1, 269287, Note_on_c, 0, 67, 62
1, 269330, Control_c, 0, 64, 127
1, 269398, Note_on_c, 0, 81, 0
1, 269398, Note_on_c, 0, 79, 71
1, 269513, Note_on_c, 0, 79, 0
1, 269513, Note_on_c, 0, 78, 72
1, 269629, Note_on_c, 0, 78, 0
1, 269629, Note_on_c, 0, 76, 72
1, 269701, Control_c, 0, 64, 0
1, 269745, Note_on_c, 0, 76, 0
1, 269745, Note_on_c, 0, 74, 73
1, 269745, Control_c, 0, 64, 127
1, 269861, Note_on_c, 0, 74, 0
1, 269861, Note_on_c, 0, 73, 74
1, 269919, Control_c, 0, 64, 0
1, 269984, Note_on_c, 0, 73, 0
1, 269984, Note_on_c, 0, 74, 103
1, 269984, Note_on_c, 0, 67, 0
1, 269987, Note_on_c, 0, 64, 0
1, 269987, Note_on_c, 0, 57, 0
1, 270008, Control_c, 0, 64, 127
1, 270099, Note_on_c, 0, 74, 0
1, 270099, Note_on_c, 0, 86, 83
1, 270171, Control_c, 0, 64, 0
1, 270215, Note_on_c, 0, 86, 0
1, 270215, Note_on_c, 0, 74, 79
1, 270215, Note_on_c, 0, 54, 65
1, 270218, Note_on_c, 0, 50, 65
1, 270273, Note_on_c, 0, 74, 0
1, 270331, Note_on_c, 0, 74, 79
1, 270389, Note_on_c, 0, 74, 0
1, 270447, Note_on_c, 0, 74, 79
1, 270447, Note_on_c, 0, 50, 0
1, 270447, Note_on_c, 0, 54, 0
1, 270450, Note_on_c, 0, 55, 67
1, 270450, Note_on_c, 0, 52, 67
1, 270505, Note_on_c, 0, 74, 0
1, 270563, Note_on_c, 0, 74, 79
1, 270563, Note_on_c, 0, 52, 0
1, 270563, Note_on_c, 0, 55, 0
1, 270620, Note_on_c, 0, 74, 0
1, 270678, Note_on_c, 0, 74, 104
1, 270712, Control_c, 0, 64, 127
1, 270794, Note_on_c, 0, 74, 0
1, 270794, Note_on_c, 0, 86, 83
1, 270872, Control_c, 0, 64, 0
1, 270910, Note_on_c, 0, 86, 0
1, 270910, Note_on_c, 0, 74, 79
1, 270910, Note_on_c, 0, 57, 64
1, 270913, Note_on_c, 0, 54, 64
1, 270968, Note_on_c, 0, 74, 0
1, 271026, Note_on_c, 0, 74, 79
1, 271084, Note_on_c, 0, 74, 0
1, 271142, Note_on_c, 0, 74, 79
1, 271142, Note_on_c, 0, 54, 0
1, 271142, Note_on_c, 0, 57, 0
1, 271145, Note_on_c, 0, 55, 65
1, 271145, Note_on_c, 0, 59, 65
1, 271199, Note_on_c, 0, 74, 0
1, 271257, Note_on_c, 0, 74, 79
1, 271257, Note_on_c, 0, 59, 0
1, 271257, Note_on_c, 0, 55, 0
1, 271315, Note_on_c, 0, 74, 0
1, 271373, Note_on_c, 0, 74, 102
1, 271387, Control_c, 0, 64, 127
1, 271434, Note_on_c, 0, 74, 0
1, 271434, Note_on_c, 0, 78, 77
1, 271495, Note_on_c, 0, 78, 0
1, 271495, Note_on_c, 0, 81, 83
1, 271555, Note_on_c, 0, 81, 0
1, 271555, Note_on_c, 0, 86, 77
1, 271569, Control_c, 0, 64, 0
1, 271616, Note_on_c, 0, 86, 0
1, 271616, Note_on_c, 0, 74, 79
1, 271616, Note_on_c, 0, 57, 65
1, 271619, Note_on_c, 0, 60, 65
1, 271675, Note_on_c, 0, 74, 0
1, 271733, Note_on_c, 0, 74, 79
1, 271791, Note_on_c, 0, 74, 0
1, 271848, Note_on_c, 0, 74, 79
1, 271848, Note_on_c, 0, 60, 0
1, 271848, Note_on_c, 0, 57, 0
1, 271851, Note_on_c, 0, 55, 67
1, 271851, Note_on_c, 0, 59, 67
1, 271906, Note_on_c, 0, 74, 0
1, 271964, Note_on_c, 0, 74, 79
1, 271964, Note_on_c, 0, 59, 0
1, 271964, Note_on_c, 0, 55, 0
1, 272022, Note_on_c, 0, 74, 0
1, 272080, Note_on_c, 0, 74, 99
1, 272108, Control_c, 0, 64, 127
1, 272140, Note_on_c, 0, 74, 0
1, 272140, Note_on_c, 0, 78, 76
1, 272200, Note_on_c, 0, 78, 0
1, 272200, Note_on_c, 0, 81, 82
1, 272259, Note_on_c, 0, 81, 0
1, 272259, Note_on_c, 0, 86, 74
1, 272266, Control_c, 0, 64, 0
1, 272319, Note_on_c, 0, 86, 0
1, 272319, Note_on_c, 0, 74, 79
1, 272319, Note_on_c, 0, 54, 62
1, 272322, Note_on_c, 0, 57, 62
1, 272377, Note_on_c, 0, 74, 0
1, 272435, Note_on_c, 0, 74, 79
1, 272493, Note_on_c, 0, 74, 0
1, 272551, Note_on_c, 0, 74, 79
1, 272551, Note_on_c, 0, 57, 0
1, 272551, Note_on_c, 0, 54, 0
1, 272554, Note_on_c, 0, 55, 62
1, 272554, Note_on_c, 0, 52, 62
1, 272609, Note_on_c, 0, 74, 0
1, 272666, Note_on_c, 0, 74, 79
1, 272666, Note_on_c, 0, 52, 0
1, 272666, Note_on_c, 0, 55, 0
1, 272724, Note_on_c, 0, 74, 0
1, 272782, Note_on_c, 0, 74, 97
1, 272782, Control_c, 0, 64, 127
1, 272782, Note_on_c, 0, 50, 62
1, 272785, Note_on_c, 0, 54, 62
1, 272898, Note_on_c, 0, 74, 0
1, 272898, Note_on_c, 0, 86, 81
1, 272976, Control_c, 0, 64, 0
1, 273014, Note_on_c, 0, 86, 0
1, 273014, Note_on_c, 0, 86, 79
1, 273014, Note_on_c, 0, 54, 0
1, 273017, Note_on_c, 0, 50, 0
1, 273017, Note_on_c, 0, 66, 61
1, 273017, Note_on_c, 0, 62, 61
1, 273072, Note_on_c, 0, 86, 0
1, 273130, Note_on_c, 0, 86, 79
1, 273188, Note_on_c, 0, 86, 0
1, 273245, Note_on_c, 0, 86, 79
1, 273245, Note_on_c, 0, 62, 0
1, 273245, Note_on_c, 0, 66, 0
1, 273248, Note_on_c, 0, 67, 59
1, 273248, Note_on_c, 0, 64, 59
1, 273303, Note_on_c, 0, 86, 0
1, 273361, Note_on_c, 0, 86, 79
1, 273419, Note_on_c, 0, 86, 0
1, 273477, Note_on_c, 0, 85, 89
1, 273477, Note_on_c, 0, 64, 0
1, 273477, Note_on_c, 0, 67, 0
1, 273497, Control_c, 0, 64, 127
1, 273593, Note_on_c, 0, 85, 0
1, 273593, Note_on_c, 0, 86, 81
1, 273682, Control_c, 0, 64, 0
1, 273709, Note_on_c, 0, 86, 0
1, 273709, Note_on_c, 0, 86, 79
1, 273709, Note_on_c, 0, 69, 60
1, 273712, Note_on_c, 0, 66, 60
1, 273766, Note_on_c, 0, 86, 0
1, 273824, Note_on_c, 0, 86, 79
1, 273882, Note_on_c, 0, 86, 0
1, 273940, Note_on_c, 0, 86, 79
1, 273940, Note_on_c, 0, 66, 0
1, 273940, Note_on_c, 0, 69, 0
1, 273943, Note_on_c, 0, 67, 59
1, 273943, Note_on_c, 0, 70, 59
1, 273998, Note_on_c, 0, 86, 0
1, 274056, Note_on_c, 0, 86, 79
1, 274114, Note_on_c, 0, 86, 0
1, 274172, Note_on_c, 0, 87, 98
1, 274172, Note_on_c, 0, 70, 0
1, 274172, Note_on_c, 0, 67, 0
1, 274196, Control_c, 0, 64, 127
1, 274288, Note_on_c, 0, 87, 0
1, 274288, Note_on_c, 0, 86, 81
1, 274363, Control_c, 0, 64, 0
1, 274403, Note_on_c, 0, 86, 0
1, 274403, Note_on_c, 0, 86, 79
1, 274403, Note_on_c, 0, 72, 57
1, 274406, Note_on_c, 0, 69, 57
1, 274461, Note_on_c, 0, 86, 0
1, 274518, Note_on_c, 0, 86, 79
1, 274575, Note_on_c, 0, 86, 0
1, 274633, Note_on_c, 0, 86, 79
1, 274633, Note_on_c, 0, 69, 0
1, 274633, Note_on_c, 0, 72, 0
1, 274636, Note_on_c, 0, 70, 53
1, 274636, Note_on_c, 0, 67, 53
1, 274690, Note_on_c, 0, 86, 0
1, 274747, Note_on_c, 0, 86, 79
1, 274804, Note_on_c, 0, 86, 0
1, 274862, Note_on_c, 0, 85, 93
1, 274862, Note_on_c, 0, 67, 0
1, 274862, Note_on_c, 0, 70, 0
1, 274886, Control_c, 0, 64, 127
1, 274978, Note_on_c, 0, 85, 0
1, 274978, Note_on_c, 0, 86, 81
1, 275053, Control_c, 0, 64, 0
1, 275093, Note_on_c, 0, 86, 0
1, 275093, Note_on_c, 0, 86, 79
1, 275093, Note_on_c, 0, 69, 54
1, 275096, Note_on_c, 0, 66, 54
1, 275151, Note_on_c, 0, 86, 0
1, 275209, Note_on_c, 0, 86, 79
1, 275267, Note_on_c, 0, 86, 0
1, 275325, Note_on_c, 0, 86, 79
1, 275325, Note_on_c, 0, 66, 0
1, 275325, Note_on_c, 0, 69, 0
1, 275328, Note_on_c, 0, 64, 52
1, 275328, Note_on_c, 0, 67, 52
1, 275383, Note_on_c, 0, 86, 0
1, 275441, Note_on_c, 0, 86, 79
1, 275499, Note_on_c, 0, 86, 0
1, 275557, Note_on_c, 0, 86, 80
1, 275557, Note_on_c, 0, 67, 0
1, 275557, Note_on_c, 0, 64, 0
1, 275560, Note_on_c, 0, 62, 54
1, 275560, Note_on_c, 0, 66, 54
1, 275615, Note_on_c, 0, 86, 0
1, 275674, Note_on_c, 0, 86, 79
1, 275733, Note_on_c, 0, 86, 0
1, 275792, Note_on_c, 0, 86, 78
1, 275851, Note_on_c, 0, 86, 0
1, 275909, Note_on_c, 0, 86, 77
1, 275968, Note_on_c, 0, 86, 0
1, 276027, Note_on_c, 0, 86, 76
1, 276027, Note_on_c, 0, 66, 0
1, 276027, Note_on_c, 0, 62, 0
1, 276086, Note_on_c, 0, 86, 0
1, 276145, Note_on_c, 0, 86, 74
1, 276203, Note_on_c, 0, 86, 0
1, 276262, Note_on_c, 0, 86, 74
1, 276384, Note_on_c, 0, 86, 0
1, 276505, Note_on_c, 0, 86, 72
1, 276627, Note_on_c, 0, 86, 0
1, 276748, Note_on_c, 0, 86, 72
1, 276869, Note_on_c, 0, 86, 0
1, 276991, Note_on_c, 0, 84, 71
1, 276991, Note_on_c, 0, 86, 71
1, 277117, Note_on_c, 0, 86, 0
1, 277117, Note_on_c, 0, 84, 0
1, 277243, Note_on_c, 0, 84, 69
1, 277243, Note_on_c, 0, 86, 69
1, 277369, Note_on_c, 0, 86, 0
1, 277369, Note_on_c, 0, 84, 0
1, 277496, Note_on_c, 0, 84, 69
1, 277496, Note_on_c, 0, 86, 69
1, 277622, Note_on_c, 0, 86, 0
1, 277622, Note_on_c, 0, 84, 0
1, 277748, Note_on_c, 0, 84, 65
1, 277748, Note_on_c, 0, 86, 65
1, 277748, Note_on_c, 0, 81, 48
1, 277947, Note_on_c, 0, 86, 0
1, 277947, Note_on_c, 0, 84, 0
1, 277947, Note_on_c, 0, 81, 0
1, 278014, Note_on_c, 0, 84, 63
1, 278014, Note_on_c, 0, 86, 63
1, 278014, Note_on_c, 0, 81, 46
1, 278213, Note_on_c, 0, 86, 0
1, 278213, Note_on_c, 0, 84, 0
1, 278213, Note_on_c, 0, 81, 0
1, 278280, Note_on_c, 0, 84, 63
1, 278280, Note_on_c, 0, 86, 63
1, 278280, Note_on_c, 0, 81, 46
1, 278479, Note_on_c, 0, 86, 0
1, 278479, Note_on_c, 0, 84, 0
1, 278479, Note_on_c, 0, 81, 0
1, 278546, Note_on_c, 0, 84, 60
1, 278546, Note_on_c, 0, 86, 60
1, 278546, Note_on_c, 0, 78, 39
1, 278549, Note_on_c, 0, 81, 39
1, 278589, Control_c, 0, 64, 127
1, 278823, Note_on_c, 0, 86, 0
1, 278823, Note_on_c, 0, 84, 0
1, 278823, Note_on_c, 0, 84, 57
1, 278826, Note_on_c, 0, 86, 57
1, 278826, Note_on_c, 0, 81, 0
1, 278826, Note_on_c, 0, 78, 0
1, 278829, Note_on_c, 0, 78, 38
1, 278829, Note_on_c, 0, 81, 38
1, 279100, Note_on_c, 0, 86, 0
1, 279100, Note_on_c, 0, 84, 0
1, 279100, Note_on_c, 0, 84, 54
1, 279103, Note_on_c, 0, 86, 54
1, 279103, Note_on_c, 0, 81, 0
1, 279103, Note_on_c, 0, 78, 0
1, 279106, Note_on_c, 0, 78, 36
1, 279106, Note_on_c, 0, 81, 36
1, 279463, Note_on_c, 0, 86, 0
1, 279463, Note_on_c, 0, 84, 0
1, 279463, Note_on_c, 0, 84, 52
1, 279466, Note_on_c, 0, 86, 52
1, 279466, Note_on_c, 0, 81, 0
1, 279466, Note_on_c, 0, 78, 0
1, 279469, Note_on_c, 0, 78, 34
1, 279469, Note_on_c, 0, 81, 34
1, 280320, Control_c, 0, 64, 0
1, 280550, Note_on_c, 0, 86, 0
1, 280550, Note_on_c, 0, 84, 0
1, 280550, Note_on_c, 0, 81, 0
1, 280553, Note_on_c, 0, 78, 0
1, 281382, Note_on_c, 0, 72, 46
1, 281382, Note_on_c, 0, 74, 46
1, 281382, Note_on_c, 0, 66, 34
1, 281385, Note_on_c, 0, 69, 34
1, 281522, Control_c, 0, 64, 127
1, 281766, Note_on_c, 0, 74, 0
1, 281766, Note_on_c, 0, 72, 0
1, 281766, Note_on_c, 0, 74, 46
1, 281769, Note_on_c, 0, 72, 46
1, 281769, Note_on_c, 0, 69, 0
1, 281769, Note_on_c, 0, 66, 0
1, 281772, Note_on_c, 0, 66, 34
1, 281772, Note_on_c, 0, 69, 34
1, 282466, Control_c, 0, 64, 0
1, 283014, Note_on_c, 0, 72, 0
1, 283014, Note_on_c, 0, 74, 0
1, 283014, Note_on_c, 0, 67, 65
1, 283017, Note_on_c, 0, 69, 0
1, 283017, Note_on_c, 0, 66, 0
1, 283017, Note_on_c, 0, 55, 55
1, 283020, Note_on_c, 0, 59, 55
1, 283028, Control_c, 0, 64, 127
1, 283273, Note_on_c, 0, 67, 0
1, 283273, Note_on_c, 0, 67, 69
1, 283273, Note_on_c, 0, 59, 0
1, 283276, Note_on_c, 0, 55, 0
1, 283276, Note_on_c, 0, 55, 57
1, 283276, Note_on_c, 0, 59, 57
1, 283659, Control_c, 0, 64, 0
1, 283694, Note_on_c, 0, 67, 0
1, 283694, Note_on_c, 0, 71, 67
1, 283754, Note_on_c, 0, 71, 0
1, 283754, Note_on_c, 0, 69, 67
1, 283754, Note_on_c, 0, 59, 0
1, 283757, Note_on_c, 0, 55, 0
1, 283757, Note_on_c, 0, 55, 55
1, 283757, Note_on_c, 0, 60, 55
1, 283995, Note_on_c, 0, 69, 0
1, 283995, Note_on_c, 0, 62, 69
1, 283995, Note_on_c, 0, 60, 0
1, 283998, Note_on_c, 0, 55, 0
1, 283998, Note_on_c, 0, 55, 57
1, 283998, Note_on_c, 0, 60, 57
1, 284011, Control_c, 0, 64, 127
1, 284230, Note_on_c, 0, 62, 0
1, 284230, Note_on_c, 0, 64, 64
1, 284425, Control_c, 0, 64, 0
1, 284481, Note_on_c, 0, 64, 0
1, 284481, Note_on_c, 0, 66, 64
1, 284481, Note_on_c, 0, 60, 0
1, 284484, Note_on_c, 0, 55, 0
1, 284484, Note_on_c, 0, 55, 55
1, 284484, Note_on_c, 0, 60, 55
1, 284607, Note_on_c, 0, 66, 0
1, 284607, Note_on_c, 0, 67, 63
1, 284638, Note_on_c, 0, 67, 0
1, 284638, Note_on_c, 0, 66, 63
1, 284670, Note_on_c, 0, 66, 0
1, 284670, Note_on_c, 0, 64, 63
1, 284701, Note_on_c, 0, 64, 0
1, 284701, Note_on_c, 0, 66, 63
1, 284732, Note_on_c, 0, 66, 0
1, 284732, Note_on_c, 0, 67, 65
1, 284732, Note_on_c, 0, 60, 0
1, 284735, Note_on_c, 0, 55, 0
1, 284735, Note_on_c, 0, 55, 54
1, 284735, Note_on_c, 0, 59, 54
1, 284821, Note_on_c, 0, 67, 0
1, 284821, Note_on_c, 0, 59, 0
1, 284821, Note_on_c, 0, 55, 0
1, 284969, Note_on_c, 0, 67, 63
1, 284969, Note_on_c, 0, 55, 53
1, 284969, Note_on_c, 0, 59, 53
1, 285058, Note_on_c, 0, 67, 0
1, 285058, Note_on_c, 0, 59, 0
1, 285058, Note_on_c, 0, 55, 0
1, 285205, Note_on_c, 0, 67, 63
1, 285205, Note_on_c, 0, 55, 53
1, 285205, Note_on_c, 0, 59, 53
1, 285294, Note_on_c, 0, 67, 0
1, 285294, Note_on_c, 0, 59, 0
1, 285294, Note_on_c, 0, 55, 0
1, 285442, Note_on_c, 0, 67, 63
1, 285442, Note_on_c, 0, 55, 53
1, 285442, Note_on_c, 0, 59, 53
1, 285919, Note_on_c, 0, 67, 0
1, 285919, Note_on_c, 0, 62, 78
1, 285919, Note_on_c, 0, 66, 78
1, 285922, Note_on_c, 0, 69, 78
1, 285922, Note_on_c, 0, 59, 0
1, 285922, Note_on_c, 0, 55, 0
1, 285925, Note_on_c, 0, 50, 72
1, 285929, Control_c, 0, 64, 127
1, 286107, Control_c, 0, 64, 0
1, 286151, Note_on_c, 0, 69, 0
1, 286151, Note_on_c, 0, 66, 0
1, 286151, Note_on_c, 0, 62, 0
1, 286154, Note_on_c, 0, 62, 82
1, 286154, Note_on_c, 0, 67, 82
1, 286154, Note_on_c, 0, 71, 82
1, 286157, Note_on_c, 0, 50, 0
1, 286157, Note_on_c, 0, 55, 77
1, 286157, Note_on_c, 0, 59, 77
1, 286157, Control_c, 0, 64, 127
1, 286268, Control_c, 0, 64, 0
1, 286384, Note_on_c, 0, 71, 0
1, 286384, Note_on_c, 0, 67, 0
1, 286384, Note_on_c, 0, 62, 0
1, 286387, Note_on_c, 0, 59, 0
1, 286387, Note_on_c, 0, 55, 0
1, 286549, Control_c, 0, 64, 127
1, 286565, Note_on_c, 0, 43, 61
1, 286580, Note_on_c, 0, 47, 63
1, 286595, Note_on_c, 0, 50, 67
1, 286610, Note_on_c, 0, 55, 71
1, 286625, Note_on_c, 0, 62, 72
1, 286640, Note_on_c, 0, 67, 76
1, 286655, Note_on_c, 0, 71, 79
1, 286670, Note_on_c, 0, 74, 83
1, 286840, Control_c, 0, 64, 0
1, 286864, Note_on_c, 0, 74, 0
1, 286864, Note_on_c, 0, 62, 0
1, 286864, Note_on_c, 0, 67, 0
1, 286867, Note_on_c, 0, 71, 0
1, 286867, Note_on_c, 0, 55, 0
1, 286867, Note_on_c, 0, 43, 0
1, 286870, Note_on_c, 0, 47, 0
1, 286870, Note_on_c, 0, 50, 0
1, 286870, Note_on_c, 0, 45, 60
1, 286873, Control_c, 0, 64, 127
1, 286879, Note_on_c, 0, 48, 63
1, 286894, Note_on_c, 0, 54, 65
1, 286909, Note_on_c, 0, 57, 71
1, 286924, Note_on_c, 0, 62, 73
1, 286939, Note_on_c, 0, 66, 77
1, 286954, Note_on_c, 0, 69, 79
1, 286969, Note_on_c, 0, 72, 83
1, 287341, Control_c, 0, 64, 0
1, 287425, Note_on_c, 0, 72, 0
1, 287425, Note_on_c, 0, 62, 0
1, 287425, Note_on_c, 0, 66, 0
1, 287428, Note_on_c, 0, 69, 0
1, 287428, Note_on_c, 0, 62, 74
1, 287428, Note_on_c, 0, 67, 74
1, 287431, Note_on_c, 0, 71, 74
1, 287431, Note_on_c, 0, 57, 0
1, 287431, Note_on_c, 0, 45, 0
1, 287434, Note_on_c, 0, 48, 0
1, 287434, Note_on_c, 0, 54, 0
1, 287434, Note_on_c, 0, 47, 68
1, 287437, Note_on_c, 0, 50, 68
1, 287437, Note_on_c, 0, 55, 68
1, 287449, Control_c, 0, 64, 127
1, 287620, Control_c, 0, 64, 0
1, 287657, Note_on_c, 0, 71, 0
1, 287657, Note_on_c, 0, 67, 0
1, 287657, Note_on_c, 0, 62, 0
1, 287660, Note_on_c, 0, 55, 0
1, 287660, Note_on_c, 0, 50, 0
1, 287660, Note_on_c, 0, 47, 0
1, 287663, Note_on_c, 0, 62, 76
1, 287663, Control_c, 0, 64, 127
1, 287716, Note_on_c, 0, 62, 0
1, 287716, Note_on_c, 0, 64, 76
1, 287774, Note_on_c, 0, 64, 0
1, 287774, Note_on_c, 0, 66, 76
1, 287832, Note_on_c, 0, 66, 0
1, 287832, Note_on_c, 0, 67, 76
1, 287862, Control_c, 0, 64, 0
1, 287890, Note_on_c, 0, 69, 78
1, 287890, Note_on_c, 0, 67, 0
1, 287890, Control_c, 0, 64, 127
1, 287948, Note_on_c, 0, 69, 0
1, 287948, Note_on_c, 0, 71, 81
1, 288007, Note_on_c, 0, 71, 0
1, 288007, Note_on_c, 0, 73, 82
1, 288065, Note_on_c, 0, 73, 0
1, 288065, Note_on_c, 0, 74, 83
1, 288123, Note_on_c, 0, 74, 0
1, 288123, Note_on_c, 0, 76, 86
1, 288187, Note_on_c, 0, 76, 0
1, 288187, Note_on_c, 0, 78, 87
1, 288253, Note_on_c, 0, 78, 0
1, 288253, Note_on_c, 0, 79, 88
1, 288264, Control_c, 0, 64, 0
1, 288277, Control_c, 0, 64, 127
1, 288287, Note_on_c, 0, 79, 0
1, 288287, Note_on_c, 0, 81, 89
1, 288321, Note_on_c, 0, 81, 0
1, 288321, Note_on_c, 0, 83, 90
1, 288356, Note_on_c, 0, 83, 0
1, 288356, Note_on_c, 0, 85, 94
1, 288392, Note_on_c, 0, 85, 0
1, 288392, Note_on_c, 0, 86, 113
1, 288392, Note_on_c, 0, 38, 73
1, 288395, Note_on_c, 0, 42, 73
1, 288395, Note_on_c, 0, 45, 73
1, 288395, Note_on_c, 0, 50, 73
1, 288398, Control_c, 0, 64, 0
1, 288489, Control_c, 0, 64, 127
1, 289048, Control_c, 0, 64, 0
1, 289099, Note_on_c, 0, 86, 0
1, 289099, Note_on_c, 0, 68, 61
1, 289099, Note_on_c, 0, 71, 61
1, 289102, Note_on_c, 0, 50, 0
1, 289102, Note_on_c, 0, 38, 0
1, 289102, Note_on_c, 0, 42, 0
1, 289105, Note_on_c, 0, 45, 0
1, 289105, Note_on_c, 0, 64, 39
1, 289357, Note_on_c, 0, 71, 0
1, 289357, Note_on_c, 0, 68, 0
1, 289357, Note_on_c, 0, 69, 63
1, 289360, Note_on_c, 0, 72, 63
1, 289360, Note_on_c, 0, 64, 0
1, 289360, Note_on_c, 0, 60, 42
1, 289613, Note_on_c, 0, 72, 0
1, 289613, Note_on_c, 0, 69, 0
1, 289613, Note_on_c, 0, 71, 64
1, 289616, Note_on_c, 0, 74, 64
1, 289616, Note_on_c, 0, 60, 0
1, 289616, Note_on_c, 0, 59, 42
1, 289852, Note_on_c, 0, 74, 0
1, 289852, Note_on_c, 0, 71, 0
1, 289852, Note_on_c, 0, 72, 57
1, 289855, Note_on_c, 0, 76, 57
1, 289855, Note_on_c, 0, 59, 0
1, 289855, Note_on_c, 0, 57, 41
1, 289985, Note_on_c, 0, 76, 0
1, 289985, Note_on_c, 0, 72, 0
1, 289985, Note_on_c, 0, 57, 0
1, 290118, Note_on_c, 0, 72, 53
1, 290118, Note_on_c, 0, 76, 53
1, 290118, Note_on_c, 0, 57, 38
1, 290388, Note_on_c, 0, 76, 0
1, 290388, Note_on_c, 0, 72, 0
1, 290388, Note_on_c, 0, 57, 0
1, 290667, Note_on_c, 0, 66, 63
1, 290667, Note_on_c, 0, 69, 63
1, 290667, Note_on_c, 0, 62, 43
1, 290927, Note_on_c, 0, 69, 0
1, 290927, Note_on_c, 0, 66, 0
1, 290927, Note_on_c, 0, 67, 67
1, 290930, Note_on_c, 0, 71, 67
1, 290930, Note_on_c, 0, 62, 0
1, 290930, Note_on_c, 0, 59, 44
1, 291180, Note_on_c, 0, 71, 0
1, 291180, Note_on_c, 0, 67, 0
1, 291180, Note_on_c, 0, 69, 65
1, 291183, Note_on_c, 0, 72, 65
1, 291183, Note_on_c, 0, 59, 0
1, 291183, Note_on_c, 0, 57, 44
1, 291419, Note_on_c, 0, 72, 0
1, 291419, Note_on_c, 0, 69, 0
1, 291419, Note_on_c, 0, 71, 59
1, 291422, Note_on_c, 0, 74, 59
1, 291422, Note_on_c, 0, 57, 0
1, 291422, Note_on_c, 0, 55, 39
1, 291553, Note_on_c, 0, 74, 0
1, 291553, Note_on_c, 0, 71, 0
1, 291553, Note_on_c, 0, 55, 0
1, 291687, Note_on_c, 0, 71, 54
1, 291687, Note_on_c, 0, 74, 54
1, 291687, Note_on_c, 0, 55, 39
1, 291956, Note_on_c, 0, 74, 0
1, 291956, Note_on_c, 0, 71, 0
1, 291956, Note_on_c, 0, 55, 0
1, 292225, Note_on_c, 0, 67, 56
1, 292225, Note_on_c, 0, 52, 46
1, 292475, Note_on_c, 0, 67, 0
1, 292475, Note_on_c, 0, 69, 61
1, 292475, Note_on_c, 0, 52, 0
1, 292478, Note_on_c, 0, 48, 46
1, 292596, Note_on_c, 0, 69, 0
1, 292596, Note_on_c, 0, 48, 0
1, 292716, Note_on_c, 0, 71, 62
1, 292835, Note_on_c, 0, 71, 0
1, 292954, Note_on_c, 0, 72, 62
1, 293072, Note_on_c, 0, 72, 0
1, 293191, Note_on_c, 0, 62, 62
1, 293191, Note_on_c, 0, 50, 41
1, 293311, Note_on_c, 0, 62, 0
1, 293311, Note_on_c, 0, 50, 0
1, 293432, Note_on_c, 0, 64, 60
1, 293553, Note_on_c, 0, 64, 0
1, 293674, Note_on_c, 0, 66, 60
1, 293794, Note_on_c, 0, 66, 0
1, 293915, Note_on_c, 0, 55, 53
1, 294049, Note_on_c, 0, 55, 0
1, 294183, Note_on_c, 0, 50, 48
1, 294316, Note_on_c, 0, 50, 0
1, 294450, Note_on_c, 0, 47, 48
1, 294630, Note_on_c, 0, 47, 0
1, 294720, Control_c, 0, 64, 127
1, 294720, Note_on_c, 0, 43, 56
1, 294735, Note_on_c, 0, 47, 57
1, 294750, Note_on_c, 0, 50, 63
1, 294765, Note_on_c, 0, 55, 67
1, 294780, Note_on_c, 0, 59, 70
1, 294795, Note_on_c, 0, 62, 70
1, 294810, Note_on_c, 0, 67, 77
1, 294999, Note_on_c, 0, 50, 0
1, 295094, Note_on_c, 0, 67, 0
1, 295094, Note_on_c, 0, 62, 0
1, 295094, Note_on_c, 0, 59, 0
1, 295097, Note_on_c, 0, 43, 0
1, 295097, Note_on_c, 0, 47, 0
1, 295097, Note_on_c, 0, 55, 0
1, 295302, Control_c, 0, 64, 0
1, 296800, End_track
0, 0, End_of_file
